<?xml version="1.0" encoding="utf-8"?>
<!-- Generator: Adobe Illustrator 26.0.0, SVG Export Plug-In . SVG Version: 6.00 Build 0)  -->
<svg version="1.1" id="asset" xmlns="http://www.w3.org/2000/svg" xmlns:xlink="http://www.w3.org/1999/xlink" x="0px" y="0px"
	 viewBox="0 0 214.74 150" style="enable-background:new 0 0 214.74 150;" xml:space="preserve">
<style type="text/css">
	.st0{fill:#148EF4;}
	.st1{fill:url(#SVGID_1_);}
	.st2{fill:url(#SVGID_00000029751958339453206030000012596805899860017027_);}
	.st3{fill:#CCCCCC;}
	.st4{fill:#E6E6E6;}
	.st5{fill:#6AB7FB;}
	.st6{fill:#FFFFFF;}
	.st7{fill:#D600AA;}
	.st8{fill:#999999;}
</style>
<g>
	<path class="st0" d="M113.49,96.79c0-10.91,2.38-17.13,6.35-16.73c4.71,0.48,6.54,11.45,6.54,11.45L113.49,96.79z"/>
	<path class="st0" d="M20.7,96.79c2.12-10.91,5.48-17.13,8.98-16.73c4.15,0.48,3.68,11.45,3.68,11.45L20.7,96.79z"/>
	
		<linearGradient id="SVGID_1_" gradientUnits="userSpaceOnUse" x1="114.0528" y1="1059.3595" x2="131.2388" y2="981.1247" gradientTransform="matrix(1 0 0 -1 0 1072)">
		<stop  offset="0.1773" style="stop-color:#522CD5"/>
		<stop  offset="0.1918" style="stop-color:#5934D7"/>
		<stop  offset="0.2412" style="stop-color:#6B4ADD"/>
		<stop  offset="0.2995" style="stop-color:#795BE2"/>
		<stop  offset="0.3717" style="stop-color:#8366E6"/>
		<stop  offset="0.473" style="stop-color:#886DE7"/>
		<stop  offset="0.7543" style="stop-color:#8A6FE8"/>
	</linearGradient>
	<path class="st1" d="M103.45,15.76c10.36,26.03,17.56,62.62,17.29,72.34c-0.04,0.97,9.2,1.87,18.12-0.16
		c0.2-18.42-7.42-52.59-18.43-78.88C115.05,11.81,109.37,14.06,103.45,15.76z"/>
	
		<linearGradient id="SVGID_00000107588303472819572350000003586508883944030893_" gradientUnits="userSpaceOnUse" x1="47.6808" y1="1071.1005" x2="38.3182" y2="979.0468" gradientTransform="matrix(1 0 0 -1 0 1072)">
		<stop  offset="0.1773" style="stop-color:#522CD5"/>
		<stop  offset="0.6559" style="stop-color:#8A6FE8"/>
	</linearGradient>
	<path style="fill:url(#SVGID_00000107588303472819572350000003586508883944030893_);" d="M39.18,11.82l-12.71,90.26l18.21,2.27
		l12.24-86.93C50.77,16.12,44.83,14.24,39.18,11.82z"/>
	<path class="st3" d="M201.54,125.4c-5.15-9.99-6.6-10.69-22.41-14.66c-27.96-7.02-31.93-30.23-32.72-34.04
		c-0.79-3.81-11.31-2.38-15.06,0.4c-3.76,2.78-6.15,12.97-6.15,12.97l1.19,40.92c0,0,37.88,7.54,47.8,5.68
		C184.1,134.8,201.54,125.4,201.54,125.4z"/>
	<path class="st4" d="M149.39,129.61c0,0,7.34-9.93,17.05-10.21c9.72-0.29,26.58-3.57,27.37-4.51c0.79-0.94,5.75,4.66,7.74,11.31
		C203.53,132.85,149.39,129.61,149.39,129.61z"/>
	<path class="st5" d="M113.09,124.93V97.57c0-7.93,10.51-11.15,16.26-14.02c3.93-1.96,7.15-3.99,10.72,5.92s12.49,16.32,19.83,18.69
		c7.34,2.37-0.99,5.11-4.76,8.28s-8.72,9.26-7.34,12.11C149.2,131.39,129.55,137.1,113.09,124.93z"/>
	<path class="st6" d="M130.63,99.75l1.67,5.24c0.1,0.32,0.3,0.6,0.56,0.8c0.26,0.21,0.58,0.33,0.92,0.35l5.42,0.29
		c1.5,0.08,2.13,2.04,0.91,2.85l-4.38,2.95c-0.27,0.18-0.47,0.45-0.57,0.76c-0.1,0.31-0.1,0.64,0.01,0.95l1.67,5.24
		c0.1,0.31,0.11,0.65,0,0.96c-0.1,0.31-0.31,0.58-0.58,0.76c-0.27,0.18-0.59,0.27-0.92,0.25c-0.33-0.02-0.64-0.15-0.89-0.36
		l-4.38-3.41c-0.26-0.21-0.57-0.33-0.9-0.34c-0.33-0.02-0.65,0.07-0.93,0.25l-4.38,2.95c-1.22,0.82-2.85-0.45-2.39-1.86l1.67-5.06
		c0.1-0.32,0.1-0.66,0-0.97c-0.1-0.32-0.3-0.59-0.56-0.79l-4.38-3.41c-1.22-0.95-0.59-2.84,0.91-2.76l5.42,0.29
		c0.32,0.02,0.64-0.07,0.91-0.25c0.27-0.18,0.47-0.44,0.57-0.75l1.67-5.06C128.15,98.19,130.17,98.29,130.63,99.75z"/>
	<path class="st7" d="M112.1,125.27v7.45c0.01,0.58,0.22,1.14,0.6,1.59c0.38,0.44,0.91,0.73,1.48,0.82
		c7.48,1.11,34.31,4.6,67.52,3.32c7.85-0.3,17.49-2.43,21.59-3.42c0.55-0.13,1.02-0.47,1.32-0.95c0.3-0.47,0.41-1.05,0.29-1.6
		l-1.3-6.78c-0.06-0.32-0.19-0.63-0.37-0.9c-0.18-0.27-0.42-0.51-0.69-0.68c-0.28-0.18-0.58-0.3-0.91-0.36
		c-0.32-0.06-0.66-0.05-0.98,0.03c-5.14,1.33-17.14,4.26-24.32,4.49c-7.44,0.26-17.41,0.23-21.13,0.21
		c-0.42-0.01-0.83-0.12-1.19-0.33c-0.36-0.21-0.66-0.51-0.88-0.87c-0.9-1.51-2.94-3.92-6.75-3.95c-4.56-0.04-4.56,3.53-8.33,6.11
		c-3.51,2.4-11.68-4.05-23.37-6.3c-0.32-0.07-0.65-0.06-0.96,0.02c-0.31,0.08-0.61,0.22-0.86,0.43c-0.25,0.2-0.45,0.46-0.59,0.76
		C112.17,124.62,112.1,124.94,112.1,125.27z"/>
	<path d="M138.34,90.71c0.63-0.61,0.62-1.64-0.03-2.3c-0.64-0.66-1.67-0.7-2.3-0.09c-0.63,0.61-0.62,1.64,0.03,2.3
		C136.69,91.28,137.71,91.32,138.34,90.71z"/>
	<path d="M140.56,96.3c0.63-0.61,0.62-1.64-0.03-2.3c-0.64-0.66-1.67-0.7-2.3-0.09c-0.63,0.61-0.62,1.64,0.03,2.3
		C138.91,96.87,139.94,96.91,140.56,96.3z"/>
	<path d="M143.98,101.04c0.63-0.61,0.62-1.64-0.03-2.3c-0.64-0.66-1.67-0.7-2.3-0.09c-0.63,0.61-0.62,1.64,0.03,2.3
		C142.32,101.61,143.36,101.65,143.98,101.04z"/>
	<path d="M148.45,105.29c0.63-0.61,0.62-1.64-0.03-2.3c-0.64-0.66-1.67-0.7-2.3-0.09c-0.63,0.61-0.62,1.64,0.03,2.3
		C146.79,105.86,147.82,105.9,148.45,105.29z"/>
	<path d="M153.45,108.87c0.63-0.61,0.62-1.64-0.03-2.3c-0.64-0.66-1.67-0.7-2.3-0.09c-0.63,0.61-0.62,1.64,0.03,2.3
		C151.8,109.45,152.83,109.49,153.45,108.87z"/>
	<path d="M159.25,112.15c0.63-0.61,0.62-1.64-0.03-2.3c-0.64-0.66-1.67-0.7-2.3-0.09c-0.63,0.61-0.62,1.64,0.03,2.3
		C157.6,112.72,158.63,112.76,159.25,112.15z"/>
	<g>
		<path class="st8" d="M158.31,111.29c-0.14,0-0.27-0.06-0.37-0.16c-0.15-0.17-0.18-0.42-0.05-0.61c0.8-1.25,1.59-2.27,2.33-3.11
			c-2.09,0.03-4.59,0.2-7.64,0.6c-0.2,0.03-0.38-0.06-0.49-0.23c-0.1-0.17-0.1-0.38,0.01-0.54c0.75-1.15,2.03-2.34,3.35-3.39
			c-2.53-0.05-5.29,0.1-7.88,0.66c-0.21,0.05-0.43-0.05-0.54-0.24s-0.08-0.43,0.07-0.59c1.08-1.13,2.21-2.21,3.4-3.22
			c-2.49-0.15-4.97-0.22-7.45-0.2c0,0,0,0,0,0c-0.2,0-0.38-0.12-0.46-0.3c-0.08-0.19-0.04-0.4,0.1-0.55
			c1.35-1.37,2.87-2.62,4.31-3.67c-2.32-0.26-4.83-0.41-7.24-0.26c-0.2,0.02-0.4-0.1-0.49-0.29c-0.09-0.19-0.05-0.41,0.09-0.56
			c1.59-1.64,3.32-2.96,4.91-4c-1.87-0.28-4.11-0.52-6.77-0.67c-0.28-0.02-0.49-0.25-0.47-0.53c0.02-0.27,0.24-0.5,0.53-0.47
			c3.26,0.18,5.9,0.5,8.03,0.87c2.5-1.45,4.42-2.12,4.56-2.17c0.26-0.09,0.55,0.05,0.64,0.31c0.09,0.26-0.05,0.55-0.31,0.64
			c-0.03,0.01-1.41,0.49-3.34,1.52c4.38,0.91,6,1.96,6.09,2.03c0.15,0.1,0.23,0.27,0.22,0.44c-0.01,0.18-0.11,0.33-0.27,0.42
			c-0.03,0.01-1.51,0.79-3.5,2.08c3.8,0.6,6.6,1.38,6.65,1.39c0.19,0.05,0.33,0.22,0.36,0.42c0.03,0.2-0.07,0.39-0.24,0.49
			c-1.15,0.7-2.26,1.45-3.34,2.25c2.47,0.21,4.94,0.51,7.38,0.89c0.21,0.03,0.38,0.19,0.41,0.4s-0.06,0.42-0.24,0.52
			c-0.02,0.01-1.04,0.61-2.35,1.51c3.67,0.28,6.37,0.86,6.57,0.9c0.21,0.05,0.37,0.23,0.39,0.45c0.02,0.22-0.11,0.42-0.31,0.51
			c-0.02,0.01-0.97,0.4-2.35,1.6c2.35,0.09,4.11,0.34,5.6,0.56c0.85,0.12,1.58,0.23,2.29,0.28c0.27,0.02,0.47,0.25,0.46,0.51
			s-0.22,0.48-0.49,0.49c-0.07,0-6.71,0.16-11.94,2.96C158.47,111.27,158.39,111.29,158.31,111.29z M161.59,107.42
			c-0.57,0.58-1.18,1.28-1.81,2.12c2.22-0.94,4.51-1.49,6.4-1.81C164.91,107.57,163.42,107.44,161.59,107.42z M157.01,103.92
			c-1.2,0.89-2.46,1.93-3.37,2.96c3.02-0.36,5.49-0.47,7.53-0.47c0.85-0.83,1.59-1.41,2.17-1.8
			C161.98,104.38,159.69,104.05,157.01,103.92z M151.94,100.57c-1.05,0.84-2.06,1.74-3.02,2.68c2.65-0.41,5.37-0.47,7.79-0.36
			c0.86-0.62,1.66-1.16,2.28-1.55C156.66,101,154.3,100.75,151.94,100.57z M144.27,99.26c2.45,0.01,4.9,0.1,7.35,0.28
			c1.07-0.84,2.17-1.63,3.32-2.36c-1.32-0.32-3.69-0.85-6.48-1.24C147.1,96.88,145.63,98.01,144.27,99.26z M141.79,94.43
			c2.19,0,4.4,0.19,6.41,0.46c1.52-1.04,2.86-1.83,3.68-2.29c-0.96-0.42-2.87-1.11-6.1-1.7c-1.5,0.89-3.19,2.07-4.78,3.54
			C141.26,94.43,141.53,94.43,141.79,94.43z"/>
	</g>
	<path class="st3" d="M94.58,125.4c-2.71-9.99-3.88-10.69-17.36-14.66c-23.86-7.02-22.93-30.23-22.9-34.04
		c0.03-3.81-9.74-2.38-13.68,0.4c-3.94,2.78-8.07,12.97-8.07,12.97l-6.88,40.92c0,0,32.71,7.54,42.02,5.68
		C77.02,134.8,94.58,125.4,94.58,125.4z"/>
	<path class="st4" d="M46.71,129.61c0,0,8.55-9.93,17.36-10.21c8.81-0.29,24.67-3.57,25.57-4.51c0.9-0.94,4.28,4.66,4.78,11.31
		C94.91,132.85,46.71,129.61,46.71,129.61z"/>
	<path class="st5" d="M14.87,124.93l5.32-27.37c1.53-7.93,11.65-11.15,17.4-14.02c3.93-1.96,7.22-3.99,8.51,5.92
		c1.29,9.9,8.1,16.32,14.26,18.69s-1.89,5.11-5.9,8.28s-9.67,9.26-8.97,12.11C46.19,131.39,27.36,137.1,14.87,124.93z"/>
	<path class="st6" d="M35.6,99.75l0.49,5.24c0.01,0.29,0.13,0.57,0.33,0.79c0.2,0.21,0.48,0.34,0.78,0.36l4.83,0.29
		c1.34,0.08,1.53,2.04,0.26,2.85l-4.53,2.95c-0.28,0.18-0.5,0.44-0.65,0.74c-0.15,0.3-0.21,0.63-0.19,0.97l0.49,5.24
		c0.14,1.45-1.55,2.55-2.47,1.61l-3.29-3.41c-0.21-0.21-0.5-0.33-0.79-0.35c-0.3-0.02-0.59,0.07-0.83,0.25l-4.53,2.95
		c-1.26,0.82-2.48-0.45-1.79-1.86l2.49-5.06c0.15-0.28,0.22-0.59,0.19-0.91c-0.03-0.31-0.15-0.61-0.36-0.86l-3.29-3.41
		c-0.91-0.95,0.02-2.84,1.36-2.76l4.83,0.29c0.32,0,0.64-0.09,0.91-0.27c0.27-0.18,0.49-0.43,0.62-0.73l2.49-5.06
		C33.66,98.19,35.46,98.29,35.6,99.75z"/>
	<path class="st7" d="M13.92,125.27l-1.45,7.45c-0.23,1.19,0.38,2.23,1.41,2.41c6.54,1.11,30.06,4.6,60.27,3.32
		c7.15-0.3,16.25-2.43,20.14-3.42c0.55-0.17,1.04-0.5,1.39-0.96c0.35-0.46,0.55-1.01,0.56-1.59l0.15-6.78
		c0.03-1.36-1.04-2.26-2.3-1.92c-4.89,1.33-16.29,4.26-22.81,4.49c-6.76,0.26-15.75,0.23-19.1,0.21c-0.37,0-0.72-0.11-1.01-0.33
		c-0.29-0.22-0.51-0.52-0.62-0.87c-0.51-1.51-1.89-3.92-5.32-3.95c-4.11-0.04-4.8,3.53-8.7,6.11c-3.64,2.4-9.75-4.05-19.86-6.3
		C15.49,122.85,14.19,123.87,13.92,125.27z"/>
	<path d="M44.72,90.21c0.47-0.81,0.31-1.78-0.37-2.17c-0.67-0.39-1.6-0.05-2.07,0.76c-0.47,0.81-0.31,1.78,0.37,2.18
		C43.33,91.36,44.25,91.02,44.72,90.21z"/>
	<path d="M45.64,95.8c0.47-0.81,0.31-1.78-0.37-2.18c-0.67-0.39-1.6-0.05-2.07,0.77c-0.47,0.81-0.31,1.78,0.37,2.17
		C44.25,96.95,45.17,96.61,45.64,95.8z"/>
	<path d="M47.8,100.53c0.47-0.81,0.31-1.78-0.37-2.17c-0.67-0.39-1.6-0.05-2.07,0.76c-0.47,0.81-0.31,1.78,0.37,2.18
		C46.41,101.69,47.33,101.35,47.8,100.53z"/>
	<path d="M51.01,104.79c0.47-0.81,0.31-1.78-0.37-2.18c-0.67-0.39-1.6-0.05-2.07,0.76c-0.47,0.81-0.31,1.78,0.37,2.18
		C49.61,105.94,50.54,105.6,51.01,104.79z"/>
	<path d="M54.83,108.37c0.47-0.81,0.31-1.78-0.37-2.18c-0.67-0.39-1.6-0.05-2.07,0.77c-0.47,0.81-0.31,1.78,0.37,2.17
		C53.43,109.52,54.36,109.18,54.83,108.37z"/>
	<path d="M59.42,111.65c0.47-0.81,0.31-1.78-0.37-2.18c-0.67-0.39-1.6-0.05-2.07,0.77c-0.47,0.81-0.31,1.78,0.37,2.17
		C58.03,112.8,58.95,112.46,59.42,111.65z"/>
	<g>
		<path class="st8" d="M58.42,111.29c-0.14,0-0.28-0.06-0.38-0.18c-0.15-0.18-0.16-0.44-0.01-0.63c0.95-1.23,1.85-2.24,2.67-3.07
			c-1.85,0.04-4.07,0.21-6.8,0.6c-0.21,0.03-0.4-0.07-0.5-0.25c-0.1-0.18-0.09-0.4,0.04-0.56c0.89-1.13,2.26-2.31,3.64-3.36
			c-2.22-0.04-4.66,0.12-7.03,0.66c-0.22,0.05-0.44-0.05-0.55-0.25c-0.11-0.2-0.07-0.44,0.09-0.6c1.17-1.12,2.4-2.19,3.67-3.2
			c-1.95-0.13-4.13-0.21-6.48-0.2c0,0,0,0,0,0c-0.21,0-0.39-0.12-0.46-0.32c-0.08-0.19-0.03-0.41,0.13-0.55
			c1.48-1.37,3.1-2.61,4.62-3.67c-1.99-0.25-4.17-0.39-6.31-0.24c-0.21,0.02-0.41-0.11-0.49-0.3c-0.08-0.19-0.04-0.42,0.12-0.57
			c1.62-1.5,3.37-2.84,5.22-4c-1.6-0.27-3.52-0.5-5.81-0.65c-0.28-0.02-0.48-0.25-0.47-0.53c0.02-0.28,0.26-0.49,0.53-0.47
			c2.89,0.18,5.21,0.5,7.05,0.87c1.45-0.82,2.95-1.54,4.52-2.16c0.26-0.1,0.55,0.03,0.65,0.28c0.1,0.26-0.02,0.55-0.28,0.65
			c-1.17,0.46-2.3,0.98-3.4,1.56c3.74,0.92,4.99,1.97,5.07,2.03c0.12,0.11,0.19,0.27,0.17,0.44c-0.02,0.16-0.12,0.31-0.27,0.38
			c-0.03,0.01-1.53,0.8-3.59,2.1c3.17,0.58,5.42,1.33,5.59,1.38c0.19,0.06,0.32,0.23,0.34,0.42s-0.07,0.38-0.24,0.48
			c-1.19,0.71-2.35,1.47-3.48,2.27c3.87,0.37,6.31,0.86,6.35,0.87c0.2,0.04,0.36,0.21,0.39,0.41c0.03,0.21-0.06,0.41-0.24,0.51
			c-0.02,0.01-1.07,0.62-2.44,1.52c3.18,0.28,5.43,0.85,5.6,0.89c0.21,0.05,0.36,0.24,0.37,0.45c0.01,0.22-0.11,0.42-0.31,0.5
			c-0.02,0.01-0.95,0.4-2.45,1.61c2.01,0.09,3.5,0.34,4.77,0.55c0.74,0.12,1.38,0.23,2,0.28c0.26,0.02,0.46,0.25,0.46,0.51
			s-0.22,0.48-0.49,0.48c-0.06,0-6.07,0.16-11.34,2.96C58.58,111.27,58.5,111.29,58.42,111.29z M62.14,107.42
			c-0.59,0.55-1.24,1.2-1.92,1.98c2.11-0.87,4.19-1.38,5.89-1.69C65.01,107.56,63.72,107.44,62.14,107.42z M58.69,103.92
			c-1.25,0.88-2.57,1.91-3.59,2.93c2.69-0.33,4.83-0.44,6.65-0.44c0.95-0.85,1.75-1.44,2.35-1.83
			C62.91,104.36,60.98,104.05,58.69,103.92z M54.75,100.58c-1.1,0.83-2.16,1.71-3.19,2.63c2.39-0.38,4.75-0.42,6.85-0.32
			c0.91-0.64,1.77-1.18,2.41-1.58C59.56,101.1,57.44,100.8,54.75,100.58z M48.1,99.27c2.32,0.02,4.47,0.13,6.36,0.28
			c1.14-0.85,2.32-1.66,3.52-2.41c-1.14-0.32-3.1-0.82-5.45-1.2C51.12,96.88,49.56,98.01,48.1,99.27z M46.64,94.43
			c1.98,0,3.92,0.19,5.67,0.45c1.62-1.07,3.01-1.88,3.83-2.33c-0.79-0.42-2.35-1.08-5.07-1.65c-1.76,1.03-3.42,2.21-4.97,3.53
			C46.28,94.43,46.46,94.43,46.64,94.43z"/>
	</g>
</g>
</svg>
