<?xml version="1.0" encoding="utf-8"?>
<!-- Generator: Adobe Illustrator 26.0.0, SVG Export Plug-In . SVG Version: 6.00 Build 0)  -->
<svg version="1.1" id="asset" xmlns="http://www.w3.org/2000/svg" xmlns:xlink="http://www.w3.org/1999/xlink" x="0px" y="0px"
	 viewBox="0 0 214.74 150" style="enable-background:new 0 0 214.74 150;" xml:space="preserve">
<style type="text/css">
	.st0{fill:url(#SVGID_1_);}
	.st1{fill:url(#SVGID_00000083781475996003302000000001230667237884190380_);}
	.st2{fill:url(#SVGID_00000121984893666703374900000014597887440069651366_);}
	.st3{fill:url(#SVGID_00000005228907431286591040000009922507910369751434_);}
	.st4{fill:url(#SVGID_00000160166723846495341130000010553287949117723014_);}
	.st5{fill:url(#SVGID_00000112619816294614557830000013897108515250259586_);}
</style>
<g>
	
		<linearGradient id="SVGID_1_" gradientUnits="userSpaceOnUse" x1="-409.4944" y1="-5645.6504" x2="-409.4944" y2="-5542.8965" gradientTransform="matrix(1 0 0 1 564 5678.4224)">
		<stop  offset="0.7625" style="stop-color:#F0F0F0"/>
		<stop  offset="1" style="stop-color:#CFCDCD"/>
	</linearGradient>
	<path class="st0" d="M137.31,41.16c0,0-4.02-5.59-14.2-7.53c-0.95-0.18-1.34,0.69-0.7,1.55c1,1.35,1.8,2.83,2.37,4.4
		c0,0-7.72-4.94-15.56-5.22c-0.96-0.03-0.91,1.18,0.07,1.78c3.96,2.41,5.72,5.01,5.72,5.01s-5.77-0.65-10.73,0.96
		c-0.88,0.29-0.29,1.74,0.82,2c3.35,0.81,5.15,1.63,5.15,1.63s-3.19,2.01-5.91,6.56c-0.37,0.62,0.62,1.67,1.38,1.47
		c3.51-0.91,5.62-0.59,5.62-0.59s-3.58,4.84-4.69,12.12c-0.13,0.89,1.1,1.93,1.93,1.62c1.47-0.57,2.99-0.98,4.54-1.25
		c0,0-4.08,4.84-6.86,15.68c-0.18,0.72,0.89,1.65,1.58,1.35c1.6-0.71,3.23-1.33,4.9-1.85c-1.09,2.61-1.8,5.36-2.11,8.16
		c-0.1,0.97,1.14,2.08,2.13,1.92c1.02-0.17,2.04-0.27,3.07-0.28c-1.46,4.2-2.08,8.64-1.84,13.08c0.06,1.09,1.56,2.07,2.38,1.57
		c0.96-0.6,1.98-1.11,3.04-1.52c0,0-1.3,6.68,1.03,14.72c0.3,1.04,1.7,1.74,2.35,1.18c0.56-0.48,1.15-0.94,1.75-1.36
		c1.43,2.9,3.22,5.6,5.33,8.04c0.77,0.89,1.99,1.04,2.33,0.3c0.48-1.05,1.08-2.05,1.78-2.97c0,0,2.12,5.94,10,11.1
		c1.05,0.69,2.14,0.35,2.07-0.65c-0.12-1.71-0.12-2.77-0.12-2.77s6.71,3.22,17,4.17c0.72,0.07,1.09-0.49,0.8-1.19
		c-0.49-1.16-0.89-2.35-1.18-3.58c3.92,1.53,7.99,2.65,12.15,3.34c3.71,0.6,8.23,0.27,10.52,0.04c0.65-0.07,0.65-0.87,0.02-1.4
		l-3.37-2.85c0,0,11.43,2.26,18.61,1.44c0.54-0.06,0.57-0.73,0.05-1.2c-1.87-1.7-3.49-3.28-3.49-3.28s4.01-1.26,7.4-1.12
		c0.57,0.02,0.87-0.41,0.67-0.98c-1.82-5.35-9.13-8.34-9.13-8.34s1.52-1.52,5.41-1.77c1.11-0.07,1.06-1.5-0.1-2.27
		c-4.96-3.34-11.1-4.97-11.1-4.97s4.11-0.12,5.34-3.14c0.22-0.52-0.43-1.3-1.11-1.33c-8.77-0.38-18.72-2.8-18.72-2.8
		c0.77-0.32,1.49-0.75,2.14-1.27c0.5-0.41,0.05-1.41-0.78-1.76c-4.9-2.1-9.37-5.09-13.18-8.82c1.01,0.17,2.04,0.15,3.04-0.05
		c0.6-0.14,0.65-0.87,0.12-1.49c-3.56-4.13-7-10.63-7-10.63s3.59,2.51,6.71,3.45c0.92,0.28,1.39-0.51,0.8-1.34
		c-5.22-7.42-6.71-13.17-6.71-13.17s3.58,2.66,7.4,3.04c0.85,0.08,1.05-0.82,0.35-1.54c-3.21-3.28-6.5-8.14-6.5-8.14
		s4.53,0.97,8.44-1.35c0.56-0.33,0.05-1.37-0.77-1.57c-3.84-0.93-7.75-3.09-7.75-3.09s2.68-2.2,3.52-5.49
		c0.19-0.74-0.85-1.7-1.62-1.5c-2.03,0.5-4.09,0.83-6.17,0.98c0.18-1.45,0.01-2.92-0.5-4.28c-0.5-1.37-1.33-2.6-2.41-3.58
		c-0.62-0.57-1.44-0.5-1.52,0.11c-0.43,2.95-3.08,5.86-3.08,5.86s-4.01-6.96-13.2-11.7C138.2,37.84,137.31,41.16,137.31,41.16z"/>
	
		<radialGradient id="SVGID_00000012431054424762936230000011859942385541408390_" cx="3665.9241" cy="-2754.458" r="0.2174" gradientTransform="matrix(5.4029 -66.8904 179.9151 14.5322 475896.5625 285307.9062)" gradientUnits="userSpaceOnUse">
		<stop  offset="0.5368" style="stop-color:#B3B3B3"/>
		<stop  offset="1" style="stop-color:#B3B3B3;stop-opacity:0"/>
	</radialGradient>
	<path style="fill:url(#SVGID_00000012431054424762936230000011859942385541408390_);" d="M164.82,53.77
		c-1.68-0.73-2.85-1.38-2.85-1.38s2.68-2.2,3.52-5.49c0.19-0.74-0.85-1.7-1.62-1.5c-2.03,0.5-4.09,0.83-6.17,0.98
		c0.18-1.45,0.01-2.92-0.5-4.28c-0.5-1.37-1.33-2.6-2.41-3.58c-0.62-0.57-1.44-0.5-1.52,0.11c-0.43,2.95-3.08,5.86-3.08,5.86
		s-4.01-6.96-13.2-11.7c1.21,5.06,0.32,8.38,0.32,8.38s-4.02-5.59-14.2-7.53c-0.95-0.18-1.34,0.69-0.7,1.55
		c1,1.35,1.8,2.83,2.37,4.4c0,0-7.72-4.94-15.56-5.22c-0.96-0.03-0.91,1.18,0.07,1.78c3.96,2.41,5.72,5.01,5.72,5.01
		s-5.77-0.65-10.73,0.96c-0.88,0.29-0.29,1.74,0.82,2c3.35,0.81,5.15,1.63,5.15,1.63s-1.41,0.89-3.15,2.83
		C129.88,58.61,154.67,55.99,164.82,53.77z"/>
	
		<linearGradient id="SVGID_00000145023911205185056010000008048133975335352255_" gradientUnits="userSpaceOnUse" x1="-511.4109" y1="-5645.6484" x2="-511.4109" y2="-5542.8931" gradientTransform="matrix(1 0 0 1 564 5678.4224)">
		<stop  offset="0.7625" style="stop-color:#F0F0F0"/>
		<stop  offset="1" style="stop-color:#CFCDCD"/>
	</linearGradient>
	<path style="fill:url(#SVGID_00000145023911205185056010000008048133975335352255_);" d="M58.7,41.16c0,0-1.84-5.59-11.44-7.53
		c-0.2-0.04-0.42-0.03-0.61,0.04c-0.2,0.07-0.37,0.18-0.51,0.34c-0.13,0.16-0.23,0.35-0.27,0.55c-0.04,0.2-0.02,0.42,0.05,0.61
		c0.48,1.42,0.69,2.91,0.63,4.4c0,0-5.87-4.94-13.75-5.22c-0.21-0.01-0.42,0.05-0.59,0.17c-0.17,0.12-0.31,0.29-0.38,0.48
		s-0.08,0.41-0.02,0.62s0.18,0.38,0.34,0.51c3.07,2.41,3.8,5.01,3.8,5.01s-5.61-0.65-11.32,0.96c-0.22,0.06-0.41,0.2-0.54,0.38
		c-0.13,0.18-0.21,0.4-0.2,0.63c0,0.23,0.08,0.45,0.22,0.62c0.14,0.18,0.33,0.31,0.55,0.36c3.09,0.81,4.59,1.63,4.59,1.63
		s-4.07,2.01-8.67,6.56c-0.14,0.13-0.23,0.31-0.26,0.5c-0.03,0.19,0.01,0.38,0.1,0.55s0.24,0.3,0.42,0.38s0.37,0.09,0.56,0.04
		c3.94-0.91,5.97-0.59,5.97-0.59c-3.84,3.51-7.1,7.6-9.68,12.12c-0.11,0.2-0.16,0.42-0.14,0.64c0.02,0.22,0.1,0.43,0.24,0.61
		c0.14,0.17,0.33,0.3,0.55,0.37c0.22,0.07,0.44,0.07,0.66,0c1.68-0.55,3.39-0.97,5.14-1.25c0,0-6.12,4.84-13.33,15.68
		c-0.1,0.16-0.16,0.35-0.15,0.53c0.01,0.19,0.08,0.37,0.19,0.52c0.12,0.15,0.28,0.26,0.46,0.31c0.18,0.05,0.38,0.05,0.55-0.02
		c3.36-1.23,5.74-1.85,5.74-1.85c-2.1,2.52-3.92,5.26-5.44,8.16c-0.11,0.22-0.16,0.47-0.14,0.71c0.02,0.24,0.11,0.48,0.25,0.68
		c0.15,0.2,0.34,0.35,0.57,0.45c0.23,0.09,0.48,0.12,0.72,0.08c1.07-0.17,2.15-0.26,3.24-0.28c0,0-4.63,5.76-7.16,13.08
		c-0.08,0.24-0.09,0.5-0.02,0.75s0.2,0.47,0.4,0.63c0.19,0.17,0.43,0.27,0.68,0.31c0.25,0.03,0.51-0.01,0.74-0.12
		c1.2-0.6,2.45-1.1,3.73-1.52c0,0-4.03,6.68-4.9,14.72c-0.02,0.23,0.02,0.47,0.12,0.68c0.1,0.21,0.26,0.39,0.46,0.51
		s0.43,0.19,0.67,0.19c0.23,0,0.47-0.07,0.66-0.2c1.23-0.78,2.34-1.36,2.34-1.36c0.26,2.78,1,5.51,2.17,8.04
		c0.1,0.2,0.24,0.38,0.43,0.51s0.4,0.22,0.62,0.25c0.22,0.03,0.45,0,0.66-0.08c0.21-0.08,0.4-0.21,0.55-0.38
		c0.93-1.06,1.94-2.06,3.01-2.97c0,0-0.24,5.94,5.7,11.1c0.18,0.16,0.4,0.27,0.64,0.32c0.24,0.05,0.48,0.05,0.72-0.02
		c0.23-0.07,0.45-0.19,0.63-0.35c0.18-0.17,0.31-0.38,0.39-0.61c0.57-1.71,1-2.77,1-2.77s5.54,3.22,15.65,4.17
		c0.17,0.02,0.33,0,0.49-0.05c0.16-0.05,0.3-0.14,0.43-0.25c0.12-0.11,0.22-0.25,0.29-0.4c0.07-0.15,0.1-0.32,0.1-0.49
		c-0.03-1.2,0.05-2.39,0.25-3.58c3.52,1.58,7.23,2.7,11.04,3.34c3.54,0.6,8.28,0.27,10.7,0.04c0.15-0.02,0.3-0.07,0.43-0.17
		c0.12-0.09,0.22-0.22,0.28-0.36c0.06-0.14,0.08-0.3,0.06-0.46c-0.02-0.15-0.08-0.3-0.18-0.42l-2.29-2.85c0,0,10.74,2.26,18.39,1.44
		c0.13-0.02,0.26-0.06,0.37-0.14s0.19-0.18,0.25-0.3c0.05-0.12,0.08-0.26,0.06-0.39c-0.01-0.13-0.06-0.26-0.14-0.37
		c-1.22-1.7-2.24-3.28-2.24-3.28s4.6-1.26,8-1.12c0.27,0.01,0.54-0.08,0.74-0.26c0.2-0.18,0.33-0.44,0.34-0.71
		c0.31-5.35-5.94-8.34-5.94-8.34s2.15-1.52,6.23-1.77c0.26-0.01,0.51-0.1,0.72-0.25c0.21-0.15,0.37-0.37,0.46-0.61
		c0.09-0.24,0.1-0.51,0.04-0.76c-0.06-0.25-0.2-0.48-0.39-0.65c-3.71-3.34-9.31-4.97-9.31-4.97s4.24-0.12,6.71-3.14
		c0.1-0.12,0.16-0.26,0.18-0.41c0.02-0.15,0-0.3-0.06-0.44c-0.06-0.14-0.16-0.26-0.29-0.34c-0.13-0.08-0.27-0.13-0.42-0.14
		c-8.79-0.38-17.96-2.8-17.96-2.8c0.94-0.33,1.84-0.76,2.7-1.27c0.15-0.1,0.28-0.23,0.36-0.39c0.08-0.16,0.12-0.34,0.11-0.52
		c-0.01-0.18-0.07-0.35-0.17-0.5c-0.1-0.15-0.24-0.27-0.4-0.35c-6.74-3.31-9.87-8.82-9.87-8.82c1.03,0.17,2.09,0.16,3.11-0.05
		c0.16-0.03,0.3-0.1,0.43-0.2c0.12-0.1,0.23-0.22,0.3-0.37c0.07-0.14,0.11-0.3,0.11-0.46s-0.03-0.32-0.1-0.46
		c-1.96-4.13-2.84-10.63-2.84-10.63s2.65,2.51,5.45,3.45c0.19,0.06,0.39,0.07,0.58,0.03c0.19-0.05,0.37-0.14,0.51-0.28
		c0.14-0.14,0.24-0.31,0.29-0.51c0.05-0.19,0.04-0.39-0.02-0.58c-2.33-7.42-1.52-13.17-1.52-13.17s2.57,2.66,6.32,3.04
		c0.19,0.02,0.38-0.02,0.55-0.1c0.17-0.08,0.31-0.21,0.41-0.37c0.1-0.16,0.15-0.34,0.16-0.53c0-0.19-0.05-0.37-0.14-0.54
		c-1.96-3.28-3.34-8.14-3.34-8.14s4.22,0.97,9.14-1.35c0.15-0.07,0.28-0.19,0.37-0.34s0.12-0.32,0.1-0.49
		c-0.02-0.17-0.08-0.33-0.2-0.46c-0.11-0.13-0.26-0.23-0.42-0.27c-3.54-0.93-6.65-3.09-6.65-3.09s3.62-2.2,5.81-5.49
		c0.11-0.17,0.17-0.36,0.16-0.55c0-0.2-0.07-0.39-0.18-0.55c-0.11-0.16-0.27-0.28-0.45-0.36c-0.18-0.07-0.38-0.08-0.58-0.04
		c-2.2,0.49-4.43,0.82-6.68,0.98c0,0,2.62-4.44,0.22-7.86c-0.09-0.13-0.22-0.23-0.37-0.3c-0.15-0.07-0.31-0.1-0.47-0.09
		c-0.16,0.01-0.32,0.06-0.45,0.15c-0.13,0.09-0.25,0.21-0.32,0.35c-1.64,2.95-5.51,5.86-5.51,5.86s-1.28-6.96-8.73-11.7
		C60.95,37.84,58.7,41.16,58.7,41.16z"/>
	
		<radialGradient id="SVGID_00000042725187354958934430000004907802121476975544_" cx="3666.2957" cy="-2752.9749" r="0.2174" gradientTransform="matrix(5.3794 -66.8904 179.1426 14.4069 473507.1562 284966.2188)" gradientUnits="userSpaceOnUse">
		<stop  offset="0.5368" style="stop-color:#B3B3B3"/>
		<stop  offset="1" style="stop-color:#B3B3B3;stop-opacity:0"/>
	</radialGradient>
	<path style="fill:url(#SVGID_00000042725187354958934430000004907802121476975544_);" d="M81.65,53.77
		c-0.81-0.41-1.59-0.87-2.35-1.38c0,0,3.62-2.2,5.81-5.49c0.11-0.17,0.17-0.36,0.16-0.55c0-0.2-0.06-0.39-0.18-0.55
		c-0.11-0.16-0.27-0.28-0.45-0.36c-0.18-0.07-0.38-0.08-0.58-0.04c-2.2,0.49-4.43,0.82-6.68,0.98c0,0,2.62-4.44,0.22-7.86
		c-0.09-0.13-0.22-0.23-0.37-0.3c-0.15-0.07-0.31-0.1-0.47-0.09c-0.16,0.01-0.32,0.06-0.45,0.15c-0.13,0.09-0.25,0.21-0.32,0.35
		c-1.64,2.95-5.51,5.86-5.51,5.86s-1.28-6.96-8.73-11.7c-0.81,5.06-3.06,8.38-3.06,8.38s-1.84-5.59-11.44-7.53
		c-0.2-0.04-0.42-0.03-0.61,0.04c-0.2,0.07-0.37,0.18-0.51,0.34c-0.13,0.16-0.23,0.35-0.27,0.55c-0.04,0.2-0.02,0.42,0.05,0.61
		c0.48,1.42,0.69,2.91,0.63,4.4c0,0-5.87-4.94-13.75-5.22c-0.21-0.01-0.42,0.05-0.59,0.17c-0.17,0.12-0.31,0.29-0.38,0.48
		c-0.07,0.2-0.08,0.41-0.02,0.62c0.06,0.2,0.18,0.38,0.34,0.51c3.07,2.41,3.8,5.01,3.8,5.01s-5.61-0.65-11.32,0.96
		c-0.22,0.06-0.41,0.2-0.54,0.38c-0.13,0.18-0.21,0.4-0.2,0.63c0,0.23,0.08,0.45,0.22,0.62c0.14,0.18,0.33,0.31,0.55,0.36
		c3.09,0.81,4.59,1.63,4.59,1.63c-1.53,0.82-2.98,1.76-4.35,2.83C44.08,58.61,70.42,55.99,81.65,53.77z"/>
	
		<linearGradient id="SVGID_00000135682634360224210230000004097741164714840983_" gradientUnits="userSpaceOnUse" x1="58.7924" y1="1052.2668" x2="53.0338" y2="1018.9988" gradientTransform="matrix(1 0 0 -1 0 1072)">
		<stop  offset="0" style="stop-color:#522CD5"/>
		<stop  offset="0.6512" style="stop-color:#8A6FE8"/>
	</linearGradient>
	<path style="fill:url(#SVGID_00000135682634360224210230000004097741164714840983_);" d="M49.84,21.13l-4.2,33.75
		c5.17,0.8,10.41,1.08,15.63,0.85l3.62-29.1C59.65,25.29,54.61,23.43,49.84,21.13z"/>
	
		<linearGradient id="SVGID_00000113350663340832278400000000614518729075044798_" gradientUnits="userSpaceOnUse" x1="125.8171" y1="1054.161" x2="134.2142" y2="1013.7455" gradientTransform="matrix(1 0 0 -1 0 1072)">
		<stop  offset="0" style="stop-color:#522CD5"/>
		<stop  offset="0.44" style="stop-color:#8A6FE8"/>
	</linearGradient>
	<path style="fill:url(#SVGID_00000113350663340832278400000000614518729075044798_);" d="M118.74,22.08
		c4.24,11.7,5.71,23.43,6.11,31.89c2.88,0.74,10.3,1.75,15.38,1.79c-0.49-10.64-2.4-26.32-8.09-41.28
		C127.95,17.41,123.46,19.96,118.74,22.08z"/>
</g>
</svg>
