<svg xmlns="http://www.w3.org/2000/svg" viewBox="0 0 963.91 704.75"><g id="Layer_2" data-name="Layer 2"><g id="Layer_1-2" data-name="Layer 1"><g id="asset"><path d="M138.21,31.93,104.5,320.81c3.7,3.2,14.55,2.34,17.86,5l21.21-1.12,34.05-12.28L207.75,55.77A373.11,373.11,0,0,1,138.21,31.93Z" fill="#8b9b23"/><path d="M445.56,34.29c47,97.28,29.94,285.87,28.71,330.61-.15,3.88,41.26,7.1,76.19-.84.63-56.82,8.93-257.17-43.28-364.06A376.63,376.63,0,0,1,445.56,34.29Z" fill="#8b9b23"/><path d="M499.66,319.69c1.67-40.19,38.51-46.05,51.35-6.7,9.2,28.2-2.23,49.12-12.28,49.12S499.66,319.69,499.66,319.69Z" fill="#cc5444"/><path d="M952.59,522.85C916.31,412.34,788.78,398.94,735.2,412.34c-45.7,11.43-113.65,1-145.86-39.44-32-40.19-36.84-72.19-36.84-72.19s-10.79,3.35-12.28,20.84c-.87,10.25,0,29.77,0,29.77s-14.51-29.77-26.05-36.09c-22.39-12.28-39.44,5.95-39.44,5.95s-11.91,86.7-28.65,141.4c-9.5,31,78.14,34.6,101.58,44.65S662.64,572,725.15,611s170.51,47.88,212.09,2.23C971.56,575.59,960.22,546.11,952.59,522.85Z" fill="#cc5444"/><path d="M589.33,372.9c-32-40.19-36.84-72.19-36.84-72.19s-10.79,3.35-12.28,20.84c-.87,10.25,0,29.77,0,29.77s-14.51-29.77-26.05-36.09c-22.39-12.28-39.44,5.95-39.44,5.95s-3.18,23.17-8.57,53.12c47.62,47.76,88.76,132.09,88.76,132.09l46.88,19.26S640,454.15,718.25,415.44C674,420.89,617.76,408.6,589.33,372.9Z" fill="#f7b548"/><path d="M672.88,385.4c-2-6-11.08-10.49-27.91-13.74-27.51-5.32-44.8-2.79-55.14,1a67.25,67.25,0,0,1,15.85-14c20.88-13.66,61.85-13.83,62.26-13.83a2.5,2.5,0,0,0,0-5c-1.74,0-42.86.17-65,14.64-11.1,7.26-17.4,14.76-21,20.57l-11.22,1.25,3.11-6a2.5,2.5,0,0,0-.1-2.47,2.48,2.48,0,0,0-2.18-1.18l-11.56.26,3.08-8.64a2.5,2.5,0,0,0-2-3.31l-11.71-1.76,7.5-10.2a2.5,2.5,0,0,0-1.42-3.91l-14-3.44,9.68-14.52a2.5,2.5,0,0,0-4.16-2.78l-10.69,16-18.46-4.51a2.5,2.5,0,0,0-1.19,4.85l16.69,4.08-8.13,12.2a2.5,2.5,0,0,0,1.71,3.86l13.58,2L532,368.43a2.5,2.5,0,0,0-.2,2.63,2.53,2.53,0,0,0,2.27,1.35l18.85-.42-2.84,8a2.51,2.51,0,0,0,.39,2.39,2.47,2.47,0,0,0,2.24.93l9.37-1-.44.85c-43.82,10.63-65.21,36.39-63.12,52.42.5,3.86,3.74,15.28,24.2,15.28a68,68,0,0,0,8.25-.54c29.35-3.61,41.83-21.07,47.14-35.08.63-1.67,1.17-3.33,1.65-5-.09,14.66-2.88,33-14.14,46a2.5,2.5,0,1,0,3.77,3.28c9.63-11.06,14.95-27.42,15.37-47.32a132.64,132.64,0,0,0-1.24-20.84l2.17-.54a2.52,2.52,0,0,0,1.33-.85c12.23,2.69,36.56,8.12,51,11.74,10.53,2.63,26.32-1.14,32.49-7.76C673,391.26,673.81,388.25,672.88,385.4ZM565,387.46c4.11-.94,8.33-1.74,12.64-2.35,0,.16,0,.27-.06.31a.22.22,0,0,1,0,.08c0,.07,0,.15,0,.23a2.09,2.09,0,0,0,0,.25v.08s.05.59.08,1.57L563,391.28Zm-33.44-37,7-10.43,12.17,3-6.84,9.3ZM539,367.31l7.07-9.62,11.32,1.7L554.69,367Zm17.09,10.57,2.14-6,9.26-.21-2.7,5.23Zm11.92,3.7,1.27-.14-1.33.25ZM530.33,445.3c-15.73,1.94-25.78-2-26.88-10.42-1-8,5.64-18.67,17.43-27.8,10-7.73,23-13.88,37.62-18L556,393.9a2.5,2.5,0,0,0,2.22,3.65,2.54,2.54,0,0,0,.61-.07l18.69-4.67a68.78,68.78,0,0,1-4.22,20.78C566.31,432,551.84,442.65,530.33,445.3Zm136.53-54.82c-4.5,4.83-18.13,8.69-27.62,6.32-16.1-4-44.29-10.26-54.68-12.54l.27-3.78a40,40,0,0,1,8.46-3.76c8.85-2.84,24.84-5.17,50.73-.16,20.52,4,23.64,8.95,24.1,10.38C668.25,387.34,668.65,388.56,666.86,390.48Z" fill="#56534f"/><path d="M.4,598.36C-3.5,647.57,18.82,712,164.49,704.08c162.79-8.9,180-89.06,153.21-129.61S4.59,545.5.4,598.36Z" fill="#56534f"/><path d="M105.33,292.62S74.07,349.28,72.4,414.44s0,99.2-47.72,143.37-36,132.51,140.65,123.09S351.19,574.46,276.68,526s-71.16-88.34-69.49-118-31.32-93.76-30.42-113.35C178.45,258.37,119.57,252.07,105.33,292.62Z" fill="#cc5444"/><path d="M220.17,473c-15.62-25.22-14-47-13-65.07,1.67-29.69-29.37-92.65-28.47-112.24,1.67-36.2-60-42.22-74.23-1.67,0,0-30.42,55.26-32.09,120.43-.71,27.45-.82,49.37-4.27,68.85C124.55,451,182.72,460.38,220.17,473Z" fill="#f7b548"/><path d="M177.05,312.43c-13.68-33.52-51.27-32.56-73.12,8.78,2.11,1.79,4.52,3.65,7.26,5.62C135.47,344.21,138.54,371,138.54,371S151.94,330.85,177.05,312.43Z" fill="#cc5444"/><path d="M206.19,401.08c23.07-7.45,36.65-17.11,37.34-17.6a2,2,0,1,0-2.34-3.24c-.17.12-15.37,10.91-40.51,18.35l-3.87-1.68a184.37,184.37,0,0,0-45.63-12.81,2,2,0,0,0-.33-3.67L139.9,377l10.49-3.89a2,2,0,0,0,.15-3.68l-7.74-3.61,15.36-5.24a2,2,0,0,0,.13-3.73l-13.2-5.56,17.55-6.15a2,2,0,1,0-1.32-3.78L139.6,349l-24.84-10.47a2,2,0,1,0-1.55,3.69L134,351l-14,4.9a2,2,0,0,0-.19,3.7l12.26,5.71-14.85,5.07a2,2,0,0,0,.05,3.8l10.25,3.21-5.88,2.18a2,2,0,0,0-.2,3.67l4.48,2.24a334.38,334.38,0,0,0-37.42,13.35c-15.83-.28-36.64-3.93-63.71-13.94a2,2,0,1,0-1.39,3.75c21.24,7.85,40.25,12.47,56.89,13.84-37.84,17.53-61,38.34-58.21,50.8,1,4.51,5.44,9,19.14,9a107.9,107.9,0,0,0,19.53-2.13c39.39-7.37,58.22-27.4,67.09-42.91A77.54,77.54,0,0,0,137,391.71a118.42,118.42,0,0,0,54,51c13.93,6.5,28.9,10,41.64,10a51.11,51.11,0,0,0,15.93-2.27c6.27-2.08,9.53-5.27,9.71-9.48C258.83,427.27,224.5,409.55,206.19,401.08Zm-61.85-13.76a179.69,179.69,0,0,1,50.18,13q-2.75.7-5.61,1.34c-22.39,4.92-39.06-6.36-46.79-13.26ZM126,358l13.49-4.73,12.43,5.24-14.33,4.89Zm-1.65,14.14,13-4.44,7.18,3.34-10.85,4Zm3,9.53,6.4-2.37,11,3.44-1.06.5c-4.74-.44-7.59-.46-7.94-.46h-.09l-.16,0a1.25,1.25,0,0,0-.19,0h-.06l-3.58,1Zm1.2,7.15c-5.06,3.64-14,8.11-28.51,9.51C108.85,394.94,118.36,391.73,128.58,388.8Zm-4.19,26.4C112.28,436.39,90,450.55,60,456.16c-29.53,5.53-33.51-1.54-34-3.84-2.08-9.23,20.25-31.07,63-49.5A89.35,89.35,0,0,0,113.75,400c9.67-2.64,15.82-6.59,19.44-9.65A74,74,0,0,1,124.39,415.2Zm122.92,31.37c-22.7,7.52-75.83-4.61-104.2-52.21,7.53,5.8,19.53,12.47,34.85,12.47a55.18,55.18,0,0,0,11.8-1.3c3.72-.82,7.27-1.73,10.65-2.69,31.83,14.13,54.2,29.75,53.87,37.88C254.18,443.11,251.83,445.07,247.31,446.57Z" fill="#56534f"/><path d="M446.08,462.57s26.79,14.51,92.65,31.26,149.58,79.26,198.7,113.86,135,33.38,183.07,5.58c51.63-29.86,34.6-83.16,34.6-83.16s25.4,54.7-10.05,89.86c-50,49.63-161.77,54.82-224.37,2.23C609.05,528.43,530.91,512.8,530.91,512.8l-3.07,18.7s-74-24.56-76.19-30.14S446.08,462.57,446.08,462.57Z" fill="#56534f"/><path d="M810,428.52s91,.32,120.56,82.05c21.77,60.28-35.16,85.4-35.16,85.4s29.71-29.33,6.7-92.09C883.66,453.64,810,428.52,810,428.52Z" fill="#ed9583"/><path d="M46.92,585.7S78,519,156.65,517.22c69.85-1.56,111.94,50.92,111.94,50.92s-33.25-21.07-109.73-21.07S46.92,585.7,46.92,585.7Z" fill="#ed9583"/><ellipse cx="776.63" cy="481.1" rx="16.87" ry="30.17" transform="translate(187.65 1179.47) rotate(-81.63)" fill="#ed9583"/><ellipse cx="103.46" cy="623.92" rx="16.87" ry="30.17" transform="translate(-528.63 602.64) rotate(-78.66)" fill="#ed9583"/><polygon points="114.72 233.2 185.8 242.74 192.56 185.08 121.45 175.54 114.72 233.2" fill="#4adafa"/><polygon points="127.98 119.62 199.13 129.17 205.9 71.51 134.71 61.96 127.98 119.62" fill="#4adafa"/><path d="M547.17,180.25l-70.6,3.62c1.18,19.78,1.66,39.45,1.71,58.23l72.13-3.7C549.77,219.71,548.76,200.11,547.17,180.25Z" fill="#4adafa"/><path d="M528.26,59,460.61,75.62a438.18,438.18,0,0,1,11.17,57.22l68.05-16.68A570.51,570.51,0,0,0,528.26,59Z" fill="#4adafa"/></g></g></g></svg>