<svg xmlns="http://www.w3.org/2000/svg" xmlns:xlink="http://www.w3.org/1999/xlink" viewBox="0 0 820.35 555.73"><defs><linearGradient id="linear-gradient" x1="472.79" y1="-327.92" x2="472.79" y2="-623.75" gradientTransform="matrix(1, 0, 0, -1, 0, -327.92)" gradientUnits="userSpaceOnUse"><stop offset="0" stop-color="#522cd5"/><stop offset="0.44" stop-color="#8a6fe8"/></linearGradient><linearGradient id="linear-gradient-2" x1="200.23" y1="-357.26" x2="200.23" y2="-650.68" xlink:href="#linear-gradient"/></defs><g id="Layer_2" data-name="Layer 2"><g id="Layer_1-2" data-name="Layer 1"><g id="asset"><polygon points="602.16 350.33 544.7 337.95 599.57 325.45 602.16 350.33" fill="#4d4d4d"/><path d="M820.35,460.22c0-36.77-28-72.51-62.5-79.66L495.74,326.2a54.13,54.13,0,0,0-27.45,1.1c-15.53,2.92-43,7.73-83.27,15-16.56,3,8.06,23.91,49.4,50.83,5.65,31.79,31,60.21,61.31,66.49l82.85,17.18C636.16,507.64,685,531.38,689.73,530.6c12.91-2.14,63.48-9.57,92.54-16.63,0,0,.05-.11.12-.3C804.69,508.1,820.35,487.7,820.35,460.22Z" fill="#666"/><path d="M686.84,412.36l98.92-18.95a75,75,0,0,0-15.42-8.9L668.83,404A63.57,63.57,0,0,1,686.84,412.36Z" fill="#908d89"/><path d="M617.4,391.78l101.21-19.36-22.8-4.73-101.95,19.5C579.54,384.47,639,396.22,617.4,391.78Z" fill="#908d89"/><path d="M552.57,378.34,653.78,359,631,354.25l-102,19.5C514.71,371,574.17,382.78,552.57,378.34Z" fill="#908d89"/><path d="M487.75,364.89,589,345.53l-22.8-4.73L464.21,360.3C449.89,357.58,509.34,369.33,487.75,364.89Z" fill="#908d89"/><path d="M718,455.47c0-.53-.08-1.07-.14-1.6L816.05,435a83.75,83.75,0,0,0-4.62-11l-96.49,18.51C712.59,437.14,715,444.85,718,455.47Z" fill="#908d89"/><path d="M718.62,489.36a49.16,49.16,0,0,1-5.53,12.92l103.43-19.87a59.94,59.94,0,0,0,3.15-12.47Z" fill="#908d89"/><path d="M669.73,515.44,407,460.94c-26.38-5.47-47.77-32.73-47.77-60.89h0c0-28.15,21.39-46.54,47.77-41.07l262.76,54.5c26.38,5.47,47.77,32.73,47.77,60.89h0C717.5,502.52,696.11,520.91,669.73,515.44Z" fill="#56534f"/><path d="M670.37,529.91,408.26,475.55c-34.46-7.15-62.5-42.88-62.5-79.65s28-60.88,62.5-53.73l262.11,54.36c34.46,7.15,62.5,42.88,62.5,79.66S704.84,537.06,670.37,529.91ZM408.26,368.08c-21.07-4.37-38.21,10.37-38.21,32.85s17.14,44.33,38.21,48.7L670.37,504c21.07,4.37,38.21-10.36,38.21-32.85s-17.14-44.33-38.21-48.7Z" fill="#eeedec"/><ellipse cx="666.4" cy="462.95" rx="30.63" ry="37.81" transform="translate(-144.71 440.18) rotate(-33.18)" fill="#e29e3b"/><ellipse cx="539.74" cy="437.05" rx="30.63" ry="37.81" transform="translate(-151.18 366.64) rotate(-33.18)" fill="#e29e3b"/><ellipse cx="411.98" cy="408.35" rx="30.63" ry="37.81" transform="translate(-156.31 292.04) rotate(-33.18)" fill="#e29e3b"/><path d="M476.05,312l140.74-23.85.11,63.17-17.75-3.68-1.61-18.48-100.17,21s-4.52,70.93-5.81,80.77-22.81,10.42-22.81,10.42L476.05,312" fill="#cc5444"/><polygon points="417.62 299.65 476.05 312.23 616.57 288.34 555.67 275.47 417.62 299.65" fill="#f8b8a4"/><path d="M453.45,428.56c4.52,16.32,22.81,16,23.24,5.51S476,312,476,312l-58.32-12.33S450,416.06,453.45,428.56Z" fill="#ea7f6b"/><path d="M404,27.07c61.15,101.3,67.93,218.87,66.67,264.54-.15,3.88,36.05,7.39,71-.55C542.24,232.83,526.84,100.7,469,0A373.46,373.46,0,0,1,404,27.07Z" fill="url(#linear-gradient)"/><polygon points="256.39 374.89 198.93 362.51 253.81 350.01 256.39 374.89" fill="#4d4d4d"/><path d="M474.59,484.79c0-36.77-28-72.51-62.5-79.66L150,350.77a54.13,54.13,0,0,0-27.45,1.1c-15.53,2.92-43,7.73-83.27,15-16.56,3,8.06,23.91,49.4,50.83,5.65,31.79,31,60.21,61.31,66.49l82.85,17.18C290.4,532.21,339.25,556,344,555.17c12.91-2.14,63.48-9.57,92.54-16.63,0,0,.05-.11.12-.3C458.93,532.66,474.59,512.27,474.59,484.79Z" fill="#666"/><path d="M341.08,436.92,440,418a75,75,0,0,0-15.42-8.9L323.07,428.52A64.1,64.1,0,0,1,341.08,436.92Z" fill="#908d89"/><path d="M271.63,416.35,372.84,397,350,392.26l-102,19.5C233.77,409,293.23,420.78,271.63,416.35Z" fill="#908d89"/><path d="M206.81,402.9,308,383.54l-22.8-4.73-102,19.5C169,395.58,228.4,407.34,206.81,402.9Z" fill="#908d89"/><path d="M142,389.46,243.19,370.1l-22.8-4.73-101.95,19.5C104.12,382.14,163.57,393.89,142,389.46Z" fill="#908d89"/><path d="M372.22,480c0-.53-.08-1.07-.14-1.6l98.2-18.84a83.75,83.75,0,0,0-4.62-11l-96.49,18.51C366.83,461.7,369.23,469.41,372.22,480Z" fill="#908d89"/><path d="M372.85,513.92a49.16,49.16,0,0,1-5.53,12.92L470.75,507a59.94,59.94,0,0,0,3.15-12.47Z" fill="#908d89"/><path d="M324,540,61.2,485.5C34.82,480,13.43,452.77,13.43,424.61h0c0-28.15,21.39-46.54,47.77-41.07L324,438c26.38,5.47,47.77,32.73,47.77,60.89h0C371.74,527.08,350.35,545.47,324,540Z" fill="#56534f"/><path d="M324.61,554.47,62.5,500.11C28,493,0,457.23,0,420.46s28-60.88,62.5-53.73l262.11,54.36c34.46,7.15,62.5,42.88,62.5,79.66S359.07,561.62,324.61,554.47ZM62.5,392.64C41.43,388.27,24.29,403,24.29,425.49s17.14,44.33,38.21,48.7l262.11,54.36c21.07,4.37,38.21-10.36,38.21-32.85s-17.14-44.33-38.21-48.7Z" fill="#eeedec"/><ellipse cx="320.62" cy="487.53" rx="30.63" ry="37.81" transform="translate(-214.53 254.95) rotate(-33.18)" fill="#e29e3b"/><ellipse cx="193.96" cy="461.62" rx="30.63" ry="37.81" transform="translate(-221.01 181.41) rotate(-33.18)" fill="#e29e3b"/><ellipse cx="66.2" cy="432.92" rx="30.63" ry="37.81" transform="translate(-226.13 106.81) rotate(-33.18)" fill="#e29e3b"/><path d="M130.28,336.56,271,312.71l.11,63.17-17.75-3.68-1.61-18.47-100.17,21s-4.52,70.93-5.81,80.77S123,465.93,123,465.93l7.3-129.37" fill="#cc5444"/><polygon points="71.86 324.22 130.28 336.79 270.81 312.9 209.91 300.04 71.86 324.22" fill="#f8b8a4"/><path d="M107.69,453.12c4.52,16.32,22.81,16,23.24,5.51s-.65-122.06-.65-122.06L72,324.24S104.23,440.62,107.69,453.12Z" fill="#ea7f6b"/><path d="M264.46,42.78A374.43,374.43,0,0,1,188.9,29.34c-53.69,101.32-56,230.15-51.23,289.57,35.48,7.94,71.15,1.74,70.73-2.14C203.9,270.63,208.47,145,264.46,42.78Z" fill="url(#linear-gradient-2)"/></g></g></g></svg>