<svg xmlns="http://www.w3.org/2000/svg" xmlns:xlink="http://www.w3.org/1999/xlink" viewBox="0 0 887.01 558.94"><defs><linearGradient id="linear-gradient" x1="569.83" y1="-296.18" x2="569.83" y2="-527.02" gradientTransform="matrix(1, 0, 0, -1, 0, -296.18)" gradientUnits="userSpaceOnUse"><stop offset="0" stop-color="#522cd5"/><stop offset="0.44" stop-color="#8a6fe8"/></linearGradient><linearGradient id="linear-gradient-2" x1="230.3" y1="-326.2" x2="230.3" y2="-566.9" xlink:href="#linear-gradient"/></defs><g id="Layer_2" data-name="Layer 2"><g id="Layer_1-2" data-name="Layer 1"><g id="asset"><path d="M573.64,134.42c54.14-12.28,74.79,16.19,84.28,32.37s12.28,51.35,7.81,56.37S573.64,134.42,573.64,134.42Z" fill="#56534f"/><path d="M212.38,152c59.35-37.95,99.31-26.14,102.66-5.3,7.19,44.71-30.21,127.53-39.38,135.91S212.38,152,212.38,152Z" fill="#56534f"/><path d="M518.23,33.89c30.68,77.08,33.24,154.76,32.19,192.73-.15,3.88,36.05,7.39,71-.55.54-48.95-5.08-139.2-41-226.07A374.66,374.66,0,0,1,518.23,33.89Z" fill="url(#linear-gradient)"/><path d="M210,30,181.17,261.84l71.31,8.88L279.43,54A373.54,373.54,0,0,1,210,30Z" fill="url(#linear-gradient-2)"/><path d="M466.09,445.07,470,455.79a2,2,0,0,0,3,.92l9-6.84a2,2,0,0,1,3.06,2l-3.47,10.5a1.92,1.92,0,0,0,2,2.4l11.82-.36a1.82,1.82,0,0,1,1.3,3.27L487.21,474a1.74,1.74,0,0,0,.16,3l10.13,6.27a1.74,1.74,0,0,1-1,3.27l-11.86-.36a1.72,1.72,0,0,0-1.72,2.4l4.57,10.5a1.8,1.8,0,0,1-2.85,2L475,494.19a1.88,1.88,0,0,0-2.94.92l-2.74,10.72c-.44,1.72-3,1.72-3.65,0l-3.86-10.72a2,2,0,0,0-3-.92l-9,6.84a2,2,0,0,1-3.06-2l3.47-10.5a1.92,1.92,0,0,0-2-2.4l-11.82.36a1.82,1.82,0,0,1-1.3-3.27l9.47-6.27a1.74,1.74,0,0,0-.16-3l-10.13-6.27a1.74,1.74,0,0,1,1-3.27l11.86.36a1.72,1.72,0,0,0,1.72-2.4l-4.57-10.5a1.8,1.8,0,0,1,2.85-2l9.72,6.84a1.88,1.88,0,0,0,2.94-.92l2.74-10.72C462.88,443.35,465.47,443.35,466.09,445.07Z" fill="#ffe5b9"/><path d="M537.17,481.24s-52.41-16.41-74.7-11.94c-6.7,1.34-4.2,10.33,3.8,10.33,24.31,0,65.93,34.76,65.93,34.76l33,6.31Z" fill="#ffe5b9"/><path d="M540.63,502c-33.07-54.42-16.32-56.93-12.78-91.26s-40.79-218.51-40.16-223.53,17.07-41.86,81.65-47.72,93.08,68.65,93.08,68.65,4.16-6.14,6.25-18.28c3.56,0,15.21,19.26,13.57,45.91-6,97.44.32,124.74,4.34,150.7s37.65,56.93,60.75,73.67,85.76,19.44,112.45,12.37c7-1.84,12.55-1.67,15.32,9.67,3.32,13.61,3.45,16.74,4.51,21.95,2,9.67-58,50.6-149,27.16S540.63,502,540.63,502Z" fill="#dc624f"/><path d="M662.41,208.09s-.16-.42-.48-1.19c.23,1,.38,1.67.43,1.9-.62,7.75-5.68,79.54,20.38,153.13-3.11-23.1-5.4-56.94-.5-126.21,2.34-33.07-13.08-55.4-16.64-55.4C669.5,196.51,662.41,208.09,662.41,208.09Z" fill="#cc5444"/><path d="M34,424.84l2,11.26a1.83,1.83,0,0,0,2.62,1.41l9-5.29c1.45-.85,3.22.93,2.49,2.51l-4.54,9.83a2,2,0,0,0,1.46,2.7l10.71,1.61c1.72.26,2.24,2.71.73,3.46L49.19,457a1.83,1.83,0,0,0-.26,3l8.29,7.9c1.33,1.27.41,3.46-1.3,3.08l-10.65-2.32a1.63,1.63,0,0,0-1.88,2.09l2.71,11.16a1.64,1.64,0,0,1-2.84,1.53L35.42,475a1.63,1.63,0,0,0-2.78.42l-3.91,10.17c-.63,1.63-3,1.2-3.29-.61l-2-11.26a1.83,1.83,0,0,0-2.62-1.41l-9,5.29c-1.45.85-3.22-.93-2.49-2.51l4.54-9.83a2,2,0,0,0-1.46-2.7L1.62,460.92c-1.72-.26-2.24-2.71-.73-3.46l9.39-4.64a1.83,1.83,0,0,0,.26-3L2.25,442c-1.33-1.27-.41-3.46,1.3-3.08L14.2,441.2a1.63,1.63,0,0,0,1.88-2.09L13.37,428a1.64,1.64,0,0,1,2.84-1.53l7.84,8.4a1.63,1.63,0,0,0,2.78-.42l3.91-10.17C31.36,422.6,33.7,423,34,424.84Z" fill="#ffe5b9"/><path d="M93.27,472.5s-45.07-25-65.77-24.24c-6.22.22-5.18,9.54,2,10.87,21.93,4,54.78,45.41,54.78,45.41l28.92,11.74Z" fill="#ffe5b9"/><path d="M85.07,467.63c-1.83-21.49,6-37.21,22.4-59.81s23.12-140.28,24.61-177.95,10.82-72,10.82-72,30.48-38.51,93.81-8.37c42.85,20.39,43,118.05,43,118.05s21.09-47.46,29.7-81.21c7.33-28.74,4.49-41,4.49-41s20.42,35.16-19.68,142.33c-24.67,65.94-23.59,114.7-9.67,141.49s44.69,46.88,68.58,52.74,65.71,6.42,73.91,5.58,13.23.28,12.5,8.65c-.44,5-6.72,25.12-6.72,25.12S262.41,558.07,235.26,538,151,488.57,125.11,485.23,85.07,467.63,85.07,467.63Z" fill="#dc624f"/><path d="M299.6,449.81a91,91,0,0,1-15.07-20.69c-13.92-26.79-15-75.55,9.67-141.49,40.1-107.16,19.68-142.33,19.68-142.33s2.84,12.28-4.49,41c-8.61,33.75-29.7,81.21-29.7,81.21C257,346.3,260.5,427.43,299.6,449.81Z" fill="#cc5444"/><path d="M266.43,357.12S247.87,373,211.24,388.93c17.95,11.72,34.94,16.83,22.25,45.21-8.52,19-65.64,27.55-130.43-20.09-13.39,19.38-19.65,34.13-18,53.58,0,0,14.12,14.23,40,17.58s83,32.65,110.15,52.74S432.8,521.21,432.8,521.21s6.28-20.09,6.72-25.12c.73-8.37-4.29-9.49-12.5-8.65s-50,.28-73.91-5.58-54.66-25.95-68.58-52.74c-7.9-15.2-11.66-37.47-8.93-65.93Z" fill="#8dbcf4"/><path d="M85.07,467.63c38.88,10.05,66.6,13.4,130.54,46.88S439.93,512,439.93,512l-2.22,15.07s-143.9,33.49-179,31.81-37.83-11.72-57.15-28.46-50-27.63-50-27.63l-2.71,31-51.24-13.4A428.83,428.83,0,0,1,85.07,467.63Z" fill="#56534f"/><path d="M645.37,397.3c31.43,17.3,32.55,44.37,4.28,47.72-26.88,3.19-66.15.29-122.63-28.08-4.65,28.61-17.33,34.09,13.61,85,0,0,99,5.86,190,29.3s151-17.5,149-27.16c-1.06-5.21-1.19-8.34-4.51-21.95-2.77-11.35-8.37-11.51-15.32-9.67-26.69,7.07-89.35,4.37-112.45-12.37s-56.72-47.72-60.75-73.67c-.72-4.63-1.53-9.3-2.35-14.41l-8.35-3.17S668.22,386.7,645.37,397.3Z" fill="#8dbcf4"/><path d="M534.77,491.91s77.86,5.58,142.43,20.93c119.71,28.46,207.37-15.72,207.37-15.72L887,509.68S783.34,570.61,746,553s-106.6-32.65-106.6-32.65l12,25.12-81.73.84S534.58,505.3,534.77,491.91Z" fill="#56534f"/><path d="M597.15,436.62c-.94-3.57-1.93-7.52-2.93-11.74l6.81-1.62c1,4.16,2,8.05,2.89,11.57Zm-5.6-23.51c-.84-3.84-1.67-7.81-2.48-11.8l6.86-1.39c.8,4,1.63,7.89,2.46,11.7Zm-4.79-23.63c-.73-3.89-1.45-7.88-2.15-11.86l6.9-1.2c.69,3.95,1.4,7.91,2.13,11.77Zm-4.14-23.74c-.64-3.94-1.26-7.94-1.85-11.9l6.92-1c.59,3.93,1.21,7.91,1.84,11.82Zm-3.56-23.83c-.54-3.94-1.07-8-1.57-11.94l7-.87c.5,4,1,7.95,1.56,11.86Zm-3-23.9q-.67-5.86-1.31-12l7-.72q.63,6.06,1.3,11.89Zm-2.48-23.95q-.54-5.9-1-12l7-.57q.5,6.06,1,11.92Zm-2-24q-.42-5.93-.79-12l7-.42q.36,6,.79,11.94Zm-1.45-24q-.3-5.94-.54-12l7-.27q.24,6,.53,11.95ZM569.21,222q-.18-6-.28-12l7-.13q.11,6,.28,12Z" fill="#cc5444"/><path d="M145.09,426.28v-2.9c0-2.46,0-5.54,0-9.16l7,.06c0,3.59,0,6.65,0,9.1v2.88Zm7.2-24-7-.13c.07-3.73.16-7.76.27-12l7,.19C152.44,394.58,152.36,398.59,152.29,402.3Zm.64-24-7-.25q.21-5.8.49-12l7,.31Q153.14,372.56,152.93,378.34ZM154,354.41l-7-.38c.21-3.93.45-7.95.71-12l7,.45C154.45,346.5,154.22,350.5,154,354.41Zm1.53-23.91-7-.52c.3-4,.63-8.08,1-12l7,.6C156.17,322.47,155.85,326.49,155.54,330.5Zm2.07-23.85-7-.69c.41-4.08.83-8.12,1.28-12l7,.79C158.44,298.6,158,302.6,157.61,306.65Zm2.71-23.76-6.94-.9c.53-4.06,1.09-8.09,1.66-12l6.92,1C161.4,274.88,160.85,278.86,160.32,282.89Zm3.52-23.63-6.9-1.17c.69-4.07,1.42-8.07,2.17-11.9l6.87,1.34C165.24,251.3,164.52,255.25,163.84,259.26Zm4.59-23.38-6.83-1.55c.93-4.09,1.9-8.06,2.89-11.79l6.77,1.8C170.29,228,169.33,231.87,168.43,235.88Z" fill="#cc5444"/><path d="M201.18,463.92H201c-1.51,0-3.08,0-4.71-.05-2.41-.05-4.88-.17-7.34-.35l.53-7c2.33.18,4.67.29,7,.34,1.57,0,3.1.05,4.57.05h.21Zm12.27-.46-.58-7a65.56,65.56,0,0,0,11.22-1.78l1.79,6.77A72.56,72.56,0,0,1,213.45,463.46Zm-36.73-1.41c-3.94-.64-8-1.46-12-2.44l1.65-6.8c3.86.94,7.73,1.72,11.5,2.33Zm-23.82-5.73c-3.81-1.2-7.69-2.56-11.54-4l2.51-6.53c3.71,1.43,7.46,2.74,11.13,3.9Zm85-.52-4.34-5.5a19,19,0,0,0,5.86-8.16l6.49,2.63A26,26,0,0,1,237.92,455.8ZM130.1,447.58c-3.68-1.66-7.37-3.45-11-5.32l3.22-6.22c3.5,1.81,7.08,3.54,10.64,5.15Zm-21.66-11.22c-6.52-3.85-10.26-6.52-10.42-6.63L102.1,424s3.67,2.62,9.89,6.29Zm140.71-3.89-6.9-1.17c.28-1.66.56-3.53.85-5.72a40.63,40.63,0,0,0,.36-5.35V420l7-.08v.3a47.89,47.89,0,0,1-.42,6.28C249.74,428.77,249.45,430.72,249.15,432.47Zm-7.36-23.26a40.16,40.16,0,0,0-4.75-9.94l5.87-3.82a47.45,47.45,0,0,1,5.56,11.66Zm-7.51-18.36a3.25,3.25,0,0,0,1.95-1.87l-6.52-2.54a3.84,3.84,0,0,1,2.34-2.22c.23-.1,1.79-.85,9.59-5.46l3.56,6C235.8,390.35,234.85,390.67,234.28,390.85Zm21.28-12.25-3.61-6c4.28-2.58,8.14-4.92,10.28-6.23l3.64,6C263.72,373.66,259.85,376,255.56,378.6Z" fill="#60a2f0"/><path d="M635.33,461.07c-3.8,0-7.56-.17-11.5-.51l.61-7c3.73.33,7.29.49,10.88.49h.77l0,7Zm13.12-.68-.71-7c3.42-.35,7-.85,11-1.53l.62-.11,1.26,6.89-.7.12C655.78,459.5,652,460,648.45,460.39ZM611.68,459c-3.8-.63-7.82-1.43-12-2.37l1.55-6.83c4,.91,7.9,1.68,11.56,2.29ZM673,454.68l-3.25-6.2a15,15,0,0,0,6.91-6.66l6.29,3.08A22.07,22.07,0,0,1,673,454.68Zm-85-1c-3.69-1-7.6-2.14-11.63-3.38l2.05-6.69c4,1.21,7.8,2.33,11.41,3.31Zm-23.13-7.06c-3.64-1.21-7.48-2.53-11.41-3.92l2.34-6.6c3.89,1.38,7.68,2.68,11.28,3.88Zm-22.73-8c-3.61-1.34-7.4-2.77-11.26-4.25l2.51-6.54c3.84,1.47,7.6,2.89,11.19,4.22Zm136-6.68A68,68,0,0,0,676,420.72l6.78-1.73a73,73,0,0,1,2.33,12.36Zm-5.94-21.43a36,36,0,0,0-7-8.32l4.64-5.24a42.67,42.67,0,0,1,8.39,10ZM669.5,394.6l-4.59-5.28,9.05-7.87,4.59,5.28Z" fill="#60a2f0"/><path d="M662.39,227.07c6.7,10.91,13,18.76,18.86,24,.29-4.92.61-10,1-15.35,3.51-50.59-30.17-79.95-34.5-83.44,22.48,27.63,14.68,55.81,14.68,55.81s-28.5-74.51-93.08-68.65-81,42.7-81.65,47.72c-.14,1.15,2.08,11.73,5.54,27.75C537.48,146.78,606.62,136.32,662.39,227.07Z" fill="#8dbcf4"/><path d="M279.3,256.71c-1.47-26-8.54-91-42.6-107.23-63.33-30.14-93.81,8.37-93.81,8.37s-3.17,11.67-6.11,28.86C188.31,137.28,250.37,159.21,279.3,256.71Z" fill="#8dbcf4"/><path d="M281.46,263.46c3.64,9.87,8.65,16.14,14.47,19.45,37.75-103.48,17.94-137.61,17.94-137.61s2.84,12.28-4.49,41C302.29,214.14,286.72,251.26,281.46,263.46Z" fill="#8dbcf4"/><path d="M590.67,210.7l-14.85,13.8a4.68,4.68,0,0,1-6.11.22l-17.37-13.93a4.68,4.68,0,0,1-1.72-3.11l-9.34-73.2a4.67,4.67,0,0,1,4.64-5.21l29.78-2.79a4.68,4.68,0,0,1,4.63,4l11.78,76.13A4.61,4.61,0,0,1,590.67,210.7Z" fill="#ffe5b9"/><path d="M192.17,129.47l-25.63,4.45a6.27,6.27,0,0,0-5.13,5.24l-11.62,76.13a6.28,6.28,0,0,0,1.15,4.67l10.88,14.81a6.28,6.28,0,0,0,9.93.25l16-19.69a6.18,6.18,0,0,0,1.35-3.12l10.34-75.7A6.29,6.29,0,0,0,192.17,129.47Z" fill="#ffe5b9"/></g></g></g></svg>