<svg xmlns="http://www.w3.org/2000/svg" xmlns:xlink="http://www.w3.org/1999/xlink" viewBox="0 0 668.4 527.29"><defs><radialGradient id="radial-gradient" cx="-2732.4" cy="-8868.31" r="6.05" gradientTransform="translate(56996.37 180591.59) rotate(-0.26) scale(20.35)" gradientUnits="userSpaceOnUse"><stop offset="0.03" stop-color="#522cd5"/><stop offset="1" stop-color="#8a6fe8"/></radialGradient><radialGradient id="radial-gradient-2" cx="-2759.42" cy="-8842.17" r="6.05" gradientTransform="matrix(22.15, -0.1, 0.1, 22.12, 62132.76, 195719.56)" xlink:href="#radial-gradient"/><linearGradient id="linear-gradient" x1="437.71" y1="-294.6" x2="437.71" y2="-526.38" gradientTransform="matrix(1, 0, 0, -1, 0, -294.6)" gradientUnits="userSpaceOnUse"><stop offset="0" stop-color="#522cd5"/><stop offset="0.44" stop-color="#8a6fe8"/></linearGradient><linearGradient id="linear-gradient-2" x1="-258.57" y1="-15167.16" x2="-80.96" y2="-14850.5" gradientTransform="translate(694 15392)" xlink:href="#linear-gradient"/><linearGradient id="linear-gradient-3" x1="391.1" y1="-771.94" x2="668.4" y2="-771.94" gradientTransform="matrix(1, 0, 0, -1, 0, -294.6)" gradientUnits="userSpaceOnUse"><stop offset="0.05" stop-color="#28c2d1"/><stop offset="0.34" stop-color="#7bddef"/></linearGradient><linearGradient id="linear-gradient-4" x1="110.88" y1="-329.99" x2="110.88" y2="-566.25" xlink:href="#linear-gradient"/><linearGradient id="linear-gradient-5" x1="-665.59" y1="-15140.16" x2="-511.55" y2="-14846.62" gradientTransform="translate(694 15392)" xlink:href="#linear-gradient"/><linearGradient id="linear-gradient-6" x1="0" y1="-772.36" x2="249.79" y2="-772.36" xlink:href="#linear-gradient-3"/></defs><g id="Layer_2" data-name="Layer 2"><g id="Layer_1-2" data-name="Layer 1"><g id="asset"><path d="M654.71,477.17c.55-8.17.69-16-2.5-22.59l-145.71.66c4,5.92,5.72,11.09,5.18,19.74l-.78,37.08a12.07,12.07,0,0,0,12.27,13.08L640,524.63a12.74,12.74,0,0,0,12.42-11.7Z" fill="url(#radial-gradient)"/><path d="M36.83,475.76l-5.78,37.51c-1.38,7.33,3.45,13.28,10.81,13.25l162.2-.74c6.5,0,12.79-5.35,14-11.81l6.81-36.19c1.61-8.57,2.1-16.24-1-22.82L38,455.79C38.26,462.45,38.44,467.23,36.83,475.76Z" fill="url(#radial-gradient-2)"/><path d="M386,34.13c30.95,77.31,33.52,155.35,32.47,193.43-.15,3.88,36.05,7.39,71-.55C490,177.88,484.29,87.16,448,0A376.59,376.59,0,0,1,386,34.13Z" fill="url(#linear-gradient)"/><path d="M418.44,226.89l55.85-.26,52.14,298.71-112.1.52a14.19,14.19,0,0,1-14.43-15.38Z" fill="#522cd5"/><path d="M646,446.79c9.68,7.65,9.52,18.71,8.77,30.39L652.39,513A12.73,12.73,0,0,1,640,524.66l-116.82.52a12.07,12.07,0,0,1-12.27-13.08l.77-37.08c.89-13.48-3.65-18.43-14.08-31.13-17.88-21.7-70.74-140-65.71-217l57.52-.26C493.2,272.31,553.56,373.89,646,446.79Z" fill="url(#linear-gradient-2)"/><path d="M401.27,428.23l228.85.79a16.73,16.73,0,0,1,10.28,3.57c9.11,7.14,28.23,23.58,28,35.52-.9,46.06.78,58.34-14.29,58.34l-247.26,0c-10.05,0-15.06-5.71-15.63-19.51s1.07-54.31,1.07-54.31S392.34,429.35,401.27,428.23Z" fill="url(#linear-gradient-3)"/><path d="M90.17,35.39,61.89,262.77l71.31,8.88L159.88,57.12A373.36,373.36,0,0,1,90.17,35.39Z" fill="url(#linear-gradient-4)"/><path d="M67.06,224.54l56.51-.26,15.64,302-113.42.52c-8.62,0-14.31-6.93-12.68-15.55Z" fill="#522cd5"/><path d="M231.28,447.94c8.71,7.88,8.51,18,6.27,29.81l-6.81,36.19c-1.21,6.47-7.53,11.78-14,11.81l-162.21.75c-7.36,0-12.19-5.89-10.81-13.25l5.78-37.51c2.56-13.62.57-17.65.83-35.13.49-32.76,15.61-138.25,30.27-216.16l58.21-.25C137,270.47,157.09,380.7,231.28,447.94Z" fill="url(#linear-gradient-5)"/><path d="M29.42,428.23l189.25.79A16.73,16.73,0,0,1,229,432.59c9.11,7.14,22.6,21.59,20.65,38.33-5.73,49.1-8.37,55.53-23.44,55.53-27.85,0-188.9.84-209.3.84-10,0-18.61-6.72-16.55-20.37,2.32-15.35,8.18-50.79,11.81-64.46S20.49,429.35,29.42,428.23Z" fill="url(#linear-gradient-6)"/></g></g></g></svg>