<?xml version="1.0" encoding="utf-8"?>
<!-- Generator: Adobe Illustrator 24.2.0, SVG Export Plug-In . SVG Version: 6.00 Build 0)  -->
<svg version="1.1" id="asset" xmlns="http://www.w3.org/2000/svg" xmlns:xlink="http://www.w3.org/1999/xlink" x="0px" y="0px"
	 viewBox="0 0 2000 2000" enable-background="new 0 0 2000 2000" xml:space="preserve">
<g>
	
		<linearGradient id="SVGID_1_" gradientUnits="userSpaceOnUse" x1="1164.6794" y1="547.8199" x2="1164.6794" y2="911.83" gradientTransform="matrix(1 0 0 -1 0 2000)">
		<stop  offset="0" style="stop-color:#522CD5"/>
		<stop  offset="0.45" style="stop-color:#8A6FE8"/>
	</linearGradient>
	<path fill="url(#SVGID_1_)" d="M1216.5,1374.2c-34.9,7.9-71.1,4.4-71,0.6c1.1-38.2-1.5-116.5-32.7-194c21.7-9.5,42.4-21,61.9-34.4
		C1211.4,1233.7,1217,1324.9,1216.5,1374.2z"/>
	<path fill="#522CD5" d="M1145.5,1374.1l55.8-0.3l52.1,298.7l-112.1,0.5c-7.8,0.2-14.3-6.1-14.5-13.9c0-0.5,0-1,0-1.5L1145.5,1374.1
		z"/>
	
		<linearGradient id="SVGID_2_" gradientUnits="userSpaceOnUse" x1="468.5044" y1="-14099.9707" x2="646.0849" y2="-13783.3623" gradientTransform="matrix(1 0 0 1 694 15472)">
		<stop  offset="0" style="stop-color:#522CD5"/>
		<stop  offset="0.44" style="stop-color:#8A6FE8"/>
	</linearGradient>
	<path fill="url(#SVGID_2_)" d="M1373,1593.9c9.7,7.7,9.5,18.7,8.8,30.4l-2.3,35.8c-0.5,6.5-5.9,11.6-12.4,11.7l-116.8,0.5
		c-6.7,0.1-12.2-5.2-12.3-11.8c0-0.4,0-0.8,0-1.3l0.8-37.1c0.9-13.5-3.7-18.4-14.1-31.1c-17.9-21.7-70.7-140-65.7-217l57.5-0.3
		C1220.3,1419.5,1280.7,1521.1,1373,1593.9z"/>
	
		<radialGradient id="SVGID_3_" cx="7113.6387" cy="-7765.1167" r="6.05" gradientTransform="matrix(20.35 -9.000000e-02 9.000000e-02 20.35 -142721.1875 160198.4375)" gradientUnits="userSpaceOnUse">
		<stop  offset="3.000000e-02" style="stop-color:#522CD5"/>
		<stop  offset="1" style="stop-color:#8A6FE8"/>
	</radialGradient>
	<path fill="url(#SVGID_3_)" d="M1381.8,1624.3c0.6-8.2,0.7-16-2.5-22.6l-145.7,0.7c4,5.9,5.7,11.1,5.2,19.7l-0.8,37.1
		c-0.6,6.6,4.4,12.5,11,13c0.4,0,0.8,0,1.3,0l116.8-0.5c6.5-0.1,11.9-5.2,12.4-11.7L1381.8,1624.3z"/>
	
		<linearGradient id="SVGID_4_" gradientUnits="userSpaceOnUse" x1="801.5223" y1="584.7048" x2="849.9108" y2="812.3677" gradientTransform="matrix(1 0 0 -1 0 2000)">
		<stop  offset="0" style="stop-color:#522CD5"/>
		<stop  offset="0.45" style="stop-color:#8A6FE8"/>
	</linearGradient>
	<path fill="url(#SVGID_4_)" d="M874.5,1202.1l-27,216.8l-71.3-8.9l28.8-231.8C827.4,1188.4,850.7,1196.4,874.5,1202.1z"/>
	<path fill="#522CD5" d="M781.5,1371.7l56.5-0.3l15.6,302l-113.4,0.5c-8.6,0-14.3-6.9-12.7-15.6L781.5,1371.7z"/>
	
		<linearGradient id="SVGID_5_" gradientUnits="userSpaceOnUse" x1="48.8072" y1="-14072.998" x2="202.8533" y2="-13779.4756" gradientTransform="matrix(1 0 0 1 694 15472)">
		<stop  offset="0" style="stop-color:#522CD5"/>
		<stop  offset="0.44" style="stop-color:#8A6FE8"/>
	</linearGradient>
	<path fill="url(#SVGID_5_)" d="M945.7,1595.1c8.7,7.9,8.5,18,6.3,29.8l-6.8,36.2c-1.2,6.5-7.5,11.8-14,11.8l-162.2,0.8
		c-7.3,0-12.2-5.9-10.8-13.3l5.8-37.5c2.6-13.6,0.6-17.7,0.8-35.1c0.5-32.8,15.6-138.2,30.3-216.2l58.2-0.3
		C851.4,1417.6,871.5,1527.9,945.7,1595.1z"/>
	
		<radialGradient id="SVGID_6_" cx="7124.8584" cy="-7738.6582" r="6.05" gradientTransform="matrix(22.14 -0.1 0.1 22.12 -156133.875 173452.2969)" gradientUnits="userSpaceOnUse">
		<stop  offset="3.000000e-02" style="stop-color:#522CD5"/>
		<stop  offset="1" style="stop-color:#8A6FE8"/>
	</radialGradient>
	<path fill="url(#SVGID_6_)" d="M763.9,1622.9l-5.8,37.5c-1.4,7.3,3.4,13.3,10.8,13.2l162.2-0.7c6.8-0.3,12.6-5.2,14-11.8l6.8-36.2
		c1.6-8.6,2.1-16.2-1-22.8l-185.9,0.8C765.4,1609.6,765.5,1614.4,763.9,1622.9z"/>
</g>
</svg>
