<?xml version="1.0" encoding="utf-8"?>
<!-- Generator: Adobe Illustrator 24.2.0, SVG Export Plug-In . SVG Version: 6.00 Build 0)  -->
<svg version="1.1" id="Layer_1" xmlns="http://www.w3.org/2000/svg" xmlns:xlink="http://www.w3.org/1999/xlink" x="0px" y="0px"
	 viewBox="0 0 2000 2000" enable-background="new 0 0 2000 2000" xml:space="preserve">
<g id="ghost-image" display="none">
	<g display="inline">
		<path fill="#EA7B66" d="M940.3,40.1c634.2-25,902.2,35.7,961,301c114,514.6-131.8,729.1-29,1154.9
			c95.9,397.1-500.3,495.3-1116.1,455.1S49.1,1736.9,153,1397.1c72.9-238.6,53.6-535.6-80.4-836.9S397.4,61.6,940.3,40.1z"/>
		<path fill="#ED9583" d="M1879.9,1614.7l-565.8-76.9l-1133.9,244c85.2,93.9,262.7,149,575.9,169.5
			C1305.3,1987.1,1838.9,1912.8,1879.9,1614.7z"/>
		<path fill="#CC5444" d="M133,1703.7L955.7,1550v-78.4l-839.5,132.2C116.5,1640,121.8,1673.3,133,1703.7z"/>
		<path fill="#D8604D" d="M1051.9,1110.8L192.8,1173c-4.9,78.8-18.4,154-39.8,224.1c-27.6,90.3-41.4,168.8-35.3,236.3l934.3-146.2
			L1051.9,1110.8L1051.9,1110.8z"/>
		<path fill="#CC5444" d="M1010.7,1148.8l-821.1,62.8c-2.3,23.4-5.4,46.6-9.3,69.3l830.4-78.3V1148.8z"/>
		<polygon fill="#CF5746" points="1008.4,1238.6 488.4,1290.2 488.4,1534.8 1010.7,1456.3 		"/>
		<path fill="#EC8C79" d="M737.8,1086.3l-543,31.7c-0.2,18.5-0.9,36.9-2,55l859.2-62.2L737.8,1086.3z"/>
		<polygon fill="#CC5444" points="357.5,1124.9 245,1131.4 245,1074.6 357.5,1068.2 		"/>
		<path fill="#CC5444" d="M509.8,1097.2l-315,18.5c-0.1,8.3-0.3,16.7-0.5,24.9l317.1-18.6c6.7-0.4,11.9-5.8,11.9-12.4l0,0
			C523.3,1102.5,517.1,1096.8,509.8,1097.2z"/>
		<path fill="#CC5444" d="M585.4,577.4H80.1c74.9,174.1,111.7,346.4,114.6,506.5l391.1-19.8c4.7-0.2,8.4-4,8.4-8.6V586
			C594.2,581.3,590.2,577.4,585.4,577.4z"/>
		<path fill="#D8604D" d="M563,600.6H89.8c65.2,158.5,98.9,315,104.3,461.9l369.3-18.1c4.4-0.2,7.9-3.7,7.9-7.9v-428
			C571.3,604.1,567.6,600.6,563,600.6z"/>
		<path fill="#D8604D" d="M1519.5,911.7c-23.1,1.4-43.8,15.3-53.6,35.8l-59.8,124.6c0,0,130.9,224.1,130.9,235.5
			c0,4.7,142.8,14.6,310.9,24.6c-8.9-160.4,27.7-295.3,55.5-443.8L1519.5,911.7z"/>
		<polygon fill="#CC5444" points="1423.4,1404.2 1406.7,1596.3 1427.6,1598.5 1499.9,1419.8 		"/>
		<path fill="#CC5444" d="M1545.7,1251.7c0,0-92.9-145.6-108.3-167.2c-10.9-15.2-22.3-28.3-41-28.1c-18.5,0.2-131.7,2.8-131.7,2.8
			l105,298.3l485.1,47c-6.7-48.6-9-94.6-8.2-138.9L1545.7,1251.7z"/>
		<path fill="#D8604D" d="M1865.1,1464c-6.3-30.8-10.9-60.5-13.9-89.3c-196.8-10.3-393.4-19.5-419.9-20.9c-23.7-1.2-31.4-6.9-41-26
			c-32.4-64.7-65.8-155.8-104.7-250.1c-15.3-37-61-14.2-50.5,22.3c11.8,40.9,59.5,187.6,86.2,252.6c28,68.2,75.1,78.8,100.1,80.6
			C1434.3,1434.2,1639,1448.3,1865.1,1464L1865.1,1464z"/>
		<path fill="#EA7B66" d="M1518.6,1201.9c-4-0.1-7.9,0.5-11.6,1.7l-84.3,26.9l16.8,42.3l407.2,28.3c-0.6-31.6,0.4-62.2,2.7-92.3
			L1518.6,1201.9z"/>
		<path fill="#DF6551" d="M1428.9,1229.3c-10.1-0.3-18.3,7.7-18.3,17.7v67.5c0,10.1,8.2,18.6,18.3,19.1l420.4,21.2
			c-3.2-39.1-3.6-76.6-2-113.1L1428.9,1229.3z"/>
		<path fill="#CF5746" d="M152.9,1397.1c-21.3,69.7-34.4,132.5-36.4,188.5l335.3-45.7v-245.6L172.4,1322
			C166.9,1347.6,160.4,1372.6,152.9,1397.1z"/>
	</g>
	<g display="inline" opacity="0.5">
		<path fill="#8A6FE8" d="M1469,1134.6c-57.7-4.7-181.3-73.8-228.1-150.4c-28.4-46.5,24.8-83.6,53.8-36.2
			c31.4,51.3,134.8,115.2,179.9,118.9L1469,1134.6z"/>
		<path fill="#8A6FE8" d="M1525,1005.7l-88.7,33.7c-15.8,6-23.7,23.7-17.8,39.5c6,15.8,23.7,23.7,39.5,17.8l88.7-33.7
			c15.8-6,23.7-23.7,17.8-39.5C1558.6,1007.6,1540.8,999.6,1525,1005.7z"/>
		<path fill="#8A6FE8" d="M1416.4,1155.1l37.8,51.4c10.2,13.6,29.4,16.4,43.1,6.3c13.6-10.2,16.4-29.4,6.3-43.1l-38.8-52.7
			L1416.4,1155.1z"/>
		<path fill="#8A6FE8" d="M1450.7,1158.2l76.8,42.9c14.9,8.2,33.6,2.9,41.8-12c8.2-14.8,2.9-33.6-12-41.8l-57-32.1L1450.7,1158.2z"
			/>
		<path fill="#8A6FE8" d="M1460.3,1121.8l84.6,24.4c16.3,4.7,33.4-4.7,38.2-21c4.7-16.3-4.7-33.4-21-38.2l-86.2-24.9L1460.3,1121.8z
			"/>
		
			<radialGradient id="SVGID_1_" cx="2494.8896" cy="-5509.6812" r="6.0501" gradientTransform="matrix(10.6515 0 0 10.6515 -25122.7422 59790.1094)" gradientUnits="userSpaceOnUse">
			<stop  offset="0" style="stop-color:#8065E0"/>
			<stop  offset="1" style="stop-color:#512BD4"/>
		</radialGradient>
		<path fill="url(#SVGID_1_)" d="M1451.6,1168.2c35.6,0,64.4-28.8,64.4-64.4c0-35.6-28.9-64.4-64.4-64.4
			c-35.6,0-64.4,28.8-64.4,64.4C1387.1,1139.3,1416,1168.2,1451.6,1168.2z"/>
		
			<linearGradient id="SVGID_2_" gradientUnits="userSpaceOnUse" x1="432.5013" y1="-9643.9678" x2="492.2792" y2="-9359.2559" gradientTransform="matrix(1 0 0 1 694 10739.7852)">
			<stop  offset="0" style="stop-color:#522CD5"/>
			<stop  offset="0.4397" style="stop-color:#8A6FE8"/>
		</linearGradient>
		<path fill="url(#SVGID_2_)" d="M1216.5,1374.2c0.7-59.8-7.8-181.1-69.5-282.6l-60.3,36.6c56,92.1,60.2,199.7,58.9,246.6
			C1145.4,1378.6,1181.6,1382.1,1216.5,1374.2z"/>
		<path fill="#522CD5" d="M1145.5,1374.1l55.8-0.3l52.1,298.7l-112.1,0.5c-8.5,0-15-6.8-14.4-15.4L1145.5,1374.1z"/>
		
			<linearGradient id="SVGID_3_" gradientUnits="userSpaceOnUse" x1="468.5236" y1="-9367.7939" x2="646.134" y2="-9051.1377" gradientTransform="matrix(1 0 0 1 694 10739.7852)">
			<stop  offset="0" style="stop-color:#522CD5"/>
			<stop  offset="0.4397" style="stop-color:#8A6FE8"/>
		</linearGradient>
		<path fill="url(#SVGID_3_)" d="M1373,1593.9c9.7,7.7,9.5,18.7,8.8,30.4l-2.3,35.8c-0.4,6.4-6,11.7-12.4,11.7l-116.8,0.5
			c-7.3,0-12.8-5.8-12.3-13.1l0.8-37.1c0.9-13.5-3.7-18.4-14.1-31.1c-17.9-21.7-70.7-140-65.7-217.1l57.5-0.3
			C1220.3,1419.5,1280.7,1521.1,1373,1593.9z"/>
		
			<radialGradient id="SVGID_4_" cx="2585.2241" cy="-5281.6709" r="6.0492" gradientTransform="matrix(20.3477 -9.260000e-02 9.260000e-02 20.3477 -50809.9805 109251.3906)" gradientUnits="userSpaceOnUse">
			<stop  offset="3.400000e-02" style="stop-color:#522CD5"/>
			<stop  offset="0.9955" style="stop-color:#8A6FE8"/>
		</radialGradient>
		<path fill="url(#SVGID_4_)" d="M1381.8,1624.3c0.6-8.2,0.7-16-2.5-22.6l-145.7,0.7c4,5.9,5.7,11.1,5.2,19.7l-0.8,37.1
			c-0.5,7.3,5,13.1,12.3,13.1l116.8-0.5c6.4,0,12-5.3,12.4-11.7L1381.8,1624.3z"/>
		
			<linearGradient id="SVGID_5_" gradientUnits="userSpaceOnUse" x1="103.6376" y1="-9648.3193" x2="172.368" y2="-9324.9639" gradientTransform="matrix(1 0 0 1 694 10739.7852)">
			<stop  offset="0" style="stop-color:#522CD5"/>
			<stop  offset="0.4397" style="stop-color:#8A6FE8"/>
		</linearGradient>
		<path fill="url(#SVGID_5_)" d="M847.6,1418.8l-71.3-8.9l40.1-322.5l71.3,8.8L847.6,1418.8z"/>
		<path fill="#522CD5" d="M781.5,1371.7l56.5-0.3l15.6,302l-113.4,0.5c-8.6,0-14.3-6.9-12.7-15.6L781.5,1371.7z"/>
		
			<linearGradient id="SVGID_6_" gradientUnits="userSpaceOnUse" x1="48.7987" y1="-9340.7959" x2="202.8451" y2="-9047.2568" gradientTransform="matrix(1 0 0 1 694 10739.7852)">
			<stop  offset="0" style="stop-color:#522CD5"/>
			<stop  offset="0.4397" style="stop-color:#8A6FE8"/>
		</linearGradient>
		<path fill="url(#SVGID_6_)" d="M945.7,1595.1c8.7,7.9,8.5,18,6.3,29.8l-6.8,36.2c-1.2,6.5-7.5,11.8-14,11.8l-162.2,0.8
			c-7.4,0-12.2-5.9-10.8-13.2l5.8-37.5c2.6-13.6,0.6-17.7,0.8-35.1c0.5-32.8,15.6-138.2,30.3-216.2l58.2-0.2
			C851.4,1417.6,871.5,1527.9,945.7,1595.1z"/>
		
			<radialGradient id="SVGID_7_" cx="2577.5029" cy="-5264.6128" r="6.0492" gradientTransform="matrix(22.145 -0.1007 0.1006 22.1216 -55686.1328 118263.0547)" gradientUnits="userSpaceOnUse">
			<stop  offset="3.400000e-02" style="stop-color:#522CD5"/>
			<stop  offset="0.9955" style="stop-color:#8A6FE8"/>
		</radialGradient>
		<path fill="url(#SVGID_7_)" d="M763.9,1622.9l-5.8,37.5c-1.4,7.3,3.5,13.3,10.8,13.2l162.2-0.7c6.5,0,12.8-5.3,14-11.8l6.8-36.2
			c1.6-8.6,2.1-16.2-1-22.8l-185.9,0.8C765.4,1609.6,765.5,1614.4,763.9,1622.9z"/>
		<path fill="#8A6FE8" d="M804,455.8L736.5,483l-18.4-73.1l48.4-19.5L804,455.8z"/>
		<path fill="#512BD4" d="M788.8,582c38.2,0,69.1-30.9,69.1-69.1s-30.9-69.1-69.1-69.1s-69.1,30.9-69.1,69.1
			C719.7,551,750.7,582,788.8,582z"/>
		
			<radialGradient id="SVGID_8_" cx="2654.8003" cy="-5148.374" r="6.0492" gradientTransform="matrix(61.9498 0 0 61.9498 -163448.6562 319708.875)" gradientUnits="userSpaceOnUse">
			<stop  offset="0.4744" style="stop-color:#A08BE8"/>
			<stop  offset="0.8618" style="stop-color:#8065E0"/>
		</radialGradient>
		<path fill="url(#SVGID_8_)" d="M1300.2,939.7C1325,844.2,1309,768,1309,768h22.4l0.5-0.4c-32.2-175.2-185.6-307.9-370-307.9
			c-207.8,0-376.3,168.5-376.3,376.3s168.4,376.3,376.3,376.3c164,0,303.5-104.9,355-251.2C1318.4,954.8,1318.3,943.6,1300.2,939.7z
			"/>
		<path fill="#D8CFF7" d="M1286.4,1026.5H637.5c14.6,24.8,31.9,47.7,51.5,68.4h545.8C1254.5,1074.2,1271.8,1051.3,1286.4,1026.5z"/>
		
			<radialGradient id="SVGID_9_" cx="2647.1108" cy="-5172.4062" r="6.0492" gradientTransform="matrix(48.2581 0 0 48.2581 -126512.4297 250309.375)" gradientUnits="userSpaceOnUse">
			<stop  offset="9.330000e-02" style="stop-color:#E1DFDD"/>
			<stop  offset="0.8998" style="stop-color:#FFFFFF"/>
		</radialGradient>
		<path fill="url(#SVGID_9_)" d="M1300.2,939.7c24.6-94.3,9.2-169.7,8.9-171.6H918.6c0,0-24.6-2.5-24.6,20s0.9,85.9,0.9,156.2
			c0,14.4,11.8,21.4,21.1,21.4C916.1,965.6,1256.6,965.6,1300.2,939.7z"/>
		<path fill="#A08BE8" d="M1065,939.9c0,0,60.1-47.5,71.8-56.3c11.7-8.8,22-9.3,32.7,0s70.8,56.3,70.8,56.3H1065z"/>
		<path fill="#512BD4" d="M1315.4,965.3c0,0,10.4-20.1-15.2-25.7c0-0.1-383.8-0.3-383.8-0.3c-8.9,0-20.4-5.3-21.4-14
			c0,6.2,0,12.5,0,18.8c0,13.1,9.8,20,18.5,21.2c0.9,0.1,1.8,0.2,2.7,0.2h26.2L1315.4,965.3z"/>
		<path fill="#512BD4" d="M1286.5,851.6c0.4-27.3-12.4-49.7-28.7-49.9s-29.8,21.7-30.2,49c-0.4,27.3,12.4,49.7,28.7,49.9
			C1272.6,900.9,1286.1,879,1286.5,851.6z"/>
		<path fill="#8065E0" d="M1256.7,825c-10.8,10.8-10.8,28.2,0,38.9c7.4,7.4,17.8,9.7,27.2,7c1.6-5.9,2.5-12.4,2.6-19.3
			c0.2-13.4-2.8-25.6-7.8-34.6C1270.9,816.4,1262.8,819,1256.7,825z"/>
		<path fill="#512BD4" d="M1020.8,900.9c16.3-0.2,29.1-22.6,28.7-49.9s-13.9-49.3-30.2-49c-16.2,0.2-29.1,22.6-28.7,49.9
			C991,879.2,1004.5,901.2,1020.8,900.9z"/>
		<path fill="#8065E0" d="M1019.8,826.6c-10.8,10.8-10.8,28.2,0,38.9c7.3,7.3,17.7,9.6,27,7c1.8-6.5,2.8-13.8,2.6-21.6
			c-0.2-12.4-3.1-23.7-7.7-32.3C1033.9,818,1025.8,820.6,1019.8,826.6z"/>
		<path fill="#512BD4" d="M1084.8,1115.2l123.2-0.6l-0.5-108.9l-123.2,0.6L1084.8,1115.2z"/>
		<path fill="#FFFFFF" d="M1106.1,1074.5c-0.8,0-1.5-0.3-2.1-0.8c-0.6-0.6-0.9-1.2-0.9-2c0-0.8,0.3-1.5,0.9-2
			c0.6-0.6,1.3-0.8,2.1-0.8c0.8,0,1.5,0.3,2.1,0.8c0.6,0.5,0.9,1.2,0.9,2s-0.3,1.4-0.9,2C1107.7,1074.2,1107,1074.5,1106.1,1074.5z"
			/>
		<path fill="#FFFFFF" d="M1138.9,1074h-5.3l-14.1-22.1c-0.3-0.5-0.7-1.2-0.9-1.8h-0.1c0.1,0.6,0.2,2,0.2,4.1l0,19.7h-4.7l-0.1-30.1
			h5.7l13.6,21.6c0.6,0.9,0.9,1.5,1.1,1.8h0.1c-0.2-0.8-0.2-2.2-0.2-4.1l0-19.4h4.7L1138.9,1074z"/>
		<path fill="#FFFFFF" d="M1161.8,1073.9l-16.5,0l-0.1-30.1l15.8,0v4.2l-10.9,0l0,8.5l10.1,0v4.2l-10.1,0l0,8.9l11.6,0
			L1161.8,1073.9L1161.8,1073.9z"/>
		<path fill="#FFFFFF" d="M1185.2,1048l-8.4,0l0.1,25.9h-4.9l-0.1-25.9l-8.4,0v-4.2l21.7-0.1L1185.2,1048z"/>
		<path fill="#8A6FE8" d="M529.4,1254.2l40.2,57.3c10.8,15.2,31.9,18.7,47.2,7.9c15.2-10.8,18.7-31.9,7.9-47.1L575,1203
			L529.4,1254.2z"/>
		<path fill="#8A6FE8" d="M460.1,1232.5l-11.1,69.2c-2.8,18.4,9.8,35.7,28.3,38.5c18.4,2.8,35.7-9.8,38.5-28.3l11.4-70.9
			L460.1,1232.5z"/>
		<path fill="#8A6FE8" d="M505,1240.3l-9.3,69.4c-2.4,18.5,10.8,35.4,29.2,37.8c18.5,2.4,35.4-10.8,37.8-29.2l9.6-71.2L505,1240.3z"
			/>
		<path fill="#8A6FE8" d="M442.7,1211.8l-25.1,65.4c-6.6,17.5,2.3,37,19.8,43.5c17.5,6.6,37-2.3,43.5-19.8l25.7-67.1L442.7,1211.8z"
			/>
		
			<linearGradient id="SVGID_10_" gradientUnits="userSpaceOnUse" x1="-100.8671" y1="-9880.2549" x2="-100.8671" y2="-9499.3652" gradientTransform="matrix(1 0 0 1 694 10739.7852)">
			<stop  offset="0.2495" style="stop-color:#967FE6"/>
			<stop  offset="1" style="stop-color:#8A6FE8"/>
		</linearGradient>
		<path fill="url(#SVGID_10_)" d="M489.3,1240.4c-27.9-57-44.2-154.4,1.8-241.6c28-52.9,89.2-120,222.3-139.3l10.7,73.8
			c-80.8,11.7-138.5,46.4-167,100.3c-30.8,58.4-22.6,129.4-0.8,174L489.3,1240.4z"/>
		
			<radialGradient id="SVGID_11_" cx="2455.6721" cy="-5498.4595" r="6.0492" gradientTransform="matrix(11.3989 0 0 11.3989 -27255.2266 63537.7891)" gradientUnits="userSpaceOnUse">
			<stop  offset="0" style="stop-color:#8065E0"/>
			<stop  offset="1" style="stop-color:#512BD4"/>
		</radialGradient>
		<path fill="url(#SVGID_11_)" d="M739,954.1c38.1,0,68.9-30.8,68.9-68.9S777,816.3,739,816.3s-68.9,30.8-68.9,68.9
			C670.1,923.2,700.9,954.1,739,954.1z"/>
		
			<radialGradient id="SVGID_12_" cx="2566.5081" cy="-5273.0898" r="6.0492" gradientTransform="matrix(22.7292 0 0 22.7292 -57829.8047 121006.8594)" gradientUnits="userSpaceOnUse">
			<stop  offset="0" style="stop-color:#8065E0"/>
			<stop  offset="1" style="stop-color:#512BD4"/>
		</radialGradient>
		<path fill="url(#SVGID_12_)" d="M508.6,1277.3c39.1,0,70.8-31.7,70.8-70.8s-31.7-70.8-70.8-70.8s-70.8,31.7-70.8,70.8
			C437.9,1245.7,469.5,1277.3,508.6,1277.3z"/>
		<path fill="#D8CFF7" d="M739.7,415.8c-26.2,7-53.3-8.4-60.5-34.4c-7.2-26,8.2-52.7,34.5-59.7c26.2-7,53.3,8.4,60.5,34.4
			C781.4,382.1,766,408.8,739.7,415.8z"/>
	</g>
	<g display="inline" opacity="0.5">
		<path fill="#8A6FE8" d="M1469,1134.6c-57.7-4.7-181.3-73.8-228.1-150.4c-28.4-46.5,24.8-83.6,53.8-36.2
			c31.4,51.3,134.8,115.2,179.9,118.9L1469,1134.6z"/>
		<path fill="#8A6FE8" d="M1525,1005.7l-88.7,33.7c-15.8,6-23.7,23.7-17.8,39.5c6,15.8,23.7,23.7,39.5,17.8l88.7-33.7
			c15.8-6,23.7-23.7,17.8-39.5C1558.6,1007.6,1540.8,999.6,1525,1005.7z"/>
		<path fill="#8A6FE8" d="M1416.4,1155.1l37.8,51.4c10.2,13.6,29.4,16.4,43.1,6.3c13.6-10.2,16.4-29.4,6.3-43.1l-38.8-52.7
			L1416.4,1155.1z"/>
		<path fill="#8A6FE8" d="M1450.7,1158.2l76.8,42.9c14.9,8.2,33.6,2.9,41.8-12c8.2-14.8,2.9-33.6-12-41.8l-57-32.1L1450.7,1158.2z"
			/>
		<path fill="#8A6FE8" d="M1460.3,1121.8l84.6,24.4c16.3,4.7,33.4-4.7,38.2-21c4.7-16.3-4.7-33.4-21-38.2l-86.2-24.9L1460.3,1121.8z
			"/>
		
			<radialGradient id="SVGID_13_" cx="2494.8896" cy="-5509.6812" r="6.0501" gradientTransform="matrix(10.6515 0 0 10.6515 -25122.7422 59790.1094)" gradientUnits="userSpaceOnUse">
			<stop  offset="0" style="stop-color:#8065E0"/>
			<stop  offset="1" style="stop-color:#512BD4"/>
		</radialGradient>
		<path fill="url(#SVGID_13_)" d="M1451.6,1168.2c35.6,0,64.4-28.8,64.4-64.4c0-35.6-28.9-64.4-64.4-64.4
			c-35.6,0-64.4,28.8-64.4,64.4C1387.1,1139.3,1416,1168.2,1451.6,1168.2z"/>
		<path fill="#E29E3B" d="M1216.5,1374.2c0.7-59.8-7.8-181.1-69.5-282.6l-60.3,36.6c56,92.1,60.2,199.7,58.9,246.6
			C1145.4,1378.6,1181.6,1382.1,1216.5,1374.2z"/>
		<path fill="#522CD5" d="M1145.5,1374.1l55.8-0.3l52.1,298.7l-112.1,0.5c-8.5,0-15-6.8-14.4-15.4L1145.5,1374.1z"/>
		
			<linearGradient id="SVGID_14_" gradientUnits="userSpaceOnUse" x1="468.5236" y1="-9367.7939" x2="646.134" y2="-9051.1377" gradientTransform="matrix(1 0 0 1 694 10739.7852)">
			<stop  offset="0" style="stop-color:#522CD5"/>
			<stop  offset="0.4397" style="stop-color:#8A6FE8"/>
		</linearGradient>
		<path fill="url(#SVGID_14_)" d="M1373,1593.9c9.7,7.7,9.5,18.7,8.8,30.4l-2.3,35.8c-0.4,6.4-6,11.7-12.4,11.7l-116.8,0.5
			c-7.3,0-12.8-5.8-12.3-13.1l0.8-37.1c0.9-13.5-3.7-18.4-14.1-31.1c-17.9-21.7-70.7-140-65.7-217.1l57.5-0.3
			C1220.3,1419.5,1280.7,1521.1,1373,1593.9z"/>
		
			<radialGradient id="SVGID_15_" cx="2585.2241" cy="-5281.6709" r="6.0492" gradientTransform="matrix(20.3477 -9.260000e-02 9.260000e-02 20.3477 -50809.9805 109251.3906)" gradientUnits="userSpaceOnUse">
			<stop  offset="3.400000e-02" style="stop-color:#522CD5"/>
			<stop  offset="0.9955" style="stop-color:#8A6FE8"/>
		</radialGradient>
		<path fill="url(#SVGID_15_)" d="M1381.8,1624.3c0.6-8.2,0.7-16-2.5-22.6l-145.7,0.7c4,5.9,5.7,11.1,5.2,19.7l-0.8,37.1
			c-0.5,7.3,5,13.1,12.3,13.1l116.8-0.5c6.4,0,12-5.3,12.4-11.7L1381.8,1624.3z"/>
		<path fill="#E29E3B" d="M847.6,1418.8l-71.3-8.9l40.1-322.5l71.3,8.8L847.6,1418.8z"/>
		<path fill="#522CD5" d="M781.5,1371.7l56.5-0.3l15.6,302l-113.4,0.5c-8.6,0-14.3-6.9-12.7-15.6L781.5,1371.7z"/>
		
			<linearGradient id="SVGID_16_" gradientUnits="userSpaceOnUse" x1="48.7987" y1="-9340.7959" x2="202.8451" y2="-9047.2568" gradientTransform="matrix(1 0 0 1 694 10739.7852)">
			<stop  offset="0" style="stop-color:#522CD5"/>
			<stop  offset="0.4397" style="stop-color:#8A6FE8"/>
		</linearGradient>
		<path fill="url(#SVGID_16_)" d="M945.7,1595.1c8.7,7.9,8.5,18,6.3,29.8l-6.8,36.2c-1.2,6.5-7.5,11.8-14,11.8l-162.2,0.8
			c-7.4,0-12.2-5.9-10.8-13.2l5.8-37.5c2.6-13.6,0.6-17.7,0.8-35.1c0.5-32.8,15.6-138.2,30.3-216.2l58.2-0.2
			C851.4,1417.6,871.5,1527.9,945.7,1595.1z"/>
		
			<radialGradient id="SVGID_17_" cx="2577.5029" cy="-5264.6128" r="6.0492" gradientTransform="matrix(22.145 -0.1007 0.1006 22.1216 -55686.1328 118263.0547)" gradientUnits="userSpaceOnUse">
			<stop  offset="3.400000e-02" style="stop-color:#522CD5"/>
			<stop  offset="0.9955" style="stop-color:#8A6FE8"/>
		</radialGradient>
		<path fill="url(#SVGID_17_)" d="M763.9,1622.9l-5.8,37.5c-1.4,7.3,3.5,13.3,10.8,13.2l162.2-0.7c6.5,0,12.8-5.3,14-11.8l6.8-36.2
			c1.6-8.6,2.1-16.2-1-22.8l-185.9,0.8C765.4,1609.6,765.5,1614.4,763.9,1622.9z"/>
		<path fill="#8A6FE8" d="M804,455.8L736.5,483l-18.4-73.1l48.4-19.5L804,455.8z"/>
		<path fill="#512BD4" d="M788.8,582c38.2,0,69.1-30.9,69.1-69.1s-30.9-69.1-69.1-69.1s-69.1,30.9-69.1,69.1
			C719.7,551,750.7,582,788.8,582z"/>
		
			<radialGradient id="SVGID_18_" cx="2654.8003" cy="-5148.374" r="6.0492" gradientTransform="matrix(61.9498 0 0 61.9498 -163448.6562 319708.875)" gradientUnits="userSpaceOnUse">
			<stop  offset="0.4744" style="stop-color:#A08BE8"/>
			<stop  offset="0.8618" style="stop-color:#8065E0"/>
		</radialGradient>
		<path fill="url(#SVGID_18_)" d="M1300.2,939.7C1325,844.2,1309,768,1309,768h22.4l0.5-0.4c-32.2-175.2-185.6-307.9-370-307.9
			c-207.8,0-376.3,168.5-376.3,376.3s168.4,376.3,376.3,376.3c164,0,303.5-104.9,355-251.2C1318.4,954.8,1318.3,943.6,1300.2,939.7z
			"/>
		<path fill="#D8CFF7" d="M1286.4,1026.5H637.5c14.6,24.8,31.9,47.7,51.5,68.4h545.8C1254.5,1074.2,1271.8,1051.3,1286.4,1026.5z"/>
		
			<radialGradient id="SVGID_19_" cx="2647.1108" cy="-5172.4062" r="6.0492" gradientTransform="matrix(48.2581 0 0 48.2581 -126512.4297 250309.375)" gradientUnits="userSpaceOnUse">
			<stop  offset="9.330000e-02" style="stop-color:#E1DFDD"/>
			<stop  offset="0.8998" style="stop-color:#FFFFFF"/>
		</radialGradient>
		<path fill="url(#SVGID_19_)" d="M1300.2,939.7c24.6-94.3,9.2-169.7,8.9-171.6H918.6c0,0-24.6-2.5-24.6,20s0.9,85.9,0.9,156.2
			c0,14.4,11.8,21.4,21.1,21.4C916.1,965.6,1256.6,965.6,1300.2,939.7z"/>
		<path fill="#A08BE8" d="M1065,939.9c0,0,60.1-47.5,71.8-56.3c11.7-8.8,22-9.3,32.7,0s70.8,56.3,70.8,56.3H1065z"/>
		<path fill="#512BD4" d="M1315.4,965.3c0,0,10.4-20.1-15.2-25.7c0-0.1-383.8-0.3-383.8-0.3c-8.9,0-20.4-5.3-21.4-14
			c0,6.2,0,12.5,0,18.8c0,13.1,9.8,20,18.5,21.2c0.9,0.1,1.8,0.2,2.7,0.2h26.2L1315.4,965.3z"/>
		<path fill="#512BD4" d="M1286.5,851.6c0.4-27.3-12.4-49.7-28.7-49.9s-29.8,21.7-30.2,49c-0.4,27.3,12.4,49.7,28.7,49.9
			C1272.6,900.9,1286.1,879,1286.5,851.6z"/>
		<path fill="#8065E0" d="M1256.7,825c-10.8,10.8-10.8,28.2,0,38.9c7.4,7.4,17.8,9.7,27.2,7c1.6-5.9,2.5-12.4,2.6-19.3
			c0.2-13.4-2.8-25.6-7.8-34.6C1270.9,816.4,1262.8,819,1256.7,825z"/>
		<path fill="#512BD4" d="M1020.8,900.9c16.3-0.2,29.1-22.6,28.7-49.9s-13.9-49.3-30.2-49c-16.2,0.2-29.1,22.6-28.7,49.9
			C991,879.2,1004.5,901.2,1020.8,900.9z"/>
		<path fill="#8065E0" d="M1019.8,826.6c-10.8,10.8-10.8,28.2,0,38.9c7.3,7.3,17.7,9.6,27,7c1.8-6.5,2.8-13.8,2.6-21.6
			c-0.2-12.4-3.1-23.7-7.7-32.3C1033.9,818,1025.8,820.6,1019.8,826.6z"/>
		<path fill="#512BD4" d="M1084.8,1115.2l123.2-0.6l-0.5-108.9l-123.2,0.6L1084.8,1115.2z"/>
		<path fill="#FFFFFF" d="M1106.1,1074.5c-0.8,0-1.5-0.3-2.1-0.8c-0.6-0.6-0.9-1.2-0.9-2c0-0.8,0.3-1.5,0.9-2
			c0.6-0.6,1.3-0.8,2.1-0.8c0.8,0,1.5,0.3,2.1,0.8c0.6,0.5,0.9,1.2,0.9,2s-0.3,1.4-0.9,2C1107.7,1074.2,1107,1074.5,1106.1,1074.5z"
			/>
		<path fill="#FFFFFF" d="M1138.9,1074h-5.3l-14.1-22.1c-0.3-0.5-0.7-1.2-0.9-1.8h-0.1c0.1,0.6,0.2,2,0.2,4.1l0,19.7h-4.7l-0.1-30.1
			h5.7l13.6,21.6c0.6,0.9,0.9,1.5,1.1,1.8h0.1c-0.2-0.8-0.2-2.2-0.2-4.1l0-19.4h4.7L1138.9,1074z"/>
		<path fill="#FFFFFF" d="M1161.8,1073.9l-16.5,0l-0.1-30.1l15.8,0v4.2l-10.9,0l0,8.5l10.1,0v4.2l-10.1,0l0,8.9l11.6,0
			L1161.8,1073.9L1161.8,1073.9z"/>
		<path fill="#FFFFFF" d="M1185.2,1048l-8.4,0l0.1,25.9h-4.9l-0.1-25.9l-8.4,0v-4.2l21.7-0.1L1185.2,1048z"/>
		<path fill="#8A6FE8" d="M529.4,1254.2l40.2,57.3c10.8,15.2,31.9,18.7,47.2,7.9c15.2-10.8,18.7-31.9,7.9-47.1L575,1203
			L529.4,1254.2z"/>
		<path fill="#8A6FE8" d="M460.1,1232.5l-11.1,69.2c-2.8,18.4,9.8,35.7,28.3,38.5c18.4,2.8,35.7-9.8,38.5-28.3l11.4-70.9
			L460.1,1232.5z"/>
		<path fill="#8A6FE8" d="M505,1240.3l-9.3,69.4c-2.4,18.5,10.8,35.4,29.2,37.8c18.5,2.4,35.4-10.8,37.8-29.2l9.6-71.2L505,1240.3z"
			/>
		<path fill="#8A6FE8" d="M442.7,1211.8l-25.1,65.4c-6.6,17.5,2.3,37,19.8,43.5c17.5,6.6,37-2.3,43.5-19.8l25.7-67.1L442.7,1211.8z"
			/>
		
			<linearGradient id="SVGID_20_" gradientUnits="userSpaceOnUse" x1="-100.8671" y1="-9880.2549" x2="-100.8671" y2="-9499.3652" gradientTransform="matrix(1 0 0 1 694 10739.7852)">
			<stop  offset="0.2495" style="stop-color:#967FE6"/>
			<stop  offset="1" style="stop-color:#8A6FE8"/>
		</linearGradient>
		<path fill="url(#SVGID_20_)" d="M489.3,1240.4c-27.9-57-44.2-154.4,1.8-241.6c28-52.9,89.2-120,222.3-139.3l10.7,73.8
			c-80.8,11.7-138.5,46.4-167,100.3c-30.8,58.4-22.6,129.4-0.8,174L489.3,1240.4z"/>
		
			<radialGradient id="SVGID_21_" cx="2455.6721" cy="-5498.4595" r="6.0492" gradientTransform="matrix(11.3989 0 0 11.3989 -27255.2266 63537.7891)" gradientUnits="userSpaceOnUse">
			<stop  offset="0" style="stop-color:#8065E0"/>
			<stop  offset="1" style="stop-color:#512BD4"/>
		</radialGradient>
		<path fill="url(#SVGID_21_)" d="M739,954.1c38.1,0,68.9-30.8,68.9-68.9S777,816.3,739,816.3s-68.9,30.8-68.9,68.9
			C670.1,923.2,700.9,954.1,739,954.1z"/>
		
			<radialGradient id="SVGID_22_" cx="2566.5081" cy="-5273.0898" r="6.0492" gradientTransform="matrix(22.7292 0 0 22.7292 -57829.8047 121006.8594)" gradientUnits="userSpaceOnUse">
			<stop  offset="0" style="stop-color:#8065E0"/>
			<stop  offset="1" style="stop-color:#512BD4"/>
		</radialGradient>
		<path fill="url(#SVGID_22_)" d="M508.6,1277.3c39.1,0,70.8-31.7,70.8-70.8s-31.7-70.8-70.8-70.8s-70.8,31.7-70.8,70.8
			C437.9,1245.7,469.5,1277.3,508.6,1277.3z"/>
		<path fill="#D8CFF7" d="M739.7,415.8c-26.2,7-53.3-8.4-60.5-34.4c-7.2-26,8.2-52.7,34.5-59.7c26.2-7,53.3,8.4,60.5,34.4
			C781.4,382.1,766,408.8,739.7,415.8z"/>
	</g>
</g>
<g id="bot-base" display="none">
	<g display="inline">
		
			<radialGradient id="SVGID_23_" cx="2654.8003" cy="-5148.374" r="6.0492" gradientTransform="matrix(61.9498 0 0 61.9498 -163448.6562 319708.875)" gradientUnits="userSpaceOnUse">
			<stop  offset="0.4744" style="stop-color:#A08BE8"/>
			<stop  offset="0.8618" style="stop-color:#8065E0"/>
		</radialGradient>
		<path fill="url(#SVGID_23_)" d="M1300.2,939.7C1325,844.2,1309,768,1309,768h22.4l0.5-0.4c-32.2-175.2-185.6-307.9-370-307.9
			c-207.8,0-376.3,168.5-376.3,376.3s168.4,376.3,376.3,376.3c164,0,303.5-104.9,355-251.2C1318.4,954.8,1318.3,943.6,1300.2,939.7z
			"/>
		<path fill="#D8CFF7" d="M1286.4,1026.5H637.5c14.6,24.8,31.9,47.7,51.5,68.4h545.8C1254.5,1074.2,1271.8,1051.3,1286.4,1026.5z"/>
		
			<radialGradient id="SVGID_24_" cx="2647.1108" cy="-5172.4062" r="6.0492" gradientTransform="matrix(48.2581 0 0 48.2581 -126512.4297 250309.375)" gradientUnits="userSpaceOnUse">
			<stop  offset="9.330000e-02" style="stop-color:#E1DFDD"/>
			<stop  offset="0.8998" style="stop-color:#FFFFFF"/>
		</radialGradient>
		<path fill="url(#SVGID_24_)" d="M1300.2,939.7c24.6-94.3,9.2-169.7,8.9-171.6H918.6c0,0-24.6-2.5-24.6,20s0.9,85.9,0.9,156.2
			c0,14.4,11.8,21.4,21.1,21.4C916.1,965.6,1256.6,965.6,1300.2,939.7z"/>
		<path fill="#A08BE8" d="M1065,939.9c0,0,60.1-47.5,71.8-56.3c11.7-8.8,22-9.3,32.7,0s70.8,56.3,70.8,56.3H1065z"/>
		<path fill="#512BD4" d="M1315.4,965.3c0,0,10.4-20.1-15.2-25.7c0-0.1-383.8-0.3-383.8-0.3c-8.9,0-20.4-5.3-21.4-14
			c0,6.2,0,12.5,0,18.8c0,13.1,9.8,20,18.5,21.2c0.9,0.1,1.8,0.2,2.7,0.2h26.2L1315.4,965.3z"/>
		<path fill="#512BD4" d="M1084.8,1115.2l123.2-0.6l-0.5-108.9l-123.2,0.6L1084.8,1115.2z"/>
		<path fill="#FFFFFF" d="M1106.1,1074.5c-0.8,0-1.5-0.3-2.1-0.8c-0.6-0.6-0.9-1.2-0.9-2c0-0.8,0.3-1.5,0.9-2
			c0.6-0.6,1.3-0.8,2.1-0.8c0.8,0,1.5,0.3,2.1,0.8c0.6,0.5,0.9,1.2,0.9,2s-0.3,1.4-0.9,2C1107.7,1074.2,1107,1074.5,1106.1,1074.5z"
			/>
		<path fill="#FFFFFF" d="M1138.9,1074h-5.3l-14.1-22.1c-0.3-0.5-0.7-1.2-0.9-1.8h-0.1c0.1,0.6,0.2,2,0.2,4.1l0,19.7h-4.7l-0.1-30.1
			h5.7l13.6,21.6c0.6,0.9,0.9,1.5,1.1,1.8h0.1c-0.2-0.8-0.2-2.2-0.2-4.1l0-19.4h4.7L1138.9,1074z"/>
		<path fill="#FFFFFF" d="M1161.8,1073.9l-16.5,0l-0.1-30.1l15.8,0v4.2l-10.9,0l0,8.5l10.1,0v4.2l-10.1,0l0,8.9l11.6,0
			L1161.8,1073.9L1161.8,1073.9z"/>
		<path fill="#FFFFFF" d="M1185.2,1048l-8.4,0l0.1,25.9h-4.9l-0.1-25.9l-8.4,0v-4.2l21.7-0.1L1185.2,1048z"/>
	</g>
	<g display="inline">
		<path fill="#E29E3B" d="M1312.9,971.5c-8.4,21.8-18.8,42.6-30.9,62.2c57.5,54.7,142.1,97.3,186.9,100.9l5.6-67.6
			C1436.1,1063.8,1355.4,1017,1312.9,971.5z"/>
		<path fill="#F7B548" d="M539.5,1245.5l57.9,39.4c15.5,10.4,36.5,6.2,46.9-9.3s6.2-36.5-9.3-46.9l-71-47.2L539.5,1245.5z"/>
		<path fill="#E29E3B" d="M489.6,1239.8c-27.9-57-44.2-154.4,1.8-241.6c28-52.9,89.2-120,222.3-139.3l10.7,73.8
			c-80.8,11.7-138.5,46.4-167,100.3c-30.8,58.4-22.6,129.4-0.8,174L489.6,1239.8z"/>
		<path fill="#F7B548" d="M739.3,953.5c38.1,0,68.9-30.8,68.9-68.9s-30.8-68.9-68.9-68.9s-68.9,30.8-68.9,68.9
			C670.4,922.7,701.3,953.5,739.3,953.5z"/>
		<path fill="#F7F6F6" d="M470.7,1178l-28.5-137.3c0,0,40.2-28.5,83.7-20.1c50,9.6,73.7,50.2,73.7,50.2l-67,93.8L470.7,1178z"/>
		<path fill="#F7F6F6" d="M1464.9,1134.3l-138.6-21.6c0,0-12.5-47.6,10.6-85.4c26.6-43.5,72.9-51.3,72.9-51.3l64.3,95.6
			L1464.9,1134.3z"/>
		<path fill="#F7B548" d="M1567.3,1033.2l-94.4,9.6c-16.8,1.7-29.1,16.8-27.4,33.5c1.7,16.8,16.8,29.1,33.5,27.4l94.4-9.6
			c16.8-1.7,29.1-16.8,27.4-33.5C1599.2,1043.7,1584.1,1031.5,1567.3,1033.2z"/>
		<path fill="#E29E3B" d="M1438.4,1167.4c32.9,13.5,70.6-2.2,84.1-35.1c13.5-32.9-2.2-70.6-35.1-84.1c-32.9-13.5-70.6,2.2-84.1,35.1
			C1389.8,1116.2,1405.5,1153.9,1438.4,1167.4z"/>
		<path fill="#DDDBDA" d="M478.8,1023.7c-21.6,6.4-36.6,17-36.6,17l28.5,137.3l18.1-3.9L478.8,1023.7z"/>
		<path fill="#DDDBDA" d="M1323.2,1074.5c-1.2,21.5,3.2,38.2,3.2,38.2l138.6,21.6l0.6-3.8L1323.2,1074.5z"/>
		<g>
			<g>
				<polygon fill="#DDDBDA" points="1939.7,1008.9 1745.6,1101.4 1671.2,1063.3 1724.7,998.2 				"/>
				<polygon fill="#C4C1BE" points="1939.7,1008.9 1745.6,1101.4 1671.2,1063.3 1721,1046.3 				"/>
				<polygon fill="#A7A4A0" points="1777.1,1036.6 1745.6,1101.4 1671.2,1063.3 1724.7,998.2 				"/>
			</g>
			<g>
				<polygon fill="#3F3C38" points="223.4,1345.4 1699.5,1074 1694.3,1046.2 218.2,1317.6 				"/>
				<path fill="#DDDBDA" d="M1636.1,1098.7l62.9-11.8c4-0.8,6.6-4.6,5.9-8.6l-7.1-38.2c-0.8-4-4.6-6.6-8.6-5.9l-62.9,11.8
					c-4,0.8-6.6,4.6-5.9,8.6l7.1,38.2C1628.2,1096.8,1632.1,1099.4,1636.1,1098.7z"/>
			</g>
		</g>
		<g>
			<path fill="#F7B548" d="M1563.5,1120.9l-47.1-33.3c-13.8-9.8-32.9-6.7-42.7,7c-9.8,13.8-6.7,32.9,7,42.7l47.1,33.3
				c13.8,9.8,32.9,6.7,42.7-7C1580.4,1149.9,1577.3,1130.8,1563.5,1120.9z"/>
			<path fill="#F7B548" d="M1530.3,1144.2l-47.7-32.4c-13.9-9.6-33-6-42.6,7.8c-9.6,13.9-6,33,7.8,42.6l47.7,32.4
				c13.9,9.6,33,6,42.6-7.8C1547.8,1172.9,1544.2,1153.8,1530.3,1144.2z"/>
			<path fill="#F7B548" d="M1486.7,1154.7l-47.7-32.4c-13.9-9.6-33-6-42.6,7.8c-9.6,13.9-6,33,7.8,42.6l47.7,32.4
				c13.9,9.6,33,6,42.6-7.8C1504.2,1183.4,1500.7,1164.2,1486.7,1154.7z"/>
		</g>
		<path fill="#F7B548" d="M460.5,1231.9l-11.1,69.2c-2.8,18.4,9.8,35.7,28.3,38.5c18.4,2.8,35.7-9.8,38.5-28.3l11.4-70.9
			L460.5,1231.9z"/>
		<path fill="#F7B548" d="M505.3,1239.7l-9.3,69.4c-2.4,18.5,10.8,35.4,29.2,37.8c18.5,2.4,35.4-10.8,37.8-29.2l9.6-71.2
			L505.3,1239.7z"/>
		<path fill="#F7B548" d="M443.1,1211.2l-25.1,65.4c-6.6,17.5,2.3,37,19.8,43.5c17.5,6.6,37-2.3,43.5-19.8l25.7-67.1L443.1,1211.2z"
			/>
		<path fill="#E29E3B" d="M509,1276.8c39.1,0,70.8-31.7,70.8-70.8s-31.7-70.8-70.8-70.8s-70.8,31.7-70.8,70.8
			S469.9,1276.8,509,1276.8z"/>
	</g>
	<g display="inline">
		<path fill="#3F3C38" d="M753.1,586.7c-14.5-0.5-22.1-0.7-22.1-0.7s-11.9,80.5-9.4,165.9c0.6,6.9-1.1,10.8-6.1,12.7l13.4,0.7
			c11.9-0.4,15.9-4.2,15.1-14.2C741.6,672.5,751.5,598.1,753.1,586.7z"/>
		<path fill="#E29E3B" d="M1170.8,531.6l-49.7-179c0,0-174.7-2.9-284.1-190.5c-24,295.5,221.3,321.6,221.3,321.6l11.9,45.3
			L1170.8,531.6z"/>
		<path fill="#F7B548" d="M1121.2,352.6c0,0-172.1-2.8-281.6-186.3c53.4,211.8,196.3,235.2,196.3,235.2l18.7,71.6
			c0.9,0.2,1.4,0.3,1.4,0.3l14.3,55.5l100.5,2.6L1121.2,352.6z"/>
		<path fill="#F7F6F6" d="M586.8,622.2c-3.5,65.6,12.6,106.8,22.8,126c4.2,7.8,12.8,12.9,18.7,13.8l78.2,4.1
			c11.9-0.4,15.9-4.2,15.1-14.2c-2.5-85.4,9.4-165.9,9.4-165.9s106.6,3.7,273.1,7.8c166.5,4.1,233.1-11,242.2-9.2
			c9.1,1.7-32-292.3-310.6-290C644.9,296.8,594.2,484,586.8,622.2z"/>
		<path fill="#DDDBDA" d="M673.5,760.4c-10.3-19.2-26.4-60.3-22.8-126c7.5-138.2,58.1-325.4,348.9-327.8c12.5-0.1,24.4,0.4,36,1.4
			c-29.3-9-62.4-14-99.8-13.7C644.9,296.8,594.3,484,586.8,622.2c-3.5,65.6,12.6,106.8,22.8,126c4.2,7.8,12.8,12.9,18.7,13.8
			l47.2,1.5C674.7,762.5,674.1,761.5,673.5,760.4z"/>
		<path fill="#E29E3B" d="M788.3,541.2l-49.7-179c0,0-174.7-2.9-284.1-190.5c-24,295.5,221.3,321.6,221.3,321.6l11.9,45.3
			L788.3,541.2z"/>
		<path fill="#F7B548" d="M738.6,362.2c0,0-172.1-2.8-281.6-186.3c53.4,211.8,196.3,235.3,196.3,235.3l18.7,71.6
			c0.9,0.2,1.4,0.3,1.4,0.3l14.3,55.5l100.5,2.6L738.6,362.2z"/>
		<path fill="#908D89" d="M1270.9,574.5c1.2,5.8-3.1,11.2-9.6,12.1c-26.8,3.9-103,12.1-264.4,10.5c-176.8-1.7-368-11.6-418.3-14.4
			c-6.9-0.4-12.1-5.8-11.4-11.8l5.5-46c0.7-5.6,6.3-9.7,12.7-9.2c45.8,3.4,222.7,15.6,416.9,15.7c135.4,0.1,217.2-7.8,245.8-11.2
			c6.4-0.8,12.4,3.1,13.5,8.8L1270.9,574.5z"/>
		
			<ellipse transform="matrix(7.310180e-02 -0.9973 0.9973 7.310180e-02 25.6891 1136.3217)" fill="#DDDBDA" cx="624.2" cy="554.3" rx="16.8" ry="19.1"/>
		
			<ellipse transform="matrix(7.310180e-02 -0.9973 0.9973 7.310180e-02 97.0313 1218.6273)" fill="#DDDBDA" cx="704.1" cy="557.1" rx="16.8" ry="19.1"/>
		
			<ellipse transform="matrix(7.310180e-02 -0.9973 0.9973 7.310180e-02 174.9646 1308.0117)" fill="#DDDBDA" cx="791.2" cy="559.9" rx="16.8" ry="19.1"/>
		
			<ellipse transform="matrix(7.310180e-02 -0.9973 0.9973 7.310180e-02 256.9825 1398.6478)" fill="#DDDBDA" cx="881" cy="561.1" rx="16.8" ry="19.1"/>
		
			<ellipse transform="matrix(7.310180e-02 -0.9973 0.9973 7.310180e-02 333.2407 1485.3563)" fill="#DDDBDA" cx="965.7" cy="563.4" rx="16.8" ry="19.1"/>
		
			<ellipse transform="matrix(7.310180e-02 -0.9973 0.9973 7.310180e-02 408.8945 1567.5769)" fill="#DDDBDA" cx="1047.8" cy="563.8" rx="16.8" ry="19.1"/>
		
			<ellipse transform="matrix(7.310180e-02 -0.9973 0.9973 7.310180e-02 488.6034 1651.0558)" fill="#DDDBDA" cx="1132.6" cy="562.7" rx="16.8" ry="19.1"/>
		
			<ellipse transform="matrix(7.310180e-02 -0.9973 0.9973 7.310180e-02 570.4366 1730.8879)" fill="#DDDBDA" cx="1216.4" cy="558.6" rx="16.8" ry="19.1"/>
		<polygon fill="#C4C1BE" points="1067.2,507.6 934.3,445 981.6,338 1096.8,423.4 		"/>
		<polygon fill="#A7A4A0" points="1067.2,507.6 934.3,445 981.6,338 		"/>
	</g>
</g>
<g id="asset">
	<g>
		<path fill="#E29E3B" d="M805.1,1178.3l-28.8,231.8l71.3,8.9l27-216.8C850.4,1196.5,827.2,1188.4,805.1,1178.3z"/>
		<path fill="#E29E3B" d="M1112.8,1180.9c31.2,77.5,33.7,155.8,32.7,194c-0.2,3.9,36.1,7.4,71-0.6c0.5-49.3-5.2-140.4-41.8-227.8
			C1155.3,1159.8,1134.6,1171.4,1112.8,1180.9z"/>
		<g>
			<path fill="#B3AFAB" d="M849.8,1492.4c0,0,5.8,1.5,7.8,5.6c12.3,24.6,13.4,42.4,73.7,80.4c23.3,14.7-92.9,102.1-158.5,98.2
				c-38-2.2-48-13.7-44.9-32.7c11.2-69.2,36-162.1,42.7-162.1C777.3,1481.8,849.8,1492.4,849.8,1492.4z"/>
			<path fill="#908D89" d="M767.2,1676.6c0,0,2.2-91.5,80.4-107.2c146.9-29.4,98.2,101.6,98.2,101.6S945.8,1696.7,767.2,1676.6z"/>
			<path fill="#F7F6F6" d="M754.9,1349.5c0,0,39.6-37.7,84.8-56.9c26.8,16.7,50.2,37.9,62.7,54.4c-22.5,62.8-29.5,121.4-38.2,164.4
				c-48-22.3-107.2,2.2-107.2,2.2L754.9,1349.5z"/>
			
				<ellipse transform="matrix(0.122 -0.9925 0.9925 0.122 -616.9852 2020.1605)" fill="#E29E3B" cx="833.4" cy="1358.8" rx="30.1" ry="25.7"/>
			<path fill="#3F3C38" d="M729.3,1633.1c0,0,53.9,20.4,105.2,20.4s111.3-7.3,121.4-8.4c10-1.1,12.6,29.3-5.9,32.7
				c-30.4,5.5-113.7,24.1-221-8.4C719.8,1666.5,718.9,1632.5,729.3,1633.1z"/>
			
				<ellipse transform="matrix(0.2412 -0.9705 0.9705 0.2412 -957.4329 1944.9415)" fill="#3F3C38" cx="765" cy="1584.7" rx="28.5" ry="13.4"/>
			<path fill="#DDDBDA" d="M788.7,1322.2c-20.2,14.5-33.7,27.3-33.7,27.3l2.2,164.1c0,0,6.8-2.8,17.6-5.7
				C775,1462.7,778,1399.7,788.7,1322.2z"/>
		</g>
		<g>
			<path fill="#B3AFAB" d="M1245,1492.4c0,0,6.4,1.5,9.3,5.6c17.9,24.6,22.8,42.4,93.9,80.4c27.6,14.7-76.8,102.1-146.6,98.2
				c-40.3-2.2-53.2-13.7-53.9-32.7c-2.4-69.2,4.7-162.1,11.8-162.1S1245,1492.4,1245,1492.4z"/>
			<path fill="#908D89" d="M1231.3,1676c0,0-23.1-93.5,56.1-108c128.1-23.4,95,103,95,103S1307.5,1686.1,1231.3,1676z"/>
			<path fill="#F7F6F6" d="M1116,1349.5c0,0,34-37.7,77.5-56.9c31.6,16.7,60.6,37.9,77.1,54.4c-1.7,50.2-6.1,121.4-6.5,164.4
				c-55-22.3-111.5,2.7-111.5,2.7L1116,1349.5z"/>
			
				<ellipse transform="matrix(0.8467 -0.5321 0.5321 0.8467 -538.9083 847.0222)" fill="#E29E3B" cx="1200.4" cy="1358.7" rx="25.7" ry="31.6"/>
			<path fill="#3F3C38" d="M1147,1633.1c0,0,60.8,20.4,114.8,20.4s115.6-7.3,125.9-8.4s19.2,29.3,0.5,32.7
				c-30.8,5.5-114.6,24.1-234-8.4C1143.9,1666.5,1136,1632.5,1147,1633.1z"/>
			
				<ellipse transform="matrix(1 -5.003358e-03 5.003358e-03 1 -7.9186 5.9453)" fill="#3F3C38" cx="1184.3" cy="1585.6" rx="16.5" ry="27.8"/>
			<path fill="#DDDBDA" d="M1135.5,1330.8c-12.2,10.6-19.5,18.7-19.5,18.7l36.3,164.7c0,0,8.1-3.1,14.9-5
				C1160.6,1476.2,1154.8,1402.4,1135.5,1330.8z"/>
		</g>
	</g>
</g>
</svg>
