<?xml version="1.0" encoding="utf-8"?>
<!-- Generator: Adobe Illustrator 24.2.0, SVG Export Plug-In . SVG Version: 6.00 Build 0)  -->
<svg version="1.1" id="Layer_1" xmlns="http://www.w3.org/2000/svg" xmlns:xlink="http://www.w3.org/1999/xlink" x="0px" y="0px"
	 viewBox="0 0 2000 2000" enable-background="new 0 0 2000 2000" xml:space="preserve">
<g id="ghost-image" display="none">
	<g display="inline" opacity="0.5">
		<path fill="#8A6FE8" d="M1469,1134.6c-57.7-4.7-181.3-73.8-228.1-150.4c-28.4-46.5,24.8-83.6,53.8-36.2
			c31.4,51.3,134.8,115.2,179.9,118.9L1469,1134.6z"/>
		<path fill="#8A6FE8" d="M1525,1005.7l-88.7,33.7c-15.8,6-23.7,23.7-17.8,39.5c6,15.8,23.7,23.7,39.5,17.8l88.7-33.7
			c15.8-6,23.7-23.7,17.8-39.5C1558.6,1007.6,1540.8,999.6,1525,1005.7z"/>
		<path fill="#8A6FE8" d="M1416.4,1155.1l37.8,51.4c10.2,13.6,29.4,16.4,43.1,6.3c13.6-10.2,16.4-29.4,6.3-43.1l-38.8-52.7
			L1416.4,1155.1z"/>
		<path fill="#8A6FE8" d="M1450.7,1158.2l76.8,42.9c14.9,8.2,33.6,2.9,41.8-12c8.2-14.8,2.9-33.6-12-41.8l-57-32.1L1450.7,1158.2z"
			/>
		<path fill="#8A6FE8" d="M1460.3,1121.8l84.6,24.4c16.3,4.7,33.4-4.7,38.2-21c4.7-16.3-4.7-33.4-21-38.2l-86.2-24.9L1460.3,1121.8z
			"/>
		
			<radialGradient id="SVGID_1_" cx="4656.7964" cy="-8101.2231" r="6.0501" gradientTransform="matrix(10.6515 0 0 10.6515 -48150.2891 87393.9141)" gradientUnits="userSpaceOnUse">
			<stop  offset="0" style="stop-color:#8065E0"/>
			<stop  offset="1" style="stop-color:#512BD4"/>
		</radialGradient>
		<path fill="url(#SVGID_1_)" d="M1451.6,1168.2c35.6,0,64.4-28.8,64.4-64.4c0-35.6-28.9-64.4-64.4-64.4
			c-35.6,0-64.4,28.8-64.4,64.4C1387.1,1139.3,1416,1168.2,1451.6,1168.2z"/>
		
			<linearGradient id="SVGID_2_" gradientUnits="userSpaceOnUse" x1="432.5013" y1="-14382.208" x2="492.2792" y2="-14097.4961" gradientTransform="matrix(1 0 0 1 694 15478.0254)">
			<stop  offset="0" style="stop-color:#522CD5"/>
			<stop  offset="0.4397" style="stop-color:#8A6FE8"/>
		</linearGradient>
		<path fill="url(#SVGID_2_)" d="M1216.5,1374.2c0.7-59.8-7.8-181.1-69.5-282.6l-60.3,36.6c56,92.1,60.2,199.7,58.9,246.6
			C1145.4,1378.6,1181.6,1382.1,1216.5,1374.2z"/>
		<path fill="#522CD5" d="M1145.5,1374.1l55.8-0.3l52.1,298.7l-112.1,0.5c-8.5,0-15-6.8-14.4-15.4L1145.5,1374.1z"/>
		
			<linearGradient id="SVGID_3_" gradientUnits="userSpaceOnUse" x1="468.5236" y1="-14106.0342" x2="646.134" y2="-13789.3779" gradientTransform="matrix(1 0 0 1 694 15478.0254)">
			<stop  offset="0" style="stop-color:#522CD5"/>
			<stop  offset="0.4397" style="stop-color:#8A6FE8"/>
		</linearGradient>
		<path fill="url(#SVGID_3_)" d="M1373,1593.9c9.7,7.7,9.5,18.7,8.8,30.4l-2.3,35.8c-0.4,6.4-6,11.7-12.4,11.7l-116.8,0.5
			c-7.3,0-12.8-5.8-12.3-13.1l0.8-37.1c0.9-13.5-3.7-18.4-14.1-31.1c-17.9-21.7-70.7-140-65.7-217.1l57.5-0.3
			C1220.3,1419.5,1280.7,1521.1,1373,1593.9z"/>
		
			<radialGradient id="SVGID_4_" cx="4854.4028" cy="-7767.7549" r="6.0492" gradientTransform="matrix(20.3477 -9.260000e-02 9.260000e-02 20.3477 -96752.3203 160047.5625)" gradientUnits="userSpaceOnUse">
			<stop  offset="3.400000e-02" style="stop-color:#522CD5"/>
			<stop  offset="0.9955" style="stop-color:#8A6FE8"/>
		</radialGradient>
		<path fill="url(#SVGID_4_)" d="M1381.8,1624.3c0.6-8.2,0.7-16-2.5-22.6l-145.7,0.7c4,5.9,5.7,11.1,5.2,19.7l-0.8,37.1
			c-0.5,7.3,5,13.1,12.3,13.1l116.8-0.5c6.4,0,12-5.3,12.4-11.7L1381.8,1624.3z"/>
		
			<linearGradient id="SVGID_5_" gradientUnits="userSpaceOnUse" x1="103.6376" y1="-14386.5596" x2="172.368" y2="-14063.2041" gradientTransform="matrix(1 0 0 1 694 15478.0254)">
			<stop  offset="0" style="stop-color:#522CD5"/>
			<stop  offset="0.4397" style="stop-color:#8A6FE8"/>
		</linearGradient>
		<path fill="url(#SVGID_5_)" d="M847.6,1418.8l-71.3-8.9l40.1-322.5l71.3,8.8L847.6,1418.8z"/>
		<path fill="#522CD5" d="M781.5,1371.7l56.5-0.3l15.6,302l-113.4,0.5c-8.6,0-14.3-6.9-12.7-15.6L781.5,1371.7z"/>
		
			<linearGradient id="SVGID_6_" gradientUnits="userSpaceOnUse" x1="48.7987" y1="-14079.0361" x2="202.8451" y2="-13785.4971" gradientTransform="matrix(1 0 0 1 694 15478.0254)">
			<stop  offset="0" style="stop-color:#522CD5"/>
			<stop  offset="0.4397" style="stop-color:#8A6FE8"/>
		</linearGradient>
		<path fill="url(#SVGID_6_)" d="M945.7,1595.1c8.7,7.9,8.5,18,6.3,29.8l-6.8,36.2c-1.2,6.5-7.5,11.8-14,11.8l-162.2,0.8
			c-7.4,0-12.2-5.9-10.8-13.2l5.8-37.5c2.6-13.6,0.6-17.7,0.8-35.1c0.5-32.8,15.6-138.2,30.3-216.2l58.2-0.2
			C851.4,1417.6,871.5,1527.9,945.7,1595.1z"/>
		
			<radialGradient id="SVGID_7_" cx="4856.1553" cy="-7741.3169" r="6.0492" gradientTransform="matrix(22.145 -0.1007 0.1006 22.1216 -105897.6172 173281.1719)" gradientUnits="userSpaceOnUse">
			<stop  offset="3.400000e-02" style="stop-color:#522CD5"/>
			<stop  offset="0.9955" style="stop-color:#8A6FE8"/>
		</radialGradient>
		<path fill="url(#SVGID_7_)" d="M763.9,1622.9l-5.8,37.5c-1.4,7.3,3.5,13.3,10.8,13.2l162.2-0.7c6.5,0,12.8-5.3,14-11.8l6.8-36.2
			c1.6-8.6,2.1-16.2-1-22.8l-185.9,0.8C765.4,1609.6,765.5,1614.4,763.9,1622.9z"/>
		<path fill="#8A6FE8" d="M804,455.8L736.5,483l-18.4-73.1l48.4-19.5L804,455.8z"/>
		<path fill="#512BD4" d="M788.8,582c38.2,0,69.1-30.9,69.1-69.1s-30.9-69.1-69.1-69.1s-69.1,30.9-69.1,69.1
			C719.7,551,750.7,582,788.8,582z"/>
		
			<radialGradient id="SVGID_8_" cx="5002.1904" cy="-7555.7373" r="6.0492" gradientTransform="matrix(61.9498 0 0 61.9498 -308869 468844.5625)" gradientUnits="userSpaceOnUse">
			<stop  offset="0.4744" style="stop-color:#A08BE8"/>
			<stop  offset="0.8618" style="stop-color:#8065E0"/>
		</radialGradient>
		<path fill="url(#SVGID_8_)" d="M1300.2,939.7C1325,844.2,1309,768,1309,768h22.4l0.5-0.4c-32.2-175.2-185.6-307.9-370-307.9
			c-207.8,0-376.3,168.5-376.3,376.3s168.4,376.3,376.3,376.3c164,0,303.5-104.9,355-251.2C1318.4,954.8,1318.3,943.6,1300.2,939.7z
			"/>
		<path fill="#D8CFF7" d="M1286.4,1026.5H637.5c14.6,24.8,31.9,47.7,51.5,68.4h545.8C1254.5,1074.2,1271.8,1051.3,1286.4,1026.5z"/>
		
			<radialGradient id="SVGID_9_" cx="4983.5737" cy="-7590.6196" r="6.0492" gradientTransform="matrix(48.2581 0 0 48.2581 -239265.7031 367007.75)" gradientUnits="userSpaceOnUse">
			<stop  offset="9.330000e-02" style="stop-color:#E1DFDD"/>
			<stop  offset="0.8998" style="stop-color:#FFFFFF"/>
		</radialGradient>
		<path fill="url(#SVGID_9_)" d="M1300.2,939.7c24.6-94.3,9.2-169.7,8.9-171.6H918.6c0,0-24.6-2.5-24.6,20s0.9,85.9,0.9,156.2
			c0,14.4,11.8,21.4,21.1,21.4C916.1,965.6,1256.6,965.6,1300.2,939.7z"/>
		<path fill="#A08BE8" d="M1065,939.9c0,0,60.1-47.5,71.8-56.3c11.7-8.8,22-9.3,32.7,0s70.8,56.3,70.8,56.3H1065z"/>
		<path fill="#512BD4" d="M1315.4,965.3c0,0,10.4-20.1-15.2-25.7c0-0.1-383.8-0.3-383.8-0.3c-8.9,0-20.4-5.3-21.4-14
			c0,6.2,0,12.5,0,18.8c0,13.1,9.8,20,18.5,21.2c0.9,0.1,1.8,0.2,2.7,0.2h26.2L1315.4,965.3z"/>
		<path fill="#512BD4" d="M1286.5,851.6c0.4-27.3-12.4-49.7-28.7-49.9s-29.8,21.7-30.2,49c-0.4,27.3,12.4,49.7,28.7,49.9
			C1272.6,900.9,1286.1,879,1286.5,851.6z"/>
		<path fill="#8065E0" d="M1256.7,825c-10.8,10.8-10.8,28.2,0,38.9c7.4,7.4,17.8,9.7,27.2,7c1.6-5.9,2.5-12.4,2.6-19.3
			c0.2-13.4-2.8-25.6-7.8-34.6C1270.9,816.4,1262.8,819,1256.7,825z"/>
		<path fill="#512BD4" d="M1020.8,900.9c16.3-0.2,29.1-22.6,28.7-49.9s-13.9-49.3-30.2-49c-16.2,0.2-29.1,22.6-28.7,49.9
			C991,879.2,1004.5,901.2,1020.8,900.9z"/>
		<path fill="#8065E0" d="M1019.8,826.6c-10.8,10.8-10.8,28.2,0,38.9c7.3,7.3,17.7,9.6,27,7c1.8-6.5,2.8-13.8,2.6-21.6
			c-0.2-12.4-3.1-23.7-7.7-32.3C1033.9,818,1025.8,820.6,1019.8,826.6z"/>
		<path fill="#512BD4" d="M1084.8,1115.2l123.2-0.6l-0.5-108.9l-123.2,0.6L1084.8,1115.2z"/>
		<path fill="#FFFFFF" d="M1106.1,1074.5c-0.8,0-1.5-0.3-2.1-0.8c-0.6-0.6-0.9-1.2-0.9-2c0-0.8,0.3-1.5,0.9-2
			c0.6-0.6,1.3-0.8,2.1-0.8c0.8,0,1.5,0.3,2.1,0.8c0.6,0.5,0.9,1.2,0.9,2s-0.3,1.4-0.9,2C1107.7,1074.2,1107,1074.5,1106.1,1074.5z"
			/>
		<path fill="#FFFFFF" d="M1138.9,1074h-5.3l-14.1-22.1c-0.3-0.5-0.7-1.2-0.9-1.8h-0.1c0.1,0.6,0.2,2,0.2,4.1l0,19.7h-4.7l-0.1-30.1
			h5.7l13.6,21.6c0.6,0.9,0.9,1.5,1.1,1.8h0.1c-0.2-0.8-0.2-2.2-0.2-4.1l0-19.4h4.7L1138.9,1074z"/>
		<path fill="#FFFFFF" d="M1161.8,1073.9l-16.5,0l-0.1-30.1l15.8,0v4.2l-10.9,0l0,8.5l10.1,0v4.2l-10.1,0l0,8.9l11.6,0
			L1161.8,1073.9L1161.8,1073.9z"/>
		<path fill="#FFFFFF" d="M1185.2,1048l-8.4,0l0.1,25.9h-4.9l-0.1-25.9l-8.4,0v-4.2l21.7-0.1L1185.2,1048z"/>
		<path fill="#8A6FE8" d="M529.4,1254.2l40.2,57.3c10.8,15.2,31.9,18.7,47.2,7.9c15.2-10.8,18.7-31.9,7.9-47.1L575,1203
			L529.4,1254.2z"/>
		<path fill="#8A6FE8" d="M460.1,1232.5l-11.1,69.2c-2.8,18.4,9.8,35.7,28.3,38.5c18.4,2.8,35.7-9.8,38.5-28.3l11.4-70.9
			L460.1,1232.5z"/>
		<path fill="#8A6FE8" d="M505,1240.3l-9.3,69.4c-2.4,18.5,10.8,35.4,29.2,37.8c18.5,2.4,35.4-10.8,37.8-29.2l9.6-71.2L505,1240.3z"
			/>
		<path fill="#8A6FE8" d="M442.7,1211.8l-25.1,65.4c-6.6,17.5,2.3,37,19.8,43.5c17.5,6.6,37-2.3,43.5-19.8l25.7-67.1L442.7,1211.8z"
			/>
		
			<linearGradient id="SVGID_10_" gradientUnits="userSpaceOnUse" x1="-100.8671" y1="-14618.4951" x2="-100.8671" y2="-14237.6055" gradientTransform="matrix(1 0 0 1 694 15478.0254)">
			<stop  offset="0.2495" style="stop-color:#967FE6"/>
			<stop  offset="1" style="stop-color:#8A6FE8"/>
		</linearGradient>
		<path fill="url(#SVGID_10_)" d="M489.3,1240.4c-27.9-57-44.2-154.4,1.8-241.6c28-52.9,89.2-120,222.3-139.3l10.7,73.8
			c-80.8,11.7-138.5,46.4-167,100.3c-30.8,58.4-22.6,129.4-0.8,174L489.3,1240.4z"/>
		
			<radialGradient id="SVGID_11_" cx="4632.2656" cy="-8075.418" r="6.0492" gradientTransform="matrix(11.3989 0 0 11.3989 -52066 92912.2734)" gradientUnits="userSpaceOnUse">
			<stop  offset="0" style="stop-color:#8065E0"/>
			<stop  offset="1" style="stop-color:#512BD4"/>
		</radialGradient>
		<path fill="url(#SVGID_11_)" d="M739,954.1c38.1,0,68.9-30.8,68.9-68.9S777,816.3,739,816.3s-68.9,30.8-68.9,68.9
			C670.1,923.2,700.9,954.1,739,954.1z"/>
		
			<radialGradient id="SVGID_12_" cx="4847.4409" cy="-7746.4424" r="6.0492" gradientTransform="matrix(22.7292 0 0 22.7292 -109673.5859 177224.1875)" gradientUnits="userSpaceOnUse">
			<stop  offset="0" style="stop-color:#8065E0"/>
			<stop  offset="1" style="stop-color:#512BD4"/>
		</radialGradient>
		<path fill="url(#SVGID_12_)" d="M508.6,1277.3c39.1,0,70.8-31.7,70.8-70.8s-31.7-70.8-70.8-70.8s-70.8,31.7-70.8,70.8
			C437.9,1245.7,469.5,1277.3,508.6,1277.3z"/>
		<path fill="#D8CFF7" d="M739.7,415.8c-26.2,7-53.3-8.4-60.5-34.4c-7.2-26,8.2-52.7,34.5-59.7c26.2-7,53.3,8.4,60.5,34.4
			C781.4,382.1,766,408.8,739.7,415.8z"/>
	</g>
	<g display="inline">
		
			<linearGradient id="SVGID_13_" gradientUnits="userSpaceOnUse" x1="1008.5536" y1="484.3837" x2="1008.5536" y2="-1436.9115" gradientTransform="matrix(0.9997 -2.480000e-02 2.480000e-02 0.9997 -6.1196 1509.8369)">
			<stop  offset="9.490000e-02" style="stop-color:#77E3FB"/>
			<stop  offset="0.2428" style="stop-color:#BBF1FD"/>
			<stop  offset="0.9938" style="stop-color:#BBF1FD"/>
		</linearGradient>
		<path fill="url(#SVGID_13_)" d="M1016.9,49c-797.7,6.7-901,58-953.2,324.7C-37.6,891,213.5,1099.3,121.2,1527.6
			c-86.1,399.3,512.5,482.8,1127,427.4s701.6-231.8,589.3-568.9c-78.8-236.7-66.8-534.1,59.6-838.6S1560.2,44.5,1016.9,49z"/>
		<path fill="#FFFFFF" d="M1837.6,1386.1c-59.8-179.6-67.3-394.2-12.2-620.3l-64.6-23.8l-178.3-86.2L1344,809.2
			c-25.7,16.5-58.3,17.9-85.3,3.5l-64.3-34.4c0,0-94.1,116.2-178.4,146.3s-146.4-9.1-146.4-9.1l-351.1,329.3l-129-110.1
			c0,0-75.1,51.4-170,0c-30.8,9.4-69.5-2-95.6,13.1c20.5,115.1,28.6,234.9-2.6,379.9c-21.2,98.2-0.9,177.3,50.8,240l1706.1-139.2
			C1884.2,1559.2,1868.4,1478.7,1837.6,1386.1z"/>
		
			<linearGradient id="SVGID_14_" gradientUnits="userSpaceOnUse" x1="997.0944" y1="1344.28" x2="997.0944" y2="148.5457" gradientTransform="matrix(1 0 0 -1 0 2000)">
			<stop  offset="0" style="stop-color:#FFFFFF"/>
			<stop  offset="0.2727" style="stop-color:#BBF1FD"/>
			<stop  offset="0.7414" style="stop-color:#BBF1FD"/>
			<stop  offset="0.9435" style="stop-color:#FFFFFF"/>
		</linearGradient>
		<path fill="url(#SVGID_14_)" d="M1837.6,1386.1c-60.3-181.2-67.5-398-10.7-626.3c-20.6-1.4-42.8-6.6-66-17.8
			c-107.6-52-178.3-86.2-178.3-86.2s14.3,49.6,69.5,104.3c55.3,54.7,57.2,80.4,0,99.5c-51.7,17.2-113.7,14-113.7,14
			s63.7,59.1,21.6,93.2c-73.8,59.8-95,75-21.6,160.8c73.5,85.8-214.5,300.1-487.9,189.2c-247.8-100.5-671.9,83.6-935.7,317.1
			c5.3,46.2,22,86.8,48.4,122.5c100.3,51.3,311.1,98.7,706.4,95c502.2-4.7,840.1-102.4,995.7-159.5
			C1892.8,1609.8,1878.4,1508.5,1837.6,1386.1z"/>
		
			<linearGradient id="SVGID_15_" gradientUnits="userSpaceOnUse" x1="401.055" y1="865.36" x2="401.055" y2="613.6104" gradientTransform="matrix(1 0 0 -1 0 2000)">
			<stop  offset="0" style="stop-color:#FFFFFF"/>
			<stop  offset="0.8876" style="stop-color:#BBF1FD"/>
		</linearGradient>
		<path fill="url(#SVGID_15_)" d="M322.5,1203c199.6,50.5-119.8,175.9-119.8,175.9s59.3,27.5,189.2-23.1s207.6-62.5,207.6-62.5
			s-27.1-2.6-81-48.6s-129-110.1-129-110.1s-41,50.2-139.8,31.8C248,1166.1,266.4,1188.8,322.5,1203z"/>
		
			<linearGradient id="SVGID_16_" gradientUnits="userSpaceOnUse" x1="999.7515" y1="1084.54" x2="999.7515" y2="825.21" gradientTransform="matrix(1 0 0 -1 0 2000)">
			<stop  offset="0" style="stop-color:#FFFFFF"/>
			<stop  offset="0.8154" style="stop-color:#BBF1FD"/>
		</linearGradient>
		<path fill="url(#SVGID_16_)" d="M911,1000c105.1,65.9-7.2,174.8-7.2,174.8s61.8-18.3,115.3-83.3c53.6-65,110.9-108.6,110.9-108.6
			s-86.4-17.8-127.6-54c-77.2,21.6-132.7-13.5-132.7-13.5S867.1,972.5,911,1000z"/>
		<path fill="#58D0DB" d="M1745.8,1264.4l-33.5-197.2l-45,242.9c0,0,93.8-1.1,148.2-2c-21.1-88.8-30.3-184.7-26.6-285.1
			L1745.8,1264.4z"/>
		<path fill="#179BB8" d="M1684.3,1263.6l23.5,10l-34.1-102.9l18.6,7.8l-31.4-76.6l15.2,3.2l-29.3-58.5l-30.4,69.2l15.2-5.3
			l-28.9,69.9l20.8-5.8l-26.6,78.3l21.9-5.8l-42.1,148.4l64.4-5.2c26.1,1.5,81.9,4.7,85.3,5.2
			C1730.6,1396.3,1684.3,1263.6,1684.3,1263.6z"/>
		<path fill="#24BADB" d="M1637.3,1333.8l34.3,7l-49.8-71.5l27.2,5.4l-46-53.2l22.2,2.3l-42.9-40.6l-44.5,48l22.2-3.7l-42.3,48.6
			l30.4-4l-38.9,54.4l32-4l-61.6,103.1l94.3-3.6c38.1,1,119.8,3.3,124.8,3.6C1705.1,1426.1,1637.3,1333.8,1637.3,1333.8z"/>
		<path fill="#58D0DB" d="M286.1,1662.5l67.9-327.2l63.7,252.2l42.3-152.4l54.7,283.5C514.6,1718.6,296.2,1662.8,286.1,1662.5z"/>
		<path fill="#179BB8" d="M279.7,1377l29.9,12.5L259,1266.5l24.4,5.2l-47.2-94l-51.9,121.9l24.4-8.5l-43.6,101.6l33.4-9.3
			l-42.8,125.9l35.2-9.3l-21,74c45.5,37,104.3,66.8,173.4,90c-19.9-61.2-46.6-137.7-46.6-137.7l37.7,16.1L279.7,1377z"/>
		<path fill="#34C4D1" d="M247.4,1500l-79.1-238.7l43.2,18.1l-73-177.7l35.2,7.5l-68.1-135.6L93.2,1002
			c37.2,163.6,72.6,319,28.1,525.6c-22.1,102.6,1,184.4,58,248.3c53.4,3.1,106,6.3,110.9,7.2c10.4,1.7-97.1-306.3-97.1-306.3
			L247.4,1500z"/>
		<path fill="#70D6E0" d="M1484.7,1344.1l23.5,8.1l-34.1-83.6l18.6,6.3l-31.4-62.2l15.2,2.6L1447,1168l-30.4,56.1l15.2-4.3
			l-28.9,56.8l20.8-4.7l-26.6,63.6l21.9-4.7l-42.1,120.5l64.4-4.3c26.1,1.2,81.9,3.8,85.3,4.3
			C1531,1451.9,1484.7,1344.1,1484.7,1344.1z"/>
		<path fill="#24BADB" d="M1088.2,1513.8l27.6,8.1l-40.1-83.6l21.9,6.3l-37-62.2l17.8,2.6l-34.6-47.5l-35.9,56.1l17.9-4.3
			l-34.1,56.8l24.5-4.7l-31.3,63.6l25.8-4.7L961.1,1621l75.9-4.3c30.7,1.2,96.4,3.8,100.5,4.3
			C1142.8,1621.6,1088.2,1513.8,1088.2,1513.8z"/>
		<polygon fill="#88DDE5" points="990.6,1624.7 943.3,1360.3 908.4,1580.8 		"/>
		
			<linearGradient id="SVGID_17_" gradientUnits="userSpaceOnUse" x1="998.7134" y1="732.34" x2="998.7134" y2="29.6447" gradientTransform="matrix(1 0 0 -1 0 2000)">
			<stop  offset="0" style="stop-color:#FFFFFF"/>
			<stop  offset="0.5672" style="stop-color:#8EE8FC"/>
		</linearGradient>
		<path fill="url(#SVGID_17_)" d="M1806.8,1267.7c-89.6,4.5-234.2,33.3-437,139.4C753.5,1729.3,645.2,1663.9,118,1654.6
			c56.9,289.9,587.3,349.4,1130.3,300.4c614.5-55.4,701.6-231.8,589.3-568.9C1824.9,1348.1,1814.6,1308.5,1806.8,1267.7z"/>
		<path fill="#60DEFA" d="M1248.2,1954.9c115.5-10.4,212.4-25.1,292.8-44.3c-419.2-25.6-1046.5-84.8-1417.5-394
			c-0.7,3.6-1.5,7.3-2.3,11C35.2,1926.9,633.7,2010.4,1248.2,1954.9z"/>
		<g>
			<path fill="#D2F6FE" d="M1842.9,278.7L41.2,686.9c2.8,47.1,8.2,91.7,15.1,134.5l1842.2-277.1
				C1939.4,442.6,1914.5,352.9,1842.9,278.7z"/>
			<path fill="#D2F6FE" d="M1414.5,84.8L42.7,526.4c-4.2,55.3-4.4,106.9-1.8,155.7l1740.2-455.7
				C1691.6,163.1,1563.9,114.9,1414.5,84.8z"/>
		</g>
	</g>
</g>
<g id="bot-base" display="none">
	
		<radialGradient id="SVGID_18_" cx="5002.1904" cy="-7555.7373" r="6.0492" gradientTransform="matrix(61.9498 0 0 61.9498 -308869 468844.5625)" gradientUnits="userSpaceOnUse">
		<stop  offset="0.4744" style="stop-color:#A08BE8"/>
		<stop  offset="0.8618" style="stop-color:#8065E0"/>
	</radialGradient>
	<path display="inline" fill="url(#SVGID_18_)" d="M1300.2,939.7C1325,844.2,1309,768,1309,768h22.4l0.5-0.4
		c-32.2-175.2-185.6-307.9-370-307.9c-207.8,0-376.3,168.5-376.3,376.3s168.4,376.3,376.3,376.3c164,0,303.5-104.9,355-251.2
		C1318.4,954.8,1318.3,943.6,1300.2,939.7z"/>
	<path display="inline" fill="#D8CFF7" d="M1286.4,1026.5H637.5c14.6,24.8,31.9,47.7,51.5,68.4h545.8
		C1254.5,1074.2,1271.8,1051.3,1286.4,1026.5z"/>
	
		<radialGradient id="SVGID_19_" cx="4983.5737" cy="-7590.6196" r="6.0492" gradientTransform="matrix(48.2581 0 0 48.2581 -239265.7031 367007.75)" gradientUnits="userSpaceOnUse">
		<stop  offset="9.330000e-02" style="stop-color:#E1DFDD"/>
		<stop  offset="0.8998" style="stop-color:#FFFFFF"/>
	</radialGradient>
	<path display="inline" fill="url(#SVGID_19_)" d="M1300.2,939.7c24.6-94.3,9.2-169.7,8.9-171.6H918.6c0,0-24.6-2.5-24.6,20
		s0.9,85.9,0.9,156.2c0,14.4,11.8,21.4,21.1,21.4C916.1,965.6,1256.6,965.6,1300.2,939.7z"/>
	<path display="inline" fill="#A08BE8" d="M1065,939.9c0,0,60.1-47.5,71.8-56.3c11.7-8.8,22-9.3,32.7,0s70.8,56.3,70.8,56.3H1065z"
		/>
	<path display="inline" fill="#512BD4" d="M1315.4,965.3c0,0,10.4-20.1-15.2-25.7c0-0.1-383.8-0.3-383.8-0.3
		c-8.9,0-20.4-5.3-21.4-14c0,6.2,0,12.5,0,18.8c0,13.1,9.8,20,18.5,21.2c0.9,0.1,1.8,0.2,2.7,0.2h26.2L1315.4,965.3z"/>
	<path display="inline" fill="#512BD4" d="M1084.8,1115.2l123.2-0.6l-0.5-108.9l-123.2,0.6L1084.8,1115.2z"/>
	<path display="inline" fill="#FFFFFF" d="M1106.1,1074.5c-0.8,0-1.5-0.3-2.1-0.8c-0.6-0.6-0.9-1.2-0.9-2c0-0.8,0.3-1.5,0.9-2
		c0.6-0.6,1.3-0.8,2.1-0.8c0.8,0,1.5,0.3,2.1,0.8c0.6,0.5,0.9,1.2,0.9,2s-0.3,1.4-0.9,2C1107.7,1074.2,1107,1074.5,1106.1,1074.5z"
		/>
	<path display="inline" fill="#FFFFFF" d="M1138.9,1074h-5.3l-14.1-22.1c-0.3-0.5-0.7-1.2-0.9-1.8h-0.1c0.1,0.6,0.2,2,0.2,4.1
		l0,19.7h-4.7l-0.1-30.1h5.7l13.6,21.6c0.6,0.9,0.9,1.5,1.1,1.8h0.1c-0.2-0.8-0.2-2.2-0.2-4.1l0-19.4h4.7L1138.9,1074z"/>
	<path display="inline" fill="#FFFFFF" d="M1161.8,1073.9l-16.5,0l-0.1-30.1l15.8,0v4.2l-10.9,0l0,8.5l10.1,0v4.2l-10.1,0l0,8.9
		l11.6,0L1161.8,1073.9L1161.8,1073.9z"/>
	<path display="inline" fill="#FFFFFF" d="M1185.2,1048l-8.4,0l0.1,25.9h-4.9l-0.1-25.9l-8.4,0v-4.2l21.7-0.1L1185.2,1048z"/>
	<g display="inline">
		<g>
			<path fill="#044E87" d="M1313,971.3c-8.4,21.8-18.8,42.6-30.9,62.2c57.5,54.7,142.1,97.3,186.9,100.9l5.6-67.6
				C1436.2,1063.7,1355.5,1016.8,1313,971.3z"/>
		</g>
		<g>
			<path fill="#044E87" d="M489.3,1240.4c-27.9-57-44.2-154.4,1.8-241.6c28-52.9,89.2-120,222.3-139.3l10.7,73.8
				c-80.8,11.7-138.5,46.4-167,100.3c-30.8,58.4-22.6,129.4-0.8,174L489.3,1240.4z"/>
			<path fill="#0E8EC5" d="M739,954.1c38.1,0,68.9-30.8,68.9-68.9S777,816.3,739,816.3s-68.9,30.8-68.9,68.9
				C670.1,923.2,700.9,954.1,739,954.1z"/>
		</g>
		<g>
			<path fill="#E86E58" d="M553.2,1114.3l7.5,45.2c4,23.8,15.3,45.7,32.3,62.7c9.5,9.4,19.9,20,28.3,29
				c25.5,27.3-7.1,73.4-38.1,56.1c-21.8-12.2-33.7-23.9-33.7-23.9s-13.4,63.2-33.9,76.4c-52.4,33.8-119.3-30.2-118.1-84
				c1.2-55.9,35.8-93.2,38.6-119c1.4-13.1,1.8-40.8,1.8-40.8L553.2,1114.3z"/>
			<path fill="#F7B548" d="M549,1089.5l-105,3c-7.6,0.2-13.7,6.5-13.5,14.2l0.1,3.1c0.2,7.7,6.5,13.7,14.2,13.5l105-3
				c7.7-0.2,13.7-6.5,13.5-14.2l-0.1-3.1C563,1095.4,556.7,1089.4,549,1089.5z"/>
		</g>
		<g>
			<path fill="#E86E58" d="M1424.6,1026.7l51.1,14.5c18.7,5.3,38.6,4.6,56.9-2.1c14.1-5.1,31-11.2,44.9-15.6
				c35.6-11.4,63.3,37.8,34.5,58.4c-20.3,14.5-36,20.2-36,20.2s51.4,39.1,54.6,63.3c8.2,61.8-78.3,95-126.4,70.9
				c-50-25-69-72.2-91.1-85.8c-11.3-6.9-36.2-19-36.2-19L1424.6,1026.7z"/>
			<path fill="#F7B548" d="M1400.4,1019.9l-42.1,96.2c-3.1,7,0,15.2,7,18.3l2.8,1.3c7,3.1,15.2,0,18.3-7l42.1-96.2
				c3.1-7,0-15.2-7-18.3l-2.8-1.3C1411.7,1009.8,1403.5,1012.9,1400.4,1019.9z"/>
		</g>
	</g>
	<g display="inline">
		<g>
			<path fill="#512BD4" d="M818.5,942.6l46.7,5.5c8.3,1,15.6-6.1,15.6-15.2V814.3c0-9.1-7.3-16.2-15.7-15.2l-46.7,5.9
				c-7.1,0.9-12.4,7.4-12.4,15.2v107.2C806,935.2,811.4,941.8,818.5,942.6z"/>
			<path fill="#E86E58" d="M1423.1,800.8c-2.2-18.2-7.6-30.4-26.6-40c-83.2-41.8-157.6-51-229.9-52c-2.4-0.1-4.8-0.1-7.3-0.1
				c-1.4,0-2.9,0-4.3,0c-1.4,0-2.9,0-4.3,0c-2.5,0-4.9,0-7.3,0.1c-72.3,1.1-160.8,10.2-243.9,52c-19,9.6-32.4,21.8-34.6,40
				s-2.2,110.3,0,132.1s8.9,32.7,40.2,47.3s121.1,44.8,146.8,50.9c25.7,6.1,37.9-1.2,55.8-30.3c17.6-28.7,34.2-64.5,59.3-65.4
				c25.1,0.9,41.7,36.7,59.3,65.4c17.9,29.1,30.1,36.4,55.8,30.3s77.5-36.4,108.8-50.9c31.3-14.5,29.9-25.5,32.2-47.3
				C1425.3,911.1,1425.3,819,1423.1,800.8z"/>
			
				<linearGradient id="SVGID_20_" gradientUnits="userSpaceOnUse" x1="1148.0049" y1="1005.0739" x2="1148.0049" y2="1251.7" gradientTransform="matrix(1 0 0 -1 0 2000)">
				<stop  offset="0.375" style="stop-color:#FFFFFF"/>
				<stop  offset="0.8418" style="stop-color:#33D5F9"/>
			</linearGradient>
			<path fill="url(#SVGID_20_)" d="M1385.4,815.4c0,20.6,0,75.2,0,105.5s-3.3,29.1-20.1,38.8c-16.7,9.7-54.3,23-80,31.5
				s-19.8,1.2-28.8-7.3c-8.9-8.5-23.4-26.7-37.9-46.1c-14.5-19.4-31.3-42.4-51.3-42.4c-0.1,0-0.1,0-0.2,0s-0.1,0-0.2,0
				c-20.1,0-36.8,23-51.3,42.4c-14.5,19.4-29,37.6-37.9,46.1c-8.9,8.5-17.1,15.8-42.8,7.3c-25.7-8.5-87.3-21.8-104-31.5
				c-16.7-9.7-20.1-8.5-20.1-38.8s0-84.8,0-105.5s-1.1-27.9,24.6-38.8c25.4-10.8,102-27.9,219.8-28.3
				c117.8,0.4,180.4,17.5,205.8,28.3C1386.5,787.5,1385.4,794.8,1385.4,815.4z"/>
			<g>
				<path fill="#CC5444" d="M1360.8,776.6c-25.4-10.8-52.7-17.4-92.5-21.8c38.7,7.3,50.7,11.3,75.5,21.8
					c25.7,10.9,24.6,18.2,24.6,38.8s0,75.2,0,105.5s-3.3,29.1-20.1,38.8c-16.7,9.7-40.3,23-66,31.5c-3.8,1.3-7.3,2.2-10.4,2.8
					c6.3,1.7,0.7,1.4,13.4-2.8c25.7-8.5,63.3-21.8,80-31.5s20.1-8.5,20.1-38.8s0-84.8,0-105.5S1386.5,787.5,1360.8,776.6z"/>
			</g>
		</g>
	</g>
	<g display="inline">
		<path fill="#E86E58" d="M768.5,252.4l-53.8,20.4c-81.2,30.8-106.9,216.1-76.1,297.2l384-162C991.8,326.9,849.6,221.6,768.5,252.4z
			"/>
		<g>
			<path fill="#CC5444" d="M677.6,550.7c-1.4,0-2.6-0.9-2.9-2.3c-16.5-70.4-8.3-136.7,1.5-179.8c10.6-46.8,25.4-77.4,25.5-77.7
				c0.7-1.5,2.5-2.1,4-1.4c1.5,0.7,2.1,2.5,1.4,4c-0.2,0.3-14.7,30.4-25.1,76.6c-9.6,42.5-17.7,107.7-1.5,177
				c0.4,1.6-0.6,3.2-2.2,3.6C678,550.6,677.8,550.7,677.6,550.7z"/>
		</g>
		<g>
			<path fill="#CC5444" d="M730.6,542c-1.2,0-2.4-0.8-2.8-2c-20.8-59.5-22.5-123.3-20.1-166.3c2.5-46.5,10-79.5,10.1-79.8
				c0.4-1.6,2-2.6,3.6-2.2c1.6,0.4,2.6,2,2.2,3.6c-0.1,0.3-7.5,32.9-10,78.9c-2.3,42.4-0.7,105.2,19.8,163.8
				c0.5,1.6-0.3,3.3-1.8,3.8C731.3,542,731,542,730.6,542z"/>
		</g>
		<g>
			<path fill="#CC5444" d="M790.3,513.8c-1,0-2-0.5-2.6-1.5c-14.2-24.8-33.3-69.6-43.5-142.3c-6.1-43.4-6.2-76.7-6.2-77
				c0-1.7,1.3-3,3-3s3,1.3,3,3c0,1.3,0.6,131.9,48.9,216.4c0.8,1.4,0.3,3.3-1.1,4.1C791.4,513.7,790.8,513.8,790.3,513.8z"/>
		</g>
		<g>
			<path fill="#CC5444" d="M832.8,485.9c-1.4,0-2.6-0.9-2.9-2.3c-13.2-56-72.3-195.4-72.9-196.8c-0.7-1.5,0.1-3.3,1.6-3.9
				c1.5-0.6,3.3,0.1,3.9,1.6c0.6,1.4,59.9,141.2,73.2,197.8c0.4,1.6-0.6,3.2-2.2,3.6C833.2,485.9,833,485.9,832.8,485.9z"/>
		</g>
		<g>
			<path fill="#CC5444" d="M883,466.9c-1.4,0-2.6-1-2.9-2.4C865.9,395.7,772.9,278.9,772,277.8c-1-1.3-0.8-3.2,0.5-4.2
				c1.3-1,3.2-0.8,4.2,0.5c0.2,0.3,23.9,30,49,67.9c33.9,51,54.1,91.9,60.2,121.5c0.3,1.6-0.7,3.2-2.3,3.5
				C883.4,466.9,883.2,466.9,883,466.9z"/>
		</g>
		<g>
			<path fill="#CC5444" d="M937.7,461.4c-1.3,0-2.5-0.9-2.9-2.2c-8.2-30.2-29.6-78.2-85.3-135.4c-33.4-34.3-63.6-55.8-63.9-56
				c-1.3-1-1.7-2.8-0.7-4.2c1-1.4,2.8-1.7,4.2-0.7c0.3,0.2,31,22,64.7,56.7c31.2,32.1,71.7,82,86.8,138c0.4,1.6-0.5,3.2-2.1,3.7
				C938.2,461.3,938,461.4,937.7,461.4z"/>
		</g>
		<g>
			<path fill="#CC5444" d="M990.2,436.8c-1.2,0-2.3-0.7-2.8-1.9c-28.5-68.2-78.7-112.4-115.8-137.4c-40.3-27.2-74.3-38.3-74.7-38.4
				c-1.6-0.5-2.4-2.2-1.9-3.8c0.5-1.6,2.2-2.4,3.8-1.9c0.3,0.1,35,11.4,76,39c37.8,25.5,89,70.5,118.1,140.1
				c0.6,1.5-0.1,3.3-1.6,3.9C990.9,436.7,990.5,436.8,990.2,436.8z"/>
		</g>
		<path fill="#F7B548" d="M1055,527L686.9,666.6c-24.6,9.3-52-3-61.3-27.6L610,597.9c-9.3-24.6,3-52,27.6-61.3l368.1-139.6
			c24.6-9.3,52,3,61.3,27.6l15.6,41.1C1091.9,490.2,1079.6,517.7,1055,527z"/>
		
			<ellipse transform="matrix(0.9329 -0.36 0.36 0.9329 -37.7532 280.2858)" fill="#F7B548" cx="733.6" cy="241.5" rx="77.1" ry="58.3"/>
		<path fill="#FFE5B9" d="M687.5,643.7L687.5,643.7c-6.6,2.7-14.1-0.5-16.7-7.1l-24.7-61.1c-2.7-6.6,0.5-14.1,7.1-16.7l0,0
			c6.6-2.7,14.1,0.5,16.7,7.1l24.7,61.1C697.2,633.5,694.1,641,687.5,643.7z"/>
		<path fill="#FFE5B9" d="M742.2,621.3L742.2,621.3c-6.6,2.7-14.1-0.5-16.7-7.1l-24.7-61.1c-2.7-6.6,0.5-14.1,7.1-16.7l0,0
			c6.6-2.7,14.1,0.5,16.7,7.1l24.7,61.1C751.9,611.2,748.8,618.7,742.2,621.3z"/>
		<path fill="#FFE5B9" d="M838.2,585.6L838.2,585.6c-6.6,2.7-14.1-0.5-16.7-7.1l-24.7-61.1c-2.7-6.6,0.5-14.1,7.1-16.7l0,0
			c6.6-2.7,14.1,0.5,16.7,7.1l24.7,61.1C847.9,575.5,844.8,583,838.2,585.6z"/>
		<path fill="#FFE5B9" d="M892.9,563.3L892.9,563.3c-6.6,2.7-14.1-0.5-16.7-7.1l-24.7-61.1c-2.7-6.6,0.5-14.1,7.1-16.7l0,0
			c6.6-2.7,14.1,0.5,16.7,7.1l24.7,61.1C902.6,553.2,899.5,560.7,892.9,563.3z"/>
		<path fill="#FFE5B9" d="M988.9,527.6L988.9,527.6c-6.6,2.7-14.1-0.5-16.7-7.1l-24.7-61.1c-2.7-6.6,0.5-14.1,7.1-16.7l0,0
			c6.6-2.7,14.1,0.5,16.7,7.1l24.7,61.1C998.6,517.5,995.5,524.9,988.9,527.6z"/>
		<path fill="#FFE5B9" d="M1043.6,505.3L1043.6,505.3c-6.6,2.7-14.1-0.5-16.7-7.1l-24.7-61.1c-2.7-6.6,0.5-14.1,7.1-16.7l0,0
			c6.6-2.7,14.1,0.5,16.7,7.1l24.7,61.1C1053.3,495.1,1050.2,502.6,1043.6,505.3z"/>
	</g>
</g>
<g id="asset">
	<path fill="#044E87" d="M803.7,1177.5l-21.9,164.2c-2.7,20.3,11.6,39,31.9,41.7c11.1,1.5,21.8-2.1,29.6-9.1
		c6.4-5.7,10.9-13.7,12.1-22.9l19.9-149.2C850.4,1196.4,826.5,1188,803.7,1177.5z"/>
	<g>
		<g>
			<path fill="#6D6A66" d="M1515.8,1775.2c-4,0.8-156.3,3.9-398.5-11.4c-142.4-9-275.5-26.7-395.6-52.7
				c-151.7-32.8-271.5-62.5-379.2-120.7c-37-20-75.1-76.6-12.6-128.2c42.7-35.3,119.6-61.2,180.1-27.9
				c96.3,53.1,170.1,94.7,308.3,124.7c112,24.3,238.9,38.2,372.5,46.8c229.2,14.7,474.5-47.8,476.3-47.9
				c50.4-4.2,57.4,69.2,35.1,111.8C1669,1732.9,1590.9,1766.8,1515.8,1775.2z"/>
		</g>
		<g>
			<path fill="#F7B548" d="M1514.9,1757.2c-4,0.8-156.3,3.9-398.5-11.4c-142.4-9-275.5-26.7-395.6-52.7
				c-151.7-32.8-271.5-62.5-379.2-120.7c-37-20-75.1-76.6-12.6-128.2c42.7-35.3,119.6-61.2,180.1-27.9
				c96.3,53.1,170.1,94.7,308.3,124.7c112,24.3,238.9,38.2,372.5,46.8c229.2,14.7,474.5-47.8,476.3-47.9
				c50.4-4.2,57.4,69.2,35.1,111.8C1668.1,1714.9,1589.9,1748.8,1514.9,1757.2z"/>
		</g>
		<path fill="#E86E58" d="M1189.9,1587.8c-133.6-8.6-260.6-22.5-372.5-46.8c-86.9-18.8-148.3-42.3-205.9-70.3
			c-76.5,35.1-162.7,72.8-254.3,109.9c103.6,52.8,219.2,81.3,363.5,112.5c120.1,26,253.2,43.7,395.6,52.7
			c105.3,6.7,193.7,9.8,260.2,11.2c77-71.5,143.4-141.6,193-197C1476.8,1576.9,1330.3,1596.9,1189.9,1587.8z"/>
		<path fill="#FFFFFF" d="M1453.2,1577.8c-79.6,9.7-172.6,15.9-263.2,10.1c-133.6-8.6-260.6-22.5-372.5-46.8
			c-47.6-10.3-87.6-22.1-123.5-35.2c-64.6,34.3-153.4,79.1-241.7,115.7c79.1,28.8,166.7,49.5,268.5,71.5
			c120.1,26,253.2,43.7,395.6,52.7c59.2,3.8,113.1,6.4,160.8,8.2C1339.2,1694.6,1410.6,1621.7,1453.2,1577.8z"/>
		<path fill="#F7B548" d="M633.6,1673.6c27.9,6.6,56.9,13,87.2,19.5c107.6,23.2,225.6,39.9,351.4,49.6
			c87.3-53.2,154.1-112.5,194.4-152.7c-25.5,0.1-51.2-0.6-76.6-2.2c-115.2-7.4-225.4-18.8-325.3-37.3
			C804.5,1585.7,720.7,1632.3,633.6,1673.6z"/>
	</g>
	<path fill="#044E87" d="M1290.9,1249.4l-153.3-80.6c-28.3,15-58.8,26.5-90.9,33.8l181.3,85.8l-36.7,91.5
		c-7.1,17.8,1.6,37.9,19.3,45c17.8,7.1,37.9-1.5,45-19.3l46.4-115.9C1307.8,1275.4,1303.3,1258.9,1290.9,1249.4z"/>
	<path fill="#0E8EC5" d="M1194.3,1320.3c1.8-4,5.7-6.7,10.1-6.8c19.3-0.6,72.5-2.4,101.6-3.4c10.8-0.4,18.4,10.4,14.3,20.4
		l-49.8,123.3c-1.9,4.6-10.1,23.4,4.2,44.4c15.4,22.6,45.6,56.8,67.5,87.9c26.8,37.9-32.4,67.8-32.4,67.8L1099,1537L1194.3,1320.3z"
		/>
	<path fill="#044E87" d="M1321.1,1663.9c11.5-13.4,20.2-26.6,25.2-44.6c-68.8-7.8-175.4-122.8-135.2-203.2
		c9.4-18.8,30.3-70,45.1-104.4c-21.1,0.7-41.5,1.4-51.9,1.7c-4.4,0.1-8.3,2.8-10.1,6.8l-110,240.9c-7,15.4-0.1,33.5,15.3,40.3
		l182.3,69.1C1296.5,1677,1310.9,1675.9,1321.1,1663.9z"/>
	<path fill="#77E3FB" d="M1299.2,1389.4l-75.2-30.6c-4.5-1.8-6.7-7-4.8-11.5l3.2-7.8c1.8-4.5,7-6.7,11.5-4.8l75.2,30.6
		c4.5,1.8,6.7,7,4.8,11.5l-3.2,7.8C1308.8,1389.1,1303.7,1391.3,1299.2,1389.4z"/>
	<path fill="#77E3FB" d="M1284.9,1429.6l-75.2-30.6c-4.5-1.8-6.7-7-4.8-11.5l3.2-7.8c1.8-4.5,7-6.7,11.5-4.8l75.2,30.6
		c4.5,1.8,6.7,7,4.8,11.5l-3.2,7.8C1294.5,1429.3,1289.4,1431.4,1284.9,1429.6z"/>
	<path fill="#77E3FB" d="M1268.1,1469.9l-75.2-30.6c-4.5-1.8-6.7-7-4.8-11.5l3.2-7.8c1.8-4.5,7-6.7,11.5-4.8l75.2,30.6
		c4.5,1.8,6.7,7,4.8,11.5l-3.2,7.8C1277.7,1469.6,1272.6,1471.7,1268.1,1469.9z"/>
	<g>
		<path fill="#0E8EC5" d="M721.4,1608.3c0,0,27.2-206.8,33-232.6s118-94.3,114.5-43.5c-2.5,36.3-6.2,87.8-8.1,114.1
			c-0.8,10.4,4.6,28.7,10.5,37.3c34,49.5,78.1,75,88.8,87.9c7.4,9-4.5,32.6-36.4,37.9C853.7,1621.1,721.4,1608.3,721.4,1608.3z"/>
		<path fill="#044E87" d="M764,1466.8c4.1-40.5,7.7-74.3,12.3-116.8c-11,7.8-20,17.5-21.9,25.7c-4.6,20-25,165.2-34,229.5
			c-2.4,16.9,9.8,31.2,26.5,34.7c40,8.3,113,22,197.3,2.8c22.5-5.1,26.9-45,17.2-68c-5.2,11.6-16.6,25.8-35.6,26.9
			C861.6,1605.2,758,1526,764,1466.8z"/>
		<path fill="#77E3FB" d="M867.8,1370.1l-69.7,10.9c-4.2,0.7-8-2.1-8.6-6.1l-1-6.9c-0.6-4,2.4-7.8,6.5-8.5l69.7-10.9
			c4.2-0.7,8,2.1,8.6,6.1l1,6.9C874.9,1365.6,872,1369.4,867.8,1370.1z"/>
		<path fill="#77E3FB" d="M867.7,1407.7l-69.7,10.9c-4.2,0.7-8-2.1-8.6-6.1l-1-6.9c-0.6-4,2.4-7.8,6.5-8.5l69.7-10.9
			c4.2-0.7,8,2.1,8.6,6.1l1,6.9C874.8,1403.3,871.9,1407.1,867.7,1407.7z"/>
		<path fill="#77E3FB" d="M866.9,1447.8l-69.7,10.9c-4.2,0.7-8-2.1-8.6-6.1l-1-6.9c-0.6-4,2.4-7.8,6.5-8.5l69.7-10.9
			c4.2-0.7,8,2.1,8.6,6.1l1,6.9C874,1443.4,871,1447.2,866.9,1447.8z"/>
	</g>
</g>
</svg>
