<?xml version="1.0" encoding="utf-8"?>
<!-- Generator: Adobe Illustrator 24.2.0, SVG Export Plug-In . SVG Version: 6.00 Build 0)  -->
<svg version="1.1" id="Layer_1" xmlns="http://www.w3.org/2000/svg" xmlns:xlink="http://www.w3.org/1999/xlink" x="0px" y="0px"
	 viewBox="0 0 2000 2000" enable-background="new 0 0 2000 2000" xml:space="preserve">
<g id="ghost-image" display="none">
	<g display="inline" opacity="0.5">
		<path fill="#8A6FE8" d="M1469,1134.6c-57.7-4.7-181.3-73.8-228.1-150.4c-28.4-46.5,24.8-83.6,53.8-36.2
			c31.4,51.3,134.8,115.2,179.9,118.9L1469,1134.6z"/>
		<path fill="#8A6FE8" d="M1525,1005.7l-88.7,33.7c-15.8,6-23.7,23.7-17.8,39.5c6,15.8,23.7,23.7,39.5,17.8l88.7-33.7
			c15.8-6,23.7-23.7,17.8-39.5C1558.6,1007.6,1540.8,999.6,1525,1005.7z"/>
		<path fill="#8A6FE8" d="M1416.4,1155.1l37.8,51.4c10.2,13.6,29.4,16.4,43.1,6.3c13.6-10.2,16.4-29.4,6.3-43.1l-38.8-52.7
			L1416.4,1155.1z"/>
		<path fill="#8A6FE8" d="M1450.7,1158.2l76.8,42.9c14.9,8.2,33.6,2.9,41.8-12c8.2-14.8,2.9-33.6-12-41.8l-57-32.1L1450.7,1158.2z"
			/>
		<path fill="#8A6FE8" d="M1460.3,1121.8l84.6,24.4c16.3,4.7,33.4-4.7,38.2-21c4.7-16.3-4.7-33.4-21-38.2l-86.2-24.9L1460.3,1121.8z
			"/>
		
			<radialGradient id="SVGID_1_" cx="347.2961" cy="-5504.3291" r="6.0501" gradientTransform="matrix(10.6515 0 0 10.6515 -2247.6492 59733.1016)" gradientUnits="userSpaceOnUse">
			<stop  offset="0" style="stop-color:#8065E0"/>
			<stop  offset="1" style="stop-color:#512BD4"/>
		</radialGradient>
		<path fill="url(#SVGID_1_)" d="M1451.6,1168.2c35.6,0,64.4-28.8,64.4-64.4c0-35.6-28.9-64.4-64.4-64.4
			c-35.6,0-64.4,28.8-64.4,64.4C1387.1,1139.3,1416,1168.2,1451.6,1168.2z"/>
		
			<linearGradient id="SVGID_2_" gradientUnits="userSpaceOnUse" x1="432.5013" y1="-9634.1826" x2="492.2793" y2="-9349.4707" gradientTransform="matrix(1 0 0 1 694 10730)">
			<stop  offset="0" style="stop-color:#522CD5"/>
			<stop  offset="0.4397" style="stop-color:#8A6FE8"/>
		</linearGradient>
		<path fill="url(#SVGID_2_)" d="M1216.5,1374.2c0.7-59.8-7.8-181.1-69.5-282.6l-60.3,36.6c56,92.1,60.2,199.7,58.9,246.6
			C1145.4,1378.6,1181.6,1382.1,1216.5,1374.2z"/>
		<path fill="#522CD5" d="M1145.5,1374.1l55.8-0.3l52.1,298.7l-112.1,0.5c-8.5,0-15-6.8-14.4-15.4L1145.5,1374.1z"/>
		
			<linearGradient id="SVGID_3_" gradientUnits="userSpaceOnUse" x1="468.5236" y1="-9358.0088" x2="646.134" y2="-9041.3525" gradientTransform="matrix(1 0 0 1 694 10730)">
			<stop  offset="0" style="stop-color:#522CD5"/>
			<stop  offset="0.4397" style="stop-color:#8A6FE8"/>
		</linearGradient>
		<path fill="url(#SVGID_3_)" d="M1373,1593.9c9.7,7.7,9.5,18.7,8.8,30.4l-2.3,35.8c-0.4,6.4-6,11.7-12.4,11.7l-116.8,0.5
			c-7.3,0-12.8-5.8-12.3-13.1l0.8-37.1c0.9-13.5-3.7-18.4-14.1-31.1c-17.9-21.7-70.7-140-65.7-217.1l57.5-0.3
			C1220.3,1419.5,1280.7,1521.1,1373,1593.9z"/>
		
			<radialGradient id="SVGID_4_" cx="331.5934" cy="-5276.0083" r="6.0492" gradientTransform="matrix(20.3477 -9.260000e-02 9.260000e-02 20.3477 -4954.3296 108927.4688)" gradientUnits="userSpaceOnUse">
			<stop  offset="3.400000e-02" style="stop-color:#522CD5"/>
			<stop  offset="0.9955" style="stop-color:#8A6FE8"/>
		</radialGradient>
		<path fill="url(#SVGID_4_)" d="M1381.8,1624.3c0.6-8.2,0.7-16-2.5-22.6l-145.7,0.7c4,5.9,5.7,11.1,5.2,19.7l-0.8,37.1
			c-0.5,7.3,5,13.1,12.3,13.1l116.8-0.5c6.4,0,12-5.3,12.4-11.7L1381.8,1624.3z"/>
		
			<linearGradient id="SVGID_5_" gradientUnits="userSpaceOnUse" x1="103.6376" y1="-9638.5342" x2="172.368" y2="-9315.1787" gradientTransform="matrix(1 0 0 1 694 10730)">
			<stop  offset="0" style="stop-color:#522CD5"/>
			<stop  offset="0.4397" style="stop-color:#8A6FE8"/>
		</linearGradient>
		<path fill="url(#SVGID_5_)" d="M847.6,1418.8l-71.3-8.9l40.1-322.5l71.3,8.8L847.6,1418.8z"/>
		<path fill="#522CD5" d="M781.5,1371.7l56.5-0.3l15.6,302l-113.4,0.5c-8.6,0-14.3-6.9-12.7-15.6L781.5,1371.7z"/>
		
			<linearGradient id="SVGID_6_" gradientUnits="userSpaceOnUse" x1="48.7987" y1="-9331.0107" x2="202.8451" y2="-9037.4717" gradientTransform="matrix(1 0 0 1 694 10730)">
			<stop  offset="0" style="stop-color:#522CD5"/>
			<stop  offset="0.4397" style="stop-color:#8A6FE8"/>
		</linearGradient>
		<path fill="url(#SVGID_6_)" d="M945.7,1595.1c8.7,7.9,8.5,18,6.3,29.8l-6.8,36.2c-1.2,6.5-7.5,11.8-14,11.8l-162.2,0.8
			c-7.4,0-12.2-5.9-10.8-13.2l5.8-37.5c2.6-13.6,0.6-17.7,0.8-35.1c0.5-32.8,15.6-138.2,30.3-216.2l58.2-0.2
			C851.4,1417.6,871.5,1527.9,945.7,1595.1z"/>
		
			<radialGradient id="SVGID_7_" cx="314.419" cy="-5259.0117" r="6.0492" gradientTransform="matrix(22.145 -0.1007 0.1006 22.1216 -5570.7671 117911.1953)" gradientUnits="userSpaceOnUse">
			<stop  offset="3.400000e-02" style="stop-color:#522CD5"/>
			<stop  offset="0.9955" style="stop-color:#8A6FE8"/>
		</radialGradient>
		<path fill="url(#SVGID_7_)" d="M763.9,1622.9l-5.8,37.5c-1.4,7.3,3.5,13.3,10.8,13.2l162.2-0.7c6.5,0,12.8-5.3,14-11.8l6.8-36.2
			c1.6-8.6,2.1-16.2-1-22.8l-185.9,0.8C765.4,1609.6,765.5,1614.4,763.9,1622.9z"/>
		<path fill="#8A6FE8" d="M804,455.8L736.5,483l-18.4-73.1l48.4-19.5L804,455.8z"/>
		<path fill="#512BD4" d="M788.8,582c38.2,0,69.1-30.9,69.1-69.1s-30.9-69.1-69.1-69.1s-69.1,30.9-69.1,69.1
			C719.7,551,750.7,582,788.8,582z"/>
		
			<radialGradient id="SVGID_8_" cx="322.9513" cy="-5143.4028" r="6.0492" gradientTransform="matrix(61.9498 0 0 61.9498 -18991.0762 319400.9062)" gradientUnits="userSpaceOnUse">
			<stop  offset="0.4744" style="stop-color:#A08BE8"/>
			<stop  offset="0.8618" style="stop-color:#8065E0"/>
		</radialGradient>
		<path fill="url(#SVGID_8_)" d="M1300.2,939.7C1325,844.2,1309,768,1309,768h22.4l0.5-0.4c-32.2-175.2-185.6-307.9-370-307.9
			c-207.8,0-376.3,168.5-376.3,376.3s168.4,376.3,376.3,376.3c164,0,303.5-104.9,355-251.2C1318.4,954.8,1318.3,943.6,1300.2,939.7z
			"/>
		<path fill="#D8CFF7" d="M1286.4,1026.5H637.5c14.6,24.8,31.9,47.7,51.5,68.4h545.8C1254.5,1074.2,1271.8,1051.3,1286.4,1026.5z"/>
		
			<radialGradient id="SVGID_9_" cx="326.1163" cy="-5167.4126" r="6.0492" gradientTransform="matrix(48.2581 0 0 48.2581 -14505.6504 250068.375)" gradientUnits="userSpaceOnUse">
			<stop  offset="9.330000e-02" style="stop-color:#E1DFDD"/>
			<stop  offset="0.8998" style="stop-color:#FFFFFF"/>
		</radialGradient>
		<path fill="url(#SVGID_9_)" d="M1300.2,939.7c24.6-94.3,9.2-169.7,8.9-171.6H918.6c0,0-24.6-2.5-24.6,20s0.9,85.9,0.9,156.2
			c0,14.4,11.8,21.4,21.1,21.4C916.1,965.6,1256.6,965.6,1300.2,939.7z"/>
		<path fill="#A08BE8" d="M1065,939.9c0,0,60.1-47.5,71.8-56.3c11.7-8.8,22-9.3,32.7,0s70.8,56.3,70.8,56.3H1065z"/>
		<path fill="#512BD4" d="M1315.4,965.3c0,0,10.4-20.1-15.2-25.7c0-0.1-383.8-0.3-383.8-0.3c-8.9,0-20.4-5.3-21.4-14
			c0,6.2,0,12.5,0,18.8c0,13.1,9.8,20,18.5,21.2c0.9,0.1,1.8,0.2,2.7,0.2h26.2L1315.4,965.3z"/>
		<path fill="#512BD4" d="M1286.5,851.6c0.4-27.3-12.4-49.7-28.7-49.9s-29.8,21.7-30.2,49c-0.4,27.3,12.4,49.7,28.7,49.9
			C1272.6,900.9,1286.1,879,1286.5,851.6z"/>
		<path fill="#8065E0" d="M1256.7,825c-10.8,10.8-10.8,28.2,0,38.9c7.4,7.4,17.8,9.7,27.2,7c1.6-5.9,2.5-12.4,2.6-19.3
			c0.2-13.4-2.8-25.6-7.8-34.6C1270.9,816.4,1262.8,819,1256.7,825z"/>
		<path fill="#512BD4" d="M1020.8,900.9c16.3-0.2,29.1-22.6,28.7-49.9s-13.9-49.3-30.2-49c-16.2,0.2-29.1,22.6-28.7,49.9
			C991,879.2,1004.5,901.2,1020.8,900.9z"/>
		<path fill="#8065E0" d="M1019.8,826.6c-10.8,10.8-10.8,28.2,0,38.9c7.3,7.3,17.7,9.6,27,7c1.8-6.5,2.8-13.8,2.6-21.6
			c-0.2-12.4-3.1-23.7-7.7-32.3C1033.9,818,1025.8,820.6,1019.8,826.6z"/>
		<path fill="#512BD4" d="M1084.8,1115.2l123.2-0.6l-0.5-108.9l-123.2,0.6L1084.8,1115.2z"/>
		<path fill="#FFFFFF" d="M1106.1,1074.5c-0.8,0-1.5-0.3-2.1-0.8c-0.6-0.6-0.9-1.2-0.9-2c0-0.8,0.3-1.5,0.9-2
			c0.6-0.6,1.3-0.8,2.1-0.8c0.8,0,1.5,0.3,2.1,0.8c0.6,0.5,0.9,1.2,0.9,2s-0.3,1.4-0.9,2C1107.7,1074.2,1107,1074.5,1106.1,1074.5z"
			/>
		<path fill="#FFFFFF" d="M1138.9,1074h-5.3l-14.1-22.1c-0.3-0.5-0.7-1.2-0.9-1.8h-0.1c0.1,0.6,0.2,2,0.2,4.1l0,19.7h-4.7l-0.1-30.1
			h5.7l13.6,21.6c0.6,0.9,0.9,1.5,1.1,1.8h0.1c-0.2-0.8-0.2-2.2-0.2-4.1l0-19.4h4.7L1138.9,1074z"/>
		<path fill="#FFFFFF" d="M1161.8,1073.9l-16.5,0l-0.1-30.1l15.8,0v4.2l-10.9,0l0,8.5l10.1,0v4.2l-10.1,0l0,8.9l11.6,0
			L1161.8,1073.9L1161.8,1073.9z"/>
		<path fill="#FFFFFF" d="M1185.2,1048l-8.4,0l0.1,25.9h-4.9l-0.1-25.9l-8.4,0v-4.2l21.7-0.1L1185.2,1048z"/>
		<path fill="#8A6FE8" d="M529.4,1254.2l40.2,57.3c10.8,15.2,31.9,18.7,47.2,7.9c15.2-10.8,18.7-31.9,7.9-47.1L575,1203
			L529.4,1254.2z"/>
		<path fill="#8A6FE8" d="M460.1,1232.5l-11.1,69.2c-2.8,18.4,9.8,35.7,28.3,38.5c18.4,2.8,35.7-9.8,38.5-28.3l11.4-70.9
			L460.1,1232.5z"/>
		<path fill="#8A6FE8" d="M505,1240.3l-9.3,69.4c-2.4,18.5,10.8,35.4,29.2,37.8c18.5,2.4,35.4-10.8,37.8-29.2l9.6-71.2L505,1240.3z"
			/>
		<path fill="#8A6FE8" d="M442.7,1211.8l-25.1,65.4c-6.6,17.5,2.3,37,19.8,43.5c17.5,6.6,37-2.3,43.5-19.8l25.7-67.1L442.7,1211.8z"
			/>
		
			<linearGradient id="SVGID_10_" gradientUnits="userSpaceOnUse" x1="-100.8671" y1="-9870.4697" x2="-100.8671" y2="-9489.5801" gradientTransform="matrix(1 0 0 1 694 10730)">
			<stop  offset="0.2495" style="stop-color:#967FE6"/>
			<stop  offset="1" style="stop-color:#8A6FE8"/>
		</linearGradient>
		<path fill="url(#SVGID_10_)" d="M489.3,1240.4c-27.9-57-44.2-154.4,1.8-241.6c28-52.9,89.2-120,222.3-139.3l10.7,73.8
			c-80.8,11.7-138.5,46.4-167,100.3c-30.8,58.4-22.6,129.4-0.8,174L489.3,1240.4z"/>
		
			<radialGradient id="SVGID_11_" cx="293.4886" cy="-5493.1377" r="6.0492" gradientTransform="matrix(11.3989 0 0 11.3989 -2608.7136 63477.1328)" gradientUnits="userSpaceOnUse">
			<stop  offset="0" style="stop-color:#8065E0"/>
			<stop  offset="1" style="stop-color:#512BD4"/>
		</radialGradient>
		<path fill="url(#SVGID_11_)" d="M739,954.1c38.1,0,68.9-30.8,68.9-68.9S777,816.3,739,816.3s-68.9,30.8-68.9,68.9
			C670.1,923.2,700.9,954.1,739,954.1z"/>
		
			<radialGradient id="SVGID_12_" cx="300.6764" cy="-5267.9824" r="6.0492" gradientTransform="matrix(22.7292 0 0 22.7292 -6329.2637 120890.7656)" gradientUnits="userSpaceOnUse">
			<stop  offset="0" style="stop-color:#8065E0"/>
			<stop  offset="1" style="stop-color:#512BD4"/>
		</radialGradient>
		<path fill="url(#SVGID_12_)" d="M508.6,1277.3c39.1,0,70.8-31.7,70.8-70.8s-31.7-70.8-70.8-70.8s-70.8,31.7-70.8,70.8
			C437.9,1245.7,469.5,1277.3,508.6,1277.3z"/>
		<path fill="#D8CFF7" d="M739.7,415.8c-26.2,7-53.3-8.4-60.5-34.4c-7.2-26,8.2-52.7,34.5-59.7c26.2-7,53.3,8.4,60.5,34.4
			C781.4,382.1,766,408.8,739.7,415.8z"/>
	</g>
	<g display="inline">
		
			<linearGradient id="SVGID_13_" gradientUnits="userSpaceOnUse" x1="995.5568" y1="1967.1537" x2="995.5568" y2="45.8524" gradientTransform="matrix(1 0 0 -1 0 2000)">
			<stop  offset="0.2292" style="stop-color:#33D5F9"/>
			<stop  offset="0.6349" style="stop-color:#29C3E5"/>
		</linearGradient>
		<path fill="url(#SVGID_13_)" d="M1045.9,1952.2c-797.7,13.1-902.2-35.7-961-301c-114-514.6,131.9-729.1,29-1154.9
			C18,99.2,614.2,1,1230,41.2s707.1,214.3,603.2,554.1c-72.9,238.5-53.6,535.6,80.4,836.9S1589.1,1943.3,1045.9,1952.2z"/>
		<path fill="#27BEE0" d="M1230,41.2C614.2,1,18,99.2,113.9,496.3c1.2,5.2,2.4,10.3,3.6,15.4C428.2,338.9,551,343.3,414.8,441.5
			c-118.9,85.8-17.9,84.7,55.8,67c111.6-26.8,140.7,8.9,91.5,37.9c-82.9,49-52.2,88.2,51.3,55.8
			c370.6-116.1,945.9-25.6,1184.4,165.7l0,0c6.8-60.2,18.6-118,35.3-172.7C1937.1,255.5,1845.7,81.3,1230,41.2z"/>
		<path fill="#8EE8FC" d="M1643.9,485.8c-5.4,15.8-15.3,29.5-28.3,39.4c-2.3,1.7-2.4,4.9-0.3,6.8c13,11.3,22.9,26,28.4,42.7
			c1.4,4.2,7.1,4.2,8.5,0c5.6-16.7,15.6-31.4,28.4-42.7c2.2-1.9,2.1-5.1-0.3-6.8c-13.1-9.9-23-23.6-28.3-39.4
			C1650.8,481.9,1645.2,481.9,1643.9,485.8z"/>
		<circle fill="#8EE8FC" cx="417" cy="242.9" r="17.3"/>
		<circle fill="#8EE8FC" cx="1176.1" cy="135.7" r="24.2"/>
		<g>
			<path fill="#33D5F9" d="M1474.2,234.7c-114.2-39.3-213.1-53.2-220.7-30.9c-7.7,22.2,78.8,72.2,193,111.5
				c114.2,39.3,213.1,53.2,220.7,30.9C1674.9,324,1588.4,274,1474.2,234.7z M1448.3,309.9c-103.4-35.6-181.9-80.1-175.3-99.4
				c6.6-19.3,95.9-6,199.3,29.6s181.9,80.1,175.3,99.4C1641,358.8,1551.8,345.5,1448.3,309.9z"/>
			<path fill="#33D5F9" d="M1474.2,234.7c-114.2-39.3-213.1-53.2-220.7-30.9c-7.7,22.2,78.8,72.2,193,111.5
				c114.2,39.3,213.1,53.2,220.7,30.9C1674.9,324,1588.4,274,1474.2,234.7z M1448.3,309.9c-103.4-35.6-181.9-80.1-175.3-99.4
				c6.6-19.3,95.9-6,199.3,29.6s181.9,80.1,175.3,99.4C1641,358.8,1551.8,345.5,1448.3,309.9z"/>
			
				<radialGradient id="SVGID_14_" cx="1479.6915" cy="1766.6965" r="154.3496" gradientTransform="matrix(1 0 0 -1 0 2000)" gradientUnits="userSpaceOnUse">
				<stop  offset="0" style="stop-color:#33D5F9"/>
				<stop  offset="1" style="stop-color:#2CC7EA"/>
			</radialGradient>
			<circle fill="url(#SVGID_14_)" cx="1465.2" cy="265.2" r="105.6"/>
			<path fill="#33D5F9" d="M1572.7,274.3l-3.1,5.2c50.9,24.4,75.7,43.5,71.4,56c-6.6,19.3-82.7,2.2-186.2-33.4s-178.5-69.7-171.9-89
				c4.3-12.6,34.2-13.9,90.3-1.5l2.3-5.6c-67.7-15.7-116.8-17.7-122.1-2.2c-7.7,22.2,78.8,72.2,193,111.5
				c114.2,39.3,213.1,53.2,220.7,30.9C1672.4,331,1633.9,303,1572.7,274.3z"/>
		</g>
		<g>
			<path fill="#8EE8FC" d="M316.4,646.4c0-0.1,0.3-12.1-5.5-24c-7.5-15.6-21.5-23.9-41.6-24.5c-1.5,0-2.7-1.2-2.6-2.7
				s1.3-2.6,2.8-2.5c47.9,1.5,50-43.5,50-45.4c0-1.4,1.2-2.5,2.7-2.5s2.7,1.1,2.7,2.5c0,0.1,0.5,12.1,6.6,24.1
				c8,15.7,21.7,23.9,40.5,24.5c1.5,0,2.7,1.2,2.6,2.7c0,1.5-1.3,2.6-2.8,2.5c-18.1-0.6-32.1,6.8-41.3,22
				c-7.1,11.6-8.7,23.5-8.7,23.7c-0.2,1.4-1.5,2.4-2.9,2.3C317.5,649,316.4,647.8,316.4,646.4z"/>
			<g>
				
					<ellipse transform="matrix(3.130031e-02 -0.9995 0.9995 3.130031e-02 -284.4361 804.0405)" fill="#8EE8FC" cx="272.6" cy="548.8" rx="4.2" ry="4.4"/>
				
					<ellipse transform="matrix(3.130031e-02 -0.9995 0.9995 3.130031e-02 -285.0692 825.4355)" fill="#8EE8FC" cx="283.3" cy="559.8" rx="4.2" ry="4.4"/>
				
					<ellipse transform="matrix(3.130031e-02 -0.9995 0.9995 3.130031e-02 -285.7124 846.84)" fill="#8EE8FC" cx="294" cy="570.8" rx="4.2" ry="4.4"/>
			</g>
			<g>
				
					<ellipse transform="matrix(3.130031e-02 -0.9995 0.9995 3.130031e-02 -288.7906 950.0746)" fill="#8EE8FC" cx="345.8" cy="624" rx="4.2" ry="4.4"/>
				
					<ellipse transform="matrix(3.130031e-02 -0.9995 0.9995 3.130031e-02 -289.4434 971.4688)" fill="#8EE8FC" cx="356.5" cy="635.1" rx="4.2" ry="4.4"/>
				
					<ellipse transform="matrix(3.130031e-02 -0.9995 0.9995 3.130031e-02 -290.0765 992.8638)" fill="#8EE8FC" cx="367.2" cy="646.1" rx="4.2" ry="4.4"/>
			</g>
			<g>
				
					<ellipse transform="matrix(3.130031e-02 -0.9995 0.9995 3.130031e-02 -192.9993 904.4897)" fill="#8EE8FC" cx="370.1" cy="551.8" rx="4.2" ry="4.4"/>
				
					<ellipse transform="matrix(3.130031e-02 -0.9995 0.9995 3.130031e-02 -214.3585 903.1304)" fill="#8EE8FC" cx="358.7" cy="562.2" rx="4.2" ry="4.4"/>
				
					<ellipse transform="matrix(3.130031e-02 -0.9995 0.9995 3.130031e-02 -235.7168 901.7513)" fill="#8EE8FC" cx="347.4" cy="572.5" rx="4.2" ry="4.4"/>
			</g>
			<g>
				
					<ellipse transform="matrix(3.130031e-02 -0.9995 0.9995 3.130031e-02 -338.7959 895.1531)" fill="#8EE8FC" cx="292.4" cy="622.4" rx="4.2" ry="4.4"/>
				
					<ellipse transform="matrix(3.130031e-02 -0.9995 0.9995 3.130031e-02 -360.1541 893.7739)" fill="#8EE8FC" cx="281" cy="632.7" rx="4.2" ry="4.4"/>
				
					<ellipse transform="matrix(3.130031e-02 -0.9995 0.9995 3.130031e-02 -381.5132 892.4144)" fill="#8EE8FC" cx="269.6" cy="643" rx="4.2" ry="4.4"/>
			</g>
		</g>
		<path fill="#77E3FB" d="M64,1532.7c4.9,37.7,11.7,77.2,20.9,118.5c58.8,265.3,163.3,314.1,961,301
			c514.9-8.5,953.5-197.4,883.9-473.6c-269.3-76.8-553.6-117.8-847.5-117.8C725.5,1360.8,382.8,1421.3,64,1532.7z"/>
		<g>
			<ellipse fill="#2CC7EA" cx="1086.7" cy="1457.2" rx="183.7" ry="29.1"/>
			<path fill="#1BA6C5" d="M1086.7,1428.2c-101.5,0-183.7,13-183.7,29.1c0,5.2,8.5,10,23.4,14.2c32-8.5,90.8-14.2,157.9-14.2
				c68.8,0,128.8,6,160.3,14.8c16.4-4.3,25.8-9.4,25.8-14.8C1270.4,1441.2,1188.1,1428.2,1086.7,1428.2z"/>
		</g>
		<g>
			
				<ellipse transform="matrix(9.430411e-02 -0.9955 0.9955 9.430411e-02 -37.4701 2859.312)" fill="#2CC7EA" cx="1552.7" cy="1450.2" rx="26.5" ry="143.8"/>
			<path fill="#1BA6C5" d="M1555.3,1423.8c-79.1-7.5-144.3-1.7-145.7,12.8c-0.4,4.7,5.8,9.7,17.1,14.6c25.7-5.4,72-6.2,124.3-1.2
				c53.6,5.1,99.9,14.9,123.6,25.3c13.1-2.7,20.9-6.7,21.4-11.6C1697.3,1449.1,1634.3,1431.2,1555.3,1423.8z"/>
		</g>
		<g>
			
				<ellipse transform="matrix(0.1361 -0.9907 0.9907 0.1361 -121.272 3080.3708)" fill="#2CC7EA" cx="1705.6" cy="1609.7" rx="23.7" ry="109.1"/>
			<path fill="#1BA6C5" d="M1708.8,1586.2c-59.7-8.2-109.5-4.3-111.3,8.6c-0.6,4.2,3.9,8.8,12.2,13.4c19.8-4.3,55-4.1,94.5,1.3
				c40.5,5.6,75.1,15.2,92.7,24.9c10.1-2.2,16.2-5.5,16.8-9.9C1815.4,1611.6,1768.5,1594.4,1708.8,1586.2z"/>
		</g>
		<g>
			
				<ellipse transform="matrix(0.9947 -0.1026 0.1026 0.9947 -143.7897 81.874)" fill="#2CC7EA" cx="724" cy="1438.7" rx="112.2" ry="15.6"/>
			<path fill="#1BA6C5" d="M722.5,1423.1c61.6-6.4,112.3-4.6,113.2,4.1c0.3,2.8-4.6,5.9-13.5,9.1c-19.9-2.6-55.9-1.9-96.7,2.3
				c-41.8,4.3-77.9,11.3-96.5,18c-10.2-1.3-16.2-3.4-16.5-6.3C611.6,1441.6,660.8,1429.5,722.5,1423.1z"/>
		</g>
		<g>
			
				<ellipse transform="matrix(0.9674 -0.2533 0.2533 0.9674 -402.4458 119.5368)" fill="#2CC7EA" cx="263" cy="1622.7" rx="119.7" ry="20.1"/>
			<path fill="#1BA6C5" d="M257.9,1603.3c64-16.8,118.1-21.6,120.9-10.9c0.9,3.4-3.6,8.1-12.3,13.4c-21.7-0.4-59.7,5.5-102.1,16.6
				c-43.4,11.4-80.2,25.3-98.4,36.4c-11.1-0.2-17.9-2.1-18.9-5.7C144.3,1642.3,193.9,1620,257.9,1603.3z"/>
		</g>
		<path fill="#77E3FB" d="M1292.8,1373.1c56.9-1.7,66.4-48.6,66.4-48.6l181.9,26.6c0,0-5.6,36.5,27.9,49.8
			S1292.8,1373.1,1292.8,1373.1z"/>
		<path fill="#77E3FB" d="M100,1528.8c38-15.6,42.4-55.8,42.4-55.8l401.9-100.5c0,0,0,33.5,62.5,33.5S100,1528.8,100,1528.8z"/>
		<path fill="#77E3FB" d="M695.1,1388.1c38.8-17.8,39.8-52.1,39.8-52.1l153.2-16.5c0,0,29.1,42.5,54.7,45.2
			S695.1,1388.1,695.1,1388.1z"/>
		
			<ellipse transform="matrix(0.9726 -0.2323 0.2323 0.9726 -347.321 111.1069)" fill="#2CC7EA" cx="298.1" cy="1530.3" rx="149.9" ry="14.3"/>
		<g>
			<path fill="#B2B2B2" d="M190.4,1371.6l-38,72l36.6,113.9l13.4-3.2c0,0,0.9-58.3,36.7-89.9
				C266.5,1440.1,190.4,1371.6,190.4,1371.6z"/>
			<path fill="#6D6A66" d="M323.1,1339.7l66.5,46.9l19,118.1l-13.4,3.2c0,0-27.3-51.6-73.5-63.5
				C286.3,1435.3,323.1,1339.7,323.1,1339.7z"/>
			<path fill="#6D6A66" d="M190.4,1371.6l-38,72l36.6,113.9l13.4-3.2c0,0,0.9-58.3,36.7-89.9
				C266.5,1440.1,190.4,1371.6,190.4,1371.6z"/>
			<path fill="#FFFFFF" d="M161.1,1213.5c4.1-79.7,34.3-114.9,34.8-115.5v0c0,0,0,0,0,0l0,0v0c0.7,0.3,43.6,17.9,83.4,87.1
				c40.1,69.8,54.4,191,47.6,260.1c-2.3,23.2-39.1,33.3-39.7,33.5l0,0h0h0l0,0c-0.6,0.1-38,7.9-50.6-11.8
				C199.3,1408.4,157,1293.9,161.1,1213.5z"/>
			<path fill="#B0D1F7" d="M162.6,1195.2c0.3-2.9,0.6-5.8,1-8.6c0.2-1.6,0.5-3.2,0.7-4.8c0.4-2.5,0.8-4.9,1.2-7.3
				c0.3-1.6,0.6-3.1,0.9-4.7c0.4-2.2,0.9-4.4,1.4-6.5c0.3-1.5,0.7-2.9,1.1-4.3c0.5-2,1-4,1.5-5.9c0.4-1.3,0.8-2.7,1.1-4
				c0.5-1.8,1.1-3.6,1.6-5.4c0.4-1.2,0.8-2.4,1.2-3.5c0.6-1.7,1.2-3.3,1.8-4.9c0.4-1,0.8-2.1,1.2-3.1c0.6-1.6,1.2-3.1,1.8-4.5
				c0.4-0.9,0.7-1.8,1.1-2.6c0.6-1.5,1.3-2.8,1.9-4.2c0.3-0.7,0.7-1.4,1-2.1c0.7-1.4,1.3-2.6,2-3.9c0.3-0.5,0.6-1.1,0.8-1.6
				c0.7-1.4,1.4-2.6,2.1-3.8c0.1-0.2,0.3-0.6,0.4-0.8c1.6-2.8,3.1-5,4.3-6.7c0.2-0.3,0.4-0.6,0.6-0.9c0.3-0.4,0.6-0.9,0.9-1.2
				c0.3-0.4,0.5-0.6,0.7-0.9c0.1-0.1,0.2-0.2,0.3-0.3c-17.8,139-4.7,264.7,60.3,379.9c-7.5-1.7-14.6-5.2-18.9-11.9
				c-37.4-58.4-79.7-173-75.6-253.4c0.2-4.8,0.6-9.4,1-13.9C162.2,1198.1,162.4,1196.7,162.6,1195.2z"/>
			
				<ellipse transform="matrix(7.088906e-02 -0.9975 0.9975 7.088906e-02 -1029.5498 1391.0057)" fill="#F7B548" cx="231.9" cy="1248.2" rx="25.5" ry="25.5"/>
			<path fill="#6D6A66" d="M258.8,1360.2L258.8,1360.2C258.8,1360.2,258.8,1360.2,258.8,1360.2
				C258.8,1360.2,258.9,1360.2,258.8,1360.2L258.8,1360.2c8.7-1.7,29.5,43.9,29.5,43.9l14.2,126.1l-1,0.2l-4,0.9l-0.5,0.1
				l-44.6-118.8C252.5,1412.7,250.3,1362.6,258.8,1360.2z"/>
			<path fill="#DDDBDA" d="M215.2,1181.3c-17.9,4.3-35.5,4.3-50.9,0.8c8.9-57.7,31.2-83.6,31.6-84.1v0c0,0,0,0,0,0l0,0v0
				c0.6,0.2,32,13.2,66,60.1C249.6,1168.7,233.5,1176.9,215.2,1181.3z"/>
			<path fill="#908D89" d="M188.6,1184.6c-8.5,0.1-16.6-0.8-24.3-2.5c8.1-52.4,27.2-78.6,31-83.3
				C190.1,1127.7,188.1,1156.4,188.6,1184.6z"/>
		</g>
		<path fill="#2CC7EA" d="M214.9,1726.5c-35.1,9-68.1,19.3-98.2,30.3c21.3,49.8,51.2,88,99,116.9c11.5-2.6,23.1-5.3,34.9-8.4
			c151.3-38.9,266-101.5,256.1-139.8C496.9,1687.2,366.3,1687.6,214.9,1726.5z"/>
		<path fill="#1BA6C5" d="M214.9,1726.5c-35.1,9-68.1,19.3-98.2,30.3c4.6,10.8,9.6,21,15.1,30.7c23.8-8,49.2-15.6,75.8-22.4
			c139-35.7,260.5-39,287-9.6c10-10.9,14.4-21.1,12.1-29.9C496.9,1687.2,366.3,1687.6,214.9,1726.5z"/>
		<circle fill="#8EE8FC" cx="1293.1" cy="112.8" r="12.8"/>
		<circle fill="#8EE8FC" cx="1790.1" cy="360.1" r="12.8"/>
	</g>
</g>
<g id="bot-base" display="none">
	<g display="inline">
		<path fill="#D8CFF7" d="M1286.4,1026.5H637.5c14.6,24.8,31.9,47.7,51.5,68.4h545.8C1254.5,1074.2,1271.8,1051.3,1286.4,1026.5z"/>
		
			<radialGradient id="SVGID_15_" cx="326.1163" cy="-5167.4126" r="6.0492" gradientTransform="matrix(48.2581 0 0 48.2581 -14505.6504 250068.375)" gradientUnits="userSpaceOnUse">
			<stop  offset="9.330000e-02" style="stop-color:#E1DFDD"/>
			<stop  offset="0.8998" style="stop-color:#FFFFFF"/>
		</radialGradient>
		<path fill="url(#SVGID_15_)" d="M1300.2,939.7c24.6-94.3,9.2-169.7,8.9-171.6H918.6c0,0-24.6-2.5-24.6,20s0.9,85.9,0.9,156.2
			c0,14.4,11.8,21.4,21.1,21.4C916.1,965.6,1256.6,965.6,1300.2,939.7z"/>
		<path fill="#A08BE8" d="M1065,939.9c0,0,60.1-47.5,71.8-56.3c11.7-8.8,22-9.3,32.7,0s70.8,56.3,70.8,56.3H1065z"/>
		<path fill="#512BD4" d="M1315.4,965.3c0,0,10.4-20.1-15.2-25.7c0-0.1-383.8-0.3-383.8-0.3c-8.9,0-20.4-5.3-21.4-14
			c0,6.2,0,12.5,0,18.8c0,13.1,9.8,20,18.5,21.2c0.9,0.1,1.8,0.2,2.7,0.2h26.2L1315.4,965.3z"/>
		<path fill="#512BD4" d="M1084.8,1115.2l123.2-0.6l-0.5-108.9l-123.2,0.6L1084.8,1115.2z"/>
		<path fill="#FFFFFF" d="M1106.1,1074.5c-0.8,0-1.5-0.3-2.1-0.8c-0.6-0.6-0.9-1.2-0.9-2c0-0.8,0.3-1.5,0.9-2
			c0.6-0.6,1.3-0.8,2.1-0.8c0.8,0,1.5,0.3,2.1,0.8c0.6,0.5,0.9,1.2,0.9,2s-0.3,1.4-0.9,2C1107.7,1074.2,1107,1074.5,1106.1,1074.5z"
			/>
		<path fill="#FFFFFF" d="M1138.9,1074h-5.3l-14.1-22.1c-0.3-0.5-0.7-1.2-0.9-1.8h-0.1c0.1,0.6,0.2,2,0.2,4.1l0,19.7h-4.7l-0.1-30.1
			h5.7l13.6,21.6c0.6,0.9,0.9,1.5,1.1,1.8h0.1c-0.2-0.8-0.2-2.2-0.2-4.1l0-19.4h4.7L1138.9,1074z"/>
		<path fill="#FFFFFF" d="M1161.8,1073.9l-16.5,0l-0.1-30.1l15.8,0v4.2l-10.9,0l0,8.5l10.1,0v4.2l-10.1,0l0,8.9l11.6,0
			L1161.8,1073.9L1161.8,1073.9z"/>
		<path fill="#FFFFFF" d="M1185.2,1048l-8.4,0l0.1,25.9h-4.9l-0.1-25.9l-8.4,0v-4.2l21.7-0.1L1185.2,1048z"/>
	</g>
	<g display="inline">
		
			<radialGradient id="SVGID_16_" cx="322.9513" cy="-5143.4028" r="6.0492" gradientTransform="matrix(61.9498 0 0 61.9498 -18991.0762 319400.9062)" gradientUnits="userSpaceOnUse">
			<stop  offset="0.4744" style="stop-color:#A08BE8"/>
			<stop  offset="0.8618" style="stop-color:#8065E0"/>
		</radialGradient>
		<path fill="url(#SVGID_16_)" d="M1300.2,939.7C1325,844.2,1309,768,1309,768h22.4l0.5-0.4c-32.2-175.2-185.6-307.9-370-307.9
			c-207.8,0-376.3,168.5-376.3,376.3s168.4,376.3,376.3,376.3c164,0,303.5-104.9,355-251.2C1318.4,954.8,1318.3,943.6,1300.2,939.7z
			"/>
		<path fill="#D8CFF7" d="M1286.4,1026.5H637.5c14.6,24.8,31.9,47.7,51.5,68.4h545.8C1254.5,1074.2,1271.8,1051.3,1286.4,1026.5z"/>
		
			<radialGradient id="SVGID_17_" cx="326.1163" cy="-5167.4126" r="6.0492" gradientTransform="matrix(48.2581 0 0 48.2581 -14505.6504 250068.375)" gradientUnits="userSpaceOnUse">
			<stop  offset="9.330000e-02" style="stop-color:#E1DFDD"/>
			<stop  offset="0.8998" style="stop-color:#FFFFFF"/>
		</radialGradient>
		<path fill="url(#SVGID_17_)" d="M1300.2,939.7c24.6-94.3,9.2-169.7,8.9-171.6H918.6c0,0-24.6-2.5-24.6,20s0.9,85.9,0.9,156.2
			c0,14.4,11.8,21.4,21.1,21.4C916.1,965.6,1256.6,965.6,1300.2,939.7z"/>
		<path fill="#A08BE8" d="M1065,939.9c0,0,60.1-47.5,71.8-56.3c11.7-8.8,22-9.3,32.7,0s70.8,56.3,70.8,56.3H1065z"/>
		<path fill="#512BD4" d="M1315.4,965.3c0,0,10.4-20.1-15.2-25.7c0-0.1-383.8-0.3-383.8-0.3c-8.9,0-20.4-5.3-21.4-14
			c0,6.2,0,12.5,0,18.8c0,13.1,9.8,20,18.5,21.2c0.9,0.1,1.8,0.2,2.7,0.2h26.2L1315.4,965.3z"/>
		<path fill="#512BD4" d="M1084.8,1115.2l123.2-0.6l-0.5-108.9l-123.2,0.6L1084.8,1115.2z"/>
		<path fill="#FFFFFF" d="M1106.1,1074.5c-0.8,0-1.5-0.3-2.1-0.8c-0.6-0.6-0.9-1.2-0.9-2c0-0.8,0.3-1.5,0.9-2
			c0.6-0.6,1.3-0.8,2.1-0.8c0.8,0,1.5,0.3,2.1,0.8c0.6,0.5,0.9,1.2,0.9,2s-0.3,1.4-0.9,2C1107.7,1074.2,1107,1074.5,1106.1,1074.5z"
			/>
		<path fill="#FFFFFF" d="M1138.9,1074h-5.3l-14.1-22.1c-0.3-0.5-0.7-1.2-0.9-1.8h-0.1c0.1,0.6,0.2,2,0.2,4.1l0,19.7h-4.7l-0.1-30.1
			h5.7l13.6,21.6c0.6,0.9,0.9,1.5,1.1,1.8h0.1c-0.2-0.8-0.2-2.2-0.2-4.1l0-19.4h4.7L1138.9,1074z"/>
		<path fill="#FFFFFF" d="M1161.8,1073.9l-16.5,0l-0.1-30.1l15.8,0v4.2l-10.9,0l0,8.5l10.1,0v4.2l-10.1,0l0,8.9l11.6,0
			L1161.8,1073.9L1161.8,1073.9z"/>
		<path fill="#FFFFFF" d="M1185.2,1048l-8.4,0l0.1,25.9h-4.9l-0.1-25.9l-8.4,0v-4.2l21.7-0.1L1185.2,1048z"/>
	</g>
	<g display="inline">
		<polygon fill="#3F3C38" points="983.3,461 977.1,297.3 991.5,295.3 1000.6,455.4 		"/>
		<circle fill="#F7B548" cx="983.3" cy="289.1" r="24.6"/>
		<path fill="#EEEDEC" d="M1251.7,556.7c-36.1-50.9-131.2-128-128.5-128.2c-54.8-48.3-115.2-61.4-194-61.4
			c-156.8,0-284.2,109.3-305.9,260.1c3.3,23,118.3,52.5,118.3,52.5c214-157.8,372.5-149.6,460.5-133.5
			c21.4,17.9,45.4,44.6,45.4,44.6S1254,559.8,1251.7,556.7z"/>
		<path fill="#DDDBDA" d="M1123.2,428.5c-54.8-48.3-126.8-77.5-205.6-77.5C760.8,351,641.7,480.9,620,631.7
			c3.3,23,56.4-7.8,56.4-7.8c214-157.8,348.3-184.7,497.9-150.7C1195.7,491.1,1120.5,428.7,1123.2,428.5z"/>
		<path opacity="0.46" fill="#0064DA" enable-background="new    " d="M654.6,741.1h95.8c10.3,0,20.1-4.8,26.5-13l15.7-20.2
			c5.9-7.6,15-12.1,24.7-12.1h571.2c6.9,0,10.2-8.6,4.9-13.1c-30.4-26.4-104.5-87.6-191.2-136.5c-64-36.1-264.6-4.4-356.7,52.6
			S654.6,741.1,654.6,741.1z"/>
		<polygon fill="#3F3C38" points="651.7,471.9 647.6,308.2 662.1,306.4 669,466.5 		"/>
		<circle fill="#F7B548" cx="653.9" cy="300" r="24.6"/>
		<path fill="#F7B548" d="M1093.1,479.5c-64.2-2.6-113.7,12-113.7,12s5.6,10.4,10.8,22.3c59.9-15.1,116.8-13.8,116.8-13.8
			S1099.2,488.3,1093.1,479.5z"/>
		<path fill="#C4C1BE" d="M1251.6,556.6c-9.4-13.5-26.5-25.7-58.7-32.6c-104.6-22.3-299.4,2.9-462.7,155.3l11.5,0.4
			c214-157.8,372.5-149.7,460.5-133.5c21.4,17.9,45.4,44.6,45.4,44.6s14.8-19.2,4.1-34.1C1251.6,556.7,1251.6,556.6,1251.6,556.6z"
			/>
		<path fill="#F7B548" d="M617.3,627.4l20.4-171.7c0.4-3.1,2.4-5.7,5.3-6.8l30-11.3c4.7-1.8,9.9,1,11,5.9l38.3,164.3
			c1.1,4.5-1.8,9.1-6.4,10l-88.7,18.7C621.7,637.7,616.6,633.1,617.3,627.4z"/>
		<path fill="#FFFFFF" d="M675.8,675.2c0,0,104.1-137.1,251.2-184.2c149.9-48,254.5-10,254.5-10s2.6-17.3,0.6-19.4
			c-12.8-12.8-71.1-48.9-71.1-48.9c-95.1-31.8-397.8-9.3-459.7,234.6C639.1,695.2,675.8,675.2,675.8,675.2z"/>
		<path fill="#C4C1BE" d="M664,679c6.2-0.9,11.9-3.8,11.9-3.8S778.7,534.3,927,491c152.9-44.6,254.5-10,254.5-10s3.5-8.4,0.9-18.8
			C1054.8,415,794.1,444.2,664,679z"/>
		<ellipse fill="#C4C1BE" cx="674.6" cy="675.9" rx="65.4" ry="66"/>
		<ellipse fill="#EEEDEC" cx="661.4" cy="676.8" rx="65.4" ry="66"/>
		<path fill="#C4C1BE" d="M632.4,680.7c0-22.8,21-41.4,46.9-41.4c2.1,0,4.1,0.1,6.1,0.4c-6.8-3.4-14.7-5.4-23.1-5.4
			c-25.9,0-46.9,18.5-46.9,41.4c0,21,17.8,38.4,40.8,41C642,709.6,632.4,696.1,632.4,680.7z"/>
	</g>
	<g display="inline">
		<g>
			<path fill="#EEEDEC" d="M1561.7,1008.4c-7.9-15-26.5-20.6-41.4-12.6l-83.6,44.8c-1.3,0.7-2.6,1.5-3.8,2.4
				c6.1-1.9,12.5-2.9,19.2-2.9c23.7,0,44.4,12.8,55.6,31.9l41.4-22.2C1564,1041.9,1569.6,1023.3,1561.7,1008.4z"/>
			<path fill="#0064DA" d="M1313.2,971.5c-8.4,21.8-18.8,42.6-30.9,62.2c57.5,54.7,142.1,97.3,186.9,100.9l5.6-67.6
				C1436.3,1063.8,1355.7,1017,1313.2,971.5z"/>
			<path fill="#C4C1BE" d="M1452.1,1169c35.6,0,64.4-28.8,64.4-64.4s-28.9-64.4-64.4-64.4c-35.6,0-64.4,28.8-64.4,64.4
				S1416.5,1169,1452.1,1169z"/>
			<g>
				<path fill="#3E8EED" d="M1688.6,950.7l-28.1-27c-2-1.9-5.2-1.9-7.2,0.2l-8.1,8.4c-1.9,2-1.9,5.2,0.2,7.2l28.1,27
					c2,1.9,5.2,1.9,7.2-0.2l8.1-8.4C1690.7,955.9,1690.6,952.6,1688.6,950.7z"/>
				<path fill="#908D89" d="M1725.7,1002.5l-91.2-87.5c-6.5-6.2-16.8-6-23.1,0.5l-70.2,73.2c-3.9,4.1-5.4,9.9-4,15.4l6.7,25.4
					c1.4,5.5-0.1,11.3-4,15.4l-123.7,128.9c-6.2,6.5-6,16.8,0.5,23.1l36.3,34.9c6.5,6.2,16.8,6,23.1-0.5l123.7-128.9
					c3.9-4.1,9.7-5.8,15.3-4.6l25.7,5.6c5.6,1.2,11.3-0.5,15.3-4.6l70.2-73.2C1732.4,1019,1732.2,1008.7,1725.7,1002.5z"/>
				<path fill="#3F3C38" d="M1710.2,987.7l-91.2-87.5c-6.5-6.2-16.8-6-23.1,0.5l-70.2,73.2c-3.9,4.1-5.4,9.9-4,15.4l6.7,25.4
					c1.4,5.5-0.1,11.3-4,15.4l-123.7,128.9c-6.2,6.5-6,16.8,0.5,23.1l36.3,34.9c6.5,6.2,16.8,6,23.1-0.5l123.7-128.9
					c3.9-4.1,9.7-5.8,15.3-4.6l25.7,5.6c5.6,1.2,11.3-0.5,15.3-4.6l70.2-73.2C1716.9,1004.2,1716.7,993.9,1710.2,987.7z"/>
				<path fill="#F7B548" d="M1631.2,1054.1l-75.3-72.3c-2.2-2.1-2.3-5.7-0.2-7.9l49.9-52c2.1-2.2,5.7-2.3,7.9-0.2l75.3,72.3
					c2.2,2.1,2.3,5.7,0.2,7.9l-49.9,52C1636.9,1056.2,1633.4,1056.3,1631.2,1054.1z"/>
				<circle fill="#3E8EED" cx="1556.8" cy="1005" r="9.2"/>
				<circle fill="#3E8EED" cx="1583.6" cy="1030.7" r="9.2"/>
				<circle fill="#3E8EED" cx="1610.4" cy="1056.5" r="9.2"/>
				<path fill="#3E8EED" d="M1543.6,1098l-28-26.9c-2.2-2.1-2.2-5.6-0.2-7.7l12.5-13.1c2.1-2.2,5.6-2.2,7.7-0.2l28,26.9
					c2.2,2.1,2.2,5.6,0.2,7.7l-12.5,13.1C1549.2,1100.1,1545.8,1100.1,1543.6,1098z"/>
				<path fill="#3E8EED" d="M1721.7,889.9l-1.5-1.5c-2.4-2.3-6.2-2.2-8.5,0.2l-43.5,45.3c-2.3,2.4-2.2,6.2,0.2,8.5l1.5,1.5
					c2.4,2.3,6.2,2.2,8.5-0.2l43.5-45.3C1724.2,896,1724.1,892.2,1721.7,889.9z"/>
			</g>
			<g>
				<path fill="#EEEDEC" d="M1579.2,1101.1l-56.2-12.9c-16.5-3.9-32.9,6.3-36.8,22.8c-3.9,16.5,6.3,32.9,22.7,36.8l56.2,12.9
					c16.5,3.9,32.9-6.3,36.8-22.8C1605.9,1121.4,1595.6,1104.9,1579.2,1101.1z"/>
				<path fill="#EEEDEC" d="M1557.3,1135.2l-56.4-11.8c-16.5-3.6-32.8,7-36.4,23.4c-3.6,16.5,7,32.8,23.4,36.4l56.4,11.8
					c16.5,3.6,32.8-7,36.4-23.4C1584.4,1155.1,1573.8,1138.8,1557.3,1135.2z"/>
				<path fill="#EEEDEC" d="M1521,1161.5l-56.4-11.8c-16.5-3.6-32.8,7-36.4,23.4c-3.6,16.5,7,32.8,23.4,36.4l56.4,11.8
					c16.5,3.6,32.8-7,36.4-23.4C1548.1,1181.3,1537.6,1165,1521,1161.5z"/>
			</g>
		</g>
		<g>
			
				<radialGradient id="SVGID_18_" cx="4912.7554" cy="2323.9539" r="50.7529" gradientTransform="matrix(0.6891 -0.7247 -0.7247 -0.6891 -774.9819 6425.9912)" gradientUnits="userSpaceOnUse">
				<stop  offset="0" style="stop-color:#797673"/>
				<stop  offset="0.6238" style="stop-color:#605D5A"/>
			</radialGradient>
			<path fill="url(#SVGID_18_)" d="M974.2,1310.9l-73.6,2.1c-5.9,0.2-10.2-4.8-8.8-10.3l15.4-60.1c1-3.9,4.7-6.8,8.9-6.9l44-1.3
				c4.2-0.1,7.9,2.5,8.8,6.4l14.3,59.3C984.5,1305.5,980.1,1310.8,974.2,1310.9z"/>
			
				<radialGradient id="SVGID_19_" cx="4759.5801" cy="2468.2192" r="50.7529" gradientTransform="matrix(0.6891 -0.7247 -0.7247 -0.6891 -774.9819 6425.9912)" gradientUnits="userSpaceOnUse">
				<stop  offset="0" style="stop-color:#797673"/>
				<stop  offset="0.6238" style="stop-color:#605D5A"/>
			</radialGradient>
			<path fill="url(#SVGID_19_)" d="M762.4,1317.8l-73.6,2.1c-5.9,0.2-10.2-4.8-8.8-10.3l15.4-60.1c1-3.9,4.7-6.8,8.9-6.9l44-1.3
				c4.2-0.1,7.9,2.5,8.8,6.4l14.3,59.3C772.7,1312.3,768.3,1317.6,762.4,1317.8z"/>
			<path fill="#EEEDEC" d="M678.4,1083.4l-1.5,156c-0.1,7.3,6.2,13,13.9,12.8l69.4-2c7.8-0.2,14.1-6.3,14.2-13.6l0.7-73.9
				C738.6,1141.8,705.9,1114.9,678.4,1083.4z"/>
			<path fill="#C4C1BE" d="M707.1,1241.2l1.2-127.3c-10.5-9.6-20.5-19.8-29.9-30.5l-1.5,156c-0.1,7.3,6.2,13,13.9,12.8l21.7-0.6
				C709.2,1249.2,707.1,1245.5,707.1,1241.2z"/>
			<path fill="#EEEDEC" d="M585.7,836c0-39,5.9-76.6,17-112c-25,12.1-42.3,37.7-42.3,67.3v307.1c0,41.3,33.5,74.7,74.7,74.7h159.6
				C670.7,1111.5,585.7,983.7,585.7,836z"/>
			<path fill="#C4C1BE" d="M600.2,1106.2V939.8c-9.4-33-14.5-67.8-14.5-103.8c0-40.4,6.4-79.2,18.1-115.7
				c-25.7,11.8-43.5,37.8-43.5,67.9v310.2c0,41.3,33.5,74.7,74.7,74.7h3C615.3,1159.4,600.2,1134.6,600.2,1106.2z"/>
			<path fill="#EEEDEC" d="M585.7,836c0-24.7,2.4-48.9,6.9-72.2c-0.4,0-0.8,0-1.2,0h-55.6c-16.1,0-29.1,13-29.1,29.2V895
				c0,16.1,13.1,29.2,29.1,29.2h55.6c1.6,0,3.1-0.1,4.6-0.4C589.2,895.6,585.7,866.2,585.7,836z"/>
			<g>
				<path fill="#B3AFAB" d="M552.4,907.7h-15.9c-7,0-12.6-5.6-12.6-12.6v-98.7c0-7,5.6-12.6,12.6-12.6h15.9c7,0,12.6,5.6,12.6,12.6
					v98.7C565,902.1,559.4,907.7,552.4,907.7z"/>
				<circle fill="#DDDBDA" cx="544.1" cy="811.4" r="11.7"/>
				<circle fill="#DDDBDA" cx="544.1" cy="851.4" r="11.7"/>
			</g>
			<path fill="#EEEDEC" d="M961.9,1212.2c-24.9,0-49.3-2.4-72.9-7.1l-0.2,27.3c-0.1,7.3,6.2,13,13.9,12.8l69.4-2
				c7.8-0.2,14.1-6.3,14.2-13.6l0.2-18.3C978.4,1212,970.2,1212.2,961.9,1212.2z"/>
			<path fill="#C4C1BE" d="M916.1,1232.6l0.2-23.1c-9.2-1.1-18.3-2.6-27.3-4.3l-0.2,27.3c-0.1,7.3,6.2,13,13.9,12.8l22.3-0.6
				C919.8,1242.9,916.1,1238.2,916.1,1232.6z"/>
		</g>
		<g>
			<path fill="#EEEDEC" d="M529.5,1254.1l40.2,57.3c10.8,15.2,31.9,18.7,47.2,7.9c15.2-10.8,18.7-31.9,7.9-47.1l-49.7-69.3
				L529.5,1254.1z"/>
			<path fill="#EEEDEC" d="M460.2,1232.4l-11.1,69.2c-2.8,18.4,9.8,35.7,28.3,38.5c18.4,2.8,35.7-9.8,38.5-28.3l11.4-70.9
				L460.2,1232.4z"/>
			<path fill="#EEEDEC" d="M505.1,1240.2l-9.3,69.4c-2.4,18.5,10.8,35.4,29.2,37.8c18.5,2.4,35.4-10.8,37.8-29.2l9.6-71.2
				L505.1,1240.2z"/>
			<path fill="#EEEDEC" d="M442.8,1211.7l-25.1,65.4c-6.6,17.5,2.3,37,19.8,43.5c17.5,6.6,37-2.3,43.5-19.8l25.7-67.1L442.8,1211.7z
				"/>
			<path fill="#0064DA" d="M489.4,1240.3c-27.9-57-44.2-154.4,1.8-241.6c28-52.9,89.2-120,222.3-139.3l10.7,73.8
				c-80.8,11.7-138.5,46.4-167,100.3c-30.8,58.4-22.6,129.4-0.8,174L489.4,1240.3z"/>
			<path fill="#227BE5" d="M739.1,954c38.1,0,68.9-30.8,68.9-68.9s-30.8-68.9-68.9-68.9s-68.9,30.8-68.9,68.9
				C670.2,923.1,701,954,739.1,954z"/>
			<path fill="#C4C1BE" d="M508.7,1277.2c39.1,0,70.8-31.7,70.8-70.8s-31.7-70.8-70.8-70.8s-70.8,31.7-70.8,70.8
				S469.6,1277.2,508.7,1277.2z"/>
		</g>
	</g>
</g>
<g id="asset">
	<g>
		
			<ellipse transform="matrix(0.9993 -3.620161e-02 3.620161e-02 0.9993 -62.4511 38.1602)" opacity="0.22" fill="#625F5B" enable-background="new    " cx="1022.5" cy="1743.6" rx="314.6" ry="42.8"/>
		<g>
			<path fill="#3F3C38" d="M699.5,1595.6c0,0-11.9,27.2-9.5,32.7c3.9,8.8,9.2,13.3,36.1,20.7c25.1,6.9,152.4,22.7,200.4,17.1
				c44.2-5.2,42.7-41,40-52.7C963.9,1601.7,699.5,1595.6,699.5,1595.6z"/>
			<path fill="#C4C1BE" d="M765.3,1401c-26.4,62.3-53.1,149.7-65.3,191.5c-4,13.6,5.6,27.7,21,31c33.3,7.1,96.3,17.7,189,21.2
				c61.3,2.4,88.8-74.1,28.2-113.4c-25.8-16.8-62.3-18.4-62.3-18.4s-19.5-81.1-21-107.9C853.4,1378.2,774.3,1379.6,765.3,1401z"/>
			<path fill="#EEEDEC" d="M949.6,1540.1c-32.8-13.5-79.1-12.7-121.7,19.7c-64,48.7-72.8,5.3-73.2-8.8
				c-0.4-14.1-3.4-58.8,38.7-145.7l-21.3-11.7c-3.3,2.1-5.7,4.6-6.9,7.4c-26.4,62.3-53.1,149.7-65.3,191.5c-4,13.6,5.6,27.7,21,31
				c33.3,7.1,96.3,17.7,189,21.2C967,1646.9,994.7,1580.9,949.6,1540.1z"/>
			
				<ellipse transform="matrix(0.4389 -0.8985 0.8985 0.4389 -938.4285 1511.715)" fill="#F7B548" cx="741.2" cy="1507.2" rx="30" ry="27.8"/>
			<path fill="#3E8EED" d="M816.3,1382.6c-62.8-11.5-77.2-1.5-79.3,6.4c-3,11.2,18.7,24,72.5,33.7c56.1,10.1,72.5,3.6,75.1-4.8
				C887.2,1409.6,867.5,1392.1,816.3,1382.6z"/>
			<path fill="#3F3C38" d="M1121.8,1607.5c0,0-5.5,29.2-1.9,34c5.8,7.7,11.9,10.9,39.8,12.1c26,1.1,153.6-12,199.2-28.3
				c41.9-14.9,32.4-49.6,27.2-60.3S1121.8,1607.5,1121.8,1607.5z"/>
			<path fill="#C4C1BE" d="M1142.4,1403.1c-11.8,66.6-18.2,157.8-20.8,201.2c-0.8,14.1,11.7,25.7,27.4,25.5
				c34.1-0.5,97.8-4.4,189-21.7c60.2-11.4,69.9-92.1,2-116.8c-28.9-10.5-64.8-4-64.8-4s-37.2-74.6-44.6-100.5
				S1146.4,1380.2,1142.4,1403.1z"/>
			<path fill="#EEEDEC" d="M1353.1,1497.3c-35-5.8-79.9,5.3-114.2,46.5c-51.4,61.8-69.8,21.5-73.3,7.8
				c-3.5-13.7-16.5-56.5,5.1-150.6l-23.3-6.6c-2.7,2.8-4.5,5.7-5,8.7c-11.8,66.6-18.2,157.8-20.8,201.2
				c-0.8,14.1,11.7,25.7,27.4,25.5c34.1-0.5,97.8-4.4,189-21.7C1394,1597.5,1406.3,1527,1353.1,1497.3z"/>
			
				<ellipse transform="matrix(0.2264 -0.974 0.974 0.2264 -590.7119 2285.166)" fill="#F7B548" cx="1143.3" cy="1514.5" rx="30" ry="27.8"/>
			<path fill="#3E8EED" d="M1187.9,1373.8c-63.8,2.8-75.6,15.9-75.9,24c-0.4,11.6,23.6,19.2,78.2,16.6c57-2.8,71.5-12.8,72.2-21.5
				S1240,1371.4,1187.9,1373.8z"/>
			<path fill="#227BE5" d="M818.4,1355.8c-62.8-11.5-77.2-1.5-79.3,6.4c-3,11.2,18.7,24,72.5,33.7c56.1,10.1,72.5,3.6,75.1-4.8
				C889.2,1382.7,869.6,1365.2,818.4,1355.8z"/>
			<path fill="#227BE5" d="M1184,1347.1c-63.8,2.8-75.6,15.9-75.9,24c-0.4,11.6,23.6,19.2,78.2,16.6c57-2.8,71.5-12.8,72.2-21.5
				C1259.1,1357.4,1236,1344.8,1184,1347.1z"/>
			<path fill="#0064DA" d="M805.2,1178.2l-22.8,185.4l71.2,7.2l21-168.7C850.5,1196.4,827.3,1188.3,805.2,1178.2z"/>
			<path fill="#3E8EED" d="M857.5,1339.7c-1.3,9.2-4.6,16.1-39.2,12.7c-34.6-3.3-33-15.5-31.4-26c-31.2-1.8-39.8,5.4-41.4,11.3
				c-3,11.2,18.7,24,72.5,33.7c56.1,10.1,72.5,3.6,75.1-4.8C895.1,1360.4,884.6,1349,857.5,1339.7z"/>
			<path fill="#0064DA" d="M1112.9,1180.9c26.5,65.9,32.3,132.5,32.8,174.4c0.1,7.3,70.8,3.4,70.6-5.6
				c-1.6-51.7-10.3-128.8-41.5-203.2C1155.4,1159.8,1134.7,1171.3,1112.9,1180.9z"/>
			<path fill="#3E8EED" d="M1215.2,1322.3c0.9,9.9-1.7,17.8-34.8,20.4c-29.4,2.3-35-5.7-35.8-16.8c-28.9,5.3-35.4,13.9-35.6,19.9
				c-0.4,11.6,23.6,19.2,78.2,16.6c57-2.8,71.5-12.8,72.2-21.5C1259.8,1334.2,1245.9,1325,1215.2,1322.3z"/>
		</g>
	</g>
</g>
</svg>
