<svg xmlns="http://www.w3.org/2000/svg" viewBox="0 0 677.23 541.52"><g id="Layer_2" data-name="Layer 2"><g id="Layer_1-2" data-name="Layer 1"><g id="asset"><path d="M83.28,31.78,54.45,263.6l71.31,8.88,27-216.76A374.27,374.27,0,0,1,83.28,31.78Z" fill="#e29e3b"/><path d="M391,34.43c31.15,77.48,33.73,155.79,32.68,194-.15,3.88,36.05,7.39,71-.55.54-49.29-5.15-140.43-41.76-227.84A376,376,0,0,1,391,34.43Z" fill="#e29e3b"/><path d="M128,345.9s5.78,1.51,7.81,5.58c12.28,24.56,13.4,42.42,73.67,80.37,23.35,14.7-92.9,102.09-158.51,98.23-37.95-2.23-48-13.67-44.93-32.65,11.16-69.21,36-162.14,42.7-162.14S128,345.9,128,345.9Z" fill="#b3afab"/><path d="M45.42,530.08s2.23-91.53,80.37-107.16C272.73,393.53,224,524.5,224,524.5S224,550.17,45.42,530.08Z" fill="#908d89"/><path d="M33.14,203S72.77,165.34,118,146.08c26.79,16.74,50.23,37.95,62.73,54.42-22.54,62.79-29.45,121.41-38.17,164.37-48-22.33-107.16,2.23-107.16,2.23Z" fill="#f7f6f6"/><ellipse cx="111.55" cy="212.32" rx="30.14" ry="25.67" transform="translate(-112.79 297.13) rotate(-82.99)" fill="#e29e3b"/><path d="M7.47,486.55s53.86,20.37,105.21,20.37,111.35-7.26,121.4-8.37,12.56,29.3-5.86,32.65c-30.38,5.52-113.72,24.14-221-8.37C-2,520-2.86,486,7.47,486.55Z" fill="#3f3c38"/><ellipse cx="43.23" cy="438.23" rx="28.47" ry="13.4" transform="translate(-392.49 374.48) rotate(-76.04)" fill="#3f3c38"/><path d="M66.87,175.66A349,349,0,0,0,33.14,203L35.37,367.1A150.14,150.14,0,0,1,53,361.43C53.22,316.21,56.25,253.15,66.87,175.66Z" fill="#dddbda"/><path d="M523.17,345.9s6.38,1.51,9.35,5.58c17.92,24.56,22.75,42.42,93.86,80.37,27.55,14.7-76.79,102.09-146.55,98.23-40.35-2.23-53.24-13.67-53.9-32.65-2.41-69.21,4.71-162.14,11.75-162.14S523.17,345.9,523.17,345.9Z" fill="#b3afab"/><path d="M509.52,529.52s-23.07-93.51,56.09-108c128.09-23.44,95,103,95,103S585.7,539.57,509.52,529.52Z" fill="#908d89"/><path d="M394.24,203s34-37.67,77.54-56.93c31.58,16.74,60.56,37.95,77.06,54.42-1.65,50.24-6.14,121.41-6.54,164.37-55-22.33-111.49,2.65-111.49,2.65Z" fill="#f7f6f6"/><ellipse cx="478.59" cy="212.18" rx="25.71" ry="31.64" transform="matrix(0.85, -0.53, 0.53, 0.85, -39.53, 287.18)" fill="#e29e3b"/><path d="M425.19,486.55S486,506.92,539.94,506.92s115.56-7.26,125.89-8.37,19.19,29.3.51,32.65c-30.8,5.52-114.61,24.14-234-8.37C422.06,520,414.22,486,425.19,486.55Z" fill="#3f3c38"/><ellipse cx="462.5" cy="439.12" rx="16.49" ry="27.81" transform="translate(-2.19 2.32) rotate(-0.29)" fill="#3f3c38"/><path d="M413.72,184.3A250.06,250.06,0,0,0,394.24,203l36.3,164.65s8.09-3.07,14.93-5C438.79,329.68,433,255.87,413.72,184.3Z" fill="#dddbda"/></g></g></g></svg>