<?xml version="1.0" encoding="utf-8"?>
<!-- Generator: Adobe Illustrator 26.0.0, SVG Export Plug-In . SVG Version: 6.00 Build 0)  -->
<svg version="1.1" xmlns="http://www.w3.org/2000/svg" xmlns:xlink="http://www.w3.org/1999/xlink" x="0px" y="0px"
	 viewBox="0 0 214.74 150" style="enable-background:new 0 0 214.74 150;" xml:space="preserve">
<style type="text/css">
	.st0{fill:#8A6FE8;}
	.st1{fill:url(#SVGID_1_);}
	.st2{fill:url(#SVGID_00000147923687637745480510000000613037801407149700_);}
	.st3{fill:url(#SVGID_00000131340085663193706000000006986945363003922353_);}
	.st4{fill:url(#SVGID_00000005235014588001256400000009848202151958180783_);}
	.st5{fill:#E3DBFF;}
	.st6{fill:#9127B2;}
	.st7{fill:#AE25A3;}
	.st8{fill:none;stroke:#9127B2;stroke-width:8;stroke-linecap:round;stroke-miterlimit:10;}
	.st9{fill:none;stroke:#AE25A3;stroke-width:8;stroke-linecap:round;stroke-miterlimit:10;}
	.st10{fill:#FFBE46;}
	.st11{fill:#FFBC46;}
	.st12{fill:#FFBB47;}
	.st13{fill:#FFB947;}
	.st14{fill:#FFB848;}
	.st15{fill:#FFB648;}
	.st16{fill:#FFB549;}
	.st17{fill:#FFB349;}
	.st18{fill:#FFB14A;}
	.st19{fill:#FFB04A;}
	.st20{fill:#FFAE4B;}
	.st21{fill:#FFAD4B;}
	.st22{fill:#FFAB4C;}
	.st23{fill:#FFAA4C;}
	.st24{fill:#FFA84D;}
	.st25{fill:#FFA74D;}
	.st26{fill:#FFA54E;}
	.st27{fill:#FFA34E;}
	.st28{fill:#FFA24F;}
	.st29{fill:#FFA04F;}
	.st30{fill:#FF9F50;}
	.st31{fill:#FF9D50;}
	.st32{fill:#FF9C51;}
	.st33{fill:#FF9A51;}
	.st34{fill:#FF9852;}
	.st35{fill:#FF9752;}
	.st36{fill:#FF9553;}
	.st37{fill:#FF9453;}
	.st38{fill:#FF9254;}
	.st39{fill:#FF9154;}
	.st40{fill:#FF8F55;}
	.st41{fill:#FF8E55;}
	.st42{fill:#FF8C56;}
	.st43{fill:#FF8A56;}
	.st44{fill:#FF8957;}
	.st45{fill:#FF8757;}
	.st46{fill:#FF8658;}
	.st47{fill:#FF8458;}
	.st48{fill:#FF8359;}
	.st49{fill:#FF8159;}
	.st50{fill:#FF7F5A;}
	.st51{fill:#FF7E5A;}
	.st52{fill:#FF7C5B;}
	.st53{fill:#FF7B5B;}
	.st54{fill:#FF795C;}
	.st55{fill:#FF785C;}
	.st56{fill:#FF765D;}
	.st57{fill:#FF745D;}
	.st58{fill:#FF735E;}
	.st59{fill:#FF715E;}
	.st60{fill:#FF705F;}
	.st61{fill:#FF6E5F;}
	.st62{fill:#FF6D60;}
	.st63{fill:#FF6B60;}
	.st64{fill:#FF6A61;}
	.st65{fill:#FF6861;}
	.st66{fill:#FF6662;}
	.st67{fill:#FF6562;}
	.st68{fill:#FF6363;}
	.st69{fill:#FF6263;}
	.st70{fill:#FF6064;}
	.st71{fill:#FF5F64;}
	.st72{fill:#FF5D65;}
	.st73{fill:#FF5B65;}
	.st74{fill:#FF5A66;}
	.st75{fill:#FF5866;}
	.st76{fill:#FF5767;}
	.st77{fill:#FF5567;}
	.st78{fill:#FF5468;}
	.st79{fill:#FF5268;}
	.st80{fill:#FF5069;}
	.st81{fill:#FF4F69;}
	.st82{fill:#FF4D6A;}
	.st83{fill:#FF4C6A;}
	.st84{fill:#FF4A6B;}
	.st85{fill:#FF496B;}
	.st86{fill:#FF476C;}
	.st87{fill:#FF466C;}
	.st88{fill:#FF446D;}
	.st89{fill:#FF426D;}
	.st90{fill:#FF416E;}
	.st91{fill:#FF3F6E;}
	.st92{fill:#FF3E6F;}
	.st93{fill:#FF3C6F;}
	.st94{fill:#FF3B70;}
	.st95{fill:#FF3970;}
	.st96{fill:#FF3771;}
	.st97{fill:#FF3671;}
	.st98{fill:#FF3472;}
	.st99{fill:#FF3372;}
	.st100{fill:#FF3173;}
	.st101{fill:#FF3073;}
	.st102{fill:#FF2E74;}
	.st103{fill:#FF2D74;}
	.st104{fill:#FF2B75;}
	.st105{fill:#FF2975;}
	.st106{fill:#FF2876;}
	.st107{fill:#FF2676;}
	.st108{fill:#FF2577;}
	.st109{fill:#FF2377;}
	.st110{fill:#FF2278;}
	.st111{fill:#FF2078;}
	.st112{fill:#FD2079;}
	.st113{fill:#FC207A;}
	.st114{fill:#FA207B;}
	.st115{fill:#F8207C;}
	.st116{fill:#F6217D;}
	.st117{fill:#F5217D;}
	.st118{fill:#F3217E;}
	.st119{fill:#F1217F;}
	.st120{fill:#EF2180;}
	.st121{fill:#EE2181;}
	.st122{fill:#EC2182;}
	.st123{fill:#EA2183;}
	.st124{fill:#E92184;}
	.st125{fill:#E72285;}
	.st126{fill:#E52286;}
	.st127{fill:#E32287;}
	.st128{fill:#E22287;}
	.st129{fill:#E02288;}
	.st130{fill:#DE2289;}
	.st131{fill:#DD228A;}
	.st132{fill:#DB228B;}
	.st133{fill:#D9228C;}
	.st134{fill:#D7238D;}
	.st135{fill:#D6238E;}
	.st136{fill:#D4238F;}
	.st137{fill:#D22390;}
	.st138{fill:#D02391;}
	.st139{fill:#CF2392;}
	.st140{fill:#CD2392;}
	.st141{fill:#CB2393;}
	.st142{fill:#CA2394;}
	.st143{fill:#C82395;}
	.st144{fill:#C62496;}
	.st145{fill:#C42497;}
	.st146{fill:#C32498;}
	.st147{fill:#C12499;}
	.st148{fill:#BF249A;}
	.st149{fill:#BE249B;}
	.st150{fill:#BC249C;}
	.st151{fill:#BA249C;}
	.st152{fill:#B8249D;}
	.st153{fill:#B7259E;}
	.st154{fill:#B5259F;}
	.st155{fill:#B325A0;}
	.st156{fill:#B125A1;}
	.st157{fill:#B025A2;}
	.st158{fill:#AC25A4;}
	.st159{fill:#AB25A5;}
	.st160{fill:#A925A6;}
	.st161{fill:#A726A6;}
	.st162{fill:#A526A7;}
	.st163{fill:#A426A8;}
	.st164{fill:#A226A9;}
	.st165{fill:#A026AA;}
	.st166{fill:#9F26AB;}
	.st167{fill:#9D26AC;}
	.st168{fill:#9B26AD;}
	.st169{fill:#9926AE;}
	.st170{fill:#9827AF;}
	.st171{fill:#9627B0;}
	.st172{fill:#9427B0;}
	.st173{fill:#9227B1;}
	.st174{fill:#8F27B3;}
	.st175{fill:#8D27B4;}
	.st176{fill:#8C27B5;}
	.st177{fill:#8A27B6;}
	.st178{fill:#8828B7;}
	.st179{fill:#8628B8;}
	.st180{fill:#8528B9;}
	.st181{fill:#8328BA;}
	.st182{fill:#8128BA;}
	.st183{fill:#8028BB;}
	.st184{fill:#7E28BC;}
	.st185{fill:#7C28BD;}
	.st186{fill:#7A28BE;}
	.st187{fill:#7928BF;}
	.st188{fill:#7729C0;}
	.st189{fill:#7529C1;}
	.st190{fill:#7329C2;}
	.st191{fill:#7229C3;}
	.st192{fill:#7029C4;}
	.st193{fill:#6E29C5;}
	.st194{fill:#6D29C5;}
	.st195{fill:#6B29C6;}
	.st196{fill:#6929C7;}
	.st197{fill:#672AC8;}
	.st198{fill:#662AC9;}
	.st199{fill:#642ACA;}
	.st200{fill:#622ACB;}
	.st201{fill:#612ACC;}
	.st202{fill:#5F2ACD;}
	.st203{fill:#5D2ACE;}
	.st204{fill:#5B2ACF;}
	.st205{fill:#5A2ACF;}
	.st206{fill:#582BD0;}
	.st207{fill:#562BD1;}
	.st208{fill:#542BD2;}
	.st209{fill:#532BD3;}
	.st210{fill:#512BD4;}
	.st211{opacity:0.2;fill:#512BD4;enable-background:new    ;}
	.st212{opacity:0.7;fill:#9DCFFF;enable-background:new    ;}
	.st213{fill:url(#SVGID_00000142150841220704841800000012647019017472223885_);}
	.st214{fill:#F4BC1B;}
	.st215{fill:url(#SVGID_00000150809621198793545500000004705773381443368109_);}
	.st216{fill:url(#SVGID_00000133509069717654863930000008006491393969867681_);}
	.st217{fill:#FFD590;}
	.st218{fill:#F7B548;}
	.st219{fill:url(#SVGID_00000023241352738532804020000001049932747780155782_);}
	.st220{fill:#FFFFFF;}
	.st221{fill:url(#SVGID_00000152943436687073455720000000807539149534811566_);}
	.st222{fill:url(#SVGID_00000062904542125577754740000004272691234272309935_);}
	.st223{fill:#F7784E;}
	.st224{fill:#5424D0;}
</style>
<g id="background">
	<g id="arms_00000111174350294349496780000015913892071663646602_">
		<g>
			
				<linearGradient id="SVGID_1_" gradientUnits="userSpaceOnUse" x1="62.8448" y1="238.397" x2="48.1988" y2="161.5705" gradientTransform="matrix(1 0 0 -1 0 238.2328)">
				<stop  offset="0.1773" style="stop-color:#522CD5"/>
				<stop  offset="0.6559" style="stop-color:#8A6FE8"/>
			</linearGradient>
			<path class="st1" d="M48.43,10.92L39,86.75l19.11,2.38l8.96-72.06C60.61,15.63,54.37,13.56,48.43,10.92z"/>
			
				<linearGradient id="SVGID_00000173859952358059484330000014049632134483780230_" gradientUnits="userSpaceOnUse" x1="131.8523" y1="244.97" x2="145.8778" y2="173.3343" gradientTransform="matrix(1 0 0 -1 0 238.2328)">
				<stop  offset="0.1773" style="stop-color:#522CD5"/>
				<stop  offset="0.6559" style="stop-color:#8A6FE8"/>
			</linearGradient>
			<path style="fill:url(#SVGID_00000173859952358059484330000014049632134483780230_);" d="M123.56,13.54
				c13.71,24.15,14.75,51.59,14.41,63.77c-0.04,1.04,9.66,1.98,19.02-0.15c0.17-15.23-1.89-45.38-16.31-71.72
				C135.28,8.65,129.55,11.37,123.56,13.54z"/>
			<path class="st217" d="M77.72,109.43c-5.33-5.7-8.47-13.13-10.52-18.84c-1.99-5.55-2.68-22.45-3.22-26.8
				c-0.44-3.51-4.29-2.59-4.29-2.59s-1.26,36.62,4,43.42S77.72,109.43,77.72,109.43z"/>
			<path class="st218" d="M27.4,124.31c0.57-5.98,1.44-11.93,2.63-17.82c4.19-21.17,6.3-39.25,6.86-44.39
				c0.05-0.4,0.24-0.77,0.54-1.03c0.3-0.27,0.69-0.4,1.09-0.4l21.71,0.52c0.18,0,0.35,0.04,0.51,0.11s0.31,0.17,0.43,0.3
				c0.12,0.13,0.22,0.28,0.28,0.44c0.06,0.16,0.1,0.34,0.09,0.51c-0.06,6.83,0.35,37.84,12.29,42.78
				c13.44,5.55,10.81,10.51,10.22,20.45C83.48,135.7,27.4,124.31,27.4,124.31z"/>
			
				<linearGradient id="SVGID_00000004544452023786964360000002193016706519002040_" gradientUnits="userSpaceOnUse" x1="-501.2626" y1="-9686.8877" x2="-537.8082" y2="-9686.8877" gradientTransform="matrix(1 0 0 1 564 9780)">
				<stop  offset="0" style="stop-color:#FFBE46"/>
				<stop  offset="0.1302" style="stop-color:#FF8757"/>
				<stop  offset="0.5365" style="stop-color:#FF436D"/>
				<stop  offset="0.7917" style="stop-color:#BE249B"/>
				<stop  offset="1" style="stop-color:#7029C4"/>
			</linearGradient>
			<path style="fill:url(#SVGID_00000004544452023786964360000002193016706519002040_);" d="M47.27,116.13
				c2.24-1.5,12.27-0.58,12.27-0.58s8.47-0.88-0.88-18.11c-6.8-12.54-7.26-27.55-7.01-34.8c0.01-0.22-0.03-0.43-0.1-0.64
				c-0.08-0.2-0.19-0.39-0.34-0.55c-0.15-0.16-0.33-0.28-0.53-0.37c-0.2-0.09-0.41-0.13-0.63-0.14l-11.39-0.27
				c-0.44-0.01-0.86,0.14-1.19,0.43c-0.33,0.29-0.54,0.69-0.59,1.13c-0.58,5.31-2.68,23.25-6.84,44.26
				c-1.18,5.89-2.06,11.84-2.63,17.82c0,0,2.54,0.52,6.55,1.23l8.93-0.94C42.88,124.61,42.01,119.64,47.27,116.13z"/>
			<path class="st220" d="M57,107c-0.13,0-0.25-0.03-0.36-0.09c-0.11-0.06-0.21-0.14-0.29-0.24c-0.06-0.09-0.11-0.18-0.13-0.28
				c-0.02-0.1-0.03-0.21-0.01-0.32c0.02-0.1,0.05-0.2,0.11-0.29c0.06-0.09,0.13-0.17,0.21-0.23l9.88-7.22l-13.46-2.64
				c-0.15-0.03-0.29-0.1-0.4-0.21c-0.11-0.1-0.19-0.24-0.23-0.39c-0.04-0.15-0.03-0.3,0.01-0.45c0.05-0.15,0.14-0.28,0.25-0.37
				l10.25-8.09l-12.33-3.74c-0.16-0.05-0.29-0.14-0.4-0.27c-0.1-0.13-0.16-0.28-0.17-0.45c-0.01-0.16,0.03-0.32,0.11-0.47
				c0.08-0.14,0.21-0.25,0.36-0.32l10.62-4.88l-12.08-5.63c-0.15-0.07-0.28-0.18-0.36-0.33c-0.08-0.14-0.12-0.31-0.1-0.47
				c0.01-0.16,0.08-0.32,0.18-0.44c0.1-0.13,0.24-0.22,0.4-0.27l13.44-3.8c0.21-0.06,0.42-0.03,0.61,0.07
				c0.18,0.1,0.32,0.28,0.38,0.48c0.03,0.1,0.04,0.21,0.03,0.31c-0.01,0.1-0.05,0.21-0.1,0.3c-0.05,0.09-0.12,0.17-0.2,0.24
				c-0.08,0.06-0.18,0.11-0.28,0.14l-11.35,3.22l11.69,5.45c0.14,0.06,0.26,0.17,0.34,0.3c0.08,0.13,0.13,0.28,0.13,0.43
				s-0.04,0.3-0.13,0.43c-0.08,0.13-0.2,0.23-0.34,0.3l-10.27,4.72l11.77,3.57c0.14,0.04,0.27,0.12,0.36,0.23
				c0.1,0.11,0.16,0.24,0.19,0.39c0.03,0.14,0.02,0.29-0.04,0.43c-0.05,0.14-0.14,0.26-0.25,0.35l-10.08,7.97l13.55,2.66
				c0.15,0.03,0.29,0.1,0.41,0.21c0.11,0.11,0.19,0.25,0.22,0.4c0.03,0.15,0.02,0.31-0.03,0.46c-0.06,0.14-0.15,0.27-0.28,0.36
				l-11.37,8.31C57.32,106.95,57.16,107,57,107z"/>
			<path d="M27.34,142.32H87.3c0.37,0,0.74-0.08,1.07-0.23c0.34-0.15,0.64-0.36,0.9-0.64c0.25-0.27,0.44-0.59,0.57-0.94
				c0.12-0.35,0.17-0.72,0.14-1.09l-1.04-14.01c-0.05-0.67-0.35-1.3-0.84-1.76c-0.49-0.46-1.14-0.72-1.81-0.73l-58.07-0.9
				c-0.69-0.01-1.37,0.25-1.88,0.72c-0.51,0.47-0.82,1.13-0.86,1.82l-0.86,14.91c-0.02,0.37,0.03,0.73,0.16,1.08
				c0.13,0.35,0.32,0.66,0.57,0.93c0.25,0.27,0.56,0.48,0.9,0.62C26.6,142.25,26.97,142.32,27.34,142.32z"/>
			<path d="M48.63,71.63c1.13,0,2.05-0.92,2.05-2.05c0-1.13-0.92-2.05-2.05-2.05s-2.05,0.92-2.05,2.05
				C46.58,70.72,47.5,71.63,48.63,71.63z"/>
			<path d="M50.02,84.04c1.13,0,2.05-0.92,2.05-2.05c0-1.13-0.92-2.05-2.05-2.05s-2.05,0.92-2.05,2.05
				C47.97,83.12,48.89,84.04,50.02,84.04z"/>
			<path d="M53.11,96.9c1.13,0,2.05-0.92,2.05-2.05c0-1.13-0.92-2.05-2.05-2.05s-2.05,0.92-2.05,2.05
				C51.06,95.98,51.98,96.9,53.11,96.9z"/>
			<path d="M57.27,108.1c1.13,0,2.05-0.92,2.05-2.05c0-1.13-0.92-2.05-2.05-2.05s-2.05,0.92-2.05,2.05
				C55.22,107.18,56.14,108.1,57.27,108.1z"/>
			<path class="st217" d="M183.69,109.19c-6.43-5.7-11.03-13.13-14.18-18.84c-3.07-5.55-7.03-22.45-8.42-26.8
				c-1.12-3.5-4.8-2.59-4.8-2.59s5.86,36.62,12.44,43.42C175.31,111.17,183.69,109.19,183.69,109.19z"/>
			<path class="st218" d="M136.28,124.07c-0.59-5.92-0.87-11.87-0.83-17.82c0.07-21.17-1.34-39.25-1.77-44.39
				c-0.02-0.19-0.01-0.38,0.05-0.55c0.06-0.18,0.16-0.34,0.29-0.48c0.13-0.14,0.29-0.24,0.46-0.31c0.17-0.07,0.36-0.1,0.55-0.08
				l21.81,0.52c0.38,0.02,0.74,0.17,1.02,0.41c0.29,0.25,0.49,0.58,0.56,0.95c1.27,6.83,7.7,37.84,20.6,42.78
				c14.52,5.55,12.87,10.51,14.21,20.45C194.57,135.46,136.28,124.07,136.28,124.07z"/>
			
				<linearGradient id="SVGID_00000045607898269389907110000017386324166745399691_" gradientUnits="userSpaceOnUse" x1="-394.9492" y1="-9687.1357" x2="-431.5476" y2="-9687.1357" gradientTransform="matrix(1 0 0 1 564 9780)">
				<stop  offset="0" style="stop-color:#FFBE46"/>
				<stop  offset="0.1302" style="stop-color:#FF8757"/>
				<stop  offset="0.5365" style="stop-color:#FF436D"/>
				<stop  offset="0.7917" style="stop-color:#BE249B"/>
				<stop  offset="1" style="stop-color:#7029C4"/>
			</linearGradient>
			<path style="fill:url(#SVGID_00000045607898269389907110000017386324166745399691_);" d="M154.54,115.89
				c1.95-1.49,12.16-0.58,12.16-0.58s8.31-0.88-4.4-18.11c-9.24-12.54-12.62-27.55-13.77-34.8c-0.09-0.46-0.32-0.87-0.68-1.18
				c-0.35-0.31-0.79-0.49-1.26-0.52l-11.44-0.27c-0.2-0.01-0.41,0.02-0.6,0.09c-0.19,0.08-0.36,0.19-0.5,0.34
				c-0.14,0.15-0.25,0.33-0.31,0.52c-0.06,0.2-0.08,0.4-0.06,0.61c0.45,5.31,1.83,23.25,1.76,44.26c-0.04,5.95,0.24,11.9,0.83,17.82
				c0,0,2.64,0.52,6.79,1.23l8.75-0.94C151.81,124.36,149.96,119.39,154.54,115.89z"/>
			<path class="st220" d="M162.5,106.75c-0.13,0-0.27-0.03-0.39-0.09c-0.12-0.06-0.23-0.14-0.32-0.24
				c-0.33-0.36-0.35-0.86-0.04-1.12l8.48-7.22l-13.97-2.64c-0.16-0.03-0.31-0.11-0.44-0.21s-0.23-0.24-0.3-0.39
				c-0.07-0.13-0.09-0.28-0.07-0.43c0.02-0.15,0.09-0.28,0.19-0.39l8.68-8.1l-13.05-3.74c-0.17-0.05-0.32-0.14-0.44-0.27
				c-0.12-0.13-0.21-0.28-0.26-0.45c-0.05-0.15-0.04-0.31,0.01-0.45c0.06-0.14,0.16-0.26,0.3-0.34l9.67-4.88l-13.18-5.63
				c-0.16-0.07-0.31-0.18-0.41-0.32c-0.11-0.14-0.18-0.31-0.2-0.48c-0.02-0.15,0.01-0.31,0.09-0.44c0.08-0.13,0.21-0.23,0.36-0.27
				l12.7-3.8c0.22-0.05,0.45-0.02,0.65,0.08c0.2,0.1,0.36,0.27,0.45,0.47c0.05,0.09,0.09,0.18,0.1,0.28c0.01,0.1,0,0.2-0.04,0.3
				c-0.03,0.09-0.09,0.18-0.16,0.25c-0.07,0.07-0.16,0.12-0.26,0.16l-10.72,3.22l12.76,5.45c0.15,0.06,0.29,0.17,0.39,0.29
				c0.1,0.13,0.18,0.28,0.21,0.44c0.03,0.14,0.02,0.29-0.04,0.42s-0.16,0.24-0.29,0.31l-9.35,4.72l12.44,3.58
				c0.15,0.05,0.29,0.13,0.41,0.24c0.12,0.11,0.21,0.24,0.27,0.39c0.06,0.13,0.08,0.27,0.05,0.41c-0.02,0.14-0.09,0.27-0.19,0.37
				l-8.53,7.97l14.06,2.66c0.17,0.03,0.32,0.11,0.45,0.21c0.13,0.11,0.23,0.24,0.3,0.4c0.07,0.14,0.09,0.29,0.06,0.44
				c-0.03,0.15-0.1,0.29-0.21,0.39l-9.75,8.31C162.81,106.72,162.66,106.76,162.5,106.75z"/>
			<path d="M139.7,142.07h59.96c1.57,0,2.55-1.34,2.13-2.89l-3.75-14.02c-0.2-0.69-0.61-1.3-1.17-1.75
				c-0.56-0.45-1.25-0.71-1.97-0.75l-58.24-0.9c-0.33-0.02-0.65,0.03-0.95,0.16c-0.3,0.12-0.57,0.32-0.79,0.56
				c-0.22,0.25-0.37,0.54-0.46,0.85s-0.1,0.65-0.04,0.97l2.04,14.91c0.13,0.77,0.53,1.48,1.12,2
				C138.17,141.74,138.92,142.04,139.7,142.07z"/>
			<path d="M148.77,70.86c0.69-0.76,0.5-2.05-0.42-2.89s-2.23-0.9-2.92-0.14c-0.69,0.76-0.5,2.05,0.42,2.89
				C146.78,71.55,148.08,71.61,148.77,70.86z"/>
			<path d="M152.57,83.26c0.69-0.76,0.5-2.05-0.42-2.89c-0.92-0.84-2.23-0.9-2.92-0.14s-0.5,2.05,0.42,2.89
				S151.88,84.02,152.57,83.26z"/>
			<path d="M158.16,96.12c0.69-0.76,0.5-2.05-0.42-2.89c-0.92-0.84-2.23-0.9-2.92-0.14c-0.69,0.76-0.5,2.05,0.42,2.89
				C156.17,96.81,157.47,96.88,158.16,96.12z"/>
			<path d="M164.5,107.31c0.69-0.76,0.5-2.05-0.42-2.89s-2.23-0.9-2.92-0.14s-0.5,2.05,0.42,2.89
				C162.51,108.01,163.81,108.07,164.5,107.31z"/>
		</g>
	</g>
</g>
<g id="bot-base">
</g>
<g id="asset">
</g>
<g id="ghost-image">
</g>
<g id="headgear">
</g>
<g id="arms">
</g>
<g id="glasses">
</g>
<g id="shoes">
</g>
</svg>
