<?xml version="1.0" encoding="utf-8"?>
<!-- Generator: Adobe Illustrator 26.0.0, SVG Export Plug-In . SVG Version: 6.00 Build 0)  -->
<svg version="1.1" id="asset" xmlns="http://www.w3.org/2000/svg" xmlns:xlink="http://www.w3.org/1999/xlink" x="0px" y="0px"
	 viewBox="0 0 214.74 150" style="enable-background:new 0 0 214.74 150;" xml:space="preserve">
<style type="text/css">
	.st0{fill:url(#SVGID_1_);}
	.st1{fill:url(#SVGID_00000064327370177362366950000014598542096900834468_);}
	.st2{fill:#FFD590;}
	.st3{fill:#F7B548;}
	.st4{fill:url(#SVGID_00000078754928357331173130000011665814575481719702_);}
	.st5{fill:#FFFFFF;}
	.st6{fill:url(#SVGID_00000088833143189703967500000006372549548472398217_);}
</style>
<g>
	
		<linearGradient id="SVGID_1_" gradientUnits="userSpaceOnUse" x1="58.2528" y1="1072.0487" x2="43.9816" y2="997.1882" gradientTransform="matrix(1 0 0 -1 0 1072)">
		<stop  offset="0.1773" style="stop-color:#522CD5"/>
		<stop  offset="0.6559" style="stop-color:#8A6FE8"/>
	</linearGradient>
	<path class="st0" d="M44.21,10.77l-9.19,73.89l18.62,2.32l8.72-70.2C56.07,15.34,50.01,13.33,44.21,10.77z"/>
	
		<linearGradient id="SVGID_00000042012149917072059130000001948255498392834728_" gradientUnits="userSpaceOnUse" x1="125.5075" y1="1078.4518" x2="139.1741" y2="1008.6492" gradientTransform="matrix(1 0 0 -1 0 1072)">
		<stop  offset="0.1773" style="stop-color:#522CD5"/>
		<stop  offset="0.6559" style="stop-color:#8A6FE8"/>
	</linearGradient>
	<path style="fill:url(#SVGID_00000042012149917072059130000001948255498392834728_);" d="M117.42,13.3
		c13.37,23.53,14.36,50.28,14.05,62.13c-0.05,1.02,9.4,1.93,18.54-0.16c0.16-14.83-1.83-44.22-15.88-69.89
		C128.86,8.55,123.27,11.19,117.42,13.3z"/>
	<path class="st2" d="M72.76,106.75c-5.2-5.54-8.25-12.8-10.24-18.36c-1.93-5.41-2.61-21.89-3.13-26.12
		c-0.42-3.42-4.18-2.53-4.18-2.53s-1.23,35.68,3.89,42.31C64.22,108.68,72.76,106.75,72.76,106.75z"/>
	<path class="st3" d="M23.74,121.25c0.55-5.82,1.41-11.62,2.56-17.37c4.07-20.63,6.14-38.24,6.69-43.25
		c0.05-0.39,0.24-0.76,0.52-0.99c0.29-0.24,0.68-0.39,1.07-0.39l21.16,0.5c0.18,0,0.34,0.05,0.5,0.1c0.16,0.05,0.31,0.16,0.42,0.29
		c0.1,0.13,0.21,0.26,0.29,0.42c0.08,0.16,0.1,0.34,0.08,0.5c-0.05,6.66,0.34,36.88,11.96,41.68c13.08,5.41,10.53,10.24,9.95,19.93
		C78.37,132.35,23.74,121.25,23.74,121.25z"/>
	
		<linearGradient id="SVGID_00000093146262168857271200000003640819972668371090_" gradientUnits="userSpaceOnUse" x1="-505.8405" y1="-10609.1543" x2="-541.451" y2="-10609.1543" gradientTransform="matrix(1 0 0 1 564 10700)">
		<stop  offset="0" style="stop-color:#FFBE46"/>
		<stop  offset="0.1302" style="stop-color:#FF8757"/>
		<stop  offset="0.5365" style="stop-color:#FF436D"/>
		<stop  offset="0.7917" style="stop-color:#BE249B"/>
		<stop  offset="1" style="stop-color:#7029C4"/>
	</linearGradient>
	<path style="fill:url(#SVGID_00000093146262168857271200000003640819972668371090_);" d="M43.09,113.28
		c2.19-1.46,11.96-0.57,11.96-0.57s8.25-0.86-0.86-17.66c-6.63-12.22-7.08-26.85-6.84-33.9c0-0.21-0.03-0.42-0.1-0.63
		c-0.08-0.21-0.18-0.37-0.34-0.52c-0.16-0.16-0.31-0.29-0.52-0.37c-0.21-0.08-0.39-0.13-0.63-0.13l-11.1-0.26
		c-0.42,0-0.84,0.13-1.18,0.42c-0.31,0.29-0.52,0.68-0.57,1.1c-0.57,5.17-2.61,22.67-6.66,43.12c-1.15,5.75-2.01,11.54-2.56,17.37
		c0,0,2.48,0.5,6.37,1.2l8.7-0.91C38.81,121.53,37.97,116.7,43.09,113.28z"/>
	<path class="st5" d="M52.57,104.37c-0.13,0-0.24-0.03-0.37-0.08c-0.1-0.05-0.21-0.13-0.29-0.24c-0.05-0.08-0.1-0.18-0.13-0.29
		c-0.03-0.1-0.03-0.21,0-0.31c0.03-0.1,0.05-0.21,0.1-0.29c0.05-0.08,0.13-0.16,0.21-0.24l9.64-7.03l-13.11-2.56
		c-0.16-0.03-0.29-0.1-0.39-0.21c-0.1-0.1-0.18-0.24-0.21-0.39c-0.03-0.16-0.03-0.29,0-0.44c0.05-0.16,0.13-0.26,0.26-0.37
		l9.98-7.89l-12.01-3.63c-0.16-0.05-0.29-0.13-0.39-0.26c-0.1-0.13-0.16-0.29-0.18-0.44c0-0.16,0.03-0.31,0.1-0.44
		c0.08-0.13,0.21-0.24,0.34-0.31l10.34-4.75l-11.78-5.48c-0.16-0.08-0.26-0.18-0.34-0.31s-0.1-0.31-0.1-0.47
		c0-0.16,0.08-0.31,0.18-0.44c0.1-0.13,0.24-0.21,0.39-0.26l13.08-3.71c0.21-0.05,0.42-0.03,0.6,0.08c0.18,0.1,0.31,0.26,0.37,0.47
		c0.03,0.1,0.03,0.21,0.03,0.31c0,0.1-0.05,0.21-0.1,0.29c-0.05,0.08-0.13,0.18-0.21,0.24c-0.08,0.05-0.18,0.1-0.26,0.13
		l-11.07,3.13l11.39,5.3c0.13,0.05,0.26,0.16,0.34,0.29c0.08,0.13,0.13,0.29,0.13,0.42c0,0.13-0.05,0.29-0.13,0.42
		s-0.21,0.24-0.34,0.29l-10,4.6l11.47,3.47c0.13,0.05,0.26,0.13,0.37,0.24s0.16,0.24,0.18,0.37c0.03,0.13,0.03,0.29-0.03,0.42
		c-0.05,0.13-0.13,0.26-0.26,0.34l-9.82,7.76l13.19,2.59c0.16,0.03,0.29,0.1,0.39,0.21s0.18,0.24,0.21,0.39
		c0.03,0.16,0.03,0.31-0.03,0.44c-0.05,0.13-0.16,0.26-0.26,0.37l-11.07,8.1C52.88,104.32,52.73,104.37,52.57,104.37z"/>
	<path d="M23.66,138.8h58.42c0.37,0,0.73-0.08,1.04-0.21c0.34-0.16,0.63-0.37,0.86-0.63c0.24-0.26,0.44-0.57,0.55-0.91
		c0.13-0.34,0.16-0.71,0.13-1.07l-1.02-13.66c-0.05-0.65-0.34-1.25-0.81-1.72c-0.47-0.44-1.1-0.71-1.78-0.71l-56.57-0.86
		c-0.68,0-1.33,0.24-1.83,0.71c-0.5,0.47-0.78,1.1-0.84,1.78l-0.84,14.52c-0.03,0.37,0.03,0.71,0.16,1.04s0.31,0.65,0.55,0.91
		c0.24,0.26,0.55,0.47,0.86,0.6C22.87,138.72,23.32,138.8,23.66,138.8z"/>
	<path d="M44.42,69.93c1.1,0,1.98-0.89,1.98-1.98s-0.89-1.98-1.98-1.98s-1.98,0.89-1.98,1.98S43.32,69.93,44.42,69.93z"/>
	<path d="M45.75,81.99c1.1,0,1.98-0.89,1.98-1.98s-0.89-1.98-1.98-1.98s-1.98,0.89-1.98,1.98S44.66,81.99,45.75,81.99z"/>
	<path d="M48.78,94.53c1.1,0,1.98-0.89,1.98-1.98s-0.89-1.98-1.98-1.98s-1.98,0.89-1.98,1.98S47.69,94.53,48.78,94.53z"/>
	<path d="M52.83,105.45c1.1,0,1.98-0.89,1.98-1.98s-0.89-1.98-1.98-1.98s-1.98,0.89-1.98,1.98S51.73,105.45,52.83,105.45z"/>
	<path class="st2" d="M176.03,106.52c-6.27-5.54-10.73-12.8-13.82-18.36c-3-5.41-6.84-21.89-8.2-26.12
		c-1.1-3.42-4.68-2.53-4.68-2.53s5.72,35.68,12.12,42.31C167.85,108.45,176.03,106.52,176.03,106.52z"/>
	<path class="st3" d="M129.82,121.01c-0.57-5.77-0.84-11.57-0.81-17.37c0.08-20.63-1.31-38.24-1.72-43.25
		c-0.03-0.18,0-0.37,0.05-0.55c0.05-0.18,0.16-0.34,0.29-0.47c0.13-0.13,0.29-0.24,0.44-0.31c0.18-0.05,0.37-0.1,0.55-0.08
		l21.26,0.5c0.37,0.03,0.73,0.16,0.99,0.39c0.26,0.24,0.47,0.57,0.55,0.91c1.23,6.66,7.5,36.88,20.08,41.68
		c14.16,5.41,12.54,10.24,13.84,19.93C186.63,132.11,129.82,121.01,129.82,121.01z"/>
	
		<linearGradient id="SVGID_00000116932402238900005740000017074497274894389161_" gradientUnits="userSpaceOnUse" x1="-402.2477" y1="-10609.3926" x2="-437.9096" y2="-10609.3926" gradientTransform="matrix(1 0 0 1 564 10700)">
		<stop  offset="0" style="stop-color:#FFBE46"/>
		<stop  offset="0.1302" style="stop-color:#FF8757"/>
		<stop  offset="0.5365" style="stop-color:#FF436D"/>
		<stop  offset="0.7917" style="stop-color:#BE249B"/>
		<stop  offset="1" style="stop-color:#7029C4"/>
	</linearGradient>
	<path style="fill:url(#SVGID_00000116932402238900005740000017074497274894389161_);" d="M147.61,113.05
		c1.91-1.46,11.83-0.57,11.83-0.57s8.1-0.86-4.28-17.66c-9.01-12.22-12.3-26.85-13.42-33.9c-0.08-0.44-0.31-0.86-0.65-1.15
		c-0.34-0.29-0.78-0.47-1.23-0.5l-11.15-0.26c-0.21-0.03-0.39,0.03-0.57,0.08c-0.18,0.08-0.37,0.18-0.5,0.34
		c-0.13,0.16-0.24,0.31-0.31,0.5c-0.05,0.18-0.08,0.39-0.05,0.6c0.44,5.17,1.78,22.67,1.72,43.12c-0.03,5.8,0.24,11.6,0.81,17.37
		c0,0,2.59,0.5,6.61,1.2l8.54-0.91C144.95,121.3,143.14,116.44,147.61,113.05z"/>
	<path class="st5" d="M155.37,104.14c-0.13,0-0.26-0.03-0.39-0.08s-0.24-0.13-0.31-0.24c-0.31-0.34-0.34-0.84-0.05-1.1l8.25-7.03
		l-13.61-2.56c-0.16-0.03-0.31-0.1-0.44-0.21s-0.24-0.24-0.29-0.37c-0.05-0.13-0.08-0.29-0.08-0.42c0.03-0.16,0.08-0.29,0.18-0.39
		l8.46-7.89l-12.72-3.63c-0.16-0.05-0.31-0.13-0.44-0.26c-0.13-0.13-0.21-0.29-0.26-0.44c-0.05-0.16-0.05-0.29,0.03-0.44
		c0.05-0.13,0.16-0.26,0.29-0.31l9.43-4.75l-12.85-5.48c-0.16-0.08-0.29-0.18-0.39-0.31s-0.18-0.29-0.21-0.47
		c-0.03-0.16,0-0.31,0.08-0.42c0.08-0.13,0.21-0.21,0.34-0.26l12.38-3.71c0.21-0.05,0.44-0.03,0.63,0.08
		c0.21,0.1,0.34,0.26,0.44,0.47c0.05,0.08,0.08,0.18,0.1,0.29c0,0.1,0,0.21-0.03,0.29c-0.03,0.08-0.08,0.18-0.16,0.24
		c-0.08,0.08-0.16,0.13-0.26,0.16l-10.45,3.13l12.43,5.3c0.16,0.05,0.29,0.16,0.39,0.29c0.1,0.13,0.18,0.26,0.21,0.42
		c0.03,0.13,0.03,0.29-0.03,0.42c-0.05,0.13-0.16,0.24-0.29,0.31l-9.11,4.6l12.12,3.47c0.16,0.05,0.29,0.13,0.39,0.24
		s0.21,0.24,0.26,0.37c0.05,0.13,0.08,0.26,0.05,0.39c-0.03,0.13-0.08,0.26-0.18,0.37l-8.31,7.76l13.71,2.59
		c0.16,0.03,0.31,0.1,0.44,0.21c0.13,0.1,0.24,0.24,0.29,0.39c0.05,0.13,0.08,0.29,0.05,0.42c-0.03,0.16-0.1,0.29-0.21,0.37
		l-9.51,8.1C155.68,104.09,155.52,104.14,155.37,104.14z"/>
	<path d="M133.17,138.54h58.42c1.51,0,2.48-1.31,2.06-2.82L190,122.06c-0.18-0.68-0.6-1.28-1.12-1.7c-0.55-0.44-1.23-0.71-1.91-0.73
		l-56.75-0.86c-0.31-0.03-0.63,0.03-0.94,0.16c-0.29,0.13-0.55,0.31-0.76,0.55c-0.21,0.24-0.37,0.52-0.44,0.84
		c-0.08,0.31-0.1,0.63-0.03,0.94l1.98,14.52c0.13,0.76,0.52,1.44,1.1,1.96C131.65,138.22,132.38,138.51,133.17,138.54z"/>
	<path d="M142,69.17c0.68-0.73,0.5-2.01-0.42-2.82s-2.17-0.89-2.85-0.13s-0.5,2.01,0.42,2.82C140.04,69.82,141.32,69.9,142,69.17z"
		/>
	<path d="M145.7,81.23c0.68-0.73,0.5-2.01-0.42-2.82c-0.91-0.81-2.17-0.89-2.85-0.13c-0.68,0.76-0.5,2.01,0.42,2.82
		C143.77,81.91,145.02,81.97,145.7,81.23z"/>
	<path d="M151.14,93.77c0.68-0.73,0.5-2.01-0.42-2.82c-0.91-0.81-2.17-0.89-2.85-0.13s-0.5,2.01,0.42,2.82S150.46,94.5,151.14,93.77
		z"/>
	<path d="M157.33,104.69c0.68-0.73,0.5-2.01-0.42-2.82s-2.17-0.86-2.85-0.13c-0.68,0.73-0.5,2.01,0.42,2.82
		S156.65,105.42,157.33,104.69z"/>
</g>
</svg>
