<svg xmlns="http://www.w3.org/2000/svg" xmlns:xlink="http://www.w3.org/1999/xlink" viewBox="0 0 654.9 527.67"><defs><linearGradient id="linear-gradient" x1="437.46" y1="-598.47" x2="437.46" y2="-234.46" gradientTransform="matrix(1, 0, 0, -1, 0, -292.58)" gradientUnits="userSpaceOnUse"><stop offset="0" stop-color="#522cd5"/><stop offset="0.45" stop-color="#8a6fe8"/></linearGradient><linearGradient id="linear-gradient-2" x1="-258.72" y1="-15166.26" x2="-81.14" y2="-14849.65" gradientTransform="translate(694 15392)" gradientUnits="userSpaceOnUse"><stop offset="0" stop-color="#522cd5"/><stop offset="0.44" stop-color="#8a6fe8"/></linearGradient><radialGradient id="radial-gradient" cx="6268.5" cy="-8869.41" r="6.05" gradientTransform="matrix(20.35, -0.09, 0.09, 20.35, -126150.49, 181448.54)" gradientUnits="userSpaceOnUse"><stop offset="0.03" stop-color="#522cd5"/><stop offset="1" stop-color="#8a6fe8"/></radialGradient><linearGradient id="linear-gradient-3" x1="74.3" y1="-561.59" x2="122.69" y2="-333.92" xlink:href="#linear-gradient"/><linearGradient id="linear-gradient-4" x1="-678.41" y1="-15139.29" x2="-524.37" y2="-14845.77" xlink:href="#linear-gradient-2"/><radialGradient id="radial-gradient-2" cx="6279.23" cy="-8843.11" r="6.05" gradientTransform="matrix(22.14, -0.1, 0.1, 22.12, -138028.42, 196652.02)" xlink:href="#radial-gradient"/></defs><g id="Layer_2" data-name="Layer 2"><g id="asset"><path d="M489.28,227.87c-34.92,7.94-71.11,4.43-71,.56,1.06-38.18-1.53-116.47-32.67-194A375.77,375.77,0,0,0,447.49,0C484.14,87.45,489.78,178.59,489.28,227.87Z" fill="url(#linear-gradient)"/><path d="M418.31,227.76l55.85-.26L526.3,526.21l-112.1.52a14.17,14.17,0,0,1-14.43-15.38Z" fill="#522cd5"/><path d="M645.78,447.65c9.69,7.65,9.52,18.71,8.77,30.39l-2.33,35.78a12.74,12.74,0,0,1-12.41,11.7L523,526a12.07,12.07,0,0,1-12.31-11.83,10.51,10.51,0,0,1,0-1.25l.77-37.08c.89-13.48-3.65-18.43-14.08-31.13-17.88-21.7-70.74-140-65.71-217l57.51-.26C493.07,273.18,553.44,374.76,645.78,447.65Z" fill="url(#linear-gradient-2)"/><path d="M654.59,478c.55-8.17.69-16-2.5-22.59l-145.71.66c4,5.92,5.73,11.09,5.18,19.74l-.78,37.08a12.07,12.07,0,0,0,11,13c.42,0,.84,0,1.26,0l116.82-.51a12.76,12.76,0,0,0,12.42-11.7Z" fill="url(#radial-gradient)"/><path d="M147.33,55.76l-27,216.76-71.32-8.88L77.89,31.82A373.54,373.54,0,0,0,147.33,55.76Z" fill="url(#linear-gradient-3)"/><path d="M54.24,225.41l56.51-.26,15.64,302L13,527.67c-8.62,0-14.31-6.93-12.68-15.55Z" fill="#522cd5"/><path d="M218.45,448.8c8.71,7.88,8.51,18,6.27,29.81l-6.81,36.19c-1.21,6.47-7.53,11.78-14,11.81l-162.21.76c-7.35,0-12.18-5.9-10.8-13.26l5.77-37.51c2.56-13.62.58-17.65.84-35.13C38,408.71,53.12,303.22,67.78,225.32l58.2-.26C124.2,271.34,144.26,381.57,218.45,448.8Z" fill="url(#linear-gradient-4)"/><path d="M36.7,476.63l-5.77,37.51c-1.38,7.33,3.44,13.28,10.8,13.25l162.2-.74a15,15,0,0,0,14-11.82l6.81-36.19c1.61-8.56,2.1-16.24-1-22.82l-185.87.83C38.14,463.32,38.31,468.09,36.7,476.63Z" fill="url(#radial-gradient-2)"/></g></g></svg>