<svg xmlns="http://www.w3.org/2000/svg" viewBox="0 0 1514.16 748.48"><g id="Layer_2" data-name="Layer 2"><g id="Layer_1-2" data-name="Layer 1"><g id="asset"><path d="M1050.52,421.45a5.11,5.11,0,0,1-2.45-.88c-2.28-1.51-3.4-4.4-2.49-6.48.39-.89,9.85-22.1,35-38.66,1.82-1.2,4.64-.34,6.29,1.93s1.51,5.08-.31,6.28c-23.49,15.49-32.58,35.71-32.67,35.91A3.22,3.22,0,0,1,1050.52,421.45Z" fill="#a8b82f"/><path d="M1027.75,396.64a5.32,5.32,0,0,1-2.85-1.16c-2.18-1.7-3-4.63-1.91-6.55.43-.73,10.85-18.14,36-32.45,1.9-1.08,4.71-.08,6.26,2.25s1.27,5.09-.63,6.17c-23.62,13.44-33.63,30-33.72,30.2A3.3,3.3,0,0,1,1027.75,396.64Z" fill="#a8b82f"/><path d="M1041.46,429.81a5.47,5.47,0,0,1-3.35-1.59c-2-1.94-2.52-4.87-1.12-6.55,28.85-34.66,70.93-22.38,72.71-21.84a6.14,6.14,0,0,1,4.24,5.79c-.11,2.45-2.19,3.84-4.65,3.09a68.74,68.74,0,0,0-22.77-1.85c-17.14,1.41-31.34,8.74-42.22,21.81A3.25,3.25,0,0,1,1041.46,429.81Z" fill="#c5d43b"/><path d="M448.63,342.73c6.69-21.46,27.13-58.35,27.13-58.35s-6.85,19.63,0,39-8.41,62.76-8.41,62.76-20.78-29-19.85-32.94A68,68,0,0,0,448.63,342.73Z" fill="#3f3c38"/><path d="M851.05,284.34c3.06-35.33,38.19-19,54.07-1.8s-33.46,46-44,34.09S850.28,293.26,851.05,284.34Z" fill="#3f3c38"/><path d="M486.63,266.83c20.19-29.73,44.4-11.09,50.51,5.73S483.81,307.29,480,295.73,481.53,274.34,486.63,266.83Z" fill="#3f3c38"/><circle cx="1116.09" cy="600.03" r="57.82" fill="#4a4844"/><path d="M1128.12,687.53h0a57.83,57.83,0,0,0-97.48-61.66h0a60.1,60.1,0,0,0-3.76,5.77l-18.69,28.69c-4.23,6.5,4.47,17,18.16,27.64a57.72,57.72,0,0,0,51.35,30.12c14.12,6.15,25.29,9,27.26,5.5,3.83-6.79,11.39-18.4,16.84-26.61a57.67,57.67,0,0,0,6.32-9.45S1128.12,687.53,1128.12,687.53Z" fill="#4a4844"/><circle cx="1057.43" cy="690.66" r="57.82" fill="#797672"/><circle cx="1057.43" cy="690.66" r="27.11" fill="#a7a4a0"/><circle cx="393.33" cy="536.57" r="57.82" fill="#4a4844"/><path d="M405.36,624.06h0a57.83,57.83,0,0,0-97.48-61.66h0a60.1,60.1,0,0,0-3.76,5.77l-18.69,28.69c-4.23,6.5,4.47,17,18.15,27.64a57.72,57.72,0,0,0,51.35,30.12c14.12,6.15,25.29,9,27.26,5.5,3.83-6.79,11.39-18.4,16.84-26.61a57.67,57.67,0,0,0,6.32-9.45Z" fill="#4a4844"/><circle cx="334.68" cy="627.19" r="57.82" fill="#797672"/><circle cx="334.68" cy="627.19" r="27.11" fill="#a7a4a0"/><path d="M126.29,341.82C523.16,435.5,1128.09,471.4,1332.12,471.67c196,.26,228.2,104.88,113.13,142.8S312,588.69,97,477C-75,387.67,11.79,314.8,126.29,341.82Z" fill="#6e7f17"/><path d="M128.73,317.11C525.6,410.79,1130.53,446.69,1334.56,447c196,.26,228.2,104.88,113.13,142.8S314.46,564,99.47,452.32C-72.61,363,14.23,290.09,128.73,317.11Z" fill="#c5d43b"/><path d="M871.72,500.32c37.37,31.64,73.67,61.51,108.12,89.26,54.89,3.42,107.76,6.1,157,8C1077,551.31,1005.61,494.46,929.81,430.27l-3.42-2.9c-49.63-3.81-101.29-8.22-154-13.26Q820.51,457,871.72,500.32Z" fill="#a8b82f"/><path d="M486.65,381.2c-50.86-7-101.2-14.59-150.25-22.84q9.11,9.57,18.4,19.2,80.24,83,175,169.86c50.92,6.58,103.66,12.62,157,18.09C614.89,503,547.94,441.35,486.65,381.2Z" fill="#a8b82f"/><path d="M829.77,517.23Q764.36,461.84,704,407.29c-50.5-5.27-101.62-11.11-152.57-17.55C614,449.47,681.61,510.44,753.76,572c52.9,4.91,105.83,9.24,157.6,13C885,563.5,857.69,540.87,829.77,517.23Z" fill="#a8b82f"/><path d="M537.45,31.84,505.71,287.07,577,296,606.89,55.71A373,373,0,0,1,537.45,31.84Z" fill="#6e7f17"/><path d="M844.75,34.4c40.69,92.74,33.7,223.9,25.89,277.48-.56,3.84,40.16-30.51,75.64-35.4,5.61-57.42,7.64-172.73-39.65-276.48A374.31,374.31,0,0,1,844.75,34.4Z" fill="#6e7f17"/><path d="M860.31,118.89s24.3-14.35,59.52-20.4,61.25,79.66,8.27,88-63.49-12.22-63.49-12.22Z" fill="#3f3c38"/><path d="M1182.17,441.86s-3.79.05-39.65-21-143.28-131.66-161-149.31-50.32,28-50.32,28l150.25,175s92.18,2.1,100.5-12.19S1182.17,441.86,1182.17,441.86Z" fill="#6d6a66"/><path d="M1052.25,426.29s17.13,4.29,41.45-2.06,24.79-10.48.18-30.65c-53.27-43.67-96.25-95.7-119.8-115s-27.53-22.7-49.16-18.2c-19.39,4-34.69,10.59-39.34,20.79S1052.25,426.29,1052.25,426.29Z" fill="#3f3c38"/><path d="M1008.05,372.66a5,5,0,0,1-1.82-.51c-2.39-1.18-3.89-4-3.33-6.26.18-.74,4.74-18.35,32-33.42,1.92-1.06,4.72,0,6.26,2.31s1.23,5.09-.69,6.15c-24.9,13.75-28.88,29.07-28.92,29.23A3.24,3.24,0,0,1,1008.05,372.66Z" fill="#a8b82f"/><path d="M985.62,353.12a5,5,0,0,1-2-.6c-2.36-1.27-3.75-4.1-3.1-6.32.26-.88,6.53-21.58,30.19-32.86,2-.95,4.77.22,6.22,2.6s1,5.08-1,6c-21,10-26.78,28.65-26.84,28.83A3.23,3.23,0,0,1,985.62,353.12Z" fill="#a8b82f"/><path d="M850.51,306.29c-1.16-8.79.54-22,.54-22s4.08,18.25,9,23.24,6.91-7.26,14.4-21.3S887,259,927.62,292.47s103.68,92.72,122.57,115.41,16,47.88,16,47.88l-98.8,13.55-94.81-73.83S852.28,319.73,850.51,306.29Z" fill="#6d6a66"/><path d="M1027.38,337.77a4.27,4.27,0,0,1-.9-.16c-.47-.13-47.59-13-84.5-9-2.31.25-4.86-1.61-5.7-4.17s.36-4.83,2.67-5.08c38.49-4.19,85.71,8.7,87.7,9.25a6.17,6.17,0,0,1,4.37,5.71A3.3,3.3,0,0,1,1027.38,337.77Z" fill="#c5d43b"/><path d="M1059.81,362.64a4.22,4.22,0,0,1-1.07-.21c-.57-.18-57.27-17.85-95.08-10.35-2.24.44-4.88-1.24-5.89-3.77s0-4.93,2.23-5.38c39.82-7.9,96.84,9.88,99.25,10.64a6.17,6.17,0,0,1,4.19,5.83A3.27,3.27,0,0,1,1059.81,362.64Z" fill="#c5d43b"/><path d="M987,375.83a5.92,5.92,0,0,1-4.49-3.05c-1.38-2.41-.86-5.08,1.17-5.95,11.87-5.12,29.89-6.08,53.57-2.83a268.88,268.88,0,0,1,31.81,6.33,6.17,6.17,0,0,1,4.37,5.71,3.35,3.35,0,0,1-4.53,3.25c-.54-.15-54.53-14.81-80.21-3.72A3.69,3.69,0,0,1,987,375.83Z" fill="#c5d43b"/><path d="M1015.16,403.2a5.93,5.93,0,0,1-4.5-3.06c-1.38-2.41-.84-5.07,1.19-5.94,30.39-13,79.58-8.5,81.66-8.31a6.13,6.13,0,0,1,5.1,5c.39,2.55-1.25,4.44-3.68,4.21-.49-.05-49.35-4.48-78.09,7.8A3.81,3.81,0,0,1,1015.16,403.2Z" fill="#c5d43b"/><path d="M856.83,372.39c-5.71-24.25-6.54-67.36-6.54-67.36a98.29,98.29,0,0,0,22.59,42.15c18.1,19.85,27.91,69.16,27.91,69.16s-37.66-28-39-32.46A96.37,96.37,0,0,0,856.83,372.39Z" fill="#3f3c38"/><path d="M980.11,461.83c10.7-10.71,26.95-30.42,75.83-11,54.7,21.77,119.87,1.4,126.23-9,13.9,5.93,26,23.5,28.87,29.58s-48.38,44.05-114.36,36.35S980.11,461.83,980.11,461.83Z" fill="#3f3c38"/><path d="M713,445.76s-3.5-.47-26-23.28-79-128.39-86.53-145.83-47.74,13.93-47.74,13.93l51.83,169.47s83.57,14.19,98.23,3.12S713,445.76,713,445.76Z" fill="#6d6a66"/><path d="M601.45,415s13.61,6,39.06,3.81,27.9-5.61,15.25-26.13c-27.4-44.42-52.3-91-64.43-110.61s-6.7-23.5-25.11-25.76-37.05,4.37-46.33,12.45S601.45,415,601.45,415Z" fill="#3f3c38"/><path d="M602.24,410.64a3.24,3.24,0,0,1-1.82-1.08c-1.35-1.59-.95-4.21.9-5.86.8-.71,19.91-17.54,51.11-28.29a3.48,3.48,0,0,1,4.82,2.49,5,5,0,0,1-3.37,5.32c-29.18,10.06-47.47,26.08-47.65,26.24A4.6,4.6,0,0,1,602.24,410.64Z" fill="#a8b82f"/><path d="M593.56,386.4a3.23,3.23,0,0,1-2-1.38c-1.16-1.75-.51-4.36,1.47-5.85.76-.57,18.88-14,49-22.85a3.44,3.44,0,0,1,4.64,2.76,5,5,0,0,1-3.61,5.18c-28.29,8.29-45.64,21.11-45.81,21.23A4.44,4.44,0,0,1,593.56,386.4Z" fill="#a8b82f"/><path d="M587.27,363.3a3.34,3.34,0,0,1-1.42-.68c-1.62-1.33-1.61-3.92,0-5.79.53-.61,13.38-15,45.83-24.21a3.44,3.44,0,0,1,4.6,2.81,5,5,0,0,1-3.66,5.15C603,349,591.83,361.5,591.72,361.63A4.72,4.72,0,0,1,587.27,363.3Z" fill="#a8b82f"/><path d="M576.3,343.61a3.24,3.24,0,0,1-1.53-.78c-1.54-1.4-1.43-4,.26-5.81.67-.71,16.61-17.53,43.87-24a3.42,3.42,0,0,1,4.43,3,5.06,5.06,0,0,1-3.87,5,84.59,84.59,0,0,0-38.82,21A4.72,4.72,0,0,1,576.3,343.61Z" fill="#a8b82f"/><path d="M475.34,285.48c3.26-7.66,11.29-18.66,11.29-18.66s-5.24,16.12-3.13,21.05,9.92-5.26,23.69-16.23,24.88-21.63,45.72,12.42,49.54,93.05,55.71,115-8.88,43-8.88,43l-97.33-1.73-50.7-75.74S470.35,297.19,475.34,285.48Z" fill="#6d6a66"/><path d="M622.18,336.13a3.89,3.89,0,0,1-.75-.25c-.37-.17-37.29-17.47-73.14-19a3.4,3.4,0,0,1-3.18-4.32,5.08,5.08,0,0,1,4.95-4c37.39,1.61,74.38,18.95,75.94,19.69,1.92.91,2.46,3.35,1.2,5.46A4.94,4.94,0,0,1,622.18,336.13Z" fill="#c5d43b"/><path d="M639.7,361.71a3.44,3.44,0,0,1-.88-.32c-.43-.23-43.78-22.93-82.17-21.62a3.39,3.39,0,0,1-3.55-4,5.12,5.12,0,0,1,4.69-4.29c40.43-1.38,84,21.46,85.85,22.43s2.31,3.47,1,5.54A4.83,4.83,0,0,1,639.7,361.71Z" fill="#c5d43b"/><path d="M566.37,363.17a3.29,3.29,0,0,1-2.62-3.21,5.09,5.09,0,0,1,4-4.92c13.41-2.77,30.42-1.16,50.56,4.79a196.48,196.48,0,0,1,26.08,9.68c1.92.91,2.46,3.35,1.2,5.46s-3.84,3.07-5.76,2.17c-.42-.2-42.76-20-71.78-14A4.13,4.13,0,0,1,566.37,363.17Z" fill="#c5d43b"/><path d="M578.78,390.31a3.29,3.29,0,0,1-2.62-3.22,5.09,5.09,0,0,1,4-4.91c34.27-7,77.22,3.45,79,3.89,2.11.52,3.1,2.75,2.2,5a4.94,4.94,0,0,1-5.45,3.1c-.43-.11-43.08-10.46-75.5-3.85A4.13,4.13,0,0,1,578.78,390.31Z" fill="#c5d43b"/><path d="M589.82,416.55a3.25,3.25,0,0,1-2.29-1.81c-.9-1.92.08-4.49,2.19-5.74,43.52-25.69,76.11-9.55,77.47-8.86,1.89,1,2.35,3.43,1,5.51s-3.9,3-5.79,2c-.07,0-7.66-3.81-20-4.64C626,401.92,609.38,406.27,593,416A4.28,4.28,0,0,1,589.82,416.55Z" fill="#c5d43b"/><path d="M517.77,435.62c15.09-7.7,37.59-17.05,80.8-2.5S702.07,453.77,713,445.75c9.85,6.93,12.35,23.55,11.94,29.12S671.71,494.43,615,479,517.77,435.62,517.77,435.62Z" fill="#3f3c38"/><path d="M444.7,354c1.55-4.35,3.93-11.31,3.93-11.31s40.55,65.33,74.63,93.28c41.54,34.06,102.3,39.66,137.59,42.95,34.41,3.2,57.75-2.2,64.38-8.49,4.25,4.51.57,16.5-4.2,31.38S696.91,533.48,622,523s-116.42-42.29-133.2-69.87-36.61-55.54-41.69-62.83c-8.08-11.6-10.45-15.82-6.86-25.32C442,360.33,443.23,358.15,444.7,354Z" fill="#eeedec"/><path d="M517.43,103.37s26.78-8.93,62.48-7.44,43.14,90.75-10.41,87.77S510,158.41,510,158.41Z" fill="#3f3c38"/><path d="M1218.92,493.84c-4.6-17.74-10.18-27.2-10.18-27.2s-4.89,7.11-21.63,14.92-129,29.91-214.88-27.35a46.13,46.13,0,0,0-6.21-3.45c-37-25.28-109.18-78.37-109.18-78.37s2.08,16,4.45,25.4,3.21,12.89,11.59,19c7.82,5.73,52.6,40.16,88,69.69,33.77,29.29,79.64,58.88,148.06,55.34C1184.31,537.93,1223.52,511.58,1218.92,493.84Z" fill="#eeedec"/></g></g></g></svg>