<svg xmlns="http://www.w3.org/2000/svg" viewBox="0 0 1470.37 662.19"><g id="Layer_2" data-name="Layer 2"><g id="Layer_1-2" data-name="Layer 1"><g id="asset"><path d="M758.45,112.26l-57.1-78.68-.28-.39-.48,0a375.46,375.46,0,0,1-85.11-13.69l-2.77-.78,78.92,108.74L530.19,288a31.51,31.51,0,1,0,44.44,44.68L755.19,153.11A31.38,31.38,0,0,0,758.45,112.26Z" fill="#0064da"/><path d="M945.75,100.31,873,0l-.74.34a373.6,373.6,0,0,1-59.82,21.15l-1.42.37,68,93.63L717.49,276a31.51,31.51,0,1,0,44.43,44.68L942.48,141.16A31.39,31.39,0,0,0,945.75,100.31Z" fill="#0064da"/><path d="M1143.37,651.41,0,284.77,76.91,268.3l1094.52,351c73.85,23.68,156,11.54,156,11.54l6.76,8.3S1237.11,681.47,1143.37,651.41Z" fill="#0064da"/><path d="M1279.52,620.2,136.15,253.56l76.91-16.47,1094.52,351c73.85,23.68,156,11.54,156,11.54l6.76,8.3S1373.25,650.26,1279.52,620.2Z" fill="#0064da"/><path d="M915,488.21,593.4,383.12,611.08,329c6.76-20.69,176.4-178.4,176.4-178.4L896.6,247.93,819.37,340.3A12.35,12.35,0,0,0,822.78,359l76.31,43C943.72,427.15,915,488.21,915,488.21Z" fill="#e75153"/><path d="M593.39,383.12l19.61-60a8.84,8.84,0,0,1,11.27-5.64c12.83,4.42,36.47,15.41,45.8,38.36,7.64,18.77,7.87,33.92,6.72,43.29a9,9,0,0,1-11.71,7.41Z" fill="#58585a"/><path d="M899.09,402l-16.7-9.41c-46,15.15-49.16,68.92-49.16,68.92L915,488.22S943.72,427.15,899.09,402Z" fill="#58585a"/><path d="M868.48,294.66l-80.11-64.84a7.22,7.22,0,0,1-1.07-10.14l10.21-12.62A7.22,7.22,0,0,1,807.65,206l80.11,64.84A7.22,7.22,0,0,1,888.83,281l-10.21,12.62A7.22,7.22,0,0,1,868.48,294.66Z" fill="#cccac7"/><path d="M835,336l-80.11-64.84A7.22,7.22,0,0,1,753.85,261l10.21-12.62a7.22,7.22,0,0,1,10.14-1.07l80.11,64.84a7.22,7.22,0,0,1,1.07,10.14l-10.21,12.62A7.22,7.22,0,0,1,835,336Z" fill="#cccac7"/><path d="M895.18,482s6.06-29.11,28.14-25.72c22.83,15.67,54.94,38.51,54.94,38.51l.79,13.75Z" fill="#cccac7"/><path d="M647.57,400.83,651.44,389a7.18,7.18,0,0,0-1.34-6.88l-30.25-35.89a11.64,11.64,0,0,1-2-11.6l6.43-17.13L610.77,235l-15,2.56,11.43,73.18s-28.33,14.82-43.78,28c-9.1,7.74-21.37,27.66-21.37,27.66Z" fill="#cccac7"/><path d="M754.92,271.13l38.62,31.26,20-23.22L774.2,247.31a7.21,7.21,0,0,0-10.14,1.07L753.85,261A7.21,7.21,0,0,0,754.92,271.13Z" fill="#fff"/><path d="M788.37,229.81l39.9,32.3,20-23.22L807.65,206a7.21,7.21,0,0,0-10.14,1.07L787.3,219.69A7.19,7.19,0,0,0,788.37,229.81Z" fill="#fff"/><path d="M727.66,500.16,406.09,395.07,423.77,341c6.76-20.69,176.4-178.4,176.4-178.4l109.12,97.32-77.23,92.37a12.35,12.35,0,0,0,3.41,18.69l76.31,43C756.42,439.1,727.66,500.16,727.66,500.16Z" fill="#e75153"/><path d="M406.09,395.07l19.61-60A8.84,8.84,0,0,1,437,329.43c12.83,4.42,36.47,15.41,45.8,38.36,7.64,18.77,7.87,33.92,6.72,43.29a9,9,0,0,1-11.71,7.41Z" fill="#58585a"/><path d="M711.79,414l-16.7-9.41c-46,15.15-49.16,68.92-49.16,68.92l81.72,26.71S756.42,439.1,711.79,414Z" fill="#58585a"/><path d="M681.18,306.61l-80.11-64.84A7.22,7.22,0,0,1,600,231.63L610.21,219a7.22,7.22,0,0,1,10.14-1.07l80.11,64.84a7.22,7.22,0,0,1,1.07,10.14l-10.21,12.62A7.22,7.22,0,0,1,681.18,306.61Z" fill="#cccac7"/><path d="M647.73,347.93l-80.11-64.84A7.22,7.22,0,0,1,566.55,273l10.21-12.62a7.22,7.22,0,0,1,10.14-1.07L667,324.1a7.22,7.22,0,0,1,1.07,10.14l-10.21,12.62A7.22,7.22,0,0,1,647.73,347.93Z" fill="#cccac7"/><path d="M705.05,493.19s8.76-26.42,31-24.93C758.25,483.15,791,506.77,791,506.77l.79,13.75Z" fill="#cccac7"/><path d="M460.27,412.78l3.87-11.84a7.18,7.18,0,0,0-1.34-6.88l-30.25-35.89a11.64,11.64,0,0,1-2-11.6L437,329.44l-13.51-82.53-15,2.56,11.43,73.18s-28.33,14.82-43.78,28c-9.1,7.74-21.37,27.66-21.37,27.66Z" fill="#cccac7"/><path d="M624.25,289.49,586.9,259.26a7.21,7.21,0,0,0-10.14,1.07L566.55,273a7.21,7.21,0,0,0,1.07,10.14l36.85,29.82Z" fill="#fff"/><path d="M601.07,241.76l37.71,30.53,19.78-23.42-38.21-30.93A7.21,7.21,0,0,0,610.21,219L600,231.63A7.21,7.21,0,0,0,601.07,241.76Z" fill="#fff"/></g></g></g></svg>