<svg xmlns="http://www.w3.org/2000/svg" viewBox="0 0 1418.6 607.2"><g id="Layer_2" data-name="Layer 2"><g id="Layer_1-2" data-name="Layer 1"><g id="asset"><path d="M508,8.67,486.13,172.88a37.14,37.14,0,1,0,73.63,9.78L579.63,33.44A373.67,373.67,0,0,1,508,8.67Z" fill="#044e87"/><path d="M1220.1,606.41c-4,.77-156.31,3.92-398.49-11.39C679.2,586,546.1,568.29,426,542.34,274.34,509.56,154.47,479.83,46.8,421.62c-37-20-75.07-76.63-12.59-128.2C77,258.15,153.84,232.17,214.3,265.5c96.25,53.07,170.14,94.74,308.34,124.73,112,24.3,238.92,38.21,372.55,46.8,229.19,14.72,474.49-47.76,476.27-47.91,50.37-4.18,57.44,69.19,35,111.79C1373.31,564.09,1295.14,598,1220.1,606.41Z" fill="#6d6a66"/><path d="M1219.13,588.44c-4,.77-156.31,3.92-398.49-11.39-142.41-9-275.51-26.73-395.6-52.68C273.37,491.59,153.5,461.86,45.83,403.65c-37-20-75.07-76.63-12.59-128.2C76,240.18,152.87,214.2,213.33,247.53c96.25,53.07,170.14,94.74,308.34,124.73,112,24.3,238.92,38.21,372.55,46.8,229.19,14.72,474.49-47.76,476.27-47.91,50.37-4.18,57.44,69.19,35,111.79C1372.34,546.12,1294.17,580,1219.13,588.44Z" fill="#f7b548"/><path d="M894.22,419.05c-133.63-8.58-260.6-22.5-372.55-46.8-86.86-18.85-148.31-42.32-205.88-70.33C239.29,337,153.11,374.74,61.53,411.85,165.16,464.7,280.69,493.15,425,524.35c120.09,26,253.19,43.68,395.6,52.68,105.35,6.66,193.69,9.83,260.23,11.22,77-71.48,143.4-141.61,193-197C1181,408.12,1034.6,428.07,894.22,419.05Z" fill="#e86e58"/><path d="M1157.42,409c-79.57,9.68-172.64,15.92-263.19,10.1-133.63-8.58-260.6-22.5-372.55-46.8-47.61-10.34-87.59-22.06-123.48-35.16-64.57,34.32-153.42,79.09-241.69,115.74,79.12,28.83,166.65,49.5,268.53,71.52,120.09,26,253.19,43.68,395.6,52.68,59.25,3.75,113.12,6.39,160.75,8.23C1043.46,525.79,1114.89,452.86,1157.42,409Z" fill="#fff"/><path d="M337.83,504.83c27.91,6.56,56.92,13,87.21,19.53,107.59,23.25,225.62,39.89,351.43,49.58,87.34-53.2,154-112.54,194.39-152.65-25.51.08-51.17-.6-76.64-2.24-115.18-7.4-225.41-18.76-325.34-37.32C508.72,416.87,425,463.5,337.83,504.83Z" fill="#f7b548"/><path d="M995.21,80.63,841.86,0a373.34,373.34,0,0,1-90.92,33.85l181.28,85.81L895.57,211.2a34.64,34.64,0,0,0,64.32,25.74L1006.31,121A34.61,34.61,0,0,0,995.21,80.63Z" fill="#044e87"/><path d="M898.62,151.52a11.43,11.43,0,0,1,10.1-6.83c19.26-.62,72.5-2.36,101.61-3.41a14.9,14.9,0,0,1,14.35,20.45L974.92,285c-1.86,4.63-10,23.44,4.19,44.37,15.39,22.64,45.6,56.83,67.53,87.91,26.79,37.95-32.4,67.8-32.4,67.8l-211-116.92Z" fill="#0e8ec5"/><path d="M1025.4,495.14c11.51-13.39,20.24-26.57,25.24-44.63-68.78-7.83-175.38-122.81-135.17-203.17,9.4-18.78,30.3-70,45.13-104.36-21.1.7-41.46,1.37-51.88,1.7a11.43,11.43,0,0,0-10.1,6.83l-110,240.92A30.27,30.27,0,0,0,804,432.71l182.34,69.11C1000.73,508.18,1015.14,507.06,1025.4,495.14Z" fill="#044e87"/><path d="M1003.46,220.65l-75.23-30.57a8.81,8.81,0,0,1-4.84-11.46l3.15-7.75A8.81,8.81,0,0,1,938,166l75.23,30.57a8.81,8.81,0,0,1,4.84,11.46l-3.15,7.75A8.81,8.81,0,0,1,1003.46,220.65Z" fill="#77e3fb"/><path d="M989.17,260.82l-75.23-30.57a8.81,8.81,0,0,1-4.84-11.46l3.15-7.75a8.81,8.81,0,0,1,11.46-4.84l75.23,30.57a8.81,8.81,0,0,1,4.84,11.46l-3.15,7.75A8.8,8.8,0,0,1,989.17,260.82Z" fill="#77e3fb"/><path d="M972.33,301.09,897.1,270.52a8.81,8.81,0,0,1-4.84-11.46l3.15-7.75a8.81,8.81,0,0,1,11.46-4.84L982.1,277a8.81,8.81,0,0,1,4.84,11.46l-3.15,7.75A8.8,8.8,0,0,1,972.33,301.09Z" fill="#77e3fb"/><path d="M425.63,439.54s27.15-206.8,33-232.62,118-94.33,114.51-43.52c-2.46,36.34-6.19,87.78-8.11,114.13-.76,10.41,4.56,28.68,10.47,37.29,34,49.5,78.06,75,88.75,87.88,7.44,9-4.47,32.55-36.44,37.89C558,452.26,425.63,439.54,425.63,439.54Z" fill="#0e8ec5"/><path d="M468.26,298c4.1-40.48,7.74-74.29,12.28-116.79-11,7.81-20,17.48-21.88,25.7-4.56,20-25,165.16-34,229.49-2.36,16.92,9.79,31.17,26.52,34.65,40,8.31,113,22,197.27,2.83,22.55-5.13,26.88-45,17.23-68-5.25,11.62-16.63,25.82-35.56,26.87C565.86,436.36,462.26,357.21,468.26,298Z" fill="#044e87"/><path d="M572.07,201.28l-69.69,10.9a7.35,7.35,0,0,1-8.56-6.1l-1-6.92a7.65,7.65,0,0,1,6.53-8.46l69.69-10.9a7.35,7.35,0,0,1,8.56,6.1l1,6.92A7.65,7.65,0,0,1,572.07,201.28Z" fill="#77e3fb"/><path d="M572,238.94l-69.69,10.9a7.35,7.35,0,0,1-8.56-6.1l-1-6.92a7.65,7.65,0,0,1,6.53-8.46L569,217.46a7.35,7.35,0,0,1,8.56,6.1l1,6.92A7.66,7.66,0,0,1,572,238.94Z" fill="#77e3fb"/><path d="M571.13,279l-69.69,10.9a7.35,7.35,0,0,1-8.56-6.1l-1-6.92a7.65,7.65,0,0,1,6.53-8.46l69.69-10.9a7.35,7.35,0,0,1,8.56,6.1l1,6.92A7.65,7.65,0,0,1,571.13,279Z" fill="#77e3fb"/></g></g></g></svg>