<svg xmlns="http://www.w3.org/2000/svg" viewBox="0 0 701.15 641.49"><g id="Layer_2" data-name="Layer 2"><g id="Layer_1-2" data-name="Layer 1"><g id="asset"><ellipse cx="332.83" cy="597.19" rx="314.6" ry="42.83" transform="translate(-21.4 12.44) rotate(-2.07)" fill="#625f5b" opacity="0.22" style="isolation:isolate"/><path d="M9.78,449.18S-2.09,476.36.33,481.85c3.89,8.82,9.2,13.3,36.08,20.68,25.09,6.88,152.38,22.7,200.44,17.08,44.23-5.17,42.67-41,40-52.71S9.78,449.18,9.78,449.18Z" fill="#3f3c38"/><path d="M75.59,254.61C49.21,316.91,22.5,404.29,10.24,446.08c-4,13.56,5.6,27.7,21,31,33.31,7.11,96.34,17.65,189,21.22,61.28,2.36,88.78-74.08,28.16-113.38-25.85-16.76-62.29-18.41-62.29-18.41s-19.53-81.06-21-107.91S84.65,233.2,75.59,254.61Z" fill="#c4c1be"/><path d="M259.87,393.66c-32.79-13.49-79.1-12.74-121.67,19.7-64,48.74-72.8,5.32-73.15-8.81s-3.38-58.78,38.69-145.66L82.46,247.23c-3.27,2.11-5.68,4.57-6.87,7.38C49.21,316.91,22.5,404.29,10.24,446.08c-4,13.56,5.6,27.7,21,31,33.31,7.11,96.34,17.65,189,21.22C277.28,500.48,305,434.52,259.87,393.66Z" fill="#eeedec"/><ellipse cx="51.46" cy="360.81" rx="30.04" ry="27.78" transform="translate(-295.33 248.7) rotate(-63.97)" fill="#f7b548"/><path d="M126.57,236.22c-62.82-11.54-77.24-1.46-79.35,6.4-3,11.2,18.69,24,72.47,33.66,56.14,10.07,72.51,3.56,75.13-4.79S177.8,245.63,126.57,236.22Z" fill="#3e8eed"/><path d="M432.12,461s-5.48,29.15-1.89,34c5.76,7.72,11.94,10.9,39.8,12.07,26,1.09,153.59-12,199.17-28.26,41.95-14.95,32.39-49.56,27.19-60.34S432.12,461,432.12,461Z" fill="#3f3c38"/><path d="M452.66,256.67c-11.75,66.63-18.2,157.77-20.79,201.24C431,472,443.54,483.65,459.31,483.4c34.05-.53,97.84-4.38,189-21.66,60.25-11.43,69.92-92.08,2-116.81-28.94-10.54-64.83-4-64.83-4s-37.2-74.63-44.64-100.46S456.7,233.77,452.66,256.67Z" fill="#c4c1be"/><path d="M663.41,350.9c-35-5.8-79.94,5.31-114.17,46.46-51.43,61.84-69.75,21.49-73.27,7.8S459.51,348.63,481,254.53l-23.35-6.6c-2.72,2.78-4.51,5.73-5,8.73-11.75,66.63-18.2,157.77-20.79,201.24C431,472,443.53,483.64,459.3,483.39c34.05-.53,97.84-4.38,189-21.66C704.31,451.11,716.58,380.61,663.41,350.9Z" fill="#eeedec"/><ellipse cx="453.57" cy="368.05" rx="30.04" ry="27.78" transform="translate(-7.61 726.51) rotate(-76.91)" fill="#f7b548"/><path d="M498.23,227.33c-63.8,2.83-75.6,15.88-75.89,24-.42,11.59,23.6,19.21,78.17,16.57,57-2.76,71.46-12.77,72.15-21.5S550.26,225,498.23,227.33Z" fill="#3e8eed"/><path d="M128.68,209.35c-62.82-11.54-77.24-1.46-79.35,6.4-3,11.2,18.69,24,72.47,33.66,56.14,10.07,72.51,3.56,75.13-4.79S179.91,218.76,128.68,209.35Z" fill="#227be5"/><path d="M494.26,200.67c-63.8,2.83-75.6,15.88-75.89,24-.42,11.59,23.6,19.21,78.17,16.57,57-2.76,71.46-12.77,72.15-21.5S546.29,198.36,494.26,200.67Z" fill="#227be5"/><path d="M115.5,31.8,92.71,217.18,164,224.41l21-168.68A374.24,374.24,0,0,1,115.5,31.8Z" fill="#0064da"/><path d="M167.84,193.28c-1.33,9.22-4.61,16.08-39.22,12.73s-33.05-15.49-31.38-26c-31.17-1.8-39.79,5.4-41.39,11.34-3,11.2,18.69,24,72.47,33.66,56.14,10.07,72.51,3.56,75.13-4.79C205.42,214,194.86,202.57,167.84,193.28Z" fill="#3e8eed"/><path d="M423.24,34.44c26.51,65.94,32.33,132.47,32.83,174.36.09,7.33,70.85,3.45,70.57-5.59C525.06,151.51,516.29,74.41,485.13,0A375.32,375.32,0,0,1,423.24,34.44Z" fill="#0064da"/><path d="M525.52,175.92c.86,9.88-1.74,17.81-34.85,20.42-29.39,2.31-35-5.72-35.81-16.81-28.92,5.28-35.39,13.94-35.6,19.93-.42,11.59,23.6,19.21,78.17,16.57,57-2.76,71.46-12.77,72.15-21.5C570.11,187.74,556.24,178.57,525.52,175.92Z" fill="#3e8eed"/></g></g></g></svg>