<svg xmlns="http://www.w3.org/2000/svg" xmlns:xlink="http://www.w3.org/1999/xlink" viewBox="0 0 400 481.64"><defs><linearGradient id="linear-gradient" x1="227.64" y1="-954.73" x2="234.61" y2="-672.58" gradientTransform="matrix(1, 0, 0, -1, 0, -420.6)" gradientUnits="userSpaceOnUse"><stop offset="0.05" stop-color="#522cd5"/><stop offset="0.5" stop-color="#8a6fe8"/><stop offset="0.67" stop-color="#7f62e4"/><stop offset="0.99" stop-color="#6240da"/><stop offset="1" stop-color="#613eda"/></linearGradient><linearGradient id="linear-gradient-2" x1="133.27" y1="-896.29" x2="366.25" y2="-480.9" gradientTransform="matrix(1, 0, 0, -1, 0, -420.6)" gradientUnits="userSpaceOnUse"><stop offset="0" stop-color="#522cd5"/><stop offset="0.44" stop-color="#8a6fe8"/><stop offset="0.62" stop-color="#886ce7"/><stop offset="0.75" stop-color="#8063e5"/><stop offset="0.87" stop-color="#7253e0"/><stop offset="0.98" stop-color="#603dda"/><stop offset="1" stop-color="#5b37d8"/></linearGradient></defs><g id="Layer_2" data-name="Layer 2"><g id="asset"><path d="M119.39,406.7c0,41.39-26.72,74.94-59.69,74.94S0,448,0,406.7s26.72-75,59.7-75S119.39,365.25,119.39,406.7Z" fill="#512bd4"/><path d="M400,406.7c0,41.39-26.72,74.94-59.7,74.94H59.7c33,0,59.69-33.55,59.69-74.94,0-37.9-22.39-69.22-51.48-74.24.15-.24.32-.47.48-.71H340.3c12.68,0,24.45,5,34.11,13.44C387.87,357,397.28,375.54,399.5,397A96.17,96.17,0,0,1,400,406.7Z" fill="url(#linear-gradient)"/><ellipse cx="55.33" cy="406.65" rx="40.65" ry="51.04" fill="#d8cff7"/><path d="M390,344.12V396.9c-2-21.41-10.66-40-23-51.76V338.7c0-14-20-23-29-23H109c-14.59,0-28,12-30.74,16.71A45.3,45.3,0,0,0,72,354.7v40c0,13,5,38-13,38s-9-44-9-83,27-55,49-61,91-6,91-48c0-17,.53-76.28.53-76.28.83-30,1.36-99-3-164.42Q206,1.83,225,1.85h.08q17.29,0,34.21-1.53c.75,59.53,2.53,133.6,2.2,163.54.26,4.37,2.5,42.45,2.5,83.84,0,35,70,38,97,44S390,321.7,390,344.12Z" fill="url(#linear-gradient-2)"/></g></g></svg>