<svg xmlns="http://www.w3.org/2000/svg" xmlns:xlink="http://www.w3.org/1999/xlink" viewBox="0 0 1123.03 782.5"><defs><linearGradient id="linear-gradient" x1="527.1" y1="-292.66" x2="527.1" y2="-819.35" gradientTransform="matrix(1, 0, 0, -1, 0, -292.66)" gradientUnits="userSpaceOnUse"><stop offset="0" stop-color="#522cd5"/><stop offset="0.44" stop-color="#8a6fe8"/></linearGradient><radialGradient id="radial-gradient" cx="6275.2" cy="-8869.46" r="6.05" gradientTransform="translate(-126280.66 181450) rotate(-0.26) scale(20.35)" gradientUnits="userSpaceOnUse"><stop offset="0.03" stop-color="#522cd5"/><stop offset="1" stop-color="#8a6fe8"/></radialGradient><linearGradient id="linear-gradient-2" x1="120.95" y1="-324.44" x2="120.95" y2="-821.77" xlink:href="#linear-gradient"/></defs><g id="Layer_2" data-name="Layer 2"><g id="Layer_1-2" data-name="Layer 1"><g id="asset"><path d="M652.52,447.61C531.4,396.27,514.1,331.52,500.71,227.71,495.39,152.37,490.81,87.33,454.22,0a375.91,375.91,0,0,1-61.88,34.43c31,77,33.7,154.87,32.69,193.29h0L406.47,511.31a14.2,14.2,0,0,0,14.43,15.38l112.1-.52,0-.18,113.58-.51A12.72,12.72,0,0,0,659,513.78L661.29,478C662,466.32,663.88,452.43,652.52,447.61Z" fill="url(#linear-gradient)"/><path d="M661.29,478c.55-8.17.69-16-2.5-22.59l-145.71.66c4,5.92,5.72,11.09,5.18,19.74l-.78,37.08A12.07,12.07,0,0,0,529.75,526l116.82-.51A12.74,12.74,0,0,0,659,513.76Z" fill="url(#radial-gradient)"/><path d="M194.23,437.75c-71.38-35.9-61.89-183.24-56.87-236.83L154,55.72A373.39,373.39,0,0,1,84.59,31.78L59.69,232,11.78,492.27c-1.64,8.63-5.86,23.44,16.74,36.84l104.56-2v-.22l77.54-.36c6.47,0,12.79-5.35,14-11.81l6.81-36.19C233.66,466.76,202.94,445.62,194.23,437.75Z" fill="url(#linear-gradient-2)"/><path d="M420.9,526.69s58.45-110.62,106-130.42c41.58-17.3,76.74-2.51,76.74-2.51S788.14,483.34,1123,549.2c-33.49,8.93-107.16,25.12-105.49,58.6C954.47,592.73,911.4,648.26,904,647.52,841.76,641.31,587.24,528.74,420.9,526.69Z" fill="#9eae2b"/><path d="M490.1,424.18s82.47,31.82,125,41.3c71.81,16,68.09-11.53,68.09-11.53S716,496.37,600.61,480C506,466.57,473.35,446.51,473.35,446.51Z" fill="#81921f"/><path d="M674,439.53c31,42.7-5.86,46.88-54.42,41s-101.3-6.7-16.74,38.51C727,585.44,882.22,629.44,900.62,630.41c23.44-22.33,72.84-49.4,100.74-37.67,22-40.46,63.63-43.53,63.63-43.53S859.59,515.71,674,439.53Z" fill="#c5d43b"/><path d="M691,485c75.07,48.65,309.49,114.42,309.49,114.42l11.16-13.4S802.38,533.57,691,485Z" fill="#9eae2b"/><path d="M500.35,453.34c0-.41-62.05-16.58-77.6-21.06-7.32-2.11-6.7-62.1-6.7-62.1s-11.31-9.82-13.95,5.79c-6.7,39.48-7.26,89.66-7.26,98.59,0,5,2.23,13.63,9.49,16.63,3.77,1.56,82.05,15.32,130.6,17.08C580.54,509.9,591.19,483.76,500.35,453.34Z" fill="#625f5b"/><path d="M27.41,527.43s45.87,10.85,61.53,56.44C119.8,673.73,248.43,782.5,248.43,782.5S302,754,369,774.13c26.79-40.19,161.3-34,161.3-34S280.8,544.73,206.57,434.22c-42.95-63.94-114.79-31-139.53,8.37s-39.63,84.84-39.63,84.84" fill="#9eae2b"/><path d="M255.39,762.35S121.61,616.56,109.81,545.76c-7.35-44.09,2.38-40.09,53.78-40.09,33.58,0,41.52-34.34,41.52-34.34s247,227.84,289.66,250.53c-59-5.45-109.59,10.54-132.28,31.41C303.5,736,255.39,762.35,255.39,762.35Z" fill="#c5d43b"/><path d="M66.66,443.37C163.59,530.78,191.5,502.19,206,458.62c7.24,27.51-11.18,60.44-58.06,53.74-53-7.57-97.12-43-97.12-43Z" fill="#81921f"/><path d="M188.58,528.47C215.48,616,360.72,755.4,360.72,755.4L385.86,749S246,624.47,188.58,528.47Z" fill="#9eae2b"/><path d="M74.42,541.22C14.52,493.12-1.06,477.76.06,471.06s11.16-78.14,17.86-94.88S35.78,363.9,35.78,363.9l-7.65,66.59s10.89,29.95,48.1,59C111.1,516.7,102.73,564,74.42,541.22Z" fill="#625f5b"/></g></g></g></svg>