<?xml version="1.0" encoding="utf-8"?>
<!-- Generator: Adobe Illustrator 24.2.0, SVG Export Plug-In . SVG Version: 6.00 Build 0)  -->
<svg version="1.1" id="asset" xmlns="http://www.w3.org/2000/svg" xmlns:xlink="http://www.w3.org/1999/xlink" x="0px" y="0px"
	 viewBox="0 0 2000 2000" enable-background="new 0 0 2000 2000" xml:space="preserve">
<g>
	<path fill="#C2E8E3" d="M823.2,431.6l-0.3-34l-0.1-9.9l-0.3-37.8l-0.6-80.4L798,256.6L773.2,382c0,0.1,0,0.2,0,0.3l-0.7,3.3
		l-5.6,28.2l-1,5.1l-9.2,46.5l6.9,1.4l9.2-46.4l43.5,9.7l0.3,42.6l7-0.1L823.2,431.6z M815.8,388.7l-31.7-7.6
		c6.6-4.5,19.1-12,31.5-19.2L815.8,388.7z M814.9,273.6l0.7,80.2c-3.4,2-11.4,6.6-19.3,11.4c-6.5,3.9-11.1,6.8-14.4,9l21.2-107
		L814.9,273.6z M774.7,410.1l4.5-22.9l29.5,7.1L774.7,410.1z M780.7,415l35.2-16.4l0.2,24.3L780.7,415z"/>
	<path fill="#512BD4" d="M848.1,477.2c-44.2,14-85.5,36.2-121.7,65.3c-16.4-34.5-1.7-75.7,32.8-92.1c9.3-4.4,19.4-6.7,29.6-6.7
		c2.8,0,5.7,0.2,8.5,0.5C818.4,446.9,837.1,459,848.1,477.2z"/>
	<path fill="#4BC8D0" d="M733.6,111.6c-22.2,59.9,1.7,140.8,33,198.4s113.6,120.4,162.7,122.5L733.6,111.6z"/>
	<path fill="#C2E8E3" d="M944.4,429.6c-5.8,2.6-12.3,3.5-18.6,2.6c-47.4-5.3-116.3-87.3-142.3-138c-19.6-38.4-49.8-103-54.1-148.1
		c-2.2-22.9,2.2-40.8,17.9-47.8c66.1-29.6,160.9,135.4,169.8,154.4S990.1,408.5,944.4,429.6z"/>
	
		<linearGradient id="SVGID_1_" gradientUnits="userSpaceOnUse" x1="411.0308" y1="1062.1127" x2="524.4608" y2="1371.7128" gradientTransform="matrix(0.79 0.61 0.61 -0.79 -260.04 950.02)">
		<stop  offset="3.000000e-02" style="stop-color:#7AD1CE"/>
		<stop  offset="0.17" style="stop-color:#8ED8D4"/>
		<stop  offset="0.46" style="stop-color:#B4E3DF"/>
		<stop  offset="0.61" style="stop-color:#C2E8E3"/>
	</linearGradient>
	<path fill="url(#SVGID_1_)" d="M925.8,432.3c-47.4-5.3-116.3-87.3-142.3-138c-19.6-38.4-49.8-103-54.1-148.1
		c18.5-7.4,43.6,0.1,58,12.7c25,21.8,2.5,69.4,52,113s97.1,67.3,96.9,93.7C936.2,382.2,936.8,414.6,925.8,432.3z"/>
	<path fill="#EFFAF8" d="M822.3,297.2l-1,0.7c-4,1.7-12.2-6.3-14.1-10.5c-2-4.5-4.2-10.6-1.6-12.7l0.3-0.2c4.9-3,13.2,7.2,14.6,9.6
		S825.8,293.2,822.3,297.2z"/>
	<path fill="#DFF5F2" d="M821.3,297.9l-4,2.9l-0.2,0.1l0,0c-3.8,2.6-12.6-5.9-14.6-10.3c-2.1-4.6-4.4-11-1.4-12.9l4.3-3.1
		c-2.6,2.1-0.4,8.3,1.6,12.7C809.1,291.6,817.3,299.6,821.3,297.9z"/>
	<path fill="none" stroke="#4BC8D0" stroke-miterlimit="10" d="M655.6,326.3l-1,0.5V326L655.6,326.3z"/>
	<path fill="#86D3CD" d="M957.6,196.1l-22,13.6l-0.3,0.2l-9.6,6.6l-136.8,87.7l-2.2-3.9L925,213.4l9.2-5.6c0.5-0.3,22.8-13,22.8-13
		l0.2-0.1c0.4-0.1,0.7,0.1,0.9,0.5C958.1,195.5,958,195.9,957.6,196.1L957.6,196.1z"/>
	
		<linearGradient id="SVGID_2_" gradientUnits="userSpaceOnUse" x1="452.1854" y1="1337.8213" x2="393.3153" y2="1235.8612" gradientTransform="matrix(0.79 0.61 0.61 -0.79 -260.04 950.02)">
		<stop  offset="3.000000e-02" style="stop-color:#64BFAF"/>
		<stop  offset="0.12" style="stop-color:#70C6B9"/>
		<stop  offset="0.29" style="stop-color:#7CCDC5"/>
		<stop  offset="0.52" style="stop-color:#84D2CB"/>
		<stop  offset="1" style="stop-color:#86D3CD"/>
	</linearGradient>
	<path fill="url(#SVGID_2_)" d="M925,213.4c0.3-0.2,0.4-0.7,0.2-1c-0.1-0.1-0.2-0.3-0.4-0.3l-131.4-36.8l-2.6-5.3l141.3,37.7
		c0.1,0,1.7,0.4,2,0.2L925,213.4z"/>
	
		<linearGradient id="SVGID_3_" gradientUnits="userSpaceOnUse" x1="541.7802" y1="1286.3795" x2="498.0202" y2="1210.5896" gradientTransform="matrix(0.79 0.61 0.61 -0.79 -260.04 950.02)">
		<stop  offset="3.000000e-02" style="stop-color:#64BFAF"/>
		<stop  offset="0.12" style="stop-color:#70C6B9"/>
		<stop  offset="0.29" style="stop-color:#7CCDC5"/>
		<stop  offset="0.52" style="stop-color:#84D2CB"/>
		<stop  offset="1" style="stop-color:#86D3CD"/>
	</linearGradient>
	<path fill="url(#SVGID_3_)" d="M899.8,347.5l-4.2-5.4l31.5-124.9c0.1-0.4-0.1-0.8-0.5-0.9c-0.2-0.1-0.4,0-0.6,0.1l-0.3,0.2l9.6-6.6
		c-0.1,0.1-0.2,0.3-0.3,0.5L899.8,347.5z"/>
</g>
</svg>
