<?xml version="1.0" encoding="utf-8"?>
<!-- Generator: Adobe Illustrator 24.2.0, SVG Export Plug-In . SVG Version: 6.00 Build 0)  -->
<svg version="1.1" id="asset" xmlns="http://www.w3.org/2000/svg" xmlns:xlink="http://www.w3.org/1999/xlink" x="0px" y="0px"
	 viewBox="0 0 2000 2000" enable-background="new 0 0 2000 2000" xml:space="preserve">
<g>
	<path fill="#EB8470" d="M834.1,255.8c-4.9,0-9.7,0.2-14.3,0.7v-6c0-2.5-1.8-4.6-4.2-4.9c-2.6-0.3-4.9,1.6-5.1,4.2
		c0,0.2,0,0.3,0,0.5v4c0,2-1.4,3.8-3.4,4.2h-0.1c-2.3,0.5-4.6-1-5.1-3.4c0,0,0-0.1,0-0.1l-0.2-1.1c-0.4-2.4-2.5-4.2-5-4.1
		c-2.6,0.2-4.5,2.5-4.3,5.1c0,0.2,0,0.3,0.1,0.5l0.4,2.2c0.5,2.6-1,5.1-3.4,6.1h-0.1c-2.8,1.1-5.9-0.3-7-3c0-0.1-0.1-0.2-0.1-0.3
		l-0.3-1c-0.7-2.4-3.1-3.8-5.5-3.4c-2.5,0.5-4.2,3-3.6,5.6c0,0.1,0.1,0.3,0.1,0.4l1.2,3.6c0.9,2.7-0.1,5.7-2.5,7.4
		c-0.5,0.4-1,0.7-1.5,1.1c-2.9,2.1-7,1.3-9.1-1.6c-0.1-0.2-0.2-0.3-0.3-0.5l0,0c-1.2-2.2-3.8-3.1-6.1-2.1c-2.4,1.1-3.4,3.9-2.3,6.2
		c0.1,0.1,0.1,0.3,0.2,0.4l2.4,4.2c1.5,2.6,1.2,5.8-0.6,8.1c-0.6,0.8-1.2,1.5-1.8,2.3c-2.4,3.1-6.9,3.6-10,1.2
		c-0.1-0.1-0.2-0.1-0.2-0.2l0,0c-2-1.7-4.9-1.4-6.6,0.5l0,0c-1.7,2-1.5,5,0.5,6.7c0,0,0,0,0,0l3.6,3.1c2,1.7,2.6,4.5,1.5,6.9
		c-0.5,1-1,2.1-1.4,3.2c-1.3,2.9-4.7,4.2-7.6,3c-0.1,0-0.1-0.1-0.2-0.1l0,0c-2.2-1.1-4.9-0.4-6.2,1.7c-1.3,2.2-0.6,5.1,1.6,6.4
		c0.1,0.1,0.3,0.2,0.4,0.2l0.2,0.1c3.8,1.8,5.9,6,4.9,10.1l-0.1,0.5c-0.9,4.4-5,7.5-9.5,7.1H723c-2.3-0.2-4.4,1.5-4.7,3.8
		c0,0.2,0,0.3,0,0.5l0,0c0.1,2.6,2.1,4.8,4.7,5.1h0.3c3.6,0.3,6.3,3.4,6.1,7v0.1c-0.2,3.4-2.9,6.1-6.3,6.3h-0.2
		c-2.5,0.1-4.5,2-4.7,4.4c-0.1,2.6,1.9,4.8,4.4,4.9c0.2,0,0.3,0,0.5,0h0.6c3-0.1,5.5,2.1,5.7,5.1v0.1c0.2,3-2.1,5.6-5.1,5.7
		c0,0,0,0,0,0h-0.4c-2.5,0.1-4.5,2-4.7,4.4c-0.1,2.6,1.9,4.8,4.5,4.9c0.2,0,0.3,0,0.5,0h0.8c3.3-0.2,6.2,2.2,6.7,5.5l0.1,0.5
		c0.5,3.2-1.6,6.2-4.8,6.8l0,0c-2.4,0.4-4.2,2.5-4,5c0.2,2.6,2.5,4.5,5.1,4.3c0.2,0,0.3,0,0.5-0.1l0,0c3.4-0.6,6.7,1.5,7.5,4.9
		c0.1,0.2,0.1,0.5,0.2,0.8c0.8,3.3-1.1,6.8-4.3,7.8l-1.1,0.4c-2.3,0.7-3.8,3-3.4,5.4c0.5,2.5,3,4.2,5.6,3.6c0.1,0,0.3-0.1,0.4-0.1
		l3.1-1c2.1-0.7,4.4,0.5,5.1,2.6v0.1c0.7,2.1-0.5,4.4-2.6,5.1c0,0,0,0,0,0l-2.9,0.9c-2.4,0.7-3.8,3.1-3.4,5.5c0.5,2.5,3,4.2,5.6,3.6
		c0.1,0,0.3-0.1,0.4-0.1l1.9-0.6c3-1,6.3,0.6,7.4,3.5c0.5,1.4,1.1,2.7,1.6,4.1l13-5.3l-0.9-2.3c-1.2-3.1,0.3-6.6,3.4-7.8
		c0.1-0.1,0.3-0.1,0.4-0.1l0,0c2.4-0.7,3.8-3.1,3.4-5.5c-0.5-2.5-3-4.2-5.6-3.6c-0.1,0-0.3,0.1-0.4,0.1l-2.7,0.9
		c-2.1,0.7-4.4-0.5-5.1-2.6c0,0,0,0,0,0v-0.1c-0.7-2.1,0.5-4.4,2.6-5.1l2.5-0.8c2.4-0.7,3.8-3.1,3.4-5.5c-0.5-2.5-3-4.2-5.6-3.6
		c-0.1,0-0.3,0.1-0.4,0.1l-1,0.3c-2.8,0.9-5.7-0.7-6.6-3.4c0-0.1-0.1-0.2-0.1-0.3v-0.1c-0.7-2.8,1-5.6,3.9-6.3c0.1,0,0.2,0,0.3-0.1
		l2.2-0.4c2.4-0.4,4.1-2.6,4-5c-0.2-2.6-2.5-4.5-5.1-4.3c-0.2,0-0.3,0-0.4,0.1l-3.2,0.6c-2.6,0.5-5.1-1.2-5.6-3.8c0-0.1,0-0.1,0-0.2
		v-0.1c-0.4-2.6,1.4-5.1,4-5.5c0.2,0,0.3,0,0.5-0.1l2-0.1c2.5-0.1,4.5-2,4.7-4.4c0.1-2.6-1.9-4.8-4.4-4.9c-0.2,0-0.3,0-0.5,0
		l-2.7,0.1c-3,0.2-5.5-2.1-5.7-5.1v-0.2c-0.2-3,2.1-5.5,5.1-5.7c0,0,0,0,0.1,0l2.5-0.1c2.5-0.1,4.5-2,4.7-4.4
		c0.1-2.6-1.9-4.8-4.4-4.9c-0.2,0-0.3,0-0.5,0l-2.2,0.1c-2.8,0.1-5.1-2-5.2-4.8c0-0.2,0-0.4,0-0.6v-0.1c0.2-2.8,2.6-4.8,5.3-4.6
		c0,0,0,0,0,0l1.6,0.1c2.4,0.2,4.7-1.4,5.2-3.8c0.5-2.5-1.2-5-3.8-5.5c-0.2,0-0.3,0-0.5-0.1l-1.5-0.1c-2.4-0.2-4.2-2.2-4.1-4.7
		c0-0.2,0-0.4,0.1-0.6V338c0.5-2.4,2.8-3.9,5.2-3.4c0.3,0.1,0.7,0.2,1,0.3l0.9,0.4c2.3,1.1,5.1,0.1,6.2-2.2l0,0
		c1.1-2.3,0.1-5.1-2.2-6.2l-4.3-2c-1.6-0.7-2.3-2.6-1.7-4.2c0.3-0.8,0.6-1.6,0.9-2.3c0.7-1.7,2.6-2.5,4.3-1.8
		c0.3,0.1,0.6,0.3,0.9,0.5l0,0c1.8,1.6,4.6,1.6,6.4,0c1.9-1.8,1.9-4.8,0.1-6.6c-0.1-0.1-0.2-0.2-0.3-0.3l-3.4-2.9
		c-0.9-0.8-1.1-2.1-0.4-3l0,0c0.9-1.3,1.9-2.6,2.8-3.9c0.8-1,2.3-1.2,3.3-0.4c0.2,0.2,0.4,0.4,0.6,0.7l0,0c1.2,2.2,3.8,3.1,6.1,2.1
		c2.4-1.1,3.4-3.9,2.3-6.2c-0.1-0.1-0.1-0.3-0.2-0.4l-1.2-2.1c-1.2-1.9-0.7-4.4,1-5.9l1.5-1.2c1.5-1.2,3.7-0.9,4.9,0.6
		c0.2,0.3,0.4,0.7,0.6,1.1l0,0c0.7,2.4,3.1,3.8,5.5,3.4c2.5-0.5,4.2-3,3.6-5.6c0-0.1-0.1-0.3-0.1-0.4l-1.1-3.4
		c-0.6-1.9,0.3-4,2.2-4.8h0.1c2-0.9,4.3,0,5.2,2c0.1,0.3,0.2,0.6,0.3,0.9l0.5,2.5c0.5,2.5,2.9,4.2,5.4,3.8l0,0
		c2.5-0.5,4.2-2.9,3.8-5.5l-1.1-6c-0.2-1.3,0.6-2.6,1.9-2.8h0c1.3-0.3,2.6,0.5,2.9,1.8c0,0.2,0.1,0.4,0.1,0.6v3.3
		c0,2.5,1.8,4.6,4.2,4.9c2.6,0.3,4.9-1.6,5.1-4.2c0-0.1,0-0.3,0-0.4v-7.9c4.7-0.5,9.5-0.7,14.3-0.7L834.1,255.8z"/>
	<path fill="#CC5444" d="M855.7,216.8c0,0-22.5,2.6-32.2,14.4c-7.1,8.6-9,26.5-4.2,49c5.6,26.3,30.4,28.7,30.4,28.7l3.3-44.6
		L855.7,216.8z"/>
	<path fill="#D55D4B" d="M893.4,184.2c0,0-29.8,22.2-37.7,32.6s-22.2,72.9-3.8,95.1s35,40.6,35,40.6L893.4,184.2z"/>
	<path fill="#EF9B89" d="M1049.7,402.3c-31.9,15.7-67,17.1-98.8,3.9c-1-0.4-2.1-0.9-3.1-1.3c-11.4-5.1-21.9-11.9-31.1-20.2
		c-20.7-18.5-35.1-43.5-41.8-72.3c-6.8-29.9-4.7-61.1,6.1-89.7c15.7-42.1,47.1-72.5,83.5-85.7c27.4-10,57.7-10.3,86,1.5
		c12.5,5.2,24.1,12.5,34.2,21.5c20.7,18.5,35.1,43.5,41.8,72.3c6.8,29.9,4.7,61.1-6.1,89.7C1107.1,357.9,1082,386.4,1049.7,402.3z"
		/>
	<path opacity="0.5" fill="#EB8470" enable-background="new    " d="M947.8,404.9c-11.4-5.1-21.9-11.9-31.1-20.2
		c-20.7-18.5-35.1-43.5-41.8-72.3c-6.8-29.9-4.7-61.1,6.1-89.7c15.7-42.1,47.1-72.5,83.5-85.7c61.5,45.3,107.8,112.1,74.6,186
		C1017.2,371.5,985,397.2,947.8,404.9z"/>
	<path fill="#FBC3AF" d="M1020.7,241.4c-0.8-0.7-1.6-1.3-2.5-1.9l0,0c-0.9-0.6-1.9-1.1-2.9-1.5l-0.9-0.3c-6.8-2.3-15.3,0-23.8,9.5
		c-8.6,9.7-5.8,32.6,5.6,42.7s23.4,2.4,30.2-5.2C1033.3,277.1,1036.3,255.4,1020.7,241.4z M998.9,287c-9.6-8.5-12.5-29-5.2-37
		c6.6-7.4,13.5-10.3,19.5-8.4l0.7,0.3c0.7,0.3,1.3,0.6,1.9,1l0,0l0.3,0.2c0.7,0.4,1.3,0.9,1.9,1.4c13.5,12,11.2,31.2,5.5,37.6
		C1019.5,286.5,1009.1,296,998.9,287z"/>
	<path fill="#D25A48" d="M1023.5,282c-4,4.5-14.5,14-24.6,4.9c-9.6-8.5-12.5-29-5.2-37c6.6-7.4,13.5-10.3,19.5-8.4l0.7,0.3
		c0.7,0.3,1.3,0.6,1.9,1l0,0l0.3,0.2c0.7,0.4,1.3,0.9,1.9,1.4C1031.5,256.5,1029.3,275.6,1023.5,282z"/>
	<path fill="#E56B56" d="M936.6,201.5c48.6,31.5,37.5,88.8,17,110s-51.3,29.3-68.8,12.6s-18.3-118,10.8-125.6
		S934.9,200.4,936.6,201.5z"/>
	<path fill="#D25A48" d="M927.3,311.2c-18.4,3.6-61.4-24.3-42.7-63.5c16-33.5,39.3-30.2,45.8-28.5c1.6,0.4,3.2,0.8,4.9,1.1
		c13.2,2.5,64.3,12.1,79.2,17.5c-6.8-2.3-15.3,0-23.8,9.5c-8.6,9.7-5.8,32.6,5.6,42.7s23.4,2.4,30.2-5.2
		C1016.2,305.9,945.7,307.6,927.3,311.2z"/>
	<path fill="#FBC3AF" d="M1127.8,325c23.3-62.8,6.2-131.2-38-170.7c-10.8-9.7-23.2-17.4-36.6-23c-70.2-29.1-150.6,10.4-179.6,88.3
		c-23.3,62.8-6.2,131.2,38,170.7c10.8,9.7,23.2,17.4,36.6,23C1018.4,442.5,1098.8,402.9,1127.8,325z M950.9,406.2
		c-12.5-5.2-24.1-12.5-34.2-21.5c-20.7-18.5-35.1-43.5-41.8-72.3c-6.8-29.9-4.7-61.1,6.1-89.7c27.5-73.9,103.5-111.6,169.6-84.2
		c12.5,5.2,24.1,12.5,34.2,21.5c20.7,18.5,35.1,43.5,41.8,72.3c6.8,29.9,4.7,61.1-6.1,89.7c-13.4,36-38.5,64.5-70.8,80.4
		C1017.8,418,982.7,419.4,950.9,406.2L950.9,406.2z"/>
	<path fill="#512BD4" d="M848.1,477.2c-44.2,14-85.5,36.2-121.7,65.3c-16.4-34.5-1.7-75.7,32.8-92.1c9.3-4.4,19.4-6.7,29.6-6.7
		c2.8,0,5.7,0.2,8.5,0.5C818.4,446.9,837.1,459,848.1,477.2z"/>
</g>
</svg>
