<?xml version="1.0" encoding="utf-8"?>
<!-- Generator: Adobe Illustrator 24.2.0, SVG Export Plug-In . SVG Version: 6.00 Build 0)  -->
<svg version="1.1" id="asset" xmlns="http://www.w3.org/2000/svg" xmlns:xlink="http://www.w3.org/1999/xlink" x="0px" y="0px"
	 viewBox="0 0 2000 2000" enable-background="new 0 0 2000 2000" xml:space="preserve">
<g>
	<path fill="#DEE88B" d="M785.3,464.3l-33.6,13.1l-18.4-73.1l14.6-5.5L785.3,464.3z"/>
	<path fill="#512BD4" d="M848.1,477.2c-44.2,14-85.5,36.2-121.7,65.3c-16.4-34.5-1.7-75.7,32.8-92.1c9.3-4.4,19.4-6.7,29.6-6.7
		c2.8,0,5.7,0.2,8.5,0.5C818.4,446.9,837.1,459,848.1,477.2z"/>
	<path fill="#9EAE2B" d="M774.9,378.8c-3.8,18-17.4,32.3-35.2,37c-13.8,3.7-28.6,1.2-40.5-6.7c-9.8-6.5-16.9-16.4-20.1-27.7
		c-0.6-2.3-1.1-4.6-1.4-7c-0.7-5.8-0.4-11.8,1-17.5c4.3-17.2,17.7-30.7,34.8-35.2c13.6-3.7,28.1-1.4,39.9,6.3
		c11.9,7.7,19.9,20.1,21.9,34C776.2,367.6,776.1,373.3,774.9,378.8z"/>
	<path fill="#C5D43B" d="M853.6,137.4L753.5,328c-5.8-3.8-12.4-6.3-19.3-7.4l40.5-192.3c0.7-3.5,4-6,7.6-5.7l65.5,4.2
		c4,0.3,7,3.7,6.8,7.7C854.4,135.5,854.1,136.5,853.6,137.4z"/>
	<path fill="#78881B" d="M943.1,350.1l-7.5,34.2c-0.8,3.6-4,6-7.6,5.7l-153.1-11.2c1.1-5.5,1.3-11.2,0.5-16.8l159.7-20.8
		c4-0.5,7.6,2.3,8.1,6.2C943.4,348.4,943.3,349.2,943.1,350.1z"/>
	<path fill="#C5D43B" d="M716.1,416.3l-56,154.7c-1.3,3.7-5.3,5.6-9,4.4l-38-12.1c-3.8-1.2-5.9-5.3-4.7-9.1c0.2-0.6,0.4-1.1,0.8-1.6
		l90-143.5C704.4,412.5,710.1,415,716.1,416.3z"/>
	<path fill="#78881B" d="M677.7,374.4l-201.8,24.5c-4,0.5-7.6-2.3-8.1-6.3c0-0.3-0.1-0.7-0.1-1l0.7-48.5c0.1-4,3.3-7.2,7.3-7.1
		c0.2,0,0.4,0,0.7,0l202.3,21C677.4,362.6,677,368.5,677.7,374.4z"/>
</g>
</svg>
