<?xml version="1.0" encoding="utf-8"?>
<!-- Generator: Adobe Illustrator 24.2.0, SVG Export Plug-In . SVG Version: 6.00 Build 0)  -->
<svg version="1.1" id="bot-base" xmlns="http://www.w3.org/2000/svg" xmlns:xlink="http://www.w3.org/1999/xlink" x="0px" y="0px"
	 viewBox="0 0 2000 2000" enable-background="new 0 0 2000 2000" xml:space="preserve">
<g>

		<radialGradient id="base-bot-SVGID_1_" cx="-1264.9177" cy="-754.5676" r="1.43" gradientTransform="matrix(262.45 0 0 262.45 332994.875 198802.7344)" gradientUnits="userSpaceOnUse">
		<stop  offset="0.47" style="stop-color:#A08BE8"/>
		<stop  offset="0.86" style="stop-color:#8065E0"/>
	</radialGradient>
	<path fill="url(#base-bot-SVGID_1_)" d="M1300.6,939.3c24.9-95.5,8.8-171.8,8.8-171.8h22.5l0.6-0.4c-32.2-175.3-185.8-308.2-370.4-308.2
		c-208,0-376.6,168.6-376.6,376.6s168.6,376.6,376.6,376.6c164.1,0,303.7-105,355.3-251.5C1318.9,954.5,1318.7,943.3,1300.6,939.3z"
		/>
	<path fill="#D8CFF7" d="M1286.8,1026.3H637.3c14.5,24.7,31.9,47.6,51.6,68.4h546.3C1255,1073.9,1272.3,1050.9,1286.8,1026.3z"/>

		<radialGradient id="base-bot-SVGID_2_" cx="-1263.4484" cy="-755.6784" r="1.43" gradientTransform="matrix(204.45 0 0 204.45 259534.3125 155186.1875)" gradientUnits="userSpaceOnUse">
		<stop  offset="9.000000e-02" style="stop-color:#E1DFDD"/>
		<stop  offset="0.9" style="stop-color:#FFFFFF"/>
	</radialGradient>
	<path fill="url(#base-bot-SVGID_2_)" d="M1300.6,939.3c24.6-94.4,9.2-169.9,8.9-171.7H918.7c0,0-24.6-2.5-24.6,20s0.9,86,0.9,156.3
		c0,14.5,11.8,21.4,21.2,21.4C916.2,965.3,1257,965.2,1300.6,939.3z"/>
	<path fill="#A08BE8" d="M1065.2,939.5c0,0,60.1-47.6,71.8-56.4s22-9.3,32.7,0s70.9,56.4,70.9,56.4H1065.2z"/>
	<path fill="#512BD4" d="M1315.9,965c0,0,10.4-20.1-15.2-25.7c0-0.1-384.2-0.3-384.2-0.3c-9,0-20.5-5.3-21.4-14c0,6.2,0,12.5,0,18.8
		c0,13.1,9.8,20.1,18.5,21.2c0.9,0.1,1.8,0.2,2.7,0.2h26.3L1315.9,965z"/>
	<path fill="#512BD4" d="M1085.1,1115.1l123.3-0.6l-0.5-109l-123.3,0.6L1085.1,1115.1z"/>
	<path fill="#FFFFFF" d="M1106.4,1074.3c-0.8,0-1.5-0.3-2.1-0.8c-0.6-0.5-0.9-1.2-0.9-2c0-0.8,0.3-1.5,0.9-2
		c0.6-0.6,1.3-0.9,2.1-0.8c0.8,0,1.5,0.3,2.1,0.8c0.6,0.5,0.9,1.2,0.9,2c0,0.8-0.3,1.5-0.9,2
		C1107.9,1074,1107.2,1074.3,1106.4,1074.3z"/>
	<path fill="#FFFFFF" d="M1139.2,1073.7h-5.3l-14.1-22.1c-0.4-0.6-0.6-1.1-0.9-1.8h-0.1c0.1,1.4,0.2,2.8,0.2,4.2v19.8h-4.7
		l-0.1-30.2h5.7l13.6,21.6c0.6,0.9,1,1.5,1.1,1.8h0.1c-0.2-1.3-0.2-2.7-0.2-4.1v-19.4h4.7L1139.2,1073.7z"/>
	<path fill="#FFFFFF" d="M1162.2,1073.7h-16.5l-0.1-30.2h15.8v4.3h-11v8.5h10.1v4.2h-10.1v8.9h11.6L1162.2,1073.7z"/>
	<path fill="#FFFFFF" d="M1185.5,1047.8h-8.5l0.1,25.9h-4.9l-0.1-25.9h-8.4v-4.3l21.8-0.1L1185.5,1047.8z"/>
</g>
</svg>
