<?xml version="1.0" encoding="utf-8"?>
<!-- Generator: Adobe Illustrator 24.2.0, SVG Export Plug-In . SVG Version: 6.00 Build 0)  -->
<svg version="1.1" id="asset" xmlns="http://www.w3.org/2000/svg" xmlns:xlink="http://www.w3.org/1999/xlink" x="0px" y="0px"
	 viewBox="0 0 2000 2000" enable-background="new 0 0 2000 2000" xml:space="preserve">
<g>
	<path fill="#512BD4" d="M1286.5,851.6c0.4-27.3-12.4-49.7-28.7-49.9s-29.8,21.7-30.2,49s12.4,49.7,28.7,49.9
		S1286.1,879,1286.5,851.6z"/>
	<path fill="#8065E0" d="M1256.7,825c-10.7,10.7-10.7,28.2,0,38.9c7.1,7.1,17.5,9.8,27.2,7c1.7-6.3,2.5-12.8,2.6-19.2
		c0.2-13.4-2.8-25.6-7.8-34.6C1270.6,816.3,1262.5,819.2,1256.7,825z"/>
	<path fill="#512BD4" d="M1049.5,850.9c0,1.3,0,2.5,0,3.8c0,0.2,0,0.5,0,0.7s0,0.5,0,0.8c0,0.4-0.1,0.9-0.1,1.3s0,0.8-0.1,1.2
		c0,0.1,0,0.2,0,0.2c0,0.6-0.1,1.2-0.2,1.8l-0.2,1.8c-2.8,21.8-14.2,38.1-28,38.4c-16.3,0.2-29.8-21.7-30.2-49.1
		c-0.2-14,3.1-26.7,8.5-35.8c10.6,2.8,21.5,4.5,32.6,3.6l0,0c2.6-0.2,5.2-0.6,7.8-1.1c0.7-0.1,1.3-0.3,2-0.4
		c0.4,0.7,0.8,1.4,1.1,2.2c0.3,0.6,0.5,1.1,0.8,1.7s0.5,1.2,0.8,1.8s0.6,1.4,0.8,2.1c0.2,0.4,0.3,0.8,0.4,1.2
		c0.1,0.2,0.1,0.3,0.2,0.5c0.1,0.3,0.2,0.7,0.3,1c1.9,6,3,12.2,3.4,18.5c0,0.1,0,0.1,0,0.2c0,0.8,0.1,1.5,0.1,2.3L1049.5,850.9z"/>
	<path fill="#8065E0" d="M1049.5,850.9c0,1.3,0,2.5,0,3.8c0,0.2,0,0.5,0,0.7s0,0.5,0,0.8c0,0.4-0.1,0.9-0.1,1.3s0,0.8-0.1,1.2
		c0,0.1,0,0.2,0,0.2c0,0.6-0.1,1.2-0.2,1.8l-0.2,1.8c-0.4,3.4-1.1,6.7-2,10c-14.6,4.2-29.8-4.3-34-18.9s4.3-29.8,18.9-34l0,0l0,0
		c2.6-0.2,5.2-0.6,7.8-1.1c0.7,0,1.5,0,2.2,0.1c0.3,0.5,0.6,1.1,0.8,1.6s0.5,1.1,0.8,1.7s0.5,1.2,0.8,1.8s0.6,1.4,0.8,2.1
		c0.2,0.4,0.3,0.8,0.4,1.2c0.1,0.2,0.1,0.3,0.2,0.5c0.1,0.3,0.2,0.7,0.3,1c1.9,6,3,12.2,3.4,18.5c0,0.1,0,0.1,0,0.2
		c0,0.8,0.1,1.5,0.1,2.3L1049.5,850.9z"/>
</g>
</svg>
