<?xml version="1.0" encoding="utf-8"?>
<!-- Generator: Adobe Illustrator 24.2.0, SVG Export Plug-In . SVG Version: 6.00 Build 0)  -->
<svg version="1.1" id="asset" xmlns="http://www.w3.org/2000/svg" xmlns:xlink="http://www.w3.org/1999/xlink" x="0px" y="0px"
	 viewBox="0 0 2000 2000" enable-background="new 0 0 2000 2000" xml:space="preserve">
<g>
	<path fill="#512BD4" d="M1286.5,851.6c0,2.9-0.2,5.8-0.6,8.7c-0.2,1.6-0.4,3.2-0.7,4.8c-0.2,0.8-0.3,1.5-0.5,2.3
		c-0.3,1.2-0.5,2.4-0.8,3.5c-1,3.8-2.4,7.5-4.1,11.1c-1.1,2.3-3.9,3.3-6.3,2.1c-0.2-0.1-0.4-0.2-0.6-0.3c-10.6-7.2-23.3-6.5-34.3-2
		c-2.4,1-5.1-0.1-6.1-2.5c0,0,0,0,0,0c-3.5-9.1-5.2-18.8-4.9-28.5c0.4-27.3,13.9-49.3,30.2-49c8.3,0.1,15.7,6,20.9,15.4l0,0l0,0
		c0.4,0.8,0.8,1.6,1.2,2.4l0.1,0.2c0.4,0.9,0.8,1.7,1.2,2.6l0,0c0.2,0.5,0.4,1.1,0.7,1.6c0.4,1.1,0.8,2.3,1.2,3.5
		c0.2,0.6,0.4,1.3,0.6,2s0.4,1.4,0.6,2.2C1285.9,838.1,1286.6,844.8,1286.5,851.6z"/>
	<path fill="#8065E0" d="M1256.7,825c-10.7,10.7-10.7,28.2,0,38.9c7.1,7.1,17.5,9.8,27.2,7c1.7-6.3,2.5-12.8,2.6-19.2
		c0.2-13.4-2.8-25.6-7.8-34.6C1270.6,816.3,1262.5,819.2,1256.7,825z"/>
	<path fill="#512BD4" d="M1049.5,851.6c0,2.9-0.2,5.8-0.6,8.7c-0.2,1.6-0.4,3.2-0.7,4.8c-0.2,0.8-0.3,1.5-0.5,2.3
		c-0.3,1.2-0.5,2.4-0.8,3.5c-1,3.8-2.4,7.5-4.1,11.1c-1.1,2.3-3.9,3.3-6.3,2.1c-0.2-0.1-0.4-0.2-0.6-0.3c-10.6-7.2-23.3-6.5-34.3-2
		c-2.4,1-5.1-0.1-6.1-2.5c0,0,0,0,0,0c-3.5-9.1-5.2-18.8-4.9-28.5c0.4-27.3,13.9-49.3,30.2-49c8.3,0.1,15.7,6,20.9,15.4l0,0l0,0
		c0.4,0.8,0.8,1.6,1.2,2.4l0.1,0.2c0.4,0.9,0.8,1.7,1.2,2.6l0,0c0.2,0.5,0.4,1.1,0.7,1.6c0.4,1.1,0.8,2.3,1.2,3.5
		c0.2,0.6,0.4,1.3,0.6,2s0.4,1.4,0.6,2.2C1048.8,838.1,1049.6,844.8,1049.5,851.6z"/>
	<path fill="#8065E0" d="M1019.7,825c-10.7,10.7-10.7,28.2,0,38.9c7.1,7.1,17.5,9.8,27.2,7c1.7-6.3,2.5-12.8,2.6-19.2
		c0.2-13.4-2.8-25.6-7.8-34.6C1033.5,816.3,1025.5,819.2,1019.7,825z"/>
</g>
</svg>
