<?xml version="1.0" encoding="utf-8"?>
<!-- Generator: Adobe Illustrator 24.2.0, SVG Export Plug-In . SVG Version: 6.00 Build 0)  -->
<svg version="1.1" id="asset" xmlns="http://www.w3.org/2000/svg" xmlns:xlink="http://www.w3.org/1999/xlink" x="0px" y="0px"
	 viewBox="0 0 2000 2000" enable-background="new 0 0 2000 2000" xml:space="preserve">
<g>
	<path fill="#F8B84F" d="M1050.7,865.5c-0.6,0.6-0.8,1.4-0.7,2.2l2.9,16.7l2.9,17c0.2,1.3-0.7,2.6-2,2.8c-0.5,0.1-1.1,0-1.6-0.3
		l-30.3-15.9c-0.7-0.4-1.6-0.4-2.3,0l-30.3,16c-1.2,0.6-2.7,0.2-3.3-1c-0.3-0.5-0.3-1-0.2-1.6l5.8-33.8c0.1-0.8-0.1-1.6-0.7-2.2
		l-24.5-23.9c-1-0.9-1-2.5,0-3.5c0.4-0.4,0.9-0.6,1.4-0.7l32.1-4.7l1.8-0.3c0.8-0.1,1.5-0.6,1.8-1.3l15.2-30.7
		c0.6-1.2,2.1-1.7,3.3-1.1c0.5,0.2,0.9,0.6,1.1,1.1l15.2,30.7c0.4,0.7,1,1.2,1.8,1.3l33.9,4.9c1.3,0.2,2.3,1.4,2.1,2.8
		c-0.1,0.5-0.3,1-0.7,1.4L1050.7,865.5z"/>
	
		<linearGradient id="SVGID_1_" gradientUnits="userSpaceOnUse" x1="1009.9329" y1="1139.766" x2="1072.4229" y2="1183.2959" gradientTransform="matrix(1 0 0 -1 0 2000)">
		<stop  offset="9.000000e-02" style="stop-color:#F8B84F"/>
		<stop  offset="0.9" style="stop-color:#FDD490"/>
	</linearGradient>
	<path fill="url(#SVGID_1_)" d="M1050.7,865.5c-0.6,0.6-0.8,1.4-0.7,2.2l2.9,16.7c-7.9-4.6-15.1-9.2-20.6-11.7
		c-13.8-6.2-25.5-22.6-32.5-39.9l1.8-0.3c0.8-0.1,1.5-0.6,1.8-1.3l15.2-30.7c0.6-1.2,2.1-1.7,3.3-1.1c0.5,0.2,0.9,0.6,1.1,1.1
		l15.2,30.7c0.4,0.7,1,1.2,1.8,1.3l33.9,4.9c1.3,0.2,2.3,1.4,2.1,2.8c-0.1,0.5-0.3,1-0.7,1.4L1050.7,865.5z"/>
	<path fill="#F8B84F" d="M1287,865.5c-0.6,0.6-0.8,1.4-0.7,2.2l2.9,16.7l2.9,17c0.2,1.3-0.7,2.6-2,2.8c-0.5,0.1-1.1,0-1.6-0.3
		l-30.3-15.9c-0.7-0.4-1.6-0.4-2.3,0l-30.3,16c-1.2,0.6-2.7,0.2-3.3-1c-0.3-0.5-0.3-1-0.2-1.6l5.8-33.8c0.1-0.8-0.1-1.6-0.7-2.2
		l-24.5-23.9c-1-0.9-1-2.5,0-3.5c0.4-0.4,0.9-0.6,1.4-0.7l32.1-4.7l1.8-0.3c0.8-0.1,1.5-0.6,1.8-1.3l15.2-30.7
		c0.6-1.2,2.1-1.7,3.3-1.1c0.5,0.2,0.9,0.6,1.1,1.1l15.2,30.7c0.4,0.7,1,1.2,1.8,1.3l33.9,4.9c1.3,0.2,2.3,1.4,2.1,2.8
		c-0.1,0.5-0.3,1-0.7,1.4L1287,865.5z"/>
	
		<linearGradient id="SVGID_2_" gradientUnits="userSpaceOnUse" x1="1246.2296" y1="1139.7705" x2="1308.7196" y2="1183.3005" gradientTransform="matrix(1 0 0 -1 0 2000)">
		<stop  offset="9.000000e-02" style="stop-color:#F8B84F"/>
		<stop  offset="0.9" style="stop-color:#FDD490"/>
	</linearGradient>
	<path fill="url(#SVGID_2_)" d="M1287,865.5c-0.6,0.6-0.8,1.4-0.7,2.2l2.9,16.7c-7.9-4.6-15.1-9.2-20.6-11.7
		c-13.8-6.2-25.5-22.6-32.5-39.9l1.8-0.3c0.8-0.1,1.5-0.6,1.8-1.3l15.2-30.7c0.6-1.2,2.1-1.7,3.3-1.1c0.5,0.2,0.9,0.6,1.1,1.1
		l15.2,30.7c0.4,0.7,1,1.2,1.8,1.3l33.9,4.9c1.3,0.2,2.3,1.4,2.1,2.8c-0.1,0.5-0.3,1-0.7,1.4L1287,865.5z"/>
</g>
</svg>
