<?xml version="1.0" encoding="utf-8"?>
<!-- Generator: Adobe Illustrator 24.2.0, SVG Export Plug-In . SVG Version: 6.00 Build 0)  -->
<svg version="1.1" id="asset" xmlns="http://www.w3.org/2000/svg" xmlns:xlink="http://www.w3.org/1999/xlink" x="0px" y="0px"
	 viewBox="0 0 2000 2000" enable-background="new 0 0 2000 2000" xml:space="preserve">
<g>
	<path fill="#512BD4" d="M1286.5,851.6c0.4-27.3-12.4-49.7-28.7-49.9s-29.8,21.7-30.2,49s12.4,49.7,28.7,49.9
		S1286.1,879,1286.5,851.6z"/>
	<path fill="#8065E0" d="M1256.7,825c-10.7,10.7-10.7,28.2,0,38.9c7.1,7.1,17.5,9.8,27.2,7c1.7-6.3,2.5-12.8,2.6-19.2
		c0.2-13.4-2.8-25.6-7.8-34.6C1270.6,816.3,1262.5,819.2,1256.7,825z"/>
	<path fill="#512BD4" d="M1020.8,900.9c16.3-0.2,29.1-22.6,28.7-49.9s-13.9-49.3-30.2-49.1s-29.1,22.6-28.7,49.9
		S1004.5,901.2,1020.8,900.9z"/>
	<path fill="#8065E0" d="M1019.8,826.6c-10.7,10.7-10.7,28.2,0,38.9c7.1,7.1,17.4,9.7,27,7c1.9-7,2.8-14.3,2.6-21.6
		c-0.2-12.4-3.1-23.7-7.7-32.3C1033.6,817.9,1025.6,820.8,1019.8,826.6z"/>
</g>
</svg>
