<?xml version="1.0" encoding="utf-8"?>
<!-- Generator: Adobe Illustrator 24.2.0, SVG Export Plug-In . SVG Version: 6.00 Build 0)  -->
<svg version="1.1" id="asset" xmlns="http://www.w3.org/2000/svg" xmlns:xlink="http://www.w3.org/1999/xlink" x="0px" y="0px"
	 viewBox="0 0 2000 2000" enable-background="new 0 0 2000 2000" xml:space="preserve">
<g>
	<path fill="#512BD4" d="M1286.5,851.6c0.4-27.3-12.4-49.7-28.7-49.9s-29.8,21.7-30.2,49s12.4,49.7,28.7,49.9
		S1286.1,879,1286.5,851.6z"/>
	<path fill="#8065E0" d="M1256.7,825c-10.7,10.7-10.7,28.2,0,38.9c7.1,7.1,17.5,9.8,27.2,7c1.7-6.3,2.5-12.8,2.6-19.2
		c0.2-13.4-2.8-25.6-7.8-34.6C1270.6,816.3,1262.5,819.2,1256.7,825z"/>
	<path fill="#512BD4" d="M1050.9,857.2c3.8,0.1,6.9-2.8,7.1-6.6c0-1.3-0.3-2.6-1-3.8c-8.6-14.3-38.8-15.4-61.2-1.3
		c-6.7,4.2-7.8,10.5,1.7,9.9c10.4-0.6,33.2-4.4,42.1-0.4C1043.2,856.4,1047,857.2,1050.9,857.2z"/>
</g>
</svg>
