<svg xmlns="http://www.w3.org/2000/svg" viewBox="0 0 300.26 21.69"><g id="Layer_2" data-name="Layer 2"><g id="asset"><g id="closed-eyes"><path d="M60.33,21.69a6.84,6.84,0,0,0,6.13-10.35C57.9-3,27.7-4.08,5.24,10-1.44,14.21-2.61,20.55,6.91,20c10.38-.64,33.16-4.42,42.06-.43A35.17,35.17,0,0,0,60.33,21.69Z" fill="#512bd4"/><path d="M293.14,21.69a6.84,6.84,0,0,0,6.13-10.35C290.72-3,260.51-4.08,238.06,10c-6.68,4.19-7.86,10.53,1.66,9.94,10.38-.64,33.17-4.42,42.07-.43A35.1,35.1,0,0,0,293.14,21.69Z" fill="#512bd4"/></g></g></g></svg>