<svg width="32" height="15" viewBox="0 0 32 15" fill="none" xmlns="http://www.w3.org/2000/svg">
<g clip-path="url(#clip0)">
<path d="M30.6928 12.9738C32.544 5.84844 31.388 0.143597 31.3577 0.00758747H1.8588C1.8588 0.00758747 0 -0.181314 0 1.5188C0 3.21137 0.0680047 8.00948 0.0680047 13.3138C0.0680047 14.4019 0.959622 14.9308 1.66234 14.9308C1.66989 14.9308 27.3983 14.9308 30.6928 12.9738Z" fill="url(#paint0_radial)"/>
<path d="M12.9209 12.9888C12.9209 12.9888 17.4621 9.39971 18.3386 8.73477C19.2227 8.06983 20.0009 8.03205 20.8094 8.73477C21.6179 9.43749 26.1667 12.9888 26.1667 12.9888H12.9209Z" fill="#A08BE8"/>
<path d="M31.8413 14.9082C31.8413 14.9082 32.6272 13.3894 30.6928 12.9663C30.6928 12.9587 1.69256 12.9436 1.69256 12.9436C1.02007 12.9436 0.151122 12.5431 0.0755615 11.8857C0.0755615 12.3542 0.0755615 12.8303 0.0755615 13.3063C0.0755615 14.2961 0.808501 14.8175 1.47344 14.9082C1.54144 14.9157 1.60945 14.9233 1.66989 14.9233H3.64959L31.8413 14.9082Z" fill="#512BD4"/>
<path d="M29.6576 6.31685C29.6879 4.25404 28.7207 2.56148 27.489 2.54637C26.2574 2.53126 25.2373 4.18604 25.2071 6.25641C25.1769 8.31922 26.1441 10.0118 27.3757 10.0269C28.6073 10.042 29.6274 8.37967 29.6576 6.31685Z" fill="#512BD4"/>
<path d="M27.4134 4.307C26.6049 5.12305 26.6049 6.43781 27.4134 7.24631C27.9725 7.80546 28.7659 7.97925 29.4686 7.77524C29.5895 7.32943 29.6575 6.83828 29.6651 6.31692C29.6802 5.3044 29.4535 4.38256 29.0757 3.70251C28.4788 3.64962 27.8667 3.85363 27.4134 4.307Z" fill="#8065E0"/>
<path d="M9.58109 10.042C10.8127 10.0269 11.7799 8.33435 11.7497 6.27154C11.7195 4.20873 10.6994 2.54639 9.46775 2.5615C8.23611 2.57662 7.26893 4.26918 7.29915 6.33199C7.32938 8.40235 8.357 10.0571 9.58109 10.042Z" fill="#512BD4"/>
<path d="M9.50552 7.36717C10.0571 7.91876 10.8429 8.09255 11.5457 7.89609C11.6817 7.39739 11.7572 6.8458 11.7421 6.26398C11.727 5.32702 11.5079 4.47318 11.1603 3.82336C10.5709 3.77047 9.95133 3.97448 9.49796 4.42785C8.69702 5.24391 8.69702 6.55866 9.50552 7.36717Z" fill="#8065E0"/>
</g>
<defs>
<radialGradient id="paint0_radial" cx="0" cy="0" r="1" gradientUnits="userSpaceOnUse" gradientTransform="translate(25.5493 -5.22367) scale(22.0579)">
<stop offset="0.0933" stop-color="#E1DFDD"/>
<stop offset="0.8998" stop-color="white"/>
</radialGradient>
<clipPath id="clip0">
<rect width="32" height="14.9308" fill="white"/>
</clipPath>
</defs>
</svg>
