<svg id="asset" xmlns="http://www.w3.org/2000/svg" viewBox="0 0 2000 2000"><path d="M1286.53,851.61c.41-27.33-12.44-49.69-28.69-49.93s-29.77,21.72-30.17,49.05,12.44,49.69,28.69,49.93S1286.12,879,1286.53,851.61Z" fill="#512bd4"/><path d="M1256.74,825a27.52,27.52,0,0,0,27.19,45.87,79.13,79.13,0,0,0,2.62-19.25c.2-13.4-2.79-25.59-7.82-34.58A27.61,27.61,0,0,0,1256.74,825Z" fill="#8065e0"/><path d="M1020.8,900.92c16.25-.25,29.09-22.6,28.69-49.93s-13.91-49.3-30.17-49.06-29.1,22.6-28.69,49.93S1004.54,901.16,1020.8,900.92Z" fill="#512bd4"/><path d="M1019.83,826.62a27.51,27.51,0,0,0,27,45.9,77.57,77.57,0,0,0,2.64-21.58c-.16-12.42-3.07-23.69-7.7-32.28A27.56,27.56,0,0,0,1019.83,826.62Z" fill="#8065e0"/></svg>