<svg id="asset" xmlns="http://www.w3.org/2000/svg" xmlns:xlink="http://www.w3.org/1999/xlink" viewBox="0 0 2000 2000"><defs><linearGradient id="linear-gradient" x1="966" y1="851.46" x2="1075" y2="851.46" gradientUnits="userSpaceOnUse"><stop offset="0" stop-color="#d25a48"/><stop offset="1" stop-color="#e86e58"/></linearGradient><linearGradient id="linear-gradient-2" x1="1030.49" y1="850.67" x2="1069.97" y2="811.19" gradientUnits="userSpaceOnUse"><stop offset="0.19" stop-color="#fedbce" stop-opacity="0"/><stop offset="0.34" stop-color="#fedbce" stop-opacity="0.01"/><stop offset="0.46" stop-color="#fedbce" stop-opacity="0.05"/><stop offset="0.57" stop-color="#fedbce" stop-opacity="0.11"/><stop offset="0.66" stop-color="#fedbce" stop-opacity="0.2"/><stop offset="0.76" stop-color="#fedbce" stop-opacity="0.32"/><stop offset="0.84" stop-color="#fedbce" stop-opacity="0.46"/><stop offset="0.93" stop-color="#fedbce" stop-opacity="0.63"/><stop offset="1" stop-color="#fedbce" stop-opacity="0.8"/></linearGradient><linearGradient id="linear-gradient-3" x1="1194.18" y1="851.46" x2="1303.18" y2="851.46" xlink:href="#linear-gradient"/><linearGradient id="linear-gradient-4" x1="1258.67" y1="850.67" x2="1298.15" y2="811.19" xlink:href="#linear-gradient-2"/></defs><path d="M966,829.5c0,30.5,54.8,71.42,54.8,71.42V829.5Z" fill="#8065e0"/><path d="M1075,829.5a27.16,27.16,0,0,1-.35,4.35c-1.92,12.4-11.5,26-22.06,37.77a257.48,257.48,0,0,1-31.79,29.3s-48.36-36.11-54.22-65.77a27.5,27.5,0,1,1,53.92-10.86,27.5,27.5,0,0,1,54.5,5.21Z" fill="url(#linear-gradient)"/><path d="M1075,829.5a27.16,27.16,0,0,1-.35,4.35c-1.92,12.4-11.5,26-22.06,37.77l-3.09.37-29-47.7a27.5,27.5,0,0,1,54.5,5.21Z" fill="url(#linear-gradient-2)"/><path d="M1303.18,829.5a27.16,27.16,0,0,1-.35,4.35c-1.92,12.4-11.5,26-22.06,37.77a257.48,257.48,0,0,1-31.79,29.3s-48.36-36.11-54.22-65.77a27.5,27.5,0,1,1,53.92-10.86,27.5,27.5,0,0,1,54.5,5.21Z" fill="url(#linear-gradient-3)"/><path d="M1303.18,829.5a27.16,27.16,0,0,1-.35,4.35c-1.92,12.4-11.5,26-22.06,37.77l-3.09.37-29-47.7a27.5,27.5,0,0,1,54.5,5.21Z" fill="url(#linear-gradient-4)"/></svg>