<svg id="asset" xmlns="http://www.w3.org/2000/svg" xmlns:xlink="http://www.w3.org/1999/xlink" viewBox="0 0 2000 2000"><defs><linearGradient id="linear-gradient" x1="1009.93" y1="860.23" x2="1072.42" y2="816.7" gradientUnits="userSpaceOnUse"><stop offset="0.09" stop-color="#f8b84f"/><stop offset="0.9" stop-color="#fdd490"/></linearGradient><linearGradient id="linear-gradient-2" x1="1246.23" y1="860.23" x2="1308.72" y2="816.7" xlink:href="#linear-gradient"/></defs><path d="M1050.71,865.52a2.42,2.42,0,0,0-.7,2.16l2.87,16.73,2.92,17a2.44,2.44,0,0,1-3.55,2.57l-30.31-15.93a2.42,2.42,0,0,0-2.28,0L989.35,904a2.44,2.44,0,0,1-3.55-2.57l5.79-33.76a2.47,2.47,0,0,0-.7-2.16l-24.53-23.91a2.45,2.45,0,0,1,1.36-4.17l32.1-4.66,1.79-.26a2.48,2.48,0,0,0,1.84-1.34l15.16-30.71a2.44,2.44,0,0,1,4.38,0l15.16,30.71a2.44,2.44,0,0,0,1.84,1.34l33.89,4.92a2.44,2.44,0,0,1,1.35,4.17Z" fill="#f8b84f"/><path d="M1050.71,865.52a2.42,2.42,0,0,0-.7,2.16l2.87,16.73c-7.9-4.56-15.09-9.24-20.57-11.7-13.85-6.21-25.49-22.59-32.49-39.93l1.79-.26a2.48,2.48,0,0,0,1.84-1.34l15.16-30.71a2.44,2.44,0,0,1,4.38,0l15.16,30.71a2.44,2.44,0,0,0,1.84,1.34l33.89,4.92a2.44,2.44,0,0,1,1.35,4.17Z" fill="url(#linear-gradient)"/><path d="M1287,865.52a2.42,2.42,0,0,0-.7,2.16l2.87,16.73,2.92,17a2.44,2.44,0,0,1-3.55,2.57l-30.31-15.93a2.42,2.42,0,0,0-2.28,0L1225.65,904a2.44,2.44,0,0,1-3.55-2.57l5.79-33.76a2.47,2.47,0,0,0-.7-2.16l-24.53-23.91a2.45,2.45,0,0,1,1.36-4.17l32.1-4.66,1.79-.26a2.48,2.48,0,0,0,1.84-1.34l15.16-30.71a2.44,2.44,0,0,1,4.38,0l15.16,30.71a2.44,2.44,0,0,0,1.84,1.34l33.89,4.92a2.44,2.44,0,0,1,1.35,4.17Z" fill="#f8b84f"/><path d="M1287,865.52a2.42,2.42,0,0,0-.7,2.16l2.87,16.73c-7.9-4.56-15.09-9.24-20.57-11.7-13.85-6.21-25.49-22.59-32.49-39.93l1.79-.26a2.48,2.48,0,0,0,1.84-1.34l15.16-30.71a2.44,2.44,0,0,1,4.38,0l15.16,30.71a2.44,2.44,0,0,0,1.84,1.34l33.89,4.92a2.44,2.44,0,0,1,1.35,4.17Z" fill="url(#linear-gradient-2)"/></svg>