<svg id="asset" xmlns="http://www.w3.org/2000/svg" viewBox="0 0 2000 2000"><path d="M1286.53,851.61c.41-27.33-12.44-49.69-28.69-49.93s-29.77,21.72-30.17,49.05,12.44,49.69,28.69,49.93S1286.12,879,1286.53,851.61Z" fill="#512bd4"/><path d="M1256.74,825a27.52,27.52,0,0,0,27.19,45.87,79.13,79.13,0,0,0,2.62-19.25c.2-13.4-2.79-25.59-7.82-34.58A27.61,27.61,0,0,0,1256.74,825Z" fill="#8065e0"/><path d="M1049.49,850.94q0,1.9,0,3.78c0,.24,0,.48,0,.72s0,.55,0,.82c0,.44-.05.88-.08,1.32s0,.82-.08,1.23a1.79,1.79,0,0,0,0,.23c0,.59-.11,1.18-.17,1.77l-.21,1.75c-2.76,21.8-14.16,38.14-28,38.36-16.26.24-29.76-21.73-30.17-49.06-.21-14,3.06-26.72,8.5-35.8,10.57,2.85,21.55,4.46,32.58,3.56h0a70.06,70.06,0,0,0,7.83-1.06c.65-.13,1.31-.26,2-.41.38.7.76,1.42,1.11,2.15.27.56.54,1.13.8,1.71s.52,1.16.76,1.76.56,1.38.82,2.09c.15.39.3.79.43,1.19.06.17.12.34.17.51.13.35.25.7.35,1.05a76.6,76.6,0,0,1,3.37,18.52.68.68,0,0,1,0,.2c0,.75.07,1.51.1,2.27Z" fill="#512bd4"/><path d="M1049.49,850.94q0,1.9,0,3.78c0,.24,0,.48,0,.72s0,.55,0,.82c0,.44-.05.88-.08,1.32s0,.82-.08,1.23a1.79,1.79,0,0,0,0,.23c0,.59-.11,1.18-.17,1.77l-.21,1.75a76,76,0,0,1-2,10,27.51,27.51,0,0,1-15.14-52.9h0a70.06,70.06,0,0,0,7.83-1.06c.74,0,1.48,0,2.22.1.29.54.57,1.09.85,1.64s.54,1.13.8,1.71.52,1.16.76,1.76.56,1.38.82,2.09c.15.39.3.79.43,1.19.06.17.12.34.17.51.13.35.25.7.35,1.05a74.37,74.37,0,0,1,3.37,18.52.68.68,0,0,1,0,.2c0,.75.07,1.51.1,2.27Z" fill="#8065e0"/></svg>