<svg id="asset" xmlns="http://www.w3.org/2000/svg" viewBox="0 0 2000 2000"><path d="M1286.52,851.61a82.35,82.35,0,0,1-.58,8.71c-.2,1.61-.44,3.2-.72,4.75-.15.78-.3,1.55-.46,2.31-.26,1.19-.54,2.37-.85,3.51a63.07,63.07,0,0,1-4.08,11.12,4.68,4.68,0,0,1-6.86,1.79c-10.57-7.16-23.31-6.46-34.3-2a4.65,4.65,0,0,1-6.09-2.52,74.61,74.61,0,0,1-4.92-28.5c.41-27.33,13.92-49.29,30.17-49.05,8.3.13,15.7,6,20.9,15.37h0l0,0c.43.77.84,1.56,1.24,2.38l.08.16c.42.86.82,1.73,1.19,2.63l0,0c.22.54.44,1.08.65,1.63.44,1.12.84,2.28,1.21,3.46.2.64.4,1.3.59,2s.39,1.42.57,2.15A78.81,78.81,0,0,1,1286.52,851.61Z" fill="#512bd4"/><path d="M1256.74,825a27.52,27.52,0,0,0,27.19,45.87,79.13,79.13,0,0,0,2.62-19.25c.2-13.4-2.79-25.59-7.82-34.58A27.61,27.61,0,0,0,1256.74,825Z" fill="#8065e0"/><path d="M1049.48,851.61a82.35,82.35,0,0,1-.58,8.71c-.2,1.61-.44,3.2-.72,4.75-.15.78-.3,1.55-.46,2.31-.26,1.19-.54,2.37-.85,3.51a63.88,63.88,0,0,1-4.09,11.12,4.68,4.68,0,0,1-6.86,1.79c-10.57-7.16-23.31-6.46-34.3-2a4.65,4.65,0,0,1-6.09-2.52,74.42,74.42,0,0,1-4.91-28.5c.41-27.33,13.92-49.29,30.17-49.05,8.29.13,15.69,6,20.89,15.37h0v0c.43.77.84,1.56,1.24,2.38l.08.16c.42.86.82,1.73,1.2,2.63l0,0c.22.54.44,1.08.65,1.63.44,1.12.84,2.28,1.21,3.46.2.64.4,1.3.59,2s.39,1.42.57,2.15A78.81,78.81,0,0,1,1049.48,851.61Z" fill="#512bd4"/><path d="M1019.69,825a27.52,27.52,0,0,0,27.19,45.87,79.13,79.13,0,0,0,2.62-19.25c.2-13.4-2.79-25.59-7.82-34.58A27.62,27.62,0,0,0,1019.69,825Z" fill="#8065e0"/></svg>