<svg id="asset" xmlns="http://www.w3.org/2000/svg" xmlns:xlink="http://www.w3.org/1999/xlink" viewBox="0 0 2000 2000"><defs><radialGradient id="radial-gradient" cx="1008.66" cy="835.96" r="6.76" gradientUnits="userSpaceOnUse"><stop offset="0.09" stop-color="#e1dfdd"/><stop offset="0.9" stop-color="#fff"/></radialGradient><radialGradient id="radial-gradient-2" cx="1020.06" cy="876.78" r="12.11" xlink:href="#radial-gradient"/><radialGradient id="radial-gradient-3" cx="1248.73" cy="835.96" r="6.76" xlink:href="#radial-gradient"/><radialGradient id="radial-gradient-4" cx="1260.12" cy="876.78" r="12.11" xlink:href="#radial-gradient"/></defs><path d="M1286.53,851.61c.41-27.33-12.44-49.69-28.69-49.93s-29.77,21.72-30.17,49.05,12.44,49.69,28.69,49.93S1286.12,879,1286.53,851.61Z" fill="#512bd4"/><path d="M1256.74,825a27.52,27.52,0,0,0,27.19,45.87,79.13,79.13,0,0,0,2.62-19.25c.2-13.4-2.79-25.59-7.82-34.58A27.61,27.61,0,0,0,1256.74,825Z" fill="#8065e0"/><path d="M1020.8,900.92c16.25-.25,29.09-22.6,28.69-49.93s-13.91-49.3-30.17-49.06-29.1,22.6-28.69,49.93S1004.54,901.16,1020.8,900.92Z" fill="#512bd4"/><path d="M1019.83,826.62a27.51,27.51,0,0,0,27,45.9,77.57,77.57,0,0,0,2.64-21.58c-.16-12.42-3.07-23.69-7.7-32.28A27.56,27.56,0,0,0,1019.83,826.62Z" fill="#8065e0"/><circle cx="1008.66" cy="835.96" r="6.76" fill="url(#radial-gradient)"/><circle cx="1020.06" cy="876.78" r="12.11" fill="url(#radial-gradient-2)"/><circle cx="1248.73" cy="835.96" r="6.76" fill="url(#radial-gradient-3)"/><circle cx="1260.12" cy="876.78" r="12.11" fill="url(#radial-gradient-4)"/></svg>