<svg id="asset" xmlns="http://www.w3.org/2000/svg" viewBox="0 0 2000 2000"><path d="M1286.53,851.61c.41-27.33-12.44-49.69-28.69-49.93s-29.77,21.72-30.17,49.05,12.44,49.69,28.69,49.93S1286.12,879,1286.53,851.61Z" fill="#512bd4"/><path d="M1256.74,825a27.52,27.52,0,0,0,27.19,45.87,79.13,79.13,0,0,0,2.62-19.25c.2-13.4-2.79-25.59-7.82-34.58A27.61,27.61,0,0,0,1256.74,825Z" fill="#8065e0"/><path d="M1050.89,857.25A6.84,6.84,0,0,0,1057,846.9c-8.56-14.33-38.76-15.42-61.22-1.32-6.67,4.19-7.85,10.52,1.67,9.94,10.38-.64,33.17-4.42,42.06-.43A35.22,35.22,0,0,0,1050.89,857.25Z" fill="#512bd4"/></svg>