<svg xmlns="http://www.w3.org/2000/svg" xmlns:xlink="http://www.w3.org/1999/xlink" viewBox="0 0 337.18 98.92"><defs><linearGradient id="linear-gradient" y1="49.46" x2="109" y2="49.46" gradientUnits="userSpaceOnUse"><stop offset="0" stop-color="#d25a48"/><stop offset="1" stop-color="#e86e58"/></linearGradient><linearGradient id="linear-gradient-2" x1="64.49" y1="48.67" x2="103.97" y2="9.19" gradientUnits="userSpaceOnUse"><stop offset="0.19" stop-color="#fedbce" stop-opacity="0"/><stop offset="0.34" stop-color="#fedbce" stop-opacity="0.01"/><stop offset="0.46" stop-color="#fedbce" stop-opacity="0.05"/><stop offset="0.57" stop-color="#fedbce" stop-opacity="0.11"/><stop offset="0.66" stop-color="#fedbce" stop-opacity="0.2"/><stop offset="0.76" stop-color="#fedbce" stop-opacity="0.32"/><stop offset="0.84" stop-color="#fedbce" stop-opacity="0.46"/><stop offset="0.93" stop-color="#fedbce" stop-opacity="0.63"/><stop offset="1" stop-color="#fedbce" stop-opacity="0.8"/></linearGradient><linearGradient id="linear-gradient-3" x1="228.18" y1="49.46" x2="337.18" y2="49.46" xlink:href="#linear-gradient"/><linearGradient id="linear-gradient-4" x1="292.67" y1="48.67" x2="332.15" y2="9.19" xlink:href="#linear-gradient-2"/></defs><g id="Layer_2" data-name="Layer 2"><g id="asset"><g id="heart-eyes"><path d="M0,27.5C0,58,54.8,98.92,54.8,98.92V27.5Z" fill="#8065e0"/><path d="M109,27.5a27.16,27.16,0,0,1-.35,4.35c-1.92,12.4-11.5,26-22.06,37.77A257.48,257.48,0,0,1,54.8,98.92S6.44,62.81.58,33.15A27.5,27.5,0,1,1,54.5,22.29,27.5,27.5,0,0,1,109,27.5Z" fill="url(#linear-gradient)"/><path d="M109,27.5a27.16,27.16,0,0,1-.35,4.35c-1.92,12.4-11.5,26-22.06,37.77L83.5,70l-29-47.7A27.5,27.5,0,0,1,109,27.5Z" fill="url(#linear-gradient-2)"/><path d="M337.18,27.5a27.16,27.16,0,0,1-.35,4.35c-1.92,12.4-11.5,26-22.06,37.77A257.48,257.48,0,0,1,283,98.92s-48.36-36.11-54.22-65.77a27.5,27.5,0,1,1,53.92-10.86,27.5,27.5,0,0,1,54.5,5.21Z" fill="url(#linear-gradient-3)"/><path d="M337.18,27.5a27.16,27.16,0,0,1-.35,4.35c-1.92,12.4-11.5,26-22.06,37.77l-3.09.37-29-47.7a27.5,27.5,0,0,1,54.5,5.21Z" fill="url(#linear-gradient-4)"/></g></g></g></svg>