<svg xmlns="http://www.w3.org/2000/svg" viewBox="0 0 295.94 99.25"><g id="Layer_2" data-name="Layer 2"><g id="asset"><g id="inquisitive-eyes"><path d="M295.91,49.93C296.32,22.6,283.47.24,267.22,0s-29.77,21.72-30.17,49.06S249.48,98.74,265.74,99,295.5,77.27,295.91,49.93Z" fill="#512bd4"/><path d="M266.12,23.33a27.53,27.53,0,0,0,27.19,45.88A79.28,79.28,0,0,0,295.93,50c.2-13.4-2.79-25.58-7.82-34.58A27.61,27.61,0,0,0,266.12,23.33Z" fill="#8065e0"/><path d="M58.87,49.26q0,1.91,0,3.78c0,.24,0,.48,0,.72s0,.55,0,.82c0,.44-.05.88-.08,1.32s-.05.82-.08,1.23a1.79,1.79,0,0,0,0,.23c-.05.59-.11,1.18-.17,1.77l-.21,1.75c-2.76,21.8-14.16,38.14-28,38.36C13.92,99.48.42,77.51,0,50.18c-.21-14,3.06-26.72,8.5-35.8,10.57,2.85,21.55,4.46,32.58,3.56h0A70.06,70.06,0,0,0,49,16.88c.65-.13,1.31-.26,2-.41.38.7.76,1.42,1.11,2.15.27.56.54,1.13.8,1.71s.52,1.16.76,1.76.56,1.38.82,2.09c.15.39.3.79.43,1.19.06.17.12.34.17.51.13.35.25.7.35,1.05a76.6,76.6,0,0,1,3.37,18.52.68.68,0,0,1,0,.2c0,.75.07,1.51.1,2.27Z" fill="#512bd4"/><path d="M58.87,49.26q0,1.91,0,3.78c0,.24,0,.48,0,.72s0,.55,0,.82c0,.44-.05.88-.08,1.32s-.05.82-.08,1.23a1.79,1.79,0,0,0,0,.23c-.05.59-.11,1.18-.17,1.77l-.21,1.75a76,76,0,0,1-2,10,27.51,27.51,0,0,1-15.14-52.9h0A70.06,70.06,0,0,0,49,16.88c.74,0,1.48,0,2.22.1.29.54.57,1.09.85,1.64s.54,1.13.8,1.71.52,1.16.76,1.76.56,1.38.82,2.09c.15.39.3.79.43,1.19.06.17.12.34.17.51.13.35.25.7.35,1.05a74.37,74.37,0,0,1,3.37,18.52.68.68,0,0,1,0,.2c0,.75.07,1.51.1,2.27Z" fill="#8065e0"/></g></g></g></svg>