<svg xmlns="http://www.w3.org/2000/svg" viewBox="0 0 295.94 99.24"><g id="Layer_2" data-name="Layer 2"><g id="asset"><g id="original-eyes"><path d="M295.91,49.93C296.32,22.6,283.47.24,267.22,0s-29.77,21.72-30.17,49.06S249.49,98.74,265.74,99,295.5,77.27,295.91,49.93Z" fill="#512bd4"/><path d="M266.12,23.33a27.53,27.53,0,0,0,27.19,45.88A79.28,79.28,0,0,0,295.93,50c.2-13.4-2.79-25.58-7.82-34.58A27.61,27.61,0,0,0,266.12,23.33Z" fill="#8065e0"/><path d="M30.18,99.24C46.43,99,59.27,76.64,58.87,49.31S45,0,28.7.25-.4,22.85,0,50.19,13.92,99.48,30.18,99.24Z" fill="#512bd4"/><path d="M29.21,24.94a27.51,27.51,0,0,0,27,45.91,77.69,77.69,0,0,0,2.64-21.59C58.71,36.84,55.8,25.57,51.17,17A27.56,27.56,0,0,0,29.21,24.94Z" fill="#8065e0"/></g></g></g></svg>