<svg xmlns="http://www.w3.org/2000/svg" viewBox="0 0 295.95 82.94"><g id="Layer_2" data-name="Layer 2"><g id="asset"><g id="smiling-eyes"><path d="M295.92,49.93a82.35,82.35,0,0,1-.58,8.71c-.2,1.61-.44,3.2-.72,4.75-.15.78-.3,1.55-.46,2.31-.26,1.19-.54,2.37-.85,3.51a63.28,63.28,0,0,1-4.09,11.12,4.68,4.68,0,0,1-6.86,1.79c-10.57-7.16-23.31-6.46-34.3-2.05A4.66,4.66,0,0,1,242,77.55a74.61,74.61,0,0,1-4.91-28.5C237.47,21.72,251-.24,267.23,0c8.3.13,15.69,6,20.9,15.37h0v0c.43.77.85,1.56,1.24,2.38l.09.16c.41.86.81,1.73,1.19,2.63,0,0,0,0,0,0,.22.54.44,1.08.65,1.63.44,1.12.84,2.28,1.21,3.46.2.64.4,1.3.59,2s.39,1.42.57,2.15A78.81,78.81,0,0,1,295.92,49.93Z" fill="#512bd4"/><path d="M266.13,23.33a27.53,27.53,0,0,0,27.2,45.88A79.78,79.78,0,0,0,295.94,50c.2-13.4-2.78-25.59-7.82-34.58A27.62,27.62,0,0,0,266.13,23.33Z" fill="#8065e0"/><path d="M58.87,49.93a82.35,82.35,0,0,1-.58,8.71c-.2,1.61-.44,3.2-.72,4.75-.15.78-.3,1.55-.46,2.31-.26,1.19-.54,2.37-.85,3.51a63.28,63.28,0,0,1-4.09,11.12,4.68,4.68,0,0,1-6.86,1.79C34.74,75,22,75.66,11,80.07a4.66,4.66,0,0,1-6.09-2.52A74.61,74.61,0,0,1,0,49.05C.42,21.72,13.93-.24,30.18,0c8.3.13,15.69,6,20.9,15.37h0v0c.43.77.85,1.56,1.24,2.38l.09.16c.41.86.81,1.73,1.19,2.63,0,0,0,0,0,0,.22.54.44,1.08.65,1.63.44,1.12.84,2.28,1.21,3.46.2.64.4,1.3.59,2s.39,1.42.57,2.15A78.81,78.81,0,0,1,58.87,49.93Z" fill="#512bd4"/><path d="M29.09,23.33A27.53,27.53,0,0,0,56.28,69.21,80.27,80.27,0,0,0,58.9,50c.2-13.4-2.79-25.59-7.83-34.58A27.59,27.59,0,0,0,29.09,23.33Z" fill="#8065e0"/></g></g></g></svg>