<svg xmlns="http://www.w3.org/2000/svg" xmlns:xlink="http://www.w3.org/1999/xlink" viewBox="0 0 346.66 105.19"><defs><linearGradient id="linear-gradient" x1="44.31" y1="61.12" x2="106.8" y2="17.6" gradientUnits="userSpaceOnUse"><stop offset="0.09" stop-color="#f8b84f"/><stop offset="0.9" stop-color="#fdd490"/></linearGradient><linearGradient id="linear-gradient-2" x1="280.61" y1="61.12" x2="343.1" y2="17.6" xlink:href="#linear-gradient"/></defs><g id="Layer_2" data-name="Layer 2"><g id="asset"><g id="Star-eyes"><path d="M85.09,66.41a2.43,2.43,0,0,0-.7,2.17L87.26,85.3l2.92,17a2.44,2.44,0,0,1-3.55,2.57L56.32,89A2.48,2.48,0,0,0,54,89L23.73,104.91a2.44,2.44,0,0,1-3.55-2.57L26,68.58a2.48,2.48,0,0,0-.7-2.17L.74,42.5A2.44,2.44,0,0,1,2.1,38.34l32.1-4.67L36,33.41a2.49,2.49,0,0,0,1.84-1.33L53,1.37a2.43,2.43,0,0,1,4.38,0L72.53,32.08a2.46,2.46,0,0,0,1.84,1.33l33.89,4.93a2.44,2.44,0,0,1,1.35,4.16Z" fill="#f8b84f"/><path d="M85.09,66.41a2.43,2.43,0,0,0-.7,2.17L87.26,85.3c-7.9-4.56-15.09-9.23-20.57-11.69C52.84,67.39,41.2,51,34.2,33.67L36,33.41a2.49,2.49,0,0,0,1.84-1.33L53,1.37a2.43,2.43,0,0,1,4.38,0L72.53,32.08a2.46,2.46,0,0,0,1.84,1.33l33.89,4.93a2.44,2.44,0,0,1,1.35,4.16Z" fill="url(#linear-gradient)"/><path d="M321.39,66.41a2.43,2.43,0,0,0-.7,2.17l2.87,16.72,2.92,17a2.44,2.44,0,0,1-3.55,2.57L292.62,89a2.48,2.48,0,0,0-2.28,0L260,104.91a2.44,2.44,0,0,1-3.55-2.57l5.79-33.76a2.48,2.48,0,0,0-.7-2.17L237,42.5a2.44,2.44,0,0,1,1.36-4.16l32.1-4.67,1.79-.26a2.49,2.49,0,0,0,1.84-1.33L289.29,1.37a2.43,2.43,0,0,1,4.38,0l15.16,30.71a2.46,2.46,0,0,0,1.84,1.33l33.89,4.93a2.44,2.44,0,0,1,1.35,4.16Z" fill="#f8b84f"/><path d="M321.39,66.41a2.43,2.43,0,0,0-.7,2.17l2.87,16.72c-7.9-4.56-15.09-9.23-20.57-11.69C289.14,67.39,277.5,51,270.5,33.67l1.79-.26a2.49,2.49,0,0,0,1.84-1.33L289.29,1.37a2.43,2.43,0,0,1,4.38,0l15.16,30.71a2.46,2.46,0,0,0,1.84,1.33l33.89,4.93a2.44,2.44,0,0,1,1.35,4.16Z" fill="url(#linear-gradient-2)"/></g></g></g></svg>