<svg xmlns="http://www.w3.org/2000/svg" viewBox="0 0 296 98.99"><g id="Layer_2" data-name="Layer 2"><g id="asset"><g id="winking-eyes"><path d="M296,49.93C296.38,22.6,283.53.24,267.27,0s-29.76,21.72-30.16,49.06S249.54,98.74,265.8,99,295.56,77.27,296,49.93Z" fill="#512bd4"/><path d="M266.18,23.33a27.53,27.53,0,0,0,27.19,45.88A79.78,79.78,0,0,0,296,50c.2-13.4-2.79-25.58-7.82-34.58A27.61,27.61,0,0,0,266.18,23.33Z" fill="#8065e0"/><path d="M60.33,55.57a6.84,6.84,0,0,0,6.13-10.35C57.9,30.9,27.7,29.8,5.24,43.9c-6.68,4.2-7.85,10.53,1.67,9.94,10.38-.64,33.16-4.42,42.06-.43A34.9,34.9,0,0,0,60.33,55.57Z" fill="#512bd4"/></g></g></g></svg>