<?xml version="1.0" encoding="utf-8"?>
<!-- Generator: Adobe Illustrator 26.0.0, SVG Export Plug-In . SVG Version: 6.00 Build 0)  -->
<svg version="1.1" id="asset" xmlns="http://www.w3.org/2000/svg" xmlns:xlink="http://www.w3.org/1999/xlink" x="0px" y="0px"
	 viewBox="0 0 2000 2000" style="enable-background:new 0 0 2000 2000;" xml:space="preserve">
<style type="text/css">
	.st0{fill:url(#SVGID_1_);}
	.st1{fill:url(#SVGID_00000054260212222057113090000016780744248170628782_);}
	.st2{fill:url(#SVGID_00000078767742911368179150000005631624478863267464_);}
	.st3{fill:url(#SVGID_00000116940949862551616450000007819375235114022805_);}
	.st4{fill:url(#SVGID_00000019650960095148865170000003947316457194633907_);}
	.st5{fill:url(#SVGID_00000110436686545183977360000013916452076303529612_);}
</style>
<g>
	
		<linearGradient id="SVGID_1_" gradientUnits="userSpaceOnUse" x1="716.2838" y1="5529.7524" x2="716.2838" y2="5056.9971" gradientTransform="matrix(1 0 0 -1 564 6758.4224)">
		<stop  offset="0.7625" style="stop-color:#F0F0F0"/>
		<stop  offset="1" style="stop-color:#CFCDCD"/>
	</linearGradient>
	<path class="st0" d="M1201.18,1267.27c0,0-18.51-25.72-65.35-34.63c-4.37-0.83-6.16,3.16-3.2,7.11
		c4.59,6.19,8.26,13.01,10.89,20.25c0,0-35.5-22.74-71.58-24c-4.41-0.16-4.19,5.45,0.32,8.2c18.24,11.11,26.3,23.06,26.3,23.06
		s-26.53-3-49.36,4.4c-4.05,1.32-1.33,8,3.75,9.18c15.43,3.74,23.68,7.52,23.68,7.52s-14.68,9.27-27.17,30.16
		c-1.7,2.84,2.86,7.67,6.36,6.76c16.14-4.18,25.87-2.73,25.87-2.73s-16.48,22.27-21.58,55.76c-0.62,4.1,5.08,8.9,8.89,7.46
		c6.76-2.6,13.76-4.53,20.9-5.76c0,0-18.79,22.27-31.56,72.15c-0.85,3.33,4.11,7.57,7.25,6.19c7.35-3.26,14.87-6.1,22.54-8.51
		c-5.01,11.99-8.29,24.64-9.72,37.56c-0.47,4.45,5.26,9.58,9.81,8.83c4.67-0.78,9.38-1.22,14.11-1.31
		c-6.7,19.31-9.57,39.75-8.46,60.16c0.29,5,7.19,9.52,10.93,7.21c4.43-2.78,9.12-5.12,14-7c0,0-6,30.75,4.73,67.71
		c1.39,4.77,7.83,8,10.79,5.45c2.57-2.23,5.27-4.31,8.07-6.24c6.57,13.32,14.8,25.75,24.5,37c3.52,4.08,9.17,4.79,10.7,1.37
		c2.23-4.84,4.98-9.43,8.19-13.68c0,0,9.74,27.33,46,51.07c4.85,3.18,9.85,1.6,9.53-3c-0.54-7.87-0.55-12.76-0.55-12.76
		s30.89,14.81,78.23,19.19c3.3,0.31,5-2.24,3.7-5.49c-2.26-5.32-4.08-10.82-5.42-16.45c18.05,7.03,36.78,12.17,55.89,15.35
		c17.06,2.77,37.86,1.26,48.38,0.17c3-0.31,3-4,0.1-6.46l-15.51-13.1c0,0,52.6,10.41,85.61,6.61c2.5-0.28,2.61-3.35,0.22-5.52
		c-8.6-7.84-16.07-15.08-16.07-15.08s18.47-5.78,34.06-5.14c2.61,0.11,4-1.88,3.1-4.49c-8.37-24.6-42-38.37-42-38.37s7-7,24.9-8.14
		c5.09-0.34,4.86-6.89-0.45-10.46c-22.84-15.38-51.08-22.87-51.08-22.87s18.89-0.57,24.55-14.43c1-2.4-2-6-5.12-6.14
		c-40.35-1.77-86.15-12.89-86.15-12.89c3.53-1.49,6.84-3.47,9.84-5.86c2.28-1.9,0.23-6.5-3.6-8.1
		c-22.56-9.66-43.12-23.43-60.66-40.59c4.64,0.79,9.39,0.7,14-0.24c2.74-0.65,3-4,0.54-6.87c-16.39-19-32.19-48.9-32.19-48.9
		s16.52,11.53,30.89,15.85c4.25,1.28,6.38-2.33,3.67-6.17c-24-34.15-30.88-60.6-30.88-60.6s16.45,12.22,34.06,14
		c3.89,0.38,4.81-3.78,1.59-7.08c-14.78-15.11-29.92-37.43-29.92-37.43s20.82,4.48,38.81-6.21c2.57-1.53,0.23-6.3-3.52-7.21
		c-17.66-4.26-35.67-14.22-35.67-14.22s12.34-10.11,16.19-25.26c0.86-3.41-3.92-7.83-7.45-6.9c-9.32,2.29-18.81,3.8-28.37,4.52
		c0.82-6.66,0.04-13.42-2.28-19.71c-2.32-6.3-6.12-11.94-11.08-16.47c-2.86-2.64-6.62-2.31-7,0.5c-2,13.58-14.16,26.95-14.16,26.95
		s-18.46-32-60.75-53.83C1205.25,1251.99,1201.18,1267.27,1201.18,1267.27z"/>
	
		<radialGradient id="SVGID_00000180363233021770645820000009029986019164532624_" cx="4505.6025" cy="3368.9644" r="1" gradientTransform="matrix(5.4029 -66.8904 -179.9151 -14.5322 582973 351714.375)" gradientUnits="userSpaceOnUse">
		<stop  offset="0.5368" style="stop-color:#B3B3B3"/>
		<stop  offset="1" style="stop-color:#B3B3B3;stop-opacity:0"/>
	</radialGradient>
	<path style="fill:url(#SVGID_00000180363233021770645820000009029986019164532624_);" d="M1327.74,1325.26
		c-7.74-3.38-13.11-6.35-13.11-6.35s12.34-10.11,16.19-25.26c0.86-3.41-3.92-7.83-7.45-6.9c-9.32,2.29-18.8,3.8-28.37,4.52
		c0.83-6.66,0.04-13.42-2.28-19.71c-2.32-6.29-6.12-11.94-11.08-16.47c-2.86-2.64-6.62-2.31-7,0.51
		c-2,13.57-14.16,26.94-14.16,26.94s-18.46-32-60.75-53.83c5.56,23.28,1.49,38.55,1.49,38.55s-18.51-25.72-65.35-34.63
		c-4.37-0.83-6.16,3.16-3.2,7.11c4.59,6.19,8.26,13.01,10.89,20.25c0,0-35.5-22.74-71.58-24c-4.41-0.16-4.19,5.45,0.32,8.2
		c18.24,11.11,26.3,23.06,26.3,23.06s-26.53-3-49.36,4.4c-4.05,1.32-1.33,8,3.75,9.18c15.43,3.74,23.68,7.52,23.68,7.52
		s-6.47,4.09-14.48,13C1166.99,1347.55,1281.06,1335.48,1327.74,1325.26z"/>
	
		<linearGradient id="SVGID_00000132054154805863879520000007015335650466066312_" gradientUnits="userSpaceOnUse" x1="247.3826" y1="5529.7422" x2="247.3826" y2="5056.9824" gradientTransform="matrix(1 0 0 -1 564 6758.4224)">
		<stop  offset="0.7625" style="stop-color:#F0F0F0"/>
		<stop  offset="1" style="stop-color:#CFCDCD"/>
	</linearGradient>
	<path style="fill:url(#SVGID_00000132054154805863879520000007015335650466066312_);" d="M839.52,1267.27
		c0,0-8.47-25.72-52.63-34.63c-0.94-0.19-1.91-0.12-2.81,0.19c-0.9,0.31-1.71,0.85-2.33,1.58c-0.62,0.72-1.04,1.6-1.22,2.54
		c-0.17,0.94-0.09,1.91,0.23,2.81c2.2,6.52,3.19,13.38,2.92,20.25c0,0-27-22.74-63.28-24c-0.97-0.04-1.92,0.24-2.73,0.78
		c-0.8,0.54-1.42,1.32-1.75,2.23s-0.37,1.9-0.1,2.84s0.82,1.76,1.58,2.35c14.11,11.11,17.49,23.06,17.49,23.06s-25.81-3-52.09,4.4
		c-1,0.29-1.88,0.9-2.5,1.74s-0.95,1.85-0.94,2.9c0.01,1.04,0.37,2.05,1.01,2.87s1.54,1.41,2.55,1.67
		c14.21,3.74,21.1,7.52,21.1,7.52s-18.71,9.27-39.89,30.16c-0.64,0.61-1.05,1.42-1.18,2.29c-0.13,0.88,0.03,1.77,0.46,2.54
		s1.1,1.38,1.91,1.73s1.72,0.42,2.57,0.2c18.14-4.18,27.47-2.73,27.47-2.73c-17.66,16.15-32.68,34.97-44.52,55.76
		c-0.51,0.9-0.74,1.93-0.65,2.96c0.08,1.02,0.47,2,1.12,2.81c0.65,0.8,1.52,1.39,2.51,1.69c0.99,0.31,2.04,0.31,3.03,0
		c7.71-2.55,15.61-4.47,23.63-5.76c0,0-28.14,22.27-61.31,72.15c-0.48,0.73-0.72,1.59-0.68,2.46c0.04,0.88,0.35,1.71,0.89,2.4
		c0.54,0.69,1.28,1.18,2.12,1.42c0.84,0.24,1.73,0.21,2.55-0.09c15.47-5.67,26.42-8.51,26.42-8.51
		c-9.65,11.6-18.05,24.19-25.05,37.56c-0.51,1.01-0.73,2.14-0.64,3.27c0.09,1.12,0.49,2.2,1.16,3.11c0.67,0.92,1.57,1.63,2.61,2.06
		s2.19,0.57,3.3,0.39c4.93-0.77,9.91-1.21,14.91-1.31c0,0-21.29,26.51-32.93,60.16c-0.38,1.11-0.41,2.31-0.11,3.44
		s0.94,2.14,1.82,2.92c0.88,0.77,1.97,1.26,3.13,1.41c1.16,0.16,2.34-0.04,3.39-0.56c5.54-2.74,11.27-5.08,17.15-7
		c0,0-18.56,30.75-22.54,67.71c-0.11,1.07,0.08,2.16,0.56,3.13s1.21,1.78,2.13,2.35s1.98,0.87,3.06,0.87
		c1.08-0.01,2.14-0.32,3.05-0.9c5.68-3.6,10.75-6.24,10.75-6.24c1.2,12.81,4.58,25.33,10,37c0.45,0.94,1.12,1.75,1.96,2.36
		s1.82,1,2.85,1.14c1.03,0.13,2.08,0.01,3.05-0.36s1.83-0.98,2.51-1.77c4.28-4.89,8.92-9.46,13.87-13.68c0,0-1.11,27.33,26.24,51.07
		c0.85,0.73,1.86,1.25,2.96,1.49c1.09,0.25,2.23,0.23,3.31-0.07c1.08-0.3,2.07-0.86,2.89-1.63c0.81-0.77,1.42-1.73,1.78-2.79
		c2.62-7.87,4.59-12.76,4.59-12.76s25.51,14.81,72,19.19c0.76,0.08,1.54,0,2.27-0.24c0.73-0.25,1.4-0.64,1.97-1.16
		c0.57-0.52,1.02-1.15,1.32-1.85c0.3-0.71,0.46-1.47,0.44-2.24c-0.14-5.51,0.24-11.01,1.13-16.45c16.2,7.26,33.27,12.42,50.78,15.35
		c16.27,2.77,38.08,1.26,49.24,0.17c0.71-0.07,1.39-0.34,1.97-0.76c0.57-0.43,1.02-1,1.3-1.66c0.28-0.66,0.37-1.39,0.28-2.1
		c-0.1-0.71-0.38-1.38-0.83-1.94l-10.53-13.1c0,0,49.42,10.41,84.61,6.61c0.61-0.07,1.19-0.29,1.68-0.65s0.88-0.84,1.13-1.4
		s0.35-1.18,0.28-1.78c-0.06-0.61-0.28-1.19-0.64-1.69c-5.61-7.84-10.3-15.08-10.3-15.08s21.17-5.78,36.8-5.14
		c1.26,0.06,2.49-0.37,3.42-1.21c0.94-0.85,1.5-2.02,1.58-3.28c1.41-24.6-27.32-38.37-27.32-38.37s9.91-7,28.67-8.14
		c1.19-0.05,2.34-0.45,3.31-1.15c0.96-0.71,1.69-1.69,2.1-2.81c0.41-1.12,0.47-2.34,0.17-3.5c-0.29-1.16-0.92-2.2-1.81-3
		c-17.07-15.38-42.85-22.87-42.85-22.87s19.5-0.57,30.87-14.43c0.44-0.54,0.72-1.19,0.82-1.88c0.09-0.69-0.01-1.4-0.29-2.04
		c-0.28-0.63-0.74-1.18-1.32-1.57c-0.58-0.39-1.25-0.62-1.95-0.65c-40.42-1.77-82.62-12.89-82.62-12.89
		c4.32-1.54,8.47-3.5,12.4-5.86c0.7-0.44,1.27-1.05,1.66-1.79c0.38-0.73,0.56-1.55,0.52-2.38c-0.04-0.82-0.3-1.62-0.76-2.31
		c-0.45-0.7-1.09-1.25-1.83-1.62c-31-15.21-45.43-40.59-45.43-40.59c4.75,0.8,9.61,0.72,14.33-0.24c0.72-0.16,1.39-0.48,1.96-0.94
		c0.57-0.45,1.04-1.03,1.36-1.69c0.32-0.66,0.49-1.39,0.49-2.12s-0.16-1.46-0.48-2.12c-9-19-13.06-48.9-13.06-48.9
		s12.18,11.53,25.08,15.85c0.86,0.29,1.79,0.33,2.67,0.12s1.69-0.65,2.34-1.29s1.1-1.44,1.32-2.33c0.22-0.88,0.19-1.8-0.09-2.67
		c-10.72-34.15-7-60.6-7-60.6s11.84,12.22,29.09,14c0.86,0.08,1.73-0.08,2.51-0.47c0.78-0.38,1.43-0.97,1.9-1.7
		c0.46-0.73,0.71-1.58,0.73-2.44c0.01-0.87-0.21-1.72-0.65-2.47c-9-15.11-15.38-37.43-15.38-37.43s19.41,4.48,42.07-6.21
		c0.71-0.34,1.3-0.89,1.69-1.58s0.56-1.48,0.48-2.26c-0.07-0.79-0.39-1.53-0.9-2.13s-1.19-1.04-1.95-1.24
		c-16.27-4.26-30.61-14.22-30.61-14.22s16.66-10.11,26.71-25.26c0.5-0.76,0.76-1.65,0.74-2.55c-0.01-0.9-0.3-1.79-0.81-2.53
		c-0.52-0.74-1.25-1.31-2.09-1.64c-0.85-0.32-1.77-0.39-2.65-0.18c-10.13,2.25-20.4,3.76-30.75,4.52c0,0,12.05-20.42,1-36.18
		c-0.43-0.6-1.01-1.07-1.68-1.39c-0.67-0.31-1.41-0.45-2.14-0.4c-0.74,0.05-1.45,0.29-2.07,0.69c-0.62,0.4-1.13,0.95-1.48,1.6
		c-7.53,13.58-25.33,26.95-25.33,26.95s-5.89-32-40.18-53.83C849.84,1251.99,839.52,1267.27,839.52,1267.27z"/>
	
		<radialGradient id="SVGID_00000165915409963209885800000011486043820358282384_" cx="4505.6299" cy="3369.0752" r="1" gradientTransform="matrix(5.3794 -66.8904 -179.1426 -14.4069 580127.75 351295.5)" gradientUnits="userSpaceOnUse">
		<stop  offset="0.5368" style="stop-color:#B3B3B3"/>
		<stop  offset="1" style="stop-color:#B3B3B3;stop-opacity:0"/>
	</radialGradient>
	<path style="fill:url(#SVGID_00000165915409963209885800000011486043820358282384_);" d="M945.11,1325.26
		c-3.72-1.9-7.33-4.02-10.8-6.35c0,0,16.66-10.11,26.71-25.26c0.5-0.76,0.76-1.64,0.74-2.55c-0.01-0.91-0.29-1.79-0.81-2.53
		s-1.25-1.31-2.09-1.64c-0.84-0.32-1.77-0.39-2.65-0.18c-10.13,2.25-20.4,3.76-30.75,4.52c0,0,12.05-20.42,1-36.18
		c-0.43-0.6-1.01-1.08-1.68-1.39s-1.41-0.45-2.15-0.4c-0.74,0.05-1.45,0.29-2.07,0.69c-0.62,0.4-1.13,0.96-1.47,1.61
		c-7.53,13.57-25.33,26.94-25.33,26.94s-5.89-32-40.18-53.83c-3.74,23.28-14.06,38.55-14.06,38.55s-8.47-25.72-52.63-34.63
		c-0.94-0.19-1.91-0.12-2.81,0.19c-0.9,0.31-1.71,0.85-2.33,1.58c-0.62,0.72-1.04,1.6-1.22,2.54s-0.1,1.91,0.23,2.81
		c2.2,6.52,3.19,13.38,2.92,20.25c0,0-27-22.74-63.28-24c-0.97-0.04-1.92,0.24-2.73,0.78c-0.8,0.54-1.42,1.32-1.75,2.23
		s-0.37,1.9-0.1,2.84s0.82,1.76,1.58,2.35c14.11,11.11,17.49,23.06,17.49,23.06s-25.81-3-52.09,4.4c-1,0.29-1.88,0.9-2.5,1.74
		s-0.95,1.85-0.94,2.9c0.01,1.04,0.37,2.05,1.01,2.87s1.54,1.41,2.55,1.67c14.21,3.74,21.1,7.52,21.1,7.52
		c-7.02,3.76-13.71,8.11-20,13C772.23,1347.55,893.41,1335.48,945.11,1325.26z"/>
	
		<linearGradient id="SVGID_00000111908063532463080410000009441206248315014552_" gradientUnits="userSpaceOnUse" x1="839.9231" y1="248.681" x2="813.4287" y2="401.7418" gradientTransform="matrix(1 0 0 1 0 920)">
		<stop  offset="0" style="stop-color:#522CD5"/>
		<stop  offset="0.6512" style="stop-color:#8A6FE8"/>
	</linearGradient>
	<path style="fill:url(#SVGID_00000111908063532463080410000009441206248315014552_);" d="M798.72,1175.11l-19.31,155.29
		c23.79,3.67,47.88,4.99,71.93,3.93l16.65-133.9C843.88,1194.23,820.7,1185.71,798.72,1175.11z"/>
	
		<linearGradient id="SVGID_00000172440441415688349700000004468981906895871404_" gradientUnits="userSpaceOnUse" x1="1148.293" y1="239.9661" x2="1186.9266" y2="425.9116" gradientTransform="matrix(1 0 0 1 0 920)">
		<stop  offset="0" style="stop-color:#522CD5"/>
		<stop  offset="0.44" style="stop-color:#8A6FE8"/>
	</linearGradient>
	<path style="fill:url(#SVGID_00000172440441415688349700000004468981906895871404_);" d="M1115.73,1179.47
		c19.52,53.83,26.26,107.82,28.13,146.7c13.27,3.42,47.38,8.07,70.77,8.22c-2.26-48.97-11.03-121.1-37.22-189.92
		C1158.09,1157.98,1137.46,1169.72,1115.73,1179.47z"/>
</g>
</svg>
