<?xml version="1.0" encoding="utf-8"?>
<!-- Generator: Adobe Illustrator 26.0.0, SVG Export Plug-In . SVG Version: 6.00 Build 0)  -->
<svg version="1.1" id="asset" xmlns="http://www.w3.org/2000/svg" xmlns:xlink="http://www.w3.org/1999/xlink" x="0px" y="0px"
	 viewBox="0 0 2000 2000" style="enable-background:new 0 0 2000 2000;" xml:space="preserve">
<style type="text/css">
	.st0{fill:#148EF4;}
	.st1{fill:url(#SVGID_1_);}
	.st2{fill:url(#SVGID_00000005978908477242773340000000688678238827752872_);}
	.st3{fill:#CCCCCC;}
	.st4{fill:#E6E6E6;}
	.st5{fill:#6AB7FB;}
	.st6{fill:#FFFFFF;}
	.st7{fill:#D600AA;}
	.st8{fill:#999999;}
</style>
<g>
	<path class="st0" d="M1105.41,1515.02c0-42.73,9.32-67.1,24.86-65.51c18.44,1.89,25.63,44.85,25.63,44.85L1105.41,1515.02z"/>
	<path class="st0" d="M741.98,1515.02c8.31-42.73,21.45-67.1,35.16-65.51c16.27,1.89,14.41,44.85,14.41,44.85L741.98,1515.02z"/>
	
		<linearGradient id="SVGID_1_" gradientUnits="userSpaceOnUse" x1="1107.613" y1="1734.5966" x2="1174.9275" y2="1428.1643" gradientTransform="matrix(1 0 0 -1 0 2920)">
		<stop  offset="0.1773" style="stop-color:#522CD5"/>
		<stop  offset="0.1918" style="stop-color:#5934D7"/>
		<stop  offset="0.2412" style="stop-color:#6B4ADD"/>
		<stop  offset="0.2995" style="stop-color:#795BE2"/>
		<stop  offset="0.3717" style="stop-color:#8366E6"/>
		<stop  offset="0.473" style="stop-color:#886DE7"/>
		<stop  offset="0.7543" style="stop-color:#8A6FE8"/>
	</linearGradient>
	<path class="st1" d="M1066.09,1197.64c40.58,101.95,68.79,245.28,67.74,283.35c-0.15,3.8,36.04,7.31,70.97-0.62
		c0.79-72.15-29.08-205.98-72.2-308.97C1111.51,1182.16,1089.26,1190.98,1066.09,1197.64z"/>
	
		<linearGradient id="SVGID_00000169533796682177257470000016244456372253281207_" gradientUnits="userSpaceOnUse" x1="847.6451" y1="1780.584" x2="810.9734" y2="1420.0255" gradientTransform="matrix(1 0 0 -1 0 2920)">
		<stop  offset="0.1773" style="stop-color:#522CD5"/>
		<stop  offset="0.6559" style="stop-color:#8A6FE8"/>
	</linearGradient>
	<path style="fill:url(#SVGID_00000169533796682177257470000016244456372253281207_);" d="M814.35,1182.2l-49.77,353.54l71.31,8.88
		l47.93-340.5C859.73,1199.04,836.49,1191.65,814.35,1182.2z"/>
	<path class="st3" d="M1450.3,1627.08c-20.19-39.12-25.86-41.88-87.77-57.42c-109.53-27.49-125.07-118.41-128.17-133.33
		c-3.1-14.92-44.28-9.31-59,1.56c-14.72,10.87-24.08,50.79-24.08,50.79l4.66,160.26c0,0,148.37,29.53,187.21,22.24
		S1450.3,1627.08,1450.3,1627.08z"/>
	<path class="st4" d="M1246.01,1643.56c0,0,28.74-38.88,66.8-40s104.09-14,107.2-17.68s22.54,18.27,30.3,44.31
		C1458.07,1656.23,1246.01,1643.56,1246.01,1643.56z"/>
	<path class="st5" d="M1103.85,1625.24v-107.2c0-31.07,41.17-43.67,63.7-54.92c15.39-7.68,28-15.62,42,23.17
		s48.94,63.93,77.68,73.21c28.74,9.28-3.89,20-18.65,32.42s-34.17,36.27-28.74,47.43
		C1245.27,1650.51,1168.33,1672.89,1103.85,1625.24z"/>
	<path class="st6" d="M1172.55,1526.58l6.55,20.51c0.4,1.24,1.16,2.34,2.19,3.14c1.03,0.81,2.28,1.28,3.59,1.36l21.21,1.12
		c5.89,0.3,8.33,8,3.57,11.18l-17.16,11.57c-1.05,0.72-1.83,1.76-2.22,2.97c-0.4,1.2-0.39,2.51,0.02,3.71l6.55,20.51
		c0.41,1.21,0.42,2.53,0.01,3.75c-0.41,1.21-1.21,2.26-2.27,2.98c-1.06,0.71-2.33,1.06-3.61,0.98c-1.28-0.07-2.5-0.57-3.47-1.41
		l-17.16-13.36c-1-0.81-2.23-1.28-3.51-1.35c-1.28-0.06-2.56,0.27-3.64,0.97l-17.16,11.57c-4.76,3.21-11.17-1.78-9.35-7.28
		l6.55-19.83c0.39-1.24,0.39-2.57-0.01-3.8c-0.39-1.24-1.16-2.33-2.19-3.11l-17.16-13.37c-4.76-3.71-2.32-11.11,3.57-10.81
		l21.21,1.12c1.26,0.08,2.51-0.26,3.56-0.97c1.05-0.7,1.83-1.73,2.23-2.93l6.55-19.83
		C1162.81,1520.47,1170.74,1520.89,1172.55,1526.58z"/>
	<path class="st7" d="M1099.97,1626.55v29.18c0.02,2.28,0.86,4.48,2.35,6.21c1.5,1.73,3.56,2.86,5.81,3.21
		c29.31,4.34,134.39,18,264.48,13c30.75-1.18,68.49-9.52,84.58-13.39c2.14-0.52,4-1.86,5.17-3.73c1.18-1.86,1.59-4.11,1.15-6.27
		l-5.08-26.57c-0.24-1.27-0.73-2.47-1.45-3.54c-0.72-1.07-1.64-1.98-2.72-2.68c-1.08-0.71-2.29-1.18-3.55-1.41
		c-1.27-0.22-2.57-0.18-3.82,0.11c-20.13,5.22-67.13,16.67-95.25,17.59c-29.14,1-68.19,0.89-82.75,0.82
		c-1.64-0.02-3.25-0.46-4.67-1.29c-1.42-0.82-2.6-1.99-3.44-3.4c-3.54-5.92-11.52-15.35-26.43-15.49
		c-17.87-0.16-17.87,13.83-32.63,23.93c-13.76,9.41-45.73-15.87-91.52-24.67c-1.24-0.26-2.53-0.24-3.76,0.07
		c-1.23,0.3-2.38,0.87-3.36,1.68c-0.98,0.8-1.77,1.82-2.31,2.97C1100.24,1624.02,1099.96,1625.28,1099.97,1626.55z"/>
	<path d="M1202.75,1491.19c2.46-2.4,2.41-6.43-0.12-9.02c-2.52-2.59-6.55-2.75-9.01-0.35c-2.46,2.39-2.41,6.43,0.11,9.02
		C1196.26,1493.42,1200.29,1493.58,1202.75,1491.19z"/>
	<path d="M1211.45,1513.08c2.46-2.4,2.41-6.43-0.11-9.02s-6.55-2.75-9.01-0.35c-2.46,2.39-2.41,6.43,0.11,9.02
		C1204.96,1515.31,1209,1515.47,1211.45,1513.08z"/>
	<path d="M1224.84,1531.64c2.46-2.39,2.41-6.43-0.11-9.02c-2.52-2.58-6.55-2.74-9.01-0.35s-2.41,6.43,0.12,9.02
		C1218.35,1533.88,1222.39,1534.03,1224.84,1531.64z"/>
	<path d="M1242.33,1548.29c2.46-2.39,2.41-6.43-0.12-9.02c-2.52-2.59-6.56-2.74-9.01-0.35c-2.46,2.39-2.41,6.43,0.11,9.02
		C1235.84,1550.53,1239.88,1550.68,1242.33,1548.29z"/>
	<path d="M1261.94,1562.33c2.46-2.39,2.41-6.43-0.11-9.02c-2.52-2.58-6.55-2.74-9.01-0.35c-2.46,2.4-2.41,6.43,0.11,9.02
		S1259.48,1564.73,1261.94,1562.33z"/>
	<path d="M1284.66,1575.17c2.46-2.4,2.41-6.44-0.12-9.02c-2.52-2.59-6.56-2.75-9.01-0.35c-2.46,2.39-2.41,6.43,0.11,9.01
		C1278.17,1577.4,1282.2,1577.56,1284.66,1575.17z"/>
	<g>
		<path class="st8" d="M1280.96,1572.85c-0.82,0-1.62-0.33-2.2-0.96c-0.93-1-1.06-2.51-0.32-3.66c2.61-4.08,5.21-7.55,7.69-10.52
			c-7.67,0.21-16.69,0.88-27.5,2.3c-1.16,0.14-2.31-0.39-2.93-1.38c-0.62-0.99-0.61-2.26,0.03-3.24c2.58-3.93,6.69-7.99,11.12-11.7
			c-9.05-0.04-18.7,0.62-27.79,2.59c-1.28,0.27-2.6-0.31-3.25-1.46c-0.65-1.15-0.47-2.58,0.44-3.54c3.65-3.85,7.47-7.51,11.45-10.99
			c-8.86-0.49-17.72-0.71-26.54-0.62c-0.01,0-0.02,0-0.03,0c-1.2,0-2.29-0.72-2.76-1.83c-0.47-1.12-0.23-2.41,0.62-3.27
			c4.67-4.75,9.84-9.1,14.86-12.89c-8.28-0.84-17.08-1.24-25.54-0.71c-1.22,0.08-2.39-0.61-2.91-1.74
			c-0.52-1.13-0.29-2.45,0.57-3.34c5.54-5.71,11.5-10.45,17.15-14.28c-6.73-0.94-14.59-1.73-23.73-2.24
			c-1.65-0.09-2.92-1.51-2.83-3.16c0.09-1.66,1.53-2.91,3.16-2.83c12.61,0.71,22.88,1.94,31.18,3.36c9.71-5.6,17.18-8.22,17.73-8.41
			c1.56-0.54,3.27,0.29,3.81,1.86c0.54,1.57-0.29,3.27-1.86,3.81c-0.1,0.03-4.26,1.5-10.37,4.57c15.28,3.46,21.05,7.22,21.42,7.47
			c0.88,0.59,1.38,1.6,1.32,2.66c-0.06,1.06-0.68,2-1.62,2.49c-0.1,0.05-4.76,2.48-11.28,6.61c13.21,2.22,22.68,4.87,23.41,5.08
			c1.15,0.33,2,1.3,2.16,2.49c0.16,1.18-0.4,2.35-1.42,2.97c-3.69,2.23-7.28,4.61-10.77,7.12c8.78,0.81,17.54,1.9,26.25,3.26
			c1.25,0.2,2.25,1.16,2.49,2.41c0.24,1.25-0.34,2.51-1.44,3.15c-0.08,0.05-2.83,1.66-6.69,4.21c12.94,1.15,22.17,3.14,22.93,3.31
			c1.29,0.28,2.24,1.38,2.35,2.69c0.1,1.32-0.67,2.55-1.9,3.03c-0.05,0.02-2.72,1.14-6.83,4.38c7.91,0.42,14.05,1.3,19.35,2.07
			c3.31,0.48,6.17,0.89,8.89,1.1c1.6,0.12,2.81,1.48,2.77,3.08c-0.05,1.6-1.34,2.88-2.94,2.91c-0.26,0.01-26.03,0.62-46.29,11.46
			C1281.93,1572.73,1281.44,1572.85,1280.96,1572.85z M1294.25,1557.67c-1.38,1.43-2.83,3.05-4.32,4.88
			c5.06-1.89,10.12-3.31,14.84-4.37C1301.6,1557.92,1298.12,1557.73,1294.25,1557.67z M1276.19,1543.97
			c-3.78,2.81-7.67,5.99-10.84,9.19c10.42-1.13,19.05-1.54,26.41-1.52c2.3-2.23,4.42-4,6.27-5.37
			C1292.7,1545.43,1284.99,1544.44,1276.19,1543.97z M1256.35,1530.87c-3.13,2.53-6.17,5.18-9.11,7.94
			c9.29-1.19,18.68-1.34,27.16-0.97c2.26-1.64,4.43-3.12,6.33-4.37C1272.64,1532.36,1264.5,1531.49,1256.35,1530.87z
			 M1228.66,1523.67c8.58,0.08,17.19,0.43,25.79,1.04c3.47-2.72,7.04-5.3,10.72-7.74c-5.29-1.23-13.3-2.92-22.54-4.22
			C1238.11,1515.91,1233.25,1519.6,1228.66,1523.67z M1216.44,1504.72c8.49,0,16.97,0.72,24.71,1.73c4.81-3.28,9.13-5.9,12.27-7.72
			c-4.06-1.59-10.88-3.77-21.32-5.69c-5.1,3.06-10.74,6.93-16.17,11.68C1216.1,1504.72,1216.27,1504.72,1216.44,1504.72z"/>
	</g>
	<path class="st3" d="M1031.35,1627.08c-10.62-39.12-15.2-41.88-68-57.42c-93.47-27.49-89.81-118.41-89.71-133.33
		c0.1-14.92-38.14-9.31-53.57,1.56c-15.43,10.87-31.59,50.79-31.59,50.79l-26.93,160.26c0,0,128.11,29.53,164.57,22.24
		C962.58,1663.89,1031.35,1627.08,1031.35,1627.08z"/>
	<path class="st4" d="M843.84,1643.56c0,0,33.48-38.88,68-40s96.62-14,100.14-17.68s16.78,18.27,18.72,44.31
		C1032.64,1656.23,843.84,1643.56,843.84,1643.56z"/>
	<path class="st5" d="M719.15,1625.24l20.84-107.2c6-31.07,45.63-43.67,68.14-54.92c15.38-7.68,28.27-15.62,33.34,23.17
		s31.72,63.93,55.85,73.21s-7.39,20-23.12,32.42s-37.89,36.27-35.15,47.43C841.79,1650.51,768.06,1672.89,719.15,1625.24z"/>
	<path class="st6" d="M800.31,1526.58l1.93,20.51c0.04,1.15,0.5,2.25,1.3,3.09c0.8,0.83,1.89,1.33,3.04,1.41l18.91,1.12
		c5.25,0.3,6,8,1,11.18l-17.73,11.57c-1.09,0.72-1.97,1.72-2.54,2.9c-0.58,1.17-0.84,2.47-0.74,3.78l1.93,20.51
		c0.53,5.69-6.09,10-9.66,6.3l-12.89-13.36c-0.84-0.81-1.95-1.29-3.11-1.36c-1.17-0.07-2.32,0.28-3.26,0.98l-17.73,11.57
		c-4.92,3.21-9.73-1.78-7-7.28l9.77-19.83c0.6-1.08,0.87-2.32,0.75-3.56c-0.12-1.23-0.6-2.4-1.4-3.35L750,1559.39
		c-3.58-3.71,0.07-11.11,5.32-10.81l18.92,1.12c1.27,0,2.51-0.37,3.58-1.06c1.07-0.7,1.91-1.68,2.42-2.84l9.77-19.83
		C792.71,1520.47,799.78,1520.89,800.31,1526.58z"/>
	<path class="st7" d="M715.4,1626.55l-5.68,29.18c-0.9,4.66,1.49,8.73,5.54,9.42c25.6,4.34,117.74,18,236.08,13
		c28-1.18,63.63-9.52,78.9-13.39c2.16-0.65,4.07-1.97,5.44-3.77c1.37-1.79,2.15-3.97,2.21-6.23l0.59-26.57
		c0.12-5.34-4.06-8.85-9-7.52c-19.16,5.22-63.8,16.67-89.34,17.59c-26.48,1-61.69,0.89-74.82,0.82c-1.43,0-2.82-0.45-3.97-1.29
		c-1.15-0.85-2-2.04-2.43-3.4c-2-5.92-7.41-15.35-20.84-15.49c-16.08-0.16-18.8,13.83-34.08,23.93
		c-14.24,9.41-38.17-15.87-77.77-24.67C721.55,1617.09,716.46,1621.08,715.4,1626.55z"/>
	<path d="M836.06,1489.22c1.84-3.17,1.2-6.99-1.43-8.51c-2.63-1.53-6.26-0.19-8.1,2.99c-1.84,3.18-1.2,6.99,1.44,8.52
		C830.59,1493.74,834.22,1492.4,836.06,1489.22z"/>
	<path d="M839.66,1511.11c1.84-3.18,1.2-6.99-1.43-8.52c-2.63-1.52-6.26-0.18-8.1,3c-1.84,3.17-1.2,6.99,1.43,8.51
		C834.19,1515.63,837.82,1514.29,839.66,1511.11z"/>
	<path d="M848.13,1529.67c1.84-3.17,1.2-6.99-1.44-8.51c-2.63-1.53-6.26-0.19-8.1,2.99c-1.84,3.18-1.2,6.99,1.43,8.52
		C842.66,1534.19,846.29,1532.85,848.13,1529.67z"/>
	<path d="M860.67,1546.33c1.84-3.18,1.2-6.99-1.43-8.52c-2.63-1.52-6.26-0.18-8.1,2.99c-1.84,3.18-1.2,6.99,1.43,8.52
		S858.83,1549.51,860.67,1546.33z"/>
	<path d="M875.63,1560.36c1.84-3.18,1.2-6.99-1.43-8.52c-2.63-1.52-6.26-0.18-8.1,3c-1.84,3.17-1.2,6.99,1.43,8.51
		C870.17,1564.88,873.79,1563.54,875.63,1560.36z"/>
	<path d="M893.63,1573.2c1.84-3.18,1.2-6.99-1.43-8.52c-2.63-1.52-6.26-0.18-8.1,3c-1.84,3.17-1.2,6.99,1.43,8.51
		C888.17,1577.72,891.79,1576.38,893.63,1573.2z"/>
	<g>
		<path class="st8" d="M889.7,1572.85c-0.86,0-1.71-0.37-2.29-1.07c-0.91-1.08-0.94-2.65-0.08-3.77c3.06-3.96,6-7.36,8.75-10.26
			c-6.68,0.24-14.54,0.92-23.95,2.25c-1.21,0.17-2.41-0.41-3.02-1.47c-0.61-1.06-0.52-2.39,0.24-3.35
			c3.03-3.85,7.44-7.83,12.07-11.49c-7.79,0.03-16.14,0.72-24.26,2.58c-1.32,0.31-2.67-0.31-3.31-1.5
			c-0.64-1.19-0.41-2.66,0.56-3.59c3.97-3.8,8.09-7.44,12.35-10.91c-6.91-0.41-14.51-0.65-22.61-0.6c-0.01,0-0.01,0-0.02,0
			c-1.23,0-2.34-0.75-2.79-1.9c-0.46-1.15-0.16-2.46,0.75-3.31c5.14-4.76,10.67-9.11,15.95-12.91c-6.99-0.76-14.46-1.1-21.8-0.59
			c-1.27,0.09-2.46-0.63-2.96-1.8c-0.5-1.17-0.22-2.53,0.72-3.39c5.73-5.3,11.84-10.09,18.31-14.33c-5.66-0.87-12.27-1.6-19.97-2.09
			c-1.65-0.1-2.91-1.53-2.8-3.18c0.11-1.65,1.53-2.91,3.18-2.8c11.14,0.71,20.15,1.92,27.36,3.34c5.61-3.17,11.45-5.96,17.5-8.35
			c1.54-0.61,3.28,0.15,3.89,1.69c0.61,1.54-0.15,3.28-1.69,3.89c-3.69,1.45-7.29,3.06-10.81,4.82c12.89,3.49,17.35,7.24,17.64,7.5
			c0.75,0.65,1.12,1.63,1,2.62c-0.12,0.99-0.72,1.85-1.6,2.3c-0.1,0.05-4.91,2.55-11.74,6.78c11.1,2.2,18.8,4.74,19.42,4.95
			c1.11,0.37,1.91,1.36,2.03,2.52c0.13,1.17-0.44,2.3-1.45,2.9c-3.84,2.29-7.6,4.7-11.28,7.25c13.6,1.42,22.06,3.12,22.21,3.15
			c1.22,0.25,2.16,1.23,2.36,2.46c0.2,1.23-0.39,2.46-1.47,3.08c-0.08,0.05-2.95,1.7-7.01,4.31c10.96,1.17,18.51,3.06,19.14,3.22
			c1.26,0.32,2.17,1.42,2.25,2.71c0.08,1.3-0.67,2.5-1.88,2.98c-0.05,0.02-2.73,1.16-7.14,4.45c6.54,0.44,11.61,1.28,16.02,2.01
			c2.88,0.48,5.38,0.89,7.77,1.09c1.59,0.14,2.79,1.49,2.74,3.09c-0.05,1.59-1.34,2.87-2.93,2.9c-0.23,0-23.55,0.63-43.94,11.46
			C890.66,1572.74,890.18,1572.85,889.7,1572.85z M904.67,1557.67c-1.33,1.24-2.72,2.62-4.18,4.15c4.38-1.58,8.66-2.79,12.63-3.73
			C910.57,1557.88,907.77,1557.73,904.67,1557.67z M891.08,1543.98c-3.88,2.75-7.93,5.87-11.4,9.02c8.97-1,16.38-1.36,22.68-1.36
			c2.61-2.32,4.94-4.14,6.91-5.54C904.71,1545.31,898.37,1544.42,891.08,1543.98z M875.64,1530.91c-3.25,2.47-6.42,5.04-9.5,7.71
			c8.11-1.01,16.07-1.12,23.23-0.79c2.46-1.71,4.8-3.25,6.82-4.54C891.27,1532.55,884.22,1531.64,875.64,1530.91z M852.09,1523.71
			c7.89,0.13,15.22,0.53,21.77,1.04c3.76-2.8,7.62-5.47,11.57-8c-4.47-1.2-11-2.76-18.58-3.99
			C862.15,1515.93,857.04,1519.63,852.09,1523.71z M844.33,1504.72c7.37,0.05,14.6,0.75,21.15,1.72c5.22-3.44,9.82-6.16,13.04-7.99
			c-3.31-1.53-8.84-3.58-17.42-5.41C855.23,1496.49,849.63,1500.39,844.33,1504.72z"/>
	</g>
</g>
</svg>
