<?xml version="1.0" encoding="utf-8"?>
<!-- Generator: Adobe Illustrator 24.2.0, SVG Export Plug-In . SVG Version: 6.00 Build 0)  -->
<svg version="1.1" id="Layer_1" xmlns="http://www.w3.org/2000/svg" xmlns:xlink="http://www.w3.org/1999/xlink" x="0px" y="0px"
	 viewBox="0 0 2000 2000" enable-background="new 0 0 2000 2000" xml:space="preserve">
<g id="ghost-image" display="none">
	<g display="inline" opacity="0.5">
		<path fill="#8A6FE8" d="M1469,1134.6c-57.7-4.7-181.3-73.8-228.1-150.4c-28.4-46.5,24.8-83.6,53.8-36.2
			c31.4,51.3,134.8,115.2,179.9,118.9L1469,1134.6z"/>
		<path fill="#8A6FE8" d="M1525,1005.7l-88.7,33.7c-15.8,6-23.7,23.7-17.8,39.5c6,15.8,23.7,23.7,39.5,17.8l88.7-33.7
			c15.8-6,23.7-23.7,17.8-39.5C1558.6,1007.6,1540.8,999.6,1525,1005.7z"/>
		<path fill="#8A6FE8" d="M1416.4,1155.1l37.8,51.4c10.2,13.6,29.4,16.4,43.1,6.3c13.6-10.2,16.4-29.4,6.3-43.1l-38.8-52.7
			L1416.4,1155.1z"/>
		<path fill="#8A6FE8" d="M1450.7,1158.2l76.8,42.9c14.9,8.2,33.6,2.9,41.8-12c8.2-14.8,2.9-33.6-12-41.8l-57-32.1L1450.7,1158.2z"
			/>
		<path fill="#8A6FE8" d="M1460.3,1121.8l84.6,24.4c16.3,4.7,33.4-4.7,38.2-21c4.7-16.3-4.7-33.4-21-38.2l-86.2-24.9L1460.3,1121.8z
			"/>
		
			<radialGradient id="SVGID_1_" cx="2499.333" cy="-8097.9277" r="6.0501" gradientTransform="matrix(10.6515 0 0 10.6515 -25170.0703 87358.8125)" gradientUnits="userSpaceOnUse">
			<stop  offset="0" style="stop-color:#8065E0"/>
			<stop  offset="1" style="stop-color:#512BD4"/>
		</radialGradient>
		<path fill="url(#SVGID_1_)" d="M1451.6,1168.2c35.6,0,64.4-28.8,64.4-64.4c0-35.6-28.9-64.4-64.4-64.4
			c-35.6,0-64.4,28.8-64.4,64.4C1387.1,1139.3,1416,1168.2,1451.6,1168.2z"/>
		
			<linearGradient id="SVGID_2_" gradientUnits="userSpaceOnUse" x1="432.5013" y1="-14376.1826" x2="492.2793" y2="-14091.4707" gradientTransform="matrix(1 0 0 1 694 15472)">
			<stop  offset="0" style="stop-color:#522CD5"/>
			<stop  offset="0.4397" style="stop-color:#8A6FE8"/>
		</linearGradient>
		<path fill="url(#SVGID_2_)" d="M1216.5,1374.2c0.7-59.8-7.8-181.1-69.5-282.6l-60.3,36.6c56,92.1,60.2,199.7,58.9,246.6
			C1145.4,1378.6,1181.6,1382.1,1216.5,1374.2z"/>
		<path fill="#522CD5" d="M1145.5,1374.1l55.8-0.3l52.1,298.7l-112.1,0.5c-8.5,0-15-6.8-14.4-15.4L1145.5,1374.1z"/>
		
			<linearGradient id="SVGID_3_" gradientUnits="userSpaceOnUse" x1="468.5236" y1="-14100.0088" x2="646.134" y2="-13783.3525" gradientTransform="matrix(1 0 0 1 694 15472)">
			<stop  offset="0" style="stop-color:#522CD5"/>
			<stop  offset="0.4397" style="stop-color:#8A6FE8"/>
		</linearGradient>
		<path fill="url(#SVGID_3_)" d="M1373,1593.9c9.7,7.7,9.5,18.7,8.8,30.4l-2.3,35.8c-0.4,6.4-6,11.7-12.4,11.7l-116.8,0.5
			c-7.3,0-12.8-5.8-12.3-13.1l0.8-37.1c0.9-13.5-3.7-18.4-14.1-31.1c-17.9-21.7-70.7-140-65.7-217.1l57.5-0.3
			C1220.3,1419.5,1280.7,1521.1,1373,1593.9z"/>
		
			<radialGradient id="SVGID_4_" cx="2590.4158" cy="-7764.0615" r="6.0492" gradientTransform="matrix(20.3477 -9.260000e-02 9.260000e-02 20.3477 -50685.7539 159762.7656)" gradientUnits="userSpaceOnUse">
			<stop  offset="3.400000e-02" style="stop-color:#522CD5"/>
			<stop  offset="0.9955" style="stop-color:#8A6FE8"/>
		</radialGradient>
		<path fill="url(#SVGID_4_)" d="M1381.8,1624.3c0.6-8.2,0.7-16-2.5-22.6l-145.7,0.7c4,5.9,5.7,11.1,5.2,19.7l-0.8,37.1
			c-0.5,7.3,5,13.1,12.3,13.1l116.8-0.5c6.4,0,12-5.3,12.4-11.7L1381.8,1624.3z"/>
		
			<linearGradient id="SVGID_5_" gradientUnits="userSpaceOnUse" x1="103.6376" y1="-14380.5342" x2="172.368" y2="-14057.1787" gradientTransform="matrix(1 0 0 1 694 15472)">
			<stop  offset="0" style="stop-color:#522CD5"/>
			<stop  offset="0.4397" style="stop-color:#8A6FE8"/>
		</linearGradient>
		<path fill="url(#SVGID_5_)" d="M847.6,1418.8l-71.3-8.9l40.1-322.5l71.3,8.8L847.6,1418.8z"/>
		<path fill="#522CD5" d="M781.5,1371.7l56.5-0.3l15.6,302l-113.4,0.5c-8.6,0-14.3-6.9-12.7-15.6L781.5,1371.7z"/>
		
			<linearGradient id="SVGID_6_" gradientUnits="userSpaceOnUse" x1="48.7987" y1="-14073.0107" x2="202.8451" y2="-13779.4717" gradientTransform="matrix(1 0 0 1 694 15472)">
			<stop  offset="0" style="stop-color:#522CD5"/>
			<stop  offset="0.4397" style="stop-color:#8A6FE8"/>
		</linearGradient>
		<path fill="url(#SVGID_6_)" d="M945.7,1595.1c8.7,7.9,8.5,18,6.3,29.8l-6.8,36.2c-1.2,6.5-7.5,11.8-14,11.8l-162.2,0.8
			c-7.4,0-12.2-5.9-10.8-13.2l5.8-37.5c2.6-13.6,0.6-17.7,0.8-35.1c0.5-32.8,15.6-138.2,30.3-216.2l58.2-0.2
			C851.4,1417.6,871.5,1527.9,945.7,1595.1z"/>
		
			<radialGradient id="SVGID_7_" cx="2582.6711" cy="-7737.6782" r="6.0492" gradientTransform="matrix(22.145 -0.1007 0.1006 22.1216 -55551.7383 172971.6719)" gradientUnits="userSpaceOnUse">
			<stop  offset="3.400000e-02" style="stop-color:#522CD5"/>
			<stop  offset="0.9955" style="stop-color:#8A6FE8"/>
		</radialGradient>
		<path fill="url(#SVGID_7_)" d="M763.9,1622.9l-5.8,37.5c-1.4,7.3,3.5,13.3,10.8,13.2l162.2-0.7c6.5,0,12.8-5.3,14-11.8l6.8-36.2
			c1.6-8.6,2.1-16.2-1-22.8l-185.9,0.8C765.4,1609.6,765.5,1614.4,763.9,1622.9z"/>
		<path fill="#8A6FE8" d="M804,455.8L736.5,483l-18.4-73.1l48.4-19.5L804,455.8z"/>
		<path fill="#512BD4" d="M788.8,582c38.2,0,69.1-30.9,69.1-69.1s-30.9-69.1-69.1-69.1s-69.1,30.9-69.1,69.1
			C719.7,551,750.7,582,788.8,582z"/>
		
			<radialGradient id="SVGID_8_" cx="2659.6248" cy="-7552.6758" r="6.0492" gradientTransform="matrix(61.9498 0 0 61.9498 -163747.5312 468654.875)" gradientUnits="userSpaceOnUse">
			<stop  offset="0.4744" style="stop-color:#A08BE8"/>
			<stop  offset="0.8618" style="stop-color:#8065E0"/>
		</radialGradient>
		<path fill="url(#SVGID_8_)" d="M1300.2,939.7C1325,844.2,1309,768,1309,768h22.4l0.5-0.4c-32.2-175.2-185.6-307.9-370-307.9
			c-207.8,0-376.3,168.5-376.3,376.3s168.4,376.3,376.3,376.3c164,0,303.5-104.9,355-251.2C1318.4,954.8,1318.3,943.6,1300.2,939.7z
			"/>
		<path fill="#D8CFF7" d="M1286.4,1026.5H637.5c14.6,24.8,31.9,47.7,51.5,68.4h545.8C1254.5,1074.2,1271.8,1051.3,1286.4,1026.5z"/>
		
			<radialGradient id="SVGID_9_" cx="2651.9128" cy="-7587.5444" r="6.0492" gradientTransform="matrix(48.2581 0 0 48.2581 -126744.1641 366859.3438)" gradientUnits="userSpaceOnUse">
			<stop  offset="9.330000e-02" style="stop-color:#E1DFDD"/>
			<stop  offset="0.8998" style="stop-color:#FFFFFF"/>
		</radialGradient>
		<path fill="url(#SVGID_9_)" d="M1300.2,939.7c24.6-94.3,9.2-169.7,8.9-171.6H918.6c0,0-24.6-2.5-24.6,20s0.9,85.9,0.9,156.2
			c0,14.4,11.8,21.4,21.1,21.4C916.1,965.6,1256.6,965.6,1300.2,939.7z"/>
		<path fill="#A08BE8" d="M1065,939.9c0,0,60.1-47.5,71.8-56.3c11.7-8.8,22-9.3,32.7,0s70.8,56.3,70.8,56.3H1065z"/>
		<path fill="#512BD4" d="M1315.4,965.3c0,0,10.4-20.1-15.2-25.7c0-0.1-383.8-0.3-383.8-0.3c-8.9,0-20.4-5.3-21.4-14
			c0,6.2,0,12.5,0,18.8c0,13.1,9.8,20,18.5,21.2c0.9,0.1,1.8,0.2,2.7,0.2h26.2L1315.4,965.3z"/>
		<path fill="#512BD4" d="M1286.5,851.6c0.4-27.3-12.4-49.7-28.7-49.9s-29.8,21.7-30.2,49c-0.4,27.3,12.4,49.7,28.7,49.9
			C1272.6,900.9,1286.1,879,1286.5,851.6z"/>
		<path fill="#8065E0" d="M1256.7,825c-10.8,10.8-10.8,28.2,0,38.9c7.4,7.4,17.8,9.7,27.2,7c1.6-5.9,2.5-12.4,2.6-19.3
			c0.2-13.4-2.8-25.6-7.8-34.6C1270.9,816.4,1262.8,819,1256.7,825z"/>
		<path fill="#512BD4" d="M1020.8,900.9c16.3-0.2,29.1-22.6,28.7-49.9s-13.9-49.3-30.2-49c-16.2,0.2-29.1,22.6-28.7,49.9
			C991,879.2,1004.5,901.2,1020.8,900.9z"/>
		<path fill="#8065E0" d="M1019.8,826.6c-10.8,10.8-10.8,28.2,0,38.9c7.3,7.3,17.7,9.6,27,7c1.8-6.5,2.8-13.8,2.6-21.6
			c-0.2-12.4-3.1-23.7-7.7-32.3C1033.9,818,1025.8,820.6,1019.8,826.6z"/>
		<path fill="#512BD4" d="M1084.8,1115.2l123.2-0.6l-0.5-108.9l-123.2,0.6L1084.8,1115.2z"/>
		<path fill="#FFFFFF" d="M1106.1,1074.5c-0.8,0-1.5-0.3-2.1-0.8c-0.6-0.6-0.9-1.2-0.9-2c0-0.8,0.3-1.5,0.9-2
			c0.6-0.6,1.3-0.8,2.1-0.8c0.8,0,1.5,0.3,2.1,0.8c0.6,0.5,0.9,1.2,0.9,2s-0.3,1.4-0.9,2C1107.7,1074.2,1107,1074.5,1106.1,1074.5z"
			/>
		<path fill="#FFFFFF" d="M1138.9,1074h-5.3l-14.1-22.1c-0.3-0.5-0.7-1.2-0.9-1.8h-0.1c0.1,0.6,0.2,2,0.2,4.1l0,19.7h-4.7l-0.1-30.1
			h5.7l13.6,21.6c0.6,0.9,0.9,1.5,1.1,1.8h0.1c-0.2-0.8-0.2-2.2-0.2-4.1l0-19.4h4.7L1138.9,1074z"/>
		<path fill="#FFFFFF" d="M1161.8,1073.9l-16.5,0l-0.1-30.1l15.8,0v4.2l-10.9,0l0,8.5l10.1,0v4.2l-10.1,0l0,8.9l11.6,0
			L1161.8,1073.9L1161.8,1073.9z"/>
		<path fill="#FFFFFF" d="M1185.2,1048l-8.4,0l0.1,25.9h-4.9l-0.1-25.9l-8.4,0v-4.2l21.7-0.1L1185.2,1048z"/>
		<path fill="#8A6FE8" d="M529.4,1254.2l40.2,57.3c10.8,15.2,31.9,18.7,47.2,7.9c15.2-10.8,18.7-31.9,7.9-47.1L575,1203
			L529.4,1254.2z"/>
		<path fill="#8A6FE8" d="M460.1,1232.5l-11.1,69.2c-2.8,18.4,9.8,35.7,28.3,38.5c18.4,2.8,35.7-9.8,38.5-28.3l11.4-70.9
			L460.1,1232.5z"/>
		<path fill="#8A6FE8" d="M505,1240.3l-9.3,69.4c-2.4,18.5,10.8,35.4,29.2,37.8c18.5,2.4,35.4-10.8,37.8-29.2l9.6-71.2L505,1240.3z"
			/>
		<path fill="#8A6FE8" d="M442.7,1211.8l-25.1,65.4c-6.6,17.5,2.3,37,19.8,43.5c17.5,6.6,37-2.3,43.5-19.8l25.7-67.1L442.7,1211.8z"
			/>
		
			<linearGradient id="SVGID_10_" gradientUnits="userSpaceOnUse" x1="-100.8671" y1="-14612.4697" x2="-100.8671" y2="-14231.5801" gradientTransform="matrix(1 0 0 1 694 15472)">
			<stop  offset="0.2495" style="stop-color:#967FE6"/>
			<stop  offset="1" style="stop-color:#8A6FE8"/>
		</linearGradient>
		<path fill="url(#SVGID_10_)" d="M489.3,1240.4c-27.9-57-44.2-154.4,1.8-241.6c28-52.9,89.2-120,222.3-139.3l10.7,73.8
			c-80.8,11.7-138.5,46.4-167,100.3c-30.8,58.4-22.6,129.4-0.8,174L489.3,1240.4z"/>
		
			<radialGradient id="SVGID_11_" cx="2460.1455" cy="-8072.1406" r="6.0492" gradientTransform="matrix(11.3989 0 0 11.3989 -27306.2188 92874.9219)" gradientUnits="userSpaceOnUse">
			<stop  offset="0" style="stop-color:#8065E0"/>
			<stop  offset="1" style="stop-color:#512BD4"/>
		</radialGradient>
		<path fill="url(#SVGID_11_)" d="M739,954.1c38.1,0,68.9-30.8,68.9-68.9S777,816.3,739,816.3s-68.9,30.8-68.9,68.9
			C670.1,923.2,700.9,954.1,739,954.1z"/>
		
			<radialGradient id="SVGID_12_" cx="2571.196" cy="-7743.2979" r="6.0492" gradientTransform="matrix(22.7292 0 0 22.7292 -57936.3555 177152.7031)" gradientUnits="userSpaceOnUse">
			<stop  offset="0" style="stop-color:#8065E0"/>
			<stop  offset="1" style="stop-color:#512BD4"/>
		</radialGradient>
		<path fill="url(#SVGID_12_)" d="M508.6,1277.3c39.1,0,70.8-31.7,70.8-70.8s-31.7-70.8-70.8-70.8s-70.8,31.7-70.8,70.8
			C437.9,1245.7,469.5,1277.3,508.6,1277.3z"/>
		<path fill="#D8CFF7" d="M739.7,415.8c-26.2,7-53.3-8.4-60.5-34.4c-7.2-26,8.2-52.7,34.5-59.7c26.2-7,53.3,8.4,60.5,34.4
			C781.4,382.1,766,408.8,739.7,415.8z"/>
	</g>
	<g display="inline">
		
			<linearGradient id="SVGID_13_" gradientUnits="userSpaceOnUse" x1="1010.6393" y1="1956.9701" x2="1010.6393" y2="29.6517" gradientTransform="matrix(1 0 0 -1 0 2000)">
			<stop  offset="0" style="stop-color:#B0D1F7"/>
			<stop  offset="0.2131" style="stop-color:#B8D9F7"/>
			<stop  offset="0.3238" style="stop-color:#CFF1F5"/>
		</linearGradient>
		<path fill="url(#SVGID_13_)" d="M972.5,43c611.4-0.1,901,64,953.2,330.7c101.2,517.3-149.9,725.6-57.6,1153.9
			c86.1,399.3-512.5,482.8-1127,427.4S39.5,1723.2,151.7,1386c78.8-236.7,66.8-534.1-59.6-838.6S429.1,43.1,972.5,43z"/>
		
			<linearGradient id="SVGID_14_" gradientUnits="userSpaceOnUse" x1="1218.0245" y1="1261.48" x2="1218.0245" y2="686.8201" gradientTransform="matrix(1 0 0 -1 0 2000)">
			<stop  offset="0.175" style="stop-color:#E8FAFE"/>
			<stop  offset="0.5571" style="stop-color:#BBF1FD"/>
		</linearGradient>
		<path fill="url(#SVGID_14_)" d="M1904.4,821.3l-46.8,15.2c-28.7,9.3-60.2,4-84.2-14.3l-110.1-83.7l-145,53.3
			c-17.1,6.3-35.8,6.6-53.2,0.9c-34.9-11.5-92.9-29.5-99.8-24.8c-8.3,5.6-257.3,64.1-344.7,84.5c-19,4.5-39.1,2.1-56.5-6.8
			c-25.8-13-62.2-30.5-70-29.5c-12.5,1.5-385.4,33.4-385.4,33.4c-19.4,1.7,252.4,237.8,252.4,237.8l1086.6,225.7
			c4.2-163.9,52-303,80.8-464.7L1904.4,821.3z"/>
		<path fill="#FFFFFF" d="M1860.9,1692.1c17.4-47.6,20.6-102.2,7.2-164.5l0,0c0,0,0,0,0,0c-0.9-4-1.7-7.9-2.5-11.9
			c-0.2-1.2-0.5-2.4-0.7-3.6c-0.6-2.9-1.1-5.8-1.7-8.6c-0.2-1.2-0.5-2.4-0.7-3.6c-0.7-3.6-1.3-7.1-1.9-10.6c-0.1-0.3-0.1-0.7-0.2-1
			c-0.7-3.9-1.3-7.7-1.9-11.5c-0.2-1.1-0.3-2.2-0.5-3.3c-0.4-2.8-0.9-5.7-1.3-8.5c-0.2-1.2-0.3-2.3-0.5-3.5
			c-0.5-3.3-0.9-6.5-1.3-9.8c-0.1-0.5-0.2-1.1-0.2-1.6c-0.5-3.8-0.9-7.5-1.4-11.2c-0.1-1-0.2-1.9-0.3-2.9c-0.3-2.8-0.6-5.6-0.9-8.4
			c-0.1-1.1-0.2-2.2-0.3-3.3c-0.3-3.1-0.6-6.2-0.9-9.2c-0.1-0.6-0.1-1.2-0.2-1.8c-0.3-3.7-0.6-7.3-0.9-11c-0.1-0.8-0.1-1.7-0.2-2.5
			c-0.2-2.8-0.4-5.7-0.6-8.5c-0.1-1-0.1-2.1-0.2-3.1c-0.2-3-0.3-5.9-0.5-8.9c0-0.6-0.1-1.3-0.1-1.9c-0.2-3.6-0.3-7.2-0.4-10.8
			c0-0.7,0-1.3-0.1-2c-0.1-2.9-0.2-5.9-0.2-8.8c0-0.9,0-1.9-0.1-2.9c-0.1-2.9-0.1-5.8-0.1-8.7c0-0.6,0-1.3,0-1.9c0-3.6,0-7.2,0-10.7
			c0-0.4,0-0.8,0-1.2c0-3.1,0.1-6.2,0.1-9.3c0-0.8,0-1.7,0.1-2.6c0.1-2.9,0.1-5.8,0.2-8.7c0-0.6,0-1.2,0.1-1.8
			c0.1-3.6,0.2-7.1,0.4-10.6c0-0.1,0-0.2,0-0.3c0.1-3.3,0.3-6.7,0.5-10c0-0.7,0.1-1.5,0.1-2.2c0.2-2.9,0.3-5.8,0.5-8.7
			c0-0.6,0.1-1.1,0.1-1.7c0.5-6.9,1-13.9,1.6-20.8c0.1-0.6,0.1-1.2,0.2-1.8c0.3-3,0.6-5.9,0.8-8.9c0.1-0.5,0.1-1,0.1-1.5
			c0.7-6.9,1.4-13.8,2.3-20.7c0.1-0.5,0.1-1,0.2-1.5c0.4-3,0.8-6.1,1.1-9.1c0.1-0.4,0.1-0.8,0.2-1.1c0.9-6.9,1.9-13.8,2.9-20.7
			c0-0.2,0.1-0.5,0.1-0.7c0.4-2.9,0.8-5.7,1.3-8.6c0.1-0.7,0.2-1.3,0.3-1.9c1.1-6.9,2.2-13.9,3.4-20.8l0,0l-140.4-112.5l-81.3,11.6
			c-30.2,4.3-60.8-4.2-84.5-23.4L1427.2,926l-535.5,76.6c-30.8,4.4-61.9-6.1-83.7-28.4L572.3,733.3h-98.6
			c-29.5,0-56.9-15.5-72.1-40.8l-39.9-66.4c0,0-164.9-12.9-246.3-19.1l0,0c87.6,238.2,105.6,469.8,65.5,668.9L1860.9,1692.1z"/>
		<path fill="#E8FAFE" d="M1286.6,1258.2l138.3-91.6l-8.4-97.7l34.3-22.2l-18.5-81.1l90.1,146.3c0,0-51.9,32.9-30.8,97.3
			C1512.6,1273.6,1286.6,1258.2,1286.6,1258.2z"/>
		<path fill="#E8FAFE" d="M1737,1094.9v74.8l-53.6,88.5c0,0,48.7-26.4,110.5-37C1855.7,1210.6,1737,1094.9,1737,1094.9z"/>
		<path fill="#E8FAFE" d="M285.7,729.7c5.2,19.6-55.3,33-119.6,44.8c6,25.2,11.1,50.2,15.6,75.1c138,3.7,233.8-48,233.8-48
			l-64.9-146C350.5,655.7,272.3,679.5,285.7,729.7z"/>
		<polygon fill="#E8FAFE" points="572.3,768 618.6,885.2 487.9,926 462.2,988.9 360.6,1005.7 527.2,1058.8 605.1,972.2 688,913.4 		
			"/>
		<polygon fill="#E8FAFE" points="874.6,1017.8 889.6,1095.4 709,1220.9 1062.3,1174.3 1278.1,1072.7 1228.8,1042.3 1011.6,1072.7 
					"/>
		<path fill="#9FE4EB" d="M200.2,1115l1676.2,482.7c-0.3-22.2-3-45.6-8.2-70.1l0,0c0,0,0,0,0,0c-0.9-4-1.7-7.9-2.5-11.9
			c-0.2-1.2-0.5-2.4-0.7-3.6c-0.6-2.9-1.1-5.8-1.7-8.6c-0.2-1.2-0.5-2.4-0.7-3.6c-0.7-3.6-1.3-7.1-1.9-10.6c-0.1-0.3-0.1-0.7-0.2-1
			c-0.7-3.9-1.3-7.7-1.9-11.5c-0.2-1.1-0.3-2.2-0.5-3.3c-0.4-2.8-0.9-5.7-1.3-8.5c-0.2-1.2-0.3-2.3-0.5-3.5
			c-0.5-3.3-0.9-6.5-1.3-9.8c-0.1-0.5-0.2-1.1-0.2-1.6c-0.5-3.8-0.9-7.5-1.4-11.2c-0.1-1-0.2-1.9-0.3-2.9c-0.3-2.8-0.6-5.6-0.9-8.4
			c-0.1-1.1-0.2-2.2-0.3-3.3c-0.3-3.1-0.6-6.2-0.9-9.2c-0.1-0.6-0.1-1.2-0.2-1.8c-0.3-3.7-0.6-7.3-0.9-11c-0.1-0.8-0.1-1.7-0.2-2.5
			c-0.2-2.8-0.4-5.7-0.6-8.5c-0.1-1-0.1-2.1-0.2-3.1c-0.2-3-0.3-5.9-0.5-8.9c0-0.6-0.1-1.3-0.1-1.9c-0.2-3.6-0.3-7.2-0.4-10.8
			c0-0.7,0-1.3-0.1-2c-0.1-2.9-0.2-5.9-0.2-8.8c0-0.9,0-1.9-0.1-2.9c-0.1-2.9-0.1-5.8-0.1-8.7c0-0.6,0-1.3,0-1.9c0-3.6,0-7.2,0-10.7
			c0-0.4,0-0.8,0-1.2c0-3.1,0.1-6.2,0.1-9.3c0-0.8,0-1.7,0.1-2.6c0.1-2.9,0.1-5.8,0.2-8.7c0-0.6,0-1.2,0.1-1.8c0.1-3,0.2-6,0.3-9
			c-41.2-14.7-118.6-38.3-186-36c-97.2,3.3-242.3,50.4-242.3,50.4s-100.6-76.7-252.8-133s-312.1-30.9-312.1-30.9
			s-81.2-87.9-258.6-149.3s-362.5-54.5-362.5-54.5l-33.5,73C201.6,1051.2,201.6,1083.4,200.2,1115z"/>
		<path fill="#40C9D6" d="M1866.1,1518.1c-0.3-1.3-0.5-2.6-0.8-3.9c-0.4-1.8-0.7-3.7-1.1-5.5c-0.3-1.7-0.7-3.4-1-5.1
			c-0.3-1.4-0.5-2.8-0.8-4.1c-0.4-2-0.7-3.9-1.1-5.9c-0.2-1.1-0.4-2.1-0.6-3.2c-0.4-2.2-0.8-4.3-1.1-6.5c-0.1-0.8-0.3-1.6-0.4-2.4
			c-0.4-2.4-0.8-4.7-1.1-7.1c-0.1-0.5-0.2-1.1-0.2-1.6c-0.4-2.6-0.8-5.1-1.2-7.6c0-0.3-0.1-0.6-0.1-0.8c-0.4-2.7-0.8-5.5-1.2-8.2
			l0,0c-317.1-49.6-873.8-168.4-1388.7-437.6c-82.1-42.9-187.6-84.9-275.3-103.8c21.1,167.7,7.2,325.6-37.3,463.4
			c-0.8,2.6-1.7,5.2-2.5,7.8l0,0l0,0c-0.9,2.8-1.8,5.5-2.7,8.2c-0.3,0.9-0.6,1.8-0.9,2.7c-0.6,1.8-1.2,3.7-1.8,5.5
			c-0.3,1.1-0.7,2.1-1,3.2c-0.5,1.7-1,3.3-1.6,5c-0.3,1.1-0.7,2.2-1,3.3c-0.5,1.6-1,3.2-1.4,4.8c-0.3,1.1-0.7,2.2-1,3.4
			c-0.5,1.5-0.9,3.1-1.4,4.6c-0.3,1.1-0.7,2.2-1,3.4c-0.4,1.5-0.9,3.1-1.3,4.6c-0.3,1.1-0.6,2.2-0.9,3.3c-0.4,1.6-0.9,3.1-1.3,4.6
			c-0.3,1.1-0.6,2.1-0.9,3.2c-0.4,1.6-0.9,3.2-1.3,4.7c-0.3,1-0.5,2-0.8,3c-0.4,1.7-0.9,3.3-1.3,4.9c-0.2,0.9-0.5,1.8-0.7,2.7
			c-0.5,1.8-0.9,3.7-1.4,5.5c-0.2,0.7-0.4,1.4-0.5,2.2c-0.6,2.4-1.2,4.8-1.7,7.2c0,0.1-0.1,0.3-0.1,0.4c-0.6,2.6-1.2,5.2-1.8,7.8
			c0,0,0,0,0,0.1c-0.6,2.5-1.1,4.9-1.6,7.4c-0.1,0.6-0.2,1.1-0.3,1.6c-0.4,1.9-0.8,3.9-1.2,5.8c-0.1,0.7-0.3,1.4-0.4,2.1
			c-0.3,1.8-0.7,3.5-1,5.3c-0.1,0.8-0.3,1.5-0.4,2.3c-0.3,1.7-0.6,3.4-0.9,5.1c-0.1,0.8-0.3,1.6-0.4,2.3c-0.3,1.7-0.6,3.3-0.8,5
			c-0.1,0.8-0.2,1.5-0.4,2.3c-0.3,1.7-0.5,3.3-0.8,5c-0.1,0.7-0.2,1.4-0.3,2.2c-0.3,1.7-0.5,3.4-0.7,5.1c-0.1,0.7-0.2,1.3-0.3,2
			c-0.2,1.8-0.5,3.6-0.7,5.4c-0.1,0.5-0.1,1.1-0.2,1.6c-0.2,2-0.5,4-0.7,5.9c0,0.3-0.1,0.7-0.1,1c-1,9.4-1.8,18.7-2.2,27.8
			c0,0.2,0,0.3,0,0.5c-0.1,2.1-0.2,4.2-0.2,6.2c0,0.3,0,0.7,0,1c-0.1,1.9-0.1,3.8-0.1,5.7c0,0.4,0,0.8,0,1.2c0,1.8,0,3.6,0,5.4
			c0,0.4,0,0.8,0,1.3c0,1.8,0,3.6,0.1,5.3c0,0.4,0,0.8,0,1.2c0,1.8,0.1,3.6,0.2,5.4c0,0.4,0,0.7,0,1.1c0.1,1.9,0.2,3.7,0.3,5.6
			c0,0.2,0,0.5,0,0.8c0.1,2,0.3,4.1,0.4,6.1c0,0.1,0,0.1,0,0.2c1,12.8,2.8,25.3,5.4,37.3c0,0.1,0,0.2,0.1,0.2
			c0.4,1.9,0.8,3.8,1.3,5.7c0,0.2,0.1,0.3,0.1,0.4c0.4,1.8,0.9,3.6,1.4,5.4c0,0.2,0.1,0.3,0.1,0.5c0.5,1.8,1,3.6,1.5,5.4
			c0,0.1,0.1,0.3,0.1,0.4c0.5,1.8,1.1,3.7,1.7,5.5c0,0.1,0.1,0.2,0.1,0.2c5.5,17.3,12.8,33.8,22.1,49.5c0,0,0,0.1,0.1,0.1
			c1,1.7,2.1,3.4,3.1,5.1c0,0,0,0.1,0.1,0.1c11.9,18.9,26.8,36.6,45,53.1c0,0,0,0,0,0c1.6,1.5,3.3,3,5,4.4l0,0
			c329.3,23.6,997.9,58.6,1451.7,83.1c7.7-3.2,15.2-6.5,22.6-9.9c0.1,0,0.2-0.1,0.2-0.1c7.3-3.4,14.5-6.9,21.5-10.5
			c0,0,0.1,0,0.1-0.1c2.3-1.2,4.6-2.4,6.8-3.6c0.1,0,0.2-0.1,0.2-0.1c6.8-3.7,13.5-7.4,20-11.2c0.1-0.1,0.2-0.1,0.3-0.2
			c2.1-1.3,4.2-2.5,6.3-3.8c0.1,0,0.1-0.1,0.2-0.1c4.3-2.6,8.4-5.3,12.6-8c0,0,0,0,0,0c2-1.3,4-2.7,6-4c0.1-0.1,0.2-0.2,0.3-0.2
			c2-1.3,3.9-2.7,5.8-4.1c0,0,0.1-0.1,0.1-0.1c3.9-2.8,7.7-5.6,11.4-8.5c0.1-0.1,0.2-0.1,0.2-0.2c1.8-1.4,3.6-2.8,5.4-4.2
			c0.1-0.1,0.2-0.2,0.4-0.3c5.4-4.3,10.7-8.8,15.7-13.3c0.1-0.1,0.2-0.2,0.4-0.3c1.6-1.5,3.2-2.9,4.8-4.4c0.1-0.1,0.2-0.2,0.3-0.3
			c3.2-3.1,6.4-6.2,9.5-9.3c0.1-0.1,0.1-0.1,0.1-0.1c1.5-1.5,3-3.1,4.4-4.7c0.1-0.2,0.3-0.3,0.4-0.4c1.4-1.6,2.8-3.1,4.2-4.7
			c0.1-0.1,0.2-0.2,0.3-0.3c2.9-3.2,5.6-6.5,8.3-9.8c0.1-0.1,0.2-0.2,0.3-0.4c1.3-1.6,2.6-3.2,3.8-4.8c0.1-0.2,0.3-0.4,0.4-0.6
			c1.3-1.6,2.5-3.3,3.7-4.9c0.1-0.1,0.1-0.2,0.2-0.3c2.5-3.4,4.9-6.8,7.2-10.3c0.1-0.2,0.2-0.4,0.4-0.6c1.1-1.7,2.2-3.3,3.2-5
			c0.1-0.2,0.2-0.4,0.4-0.6c1.1-1.7,2.1-3.5,3.2-5.2c0,0,0.1-0.1,0.1-0.1c1.1-1.8,2.1-3.6,3.1-5.4c0.1-0.1,0.1-0.2,0.2-0.3
			c1-1.8,1.9-3.5,2.8-5.3c0.1-0.2,0.2-0.5,0.4-0.7c0.9-1.7,1.8-3.5,2.7-5.3c0.1-0.2,0.2-0.4,0.3-0.6c1.8-3.7,3.5-7.4,5.1-11.1
			c0.1-0.2,0.2-0.4,0.3-0.6c0.8-1.8,1.5-3.6,2.2-5.4c0.1-0.3,0.2-0.6,0.3-0.8c0.7-1.8,1.4-3.7,2.1-5.5c0.1-0.2,0.1-0.4,0.2-0.6
			c0.7-1.9,1.4-3.8,2-5.8c0,0,0-0.1,0-0.1c0.6-1.9,1.2-3.9,1.8-5.8c0.1-0.3,0.2-0.6,0.2-0.8c0.6-1.9,1.1-3.8,1.6-5.7
			c0.1-0.3,0.2-0.6,0.2-0.9c0.5-1.9,1-3.9,1.5-5.8c0-0.2,0.1-0.3,0.1-0.5c0.5-1.9,0.9-3.9,1.4-5.9c0-0.2,0.1-0.3,0.1-0.5
			c0.4-2,0.8-3.9,1.2-5.9c0.1-0.3,0.1-0.7,0.2-1c0.4-2,0.7-3.9,1-5.9c0.1-0.3,0.1-0.6,0.2-0.9c0.3-2.1,0.6-4.1,0.9-6.2
			c0-0.1,0-0.1,0-0.2c0.3-2.1,0.5-4.1,0.8-6.2c0-0.3,0.1-0.5,0.1-0.8c0.2-2,0.4-4.1,0.6-6.1c0-0.4,0.1-0.7,0.1-1.1
			c0.2-2.1,0.3-4.1,0.4-6.2c0-0.3,0-0.6,0.1-0.9c0.1-2.1,0.2-4.3,0.3-6.4c0,0,0-0.1,0-0.1c0.1-2.2,0.1-4.4,0.1-6.6c0-0.3,0-0.7,0-1
			c0-2.1,0-4.2,0-6.3c0-0.4,0-0.8,0-1.2c0-2.2-0.1-4.3-0.2-6.5c0-0.2,0-0.5,0-0.8c-0.1-2.2-0.2-4.3-0.3-6.5c0-0.2,0-0.4,0-0.6
			c-0.1-2.2-0.3-4.4-0.5-6.7c0-0.4-0.1-0.8-0.1-1.2c-0.2-2.2-0.4-4.4-0.6-6.6c0-0.4-0.1-0.8-0.1-1.2c-0.2-2.3-0.5-4.6-0.8-6.9
			c0-0.2-0.1-0.3-0.1-0.5c-0.3-2.3-0.6-4.5-1-6.8c-0.1-0.3-0.1-0.6-0.1-0.9c-0.3-2.3-0.7-4.6-1.1-6.9c-0.1-0.4-0.2-0.9-0.2-1.3
			c-0.4-2.3-0.8-4.6-1.3-6.9c-0.1-0.4-0.2-0.8-0.2-1.1c-0.5-2.4-1-4.9-1.5-7.3C1867.4,1524.4,1866.7,1521.2,1866.1,1518.1z"/>
		<path fill="#57AA9A" d="M1148.1,1576.4l43-93.4c0,0-27.8,2.3-23.4,1s36.1-71.9,36.1-71.9l-19,0.8l23.4-55.7l-19,0.8l34.1-67.3
			c0,0-16.7,1.8-13.4,0.6c3.3-1.3,29.9-59.3,29.9-59.3l32.2,74.6l-13.7-6.1l31.4,56.8l-18.1-4.8l42,69.7l-21.4-3.6l29.2,58l-25-9
			l57,107.1L1148.1,1576.4z"/>
		<polygon fill="#179BB8" points="1559.2,1215.6 1529.8,1282 1544.5,1274.8 1522.4,1329.5 1540.8,1321.7 1501.6,1421.6 
			1530.4,1412.1 1481.8,1593.9 1667.1,1595.2 1618,1448.9 1640.1,1461.2 1599.7,1352.9 1616.8,1361.8 1582.5,1282 1593.5,1282 		"/>
		<path fill="#57AA9A" d="M324.5,1307.6c-3.4,0,33.1-49.1,33.1-49.1h-18.2l9.1-15.9l-38.8,15.9l33.1-56.3l-27.4,5.8l27.4-49.1h-24
			l8-23.1l-26.2,14.4l20.5-40.4l-21.7,5.8l21.7-53.4h-12.5l12.5-36.1l-30.8,20.2l7.1-30.5l-16.2,7.9l8-36.6l-9.1,5.8l-17.1-36.1
			l-13.7,31.8l-9.1-5.8l1.1,26l-25.1-14.4l16,63.5l-21.7-7.2l18.2,43.3l-27.7-8.2c-0.1,5-0.2,9.9-0.3,14.9l9.8,16.4l-10.1-5.3
			c-0.4,10.9-1,21.8-1.8,32.6l13.1,20.3l-14.6-1.1c-0.4,4-0.7,8-1.1,12l6.6,22.3l-8.4-5.2c0,0.1,0,0.2,0,0.3
			c-0.7,21.8-2,43.4-3.9,64.7l12.3,10.9l-13.3-0.5c-0.3,3.2-0.7,6.5-1,9.7l162,40.1l7.5-10.3C357.6,1307.6,328,1307.6,324.5,1307.6z
			"/>
		<path fill="#24BADB" d="M1545.8,1591.3c-4.3,0,41.9-49.1,41.9-49.1h-23.1l11.6-15.9l-49.1,15.9l41.9-56.3l-34.7,5.8l34.7-49.1
			h-30.3l10.1-23.1l-33.2,14.4l26-40.4l-27.4,5.8l27.4-53.4h-15.9l15.9-36.1l-39,20.2l9-30.5l-20.5,7.9l10.1-36.6l-11.6,5.8
			l-21.7-36.1l-17.3,31.8l-11.6-5.8l1.4,26l-31.8-14.4l20.2,63.5l-27.4-7.2l23.1,43.3l-49.1-11.6l26,34.7l-56.3-23.1l57.8,70.8
			l-24.6-1.4l13,34.7l-59.2-28.9l31.8,57.8l-34.7-1.4l62.1,43.3l-44.8-1.4l26,23.1l-57.8-7.2l44.8,53.4l-36.1-1.4l144.4,79.2
			l112.6-48.9l-40.4-5.8l47.7-52C1587.7,1591.3,1550.1,1591.3,1545.8,1591.3z"/>
		<polygon fill="#24BADB" points="1147.2,1240.7 1109,1307.1 1128.1,1299.9 1099.4,1354.6 1123.3,1346.8 1072.3,1446.7 
			1109.8,1437.2 1046.7,1619 1287.3,1620.2 1223.6,1474 1252.3,1486.3 1199.7,1378 1222,1386.9 1177.4,1307.1 1191.8,1307.1 		"/>
		<path fill="#179BB8" d="M283.3,1350.8l43-93.4c0,0-27.8,2.3-23.4,1c4.4-1.3,36.1-71.9,36.1-71.9l-19,0.8l23.4-55.7l-19,0.8
			l34-67.3c0,0-16.7,1.8-13.4,0.6c3.3-1.3,29.9-59.3,29.9-59.3l32.2,74.6l-13.7-6.1l31.4,56.8l-18.1-4.8l42,69.7l-21.4-3.6l29.2,58
			l-25-9l57,107.1L283.3,1350.8z"/>
		<polygon fill="#179BB8" points="523.5,1070.5 494.6,1158.9 509.1,1149.2 487.4,1222 505.4,1211.6 466.9,1344.6 495.2,1332 
			447.5,1574 629.5,1575.6 581.3,1381 603,1397.3 563.2,1253.2 580.1,1265.1 546.4,1158.9 557.2,1158.9 		"/>
		<path fill="#57AA9A" d="M727.6,1442.2c0,0-32.3-13.2-51.6-28.3c49.5,13.1,86.1,12.4,86.1,12.4s-41.2-17.3-72.2-49.7
			c21.2,6.9,49.6,2.4,49.6,2.4s-8.7-7.3-12.6-16.1c19.8,4.4,37.4,0.2,37.4,0.2s-45.6-25.7-65-42c14.1,0.3,25.6-1.5,25.6-1.5
			s-11.5-10-17.7-21c16.4,6.6,37.7,6.5,37.7,6.5s-31.4-18.5-53.9-43.8c34.3,18.9,68.2,22.6,68.2,22.6l-17.1-19.8c0,0,35.5,2,37,1.9
			s-43.8-31.6-64.5-51.2c10.2,0.3,19.4-0.5,19.4-0.5l-10.3-18.5l50.6,19.7c0,0-33-30.5-46.2-52.9c8.8,0.7,17.9-1,17.9-1l-6.4-10.6
			l16.4-0.9c0,0-10.3-10.1-17.8-23.3c25,8.4,44.8,11.3,45.4,11.3c0.6,0-13.4-19.5-18.5-31.9c10.7,0.3,21.6-4.7,21.6-4.7
			s-12.4-13.2-18.1-27.9c7.3,0.4,16.8-1,16.8-1l-11.7-11.5c0,0,8-4.5,10.5-12.2c2.5-7.7,8.4-46.2,8.4-46.2l0.3,4.3
			c0.9,3.2,11,40.5,19.5,59.9c8.9,20.3,26.5,21.6,26.5,21.6s-7.6,10.8-16.4,18.3c5.3-0.3,17.4-1,17.4-1s-0.8,8-4,15.3
			c-4.7,10.7-19,28.8-19,28.8s19.7,0.6,38-1c-8.1,13.6-12.7,23.3-17.7,29.9c20.9-2.3,43.6-18.7,43.6-18.7s-8.4,22.4-23.1,37.2
			c-14.7,14.7-32.3,25.5-32.3,25.5s8.7,3.9,18.4,4.2c-7.8,12-21.8,26.7-21.8,26.7s16,3.7,27.6-1.6c-3,15.2-10.3,31.8-10.3,31.8
			s9.9,2.9,29-1.7s30.7-6.5,46.5-17.7c-7.6,15.5-27.4,29.3-27.4,29.3s11.7,0.2,25.1-1.4c-18.7,17.2-64,33.7-64,33.7s20.1,7.5,42,4.5
			c-16.6,15.7-49.5,32.9-49.5,32.9s46.5-1.2,82.6-15.1c-19.6,18.2-50.6,31.8-50.6,31.8s19.2,1.5,34.8-2
			c-12.5,22.7-61.8,55.6-61.8,55.6s25.5,4,57-3.2c-11.1,14.5-36.9,33.3-36.9,33.3s24.8,2.1,63.5-8.2c-21.2,20-50.4,35.2-50.4,35.2
			s26.1,6.9,47.8,4.2c-31.8,33.9-96.3,59.7-96.3,59.7s-82.3-18.6-108.4-34.7c13-2.2,22.4-7.1,22.4-7.1s-24.3-17.1-39.8-33.6
			c23.2,2.7,48.5,0.7,48.5,0.7s-34.5-14.5-54.3-34.5C713.5,1445.9,727.6,1442.2,727.6,1442.2z"/>
		<path fill="#24BADB" d="M751.7,1450.4c-4.3,0,41.9-49.1,41.9-49.1h-23.1l11.5-15.9l-49.1,15.9l41.9-56.3l-34.7,5.8l34.7-49.1
			h-30.3l10.1-23.1l-33.2,14.4l26-40.4l-27.4,5.8l27.4-53.4h-15.9l15.9-36.1l-39,20.2l9-30.5l-20.5,7.9l10.1-36.6l-11.5,5.8
			l-21.7-36.1l-17.3,31.8l-11.5-5.8l1.4,26l-31.8-14.4l20.2,63.5l-27.4-7.2l23.1,43.3l-49.1-11.6l26,34.7l-56.3-23.1l57.8,70.8
			l-24.5-1.4l13,34.7l-59.2-28.9l31.8,57.8l-34.7-1.4l62.1,43.3l-44.8-1.5l26,23.1l-57.8-7.2l44.8,53.4l-36.1-1.4l144.4,79.2
			l112.6-48.9l-40.4-5.8l47.7-52C793.5,1450.4,756,1450.4,751.7,1450.4z"/>
		<polygon fill="#179BB8" points="934.3,1128.1 975.2,1192.8 955.8,1186.4 986.7,1239.8 962.5,1233 1017.6,1330.7 979.8,1322.8 
			1050.3,1501.9 810,1513.1 867.6,1364.3 839.4,1377.8 887.5,1267.4 865.6,1277.3 906.8,1195.7 892.5,1196.3 		"/>
		<path fill="#179BB8" d="M1875.9,1617.4c1.5-28-1-57.9-7.8-89.8c-36.9-171.1-18.9-307.2,9.5-441.8l-41.2-109.2l-23.4,72.6l16.7-8.6
			l-40.2,109.5l19-8.6l-49.1,118.1l22.3-9.8l-15.6,59l21.2-11.7l-46.9,142.1l24.6-9.8l-59.2,188.2L1875.9,1617.4L1875.9,1617.4z"/>
		<path fill="#57AA9A" d="M1812.8,1576.8c0,0,37.5-15,59.4-31.2c-58,15.9-101.6,17.3-101.6,17.3s47.9-19.6,82.5-53.7
			c-24.8,8.1-58.9,5.2-58.9,5.2s9.8-7.8,13.8-16.7c-23.2,5.5-44.4,2.3-44.4,2.3s52.5-28.3,74.5-45.6c-16.7,1.2-30.6,0-30.6,0
			s13-10.7,19.6-21.9c-19.1,7.5-44.4,8.7-44.4,8.7s36.1-20.3,61.2-46.8c-39.5,20.8-79.7,26.5-79.7,26.5l19.1-20.7c0,0-42.1,4-43.9,4
			s49.9-34.1,73.3-54.8c-12.1,0.9-23.1,0.6-23.1,0.6l11-19.1l-58.9,22.5c0,0,37.2-32.3,51.4-55.4c-10.4,1.2-21.4,0-21.4,0l6.9-11
			h-19.6c0,0,11.5-10.7,19.6-24.2c-29.2,9.8-52.5,13.8-53.3,13.8s14.6-20.2,19.8-32.9c-12.7,0.9-26-3.5-26-3.5s13.8-13.8,19.6-28.9
			c-8.7,0.9-20.1,0-20.1,0l13.2-12.1c0,0-9.8-4-13.3-11.5c-3.5-7.5-13.1-45.6-13.1-45.6l-0.1,4.3c-0.8,3.2-10.3,41.1-19.2,60.9
			c-9.2,20.8-30,23.1-30,23.1s9.8,10.4,20.8,17.3c-6.3,0-20.8,0-20.8,0s1.4,7.9,5.8,15c6.3,10.4,24.5,27.7,24.5,27.7
			s-23.4,1.7-45.3,1.2c10.5,13.2,16.7,22.5,23.1,28.9c-25-1.2-53.1-16.2-53.1-16.2s11.5,21.9,30,35.8c18.5,13.8,40.1,23.7,40.1,23.7
			s-10.1,4.3-21.7,5.2c10.1,11.5,27.7,25.4,27.7,25.4s-18.8,4.6-32.9,0c4.6,15,14.4,31.2,14.4,31.2s-11.5,3.5-34.6,0
			s-36.9-4.7-56.6-15c10.1,15,34.6,27.7,34.6,27.7s-13.8,0.9-30,0c23.4,16.2,78.5,30,78.5,30s-23.4,8.7-49.6,6.9
			c20.8,14.7,61.2,30,61.2,30s-55.4,1.4-99.3-10.4c24.5,17,62.3,28.9,62.3,28.9s-22.8,2.6-41.6,0c16.4,21.9,77.3,51.9,77.3,51.9
			s-30,5.5-68.1,0c14.1,13.8,46.2,31.2,46.2,31.2s-29.4,3.5-76.2-4.6c26.6,18.8,62.3,32.3,62.3,32.3s-30.6,8.4-56.6,6.9
			c40.1,32,118.6,54.1,118.6,54.1s96.7-23.2,126.7-40.8c-15.6-1.4-27.1-5.8-27.1-5.8s27.7-18.5,45-35.8c-27.4,4-57.7,3.5-57.7,3.5
			s40.1-16.4,62.3-37.5C1829.8,1579.6,1812.8,1576.8,1812.8,1576.8z"/>
		<path fill="#E8FAFE" d="M151.7,1386.1c-112.3,337.1-25.2,513.5,589.3,568.9c579.8,52.3,1145.3-19,1135.2-362.6
			c-344.2-52.4-1034.2-172.4-1685.3-374.8C182.6,1276.4,169.5,1332.8,151.7,1386.1z"/>
		
			<linearGradient id="SVGID_15_" gradientUnits="userSpaceOnUse" x1="786.8406" y1="29.6575" x2="786.8406" y2="605.22" gradientTransform="matrix(1 0 0 -1 0 2000)">
			<stop  offset="0" style="stop-color:#8EE8FC"/>
			<stop  offset="0.7901" style="stop-color:#E8FAFE"/>
		</linearGradient>
		<path fill="url(#SVGID_15_)" d="M148.9,1394.8c-107.8,331.4-17,505.2,592.2,560.2c260.8,23.5,518.8,22,722.7-18
			C1091.5,1802.6,475.4,1570.6,148.9,1394.8z"/>
	</g>
</g>
<g id="bot-base" display="none">
	<g display="inline">
		
			<radialGradient id="SVGID_16_" cx="2659.6248" cy="-7552.6758" r="6.0492" gradientTransform="matrix(61.9498 0 0 61.9498 -163747.5312 468654.875)" gradientUnits="userSpaceOnUse">
			<stop  offset="0.4744" style="stop-color:#A08BE8"/>
			<stop  offset="0.8618" style="stop-color:#8065E0"/>
		</radialGradient>
		<path fill="url(#SVGID_16_)" d="M1300.2,939.7C1325,844.2,1309,768,1309,768h22.4l0.5-0.4c-32.2-175.2-185.6-307.9-370-307.9
			c-207.8,0-376.3,168.5-376.3,376.3s168.4,376.3,376.3,376.3c164,0,303.5-104.9,355-251.2C1318.4,954.8,1318.3,943.6,1300.2,939.7z
			"/>
		<path fill="#D8CFF7" d="M1286.4,1026.5H637.5c14.6,24.8,31.9,47.7,51.5,68.4h545.8C1254.5,1074.2,1271.8,1051.3,1286.4,1026.5z"/>
		
			<radialGradient id="SVGID_17_" cx="2651.9128" cy="-7587.5444" r="6.0492" gradientTransform="matrix(48.2581 0 0 48.2581 -126744.1641 366859.3438)" gradientUnits="userSpaceOnUse">
			<stop  offset="9.330000e-02" style="stop-color:#E1DFDD"/>
			<stop  offset="0.8998" style="stop-color:#FFFFFF"/>
		</radialGradient>
		<path fill="url(#SVGID_17_)" d="M1300.2,939.7c24.6-94.3,9.2-169.7,8.9-171.6H918.6c0,0-24.6-2.5-24.6,20s0.9,85.9,0.9,156.2
			c0,14.4,11.8,21.4,21.1,21.4C916.1,965.6,1256.6,965.6,1300.2,939.7z"/>
		<path fill="#A08BE8" d="M1065,939.9c0,0,60.1-47.5,71.8-56.3c11.7-8.8,22-9.3,32.7,0s70.8,56.3,70.8,56.3H1065z"/>
		<path fill="#512BD4" d="M1315.4,965.3c0,0,10.4-20.1-15.2-25.7c0-0.1-383.8-0.3-383.8-0.3c-8.9,0-20.4-5.3-21.4-14
			c0,6.2,0,12.5,0,18.8c0,13.1,9.8,20,18.5,21.2c0.9,0.1,1.8,0.2,2.7,0.2h26.2L1315.4,965.3z"/>
		<path fill="#512BD4" d="M1084.8,1115.2l123.2-0.6l-0.5-108.9l-123.2,0.6L1084.8,1115.2z"/>
		<path fill="#FFFFFF" d="M1106.1,1074.5c-0.8,0-1.5-0.3-2.1-0.8c-0.6-0.6-0.9-1.2-0.9-2c0-0.8,0.3-1.5,0.9-2
			c0.6-0.6,1.3-0.8,2.1-0.8c0.8,0,1.5,0.3,2.1,0.8c0.6,0.5,0.9,1.2,0.9,2s-0.3,1.4-0.9,2C1107.7,1074.2,1107,1074.5,1106.1,1074.5z"
			/>
		<path fill="#FFFFFF" d="M1138.9,1074h-5.3l-14.1-22.1c-0.3-0.5-0.7-1.2-0.9-1.8h-0.1c0.1,0.6,0.2,2,0.2,4.1l0,19.7h-4.7l-0.1-30.1
			h5.7l13.6,21.6c0.6,0.9,0.9,1.5,1.1,1.8h0.1c-0.2-0.8-0.2-2.2-0.2-4.1l0-19.4h4.7L1138.9,1074z"/>
		<path fill="#FFFFFF" d="M1161.8,1073.9l-16.5,0l-0.1-30.1l15.8,0v4.2l-10.9,0l0,8.5l10.1,0v4.2l-10.1,0l0,8.9l11.6,0
			L1161.8,1073.9L1161.8,1073.9z"/>
		<path fill="#FFFFFF" d="M1185.2,1048l-8.4,0l0.1,25.9h-4.9l-0.1-25.9l-8.4,0v-4.2l21.7-0.1L1185.2,1048z"/>
	</g>
	<g display="inline">
		<path fill="#ED9583" d="M1063.8,424.6C926.5,275.6,710.5,279,628.5,290.7s-137.3,6.7-137.3,6.7s-35.2,15.1-5,31.8
			c30.1,16.7,197.6,120.6,187.5,195.9C663.7,600.5,1063.8,424.6,1063.8,424.6z"/>
		<path fill="#FFFFFF" d="M499.9,329.5c-30.6,42.8-85.4,15.1-85.4,15.1l18.4-10l-53.6-11.7l20.1-13.4l-30.1-16.7l30.1-5l-15.1-20.1
			l35.2,1.7l-8.4-23.4l43.5,8.4l-5-16.7C449.6,237.4,541.7,270.9,499.9,329.5z"/>
		<path fill="#E75153" d="M655.3,620.6c0,0,123.9-87.1,256.2-113.9c128.6-26,237.9,3,237.9,3s-32-101.8-100.7-106.8
			c-68.7-5-214.3-5-381.8,108.8C637.1,532.1,655.3,620.6,655.3,620.6z"/>
		<path fill="#E75153" d="M723,286c-49.4,19.5-111.5,51.3-154.2,98.2c23.8,18,48.3,39,67.7,60.6c62.7-58.2,211.5-104.4,276.8-121.7
			C846.9,296.8,778.9,287.5,723,286z"/>
		<polygon fill="#ED9583" points="608.4,411 608.4,380.4 634.1,388.7 639.7,413.8 		"/>
		<polygon fill="#FFFFFF" points="641.2,381.2 643.3,353.4 669.7,363.8 673.2,388.1 		"/>
		<polygon fill="#ED9583" points="679.2,357.9 682,332.8 707.7,345.4 710.5,370.4 		"/>
		<polygon fill="#FFFFFF" points="719.6,341.4 725.1,318.1 744.3,330.1 743.2,354 		"/>
		<polygon fill="#ED9583" points="756.7,322.4 756.7,303.5 784.2,311.4 782.5,337 		"/>
		<polygon fill="#FFFFFF" points="672.2,554.3 679.7,524.2 698.1,542.6 692.6,571.4 		"/>
		<polygon fill="#ED9583" points="713,533.5 717.8,503 739.8,520.8 734.2,549.1 		"/>
		<polygon fill="#FFFFFF" points="751.3,515.2 756.9,483.2 781.4,503.7 775.5,532 		"/>
		<polygon fill="#ED9583" points="794.8,498.1 799.7,469.9 824.6,487.4 819.4,511.9 		"/>
		<polygon fill="#FFFFFF" points="840.2,480.3 847.3,450.9 870.7,471.4 864.4,496.3 		"/>
		<polygon fill="#ED9583" points="889.7,465.8 896,438.6 916.9,459.1 911.3,481.4 		"/>
		<polygon fill="#FFFFFF" points="937,455.4 946.6,426.7 967.8,450.1 960.8,473.2 		"/>
		<polygon fill="#ED9583" points="988.7,447.9 998.7,424.1 1017.3,447.2 1009.5,469.1 		"/>
		<polygon fill="#FFFFFF" points="1034.4,444.9 1045.6,424.5 1063.1,444.6 1057.2,465.8 		"/>
		<polygon fill="#ED9583" points="1081,445.7 1091.8,426.3 1106.6,447.2 1101.8,471 		"/>
		<path fill="#FFFFFF" d="M825.6,297.5c-9.1-1.8-18-3.4-26.9-4.7v13.6l27.3,10L825.6,297.5z"/>
		<path fill="#E75153" d="M565.9,297.1c-46.3,2.9-62.8,2.7-74.7,0.3s-23.8,19.5-5,31.8c6.5,4.2,20.5,11.9,37.5,23.1
			C536.1,331.3,551.8,312.2,565.9,297.1z"/>
	</g>
	<g display="inline">
		<path fill="#0064DA" d="M1290.3,1019.8c-10.9,19.5-23.6,38-37.7,55.1c57.4,53.3,139.8,94.4,183.8,98l5.6-67.6
			C1406.4,1102.4,1334.5,1061.9,1290.3,1019.8z"/>
		<path fill="#E75153" d="M1622.8,1204.2c-1.8-3.9-24.7-18.1-59.9-21.2c20.1-49.9,21.2-91.4-7.1-92.3
			c-113.9-2.8-159.6-22.3-159.6-22.3s-25.7,64.9-32,98.6c65.1,29.8,80,88.7,124.6,105.1c0.4,0.2,0.8,0.4,1.2,0.6
			c30.6,12.2,59.2-3.3,59.2-3.3s20.1,2.2,32.9-1.1c12.8-3.3,17.9-16.7,17.9-16.7s19-3.9,24-12.8
			C1629,1229.6,1627.2,1213.7,1622.8,1204.2z"/>
		<path fill="#58585A" d="M1617.2,1205.3l-174.1-39.3c-11-2.4-17.9-13.3-15.5-24.4l2-9.2c2.4-11,13.3-17.9,24.4-15.5l174.1,39.3
			c11,2.4,17.9,13.3,15.5,24.4l-2,9.2C1639.1,1200.8,1628.2,1207.7,1617.2,1205.3z"/>
		<path fill="#E75153" d="M1573.8,1257.5l-4.2,2.4c-11.7,6.7-26.5,2.7-33.3-8.9l-31.7-59.9c-6.7-11.7-2.7-26.5,8.9-33.3l4.2-2.4
			c11.7-6.7,26.5-2.7,33.3,8.9l31.7,59.9C1589.4,1235.9,1585.4,1250.8,1573.8,1257.5z"/>
		<path fill="#E75153" d="M1522,1257.9l-4.2,2.4c-11.7,6.7-26.5,2.7-33.3-8.9l-31.4-57.3c-6.7-11.7-2.7-26.5,8.9-33.3l4.2-2.4
			c11.7-6.7,26.5-2.7,33.3,8.9l31.4,57.3C1537.6,1236.2,1533.7,1251.2,1522,1257.9z"/>
		<path fill="#E75153" d="M1528.1,1089.4l67.7,2.4c13.4,0,24.4,10.9,24.4,24.3l0,4.9c0,13.4-10.9,24.4-24.3,24.4
			c0,0-59,6-123.7-29.7C1435.1,1095.3,1514.7,1089.4,1528.1,1089.4z"/>
		<path fill="#ED9583" d="M1383.5,1062.2l-40,97.2c-3,7.1,0.4,15.2,7.4,18.1l2.9,1.2c7.1,3,15.2-0.4,18.1-7.4l40-97.2
			c3-7.1-0.4-15.2-7.4-18.1l-2.9-1.2C1394.6,1051.8,1386.5,1055.1,1383.5,1062.2z"/>
		<path fill="#808080" d="M1242.7,1086.4c-3.4,3.8-6.9,7.6-10.5,11.3c-0.4,0.6-0.8,1.1-1.1,1.5l196.3,43.3c0.1-0.3,0.1-0.6,0.2-0.9
			l2-9.2c0.3-1.6,0.9-3.1,1.6-4.5L1242.7,1086.4z"/>
		<path fill="#E75153" d="M1623.4,1255.6l-4.2,2.4c-11.7,6.7-26.5,2.7-33.3-8.9l-31.7-59.9c-6.7-11.7-2.7-26.5,8.9-33.3l4.2-2.4
			c11.7-6.7,26.5-2.7,33.3,8.9l31.7,59.9C1639,1234,1635,1248.8,1623.4,1255.6z"/>
	</g>
	<g display="inline">
		<g>
			<path fill="#512BD4" d="M818.5,942.6l46.7,5.5c8.3,1,15.6-6.1,15.6-15.2V814.3c0-9.1-7.3-16.2-15.7-15.2l-46.7,5.9
				c-7.1,0.9-12.4,7.4-12.4,15.2v107.2C806,935.2,811.4,941.8,818.5,942.6z"/>
			<path fill="#E86E58" d="M1423.1,800.8c-2.2-18.2-7.6-30.4-26.6-40c-83.2-41.8-157.6-51-229.9-52c-2.4-0.1-4.8-0.1-7.3-0.1
				c-1.4,0-2.9,0-4.3,0c-1.4,0-2.9,0-4.3,0c-2.5,0-4.9,0-7.3,0.1c-72.3,1.1-160.8,10.2-243.9,52c-19,9.6-32.4,21.8-34.6,40
				s-2.2,110.3,0,132.1s8.9,32.7,40.2,47.3s121.1,44.8,146.8,50.9c25.7,6.1,37.9-1.2,55.8-30.3c17.6-28.7,34.2-64.5,59.3-65.4
				c25.1,0.9,41.7,36.7,59.3,65.4c17.9,29.1,30.1,36.4,55.8,30.3s77.5-36.4,108.8-50.9c31.3-14.5,29.9-25.5,32.2-47.3
				C1425.3,911.1,1425.3,819,1423.1,800.8z"/>
			
				<linearGradient id="SVGID_18_" gradientUnits="userSpaceOnUse" x1="1147.9999" y1="1005.0839" x2="1147.9999" y2="1251.71" gradientTransform="matrix(1 0 0 -1 0 2000)">
				<stop  offset="0.375" style="stop-color:#FFFFFF"/>
				<stop  offset="0.8418" style="stop-color:#33D5F9"/>
			</linearGradient>
			<path fill="url(#SVGID_18_)" d="M1385.4,815.4c0,20.6,0,75.2,0,105.5s-3.3,29.1-20.1,38.8c-16.7,9.7-54.6,22.4-80,31.5
				c-17.1,6.2-19.8,1.2-28.8-7.3c-8.9-8.5-22.1-27.7-36.6-47.1c-14.5-19.4-32.6-41.4-52.7-41.4c-0.1,0-0.1,0-0.2,0s-0.1,0-0.2,0
				c-20.1,0-36.8,23-51.3,42.4c-14.5,19.4-29,37.6-37.9,46.1c-8.9,8.5-17.1,15.8-42.8,7.3c-25.7-8.5-87.3-21.8-104-31.5
				c-16.7-9.7-20.1-8.5-20.1-38.8s0-84.8,0-105.5s-1.1-27.9,24.6-38.8c25.4-10.8,102-27.9,219.8-28.3
				c117.8,0.4,180.4,17.5,205.8,28.3C1386.5,787.5,1385.4,794.8,1385.4,815.4z"/>
			<g>
				<path fill="#CC5444" d="M1360.8,776.6c-25.4-10.8-52.7-17.4-92.5-21.8c38.7,7.3,50.7,11.3,75.5,21.8
					c25.7,10.9,24.6,18.2,24.6,38.8s0,75.2,0,105.5s-3.3,29.1-20.1,38.8c-16.7,9.7-40.3,23-66,31.5c-3.8,1.3-7.3,2.2-10.4,2.8
					c3,0.3,5.2,0,13.4-2.8c25.6-8.8,63.3-21.8,80-31.5s20.1-8.5,20.1-38.8s0-84.8,0-105.5S1386.5,787.5,1360.8,776.6z"/>
			</g>
		</g>
	</g>
	<g display="inline">
		<path fill="#808080" d="M749.3,1222.8l-647.3-168.1l6.5-28.2c0.9-4-1.6-8.1-5.6-9c-4-0.9-8.1,1.6-9,5.6l-6.5,28.2
			c-15.4-2.9-52.6-9.7-53.4-6.5c-0.8,3.2,35.2,15.4,50.2,20.4l-7,30.4c-0.9,4,1.6,8.1,5.6,9c0.5,0.1,1.1,0.2,1.6,0.2
			c3.4,0,6.6-2.3,7.4-5.8l6.8-29.7l647,168c0.6,0.2,1.3,0.2,1.9,0.2c3.3,0,6.4-2.2,7.2-5.6C755.7,1227.9,753.3,1223.8,749.3,1222.8z
			"/>
		<path fill="#808080" d="M603.7,952l-172.5-38.1l5.5-28.4c0.8-4.1-1.9-8-6-8.8s-8,1.9-8.8,6l-5.5,28.4c-15.5-2.4-52.9-7.8-53.6-4.6
			c-0.7,3.2,35.7,14.1,51,18.5l-5.9,30.7c-0.8,4.1,1.9,8,6,8.8c0.5,0.1,1.1,0.2,1.6,0.1c3.5-0.1,6.5-2.6,7.2-6.1l5.7-29.9L610,968.7
			C608,963.5,605.7,957.4,603.7,952z"/>
		<g>
			<path fill="#0064DA" d="M503.8,1205.8c-59.4-50.2-101.2-103.7-55.3-190.9c28-52.9,131.8-136.4,264.9-155.7l10.7,73.8
				c-80.8,11.7-169.3,61-195.2,93.6s-29.3,61.9,11.7,95.4L503.8,1205.8z"/>
			<path fill="#ED9583" d="M739,953.8c38.1,0,68.9-30.8,68.9-68.9S777.1,816,739,816s-68.9,30.8-68.9,68.9
				C670.1,922.9,701,953.8,739,953.8z"/>
			<g>
				<path fill="#58585A" d="M758.1,1259.7l-82.5-25.2c-9.6-2.9-15.1-13.2-12.1-22.8l4-13.1c3-9.6,13.2-15.1,22.8-12.1l82.5,25.2
					c9.6,2.9,15.1,13.2,12.1,22.8l-4,13.1C777.9,1257.2,767.7,1262.6,758.1,1259.7z"/>
				<path fill="#E75153" d="M552.6,1117.8l43.3,15c22.8,7.9,65.7,2.5,78,2.3c60.5-0.8,80.7,49.4,73.5,69c-18.7-2.4-31.4-2.9-39-2.8
					c-3.3,0-4.9,4.1-2.5,6.4c13.5,12.4,42.9,41.6,44.3,60.4c4.7,62.2-83.5,90.4-130.2,63.7c-48.5-27.8-64.8-76-86.1-90.8
					c-10.9-7.5-35-21.1-35-21.1L552.6,1117.8z"/>
				<path fill="#ED9583" d="M528.9,1109.7l-47.5,93.7c-3.5,6.8-0.8,15.2,6,18.7l2.8,1.4c6.8,3.5,15.2,0.8,18.7-6l47.5-93.7
					c3.5-6.8,0.8-15.2-6-18.7l-2.8-1.4C540.7,1100.2,532.4,1102.9,528.9,1109.7z"/>
				<g>
					<path fill="#ED9583" d="M646.8,1204c-11.7-8.1-19.8-12.7-19.8-12.7s-37.9,23.7-52.9,68.1c3.4,5.6,8.3,11.4,13.8,16.8
						C594.5,1260.8,611.8,1228.7,646.8,1204z"/>
					<path fill="#ED9583" d="M662.9,1216c-29.3,16.5-51.5,57-59.9,73.9c11.8,9.7,22.2,16.6,22.2,16.6s28.8-48.3,62-69
						C679.2,1229.4,670.8,1222.2,662.9,1216z"/>
				</g>
			</g>
		</g>
	</g>
</g>
<g id="asset">
	<g>
		<g>
			<path fill="#0064DA" d="M1003,1290.8l-57.1-78.7l-0.3-0.4l-0.5,0c-28.9-1.3-57.5-5.9-85.1-13.7l-2.8-0.8l78.9,108.7l-161.4,160.6
				c-12.3,12.2-12.4,32.2-0.1,44.6c3.5,3.6,7.8,6.2,12.5,7.7c3.2,1.1,6.6,1.6,9.9,1.6c8.2,0,16.2-3.2,22.2-9.2l180.6-179.6
				C1010.8,1320.6,1012.2,1303.4,1003,1290.8z"/>
			<path fill="#0064DA" d="M1190.3,1278.8l-72.8-100.3l-0.7,0.3c-19.3,8.7-39.4,15.8-59.8,21.2l-1.4,0.4l68,93.6l-161.4,160.6
				c-12.3,12.2-12.4,32.2-0.1,44.6c3.5,3.6,7.8,6.2,12.5,7.7c3.2,1.1,6.6,1.6,9.9,1.6c8.2,0,16.2-3.2,22.2-9.2l180.6-179.6
				C1198.1,1308.7,1199.5,1291.5,1190.3,1278.8z"/>
		</g>
		<path fill="#0064DA" d="M1387.9,1829.9c-69.1-22.2-1143.4-366.6-1143.4-366.6l76.9-16.5c0,0,1020.7,327.3,1094.5,351
			c73.8,23.7,156,11.5,156,11.5l6.8,8.3C1578.8,1817.6,1481.7,1860,1387.9,1829.9z"/>
		<path fill="#0064DA" d="M1524.1,1798.7c-69.1-22.2-1143.4-366.6-1143.4-366.6l76.9-16.5c0,0,1020.7,327.3,1094.5,351
			s156,11.5,156,11.5l6.8,8.3C1714.9,1786.4,1617.8,1828.8,1524.1,1798.7z"/>
		<g>
			<path fill="#E75153" d="M1159.5,1666.7L838,1561.7c0,0,13.5-41.4,17.7-54.1c6.8-20.7,176.4-178.4,176.4-178.4l109.1,97.3
				l-77.2,92.4c-5,5.9-3.3,14.9,3.4,18.7l76.3,43C1188.3,1605.7,1159.5,1666.7,1159.5,1666.7z"/>
			<path fill="#58585A" d="M838,1561.7l19.6-60c1.5-4.7,6.6-7.2,11.3-5.6c12.8,4.4,36.5,15.4,45.8,38.4c7.6,18.8,7.9,33.9,6.7,43.3
				c-0.7,5.6-6.3,9.2-11.7,7.4L838,1561.7z"/>
			<path fill="#58585A" d="M1143.7,1580.5c-5.2-2.9-10.8-6.1-16.7-9.4c-46,15.2-49.2,68.9-49.2,68.9l81.7,26.7
				C1159.5,1666.7,1188.3,1605.7,1143.7,1580.5z"/>
			<path fill="#CCCAC7" d="M1113.1,1473.2l-80.1-64.8c-3.1-2.5-3.6-7-1.1-10.1l10.2-12.6c2.5-3.1,7-3.6,10.1-1.1l80.1,64.8
				c3.1,2.5,3.6,7,1.1,10.1l-10.2,12.6C1120.7,1475.2,1116.1,1475.7,1113.1,1473.2z"/>
			<path fill="#CCCAC7" d="M1079.6,1514.5l-80.1-64.8c-3.1-2.5-3.6-7-1.1-10.1l10.2-12.6c2.5-3.1,7-3.6,10.1-1.1l80.1,64.8
				c3.1,2.5,3.6,7,1.1,10.1l-10.2,12.6C1087.2,1516.5,1082.7,1517,1079.6,1514.5z"/>
			<path fill="#CCCAC7" d="M1139.8,1660.6c0,0,6.1-29.1,28.1-25.7c22.8,15.7,54.9,38.5,54.9,38.5l0.8,13.8L1139.8,1660.6z"/>
			<path fill="#CCCAC7" d="M892.1,1579.4l3.9-11.8c0.8-2.4,0.3-5-1.3-6.9l-30.2-35.9c-2.7-3.2-3.5-7.7-2-11.6l6.4-17.1l-13.5-82.5
				l-15,2.6l11.4,73.2c0,0-28.3,14.8-43.8,28c-9.1,7.7-21.4,27.7-21.4,27.7L892.1,1579.4z"/>
			<path fill="#FFFFFF" d="M999.5,1449.7l38.6,31.3l20-23.2l-39.4-31.9c-3.1-2.5-7.6-2-10.1,1.1l-10.2,12.6
				C995.9,1442.6,996.4,1447.2,999.5,1449.7z"/>
			<path fill="#FFFFFF" d="M1032.9,1408.3l39.9,32.3l20-23.2l-40.6-32.9c-3.1-2.5-7.6-2-10.1,1.1l-10.2,12.6
				C1029.4,1401.3,1029.8,1405.8,1032.9,1408.3z"/>
		</g>
		<g>
			<path fill="#E75153" d="M972.2,1678.7l-321.6-105.1c0,0,13.5-41.4,17.7-54.1c6.8-20.7,176.4-178.4,176.4-178.4l109.1,97.3
				l-77.2,92.4c-5,5.9-3.3,14.9,3.4,18.7l76.3,43C1001,1617.6,972.2,1678.7,972.2,1678.7z"/>
			<path fill="#58585A" d="M650.7,1573.6l19.6-60c1.5-4.7,6.6-7.2,11.3-5.6c12.8,4.4,36.5,15.4,45.8,38.4
				c7.6,18.8,7.9,33.9,6.7,43.3c-0.7,5.6-6.3,9.2-11.7,7.4L650.7,1573.6z"/>
			<path fill="#58585A" d="M956.4,1592.5c-5.2-2.9-10.8-6.1-16.7-9.4c-46,15.2-49.2,68.9-49.2,68.9l81.7,26.7
				C972.2,1678.7,1001,1617.6,956.4,1592.5z"/>
			<path fill="#CCCAC7" d="M925.8,1485.1l-80.1-64.8c-3.1-2.5-3.6-7-1.1-10.1l10.2-12.6c2.5-3.1,7-3.6,10.1-1.1l80.1,64.8
				c3.1,2.5,3.6,7,1.1,10.1l-10.2,12.6C933.4,1487.2,928.8,1487.6,925.8,1485.1z"/>
			<path fill="#CCCAC7" d="M892.3,1526.5l-80.1-64.8c-3.1-2.5-3.6-7-1.1-10.1l10.2-12.6c2.5-3.1,7-3.6,10.1-1.1l80.1,64.8
				c3.1,2.5,3.6,7,1.1,10.1l-10.2,12.6C899.9,1528.5,895.4,1529,892.3,1526.5z"/>
			<path fill="#CCCAC7" d="M949.6,1671.7c0,0,8.8-26.4,31-24.9c22.2,14.9,54.9,38.5,54.9,38.5l0.8,13.8L949.6,1671.7z"/>
			<path fill="#CCCAC7" d="M704.8,1591.3l3.9-11.8c0.8-2.4,0.3-5-1.3-6.9l-30.2-35.9c-2.7-3.2-3.5-7.7-2-11.6l6.4-17.1l-13.5-82.5
				l-15,2.6l11.4,73.2c0,0-28.3,14.8-43.8,28c-9.1,7.7-21.4,27.7-21.4,27.7L704.8,1591.3z"/>
			<path fill="#FFFFFF" d="M868.8,1468l-37.3-30.2c-3.1-2.5-7.6-2-10.1,1.1l-10.2,12.6c-2.5,3.1-2,7.6,1.1,10.1l36.8,29.8
				L868.8,1468z"/>
			<path fill="#FFFFFF" d="M845.6,1420.3l37.7,30.5l19.8-23.4l-38.2-30.9c-3.1-2.5-7.6-2-10.1,1.1l-10.2,12.6
				C842.1,1413.2,842.5,1417.8,845.6,1420.3z"/>
		</g>
	</g>
</g>
</svg>
