<?xml version="1.0" encoding="utf-8"?>
<!-- Generator: Adobe Illustrator 26.0.0, SVG Export Plug-In . SVG Version: 6.00 Build 0)  -->
<svg version="1.1" id="asset" xmlns="http://www.w3.org/2000/svg" xmlns:xlink="http://www.w3.org/1999/xlink" x="0px" y="0px"
	 viewBox="0 0 2000 2000" enable-background="new 0 0 2000 2000" xml:space="preserve">
<g>
	
		<linearGradient id="SVGID_1_" gradientUnits="userSpaceOnUse" x1="863.3611" y1="1781.2247" x2="808.7184" y2="1494.5935" gradientTransform="matrix(1 0 0 -1 0 2920)">
		<stop  offset="0.1773" style="stop-color:#522CD5"/>
		<stop  offset="0.6559" style="stop-color:#8A6FE8"/>
	</linearGradient>
	<path fill="url(#SVGID_1_)" d="M809.6,1180.2l-35.2,282.9l71.3,8.9l33.4-268.8C855,1197.7,831.8,1190,809.6,1180.2z"/>
	
		<linearGradient id="SVGID_00000031903485664480003490000016211745561641503134_" gradientUnits="userSpaceOnUse" x1="1120.8706" y1="1805.7412" x2="1173.1982" y2="1538.4758" gradientTransform="matrix(1 0 0 -1 0 2920)">
		<stop  offset="0.1773" style="stop-color:#522CD5"/>
		<stop  offset="0.6559" style="stop-color:#8A6FE8"/>
	</linearGradient>
	<path fill="url(#SVGID_00000031903485664480003490000016211745561641503134_)" d="M1089.9,1189.9c51.2,90.1,55,192.5,53.8,237.9
		c-0.2,3.9,36,7.4,71-0.6c0.6-56.8-7-169.3-60.8-267.6C1133.7,1171.7,1112.3,1181.8,1089.9,1189.9z"/>
	<path fill="#FFD590" d="M918.9,1547.7c-19.9-21.2-31.6-49-39.2-70.3c-7.4-20.7-10-83.8-12-100c-1.6-13.1-16-9.7-16-9.7
		s-4.7,136.6,14.9,162S918.9,1547.7,918.9,1547.7z"/>
	<path fill="#F7B548" d="M731.2,1603.2c2.1-22.3,5.4-44.5,9.8-66.5c15.6-79,23.5-146.4,25.6-165.6c0.2-1.5,0.9-2.9,2-3.8
		s2.6-1.5,4.1-1.5l81,1.9c0.7,0,1.3,0.2,1.9,0.4s1.2,0.6,1.6,1.1s0.8,1,1.1,1.6s0.4,1.3,0.3,1.9c-0.2,25.5,1.3,141.2,45.8,159.6
		c50.1,20.7,40.3,39.2,38.1,76.3C940.4,1645.7,731.2,1603.2,731.2,1603.2z"/>
	
		<linearGradient id="SVGID_00000136403868214893435930000004139784612820039612_" gradientUnits="userSpaceOnUse" x1="299.0036" y1="-9993.2002" x2="162.6556" y2="-9993.2002" gradientTransform="matrix(1 0 0 1 564 11480)">
		<stop  offset="0" style="stop-color:#FFBE46"/>
		<stop  offset="0.1302" style="stop-color:#FF8757"/>
		<stop  offset="0.5365" style="stop-color:#FF436D"/>
		<stop  offset="0.7917" style="stop-color:#BE249B"/>
		<stop  offset="1" style="stop-color:#7029C4"/>
	</linearGradient>
	<path fill="url(#SVGID_00000136403868214893435930000004139784612820039612_)" d="M805.3,1572.7c8.4-5.6,45.8-2.2,45.8-2.2
		s31.6-3.3-3.3-67.6c-25.4-46.8-27.1-102.8-26.2-129.8c0-0.8-0.1-1.6-0.4-2.4c-0.3-0.8-0.7-1.4-1.3-2s-1.2-1.1-2-1.4
		s-1.5-0.5-2.4-0.5l-42.5-1c-1.6,0-3.2,0.5-4.5,1.6c-1.2,1.1-2,2.6-2.2,4.2c-2.2,19.8-10,86.8-25.5,165.1c-4.4,22-7.7,44.2-9.8,66.5
		c0,0,9.5,1.9,24.4,4.6l33.3-3.5C788.9,1604.3,785.7,1585.8,805.3,1572.7z"/>
	<path fill="#FFFFFF" d="M841.6,1538.6c-0.5,0-0.9-0.1-1.4-0.3c-0.4-0.2-0.8-0.5-1.1-0.9c-0.2-0.3-0.4-0.7-0.5-1.1s-0.1-0.8,0-1.2
		s0.2-0.8,0.4-1.1c0.2-0.3,0.5-0.6,0.8-0.9l36.9-26.9l-50.2-9.8c-0.6-0.1-1.1-0.4-1.5-0.8s-0.7-0.9-0.8-1.5s-0.1-1.1,0-1.7
		c0.2-0.6,0.5-1,1-1.4l38.2-30.2l-46-13.9c-0.6-0.2-1.1-0.5-1.5-1s-0.6-1.1-0.7-1.7c0-0.6,0.1-1.2,0.4-1.7c0.3-0.5,0.8-0.9,1.3-1.2
		l39.6-18.2l-45.1-21c-0.6-0.3-1-0.7-1.3-1.2s-0.4-1.2-0.4-1.8c0-0.6,0.3-1.2,0.7-1.7s0.9-0.8,1.5-1l50.1-14.2
		c0.8-0.2,1.6-0.1,2.3,0.3s1.2,1,1.4,1.8c0.1,0.4,0.1,0.8,0.1,1.2c0,0.4-0.2,0.8-0.4,1.1c-0.2,0.3-0.5,0.7-0.8,0.9
		c-0.3,0.2-0.7,0.4-1,0.5l-42.4,12l43.6,20.3c0.5,0.2,1,0.6,1.3,1.1s0.5,1.1,0.5,1.6s-0.2,1.1-0.5,1.6s-0.8,0.9-1.3,1.1l-38.3,17.6
		l43.9,13.3c0.5,0.2,1,0.5,1.4,0.9s0.6,0.9,0.7,1.4c0.1,0.5,0.1,1.1-0.1,1.6c-0.2,0.5-0.5,1-1,1.3l-37.6,29.7l50.5,9.9
		c0.6,0.1,1.1,0.4,1.5,0.8s0.7,0.9,0.8,1.5s0.1,1.2-0.1,1.7c-0.2,0.5-0.6,1-1,1.4l-42.4,31C842.8,1538.4,842.2,1538.6,841.6,1538.6z
		"/>
	<path d="M730.9,1670.4h223.7c1.4,0,2.8-0.3,4-0.8c1.3-0.6,2.4-1.4,3.3-2.4c0.9-1,1.7-2.2,2.1-3.5c0.5-1.3,0.6-2.7,0.5-4.1
		l-3.9-52.3c-0.2-2.5-1.3-4.8-3.1-6.6c-1.8-1.7-4.2-2.7-6.8-2.7l-216.6-3.3c-2.6,0-5.1,0.9-7,2.7c-1.9,1.8-3,4.2-3.2,6.8l-3.2,55.6
		c-0.1,1.4,0.1,2.7,0.6,4s1.2,2.5,2.1,3.5c0.9,1,2.1,1.8,3.3,2.3S729.6,1670.4,730.9,1670.4z"/>
	<path d="M810.4,1406.7c4.2,0,7.6-3.4,7.6-7.6s-3.4-7.6-7.6-7.6s-7.6,3.4-7.6,7.6S806.2,1406.7,810.4,1406.7z"/>
	<path d="M815.5,1452.9c4.2,0,7.6-3.4,7.6-7.6s-3.4-7.6-7.6-7.6s-7.6,3.4-7.6,7.6S811.3,1452.9,815.5,1452.9z"/>
	<path d="M827.1,1500.9c4.2,0,7.6-3.4,7.6-7.6s-3.4-7.6-7.6-7.6s-7.6,3.4-7.6,7.6S822.9,1500.9,827.1,1500.9z"/>
	<path d="M842.6,1542.7c4.2,0,7.6-3.4,7.6-7.6s-3.4-7.6-7.6-7.6s-7.6,3.4-7.6,7.6S838.4,1542.7,842.6,1542.7z"/>
	<path fill="#FFD590" d="M1314.3,1546.8c-24-21.2-41.1-49-52.9-70.3c-11.5-20.7-26.2-83.8-31.4-100c-4.2-13.1-17.9-9.7-17.9-9.7
		s21.9,136.6,46.4,162C1283,1554.2,1314.3,1546.8,1314.3,1546.8z"/>
	<path fill="#F7B548" d="M1137.4,1602.3c-2.2-22.1-3.2-44.3-3.1-66.5c0.3-79-5-146.4-6.6-165.6c-0.1-0.7,0-1.4,0.2-2.1
		s0.6-1.3,1.1-1.8s1.1-0.9,1.7-1.2c0.7-0.2,1.4-0.4,2.1-0.3l81.4,1.9c1.4,0.1,2.8,0.6,3.8,1.5s1.8,2.2,2.1,3.5
		c4.7,25.5,28.7,141.2,76.9,159.6c54.2,20.7,48,39.2,53,76.3C1354.9,1644.8,1137.4,1602.3,1137.4,1602.3z"/>
	
		<linearGradient id="SVGID_00000166645655829531136540000012589309131482593690_" gradientUnits="userSpaceOnUse" x1="695.6476" y1="-9994.1133" x2="559.1026" y2="-9994.1133" gradientTransform="matrix(1 0 0 1 564 11480)">
		<stop  offset="0" style="stop-color:#FFBE46"/>
		<stop  offset="0.1302" style="stop-color:#FF8757"/>
		<stop  offset="0.5365" style="stop-color:#FF436D"/>
		<stop  offset="0.7917" style="stop-color:#BE249B"/>
		<stop  offset="1" style="stop-color:#7029C4"/>
	</linearGradient>
	<path fill="url(#SVGID_00000166645655829531136540000012589309131482593690_)" d="M1205.5,1571.8c7.3-5.6,45.3-2.2,45.3-2.2
		s31-3.3-16.4-67.6c-34.5-46.8-47.1-102.8-51.4-129.8c-0.3-1.7-1.2-3.3-2.5-4.4s-3-1.8-4.7-1.9l-42.7-1c-0.8-0.1-1.5,0.1-2.2,0.3
		c-0.7,0.3-1.4,0.7-1.9,1.3c-0.5,0.6-0.9,1.2-1.2,1.9c-0.2,0.7-0.3,1.5-0.2,2.3c1.7,19.8,6.8,86.8,6.6,165.1
		c-0.1,22.2,0.9,44.4,3.1,66.5c0,0,9.9,1.9,25.3,4.6l32.7-3.5C1195.3,1603.4,1188.4,1584.8,1205.5,1571.8z"/>
	<path fill="#FFFFFF" d="M1235.2,1537.7c-0.5,0-1-0.1-1.5-0.3s-0.9-0.5-1.2-0.9c-1.2-1.3-1.3-3.2-0.2-4.2l31.6-26.9l-52.1-9.8
		c-0.6-0.1-1.2-0.4-1.7-0.8s-0.9-0.9-1.1-1.4s-0.3-1.1-0.3-1.6c0.1-0.6,0.3-1.1,0.7-1.5l32.4-30.2l-48.7-13.9
		c-0.6-0.2-1.2-0.5-1.7-1s-0.8-1.1-1-1.7s-0.2-1.1,0.1-1.7c0.2-0.5,0.6-1,1.1-1.2l36.1-18.2l-49.2-21c-0.6-0.3-1.1-0.7-1.5-1.2
		s-0.7-1.1-0.8-1.8c-0.1-0.6,0-1.2,0.3-1.6c0.3-0.5,0.8-0.8,1.3-1l47.4-14.2c0.8-0.2,1.7-0.1,2.4,0.3c0.8,0.4,1.3,1,1.7,1.8
		c0.2,0.3,0.3,0.7,0.4,1.1c0,0.4,0,0.8-0.1,1.1c-0.1,0.3-0.3,0.7-0.6,0.9c-0.3,0.3-0.6,0.5-1,0.6l-40,12l47.6,20.3
		c0.6,0.2,1.1,0.6,1.5,1.1s0.7,1,0.8,1.6c0.1,0.5,0.1,1.1-0.1,1.6s-0.6,0.9-1.1,1.2l-34.9,17.6l46.4,13.3c0.6,0.2,1.1,0.5,1.5,0.9
		s0.8,0.9,1,1.4s0.3,1,0.2,1.5c-0.1,0.5-0.3,1-0.7,1.4l-31.8,29.7l52.5,9.9c0.6,0.1,1.2,0.4,1.7,0.8s0.9,0.9,1.1,1.5
		c0.2,0.5,0.3,1.1,0.2,1.6c-0.1,0.6-0.4,1.1-0.8,1.4l-36.4,31C1236.4,1537.5,1235.8,1537.7,1235.2,1537.7z"/>
	<path d="M1150.2,1669.4h223.7c5.8,0,9.5-5,7.9-10.8l-14-52.3c-0.7-2.6-2.3-4.9-4.3-6.5c-2.1-1.7-4.7-2.7-7.3-2.8l-217.3-3.3
		c-1.2-0.1-2.4,0.1-3.6,0.6c-1.1,0.5-2.1,1.2-2.9,2.1s-1.4,2-1.7,3.2s-0.4,2.4-0.1,3.6l7.6,55.6c0.5,2.9,2,5.5,4.2,7.5
		C1144.4,1668.2,1147.2,1669.3,1150.2,1669.4z"/>
	<path d="M1184,1403.8c2.6-2.8,1.9-7.7-1.6-10.8s-8.3-3.4-10.9-0.5s-1.9,7.7,1.6,10.8C1176.5,1406.3,1181.4,1406.6,1184,1403.8z"/>
	<path d="M1198.2,1450c2.6-2.8,1.9-7.7-1.6-10.8s-8.3-3.4-10.9-0.5s-1.9,7.7,1.6,10.8S1195.6,1452.8,1198.2,1450z"/>
	<path d="M1219,1498c2.6-2.8,1.9-7.7-1.6-10.8s-8.3-3.4-10.9-0.5s-1.9,7.7,1.6,10.8S1216.4,1500.8,1219,1498z"/>
	<path d="M1242.7,1539.8c2.6-2.8,1.9-7.7-1.6-10.8s-8.3-3.3-10.9-0.5s-1.9,7.7,1.6,10.8S1240.1,1542.6,1242.7,1539.8z"/>
</g>
</svg>
