<?xml version="1.0" encoding="utf-8"?>
<!-- Generator: Adobe Illustrator 24.2.0, SVG Export Plug-In . SVG Version: 6.00 Build 0)  -->
<svg version="1.1" id="Layer_1" xmlns="http://www.w3.org/2000/svg" xmlns:xlink="http://www.w3.org/1999/xlink" x="0px" y="0px"
	 viewBox="0 0 2000 2000" enable-background="new 0 0 2000 2000" xml:space="preserve">
<g id="ghost-image" display="none">
	<g display="inline">
		
			<linearGradient id="SVGID_1_" gradientUnits="userSpaceOnUse" x1="2499.1848" y1="1980.5006" x2="2499.1848" y2="59.1924" gradientTransform="matrix(-1 0 0 -1 3498.3687 2000)">
			<stop  offset="9.490000e-02" style="stop-color:#77E3FB"/>
			<stop  offset="0.2428" style="stop-color:#BBF1FD"/>
			<stop  offset="0.9938" style="stop-color:#BBF1FD"/>
		</linearGradient>
		<path fill="url(#SVGID_1_)" d="M948.9,1938.9c797.7,13.1,902.2-35.7,961-301c114-514.6-131.8-729.1-29-1154.9
			C1976.8,85.9,1380.5-12.4,764.8,27.8S57.6,242.1,161.5,582c72.9,238.5,53.6,535.6-80.4,836.9S405.6,1929.9,948.9,1938.9z"/>
		<path fill="#FFE5B9" d="M1909.8,1637.9c-58.8,265.3-163.3,314.1-961,301c-543.2-8.9-1001.7-218.8-867.7-520.1
			c24.7-55.5,45.4-110.8,62.5-165.7h1791.9C1945.7,1364.4,1942.9,1488.5,1909.8,1637.9z"/>
		<path fill="#F9C163" d="M1939.5,1419.8c-251.7-13-418.1-16-363.3,18.6c70.5,44.7-1.8,66.1-450.7,48.2s-544.2-14.3-475.6,23.9
			c89.7,49.9-430.9,12.7-592.1,3.8c1.1-30.7,8.7-62.5,23.4-95.5c24.7-55.6,45.5-111,62.6-166l1791.4-3
			C1940.2,1303.1,1942.3,1359.3,1939.5,1419.8z"/>
		
			<linearGradient id="SVGID_2_" gradientUnits="userSpaceOnUse" x1="1025.6401" y1="1107.063" x2="1025.6401" y2="653.8397" gradientTransform="matrix(1 0 0 -1 0 2000)">
			<stop  offset="0.4455" style="stop-color:#FFFFFF"/>
			<stop  offset="0.7566" style="stop-color:#BBF1FD"/>
		</linearGradient>
		<path fill="url(#SVGID_2_)" d="M1940,1324.1C1940,1324.1,1940,1324.1,1940,1324.1c-2-57.5-8-111.3-15.9-162.9c0,0,0-0.1,0-0.1
			c-0.4-2.6-0.8-5.1-1.2-7.7c0-0.2-0.1-0.4-0.1-0.6c-0.4-2.4-0.8-4.9-1.2-7.3c-0.1-0.3-0.1-0.7-0.2-1c-0.4-2.3-0.8-4.6-1.2-6.9
			c-0.1-0.4-0.1-0.8-0.2-1.3c-0.4-2.2-0.8-4.5-1.1-6.7c-0.1-0.5-0.2-1-0.2-1.5c-0.4-2.2-0.7-4.3-1.1-6.5c-0.1-0.6-0.2-1.2-0.3-1.7
			c-0.4-2.1-0.7-4.2-1.1-6.2c-0.1-0.6-0.2-1.3-0.3-1.9c-0.4-2-0.7-4.1-1.1-6.1c-0.1-0.7-0.2-1.3-0.4-2c-0.4-2-0.7-4-1.1-5.9
			c-0.1-0.7-0.3-1.4-0.4-2.1c-0.4-1.9-0.7-3.9-1.1-5.8c-0.1-0.7-0.3-1.4-0.4-2.2c-0.4-1.9-0.7-3.8-1.1-5.7c-0.1-0.8-0.3-1.5-0.4-2.3
			c-0.4-1.9-0.7-3.8-1.1-5.7c-0.1-0.7-0.3-1.4-0.4-2.1c-0.4-1.9-0.8-3.9-1.1-5.8c-0.1-0.6-0.2-1.2-0.4-1.8c-0.4-2-0.8-4.1-1.2-6.1
			c0-0.1,0-0.1,0-0.2c-101.2-30.1-165.3,51.6-165.3,51.6s-46.9-43.5-132.3-41.9c-87.1,1.7-122.2,67-122.2,67s-31.8-40.2-80.4-30.1
			c-51.6,10.7-77.1,63.7-77.1,63.7c-154.3-228.3-258.1-140.7-258.1-140.7s-47.9-70.1-136.8-82s-96.8,81-96.8,81s-72.5-36.8-131.6,7
			c-37.9,28.1-71.6,79.8-71.4,111.6c1.1-37.9-17.5-89.8-78.1-138.4c-90.4-72.6-203.2-39.1-203.2-39.1s-16.7-67.5-97.1-74.2
			c-19.6-1.6-37.2,0.6-51.9,4.8c-2.8,131.4-28.3,271.1-79,413.1c-0.6,1.6-1.2,3.2-1.7,4.8c-0.7,2-1.5,4.1-2.2,6.1
			c-1.1,3-2.2,6.1-3.4,9.1c-0.7,1.8-1.3,3.6-2,5.3c-1.2,3.1-2.3,6.2-3.5,9.3c0,0,0,0.1,0,0.1L1940,1324.1z"/>
		
			<linearGradient id="SVGID_3_" gradientUnits="userSpaceOnUse" x1="2189.7336" y1="1867.7218" x2="2189.7336" y2="1648.72" gradientTransform="matrix(-1 0 0 -1 3498.3687 2000)">
			<stop  offset="0.5272" style="stop-color:#FFFFFF"/>
			<stop  offset="0.9938" style="stop-color:#BBF1FD"/>
		</linearGradient>
		<path fill="url(#SVGID_3_)" d="M1628.6,351.3H988.7c0,0,3.1-62.1,74.5-99.4c25.3-13.2,75.1,0.9,75.1,0.9s46.6-106.8,120.6-118.3
			c129.5-20.1,187.5,108.4,187.5,108.4s54.2-15.1,88.6-0.5C1606.8,272.8,1628.6,351.3,1628.6,351.3z"/>
		<path fill="#FFFFFF" d="M81.1,1418.8c25.5-57.3,46.8-114.4,64.1-171l1789.4-3c4.7,47.5,7,97.3,5.7,150.3c-0.2,6.5-0.4,13-0.7,19.6
			c-251.8-13-434.8-24-380.1,10.6c70.5,44.7,17.1,61.8-431.8,44c-448.9-17.9-569.6-8.8-499.7,26.9c64.7,33-408.4,22-570,13
			C59.8,1480.2,67.3,1450,81.1,1418.8z"/>
		
			<linearGradient id="SVGID_4_" gradientUnits="userSpaceOnUse" x1="2496.1199" y1="796.79" x2="2496.1199" y2="516.37" gradientTransform="matrix(-1 0 0 -1 3498.3687 2000)">
			<stop  offset="0.1442" style="stop-color:#2ECCEF"/>
			<stop  offset="0.4769" style="stop-color:#77E3FB"/>
		</linearGradient>
		<path fill="url(#SVGID_4_)" d="M1940.4,1394.6c-316.5-14.4-578.4-36.6-514.3,4c70.5,44.7,30.5,58.1-418.3,40.2
			c-448.8-17.9-570.8-8.9-500.9,26.8c60.2,30.8-275.9,15.2-443.1,4.5c3.9-16.8,9.6-33.9,17.4-51.3c31.7-71.3,57-142.5,76.2-212.6
			l1772.7-3C1937.6,1262.9,1942.1,1326,1940.4,1394.6z"/>
		<path fill="#0BBACF" d="M1597,1212.2l78.1-44.3c0,0,82.6,2.9,125-20.4c31-17.1,41.7-21.8,119.4-13.8c4.3,25.6,8.2,51.8,11.5,78.6
			L1597,1212.2L1597,1212.2z"/>
		<path fill="#FDD696" d="M1813.6,1693.5h-127.3c0,0,35.7-35.9,63.6-40.4C1777.9,1648.7,1813.6,1693.5,1813.6,1693.5z"/>
		<path fill="#F9C163" d="M351.3,1629H197.2c0,0,24.6-27.9,60.3-32C293.2,1592.8,351.3,1629,351.3,1629z"/>
		<path fill="#FDD696" d="M1646.2,1469.3h75.9c0,0-11.2-18.9-37.9-18.9S1646.2,1469.3,1646.2,1469.3z"/>
		
			<rect x="1813.7" y="1534.2" transform="matrix(0.9479 -0.3185 0.3185 0.9479 -397.757 662.5262)" fill="#F9C163" width="26.8" height="26.8"/>
		
			<rect x="911.8" y="1816.1" transform="matrix(0.3319 -0.9433 0.9433 0.3319 -1106.9996 2090.8445)" fill="#FFF6E8" width="21.6" height="21.6"/>
		
			<rect x="699.2" y="1863" transform="matrix(0.9899 -0.1419 0.1419 0.9899 -259.1661 120.2524)" fill="#F9C163" width="28.7" height="28.7"/>
		
			<rect x="346" y="1756.2" transform="matrix(0.3164 -0.9486 0.9486 0.3164 -1433.5839 1554.2942)" fill="#FFF6E8" width="31.3" height="31.3"/>
		
			<rect x="384.7" y="1578.2" transform="matrix(0.9782 -0.2077 0.2077 0.9782 -322.1328 117.6887)" fill="#FDD696" width="29.3" height="29.3"/>
		
			<rect x="295.5" y="1545" transform="matrix(0.7883 -0.6153 0.6153 0.7883 -892.5827 518.1304)" fill="#FFF6E8" width="22.3" height="22.3"/>
		<rect x="1579.4" y="1850.7" fill="#FDD696" width="26.6" height="26.6"/>
		
			<rect x="1653.7" y="1816" transform="matrix(0.1825 -0.9832 0.9832 0.1825 -435.4743 3129.9758)" fill="#F9C163" width="21.6" height="21.6"/>
		<rect x="1664.4" y="1601.7" fill="#FFF6E8" width="22" height="22"/>
		<rect x="973.8" y="1878.9" fill="#FDD696" width="25.7" height="25.7"/>
		<rect x="600.4" y="1816.1" fill="#FDD696" width="21.6" height="21.6"/>
		<rect x="185.6" y="1662.4" fill="#FDD696" width="23.3" height="23.3"/>
		
			<rect x="1251.8" y="1831.2" transform="matrix(0.3183 -0.948 0.948 0.3183 -887.8329 2466.7175)" fill="#FDD696" width="38.9" height="38.9"/>
		<rect x="1537.3" y="1521.7" fill="#FDD696" width="24.9" height="24.9"/>
		<rect x="1849.6" y="1601.9" fill="#FDD696" width="21.8" height="21.8"/>
		<path fill="#FFFFFF" d="M358.2,1452.7l-239.1-12.8c0,0,78.4-20.4,145.4-18.9S358.2,1452.7,358.2,1452.7z"/>
		<path fill="#FFFFFF" d="M1871.4,1371.4l-207-1.6c0,0,62.2-24.2,103.5-23.6S1871.4,1371.4,1871.4,1371.4z"/>
		<path fill="#FFFFFF" d="M755.3,1399l-176.9,2.8c0,0,56.7-19.1,106.2-21.4C734,1378.1,755.3,1399,755.3,1399z"/>
		
			<linearGradient id="SVGID_5_" gradientUnits="userSpaceOnUse" x1="1814.9187" y1="1382.9779" x2="1814.9187" y2="1211.5901" gradientTransform="matrix(-1 0 0 -1 3498.3687 2000)">
			<stop  offset="0.5272" style="stop-color:#FFFFFF"/>
			<stop  offset="0.9938" style="stop-color:#BBF1FD"/>
		</linearGradient>
		<path fill="url(#SVGID_5_)" d="M1859.5,788.4h-352.2c0,0,17-61.4,73.3-85.3c26.9-11.4,69.3,0.4,69.3,0.4s45.4-100.6,146.8-84.9
			c23.7,3.7,43.7,19.8,59.2,37.6C1853.9,702,1855.5,745.8,1859.5,788.4z"/>
		<circle fill="#FFF6E8" cx="771" cy="1860.2" r="13.6"/>
		<circle fill="#FFF6E8" cx="530.5" cy="1850.7" r="6.1"/>
		<circle fill="#FFF6E8" cx="329.9" cy="1715.9" r="6.3"/>
		<circle fill="#FFF6E8" cx="430.6" cy="1552.5" r="8.2"/>
		<circle fill="#FFF6E8" cx="208.9" cy="1727.7" r="6.2"/>
		<circle fill="#FFF6E8" cx="171" cy="1569.8" r="9.1"/>
		<circle fill="#FFF6E8" cx="902.6" cy="1904.6" r="6.4"/>
		<circle fill="#FFF6E8" cx="1058.7" cy="1878.8" r="9.3"/>
		<circle fill="#FFF6E8" cx="1099.5" cy="1891.7" r="6.4"/>
		<circle fill="#FFF6E8" cx="1399.1" cy="1801.2" r="6.8"/>
		<circle fill="#FFF6E8" cx="1555.2" cy="1837.7" r="8.9"/>
		<circle fill="#FFF6E8" cx="1360" cy="1878.8" r="12.8"/>
		<circle fill="#FFF6E8" cx="1807.5" cy="1637.9" r="10.9"/>
		<circle fill="#FFF6E8" cx="1750" cy="1528.7" r="9"/>
		<circle fill="#FFF6E8" cx="1827" cy="1469.3" r="19.5"/>
		<circle fill="#FFF6E8" cx="1625.1" cy="1439.1" r="5.4"/>
		<circle fill="#FFF6E8" cx="1500.7" cy="1562.5" r="6.8"/>
		<circle fill="#FFF6E8" cx="1726.7" cy="1837.7" r="8.9"/>
		<circle fill="#FFF6E8" cx="524.3" cy="1685.6" r="9.8"/>
		<circle fill="#FFF6E8" cx="666.8" cy="1643.3" r="10.1"/>
		<circle fill="#FFF6E8" cx="808.1" cy="1721.5" r="6.2"/>
		<path fill="#0BBACF" d="M783.1,1299.5C744.9,1291,650,1260.6,558,1217c-178.8-84.7-287.3-30.8-303-21.1
			c-1.3-161.3,70-279.5,113.7-334.5c6.1,67.2-14.9,179.8-14.9,179.8s38.7-38.5,46.5-50.5s9.5-49,11.2-70.9
			c21.8,37.3,29.1,86.6,29.1,86.6s25.8-38.5,24.6-54.1s-16.8-61.3-31.9-88.7c43.1,15.9,85.7,71.9,85.7,71.9s-3.4-55.3-26.9-70.6
			c-23.5-15.3-29.1-22-82.9-37.6c39.2-14.4,101.9,0,101.9,0s-10.1-21.6-31.4-31.3s-53.8-9.6-79.5,0c3.4-39.7-23.5-80.5-23.5-80.5
			s3.4,39.7-3.4,58.9c-14.6-8.4-28-19.2-48.2-27.7s-86.2-12-86.2-12l97.4,57c0,0-73.8-3.9-84,0c-29.9,11.3-45.1,36-49.7,44.8
			c0,1,0.1,2,0.1,3l123.5-12.2c0,0-66.1,25.2-73.9,37.6S215.7,939,215.7,939s75.2-63.9,137.6-83.4
			c-39.7,43.7-106.8,140.6-125.1,308.6c-12.5-15.4-29.1-34.5-48.6-53.3c-12.2,62-29.3,125-51.4,188.6L783.1,1299.5L783.1,1299.5z"/>
	</g>
	<g display="inline" opacity="0.5">
		<path fill="#8A6FE8" d="M1469,1134.6c-57.7-4.7-181.3-73.8-228.1-150.4c-28.4-46.5,24.8-83.6,53.8-36.2
			c31.4,51.3,134.8,115.2,179.9,118.9L1469,1134.6z"/>
		<path fill="#8A6FE8" d="M1525,1005.7l-88.7,33.7c-15.8,6-23.7,23.7-17.8,39.5c6,15.8,23.7,23.7,39.5,17.8l88.7-33.7
			c15.8-6,23.7-23.7,17.8-39.5C1558.6,1007.6,1540.8,999.6,1525,1005.7z"/>
		<path fill="#8A6FE8" d="M1416.4,1155.1l37.8,51.4c10.2,13.6,29.4,16.4,43.1,6.3c13.6-10.2,16.4-29.4,6.3-43.1l-38.8-52.7
			L1416.4,1155.1z"/>
		<path fill="#8A6FE8" d="M1450.7,1158.2l76.8,42.9c14.9,8.2,33.6,2.9,41.8-12c8.2-14.8,2.9-33.6-12-41.8l-57-32.1L1450.7,1158.2z"
			/>
		<path fill="#8A6FE8" d="M1460.3,1121.8l84.6,24.4c16.3,4.7,33.4-4.7,38.2-21c4.7-16.3-4.7-33.4-21-38.2l-86.2-24.9L1460.3,1121.8z
			"/>
		
			<radialGradient id="SVGID_6_" cx="6809.729" cy="-8097.9277" r="6.0501" gradientTransform="matrix(10.6515 0 0 10.6515 -71082.25 87358.8125)" gradientUnits="userSpaceOnUse">
			<stop  offset="0" style="stop-color:#8065E0"/>
			<stop  offset="1" style="stop-color:#512BD4"/>
		</radialGradient>
		<path fill="url(#SVGID_6_)" d="M1451.6,1168.2c35.6,0,64.4-28.8,64.4-64.4c0-35.6-28.9-64.4-64.4-64.4
			c-35.6,0-64.4,28.8-64.4,64.4C1387.1,1139.3,1416,1168.2,1451.6,1168.2z"/>
		
			<linearGradient id="SVGID_7_" gradientUnits="userSpaceOnUse" x1="432.5013" y1="-14376.1826" x2="492.2793" y2="-14091.4707" gradientTransform="matrix(1 0 0 1 694 15472)">
			<stop  offset="0" style="stop-color:#522CD5"/>
			<stop  offset="0.4397" style="stop-color:#8A6FE8"/>
		</linearGradient>
		<path fill="url(#SVGID_7_)" d="M1216.5,1374.2c0.7-59.8-7.8-181.1-69.5-282.6l-60.3,36.6c56,92.1,60.2,199.7,58.9,246.6
			C1145.4,1378.6,1181.6,1382.1,1216.5,1374.2z"/>
		<path fill="#522CD5" d="M1145.5,1374.1l55.8-0.3l52.1,298.7l-112.1,0.5c-8.5,0-15-6.8-14.4-15.4L1145.5,1374.1z"/>
		
			<linearGradient id="SVGID_8_" gradientUnits="userSpaceOnUse" x1="468.5236" y1="-14100.0088" x2="646.134" y2="-13783.3525" gradientTransform="matrix(1 0 0 1 694 15472)">
			<stop  offset="0" style="stop-color:#522CD5"/>
			<stop  offset="0.4397" style="stop-color:#8A6FE8"/>
		</linearGradient>
		<path fill="url(#SVGID_8_)" d="M1373,1593.9c9.7,7.7,9.5,18.7,8.8,30.4l-2.3,35.8c-0.4,6.4-6,11.7-12.4,11.7l-116.8,0.5
			c-7.3,0-12.8-5.8-12.3-13.1l0.8-37.1c0.9-13.5-3.7-18.4-14.1-31.1c-17.9-21.7-70.7-140-65.7-217.1l57.5-0.3
			C1220.3,1419.5,1280.7,1521.1,1373,1593.9z"/>
		
			<radialGradient id="SVGID_9_" cx="7113.6348" cy="-7765.125" r="6.0492" gradientTransform="matrix(20.3477 -9.260000e-02 9.260000e-02 20.3477 -142722.7188 160203.2656)" gradientUnits="userSpaceOnUse">
			<stop  offset="3.400000e-02" style="stop-color:#522CD5"/>
			<stop  offset="0.9955" style="stop-color:#8A6FE8"/>
		</radialGradient>
		<path fill="url(#SVGID_9_)" d="M1381.8,1624.3c0.6-8.2,0.7-16-2.5-22.6l-145.7,0.7c4,5.9,5.7,11.1,5.2,19.7l-0.8,37.1
			c-0.5,7.3,5,13.1,12.3,13.1l116.8-0.5c6.4,0,12-5.3,12.4-11.7L1381.8,1624.3z"/>
		
			<linearGradient id="SVGID_10_" gradientUnits="userSpaceOnUse" x1="103.6376" y1="-14380.5342" x2="172.368" y2="-14057.1787" gradientTransform="matrix(1 0 0 1 694 15472)">
			<stop  offset="0" style="stop-color:#522CD5"/>
			<stop  offset="0.4397" style="stop-color:#8A6FE8"/>
		</linearGradient>
		<path fill="url(#SVGID_10_)" d="M847.6,1418.8l-71.3-8.9l40.1-322.5l71.3,8.8L847.6,1418.8z"/>
		<path fill="#522CD5" d="M781.5,1371.7l56.5-0.3l15.6,302l-113.4,0.5c-8.6,0-14.3-6.9-12.7-15.6L781.5,1371.7z"/>
		
			<linearGradient id="SVGID_11_" gradientUnits="userSpaceOnUse" x1="48.7987" y1="-14073.0107" x2="174.6589" y2="-13833.1816" gradientTransform="matrix(1 0 0 1 694 15472)">
			<stop  offset="0" style="stop-color:#522CD5"/>
			<stop  offset="0.4397" style="stop-color:#8A6FE8"/>
		</linearGradient>
		<path fill="url(#SVGID_11_)" d="M945.7,1595.1c8.7,7.9-176.8,78.6-176.8,78.6c-7.4,0-12.2-5.9-10.8-13.2l5.8-37.5
			c2.6-13.6,0.6-17.7,0.8-35.1c0.5-32.8,15.6-138.2,30.3-216.2l58.2-0.2C851.4,1417.6,871.5,1527.9,945.7,1595.1z"/>
		
			<radialGradient id="SVGID_12_" cx="7124.8638" cy="-7738.6567" r="6.0492" gradientTransform="matrix(22.145 -0.1007 0.1006 22.1216 -156138.375 173450.8281)" gradientUnits="userSpaceOnUse">
			<stop  offset="3.400000e-02" style="stop-color:#522CD5"/>
			<stop  offset="0.9955" style="stop-color:#8A6FE8"/>
		</radialGradient>
		<path fill="url(#SVGID_12_)" d="M763.9,1622.9l-5.8,37.5c-1.4,7.3,3.5,13.3,10.8,13.2l162.2-0.7c6.5,0,12.8-5.3,14-11.8l6.8-36.2
			c1.6-8.6,2.1-16.2-1-22.8l-185.9,0.8C765.4,1609.6,765.5,1614.4,763.9,1622.9z"/>
		<path fill="#8A6FE8" d="M804,455.8L736.5,483l-18.4-73.1l48.4-19.5L804,455.8z"/>
		<path fill="#512BD4" d="M788.8,582c38.2,0,69.1-30.9,69.1-69.1s-30.9-69.1-69.1-69.1s-69.1,30.9-69.1,69.1
			C719.7,551,750.7,582,788.8,582z"/>
		
			<radialGradient id="SVGID_13_" cx="7339.8369" cy="-7552.6758" r="6.0492" gradientTransform="matrix(61.9498 0 0 61.9498 -453685.7188 468654.875)" gradientUnits="userSpaceOnUse">
			<stop  offset="0.4744" style="stop-color:#A08BE8"/>
			<stop  offset="0.8618" style="stop-color:#8065E0"/>
		</radialGradient>
		<path fill="url(#SVGID_13_)" d="M1300.2,939.7C1325,844.2,1309,768,1309,768h22.4l0.5-0.4c-32.2-175.2-185.6-307.9-370-307.9
			c-207.8,0-376.3,168.5-376.3,376.3s168.4,376.3,376.3,376.3c164,0,303.5-104.9,355-251.2C1318.4,954.8,1318.3,943.6,1300.2,939.7z
			"/>
		<path fill="#D8CFF7" d="M1286.4,1026.5H637.5c14.6,24.8,31.9,47.7,51.5,68.4h545.8C1254.5,1074.2,1271.8,1051.3,1286.4,1026.5z"/>
		
			<radialGradient id="SVGID_14_" cx="7310.3384" cy="-7587.5444" r="6.0492" gradientTransform="matrix(48.2581 0 0 48.2581 -351550.9375 366859.3438)" gradientUnits="userSpaceOnUse">
			<stop  offset="9.330000e-02" style="stop-color:#E1DFDD"/>
			<stop  offset="0.8998" style="stop-color:#FFFFFF"/>
		</radialGradient>
		<path fill="url(#SVGID_14_)" d="M1300.2,939.7c24.6-94.3,9.2-169.7,8.9-171.6H918.6c0,0-24.6-2.5-24.6,20s0.9,85.9,0.9,156.2
			c0,14.4,11.8,21.4,21.1,21.4C916.1,965.6,1256.6,965.6,1300.2,939.7z"/>
		<path fill="#A08BE8" d="M1065,939.9c0,0,60.1-47.5,71.8-56.3c11.7-8.8,22-9.3,32.7,0s70.8,56.3,70.8,56.3H1065z"/>
		<path fill="#512BD4" d="M1315.4,965.3c0,0,10.4-20.1-15.2-25.7c0-0.1-383.8-0.3-383.8-0.3c-8.9,0-20.4-5.3-21.4-14
			c0,6.2,0,12.5,0,18.8c0,13.1,9.8,20,18.5,21.2c0.9,0.1,1.8,0.2,2.7,0.2h26.2L1315.4,965.3z"/>
		<path fill="#512BD4" d="M1286.5,851.6c0.4-27.3-12.4-49.7-28.7-49.9s-29.8,21.7-30.2,49c-0.4,27.3,12.4,49.7,28.7,49.9
			C1272.6,900.9,1286.1,879,1286.5,851.6z"/>
		<path fill="#8065E0" d="M1256.7,825c-10.8,10.8-10.8,28.2,0,38.9c7.4,7.4,17.8,9.7,27.2,7c1.6-5.9,2.5-12.4,2.6-19.3
			c0.2-13.4-2.8-25.6-7.8-34.6C1270.9,816.4,1262.8,819,1256.7,825z"/>
		<path fill="#512BD4" d="M1020.8,900.9c16.3-0.2,29.1-22.6,28.7-49.9s-13.9-49.3-30.2-49c-16.2,0.2-29.1,22.6-28.7,49.9
			C991,879.2,1004.5,901.2,1020.8,900.9z"/>
		<path fill="#8065E0" d="M1019.8,826.6c-10.8,10.8-10.8,28.2,0,38.9c7.3,7.3,17.7,9.6,27,7c1.8-6.5,2.8-13.8,2.6-21.6
			c-0.2-12.4-3.1-23.7-7.7-32.3C1033.9,818,1025.8,820.6,1019.8,826.6z"/>
		<path fill="#512BD4" d="M1084.8,1115.2l123.2-0.6l-0.5-108.9l-123.2,0.6L1084.8,1115.2z"/>
		<path fill="#FFFFFF" d="M1106.1,1074.5c-0.8,0-1.5-0.3-2.1-0.8c-0.6-0.6-0.9-1.2-0.9-2c0-0.8,0.3-1.5,0.9-2
			c0.6-0.6,1.3-0.8,2.1-0.8c0.8,0,1.5,0.3,2.1,0.8c0.6,0.5,0.9,1.2,0.9,2s-0.3,1.4-0.9,2C1107.7,1074.2,1107,1074.5,1106.1,1074.5z"
			/>
		<path fill="#FFFFFF" d="M1138.9,1074h-5.3l-14.1-22.1c-0.3-0.5-0.7-1.2-0.9-1.8h-0.1c0.1,0.6,0.2,2,0.2,4.1l0,19.7h-4.7l-0.1-30.1
			h5.7l13.6,21.6c0.6,0.9,0.9,1.5,1.1,1.8h0.1c-0.2-0.8-0.2-2.2-0.2-4.1l0-19.4h4.7L1138.9,1074z"/>
		<path fill="#FFFFFF" d="M1161.8,1073.9l-16.5,0l-0.1-30.1l15.8,0v4.2l-10.9,0l0,8.5l10.1,0v4.2l-10.1,0l0,8.9l11.6,0
			L1161.8,1073.9L1161.8,1073.9z"/>
		<path fill="#FFFFFF" d="M1185.2,1048l-8.4,0l0.1,25.9h-4.9l-0.1-25.9l-8.4,0v-4.2l21.7-0.1L1185.2,1048z"/>
		<path fill="#8A6FE8" d="M529.4,1254.2l40.2,57.3c10.8,15.2,31.9,18.7,47.2,7.9c15.2-10.8,18.7-31.9,7.9-47.1L575,1203
			L529.4,1254.2z"/>
		<path fill="#8A6FE8" d="M460.1,1232.5l-11.1,69.2c-2.8,18.4,9.8,35.7,28.3,38.5c18.4,2.8,35.7-9.8,38.5-28.3l11.4-70.9
			L460.1,1232.5z"/>
		<path fill="#8A6FE8" d="M505,1240.3l-9.3,69.4c-2.4,18.5,10.8,35.4,29.2,37.8c18.5,2.4,35.4-10.8,37.8-29.2l9.6-71.2L505,1240.3z"
			/>
		<path fill="#8A6FE8" d="M442.7,1211.8l-25.1,65.4c-6.6,17.5,2.3,37,19.8,43.5c17.5,6.6,37-2.3,43.5-19.8l25.7-67.1L442.7,1211.8z"
			/>
		
			<linearGradient id="SVGID_15_" gradientUnits="userSpaceOnUse" x1="-100.8671" y1="-14612.4697" x2="-100.8671" y2="-14231.5801" gradientTransform="matrix(1 0 0 1 694 15472)">
			<stop  offset="0.2495" style="stop-color:#967FE6"/>
			<stop  offset="1" style="stop-color:#8A6FE8"/>
		</linearGradient>
		<path fill="url(#SVGID_15_)" d="M489.3,1240.4c-27.9-57-44.2-154.4,1.8-241.6c28-52.9,89.2-120,222.3-139.3l10.7,73.8
			c-80.8,11.7-138.5,46.4-167,100.3c-30.8,58.4-22.6,129.4-0.8,174L489.3,1240.4z"/>
		
			<radialGradient id="SVGID_16_" cx="6799.8247" cy="-8072.1406" r="6.0492" gradientTransform="matrix(11.3989 0 0 11.3989 -76773.7812 92874.9219)" gradientUnits="userSpaceOnUse">
			<stop  offset="0" style="stop-color:#8065E0"/>
			<stop  offset="1" style="stop-color:#512BD4"/>
		</radialGradient>
		<path fill="url(#SVGID_16_)" d="M739,954.1c38.1,0,68.9-30.8,68.9-68.9S777,816.3,739,816.3s-68.9,30.8-68.9,68.9
			C670.1,923.2,700.9,954.1,739,954.1z"/>
		
			<radialGradient id="SVGID_17_" cx="7118.9058" cy="-7743.2979" r="6.0492" gradientTransform="matrix(22.7292 0 0 22.7292 -161302.1719 177152.7031)" gradientUnits="userSpaceOnUse">
			<stop  offset="0" style="stop-color:#8065E0"/>
			<stop  offset="1" style="stop-color:#512BD4"/>
		</radialGradient>
		<path fill="url(#SVGID_17_)" d="M508.6,1277.3c39.1,0,70.8-31.7,70.8-70.8s-31.7-70.8-70.8-70.8s-70.8,31.7-70.8,70.8
			C437.9,1245.7,469.5,1277.3,508.6,1277.3z"/>
		<path fill="#D8CFF7" d="M739.7,415.8c-26.2,7-53.3-8.4-60.5-34.4c-7.2-26,8.2-52.7,34.5-59.7c26.2-7,53.3,8.4,60.5,34.4
			C781.4,382.1,766,408.8,739.7,415.8z"/>
	</g>
</g>
<g id="bot-base" display="none">
	<g display="inline">
		
			<radialGradient id="SVGID_18_" cx="7339.8369" cy="-7552.6758" r="6.0492" gradientTransform="matrix(61.9498 0 0 61.9498 -453685.7188 468654.875)" gradientUnits="userSpaceOnUse">
			<stop  offset="0.4744" style="stop-color:#A08BE8"/>
			<stop  offset="0.8618" style="stop-color:#8065E0"/>
		</radialGradient>
		<path fill="url(#SVGID_18_)" d="M1300.2,939.7C1325,844.2,1309,768,1309,768h22.4l0.5-0.4c-32.2-175.2-185.6-307.9-370-307.9
			c-207.8,0-376.3,168.5-376.3,376.3s168.4,376.3,376.3,376.3c164,0,303.5-104.9,355-251.2C1318.4,954.8,1318.3,943.6,1300.2,939.7z
			"/>
		<path fill="#D8CFF7" d="M1286.4,1026.5H637.5c14.6,24.8,31.9,47.7,51.5,68.4h545.8C1254.5,1074.2,1271.8,1051.3,1286.4,1026.5z"/>
		
			<radialGradient id="SVGID_19_" cx="7310.3384" cy="-7587.5444" r="6.0492" gradientTransform="matrix(48.2581 0 0 48.2581 -351550.9375 366859.3438)" gradientUnits="userSpaceOnUse">
			<stop  offset="9.330000e-02" style="stop-color:#E1DFDD"/>
			<stop  offset="0.8998" style="stop-color:#FFFFFF"/>
		</radialGradient>
		<path fill="url(#SVGID_19_)" d="M1300.2,939.7c24.6-94.3,9.2-169.7,8.9-171.6H918.6c0,0-24.6-2.5-24.6,20s0.9,85.9,0.9,156.2
			c0,14.4,11.8,21.4,21.1,21.4C916.1,965.6,1256.6,965.6,1300.2,939.7z"/>
		<path fill="#A08BE8" d="M1065,939.9c0,0,60.1-47.5,71.8-56.3c11.7-8.8,22-9.3,32.7,0s70.8,56.3,70.8,56.3H1065z"/>
		<path fill="#512BD4" d="M1315.4,965.3c0,0,10.4-20.1-15.2-25.7c0-0.1-383.8-0.3-383.8-0.3c-8.9,0-20.4-5.3-21.4-14
			c0,6.2,0,12.5,0,18.8c0,13.1,9.8,20,18.5,21.2c0.9,0.1,1.8,0.2,2.7,0.2h26.2L1315.4,965.3z"/>
		<path fill="#512BD4" d="M1084.8,1115.2l123.2-0.6l-0.5-108.9l-123.2,0.6L1084.8,1115.2z"/>
		<path fill="#FFFFFF" d="M1106.1,1074.5c-0.8,0-1.5-0.3-2.1-0.8c-0.6-0.6-0.9-1.2-0.9-2c0-0.8,0.3-1.5,0.9-2
			c0.6-0.6,1.3-0.8,2.1-0.8c0.8,0,1.5,0.3,2.1,0.8c0.6,0.5,0.9,1.2,0.9,2s-0.3,1.4-0.9,2C1107.7,1074.2,1107,1074.5,1106.1,1074.5z"
			/>
		<path fill="#FFFFFF" d="M1138.9,1074h-5.3l-14.1-22.1c-0.3-0.5-0.7-1.2-0.9-1.8h-0.1c0.1,0.6,0.2,2,0.2,4.1l0,19.7h-4.7l-0.1-30.1
			h5.7l13.6,21.6c0.6,0.9,0.9,1.5,1.1,1.8h0.1c-0.2-0.8-0.2-2.2-0.2-4.1l0-19.4h4.7L1138.9,1074z"/>
		<path fill="#FFFFFF" d="M1161.8,1073.9l-16.5,0l-0.1-30.1l15.8,0v4.2l-10.9,0l0,8.5l10.1,0v4.2l-10.1,0l0,8.9l11.6,0
			L1161.8,1073.9L1161.8,1073.9z"/>
		<path fill="#FFFFFF" d="M1185.2,1048l-8.4,0l0.1,25.9h-4.9l-0.1-25.9l-8.4,0v-4.2l21.7-0.1L1185.2,1048z"/>
	</g>
	<g display="inline">
		<path fill="#8A6FE8" d="M1525.2,1005.3l-88.7,33.7c-15.8,6-23.7,23.7-17.8,39.5c6,15.8,23.7,23.7,39.5,17.8l88.7-33.7
			c15.8-6,23.7-23.7,17.8-39.5C1558.8,1007.2,1541.1,999.3,1525.2,1005.3z"/>
		<path fill="#8A6FE8" d="M1313.3,971.2c-6.8,17.3-19.6,44.2-31,62.1c57.5,54.7,142.1,97.3,186.9,100.9l5.6-67.6
			C1436.5,1063.5,1355.8,1016.7,1313.3,971.2z"/>
		<g>
			
				<rect x="1552.6" y="1007" transform="matrix(0.7144 -0.6997 0.6997 0.7144 -258.8581 1406.5145)" fill="#625F5B" width="82" height="26.8"/>
			<path fill="#C4C1BE" d="M1764.9,984.8l-76.4,74.8c-4.3,4.2-11.3,4.2-15.6-0.2l-111.1-113.5c-4.2-4.3-4.2-11.3,0.2-15.6l76.4-74.8
				c4.3-4.2,11.3-4.2,15.6,0.2l111.1,113.5C1769.3,973.6,1769.2,980.5,1764.9,984.8z"/>
			<path fill="#FFFFFF" d="M1754.6,984.7l-36.9,36.1c-4.6,4.5-11.9,4.4-16.4-0.2l-42.8-43.7c-4.5-4.6-4.4-11.9,0.2-16.4l36.9-36.1
				c4.6-4.5,11.9-4.4,16.4,0.2l42.8,43.7C1759.3,972.9,1759.2,980.2,1754.6,984.7z"/>
			<circle fill="#625F5B" cx="1706.9" cy="972.8" r="27.3"/>
			<circle fill="#0BBACF" cx="1706.9" cy="972.8" r="19.8"/>
			<circle fill="#FFFFFF" cx="1599.1" cy="940.1" r="17.3"/>
			<path fill="#C5D43B" d="M1590.2,1064.5l-160.5,157.2c-3.6,3.5-9.3,3.4-12.8-0.1l-29.5-30.1c-3.5-3.6-3.4-9.3,0.1-12.8
				l160.5-157.2c3.6-3.5,9.3-3.5,12.8,0.1l29.5,30.1C1593.8,1055.2,1593.8,1061,1590.2,1064.5z"/>
		</g>
		
			<radialGradient id="SVGID_20_" cx="6809.751" cy="-8097.9624" r="6.0501" gradientTransform="matrix(10.6515 0 0 10.6515 -71082.25 87358.8125)" gradientUnits="userSpaceOnUse">
			<stop  offset="0" style="stop-color:#8065E0"/>
			<stop  offset="1" style="stop-color:#512BD4"/>
		</radialGradient>
		<path fill="url(#SVGID_20_)" d="M1451.8,1167.8c35.6,0,64.4-28.8,64.4-64.4s-28.9-64.4-64.4-64.4c-35.6,0-64.4,28.8-64.4,64.4
			C1387.3,1139,1416.2,1167.8,1451.8,1167.8z"/>
		<path fill="#8A6FE8" d="M1560.5,1086.6l-56.4-11.8c-16.5-3.6-32.8,7-36.4,23.4c-3.6,16.5,7,32.8,23.4,36.4l56.4,11.8
			c16.5,3.6,32.8-7,36.4-23.4C1587.6,1106.5,1577.1,1090.1,1560.5,1086.6z"/>
		<path fill="#8A6FE8" d="M1539.1,1121.4l-56.4-11.8c-16.5-3.6-32.8,7-36.4,23.4c-3.6,16.5,7,32.8,23.4,36.4l56.4,11.8
			c16.5,3.6,32.8-7,36.4-23.4C1566.2,1141.3,1555.7,1125,1539.1,1121.4z"/>
		<path fill="#8A6FE8" d="M1502.8,1147.7l-56.4-11.8c-16.5-3.6-32.8,7-36.4,23.4c-3.6,16.5,7,32.8,23.4,36.4l56.4,11.8
			c16.5,3.6,32.8-7,36.4-23.4C1529.9,1167.5,1519.4,1151.2,1502.8,1147.7z"/>
	</g>
	<g display="inline">
		<path fill="#D1DE63" d="M1245.3,1011.6c46.2-6.5,61.4-64.3,61.4-64.3l45.6,16.3c0,0-5,17-19.2,42.4c-24.7,44-33.3,70.5-75,68.3
			c-37.4-1.9-58-74.8-41-69.5C1224.2,1007.1,1235.9,1012.9,1245.3,1011.6z"/>
		<path fill="#625F5B" d="M1364.2,404.3l-49,3.5c3.1,15.8,6,32.2,8.8,49.3c13.2,82,19.4,161.5,18.4,236.6
			c-1.2,93.1-13.6,179.4-36.8,256.4c0,0,16.1,14.6,46.1,16c23.5-51,38-173.8,39.2-272.4c1-78.4-5.5-161.4-19.3-246.7
			C1369.1,431.9,1366.6,417.7,1364.2,404.3z"/>
		<path fill="#D1DE63" d="M1303.1,281.9l17.4-4.2c10.3-2.5,20.4,4.5,22.7,15.5l24.4,117.2c2.3,11-4.2,22-14.4,24.4l-17.4,4.2
			c-10.3,2.5-20.4-4.5-22.7-15.5l-24.4-117.2C1286.4,295.3,1292.8,284.4,1303.1,281.9z"/>
		<path fill="#D1DE63" d="M1005.9,690c-126.8,21.2-204,76.8-202.7,141.5c2.1,103.8,41.6,165.2,160.1,169.7
			c48,1.8-10.4-8.9-30.1-27.9s-85.2-107.2-69.6-158.5C879.1,763.4,1005.9,690,1005.9,690z"/>
		
			<linearGradient id="SVGID_21_" gradientUnits="userSpaceOnUse" x1="1132.4584" y1="1002.4908" x2="1132.4584" y2="1303.0255" gradientTransform="matrix(1 0 0 -1 0 2000)">
			<stop  offset="0.4157" style="stop-color:#70D6E0"/>
			<stop  offset="0.65" style="stop-color:#0BBACF"/>
		</linearGradient>
		<path fill="url(#SVGID_21_)" d="M1119.7,697.6c-177.6,6.8-274.4,75.3-244.8,175.8s93.5,164.1,157.5,95.4s88.9-115.5,168.4-26.8
			c79.5,88.7,166.8,30.1,188.6-53.6C1411.2,804.7,1383.2,687.5,1119.7,697.6z"/>
		<path fill="#625F5B" d="M974.7,997.3c23.4,36.8,55.3,48.6,104.2,10c32.9-26,98.3-40.3,130.6,0c20.1,25.1,56.7,26.8,70-5
			c13.2-31.8-27.3-6.7-85-80.4c-57.7-73.7-76.4-53.6-120.1,1.7"/>
		<path fill="#70D6E0" d="M1168,697.2c-15.2-0.4-31.3-0.3-48.4,0.4c-37.6,1.4-71.5,5.6-101.4,12.3c27.1,36.9,66.1,91.7,105.1,172.6
			c19.5,1,47.3,26.1,77.3,59.6c26.2,29.2,53.3,42.5,78.5,44.1C1259.1,911.3,1224.7,808.2,1168,697.2z"/>
		<path fill="#1189A5" d="M1363.7,761.2c-42-46.4-158.3-67.7-271-68.6c-5-0.2-11.1,0-13,0c-38.5,0-73.8,2.9-105.5,8.5l-37.8,34.1
			c0,0-30.6,28.3-30.8,31.9c45.4-24.2,140.3-44.5,189.3-44.5c77.8,0,181.4,24.3,217.4,64c14.8,16.3,22,35.3,21.5,56.5
			c-1.2,48.1-16.6,89.3-43.3,116.1c-10.9,11-23.4,19-35.7,23.5c8.6,6.7,18.2,11.3,27.8,14.4c8.6-5.4,17.5-11.1,27-15.9
			c30.7-15.8,86.9-79.3,88.4-135.5C1398.7,816.2,1383.9,783.5,1363.7,761.2z"/>
		<path fill="#1189A5" d="M1061.3,883.4c-1.2,0.7-2.3,1.6-3.4,2.5c-8.7,6.6-18.4,16.5-30,30.4c-3.4,4-6.7,8.2-10.3,12.6
			c-16.3,20.3-33,41-54.1,51.2c12.6,3.7,28.3,5.3,44.4,3.5c22.9-6.1,130.4-123,122-122.6C1090.1,862.8,1074.3,875.2,1061.3,883.4z"
			/>
		<path fill="#FFFFFF" d="M1381,751.5c-42-46.4-127-72.3-239.8-73.1c-5-0.2-11.1,0-13,0c-115.5,0-202.6,26-245.3,73.1
			c-20.2,22.3-30.1,48.7-29.4,78.3c1.4,56.2,20,104.9,52.2,137.2c22.3,22.4,50.3,35.5,75.6,35.5c1,0,2.1,0,3.1-0.1
			c45.7-2,75-38.5,98.6-67.8c3.4-4.3,6.7-8.3,9.9-12.2c18.3-21.8,27.8-28.5,32.4-30.3c4.6-1.6,9-1.1,10.8-0.6
			c2.7,0.7,11.2,3,34.7,31c3.2,3.8,6.5,7.9,9.9,12.2c23.6,29.3,52.9,65.8,98.6,67.8c1,0,2.1,0.1,3.1,0.1c25.3,0,53.3-13.1,75.6-35.5
			c32.2-32.3,50.8-81,52.2-137.2C1411.2,800.1,1401.3,773.8,1381,751.5z M1382.5,828.9c-1.2,48.1-16.6,89.3-43.3,116.1
			c-17.9,17.9-39.8,28.2-58.5,27.3c-33.6-1.5-56.5-29.9-78.6-57.4c-3.5-4.4-6.9-8.5-10.3-12.6c-24.4-29.1-40.4-40.4-55.8-41.1
			c-7.7-0.4-17.2,0.1-30.2,8.3c-1.2,0.7-2.3,1.6-3.4,2.5c-8.7,6.6-18.4,16.5-30,30.4c-3.4,4-6.7,8.2-10.3,12.6
			c-22.1,27.5-45,56-78.6,57.4c-18.8,0.8-40.6-9.4-58.5-27.3c-26.7-26.8-42.1-68-43.3-116.1c-0.5-21.2,6.7-40.2,21.5-56.5
			c36.9-40.7,119-64,225.3-64c2.6,0,9.4,0.1,15.3,0.1c0.1,0,0.1,0,0.2,0c102.4,1.2,181.3,24.3,217.2,64
			C1375.8,788.7,1383,807.7,1382.5,828.9z"/>
	</g>
	<g display="inline">
		<path fill="#8A6FE8" d="M529.4,1253.5l40.2,57.3c10.8,15.2,31.9,18.7,47.2,7.9c15.2-10.8,18.7-31.9,7.9-47.1l-49.7-69.3
			L529.4,1253.5z"/>
		<path fill="#8A6FE8" d="M460,1231.8l-11.1,69.2c-2.8,18.4,9.8,35.7,28.3,38.5c18.4,2.8,35.7-9.8,38.5-28.3l11.4-70.9L460,1231.8z"
			/>
		<path fill="#8A6FE8" d="M504.9,1239.6l-9.3,69.4c-2.4,18.5,10.8,35.4,29.2,37.8c18.5,2.4,35.4-10.8,37.8-29.2l9.6-71.2
			L504.9,1239.6z"/>
		<path fill="#8A6FE8" d="M442.7,1211.1l-25.1,65.4c-6.6,17.5,2.3,37,19.8,43.5c17.5,6.6,37-2.3,43.5-19.8l25.7-67.1L442.7,1211.1z"
			/>
		
			<linearGradient id="SVGID_22_" gradientUnits="userSpaceOnUse" x1="-100.9371" y1="-14613.1602" x2="-100.9371" y2="-14232.2695" gradientTransform="matrix(1 0 0 1 694 15472)">
			<stop  offset="0.2495" style="stop-color:#967FE6"/>
			<stop  offset="1" style="stop-color:#8A6FE8"/>
		</linearGradient>
		<path fill="url(#SVGID_22_)" d="M489.2,1239.7c-27.9-57-44.2-154.4,1.8-241.6c28-52.9,89.2-120,222.3-139.3l10.7,73.8
			c-80.8,11.7-138.5,46.4-167,100.3c-30.8,58.4-22.6,129.4-0.8,174L489.2,1239.7z"/>
		
			<radialGradient id="SVGID_23_" cx="6799.8184" cy="-8072.2012" r="6.0492" gradientTransform="matrix(11.3989 0 0 11.3989 -76773.7812 92874.9219)" gradientUnits="userSpaceOnUse">
			<stop  offset="0" style="stop-color:#8065E0"/>
			<stop  offset="1" style="stop-color:#512BD4"/>
		</radialGradient>
		<path fill="url(#SVGID_23_)" d="M738.9,953.4c38.1,0,68.9-30.8,68.9-68.9s-30.8-68.9-68.9-68.9S670,846.4,670,884.5
			C670,922.5,700.8,953.4,738.9,953.4z"/>
		
			<radialGradient id="SVGID_24_" cx="7118.9028" cy="-7743.3281" r="6.0492" gradientTransform="matrix(22.7292 0 0 22.7292 -161302.1719 177152.7031)" gradientUnits="userSpaceOnUse">
			<stop  offset="0" style="stop-color:#8065E0"/>
			<stop  offset="1" style="stop-color:#512BD4"/>
		</radialGradient>
		<path fill="url(#SVGID_24_)" d="M508.5,1276.6c39.1,0,70.8-31.7,70.8-70.8s-31.7-70.8-70.8-70.8s-70.8,31.7-70.8,70.8
			S469.5,1276.6,508.5,1276.6z"/>
	</g>
</g>
<g id="asset">
	<g>
		<g>
			
				<linearGradient id="SVGID_25_" gradientUnits="userSpaceOnUse" x1="1247.6283" y1="853.67" x2="1247.6283" y2="326.9799" gradientTransform="matrix(1 0 0 -1 0 2000)">
				<stop  offset="0" style="stop-color:#522CD5"/>
				<stop  offset="0.4397" style="stop-color:#8A6FE8"/>
			</linearGradient>
			<path fill="url(#SVGID_25_)" d="M1373,1593.9c-121.1-51.3-138.4-116.1-151.8-219.9c-5.3-75.3-9.9-140.4-46.5-227.7
				c-19.4,13.3-40.1,24.9-61.9,34.4c31,77,33.7,154.9,32.7,193.3h0l-18.5,283.6c-0.6,8.5,5.9,15.4,14.4,15.4l112.1-0.5l0-0.2
				l113.6-0.5c6.4,0,12-5.3,12.4-11.7l2.3-35.8C1382.6,1612.7,1384.4,1598.8,1373,1593.9z"/>
			
				<radialGradient id="SVGID_26_" cx="7113.6348" cy="-7765.125" r="6.0492" gradientTransform="matrix(20.3477 -9.260000e-02 9.260000e-02 20.3477 -142722.7188 160203.2656)" gradientUnits="userSpaceOnUse">
				<stop  offset="3.400000e-02" style="stop-color:#522CD5"/>
				<stop  offset="0.9955" style="stop-color:#8A6FE8"/>
			</radialGradient>
			<path fill="url(#SVGID_26_)" d="M1381.8,1624.3c0.6-8.2,0.7-16-2.5-22.6l-145.7,0.7c4,5.9,5.7,11.1,5.2,19.7l-0.8,37.1
				c-0.5,7.3,5,13.1,12.3,13.1l116.8-0.5c6.4,0,12-5.3,12.4-11.7L1381.8,1624.3z"/>
			
				<linearGradient id="SVGID_27_" gradientUnits="userSpaceOnUse" x1="841.4722" y1="821.8899" x2="841.4722" y2="324.5601" gradientTransform="matrix(1 0 0 -1 0 2000)">
				<stop  offset="0" style="stop-color:#522CD5"/>
				<stop  offset="0.4397" style="stop-color:#8A6FE8"/>
			</linearGradient>
			<path fill="url(#SVGID_27_)" d="M914.8,1584.1c-71.4-35.9-61.9-183.2-56.9-236.8l16.7-145.2c-24.1-5.7-47.4-13.8-69.4-23.9
				l-24.9,200.2l-47.9,260.3c-1.6,8.6-5.9,23.4,16.7,36.8l104.6-2l0-0.2l77.5-0.4c6.5,0,12.8-5.3,14-11.8l6.8-36.2
				C954.2,1613.1,923.5,1591.9,914.8,1584.1z"/>
		</g>
		<path fill="#9EAE2B" d="M1141.4,1673c0,0,58.4-110.6,106-130.4c41.6-17.3,76.7-2.5,76.7-2.5s184.5,89.6,519.3,155.4
			c-33.5,8.9-107.2,25.1-105.5,58.6c-63.1-15.1-106.1,40.5-113.6,39.7C1562.3,1787.6,1307.8,1675.1,1141.4,1673z"/>
		<path fill="#81921F" d="M1210.6,1570.5c0,0,82.5,31.8,125,41.3c71.8,16,68.1-11.5,68.1-11.5s32.7,42.4-82.6,26.1
			c-94.6-13.4-127.3-33.5-127.3-33.5L1210.6,1570.5z"/>
		<path fill="#C5D43B" d="M1394.5,1585.9c31,42.7-5.9,46.9-54.4,41s-101.3-6.7-16.7,38.5c124.2,66.4,279.4,110.4,297.8,111.3
			c23.4-22.3,72.8-49.4,100.7-37.7c22.1-40.5,63.6-43.5,63.6-43.5S1580.1,1662,1394.5,1585.9z"/>
		<path fill="#9EAE2B" d="M1411.6,1631.3c75.1,48.7,309.5,114.4,309.5,114.4l11.2-13.4C1732.2,1732.4,1522.9,1679.9,1411.6,1631.3z"
			/>
		<path fill="#625F5B" d="M1220.9,1599.7c0-0.4-62.1-16.6-77.6-21.1c-7.3-2.1-6.7-62.1-6.7-62.1s-11.3-9.8-13.9,5.8
			c-6.7,39.5-7.3,89.7-7.3,98.6c0,5,2.2,13.6,9.5,16.6c3.8,1.6,82.1,15.3,130.6,17.1C1301.1,1656.2,1311.7,1630.1,1220.9,1599.7z"/>
		<path fill="#9EAE2B" d="M747.9,1673.8c0,0,45.9,10.8,61.5,56.4c30.9,89.9,159.5,198.6,159.5,198.6s53.6-28.5,120.6-8.4
			c26.8-40.2,161.3-34.1,161.3-34.1s-249.5-195.3-323.7-305.9c-43-63.9-114.8-31-139.5,8.4C762.8,1628.3,747.9,1673.8,747.9,1673.8"
			/>
		<path fill="#C5D43B" d="M975.9,1908.7c0,0-133.8-145.8-145.6-216.6c-7.3-44.1,2.4-40.1,53.8-40.1c33.6,0,41.5-34.3,41.5-34.3
			s247,227.8,289.7,250.5c-59-5.4-109.6,10.5-132.3,31.4C1024,1882.3,975.9,1908.7,975.9,1908.7z"/>
		<path fill="#81921F" d="M787.2,1589.7c96.9,87.4,124.8,58.8,139.4,15.2c7.2,27.5-11.2,60.4-58.1,53.7c-53-7.6-97.1-43-97.1-43
			L787.2,1589.7z"/>
		<path fill="#9EAE2B" d="M909.1,1674.8c26.9,87.6,172.1,226.9,172.1,226.9l25.1-6.4C1106.4,1895.4,966.5,1770.8,909.1,1674.8z"/>
		<path fill="#625F5B" d="M794.9,1687.6c-59.9-48.1-75.5-63.5-74.4-70.2c1.1-6.7,11.2-78.1,17.9-94.9s17.9-12.3,17.9-12.3l-7.7,66.6
			c0,0,10.9,29.9,48.1,59C831.6,1663,823.2,1710.3,794.9,1687.6z"/>
	</g>
</g>
</svg>
