<?xml version="1.0" encoding="utf-8"?>
<!-- Generator: Adobe Illustrator 24.2.0, SVG Export Plug-In . SVG Version: 6.00 Build 0)  -->
<svg version="1.1" id="Layer_1" xmlns="http://www.w3.org/2000/svg" xmlns:xlink="http://www.w3.org/1999/xlink" x="0px" y="0px"
	 viewBox="0 0 2000 2000" enable-background="new 0 0 2000 2000" xml:space="preserve">
<g id="ghost-image" display="none">
	<g display="inline" opacity="0.5">
		<path fill="#8A6FE8" d="M1469,1134.6c-57.7-4.7-181.3-73.8-228.1-150.4c-28.4-46.5,24.8-83.6,53.8-36.2
			c31.4,51.3,134.8,115.2,179.9,118.9L1469,1134.6z"/>
		<path fill="#8A6FE8" d="M1525,1005.7l-88.7,33.7c-15.8,6-23.7,23.7-17.8,39.5c6,15.8,23.7,23.7,39.5,17.8l88.7-33.7
			c15.8-6,23.7-23.7,17.8-39.5C1558.6,1007.6,1540.8,999.6,1525,1005.7z"/>
		<path fill="#8A6FE8" d="M1416.4,1155.1l37.8,51.4c10.2,13.6,29.4,16.4,43.1,6.3c13.6-10.2,16.4-29.4,6.3-43.1l-38.8-52.7
			L1416.4,1155.1z"/>
		<path fill="#8A6FE8" d="M1450.7,1158.2l76.8,42.9c14.9,8.2,33.6,2.9,41.8-12c8.2-14.8,2.9-33.6-12-41.8l-57-32.1L1450.7,1158.2z"
			/>
		<path fill="#8A6FE8" d="M1460.3,1121.8l84.6,24.4c16.3,4.7,33.4-4.7,38.2-21c4.7-16.3-4.7-33.4-21-38.2l-86.2-24.9L1460.3,1121.8z
			"/>
		
			<radialGradient id="SVGID_1_" cx="-1769.3921" cy="-8097.9277" r="6.0501" gradientTransform="matrix(10.6515 0 0 10.6515 20298.2539 87358.8125)" gradientUnits="userSpaceOnUse">
			<stop  offset="0" style="stop-color:#8065E0"/>
			<stop  offset="1" style="stop-color:#512BD4"/>
		</radialGradient>
		<path fill="url(#SVGID_1_)" d="M1451.6,1168.2c35.6,0,64.4-28.8,64.4-64.4c0-35.6-28.9-64.4-64.4-64.4
			c-35.6,0-64.4,28.8-64.4,64.4C1387.1,1139.3,1416,1168.2,1451.6,1168.2z"/>
		
			<linearGradient id="SVGID_2_" gradientUnits="userSpaceOnUse" x1="432.5013" y1="-14376.1826" x2="492.2793" y2="-14091.4707" gradientTransform="matrix(1 0 0 1 694 15472)">
			<stop  offset="0" style="stop-color:#522CD5"/>
			<stop  offset="0.4397" style="stop-color:#8A6FE8"/>
		</linearGradient>
		<path fill="url(#SVGID_2_)" d="M1216.5,1374.2c0.7-59.8-7.8-181.1-69.5-282.6l-60.3,36.6c56,92.1,60.2,199.7,58.9,246.6
			C1145.4,1378.6,1181.6,1382.1,1216.5,1374.2z"/>
		<path fill="#522CD5" d="M1145.5,1374.1l55.8-0.3l52.1,298.7l-112.1,0.5c-8.5,0-15-6.8-14.4-15.4L1145.5,1374.1z"/>
		
			<linearGradient id="SVGID_3_" gradientUnits="userSpaceOnUse" x1="468.5236" y1="-14100.0088" x2="646.134" y2="-13783.3525" gradientTransform="matrix(1 0 0 1 694 15472)">
			<stop  offset="0" style="stop-color:#522CD5"/>
			<stop  offset="0.4397" style="stop-color:#8A6FE8"/>
		</linearGradient>
		<path fill="url(#SVGID_3_)" d="M1373,1593.9c9.7,7.7,9.5,18.7,8.8,30.4l-2.3,35.8c-0.4,6.4-6,11.7-12.4,11.7l-116.8,0.5
			c-7.3,0-12.8-5.8-12.3-13.1l0.8-37.1c0.9-13.5-3.7-18.4-14.1-31.1c-17.9-21.7-70.7-140-65.7-217.1l57.5-0.3
			C1220.3,1419.5,1280.7,1521.1,1373,1593.9z"/>
		
			<radialGradient id="SVGID_4_" cx="-1889.0745" cy="-7763.0078" r="6.0492" gradientTransform="matrix(20.3477 -9.260000e-02 9.260000e-02 20.3477 40461.4219 159326.5312)" gradientUnits="userSpaceOnUse">
			<stop  offset="3.400000e-02" style="stop-color:#522CD5"/>
			<stop  offset="0.9955" style="stop-color:#8A6FE8"/>
		</radialGradient>
		<path fill="url(#SVGID_4_)" d="M1381.8,1624.3c0.6-8.2,0.7-16-2.5-22.6l-145.7,0.7c4,5.9,5.7,11.1,5.2,19.7l-0.8,37.1
			c-0.5,7.3,5,13.1,12.3,13.1l116.8-0.5c6.4,0,12-5.3,12.4-11.7L1381.8,1624.3z"/>
		
			<linearGradient id="SVGID_5_" gradientUnits="userSpaceOnUse" x1="103.6376" y1="-14380.5342" x2="172.368" y2="-14057.1787" gradientTransform="matrix(1 0 0 1 694 15472)">
			<stop  offset="0" style="stop-color:#522CD5"/>
			<stop  offset="0.4397" style="stop-color:#8A6FE8"/>
		</linearGradient>
		<path fill="url(#SVGID_5_)" d="M847.6,1418.8l-71.3-8.9l40.1-322.5l71.3,8.8L847.6,1418.8z"/>
		<path fill="#522CD5" d="M781.5,1371.7l56.5-0.3l15.6,302l-113.4,0.5c-8.6,0-14.3-6.9-12.7-15.6L781.5,1371.7z"/>
		
			<linearGradient id="SVGID_6_" gradientUnits="userSpaceOnUse" x1="48.7987" y1="-14073.0107" x2="202.8451" y2="-13779.4717" gradientTransform="matrix(1 0 0 1 694 15472)">
			<stop  offset="0" style="stop-color:#522CD5"/>
			<stop  offset="0.4397" style="stop-color:#8A6FE8"/>
		</linearGradient>
		<path fill="url(#SVGID_6_)" d="M945.7,1595.1c8.7,7.9,8.5,18,6.3,29.8l-6.8,36.2c-1.2,6.5-7.5,11.8-14,11.8l-162.2,0.8
			c-7.4,0-12.2-5.9-10.8-13.2l5.8-37.5c2.6-13.6,0.6-17.7,0.8-35.1c0.5-32.8,15.6-138.2,30.3-216.2l58.2-0.2
			C851.4,1417.6,871.5,1527.9,945.7,1595.1z"/>
		
			<radialGradient id="SVGID_7_" cx="-1915.6095" cy="-7736.7095" r="6.0492" gradientTransform="matrix(22.145 -0.1007 0.1006 22.1216 44062.4609 172497.1406)" gradientUnits="userSpaceOnUse">
			<stop  offset="3.400000e-02" style="stop-color:#522CD5"/>
			<stop  offset="0.9955" style="stop-color:#8A6FE8"/>
		</radialGradient>
		<path fill="url(#SVGID_7_)" d="M763.9,1622.9l-5.8,37.5c-1.4,7.3,3.5,13.3,10.8,13.2l162.2-0.7c6.5,0,12.8-5.3,14-11.8l6.8-36.2
			c1.6-8.6,2.1-16.2-1-22.8l-185.9,0.8C765.4,1609.6,765.5,1614.4,763.9,1622.9z"/>
		<path fill="#8A6FE8" d="M804,455.8L736.5,483l-18.4-73.1l48.4-19.5L804,455.8z"/>
		<path fill="#512BD4" d="M788.8,582c38.2,0,69.1-30.9,69.1-69.1s-30.9-69.1-69.1-69.1s-69.1,30.9-69.1,69.1
			C719.7,551,750.7,582,788.8,582z"/>
		
			<radialGradient id="SVGID_8_" cx="-1975.3407" cy="-7552.6758" r="6.0492" gradientTransform="matrix(61.9498 0 0 61.9498 123387.6484 468654.875)" gradientUnits="userSpaceOnUse">
			<stop  offset="0.4744" style="stop-color:#A08BE8"/>
			<stop  offset="0.8618" style="stop-color:#8065E0"/>
		</radialGradient>
		<path fill="url(#SVGID_8_)" d="M1300.2,939.7C1325,844.2,1309,768,1309,768h22.4l0.5-0.4c-32.2-175.2-185.6-307.9-370-307.9
			c-207.8,0-376.3,168.5-376.3,376.3s168.4,376.3,376.3,376.3c164,0,303.5-104.9,355-251.2C1318.4,954.8,1318.3,943.6,1300.2,939.7z
			"/>
		<path fill="#D8CFF7" d="M1286.4,1026.5H637.5c14.6,24.8,31.9,47.7,51.5,68.4h545.8C1254.5,1074.2,1271.8,1051.3,1286.4,1026.5z"/>
		
			<radialGradient id="SVGID_9_" cx="-1961.4772" cy="-7587.5444" r="6.0492" gradientTransform="matrix(48.2581 0 0 48.2581 95889.2734 366859.3438)" gradientUnits="userSpaceOnUse">
			<stop  offset="9.330000e-02" style="stop-color:#E1DFDD"/>
			<stop  offset="0.8998" style="stop-color:#FFFFFF"/>
		</radialGradient>
		<path fill="url(#SVGID_9_)" d="M1300.2,939.7c24.6-94.3,9.2-169.7,8.9-171.6H918.6c0,0-24.6-2.5-24.6,20s0.9,85.9,0.9,156.2
			c0,14.4,11.8,21.4,21.1,21.4C916.1,965.6,1256.6,965.6,1300.2,939.7z"/>
		<path fill="#A08BE8" d="M1065,939.9c0,0,60.1-47.5,71.8-56.3c11.7-8.8,22-9.3,32.7,0s70.8,56.3,70.8,56.3H1065z"/>
		<path fill="#512BD4" d="M1315.4,965.3c0,0,10.4-20.1-15.2-25.7c0-0.1-383.8-0.3-383.8-0.3c-8.9,0-20.4-5.3-21.4-14
			c0,6.2,0,12.5,0,18.8c0,13.1,9.8,20,18.5,21.2c0.9,0.1,1.8,0.2,2.7,0.2h26.2L1315.4,965.3z"/>
		<path fill="#512BD4" d="M1286.5,851.6c0.4-27.3-12.4-49.7-28.7-49.9s-29.8,21.7-30.2,49c-0.4,27.3,12.4,49.7,28.7,49.9
			C1272.6,900.9,1286.1,879,1286.5,851.6z"/>
		<path fill="#8065E0" d="M1256.7,825c-10.8,10.8-10.8,28.2,0,38.9c7.4,7.4,17.8,9.7,27.2,7c1.6-5.9,2.5-12.4,2.6-19.3
			c0.2-13.4-2.8-25.6-7.8-34.6C1270.9,816.4,1262.8,819,1256.7,825z"/>
		<path fill="#512BD4" d="M1020.8,900.9c16.3-0.2,29.1-22.6,28.7-49.9s-13.9-49.3-30.2-49c-16.2,0.2-29.1,22.6-28.7,49.9
			C991,879.2,1004.5,901.2,1020.8,900.9z"/>
		<path fill="#8065E0" d="M1019.8,826.6c-10.8,10.8-10.8,28.2,0,38.9c7.3,7.3,17.7,9.6,27,7c1.8-6.5,2.8-13.8,2.6-21.6
			c-0.2-12.4-3.1-23.7-7.7-32.3C1033.9,818,1025.8,820.6,1019.8,826.6z"/>
		<path fill="#512BD4" d="M1084.8,1115.2l123.2-0.6l-0.5-108.9l-123.2,0.6L1084.8,1115.2z"/>
		<path fill="#FFFFFF" d="M1106.1,1074.5c-0.8,0-1.5-0.3-2.1-0.8c-0.6-0.6-0.9-1.2-0.9-2c0-0.8,0.3-1.5,0.9-2
			c0.6-0.6,1.3-0.8,2.1-0.8c0.8,0,1.5,0.3,2.1,0.8c0.6,0.5,0.9,1.2,0.9,2s-0.3,1.4-0.9,2C1107.7,1074.2,1107,1074.5,1106.1,1074.5z"
			/>
		<path fill="#FFFFFF" d="M1138.9,1074h-5.3l-14.1-22.1c-0.3-0.5-0.7-1.2-0.9-1.8h-0.1c0.1,0.6,0.2,2,0.2,4.1l0,19.7h-4.7l-0.1-30.1
			h5.7l13.6,21.6c0.6,0.9,0.9,1.5,1.1,1.8h0.1c-0.2-0.8-0.2-2.2-0.2-4.1l0-19.4h4.7L1138.9,1074z"/>
		<path fill="#FFFFFF" d="M1161.8,1073.9l-16.5,0l-0.1-30.1l15.8,0v4.2l-10.9,0l0,8.5l10.1,0v4.2l-10.1,0l0,8.9l11.6,0
			L1161.8,1073.9L1161.8,1073.9z"/>
		<path fill="#FFFFFF" d="M1185.2,1048l-8.4,0l0.1,25.9h-4.9l-0.1-25.9l-8.4,0v-4.2l21.7-0.1L1185.2,1048z"/>
		<path fill="#8A6FE8" d="M529.4,1254.2l40.2,57.3c10.8,15.2,31.9,18.7,47.2,7.9c15.2-10.8,18.7-31.9,7.9-47.1L575,1203
			L529.4,1254.2z"/>
		<path fill="#8A6FE8" d="M460.1,1232.5l-11.1,69.2c-2.8,18.4,9.8,35.7,28.3,38.5c18.4,2.8,35.7-9.8,38.5-28.3l11.4-70.9
			L460.1,1232.5z"/>
		<path fill="#8A6FE8" d="M505,1240.3l-9.3,69.4c-2.4,18.5,10.8,35.4,29.2,37.8c18.5,2.4,35.4-10.8,37.8-29.2l9.6-71.2L505,1240.3z"
			/>
		<path fill="#8A6FE8" d="M442.7,1211.8l-25.1,65.4c-6.6,17.5,2.3,37,19.8,43.5c17.5,6.6,37-2.3,43.5-19.8l25.7-67.1L442.7,1211.8z"
			/>
		
			<linearGradient id="SVGID_10_" gradientUnits="userSpaceOnUse" x1="-100.8671" y1="-14612.4697" x2="-100.8671" y2="-14231.5801" gradientTransform="matrix(1 0 0 1 694 15472)">
			<stop  offset="0.2495" style="stop-color:#967FE6"/>
			<stop  offset="1" style="stop-color:#8A6FE8"/>
		</linearGradient>
		<path fill="url(#SVGID_10_)" d="M489.3,1240.4c-27.9-57-44.2-154.4,1.8-241.6c28-52.9,89.2-120,222.3-139.3l10.7,73.8
			c-80.8,11.7-138.5,46.4-167,100.3c-30.8,58.4-22.6,129.4-0.8,174L489.3,1240.4z"/>
		
			<radialGradient id="SVGID_11_" cx="-1837.5792" cy="-8072.1406" r="6.0492" gradientTransform="matrix(11.3989 0 0 11.3989 21683.1152 92874.9219)" gradientUnits="userSpaceOnUse">
			<stop  offset="0" style="stop-color:#8065E0"/>
			<stop  offset="1" style="stop-color:#512BD4"/>
		</radialGradient>
		<path fill="url(#SVGID_11_)" d="M739,954.1c38.1,0,68.9-30.8,68.9-68.9S777,816.3,739,816.3s-68.9,30.8-68.9,68.9
			C670.1,923.2,700.9,954.1,739,954.1z"/>
		
			<radialGradient id="SVGID_12_" cx="-1932.5482" cy="-7743.2979" r="6.0492" gradientTransform="matrix(22.7292 0 0 22.7292 44430.1484 177152.7031)" gradientUnits="userSpaceOnUse">
			<stop  offset="0" style="stop-color:#8065E0"/>
			<stop  offset="1" style="stop-color:#512BD4"/>
		</radialGradient>
		<path fill="url(#SVGID_12_)" d="M508.6,1277.3c39.1,0,70.8-31.7,70.8-70.8s-31.7-70.8-70.8-70.8s-70.8,31.7-70.8,70.8
			C437.9,1245.7,469.5,1277.3,508.6,1277.3z"/>
		<path fill="#D8CFF7" d="M739.7,415.8c-26.2,7-53.3-8.4-60.5-34.4c-7.2-26,8.2-52.7,34.5-59.7c26.2-7,53.3,8.4,60.5,34.4
			C781.4,382.1,766,408.8,739.7,415.8z"/>
	</g>
	<path display="inline" fill="#28C2D1" d="M940.3,26.4c797.7-13.1,902.2,35.7,961,301c114,514.6-131.8,729.1-29,1154.9
		c95.9,397.1-500.3,495.3-1116.1,455.1S49.1,1723.2,153,1383.4c72.9-238.6,53.6-535.6-80.4-836.9S397.1,35.4,940.3,26.4z"/>
	<path display="inline" fill="#FFFFFF" d="M122.4,1511.5h1755.7c-1.5-9.5-3.5-19.3-5.9-29.2c-5.2-21.7-9.6-42.9-13.1-63.6H142.7
		C133.8,1451.3,126.9,1482.2,122.4,1511.5z"/>
	<path display="inline" fill="#84817D" d="M756.2,1937.5c600.4,39.2,1182.2-53.2,1122-426H122.4
		C83.1,1767.6,223.3,1902.7,756.2,1937.5z"/>
	<g display="inline">
		<rect x="1634.2" y="788.3" fill="#625F5B" width="36.4" height="793.1"/>
		<path fill="#0F849E" d="M1832.2,678.3h-95.7c-2.6,0-4.7-2.1-4.7-4.7v-0.9c0-2.6,2.1-4.7,4.7-4.7h95.7c2.6,0,4.7,2.1,4.7,4.7v0.9
			C1836.9,676.2,1834.8,678.3,1832.2,678.3z"/>
		<path fill="#179BB8" d="M1822.7,744.5h-4.4c-2.4,0-4.4-2-4.4-4.4v-76c0-2.4,2-4.4,4.4-4.4h4.4c2.4,0,4.4,2,4.4,4.4v76
			C1827.1,742.5,1825.1,744.5,1822.7,744.5z"/>
		<path fill="#625F5B" d="M1555.1,1649.1H1527c-4.9,0-8.9-4-8.9-8.9v-13.2c0-4.9,4-8.9,8.9-8.9h28.1c4.9,0,8.9,4,8.9,8.9v13.2
			C1564,1645.1,1560,1649.1,1555.1,1649.1z"/>
		<path fill="#625F5B" d="M1774.6,1649.1h-28.1c-4.9,0-8.9-4-8.9-8.9v-13.2c0-4.9,4-8.9,8.9-8.9h28.1c4.9,0,8.9,4,8.9,8.9v13.2
			C1783.5,1645.1,1779.5,1649.1,1774.6,1649.1z"/>
		<path fill="#625F5B" d="M1763.7,1598.4H1534c-4.2,0-7.7-3.4-7.7-7.7v-9.3c0-4.2,3.4-7.7,7.7-7.7h229.7c4.2,0,7.7,3.4,7.7,7.7v9.3
			C1771.4,1595,1767.9,1598.4,1763.7,1598.4z"/>
		<path fill="#FFFFFF" d="M1790.3,1589.1H1510c-3.1,0-5.8,2.2-6.4,5.3l-6.7,34.9c-0.8,4,2.3,7.7,6.4,7.7h293.6
			c4.1,0,7.1-3.7,6.4-7.7l-6.7-34.9C1796,1591.3,1793.4,1589.1,1790.3,1589.1z"/>
		<path fill="#FFFFFF" d="M1796.6,630.9H1467c-3.7,0-6.7,3-6.7,6.7v63.9c0,3.7,3,6.7,6.7,6.7h329.6c3.7,0,6.7-3,6.7-6.7v-63.9
			C1803.3,633.9,1800.3,630.9,1796.6,630.9z M1775.2,683.7c0,3.2-2.6,5.8-5.8,5.8h-275.6c-3.2,0-5.8-2.6-5.8-5.8v-30.8
			c0-3.2,2.6-5.8,5.8-5.8h275.6c3.2,0,5.8,2.6,5.8,5.8V683.7z"/>
		<path fill="#0F849E" d="M1746.9,737.5h-38.5c-4,0-7.2-3.2-7.2-7.2v-64c0-4,3.2-7.2,7.2-7.2h38.5c4,0,7.2,3.2,7.2,7.2v64
			C1754.2,734.2,1750.9,737.5,1746.9,737.5z"/>
		<rect x="1710.9" y="668.4" fill="#F7B548" width="33.8" height="24.4"/>
		<path fill="#FFFFFF" d="M1807.5,778.7L1654,804.2c-0.9,0.1-1.7,0.1-2.6,0l-154.8-25.5c-3.8-0.6-6.6-3.9-6.6-7.8v-33.8
			c0-4.4,3.6-7.9,7.9-7.9h308.2c4.4,0,7.9,3.5,7.9,7.9v33.8C1814.1,774.8,1811.3,778.1,1807.5,778.7z"/>
		<g>
			<g>
				<rect x="1498.6" y="690.2" fill="#179BB8" width="4.6" height="12.1"/>
			</g>
			<g>
				<rect x="1525.3" y="690.2" fill="#179BB8" width="4.6" height="12.1"/>
			</g>
			<g>
				<rect x="1552.1" y="690.2" fill="#B3AFAB" width="4.6" height="12.1"/>
			</g>
			<g>
				<rect x="1578.9" y="690.2" fill="#B3AFAB" width="4.6" height="12.1"/>
			</g>
			<g>
				<rect x="1605.7" y="690.2" fill="#179BB8" width="4.6" height="12.1"/>
			</g>
			<g>
				<rect x="1632.5" y="690.2" fill="#179BB8" width="4.6" height="12.1"/>
			</g>
			<g>
				<rect x="1659.3" y="690.2" fill="#179BB8" width="4.6" height="12.1"/>
			</g>
			<g>
				<rect x="1686" y="690.2" fill="#179BB8" width="4.6" height="12.1"/>
			</g>
		</g>
		<path fill="#0F849E" d="M1582.3,718.3h-28.2c-3.3,0-6-2.7-6-6v-32.7c0-3.3,2.7-6,6-6h28.2c3.3,0,6,2.7,6,6v32.7
			C1588.3,715.6,1585.6,718.3,1582.3,718.3z"/>
	</g>
	<g display="inline">
		<path fill="#179BB8" d="M289.5,802.9H282c0-65.8-2-127.4-26.7-216c-9.4-33.9-7.6-59.8,5.4-76.9c18.7-24.6,56-24.6,68.3-24.6v7.5
			c-30.9,0-51.2,7.1-62.3,21.7c-11.6,15.2-13,38.9-4.2,70.4C287.5,674.4,289.5,736.5,289.5,802.9z"/>
	</g>
	<g display="inline">
		<path fill="#179BB8" d="M657.5,866.6c-0.2-4.7-5.8-115.5,29.8-168.4c12.6-18.8,15.9-35,9.5-47c-7.5-14-26.1-19.3-36.1-19.3h-42.2
			v-7.5h42.2c12.2,0,33.6,6.2,42.7,23.2c5.4,10.2,8.1,28-10,54.7c-14.1,20.9-23.5,55.8-27.2,100.8c-2.8,34.3-1.4,62.7-1.3,63
			L657.5,866.6z"/>
	</g>
	<g display="inline">
		<path fill="#179BB8" d="M266,807.4h-7.5c0-2.1,0.1-5.1,0.1-8.9c0.7-30.7,2.8-124.3-24.1-183.8c-14.7-32.4-16.1-58.1-4.4-76.4
			c11.5-17.8,33.5-24.2,48.8-24.2h50.1v7.5H279c-13.4,0-32.6,5.4-42.5,20.8c-10.3,16-8.7,39.3,4.9,69.2c27.6,61,25.6,152.6,24.8,187
			C266,802.5,266,805.5,266,807.4z"/>
	</g>
	<rect x="345.1" y="564.6" display="inline" fill="#0F849E" width="160.7" height="25.1"/>
	<path display="inline" fill="#179BB8" d="M378.8,802.9H220.1c-4.7,0-8.4,3.8-8.4,8.4v262.4c0,4.7,3.8,8.4,8.4,8.4h158.7
		c4.7,0,8.4-3.8,8.4-8.4V811.3C387.2,806.7,383.5,802.9,378.8,802.9z"/>
	<path display="inline" fill="#0F849E" d="M338.9,891.2H260c-9.1,0-16.4-7.3-16.4-16.4v-16.9c0-9,7.3-16.4,16.4-16.4h79
		c9,0,16.4,7.3,16.4,16.4v16.9C355.3,883.9,348,891.2,338.9,891.2z"/>
	<path display="inline" fill="#0F849E" d="M338.9,966.2H260c-9.1,0-16.4-7.3-16.4-16.4v-16.9c0-9,7.3-16.4,16.4-16.4h79
		c9,0,16.4,7.3,16.4,16.4v16.9C355.3,958.8,348,966.2,338.9,966.2z"/>
	<rect x="371.3" y="700.3" display="inline" fill="#0F849E" width="59.8" height="381.9"/>
	<g display="inline">
		<path fill="#625F5B" d="M676.8,1532.4v62.8l-14.4,9c0,0-25.1,0-25.1-34.2c0-20.5,0-37.6,0-37.6L676.8,1532.4L676.8,1532.4z"/>
		<circle fill="#625F5B" cx="689.8" cy="1614.5" r="39.5"/>
		<circle fill="#FFFFFF" cx="689.8" cy="1614.5" r="19.2"/>
	</g>
	<g display="inline">
		<path fill="#625F5B" d="M191.6,1532.4v62.8l14.4,9c0,0,25.1,0,25.1-34.2c0-20.5,0-37.6,0-37.6L191.6,1532.4L191.6,1532.4z"/>
		<circle fill="#625F5B" cx="178.6" cy="1614.5" r="39.5"/>
		<circle fill="#FFFFFF" cx="178.6" cy="1614.5" r="19.2"/>
	</g>
	<rect x="485.3" y="1018.3" display="inline" fill="#0F849E" width="82.1" height="54.7"/>
	<rect x="428.3" y="1062.5" display="inline" fill="#0F849E" width="194.9" height="19.6"/>
	<path display="inline" fill="#CFF1F5" d="M200.7,670.5H738c9.9,0,18,8,18,18v0.6c0,9.9-8,18-18,18H200.7c-9.9,0-17.9-8-17.9-18
		v-0.6C182.7,678.5,190.8,670.5,200.7,670.5z"/>
	<path display="inline" fill="#FFFFFF" d="M344.2,1026.3h365.3c8.3,0,15.1-6.8,15.1-15.1V774.9c0-8.3-6.8-15.1-15.1-15.1H344.2
		c-8.3,0-15.1,6.8-15.1,15.1v236.3C329.1,1019.5,335.9,1026.3,344.2,1026.3z"/>
	<path display="inline" fill="#0F849E" d="M357.9,999h337.9c1.4,0,2.6-1.2,2.6-2.6V789.8c0-1.4-1.2-2.6-2.6-2.6H357.9
		c-1.4,0-2.6,1.2-2.6,2.6v206.5C355.3,997.8,356.5,999,357.9,999z"/>
	<path display="inline" fill="#88DDE5" d="M293.1,670.5h337.7c4,0,7.3-3.3,7.3-7.3v-70.1c0-4-3.3-7.3-7.3-7.3H293.1
		c-4,0-7.3,3.3-7.3,7.3v70.1C285.8,667.2,289,670.5,293.1,670.5z"/>
	<path display="inline" fill="#179BB8" d="M313.6,392.6h271c2.8,0,5,2.2,5,5v167.2c0,2.8-2.2,5-5,5h-271c-2.8,0-5-2.2-5-5V397.6
		C308.6,394.9,310.8,392.6,313.6,392.6z"/>
	<path display="inline" fill="#58D0DB" d="M333.3,414.1h154.4c2.3,0,4.2,1.9,4.2,4.2v112.9c0,2.3-1.9,4.2-4.2,4.2H333.3
		c-2.3,0-4.2-1.9-4.2-4.2V418.2C329.1,416,331,414.1,333.3,414.1z"/>
	<rect x="511.5" y="606.9" display="inline" fill="#0F849E" width="101.5" height="46.5"/>
	<path display="inline" fill="#179BB8" d="M763.4,1109.5H194.7c-1.6,97-15.9,189.1-41.8,273.8c-18.5,60.6-30.8,115.9-35.1,166.2
		h645.5V1109.5z"/>
	<path display="inline" fill="#0F849E" d="M194.7,1109.5c-0.1,8.4-0.4,16.8-0.7,25.1h569.3v-25.1H194.7z"/>
	<rect x="413.8" y="1138.4" display="inline" fill="#0F849E" width="106.4" height="15.2"/>
	<rect x="413.8" y="1247.4" display="inline" fill="#0F849E" width="106.4" height="15.2"/>
	<rect x="413.8" y="1398" display="inline" fill="#0F849E" width="106.4" height="15.2"/>
	<path display="inline" fill="#0F849E" d="M763.4,1364.1H158.6c-0.7,2.5-1.4,5-2.1,7.5h606.9L763.4,1364.1L763.4,1364.1z"/>
	<path display="inline" fill="#0F849E" d="M763.4,1207.4H188.6c-0.3,2.5-0.6,5-0.9,7.5h575.6V1207.4z"/>
	<path display="inline" fill="#FFFFFF" d="M797.5,1109.5v-37.8H194.7c0.2,12.7,0.2,25.3,0,37.8H797.5z"/>
	<path display="inline" fill="#FFFFFF" d="M1754,539.5h-439.6c-3.6,0-6.5-2.9-6.5-6.5V257.5c0-3.6,2.9-6.5,6.5-6.5H1754
		c3.6,0,6.5,2.9,6.5,6.5V533C1760.5,536.6,1757.6,539.5,1754,539.5z"/>
	<g display="inline">
		<path fill="#9FE4EB" d="M1540.5,373.8l8.2,5.5c1.4,1,3.1,1.4,4.8,1.2l9.8-1.1c2.9-0.3,5.7,1.2,7.1,3.7l4.7,8.6
			c0.8,1.5,2.1,2.7,3.7,3.3l9.1,3.6c2.7,1.1,4.5,3.7,4.6,6.6l0.1,9.8c0,1.7,0.6,3.4,1.8,4.6l6.4,7.4c1.9,2.2,2.3,5.4,1,8l-4.5,8.8
			c-0.8,1.5-1,3.3-0.6,4.9l2.2,9.6c0.7,2.9-0.5,5.8-2.9,7.5l-8,5.7c-1.4,1-2.4,2.4-2.8,4.1l-2.5,9.5c-0.7,2.8-3.1,5-6,5.3l-9.7,1.3
			c-1.7,0.2-3.2,1-4.4,2.3l-6.6,7.3c-2,2.2-5.1,2.9-7.8,1.9l-9.2-3.4c-1.6-0.6-3.4-0.6-5,0l-9.2,3.4c-2.8,1-5.8,0.2-7.8-1.9
			l-6.6-7.3c-1.1-1.3-2.7-2.1-4.4-2.3l-9.7-1.3c-2.9-0.4-5.3-2.5-6-5.3l-2.5-9.5c-0.4-1.6-1.4-3.1-2.8-4.1l-8-5.7
			c-2.4-1.7-3.5-4.7-2.9-7.5l2.2-9.6c0.4-1.7,0.2-3.4-0.6-4.9l-4.5-8.8c-1.3-2.6-0.9-5.8,1-8l6.4-7.4c1.1-1.3,1.7-2.9,1.8-4.6
			l0.1-9.8c0-2.9,1.8-5.5,4.6-6.6l9.1-3.6c1.6-0.6,2.9-1.8,3.7-3.3l4.7-8.6c1.4-2.6,4.2-4.1,7.1-3.7l9.8,1.1
			c1.7,0.2,3.4-0.2,4.8-1.2l8.2-5.5C1534.9,372.2,1538.1,372.2,1540.5,373.8z"/>
		<circle fill="#CFF1F5" cx="1536.5" cy="438.6" r="48.5"/>
	</g>
	<rect x="1371.7" y="292.9" display="inline" fill="#CFF1F5" width="329.5" height="18.1"/>
	<rect x="1371.7" y="330.9" display="inline" fill="#CFF1F5" width="329.5" height="18.1"/>
	
		<polyline display="inline" fill="none" stroke="#F7B548" stroke-width="10" stroke-linecap="round" stroke-linejoin="round" stroke-miterlimit="10" points="
		393.9,899.2 445.5,899.2 466.7,856.9 490.6,945.7 518.8,804.7 547,976.7 572.5,830.4 597.7,938.6 610.4,897.7 662.9,897.7 	"/>
	<rect x="510" y="505.9" display="inline" fill="#88DDE5" width="63.6" height="29.3"/>
	<rect x="510" y="416.3" display="inline" fill="#F7B548" width="63.6" height="75.9"/>
	<circle display="inline" fill="#40C9D6" cx="480.6" cy="617.3" r="11"/>
	<circle display="inline" fill="#40C9D6" cx="440.5" cy="617.3" r="11"/>
	<circle display="inline" fill="#40C9D6" cx="400.5" cy="617.3" r="11"/>
	<circle display="inline" fill="#40C9D6" cx="360.5" cy="617.3" r="11"/>
</g>
<g id="bot-base" display="none">
	<g display="inline">
		
			<radialGradient id="SVGID_13_" cx="-1975.3407" cy="-7552.6758" r="6.0492" gradientTransform="matrix(61.9498 0 0 61.9498 123387.6484 468654.875)" gradientUnits="userSpaceOnUse">
			<stop  offset="0.4744" style="stop-color:#A08BE8"/>
			<stop  offset="0.8618" style="stop-color:#8065E0"/>
		</radialGradient>
		<path fill="url(#SVGID_13_)" d="M1300.2,939.7C1325,844.2,1309,768,1309,768h22.4l0.5-0.4c-32.2-175.2-185.6-307.9-370-307.9
			c-207.8,0-376.3,168.5-376.3,376.3s168.4,376.3,376.3,376.3c164,0,303.5-104.9,355-251.2C1318.4,954.8,1318.3,943.6,1300.2,939.7z
			"/>
		<path fill="#D8CFF7" d="M1286.4,1026.5H637.5c14.6,24.8,31.9,47.7,51.5,68.4h545.8C1254.5,1074.2,1271.8,1051.3,1286.4,1026.5z"/>
		
			<radialGradient id="SVGID_14_" cx="-1961.4772" cy="-7587.5444" r="6.0492" gradientTransform="matrix(48.2581 0 0 48.2581 95889.2734 366859.3438)" gradientUnits="userSpaceOnUse">
			<stop  offset="9.330000e-02" style="stop-color:#E1DFDD"/>
			<stop  offset="0.8998" style="stop-color:#FFFFFF"/>
		</radialGradient>
		<path fill="url(#SVGID_14_)" d="M1300.2,939.7c24.6-94.3,9.2-169.7,8.9-171.6H918.6c0,0-24.6-2.5-24.6,20s0.9,85.9,0.9,156.2
			c0,14.4,11.8,21.4,21.1,21.4C916.1,965.6,1256.6,965.6,1300.2,939.7z"/>
		<path fill="#A08BE8" d="M1065,939.9c0,0,60.1-47.5,71.8-56.3c11.7-8.8,22-9.3,32.7,0s70.8,56.3,70.8,56.3H1065z"/>
		<path fill="#512BD4" d="M1315.4,965.3c0,0,10.4-20.1-15.2-25.7c0-0.1-383.8-0.3-383.8-0.3c-8.9,0-20.4-5.3-21.4-14
			c0,6.2,0,12.5,0,18.8c0,13.1,9.8,20,18.5,21.2c0.9,0.1,1.8,0.2,2.7,0.2h26.2L1315.4,965.3z"/>
		<path fill="#512BD4" d="M1084.8,1115.2l123.2-0.6l-0.5-108.9l-123.2,0.6L1084.8,1115.2z"/>
		<path fill="#FFFFFF" d="M1106.1,1074.5c-0.8,0-1.5-0.3-2.1-0.8c-0.6-0.6-0.9-1.2-0.9-2c0-0.8,0.3-1.5,0.9-2
			c0.6-0.6,1.3-0.8,2.1-0.8c0.8,0,1.5,0.3,2.1,0.8c0.6,0.5,0.9,1.2,0.9,2s-0.3,1.4-0.9,2C1107.7,1074.2,1107,1074.5,1106.1,1074.5z"
			/>
		<path fill="#FFFFFF" d="M1138.9,1074h-5.3l-14.1-22.1c-0.3-0.5-0.7-1.2-0.9-1.8h-0.1c0.1,0.6,0.2,2,0.2,4.1l0,19.7h-4.7l-0.1-30.1
			h5.7l13.6,21.6c0.6,0.9,0.9,1.5,1.1,1.8h0.1c-0.2-0.8-0.2-2.2-0.2-4.1l0-19.4h4.7L1138.9,1074z"/>
		<path fill="#FFFFFF" d="M1161.8,1073.9l-16.5,0l-0.1-30.1l15.8,0v4.2l-10.9,0l0,8.5l10.1,0v4.2l-10.1,0l0,8.9l11.6,0
			L1161.8,1073.9L1161.8,1073.9z"/>
		<path fill="#FFFFFF" d="M1185.2,1048l-8.4,0l0.1,25.9h-4.9l-0.1-25.9l-8.4,0v-4.2l21.7-0.1L1185.2,1048z"/>
	</g>
	<g display="inline">
		<path fill="#605D5A" d="M630.8,656c-9.4,17.2-17.4,35.2-24,53.9h709.3c-6.6-18.7-14.6-36.7-24-53.9H630.8z"/>
		<path fill="#9FE4EB" d="M692.6,574.9c0,0,213.4-8.4,397-90.9c-13-41.1-55.3-141.6-80.7-182.1c-7.4-11.8-61-36.8-73.7-38.7
			c-60.5-9.1-219.9,40.2-245,65.7c-5,5.1-35,60.5-34.1,73.1C658.4,432.3,692.6,574.9,692.6,574.9z"/>
		<g>
			<circle fill="#FFFFFF" cx="961.4" cy="608.2" r="118"/>
			
				<radialGradient id="SVGID_15_" cx="926.2105" cy="1483.5281" r="217.0735" gradientTransform="matrix(1 0 0 -1 0 2000)" gradientUnits="userSpaceOnUse">
				<stop  offset="9.330000e-02" style="stop-color:#E1DFDD"/>
				<stop  offset="0.6573" style="stop-color:#FFFFFF"/>
			</radialGradient>
			<circle fill="url(#SVGID_15_)" cx="961.4" cy="608.2" r="105.9"/>
			<circle fill="#B3AFAB" cx="961.4" cy="608.2" r="36.2"/>
		</g>
	</g>
	<g display="inline">
		<path fill="#88DDE5" d="M1441.7,1056.2c-21.3-1.8-57.4-17.6-94.1-41.3c-14.6-9.4-28.2-19.4-40.2-29.4
			c-9.6,22.1-21.2,43.1-34.6,62.7c13.5,10.8,28.3,21.2,44.2,31.1c44.2,27.6,89.8,46.1,119,48.5l2,0.2l5.9-71.6L1441.7,1056.2z"/>
		<g>
			<path fill="#B7EBF0" d="M1662.6,939.8l-14.1-70.1c-3.9-18.7-22.2-30.6-40.8-26.8c-18.7,3.9-30.6,22.2-26.8,40.8l14.5,71.9
				L1662.6,939.8z"/>
			<path fill="#605D5A" d="M1624.6,1166.6l64.2-285.2c2.1-9.1-5.1-16.4-16.1-16.3l-217.3,2c-10.9,0.1-21.4,7.6-23.5,16.7
				l-64.2,285.2c-2.1,9.1,5.1,16.4,16.1,16.3l217.3-2C1612,1183.2,1622.5,1175.7,1624.6,1166.6z"/>
			<path fill="#B7EBF0" d="M1637,1081.1h-30.2c-19,0-34.3-15.4-34.3-34.3l0,0c0-19,15.4-34.3,34.3-34.3h30.2
				c19,0,34.3,15.4,34.3,34.3l0,0C1671.3,1065.7,1655.9,1081.1,1637,1081.1z"/>
			<path fill="#B7EBF0" d="M1674.3,1021.3h-43.7c-19,0-34.3-15.4-34.3-34.3l0,0c0-19,15.4-34.3,34.3-34.3h43.7
				c19,0,34.3,15.4,34.3,34.3l0,0C1708.6,1005.9,1693.3,1021.3,1674.3,1021.3z"/>
			<path fill="#B7EBF0" d="M1685.1,968.3h-30.2c-19,0-34.3-15.4-34.3-34.3l0,0c0-19,15.4-34.3,34.3-34.3h30.2
				c19,0,34.3,15.4,34.3,34.3l0,0C1719.4,952.9,1704.1,968.3,1685.1,968.3z"/>
		</g>
		<g>
			<path fill="#A3C9F6" d="M1297.1,925l22.4-30.7c1.9-2.7,1.3-6.4-1.3-8.3c-2.7-1.9-6.4-1.3-8.3,1.3l-18.5,25.3
				c-22.9-15.1-94.8-59.9-138.2-59.7c-42.8,0.2-149.9,44.6-187,60.6h0l-179.7-78.3c5.8,5.5,10.6,11.9,14.1,18.8l153,67l0,0
				c2.1,9.9,10.9,57.5-3.9,97.6l-187.2-68.5c-7.6,2.7-15.7,4.1-23.8,4l208.2,76.2l0,0c31.9,50,77.8,138.5,180.9,138
				c82.8-0.4,148.5-88.7,178.2-136.4l2.1,0.2c0.2,0,0.3,0,0.5,0c3.1,0,5.7-2.3,5.9-5.5c0.3-3.3-2.2-6.2-5.4-6.5l-4.1-0.3
				C1288,988.2,1293.8,942.8,1297.1,925z"/>
			<path fill="#3E8EED" d="M999.3,972.5c0,0,117.4-27.6,165.8-27.8s117.3,24.9,117.3,24.9s-37.7-7.4-117.2-7
				C1085.7,963,999.3,972.5,999.3,972.5z"/>
			<path fill="#3E8EED" d="M1282.7,1049.1c0,0-51.5,59.5-121.1,59.8c-74.5,0.3-162-57.1-162-57.1s82.5,39.4,161.9,39
				C1241,1090.6,1282.7,1049.1,1282.7,1049.1z"/>
		</g>
		<g>
			<path fill="#605D5A" d="M1335.8,1097.3l-15.3-11.7c13.3-17.6,39.8-114.1,21-184.7c-5.8-21.6-14.9-38.2-28-50
				c0.5-8.3,0.4-16.4,0.5-23.8c22.2,14.2,37.7,37.4,46.1,68.9C1380.2,971.4,1352.5,1075.4,1335.8,1097.3z"/>
			<path fill="#605D5A" d="M1332.2,1124.2c17.3,0,31.3-14,31.3-31.3s-14-31.3-31.3-31.3s-31.3,14-31.3,31.3
				S1314.9,1124.2,1332.2,1124.2z"/>
			<path fill="#72ACF1" d="M1332.2,1110c9,0,16.3-7.3,16.3-16.3c0-9-7.3-16.3-16.3-16.3c-9,0-16.3,7.3-16.3,16.3
				C1315.9,1102.7,1323.2,1110,1332.2,1110z"/>
			<path fill="#A3C9F6" d="M741.1,1179.8c-0.1,0-0.2,0-0.3,0.1c-1.2,0.2-28.9,3.9-43.5-10.5c-8.1-7.9-40.2-63.5-41.6-65.9
				c-0.9-1.5-0.4-3.5,1.2-4.4s3.5-0.4,4.4,1.2c9.2,15.9,34.4,58.4,40.5,64.5c12.4,12.2,37.9,8.8,38.1,8.7c1.8-0.3,3.4,1,3.6,2.7
				C743.8,1177.9,742.7,1179.4,741.1,1179.8z"/>
			<path fill="#605D5A" d="M747.6,1184.6c4.9,0,8.8-4,8.8-8.8s-4-8.8-8.8-8.8c-4.9,0-8.8,4-8.8,8.8
				C738.7,1180.7,742.7,1184.6,747.6,1184.6z"/>
			<path fill="#A3C9F6" d="M765.1,1162.3c-0.8,0.1-1.5,0.1-2.2-0.3c-1.5-0.9-2.1-2.8-1.2-4.4c0.1-0.2,12.8-22.6,6-38.6
				c-3.4-8-33.5-47.2-44.9-61.6c-1.1-1.4-0.9-3.4,0.5-4.5c1.4-1.1,3.4-0.9,4.5,0.6c1.7,2.1,41.4,52.6,45.8,63.1
				c8,19-5.8,43.3-6.3,44.3C766.8,1161.6,766,1162.2,765.1,1162.3z"/>
			<path fill="#605D5A" d="M761,1174.4c4.9,0,8.8-4,8.8-8.8s-4-8.8-8.8-8.8c-4.9,0-8.8,4-8.8,8.8
				C752.1,1170.5,756.1,1174.4,761,1174.4z"/>
			<path fill="#605D5A" d="M689.5,1013c-10.2-2.8-20.1-1.9-29.7,2.6c-5,1.9-8,8.6-15.7,11.5c-5.5,6-9,13.3-10.4,21.6
				c-5.7,33.1,24.9,72.1,26.2,73.7c2.4,3,6.2,4.2,9.8,3.4c1.3-0.3,2.6-0.9,3.8-1.8c4.2-3.3,4.9-9.3,1.6-13.5
				c-7.4-9.3-25.8-38.1-22.3-58.5c1.2-7.2,5.1-12.8,11.9-17c6.5-4.1,12.9-5.2,19.8-3.3c19.7,5.3,37.9,33.4,43.2,43.8
				c2.5,4.7,8.2,6.6,13,4.1c4.7-2.4,6.6-8.2,4.2-12.9C743.9,1064.7,721.4,1021.8,689.5,1013z"/>
			<path fill="#605D5A" d="M662.5,1018.9l-15.2,12.4c-3.2-4-6.4-7.9-9.4-11.8c-75.1-97.1-84.6-177.6-69.2-218.1
				c4.7-12.4,13.5-24,22.9-32.7c-2.1,13.6-4.4,28.2-5,42.3c-4.2,23.5-3,51.6,8.1,86.4C606.3,933.7,625.9,974.1,662.5,1018.9z"/>
		</g>
		<g>
			<g>
				<g>
					<g>
						<path fill="#88DDE5" d="M507.7,1243.5c-2-6.3-47.9-156.9,26.7-270.6c43.1-65.7,115.8-104.5,216.1-115.2l7.7,72.1
							c-77.5,8.3-132.3,36-163,82.5c-55.9,84.8-18.7,208.3-18.3,209.6L507.7,1243.5z"/>
					</g>
					<g>
						<path fill="#B7EBF0" d="M502.9,1271.8l4.1,71.5c1.2,19.1,17.6,33.5,36.7,32.2s33.5-17.6,32.2-36.7l-4.2-73.3L502.9,1271.8z"/>
						<path fill="#B7EBF0" d="M486.8,1180.8l-31.2,113.5c-4.6,18.5,6.7,37.2,25.2,41.9c18.5,4.6,37.2-6.7,41.9-25.2l31.7-115.3
							L486.8,1180.8z"/>
						<path fill="#B7EBF0" d="M536.8,1244.9l36.3,156.7c4.5,18.6,23.2,29.9,41.7,25.4c18.6-4.5,29.9-23.2,25.4-41.7l-36.7-158.4
							L536.8,1244.9z"/>
						<path fill="#E1EA95" d="M575.7,1480.3l-25.5,28.9c-1.8,2-4.7,2.7-7.2,1.6c-2.5-1.1-4-3.6-3.7-6.3l3.9-38.4
							c0.1-0.6,0.2-1.3,0.5-1.9l125.2-285.5c1.4-3.2,5.1-4.6,8.2-3.2l21.6,9.5c3.2,1.4,4.6,5.1,3.2,8.2l-125.2,285.5
							C576.5,1479.3,576.1,1479.9,575.7,1480.3z"/>
						<path fill="#C5D43B" d="M560.8,1464.3l-17.8,46.6c-2.5-1.1-4-3.6-3.7-6.3l3.9-38.4c0.1-0.6,0.2-1.3,0.5-1.9l125.2-285.5
							c1.4-3.2,5.1-4.6,8.2-3.2l7.6,3.3L560.8,1464.3z"/>
						<path fill="#B3AFAB" d="M543.3,1466.1l33,13.3c-0.2,0.3-0.4,0.6-0.6,0.9l-25.5,28.9c-1.8,2-4.7,2.7-7.2,1.6
							c-2.5-1.1-4-3.6-3.7-6.3L543.3,1466.1z"/>
						<path fill="#B7EBF0" d="M538.1,1227.5l109.4,81.9c15.5,11.1,37.1,7.5,48.2-8c11-15.5,7.5-37.1-8-48.2l-110.8-82.9
							L538.1,1227.5z"/>
					</g>
					<polyline fill="#605D5A" points="553.9,1504.9 539.7,1499.2 537.5,1524.2 553.9,1504.9 					"/>
				</g>
				<path fill="#B7EBF0" d="M564,1137.1l-72-1.3c0,0-5.8,60.8-30.1,136.1c-4.8,15,43.5,8.4,77,5s133.4-31.3,95.4-63.6
					C596.4,1180.9,572.9,1167.2,564,1137.1z"/>
			</g>
			
				<radialGradient id="SVGID_16_" cx="739.32" cy="1137.8541" r="93.8769" gradientTransform="matrix(1 0 0 -1 0 2000)" gradientUnits="userSpaceOnUse">
				<stop  offset="0" style="stop-color:#7BDDEF"/>
				<stop  offset="0.9236" style="stop-color:#28C2D1"/>
			</radialGradient>
			<circle fill="url(#SVGID_16_)" cx="739.3" cy="885.4" r="68.8"/>
		</g>
	</g>
</g>
<g id="asset">
	
		<radialGradient id="SVGID_17_" cx="-1889.1619" cy="-7763.001" r="6.0492" gradientTransform="matrix(20.3477 -9.260000e-02 9.260000e-02 20.3477 40461.4219 159326.5312)" gradientUnits="userSpaceOnUse">
		<stop  offset="3.400000e-02" style="stop-color:#522CD5"/>
		<stop  offset="0.9955" style="stop-color:#8A6FE8"/>
	</radialGradient>
	<path fill="url(#SVGID_17_)" d="M1380,1624.5c0.6-8.2,0.7-16-2.5-22.6l-145.7,0.7c4,5.9,5.7,11.1,5.2,19.7l-0.8,37.1
		c-0.5,7.3,5,13.1,12.3,13.1l116.8-0.5c6.4,0,12-5.3,12.4-11.7L1380,1624.5z"/>
	
		<radialGradient id="SVGID_18_" cx="-1915.6898" cy="-7736.7036" r="6.0492" gradientTransform="matrix(22.145 -0.1007 0.1006 22.1216 44062.4609 172497.1406)" gradientUnits="userSpaceOnUse">
		<stop  offset="3.400000e-02" style="stop-color:#522CD5"/>
		<stop  offset="0.9955" style="stop-color:#8A6FE8"/>
	</radialGradient>
	<path fill="url(#SVGID_18_)" d="M762.2,1623.1l-5.8,37.5c-1.4,7.3,3.5,13.3,10.8,13.2l162.2-0.7c6.5,0,12.8-5.3,14-11.8l6.8-36.2
		c1.6-8.6,2.1-16.2-1-22.8l-185.9,0.8C763.6,1609.8,763.8,1614.5,762.2,1623.1z"/>
	<g>
		<g>
			
				<linearGradient id="SVGID_19_" gradientUnits="userSpaceOnUse" x1="1163.0267" y1="852.7" x2="1163.0267" y2="620.9154" gradientTransform="matrix(1 0 0 -1 0 2000)">
				<stop  offset="0" style="stop-color:#522CD5"/>
				<stop  offset="0.4397" style="stop-color:#8A6FE8"/>
			</linearGradient>
			<path fill="url(#SVGID_19_)" d="M1111.3,1181.4c30.9,77.3,33.5,155.3,32.5,193.4c-0.2,3.9,36.1,7.4,71-0.6
				c0.5-49.1-5.1-139.8-41.4-227C1153.9,1160.5,1133.1,1172,1111.3,1181.4z"/>
			<path fill="#522CD5" d="M1143.8,1374.2l55.8-0.3l52.1,298.7l-112.1,0.5c-8.5,0-15-6.8-14.4-15.4L1143.8,1374.2z"/>
			
				<linearGradient id="SVGID_20_" gradientUnits="userSpaceOnUse" x1="466.7536" y1="-14099.8584" x2="644.364" y2="-13783.2021" gradientTransform="matrix(1 0 0 1 694 15472)">
				<stop  offset="0" style="stop-color:#522CD5"/>
				<stop  offset="0.4397" style="stop-color:#8A6FE8"/>
			</linearGradient>
			<path fill="url(#SVGID_20_)" d="M1371.3,1594.1c9.7,7.7,9.5,18.7,8.8,30.4l-2.3,35.8c-0.4,6.4-6,11.7-12.4,11.7l-116.8,0.5
				c-7.3,0-12.8-5.8-12.3-13.1l0.8-37.1c0.9-13.5-3.7-18.4-14.1-31.1c-17.9-21.7-70.7-140-65.7-217.1l57.5-0.3
				C1218.5,1419.6,1278.9,1521.2,1371.3,1594.1z"/>
			
				<linearGradient id="SVGID_21_" gradientUnits="userSpaceOnUse" x1="1116.4196" y1="375.36" x2="1393.722" y2="375.36" gradientTransform="matrix(1 0 0 -1 0 2000)">
				<stop  offset="4.520000e-02" style="stop-color:#28C2D1"/>
				<stop  offset="0.3394" style="stop-color:#7BDDEF"/>
			</linearGradient>
			<path fill="url(#SVGID_21_)" d="M1126.6,1575.5l228.8,0.8c3.7,0,7.3,1.3,10.3,3.6c9.1,7.1,28.2,23.6,28,35.5
				c-0.9,46.1,0.8,58.3-14.3,58.3c-27.8,0-226.8,0-247.3,0c-10.1,0-15.1-5.7-15.6-19.5c-0.6-13.8,1.1-54.3,1.1-54.3
				S1117.7,1576.7,1126.6,1575.5z"/>
		</g>
		<g>
			
				<linearGradient id="SVGID_22_" gradientUnits="userSpaceOnUse" x1="836.205" y1="817.3101" x2="836.205" y2="581.05" gradientTransform="matrix(1 0 0 -1 0 2000)">
				<stop  offset="0" style="stop-color:#522CD5"/>
				<stop  offset="0.4397" style="stop-color:#8A6FE8"/>
			</linearGradient>
			<path fill="url(#SVGID_22_)" d="M815.5,1182.7l-28.3,227.4l71.3,8.9l26.7-214.5C861,1199.4,837.7,1192.1,815.5,1182.7z"/>
			<path fill="#522CD5" d="M792.4,1371.8l56.5-0.3l15.6,302l-113.4,0.5c-8.6,0-14.3-6.9-12.7-15.6L792.4,1371.8z"/>
			
				<linearGradient id="SVGID_23_" gradientUnits="userSpaceOnUse" x1="59.7287" y1="-14072.8604" x2="213.7751" y2="-13779.3223" gradientTransform="matrix(1 0 0 1 694 15472)">
				<stop  offset="0" style="stop-color:#522CD5"/>
				<stop  offset="0.4397" style="stop-color:#8A6FE8"/>
			</linearGradient>
			<path fill="url(#SVGID_23_)" d="M956.6,1595.2c8.7,7.9,8.5,18,6.3,29.8l-6.8,36.2c-1.2,6.5-7.5,11.8-14,11.8l-162.2,0.8
				c-7.4,0-12.2-5.9-10.8-13.2l5.8-37.5c2.6-13.6,0.6-17.7,0.8-35.1c0.5-32.8,15.6-138.2,30.3-216.2l58.2-0.2
				C862.3,1417.8,882.4,1528,956.6,1595.2z"/>
			
				<linearGradient id="SVGID_24_" gradientUnits="userSpaceOnUse" x1="725.3215" y1="374.94" x2="975.11" y2="374.94" gradientTransform="matrix(1 0 0 -1 0 2000)">
				<stop  offset="4.520000e-02" style="stop-color:#28C2D1"/>
				<stop  offset="0.3394" style="stop-color:#7BDDEF"/>
			</linearGradient>
			<path fill="url(#SVGID_24_)" d="M754.7,1575.5l189.2,0.8c3.7,0,7.3,1.3,10.3,3.6c9.1,7.1,22.6,21.6,20.7,38.3
				c-5.7,49.1-8.4,55.5-23.4,55.5c-27.8,0-188.9,0.8-209.3,0.8c-10,0-18.6-6.7-16.5-20.4c2.3-15.3,8.2-50.8,11.8-64.5
				C741.1,1576.1,745.8,1576.7,754.7,1575.5z"/>
		</g>
	</g>
</g>
</svg>
