<?xml version="1.0" encoding="utf-8"?>
<!-- Generator: Adobe Illustrator 24.2.0, SVG Export Plug-In . SVG Version: 6.00 Build 0)  -->
<svg version="1.1" id="Layer_1" xmlns="http://www.w3.org/2000/svg" xmlns:xlink="http://www.w3.org/1999/xlink" x="0px" y="0px"
	 viewBox="0 0 2000 2000" enable-background="new 0 0 2000 2000" xml:space="preserve">
<g id="ghost-image" display="none">
	<g display="inline">
		<path fill="#8A6FE8" d="M1469,1134.6c-57.7-4.7-181.3-73.8-228.1-150.4c-28.4-46.5,24.8-83.6,53.8-36.2
			c31.4,51.3,134.8,115.2,179.9,118.9L1469,1134.6z"/>
		<path fill="#8A6FE8" d="M1525,1005.7l-88.7,33.7c-15.8,6-23.7,23.7-17.8,39.5c6,15.8,23.7,23.7,39.5,17.8l88.7-33.7
			c15.8-6,23.7-23.7,17.8-39.5C1558.6,1007.6,1540.8,999.6,1525,1005.7z"/>
		<path fill="#8A6FE8" d="M1416.4,1155.1l37.8,51.4c10.2,13.6,29.4,16.4,43.1,6.3c13.6-10.2,16.4-29.4,6.3-43.1l-38.8-52.7
			L1416.4,1155.1z"/>
		<path fill="#8A6FE8" d="M1450.7,1158.2l76.8,42.9c14.9,8.2,33.6,2.9,41.8-12c8.2-14.8,2.9-33.6-12-41.8l-57-32.1L1450.7,1158.2z"
			/>
		<path fill="#8A6FE8" d="M1460.3,1121.8l84.6,24.4c16.3,4.7,33.4-4.7,38.2-21c4.7-16.3-4.7-33.4-21-38.2l-86.2-24.9L1460.3,1121.8z
			"/>
		
			<radialGradient id="SVGID_1_" cx="347.3062" cy="-8093.0425" r="6.0501" gradientTransform="matrix(10.6515 0 0 10.6515 -2247.7576 87306.7812)" gradientUnits="userSpaceOnUse">
			<stop  offset="0" style="stop-color:#8065E0"/>
			<stop  offset="1" style="stop-color:#512BD4"/>
		</radialGradient>
		<path fill="url(#SVGID_1_)" d="M1451.6,1168.2c35.6,0,64.4-28.8,64.4-64.4c0-35.6-28.9-64.4-64.4-64.4
			c-35.6,0-64.4,28.8-64.4,64.4C1387.1,1139.3,1416,1168.2,1451.6,1168.2z"/>
		
			<linearGradient id="SVGID_2_" gradientUnits="userSpaceOnUse" x1="432.5013" y1="-14367.252" x2="492.2792" y2="-14082.54" gradientTransform="matrix(1 0 0 1 694 15463.0693)">
			<stop  offset="0" style="stop-color:#522CD5"/>
			<stop  offset="0.4397" style="stop-color:#8A6FE8"/>
		</linearGradient>
		<path fill="url(#SVGID_2_)" d="M1216.5,1374.2c0.7-59.8-7.8-181.1-69.5-282.6l-60.3,36.6c56,92.1,60.2,199.7,58.9,246.6
			C1145.4,1378.6,1181.6,1382.1,1216.5,1374.2z"/>
		<path fill="#522CD5" d="M1145.5,1374.1l55.8-0.3l52.1,298.7l-112.1,0.5c-8.5,0-15-6.8-14.4-15.4L1145.5,1374.1z"/>
		
			<linearGradient id="SVGID_3_" gradientUnits="userSpaceOnUse" x1="468.5236" y1="-14091.0781" x2="646.134" y2="-13774.4219" gradientTransform="matrix(1 0 0 1 694 15463.0693)">
			<stop  offset="0" style="stop-color:#522CD5"/>
			<stop  offset="0.4397" style="stop-color:#8A6FE8"/>
		</linearGradient>
		<path fill="url(#SVGID_3_)" d="M1373,1593.9c9.7,7.7,9.5,18.7,8.8,30.4l-2.3,35.8c-0.4,6.4-6,11.7-12.4,11.7l-116.8,0.5
			c-7.3,0-12.8-5.8-12.3-13.1l0.8-37.1c0.9-13.5-3.7-18.4-14.1-31.1c-17.9-21.7-70.7-140-65.7-217.1l57.5-0.3
			C1220.3,1419.5,1280.7,1521.1,1373,1593.9z"/>
		
			<linearGradient id="SVGID_4_" gradientUnits="userSpaceOnUse" x1="103.6376" y1="-14371.6035" x2="172.368" y2="-14048.248" gradientTransform="matrix(1 0 0 1 694 15463.0693)">
			<stop  offset="0" style="stop-color:#522CD5"/>
			<stop  offset="0.4397" style="stop-color:#8A6FE8"/>
		</linearGradient>
		<path fill="url(#SVGID_4_)" d="M847.6,1418.8l-71.3-8.9l40.1-322.5l71.3,8.8L847.6,1418.8z"/>
		<path fill="#522CD5" d="M781.5,1371.7l56.5-0.3l15.6,302l-113.4,0.5c-8.6,0-14.3-6.9-12.7-15.6L781.5,1371.7z"/>
		
			<linearGradient id="SVGID_5_" gradientUnits="userSpaceOnUse" x1="48.7987" y1="-14064.0801" x2="202.8451" y2="-13770.541" gradientTransform="matrix(1 0 0 1 694 15463.0693)">
			<stop  offset="0" style="stop-color:#522CD5"/>
			<stop  offset="0.4397" style="stop-color:#8A6FE8"/>
		</linearGradient>
		<path fill="url(#SVGID_5_)" d="M945.7,1595.1c8.7,7.9,8.5,18,6.3,29.8l-6.8,36.2c-1.2,6.5-7.5,11.8-14,11.8l-162.2,0.8
			c-7.4,0-12.2-5.9-10.8-13.2l5.8-37.5c2.6-13.6,0.6-17.7,0.8-35.1c0.5-32.8,15.6-138.2,30.3-216.2l58.2-0.2
			C851.4,1417.6,871.5,1527.9,945.7,1595.1z"/>
		
			<radialGradient id="SVGID_6_" cx="314.9158" cy="-7732.5229" r="6.0492" gradientTransform="matrix(22.145 -0.1007 0.1006 22.1216 -5332.8813 172629.2031)" gradientUnits="userSpaceOnUse">
			<stop  offset="3.400000e-02" style="stop-color:#522CD5"/>
			<stop  offset="0.9955" style="stop-color:#8A6FE8"/>
		</radialGradient>
		<path fill="url(#SVGID_6_)" d="M763.9,1622.9l-5.8,37.5c-1.4,7.3,3.5,13.3,10.8,13.2l162.2-0.7c6.5,0,12.8-5.3,14-11.8l6.8-36.2
			c1.6-8.6,2.1-16.2-1-22.8l-185.9,0.8C765.4,1609.6,765.5,1614.4,763.9,1622.9z"/>
		<path fill="#8A6FE8" d="M804,455.8L736.5,483l-18.4-73.1l48.4-19.5L804,455.8z"/>
		<path fill="#512BD4" d="M788.8,582c38.2,0,69.1-30.9,69.1-69.1s-30.9-69.1-69.1-69.1s-69.1,30.9-69.1,69.1
			C719.7,551,750.7,582,788.8,582z"/>
		
			<radialGradient id="SVGID_7_" cx="322.9623" cy="-7548.1387" r="6.0492" gradientTransform="matrix(61.9498 0 0 61.9498 -18991.7578 468373.8125)" gradientUnits="userSpaceOnUse">
			<stop  offset="0.4744" style="stop-color:#A08BE8"/>
			<stop  offset="0.8618" style="stop-color:#8065E0"/>
		</radialGradient>
		<path fill="url(#SVGID_7_)" d="M1300.2,939.7C1325,844.2,1309,768,1309,768h22.4l0.5-0.4c-32.2-175.2-185.6-307.9-370-307.9
			c-207.8,0-376.3,168.5-376.3,376.3s168.4,376.3,376.3,376.3c164,0,303.5-104.9,355-251.2C1318.4,954.8,1318.3,943.6,1300.2,939.7z
			"/>
		<path fill="#D8CFF7" d="M1286.4,1026.5H637.5c14.6,24.8,31.9,47.7,51.5,68.4h545.8C1254.5,1074.2,1271.8,1051.3,1286.4,1026.5z"/>
		
			<radialGradient id="SVGID_8_" cx="326.1273" cy="-7582.9868" r="6.0492" gradientTransform="matrix(48.2581 0 0 48.2581 -14506.1797 366639.4062)" gradientUnits="userSpaceOnUse">
			<stop  offset="9.330000e-02" style="stop-color:#E1DFDD"/>
			<stop  offset="0.8998" style="stop-color:#FFFFFF"/>
		</radialGradient>
		<path fill="url(#SVGID_8_)" d="M1300.2,939.7c24.6-94.3,9.2-169.7,8.9-171.6H918.6c0,0-24.6-2.5-24.6,20s0.9,85.9,0.9,156.2
			c0,14.4,11.8,21.4,21.1,21.4C916.1,965.6,1256.6,965.6,1300.2,939.7z"/>
		<path fill="#A08BE8" d="M1065,939.9c0,0,60.1-47.5,71.8-56.3c11.7-8.8,22-9.3,32.7,0s70.8,56.3,70.8,56.3H1065z"/>
		<path fill="#512BD4" d="M1315.4,965.3c0,0,10.4-20.1-15.2-25.7c0-0.1-383.8-0.3-383.8-0.3c-8.9,0-20.4-5.3-21.4-14
			c0,6.2,0,12.5,0,18.8c0,13.1,9.8,20,18.5,21.2c0.9,0.1,1.8,0.2,2.7,0.2h26.2L1315.4,965.3z"/>
		<path fill="#512BD4" d="M1286.5,851.6c0.4-27.3-12.4-49.7-28.7-49.9s-29.8,21.7-30.2,49c-0.4,27.3,12.4,49.7,28.7,49.9
			C1272.6,900.9,1286.1,879,1286.5,851.6z"/>
		<path fill="#8065E0" d="M1256.7,825c-10.8,10.8-10.8,28.2,0,38.9c7.4,7.4,17.8,9.7,27.2,7c1.6-5.9,2.5-12.4,2.6-19.3
			c0.2-13.4-2.8-25.6-7.8-34.6C1270.9,816.4,1262.8,819,1256.7,825z"/>
		<path fill="#512BD4" d="M1020.8,900.9c16.3-0.2,29.1-22.6,28.7-49.9s-13.9-49.3-30.2-49c-16.2,0.2-29.1,22.6-28.7,49.9
			C991,879.2,1004.5,901.2,1020.8,900.9z"/>
		<path fill="#8065E0" d="M1019.8,826.6c-10.8,10.8-10.8,28.2,0,38.9c7.3,7.3,17.7,9.6,27,7c1.8-6.5,2.8-13.8,2.6-21.6
			c-0.2-12.4-3.1-23.7-7.7-32.3C1033.9,818,1025.8,820.6,1019.8,826.6z"/>
		<path fill="#512BD4" d="M1084.8,1115.2l123.2-0.6l-0.5-108.9l-123.2,0.6L1084.8,1115.2z"/>
		<path fill="#FFFFFF" d="M1106.1,1074.5c-0.8,0-1.5-0.3-2.1-0.8c-0.6-0.6-0.9-1.2-0.9-2c0-0.8,0.3-1.5,0.9-2
			c0.6-0.6,1.3-0.8,2.1-0.8c0.8,0,1.5,0.3,2.1,0.8c0.6,0.5,0.9,1.2,0.9,2s-0.3,1.4-0.9,2C1107.7,1074.2,1107,1074.5,1106.1,1074.5z"
			/>
		<path fill="#FFFFFF" d="M1138.9,1074h-5.3l-14.1-22.1c-0.3-0.5-0.7-1.2-0.9-1.8h-0.1c0.1,0.6,0.2,2,0.2,4.1l0,19.7h-4.7l-0.1-30.1
			h5.7l13.6,21.6c0.6,0.9,0.9,1.5,1.1,1.8h0.1c-0.2-0.8-0.2-2.2-0.2-4.1l0-19.4h4.7L1138.9,1074z"/>
		<path fill="#FFFFFF" d="M1161.8,1073.9l-16.5,0l-0.1-30.1l15.8,0v4.2l-10.9,0l0,8.5l10.1,0v4.2l-10.1,0l0,8.9l11.6,0
			L1161.8,1073.9L1161.8,1073.9z"/>
		<path fill="#FFFFFF" d="M1185.2,1048l-8.4,0l0.1,25.9h-4.9l-0.1-25.9l-8.4,0v-4.2l21.7-0.1L1185.2,1048z"/>
		<path fill="#8A6FE8" d="M529.4,1254.2l40.2,57.3c10.8,15.2,31.9,18.7,47.2,7.9c15.2-10.8,18.7-31.9,7.9-47.1L575,1203
			L529.4,1254.2z"/>
		<path fill="#8A6FE8" d="M460.1,1232.5l-11.1,69.2c-2.8,18.4,9.8,35.7,28.3,38.5c18.4,2.8,35.7-9.8,38.5-28.3l11.4-70.9
			L460.1,1232.5z"/>
		<path fill="#8A6FE8" d="M505,1240.3l-9.3,69.4c-2.4,18.5,10.8,35.4,29.2,37.8c18.5,2.4,35.4-10.8,37.8-29.2l9.6-71.2L505,1240.3z"
			/>
		<path fill="#8A6FE8" d="M442.7,1211.8l-25.1,65.4c-6.6,17.5,2.3,37,19.8,43.5c17.5,6.6,37-2.3,43.5-19.8l25.7-67.1L442.7,1211.8z"
			/>
		
			<linearGradient id="SVGID_9_" gradientUnits="userSpaceOnUse" x1="-100.8671" y1="-14603.5391" x2="-100.8671" y2="-14222.6494" gradientTransform="matrix(1 0 0 1 694 15463.0693)">
			<stop  offset="0.2495" style="stop-color:#967FE6"/>
			<stop  offset="1" style="stop-color:#8A6FE8"/>
		</linearGradient>
		<path fill="url(#SVGID_9_)" d="M489.3,1240.4c-27.9-57-44.2-154.4,1.8-241.6c28-52.9,89.2-120,222.3-139.3l10.7,73.8
			c-80.8,11.7-138.5,46.4-167,100.3c-30.8,58.4-22.6,129.4-0.8,174L489.3,1240.4z"/>
		
			<radialGradient id="SVGID_10_" cx="293.499" cy="-8067.2832" r="6.0492" gradientTransform="matrix(11.3989 0 0 11.3989 -2608.8303 92819.5625)" gradientUnits="userSpaceOnUse">
			<stop  offset="0" style="stop-color:#8065E0"/>
			<stop  offset="1" style="stop-color:#512BD4"/>
		</radialGradient>
		<path fill="url(#SVGID_10_)" d="M739,954.1c38.1,0,68.9-30.8,68.9-68.9S777,816.3,739,816.3s-68.9,30.8-68.9,68.9
			C670.1,923.2,700.9,954.1,739,954.1z"/>
		
			<radialGradient id="SVGID_11_" cx="300.6872" cy="-7738.6357" r="6.0492" gradientTransform="matrix(22.7292 0 0 22.7292 -6329.5078 177046.75)" gradientUnits="userSpaceOnUse">
			<stop  offset="0" style="stop-color:#8065E0"/>
			<stop  offset="1" style="stop-color:#512BD4"/>
		</radialGradient>
		<path fill="url(#SVGID_11_)" d="M508.6,1277.3c39.1,0,70.8-31.7,70.8-70.8s-31.7-70.8-70.8-70.8s-70.8,31.7-70.8,70.8
			C437.9,1245.7,469.5,1277.3,508.6,1277.3z"/>
		<path fill="#D8CFF7" d="M739.7,415.8c-26.2,7-53.3-8.4-60.5-34.4c-7.2-26,8.2-52.7,34.5-59.7c26.2-7,53.3,8.4,60.5,34.4
			C781.4,382.1,766,408.8,739.7,415.8z"/>
	</g>
	<g display="inline">
		<path fill="#D2F6FE" d="M1070.4,1941.9c-797.7,13.1-902.2-35.7-961-301c-114-514.6,131.9-729.1,29-1154.9
			C42.5,88.9,638.8-9.4,1254.5,30.8s707.1,214.3,603.2,554.1c-72.9,238.5-53.6,535.6,80.4,836.9S1613.6,1932.9,1070.4,1941.9z"/>
		<path fill="#A3C9F6" d="M1172.4,379.5h-89.6c-4.9,0-8.9-4-8.9-8.9V342c0-4.9,4-8.9,8.9-8.9h89.6c4.9,0,8.9,4,8.9,8.9v28.6
			C1181.3,375.5,1177.3,379.5,1172.4,379.5z"/>
		<path fill="#9C9894" d="M109.4,1640.9c58.8,265.3,163.3,314.1,961,301c514.3-8.4,952.6-197,884.2-472.7H82.8
			C87.4,1522.7,95.8,1579.7,109.4,1640.9z"/>
		<path fill="#BDD8F9" d="M975.7,851.4v199.7h646.8V851.4H975.7z M1269.4,1013.5h-130.7V882.1h130.7V1013.5z M1430.4,1013.5h-130.7
			V882.1h130.7V1013.5z M1590.1,1013.5h-130.7V882.1h130.7V1013.5z"/>
		<path fill="#A3C9F6" d="M937.8,1039.3v412.2h866.9v-412.2H937.8z M1109.3,1218.9H977.6v-131.4h131.7L1109.3,1218.9L1109.3,1218.9z
			 M1271.6,1218.9h-131.7v-131.4h131.7L1271.6,1218.9L1271.6,1218.9z M1432.9,1218.9h-131.7v-131.4h131.7V1218.9z M1595.2,1218.9
			h-131.7v-131.4h131.7V1218.9z M1756.1,1218.9h-131.7v-131.4h131.7L1756.1,1218.9L1756.1,1218.9z"/>
		<g>
			<rect x="1780.6" y="924.5" fill="#8DBCF4" width="24.1" height="513.5"/>
			<rect x="1608.1" y="684.8" fill="#8DBCF4" width="24.1" height="753.3"/>
			<rect x="1435.7" y="684.8" fill="#8DBCF4" width="24.1" height="753.3"/>
			<rect x="1263.2" y="684.8" fill="#8DBCF4" width="24.1" height="753.3"/>
			<rect x="1090.8" y="768" fill="#8DBCF4" width="24.1" height="670.1"/>
			<rect x="1020.1" y="836" fill="#8DBCF4" width="675.6" height="23.6"/>
			<rect x="1020.1" y="1028.5" fill="#8DBCF4" width="784.6" height="23.6"/>
		</g>
		<path fill="#FDD99C" d="M1524.4,1438.1c-37-32.3-155.6-124.7-263.2-89.7c-88.4,28.7-176.3,75.2-202.9,89.7H1524.4z"/>
		<path fill="#BDD8F9" d="M885.7,286.4l2.1-9.8L404.9,172.8c-6,2.1-11.8,4.3-17.6,6.5L885.7,286.4z"/>
		<rect x="328.7" y="455.6" fill="#A3C9F6" width="86" height="23"/>
		<rect x="464.5" y="325.4" fill="#BDD8F9" width="741.1" height="13.1"/>
		<path fill="#BDD8F9" d="M191.2,357.5v-13.1H135c-1,4.3-1.9,8.7-2.7,13.1H191.2z"/>
		<g>
			<path fill="#BDD8F9" d="M428.6,1518.6H313.7V479.4h114.9V1518.6z M327.1,1505.2h88.1V492.8h-88.1V1505.2z"/>
		</g>
		<path fill="#BDD8F9" d="M383.1,189.8l30.5,134.9h-84.8l30.3-134c-5.1,2.2-10.2,4.4-15.2,6.7L312,338h118.3l-36.4-161.2
			c-11.2,4.2-22.2,8.5-32.8,13H383.1z"/>
		<g>
			<polygon fill="#BDD8F9" points="419.6,329.1 330.8,292.7 330.8,283.4 393.2,257.8 342.7,233.7 342.6,224.7 389.3,200.4 
				393.9,209.3 356.1,229 407.8,253.6 407.5,262.8 346,288 423.4,319.8 			"/>
		</g>
		<path fill="#8DBCF4" d="M469.5,408v-76.5c0-3.7-3-6.7-6.7-6.7h-273c-3.7,0-6.7,3-6.7,6.7V414c0,3.7,3,6.7,6.7,6.7h68.2
			c1.1,0,2.3,0.3,3.3,0.9c24.7,13.8,61.2,35.3,69.1,40c1,0.6,2.2,0.9,3.4,0.9h133.6c2.5,0,4.8-1.4,6-3.6l16.2-31.1
			c1.9-3.7,0.1-8.2-3.9-9.5l-11.5-3.8C471.3,413.5,469.5,410.9,469.5,408z"/>
		<path fill="#BDD8F9" d="M409,394.2l77.4,24.2c-1.9-1.2-17-79.9-17-79.9H409L409,394.2L409,394.2z"/>
		<path fill="#BDD8F9" d="M331.8,554.3l93.1-64.9h-18.9l-83.4,58.2V561l83.5,58.2l-83.5,58.2v13.4l83.5,58.2l-83.5,58.2v13.4
			l83.5,58.2l-83.5,58.2v13.4l83.5,58.2l-83.5,58.2v13.4l83.5,58.2l-83.5,58.2v13.4l83.5,58.2l-83.5,58.2v13.4l83.5,58.2l-83.5,58.2
			v13.4l62.2,43.4c6.4,0.1,12.9,0.2,19.3,0.2l-72.2-50.3l93.1-64.9l-93.1-64.9l93.1-64.9l-93.1-64.9l93.1-64.9l-93.1-64.9l93.1-64.9
			l-93.1-64.9l93.1-64.9l-93.1-64.9l93.1-64.9L331.8,684l93.1-64.9L331.8,554.3z"/>
		<rect x="300.2" y="478.6" fill="#8DBCF4" width="141.2" height="18.7"/>
		<rect x="319.3" y="549.7" fill="#BDD8F9" width="105.6" height="10.4"/>
		<rect x="319.3" y="613.8" fill="#BDD8F9" width="105.6" height="10.4"/>
		<rect x="319.3" y="679.5" fill="#BDD8F9" width="105.6" height="10.4"/>
		<rect x="319.3" y="743.4" fill="#BDD8F9" width="105.6" height="10.4"/>
		<rect x="319.3" y="808.2" fill="#BDD8F9" width="105.6" height="10.4"/>
		<rect x="319.3" y="873" fill="#BDD8F9" width="105.6" height="10.4"/>
		<rect x="319.3" y="938.1" fill="#BDD8F9" width="105.6" height="10.4"/>
		<rect x="319.3" y="1003.7" fill="#BDD8F9" width="105.6" height="10.4"/>
		<rect x="319.3" y="1068.6" fill="#BDD8F9" width="105.6" height="10.4"/>
		<rect x="319.3" y="1133.4" fill="#BDD8F9" width="105.6" height="10.4"/>
		<rect x="319.3" y="1197.8" fill="#BDD8F9" width="105.6" height="10.4"/>
		<rect x="319.3" y="1262.5" fill="#BDD8F9" width="105.6" height="10.4"/>
		<rect x="1124.6" y="343.7" fill="#A3C9F6" width="8.5" height="265.8"/>
		<circle fill="#A3C9F6" cx="1128.6" cy="608.2" r="13.9"/>
		<polygon fill="#A3C9F6" points="1280.9,695.7 1128.6,612 984,694.4 980.7,688.6 1128.5,604.4 1130.2,605.3 1284.2,689.8 		"/>
		<rect x="942.5" y="684.1" fill="#BDD8F9" width="372.4" height="63.5"/>
		<path fill="#BDD8F9" d="M390.4,338.5H337c-2.5,0-4.6,2-4.6,4.6v21.6c0,3.3,2.1,6.2,5.3,7.2l52.7,16.5V338.5z"/>
		<g>
			<path fill="#F7B548" d="M80.6,1439.1c0.2,3.5,0.4,6.9,0.7,10.4C81.1,1446.1,80.8,1442.6,80.6,1439.1z"/>
			<path fill="#FDD99C" d="M1031.5,1438.1C935.4,1410,915,1321,782.4,1326.3c-69.3,2.8-205.1,69.5-262.5,58.7
				c-54.5-10.2-146.8-122.8-441-11.3c-0.8,20.6-0.4,42,1.7,64.3H1031.5z"/>
			<path fill="#F7B548" d="M81.6,1453.4c0.2,3,0.4,5.9,0.7,8.9C82,1459.3,81.8,1456.3,81.6,1453.4z"/>
		</g>
		<path fill="#625F5B" d="M109.4,1640.9c5.2,23.5,10.8,45.4,17.2,65.6h1749.6c77.2-75.4,106.9-165.9,69-267.3H80.6
			C84.4,1501.3,93.3,1568.1,109.4,1640.9z"/>
		<path fill="#9C9894" d="M109.4,1640.9c58.8,265.3,163.3,314.1,961,301c491.3-8.1,913.2-180.5,890.3-436.2
			c-33.3-7.2-92.5-4.2-130.9,0.7c-53.6,6.7-157.4,23.4-157.4,23.4s-115.5-45.4-221-31.8c-105.5,13.6-116.7,23.4-188.1,13.6
			s-121.7-20.3-178.9-36.7s-196.6,36.7-196.6,36.7l-83.7-36.7l-173,38.3c0,0-240.1-47.5-542.1,12.3
			C93.8,1562.2,100.5,1600.6,109.4,1640.9z"/>
		<g>
			<polygon fill="#FFFFFF" points="1829.3,1577.8 1829.3,1313.8 1809.8,1313.8 1809.8,1484.3 1535.6,1484.3 1535.6,1313.8 
				1516.1,1313.8 1516.1,1577.8 1487.3,1577.8 1487.3,1590.2 1564.9,1590.2 1564.9,1577.8 1535.6,1577.8 1535.6,1501.4 
				1809.8,1501.4 1809.8,1577.8 1781.3,1577.8 1781.3,1590.2 1858.8,1590.2 1858.8,1577.8 			"/>
			<path fill="#FFFFFF" d="M1837,1439.5h-331.4c-7.2,0-12.9-5.8-12.9-12.9v-84.6c0-7.2,5.8-12.9,12.9-12.9H1837
				c7.2,0,12.9,5.8,12.9,12.9v84.6C1849.9,1433.7,1844.1,1439.5,1837,1439.5z"/>
			<g>
				<path fill="#E86E58" d="M1578.6,1329H1530l-37.3,70.3v30.8c0,5.2,4.2,9.4,9.4,9.4h17.9L1578.6,1329z"/>
				<polygon fill="#E86E58" points="1720.3,1329 1661.6,1439.5 1710.2,1439.5 1768.9,1329 				"/>
				<path fill="#E86E58" d="M1840.2,1329h-24.7l-58.7,110.5h48.6l44.6-83.9v-16.8C1849.9,1333.3,1845.5,1329,1840.2,1329z"/>
				<polygon fill="#E86E58" points="1566.4,1439.5 1615.1,1439.5 1673.7,1329 1625.1,1329 				"/>
			</g>
		</g>
		<path fill="#FFFFFF" d="M1793.5,379.4h-574.9c0,0,59.2-69.2,173-92.6s149.6,40.2,149.6,40.2s42.4-88.2,122.8-81.5
			C1744.4,252.2,1793.5,379.4,1793.5,379.4z"/>
		<polygon fill="#BBB8B4" points="432.8,1765.9 389.2,1765.9 407.1,1740.2 426,1741.3 		"/>
		<polygon fill="#BBB8B4" points="318.9,1717.9 284.3,1722.3 263.1,1714.5 276.5,1691.1 301,1686.6 		"/>
		<polygon fill="#BBB8B4" points="316.7,1610.7 278.7,1610.7 288.8,1587.2 313.3,1585 325.6,1597.3 		"/>
		<polygon fill="#BBB8B4" points="214.5,1671 154.2,1674.3 159.8,1645.3 194.4,1643.1 208.9,1650.9 		"/>
		<polygon fill="#BBB8B4" points="424.9,1870.8 395.9,1873 362.4,1858.5 374.7,1836.2 403.7,1831.7 422.7,1846.2 		"/>
		<polygon fill="#BBB8B4" points="316.7,1810.5 277.6,1812.7 277.6,1797.1 296.6,1784.8 		"/>
		<polygon fill="#BBB8B4" points="498.6,1812.7 456.2,1801.6 470.7,1781.5 490.8,1778.1 504.2,1793.8 		"/>
		<polygon fill="#BBB8B4" points="470.7,1656.2 514.2,1656.2 496.4,1630.5 477.4,1631.6 		"/>
		<polygon fill="#BBB8B4" points="1416.2,1746.6 1450.8,1751.1 1472,1743.2 1458.6,1719.8 1434.1,1715.3 		"/>
		<polygon fill="#BBB8B4" points="570,1600.9 608,1600.9 598,1577.5 573.4,1575.2 561.1,1587.5 		"/>
		<polygon fill="#BBB8B4" points="1609.9,1746 1670.1,1749.4 1664.6,1720.4 1630,1718.1 1615.4,1725.9 		"/>
		<polygon fill="#BBB8B4" points="1285.6,1880.6 1314.6,1882.8 1348.1,1868.3 1335.8,1845.9 1306.8,1841.5 1287.8,1856 		"/>
		<polygon fill="#BBB8B4" points="1416.8,1849.9 1455.8,1852.1 1455.8,1836.5 1436.8,1824.2 		"/>
		<polygon fill="#BBB8B4" points="1138.8,1859.9 1181.2,1848.7 1166.7,1828.7 1146.6,1825.3 1133.2,1840.9 		"/>
		<polygon fill="#BBB8B4" points="946,1764.5 980.6,1768.9 1001.8,1761.1 988.4,1737.7 963.8,1733.2 		"/>
		<polygon fill="#BBB8B4" points="693.6,1902.6 719.8,1915.2 756.3,1913.8 753,1888.5 727.5,1873.8 704.6,1880.5 		"/>
		<polygon fill="#BBB8B4" points="1016.8,1901.8 973.3,1901.8 991.2,1876.1 1010.1,1877.2 		"/>
		<polygon fill="#BBB8B4" points="820.4,1853.8 781.3,1856 781.3,1840.4 800.3,1828.1 		"/>
		<polygon fill="#BBB8B4" points="1745.8,1649.5 1789.3,1649.5 1771.4,1623.8 1752.5,1624.9 		"/>
		<polygon fill="#BBB8B4" points="1596.2,1594.8 1634.1,1594.8 1624.1,1571.3 1599.5,1569.1 1587.3,1581.4 		"/>
		<polygon fill="#BBB8B4" points="1782.6,1706.4 1817.2,1710.9 1838.4,1703.1 1825,1679.6 1800.5,1675.2 		"/>
		<polygon fill="#BBB8B4" points="686.4,1747.2 642.9,1747.2 660.8,1721.5 679.7,1722.6 		"/>
		<polygon fill="#BBB8B4" points="1075.7,1645.3 1033.3,1634.1 1047.8,1614 1067.9,1610.7 1081.3,1626.3 		"/>
		<path fill="#BDD8F9" d="M346.2,156.7h48c4.6,0,8.4,3.8,8.4,8.4v21.2c0,4.6-3.8,8.4-8.4,8.4h-48c-4.6,0-8.4-3.8-8.4-8.4v-21.2
			C337.9,160.5,341.6,156.7,346.2,156.7z"/>
		<path fill="#BDD8F9" d="M152.4,294.4l191.1-108.9c3-5.6,6-11.1,8.8-16.6L160.9,277.9C157.9,283.3,155,288.8,152.4,294.4z"/>
		<path fill="#BDD8F9" d="M1134.7,276.1H740.8h-33.5h-155l-56.2,51.1l6.8,7.4l38.4-34.9l22.6,31.3h13l27.8-38.4l27.8,38.4h13
			l27.8-38.4l27.8,38.4h6.3h6.6h0.2l27.8-38.4l27.8,38.4h13l27.8-38.4l27.8,38.4h13l27.8-38.4l27.8,38.4h13l27.8-38.4l27.8,38.4h13
			l27.8-38.4l27.8,38.4h12.9l27.8-38.4l27.8,38.4h12.9l20.7-28.5l32,33.2l7.2-7L1134.7,276.1z M570.3,324.9l-22.5-31.1l8.4-7.6h42.1
			L570.3,324.9z M638.9,324.9l-28-38.7h56L638.9,324.9z M679.5,286.2h27.9h28.1l-27.9,38.5l-0.2-0.3v0.2L679.5,286.2z M776.2,324.9
			l-28-38.7h56L776.2,324.9z M844.8,324.9l-28-38.7h56L844.8,324.9z M913.3,324.9l-28-38.7h56L913.3,324.9z M981.9,324.9l-28-38.7
			h56L981.9,324.9z M1050.5,324.9l-28-38.7h56L1050.5,324.9z M1119,324.9l-28-38.7h39.4l9.5,9.8L1119,324.9z"/>
	</g>
</g>
<g id="bot-base" display="none">
	<g display="inline">
		
			<radialGradient id="SVGID_12_" cx="322.9623" cy="-7548.2109" r="6.0492" gradientTransform="matrix(61.9498 0 0 61.9498 -18991.7578 468373.8125)" gradientUnits="userSpaceOnUse">
			<stop  offset="0.4744" style="stop-color:#A08BE8"/>
			<stop  offset="0.8618" style="stop-color:#8065E0"/>
		</radialGradient>
		<path fill="url(#SVGID_12_)" d="M1300.2,935.2c24.9-95.5,8.8-171.7,8.8-171.7h22.4l0.5-0.4c-32.2-175.2-185.6-307.9-370-307.9
			c-207.8,0-376.3,168.5-376.3,376.3s168.4,376.3,376.3,376.3c164,0,303.5-104.9,355-251.2C1318.4,950.3,1318.3,939.2,1300.2,935.2z
			"/>
		<path fill="#D8CFF7" d="M1286.4,1022.1H637.5c14.6,24.8,31.9,47.7,51.5,68.4h545.8C1254.5,1069.7,1271.8,1046.8,1286.4,1022.1z"/>
		
			<radialGradient id="SVGID_13_" cx="326.1273" cy="-7583.0786" r="6.0492" gradientTransform="matrix(48.2581 0 0 48.2581 -14506.1797 366639.4062)" gradientUnits="userSpaceOnUse">
			<stop  offset="9.330000e-02" style="stop-color:#E1DFDD"/>
			<stop  offset="0.8998" style="stop-color:#FFFFFF"/>
		</radialGradient>
		<path fill="url(#SVGID_13_)" d="M1300.2,935.2c24.6-94.3,9.2-169.7,8.9-171.6H918.6c0,0-24.6-2.5-24.6,20s0.9,85.9,0.9,156.2
			c0,14.4,11.8,21.4,21.1,21.4C916.1,961.1,1256.6,961.1,1300.2,935.2z"/>
		<path fill="#A08BE8" d="M1065,935.4c0,0,60.1-47.5,71.8-56.3c11.7-8.8,22-9.3,32.7,0s70.8,56.3,70.8,56.3H1065z"/>
		<path fill="#512BD4" d="M1315.4,960.9c0,0,10.4-20.1-15.2-25.7c0-0.1-383.8-0.3-383.8-0.3c-8.9,0-20.4-5.3-21.4-14
			c0,6.2,0,12.5,0,18.8c0,13.1,9.8,20,18.5,21.2c0.9,0.1,1.8,0.2,2.7,0.2h26.2L1315.4,960.9z"/>
		<path fill="#512BD4" d="M1084.8,1110.8l123.2-0.6l-0.5-108.9l-123.2,0.6L1084.8,1110.8z"/>
		<path fill="#FFFFFF" d="M1106.1,1070.1c-0.8,0-1.5-0.3-2.1-0.8c-0.6-0.6-0.9-1.2-0.9-2c0-0.8,0.3-1.5,0.9-2
			c0.6-0.6,1.3-0.8,2.1-0.8c0.8,0,1.5,0.3,2.1,0.8c0.6,0.5,0.9,1.2,0.9,2s-0.3,1.4-0.9,2C1107.7,1069.8,1107,1070.1,1106.1,1070.1z"
			/>
		<path fill="#FFFFFF" d="M1138.9,1069.5h-5.3l-14.1-22.1c-0.3-0.5-0.7-1.2-0.9-1.8h-0.1c0.1,0.6,0.2,2,0.2,4.1l0,19.7h-4.7
			l-0.1-30.1h5.7l13.6,21.6c0.6,0.9,0.9,1.5,1.1,1.8h0.1c-0.2-0.8-0.2-2.2-0.2-4.1l0-19.4h4.7L1138.9,1069.5z"/>
		<path fill="#FFFFFF" d="M1161.8,1069.5l-16.5,0l-0.1-30.1l15.8,0v4.2l-10.9,0l0,8.5l10.1,0v4.2l-10.1,0l0,8.9l11.6,0
			L1161.8,1069.5L1161.8,1069.5z"/>
		<path fill="#FFFFFF" d="M1185.2,1043.5l-8.4,0l0.1,25.9h-4.9l-0.1-25.9l-8.4,0v-4.2l21.7-0.1L1185.2,1043.5z"/>
	</g>
	<g display="inline">
		<path fill="#8A6FE8" d="M1300.1,996.7c-10.7,21.8-23.4,42.4-37.9,61.6c76,43.4,154.3,52.3,159.1,52.8l11.5-69.9
			C1431.9,1041,1363.7,1033.3,1300.1,996.7z"/>
		<g>
			<path fill="#FAC369" d="M1560.8,948.5c-13.5-13.3-35.2-13.1-48.5,0.4l-82.9,85.3l-0.5,0.3l-28.9,87.2
				c35.2,11.2,89.6,17.3,89.6,17.3l35.7-106l35.9-36C1574.5,983.5,1574.3,961.8,1560.8,948.5z"/>
			<g>
				
					<rect x="1684.6" y="827.5" transform="matrix(0.4167 -0.909 0.909 0.4167 229.6091 2053.7627)" fill="#625F5B" width="61.1" height="41"/>
				<path fill="#625F5B" d="M1436.9,1309.7l-25.3-11.6c-10.7-4.9-15.3-17.5-10.5-28.2l191.3-420.1c4.9-10.7,17.5-15.3,28.2-10.5
					l25.3,11.6c10.7,4.9,15.3,17.5,10.5,28.2L1465,1299.2C1460.1,1309.9,1447.5,1314.6,1436.9,1309.7z"/>
				<path fill="#908D89" d="M1742.8,915.5l-36.5-16.7c-3-1.4-4.3-4.9-2.9-7.8l35.2-76.8c1.4-3,4.9-4.3,7.8-2.9l36.5,16.7
					c3,1.4,4.3,4.9,2.9,7.8l-35.2,76.8C1749.2,915.5,1745.7,916.8,1742.8,915.5z"/>
				<path fill="#908D89" d="M1605.5,744.8c-52-23.9-112.4,20.5-128.9,33.8c-2.4,2-2.9,5.6-1,8.1l0,0c1.7,2.2,4.7,3,7.2,1.8
					c11-5.2,40.8-17.7,59.8-9c19.4,8.9,22.3,38.8,22.7,49.2c0.1,2.2,1.4,4.2,3.4,5.2l112.3,51.5c3,1.4,6.5,0.1,7.8-2.9l35.2-76.8
					c1.4-3,0.1-6.5-2.9-7.8L1605.5,744.8z"/>
			</g>
			<path fill="#E29E3B" d="M1439.6,1025.5l-21.9,107.4c-0.8,4.1-4.8,6.7-8.8,5.8l-46.3-9.5c-4.1-0.8-6.7-4.8-5.8-8.8l21.9-107.4
				c0.8-4,4.8-6.7,8.8-5.8l46.3,9.5C1437.8,1017.5,1440.4,1021.5,1439.6,1025.5z"/>
			<path fill="#FAC369" d="M1623.8,1053.8L1623.8,1053.8c0.6-18.8-14.2-34.5-33-35.1l-30-0.9c-18.8-0.6-34.5,14.2-35.1,33l0,0
				c-0.2,5.5,1,10.8,3.2,15.4c-14.8,3.3-26.1,16.3-26.6,32.2l0,0c-0.2,6.4,1.4,12.4,4.3,17.6c-15.6,2.7-27.7,16.1-28.2,32.5l0,0
				c-0.6,18.8,14.2,34.5,33,35.1l30,0.9c18.8,0.6,34.5-14.2,35.1-33l0,0c0.2-6.4-1.4-12.4-4.3-17.6c15.6-2.7,27.7-16.1,28.2-32.5
				l0,0c0.2-5.5-1-10.8-3.2-15.4C1612,1082.6,1623.3,1069.6,1623.8,1053.8z"/>
			<path fill="#F1AE44" d="M1596.7,1038.1l-67.5-1.5c-2.1,4.3-3.4,9.1-3.6,14.2c-0.2,5,0.8,9.8,2.6,14.2l67.8,1.5
				c7.8,0.2,14.3-6,14.5-13.8C1610.8,1044.7,1604.6,1038.2,1596.7,1038.1z"/>
			<path fill="#F1AE44" d="M1576,1086.3l-70.4-1.6c-2,4.1-3.2,8.7-3.3,13.6c-0.2,5.2,0.9,10.2,2.9,14.7l70.2,1.6
				c7.8,0.2,14.3-6,14.5-13.8C1590,1093,1583.8,1086.5,1576,1086.3z"/>
			<path fill="#F1AE44" d="M1563.5,1150.1c0.2-7.8-6-14.3-13.8-14.5l-67.6-1.5c-2.2,4.3-3.5,9.2-3.7,14.4c-0.2,4.9,0.8,9.6,2.5,13.9
				l68.1,1.5C1556.8,1164.1,1563.3,1157.9,1563.5,1150.1z"/>
		</g>
	</g>
	<g display="inline">
		<g>
			<path fill="#CC5444" d="M1037.5,994.5c-90.7,0-148.8-31.9-182-59.2c-18.3-15-29.6-29.3-36-38.6c-3.7-5.4-12.2-18.9-12.2-27.9
				v-94.7l7.1-1.9c1.2-0.3,75.9-26.6,235.7-36.4c83.9-5.1,209.5,3.1,259.8,11c54.6,8.6,91.2,11.2,92.6,11.7l6.5,1.8l0.4,5.8
				c0.3,3.6,6.8,87.5,6.2,103c-0.6,17.3-27.6,48.7-53.8,70.8c-21.9,18.5-65.8,49.7-113.6,51.5c-25.8,1-43.5,0.3-52.7-16.9
				c-9.7-18-20.8-40.5-31.3-62.1c-6-12.3-9.7-12.3-20.7-12.3c-0.9,0-1.8,0-2.8,0c-12.2-0.1-19.6-0.1-25.5,11
				c-4.8,9.1-8.4,18.9-11.9,28.3c-9.8,26.5-19.9,54-56.4,54.9C1043.9,994.5,1040.6,994.5,1037.5,994.5z"/>
			
				<linearGradient id="SVGID_14_" gradientUnits="userSpaceOnUse" x1="1111.5055" y1="1022.86" x2="1111.5055" y2="1255.5492" gradientTransform="matrix(1 0 0 -1 0 2000)">
				<stop  offset="0.232" style="stop-color:#FFFFFF"/>
				<stop  offset="0.6161" style="stop-color:#D5D3D0"/>
			</linearGradient>
			<path fill="url(#SVGID_14_)" d="M827.8,787v81.9c0,4.2,10.7,28.4,42.5,54.4c30.4,24.8,83.8,53.9,167.3,53.9c3,0,6,0,9-0.1
				c20.8-0.5,27.5-15.8,37.4-42.7c3.7-9.9,7.4-20.1,12.7-30.2c11.3-21.6,31.2-21.5,44.4-21.4c0.9,0,1.8,0,2.6,0
				c16.1,0,29.2,1.7,39.6,23c10,20.5,21.5,43.8,31.1,61.6c2.9,5.4,5.4,7.8,33.1,6.7c29.8-1.1,66.3-18.1,100-46.5
				c30.3-25.5,47.4-51.1,47.8-59c0.4-11-3.3-64.1-5.7-95.3c-29-7.4-150.7-35.7-287.7-27.3C966,754.3,856.1,779.9,827.8,787z"/>
			
				<linearGradient id="SVGID_15_" gradientUnits="userSpaceOnUse" x1="1071.9399" y1="1022.85" x2="1071.9399" y2="1247.6118" gradientTransform="matrix(1 0 0 -1 0 2000)">
				<stop  offset="5.740000e-02" style="stop-color:#FFFFFF"/>
				<stop  offset="0.6161" style="stop-color:#A7A4A0"/>
			</linearGradient>
			<path fill="url(#SVGID_15_)" d="M1309.3,770.1c-7-18.5-177.5-19.6-294.9-16.3c-93.9,11.1-164.7,27.6-186.7,33.1v81.9
				c0,4.2,10.7,28.4,42.5,54.4c30.4,24.8,83.8,53.9,167.3,53.9c3,0,6,0,9-0.1c20.8-0.5,27.5-15.8,37.4-42.7
				c3.7-9.9,7.4-20.1,12.7-30.2c11.3-21.6,31.2-21.5,44.4-21.4c0.9,0,1.8,0,2.6,0c16.1,0,29.2,1.7,39.6,23
				c10,20.5,21.5,43.8,31.1,61.6c2.9,5.4,5.4,7.8,33.1,6.7c20.7-0.8,44.7-9.2,68.7-23.8c-2.3-12.7-15.9-15.1-15.9-15.1
				S1328.6,821.2,1309.3,770.1z"/>
			<path fill="#625F5B" d="M1412.4,765.5c0-3.6-2.4-6.8-5.9-7.6c-25.6-6.4-131.5-30.6-278.2-30.6c-169.2,0-327.6,36.1-327.6,36.1
				l1.5,43.7c0,0,153.8-38,325.3-38s285,33.1,285,33.1L1412.4,765.5L1412.4,765.5z"/>
		</g>
		<path fill="#D5D3D0" d="M901.6,804.6c228.8-43.5,419.7-4.5,419.7-4.5S1133.8,791.2,901.6,804.6z"/>
	</g>
	<g display="inline">
		<path fill="#605D5A" d="M862.2,575.7l-200.8,115c-10.5,6-23.7,0.8-27.3-10.7l-24.3-77.1L862.2,575.7z"/>
		<path fill="#FAE969" d="M582.5,579.7c-34.1,9.1-41.8,61.9,7.8,56.5c83.6-9.1,384.6-62.4,522.4-132.7
			c69.9-35.7,76.7-95.3-48.4-76.7C939.2,445.5,582.5,579.7,582.5,579.7z"/>
		
			<radialGradient id="SVGID_16_" cx="353.2427" cy="-7234.1182" r="7.4653" gradientTransform="matrix(29.3612 0 0 29.3612 -9716.7676 212775.4531)" gradientUnits="userSpaceOnUse">
			<stop  offset="0.1473" style="stop-color:#FAE969"/>
			<stop  offset="0.8465" style="stop-color:#E8D441"/>
		</radialGradient>
		<path fill="url(#SVGID_16_)" d="M572,582.2c2,11.3,12.7,19,24,17.3c39.5-6,134-22.4,250.7-57c121.4-36,187.4-72,212.4-87.5
			c7.3-4.6,10.6-13.5,8-21.7c-15.8-50-115.3-245-324.1-182.2C532,314.4,560.6,515.9,572,582.2z"/>
		<path fill="#FAE969" d="M716.6,260.1c-33.1,13-59.3,29.9-80,49.1c181.6-38.1,281.3,65.9,310.4,103.1c5.8,7.5,15.8,10.5,24.9,7.6
			l13.5-4.2c14-4.3,19.2-21.3,10.2-32.7C958.5,335.9,862.2,238.1,716.6,260.1z"/>
	</g>
	<g display="inline">
		<path fill="#FAC369" d="M510.7,1141.5c-1.8,46.1,26,59.6,39.9,95.7c19.3,50,7.7,71.2,7.7,71.2s-10.5,3.2-40.6-3.9
			c-30.1-7.1-46-40.7-47.8-72.6s-8.9-100.1-8.9-100.1L510.7,1141.5z"/>
		<g>
			<g>
				
					<linearGradient id="SVGID_17_" gradientUnits="userSpaceOnUse" x1="451.7649" y1="1033.8864" x2="451.7649" y2="649.2803" gradientTransform="matrix(0.9851 0.1719 0.1719 -0.9851 -20.9695 1770.2454)">
					<stop  offset="0.3344" style="stop-color:#9780E6"/>
					<stop  offset="0.8488" style="stop-color:#8A6FE8"/>
				</linearGradient>
				<path fill="url(#SVGID_17_)" d="M432.9,1190.4c-17.9-61.5-17.1-161.3,43.8-240c37-47.8,109.5-103.9,245.3-100l-2.8,73.1
					c-82.4-2.4-145.4,22.7-183.1,71.4c-40.8,52.7-47.4,124.9-33.5,173L432.9,1190.4z"/>
			</g>
		</g>
		
			<radialGradient id="SVGID_18_" cx="736.9418" cy="1138.2329" r="69.6227" gradientTransform="matrix(1 0 0 -1 0 2000)" gradientUnits="userSpaceOnUse">
			<stop  offset="0" style="stop-color:#8065E0"/>
			<stop  offset="1" style="stop-color:#512BD4"/>
		</radialGradient>
		<circle fill="url(#SVGID_18_)" cx="739.2" cy="885.8" r="69.6"/>
		<g>
			<path fill="#605D5A" d="M372.8,1355.6v-19.6c0-13.3,10.4-24.1,23.1-24.1h136.8c12.8,0,23.2,10.8,23.2,24.1v19.6h17.9v-19.6
				c0-23.6-18.4-42.7-41-42.7H395.9c-22.6,0-41,19.2-41,42.7v19.6H372.8z"/>
			<path fill="#E86E58" d="M694.1,1355.6H253.7c-20,0-36.1,16.8-36.1,37.6v212.4c0,20.8,16.2,37.6,36.1,37.6h440.4
				c20,0,36.1-16.9,36.1-37.6v-212.4C730.2,1372.5,714,1355.6,694.1,1355.6z"/>
			<path fill="#ED9583" d="M696.1,1355.6h-114v287.7h114c18.8,0,34.1-15.9,34.1-35.5v-216.7C730.2,1371.6,714.9,1355.6,696.1,1355.6
				z"/>
			<path fill="#605D5A" d="M730.7,1421.9H217.6v6.2h513.2V1421.9z"/>
			<path fill="#FFFFFF" d="M277.2,1445.8h-18c-3.7,0-6.6-3.1-6.6-6.9v-36.4c0-3.8,3-6.9,6.6-6.9h18c3.7,0,6.6,3.1,6.6,6.9v36.4
				C283.9,1442.7,280.9,1445.8,277.2,1445.8z"/>
			<path fill="#FFFFFF" d="M539.6,1445.8h-18c-3.7,0-6.6-3.1-6.6-6.9v-36.4c0-3.8,3-6.9,6.6-6.9h18c3.7,0,6.6,3.1,6.6,6.9v36.4
				C546.3,1442.7,543.3,1445.8,539.6,1445.8z"/>
			<path fill="#605D5A" d="M234.6,1480.8v132.7h328.9v-132.7H234.6z M557.5,1487v56.2H240.5V1487H557.5z M240.5,1607.3v-57.9h316.9
				v57.9H240.5z"/>
			<path fill="#FFFFFF" d="M541,1505.6H236.4l11.9-18.2H553L541,1505.6z"/>
			<path fill="#FFFFFF" d="M541,1567.9H236.4l11.9-18.2H553L541,1567.9z"/>
		</g>
		<path fill="#FAC369" d="M409,1147.4c-16,23-31.6,71.2-36.3,112c-4,34.3,9.2,70.6,23.3,79.5c14.2,8.9,37.8,0.6,37.8,0.6
			s7.8,15.6,22.1,15.7c17.2,0.2,32.4-19,32.4-19s12.2,16.7,25.4,12.4c20.7-6.8,28-35.2,28-35.2s-14.5-1.7-17.6-16.3
			c-3.8-18-11.5-161.1-11.5-161.1L409,1147.4z"/>
		<path fill="#F1AE44" d="M406.5,1257.2c2.2-17.8-13.3-17.5-20-5c-6,11.2-8.8,40.3,2.1,79.6c2.4,3.1,4.8,5.6,7.4,7.2
			c6.6,4.2,15.4,4.5,22.8,3.8C409.5,1318.4,403.5,1282,406.5,1257.2z"/>
		<path fill="#F1AE44" d="M513.7,1348.5c3.8-1.2,7.2-3.2,10.1-5.4c-12.9-21.3-22-56-23.5-78.2c-1.7-25.8-22.2-25.3-27.2-6.1
			c-4.1,15.9,2.2,48.8,17.3,80C494.5,1343.2,503.8,1351.7,513.7,1348.5z"/>
		<path fill="#F1AE44" d="M426.3,1258.2c-4.5,19.5-5,46.5,7.1,77.9c0.4-0.1,0.7-0.2,0.7-0.2s7.6,15.3,21.7,15.4
			c5,0.1,9.8-1.6,14.1-3.8c-15.5-26.8-20.5-71.6-16.9-91C457.2,1234.1,432.2,1233.2,426.3,1258.2z"/>
		<path fill="#E29E3B" d="M513.1,1162.8H404c-4.1,0-7.5-3.3-7.5-7.5v-47.1c0-4.1,3.3-7.5,7.5-7.5h109.1c4.1,0,7.5,3.3,7.5,7.5v47.1
			C520.6,1159.4,517.2,1162.8,513.1,1162.8z"/>
	</g>
	<g display="inline">
		<path fill="#605D5A" d="M1231.4,1160.8H689.8c-7.6,0-13.8-6.2-13.8-13.8v-42.1c0-7.6,6.2-13.8,13.8-13.8h541.6
			c7.6,0,13.8,6.2,13.8,13.8v42.1C1245.1,1154.7,1239,1160.8,1231.4,1160.8z"/>
		<path fill="#797673" d="M1231.4,1160.8h-63.2c-7.6,0-13.8-6.2-13.8-13.8v-42.1c0-7.6,6.2-13.8,13.8-13.8h63.2
			c7.6,0,13.8,6.2,13.8,13.8v42.1C1245.1,1154.7,1239,1160.8,1231.4,1160.8z"/>
		<g>
			<path fill="#E8D441" d="M931.8,1275.7H777.7c-10.3,0-18.7-8.4-18.7-18.7v-131.4c0-10.3,8.4-18.7,18.7-18.7h154
				c10.3,0,18.7,8.4,18.7,18.7V1257C950.4,1267.4,942.1,1275.7,931.8,1275.7z"/>
			<path fill="#FAE969" d="M838.1,1049.4l-13.2,1.6l-6.5,0.8l20.4,165.2l6.7-0.7l13-1.7L838.1,1049.4z"/>
			<path fill="#505050" d="M819.6,1045.3l0.8,6.2l15.6-1.9l-0.9-6.2L819.6,1045.3z"/>
			<path fill="#E8D441" d="M818.3,1051.8l20.4,165.2l6.7-0.7L824.8,1051L818.3,1051.8z"/>
			<path fill="#FAE969" d="M835.8,1031.7c-0.1-1.7-1.7-2.8-3.1-2.6c-7.5,1-7.5,1-7.5,1c-0.7,0.1-1.8,0.2-3,0.3
				c-0.9,0.1-2,0.3-2.7,0.3c-0.9,0.2-1,0.1-1,0.1c-1.5,0.2-2.6,1.7-2.5,3.2c1.5,11.6,1.5,11.6,1.5,11.6c6.5-1,6.5-1,6.5-1
				c13-1.7,13-1.7,13-1.7L835.8,1031.7z"/>
			<path fill="#E8D441" d="M824.2,1044.6l-1.8-14.2l-3.9,0.5c-2,0.3-2.5,1.9-2.3,4.1c0.3,2.2,1.4,10.7,1.4,10.7L824.2,1044.6z"/>
			<path fill="#EEEDEC" d="M805.5,1036.8c-3.2-8.5-9-14.4-15.9-18c-1.1-0.6-2.3-1.1-3.5-1.6s-2.4-0.9-3.6-1.3
				c-1.2-0.3-2.4-0.6-3.6-0.9c-0.7-0.1-1.3,0.6-1.1,1.3l9.4,25c0.9,2.3-0.3,4.9-2.6,5.8l-14.2,5.3l-4.2,1.6
				c-2.1,0.8-4.4-0.3-5.2-2.4l-8.2-24.5c-0.3-0.8-1.3-1.1-1.8-0.5c-8.4,8.5-11.8,20.7-7.1,33.3c5.6,11.7,16.3,20.2,29,20.4l35,93.4
				c3,8.2,12.2,11,19.2,7.5c0.1-0.1,0.3-0.1,0.5-0.1c6.9-2.6,10.6-10.1,8.5-17.1c-0.1-0.3-0.1-0.5-0.2-0.7
				c-2.3-6.2-23.9-61.6-36.5-94.2C807,1060.6,810,1048.9,805.5,1036.8z M824.2,1175c-3.8,1.4-7.9-0.5-9.3-4.2
				c-1.4-3.8,0.5-7.9,4.2-9.3c3.8-1.4,7.9,0.5,9.3,4.2C829.9,1169.4,828,1173.5,824.2,1175z"/>
			<path fill="#FAE969" d="M921.1,1260H785.6c-7,0-12.7-5.7-12.7-12.7c0,0,0-88.8,0-123.7c96.3,29,161.3,0,161.3,0v123.2
				C934.2,1254.2,928.3,1260,921.1,1260z"/>
		</g>
		<path fill="#605D5A" d="M1225.1,1117.4h-52.2v15.2h52.2c4.2,0,7.6-3.4,7.6-7.6C1232.7,1120.8,1229.2,1117.4,1225.1,1117.4z"/>
	</g>
</g>
<g id="asset">
	<g>
		<g>
			<polygon fill="#4D4D4D" points="1271.5,1514.3 1214,1501.9 1268.9,1489.4 			"/>
			<g>
				<path fill="#666666" d="M1489.7,1624.2c0-36.8-28-72.5-62.5-79.7l-262.1-54.4c-9.8-2-19.2-1.5-27.4,1.1
					c-15.5,2.9-43,7.7-83.3,15c-16.6,3,8.1,23.9,49.4,50.8c5.7,31.8,31,60.2,61.3,66.5l82.8,17.2c57.6,30.9,106.4,54.6,111.2,53.8
					c12.9-2.1,63.5-9.6,92.5-16.6c0,0,0.1-0.1,0.1-0.3C1474,1672.1,1489.7,1651.7,1489.7,1624.2z"/>
				<path fill="#908D89" d="M1356.2,1576.3l98.9-18.9c-4.8-3.6-10-6.6-15.4-8.9l-101.5,19.4
					C1344.5,1569.7,1350.6,1572.6,1356.2,1576.3z"/>
				<path fill="#908D89" d="M1286.7,1555.7l101.2-19.4l-22.8-4.7l-101.9,19.5C1248.9,1548.4,1308.3,1560.2,1286.7,1555.7z"/>
				<path fill="#908D89" d="M1221.9,1542.3l101.2-19.4l-22.8-4.7l-101.9,19.5C1184,1535,1243.5,1546.7,1221.9,1542.3z"/>
				<path fill="#908D89" d="M1157.1,1528.8l101.2-19.4l-22.8-4.7l-101.9,19.5C1119.2,1521.5,1178.7,1533.3,1157.1,1528.8z"/>
				<path fill="#908D89" d="M1387.3,1619.4c0-0.5-0.1-1.1-0.1-1.6l98.2-18.8c-1.3-3.8-2.8-7.4-4.6-11l-96.5,18.5
					C1381.9,1601.1,1384.3,1608.8,1387.3,1619.4z"/>
				<path fill="#908D89" d="M1387.9,1653.3c-1.3,4.7-3.2,9.1-5.5,12.9l103.4-19.9c1.4-3.9,2.5-8.1,3.2-12.5L1387.9,1653.3z"/>
				<path fill="#56534F" d="M1339.1,1679.4l-262.8-54.5c-26.4-5.5-47.8-32.7-47.8-60.9l0,0c0-28.2,21.4-46.5,47.8-41.1l262.8,54.5
					c26.4,5.5,47.8,32.7,47.8,60.9l0,0C1386.8,1666.5,1365.4,1684.9,1339.1,1679.4z"/>
				<g>
					<path fill="#EEEDEC" d="M1339.7,1693.9l-262.1-54.4c-34.5-7.2-62.5-42.9-62.5-79.7s28-60.9,62.5-53.7l262.1,54.4
						c34.5,7.2,62.5,42.9,62.5,79.7C1402.2,1676.9,1374.2,1701,1339.7,1693.9z M1077.6,1532c-21.1-4.4-38.2,10.4-38.2,32.8
						s17.1,44.3,38.2,48.7l262.1,54.4c21.1,4.4,38.2-10.4,38.2-32.8c0-22.5-17.1-44.3-38.2-48.7L1077.6,1532z"/>
				</g>
				
					<ellipse transform="matrix(0.837 -0.5473 0.5473 0.837 -672.5804 996.2593)" fill="#E29E3B" cx="1335.7" cy="1626.9" rx="30.6" ry="37.8"/>
				
					<ellipse transform="matrix(0.837 -0.5473 0.5473 0.837 -679.053 922.7211)" fill="#E29E3B" cx="1209.1" cy="1601" rx="30.6" ry="37.8"/>
				
					<ellipse transform="matrix(0.837 -0.5473 0.5473 0.837 -684.1779 848.1196)" fill="#E29E3B" cx="1081.3" cy="1572.3" rx="30.6" ry="37.8"/>
			</g>
			<path fill="#CC5444" d="M1145.4,1476l140.7-23.8l0.1,63.2l-17.8-3.7l-1.6-18.5l-100.2,21c0,0-4.5,70.9-5.8,80.8
				s-22.8,10.4-22.8,10.4L1145.4,1476"/>
			<polygon fill="#F8B8A4" points="1086.9,1463.6 1145.4,1476.2 1285.9,1452.3 1225,1439.4 			"/>
			<path fill="#EA7F6B" d="M1122.8,1592.5c4.5,16.3,22.8,16,23.2,5.5s-0.7-122.1-0.7-122.1l-58.3-12.3
				C1087.1,1463.6,1119.3,1580,1122.8,1592.5z"/>
		</g>
		
			<linearGradient id="SVGID_19_" gradientUnits="userSpaceOnUse" x1="1142.1095" y1="836.04" x2="1142.1095" y2="540.2054" gradientTransform="matrix(1 0 0 -1 0 2000)">
			<stop  offset="0" style="stop-color:#522CD5"/>
			<stop  offset="0.4397" style="stop-color:#8A6FE8"/>
		</linearGradient>
		<path fill="url(#SVGID_19_)" d="M1073.3,1191c61.2,101.3,67.9,218.9,66.7,264.5c-0.2,3.9,36.1,7.4,71-0.6
			c0.6-58.2-14.8-190.4-72.6-291.1C1117.7,1174.9,1095.9,1184,1073.3,1191z"/>
		<g>
			<polygon fill="#4D4D4D" points="925.7,1538.8 868.2,1526.5 923.1,1514 			"/>
			<g>
				<path fill="#666666" d="M1143.9,1648.8c0-36.8-28-72.5-62.5-79.7l-262.1-54.4c-9.8-2-19.2-1.5-27.5,1.1
					c-15.5,2.9-43,7.7-83.3,15c-16.6,3,8.1,23.9,49.4,50.8c5.7,31.8,31,60.2,61.3,66.5l82.8,17.2c57.6,30.9,106.4,54.6,111.2,53.8
					c12.9-2.1,63.5-9.6,92.5-16.6c0,0,0.1-0.1,0.1-0.3C1128.2,1696.6,1143.9,1676.2,1143.9,1648.8z"/>
				<path fill="#908D89" d="M1010.4,1600.9l98.9-18.9c-4.8-3.6-10-6.6-15.4-8.9l-101.5,19.4
					C998.7,1594.3,1004.8,1597.2,1010.4,1600.9z"/>
				<path fill="#908D89" d="M941,1580.3l101.2-19.4l-22.8-4.7l-102,19.5C903.1,1573,962.5,1584.7,941,1580.3z"/>
				<path fill="#908D89" d="M876.1,1566.9l101.2-19.4l-22.8-4.7l-102,19.5C838.3,1559.5,897.7,1571.3,876.1,1566.9z"/>
				<path fill="#908D89" d="M811.3,1553.4l101.2-19.4l-22.8-4.7l-102,19.5C773.4,1546.1,832.9,1557.8,811.3,1553.4z"/>
				<path fill="#908D89" d="M1041.5,1644c0-0.5-0.1-1.1-0.1-1.6l98.2-18.8c-1.3-3.8-2.8-7.4-4.6-11l-96.5,18.5
					C1036.2,1625.7,1038.6,1633.4,1041.5,1644z"/>
				<path fill="#908D89" d="M1042.2,1677.9c-1.3,4.7-3.2,9.1-5.5,12.9l103.4-19.9c1.4-3.9,2.5-8.1,3.2-12.5L1042.2,1677.9z"/>
				<path fill="#56534F" d="M993.3,1704l-262.8-54.5c-26.4-5.5-47.8-32.7-47.8-60.9l0,0c0-28.2,21.4-46.5,47.8-41.1l262.8,54.5
					c26.4,5.5,47.8,32.7,47.8,60.9l0,0C1041.1,1691,1019.7,1709.4,993.3,1704z"/>
				<g>
					<path fill="#EEEDEC" d="M993.9,1718.4l-262.1-54.4c-34.5-7.2-62.5-42.9-62.5-79.7s28-60.9,62.5-53.7l262.1,54.4
						c34.5,7.2,62.5,42.9,62.5,79.7C1056.4,1701.5,1028.4,1725.6,993.9,1718.4z M731.8,1556.6c-21.1-4.4-38.2,10.4-38.2,32.8
						s17.1,44.3,38.2,48.7l262.1,54.4c21.1,4.4,38.2-10.4,38.2-32.8c0-22.5-17.1-44.3-38.2-48.7L731.8,1556.6z"/>
				</g>
				
					<ellipse transform="matrix(0.837 -0.5473 0.5473 0.837 -742.4075 811.0286)" fill="#E29E3B" cx="989.9" cy="1651.5" rx="30.6" ry="37.8"/>
				
					<ellipse transform="matrix(0.837 -0.5473 0.5473 0.837 -748.8802 737.4904)" fill="#E29E3B" cx="863.3" cy="1625.6" rx="30.6" ry="37.8"/>
				
					<ellipse transform="matrix(0.837 -0.5473 0.5473 0.837 -754.005 662.8889)" fill="#E29E3B" cx="735.5" cy="1596.9" rx="30.6" ry="37.8"/>
			</g>
			<path fill="#CC5444" d="M799.6,1500.5l140.7-23.8l0.1,63.2l-17.8-3.7l-1.6-18.5l-100.2,21c0,0-4.5,70.9-5.8,80.8
				s-22.8,10.4-22.8,10.4L799.6,1500.5"/>
			<polygon fill="#F8B8A4" points="741.2,1488.2 799.6,1500.8 940.1,1476.9 879.2,1464 			"/>
			<path fill="#EA7F6B" d="M777,1617.1c4.5,16.3,22.8,16,23.2,5.5s-0.7-122.1-0.7-122.1l-58.3-12.3
				C741.3,1488.2,773.5,1604.6,777,1617.1z"/>
			
				<linearGradient id="SVGID_20_" gradientUnits="userSpaceOnUse" x1="869.5476" y1="806.7" x2="869.5476" y2="513.2833" gradientTransform="matrix(1 0 0 -1 0 2000)">
				<stop  offset="0" style="stop-color:#522CD5"/>
				<stop  offset="0.4397" style="stop-color:#8A6FE8"/>
			</linearGradient>
			<path fill="url(#SVGID_20_)" d="M933.8,1206.7c-26-1.9-51.3-6.5-75.6-13.4c-53.7,101.3-56,230.2-51.2,289.6
				c35.5,7.9,71.2,1.7,70.7-2.1C873.2,1434.6,877.8,1308.9,933.8,1206.7z"/>
		</g>
	</g>
</g>
</svg>
