<?xml version="1.0" encoding="utf-8"?>
<!-- Generator: Adobe Illustrator 24.2.0, SVG Export Plug-In . SVG Version: 6.00 Build 0)  -->
<svg version="1.1" id="Layer_1" xmlns="http://www.w3.org/2000/svg" xmlns:xlink="http://www.w3.org/1999/xlink" x="0px" y="0px"
	 viewBox="0 0 2000 2000" enable-background="new 0 0 2000 2000" xml:space="preserve">
<g id="ghost-image" display="none">
	<g display="inline" opacity="0.5">
		<path fill="#8A6FE8" d="M1469,1134.6c-57.7-4.7-181.3-73.8-228.1-150.4c-28.4-46.5,24.8-83.6,53.8-36.2
			c31.4,51.3,134.8,115.2,179.9,118.9L1469,1134.6z"/>
		<path fill="#8A6FE8" d="M1525,1005.7l-88.7,33.7c-15.8,6-23.7,23.7-17.8,39.5c6,15.8,23.7,23.7,39.5,17.8l88.7-33.7
			c15.8-6,23.7-23.7,17.8-39.5C1558.6,1007.6,1540.8,999.6,1525,1005.7z"/>
		<path fill="#8A6FE8" d="M1416.4,1155.1l37.8,51.4c10.2,13.6,29.4,16.4,43.1,6.3c13.6-10.2,16.4-29.4,6.3-43.1l-38.8-52.7
			L1416.4,1155.1z"/>
		<path fill="#8A6FE8" d="M1450.7,1158.2l76.8,42.9c14.9,8.2,33.6,2.9,41.8-12c8.2-14.8,2.9-33.6-12-41.8l-57-32.1L1450.7,1158.2z"
			/>
		<path fill="#8A6FE8" d="M1460.3,1121.8l84.6,24.4c16.3,4.7,33.4-4.7,38.2-21c4.7-16.3-4.7-33.4-21-38.2l-86.2-24.9L1460.3,1121.8z
			"/>
		
			<radialGradient id="SVGID_1_" cx="6809.7188" cy="-5504.3291" r="6.0501" gradientTransform="matrix(10.6515 0 0 10.6515 -71082.1406 59733.1016)" gradientUnits="userSpaceOnUse">
			<stop  offset="0" style="stop-color:#8065E0"/>
			<stop  offset="1" style="stop-color:#512BD4"/>
		</radialGradient>
		<path fill="url(#SVGID_1_)" d="M1451.6,1168.2c35.6,0,64.4-28.8,64.4-64.4c0-35.6-28.9-64.4-64.4-64.4
			c-35.6,0-64.4,28.8-64.4,64.4C1387.1,1139.3,1416,1168.2,1451.6,1168.2z"/>
		
			<linearGradient id="SVGID_2_" gradientUnits="userSpaceOnUse" x1="432.5013" y1="-9634.1826" x2="492.2793" y2="-9349.4707" gradientTransform="matrix(1 0 0 1 694 10730)">
			<stop  offset="0" style="stop-color:#522CD5"/>
			<stop  offset="0.4397" style="stop-color:#8A6FE8"/>
		</linearGradient>
		<path fill="url(#SVGID_2_)" d="M1216.5,1374.2c0.7-59.8-7.8-181.1-69.5-282.6l-60.3,36.6c56,92.1,60.2,199.7,58.9,246.6
			C1145.4,1378.6,1181.6,1382.1,1216.5,1374.2z"/>
		<path fill="#522CD5" d="M1145.5,1374.1l55.8-0.3l52.1,298.7l-112.1,0.5c-8.5,0-15-6.8-14.4-15.4L1145.5,1374.1z"/>
		
			<linearGradient id="SVGID_3_" gradientUnits="userSpaceOnUse" x1="468.5236" y1="-9358.0088" x2="646.134" y2="-9041.3525" gradientTransform="matrix(1 0 0 1 694 10730)">
			<stop  offset="0" style="stop-color:#522CD5"/>
			<stop  offset="0.4397" style="stop-color:#8A6FE8"/>
		</linearGradient>
		<path fill="url(#SVGID_3_)" d="M1373,1593.9c9.7,7.7,9.5,18.7,8.8,30.4l-2.3,35.8c-0.4,6.4-6,11.7-12.4,11.7l-116.8,0.5
			c-7.3,0-12.8-5.8-12.3-13.1l0.8-37.1c0.9-13.5-3.7-18.4-14.1-31.1c-17.9-21.7-70.7-140-65.7-217.1l57.5-0.3
			C1220.3,1419.5,1280.7,1521.1,1373,1593.9z"/>
		
			<radialGradient id="SVGID_4_" cx="7113.0938" cy="-5277.603" r="6.0492" gradientTransform="matrix(20.3477 -9.260000e-02 9.260000e-02 20.3477 -142942.0469 109587.8906)" gradientUnits="userSpaceOnUse">
			<stop  offset="3.400000e-02" style="stop-color:#522CD5"/>
			<stop  offset="0.9955" style="stop-color:#8A6FE8"/>
		</radialGradient>
		<path fill="url(#SVGID_4_)" d="M1381.8,1624.3c0.6-8.2,0.7-16-2.5-22.6l-145.7,0.7c4,5.9,5.7,11.1,5.2,19.7l-0.8,37.1
			c-0.5,7.3,5,13.1,12.3,13.1l116.8-0.5c6.4,0,12-5.3,12.4-11.7L1381.8,1624.3z"/>
		
			<linearGradient id="SVGID_5_" gradientUnits="userSpaceOnUse" x1="103.6376" y1="-9638.5342" x2="172.368" y2="-9315.1787" gradientTransform="matrix(1 0 0 1 694 10730)">
			<stop  offset="0" style="stop-color:#522CD5"/>
			<stop  offset="0.4397" style="stop-color:#8A6FE8"/>
		</linearGradient>
		<path fill="url(#SVGID_5_)" d="M847.6,1418.8l-71.3-8.9l40.1-322.5l71.3,8.8L847.6,1418.8z"/>
		<path fill="#522CD5" d="M781.5,1371.7l56.5-0.3l15.6,302l-113.4,0.5c-8.6,0-14.3-6.9-12.7-15.6L781.5,1371.7z"/>
		
			<linearGradient id="SVGID_6_" gradientUnits="userSpaceOnUse" x1="48.7987" y1="-9331.0107" x2="202.8451" y2="-9037.4717" gradientTransform="matrix(1 0 0 1 694 10730)">
			<stop  offset="0" style="stop-color:#522CD5"/>
			<stop  offset="0.4397" style="stop-color:#8A6FE8"/>
		</linearGradient>
		<path fill="url(#SVGID_6_)" d="M945.7,1595.1c8.7,7.9,8.5,18,6.3,29.8l-6.8,36.2c-1.2,6.5-7.5,11.8-14,11.8l-162.2,0.8
			c-7.4,0-12.2-5.9-10.8-13.2l5.8-37.5c2.6-13.6,0.6-17.7,0.8-35.1c0.5-32.8,15.6-138.2,30.3-216.2l58.2-0.2
			C851.4,1417.6,871.5,1527.9,945.7,1595.1z"/>
		
			<radialGradient id="SVGID_7_" cx="7124.3662" cy="-5260.4785" r="6.0492" gradientTransform="matrix(22.145 -0.1007 0.1006 22.1216 -156376.7031 118629.5859)" gradientUnits="userSpaceOnUse">
			<stop  offset="3.400000e-02" style="stop-color:#522CD5"/>
			<stop  offset="0.9955" style="stop-color:#8A6FE8"/>
		</radialGradient>
		<path fill="url(#SVGID_7_)" d="M763.9,1622.9l-5.8,37.5c-1.4,7.3,3.5,13.3,10.8,13.2l162.2-0.7c6.5,0,12.8-5.3,14-11.8l6.8-36.2
			c1.6-8.6,2.1-16.2-1-22.8l-185.9,0.8C765.4,1609.6,765.5,1614.4,763.9,1622.9z"/>
		<path fill="#8A6FE8" d="M804,455.8L736.5,483l-18.4-73.1l48.4-19.5L804,455.8z"/>
		<path fill="#512BD4" d="M788.8,582c38.2,0,69.1-30.9,69.1-69.1s-30.9-69.1-69.1-69.1s-69.1,30.9-69.1,69.1
			C719.7,551,750.7,582,788.8,582z"/>
		
			<radialGradient id="SVGID_8_" cx="7339.8262" cy="-5143.4028" r="6.0492" gradientTransform="matrix(61.9498 0 0 61.9498 -453685.0312 319400.9062)" gradientUnits="userSpaceOnUse">
			<stop  offset="0.4744" style="stop-color:#A08BE8"/>
			<stop  offset="0.8618" style="stop-color:#8065E0"/>
		</radialGradient>
		<path fill="url(#SVGID_8_)" d="M1300.2,939.7C1325,844.2,1309,768,1309,768h22.4l0.5-0.4c-32.2-175.2-185.6-307.9-370-307.9
			c-207.8,0-376.3,168.5-376.3,376.3s168.4,376.3,376.3,376.3c164,0,303.5-104.9,355-251.2C1318.4,954.8,1318.3,943.6,1300.2,939.7z
			"/>
		<path fill="#D8CFF7" d="M1286.4,1026.5H637.5c14.6,24.8,31.9,47.7,51.5,68.4h545.8C1254.5,1074.2,1271.8,1051.3,1286.4,1026.5z"/>
		
			<radialGradient id="SVGID_9_" cx="7310.3276" cy="-5167.4126" r="6.0492" gradientTransform="matrix(48.2581 0 0 48.2581 -351550.4062 250068.375)" gradientUnits="userSpaceOnUse">
			<stop  offset="9.330000e-02" style="stop-color:#E1DFDD"/>
			<stop  offset="0.8998" style="stop-color:#FFFFFF"/>
		</radialGradient>
		<path fill="url(#SVGID_9_)" d="M1300.2,939.7c24.6-94.3,9.2-169.7,8.9-171.6H918.6c0,0-24.6-2.5-24.6,20s0.9,85.9,0.9,156.2
			c0,14.4,11.8,21.4,21.1,21.4C916.1,965.6,1256.6,965.6,1300.2,939.7z"/>
		<path fill="#A08BE8" d="M1065,939.9c0,0,60.1-47.5,71.8-56.3c11.7-8.8,22-9.3,32.7,0s70.8,56.3,70.8,56.3H1065z"/>
		<path fill="#512BD4" d="M1315.4,965.3c0,0,10.4-20.1-15.2-25.7c0-0.1-383.8-0.3-383.8-0.3c-8.9,0-20.4-5.3-21.4-14
			c0,6.2,0,12.5,0,18.8c0,13.1,9.8,20,18.5,21.2c0.9,0.1,1.8,0.2,2.7,0.2h26.2L1315.4,965.3z"/>
		<path fill="#512BD4" d="M1286.5,851.6c0.4-27.3-12.4-49.7-28.7-49.9s-29.8,21.7-30.2,49c-0.4,27.3,12.4,49.7,28.7,49.9
			C1272.6,900.9,1286.1,879,1286.5,851.6z"/>
		<path fill="#8065E0" d="M1256.7,825c-10.8,10.8-10.8,28.2,0,38.9c7.4,7.4,17.8,9.7,27.2,7c1.6-5.9,2.5-12.4,2.6-19.3
			c0.2-13.4-2.8-25.6-7.8-34.6C1270.9,816.4,1262.8,819,1256.7,825z"/>
		<path fill="#512BD4" d="M1020.8,900.9c16.3-0.2,29.1-22.6,28.7-49.9s-13.9-49.3-30.2-49c-16.2,0.2-29.1,22.6-28.7,49.9
			C991,879.2,1004.5,901.2,1020.8,900.9z"/>
		<path fill="#8065E0" d="M1019.8,826.6c-10.8,10.8-10.8,28.2,0,38.9c7.3,7.3,17.7,9.6,27,7c1.8-6.5,2.8-13.8,2.6-21.6
			c-0.2-12.4-3.1-23.7-7.7-32.3C1033.9,818,1025.8,820.6,1019.8,826.6z"/>
		<path fill="#512BD4" d="M1084.8,1115.2l123.2-0.6l-0.5-108.9l-123.2,0.6L1084.8,1115.2z"/>
		<path fill="#FFFFFF" d="M1106.1,1074.5c-0.8,0-1.5-0.3-2.1-0.8c-0.6-0.6-0.9-1.2-0.9-2c0-0.8,0.3-1.5,0.9-2
			c0.6-0.6,1.3-0.8,2.1-0.8c0.8,0,1.5,0.3,2.1,0.8c0.6,0.5,0.9,1.2,0.9,2s-0.3,1.4-0.9,2C1107.7,1074.2,1107,1074.5,1106.1,1074.5z"
			/>
		<path fill="#FFFFFF" d="M1138.9,1074h-5.3l-14.1-22.1c-0.3-0.5-0.7-1.2-0.9-1.8h-0.1c0.1,0.6,0.2,2,0.2,4.1l0,19.7h-4.7l-0.1-30.1
			h5.7l13.6,21.6c0.6,0.9,0.9,1.5,1.1,1.8h0.1c-0.2-0.8-0.2-2.2-0.2-4.1l0-19.4h4.7L1138.9,1074z"/>
		<path fill="#FFFFFF" d="M1161.8,1073.9l-16.5,0l-0.1-30.1l15.8,0v4.2l-10.9,0l0,8.5l10.1,0v4.2l-10.1,0l0,8.9l11.6,0
			L1161.8,1073.9L1161.8,1073.9z"/>
		<path fill="#FFFFFF" d="M1185.2,1048l-8.4,0l0.1,25.9h-4.9l-0.1-25.9l-8.4,0v-4.2l21.7-0.1L1185.2,1048z"/>
		<path fill="#8A6FE8" d="M529.4,1254.2l40.2,57.3c10.8,15.2,31.9,18.7,47.2,7.9c15.2-10.8,18.7-31.9,7.9-47.1L575,1203
			L529.4,1254.2z"/>
		<path fill="#8A6FE8" d="M460.1,1232.5l-11.1,69.2c-2.8,18.4,9.8,35.7,28.3,38.5c18.4,2.8,35.7-9.8,38.5-28.3l11.4-70.9
			L460.1,1232.5z"/>
		<path fill="#8A6FE8" d="M505,1240.3l-9.3,69.4c-2.4,18.5,10.8,35.4,29.2,37.8c18.5,2.4,35.4-10.8,37.8-29.2l9.6-71.2L505,1240.3z"
			/>
		<path fill="#8A6FE8" d="M442.7,1211.8l-25.1,65.4c-6.6,17.5,2.3,37,19.8,43.5c17.5,6.6,37-2.3,43.5-19.8l25.7-67.1L442.7,1211.8z"
			/>
		
			<linearGradient id="SVGID_10_" gradientUnits="userSpaceOnUse" x1="-100.8671" y1="-9870.4697" x2="-100.8671" y2="-9489.5801" gradientTransform="matrix(1 0 0 1 694 10730)">
			<stop  offset="0.2495" style="stop-color:#967FE6"/>
			<stop  offset="1" style="stop-color:#8A6FE8"/>
		</linearGradient>
		<path fill="url(#SVGID_10_)" d="M489.3,1240.4c-27.9-57-44.2-154.4,1.8-241.6c28-52.9,89.2-120,222.3-139.3l10.7,73.8
			c-80.8,11.7-138.5,46.4-167,100.3c-30.8,58.4-22.6,129.4-0.8,174L489.3,1240.4z"/>
		
			<radialGradient id="SVGID_11_" cx="6799.8145" cy="-5493.1377" r="6.0492" gradientTransform="matrix(11.3989 0 0 11.3989 -76773.6641 63477.1328)" gradientUnits="userSpaceOnUse">
			<stop  offset="0" style="stop-color:#8065E0"/>
			<stop  offset="1" style="stop-color:#512BD4"/>
		</radialGradient>
		<path fill="url(#SVGID_11_)" d="M739,954.1c38.1,0,68.9-30.8,68.9-68.9S777,816.3,739,816.3s-68.9,30.8-68.9,68.9
			C670.1,923.2,700.9,954.1,739,954.1z"/>
		
			<radialGradient id="SVGID_12_" cx="7118.895" cy="-5267.9824" r="6.0492" gradientTransform="matrix(22.7292 0 0 22.7292 -161301.9219 120890.7656)" gradientUnits="userSpaceOnUse">
			<stop  offset="0" style="stop-color:#8065E0"/>
			<stop  offset="1" style="stop-color:#512BD4"/>
		</radialGradient>
		<path fill="url(#SVGID_12_)" d="M508.6,1277.3c39.1,0,70.8-31.7,70.8-70.8s-31.7-70.8-70.8-70.8s-70.8,31.7-70.8,70.8
			C437.9,1245.7,469.5,1277.3,508.6,1277.3z"/>
		<path fill="#D8CFF7" d="M739.7,415.8c-26.2,7-53.3-8.4-60.5-34.4c-7.2-26,8.2-52.7,34.5-59.7c26.2-7,53.3,8.4,60.5,34.4
			C781.4,382.1,766,408.8,739.7,415.8z"/>
	</g>
	<g display="inline">
		
			<radialGradient id="SVGID_13_" cx="1010.9366" cy="190.4069" r="787.4272" gradientTransform="matrix(1 0 0 -1 0 2000)" gradientUnits="userSpaceOnUse">
			<stop  offset="0.5324" style="stop-color:#FAE969"/>
			<stop  offset="0.9614" style="stop-color:#FBB03B"/>
		</radialGradient>
		<path fill="url(#SVGID_13_)" d="M79.4,543.9c126.4,304.5,138.4,601.9,59.6,838.6c-112.3,337.1-25.2,513.5,589.3,568.9
			s1213.1-28,1127-427.4c-92.3-428.3,158.8-636.6,57.6-1153.9c-30.4-155.4-141.4-242-349.8-287.2H539.9
			C206,157.5-12.2,323.2,79.4,543.9z"/>
		
			<radialGradient id="SVGID_14_" cx="1011.3785" cy="193.3761" r="787.4824" gradientTransform="matrix(1 0 0 -1 0 2000)" gradientUnits="userSpaceOnUse">
			<stop  offset="0.5324" style="stop-color:#FAE969"/>
			<stop  offset="0.9614" style="stop-color:#FBB03B"/>
		</radialGradient>
		<path fill="url(#SVGID_14_)" d="M79.4,543.9c126.4,304.5,138.4,601.9,59.6,838.6c-112.3,337.1-25.2,513.5,589.3,568.9
			s1213.1-28,1127-427.4c-92.3-428.3,158.8-636.6,57.6-1153.9c-30.4-155.4-155.3-250.6-349.8-287.2S858.6,25.8,539.9,83
			S-12.2,323.2,79.4,543.9z"/>
		
			<radialGradient id="SVGID_15_" cx="1042.3145" cy="1589.6138" r="1364.031" gradientTransform="matrix(1 0 0 -1 0 2000)" gradientUnits="userSpaceOnUse">
			<stop  offset="0" style="stop-color:#E8D441"/>
			<stop  offset="0.6204" style="stop-color:#F5E35D"/>
			<stop  offset="0.9991" style="stop-color:#FAE969"/>
		</radialGradient>
		<path opacity="0.43" fill="url(#SVGID_15_)" enable-background="new    " d="M1154,1474l747.4-1147.5
			c-29.1-86.1-91.2-150.6-181-193.9l-637.5,1366L1456.4,67.8c-81.5-8.9-183.7-15.7-293.7-18.7l-120.5,1339.8L909.2,49.3
			c-100.5,3-199.6,9.8-288.8,21.4l381.1,1427.9L363.1,130.8c-79.6,29.8-148.1,68.7-199.8,114.5c-6.9,6.9-13.6,13.5-20.2,19.9
			L930.4,1474L89,567.5c1.5,3.7,2.9,7.4,4.3,11.1c0.1,0.2,0.2,0.4,0.2,0.7c5.8,15,11.3,30,16.6,44.9c0,0,0,0.1,0.1,0.2
			c1.3,3.7,2.6,7.3,3.8,11c0.1,0.2,0.2,0.5,0.3,0.8c5.1,14.8,9.8,29.5,14.4,44.2c0.1,0.3,0.2,0.5,0.2,0.8c1.1,3.5,2.1,7,3.2,10.5
			c0.1,0.4,0.2,0.8,0.4,1.2c4.3,14.4,8.3,28.7,12.1,43c0.1,0.6,0.3,1.1,0.4,1.7c0.9,3.3,1.7,6.5,2.5,9.8c0.2,0.7,0.3,1.3,0.5,2
			c3.5,13.9,6.8,27.8,9.9,41.7c0.2,0.9,0.4,1.7,0.6,2.6c0.7,3,1.3,6.1,2,9.1c0.2,0.9,0.4,1.8,0.6,2.7c2.1,10.2,4.2,20.5,6.1,30.7
			c0.1,0.3,0.1,0.5,0.2,0.8c0.6,3,1.1,5.9,1.6,8.9c0.2,1.1,0.4,2.2,0.6,3.3c0.5,2.8,1,5.7,1.5,8.5c0.2,1.1,0.4,2.2,0.6,3.3
			c0.5,2.9,1,5.9,1.4,8.8c0,0,0,0,0,0c1.1,6.7,2.1,13.4,3,20.1c0.1,0.7,0.2,1.3,0.3,2c0.4,2.8,0.8,5.6,1.2,8.4
			c0.2,1.2,0.3,2.4,0.5,3.6c0.4,2.7,0.7,5.5,1.1,8.2c0.1,1.2,0.3,2.3,0.4,3.5c0.4,2.8,0.7,5.7,1,8.5l769.4,626.2L188,1098.8
			c0,0,0,0.1,0,0.1c-0.4,12.9-1,25.8-1.9,38.5c0,0,0,0.1,0,0.1c-0.9,12.8-1.9,25.4-3.2,37.9c0,0,0,0.1,0,0.1
			c-1.3,12.6-2.8,25-4.5,37.3c0,0,0,0.1,0,0.1c-1.7,12.4-3.7,24.6-5.8,36.8l698.1,311.9l-722.7-207.3c0,0,0,0,0,0
			c-1.1,3.8-2.3,7.6-3.5,11.4c-0.4,1.1-0.7,2.3-1.1,3.4c-0.4,1.4-0.9,2.8-1.3,4.2c-1,3-2,6.1-3,9.1c-0.9,2.6-1.7,5.1-2.5,7.6
			c-0.3,0.8-0.5,1.7-0.8,2.5c-0.6,1.7-1.1,3.4-1.6,5.1c-0.3,1-0.6,2-1,3c-0.5,1.5-0.9,3-1.4,4.5c-0.3,1.1-0.7,2.2-1,3.3
			c-0.4,1.4-0.9,2.8-1.3,4.2c-0.3,1.1-0.7,2.2-1,3.4c-0.4,1.3-0.8,2.7-1.2,4c-0.3,1.1-0.7,2.3-1,3.4c-0.4,1.3-0.8,2.6-1.1,3.9
			c-0.3,1.2-0.7,2.3-1,3.5c-0.4,1.3-0.7,2.5-1.1,3.8c-0.3,1.2-0.7,2.3-1,3.5c-0.3,1.2-0.7,2.5-1,3.7c-0.3,1.2-0.7,2.4-1,3.6
			c-0.3,1.2-0.6,2.4-1,3.6s-0.6,2.4-0.9,3.6c-0.3,1.2-0.6,2.3-0.9,3.5c-0.3,1.2-0.6,2.4-0.9,3.6c-0.3,1.2-0.6,2.3-0.8,3.4
			c-0.3,1.2-0.6,2.4-0.9,3.6c-0.3,1.1-0.5,2.2-0.8,3.3c-0.3,1.2-0.6,2.4-0.9,3.7c-0.2,1.1-0.5,2.2-0.7,3.2c-0.3,1.2-0.6,2.5-0.8,3.7
			c-0.2,1-0.4,2-0.7,3c-0.8,3.5-1.5,7-2.2,10.4l752.5,112h351.7l640.1-95.2c-2.9-14.2-5.3-28.2-7.5-41.9c0-0.2-0.1-0.4-0.1-0.6
			c-0.4-2.5-0.8-5-1.1-7.6c-0.1-0.4-0.1-0.7-0.2-1.1c-0.4-2.5-0.7-4.9-1-7.3c-0.1-0.3-0.1-0.7-0.1-1c-1.8-13.1-3.2-26.1-4.4-38.8
			c0-0.5-0.1-0.9-0.1-1.4c-0.2-2.1-0.4-4.3-0.6-6.4c-0.1-0.7-0.1-1.4-0.2-2.1c-0.2-2.1-0.3-4.1-0.5-6.1c-0.1-0.7-0.1-1.4-0.2-2.2
			c-0.1-2.1-0.3-4.1-0.4-6.1c0-0.6-0.1-1.2-0.1-1.8c-0.1-2.2-0.3-4.3-0.4-6.5v0L1233.4,1553l602.6-269.2c0,0,0,0,0,0
			c0.2-3.4,0.4-6.7,0.6-10c0-0.3,0-0.5,0.1-0.8c0.2-3.3,0.4-6.7,0.7-10l0,0c0.8-10.2,1.7-20.4,2.8-30.4c0-0.3,0.1-0.6,0.1-0.8
			c0.3-3.1,0.7-6.3,1-9.4c0-0.2,0-0.3,0.1-0.5c1.1-9.9,2.4-19.7,3.8-29.5c0.1-0.4,0.1-0.9,0.2-1.3c0.4-2.8,0.8-5.6,1.2-8.4
			c0.1-0.4,0.1-0.9,0.2-1.3c1-6.5,2-12.9,3.1-19.4c0-0.1,0-0.1,0-0.2c0.5-3,1-6,1.5-9.1c0.1-0.6,0.2-1.2,0.3-1.9
			c0.4-2.6,0.9-5.1,1.3-7.6c0.1-0.6,0.2-1.3,0.3-1.9c0.5-2.8,1-5.7,1.6-8.6c0-0.2,0.1-0.4,0.1-0.7c0.6-3.2,1.2-6.5,1.8-9.7
			L1134.7,1550l764.7-622.3c1.2-5.7,2.4-11.4,3.6-17.1c0,0,0,0,0-0.1c6.6-31.5,12.8-63.7,18.1-96.9c0,0,0-0.1,0-0.1
			c0.5-2.9,0.9-5.9,1.4-8.8c0-0.2,0.1-0.4,0.1-0.6c0.4-2.8,0.8-5.6,1.3-8.4c0-0.3,0.1-0.6,0.1-0.9c0.4-2.7,0.8-5.5,1.2-8.2
			c0.1-0.3,0.1-0.7,0.1-1c0.4-2.7,0.8-5.4,1.1-8.1c0.1-0.4,0.1-0.8,0.2-1.1c0.4-2.7,0.7-5.4,1.1-8.1c0.1-0.4,0.1-0.8,0.2-1.2
			c0.3-2.7,0.7-5.4,1-8.2c0.1-0.4,0.1-0.8,0.1-1.1c0.3-2.8,0.7-5.5,1-8.3c0-0.3,0.1-0.7,0.1-1c0.3-2.8,0.6-5.7,0.9-8.5
			c0-0.3,0.1-0.6,0.1-0.9c0.3-3,0.6-5.9,0.9-8.9c0-0.2,0-0.4,0.1-0.6c0.3-3.1,0.6-6.2,0.9-9.4c0,0,0-0.1,0-0.1
			c2.6-29,4.2-58.9,4.6-90c0,0,0,0,0,0L1154,1474z"/>
		<path fill="#9C9894" d="M105.1,1511.7c-44.7,253.8,92.7,391.8,623.3,439.7c614.5,55.4,1213.1-28,1127-427.4
			c-0.6-2.6-1.1-5.1-1.6-7.7C1577.2,1503.3,599.6,1462.6,105.1,1511.7z"/>
	</g>
</g>
<g id="bot-base" display="none">
	<g display="inline">
		
			<radialGradient id="SVGID_16_" cx="7339.8262" cy="-5143.4028" r="6.0492" gradientTransform="matrix(61.9498 0 0 61.9498 -453685.0312 319400.9062)" gradientUnits="userSpaceOnUse">
			<stop  offset="0.4744" style="stop-color:#A08BE8"/>
			<stop  offset="0.8618" style="stop-color:#8065E0"/>
		</radialGradient>
		<path fill="url(#SVGID_16_)" d="M1300.2,939.7C1325,844.2,1309,768,1309,768h22.4l0.5-0.4c-32.2-175.2-185.6-307.9-370-307.9
			c-207.8,0-376.3,168.5-376.3,376.3s168.4,376.3,376.3,376.3c164,0,303.5-104.9,355-251.2C1318.4,954.8,1318.3,943.6,1300.2,939.7z
			"/>
		<path fill="#D8CFF7" d="M1286.4,1026.5H637.5c14.6,24.8,31.9,47.7,51.5,68.4h545.8C1254.5,1074.2,1271.8,1051.3,1286.4,1026.5z"/>
		
			<radialGradient id="SVGID_17_" cx="7310.3276" cy="-5167.4126" r="6.0492" gradientTransform="matrix(48.2581 0 0 48.2581 -351550.4062 250068.375)" gradientUnits="userSpaceOnUse">
			<stop  offset="9.330000e-02" style="stop-color:#E1DFDD"/>
			<stop  offset="0.8998" style="stop-color:#FFFFFF"/>
		</radialGradient>
		<path fill="url(#SVGID_17_)" d="M1300.2,939.7c24.6-94.3,9.2-169.7,8.9-171.6H918.6c0,0-24.6-2.5-24.6,20s0.9,85.9,0.9,156.2
			c0,14.4,11.8,21.4,21.1,21.4C916.1,965.6,1256.6,965.6,1300.2,939.7z"/>
		<path fill="#A08BE8" d="M1065,939.9c0,0,60.1-47.5,71.8-56.3c11.7-8.8,22-9.3,32.7,0s70.8,56.3,70.8,56.3H1065z"/>
		<path fill="#512BD4" d="M1315.4,965.3c0,0,10.4-20.1-15.2-25.7c0-0.1-383.8-0.3-383.8-0.3c-8.9,0-20.4-5.3-21.4-14
			c0,6.2,0,12.5,0,18.8c0,13.1,9.8,20,18.5,21.2c0.9,0.1,1.8,0.2,2.7,0.2h26.2L1315.4,965.3z"/>
		<path fill="#512BD4" d="M1084.8,1115.2l123.2-0.6l-0.5-108.9l-123.2,0.6L1084.8,1115.2z"/>
		<path fill="#FFFFFF" d="M1106.1,1074.5c-0.8,0-1.5-0.3-2.1-0.8c-0.6-0.6-0.9-1.2-0.9-2c0-0.8,0.3-1.5,0.9-2
			c0.6-0.6,1.3-0.8,2.1-0.8c0.8,0,1.5,0.3,2.1,0.8c0.6,0.5,0.9,1.2,0.9,2s-0.3,1.4-0.9,2C1107.7,1074.2,1107,1074.5,1106.1,1074.5z"
			/>
		<path fill="#FFFFFF" d="M1138.9,1074h-5.3l-14.1-22.1c-0.3-0.5-0.7-1.2-0.9-1.8h-0.1c0.1,0.6,0.2,2,0.2,4.1l0,19.7h-4.7l-0.1-30.1
			h5.7l13.6,21.6c0.6,0.9,0.9,1.5,1.1,1.8h0.1c-0.2-0.8-0.2-2.2-0.2-4.1l0-19.4h4.7L1138.9,1074z"/>
		<path fill="#FFFFFF" d="M1161.8,1073.9l-16.5,0l-0.1-30.1l15.8,0v4.2l-10.9,0l0,8.5l10.1,0v4.2l-10.1,0l0,8.9l11.6,0
			L1161.8,1073.9L1161.8,1073.9z"/>
		<path fill="#FFFFFF" d="M1185.2,1048l-8.4,0l0.1,25.9h-4.9l-0.1-25.9l-8.4,0v-4.2l21.7-0.1L1185.2,1048z"/>
	</g>
	<g display="inline">
		<ellipse fill="#CC5444" cx="1153.7" cy="943.1" rx="81.2" ry="67"/>
		
			<ellipse transform="matrix(0.9692 -0.2461 0.2461 0.9692 -189.0956 311.0909)" fill="#ED9583" cx="1150.2" cy="912.1" rx="24.9" ry="16.9"/>
	</g>
	<g display="inline">
		<path fill="#DC624F" d="M529.9,1254.2l40.2,57.3c10.8,15.2,31.9,18.7,47.2,7.9c15.2-10.8,18.7-31.9,7.9-47.1l-49.7-69.3
			L529.9,1254.2z"/>
		<path fill="#DC624F" d="M460.6,1232.5l-11.1,69.2c-2.8,18.4,9.8,35.7,28.3,38.5c18.4,2.8,35.7-9.8,38.5-28.3l11.4-70.9
			L460.6,1232.5z"/>
		<path fill="#DC624F" d="M505.4,1240.3l-9.3,69.4c-2.4,18.5,10.8,35.4,29.2,37.8c18.5,2.4,35.4-10.8,37.8-29.2l9.6-71.2
			L505.4,1240.3z"/>
		<path fill="#DC624F" d="M443.2,1211.8l-25.1,65.4c-6.6,17.5,2.3,37,19.8,43.5c17.5,6.6,37-2.3,43.5-19.8l25.7-67.1L443.2,1211.8z"
			/>
		<path fill="#8B9B23" d="M489.8,1240.4c-27.9-57-44.2-154.4,1.8-241.6c28-52.9,89.2-120,222.3-139.3l10.7,73.8
			c-80.8,11.7-138.5,46.4-167,100.3c-30.8,58.4-22.6,129.4-0.8,174L489.8,1240.4z"/>
		<path fill="#DC624F" d="M739.4,954.1c38.1,0,68.9-30.8,68.9-68.9s-30.8-68.9-68.9-68.9s-68.9,30.8-68.9,68.9
			C670.5,923.2,701.4,954.1,739.4,954.1z"/>
		<path fill="#CC5444" d="M509.1,1277.3c39.1,0,70.8-31.7,70.8-70.8s-31.7-70.8-70.8-70.8s-70.8,31.7-70.8,70.8
			C438.3,1245.7,470,1277.3,509.1,1277.3z"/>
		<path fill="#4ADAFA" d="M486.1,1009.7c-8.5,18.2-14.4,36.7-18.1,55.2l72.1,20.4c3-17.6,8.6-35.1,17.3-51.6
			c0.6-1.1,1.2-2.2,1.8-3.3L486.1,1009.7z"/>
		<path fill="#4ADAFA" d="M590.6,990.7c13.9-12.9,30.3-23.9,49.1-32.8l-54.9-55.4c-18.3,10.8-33.8,22.8-46.8,35.2L590.6,990.7z"/>
	</g>
	<g display="inline">
		<path fill="#8B9B23" d="M1313.5,971.5c-8.4,21.8-18.8,42.6-30.9,62.2c57.5,54.7,142.1,97.3,186.9,100.9l5.6-67.6
			C1436.7,1063.8,1356,1017,1313.5,971.5z"/>
		<path fill="#4ADAFA" d="M1306.2,1054.4c15.1,12.2,31.2,23.4,47.4,33.4l37.2-55.7c-16.4-9.9-32.8-21.3-47.6-33.3L1306.2,1054.4z"/>
		<path fill="#CC5444" d="M1520.6,995.9l-83.6,44.8c-14.9,8-20.5,26.6-12.6,41.4c8,14.9,26.5,20.5,41.4,12.6l83.6-44.8
			c14.9-8,20.5-26.5,12.6-41.4C1554.1,993.5,1535.5,987.9,1520.6,995.9z"/>
		<path fill="#CC5444" d="M1452.4,1169.1c35.6,0,64.4-28.8,64.4-64.4s-28.9-64.4-64.4-64.4c-35.6,0-64.4,28.8-64.4,64.4
			C1388,1140.2,1416.8,1169.1,1452.4,1169.1z"/>
		<g>
			<g>
				<path fill="#56534F" d="M1339.8,1258.8c-3.1,0-6.3-1.2-8.6-3.7c-4.6-4.8-4.5-12.4,0.3-17l377.3-363.9c4.8-4.6,12.4-4.5,17,0.3
					s4.5,12.4-0.3,17l-377.3,363.9C1345.8,1257.6,1342.8,1258.8,1339.8,1258.8z"/>
			</g>
			<circle fill="#8B9B23" cx="1718.2" cy="883.4" r="31.8"/>
			<circle fill="#8B9B23" cx="1340.9" cy="1248.4" r="31.8"/>
		</g>
		<g>
			<path fill="#DC624F" d="M1550.4,1078.5l-56.2-12.9c-16.5-3.9-32.9,6.3-36.8,22.8c-3.9,16.5,6.3,32.9,22.7,36.8l56.2,12.9
				c16.5,3.9,32.9-6.3,36.8-22.8C1577.2,1098.8,1566.9,1082.3,1550.4,1078.5z"/>
			<path fill="#DC624F" d="M1528.6,1112.6l-56.4-11.8c-16.5-3.6-32.8,7-36.4,23.4c-3.6,16.5,7,32.8,23.4,36.4l56.4,11.8
				c16.5,3.6,32.8-7,36.4-23.4C1555.7,1132.5,1545.1,1116.2,1528.6,1112.6z"/>
			<path fill="#DC624F" d="M1492.3,1138.9l-56.4-11.8c-16.5-3.6-32.8,7-36.4,23.4c-3.6,16.5,7,32.8,23.4,36.4l56.4,11.8
				c16.5,3.6,32.8-7,36.4-23.4C1519.4,1158.7,1508.9,1142.4,1492.3,1138.9z"/>
		</g>
	</g>
	<g display="inline">
		<path fill="#4ADAFA" d="M1024.9,665.4c30.8,0,57.5,21.5,71.3,53.1c-4.1-51.1-36.2-90.9-75.1-90.9c-41.7,0-75.5,45.7-75.5,102
			c0,4.3,0.2,8.5,0.6,12.7C955,698.1,986.9,665.4,1024.9,665.4z"/>
		<path fill="#4ADAFA" d="M1179.3,665.4c-30.8,0-57.5,21.5-71.3,53.1c4.1-51.1,36.2-90.9,75.1-90.9c41.7,0,75.6,45.7,75.6,102
			c0,4.3-0.2,8.5-0.6,12.7C1249.1,698.1,1217.2,665.4,1179.3,665.4z"/>
		<g>
			<path fill="#CC5444" d="M1431.6,566.1c-1.8-11.5-8.1-21.2-16.7-27.7c1.1-4.8,1.4-9.9,0.6-15c-0.6-3.8-1.7-7.3-3.3-10.6
				c10.7-10.6,16.3-26,13.8-42c-4.2-26.4-29-44.4-55.4-40.2c-6.4,1-12.3,3.2-17.5,6.4c-9.3-8.8-22.4-13.3-36.1-11.1
				c-0.1,0-0.2,0-0.3,0c-7.9-15.2-24.9-24.4-42.7-21.5c-10.4,1.6-19.3,7.1-25.5,14.8c-5.2-14.1-18.7-24.1-34.6-24.1
				c-12.5,0-23.5,6.2-30.1,15.6c-5.9-6.2-14.2-10.1-23.4-10.1c-17.9,0-32.4,14.5-32.4,32.4c0,0.5,0,1,0,1.5
				c-3.7-0.3-7.5-0.1-11.4,0.5c-22.1,3.5-38.6,21-41.8,42c131.5,41.3,231.8,152.8,257.1,290.6l-0.5,0.4H1309c0,0,1.6,7.4,3,20.6
				c4.4,0.6,8.9,0.6,13.5-0.2c25.4-4,42.7-27.9,38.7-53.3c-1.3-8.4-4.8-15.9-9.8-22c1.5-1.7,2.8-3.7,3.8-5.7
				c5.9,1.7,12.3,2.2,18.8,1.2c23.4-3.7,39.3-25.6,35.6-49c-1.6-9.8-6.4-18.3-13.1-24.7c3.6-6.1,5.2-13.5,4-21
				c0-0.2-0.1-0.4-0.1-0.7C1422.6,606.7,1434.9,586.9,1431.6,566.1z"/>
			<path fill="#E86E58" d="M1295.1,488.4c4.5-6.2,11.4-10.5,19.6-11.4c15.3-1.7,29.1,9.4,30.8,24.7c0.2,1.8,0.2,3.6,0.1,5.4
				c3.9-5.4,5.9-12.2,5.1-19.4c-1.7-15.3-15.5-26.4-30.8-24.7C1306.3,464.5,1296.1,475.4,1295.1,488.4z"/>
			<path fill="#E86E58" d="M1217.5,549.5c-1.8-7.4-0.7-15.5,3.9-22.3c8.6-12.8,25.9-16.2,38.7-7.6c1.5,1,2.9,2.2,4.1,3.4
				c-1.6-6.5-5.5-12.4-11.5-16.4c-12.8-8.6-30.1-5.2-38.7,7.6C1206.5,525.5,1208.2,540.3,1217.5,549.5z"/>
			<path fill="#E86E58" d="M1294.2,586.1c3-6.8,8.8-12.5,16.6-15.2c14.6-5.1,30.3,2.2,35.3,16.3c0.6,1.7,1,3.3,1.2,5
				c2.7-6,3.1-12.9,0.8-19.5c-4.9-14.1-20.7-21.4-35.3-16.3C1300,560.9,1292.4,573.5,1294.2,586.1z"/>
			<path fill="#E86E58" d="M1225.1,494.5c-1.8-7.4-0.7-15.5,3.9-22.3c8.6-12.8,25.9-16.2,38.7-7.6c1.5,1,2.9,2.2,4.1,3.4
				c-1.6-6.5-5.5-12.4-11.5-16.4c-12.8-8.6-30.1-5.2-38.7,7.6C1214.1,470.4,1215.8,485.2,1225.1,494.5z"/>
			<path fill="#E86E58" d="M1329.4,652.2c4.7-5.8,11.8-9.8,20-10.4c15.4-1.1,28.7,10.1,29.8,25c0.1,1.8,0.1,3.5-0.1,5.2
				c4.1-5.1,6.4-11.6,5.9-18.6c-1.1-14.9-14.4-26.1-29.8-25C1341.6,629.4,1331,639.6,1329.4,652.2z"/>
		</g>
		<g>
			<path fill="#8B9B23" d="M747.6,506.6c3.2-87.9-4.4-130.6-9.4-148.7c-2.2-7.8-0.1-16.2,5.5-22.1c22.6-23.9,85.4-78.4,185-74.8
				c80.6,2.9,112.8,13.9,117.9,44.7s53.2,157.9,66.4,171C1126.1,489.9,747.6,506.6,747.6,506.6z"/>
			<path fill="#4ADAFA" d="M747.6,506.6c0,0,378.4-16.7,365.2-29.8c-6.4-6.4-21.1-39.8-35.1-75.9c-14-9.8-32-20.3-79.3-23.2
				c-108.4-6.6-210.7,45.9-250.2,77.7C748.5,470.5,748.3,487.5,747.6,506.6z"/>
			<path fill="#8B9B23" d="M707.2,503.3c138.2-47,310.1-75.8,430.4-74.3c1.5,22.9-3.1,57.7-66.4,61.9
				c-155.1,10.3-264.6,43.7-329.3,66C698.2,571.9,693.2,520,707.2,503.3z"/>
		</g>
		<g>
			<g>
				<path fill="#CC5444" d="M757.6,587.4c3.1-10.4-1.1-21.2-9.7-27c4.8-5.3,7.8-12.4,7.8-20.2c0-15.9-12.4-29-28-30.1
					c-0.1-0.2-0.2-0.3-0.4-0.5c8.1-13.5,6.3-31.2-5.3-42.9c-13.7-13.7-36-13.7-49.7,0c-1.7,1.7-3.2,3.5-4.5,5.5
					c-5-15-17-27.4-33.3-32.3c-18.3-5.5-37.3,0-50,12.7c-4.1-9.6-13.6-16.3-24.6-16.3c-14.8,0-26.8,12-26.8,26.8c0,0.3,0,0.6,0,0.8
					c-4-2.4-8.3-4.3-12.9-5.7c-27.6-8.2-56.6,5.2-68.6,30.5c-5.2-2.5-11.1-3.9-17.3-3.9c-22.2,0-40.2,18-40.2,40.2
					c0,19.3,13.6,35.5,31.8,39.3c0.1,4.4,1,8.6,2.7,12.4c-17.5,3.9-30.6,19.5-30.6,38.1c0,19.2,13.8,35.1,32,38.4
					c-11.8,18.8-9.5,43.8,6.8,60.1c15.2,15.2,38.1,18.2,56.3,9c4.6,13.1,15.1,23.8,29.4,28.1c3.8,1.1,7.6,1.7,11.3,1.8
					c-4.5,22.4,8.7,44.9,31.1,51.6c36.3,4.1,43-18.2,43-18.2s17.2,4.5,34.3-2c-0.4-0.4-0.8-0.8-1.2-1.2c9.2-2.8,16.9-10.1,19.8-20
					c2.7-9.1,0.9-18.5-4.2-25.7c2.7,1.5,5.7,2.8,8.8,3.8c22.7,6.8,46.5-6.2,53.3-28.8c3.5-11.8,1.7-24-4.1-33.8
					c17.4-3.1,32.5-15.7,37.8-33.8c4.4-14.9,1.3-30.3-7.1-42C751.1,599.2,755.7,594,757.6,587.4z"/>
				<g>
					<path fill="#E86E58" d="M503,509.3c3.4-6.8,9.5-12.2,17.4-14.5c14.8-4.2,30.2,4.5,34.4,19.3c0.5,1.8,0.8,3.5,1,5.3
						c3-6,3.8-13,1.9-20c-4.2-14.8-19.6-23.5-34.4-19.3C510.1,483.8,501.9,496.2,503,509.3z"/>
					<path fill="#E86E58" d="M454.1,608.9c-3-7-3.2-15.2,0.2-22.6c6.4-14,22.9-20.2,37-13.9c1.7,0.8,3.2,1.7,4.6,2.7
						c-2.7-6.1-7.5-11.3-14.1-14.3c-14-6.4-30.6-0.2-37,13.9C439.3,587,443.4,601.3,454.1,608.9z"/>
					<path fill="#E86E58" d="M607.9,570.7c1-9,5.8-17.8,13.8-24.3c15.1-12,36.1-10.8,46.9,2.7c1.3,1.6,2.3,3.3,3.2,5.1
						c0.9-7.9-1-15.8-6.1-22.1c-10.8-13.6-31.8-14.8-46.9-2.7C605.5,540,601.3,557.4,607.9,570.7z"/>
					<path fill="#E86E58" d="M555.7,710.7c1.8-7.2,6.7-13.8,13.9-17.8c13.5-7.4,30.3-2.8,37.5,10.3c0.8,1.5,1.5,3.1,2,4.8
						c1.6-6.4,1-13.2-2.4-19.4c-7.2-13.1-24-17.7-37.5-10.3C557.3,684.9,551.9,698.6,555.7,710.7z"/>
					<path fill="#E86E58" d="M645.6,611.2c7.5-0.3,15.2,2.4,21,8.1c11,10.8,11.4,28.2,1,38.8c-1.2,1.3-2.6,2.4-4,3.3
						c6.6-0.3,13-2.9,17.8-7.9c10.5-10.7,10-28-1-38.8C670.8,605.3,656.1,604.1,645.6,611.2z"/>
				</g>
			</g>
			<path fill="#E86E58" d="M518.5,655.6c-3-7-3.2-15.2,0.2-22.6c6.4-14,22.9-20.2,37-13.9c1.7,0.8,3.2,1.7,4.6,2.7
				c-2.7-6.1-7.5-11.3-14.1-14.3c-14-6.4-30.6-0.2-37,13.9C503.6,633.7,507.8,648,518.5,655.6z"/>
		</g>
	</g>
</g>
<g id="asset">
	<g>
		<path fill="#8B9B23" d="M805.6,1178.3l-33.7,288.9c3.7,3.2,14.5,2.3,17.9,5l21.2-1.1l34-12.3l30.1-256.7
			C851,1196.5,827.7,1188.5,805.6,1178.3z"/>
		<path fill="#8B9B23" d="M1113,1180.7c47,97.3,29.9,285.9,28.7,330.6c-0.2,3.9,41.3,7.1,76.2-0.8c0.6-56.8,8.9-257.2-43.3-364.1
			C1155.3,1159.7,1134.7,1171.2,1113,1180.7z"/>
		<path fill="#CC5444" d="M1167.1,1466.1c1.7-40.2,38.5-46.1,51.3-6.7c9.2,28.2-2.2,49.1-12.3,49.1S1167.1,1466.1,1167.1,1466.1z"/>
		<path fill="#CC5444" d="M1620,1669.3c-36.3-110.5-163.8-123.9-217.4-110.5c-45.7,11.4-113.7,1-145.9-39.4
			c-32-40.2-36.8-72.2-36.8-72.2s-10.8,3.3-12.3,20.8c-0.9,10.2,0,29.8,0,29.8s-14.5-29.8-26.1-36.1c-22.4-12.3-39.4,5.9-39.4,5.9
			s-11.9,86.7-28.7,141.4c-9.5,31,78.1,34.6,101.6,44.7s115,64.7,177.5,103.8s170.5,47.9,212.1,2.2
			C1639,1722,1627.6,1692.5,1620,1669.3z"/>
		<path fill="#F7B548" d="M1256.8,1519.3c-32-40.2-36.8-72.2-36.8-72.2s-10.8,3.3-12.3,20.8c-0.9,10.2,0,29.8,0,29.8
			s-14.5-29.8-26.1-36.1c-22.4-12.3-39.4,5.9-39.4,5.9s-3.2,23.2-8.6,53.1c47.6,47.8,88.8,132.1,88.8,132.1l46.9,19.3
			c0,0,38.2-71.5,116.5-110.2C1341.4,1567.3,1285.2,1555,1256.8,1519.3z"/>
		<path fill="#56534F" d="M1340.3,1531.8c-1.9-6-11.1-10.5-27.9-13.7c-27.5-5.3-44.8-2.8-55.1,1c3.5-4.3,8.5-9.2,15.8-14
			c20.9-13.7,61.8-13.8,62.3-13.8c1.4,0,2.5-1.1,2.5-2.5s-1.1-2.5-2.5-2.5c-1.7,0-42.9,0.2-65,14.6c-11.1,7.3-17.4,14.8-20.9,20.6
			l-11.2,1.2l3.1-6c0.4-0.8,0.4-1.7-0.1-2.5s-1.3-1.2-2.2-1.2l-11.6,0.3l3.1-8.6c0.2-0.7,0.2-1.5-0.2-2.1s-1-1.1-1.8-1.2l-11.7-1.8
			l7.5-10.2c0.5-0.7,0.6-1.6,0.3-2.3c-0.3-0.8-0.9-1.4-1.8-1.6l-14.1-3.4l9.7-14.5c0.8-1.2,0.5-2.7-0.7-3.5s-2.7-0.5-3.5,0.7
			l-10.7,16l-18.5-4.5c-1.3-0.3-2.7,0.5-3,1.8c-0.3,1.3,0.5,2.7,1.8,3l16.7,4.1l-8.1,12.2c-0.5,0.7-0.6,1.6-0.2,2.4
			c0.3,0.8,1.1,1.3,1.9,1.5l13.6,2l-8.5,11.6c-0.6,0.8-0.6,1.8-0.2,2.6c0.4,0.8,1.3,1.4,2.3,1.3l18.8-0.4l-2.8,8
			c-0.3,0.8-0.1,1.7,0.4,2.4c0.5,0.7,1.4,1,2.2,0.9l9.4-1l-0.4,0.8c-43.8,10.6-65.2,36.4-63.1,52.4c0.5,3.9,3.7,15.3,24.2,15.3
			c2.5,0,5.2-0.2,8.2-0.5c29.3-3.6,41.8-21.1,47.1-35.1c0.6-1.7,1.2-3.3,1.7-5c-0.1,14.7-2.9,33-14.1,46c-0.9,1-0.8,2.6,0.2,3.5
			c0.5,0.4,1.1,0.6,1.6,0.6c0.7,0,1.4-0.3,1.9-0.9c9.6-11.1,14.9-27.4,15.4-47.3c0.2-8.6-0.6-16-1.2-20.8l2.2-0.5
			c0.6-0.1,1-0.4,1.3-0.8c12.2,2.7,36.6,8.1,51,11.7c10.5,2.6,26.3-1.1,32.5-7.8C1340.4,1537.7,1341.2,1534.7,1340.3,1531.8z
			 M1232.4,1533.9c4.1-0.9,8.3-1.7,12.6-2.3c0,0.2-0.1,0.3-0.1,0.3c0,0,0,0.1,0,0.1c0,0.1,0,0.2,0,0.2c0,0.1,0,0.2,0,0.2
			c0,0,0,0.1,0,0.1c0,0,0.1,0.6,0.1,1.6l-14.6,3.7L1232.4,1533.9z M1199,1496.9l7-10.4l12.2,3l-6.8,9.3L1199,1496.9z M1206.4,1513.7
			l7.1-9.6l11.3,1.7l-2.7,7.6L1206.4,1513.7z M1223.5,1524.3l2.1-6l9.3-0.2l-2.7,5.2L1223.5,1524.3z M1235.4,1528l1.3-0.1
			c-0.4,0.1-0.9,0.2-1.3,0.2L1235.4,1528z M1197.8,1591.7c-15.7,1.9-25.8-2-26.9-10.4c-1-8,5.6-18.7,17.4-27.8
			c10-7.7,23-13.9,37.6-18l-2.5,4.8c-0.4,0.9-0.3,1.9,0.3,2.7c0.5,0.6,1.2,0.9,2,0.9c0.2,0,0.4,0,0.6-0.1l18.7-4.7
			c-0.3,5.2-1.2,12.9-4.2,20.8C1233.7,1578.4,1219.3,1589.1,1197.8,1591.7z M1334.3,1536.9c-4.5,4.8-18.1,8.7-27.6,6.3
			c-16.1-4-44.3-10.3-54.7-12.5l0.3-3.8c2-1.2,4.8-2.6,8.5-3.8c8.8-2.8,24.8-5.2,50.7-0.2c20.5,4,23.6,8.9,24.1,10.4
			C1335.7,1533.8,1336.1,1535,1334.3,1536.9z"/>
		<path fill="#56534F" d="M667.8,1744.8c-3.9,49.2,18.4,113.7,164.1,105.7c162.8-8.9,180-89.1,153.2-129.6S672,1691.9,667.8,1744.8z
			"/>
		<path fill="#CC5444" d="M772.8,1439c0,0-31.3,56.7-32.9,121.8s0,99.2-47.7,143.4c-47.7,44.2-36,132.5,140.7,123.1
			s185.9-106.4,111.3-154.9c-74.5-48.5-71.2-88.3-69.5-118c1.7-29.7-31.3-93.8-30.4-113.3C845.9,1404.8,787,1398.5,772.8,1439z"/>
		<path fill="#F7B548" d="M887.6,1619.4c-15.6-25.2-14-47-13-65.1c1.7-29.7-29.4-92.7-28.5-112.2c1.7-36.2-60-42.2-74.2-1.7
			c0,0-30.4,55.3-32.1,120.4c-0.7,27.4-0.8,49.4-4.3,68.8C792,1597.4,850.1,1606.8,887.6,1619.4z"/>
		<path fill="#CC5444" d="M844.5,1458.8c-13.7-33.5-51.3-32.6-73.1,8.8c2.1,1.8,4.5,3.7,7.3,5.6c24.3,17.4,27.3,44.2,27.3,44.2
			S819.4,1477.3,844.5,1458.8z"/>
		<path fill="#56534F" d="M873.6,1547.5c23.1-7.4,36.7-17.1,37.3-17.6c0.9-0.7,1.1-1.9,0.5-2.8c-0.7-0.9-1.9-1.1-2.8-0.4
			c-0.2,0.1-15.4,10.9-40.5,18.3c-1.6-0.7-2.9-1.3-3.9-1.7c-18.1-7.7-34.4-11.2-45.6-12.8c0.7-0.4,1.1-1.1,1.1-1.9
			c-0.1-0.8-0.6-1.5-1.4-1.8l-11-3.4l10.5-3.9c0.8-0.3,1.3-1,1.3-1.8c0-0.8-0.4-1.6-1.2-1.9l-7.7-3.6l15.4-5.2
			c0.8-0.3,1.3-1,1.3-1.8c0-0.8-0.5-1.6-1.2-1.9l-13.2-5.6l17.5-6.2c1-0.4,1.6-1.5,1.2-2.6c-0.4-1-1.5-1.6-2.5-1.2l-21.7,7.6
			l-24.8-10.5c-1-0.4-2.2,0.1-2.6,1.1c-0.4,1,0,2.2,1.1,2.6l20.8,8.8l-14,4.9c-0.8,0.3-1.3,1-1.3,1.8s0.4,1.6,1.2,1.9l12.3,5.7
			l-14.8,5.1c-0.8,0.3-1.4,1.1-1.3,1.9c0,0.9,0.6,1.6,1.4,1.9l10.2,3.2l-5.9,2.2c-0.8,0.3-1.3,1-1.3,1.8s0.4,1.5,1.1,1.9l4.5,2.2
			c-13.4,3.9-26,8.5-37.4,13.3c-15.8-0.3-36.6-3.9-63.7-13.9c-1-0.4-2.2,0.2-2.6,1.2c-0.4,1,0.2,2.2,1.2,2.6
			c21.2,7.8,40.2,12.5,56.9,13.8c-37.8,17.5-61,38.3-58.2,50.8c1,4.5,5.4,9,19.1,9c5.1,0,11.5-0.6,19.5-2.1
			c39.4-7.4,58.2-27.4,67.1-42.9c5.8-10.1,8.2-19.4,9.2-25.5c12.1,22.3,31,40.3,54,51c13.9,6.5,28.9,10,41.6,10
			c5.9,0,11.3-0.7,15.9-2.3c6.3-2.1,9.5-5.3,9.7-9.5C926.2,1573.7,891.9,1556,873.6,1547.5z M811.8,1533.7
			c10.4,1.1,29.2,4.1,50.2,13c-1.8,0.5-3.7,0.9-5.6,1.3c-22.4,4.9-39.1-6.4-46.8-13.3L811.8,1533.7z M793.4,1504.4l13.5-4.7
			l12.4,5.2l-14.3,4.9L793.4,1504.4z M791.8,1518.5l13-4.4l7.2,3.3l-10.8,4L791.8,1518.5z M794.8,1528.1l6.4-2.4l11,3.4l-1.1,0.5
			c-4.7-0.4-7.6-0.5-7.9-0.5c0,0,0,0,0,0c0,0,0,0,0,0c0,0,0,0,0,0c0,0-0.1,0-0.2,0c-0.1,0-0.1,0-0.2,0c0,0,0,0-0.1,0l0,0
			c-1.2,0.3-2.4,0.6-3.6,1L794.8,1528.1z M796,1535.2c-5.1,3.6-14,8.1-28.5,9.5C776.3,1541.4,785.8,1538.2,796,1535.2z
			 M791.8,1561.6c-12.1,21.2-34.4,35.3-64.3,41c-29.5,5.5-33.5-1.5-34-3.8c-2.1-9.2,20.2-31.1,63-49.5c9,0.1,17.3-0.8,24.7-2.9
			c9.7-2.6,15.8-6.6,19.4-9.7C799.7,1542.4,797.5,1551.7,791.8,1561.6z M914.7,1593c-22.7,7.5-75.8-4.6-104.2-52.2
			c7.5,5.8,19.5,12.5,34.8,12.5c3.7,0,7.7-0.4,11.8-1.3c3.7-0.8,7.3-1.7,10.7-2.7c31.8,14.1,54.2,29.8,53.9,37.9
			C921.6,1589.5,919.2,1591.5,914.7,1593z"/>
		<path fill="#56534F" d="M1113.5,1609c0,0,26.8,14.5,92.7,31.3s149.6,79.3,198.7,113.9s135,33.4,183.1,5.6
			c51.6-29.9,34.6-83.2,34.6-83.2s25.4,54.7-10.1,89.9c-50,49.6-161.8,54.8-224.4,2.2c-111.6-93.8-189.8-109.4-189.8-109.4
			l-3.1,18.7c0,0-73.9-24.6-76.2-30.1C1116.8,1642.2,1113.5,1609,1113.5,1609z"/>
		<path fill="#ED9583" d="M1477.4,1574.9c0,0,91.1,0.3,120.6,82.1c21.8,60.3-35.2,85.4-35.2,85.4s29.7-29.3,6.7-92.1
			C1551.1,1600.1,1477.4,1574.9,1477.4,1574.9z"/>
		<path fill="#ED9583" d="M714.3,1732.1c0,0,31-66.7,109.7-68.5c69.8-1.6,111.9,50.9,111.9,50.9s-33.2-21.1-109.7-21.1
			S714.3,1732.1,714.3,1732.1z"/>
		
			<ellipse transform="matrix(0.1455 -0.9894 0.9894 0.1455 -376.2559 2819.4121)" fill="#ED9583" cx="1444" cy="1627.5" rx="16.9" ry="30.2"/>
		
			<ellipse transform="matrix(0.1967 -0.9805 0.9805 0.1967 -1116.5085 2177.9495)" fill="#ED9583" cx="770.9" cy="1770.3" rx="16.9" ry="30.2"/>
		<polygon fill="#4ADAFA" points="782.1,1379.6 853.2,1389.2 860,1331.5 788.9,1322 		"/>
		<polygon fill="#4ADAFA" points="795.4,1266 866.5,1275.6 873.3,1217.9 802.1,1208.4 		"/>
		<path fill="#4ADAFA" d="M1214.6,1326.7l-70.6,3.6c1.2,19.8,1.7,39.4,1.7,58.2l72.1-3.7C1217.2,1366.1,1216.2,1346.5,1214.6,1326.7
			z"/>
		<path fill="#4ADAFA" d="M1195.7,1205.5L1128,1222c4.9,17.9,8.5,37.3,11.2,57.2l68.1-16.7
			C1204.2,1242.9,1200.4,1223.7,1195.7,1205.5z"/>
	</g>
</g>
</svg>
