<?xml version="1.0" encoding="utf-8"?>
<!-- Generator: Adobe Illustrator 26.0.0, SVG Export Plug-In . SVG Version: 6.00 Build 0)  -->
<svg version="1.1" id="asset" xmlns="http://www.w3.org/2000/svg" xmlns:xlink="http://www.w3.org/1999/xlink" x="0px" y="0px"
	 viewBox="0 0 2000 2000" enable-background="new 0 0 2000 2000" xml:space="preserve">
<g>
	<path fill="#148EF4" d="M1105.4,1515c0-42.7,9.3-67.1,24.9-65.5c18.4,1.9,25.6,44.8,25.6,44.8L1105.4,1515z"/>
	<path fill="#148EF4" d="M742,1515c8.3-42.7,21.5-67.1,35.2-65.5c16.3,1.9,14.4,44.8,14.4,44.8L742,1515z"/>
	
		<linearGradient id="SVGID_1_" gradientUnits="userSpaceOnUse" x1="1107.613" y1="-1434.5966" x2="1174.9275" y2="-1128.1643" gradientTransform="matrix(1 0 0 1 0 2620)">
		<stop  offset="0.1773" style="stop-color:#522CD5"/>
		<stop  offset="0.1918" style="stop-color:#5934D7"/>
		<stop  offset="0.2412" style="stop-color:#6B4ADD"/>
		<stop  offset="0.2995" style="stop-color:#795BE2"/>
		<stop  offset="0.3717" style="stop-color:#8366E6"/>
		<stop  offset="0.473" style="stop-color:#886DE7"/>
		<stop  offset="0.7543" style="stop-color:#8A6FE8"/>
	</linearGradient>
	<path fill="url(#SVGID_1_)" d="M1066.1,1197.6c40.6,101.9,68.8,245.3,67.7,283.3c-0.2,3.8,36,7.3,71-0.6
		c0.8-72.2-29.1-206-72.2-309C1111.5,1182.2,1089.3,1191,1066.1,1197.6z"/>
	
		<linearGradient id="SVGID_00000124123527551406354590000006568806249715385234_" gradientUnits="userSpaceOnUse" x1="847.6451" y1="-1480.584" x2="810.9734" y2="-1120.0255" gradientTransform="matrix(1 0 0 1 0 2620)">
		<stop  offset="0.1773" style="stop-color:#522CD5"/>
		<stop  offset="0.6559" style="stop-color:#8A6FE8"/>
	</linearGradient>
	<path fill="url(#SVGID_00000124123527551406354590000006568806249715385234_)" d="M814.3,1182.2l-49.8,353.5l71.3,8.9l47.9-340.5
		C859.7,1199,836.5,1191.7,814.3,1182.2z"/>
	<path fill="#CCCCCC" d="M1450.3,1627.1c-20.2-39.1-25.9-41.9-87.8-57.4c-109.5-27.5-125.1-118.4-128.2-133.3
		c-3.1-14.9-44.3-9.3-59,1.6c-14.7,10.9-24.1,50.8-24.1,50.8l4.7,160.3c0,0,148.4,29.5,187.2,22.2S1450.3,1627.1,1450.3,1627.1z"/>
	<path fill="#E6E6E6" d="M1246,1643.6c0,0,28.7-38.9,66.8-40s104.1-14,107.2-17.7s22.5,18.3,30.3,44.3
		C1458.1,1656.2,1246,1643.6,1246,1643.6z"/>
	<path fill="#6AB7FB" d="M1103.8,1625.2V1518c0-31.1,41.2-43.7,63.7-54.9c15.4-7.7,28-15.6,42,23.2s48.9,63.9,77.7,73.2
		c28.7,9.3-3.9,20-18.7,32.4s-34.2,36.3-28.7,47.4C1245.3,1650.5,1168.3,1672.9,1103.8,1625.2z"/>
	<path fill="#FFFFFF" d="M1172.6,1526.6l6.6,20.5c0.4,1.2,1.2,2.3,2.2,3.1c1,0.8,2.3,1.3,3.6,1.4l21.2,1.1c5.9,0.3,8.3,8,3.6,11.2
		l-17.2,11.6c-1.1,0.7-1.8,1.8-2.2,3c-0.4,1.2-0.4,2.5,0,3.7l6.6,20.5c0.4,1.2,0.4,2.5,0,3.8c-0.4,1.2-1.2,2.3-2.3,3
		c-1.1,0.7-2.3,1.1-3.6,1c-1.3-0.1-2.5-0.6-3.5-1.4l-17.2-13.4c-1-0.8-2.2-1.3-3.5-1.3c-1.3-0.1-2.6,0.3-3.6,1l-17.2,11.6
		c-4.8,3.2-11.2-1.8-9.3-7.3l6.6-19.8c0.4-1.2,0.4-2.6,0-3.8c-0.4-1.2-1.2-2.3-2.2-3.1l-17.2-13.4c-4.8-3.7-2.3-11.1,3.6-10.8
		l21.2,1.1c1.3,0.1,2.5-0.3,3.6-1c1.1-0.7,1.8-1.7,2.2-2.9l6.6-19.8C1162.8,1520.5,1170.7,1520.9,1172.6,1526.6z"/>
	<path fill="#D600AA" d="M1100,1626.6v29.2c0,2.3,0.9,4.5,2.3,6.2c1.5,1.7,3.6,2.9,5.8,3.2c29.3,4.3,134.4,18,264.5,13
		c30.8-1.2,68.5-9.5,84.6-13.4c2.1-0.5,4-1.9,5.2-3.7c1.2-1.9,1.6-4.1,1.2-6.3l-5.1-26.6c-0.2-1.3-0.7-2.5-1.4-3.5
		c-0.7-1.1-1.6-2-2.7-2.7c-1.1-0.7-2.3-1.2-3.6-1.4c-1.3-0.2-2.6-0.2-3.8,0.1c-20.1,5.2-67.1,16.7-95.2,17.6
		c-29.1,1-68.2,0.9-82.8,0.8c-1.6,0-3.2-0.5-4.7-1.3c-1.4-0.8-2.6-2-3.4-3.4c-3.5-5.9-11.5-15.3-26.4-15.5
		c-17.9-0.2-17.9,13.8-32.6,23.9c-13.8,9.4-45.7-15.9-91.5-24.7c-1.2-0.3-2.5-0.2-3.8,0.1c-1.2,0.3-2.4,0.9-3.4,1.7
		c-1,0.8-1.8,1.8-2.3,3C1100.2,1624,1100,1625.3,1100,1626.6z"/>
	<path d="M1202.8,1491.2c2.5-2.4,2.4-6.4-0.1-9c-2.5-2.6-6.6-2.8-9-0.3c-2.5,2.4-2.4,6.4,0.1,9
		C1196.3,1493.4,1200.3,1493.6,1202.8,1491.2z"/>
	<path d="M1211.4,1513.1c2.5-2.4,2.4-6.4-0.1-9s-6.6-2.8-9-0.3c-2.5,2.4-2.4,6.4,0.1,9C1205,1515.3,1209,1515.5,1211.4,1513.1z"/>
	<path d="M1224.8,1531.6c2.5-2.4,2.4-6.4-0.1-9c-2.5-2.6-6.6-2.7-9-0.3s-2.4,6.4,0.1,9C1218.3,1533.9,1222.4,1534,1224.8,1531.6z"/>
	<path d="M1242.3,1548.3c2.5-2.4,2.4-6.4-0.1-9c-2.5-2.6-6.6-2.7-9-0.3c-2.5,2.4-2.4,6.4,0.1,9
		C1235.8,1550.5,1239.9,1550.7,1242.3,1548.3z"/>
	<path d="M1261.9,1562.3c2.5-2.4,2.4-6.4-0.1-9c-2.5-2.6-6.6-2.7-9-0.3c-2.5,2.4-2.4,6.4,0.1,9S1259.5,1564.7,1261.9,1562.3z"/>
	<path d="M1284.7,1575.2c2.5-2.4,2.4-6.4-0.1-9c-2.5-2.6-6.6-2.8-9-0.3c-2.5,2.4-2.4,6.4,0.1,9
		C1278.2,1577.4,1282.2,1577.6,1284.7,1575.2z"/>
	<g>
		<path fill="#999999" d="M1281,1572.8c-0.8,0-1.6-0.3-2.2-1c-0.9-1-1.1-2.5-0.3-3.7c2.6-4.1,5.2-7.6,7.7-10.5
			c-7.7,0.2-16.7,0.9-27.5,2.3c-1.2,0.1-2.3-0.4-2.9-1.4s-0.6-2.3,0-3.2c2.6-3.9,6.7-8,11.1-11.7c-9.1,0-18.7,0.6-27.8,2.6
			c-1.3,0.3-2.6-0.3-3.2-1.5c-0.7-1.2-0.5-2.6,0.4-3.5c3.7-3.8,7.5-7.5,11.4-11c-8.9-0.5-17.7-0.7-26.5-0.6c0,0,0,0,0,0
			c-1.2,0-2.3-0.7-2.8-1.8c-0.5-1.1-0.2-2.4,0.6-3.3c4.7-4.8,9.8-9.1,14.9-12.9c-8.3-0.8-17.1-1.2-25.5-0.7
			c-1.2,0.1-2.4-0.6-2.9-1.7s-0.3-2.4,0.6-3.3c5.5-5.7,11.5-10.4,17.2-14.3c-6.7-0.9-14.6-1.7-23.7-2.2c-1.7-0.1-2.9-1.5-2.8-3.2
			c0.1-1.7,1.5-2.9,3.2-2.8c12.6,0.7,22.9,1.9,31.2,3.4c9.7-5.6,17.2-8.2,17.7-8.4c1.6-0.5,3.3,0.3,3.8,1.9s-0.3,3.3-1.9,3.8
			c-0.1,0-4.3,1.5-10.4,4.6c15.3,3.5,21.1,7.2,21.4,7.5c0.9,0.6,1.4,1.6,1.3,2.7s-0.7,2-1.6,2.5c-0.1,0.1-4.8,2.5-11.3,6.6
			c13.2,2.2,22.7,4.9,23.4,5.1c1.2,0.3,2,1.3,2.2,2.5c0.2,1.2-0.4,2.3-1.4,3c-3.7,2.2-7.3,4.6-10.8,7.1c8.8,0.8,17.5,1.9,26.2,3.3
			c1.2,0.2,2.2,1.2,2.5,2.4s-0.3,2.5-1.4,3.2c-0.1,0.1-2.8,1.7-6.7,4.2c12.9,1.2,22.2,3.1,22.9,3.3c1.3,0.3,2.2,1.4,2.3,2.7
			c0.1,1.3-0.7,2.6-1.9,3c-0.1,0-2.7,1.1-6.8,4.4c7.9,0.4,14.1,1.3,19.3,2.1c3.3,0.5,6.2,0.9,8.9,1.1c1.6,0.1,2.8,1.5,2.8,3.1
			c-0.1,1.6-1.3,2.9-2.9,2.9c-0.3,0-26,0.6-46.3,11.5C1281.9,1572.7,1281.4,1572.8,1281,1572.8z M1294.2,1557.7
			c-1.4,1.4-2.8,3.1-4.3,4.9c5.1-1.9,10.1-3.3,14.8-4.4C1301.6,1557.9,1298.1,1557.7,1294.2,1557.7z M1276.2,1544
			c-3.8,2.8-7.7,6-10.8,9.2c10.4-1.1,19.1-1.5,26.4-1.5c2.3-2.2,4.4-4,6.3-5.4C1292.7,1545.4,1285,1544.4,1276.2,1544z
			 M1256.3,1530.9c-3.1,2.5-6.2,5.2-9.1,7.9c9.3-1.2,18.7-1.3,27.2-1c2.3-1.6,4.4-3.1,6.3-4.4
			C1272.6,1532.4,1264.5,1531.5,1256.3,1530.9z M1228.7,1523.7c8.6,0.1,17.2,0.4,25.8,1c3.5-2.7,7-5.3,10.7-7.7
			c-5.3-1.2-13.3-2.9-22.5-4.2C1238.1,1515.9,1233.2,1519.6,1228.7,1523.7z M1216.4,1504.7c8.5,0,17,0.7,24.7,1.7
			c4.8-3.3,9.1-5.9,12.3-7.7c-4.1-1.6-10.9-3.8-21.3-5.7c-5.1,3.1-10.7,6.9-16.2,11.7C1216.1,1504.7,1216.3,1504.7,1216.4,1504.7z"
			/>
	</g>
	<path fill="#CCCCCC" d="M1031.3,1627.1c-10.6-39.1-15.2-41.9-68-57.4c-93.5-27.5-89.8-118.4-89.7-133.3c0.1-14.9-38.1-9.3-53.6,1.6
		c-15.4,10.9-31.6,50.8-31.6,50.8l-26.9,160.3c0,0,128.1,29.5,164.6,22.2C962.6,1663.9,1031.3,1627.1,1031.3,1627.1z"/>
	<path fill="#E6E6E6" d="M843.8,1643.6c0,0,33.5-38.9,68-40s96.6-14,100.1-17.7s16.8,18.3,18.7,44.3
		C1032.6,1656.2,843.8,1643.6,843.8,1643.6z"/>
	<path fill="#6AB7FB" d="M719.2,1625.2L740,1518c6-31.1,45.6-43.7,68.1-54.9c15.4-7.7,28.3-15.6,33.3,23.2s31.7,63.9,55.8,73.2
		s-7.4,20-23.1,32.4s-37.9,36.3-35.2,47.4C841.8,1650.5,768.1,1672.9,719.2,1625.2z"/>
	<path fill="#FFFFFF" d="M800.3,1526.6l1.9,20.5c0,1.2,0.5,2.2,1.3,3.1c0.8,0.8,1.9,1.3,3,1.4l18.9,1.1c5.2,0.3,6,8,1,11.2
		l-17.7,11.6c-1.1,0.7-2,1.7-2.5,2.9c-0.6,1.2-0.8,2.5-0.7,3.8l1.9,20.5c0.5,5.7-6.1,10-9.7,6.3l-12.9-13.4c-0.8-0.8-2-1.3-3.1-1.4
		c-1.2-0.1-2.3,0.3-3.3,1l-17.7,11.6c-4.9,3.2-9.7-1.8-7-7.3l9.8-19.8c0.6-1.1,0.9-2.3,0.8-3.6c-0.1-1.2-0.6-2.4-1.4-3.3l-12.9-13.4
		c-3.6-3.7,0.1-11.1,5.3-10.8l18.9,1.1c1.3,0,2.5-0.4,3.6-1.1c1.1-0.7,1.9-1.7,2.4-2.8l9.8-19.8
		C792.7,1520.5,799.8,1520.9,800.3,1526.6z"/>
	<path fill="#D600AA" d="M715.4,1626.6l-5.7,29.2c-0.9,4.7,1.5,8.7,5.5,9.4c25.6,4.3,117.7,18,236.1,13c28-1.2,63.6-9.5,78.9-13.4
		c2.2-0.7,4.1-2,5.4-3.8c1.4-1.8,2.2-4,2.2-6.2l0.6-26.6c0.1-5.3-4.1-8.8-9-7.5c-19.2,5.2-63.8,16.7-89.3,17.6
		c-26.5,1-61.7,0.9-74.8,0.8c-1.4,0-2.8-0.4-4-1.3c-1.2-0.8-2-2-2.4-3.4c-2-5.9-7.4-15.3-20.8-15.5c-16.1-0.2-18.8,13.8-34.1,23.9
		c-14.2,9.4-38.2-15.9-77.8-24.7C721.5,1617.1,716.5,1621.1,715.4,1626.6z"/>
	<path d="M836.1,1489.2c1.8-3.2,1.2-7-1.4-8.5c-2.6-1.5-6.3-0.2-8.1,3c-1.8,3.2-1.2,7,1.4,8.5
		C830.6,1493.7,834.2,1492.4,836.1,1489.2z"/>
	<path d="M839.7,1511.1c1.8-3.2,1.2-7-1.4-8.5c-2.6-1.5-6.3-0.2-8.1,3c-1.8,3.2-1.2,7,1.4,8.5
		C834.2,1515.6,837.8,1514.3,839.7,1511.1z"/>
	<path d="M848.1,1529.7c1.8-3.2,1.2-7-1.4-8.5c-2.6-1.5-6.3-0.2-8.1,3c-1.8,3.2-1.2,7,1.4,8.5
		C842.7,1534.2,846.3,1532.8,848.1,1529.7z"/>
	<path d="M860.7,1546.3c1.8-3.2,1.2-7-1.4-8.5c-2.6-1.5-6.3-0.2-8.1,3c-1.8,3.2-1.2,7,1.4,8.5S858.8,1549.5,860.7,1546.3z"/>
	<path d="M875.6,1560.4c1.8-3.2,1.2-7-1.4-8.5c-2.6-1.5-6.3-0.2-8.1,3c-1.8,3.2-1.2,7,1.4,8.5
		C870.2,1564.9,873.8,1563.5,875.6,1560.4z"/>
	<path d="M893.6,1573.2c1.8-3.2,1.2-7-1.4-8.5c-2.6-1.5-6.3-0.2-8.1,3c-1.8,3.2-1.2,7,1.4,8.5
		C888.2,1577.7,891.8,1576.4,893.6,1573.2z"/>
	<g>
		<path fill="#999999" d="M889.7,1572.8c-0.9,0-1.7-0.4-2.3-1.1c-0.9-1.1-0.9-2.7-0.1-3.8c3.1-4,6-7.4,8.8-10.3
			c-6.7,0.2-14.5,0.9-24,2.2c-1.2,0.2-2.4-0.4-3-1.5c-0.6-1.1-0.5-2.4,0.2-3.3c3-3.8,7.4-7.8,12.1-11.5c-7.8,0-16.1,0.7-24.3,2.6
			c-1.3,0.3-2.7-0.3-3.3-1.5s-0.4-2.7,0.6-3.6c4-3.8,8.1-7.4,12.3-10.9c-6.9-0.4-14.5-0.7-22.6-0.6c0,0,0,0,0,0
			c-1.2,0-2.3-0.8-2.8-1.9c-0.5-1.2-0.2-2.5,0.8-3.3c5.1-4.8,10.7-9.1,16-12.9c-7-0.8-14.5-1.1-21.8-0.6c-1.3,0.1-2.5-0.6-3-1.8
			s-0.2-2.5,0.7-3.4c5.7-5.3,11.8-10.1,18.3-14.3c-5.7-0.9-12.3-1.6-20-2.1c-1.7-0.1-2.9-1.5-2.8-3.2s1.5-2.9,3.2-2.8
			c11.1,0.7,20.2,1.9,27.4,3.3c5.6-3.2,11.5-6,17.5-8.3c1.5-0.6,3.3,0.2,3.9,1.7c0.6,1.5-0.2,3.3-1.7,3.9c-3.7,1.4-7.3,3.1-10.8,4.8
			c12.9,3.5,17.3,7.2,17.6,7.5c0.8,0.7,1.1,1.6,1,2.6s-0.7,1.8-1.6,2.3c-0.1,0.1-4.9,2.6-11.7,6.8c11.1,2.2,18.8,4.7,19.4,4.9
			c1.1,0.4,1.9,1.4,2,2.5c0.1,1.2-0.4,2.3-1.5,2.9c-3.8,2.3-7.6,4.7-11.3,7.2c13.6,1.4,22.1,3.1,22.2,3.2c1.2,0.2,2.2,1.2,2.4,2.5
			s-0.4,2.5-1.5,3.1c-0.1,0.1-3,1.7-7,4.3c11,1.2,18.5,3.1,19.1,3.2c1.3,0.3,2.2,1.4,2.2,2.7c0.1,1.3-0.7,2.5-1.9,3
			c0,0-2.7,1.2-7.1,4.4c6.5,0.4,11.6,1.3,16,2c2.9,0.5,5.4,0.9,7.8,1.1c1.6,0.1,2.8,1.5,2.7,3.1c0,1.6-1.3,2.9-2.9,2.9
			c-0.2,0-23.5,0.6-43.9,11.5C890.7,1572.7,890.2,1572.8,889.7,1572.8z M904.7,1557.7c-1.3,1.2-2.7,2.6-4.2,4.2
			c4.4-1.6,8.7-2.8,12.6-3.7C910.6,1557.9,907.8,1557.7,904.7,1557.7z M891.1,1544c-3.9,2.8-7.9,5.9-11.4,9c9-1,16.4-1.4,22.7-1.4
			c2.6-2.3,4.9-4.1,6.9-5.5C904.7,1545.3,898.4,1544.4,891.1,1544z M875.6,1530.9c-3.2,2.5-6.4,5-9.5,7.7c8.1-1,16.1-1.1,23.2-0.8
			c2.5-1.7,4.8-3.2,6.8-4.5C891.3,1532.6,884.2,1531.6,875.6,1530.9z M852.1,1523.7c7.9,0.1,15.2,0.5,21.8,1c3.8-2.8,7.6-5.5,11.6-8
			c-4.5-1.2-11-2.8-18.6-4C862.2,1515.9,857,1519.6,852.1,1523.7z M844.3,1504.7c7.4,0.1,14.6,0.8,21.2,1.7c5.2-3.4,9.8-6.2,13-8
			c-3.3-1.5-8.8-3.6-17.4-5.4C855.2,1496.5,849.6,1500.4,844.3,1504.7z"/>
	</g>
</g>
</svg>
