<?xml version="1.0" encoding="utf-8"?>
<!-- Generator: Adobe Illustrator 24.2.0, SVG Export Plug-In . SVG Version: 6.00 Build 0)  -->
<svg version="1.1" id="Layer_1" xmlns="http://www.w3.org/2000/svg" xmlns:xlink="http://www.w3.org/1999/xlink" x="0px" y="0px"
	 viewBox="0 0 2000 2000" enable-background="new 0 0 2000 2000" xml:space="preserve">
<g id="ghost-image" display="none">
	<g display="inline" opacity="0.5">
		<path fill="#8A6FE8" d="M1469,1134.6c-57.7-4.7-181.3-73.8-228.1-150.4c-28.4-46.5,24.8-83.6,53.8-36.2
			c31.4,51.3,134.8,115.2,179.9,118.9L1469,1134.6z"/>
		<path fill="#8A6FE8" d="M1525,1005.7l-88.7,33.7c-15.8,6-23.7,23.7-17.8,39.5c6,15.8,23.7,23.7,39.5,17.8l88.7-33.7
			c15.8-6,23.7-23.7,17.8-39.5C1558.6,1007.6,1540.8,999.6,1525,1005.7z"/>
		<path fill="#8A6FE8" d="M1416.4,1155.1l37.8,51.4c10.2,13.6,29.4,16.4,43.1,6.3c13.6-10.2,16.4-29.4,6.3-43.1l-38.8-52.7
			L1416.4,1155.1z"/>
		<path fill="#8A6FE8" d="M1450.7,1158.2l76.8,42.9c14.9,8.2,33.6,2.9,41.8-12c8.2-14.8,2.9-33.6-12-41.8l-57-32.1L1450.7,1158.2z"
			/>
		<path fill="#8A6FE8" d="M1460.3,1121.8l84.6,24.4c16.3,4.7,33.4-4.7,38.2-21c4.7-16.3-4.7-33.4-21-38.2l-86.2-24.9L1460.3,1121.8z
			"/>
		
			<radialGradient id="SVGID_1_" cx="-3937.729" cy="-8097.9277" r="6.0501" gradientTransform="matrix(10.6515 0 0 10.6515 43394.293 87358.8125)" gradientUnits="userSpaceOnUse">
			<stop  offset="0" style="stop-color:#8065E0"/>
			<stop  offset="1" style="stop-color:#512BD4"/>
		</radialGradient>
		<path fill="url(#SVGID_1_)" d="M1451.6,1168.2c35.6,0,64.4-28.8,64.4-64.4c0-35.6-28.9-64.4-64.4-64.4
			c-35.6,0-64.4,28.8-64.4,64.4C1387.1,1139.3,1416,1168.2,1451.6,1168.2z"/>
		
			<linearGradient id="SVGID_2_" gradientUnits="userSpaceOnUse" x1="432.5013" y1="-14376.1826" x2="492.2793" y2="-14091.4707" gradientTransform="matrix(1 0 0 1 694 15472)">
			<stop  offset="0" style="stop-color:#522CD5"/>
			<stop  offset="0.4397" style="stop-color:#8A6FE8"/>
		</linearGradient>
		<path fill="url(#SVGID_2_)" d="M1216.5,1374.2c0.7-59.8-7.8-181.1-69.5-282.6l-60.3,36.6c56,92.1,60.2,199.7,58.9,246.6
			C1145.4,1378.6,1181.6,1382.1,1216.5,1374.2z"/>
		<path fill="#522CD5" d="M1145.5,1374.1l55.8-0.3l52.1,298.7l-112.1,0.5c-8.5,0-15-6.8-14.4-15.4L1145.5,1374.1z"/>
		
			<linearGradient id="SVGID_3_" gradientUnits="userSpaceOnUse" x1="468.5236" y1="-14100.0088" x2="646.134" y2="-13783.3525" gradientTransform="matrix(1 0 0 1 694 15472)">
			<stop  offset="0" style="stop-color:#522CD5"/>
			<stop  offset="0.4397" style="stop-color:#8A6FE8"/>
		</linearGradient>
		<path fill="url(#SVGID_3_)" d="M1373,1593.9c9.7,7.7,9.5,18.7,8.8,30.4l-2.3,35.8c-0.4,6.4-6,11.7-12.4,11.7l-116.8,0.5
			c-7.3,0-12.8-5.8-12.3-13.1l0.8-37.1c0.9-13.5-3.7-18.4-14.1-31.1c-17.9-21.7-70.7-140-65.7-217.1l57.5-0.3
			C1220.3,1419.5,1280.7,1521.1,1373,1593.9z"/>
		
			<radialGradient id="SVGID_4_" cx="-4164.4717" cy="-7762.4727" r="6.0492" gradientTransform="matrix(20.3477 -9.260000e-02 9.260000e-02 20.3477 86760.4453 159104.9531)" gradientUnits="userSpaceOnUse">
			<stop  offset="3.400000e-02" style="stop-color:#522CD5"/>
			<stop  offset="0.9955" style="stop-color:#8A6FE8"/>
		</radialGradient>
		<path fill="url(#SVGID_4_)" d="M1381.8,1624.3c0.6-8.2,0.7-16-2.5-22.6l-145.7,0.7c4,5.9,5.7,11.1,5.2,19.7l-0.8,37.1
			c-0.5,7.3,5,13.1,12.3,13.1l116.8-0.5c6.4,0,12-5.3,12.4-11.7L1381.8,1624.3z"/>
		
			<linearGradient id="SVGID_5_" gradientUnits="userSpaceOnUse" x1="103.6376" y1="-14380.5342" x2="172.368" y2="-14057.1787" gradientTransform="matrix(1 0 0 1 694 15472)">
			<stop  offset="0" style="stop-color:#522CD5"/>
			<stop  offset="0.4397" style="stop-color:#8A6FE8"/>
		</linearGradient>
		<path fill="url(#SVGID_5_)" d="M847.6,1418.8l-71.3-8.9l40.1-322.5l71.3,8.8L847.6,1418.8z"/>
		<path fill="#522CD5" d="M781.5,1371.7l56.5-0.3l15.6,302l-113.4,0.5c-8.6,0-14.3-6.9-12.7-15.6L781.5,1371.7z"/>
		
			<linearGradient id="SVGID_6_" gradientUnits="userSpaceOnUse" x1="48.7987" y1="-14073.0107" x2="202.8451" y2="-13779.4717" gradientTransform="matrix(1 0 0 1 694 15472)">
			<stop  offset="0" style="stop-color:#522CD5"/>
			<stop  offset="0.4397" style="stop-color:#8A6FE8"/>
		</linearGradient>
		<path fill="url(#SVGID_6_)" d="M945.7,1595.1c8.7,7.9,8.5,18,6.3,29.8l-6.8,36.2c-1.2,6.5-7.5,11.8-14,11.8l-162.2,0.8
			c-7.4,0-12.2-5.9-10.8-13.2l5.8-37.5c2.6-13.6,0.6-17.7,0.8-35.1c0.5-32.8,15.6-138.2,30.3-216.2l58.2-0.2
			C851.4,1417.6,871.5,1527.9,945.7,1595.1z"/>
		
			<radialGradient id="SVGID_7_" cx="-4200.5508" cy="-7736.2173" r="6.0492" gradientTransform="matrix(22.145 -0.1007 0.1006 22.1216 94662.375 172256.1094)" gradientUnits="userSpaceOnUse">
			<stop  offset="3.400000e-02" style="stop-color:#522CD5"/>
			<stop  offset="0.9955" style="stop-color:#8A6FE8"/>
		</radialGradient>
		<path fill="url(#SVGID_7_)" d="M763.9,1622.9l-5.8,37.5c-1.4,7.3,3.5,13.3,10.8,13.2l162.2-0.7c6.5,0,12.8-5.3,14-11.8l6.8-36.2
			c1.6-8.6,2.1-16.2-1-22.8l-185.9,0.8C765.4,1609.6,765.5,1614.4,763.9,1622.9z"/>
		<path fill="#8A6FE8" d="M804,455.8L736.5,483l-18.4-73.1l48.4-19.5L804,455.8z"/>
		<path fill="#512BD4" d="M788.8,582c38.2,0,69.1-30.9,69.1-69.1s-30.9-69.1-69.1-69.1s-69.1,30.9-69.1,69.1
			C719.7,551,750.7,582,788.8,582z"/>
		
			<radialGradient id="SVGID_8_" cx="-4329.7124" cy="-7552.6758" r="6.0492" gradientTransform="matrix(61.9498 0 0 61.9498 269240.5312 468654.875)" gradientUnits="userSpaceOnUse">
			<stop  offset="0.4744" style="stop-color:#A08BE8"/>
			<stop  offset="0.8618" style="stop-color:#8065E0"/>
		</radialGradient>
		<path fill="url(#SVGID_8_)" d="M1300.2,939.7C1325,844.2,1309,768,1309,768h22.4l0.5-0.4c-32.2-175.2-185.6-307.9-370-307.9
			c-207.8,0-376.3,168.5-376.3,376.3s168.4,376.3,376.3,376.3c164,0,303.5-104.9,355-251.2C1318.4,954.8,1318.3,943.6,1300.2,939.7z
			"/>
		<path fill="#D8CFF7" d="M1286.4,1026.5H637.5c14.6,24.8,31.9,47.7,51.5,68.4h545.8C1254.5,1074.2,1271.8,1051.3,1286.4,1026.5z"/>
		
			<radialGradient id="SVGID_9_" cx="-4304.8896" cy="-7587.5444" r="6.0492" gradientTransform="matrix(48.2581 0 0 48.2581 208977.8906 366859.3438)" gradientUnits="userSpaceOnUse">
			<stop  offset="9.330000e-02" style="stop-color:#E1DFDD"/>
			<stop  offset="0.8998" style="stop-color:#FFFFFF"/>
		</radialGradient>
		<path fill="url(#SVGID_9_)" d="M1300.2,939.7c24.6-94.3,9.2-169.7,8.9-171.6H918.6c0,0-24.6-2.5-24.6,20s0.9,85.9,0.9,156.2
			c0,14.4,11.8,21.4,21.1,21.4C916.1,965.6,1256.6,965.6,1300.2,939.7z"/>
		<path fill="#A08BE8" d="M1065,939.9c0,0,60.1-47.5,71.8-56.3c11.7-8.8,22-9.3,32.7,0s70.8,56.3,70.8,56.3H1065z"/>
		<path fill="#512BD4" d="M1315.4,965.3c0,0,10.4-20.1-15.2-25.7c0-0.1-383.8-0.3-383.8-0.3c-8.9,0-20.4-5.3-21.4-14
			c0,6.2,0,12.5,0,18.8c0,13.1,9.8,20,18.5,21.2c0.9,0.1,1.8,0.2,2.7,0.2h26.2L1315.4,965.3z"/>
		<path fill="#512BD4" d="M1286.5,851.6c0.4-27.3-12.4-49.7-28.7-49.9s-29.8,21.7-30.2,49c-0.4,27.3,12.4,49.7,28.7,49.9
			C1272.6,900.9,1286.1,879,1286.5,851.6z"/>
		<path fill="#8065E0" d="M1256.7,825c-10.8,10.8-10.8,28.2,0,38.9c7.4,7.4,17.8,9.7,27.2,7c1.6-5.9,2.5-12.4,2.6-19.3
			c0.2-13.4-2.8-25.6-7.8-34.6C1270.9,816.4,1262.8,819,1256.7,825z"/>
		<path fill="#512BD4" d="M1020.8,900.9c16.3-0.2,29.1-22.6,28.7-49.9s-13.9-49.3-30.2-49c-16.2,0.2-29.1,22.6-28.7,49.9
			C991,879.2,1004.5,901.2,1020.8,900.9z"/>
		<path fill="#8065E0" d="M1019.8,826.6c-10.8,10.8-10.8,28.2,0,38.9c7.3,7.3,17.7,9.6,27,7c1.8-6.5,2.8-13.8,2.6-21.6
			c-0.2-12.4-3.1-23.7-7.7-32.3C1033.9,818,1025.8,820.6,1019.8,826.6z"/>
		<path fill="#512BD4" d="M1084.8,1115.2l123.2-0.6l-0.5-108.9l-123.2,0.6L1084.8,1115.2z"/>
		<path fill="#FFFFFF" d="M1106.1,1074.5c-0.8,0-1.5-0.3-2.1-0.8c-0.6-0.6-0.9-1.2-0.9-2c0-0.8,0.3-1.5,0.9-2
			c0.6-0.6,1.3-0.8,2.1-0.8c0.8,0,1.5,0.3,2.1,0.8c0.6,0.5,0.9,1.2,0.9,2s-0.3,1.4-0.9,2C1107.7,1074.2,1107,1074.5,1106.1,1074.5z"
			/>
		<path fill="#FFFFFF" d="M1138.9,1074h-5.3l-14.1-22.1c-0.3-0.5-0.7-1.2-0.9-1.8h-0.1c0.1,0.6,0.2,2,0.2,4.1l0,19.7h-4.7l-0.1-30.1
			h5.7l13.6,21.6c0.6,0.9,0.9,1.5,1.1,1.8h0.1c-0.2-0.8-0.2-2.2-0.2-4.1l0-19.4h4.7L1138.9,1074z"/>
		<path fill="#FFFFFF" d="M1161.8,1073.9l-16.5,0l-0.1-30.1l15.8,0v4.2l-10.9,0l0,8.5l10.1,0v4.2l-10.1,0l0,8.9l11.6,0
			L1161.8,1073.9L1161.8,1073.9z"/>
		<path fill="#FFFFFF" d="M1185.2,1048l-8.4,0l0.1,25.9h-4.9l-0.1-25.9l-8.4,0v-4.2l21.7-0.1L1185.2,1048z"/>
		<path fill="#8A6FE8" d="M529.4,1254.2l40.2,57.3c10.8,15.2,31.9,18.7,47.2,7.9c15.2-10.8,18.7-31.9,7.9-47.1L575,1203
			L529.4,1254.2z"/>
		<path fill="#8A6FE8" d="M460.1,1232.5l-11.1,69.2c-2.8,18.4,9.8,35.7,28.3,38.5c18.4,2.8,35.7-9.8,38.5-28.3l11.4-70.9
			L460.1,1232.5z"/>
		<path fill="#8A6FE8" d="M505,1240.3l-9.3,69.4c-2.4,18.5,10.8,35.4,29.2,37.8c18.5,2.4,35.4-10.8,37.8-29.2l9.6-71.2L505,1240.3z"
			/>
		<path fill="#8A6FE8" d="M442.7,1211.8l-25.1,65.4c-6.6,17.5,2.3,37,19.8,43.5c17.5,6.6,37-2.3,43.5-19.8l25.7-67.1L442.7,1211.8z"
			/>
		
			<linearGradient id="SVGID_10_" gradientUnits="userSpaceOnUse" x1="-100.8671" y1="-14612.4697" x2="-100.8671" y2="-14231.5801" gradientTransform="matrix(1 0 0 1 694 15472)">
			<stop  offset="0.2495" style="stop-color:#967FE6"/>
			<stop  offset="1" style="stop-color:#8A6FE8"/>
		</linearGradient>
		<path fill="url(#SVGID_10_)" d="M489.3,1240.4c-27.9-57-44.2-154.4,1.8-241.6c28-52.9,89.2-120,222.3-139.3l10.7,73.8
			c-80.8,11.7-138.5,46.4-167,100.3c-30.8,58.4-22.6,129.4-0.8,174L489.3,1240.4z"/>
		
			<radialGradient id="SVGID_11_" cx="-4020.647" cy="-8072.1406" r="6.0492" gradientTransform="matrix(11.3989 0 0 11.3989 46567.6836 92874.9219)" gradientUnits="userSpaceOnUse">
			<stop  offset="0" style="stop-color:#8065E0"/>
			<stop  offset="1" style="stop-color:#512BD4"/>
		</radialGradient>
		<path fill="url(#SVGID_11_)" d="M739,954.1c38.1,0,68.9-30.8,68.9-68.9S777,816.3,739,816.3s-68.9,30.8-68.9,68.9
			C670.1,923.2,700.9,954.1,739,954.1z"/>
		
			<radialGradient id="SVGID_12_" cx="-4220.2651" cy="-7743.2979" r="6.0492" gradientTransform="matrix(22.7292 0 0 22.7292 96428.125 177152.7031)" gradientUnits="userSpaceOnUse">
			<stop  offset="0" style="stop-color:#8065E0"/>
			<stop  offset="1" style="stop-color:#512BD4"/>
		</radialGradient>
		<path fill="url(#SVGID_12_)" d="M508.6,1277.3c39.1,0,70.8-31.7,70.8-70.8s-31.7-70.8-70.8-70.8s-70.8,31.7-70.8,70.8
			C437.9,1245.7,469.5,1277.3,508.6,1277.3z"/>
		<path fill="#D8CFF7" d="M739.7,415.8c-26.2,7-53.3-8.4-60.5-34.4c-7.2-26,8.2-52.7,34.5-59.7c26.2-7,53.3,8.4,60.5,34.4
			C781.4,382.1,766,408.8,739.7,415.8z"/>
	</g>
	<g display="inline">
		
			<linearGradient id="SVGID_13_" gradientUnits="userSpaceOnUse" x1="995.3645" y1="1965.4716" x2="995.3645" y2="994.7999" gradientTransform="matrix(1 0 0 -1 0 2000)">
			<stop  offset="0" style="stop-color:#98C2F5"/>
			<stop  offset="0.7674" style="stop-color:#D8E8FB"/>
		</linearGradient>
		<path fill="url(#SVGID_13_)" d="M1045.9,37.7c-708.4-19.9-904.9,51.5-961,301c-64.1,285.2-15.8,478.5,21.5,666.5h1689
			c11.9-143.4,50.4-294.9,118.2-447.4C2047.6,256.5,1589,53,1045.9,37.7z"/>
		<path fill="#FFFFFF" d="M106.4,1005.2h1689c9.4-112.3,35-229.6,78.2-348.5c-10.4,0.2-21.9,1.1-34.2,3.4c-39.7,7.5-72,77-72,77
			s-8-36.7-60.3-55.3c-51.9-18.4-127.3,31.8-127.3,31.8s-13.9-87.8-112.2-120.6c-70.3-23.4-143.5,18.4-143.5,18.4
			s-75.9-107.2-218.8-84.8c-217.3,34-205.4,250.1-205.4,250.1s-87-68.1-192.5-26.2c-84.6,33.6-102.2,137.9-102.2,137.9
			S577,837.6,515,829.3c-46.9-6.3-97.1,23.4-97.1,23.4s-22.3-80.4-84.8-89.3s-107.7,60.8-107.7,60.8s-31.6-37.5-85.4-38.5
			c-30.3-0.6-53.5,7.9-70.8,19.2C79.4,874.7,93.5,940.3,106.4,1005.2z"/>
		<path fill="#FBC977" d="M1797,987c-393.9,0-1189,0-1210.1,0c-28.9,0-42.7-44.9-42.7-44.9s-77.7,0-100.1,0
			c-22.4,0-29.4-25.4-29.4-25.4s-76.4-24.9-80.7-29.8s0-65.6,0-65.6h-19.8v-23.6L290,782V640.3l-18.3-22.4l-39.9,10.2v95.2
			l-22.1,24.3v103.2L177.3,873l-88.5,13.4c0.8,13,1.4,26.2,1.8,39.5c13.9,70.3,28.7,138.3,38.4,208.3h1662.9
			C1790.4,1086.3,1792.1,1037.1,1797,987z"/>
		<path fill="#FBC977" d="M1810.4,890c-20.1-10.2-17.3-37.7-17.3-37.7H1737v-35.7l-35.1-10.1l-14-50.8V707l-26.6-8.6v-31.5
			l-30.8-25.4h-49.1l-6,25.4h-64.9l-6-25.6h-35.3l-8.4,15.7v23.5h-29.4c0,0,0,74.3,0,99.9s-29.4,40.2-29.4,40.2v38.5l-57.5,36
			l-23.9,63.1c0,0-64.5,11.2-74.3,12.6c-9.8,1.4-1.4,21.5-36.5,21.5c-35.1,0-403.7,0-403.7,0v184.7h987.8
			C1787.6,1085.4,1792.8,989.2,1810.4,890z"/>
		<path fill="#FDD490" d="M1217.3,1087.5c-308.6,50.4-461,40-748.2,0c-163.7-22.8-261.3-32.1-352.4-28.8
			c19.5,106.9,32,214.9,15.1,340c198,199.1,752.1,248.4,1219.5,217.9c246.8-16.1,409.4-53.8,508.9-114.9
			c-6.3-33.7-15.4-69.3-26.9-107c-32-104.6-46.2-220.4-40.8-342.9C1600.7,1042.4,1406,1056.7,1217.3,1087.5z"/>
		<path fill="#F9BE5C" d="M539.9,1165.1c-185,12.4-320.9,0-408.8-14.8c9.8,78,12.8,158.8,0.8,248.4
			c198,199.1,752.1,248.4,1219.5,217.9c246.8-16.1,409.4-53.8,508.9-114.9c-6.3-33.7-15.4-69.3-26.9-107
			c-25.3-82.9-39.5-172.9-41.7-267.6c-59,6.4-118.3,14.9-175.6,22.8C1180.1,1209.5,984.2,1135.2,539.9,1165.1z"/>
		<polygon fill="#F8B84F" points="1472.6,687.7 1472.6,857.6 1486.8,814.5 1486.8,703.2 		"/>
		<path fill="#F8B84F" d="M1585.5,914.5l140.1,26.9l-390,16.6l46,15.4h416.8c1.8-16.4,3.9-32.8,6.4-49.4c-5.2-9.3-7.6-17.5-7.6-17.5
			L1585.5,914.5z"/>
		<path fill="#F8B84F" d="M337.1,888.7C337.1,888.7,337.1,888.7,337.1,888.7c-0.5-0.2-0.9-0.5-1.3-0.7c-0.4-0.2-0.7-0.4-0.9-0.5
			c-0.1,0-0.1-0.1-0.2-0.1c-0.3-0.2-0.5-0.4-0.6-0.5c-1.6-1.8-2-11.5-1.9-22.8c0,0,0,0,0,0c0.2-19,1.9-42.7,1.9-42.7l-19.8-6.1
			v-17.5L290,782V640.3l-18.3-22.4v185.7l22,19v54.5h7.4l4.5,31.9l43.2,18.2H166.5l52.5,22.5h102.7l72.3,22h166
			c-10.5-13-15.6-29.7-15.6-29.7c-32.4,0-88.5,0-100.1,0c-8.4,0-14.6-3.6-19.1-8c-7.5-7.5-10.3-17.4-10.3-17.4
			S343,891.6,337.1,888.7z"/>
		<path fill="#F8B84F" d="M1508.3,700.6V863h48.5l9.6,23.3h238.4c-14-12-11.8-34-11.8-34H1737v-35.7l-35.1-10.1l-21.6-73.7
			l-19.1-15.1v-19.4v-31.5l-30.8-25.4h-16.2v38.3h-82.3L1508.3,700.6z"/>
		<polygon fill="#FBC977" points="1725.3,871.5 1681.4,855.5 1653.4,739.8 1635.9,732.9 1624.3,704.4 1620,858 1620,858 
			1597.2,871.9 		"/>
		<g>
			<path fill="#A2AD6D" d="M389.6,952.7c36,10.2,52.3-48.2,46.2-71.9s-21.7-17.5-22.2,5.4c-0.7,31.9-13,54.3-23.9,55
				C383.8,941.5,376,948.8,389.6,952.7z"/>
			<path fill="#A2AD6D" d="M361.1,1188.9c0,0,7.5-236.2-0.1-359.1c-2.6-42,21-44.8,25.9-1.4c12.4,111.5,17.6,360.4,17.6,360.4H361.1
				z"/>
			<path fill="#A2AD6D" d="M369.2,1005.7c-19.3-7.5-21.7-46.8-28.5-67.2s-27.8-21.4-25.1,15.4c2.7,36.8,23.8,66.7,45.2,69.5
				C375.6,1025.3,381.4,1010.4,369.2,1005.7z"/>
		</g>
		<path fill="#889643" d="M1557.6,1346.8c-212.8,25.9-426.3,78.2-643,78.2c-330.2,0-303.2-77.7-780-49.8
			c-4.1,37.8-10.7,77-20.7,118.3C18,1890.7,614.3,1988.9,1230,1948.8s707.1-214.3,603.2-554.1c-4.5-14.8-8.7-29.9-12.5-45.1
			C1741.8,1340.5,1647.5,1335.9,1557.6,1346.8z"/>
		<path fill="#EBA841" d="M1557.6,1346.8c-212.8,25.9-426.3,78.2-643,78.2c-330.2,0-303.2-77.7-780-49.8
			c-4.1,37.8-10.7,77-20.7,118.3C18,1890.7,614.3,1988.9,1230,1948.8s707.1-214.3,603.2-554.1c-4.5-14.8-8.7-29.9-12.5-45.1
			C1741.8,1340.5,1647.5,1335.9,1557.6,1346.8z"/>
		<polygon fill="#E8A53F" points="235.1,1327.7 185.2,1054.1 207.4,1049.6 276.8,1321.7 		"/>
		<polygon fill="#E29E3B" points="160.8,1110.2 262.8,1079.7 291.9,1098.5 276.3,1120.7 163,1140.7 		"/>
		<polygon fill="#E29E3B" points="294.1,1165.7 174.1,1156.8 146.4,1172 171,1195.9 291.9,1201.3 		"/>
		<g>
			<path fill="#F7B548" d="M211.9,1506.8c0,0,38.5-43.5,53.6-55.3c15.1-11.7,72,10.1,72,10.1l43.5,3.3l13.4,21.8
				c0,0-48.6,21.8-83.7,25.1S211.9,1506.8,211.9,1506.8z"/>
			<path fill="#D59235" d="M310.7,1511.9c35.2-3.3,83.7-25.1,83.7-25.1l-13.1-21.4c-15.3,13-42.7,33.2-62.2,29.8
				c-28.5-5-30.1-11.7-41.9-18.4c-4.9-2.8-22-0.6-40.4,2.8c-13.1,13.9-24.9,27.3-24.9,27.3S275.6,1515.2,310.7,1511.9z"/>
		</g>
		<path fill="#E5A13D" d="M1403.2,1430.7c-177.1,1.4-244.9-121.8-244.9-121.8l100.1,36.1l-59.9-80l85.9,51.2
			c0,0-51.8-77.9-44.4-75.5s92.6,68.2,92.6,68.2l-29.2-99.9l53.6,53.6l14.6-82.8l29.2,82.8l26.8-36.5v63.3l70.6-95l-29.2,87.7
			l102.3-80.4l-49.1,92.1l110-33.6l-79.6,58.4l103.9-18.3l-119.3,64.5h95C1632.1,1364.9,1579.9,1429.2,1403.2,1430.7z"/>
		<g>
			<path fill="#64BFAF" d="M1697.8,1521.8c-58.4,2.6-146.7-45.9-133.2-129.4s108.4-142.2,158.3-131c49.8,11.2,99.7,63.9,102.9,156.8
				S1748.6,1519.6,1697.8,1521.8z"/>
			<path fill="#57AA9A" d="M1811,1434c10.6-77.4-35.8-125.5-35.8-125.5s22.8,69.9,2.6,132c-13.3,41-55.4,62.5-82.5,72.4
				c20.8-17.9,54.6-50.9,61.2-80.4c20.2-89.3-4.9-141-4.9-141s-1.4,86.1-15.2,130.7c-8.5,27.5-34.2,59.3-52.7,79.6
				c9.9-24.8,24.9-64.6,32.9-96.5c12.5-50.1,3.6-123.4,0.7-124.7c-2.8-1.3-27.1,131.3-36,159.9c-6.1,19.4-12.9,47.5-17.2,63.8
				c-2.7-20.3-6.4-54.3-7.1-91.2c-1.1-58.7,40.9-133.9,40.9-133.9s-53.4,48.7-63.9,119.9c-5.3,36,6.8,84.8,13.5,107.8
				c-18.8-30.5-40.1-72.8-37.4-104.1c5-57.9,55.4-116.3,55.4-116.3s-47,33-66.6,58.3c-19.6,25.3-21.8,70.8-12.1,97.6
				c23,63.5,58.8,69.9,58.8,69.9s20.8,23.9,10.7,8.7l6.9,1.6l3.6,0.8l11.8,2.7C1678.9,1526.3,1800.4,1511.4,1811,1434z"/>
			<path fill="#E1EA95" d="M1757.1,1274.3l1.2-7.8l-10.4,3.6l2-9.6l-8.6,3.6l-2.8-9.6l-10.1,5.3l-1.8-8l-8.3,4.2l-5.9-6.9l-4.5,7.4
				l-4.6-6.9l-4.6,7.6l-7.8-4.2l-0.4,7.5l-8.6-0.4c0,0,4.7,8.5,9.2,12.6c0,0,0,0,0,0c4.5,5.2,15.5,11.3,29.4,13.6
				c32.8,5.5,45.5-10.3,45.5-10.3L1757.1,1274.3z"/>
		</g>
		<g>
			<path fill="#F7B548" d="M1587.4,1589.3c-78.6-2.4-99.7-25-99.7-25l-32.8-5.8c0,0-8.2-28.8,0-45.2c8.2-16.3-5.9-25,50.4-25
				s95,3.8,110.3,7.7c15.2,3.8,61,12.5,99.7,16.3s55.2,2.9,59.8,5.8c4.7,2.9,15.2,30.8,15.2,30.8s4.7,8.7-18.8,12.5
				c-23.5,3.8-73.9,23.1-96.2,25.9C1653.1,1590.3,1619.1,1590.3,1587.4,1589.3z"/>
			<path fill="#D59235" d="M1775.2,1518.2c-0.2-0.1-0.5-0.3-0.8-0.4c-6.4,8.5-13.8,18.1-16.8,21.5c-5.9,6.7-12.9,19.2-29.3,10.6
				c-16.4-8.7-35.2-13.4-35.2-13.4s-120.9,21.1-140.8,21.1s-56.3-4.8-49.3-23.1c7-18.3,19.9-22.1-5.9-22.1
				c-13.6,0-27.8-6.1-38.3-11.9c-1,3.6-1.4,7.9-4,12.9c-8.2,16.3,0,45.2,0,45.2l32.8,5.8c0,0,21.2,22.6,99.7,25
				c31.7,1,65.7,1,88-1.9s72.8-22.1,96.2-25.9s18.8-12.5,18.8-12.5S1779.8,1521.1,1775.2,1518.2z"/>
		</g>
	</g>
</g>
<g id="bot-base" display="none">
	<g display="inline">
		
			<radialGradient id="SVGID_14_" cx="-4329.7124" cy="-7552.6758" r="6.0492" gradientTransform="matrix(61.9498 0 0 61.9498 269240.5312 468654.875)" gradientUnits="userSpaceOnUse">
			<stop  offset="0.4744" style="stop-color:#A08BE8"/>
			<stop  offset="0.8618" style="stop-color:#8065E0"/>
		</radialGradient>
		<path fill="url(#SVGID_14_)" d="M1300.2,939.7C1325,844.2,1309,768,1309,768h22.4l0.5-0.4c-32.2-175.2-185.6-307.9-370-307.9
			c-207.8,0-376.3,168.5-376.3,376.3s168.4,376.3,376.3,376.3c164,0,303.5-104.9,355-251.2C1318.4,954.8,1318.3,943.6,1300.2,939.7z
			"/>
		<path fill="#D8CFF7" d="M1286.4,1026.5H637.5c14.6,24.8,31.9,47.7,51.5,68.4h545.8C1254.5,1074.2,1271.8,1051.3,1286.4,1026.5z"/>
		
			<radialGradient id="SVGID_15_" cx="-4304.8896" cy="-7587.5444" r="6.0492" gradientTransform="matrix(48.2581 0 0 48.2581 208977.8906 366859.3438)" gradientUnits="userSpaceOnUse">
			<stop  offset="9.330000e-02" style="stop-color:#E1DFDD"/>
			<stop  offset="0.8998" style="stop-color:#FFFFFF"/>
		</radialGradient>
		<path fill="url(#SVGID_15_)" d="M1300.2,939.7c24.6-94.3,9.2-169.7,8.9-171.6H918.6c0,0-24.6-2.5-24.6,20s0.9,85.9,0.9,156.2
			c0,14.4,11.8,21.4,21.1,21.4C916.1,965.6,1256.6,965.6,1300.2,939.7z"/>
		<path fill="#A08BE8" d="M1065,939.9c0,0,60.1-47.5,71.8-56.3c11.7-8.8,22-9.3,32.7,0s70.8,56.3,70.8,56.3H1065z"/>
		<path fill="#512BD4" d="M1315.4,965.3c0,0,10.4-20.1-15.2-25.7c0-0.1-383.8-0.3-383.8-0.3c-8.9,0-20.4-5.3-21.4-14
			c0,6.2,0,12.5,0,18.8c0,13.1,9.8,20,18.5,21.2c0.9,0.1,1.8,0.2,2.7,0.2h26.2L1315.4,965.3z"/>
		<path fill="#512BD4" d="M1084.8,1115.2l123.2-0.6l-0.5-108.9l-123.2,0.6L1084.8,1115.2z"/>
		<path fill="#FFFFFF" d="M1106.1,1074.5c-0.8,0-1.5-0.3-2.1-0.8c-0.6-0.6-0.9-1.2-0.9-2c0-0.8,0.3-1.5,0.9-2
			c0.6-0.6,1.3-0.8,2.1-0.8c0.8,0,1.5,0.3,2.1,0.8c0.6,0.5,0.9,1.2,0.9,2s-0.3,1.4-0.9,2C1107.7,1074.2,1107,1074.5,1106.1,1074.5z"
			/>
		<path fill="#FFFFFF" d="M1138.9,1074h-5.3l-14.1-22.1c-0.3-0.5-0.7-1.2-0.9-1.8h-0.1c0.1,0.6,0.2,2,0.2,4.1l0,19.7h-4.7l-0.1-30.1
			h5.7l13.6,21.6c0.6,0.9,0.9,1.5,1.1,1.8h0.1c-0.2-0.8-0.2-2.2-0.2-4.1l0-19.4h4.7L1138.9,1074z"/>
		<path fill="#FFFFFF" d="M1161.8,1073.9l-16.5,0l-0.1-30.1l15.8,0v4.2l-10.9,0l0,8.5l10.1,0v4.2l-10.1,0l0,8.9l11.6,0
			L1161.8,1073.9L1161.8,1073.9z"/>
		<path fill="#FFFFFF" d="M1185.2,1048l-8.4,0l0.1,25.9h-4.9l-0.1-25.9l-8.4,0v-4.2l21.7-0.1L1185.2,1048z"/>
	</g>
	<g display="inline">
		
			<linearGradient id="SVGID_16_" gradientUnits="userSpaceOnUse" x1="994.1088" y1="1321.2129" x2="1281.7843" y2="1686.4342" gradientTransform="matrix(1 0 0 -1 0 2000)">
			<stop  offset="0" style="stop-color:#C7862F"/>
			<stop  offset="2.450000e-02" style="stop-color:#C98830"/>
			<stop  offset="0.3159" style="stop-color:#DA9838"/>
			<stop  offset="0.6291" style="stop-color:#E5A23D"/>
			<stop  offset="1" style="stop-color:#E8A53F"/>
		</linearGradient>
		<path fill="url(#SVGID_16_)" d="M1268.9,364.3c35.2-12,74.3-4.8,102.2,19.8c16,14.1,25.8,31.6,25.8,47c0,33.2,22.4,109.4-64.9,133
			c-87.2,23.7-115.5,31.6-115.5,31.6H1000l-175.1-50.2l28.7-32.6c0,0,73.5,29.9,130.9-1.9s73.9-28,73.9-28s96.4-65.4,149.6-92.6
			C1232.9,377.7,1253.8,369.5,1268.9,364.3z"/>
		
			<linearGradient id="SVGID_17_" gradientUnits="userSpaceOnUse" x1="708.5517" y1="1362.6252" x2="1013.1296" y2="1749.3053" gradientTransform="matrix(1 0 0 -1 0 2000)">
			<stop  offset="0.3447" style="stop-color:#C7862F"/>
			<stop  offset="0.5466" style="stop-color:#D99638"/>
			<stop  offset="0.7693" style="stop-color:#E4A13D"/>
			<stop  offset="1" style="stop-color:#E8A53F"/>
		</linearGradient>
		<path fill="url(#SVGID_17_)" d="M1118,503.4c0,0-1.2,0.4-3.4,1.1c0,0-0.1,0-0.1,0c-14.8,4.7-75,23.7-140,43.4
			c-51.5,15.6-348.3,24.7-348.3,24.7s-23.5-103.3-24.8-123.3c-1.3-20-0.4-52.8,20.4-86.5c20.8-33.7,70.9-67,119.3-93.1
			c48.3-26.2,73.6-36.4,91.8-38.6c18.2-2.2,42.6,1.8,50.1,1.3c1.4-0.1,2.5-0.4,3.7-0.8c0,0,0,0,0,0c4.8-1.9,9.2-7.2,34-14.7
			c5.5-1.7,11.2-2.6,17-2.8c1.6-0.1,3.2-0.1,4.8,0c20.5,0.6,41.8,10.3,58.7,28.9c3.8,4.2,7.4,8.8,10.7,13.9
			c23.1,35.6,99.1,227.8,106,246.1C1117.9,503.1,1117.9,503.2,1118,503.4z"/>
		
			<linearGradient id="SVGID_18_" gradientUnits="userSpaceOnUse" x1="938.8022" y1="1604.1235" x2="1144.1511" y2="1636.2452" gradientTransform="matrix(1 0 0 -1 0 2000)">
			<stop  offset="6.080000e-02" style="stop-color:#E8A53F"/>
			<stop  offset="0.9064" style="stop-color:#FEDEA7"/>
		</linearGradient>
		<path opacity="0.5" fill="url(#SVGID_18_)" enable-background="new    " d="M1011.8,256.8c23.1,35.6,99.1,227.8,106,246.1
			c-0.8,0.6-1.8,1-2.8,1.4c-0.2,0.1-0.3,0.1-0.5,0.2c-6.6,2-17.5,0.7-34.9,2.1c0,0-37.9,15-49,18c-11.1,3.1-25.4-12.4-18.9-35
			c6.5-22.5,0-64.8-8.1-96.3c-8.1-31.5-13.3-80.3-13-115.2c0-4.6,5-21,10.5-35.2L1011.8,256.8z"/>
		
			<linearGradient id="SVGID_19_" gradientUnits="userSpaceOnUse" x1="938.5223" y1="1393.3174" x2="1068.1042" y2="1557.8295" gradientTransform="matrix(1 0 0 -1 0 2000)">
			<stop  offset="0.3447" style="stop-color:#38776B"/>
			<stop  offset="0.5255" style="stop-color:#3D8073"/>
			<stop  offset="0.8175" style="stop-color:#4C9889"/>
			<stop  offset="1" style="stop-color:#57AA9A"/>
		</linearGradient>
		<path fill="url(#SVGID_19_)" d="M1118,503.4c5.5-1.4,6.4-2,5.1-7.5s-2.6-16.9-8.9-15.2c-6.3,1.7-230.5,66.8-230.5,66.8l6.7,21.3
			l84.1-21L1118,503.4z"/>
		
			<linearGradient id="SVGID_20_" gradientUnits="userSpaceOnUse" x1="616.901" y1="1154.7454" x2="1006.1844" y2="1648.9639" gradientTransform="matrix(1 0 0 -1 0 2000)">
			<stop  offset="0.3447" style="stop-color:#C4832D"/>
			<stop  offset="0.4552" style="stop-color:#D49336"/>
			<stop  offset="0.6327" style="stop-color:#E8A640"/>
			<stop  offset="0.8133" style="stop-color:#F3B146"/>
			<stop  offset="1" style="stop-color:#F7B548"/>
		</linearGradient>
		<path fill="url(#SVGID_20_)" d="M1185.2,601.4c-264.5,22.6-442.8,35.9-531.9,62.5c-89.1,26.6-239.6,58.2-258.1,38.4
			c-18.5-19.8-61.3-43.8,0-93s179.6-82.5,288.7-85.1c109.1-2.7,252.7,18.6,327.9,31.9c75.2,13.3,170.4,49.2,215.9,37.2
			C1227.7,593.4,1193,600.7,1185.2,601.4z"/>
		
			<linearGradient id="SVGID_21_" gradientUnits="userSpaceOnUse" x1="888.2839" y1="1782.4966" x2="942.4985" y2="1770.0194" gradientTransform="matrix(1 0 0 -1 0 2000)">
			<stop  offset="6.080000e-02" style="stop-color:#C4832D"/>
			<stop  offset="0.2036" style="stop-color:#CB8E3B"/>
			<stop  offset="0.474" style="stop-color:#DCA960"/>
			<stop  offset="0.8409" style="stop-color:#F9D69C"/>
			<stop  offset="0.9064" style="stop-color:#FEDEA7"/>
		</linearGradient>
		<path opacity="0.5" fill="url(#SVGID_21_)" enable-background="new    " d="M932,231.2c-7.8,4.6-26.5,6.2-45.3,0.4
			c4.8-1.9,9.2-7.2,34-14.7c5.5-1.7,11.2-2.6,17-2.8C938.5,221.8,937.2,228.1,932,231.2z"/>
		
			<linearGradient id="SVGID_22_" gradientUnits="userSpaceOnUse" x1="692.758" y1="1686.9235" x2="837.3959" y2="1602.4028" gradientTransform="matrix(1 0 0 -1 0 2000)">
			<stop  offset="2.110000e-02" style="stop-color:#B87B2A;stop-opacity:0"/>
			<stop  offset="3.780000e-02" style="stop-color:#B87B2A;stop-opacity:4.040000e-02"/>
			<stop  offset="0.4336" style="stop-color:#B87B2A"/>
			<stop  offset="0.5698" style="stop-color:#C68F44"/>
			<stop  offset="0.8587" style="stop-color:#EBC385"/>
			<stop  offset="1" style="stop-color:#FEDEA7"/>
		</linearGradient>
		<path opacity="0.5" fill="url(#SVGID_22_)" enable-background="new    " d="M807.9,272.1c-6.6,30.9-44.3,85.8-83.8,109.7
			s-64.5,47.9-77.4,23.9c-13-23.9,2-71.8,59.9-106.8s97-48.9,101.4-41.9C812.2,264.2,807.9,272.1,807.9,272.1z"/>
	</g>
	<g display="inline">
		<path fill="#DC624F" d="M489.2,1240.4c-27.9-57-44.2-154.4,1.8-241.6c28-52.9,89.2-120,222.3-139.3l10.7,73.8
			c-80.8,11.7-138.5,46.4-167,100.3c-30.8,58.4-22.6,129.4-0.8,174L489.2,1240.4z"/>
		<path fill="#CC5444" d="M738.9,954.1c38.1,0,68.9-30.8,68.9-68.9s-30.8-68.9-68.9-68.9S670,847.1,670,885.2
			C670,923.2,700.8,954.1,738.9,954.1z"/>
		<path fill="#B77125" d="M636.4,1236.7l-14.8-12.6c-64.4-64.4-66.6-103.4-65.8-109.7c0.8-6.5-108.9,14.6-108.9,14.6
			s7.1,16.1-2.2,52.7c-9.1,35.5-17.8,59.2-27.3,90.5l-2.1,5.4c-6.6,17.5,2.3,37,19.8,43.5c5,1.9,10.2,2.5,15.2,2
			c4.9,9,13.7,15.8,24.7,17.4c9.1,1.4,17.9-1,24.8-6c5.3,7.1,13.3,12.1,22.8,13.3c18.5,2.4,35.4-10.8,37.8-29.2l7.1-52.4l24.8,21.7
			c14.1,12.2,35.5,10.6,47.7-3.6C652.2,1270.2,650.5,1248.8,636.4,1236.7z"/>
		<path fill="#FFE5B9" d="M553.1,1122.1l-102.6,13.7c-4.4,0.6-8.4-2.5-9-6.9l-0.7-5c-0.6-4.4,2.5-8.4,6.9-9l102.6-13.7
			c4.4-0.6,8.4,2.5,9,6.9l0.7,5C560.5,1117.5,557.4,1121.5,553.1,1122.1z"/>
	</g>
	<g display="inline">
		<path fill="#DC624F" d="M1313.3,971.2c-6.8,17.3-19.6,44.2-31,62.1c57.5,54.7,142.1,97.3,186.9,100.9l5.6-67.6
			C1436.5,1063.5,1355.8,1016.7,1313.3,971.2z"/>
		<path fill="#B77125" d="M1544.6,981.8c-10.1-13.6-29.3-16.3-42.8-6.1l-62.5,46.9c-8.9,5.2-22.8,10.9-30.2,7.9l-36.3,76.7
			c0,0,14.4,29.8,64.3,55.4c14.4,7.4,61-69.1,70.1-114.5l31.3-23.6C1552,1014.5,1554.7,995.3,1544.6,981.8z"/>
		<g>
			<g>
				<path fill="#6D6A66" d="M1371.1,1445.3l-2.8-6.4c24.6-10.9,39.9-21.6,50.5-47.4c9.6-23.3,14.8-58.1,16.9-113.3
					c-13.8-28.3-21.2-63-21.5-100.6c-0.3-30.8,7-57.5,21.5-79.4c6.2-9.3,13.7-17.8,22.4-25.3c6.8-11.4,15.8-20.3,27.6-30.8
					c9.7-8.5,22.2-10.4,36-5.6c3.1,0,6.2,0.2,9.3,0.7c21.4-5.3,40-6.8,49.6-7.2c23.2-0.9,46.3,6.9,66.9,22.8
					c15.5,11.9,24,24,24.3,24.5l-5.7,4c-0.3-0.5-33.1-46.4-85.2-44.3c-7.5,0.3-20.7,1.3-36.5,4.4c8.9,4.1,17.6,10.7,25.7,19.7
					c22.3,24.8,38.9,65.7,45.7,112.3c7.1,49.1,2.2,96.3-13.9,132.7c-22,49.8-45.4,75.1-69.3,75.1c0,0-0.1,0-0.1,0
					c-20.6-0.1-40.4-18.5-59.1-54.8c-11.6-9-22.2-21.4-31.1-36.2c-2.4,49.4-7.8,81.6-16.9,103.9
					C1413.8,1422,1396.7,1434,1371.1,1445.3z M1485.7,1334.7c15.3,26.1,31.2,39.7,46.7,39.7c0,0,0,0,0.1,0c20.9,0,42.1-23.9,62.9-71
					c31.7-71.8,14.2-175.9-22.4-227.4c1.4,2.3,2.7,4.8,4,7.5c4.5,9.3,8.3,20.2,11.2,32.5c9.9,26,18.8,64.8,13.9,114.5
					c-2.9,29.2-10.3,57.4-21,79.4c-11.7,24.1-26,38.4-41.4,41.2c-10.3,1.9-19.7-1.6-28.1-8c-6.6-0.7-13.2-2.5-19.8-5.4
					C1489.7,1336.7,1487.7,1335.8,1485.7,1334.7z M1525.2,1342.8c4.4,1.6,8.8,2,13.1,1.2c12.9-2.3,25.8-15.6,36.4-37.3
					c10.3-21.2,17.5-48.6,20.3-77c1.8-18.6,1.7-35.6,0.2-51c0.2,12.7-0.3,25.8-1.5,39c-4.5,51.3-18.5,93.4-36.5,109.8
					C1547.9,1336.2,1536.9,1341.3,1525.2,1342.8z M1514.1,1336.2c14,1,27.3-3.7,38.5-13.9c16.7-15.2,29.8-55.6,34.2-105.2
					c3.2-36.2,1.2-71-5.4-99c-1.2-3.2-2.4-6.2-3.7-8.9c-9.9-22.7-23.6-41.9-38.3-54.1c-6.7-2.3-14-2.7-21.9-1.3
					c-26.3,4.5-46.1,18.9-58.9,42.7c-0.4,0.8-0.9,1.7-1.3,2.5c-8.1,23.9-9.9,54.2-5.3,88.4c5,36.6,17,74.8,34.6,110.4
					C1495.6,1315.7,1504.8,1328.6,1514.1,1336.2z M1478.8,1321.9c5.1,3.8,10.3,6.9,15.7,9.2c2.4,1.1,4.9,2,7.3,2.7
					c-8.6-9.6-15.8-21.7-21.4-33.1c-17.9-36.3-30.1-75.2-35.2-112.5c-0.1-0.5-0.1-1-0.2-1.5c-0.2,6.1-0.5,12.6-0.7,19.4
					c4.1,35.2,14.2,70.6,26.8,99.5C1473.7,1311.4,1476.2,1316.9,1478.8,1321.9z M1442.7,1276.7c0.5,0.9,0.9,1.9,1.4,2.8
					c6.1,11.6,13.2,21.8,21.1,30.3c-0.2-0.4-0.4-0.9-0.6-1.3c-9-20.6-16.2-42.7-21.2-65c0,0.8,0,1.5,0,2.3
					C1443.3,1256.7,1443.1,1267,1442.7,1276.7z M1449.9,1090.9c-19.4,22.6-29,51.6-28.7,86.7c0.3,30.9,5.4,59.6,15,84.3
					c0.1-5.2,0.2-10.7,0.3-16.2c0.2-14.1,0.5-27.1,0.8-39c-0.4-3.6-0.8-7.2-1-10.8c-2.6-32.6,0.4-61.6,8.5-85.1
					C1446.2,1103.3,1447.9,1096.8,1449.9,1090.9z M1543.2,1049c0.8,0.3,1.5,0.6,2.2,0.9c-1-0.6-2.1-1.1-3.1-1.6
					C1542.6,1048.5,1542.9,1048.8,1543.2,1049z M1525.8,1045.9c-0.1,0-0.3,0.1-0.4,0.1c0.2,0,0.4,0,0.6,0
					C1525.9,1046,1525.8,1045.9,1525.8,1045.9z"/>
			</g>
			<g>
				<path fill="#6D6A66" d="M1463.3,1345.7c-2.1,0-4.2-0.1-6.3-0.4c-19.8-2.5-34.9-17.3-42.6-41.6c-10.7-33.8-13.8-71.8-8.9-109.7
					c4.6-35.9,16.3-70,32.9-96.1c19.5-30.6,44.3-48.6,71.5-52.2l0,0c19.4-2.5,36.5,6.8,49.4,27c14.8,23.1,23.2,58.7,22.9,97.8
					c-0.3,40.1-9.9,78.4-26.4,104.9C1528.3,1319.4,1493.5,1345.7,1463.3,1345.7z M1510.3,1049.2l0.4,3.5
					c-25.1,3.2-48.1,20.2-66.5,49c-16.1,25.2-27.4,58.3-31.9,93.2c-4.7,37-1.7,73.9,8.6,106.7c6.9,21.9,19.7,34.6,36.8,36.8
					c28.4,3.6,64.5-22.6,91.9-66.6c15.9-25.4,25.1-62.3,25.4-101.2c0.3-37.2-7.9-72.3-21.8-94c-7.9-12.3-21.8-26.5-42.6-23.8
					L1510.3,1049.2z"/>
			</g>
			<g>
				<path fill="#6D6A66" d="M1678.1,1097.5c-3.6,2.2-8.2,1.3-10.7-2.1c-4.6-6.2-12.8-16.2-24.1-25.5c-20.6-17-42.2-24.7-64.4-22.8
					c-4.1,0.3-7.8-2.6-8.6-6.7l-1.5-8.7c-0.8-4.7,2.5-9.1,7.3-9.5c29.1-2.7,57.9,7.2,83.8,28.9c13.2,11,22.8,22.7,28.1,30
					c2.8,3.8,1.8,9.2-2.3,11.7L1678.1,1097.5z"/>
			</g>
		</g>
		<path fill="#B77125" d="M1551.2,1046.6l-57.5,4.4c-16.9,1.2-29.6,15.8-28.4,32.7c1.2,16.9,15.8,29.6,32.6,28.4l57.5-4.4
			c16.9-1.2,29.6-15.8,28.4-32.7C1582.7,1058.1,1568,1045.3,1551.2,1046.6z"/>
		<path fill="#B77125" d="M1538.1,1090.4l-57.5,4.4c-16.9,1.2-29.6,15.8-28.4,32.7c1.2,16.9,15.8,29.6,32.6,28.4l57.5-4.4
			c16.9-1.2,29.6-15.8,28.4-32.7C1569.6,1102,1554.9,1089.2,1538.1,1090.4z"/>
		<path fill="#B77125" d="M1510.5,1125.7l-57.5,4.4c-16.9,1.2-29.6,15.8-28.4,32.7c1.2,16.9,15.8,29.6,32.6,28.4l57.5-4.4
			c16.9-1.2,29.6-15.8,28.4-32.7C1542.1,1137.3,1527.4,1124.5,1510.5,1125.7z"/>
		<path fill="#FFE5B9" d="M1412,1031.8l-35.8,78.5c-1.7,3.7-6.1,5.3-9.8,3.7l-5.7-2.6c-3.7-1.7-5.3-6.1-3.7-9.8l35.8-78.5
			c1.7-3.7,6.1-5.3,9.8-3.7l5.7,2.6C1412,1023.7,1413.7,1028.1,1412,1031.8z"/>
	</g>
</g>
<g id="asset">
	<g>
		<path fill="#56534F" d="M1168.8,1282.5c54.1-12.3,74.8,16.2,84.3,32.4c9.5,16.2,12.3,51.3,7.8,56.4
			C1256.4,1376.3,1168.8,1282.5,1168.8,1282.5z"/>
		<path fill="#56534F" d="M807.5,1300.1c59.3-37.9,99.3-26.1,102.7-5.3c7.2,44.7-30.2,127.5-39.4,135.9S807.5,1300.1,807.5,1300.1z"
			/>
		
			<linearGradient id="SVGID_23_" gradientUnits="userSpaceOnUse" x1="1164.9368" y1="851.9102" x2="1164.9368" y2="621.0656" gradientTransform="matrix(1 0 0 -1 0 2000)">
			<stop  offset="0" style="stop-color:#522CD5"/>
			<stop  offset="0.4397" style="stop-color:#8A6FE8"/>
		</linearGradient>
		<path fill="url(#SVGID_23_)" d="M1113.3,1182c30.7,77.1,33.2,154.8,32.2,192.7c-0.2,3.9,36.1,7.4,71-0.6
			c0.5-48.9-5.1-139.2-41-226.1C1156,1161.2,1135.2,1172.6,1113.3,1182z"/>
		
			<linearGradient id="SVGID_24_" gradientUnits="userSpaceOnUse" x1="825.41" y1="821.89" x2="825.41" y2="581.1901" gradientTransform="matrix(1 0 0 -1 0 2000)">
			<stop  offset="0" style="stop-color:#522CD5"/>
			<stop  offset="0.4397" style="stop-color:#8A6FE8"/>
		</linearGradient>
		<path fill="url(#SVGID_24_)" d="M805.1,1178.1l-28.8,231.8l71.3,8.9l27-216.8C850.4,1196.3,827.2,1188.2,805.1,1178.1z"/>
		<path fill="#FFE5B9" d="M1061.2,1593.2l3.9,10.7c0.4,1.2,2,1.7,3,0.9l9-6.8c1.4-1.1,3.6,0.3,3.1,2l-3.5,10.5
			c-0.4,1.2,0.6,2.4,2,2.4l11.8-0.4c1.9-0.1,2.8,2.3,1.3,3.3l-9.5,6.3c-1.1,0.7-1,2.2,0.2,3l10.1,6.3c1.6,1,0.9,3.3-1,3.3l-11.9-0.4
			c-1.3,0-2.2,1.2-1.7,2.4l4.6,10.5c0.7,1.7-1.3,3.1-2.8,2l-9.7-6.8c-1.1-0.8-2.6-0.3-2.9,0.9l-2.7,10.7c-0.4,1.7-3,1.7-3.7,0
			l-3.9-10.7c-0.4-1.2-2-1.7-3-0.9l-9,6.8c-1.4,1.1-3.6-0.3-3.1-2l3.5-10.5c0.4-1.2-0.6-2.4-2-2.4l-11.8,0.4
			c-1.9,0.1-2.8-2.3-1.3-3.3l9.5-6.3c1.1-0.7,1-2.2-0.2-3l-10.1-6.3c-1.6-1-0.9-3.3,1-3.3l11.9,0.4c1.3,0,2.2-1.2,1.7-2.4l-4.6-10.5
			c-0.7-1.7,1.3-3.1,2.8-2l9.7,6.8c1.1,0.8,2.6,0.3,2.9-0.9l2.7-10.7C1058,1591.4,1060.6,1591.4,1061.2,1593.2z"/>
		<path fill="#FFE5B9" d="M1132.3,1629.3c0,0-52.4-16.4-74.7-11.9c-6.7,1.3-4.2,10.3,3.8,10.3c24.3,0,65.9,34.8,65.9,34.8l33,6.3
			L1132.3,1629.3z"/>
		<path fill="#DC624F" d="M1135.7,1650c-33.1-54.4-16.3-56.9-12.8-91.3c3.5-34.3-40.8-218.5-40.2-223.5s17.1-41.9,81.7-47.7
			s93.1,68.7,93.1,68.7s4.2-6.1,6.2-18.3c3.6,0,15.2,19.3,13.6,45.9c-6,97.4,0.3,124.7,4.3,150.7c4,25.9,37.7,56.9,60.8,73.7
			s85.8,19.4,112.4,12.4c6.9-1.8,12.6-1.7,15.3,9.7c3.3,13.6,3.4,16.7,4.5,21.9c2,9.7-58,50.6-149,27.2
			C1234.7,1655.9,1135.7,1650,1135.7,1650z"/>
		<path fill="#CC5444" d="M1257.5,1356.2c0,0-0.2-0.4-0.5-1.2c0.2,1,0.4,1.7,0.4,1.9c-0.6,7.8-5.7,79.5,20.4,153.1
			c-3.1-23.1-5.4-56.9-0.5-126.2c2.3-33.1-13.1-55.4-16.6-55.4C1264.6,1344.6,1257.5,1356.2,1257.5,1356.2z"/>
		<path fill="#FFE5B9" d="M629.1,1572.9l2,11.3c0.2,1.3,1.6,2,2.6,1.4l9-5.3c1.5-0.8,3.2,0.9,2.5,2.5l-4.5,9.8
			c-0.5,1.1,0.2,2.5,1.5,2.7l10.7,1.6c1.7,0.3,2.2,2.7,0.7,3.5l-9.4,4.6c-1.1,0.5-1.2,2.1-0.3,3l8.3,7.9c1.3,1.3,0.4,3.5-1.3,3.1
			l-10.7-2.3c-1.2-0.3-2.2,0.8-1.9,2.1l2.7,11.2c0.4,1.8-1.6,2.9-2.8,1.5l-7.8-8.4c-0.9-0.9-2.3-0.7-2.8,0.4l-3.9,10.2
			c-0.6,1.6-3,1.2-3.3-0.6l-2-11.3c-0.2-1.3-1.6-2-2.6-1.4l-9,5.3c-1.5,0.8-3.2-0.9-2.5-2.5l4.5-9.8c0.5-1.1-0.2-2.5-1.5-2.7
			l-10.7-1.6c-1.7-0.3-2.2-2.7-0.7-3.5l9.4-4.6c1.1-0.5,1.2-2.1,0.3-3l-8.3-7.9c-1.3-1.3-0.4-3.5,1.3-3.1l10.7,2.3
			c1.2,0.3,2.2-0.8,1.9-2.1l-2.7-11.2c-0.4-1.8,1.6-2.9,2.8-1.5l7.8,8.4c0.9,0.9,2.3,0.7,2.8-0.4l3.9-10.2
			C626.5,1570.7,628.8,1571.1,629.1,1572.9z"/>
		<path fill="#FFE5B9" d="M688.4,1620.6c0,0-45.1-25-65.8-24.2c-6.2,0.2-5.2,9.5,2,10.9c21.9,4,54.8,45.4,54.8,45.4l28.9,11.7
			L688.4,1620.6z"/>
		<path fill="#DC624F" d="M680.2,1615.7c-1.8-21.5,6-37.2,22.4-59.8c16.4-22.6,23.1-140.3,24.6-177.9c1.5-37.7,10.8-72,10.8-72
			s30.5-38.5,93.8-8.4c42.8,20.4,43,118.1,43,118.1s21.1-47.5,29.7-81.2c7.3-28.7,4.5-41,4.5-41s20.4,35.2-19.7,142.3
			c-24.7,65.9-23.6,114.7-9.7,141.5s44.7,46.9,68.6,52.7s65.7,6.4,73.9,5.6s13.2,0.3,12.5,8.7c-0.4,5-6.7,25.1-6.7,25.1
			s-170.4,36.8-197.5,16.7c-27.2-20.1-84.2-49.4-110.2-52.7C694.3,1629.9,680.2,1615.7,680.2,1615.7z"/>
		<path fill="#CC5444" d="M894.7,1597.9c-6-6.3-11.2-13.2-15.1-20.7c-13.9-26.8-15-75.6,9.7-141.5c40.1-107.2,19.7-142.3,19.7-142.3
			s2.8,12.3-4.5,41c-8.6,33.8-29.7,81.2-29.7,81.2C852.1,1494.4,855.6,1575.5,894.7,1597.9z"/>
		<path fill="#8DBCF4" d="M861.5,1505.2c0,0-18.6,15.9-55.2,31.8c18,11.7,34.9,16.8,22.2,45.2c-8.5,19-65.6,27.6-130.4-20.1
			c-13.4,19.4-19.7,34.1-18,53.6c0,0,14.1,14.2,40,17.6s83,32.7,110.2,52.7c27.2,20.1,197.6-16.7,197.6-16.7s6.3-20.1,6.7-25.1
			c0.7-8.4-4.3-9.5-12.5-8.7c-8.2,0.8-50,0.3-73.9-5.6c-23.9-5.9-54.7-25.9-68.6-52.7c-7.9-15.2-11.7-37.5-8.9-65.9L861.5,1505.2z"
			/>
		<path fill="#56534F" d="M680.2,1615.7c38.9,10.1,66.6,13.4,130.5,46.9s224.3-2.5,224.3-2.5l-2.2,15.1c0,0-143.9,33.5-179,31.8
			c-35.1-1.7-37.8-11.7-57.2-28.5s-50-27.6-50-27.6l-2.7,31l-51.2-13.4C692.7,1668.5,685.5,1645.9,680.2,1615.7z"/>
		<path fill="#8DBCF4" d="M1240.5,1545.4c31.4,17.3,32.6,44.4,4.3,47.7c-26.9,3.2-66.2,0.3-122.6-28.1c-4.7,28.6-17.3,34.1,13.6,85
			c0,0,99,5.9,190,29.3c91,23.4,151-17.5,149-27.2c-1.1-5.2-1.2-8.3-4.5-21.9c-2.8-11.3-8.4-11.5-15.3-9.7
			c-26.7,7.1-89.3,4.4-112.4-12.4s-56.7-47.7-60.8-73.7c-0.7-4.6-1.5-9.3-2.3-14.4l-8.3-3.2
			C1271,1516.9,1263.3,1534.8,1240.5,1545.4z"/>
		<path fill="#56534F" d="M1129.9,1640c0,0,77.9,5.6,142.4,20.9c119.7,28.5,207.4-15.7,207.4-15.7l2.4,12.6c0,0-103.7,60.9-141,43.3
			c-37.4-17.6-106.6-32.7-106.6-32.7l12,25.1l-81.7,0.8C1164.7,1694.4,1129.7,1653.4,1129.9,1640z"/>
		<g>
			<path fill="#CC5444" d="M1192.3,1584.7c-0.9-3.6-1.9-7.5-2.9-11.7l6.8-1.6c1,4.2,2,8.1,2.9,11.6L1192.3,1584.7z M1186.7,1561.2
				c-0.8-3.8-1.7-7.8-2.5-11.8l6.9-1.4c0.8,4,1.6,7.9,2.5,11.7L1186.7,1561.2z M1181.9,1537.6c-0.7-3.9-1.4-7.9-2.2-11.9l6.9-1.2
				c0.7,3.9,1.4,7.9,2.1,11.8L1181.9,1537.6z M1177.7,1513.8c-0.6-3.9-1.3-7.9-1.8-11.9l6.9-1c0.6,3.9,1.2,7.9,1.8,11.8
				L1177.7,1513.8z M1174.2,1490c-0.5-3.9-1.1-8-1.6-11.9l6.9-0.9c0.5,4,1,7.9,1.6,11.9L1174.2,1490z M1171.2,1466.1
				c-0.4-3.9-0.9-7.9-1.3-12l7-0.7c0.4,4,0.8,8,1.3,11.9L1171.2,1466.1z M1168.7,1442.2c-0.4-3.9-0.7-7.9-1-12l7-0.6
				c0.3,4,0.7,8,1,11.9L1168.7,1442.2z M1166.7,1418.2c-0.3-3.9-0.5-8-0.8-12l7-0.4c0.2,4,0.5,8,0.8,11.9L1166.7,1418.2z
				 M1165.3,1394.1c-0.2-4-0.4-8-0.5-12l7-0.3c0.2,4,0.3,8,0.5,11.9L1165.3,1394.1z M1164.3,1370.1c-0.1-4-0.2-8-0.3-12l7-0.1
				c0.1,4,0.2,8,0.3,12L1164.3,1370.1z"/>
		</g>
		<g>
			<path fill="#CC5444" d="M740.2,1574.4c0-0.8,0-1.8,0-2.9c0-2.5,0-5.5,0-9.2l7,0.1c0,3.6,0,6.7,0,9.1c0,1.1,0,2,0,2.9
				L740.2,1574.4z M747.4,1550.4l-7-0.1c0.1-3.7,0.2-7.8,0.3-12l7,0.2C747.5,1542.7,747.5,1546.7,747.4,1550.4z M748,1526.4l-7-0.2
				c0.1-3.9,0.3-7.9,0.5-12l7,0.3C748.3,1518.6,748.2,1522.6,748,1526.4z M749.1,1502.5l-7-0.4c0.2-3.9,0.5-7.9,0.7-12l7,0.4
				C749.6,1494.6,749.3,1498.6,749.1,1502.5z M750.7,1478.6l-7-0.5c0.3-4,0.6-8.1,1-12l7,0.6C751.3,1470.6,751,1474.6,750.7,1478.6z
				 M752.7,1454.7l-7-0.7c0.4-4.1,0.8-8.1,1.3-12l7,0.8C753.5,1446.7,753.1,1450.7,752.7,1454.7z M755.4,1431l-6.9-0.9
				c0.5-4.1,1.1-8.1,1.7-12l6.9,1C756.5,1423,756,1426.9,755.4,1431z M759,1407.3l-6.9-1.2c0.7-4.1,1.4-8.1,2.2-11.9l6.9,1.3
				C760.3,1399.4,759.6,1403.3,759,1407.3z M763.5,1384l-6.8-1.6c0.9-4.1,1.9-8.1,2.9-11.8l6.8,1.8
				C765.4,1376.1,764.4,1380,763.5,1384z"/>
		</g>
		<g>
			<path fill="#60A2F0" d="M796.3,1612h-0.2c-1.5,0-3.1,0-4.7-0.1c-2.4-0.1-4.9-0.2-7.3-0.3l0.5-7c2.3,0.2,4.7,0.3,7,0.3
				c1.6,0,3.1,0.1,4.6,0.1h0.2V1612z M808.6,1611.6l-0.6-7c4.4-0.4,8-0.9,11.2-1.8l1.8,6.8C817.4,1610.5,813.3,1611.2,808.6,1611.6z
				 M771.8,1610.1c-3.9-0.6-8-1.5-12-2.4l1.7-6.8c3.9,0.9,7.7,1.7,11.5,2.3L771.8,1610.1z M748,1604.4c-3.8-1.2-7.7-2.6-11.5-4
				l2.5-6.5c3.7,1.4,7.5,2.7,11.1,3.9L748,1604.4z M833,1603.9l-4.3-5.5c2.6-2,4.4-4.6,5.9-8.2l6.5,2.6
				C839.2,1597.5,836.5,1601.1,833,1603.9z M725.2,1595.7c-3.7-1.7-7.4-3.4-11-5.3l3.2-6.2c3.5,1.8,7.1,3.5,10.6,5.2L725.2,1595.7z
				 M703.5,1584.4c-6.5-3.8-10.3-6.5-10.4-6.6l4.1-5.7c0,0,3.7,2.6,9.9,6.3L703.5,1584.4z M844.3,1580.6l-6.9-1.2
				c0.3-1.7,0.6-3.5,0.8-5.7c0.2-1.8,0.4-3.6,0.4-5.3v-0.2l7-0.1v0.3c0,2.1-0.1,4.2-0.4,6.3C844.8,1576.9,844.6,1578.8,844.3,1580.6
				z M836.9,1557.3c-1.1-3.4-2.6-6.7-4.8-9.9l5.9-3.8c2.4,3.8,4.3,7.7,5.6,11.7L836.9,1557.3z M829.4,1538.9c0.9-0.3,1.6-1,2-1.9
				l-6.5-2.5c0.4-1,1.3-1.8,2.3-2.2c0.2-0.1,1.8-0.8,9.6-5.5l3.6,6C830.9,1538.4,830,1538.8,829.4,1538.9z M850.7,1526.7l-3.6-6
				c4.3-2.6,8.1-4.9,10.3-6.2l3.6,6C858.8,1521.8,855,1524.1,850.7,1526.7z"/>
		</g>
		<g>
			<path fill="#60A2F0" d="M1230.4,1609.2c-3.8,0-7.6-0.2-11.5-0.5l0.6-7c3.7,0.3,7.3,0.5,10.9,0.5h0.8l0,7L1230.4,1609.2z
				 M1243.6,1608.5l-0.7-7c3.4-0.3,7-0.8,11-1.5l0.6-0.1l1.3,6.9l-0.7,0.1C1250.9,1607.6,1247.2,1608.1,1243.6,1608.5z
				 M1206.8,1607.1c-3.8-0.6-7.8-1.4-12-2.4l1.6-6.8c4,0.9,7.9,1.7,11.6,2.3L1206.8,1607.1z M1268.1,1602.8l-3.2-6.2
				c3.3-1.7,5.6-3.9,6.9-6.7l6.3,3.1C1276,1597.1,1272.7,1600.3,1268.1,1602.8z M1183,1601.8c-3.7-1-7.6-2.1-11.6-3.4l2.1-6.7
				c4,1.2,7.8,2.3,11.4,3.3L1183,1601.8z M1159.9,1594.7c-3.6-1.2-7.5-2.5-11.4-3.9l2.3-6.6c3.9,1.4,7.7,2.7,11.3,3.9L1159.9,1594.7
				z M1137.2,1586.7c-3.6-1.3-7.4-2.8-11.3-4.2l2.5-6.5c3.8,1.5,7.6,2.9,11.2,4.2L1137.2,1586.7z M1273.2,1580
				c-0.3-3.7-1.2-7.6-2.1-11.2l6.8-1.7c1,3.9,2,8.1,2.3,12.4L1273.2,1580z M1267.3,1558.6c-1.8-3-4.2-5.8-7-8.3l4.6-5.2
				c3.4,3,6.2,6.4,8.4,10L1267.3,1558.6z M1264.6,1542.7l-4.6-5.3l9.1-7.9l4.6,5.3L1264.6,1542.7z"/>
		</g>
		<path fill="#8DBCF4" d="M1257.5,1375.2c6.7,10.9,13,18.8,18.9,24c0.3-4.9,0.6-10,1-15.3c3.5-50.6-30.2-79.9-34.5-83.4
			c22.5,27.6,14.7,55.8,14.7,55.8s-28.5-74.5-93.1-68.7s-81,42.7-81.7,47.7c-0.1,1.2,2.1,11.7,5.5,27.8
			C1132.6,1294.9,1201.7,1284.4,1257.5,1375.2z"/>
		<g>
			<path fill="#8DBCF4" d="M874.4,1404.8c-1.5-26-8.5-91-42.6-107.2c-63.3-30.1-93.8,8.4-93.8,8.4s-3.2,11.7-6.1,28.9
				C783.4,1285.4,845.5,1307.3,874.4,1404.8z"/>
			<path fill="#8DBCF4" d="M876.6,1411.6c3.6,9.9,8.7,16.1,14.5,19.4c37.8-103.5,17.9-137.6,17.9-137.6s2.8,12.3-4.5,41
				C897.4,1362.2,881.8,1399.3,876.6,1411.6z"/>
		</g>
		<path fill="#FFE5B9" d="M1185.8,1358.8l-14.8,13.8c-1.7,1.6-4.3,1.7-6.1,0.2l-17.4-13.9c-1-0.8-1.6-1.9-1.7-3.1l-9.3-73.2
			c-0.3-2.8,1.8-5.2,4.6-5.2l29.8-2.8c2.3,0,4.3,1.7,4.6,4l11.8,76.1C1187.4,1356.2,1186.9,1357.8,1185.8,1358.8z"/>
		<path fill="#FFE5B9" d="M787.3,1277.6l-25.6,4.4c-2.7,0.5-4.7,2.6-5.1,5.2l-11.6,76.1c-0.2,1.7,0.2,3.3,1.2,4.7l10.9,14.8
			c2.4,3.3,7.3,3.4,9.9,0.2l16-19.7c0.7-0.9,1.2-2,1.3-3.1l10.3-75.7C795.2,1280.4,791.5,1276.8,787.3,1277.6z"/>
	</g>
</g>
</svg>
