<?xml version="1.0" encoding="utf-8"?>
<!-- Generator: Adobe Illustrator 26.0.0, SVG Export Plug-In . SVG Version: 6.00 Build 0)  -->
<svg version="1.1" id="asset" xmlns="http://www.w3.org/2000/svg" xmlns:xlink="http://www.w3.org/1999/xlink" x="0px" y="0px"
	 viewBox="0 0 2000 2000" enable-background="new 0 0 2000 2000" xml:space="preserve">
<g>
	
		<linearGradient id="SVGID_1_" gradientUnits="userSpaceOnUse" x1="716.2838" y1="-5229.7524" x2="716.2838" y2="-4756.9971" gradientTransform="matrix(1 0 0 1 564 6458.4224)">
		<stop  offset="0.7625" style="stop-color:#F0F0F0"/>
		<stop  offset="1" style="stop-color:#CFCDCD"/>
	</linearGradient>
	<path fill="url(#SVGID_1_)" d="M1201.2,1267.3c0,0-18.5-25.7-65.3-34.6c-4.4-0.8-6.2,3.2-3.2,7.1c4.6,6.2,8.3,13,10.9,20.2
		c0,0-35.5-22.7-71.6-24c-4.4-0.2-4.2,5.4,0.3,8.2c18.2,11.1,26.3,23.1,26.3,23.1s-26.5-3-49.4,4.4c-4.1,1.3-1.3,8,3.8,9.2
		c15.4,3.7,23.7,7.5,23.7,7.5s-14.7,9.3-27.2,30.2c-1.7,2.8,2.9,7.7,6.4,6.8c16.1-4.2,25.9-2.7,25.9-2.7s-16.5,22.3-21.6,55.8
		c-0.6,4.1,5.1,8.9,8.9,7.5c6.8-2.6,13.8-4.5,20.9-5.8c0,0-18.8,22.3-31.6,72.2c-0.8,3.3,4.1,7.6,7.2,6.2c7.3-3.3,14.9-6.1,22.5-8.5
		c-5,12-8.3,24.6-9.7,37.6c-0.5,4.4,5.3,9.6,9.8,8.8c4.7-0.8,9.4-1.2,14.1-1.3c-6.7,19.3-9.6,39.8-8.5,60.2c0.3,5,7.2,9.5,10.9,7.2
		c4.4-2.8,9.1-5.1,14-7c0,0-6,30.8,4.7,67.7c1.4,4.8,7.8,8,10.8,5.4c2.6-2.2,5.3-4.3,8.1-6.2c6.6,13.3,14.8,25.8,24.5,37
		c3.5,4.1,9.2,4.8,10.7,1.4c2.2-4.8,5-9.4,8.2-13.7c0,0,9.7,27.3,46,51.1c4.8,3.2,9.8,1.6,9.5-3c-0.5-7.9-0.6-12.8-0.6-12.8
		s30.9,14.8,78.2,19.2c3.3,0.3,5-2.2,3.7-5.5c-2.3-5.3-4.1-10.8-5.4-16.4c18.1,7,36.8,12.2,55.9,15.3c17.1,2.8,37.9,1.3,48.4,0.2
		c3-0.3,3-4,0.1-6.5l-15.5-13.1c0,0,52.6,10.4,85.6,6.6c2.5-0.3,2.6-3.3,0.2-5.5c-8.6-7.8-16.1-15.1-16.1-15.1s18.5-5.8,34.1-5.1
		c2.6,0.1,4-1.9,3.1-4.5c-8.4-24.6-42-38.4-42-38.4s7-7,24.9-8.1c5.1-0.3,4.9-6.9-0.4-10.5c-22.8-15.4-51.1-22.9-51.1-22.9
		s18.9-0.6,24.6-14.4c1-2.4-2-6-5.1-6.1c-40.3-1.8-86.2-12.9-86.2-12.9c3.5-1.5,6.8-3.5,9.8-5.9c2.3-1.9,0.2-6.5-3.6-8.1
		c-22.6-9.7-43.1-23.4-60.7-40.6c4.6,0.8,9.4,0.7,14-0.2c2.7-0.7,3-4,0.5-6.9c-16.4-19-32.2-48.9-32.2-48.9s16.5,11.5,30.9,15.8
		c4.2,1.3,6.4-2.3,3.7-6.2c-24-34.2-30.9-60.6-30.9-60.6s16.4,12.2,34.1,14c3.9,0.4,4.8-3.8,1.6-7.1c-14.8-15.1-29.9-37.4-29.9-37.4
		s20.8,4.5,38.8-6.2c2.6-1.5,0.2-6.3-3.5-7.2c-17.7-4.3-35.7-14.2-35.7-14.2s12.3-10.1,16.2-25.3c0.9-3.4-3.9-7.8-7.4-6.9
		c-9.3,2.3-18.8,3.8-28.4,4.5c0.8-6.7,0-13.4-2.3-19.7c-2.3-6.3-6.1-11.9-11.1-16.5c-2.9-2.6-6.6-2.3-7,0.5
		c-2,13.6-14.2,26.9-14.2,26.9s-18.5-32-60.8-53.8C1205.2,1252,1201.2,1267.3,1201.2,1267.3z"/>
	
		<radialGradient id="SVGID_00000015340453647320174600000007057759579995979190_" cx="5199.4092" cy="-2223.1096" r="1" gradientTransform="matrix(5.4029 -66.8904 179.9151 14.5322 373067.8438 381471.5938)" gradientUnits="userSpaceOnUse">
		<stop  offset="0.5368" style="stop-color:#B3B3B3"/>
		<stop  offset="1" style="stop-color:#B3B3B3;stop-opacity:0"/>
	</radialGradient>
	<path fill="url(#SVGID_00000015340453647320174600000007057759579995979190_)" d="M1327.7,1325.3c-7.7-3.4-13.1-6.3-13.1-6.3
		s12.3-10.1,16.2-25.3c0.9-3.4-3.9-7.8-7.4-6.9c-9.3,2.3-18.8,3.8-28.4,4.5c0.8-6.7,0-13.4-2.3-19.7c-2.3-6.3-6.1-11.9-11.1-16.5
		c-2.9-2.6-6.6-2.3-7,0.5c-2,13.6-14.2,26.9-14.2,26.9s-18.5-32-60.8-53.8c5.6,23.3,1.5,38.6,1.5,38.6s-18.5-25.7-65.3-34.6
		c-4.4-0.8-6.2,3.2-3.2,7.1c4.6,6.2,8.3,13,10.9,20.2c0,0-35.5-22.7-71.6-24c-4.4-0.2-4.2,5.4,0.3,8.2
		c18.2,11.1,26.3,23.1,26.3,23.1s-26.5-3-49.4,4.4c-4.1,1.3-1.3,8,3.8,9.2c15.4,3.7,23.7,7.5,23.7,7.5s-6.5,4.1-14.5,13
		C1167,1347.6,1281.1,1335.5,1327.7,1325.3z"/>
	
		<linearGradient id="SVGID_00000165223412813764621910000018318134215648746644_" gradientUnits="userSpaceOnUse" x1="247.3826" y1="-5229.7422" x2="247.3826" y2="-4756.9824" gradientTransform="matrix(1 0 0 1 564 6458.4224)">
		<stop  offset="0.7625" style="stop-color:#F0F0F0"/>
		<stop  offset="1" style="stop-color:#CFCDCD"/>
	</linearGradient>
	<path fill="url(#SVGID_00000165223412813764621910000018318134215648746644_)" d="M839.5,1267.3c0,0-8.5-25.7-52.6-34.6
		c-0.9-0.2-1.9-0.1-2.8,0.2c-0.9,0.3-1.7,0.8-2.3,1.6c-0.6,0.7-1,1.6-1.2,2.5c-0.2,0.9-0.1,1.9,0.2,2.8c2.2,6.5,3.2,13.4,2.9,20.2
		c0,0-27-22.7-63.3-24c-1,0-1.9,0.2-2.7,0.8c-0.8,0.5-1.4,1.3-1.8,2.2s-0.4,1.9-0.1,2.8s0.8,1.8,1.6,2.3
		c14.1,11.1,17.5,23.1,17.5,23.1s-25.8-3-52.1,4.4c-1,0.3-1.9,0.9-2.5,1.7s-1,1.8-0.9,2.9c0,1,0.4,2.1,1,2.9s1.5,1.4,2.5,1.7
		c14.2,3.7,21.1,7.5,21.1,7.5s-18.7,9.3-39.9,30.2c-0.6,0.6-1,1.4-1.2,2.3c-0.1,0.9,0,1.8,0.5,2.5s1.1,1.4,1.9,1.7s1.7,0.4,2.6,0.2
		c18.1-4.2,27.5-2.7,27.5-2.7c-17.7,16.2-32.7,35-44.5,55.8c-0.5,0.9-0.7,1.9-0.7,3c0.1,1,0.5,2,1.1,2.8c0.7,0.8,1.5,1.4,2.5,1.7
		c1,0.3,2,0.3,3,0c7.7-2.6,15.6-4.5,23.6-5.8c0,0-28.1,22.3-61.3,72.2c-0.5,0.7-0.7,1.6-0.7,2.5c0,0.9,0.3,1.7,0.9,2.4
		c0.5,0.7,1.3,1.2,2.1,1.4c0.8,0.2,1.7,0.2,2.5-0.1c15.5-5.7,26.4-8.5,26.4-8.5c-9.7,11.6-18,24.2-25,37.6c-0.5,1-0.7,2.1-0.6,3.3
		c0.1,1.1,0.5,2.2,1.2,3.1c0.7,0.9,1.6,1.6,2.6,2.1s2.2,0.6,3.3,0.4c4.9-0.8,9.9-1.2,14.9-1.3c0,0-21.3,26.5-32.9,60.2
		c-0.4,1.1-0.4,2.3-0.1,3.4s0.9,2.1,1.8,2.9c0.9,0.8,2,1.3,3.1,1.4c1.2,0.2,2.3,0,3.4-0.6c5.5-2.7,11.3-5.1,17.2-7
		c0,0-18.6,30.8-22.5,67.7c-0.1,1.1,0.1,2.2,0.6,3.1s1.2,1.8,2.1,2.3s2,0.9,3.1,0.9c1.1,0,2.1-0.3,3-0.9c5.7-3.6,10.8-6.2,10.8-6.2
		c1.2,12.8,4.6,25.3,10,37c0.5,0.9,1.1,1.8,2,2.4s1.8,1,2.8,1.1c1,0.1,2.1,0,3-0.4s1.8-1,2.5-1.8c4.3-4.9,8.9-9.5,13.9-13.7
		c0,0-1.1,27.3,26.2,51.1c0.8,0.7,1.9,1.2,3,1.5c1.1,0.2,2.2,0.2,3.3-0.1c1.1-0.3,2.1-0.9,2.9-1.6c0.8-0.8,1.4-1.7,1.8-2.8
		c2.6-7.9,4.6-12.8,4.6-12.8s25.5,14.8,72,19.2c0.8,0.1,1.5,0,2.3-0.2c0.7-0.2,1.4-0.6,2-1.2c0.6-0.5,1-1.2,1.3-1.8
		c0.3-0.7,0.5-1.5,0.4-2.2c-0.1-5.5,0.2-11,1.1-16.4c16.2,7.3,33.3,12.4,50.8,15.3c16.3,2.8,38.1,1.3,49.2,0.2
		c0.7-0.1,1.4-0.3,2-0.8c0.6-0.4,1-1,1.3-1.7c0.3-0.7,0.4-1.4,0.3-2.1c-0.1-0.7-0.4-1.4-0.8-1.9l-10.5-13.1c0,0,49.4,10.4,84.6,6.6
		c0.6-0.1,1.2-0.3,1.7-0.7s0.9-0.8,1.1-1.4s0.3-1.2,0.3-1.8c-0.1-0.6-0.3-1.2-0.6-1.7c-5.6-7.8-10.3-15.1-10.3-15.1
		s21.2-5.8,36.8-5.1c1.3,0.1,2.5-0.4,3.4-1.2c0.9-0.8,1.5-2,1.6-3.3c1.4-24.6-27.3-38.4-27.3-38.4s9.9-7,28.7-8.1
		c1.2-0.1,2.3-0.4,3.3-1.2c1-0.7,1.7-1.7,2.1-2.8c0.4-1.1,0.5-2.3,0.2-3.5c-0.3-1.2-0.9-2.2-1.8-3c-17.1-15.4-42.8-22.9-42.8-22.9
		s19.5-0.6,30.9-14.4c0.4-0.5,0.7-1.2,0.8-1.9c0.1-0.7,0-1.4-0.3-2c-0.3-0.6-0.7-1.2-1.3-1.6c-0.6-0.4-1.2-0.6-2-0.7
		c-40.4-1.8-82.6-12.9-82.6-12.9c4.3-1.5,8.5-3.5,12.4-5.9c0.7-0.4,1.3-1.1,1.7-1.8c0.4-0.7,0.6-1.6,0.5-2.4c0-0.8-0.3-1.6-0.8-2.3
		c-0.5-0.7-1.1-1.2-1.8-1.6c-31-15.2-45.4-40.6-45.4-40.6c4.8,0.8,9.6,0.7,14.3-0.2c0.7-0.2,1.4-0.5,2-0.9c0.6-0.4,1-1,1.4-1.7
		c0.3-0.7,0.5-1.4,0.5-2.1s-0.2-1.5-0.5-2.1c-9-19-13.1-48.9-13.1-48.9s12.2,11.5,25.1,15.8c0.9,0.3,1.8,0.3,2.7,0.1
		s1.7-0.7,2.3-1.3s1.1-1.4,1.3-2.3c0.2-0.9,0.2-1.8-0.1-2.7c-10.7-34.2-7-60.6-7-60.6s11.8,12.2,29.1,14c0.9,0.1,1.7-0.1,2.5-0.5
		c0.8-0.4,1.4-1,1.9-1.7c0.5-0.7,0.7-1.6,0.7-2.4c0-0.9-0.2-1.7-0.7-2.5c-9-15.1-15.4-37.4-15.4-37.4s19.4,4.5,42.1-6.2
		c0.7-0.3,1.3-0.9,1.7-1.6s0.6-1.5,0.5-2.3c-0.1-0.8-0.4-1.5-0.9-2.1s-1.2-1-2-1.2c-16.3-4.3-30.6-14.2-30.6-14.2
		s16.7-10.1,26.7-25.3c0.5-0.8,0.8-1.7,0.7-2.6c0-0.9-0.3-1.8-0.8-2.5c-0.5-0.7-1.2-1.3-2.1-1.6c-0.8-0.3-1.8-0.4-2.7-0.2
		c-10.1,2.2-20.4,3.8-30.8,4.5c0,0,12-20.4,1-36.2c-0.4-0.6-1-1.1-1.7-1.4c-0.7-0.3-1.4-0.4-2.1-0.4c-0.7,0.1-1.5,0.3-2.1,0.7
		c-0.6,0.4-1.1,0.9-1.5,1.6c-7.5,13.6-25.3,26.9-25.3,26.9s-5.9-32-40.2-53.8C849.8,1252,839.5,1267.3,839.5,1267.3z"/>
	
		<radialGradient id="SVGID_00000030486449848586473190000014489326325709968012_" cx="5199.4409" cy="-2223.2368" r="1" gradientTransform="matrix(5.3794 -66.8904 179.1426 14.4069 371127.0312 381196.8125)" gradientUnits="userSpaceOnUse">
		<stop  offset="0.5368" style="stop-color:#B3B3B3"/>
		<stop  offset="1" style="stop-color:#B3B3B3;stop-opacity:0"/>
	</radialGradient>
	<path fill="url(#SVGID_00000030486449848586473190000014489326325709968012_)" d="M945.1,1325.3c-3.7-1.9-7.3-4-10.8-6.3
		c0,0,16.7-10.1,26.7-25.3c0.5-0.8,0.8-1.6,0.7-2.6c0-0.9-0.3-1.8-0.8-2.5s-1.2-1.3-2.1-1.6c-0.8-0.3-1.8-0.4-2.7-0.2
		c-10.1,2.2-20.4,3.8-30.8,4.5c0,0,12-20.4,1-36.2c-0.4-0.6-1-1.1-1.7-1.4s-1.4-0.4-2.2-0.4c-0.7,0.1-1.5,0.3-2.1,0.7
		c-0.6,0.4-1.1,1-1.5,1.6c-7.5,13.6-25.3,26.9-25.3,26.9s-5.9-32-40.2-53.8c-3.7,23.3-14.1,38.6-14.1,38.6s-8.5-25.7-52.6-34.6
		c-0.9-0.2-1.9-0.1-2.8,0.2c-0.9,0.3-1.7,0.8-2.3,1.6c-0.6,0.7-1,1.6-1.2,2.5s-0.1,1.9,0.2,2.8c2.2,6.5,3.2,13.4,2.9,20.2
		c0,0-27-22.7-63.3-24c-1,0-1.9,0.2-2.7,0.8c-0.8,0.5-1.4,1.3-1.8,2.2s-0.4,1.9-0.1,2.8s0.8,1.8,1.6,2.3
		c14.1,11.1,17.5,23.1,17.5,23.1s-25.8-3-52.1,4.4c-1,0.3-1.9,0.9-2.5,1.7s-1,1.8-0.9,2.9c0,1,0.4,2.1,1,2.9s1.5,1.4,2.5,1.7
		c14.2,3.7,21.1,7.5,21.1,7.5c-7,3.8-13.7,8.1-20,13C772.2,1347.6,893.4,1335.5,945.1,1325.3z"/>
	
		<linearGradient id="SVGID_00000083081101461509903020000016328812624075773607_" gradientUnits="userSpaceOnUse" x1="839.9231" y1="1751.319" x2="813.4287" y2="1598.2582" gradientTransform="matrix(1 0 0 -1 0 2920)">
		<stop  offset="0" style="stop-color:#522CD5"/>
		<stop  offset="0.6512" style="stop-color:#8A6FE8"/>
	</linearGradient>
	<path fill="url(#SVGID_00000083081101461509903020000016328812624075773607_)" d="M798.7,1175.1l-19.3,155.3
		c23.8,3.7,47.9,5,71.9,3.9l16.7-133.9C843.9,1194.2,820.7,1185.7,798.7,1175.1z"/>
	
		<linearGradient id="SVGID_00000131361230224087174310000017249109856211836802_" gradientUnits="userSpaceOnUse" x1="1148.293" y1="1760.0339" x2="1186.9266" y2="1574.0884" gradientTransform="matrix(1 0 0 -1 0 2920)">
		<stop  offset="0" style="stop-color:#522CD5"/>
		<stop  offset="0.44" style="stop-color:#8A6FE8"/>
	</linearGradient>
	<path fill="url(#SVGID_00000131361230224087174310000017249109856211836802_)" d="M1115.7,1179.5c19.5,53.8,26.3,107.8,28.1,146.7
		c13.3,3.4,47.4,8.1,70.8,8.2c-2.3-49-11-121.1-37.2-189.9C1158.1,1158,1137.5,1169.7,1115.7,1179.5z"/>
</g>
</svg>
