<?xml version="1.0" encoding="utf-8"?>
<!-- Generator: Adobe Illustrator 24.2.0, SVG Export Plug-In . SVG Version: 6.00 Build 0)  -->
<svg version="1.1" id="Layer_1" xmlns="http://www.w3.org/2000/svg" xmlns:xlink="http://www.w3.org/1999/xlink" x="0px" y="0px"
	 viewBox="0 0 2000 2000" enable-background="new 0 0 2000 2000" xml:space="preserve">
<g id="ghost-image" display="none">
	<g display="inline">
		<path fill="#8EE8FC" d="M1049.9,1957.6c-797.7,13.1-902.2-35.7-961-301c-114-514.6,131.9-729.1,29-1154.9
			C22,104.6,618.3,6.3,1234,46.5s707.1,214.3,603.2,554.1c-72.9,238.5-53.6,535.6,80.4,836.9S1593.2,1948.7,1049.9,1957.6z"/>
		<path fill="#6FD0C3" d="M1817.9,1123.6c-17.4-90.4-24.5-178.6-22.1-262.9c-168.8-12.7-293.4,42-293.4,42S1390.9,849,1263.4,849
			s-194.7,80-386.6,34.4c-135.5-32.2-235.1-51.5-396.5,15c-129.2,53.3-207.2-4.3-279-21.5c-20.6-4.9-45.4-4.7-70.3-2
			c-12.3,82.9-31.2,163.3-46.7,248.6H1817.9z"/>
		<path fill="#64BFAF" d="M1825.8,1161.8c-8.2-36.7-14.7-73-19.5-109c-38.1-8.7-88.1-16.4-123.9-8.5
			c-66.1,14.7-137.9,63.9-256.8,18.3c-148.6-56.9-240.3-40.4-365.1-12.8c-176.7,39-238.5-29.3-355.9-29.3s-220.2,45.9-220.2,45.9
			s-175.1-71.3-385.8-17.3c-7.4,36.8-14.7,74.2-21,112.7L1825.8,1161.8L1825.8,1161.8z"/>
		<path fill="#B3AFAB" d="M89,1656.6c58.8,265.3,163.3,314.1,961,301c543.2-8.9,1001.7-218.8,867.7-520.1
			c-42.1-94.7-72.9-189.1-93.1-281.3H78.6C55,1297.2,44,1453.6,89,1656.6z"/>
		<path fill="#9C9894" d="M444.7,1359.9c-18.4,91.7-195.2,117.4-286.9,139.4s-143.1,89.9,119.2,146.8s293.5-284.4,293.5-284.4
			L444.7,1359.9z"/>
		
			<linearGradient id="SVGID_1_" gradientUnits="userSpaceOnUse" x1="1941.1714" y1="361.4999" x2="743.4302" y2="361.4999" gradientTransform="matrix(1 0 0 -1 0 2000)">
			<stop  offset="0.2941" style="stop-color:#B3AFAB"/>
			<stop  offset="0.6604" style="stop-color:#9C9894"/>
		</linearGradient>
		<path fill="url(#SVGID_1_)" d="M1917.7,1437.5c-3-6.8-6-13.6-8.9-20.4c-335.3-19.1-1009.3-57.2-1052-57.2
			c-56.9,0-99.1-1.8-99.1-1.8S655,1552.5,999.9,1649.8c192.1,54.2,330.2,173.8,414.8,269.2C1777,1844.2,2019.9,1667.5,1917.7,1437.5
			z"/>
		
			<linearGradient id="SVGID_2_" gradientUnits="userSpaceOnUse" x1="326.6671" y1="683.235" x2="1320.98" y2="683.235" gradientTransform="matrix(1 0 0 -1 0 2000)">
			<stop  offset="0.2941" style="stop-color:#B3AFAB"/>
			<stop  offset="0.6604" style="stop-color:#9C9894"/>
		</linearGradient>
		<path fill="url(#SVGID_2_)" d="M1321,1282.8c-124.8,27.5-45.9,100.9-45.9,100.9l-783.4-31.2c0,0-23.9-62.4-137.6-73.4
			s148.6-29.3,372.4-29.3s590.8,20.2,590.8,20.2L1321,1282.8z"/>
		<path fill="#E6E4E3" d="M1049.9,1957.6c243.8-4,470.4-48.5,634.2-123.5c-425-10.7-1121.7-67.4-1617.1-304.9
			c4.9,40.4,12.1,82.8,22,127.4C147.8,1921.9,252.3,1970.7,1049.9,1957.6z"/>
		<polygon fill="#45897C" points="392.6,1120.2 367,1120.2 370.3,1046.6 387,1046.6 		"/>
		<polygon fill="#45897C" points="1640.5,1122.5 1659.4,1122.5 1656.9,1068.3 1644.6,1068.3 		"/>
		<path fill="#57AA9A" d="M279.9,1104.6c0,0-22.3-10.1-48-10.1S175,1108,175,1108s-19-6.7-35.7-29s-16.7-41.9,6.7-40.7
			s17.9-2.8,20.1-22.9c2.2-20.1,21.2-17.9,32.4-7.8s22.3,6.8,30.7-5.6c10.6-15.6,29.6-10.6,31.8,8.9c1.7,14.6,20.4,6,39.1,2.2
			c19.5-3.9,25.7,10.7,10.6,29.6c-6.7,8.4-12.1,16.7-2.8,28.5C320.1,1086.8,279.9,1104.6,279.9,1104.6z"/>
		<path fill="#57AA9A" d="M996.1,1107.7c0,0,19.1-11.3,41.1-11.3c22,0,48.8,15,48.8,15s16.3-7.5,30.6-32.6s14.3-46.9-5.7-45.7
			s-15.3-3.1-17.2-25.7s-18.2-20-27.7-8.8c-9.6,11.3-19.1,7.6-26.3-6.3c-9.1-17.5-25.3-11.9-27.3,10c-1.4,16.4-17.5,6.7-33.5,2.5
			c-16.7-4.4-22,12-9.1,33.2c5.7,9.4,10.3,18.7,2.4,31.9C961.6,1087.6,996.1,1107.7,996.1,1107.7z"/>
		<path fill="#57AA9A" d="M1235.3,1098.7c31.7-1.9,59.3-1.5,82-0.1c21.6-13.7,35.9-37.7,35.9-65.1c0-42.5-34.5-77-77-77
			s-77,34.5-77,77C1199.1,1061,1213.6,1085.1,1235.3,1098.7z"/>
		<path fill="#57AA9A" d="M1512.9,1100.4c18.7-2.6,35-2.1,48.4-0.2c12.8-18.4,21.2-50.9,21.2-88c0-57.5-20.4-104.1-45.5-104.1
			s-45.5,46.6-45.5,104.1C1491.6,1049.4,1500.1,1082,1512.9,1100.4z"/>
		<path fill="#57AA9A" d="M819.5,1094.7c18.7-2.6,35-2.1,48.4-0.2c12.8-18.4,21.2-50.9,21.2-88c0-57.5-20.4-104.1-45.5-104.1
			s-45.5,46.6-45.5,104.1C798.1,1043.7,806.6,1076.3,819.5,1094.7z"/>
		<path fill="#45897C" d="M1656.9,1076.5c23.7-1.9,45.1-7.4,52.5-13.1c7.4-5.8-12.3-11.5-12.3-11.5s23.8-6.6,33.7-18.9
			c9.8-12.3-9-11.5-9-11.5s31.2-27.1,33.7-35.3c2.5-8.2-13.9-3.3-13.9-3.3s17.2-15.6,17.2-25.4s-18.1-2.5-18.1-2.5
			s20.5-21.3,20.5-29.5c0-8.2-21.3,0-21.3,0s9-13.1,6.6-18.1c-2.5-4.9-31.2,5.8-31.2,5.8s23.8-23,23.8-29.5s-13.1-6.6-13.1-6.6
			s16.4-15.6,15.6-24.6c-0.8-9-24.6,2.5-24.6,2.5s5.8-7.4,4.1-14.8c-1.6-7.4-27.1,3.3-27.1,3.3s8.2-20.5,4.9-27.9
			c-3.3-7.4-13.1,2.5-13.1,2.5s-5.8-24.6-11.5-30.4c-5.8-5.8-18.1,4.1-18.1,4.1s-8.2-16.4-13.9-18.1c-5.8-1.6-12.3,20.5-12.3,20.5
			s-11.5-9.8-15.6-4.1s4.1,27.1,4.1,27.1s-18.9-8.2-18.1-1.6s7.9,27.9,7.9,27.9s-15.3-4.1-25.2-7.4c-9.8-3.3,0,21.3,0,21.3
			s-27.9-0.8-21.3,8.2c6.6,9,25.4,25.4,25.4,25.4s-20.5-5.8-21.3,1.6s11.5,16.4,11.5,16.4s-23.8,5.8-19.7,16.4
			c4.1,10.7,34.5,14.8,34.5,14.8s-38.6,2.5-32,10.7c6.6,8.2,16.4,16.4,16.4,16.4s-15.6-1.6-15.6,9s19.7,17.2,19.7,17.2
			s-21.3,4.9-14.8,13.1s23.8,15.6,23.8,15.6s-21.3,3.3-14.8,10.7s29.6,14.8,29.6,14.8s-20.5-3.3-12.3,12.3
			C1600.3,1075.7,1636.4,1078.2,1656.9,1076.5z"/>
		<path fill="#45897C" d="M370.3,1057.7c-32.3-2.6-61.4-10.1-71.4-17.9c-10-7.8,16.7-15.6,16.7-15.6s-32.4-8.9-45.8-25.7
			s12.3-15.6,12.3-15.6s-42.4-36.8-45.8-48s19-4.5,19-4.5s-23.4-21.2-23.4-34.6s24.6-3.3,24.6-3.3s-27.9-29-27.9-40.2s29,0,29,0
			s-12.3-17.9-8.9-24.6s42.4,7.8,42.4,7.8s-32.4-31.3-32.4-40.2s17.9-8.9,17.9-8.9s-22.3-21.2-21.2-33.5c1.1-12.3,33.5,3.3,33.5,3.3
			s-7.8-10-5.6-20.1c2.2-10,36.8,4.5,36.8,4.5s-11.2-27.9-6.7-38c4.5-10,17.9,3.3,17.9,3.3s7.8-33.5,15.6-41.3
			c7.8-7.8,24.6,5.6,24.6,5.6s11.2-22.3,19-24.6s16.7,27.9,16.7,27.9s15.6-13.4,21.2-5.6c5.6,7.8-5.6,36.8-5.6,36.8
			s25.7-11.2,24.6-2.2c-1.1,8.9-23.4,54.7-23.4,54.7s33.5-22.3,46.9-26.8c13.4-4.5,0,29,0,29s38-1.1,29,11.2
			c-8.9,12.3-34.6,34.6-34.6,34.6s27.9-7.8,29,2.2c1.1,10-15.6,22.3-15.6,22.3s32.4,7.8,26.8,22.3c-5.6,14.5-46.9,20.1-46.9,20.1
			s52.5,3.3,43.5,14.5c-8.9,11.2-22.3,22.3-22.3,22.3s21.2-2.2,21.2,12.3S474.1,945,474.1,945s29,6.7,20.1,17.9
			s-32.4,21.2-32.4,21.2s29,4.5,20.1,14.5c-8.9,10-40.2,20.1-40.2,20.1s27.9-4.5,16.7,16.7C447.3,1056.6,398.2,1060,370.3,1057.7z"
			/>
		<path fill="#45897C" d="M731.8,1104.6c31.7-1.9,59.3-1.5,82-0.1c21.6-13.7,35.9-37.7,35.9-65.1c0-42.5-34.5-77-77-77
			c-42.5,0-77,34.5-77,77C695.7,1066.8,710.1,1090.9,731.8,1104.6z"/>
		<path fill="#57AA9A" d="M553,1121c0,0,50.8,0,72.6-3.1c21.9-3.1,70.3,2.3,70.3,2.3s26.5-10.2,29.7-17.2s-3.9-16.4-3.9-16.4
			s13.3-18,11.7-29.7c-1.6-11.7-23.4-13.3-23.4-13.3s6.2-26.5-3.9-35.1s-21.1,1.6-21.1,1.6s4.7-12.5-3.9-15.6
			c-8.6-3.1-19.5,9.4-19.5,9.4s0-24.2-12.5-28.1c-12.5-3.9-35.9,17.2-35.9,17.2s-9.4-21.9-26.5-17.2s-12.5,32-12.5,32
			s-16.4-18.7-26.5-9.4c-10.2,9.4-5.5,21.1-5.5,21.1s-17,1.9-19.5,7c-7.8,15.6,10.9,28.1,10.9,28.1s-18.7-0.8-19.5,9.4
			s28.1,14.8,28.1,14.8s-8.6,0-17.2,13.3C516.3,1105.4,553,1121,553,1121z"/>
		<path fill="#45897C" d="M1502,1111.3c0,0-57.6,0-82.3-3.5s-79.7,2.7-79.7,2.7s-30.1-11.5-33.6-19.5s4.4-18.6,4.4-18.6
			s-15.1-20.4-13.3-33.6s26.6-15,26.6-15s-7.1-30.1,4.4-39.8c11.5-9.7,23.9,1.8,23.9,1.8s-5.3-14.2,4.4-17.7
			c9.7-3.5,22.1,10.6,22.1,10.6s0-27.5,14.2-31.9c14.2-4.4,40.7,19.5,40.7,19.5s10.6-24.8,30.1-19.5s14.2,36.3,14.2,36.3
			s18.6-21.2,30.1-10.6s6.2,23.9,6.2,23.9s19.2,2.2,22.1,8c8.8,17.7-12.4,31.9-12.4,31.9s21.2-0.9,22.1,10.6
			c0.9,11.5-31.9,16.8-31.9,16.8s9.7,0,19.5,15.1C1543.7,1093.6,1502,1111.3,1502,1111.3z"/>
		<path fill="#9C9894" d="M1834.8,1199.5l-712.7-35.7c0,0-24,72.6-187,88.2s428.1,5.6,428.1,5.6c78.7,80.4,328.7,141.8,328.7,141.8
			l195.8-33.9C1866.3,1309.7,1848.7,1254.3,1834.8,1199.5z"/>
		<path fill="#E6E4E3" d="M1878.9,1342c-114.4,19.3-296.5,38.7-577.7,35c-511.2-6.7-540.3-80.4-781.4-51.3
			c-92.2,11.1-138.4,100.5,64.7,82.6c178.8-15.7,868.3,34.1,1328,240.8c34.8-63.3,39.3-134.4,5.1-211.5
			C1903.5,1405.6,1890.6,1373.7,1878.9,1342z"/>
		<path fill="#E6E4E3" d="M58.9,1338.9c240.4-48.9,771.9-111.9,1193.2-54.5c112.4,15.3,158.3-42.2,52.5-51.9
			c-206.5-19-718.5-16.9-779.7-30.7c-44.6-10.1-17.4-24.6,76.5-31.3c331.5-23.4,982.9,18.4,1253.1,99.2
			c-13.9-45-25.2-89.6-34.2-133.8H82.1C70.8,1199.7,61.7,1266.3,58.9,1338.9z"/>
		<path fill="#33D5F9" d="M1867.1,328.3C1831.9,164.6,1656.2,74.1,1234,46.5C635.9,7.5,56.2,99.1,111.4,468.3
			c517.9-346.2,975.2-332.7,828.2-276.5c-151.8,58.1-39,68.8,276.8,13.4C1495.3,156.4,1813.3,268.9,1867.1,328.3z"/>
	</g>
	<g display="inline" opacity="0.5">
		<path fill="#8A6FE8" d="M1469,1134.6c-57.7-4.7-181.3-73.8-228.1-150.4c-28.4-46.5,24.8-83.6,53.8-36.2
			c31.4,51.3,134.8,115.2,179.9,118.9L1469,1134.6z"/>
		<path fill="#8A6FE8" d="M1525,1005.7l-88.7,33.7c-15.8,6-23.7,23.7-17.8,39.5c6,15.8,23.7,23.7,39.5,17.8l88.7-33.7
			c15.8-6,23.7-23.7,17.8-39.5C1558.6,1007.6,1540.8,999.6,1525,1005.7z"/>
		<path fill="#8A6FE8" d="M1416.4,1155.1l37.8,51.4c10.2,13.6,29.4,16.4,43.1,6.3c13.6-10.2,16.4-29.4,6.3-43.1l-38.8-52.7
			L1416.4,1155.1z"/>
		<path fill="#8A6FE8" d="M1450.7,1158.2l76.8,42.9c14.9,8.2,33.6,2.9,41.8-12c8.2-14.8,2.9-33.6-12-41.8l-57-32.1L1450.7,1158.2z"
			/>
		<path fill="#8A6FE8" d="M1460.3,1121.8l84.6,24.4c16.3,4.7,33.4-4.7,38.2-21c4.7-16.3-4.7-33.4-21-38.2l-86.2-24.9L1460.3,1121.8z
			"/>
		
			<radialGradient id="SVGID_3_" cx="4656.7861" cy="-5504.3291" r="6.0501" gradientTransform="matrix(10.6515 0 0 10.6515 -48150.1836 59733.1016)" gradientUnits="userSpaceOnUse">
			<stop  offset="0" style="stop-color:#8065E0"/>
			<stop  offset="1" style="stop-color:#512BD4"/>
		</radialGradient>
		<path fill="url(#SVGID_3_)" d="M1451.6,1168.2c35.6,0,64.4-28.8,64.4-64.4c0-35.6-28.9-64.4-64.4-64.4
			c-35.6,0-64.4,28.8-64.4,64.4C1387.1,1139.3,1416,1168.2,1451.6,1168.2z"/>
		
			<linearGradient id="SVGID_4_" gradientUnits="userSpaceOnUse" x1="432.5013" y1="-9634.1826" x2="492.2793" y2="-9349.4707" gradientTransform="matrix(1 0 0 1 694 10730)">
			<stop  offset="0" style="stop-color:#522CD5"/>
			<stop  offset="0.4397" style="stop-color:#8A6FE8"/>
		</linearGradient>
		<path fill="url(#SVGID_4_)" d="M1216.5,1374.2c0.7-59.8-7.8-181.1-69.5-282.6l-60.3,36.6c56,92.1,60.2,199.7,58.9,246.6
			C1145.4,1378.6,1181.6,1382.1,1216.5,1374.2z"/>
		<path fill="#522CD5" d="M1145.5,1374.1l55.8-0.3l52.1,298.7l-112.1,0.5c-8.5,0-15-6.8-14.4-15.4L1145.5,1374.1z"/>
		
			<linearGradient id="SVGID_5_" gradientUnits="userSpaceOnUse" x1="468.5236" y1="-9358.0088" x2="646.134" y2="-9041.3525" gradientTransform="matrix(1 0 0 1 694 10730)">
			<stop  offset="0" style="stop-color:#522CD5"/>
			<stop  offset="0.4397" style="stop-color:#8A6FE8"/>
		</linearGradient>
		<path fill="url(#SVGID_5_)" d="M1373,1593.9c9.7,7.7,9.5,18.7,8.8,30.4l-2.3,35.8c-0.4,6.4-6,11.7-12.4,11.7l-116.8,0.5
			c-7.3,0-12.8-5.8-12.3-13.1l0.8-37.1c0.9-13.5-3.7-18.4-14.1-31.1c-17.9-21.7-70.7-140-65.7-217.1l57.5-0.3
			C1220.3,1419.5,1280.7,1521.1,1373,1593.9z"/>
		
			<radialGradient id="SVGID_6_" cx="4853.8613" cy="-5277.0718" r="6.0492" gradientTransform="matrix(20.3477 -9.260000e-02 9.260000e-02 20.3477 -96971.9375 109367.875)" gradientUnits="userSpaceOnUse">
			<stop  offset="3.400000e-02" style="stop-color:#522CD5"/>
			<stop  offset="0.9955" style="stop-color:#8A6FE8"/>
		</radialGradient>
		<path fill="url(#SVGID_6_)" d="M1381.8,1624.3c0.6-8.2,0.7-16-2.5-22.6l-145.7,0.7c4,5.9,5.7,11.1,5.2,19.7l-0.8,37.1
			c-0.5,7.3,5,13.1,12.3,13.1l116.8-0.5c6.4,0,12-5.3,12.4-11.7L1381.8,1624.3z"/>
		
			<linearGradient id="SVGID_7_" gradientUnits="userSpaceOnUse" x1="103.6376" y1="-9638.5342" x2="172.368" y2="-9315.1787" gradientTransform="matrix(1 0 0 1 694 10730)">
			<stop  offset="0" style="stop-color:#522CD5"/>
			<stop  offset="0.4397" style="stop-color:#8A6FE8"/>
		</linearGradient>
		<path fill="url(#SVGID_7_)" d="M847.6,1418.8l-71.3-8.9l40.1-322.5l71.3,8.8L847.6,1418.8z"/>
		<path fill="#522CD5" d="M781.5,1371.7l56.5-0.3l15.6,302l-113.4,0.5c-8.6,0-14.3-6.9-12.7-15.6L781.5,1371.7z"/>
		
			<linearGradient id="SVGID_8_" gradientUnits="userSpaceOnUse" x1="48.7987" y1="-9331.0107" x2="202.8451" y2="-9037.4717" gradientTransform="matrix(1 0 0 1 694 10730)">
			<stop  offset="0" style="stop-color:#522CD5"/>
			<stop  offset="0.4397" style="stop-color:#8A6FE8"/>
		</linearGradient>
		<path fill="url(#SVGID_8_)" d="M945.7,1595.1c8.7,7.9,8.5,18,6.3,29.8l-6.8,36.2c-1.2,6.5-7.5,11.8-14,11.8l-162.2,0.8
			c-7.4,0-12.2-5.9-10.8-13.2l5.8-37.5c2.6-13.6,0.6-17.7,0.8-35.1c0.5-32.8,15.6-138.2,30.3-216.2l58.2-0.2
			C851.4,1417.6,871.5,1527.9,945.7,1595.1z"/>
		
			<radialGradient id="SVGID_9_" cx="4855.6567" cy="-5259.9897" r="6.0492" gradientTransform="matrix(22.145 -0.1007 0.1006 22.1216 -106136.25 118390.2578)" gradientUnits="userSpaceOnUse">
			<stop  offset="3.400000e-02" style="stop-color:#522CD5"/>
			<stop  offset="0.9955" style="stop-color:#8A6FE8"/>
		</radialGradient>
		<path fill="url(#SVGID_9_)" d="M763.9,1622.9l-5.8,37.5c-1.4,7.3,3.5,13.3,10.8,13.2l162.2-0.7c6.5,0,12.8-5.3,14-11.8l6.8-36.2
			c1.6-8.6,2.1-16.2-1-22.8l-185.9,0.8C765.4,1609.6,765.5,1614.4,763.9,1622.9z"/>
		<path fill="#8A6FE8" d="M804,455.8L736.5,483l-18.4-73.1l48.4-19.5L804,455.8z"/>
		<path fill="#512BD4" d="M788.8,582c38.2,0,69.1-30.9,69.1-69.1s-30.9-69.1-69.1-69.1s-69.1,30.9-69.1,69.1
			C719.7,551,750.7,582,788.8,582z"/>
		
			<radialGradient id="SVGID_10_" cx="5002.1797" cy="-5143.4028" r="6.0492" gradientTransform="matrix(61.9498 0 0 61.9498 -308868.3125 319400.9062)" gradientUnits="userSpaceOnUse">
			<stop  offset="0.4744" style="stop-color:#A08BE8"/>
			<stop  offset="0.8618" style="stop-color:#8065E0"/>
		</radialGradient>
		<path fill="url(#SVGID_10_)" d="M1300.2,939.7C1325,844.2,1309,768,1309,768h22.4l0.5-0.4c-32.2-175.2-185.6-307.9-370-307.9
			c-207.8,0-376.3,168.5-376.3,376.3s168.4,376.3,376.3,376.3c164,0,303.5-104.9,355-251.2C1318.4,954.8,1318.3,943.6,1300.2,939.7z
			"/>
		<path fill="#D8CFF7" d="M1286.4,1026.5H637.5c14.6,24.8,31.9,47.7,51.5,68.4h545.8C1254.5,1074.2,1271.8,1051.3,1286.4,1026.5z"/>
		
			<radialGradient id="SVGID_11_" cx="4983.563" cy="-5167.4126" r="6.0492" gradientTransform="matrix(48.2581 0 0 48.2581 -239265.1719 250068.375)" gradientUnits="userSpaceOnUse">
			<stop  offset="9.330000e-02" style="stop-color:#E1DFDD"/>
			<stop  offset="0.8998" style="stop-color:#FFFFFF"/>
		</radialGradient>
		<path fill="url(#SVGID_11_)" d="M1300.2,939.7c24.6-94.3,9.2-169.7,8.9-171.6H918.6c0,0-24.6-2.5-24.6,20s0.9,85.9,0.9,156.2
			c0,14.4,11.8,21.4,21.1,21.4C916.1,965.6,1256.6,965.6,1300.2,939.7z"/>
		<path fill="#A08BE8" d="M1065,939.9c0,0,60.1-47.5,71.8-56.3c11.7-8.8,22-9.3,32.7,0s70.8,56.3,70.8,56.3H1065z"/>
		<path fill="#512BD4" d="M1315.4,965.3c0,0,10.4-20.1-15.2-25.7c0-0.1-383.8-0.3-383.8-0.3c-8.9,0-20.4-5.3-21.4-14
			c0,6.2,0,12.5,0,18.8c0,13.1,9.8,20,18.5,21.2c0.9,0.1,1.8,0.2,2.7,0.2h26.2L1315.4,965.3z"/>
		<path fill="#512BD4" d="M1286.5,851.6c0.4-27.3-12.4-49.7-28.7-49.9s-29.8,21.7-30.2,49c-0.4,27.3,12.4,49.7,28.7,49.9
			C1272.6,900.9,1286.1,879,1286.5,851.6z"/>
		<path fill="#8065E0" d="M1256.7,825c-10.8,10.8-10.8,28.2,0,38.9c7.4,7.4,17.8,9.7,27.2,7c1.6-5.9,2.5-12.4,2.6-19.3
			c0.2-13.4-2.8-25.6-7.8-34.6C1270.9,816.4,1262.8,819,1256.7,825z"/>
		<path fill="#512BD4" d="M1020.8,900.9c16.3-0.2,29.1-22.6,28.7-49.9s-13.9-49.3-30.2-49c-16.2,0.2-29.1,22.6-28.7,49.9
			C991,879.2,1004.5,901.2,1020.8,900.9z"/>
		<path fill="#8065E0" d="M1019.8,826.6c-10.8,10.8-10.8,28.2,0,38.9c7.3,7.3,17.7,9.6,27,7c1.8-6.5,2.8-13.8,2.6-21.6
			c-0.2-12.4-3.1-23.7-7.7-32.3C1033.9,818,1025.8,820.6,1019.8,826.6z"/>
		<path fill="#512BD4" d="M1084.8,1115.2l123.2-0.6l-0.5-108.9l-123.2,0.6L1084.8,1115.2z"/>
		<path fill="#FFFFFF" d="M1106.1,1074.5c-0.8,0-1.5-0.3-2.1-0.8c-0.6-0.6-0.9-1.2-0.9-2c0-0.8,0.3-1.5,0.9-2
			c0.6-0.6,1.3-0.8,2.1-0.8c0.8,0,1.5,0.3,2.1,0.8c0.6,0.5,0.9,1.2,0.9,2s-0.3,1.4-0.9,2C1107.7,1074.2,1107,1074.5,1106.1,1074.5z"
			/>
		<path fill="#FFFFFF" d="M1138.9,1074h-5.3l-14.1-22.1c-0.3-0.5-0.7-1.2-0.9-1.8h-0.1c0.1,0.6,0.2,2,0.2,4.1l0,19.7h-4.7l-0.1-30.1
			h5.7l13.6,21.6c0.6,0.9,0.9,1.5,1.1,1.8h0.1c-0.2-0.8-0.2-2.2-0.2-4.1l0-19.4h4.7L1138.9,1074z"/>
		<path fill="#FFFFFF" d="M1161.8,1073.9l-16.5,0l-0.1-30.1l15.8,0v4.2l-10.9,0l0,8.5l10.1,0v4.2l-10.1,0l0,8.9l11.6,0
			L1161.8,1073.9L1161.8,1073.9z"/>
		<path fill="#FFFFFF" d="M1185.2,1048l-8.4,0l0.1,25.9h-4.9l-0.1-25.9l-8.4,0v-4.2l21.7-0.1L1185.2,1048z"/>
		<path fill="#8A6FE8" d="M529.4,1254.2l40.2,57.3c10.8,15.2,31.9,18.7,47.2,7.9c15.2-10.8,18.7-31.9,7.9-47.1L575,1203
			L529.4,1254.2z"/>
		<path fill="#8A6FE8" d="M460.1,1232.5l-11.1,69.2c-2.8,18.4,9.8,35.7,28.3,38.5c18.4,2.8,35.7-9.8,38.5-28.3l11.4-70.9
			L460.1,1232.5z"/>
		<path fill="#8A6FE8" d="M505,1240.3l-9.3,69.4c-2.4,18.5,10.8,35.4,29.2,37.8c18.5,2.4,35.4-10.8,37.8-29.2l9.6-71.2L505,1240.3z"
			/>
		<path fill="#8A6FE8" d="M442.7,1211.8l-25.1,65.4c-6.6,17.5,2.3,37,19.8,43.5c17.5,6.6,37-2.3,43.5-19.8l25.7-67.1L442.7,1211.8z"
			/>
		
			<linearGradient id="SVGID_12_" gradientUnits="userSpaceOnUse" x1="-100.8671" y1="-9870.4697" x2="-100.8671" y2="-9489.5801" gradientTransform="matrix(1 0 0 1 694 10730)">
			<stop  offset="0.2495" style="stop-color:#967FE6"/>
			<stop  offset="1" style="stop-color:#8A6FE8"/>
		</linearGradient>
		<path fill="url(#SVGID_12_)" d="M489.3,1240.4c-27.9-57-44.2-154.4,1.8-241.6c28-52.9,89.2-120,222.3-139.3l10.7,73.8
			c-80.8,11.7-138.5,46.4-167,100.3c-30.8,58.4-22.6,129.4-0.8,174L489.3,1240.4z"/>
		
			<radialGradient id="SVGID_13_" cx="4632.2554" cy="-5493.1377" r="6.0492" gradientTransform="matrix(11.3989 0 0 11.3989 -52065.8828 63477.1328)" gradientUnits="userSpaceOnUse">
			<stop  offset="0" style="stop-color:#8065E0"/>
			<stop  offset="1" style="stop-color:#512BD4"/>
		</radialGradient>
		<path fill="url(#SVGID_13_)" d="M739,954.1c38.1,0,68.9-30.8,68.9-68.9S777,816.3,739,816.3s-68.9,30.8-68.9,68.9
			C670.1,923.2,700.9,954.1,739,954.1z"/>
		
			<radialGradient id="SVGID_14_" cx="4847.4302" cy="-5267.9824" r="6.0492" gradientTransform="matrix(22.7292 0 0 22.7292 -109673.3359 120890.7656)" gradientUnits="userSpaceOnUse">
			<stop  offset="0" style="stop-color:#8065E0"/>
			<stop  offset="1" style="stop-color:#512BD4"/>
		</radialGradient>
		<path fill="url(#SVGID_14_)" d="M508.6,1277.3c39.1,0,70.8-31.7,70.8-70.8s-31.7-70.8-70.8-70.8s-70.8,31.7-70.8,70.8
			C437.9,1245.7,469.5,1277.3,508.6,1277.3z"/>
		<path fill="#D8CFF7" d="M739.7,415.8c-26.2,7-53.3-8.4-60.5-34.4c-7.2-26,8.2-52.7,34.5-59.7c26.2-7,53.3,8.4,60.5,34.4
			C781.4,382.1,766,408.8,739.7,415.8z"/>
	</g>
</g>
<g id="bot-base" display="none">
	<g display="inline">
		
			<radialGradient id="SVGID_15_" cx="5002.1797" cy="-5143.4028" r="6.0492" gradientTransform="matrix(61.9498 0 0 61.9498 -308868.3125 319400.9062)" gradientUnits="userSpaceOnUse">
			<stop  offset="0.4744" style="stop-color:#A08BE8"/>
			<stop  offset="0.8618" style="stop-color:#8065E0"/>
		</radialGradient>
		<path fill="url(#SVGID_15_)" d="M1300.2,939.7C1325,844.2,1309,768,1309,768h22.4l0.5-0.4c-32.2-175.2-185.6-307.9-370-307.9
			c-207.8,0-376.3,168.5-376.3,376.3s168.4,376.3,376.3,376.3c164,0,303.5-104.9,355-251.2C1318.4,954.8,1318.3,943.6,1300.2,939.7z
			"/>
		<path fill="#D8CFF7" d="M1286.4,1026.5H637.5c14.6,24.8,31.9,47.7,51.5,68.4h545.8C1254.5,1074.2,1271.8,1051.3,1286.4,1026.5z"/>
		
			<radialGradient id="SVGID_16_" cx="4983.563" cy="-5167.4126" r="6.0492" gradientTransform="matrix(48.2581 0 0 48.2581 -239265.1719 250068.375)" gradientUnits="userSpaceOnUse">
			<stop  offset="9.330000e-02" style="stop-color:#E1DFDD"/>
			<stop  offset="0.8998" style="stop-color:#FFFFFF"/>
		</radialGradient>
		<path fill="url(#SVGID_16_)" d="M1300.2,939.7c24.6-94.3,9.2-169.7,8.9-171.6H918.6c0,0-24.6-2.5-24.6,20s0.9,85.9,0.9,156.2
			c0,14.4,11.8,21.4,21.1,21.4C916.1,965.6,1256.6,965.6,1300.2,939.7z"/>
		<path fill="#A08BE8" d="M1065,939.9c0,0,60.1-47.5,71.8-56.3c11.7-8.8,22-9.3,32.7,0s70.8,56.3,70.8,56.3H1065z"/>
		<path fill="#512BD4" d="M1315.4,965.3c0,0,10.4-20.1-15.2-25.7c0-0.1-383.8-0.3-383.8-0.3c-8.9,0-20.4-5.3-21.4-14
			c0,6.2,0,12.5,0,18.8c0,13.1,9.8,20,18.5,21.2c0.9,0.1,1.8,0.2,2.7,0.2h26.2L1315.4,965.3z"/>
		<path fill="#512BD4" d="M1084.8,1115.2l123.2-0.6l-0.5-108.9l-123.2,0.6L1084.8,1115.2z"/>
		<path fill="#FFFFFF" d="M1106.1,1074.5c-0.8,0-1.5-0.3-2.1-0.8c-0.6-0.6-0.9-1.2-0.9-2c0-0.8,0.3-1.5,0.9-2
			c0.6-0.6,1.3-0.8,2.1-0.8c0.8,0,1.5,0.3,2.1,0.8c0.6,0.5,0.9,1.2,0.9,2s-0.3,1.4-0.9,2C1107.7,1074.2,1107,1074.5,1106.1,1074.5z"
			/>
		<path fill="#FFFFFF" d="M1138.9,1074h-5.3l-14.1-22.1c-0.3-0.5-0.7-1.2-0.9-1.8h-0.1c0.1,0.6,0.2,2,0.2,4.1l0,19.7h-4.7l-0.1-30.1
			h5.7l13.6,21.6c0.6,0.9,0.9,1.5,1.1,1.8h0.1c-0.2-0.8-0.2-2.2-0.2-4.1l0-19.4h4.7L1138.9,1074z"/>
		<path fill="#FFFFFF" d="M1161.8,1073.9l-16.5,0l-0.1-30.1l15.8,0v4.2l-10.9,0l0,8.5l10.1,0v4.2l-10.1,0l0,8.9l11.6,0
			L1161.8,1073.9L1161.8,1073.9z"/>
		<path fill="#FFFFFF" d="M1185.2,1048l-8.4,0l0.1,25.9h-4.9l-0.1-25.9l-8.4,0v-4.2l21.7-0.1L1185.2,1048z"/>
	</g>
	<g display="inline">
		<g>
			<path fill="#3F3C38" d="M529.9,1254.6l40.2,57.3c10.8,15.2,31.9,18.7,47.2,7.9c15.2-10.8,18.7-31.9,7.9-47.1l-49.7-69.3
				L529.9,1254.6z"/>
			<path fill="#3F3C38" d="M460.6,1232.9l-11.1,69.2c-2.8,18.4,9.8,35.7,28.3,38.5c18.4,2.8,35.7-9.8,38.5-28.3l11.4-70.9
				L460.6,1232.9z"/>
			<path fill="#3F3C38" d="M505.5,1240.7l-9.3,69.4c-2.4,18.5,10.8,35.4,29.2,37.8c18.5,2.4,35.4-10.8,37.8-29.2l9.6-71.2
				L505.5,1240.7z"/>
			<path fill="#3F3C38" d="M443.2,1212.2l-25.1,65.4c-6.6,17.5,2.3,37,19.8,43.5c17.5,6.6,37-2.3,43.5-19.8l25.7-67.1L443.2,1212.2z
				"/>
			<path fill="#6E7F17" d="M489.8,1240.8c-27.9-57-44.2-154.4,1.8-241.6c28-52.9,89.2-120,222.3-139.3l10.7,73.8
				c-80.8,11.7-138.5,46.4-167,100.3c-30.8,58.4-22.6,129.4-0.8,174L489.8,1240.8z"/>
			
				<radialGradient id="SVGID_17_" cx="4632.2969" cy="-5493.1035" r="6.0492" gradientTransform="matrix(11.3989 0 0 11.3989 -52065.8828 63477.1328)" gradientUnits="userSpaceOnUse">
				<stop  offset="0" style="stop-color:#8065E0"/>
				<stop  offset="1" style="stop-color:#512BD4"/>
			</radialGradient>
			<path fill="url(#SVGID_17_)" d="M739.4,954.5c38.1,0,68.9-30.8,68.9-68.9s-30.8-68.9-68.9-68.9s-68.9,30.8-68.9,68.9
				C670.5,923.6,701.4,954.5,739.4,954.5z"/>
			<path fill="#56534F" d="M509.1,1277.7c39.1,0,70.8-31.7,70.8-70.8s-31.7-70.8-70.8-70.8s-70.8,31.7-70.8,70.8
				C438.3,1246,470,1277.7,509.1,1277.7z"/>
		</g>
		<path fill="#3F3C38" d="M553.3,1056.4l25.3-43.1c0,0-13.1-35-44.6-46.1c-50.6-17.8-84.8,52.1-52.1,77.4
			C518.9,1073,553.3,1056.4,553.3,1056.4z"/>
	</g>
	<g display="inline">
		<path fill="#6E7F17" d="M1313.1,971.4c-9.1,23.5-20.4,45.8-33.8,66.7c57.5,55.8,143.8,99.4,189.2,103.1l6.6-73.9
			C1436.6,1064.2,1355.4,1017.1,1313.1,971.4z"/>
		<path fill="#3F3C38" d="M1317.1,960.1c-0.1,0.3-0.1,0.6-0.2,0.9c-10.7,30.3-25.1,58.8-42.8,85l22.8,15.9c0,0,38.3,0.7,59.8-40.8
			C1369.8,996.1,1345.9,965.3,1317.1,960.1z"/>
		<g>
			<path fill="#3F3C38" d="M1525.5,1006.1l-88.7,33.7c-15.8,6-23.7,23.7-17.8,39.5c6,15.8,23.7,23.7,39.5,17.8l88.7-33.7
				c15.8-6,23.7-23.7,17.8-39.5C1559,1008,1541.3,1000,1525.5,1006.1z"/>
			<path fill="#3F3C38" d="M1416.9,1155.5l37.8,51.4c10.2,13.6,29.4,16.4,43.1,6.3c13.6-10.2,16.4-29.4,6.3-43.1l-38.8-52.7
				L1416.9,1155.5z"/>
			<path fill="#3F3C38" d="M1451.2,1158.6l76.8,42.9c14.9,8.2,33.6,2.9,41.8-12c8.2-14.8,2.9-33.6-12-41.8l-57-32.1L1451.2,1158.6z"
				/>
			<path fill="#3F3C38" d="M1460.8,1122.2l84.6,24.4c16.3,4.7,33.4-4.7,38.2-21c4.7-16.3-4.7-33.4-21-38.2l-86.2-24.9L1460.8,1122.2
				z"/>
			<path fill="#56534F" d="M1452,1168.6c35.6,0,64.4-28.8,64.4-64.4c0-35.6-28.9-64.4-64.4-64.4c-35.6,0-64.4,28.8-64.4,64.4
				C1387.6,1139.7,1416.5,1168.6,1452,1168.6z"/>
		</g>
	</g>
	<g display="inline">
		<path fill="#6E7F17" d="M1251.4,573.8c2,8.1-3.5,16.2-11.8,17.4c-49.1,6.9-177.9,25-281,43.5c-93.4,16.7-95.8,19.8-127.8,48.2
			c-31.9,28.4-41.5,41.1-86.2,22.7s-97.4,1.4-102.2,46.8s-54.1,59.9-54.1,59.9l-15.1-30.1c0,0,16.5-11.3-1.1-63.8
			s-77.5-280,189.3-372.2C1021.1,256.4,1206,387.6,1251.4,573.8z"/>
		<path fill="#C5D43B" d="M1248,562.4c2,8.1-3.5,16.2-11.8,17.4c-49.1,6.9-186.9,26.2-289.9,44.7c-93.4,16.7-95.8,19.8-127.8,48.2
			c-31.9,28.4-41.5,41.1-86.2,22.7s-97.4,1.4-102.2,46.8s-49.5,58.1-49.5,58.1l-16-28.4c0,0,12.8-11.3-4.8-63.8
			c-17.6-52.5-77.5-280,189.3-372.2C1008.7,246.1,1202.6,376.2,1248,562.4z"/>
		
			<ellipse transform="matrix(0.3057 -0.9521 0.9521 0.3057 218.7527 1262.4138)" fill="#56534F" cx="975" cy="481.2" rx="37.9" ry="40.4"/>
		
			<ellipse transform="matrix(0.8617 -0.5074 0.5074 0.8617 -76.2894 629.8758)" fill="#56534F" cx="1117.4" cy="454.9" rx="21.3" ry="39"/>
		<path fill="#E1EA95" d="M600.8,489.4c155.3-205.3,376-138.9,376-138.9S745.7,352.6,600.8,489.4z"/>
		<g>
			<path fill="#A8B82F" d="M596.7,702.1c-2.4,0-4.8-1-6.6-2.8c-3.4-3.6-3.2-9.3,0.4-12.7c56.9-53.5,128.3-70.7,131.4-71.4
				c4.8-1.1,9.7,1.9,10.8,6.7c1.1,4.8-1.9,9.7-6.7,10.8c-0.7,0.2-69.8,16.9-123.2,67C601.1,701.3,598.9,702.1,596.7,702.1z"/>
		</g>
		<g>
			<path fill="#A8B82F" d="M583.2,661.4c-2.4,0-4.8-1-6.6-2.8c-3.4-3.6-3.2-9.3,0.4-12.7c56.9-53.5,128.4-70.7,131.4-71.4
				c4.8-1.1,9.7,1.9,10.8,6.7c1.1,4.8-1.9,9.7-6.7,10.8c-0.7,0.2-69.8,16.9-123.2,67C587.7,660.6,585.4,661.4,583.2,661.4z"/>
		</g>
	</g>
</g>
<g id="asset">
	<g>
		<path fill="#A8B82F" d="M1318.5,1567.9c-0.8-0.1-1.6-0.3-2.4-0.9c-2.3-1.5-3.4-4.4-2.5-6.5c0.4-0.9,9.8-22.1,35-38.7
			c1.8-1.2,4.6-0.3,6.3,1.9s1.5,5.1-0.3,6.3c-23.5,15.5-32.6,35.7-32.7,35.9C1321.2,1567.3,1319.9,1568,1318.5,1567.9z"/>
	</g>
	<g>
		<path fill="#A8B82F" d="M1295.7,1543.1c-0.9-0.1-1.9-0.4-2.8-1.2c-2.2-1.7-3-4.6-1.9-6.6c0.4-0.7,10.8-18.1,36-32.4
			c1.9-1.1,4.7-0.1,6.3,2.2c1.6,2.3,1.3,5.1-0.6,6.2c-23.6,13.4-33.6,30-33.7,30.2C1298.2,1542.6,1297,1543.1,1295.7,1543.1z"/>
	</g>
	<g>
		<path fill="#C5D43B" d="M1309.4,1576.2c-1.1-0.1-2.3-0.6-3.3-1.6c-2-1.9-2.5-4.9-1.1-6.6c28.8-34.7,70.9-22.4,72.7-21.8
			c2.5,0.8,4.4,3.3,4.2,5.8c-0.1,2.4-2.2,3.8-4.7,3.1c-0.1,0-9.9-2.9-22.8-1.8c-17.1,1.4-31.3,8.7-42.2,21.8
			C1311.6,1575.9,1310.5,1576.3,1309.4,1576.2z"/>
	</g>
	<path fill="#3F3C38" d="M716.6,1489.1c6.7-21.5,27.1-58.3,27.1-58.3s-6.8,19.6,0,39s-8.4,62.8-8.4,62.8s-20.8-29-19.8-32.9
		C716.4,1495.7,716.6,1489.1,716.6,1489.1z"/>
	<g>
		<path fill="#3F3C38" d="M1119,1430.8c3.1-35.3,38.2-19,54.1-1.8c15.9,17.2-33.5,46-44,34.1
			C1118.5,1451.2,1118.2,1439.7,1119,1430.8z"/>
		<path fill="#3F3C38" d="M754.6,1413.2c20.2-29.7,44.4-11.1,50.5,5.7s-53.3,34.7-57.2,23.2C744.1,1430.6,749.5,1420.8,754.6,1413.2
			z"/>
		<g>
			<circle fill="#4A4844" cx="1384.1" cy="1746.4" r="57.8"/>
			<path fill="#4A4844" d="M1396.1,1833.9L1396.1,1833.9c3.5-6.5,5.8-13.8,6.5-21.6c3.1-31.8-20.1-60.1-51.9-63.2
				c-21-2.1-40.4,7.3-52.2,23.1l0,0v0c-1.4,1.8-2.6,3.8-3.8,5.8l-18.7,28.7c-4.2,6.5,4.5,17,18.2,27.6c8.9,16.2,25.3,27.9,45.1,29.8
				c2.1,0.2,4.2,0.3,6.3,0.3c14.1,6.2,25.3,9,27.3,5.5c3.8-6.8,11.4-18.4,16.8-26.6C1392.2,1840.5,1394.3,1837.3,1396.1,1833.9
				C1396.1,1833.9,1396.1,1833.9,1396.1,1833.9z"/>
			<circle fill="#797672" cx="1325.4" cy="1837.1" r="57.8"/>
			<circle fill="#A7A4A0" cx="1325.4" cy="1837.1" r="27.1"/>
			<circle fill="#4A4844" cx="661.3" cy="1683" r="57.8"/>
			<path fill="#4A4844" d="M673.3,1770.5L673.3,1770.5c3.5-6.5,5.8-13.8,6.5-21.6c3.1-31.8-20.1-60.1-51.9-63.2
				c-21-2.1-40.4,7.3-52.2,23.1l0,0v0c-1.4,1.8-2.6,3.8-3.8,5.8l-18.7,28.7c-4.2,6.5,4.5,17,18.2,27.6c8.9,16.2,25.3,27.9,45.1,29.8
				c2.1,0.2,4.2,0.3,6.3,0.3c14.1,6.2,25.3,9,27.3,5.5c3.8-6.8,11.4-18.4,16.8-26.6C669.4,1777,671.5,1773.8,673.3,1770.5
				C673.3,1770.5,673.3,1770.5,673.3,1770.5z"/>
			<circle fill="#797672" cx="602.7" cy="1773.6" r="57.8"/>
			<circle fill="#A7A4A0" cx="602.7" cy="1773.6" r="27.1"/>
			<path fill="#6E7F17" d="M394.3,1488.2c396.9,93.7,1001.8,129.6,1205.8,129.8c195.9,0.3,228.2,104.9,113.1,142.8
				S580,1735.1,365,1623.4C192.9,1534.1,279.8,1461.2,394.3,1488.2z"/>
			<path fill="#C5D43B" d="M396.7,1463.5c396.9,93.7,1001.8,129.6,1205.8,129.8c195.9,0.3,228.2,104.9,113.1,142.8
				s-1133.2-25.8-1348.2-137.4C195.4,1509.4,282.2,1436.5,396.7,1463.5z"/>
			<g>
				<path fill="#A8B82F" d="M1139.7,1646.7c37.4,31.6,73.7,61.5,108.1,89.3c54.9,3.4,107.8,6.1,157,8
					c-59.9-46.2-131.3-103.1-207.1-167.3c-1.1-1-2.3-1.9-3.4-2.9c-49.6-3.8-101.3-8.2-154.1-13.3
					C1072.4,1589.1,1105.6,1617.8,1139.7,1646.7z"/>
				<path fill="#A8B82F" d="M754.6,1527.6c-50.9-7-101.2-14.6-150.2-22.8c6.1,6.4,12.2,12.8,18.4,19.2
					c53.5,55.3,112,112.1,175,169.9c50.9,6.6,103.7,12.6,157,18.1C882.9,1649.4,815.9,1587.8,754.6,1527.6z"/>
				<path fill="#A8B82F" d="M1097.7,1663.6c-43.6-36.9-85.6-73.6-125.7-109.9c-50.5-5.3-101.6-11.1-152.6-17.6
					c62.5,59.7,130.1,120.7,202.3,182.3c52.9,4.9,105.8,9.2,157.6,12.9C1153,1709.9,1125.7,1687.3,1097.7,1663.6z"/>
			</g>
		</g>
		<path fill="#6E7F17" d="M805.4,1178.2l-31.7,255.2l71.3,8.9l29.9-240.2C850.7,1196.4,827.5,1188.4,805.4,1178.2z"/>
		<path fill="#6E7F17" d="M1112.7,1180.8c40.7,92.7,33.7,223.9,25.9,277.5c-0.6,3.8,40.2-30.5,75.6-35.4
			c5.6-57.4,7.6-172.7-39.7-276.5C1155.2,1159.7,1134.5,1171.3,1112.7,1180.8z"/>
		<path fill="#3F3C38" d="M1128.3,1265.3c0,0,24.3-14.3,59.5-20.4s61.2,79.7,8.3,88s-63.5-12.2-63.5-12.2L1128.3,1265.3z"/>
		<path fill="#6D6A66" d="M1450.1,1588.3c0,0-3.8,0.1-39.7-21c-35.9-21.1-143.3-131.7-161-149.3c-17.7-17.7-50.3,28-50.3,28
			l150.2,174.9c0,0,92.2,2.1,100.5-12.2C1458.2,1594.4,1450.1,1588.3,1450.1,1588.3z"/>
		<path fill="#3F3C38" d="M1320.2,1572.7c0,0,17.1,4.3,41.4-2.1c24.3-6.4,24.8-10.5,0.2-30.7c-53.3-43.7-96.2-95.7-119.8-115
			s-27.5-22.7-49.2-18.2c-19.4,4-34.7,10.6-39.3,20.8C1148.9,1437.8,1320.2,1572.7,1320.2,1572.7z"/>
		<g>
			<path fill="#A8B82F" d="M1276,1519.1c-0.6,0-1.2-0.2-1.8-0.5c-2.4-1.2-3.9-4-3.3-6.3c0.2-0.7,4.7-18.3,32-33.4
				c1.9-1.1,4.7,0,6.3,2.3c1.5,2.3,1.2,5.1-0.7,6.2c-24.9,13.8-28.9,29.1-28.9,29.2C1279.1,1518.3,1277.7,1519.2,1276,1519.1z"/>
		</g>
		<g>
			<path fill="#A8B82F" d="M1253.6,1499.5c-0.6,0-1.3-0.2-2-0.6c-2.4-1.3-3.8-4.1-3.1-6.3c0.3-0.9,6.5-21.6,30.2-32.9
				c2-0.9,4.8,0.2,6.2,2.6c1.4,2.4,1,5.1-1,6c-21,10-26.8,28.7-26.8,28.8C1256.6,1498.8,1255.2,1499.6,1253.6,1499.5z"/>
		</g>
		<path fill="#6D6A66" d="M1118.5,1452.7c-1.2-8.8,0.5-21.9,0.5-21.9s4.1,18.2,9,23.2s6.9-7.3,14.4-21.3c7.5-14,12.5-27.3,53.1,6.2
			s103.7,92.7,122.6,115.4c18.9,22.7,16,47.9,16,47.9l-98.8,13.6l-94.8-73.8C1140.6,1541.9,1120.2,1466.1,1118.5,1452.7z"/>
		<g>
			<path fill="#C5D43B" d="M1295.3,1484.2c-0.3,0-0.6-0.1-0.9-0.2c-0.5-0.1-47.6-13-84.5-9c-2.3,0.2-4.9-1.6-5.7-4.2
				c-0.8-2.6,0.4-4.8,2.7-5.1c38.5-4.2,85.7,8.7,87.7,9.2c2.5,0.7,4.4,3.2,4.4,5.7C1298.9,1482.9,1297.4,1484.3,1295.3,1484.2z"/>
		</g>
		<g>
			<path fill="#C5D43B" d="M1327.8,1509.1c-0.3,0-0.7-0.1-1.1-0.2c-0.6-0.2-57.3-17.8-95.1-10.3c-2.2,0.4-4.9-1.2-5.9-3.8
				s0-4.9,2.2-5.4c39.8-7.9,96.8,9.9,99.2,10.6c2.4,0.8,4.3,3.4,4.2,5.8C1331.3,1507.9,1329.8,1509.2,1327.8,1509.1z"/>
		</g>
		<g>
			<path fill="#C5D43B" d="M1254.9,1522.2c-1.7-0.1-3.5-1.3-4.5-3.1c-1.4-2.4-0.9-5.1,1.2-5.9c11.9-5.1,29.9-6.1,53.6-2.8
				c17.4,2.4,31.2,6.2,31.8,6.3c2.5,0.7,4.4,3.2,4.4,5.7c0,2.5-2.1,3.9-4.5,3.2c-0.5-0.2-54.5-14.8-80.2-3.7
				C1256.1,1522.2,1255.5,1522.3,1254.9,1522.2z"/>
		</g>
		<g>
			<path fill="#C5D43B" d="M1283.1,1549.6c-1.7-0.1-3.5-1.3-4.5-3.1c-1.4-2.4-0.8-5.1,1.2-5.9c30.4-13,79.6-8.5,81.7-8.3
				c2.4,0.2,4.7,2.5,5.1,5s-1.2,4.4-3.7,4.2c-0.5-0.1-49.3-4.5-78.1,7.8C1284.3,1549.6,1283.7,1549.7,1283.1,1549.6z"/>
		</g>
		<path fill="#3F3C38" d="M1124.8,1518.8c-5.7-24.2-6.5-67.4-6.5-67.4s4.5,22.3,22.6,42.2s27.9,69.2,27.9,69.2s-37.7-28-39-32.5
			S1124.8,1518.8,1124.8,1518.8z"/>
		<path fill="#3F3C38" d="M1248.1,1608.2c10.7-10.7,26.9-30.4,75.8-11c54.7,21.8,119.9,1.4,126.2-9c13.9,5.9,26.1,23.5,28.9,29.6
			s-48.4,44.1-114.4,36.3C1298.7,1646.5,1248.1,1608.2,1248.1,1608.2z"/>
		<path fill="#6D6A66" d="M981,1592.2c0,0-3.5-0.5-26-23.3s-79-128.4-86.5-145.8c-7.6-17.4-47.7,13.9-47.7,13.9l51.8,169.5
			c0,0,83.6,14.2,98.2,3.1C985.4,1598.5,981,1592.2,981,1592.2z"/>
		<path fill="#3F3C38" d="M869.4,1561.4c0,0,13.6,6,39.1,3.8c25.5-2.2,27.9-5.6,15.2-26.1c-27.4-44.4-52.3-91-64.4-110.6
			s-6.7-23.5-25.1-25.8s-37,4.4-46.3,12.4S869.4,1561.4,869.4,1561.4z"/>
		<g>
			<path fill="#A8B82F" d="M870.2,1557.1c-0.7-0.2-1.3-0.5-1.8-1.1c-1.3-1.6-1-4.2,0.9-5.9c0.8-0.7,19.9-17.5,51.1-28.3
				c2.3-0.8,4.4,0.3,4.8,2.5c0.4,2.2-1.1,4.5-3.4,5.3c-29.2,10.1-47.5,26.1-47.7,26.2C873,1556.9,871.5,1557.3,870.2,1557.1z"/>
		</g>
		<g>
			<path fill="#A8B82F" d="M861.5,1532.8c-0.8-0.2-1.6-0.6-2-1.4c-1.2-1.8-0.5-4.4,1.5-5.8c0.8-0.6,18.9-14,49-22.8
				c2.3-0.7,4.4,0.6,4.6,2.8c0.3,2.2-1.3,4.5-3.6,5.2c-28.3,8.3-45.6,21.1-45.8,21.2C864,1532.8,862.7,1533.1,861.5,1532.8z"/>
		</g>
		<g>
			<path fill="#A8B82F" d="M855.2,1509.7c-0.5-0.1-1-0.3-1.4-0.7c-1.6-1.3-1.6-3.9,0-5.8c0.5-0.6,13.4-15,45.8-24.2
				c2.3-0.6,4.3,0.6,4.6,2.8c0.3,2.2-1.4,4.5-3.7,5.2c-29.6,8.4-40.8,20.9-40.9,21.1C858.5,1509.4,856.7,1510,855.2,1509.7z"/>
		</g>
		<g>
			<path fill="#A8B82F" d="M844.3,1490c-0.6-0.1-1.1-0.4-1.5-0.8c-1.5-1.4-1.4-4,0.3-5.8c0.7-0.7,16.6-17.5,43.9-24
				c2.3-0.5,4.3,0.8,4.4,3.1c0.2,2.2-1.6,4.5-3.9,5c-24.2,5.7-38.7,20.8-38.8,21C847.4,1489.8,845.7,1490.3,844.3,1490z"/>
		</g>
		<path fill="#6D6A66" d="M743.3,1431.9c3.3-7.7,11.3-18.7,11.3-18.7s-5.2,16.1-3.1,21.1c2.1,4.9,9.9-5.3,23.7-16.2
			s24.9-21.6,45.7,12.4s49.5,93.1,55.7,114.9s-8.9,43-8.9,43l-97.3-1.7l-50.7-75.7C719.7,1511,738.3,1443.6,743.3,1431.9z"/>
		<g>
			<path fill="#C5D43B" d="M890.2,1482.5c-0.3-0.1-0.5-0.1-0.8-0.2c-0.4-0.2-37.3-17.5-73.1-19c-2.2-0.1-3.7-2-3.2-4.3
				c0.5-2.3,2.7-4.1,5-4c37.4,1.6,74.4,18.9,75.9,19.7c1.9,0.9,2.5,3.3,1.2,5.5C894,1482,891.9,1482.9,890.2,1482.5z"/>
		</g>
		<g>
			<path fill="#C5D43B" d="M907.7,1508.1c-0.3-0.1-0.6-0.2-0.9-0.3c-0.4-0.2-43.8-22.9-82.2-21.6c-2.3,0.1-3.9-1.7-3.5-4
				c0.3-2.3,2.4-4.2,4.7-4.3c40.4-1.4,84,21.5,85.8,22.4c1.9,1,2.3,3.5,1,5.5C911.5,1507.6,909.4,1508.5,907.7,1508.1z"/>
		</g>
		<g>
			<path fill="#C5D43B" d="M834.3,1509.6c-1.5-0.3-2.6-1.5-2.6-3.2c-0.1-2.2,1.7-4.4,4-4.9c13.4-2.8,30.4-1.2,50.6,4.8
				c14.8,4.4,25.6,9.5,26.1,9.7c1.9,0.9,2.5,3.3,1.2,5.5c-1.3,2.1-3.8,3.1-5.8,2.2c-0.4-0.2-42.8-20-71.8-14
				C835.4,1509.7,834.9,1509.7,834.3,1509.6z"/>
		</g>
		<g>
			<path fill="#C5D43B" d="M846.8,1536.7c-1.5-0.3-2.6-1.6-2.6-3.2c-0.1-2.2,1.7-4.4,4-4.9c34.3-7,77.2,3.4,79,3.9
				c2.1,0.5,3.1,2.8,2.2,5c-0.9,2.2-3.3,3.6-5.5,3.1c-0.4-0.1-43.1-10.5-75.5-3.8C847.8,1536.8,847.3,1536.8,846.8,1536.7z"/>
		</g>
		<g>
			<path fill="#C5D43B" d="M857.8,1563c-1-0.2-1.8-0.8-2.3-1.8c-0.9-1.9,0.1-4.5,2.2-5.7c43.5-25.7,76.1-9.6,77.5-8.9
				c1.9,1,2.3,3.4,1,5.5s-3.9,3-5.8,2c-0.1,0-7.7-3.8-20-4.6c-16.4-1.1-33.1,3.2-49.5,12.9C859.9,1563,858.8,1563.2,857.8,1563z"/>
		</g>
		<path fill="#3F3C38" d="M785.7,1582c15.1-7.7,37.6-17.1,80.8-2.5c43.2,14.6,103.5,20.7,114.5,12.6c9.8,6.9,12.3,23.6,11.9,29.1
			c-0.4,5.6-53.3,19.6-110,4.1C826.2,1610,785.7,1582,785.7,1582z"/>
		<path fill="#EEEDEC" d="M712.7,1500.4c1.5-4.3,3.9-11.3,3.9-11.3s40.5,65.3,74.6,93.3c41.5,34.1,102.3,39.7,137.6,42.9
			c34.4,3.2,57.8-2.2,64.4-8.5c4.2,4.5,0.6,16.5-4.2,31.4s-24.1,31.6-99,21.2s-116.4-42.3-133.2-69.9
			c-16.8-27.6-36.6-55.5-41.7-62.8c-8.1-11.6-10.5-15.8-6.9-25.3C710,1506.7,711.2,1504.6,712.7,1500.4z"/>
		<path fill="#3F3C38" d="M785.4,1249.8c0,0,26.8-8.9,62.5-7.4s43.1,90.8-10.4,87.8c-53.6-3-59.5-25.3-59.5-25.3L785.4,1249.8z"/>
		<path fill="#EEEDEC" d="M1486.9,1640.2c-4.6-17.7-10.2-27.2-10.2-27.2s-4.9,7.1-21.6,14.9s-129,29.9-214.9-27.3
			c-2-1.3-4.1-2.5-6.2-3.4c-37-25.3-109.2-78.4-109.2-78.4s2.1,16,4.4,25.4s3.2,12.9,11.6,19c7.8,5.7,52.6,40.2,88,69.7
			c33.8,29.3,79.6,58.9,148.1,55.3C1452.3,1684.3,1491.5,1658,1486.9,1640.2z"/>
	</g>
</g>
</svg>
