<svg xmlns="http://www.w3.org/2000/svg" xmlns:xlink="http://www.w3.org/1999/xlink" viewBox="0 0 804.43 597.47"><defs><radialGradient id="radial-gradient" cx="434.33" cy="471.02" r="239.9" gradientUnits="userSpaceOnUse"><stop offset="0.47" stop-color="#a08be8"/><stop offset="0.86" stop-color="#8065e0"/></radialGradient></defs><g id="Layer_2" data-name="Layer 2"><g id="asset"><g id="alien-headband"><path d="M331.9,311.26C331.9-71.94,90.35-10.4,53.1,166.05" fill="none" stroke="#576e37" stroke-miterlimit="10" stroke-width="6"/><path d="M591.34,311.26C574.2-60.63,765.8-49,751.32,100.48" fill="none" stroke="#576e37" stroke-miterlimit="10" stroke-width="6"/><path d="M687.33,406.7C477.42,196.79,111.19,459.8,111.19,597.47H90.35c0-123.71,110.53-287.15,334.08-306,37.85-3.18,70.68-3.17,99.05-1A376.77,376.77,0,0,1,687.33,406.7Z" fill="url(#radial-gradient)"/><path d="M687.33,406.7c-25.74-25.74-53.84-44.37-83.32-57a254.88,254.88,0,0,0-31.26-11c-206.42-58.33-461.56,143.89-461.56,258.8H90.35c0-123.71,110.53-287.15,334.08-306,37.85-3.18,70.68-3.17,99.05-1a374.43,374.43,0,0,1,58.11,26.78q12.84,7.31,25,15.57A378.26,378.26,0,0,1,687.33,406.7Z" fill="#c5d43b"/><path d="M349.85,341.61c0,8.27-8,15-18,15s-18-6.7-18-15a12.88,12.88,0,0,1,1.75-6.44,48.61,48.61,0,0,0,3.5-7.09c4.19-11.12,9.36-25.63,9.26-29.4h6s4.31,14.35,8.67,26.71a44.14,44.14,0,0,0,4.62,9.15A13,13,0,0,1,349.85,341.61Z" fill="#95a527"/><path d="M606.61,332.83q-6.36-4.32-12.89-8.37-3-1.83-6-3.62t-6.16-3.58c3.53-10.49,6.53-20.48,6.53-20.48h6a6.2,6.2,0,0,0,0,.82c.5,4.74,5.29,18.15,9.22,28.58A48.67,48.67,0,0,0,606.61,332.83Z" fill="#95a527"/><circle cx="53.1" cy="180.14" r="53.1" fill="#c5d43b"/><path d="M106.2,180.14A53.1,53.1,0,1,1,53.1,127,53.1,53.1,0,0,1,106.2,180.14Z" fill="#fffbf3"/><circle cx="53.1" cy="180.14" r="44.46" fill="#fffbf3"/><circle cx="53.1" cy="180.14" r="25.44" fill="#576e37"/><path d="M106.2,180.14c-56.57-76.36-106.2,0-106.2,0a53.1,53.1,0,0,1,106.2,0Z" fill="#c5d43b"/><path d="M0,180.15c56.58,76.36,106.2,0,106.2,0a53.1,53.1,0,1,1-106.2,0Z" fill="#c5d43b"/><circle cx="751.32" cy="100.48" r="53.1" fill="#c5d43b"/><path d="M698.22,100.48a53.1,53.1,0,1,0,53.1-53.1A53.1,53.1,0,0,0,698.22,100.48Z" fill="#fffbf3"/><circle cx="751.32" cy="100.48" r="44.46" fill="#fffbf3"/><circle cx="751.32" cy="100.48" r="25.44" fill="#576e37"/><path d="M698.22,100.48c56.57-76.36,106.2,0,106.2,0a53.1,53.1,0,1,0-106.2,0Z" fill="#c5d43b"/><path d="M804.42,100.49c-56.57,76.36-106.2,0-106.2,0a53.1,53.1,0,1,0,106.2,0Z" fill="#c5d43b"/></g></g></g></svg>