<svg xmlns="http://www.w3.org/2000/svg" xmlns:xlink="http://www.w3.org/1999/xlink" viewBox="0 0 691.16 513.39"><defs><linearGradient id="linear-gradient" x1="495.83" y1="85.44" x2="626.8" y2="85.44" gradientUnits="userSpaceOnUse"><stop offset="0" stop-opacity="0.2"/><stop offset="0.54" stop-color="#191816" stop-opacity="0.6"/><stop offset="1" stop-color="#33312d"/></linearGradient><linearGradient id="linear-gradient-2" x1="-17.96" y1="325.73" x2="402.22" y2="142.57" xlink:href="#linear-gradient"/><linearGradient id="linear-gradient-3" x1="57.42" y1="461.68" x2="431.65" y2="346.24" xlink:href="#linear-gradient"/></defs><g id="Layer_2" data-name="Layer 2"><g id="asset"><g id="beret-black"><path d="M686.76,239.6c-14.85-12.69-42.09-35.31-57.73-44.2-13.83-7.86-14.2-14.41-10.92-29.6h0c2-9.26,5.36-21.72,7.86-39.66,6.54-46.93-24.66-100.68-130.14-121L493,4.55c-43.8-8.11-86.49-5-127.88,6.36C309.25,26.26,255.76,56.69,205.19,95q-2,1.47-3.9,3c-2.81,2.15-5.62,4.34-8.41,6.54-72.32-73.33-77.9-69.34-84.42-60s2.79,19.45,21.42,41c12.65,14.63,20.83,37.73,25.67,54.8C77.8,227.12,7.74,379.26.85,435.52a101.43,101.43,0,0,0-.8,15.85c1,25.85,14.73,33.76,30.31,35.87C43,489,56.82,486.86,66,487.4c22.61,1.33,30.59-46.56,49.92-47.89S78,522,108.46,512.67c156-47.67,266.25-85.79,345.85-117.32,165.15-65.41,198.27-102.42,233.17-137.3.22-.22.43-.45.63-.68A12.58,12.58,0,0,0,686.76,239.6Z" fill="#33312d"/><path d="M626,126.13c-2.5,17.94-5.86,30.4-7.86,39.66C607.53,106.24,576.81,48.91,495.83,5.08,601.31,25.45,632.51,79.2,626,126.13Z" fill="url(#linear-gradient)"/><path d="M201.29,97.94c-2.81,2.15-5.62,4.34-8.41,6.54-91.29,72-184,265.86-192,331a101.43,101.43,0,0,0-.8,15.85C34.31,420.9,98.18,319.9,160.29,267.92c82.65-69.17,171.77-84.42,209-114.71s41.61-47.16-14.5-48.73q-5.32-.15-11.56-.47c-32.89-1.69-83.64-6.57-138-9Z" fill="url(#linear-gradient-2)"/><path d="M688.11,257.37c-.2.23-.41.46-.63.68-34.9,34.88-68,71.89-233.17,137.3C374.71,426.88,264.42,465,108.46,512.67,78,522,135.27,438.18,116,439.51S88.64,488.73,66,487.4h-.28c-18.23-1-27.57-22.24-15.72-36.13,43-50.39,142.22-98.62,186.26-111.51C288.9,324.35,512.41,265.33,688.11,257.37Z" fill="url(#linear-gradient-3)"/></g></g></g></svg>