<svg xmlns="http://www.w3.org/2000/svg" xmlns:xlink="http://www.w3.org/1999/xlink" viewBox="0 0 639.44 684.49"><defs><linearGradient id="linear-gradient" x1="-16.15" y1="386.38" x2="168.84" y2="151.52" gradientUnits="userSpaceOnUse"><stop offset="0.34" stop-color="#cc5444"/><stop offset="0.41" stop-color="#d05746"/><stop offset="0.7" stop-color="#db624e"/><stop offset="1" stop-color="#df6551"/></linearGradient><linearGradient id="linear-gradient-2" x1="137.4" y1="-8.57" x2="492.07" y2="164.4" gradientUnits="userSpaceOnUse"><stop offset="0.31" stop-color="#df6551"/><stop offset="0.92" stop-color="#eb8470"/></linearGradient></defs><g id="Layer_2" data-name="Layer 2"><g id="asset"><g id="bike-helmet-red"><path d="M240,541.67l39.1-241.34-30.6-5L216.18,494.88C190.35,444.2,161.72,388.17,139.92,346l-27.54,14.23C163.71,459.56,253.09,635.9,254,637.67l27.66-14C281.24,622.88,263.8,588.46,240,541.67Z" fill="#4a4844"/><path d="M598.62,298c-13.26,8.33-107.72,94.57-316.37,30.73-39.65-13.57-79.45,7.67-119.54,35.46-42.49,29.46-85.3,66.29-128.62,76.91,0,0-7-17.34-14.68-45.14-1.18-4.28-2.38-8.82-3.57-13.58s-2.31-9.47-3.43-14.5q-1.48-6.69-2.89-13.8c-14.84-75.32-20.16-184,44.11-261a215.21,215.21,0,0,1,53.52-45.81,269.43,269.43,0,0,1,47.4-22.74q14.53-5.37,30.8-9.68,6.35-1.68,12.56-3.15,10-2.37,19.63-4.23,18.22-3.52,35.18-5.31l1.51-.17q9.66-1,18.91-1.47Q288.62-.34,303,.24C496.87,7.51,546.34,189.46,551.26,208.17c.65,2.45,3.12,4.6,6.86,6.57a55.36,55.36,0,0,0,5.49,2.47c14.54,5.73,38.72,10.37,55.86,17.89.61.26,1.21.54,1.8.81C644.8,246.85,653,263.82,598.62,298Z" fill="#df6551"/><path d="M543.55,185.29c-.32-1.23-.84-3.15-1.56-5.68,1.12,2.95,2.13,5.73,3,8.32A6.5,6.5,0,0,1,543.55,185.29Z" fill="#df6551"/><path d="M162.71,364.18c-42.49,29.46-85.3,66.29-128.62,76.91,0,0-7-17.34-14.68-45.14-1.18-4.28-2.38-8.82-3.57-13.58s-2.31-9.47-3.43-14.5q-1.48-6.69-2.89-13.8c-14.84-75.32-20.16-184,44.11-261-27.28,61.61-4,110,15.16,138.58s65.34,50.55,86.62,97.77C162.61,345.35,164.9,355.78,162.71,364.18Z" fill="url(#linear-gradient)"/><path d="M598.62,298c-13.26,8.33-107.72,94.57-316.37,30.73-81.66-27.94-164,91.73-248.16,112.37,0,0-4.2-10.4-9.66-28,1.23,3.35,1.95,5.13,1.95,5.13,84.19-20.64,166.5-140.31,248.16-112.38,208.65,63.85,303.11-22.39,316.37-30.72,22.64-14.21,34.43-25.45,38.79-34.52C645.89,251.65,645.83,268.34,598.62,298Z" fill="#fee7de"/><path d="M436.07,174.67c-31.25-1.07-53.59-76.92-104.14-108-45.52-28-148.42-22.83-224.78-19.45a269.43,269.43,0,0,1,47.4-22.74q14.53-5.37,30.8-9.68,6.35-1.68,12.56-3.15,10-2.37,19.63-4.23,18.22-3.52,35.18-5.31c137.45,19,208.9,79.76,236.6,153.37C496.72,175.13,467.33,175.75,436.07,174.67Z" fill="url(#linear-gradient-2)"/><path d="M144.42,76.82a7.51,7.51,0,0,1-7,8h-.5a7.5,7.5,0,0,1-7.48-7c-1.39-20.9,9.45-38.59,25.1-53.33q14.53-5.37,30.8-9.68,6.35-1.68,12.56-3.15C160,33.75,142.94,54.7,144.42,76.82Z" fill="#4a4844"/><path d="M194,70.92a7.49,7.49,0,0,1-7,8l-.51,0a7.5,7.5,0,0,1-7.47-7c-1.76-26.48,16.1-47.79,38.5-64.5q19-3.67,36.69-5.48C211.65,25.45,192.45,47.53,194,70.92Z" fill="#4a4844"/><path d="M239.66,70.92a7.49,7.49,0,0,1-7,8l-.51,0a7.5,7.5,0,0,1-7.47-7c-2-30.3,21.67-53.84,48.44-71.45Q288.62-.34,303,.24C258.25,24.38,238.07,47,239.66,70.92Z" fill="#4a4844"/><path d="M55.26,351.69C43.37,357.21,27.15,363,12.41,367.87q-1.48-6.69-2.89-13.8c14-4.64,29-10.05,39.86-15.08a7,7,0,1,1,5.88,12.7Z" fill="#4a4844"/><path d="M64.73,379c-12.55,5.81-29.94,12-45.32,17-1.18-4.28-2.38-8.82-3.57-13.58,14.82-4.85,31.32-10.7,43-16.11A7,7,0,1,1,64.73,379Z" fill="#4a4844"/><path d="M619.47,235.1c-10.13,6.05-21.1,13-32.42,20.9-66.51,46.56-166.72,44.78-200,30.15S431,265.31,493.94,253.78c39.59-7.25,61.82-22.56,69.67-36.57C578.15,222.94,602.33,227.58,619.47,235.1Z" fill="#eb8470"/><rect x="254.64" y="619.84" width="47.22" height="61.44" rx="12" transform="translate(-262.01 193.65) rotate(-26.62)" fill="#ec917e"/><circle cx="219.26" cy="525.58" r="33.7" fill="#fee7de"/><polygon points="254.28 638 281.77 623.67 301.88 663.38 274.59 678.11 254.28 638" fill="#4a4844"/><circle cx="219.26" cy="525.58" r="28.07" fill="#df6551"/><path d="M224.3,549.69c22.23-3.89,22.94-26.38,18.72-32.84-2.35-3.6-8.55-8.81-10.84-4.35s11.69,10.53,4.76,20.67-19,3.16-23.06,5.16S214.49,551.41,224.3,549.69Z" fill="#eb8470"/></g></g></g></svg>