<?xml version="1.0" encoding="utf-8"?>
<!-- Generator: Adobe Illustrator 26.0.0, SVG Export Plug-In . SVG Version: 6.00 Build 0)  -->
<svg version="1.1" id="asset" xmlns="http://www.w3.org/2000/svg" xmlns:xlink="http://www.w3.org/1999/xlink" x="0px" y="0px"
	 viewBox="0 0 214.74 150" style="enable-background:new 0 0 214.74 150;" xml:space="preserve">
<style type="text/css">
	.st0{fill:#D600AA;}
	.st1{fill:#FF6759;}
	.st2{fill:url(#SVGID_1_);}
	.st3{fill:url(#SVGID_00000058570305062973232820000014928120175012826295_);}
	.st4{fill:#FF4966;}
	.st5{fill:#FF625B;}
	.st6{fill:#FF615C;}
	.st7{fill:#FFD590;}
</style>
<g>
	<path class="st0" d="M49.15,116.37C36.18,78.99,22.07,36.04,82.92,16.55c60.86-19.49,75.67,24.9,88.04,58.31
		C176.04,88.53,52.09,124.79,49.15,116.37z"/>
	<path class="st1" d="M68.12,102.41c10.7,0,19.36-8.67,19.36-19.36s-8.67-19.36-19.36-19.36s-19.36,8.67-19.36,19.36
		S57.42,102.41,68.12,102.41z"/>
	
		<linearGradient id="SVGID_1_" gradientUnits="userSpaceOnUse" x1="-456.9138" y1="-5638.7412" x2="-437.0255" y2="-5624.0454" gradientTransform="matrix(1 0 0 1 564 5695.8584)">
		<stop  offset="0" style="stop-color:#FF7951"/>
		<stop  offset="1" style="stop-color:#FF2078"/>
	</linearGradient>
	<path class="st2" d="M113.47,77.82c8.83,0,15.98-7.16,15.98-15.98s-7.16-15.98-15.98-15.98s-15.98,7.16-15.98,15.98
		C97.49,70.66,104.64,77.82,113.47,77.82z"/>
	
		<linearGradient id="SVGID_00000155829998821294768720000014807887439023172016_" gradientUnits="userSpaceOnUse" x1="-480.1133" y1="-5678.1245" x2="-459.5169" y2="-5655.9087" gradientTransform="matrix(1 0 0 1 564 5695.8584)">
		<stop  offset="0" style="stop-color:#FF7951"/>
		<stop  offset="1" style="stop-color:#FF2078"/>
	</linearGradient>
	<path style="fill:url(#SVGID_00000155829998821294768720000014807887439023172016_);" d="M109.54,13.06
		c-0.14-0.43-0.29-0.85-0.45-1.26c-7.63,0.12-16.29,1.6-26.16,4.76c-7.22,2.31-13.38,4.96-18.61,7.87c0.18,0.97,0.42,1.93,0.72,2.87
		c1.89,5.9,6.04,10.81,11.55,13.64c5.51,2.84,11.92,3.37,17.82,1.48c5.9-1.89,10.81-6.04,13.64-11.55
		C110.89,25.36,111.43,18.96,109.54,13.06z"/>
	<path class="st4" d="M38.68,57.74c2.63,0.71,5.4,0.64,7.99-0.19c3.58-1.15,6.56-3.67,8.28-7.01c1.72-3.34,2.04-7.23,0.9-10.81
		c-0.77-2.41-2.17-4.57-4.06-6.26C44.24,40.68,40.27,48.91,38.68,57.74z"/>
	<path class="st5" d="M125.48,13.94c-1.63,3.29-1.91,7.09-0.78,10.58c0.57,1.77,1.48,3.42,2.68,4.84c1.2,1.42,2.67,2.59,4.33,3.44
		c1.66,0.85,3.46,1.37,5.31,1.52c1.86,0.15,3.72-0.06,5.49-0.63c2.37-0.75,4.49-2.12,6.16-3.96
		C142.65,22.54,135.16,16.86,125.48,13.94z"/>
	<path class="st6" d="M146.03,67.4c1.29,4.04,3.68,7.63,6.89,10.4c3.21,2.76,7.13,4.58,11.32,5.25c4.96-3.13,7.56-5.97,6.74-8.2
		c-4.11-11.11-8.5-23.42-14.75-34.21c-4.48,2.64-7.93,6.73-9.78,11.6C144.59,57.1,144.44,62.45,146.03,67.4z"/>
	<path class="st7" d="M24.4,119.43c0,0,2.35,34.02,96.86,1.01c94.22-32.9,71.29-60.32,71.29-60.32s-26.64,20.86-82.94,38.88
		C53.32,117.02,24.4,119.43,24.4,119.43z"/>
</g>
</svg>
