<svg xmlns="http://www.w3.org/2000/svg" viewBox="0 0 1038.1 543.53"><g id="Layer_2" data-name="Layer 2"><g id="asset"><g id="clown-hat"><path d="M630.82,404.46c30.75,0,57.51,21.46,71.31,53.1C698,406.46,666,366.69,627,366.69c-41.73,0-75.55,45.66-75.55,102q0,6.46.58,12.72C561,437.19,592.84,404.46,630.82,404.46Z" fill="#4adafa"/><path d="M785.22,404.46c-30.75,0-57.51,21.46-71.31,53.1,4.11-51.1,36.16-90.87,75.1-90.87,41.73,0,75.55,45.66,75.55,102q0,6.46-.58,12.72C855.08,437.19,823.2,404.46,785.22,404.46Z" fill="#4adafa"/><path d="M1037.57,305.14a42.66,42.66,0,0,0-16.74-27.65,39.13,39.13,0,0,0-2.71-25.62A48.42,48.42,0,0,0,959,176a42.76,42.76,0,0,0-36-11.12l-.26,0a40.95,40.95,0,0,0-68.21-6.76,36.84,36.84,0,0,0-64.7-8.43A32.36,32.36,0,0,0,734,172.06c0,.49,0,1,0,1.46A50.3,50.3,0,0,0,680.82,216C812.29,257.32,912.66,368.84,938,506.65l-.54.43H915s1.57,7.44,3,20.59a46.55,46.55,0,0,0,52.16-53.43,46.23,46.23,0,0,0-9.83-22,27.75,27.75,0,0,0,3.83-5.7,42.83,42.83,0,0,0,41.23-72.46,31.5,31.5,0,0,0,4-21.05c0-.22-.08-.43-.12-.65A42.86,42.86,0,0,0,1037.57,305.14Z" fill="#cc5444"/><path d="M901,227.51a27.9,27.9,0,0,1,50.36,13.28,27.39,27.39,0,0,1,.07,5.35A27.91,27.91,0,1,0,901,227.51Z" fill="#e86e58"/><path d="M823.49,288.6a27.91,27.91,0,0,1,42.63-29.92,28.58,28.58,0,0,1,4.13,3.39,27.9,27.9,0,1,0-46.76,26.53Z" fill="#e86e58"/><path d="M900.14,325.17a28.23,28.23,0,0,1,16.6-15.23c14.55-5.09,30.34,2.21,35.27,16.31a26.8,26.8,0,0,1,1.22,5,26.48,26.48,0,0,0,.82-19.5c-4.93-14.09-20.72-21.39-35.27-16.31C905.94,300,898.37,312.59,900.14,325.17Z" fill="#e86e58"/><path d="M831.08,233.55a27.91,27.91,0,0,1,42.63-29.92,28.58,28.58,0,0,1,4.13,3.39,27.9,27.9,0,1,0-46.76,26.53Z" fill="#e86e58"/><path d="M935.4,391.31a28.24,28.24,0,0,1,20-10.36c15.37-1.11,28.7,10.07,29.77,25a26.25,26.25,0,0,1-.14,5.18,26.45,26.45,0,0,0,5.89-18.61c-1.07-14.89-14.4-26.07-29.77-25C947.59,368.5,937,378.7,935.4,391.31Z" fill="#e86e58"/><path d="M353.58,245.67c3.19-87.9-4.42-130.64-9.43-148.66A23.11,23.11,0,0,1,349.62,75C372.2,51.09,435-3.44,534.57.17c80.57,2.92,112.77,13.88,117.87,44.68s53.15,157.87,66.36,171S353.58,245.67,353.58,245.67Z" fill="#8b9b23"/><path d="M353.58,245.67S732,229,718.8,215.85c-6.43-6.39-21.11-39.76-35.07-75.88-14-9.77-32-20.27-79.26-23.16-108.44-6.65-210.74,45.93-250.2,77.66C354.46,209.53,354.27,226.53,353.58,245.67Z" fill="#4adafa"/><path d="M313.12,242.39c138.16-47,310.14-75.8,430.36-74.32,1.53,22.85-3.11,57.72-66.42,61.91-155.14,10.26-264.59,43.66-329.34,66C304.2,311,299.11,259.11,313.12,242.39Z" fill="#8b9b23"/><path d="M363.59,326.43a24.21,24.21,0,0,0-9.68-27,30.14,30.14,0,0,0-20.27-50.26l-.36-.5a35.17,35.17,0,0,0-59.55-37.39,50.26,50.26,0,0,0-83.32-19.58A26.79,26.79,0,0,0,139,202.22c0,.28,0,.56,0,.84a57.68,57.68,0,0,0-81.52,24.83,40.19,40.19,0,1,0-25.65,75.6,33.32,33.32,0,0,0,2.69,12.41,39.06,39.06,0,0,0,1.35,76.55A48.55,48.55,0,0,0,99,461.52a44.7,44.7,0,0,0,40.74,29.91A44.69,44.69,0,0,0,170.81,543c36.26,4.13,43-18.2,43-18.2s17.19,4.45,34.26-2c-.39-.4-.77-.8-1.17-1.18a29.79,29.79,0,0,0,15.62-45.69,42.83,42.83,0,0,0,58-58.91,48.4,48.4,0,0,0,30.77-75.87A24.27,24.27,0,0,0,363.59,326.43Z" fill="#cc5444"/><path d="M109,248.33a27.91,27.91,0,0,1,51.86,4.82,28.52,28.52,0,0,1,.95,5.26A27.9,27.9,0,1,0,109,248.33Z" fill="#e86e58"/><path d="M60.08,348a27.91,27.91,0,0,1,41.78-33.85A27.91,27.91,0,1,0,60.08,348Z" fill="#e86e58"/><path d="M213.85,309.73a36.72,36.72,0,0,1,13.79-24.27c15.08-12,36.09-10.84,46.92,2.72a28.87,28.87,0,0,1,3.24,5.08,29.6,29.6,0,0,0-6.11-22.1c-10.84-13.56-31.85-14.77-46.92-2.72C211.48,279.07,207.24,296.47,213.85,309.73Z" fill="#e86e58"/><path d="M161.69,449.76A28.21,28.21,0,0,1,175.56,432c13.51-7.41,30.29-2.8,37.47,10.29a26.09,26.09,0,0,1,2,4.77,26.47,26.47,0,0,0-2.4-19.37c-7.18-13.09-23.95-17.7-37.47-10.29C163.27,423.94,157.88,437.63,161.69,449.76Z" fill="#e86e58"/><path d="M251.58,350.29a28.23,28.23,0,0,1,21,8.14c11,10.79,11.44,28.18,1,38.84a26.45,26.45,0,0,1-4,3.32,26.5,26.5,0,0,0,17.85-7.89c10.46-10.66,10-28.05-1-38.84C276.75,344.34,262.08,343.13,251.58,350.29Z" fill="#e86e58"/><path d="M124.41,394.67a27.91,27.91,0,0,1,41.78-33.85,27.91,27.91,0,1,0-41.78,33.85Z" fill="#e86e58"/></g></g></g></svg>