<svg xmlns="http://www.w3.org/2000/svg" xmlns:xlink="http://www.w3.org/1999/xlink" viewBox="0 0 592.38 415.8"><defs><linearGradient id="linear-gradient" x1="-446.15" y1="15473.21" x2="-446.15" y2="15113.15" gradientTransform="matrix(1, -0.08, -0.08, -1, 1933.02, 15387.05)" gradientUnits="userSpaceOnUse"><stop offset="0.56" stop-color="#f7b548"/><stop offset="1" stop-color="#fccf84"/></linearGradient></defs><g id="Layer_2" data-name="Layer 2"><g id="asset"><g id="construction-hat"><path d="M26.23,359.18C-7,371-10.36,424.12,38.56,414.69c82.36-15.91,377.31-93.22,508.54-174.25,66.59-41.13,68.6-101-54.31-72.3S26.23,359.18,26.23,359.18Z" fill="#fccf84"/><path d="M16.07,362.52a21.09,21.09,0,0,0,25.28,15.22c38.73-9.17,131.42-33.16,244.61-77C403.78,255.09,466.41,213.93,490,196.53a18.73,18.73,0,0,0,6.22-22.21c-19.82-48.46-134.53-234.16-337-154.88C-45.48,99.57-.71,297.58,16.07,362.52Z" fill="url(#linear-gradient)"/><path d="M133.7,30.64C101.86,46.27,77.14,65.11,58.16,85.89c177.44-52.57,285,42.7,317,77.24a22.81,22.81,0,0,0,25.37,5.6l13.11-5.27a20.74,20.74,0,0,0,7.49-33.34C380.34,86.3,276.63-3.11,133.7,30.64Z" fill="#fccf84"/></g></g></g></svg>