<svg xmlns="http://www.w3.org/2000/svg" xmlns:xlink="http://www.w3.org/1999/xlink" viewBox="0 0 1036.09 494.46"><defs><linearGradient id="linear-gradient" x1="630.78" y1="464.73" x2="918.46" y2="99.51" gradientUnits="userSpaceOnUse"><stop offset="0" stop-color="#c7862f"/><stop offset="0.02" stop-color="#c98830"/><stop offset="0.32" stop-color="#da9838"/><stop offset="0.63" stop-color="#e5a23d"/><stop offset="1" stop-color="#e8a53f"/></linearGradient><linearGradient id="linear-gradient-2" x1="345.22" y1="423.32" x2="649.8" y2="36.64" gradientUnits="userSpaceOnUse"><stop offset="0.34" stop-color="#c7862f"/><stop offset="0.55" stop-color="#d99638"/><stop offset="0.77" stop-color="#e4a13d"/><stop offset="1" stop-color="#e8a53f"/></linearGradient><linearGradient id="linear-gradient-3" x1="575.47" y1="181.82" x2="780.82" y2="149.7" gradientUnits="userSpaceOnUse"><stop offset="0.06" stop-color="#e8a53f"/><stop offset="0.91" stop-color="#fedea7"/></linearGradient><linearGradient id="linear-gradient-4" x1="575.19" y1="392.62" x2="704.77" y2="228.11" gradientUnits="userSpaceOnUse"><stop offset="0.34" stop-color="#38776b"/><stop offset="0.53" stop-color="#3d8073"/><stop offset="0.82" stop-color="#4c9889"/><stop offset="1" stop-color="#57aa9a"/></linearGradient><linearGradient id="linear-gradient-5" x1="253.56" y1="631.19" x2="642.85" y2="136.97" gradientUnits="userSpaceOnUse"><stop offset="0.34" stop-color="#c4832d"/><stop offset="0.46" stop-color="#d49336"/><stop offset="0.63" stop-color="#e8a640"/><stop offset="0.81" stop-color="#f3b146"/><stop offset="1" stop-color="#f7b548"/></linearGradient><linearGradient id="linear-gradient-6" x1="524.95" y1="3.45" x2="579.17" y2="15.92" gradientUnits="userSpaceOnUse"><stop offset="0.06" stop-color="#c4832d"/><stop offset="0.2" stop-color="#cb8e3b"/><stop offset="0.47" stop-color="#dca960"/><stop offset="0.84" stop-color="#f9d69c"/><stop offset="0.91" stop-color="#fedea7"/></linearGradient><linearGradient id="linear-gradient-7" x1="329.43" y1="99.02" x2="474.06" y2="183.54" gradientUnits="userSpaceOnUse"><stop offset="0.02" stop-color="#b87b2a" stop-opacity="0"/><stop offset="0.02" stop-color="#b87b2a" stop-opacity="0"/><stop offset="0.08" stop-color="#b87b2a" stop-opacity="0.27"/><stop offset="0.13" stop-color="#b87b2a" stop-opacity="0.49"/><stop offset="0.19" stop-color="#b87b2a" stop-opacity="0.67"/><stop offset="0.25" stop-color="#b87b2a" stop-opacity="0.82"/><stop offset="0.31" stop-color="#b87b2a" stop-opacity="0.92"/><stop offset="0.37" stop-color="#b87b2a" stop-opacity="0.98"/><stop offset="0.43" stop-color="#b87b2a"/><stop offset="0.57" stop-color="#c68f44"/><stop offset="0.86" stop-color="#ebc385"/><stop offset="1" stop-color="#fedea7"/></linearGradient></defs><g id="Layer_2" data-name="Layer 2"><g id="asset"><g id="cowboy-hat"><path d="M905.55,150.25c35.16-12,74.31-4.78,102.18,19.77,16,14.13,25.79,31.58,25.79,47,0,33.25,22.38,109.35-64.86,133S853.2,381.61,853.2,381.61H636.67L461.55,331.43l28.72-32.64s73.54,29.94,130.9-1.94,74-28,74-28,96.37-65.41,149.55-92.55A462.37,462.37,0,0,1,905.55,150.25Z" fill="url(#linear-gradient)"/><path d="M754.63,289.31l-3.39,1.07a.32.32,0,0,0-.09,0c-14.84,4.7-75,23.69-140,43.35-51.46,15.57-348.28,24.72-348.28,24.72s-23.5-103.31-24.83-123.27-.44-52.76,20.4-86.46S329.42,81.8,377.75,55.64s73.6-36.36,91.78-38.57,42.57,1.77,50.1,1.33a11,11,0,0,0,3.65-.8h0c4.81-1.93,9.18-7.16,34-14.72a66.68,66.68,0,0,1,17-2.83c1.58-.06,3.17-.07,4.76,0,20.51.65,41.8,10.26,58.69,28.86a107,107,0,0,1,10.67,13.89c23.09,35.63,99.13,227.84,106,246.11Z" fill="url(#linear-gradient-2)"/><path d="M648.44,42.78c23.09,35.63,99.13,227.84,106,246.11a11.42,11.42,0,0,1-2.83,1.36l-.49.16c-6.6,2-17.48.66-34.87,2.11,0,0-37.91,15-49,18s-25.39-12.44-18.87-35,0-64.84-8.11-96.32S627,99,627.29,64.07c0-4.62,5-21,10.48-35.18Z" opacity="0.5" fill="url(#linear-gradient-3)"/><path d="M754.63,289.31c5.54-1.44,6.36-2,5.12-7.54s-2.57-16.85-8.89-15.18-230.45,66.84-230.45,66.84l6.65,21.28,84.13-20.95Z" fill="url(#linear-gradient-4)"/><path d="M821.87,387.3C557.32,409.89,379.08,423.21,290,449.82S50.39,508.07,31.83,488.25s-61.25-43.75,0-93,179.65-82.47,288.72-85.13,252.73,18.62,327.89,31.92,170.4,49.22,215.89,37.25C864.33,379.32,829.63,386.64,821.87,387.3Z" fill="url(#linear-gradient-5)"/><path d="M568.63,17.18c-7.77,4.58-26.52,6.18-45.34.42,4.81-1.93,9.18-7.16,34-14.72a66.68,66.68,0,0,1,17-2.83C575.17,7.7,573.88,14.08,568.63,17.18Z" opacity="0.5" fill="url(#linear-gradient-6)"/><path d="M444.54,58.08c-6.6,30.93-44.31,85.8-83.82,109.74s-64.45,47.89-77.41,23.94,2-71.82,59.85-106.74,97-48.88,101.38-41.9S444.54,58.08,444.54,58.08Z" opacity="0.5" fill="url(#linear-gradient-7)"/></g></g></g></svg>