<svg xmlns="http://www.w3.org/2000/svg" viewBox="0 0 718.55 408.86"><g id="Layer_2" data-name="Layer 2"><g id="asset"><g id="crown"><path d="M691.39,259l0,0-.29.27-.19.19C654.6,294.07,544.46,339.59,410,372.75,278.84,405.08,162.75,416.24,112.34,404l-.14,0c-2.68-.65-5.17-1.36-7.47-2.15h0c-10.59-3.62-17-8.65-18.65-15.13l-5.74-11L.71,223.22c-3.11-6,4.68-11.59,9.36-6.75L90,299a9.25,9.25,0,0,0,15.86-5.61l16.85-190A5.83,5.83,0,0,1,133,100.28L257.66,253.8a9.24,9.24,0,0,0,16.24-4L316,40a5.83,5.83,0,0,1,10.28-2.48L459.46,204.87a9.24,9.24,0,0,0,16.3-3.94L515.05,4.69a5.84,5.84,0,0,1,10.69-1.92L629.08,170.43a9.24,9.24,0,0,0,16.56-1.73L691.48,41.18c2.21-6.14,11.31-4.57,11.32,2L703.18,218l0,16.61C705,241.69,700.73,250,691.39,259Z" fill="#f8b84f"/><polygon points="557.5 179.85 527.99 155.02 543.91 119.9 573.42 144.73 557.5 179.85" fill="#e86e58"/><polygon points="543.91 119.9 550.7 149.88 573.42 144.73 543.91 119.9" fill="#cc5444"/><polygon points="527.99 155.02 550.7 149.88 557.5 179.85 527.99 155.02" fill="#cc5444"/><polygon points="366.46 228.22 336.95 203.39 352.87 168.26 382.38 193.09 366.46 228.22" fill="#e86e58"/><polygon points="352.87 168.26 359.67 198.24 382.38 193.09 352.87 168.26" fill="#cc5444"/><polygon points="336.95 203.39 359.67 198.24 366.46 228.22 336.95 203.39" fill="#cc5444"/><polygon points="178.86 277.73 149.35 252.9 165.27 217.78 194.78 242.6 178.86 277.73" fill="#e86e58"/><polygon points="165.27 217.78 172.06 247.75 194.78 242.6 165.27 217.78" fill="#cc5444"/><polygon points="149.35 252.9 172.06 247.75 178.86 277.73 149.35 252.9" fill="#cc5444"/><polygon points="58.51 333.92 35.7 308.71 29.08 277.55 58.21 302.56 58.51 333.92" fill="#e86e58"/><polygon points="29.08 277.55 35.7 308.71 58.21 302.56 29.08 277.55" fill="#cc5444"/><polygon points="702.94 105.81 695.6 138.41 703.15 169.36 718.55 134.19 702.94 105.81" fill="#e86e58"/><polygon points="703.15 169.36 695.6 138.41 718.55 134.19 703.15 169.36" fill="#cc5444"/><polygon points="406.36 228.77 397.32 231.23 390.67 224.64 393.06 215.59 402.09 213.12 408.74 219.72 406.36 228.77" fill="#227be5"/><polygon points="399.71 222.18 393.06 215.59 402.09 213.12 399.71 222.18" fill="#0064da"/><polygon points="390.67 224.64 399.71 222.18 397.32 231.23 390.67 224.64" fill="#0064da"/><polygon points="406.36 228.77 399.71 222.18 408.74 219.72 406.36 228.77" fill="#0064da"/><polygon points="342.84 246.88 333.81 249.35 327.16 242.75 329.54 233.7 338.57 231.23 345.23 237.83 342.84 246.88" fill="#227be5"/><polygon points="336.19 240.29 329.54 233.7 338.57 231.23 336.19 240.29" fill="#0064da"/><polygon points="327.16 242.75 336.19 240.29 333.81 249.35 327.16 242.75" fill="#0064da"/><polygon points="342.84 246.88 336.19 240.29 345.23 237.83 342.84 246.88" fill="#0064da"/><polygon points="597.11 184.89 587.87 186.38 581.96 179.12 585.29 170.37 594.54 168.88 600.45 176.14 597.11 184.89" fill="#227be5"/><polygon points="591.2 177.63 585.29 170.37 594.54 168.88 591.2 177.63" fill="#0064da"/><polygon points="581.96 179.12 591.2 177.63 587.87 186.38 581.96 179.12" fill="#0064da"/><polygon points="597.11 184.89 591.2 177.63 600.45 176.14 597.11 184.89" fill="#0064da"/><polygon points="532.03 196.13 522.78 197.62 516.88 190.36 520.21 181.61 529.45 180.12 535.37 187.38 532.03 196.13" fill="#227be5"/><polygon points="526.12 188.87 520.21 181.61 529.45 180.12 526.12 188.87" fill="#0064da"/><polygon points="516.88 190.36 526.12 188.87 522.78 197.62 516.88 190.36" fill="#0064da"/><polygon points="532.03 196.13 526.12 188.87 535.37 187.38 532.03 196.13" fill="#0064da"/><polygon points="218.43 279.09 209.4 281.55 202.74 274.96 205.13 265.9 214.16 263.44 220.81 270.03 218.43 279.09" fill="#227be5"/><polygon points="211.78 272.49 205.13 265.9 214.16 263.44 211.78 272.49" fill="#0064da"/><polygon points="202.74 274.96 211.78 272.49 209.4 281.55 202.74 274.96" fill="#0064da"/><polygon points="218.43 279.09 211.78 272.49 220.81 270.03 218.43 279.09" fill="#0064da"/><polygon points="154.91 297.2 145.88 299.66 139.23 293.07 141.61 284.01 150.65 281.55 157.3 288.14 154.91 297.2" fill="#227be5"/><polygon points="148.26 290.61 141.61 284.01 150.65 281.55 148.26 290.61" fill="#0064da"/><polygon points="139.23 293.07 148.26 290.61 145.88 299.66 139.23 293.07" fill="#0064da"/><polygon points="154.91 297.2 148.26 290.61 157.3 288.14 154.91 297.2" fill="#0064da"/><polygon points="82.2 331.45 73.17 333.92 66.52 327.33 68.9 318.27 77.93 315.81 84.58 322.4 82.2 331.45" fill="#227be5"/><polygon points="75.55 324.86 68.9 318.27 77.93 315.81 75.55 324.86" fill="#0064da"/><polygon points="66.52 327.33 75.55 324.86 73.17 333.92 66.52 327.33" fill="#0064da"/><polygon points="82.2 331.45 75.55 324.86 84.58 322.4 82.2 331.45" fill="#0064da"/><polygon points="692.53 175.95 683.5 178.42 676.85 171.82 679.23 162.77 688.26 160.31 694.91 166.9 692.53 175.95" fill="#227be5"/><polygon points="685.88 169.36 679.23 162.77 688.26 160.31 685.88 169.36" fill="#0064da"/><polygon points="676.85 171.82 685.88 169.36 683.5 178.42 676.85 171.82" fill="#0064da"/><polygon points="692.53 175.95 685.88 169.36 694.91 166.9 692.53 175.95" fill="#0064da"/><path d="M709.55,233.79c-1.82,12.3-12.32,20-18.16,25.23l0,0c-.09.07-.18.17-.29.27l-.19.19C654.6,294.07,544.46,339.59,410,372.75,278.84,405.08,162.75,416.24,112.34,404l-.14,0-7.42-2.14h-.06c-1.33-.18-22.63-3.31-24.39-18-1-8.42,0-8.14,0-8.14l.58-.07c63.7,5.82,178.42-6.24,306-34.68C535.66,307.82,657.47,262.3,697.6,227.73l.21-.19c.12-.1.22-.2.32-.27l0,0c2.38-1.92,3-2.17,5-5.27C709.45,222.48,710.57,226.91,709.55,233.79Z" fill="#cc5444"/></g></g></g></svg>