<svg width="32" height="32" viewBox="0 0 32 32" fill="none" xmlns="http://www.w3.org/2000/svg">
<g clip-path="url(#clip0)">
<path d="M25.0163 21.9476C22.88 22.8274 20.3701 23.7073 17.6558 24.5008C16.7233 24.7727 15.8037 25.0255 14.9095 25.2558C7.77571 27.0827 2.08207 27.4891 1.67652 26.0941C1.33803 24.9231 4.79318 22.8242 10.027 20.8182C11.8344 20.1271 13.8526 19.4424 15.9984 18.8153C20.0124 17.6411 23.7486 16.8668 26.597 16.5501C29.6881 16.2078 31.7382 16.4061 31.9777 17.222C32.2874 18.2842 29.4614 20.1143 25.0163 21.9476Z" fill="#3F3C38"/>
<path d="M25.572 18.6265L25.5432 18.5721C25.556 18.5913 25.5656 18.6073 25.572 18.6265Z" fill="#4A4844"/>
<path d="M14.9095 25.2526C7.77571 27.0795 2.08207 27.4858 1.67652 26.0909C1.33803 24.9231 4.79317 22.8242 10.027 20.8181C10.9435 20.7798 11.6109 20.799 11.8025 20.8757C13.431 21.5124 7.90663 23.9568 8.86462 24.1904C9.81942 24.4239 14.4752 23.8128 15.6791 24.2384C16.3369 24.4687 16.0527 24.9519 14.9095 25.2526Z" fill="#33312D"/>
<path d="M23.8731 18.6776C23.6272 18.2649 23.3909 17.801 23.1705 17.3371C22.6883 16.3036 22.3147 15.2574 22.2413 14.7391C22.2094 14.5119 22.1136 14.2848 21.9699 14.0576C21.6761 13.5905 21.1843 13.1362 20.6638 12.7458C20.0347 12.2755 19.3673 11.9012 18.9586 11.7188C18.3327 11.4404 18.3838 11.0021 18.486 10.6086C18.3167 10.6918 18.1698 10.8102 18.0421 10.9317C17.8473 11.1205 17.7068 10.9285 17.5695 10.519C17.2629 11.2485 16.8031 11.8436 16.1996 12.2179C15.7525 12.4963 15.612 12.2851 15.5737 11.8052C15.529 11.2517 15.6216 10.3398 15.5418 9.39599C15.4971 8.87128 15.3981 8.33377 15.1937 7.84425C14.6093 6.43969 12.8338 5.95657 10.9722 5.89258C10.3399 6.17093 9.67568 6.50688 9.00509 6.90041C8.51332 7.18516 8.01836 7.50191 7.5234 7.84105C6.68037 8.42335 5.84373 9.08244 5.06137 9.80872C4.93364 9.9271 4.80591 10.0455 4.68137 10.1703C4.5728 10.2758 4.46422 10.3846 4.35565 10.4934C4.20557 10.647 4.05548 10.8038 3.90859 10.9637C2.6664 12.3171 1.63497 13.84 1.02824 15.4718C0.865382 15.9101 0.724877 16.3132 0.600338 16.6812C0.344875 17.4586 0.178824 18.0857 0.086218 18.5785C-0.121346 19.6951 0.0478985 20.1398 0.402354 20.1718C0.811096 20.2102 1.46891 19.7015 2.08203 19.0456C2.55463 18.5401 3.3338 17.7178 4.16086 16.8923L3.62758 17.1451C3.55094 17.1803 3.46792 17.1163 3.48708 17.0331L3.63716 16.3324C3.64355 16.3004 3.63397 16.2652 3.61161 16.2428L3.26674 15.8781C3.3817 15.7565 3.49666 15.6317 3.618 15.507C4.83465 14.2304 6.2844 12.8322 6.69634 12.5699C7.36054 12.1443 8.05668 12.1859 9.10408 12.797C10.1515 13.4081 9.06257 15.1678 8.95399 18.1017C8.88374 20.0342 9.01147 21.2308 8.9987 22.4306C8.99231 22.9937 8.95719 23.5568 8.855 24.1967C9.02425 24.1807 9.20307 24.1583 9.39148 24.1359C11.151 23.9056 13.795 23.3105 16.7073 22.4594C20.0858 21.4708 22.9726 20.383 24.4702 19.5799C24.2786 19.3239 24.0742 19.02 23.8731 18.6776ZM0.996307 18.844L0.96118 18.8248C1.01547 18.7448 1.06975 18.6648 1.12723 18.5817L1.14958 18.7448C1.15597 18.828 1.06656 18.8856 0.996307 18.844Z" fill="#4A4844"/>
<path d="M15.5768 11.802L15.4427 11.9204C15.3789 11.9748 15.2831 11.9364 15.2767 11.8532L15.2256 11.1365C15.2224 11.1045 15.2032 11.0725 15.1777 11.0565L14.5614 10.6918C14.4911 10.6502 14.4975 10.5446 14.5742 10.5126L15.2384 10.2439C15.2671 10.2311 15.2926 10.2055 15.299 10.1735L15.4523 9.47281C15.4619 9.42482 15.5034 9.39602 15.5449 9.39282C15.6247 10.3367 15.5353 11.2485 15.5768 11.802Z" fill="#FCCF84"/>
<path d="M23.873 18.6778C23.8571 18.6938 23.8443 18.7194 23.8443 18.7449L23.8092 19.4616C23.806 19.5448 23.707 19.5864 23.6431 19.532L23.0971 19.0681C23.0715 19.0457 23.0364 19.0393 23.0045 19.0489L22.3147 19.2377C22.2349 19.2601 22.1646 19.1801 22.1966 19.1033L22.468 18.4378C22.4808 18.4058 22.4776 18.3706 22.4584 18.345L22.0656 17.7435C22.0209 17.6731 22.0752 17.5835 22.1582 17.5867L22.8735 17.6411C22.9055 17.6443 22.9374 17.6283 22.9597 17.6027L23.1737 17.334C23.3908 17.8011 23.6303 18.265 23.873 18.6778Z" fill="#FCCF84"/>
<path d="M15.3341 20.7925C15.3149 20.7637 15.3117 20.7317 15.3245 20.6997L15.5832 20.031C15.6119 19.9542 15.5417 19.8743 15.4618 19.8967L14.7753 20.0982C14.7433 20.1078 14.7082 20.1014 14.6827 20.079L14.127 19.6247C14.0632 19.5735 13.9642 19.6151 13.9642 19.6983L13.9418 20.415C13.9418 20.447 13.9227 20.479 13.8971 20.495L13.2936 20.8821C13.2233 20.9269 13.2361 21.0325 13.3127 21.0613L13.9865 21.3044C14.0185 21.3172 14.0408 21.3428 14.0504 21.3748L14.2324 22.0691C14.2548 22.1491 14.357 22.1715 14.408 22.1043L14.8487 21.5412C14.8679 21.5156 14.8998 21.4996 14.9349 21.5028L15.6502 21.5444C15.7333 21.5476 15.7844 21.4548 15.7396 21.3876L15.3341 20.7925Z" fill="#FCCF84"/>
<path d="M10.161 23.5761L9.5 23.8512C9.47126 23.864 9.44572 23.8896 9.43933 23.9216L9.39462 24.1264C9.20622 24.152 9.0274 24.1712 8.85815 24.1872C8.96034 23.5473 8.99546 22.9842 9.00185 22.4211L9.27967 22.1715C9.34034 22.1171 9.43933 22.1555 9.44572 22.2387L9.5032 22.9554C9.50639 22.9874 9.52555 23.0194 9.55429 23.0354L10.1738 23.3937C10.2472 23.4353 10.2408 23.5441 10.161 23.5761Z" fill="#FCCF84"/>
<path d="M13.2968 16.6877L12.6773 16.3293C12.6486 16.3133 12.6294 16.2845 12.6262 16.2493L12.5687 15.5327C12.5624 15.4495 12.4634 15.4111 12.4027 15.4655L11.8694 15.9454C11.8439 15.9678 11.8119 15.9774 11.78 15.9678L11.0839 15.8014C11.004 15.7822 10.9338 15.8654 10.9689 15.939L11.2595 16.5949C11.2723 16.6237 11.2691 16.6589 11.2531 16.6877L10.8795 17.2988C10.8348 17.3691 10.8923 17.4587 10.9753 17.4523L11.6874 17.3819C11.7193 17.3787 11.7513 17.3915 11.7736 17.4171L12.2398 17.961C12.2941 18.025 12.3963 17.9994 12.4155 17.9163L12.5655 17.2156C12.5719 17.1836 12.5943 17.1548 12.6262 17.142L13.2872 16.8668C13.3607 16.8348 13.3703 16.7293 13.2968 16.6877Z" fill="#FCCF84"/>
<path d="M11.6331 11.5941L11.5086 10.887C11.5022 10.855 11.515 10.8198 11.5373 10.7975L12.0483 10.2951C12.1089 10.2375 12.0738 10.1352 11.9908 10.1224L11.2819 10.0232C11.2499 10.02 11.2212 9.99759 11.2052 9.96879L10.8859 9.3257C10.8476 9.25211 10.7422 9.25211 10.7071 9.3257L10.3941 9.97199C10.3782 10.0008 10.3526 10.0232 10.3175 10.0264L9.60857 10.132C9.52555 10.1448 9.49362 10.2471 9.55429 10.3047L10.0684 10.8038C10.0908 10.8262 10.1035 10.8614 10.0972 10.8934L9.979 11.6005C9.96622 11.6837 10.0524 11.7445 10.1259 11.7061L10.7582 11.3702C10.7869 11.3542 10.822 11.3542 10.8508 11.3702L11.4862 11.6997C11.5597 11.7381 11.6459 11.6741 11.6331 11.5941Z" fill="#FCCF84"/>
<path d="M7.67664 7.9851L7.6926 8.70178C7.6958 8.78497 7.7916 8.82976 7.85546 8.77857L8.41429 8.33064C8.43983 8.31145 8.47496 8.30505 8.50689 8.31465L9.19345 8.52261C9.27328 8.54821 9.34673 8.46822 9.31799 8.39143L9.06572 7.71955C9.05295 7.68755 9.05933 7.65236 9.07849 7.62676L9.48723 7.03806C9.53513 6.97087 9.48404 6.87489 9.40102 6.88129L9.01782 6.90048C8.52605 7.18523 8.03109 7.50198 7.53613 7.84113L7.63832 7.90831C7.65748 7.92111 7.67664 7.95311 7.67664 7.9851Z" fill="#FCCF84"/>
<path d="M6.18216 10.823C6.24283 10.7686 6.21409 10.663 6.13426 10.6502L5.43173 10.5158C5.3998 10.5094 5.37106 10.4871 5.35829 10.4583L5.0677 9.80237C4.93996 9.92075 4.81223 10.0391 4.68769 10.1639L4.544 10.4263C4.52803 10.4551 4.49929 10.4743 4.46736 10.4775L4.36198 10.4871C4.21189 10.6406 4.06181 10.7974 3.91492 10.9574L4.18315 11.2421C4.20551 11.2677 4.21509 11.2997 4.2087 11.3317L4.05862 12.0324C4.03946 12.1156 4.12567 12.1796 4.19912 12.1444L4.84736 11.8372C4.8761 11.8244 4.91122 11.8244 4.93996 11.8404L5.55946 12.202C5.62972 12.2436 5.71913 12.186 5.70955 12.1028L5.61694 11.3925C5.61375 11.3605 5.62333 11.3285 5.64888 11.3061L6.18216 10.823Z" fill="#FCCF84"/>
<path d="M3.62435 15.5006C3.5062 15.6254 3.38805 15.7502 3.27309 15.8717L3.1262 15.715C3.06872 15.6542 3.10704 15.555 3.19006 15.5454L3.62435 15.5006Z" fill="#FCCF84"/>
<path d="M1.08566 17.945C1.06012 17.9674 1.04734 17.9994 1.05373 18.0346L1.12398 18.5817C1.0665 18.6617 1.01222 18.7449 0.957931 18.8249L0.373559 18.4857C0.344819 18.4697 0.309693 18.4665 0.280953 18.4825L0.0893555 18.5721C0.181961 18.0794 0.348012 17.4523 0.603476 16.6748L0.79188 17.1035C0.804653 17.1323 0.833393 17.1547 0.865326 17.1611L1.56785 17.2923C1.65088 17.3083 1.67962 17.4107 1.61575 17.4651L1.08566 17.945Z" fill="#FCCF84"/>
<path d="M19.1725 15.6702L18.4572 15.6638C18.4253 15.6638 18.3934 15.6478 18.3742 15.619L17.975 15.0239C17.9271 14.9535 17.8218 14.9695 17.7962 15.0495L17.5695 15.731C17.5599 15.763 17.5344 15.7854 17.5024 15.795L16.8127 15.9933C16.7329 16.0157 16.7137 16.1213 16.7808 16.1725L17.3555 16.6012C17.3811 16.6204 17.3971 16.6524 17.3971 16.6844L17.3715 17.4011C17.3683 17.4843 17.4609 17.5355 17.5312 17.4875L18.1155 17.0716C18.1411 17.0524 18.1762 17.0492 18.2082 17.0588L18.8819 17.3051C18.9586 17.3339 19.0384 17.2603 19.0129 17.1803L18.7989 16.4957C18.7893 16.4637 18.7957 16.4285 18.8149 16.4029L19.2556 15.8366C19.3003 15.7694 19.2556 15.6734 19.1725 15.6702Z" fill="#FCCF84"/>
<path d="M21.973 14.0576C21.9442 14.0608 21.9155 14.0544 21.8931 14.0352L21.3535 13.5649C21.3279 13.5425 21.296 13.5361 21.264 13.5425L20.5711 13.7217C20.4913 13.7441 20.421 13.6609 20.4529 13.5841L20.734 12.9218C20.7467 12.893 20.7435 12.8578 20.7276 12.829L20.6733 12.7458C21.1874 13.133 21.6792 13.5873 21.973 14.0576Z" fill="#FCCF84"/>
<path d="M8.21319 14.2367C8.18764 14.2591 8.17806 14.2943 8.18445 14.3263L8.29621 15.0334C8.30899 15.1166 8.22277 15.1774 8.14932 15.139L7.64159 14.8638C7.65436 14.7774 7.67033 14.6975 7.68629 14.6239C7.81722 13.9872 7.3957 14.096 6.72192 14.5855L6.77301 14.3103C6.7794 14.2783 6.76982 14.2431 6.74427 14.2207L6.23654 13.712C6.17906 13.6544 6.21099 13.5521 6.29402 13.5425L7.00293 13.4465C7.03486 13.4433 7.0636 13.4209 7.07957 13.3921L7.40528 12.7522C7.4436 12.6786 7.54898 12.6786 7.58411 12.7554L7.89386 13.4017C7.90663 13.4305 7.93537 13.4529 7.9673 13.4593L8.67622 13.5712C8.75924 13.584 8.79117 13.6864 8.7305 13.744L8.21319 14.2367Z" fill="#F9C163"/>
<path d="M5.47964 15.6286C5.05174 16.0189 4.60467 16.4541 4.16719 16.8892L3.63391 17.142C3.55727 17.1772 3.47425 17.1132 3.49341 17.03L3.64349 16.3293C3.64988 16.2973 3.6403 16.2621 3.61795 16.2397L3.27307 15.875C3.38803 15.7534 3.50299 15.6286 3.62433 15.5038L3.90215 15.475C3.93408 15.4718 3.96282 15.4526 3.97879 15.4238L4.32366 14.7936C4.36198 14.72 4.47056 14.7264 4.50249 14.7999L4.79308 15.4558C4.80585 15.4878 4.83459 15.507 4.86652 15.5134L5.47964 15.6286Z" fill="#F9C163"/>
<path d="M0.996308 18.844L0.961182 18.8248C1.01547 18.7448 1.06975 18.6649 1.12723 18.5817L1.14959 18.7448C1.15597 18.828 1.06656 18.8856 0.996308 18.844Z" fill="#F9C163"/>
<path d="M8.33447 18.8761C8.3185 18.9049 8.3185 18.9401 8.33127 18.9688L8.6538 19.6087C8.69211 19.6823 8.62825 19.7687 8.54522 19.7527L7.8427 19.6183C7.81077 19.6119 7.77564 19.6215 7.75329 19.6471L7.27429 20.1207C7.30303 19.34 7.33816 18.5241 7.38286 17.7531L7.77883 18.1722C7.80119 18.1978 7.83631 18.2074 7.86824 18.2042L8.57716 18.0954C8.66018 18.0826 8.72085 18.169 8.67934 18.2426L8.33447 18.8761Z" fill="#F9C163"/>
<path d="M9.00514 22.4242C8.99875 22.9873 8.96362 23.5504 8.86144 24.1903C8.81354 24.1935 8.76564 24.1999 8.71774 24.2031L8.65068 24.1231C8.62833 24.0975 8.59639 24.0847 8.56446 24.0879L7.85236 24.1615C7.76933 24.1711 7.71185 24.0783 7.75656 24.0079L8.13017 23.3968C8.14614 23.368 8.14933 23.3328 8.13656 23.304L7.84597 22.6482C7.81084 22.5714 7.8811 22.4914 7.96093 22.5106L8.65707 22.677C8.689 22.6834 8.72413 22.677 8.74648 22.6546L9.00514 22.4242Z" fill="#F9C163"/>
<path d="M3.49341 17.0267L3.6435 16.326C3.64988 16.294 3.64031 16.2588 3.61795 16.2364L3.27308 15.8717C2.66635 16.5212 2.15862 17.1067 1.9287 17.4426C1.68601 17.801 1.38903 18.1977 1.1208 18.5817L1.14315 18.7448C1.15273 18.828 1.06332 18.8856 0.993066 18.844L0.95794 18.8248C0.613064 19.3463 0.354407 19.8326 0.4055 20.1654C0.814241 20.2038 1.47206 19.6951 2.08517 19.0392C2.55778 18.5337 3.33694 17.7114 4.16401 16.8859L3.63073 17.1387C3.55728 17.1739 3.47425 17.1099 3.49341 17.0267Z" fill="#3F3C38"/>
<path d="M8.96038 18.0953C9.06896 15.1582 10.1579 13.3985 9.11047 12.7906C8.06307 12.1795 7.37012 12.1379 6.70273 12.5635C6.29079 12.8258 4.84103 14.224 3.62439 15.5006L3.90221 15.4718C3.93414 15.4686 3.96288 15.4494 3.97885 15.4206L4.32372 14.7903C4.36204 14.7167 4.47061 14.7231 4.50255 14.7967L4.79314 15.4526C4.80591 15.4846 4.83465 15.5038 4.86658 15.5102L5.47969 15.6253C5.93633 15.2094 6.36424 14.8415 6.72188 14.5823L6.77298 14.3072C6.77936 14.2752 6.76978 14.24 6.74424 14.2176L6.2365 13.7089C6.17903 13.6513 6.21096 13.5489 6.29398 13.5393L7.0029 13.4433C7.03483 13.4401 7.06357 13.4177 7.07953 13.3889L7.40525 12.749C7.44357 12.6754 7.54895 12.6754 7.58407 12.7522L7.89382 13.3985C7.9066 13.4273 7.93534 13.4497 7.96727 13.4561L8.67618 13.5681C8.75921 13.5809 8.79114 13.6833 8.73047 13.7409L8.20996 14.2336C8.18441 14.256 8.17483 14.2912 8.18122 14.3232L8.29299 15.0302C8.30576 15.1134 8.21954 15.1742 8.14609 15.1358L7.63836 14.8607C7.53298 15.5134 7.44676 16.5756 7.3797 17.753L7.77567 18.1721C7.79803 18.1977 7.83315 18.2073 7.86508 18.2041L8.574 18.0953C8.65702 18.0825 8.71769 18.1689 8.67618 18.2425L8.3345 18.876C8.31853 18.9048 8.31853 18.94 8.33131 18.9688L8.65383 19.6087C8.69215 19.6823 8.62828 19.7686 8.54526 19.7526L7.84273 19.6183C7.8108 19.6119 7.77567 19.6215 7.75332 19.6471L7.27433 20.1206C7.19769 22.1938 7.16575 24.0111 7.16575 24.0111L7.19449 24.0047C7.25836 24.2223 7.8108 24.2799 8.72089 24.1999L8.65383 24.1199C8.63147 24.0943 8.59954 24.0815 8.56761 24.0847L7.8555 24.1583C7.77248 24.1679 7.715 24.0751 7.75971 24.0047L8.13332 23.3936C8.14929 23.3648 8.15248 23.3296 8.13971 23.3008L7.84912 22.645C7.81399 22.5682 7.88424 22.4882 7.96408 22.5074L8.66021 22.6738C8.69215 22.6802 8.72727 22.6738 8.74963 22.6514L9.00509 22.421C9.01467 21.2244 8.88694 20.0278 8.96038 18.0953Z" fill="#3F3C38"/>
<path d="M16.2059 6.3501L15.5577 6.39809C15.5258 6.40129 15.4938 6.42049 15.4779 6.44928L15.117 7.06998C15.0755 7.14356 14.9701 7.13397 14.9382 7.05718L14.6668 6.39169C14.654 6.3597 14.6284 6.3373 14.5965 6.3309L13.8972 6.17733C13.8142 6.16133 13.7886 6.05575 13.8525 6.00136L14.3985 5.53743C14.4241 5.51504 14.4369 5.48304 14.4337 5.45105L14.389 5.00952C15.1969 5.09591 15.7748 5.63022 16.2059 6.3501Z" fill="#FEDBA1"/>
<path d="M16.6052 10.7046C16.5892 10.7334 16.586 10.7686 16.5988 10.7974L16.8862 11.4565C16.9181 11.5333 16.8511 11.6132 16.7712 11.594L16.0751 11.4213C16.0432 11.4149 16.008 11.4213 15.9857 11.4437L15.5833 11.802C15.5386 11.2485 15.6312 10.3367 15.5514 9.39282C15.5801 9.38962 15.6121 9.40242 15.6344 9.42801L16.0943 9.97832C16.1166 10.0039 16.1485 10.0167 16.1805 10.0135L16.8926 9.94312C16.9756 9.93673 17.0299 10.0263 16.9884 10.0967L16.6052 10.7046Z" fill="#FEDBA1"/>
<path d="M15.5545 6.39812C15.5226 6.40132 15.4907 6.42051 15.4747 6.44931L15.1138 7.07001C15.0723 7.14359 14.967 7.13399 14.935 7.05721L14.6636 6.39172C14.6508 6.35972 14.6253 6.33733 14.5933 6.33093L13.894 6.17735C13.811 6.16136 13.7854 6.05578 13.8493 6.00138L14.3954 5.53746C14.4209 5.51507 14.4337 5.48307 14.4305 5.45108L14.3858 5.00955C14.2293 4.99355 14.0664 4.99355 13.894 5.01275C13.0861 5.10233 12.0738 5.40308 10.9753 5.8862C12.837 5.95019 14.6125 6.43331 15.1969 7.83788C15.4012 8.32739 15.5002 8.8649 15.5449 9.38962C15.5737 9.38642 15.6056 9.39922 15.628 9.42481L16.0878 9.97512C16.1102 10.0007 16.1421 10.0135 16.174 10.0103L16.8861 9.93992C16.9692 9.93353 17.0234 10.0231 16.9819 10.0935L16.6019 10.7014C16.586 10.7302 16.5828 10.7654 16.5955 10.7942L16.8829 11.4533C16.9149 11.5301 16.8478 11.61 16.768 11.5908L16.0718 11.4181C16.0399 11.4117 16.0048 11.4181 15.9824 11.4405L15.5801 11.7988C15.6184 12.2819 15.7589 12.4899 16.206 12.2115C16.8095 11.8372 17.2693 11.2421 17.5759 10.5126C17.2757 9.61358 16.9947 7.66831 16.206 6.34373L15.5545 6.39812Z" fill="#625F5B"/>
<path d="M18.4891 10.6087C18.3902 11.0022 18.3359 11.4405 18.9618 11.7189C19.3705 11.9013 20.0411 12.2756 20.667 12.7459L20.3349 12.2244C20.2902 12.154 20.3445 12.0612 20.4275 12.0708L21.1396 12.1316C21.1715 12.1348 21.2034 12.122 21.2258 12.0964L21.3248 11.9749C19.9421 10.4231 19.0703 10.3239 18.4891 10.6087Z" fill="#625F5B"/>
<path d="M25.5719 18.6265L25.5431 18.5721C24.2371 16.0989 23.1513 14.3392 22.2445 13.1106L22.1518 13.1682C22.1231 13.1842 22.1039 13.2162 22.1039 13.2482L22.0592 13.9649C22.056 14.016 22.0177 14.0512 21.973 14.0576C22.1167 14.2848 22.2125 14.512 22.2445 14.7391C22.3179 15.2606 22.6915 16.3037 23.1737 17.3371L23.4068 17.0459C23.4579 16.9819 23.5633 17.0043 23.5824 17.0843L23.7517 17.7818C23.7581 17.8138 23.7836 17.8394 23.8124 17.8522L24.483 18.1082C24.5596 18.137 24.5724 18.2425 24.4989 18.2873L23.889 18.6649C23.8826 18.6681 23.8762 18.6745 23.8698 18.6809C24.071 19.02 24.2754 19.3272 24.4734 19.5735C25.2302 19.1672 25.6325 18.8376 25.5719 18.6265Z" fill="#625F5B"/>
<path d="M22.2445 13.1105L22.1519 13.1681C22.1232 13.1841 22.104 13.2161 22.104 13.2481L22.0593 13.9648C22.0561 14.016 22.0178 14.0512 21.9731 14.0576C21.6793 13.5905 21.1875 13.1361 20.667 12.7458L20.3349 12.2243C20.2902 12.1539 20.3445 12.0611 20.4275 12.0707L21.1396 12.1315C21.1716 12.1347 21.2035 12.1219 21.2258 12.0963L21.3248 11.9747C21.6122 12.2915 21.9188 12.6658 22.2445 13.1105Z" fill="#FEDBA1"/>
<path d="M24.5021 18.2873L23.8922 18.6649C23.8858 18.6681 23.8794 18.6745 23.8731 18.6809C23.6272 18.2681 23.3909 17.8042 23.1705 17.3403L23.4036 17.0491C23.4547 16.9851 23.5601 17.0075 23.5793 17.0875L23.7485 17.785C23.7549 17.817 23.7805 17.8426 23.8092 17.8554L24.4798 18.1114C24.5628 18.137 24.5724 18.2425 24.5021 18.2873Z" fill="#FEDBA1"/>
<path d="M25.0162 21.9476C25.0194 21.3141 25.6581 20.5462 26.1754 20.1686C27.1717 19.4456 28.4299 18.8505 29.0909 17.9994C29.7551 17.1483 27.0919 17.6379 25.9008 17.5067C25.1312 17.4203 25.3867 17.1579 26.5969 16.5564C29.688 16.2141 31.7381 16.4125 31.9776 17.2283C32.2874 18.2842 29.4613 20.1143 25.0162 21.9476Z" fill="#4A4844"/>
</g>
<defs>
<clipPath id="clip0">
<rect width="32" height="32" fill="white"/>
</clipPath>
</defs>
</svg>
