<svg xmlns="http://www.w3.org/2000/svg" xmlns:xlink="http://www.w3.org/1999/xlink" viewBox="0 0 808.55 982.11"><defs><radialGradient id="radial-gradient" cx="358.46" cy="-305.62" r="217.07" gradientTransform="translate(0 560)" gradientUnits="userSpaceOnUse"><stop offset="0.09" stop-color="#e1dfdd"/><stop offset="0.66" stop-color="#fff"/></radialGradient></defs><g id="Layer_2" data-name="Layer 2"><g id="asset"><g id="doctor-hat"><g id="asset-2" data-name="asset"><path d="M63.05,393.91a366.88,366.88,0,0,0-24,53.9h709.3a366.88,366.88,0,0,0-24-53.9Z" fill="#605d5a"/><path d="M124.85,312.81s213.4-8.4,397-90.9c-13-41.1-55.3-141.6-80.7-182.1-7.4-11.8-61-36.8-73.7-38.7-60.5-9.1-219.9,40.2-245,65.7-5,5.1-35,60.5-34.1,73.1C90.65,170.21,124.85,312.81,124.85,312.81Z" fill="#9fe4eb"/><circle cx="393.65" cy="346.11" r="118" fill="#fff"/><circle cx="393.65" cy="346.11" r="105.9" fill="url(#radial-gradient)"/><circle cx="393.65" cy="346.11" r="36.2" fill="#b3afab"/></g><path d="M768.15,843.21l-15.3-11.6c13.4-17.6,39.8-114.1,21-184.7-5.8-21.6-15.3-38.5-28.4-50.3.5-8.3.8-16.1.9-23.5,22.2,14.2,37.7,37.3,46.1,68.9C812.45,717.31,784.75,821.31,768.15,843.21Z" fill="#605d5a"/><path d="M754.25,913.51a54.3,54.3,0,1,0-54.3-54.3A54.29,54.29,0,0,0,754.25,913.51Z" fill="#605d5a"/><path d="M754.15,888.91a28.2,28.2,0,1,0-28.2-28.2A28.25,28.25,0,0,0,754.15,888.91Z" fill="#72acf1"/><path d="M205.55,975.81a.6.6,0,0,0-.4.1c-1.5.2-37.5,5.1-56.5-13.7-10.5-10.3-52.2-82.5-54-85.5a4.17,4.17,0,0,1,7.2-4.2c11.9,20.6,44.6,75.8,52.6,83.7,16.1,15.8,49.1,11.4,49.5,11.3a4.24,4.24,0,0,1,1.6,8.3Z" fill="#a3c9f6"/><path d="M214,982.11a11.5,11.5,0,1,0-11.5-11.5A11.5,11.5,0,0,0,214,982.11Z" fill="#605d5a"/><path d="M236.75,953.21a4.17,4.17,0,0,1-2.9-.4,4.13,4.13,0,0,1-1.5-5.7c.1-.3,16.5-29.3,7.8-50.2-4.4-10.4-43.5-61.2-58.3-79.9a4.13,4.13,0,0,1,6.5-5.1c2.2,2.8,53.7,68.3,59.4,81.9,10.3,24.6-7.5,56.2-8.2,57.5A5.43,5.43,0,0,1,236.75,953.21Z" fill="#a3c9f6"/><path d="M231.35,968.81a11.5,11.5,0,1,0-11.5-11.5A11.5,11.5,0,0,0,231.35,968.81Z" fill="#605d5a"/><path d="M138.65,759.41a54.55,54.55,0,0,0-38.5,3.4c-6.5,2.5-10.4,11.2-20.3,14.9a54.14,54.14,0,0,0-13.5,28c-7.3,42.9,32.3,93.5,34,95.7a12.56,12.56,0,0,0,19.7-15.6c-9.6-12.1-33.5-49.5-29-76,1.6-9.3,6.7-16.5,15.5-22.1,8.4-5.3,16.8-6.7,25.6-4.3,25.5,6.9,49.1,43.3,56.1,56.8a12.48,12.48,0,1,0,22.2-11.4C209.15,826.51,180.05,770.71,138.65,759.41Z" fill="#605d5a"/><path d="M99.45,770.41l-14.6,12.1c-3.2-4-6.4-7.9-9.4-11.9C.35,673.51-9.15,593,6.25,552.51a81.39,81.39,0,0,1,21.4-31.6,378,378,0,0,0-4.1,41.6c-6.5,20-5.5,49.1,5.6,83.9C40.75,682.71,62.85,725.61,99.45,770.41Z" fill="#605d5a"/><path d="M742.55,778.81h-.5l-41.6-3.5a5.63,5.63,0,0,1-4.1-2.2,6.15,6.15,0,0,1-1.3-4.5l9.5-79.5a5.7,5.7,0,0,1,1.1-2.8l38.1-52.3a5.94,5.94,0,0,1,9.6,7l-37.2,51-8.6,71.8,35.5,3a6,6,0,0,1,5.4,6.5A5.83,5.83,0,0,1,742.55,778.81Z" fill="#a3c9f6"/><path d="M236.55,601.11a66.8,66.8,0,0,0-8.3-16.7l171.8,75.9,9.4,4.2-4.8,10.9-17.1-7.5Z" fill="#a3c9f6"/><path d="M409.55,774.91l-4.1,11.2-24.7-9-215.1-78.7a84,84,0,0,1-8.4-7.7,70.46,70.46,0,0,0,13.9,1.4h1.9a8.6,8.6,0,0,0,1.6-.1c.6,0,1.2-.1,1.8-.1l3.1-.3c.5-.1,1-.1,1.5-.2l202.4,74.1Z" fill="#a3c9f6"/><path d="M387.05,665.91s147.7-66,199.9-66.2,145.5,64.6,145.5,64.6-17,69.6,10.6,109.1c-27.9,46.2-95.4,141.3-181.4,141.7-104.6.5-150.3-90.4-182.3-140C402.25,728.61,387.05,665.91,387.05,665.91Z" fill="#a3c9f6"/><path d="M433.15,719.31s117.4-27.6,165.8-27.8,117.3,24.9,117.3,24.9-37.7-7.4-117.2-7S433.15,719.31,433.15,719.31Z" fill="#3e8eed"/><path d="M716.65,795.81s-51.5,59.5-121.1,59.8c-74.5.3-162-57.1-162-57.1s82.5,39.4,162,39C674.85,837.31,716.65,795.81,716.65,795.81Z" fill="#3e8eed"/></g></g></g></svg>