<svg id="asset" xmlns="http://www.w3.org/2000/svg" viewBox="0 0 2000 2000"><path d="M1324,733.42c-83.71-65.55-245.38-86.5-443,18.58-40.49,21.53-31.59,253.73-31.59,253.73H832S830.2,954.52,826.21,872s-91.78-111.68-237.93,8.6h0A380.16,380.16,0,0,1,585.65,836c0-207.82,168.47-376.29,376.29-376.29C1134.19,459.67,1279.4,575.44,1324,733.42Z" fill="#bbcb37"/><path d="M772.59,580.84c-1.21-3.81-7.24-7.84-16.42-8.27,6.91-10.78,9.83-22.44,6.67-26.16-3.45-4-14.91-5.17-27.31,3.48.46-11.57-2.3-21.63-6.48-23.31-6.26-2.5-21.75,5.18-27.13,28.67-8.38-13.34-22-22.92-27.4-20.68-5.6,2.33-10.79,15.76-2.63,33.39-15.48-4.88-32.92-3-35.54,2.4s2.38,18.72,19.86,26.48c-14.25,5-26,15.12-25.19,20.7S642.22,631,659.43,629c-3.93,13.5-3,27.29,1.57,30,4.94,2.88,17.53-.53,26.59-15.34,4.31,12.61,12.16,22.64,17.21,22.37,6.4-.35,16.51-12.59,13.14-34.09,15.2,9.79,36.67,11.55,40.52,6,3.38-4.88.64-18.51-14.89-28.85C760.39,602.87,774.61,587.21,772.59,580.84Zm-63.45,16.58a10,10,0,0,0-5.41,3.06,8.86,8.86,0,0,0-9.15,1.43c-.23-.19-.48-.38-.74-.56a8.72,8.72,0,0,0,3.52-5.35c2.86.12,6.93-1,9.42-7a10.42,10.42,0,0,0,5.31-.24,8.29,8.29,0,0,0,2.14,2.66c-1.27,1.16-2.54,2.37-3.83,3.66a9.8,9.8,0,0,0-.82,2.36C709.43,597.46,709.29,597.43,709.14,597.42Z" fill="#ffeed0"/><ellipse cx="702.73" cy="597.42" rx="25.61" ry="12.64" transform="translate(-218.38 549.55) rotate(-37.39)" fill="#f7b548"/><path d="M675.45,748.39c-1.21-3.81-7.23-7.84-16.42-8.27,6.92-10.77,9.84-22.43,6.67-26.16-3.44-4-14.91-5.17-27.3,3.48.45-11.56-2.3-21.63-6.49-23.3-6.26-2.51-21.75,5.17-27.12,28.66-8.39-13.34-22-22.92-27.41-20.67-5.6,2.32-10.78,15.75-2.63,33.38-15.48-4.87-32.91-3-35.53,2.41s2.37,18.71,19.85,26.48c-14.25,5-26,15.11-25.19,20.69s11.21,13.47,28.41,11.48c-3.93,13.49-3,27.28,1.57,29.94,4.94,2.89,17.54-.53,26.6-15.34,4.3,12.61,12.16,22.64,17.2,22.37,6.41-.35,16.52-12.59,13.14-34.09,15.21,9.79,36.68,11.55,40.52,6,3.38-4.88.64-18.51-14.89-28.85C663.26,770.42,677.47,754.76,675.45,748.39ZM612,765a10,10,0,0,0-5.41,3.07,8.82,8.82,0,0,0-9.15,1.43,8.36,8.36,0,0,0-.73-.57,8.75,8.75,0,0,0,3.51-5.35c2.87.12,6.93-.94,9.42-7a10.42,10.42,0,0,0,5.31-.24A8.22,8.22,0,0,0,617.1,759c-1.27,1.16-2.55,2.37-3.84,3.66a9.56,9.56,0,0,0-.81,2.36Z" fill="#ffeed0"/><ellipse cx="605.6" cy="764.97" rx="25.61" ry="12.64" transform="translate(-340.1 525) rotate(-37.39)" fill="#f7b548"/><path d="M882.75,722.65c.56-3.95-3.12-10.2-11.21-14.56,10.9-6.71,18.59-16,17.35-20.68-1.35-5.14-11.2-11.13-26.11-8.71,5.42-10.22,7.3-20.49,4.25-23.81-4.55-5-21.84-4.76-36.86,14.07-1.78-15.65-9.89-30.18-15.74-30.51-6-.33-16.55,9.53-16.84,28.95-11.84-11.11-28.35-17-33.07-13.24s-6,17.9,6.42,32.47c-15-1.68-30,2.37-31.67,7.73s4.26,17,20.63,22.66c-9.4,10.46-14.54,23.28-11.57,27.66,3.2,4.74,16,7.13,30.61-2.3-1.59,13.24,1.15,25.68,5.81,27.62,5.93,2.47,20.34-4.18,26.62-25,9.46,15.41,28,26.31,33.91,23,5.16-2.93,8.61-16.4-.91-32.45C862.21,737.23,881.81,729.27,882.75,722.65Zm-64.36-12.56a10,10,0,0,0-6.21.42,8.82,8.82,0,0,0-8.86-2.68,9.25,9.25,0,0,0-.42-.83,8.76,8.76,0,0,0,5.49-3.29c2.53,1.35,6.65,2.15,11.5-2.19a10.39,10.39,0,0,0,4.89,2.08,8.3,8.3,0,0,0,.78,3.33c-1.64.5-3.32,1-5,1.64a9.79,9.79,0,0,0-1.76,1.77Z" fill="#ffeed0"/><ellipse cx="812.62" cy="707.31" rx="25.61" ry="12.64" transform="translate(-126.59 179.56) rotate(-11.7)" fill="#f7b548"/><path d="M950.63,503.12c.7-3.92-2.76-10.3-10.69-14.95,11.14-6.32,19.15-15.28,18.08-20.05-1.17-5.19-10.79-11.52-25.79-9.63,5.79-10,8-20.22,5.11-23.65-4.38-5.13-21.66-5.54-37.35,12.75-1.22-15.71-8.8-30.52-14.64-31-6-.55-16.87,8.93-17.86,28.33-11.43-11.52-27.72-18-32.57-14.41s-6.61,17.67,5.25,32.68c-14.93-2.22-30,1.29-31.93,6.59s3.65,17.13,19.81,23.38c-9.76,10.12-15.35,22.75-12.55,27.24,3,4.85,15.77,7.69,30.68-1.21-2.06,13.17.23,25.7,4.82,27.81,5.83,2.67,20.48-3.46,27.5-24.06,8.9,15.74,27.08,27.29,33.07,24.17,5.26-2.75,9.18-16.08.25-32.46C929.58,517,949.45,509.71,950.63,503.12Zm-63.88-14.85a10,10,0,0,0-6.21.2,8.85,8.85,0,0,0-8.77-3c-.11-.28-.24-.56-.38-.85a8.7,8.7,0,0,0,5.6-3.09c2.48,1.44,6.57,2.39,11.57-1.78a10.43,10.43,0,0,0,4.81,2.26,8.42,8.42,0,0,0,.66,3.35c-1.66.44-3.35.92-5.09,1.46a9.45,9.45,0,0,0-1.82,1.71Z" fill="#ffeed0"/><ellipse cx="881.08" cy="485.29" rx="25.61" ry="12.64" transform="translate(-68.94 154.73) rotate(-9.66)" fill="#f7b548"/><path d="M1075,654.15c1-3.87-2-10.47-9.61-15.67,11.55-5.52,20.17-13.9,19.43-18.73-.8-5.25-10-12.25-25-11.41,6.47-9.59,9.42-19.6,6.74-23.23-4-5.42-21.21-7-38.14,10.11-.12-15.76-6.65-31.06-12.43-32-6-1-17.46,7.72-19.8,27-10.6-12.29-26.4-19.89-31.49-16.65s-7.83,17.17,3,33c-14.74-3.26-30-.81-32.31,4.35s2.44,17.34,18.13,24.7C943,645,936.54,657.22,939,661.89c2.69,5.05,15.2,8.78,30.7.94-3,13-1.58,25.66,2.86,28.08,5.63,3.07,20.67-2,29.11-22.08,7.78,16.32,25.11,29.12,31.3,26.42,5.44-2.37,10.28-15.4,2.52-32.37C1053.06,666.48,1073.39,660.64,1075,654.15Zm-62.68-19.28a10,10,0,0,0-6.21-.23,8.84,8.84,0,0,0-8.54-3.6c-.09-.29-.2-.58-.32-.87a8.66,8.66,0,0,0,5.8-2.7c2.37,1.61,6.39,2.85,11.67-1a10.3,10.3,0,0,0,4.64,2.58,8.45,8.45,0,0,0,.43,3.4c-1.69.32-3.42.68-5.19,1.1a9.48,9.48,0,0,0-1.93,1.57Z" fill="#ffeed0"/><ellipse cx="1006.9" cy="631.51" rx="25.61" ry="12.64" transform="translate(-57.32 102.28) rotate(-5.65)" fill="#f7b548"/><path d="M1284.63,687.31c3-2.66,4.18-9.81.8-18.37,12.67,1.9,24.5-.22,26.59-4.64,2.28-4.8-1.39-15.72-14.36-23.48,10.73-4.32,18.78-11,18.59-15.47-.28-6.73-13.64-17.71-37.26-13,8.72-13.12,11.89-29.46,7.62-33.47s-18.8-3.38-31.53,11.29c-1.9-16.12-10.73-31.27-16.77-31.43s-16.09,9.84-16,29c-10.4-11-24.44-17.48-29.21-14.49s-7.69,15.74,1.19,30.62c-13.93,1.95-26.12,8.45-26.68,13.71-.6,5.69,7.68,15.78,24.91,18-9.74,9.1-15.67,20.38-13.35,24.87,2.94,5.7,18.25,9.9,36.48-2-2.7,17.88,4.49,38.18,11.13,39.41,5.84,1.08,17.15-7,20.21-25.4C1259.53,685.23,1279.64,691.77,1284.63,687.31Zm-41.14-51.07a10,10,0,0,0-5-3.68,8.83,8.83,0,0,0-5.06-7.75,8.63,8.63,0,0,0,.22-.91,8.68,8.68,0,0,0,6.32,1c1.06,2.67,3.7,5.94,10.21,5.74a10.34,10.34,0,0,0,2.4,4.74,8.28,8.28,0,0,0-1.55,3.05c-1.58-.68-3.21-1.35-4.91-2a9.81,9.81,0,0,0-2.49.22Z" fill="#ffeed0"/><ellipse cx="1240.86" cy="630.4" rx="12.64" ry="25.61" transform="translate(96.17 1422.12) rotate(-61.6)" fill="#f7b548"/><path d="M1148.8,519.31c1.81-3.55.36-10.66-5.87-17.42,12.49-2.8,22.77-9,23.13-13.92.39-5.29-7-14.16-21.87-16.71,8.46-7.91,13.57-17,11.77-21.14-2.69-6.18-19.11-11.6-39.44,1.33,3.41-15.39.47-31.77-5-34-5.62-2.29-18.75,3.62-25.34,21.9-7.58-14.36-21.28-25.3-27-23.27s-11.47,15-4.49,32.79c-13.64-6.47-29.09-7.5-32.47-3s-1.49,17.45,12.15,28.12c-12.29,6.84-21.31,17.3-19.94,22.41,1.49,5.52,12.85,11.95,29.71,7.78-5.81,12-7.27,24.65-3.49,28,4.8,4.26,20.59,2.66,33.31-15,3.93,17.65,18,34,24.6,32.75,5.83-1.1,13.47-12.71,9.69-31C1124.64,526.42,1145.76,525.27,1148.8,519.31ZM1092,486.51a10,10,0,0,0-6-1.62,8.83,8.83,0,0,0-7.51-5.41c0-.31-.07-.61-.13-.93a8.66,8.66,0,0,0,6.26-1.33c1.95,2.1,5.6,4.2,11.59,1.67a10.39,10.39,0,0,0,4,3.56,8.46,8.46,0,0,0-.35,3.4c-1.71-.06-3.47-.1-5.3-.09a9.75,9.75,0,0,0-2.23,1.11Z" fill="#ffeed0"/><ellipse cx="1087.46" cy="482.01" rx="12.64" ry="25.61" transform="translate(471.8 1499.78) rotate(-82.73)" fill="#f7b548"/></svg>