<svg id="asset" xmlns="http://www.w3.org/2000/svg" xmlns:xlink="http://www.w3.org/1999/xlink" viewBox="0 0 2000 2000"><defs><linearGradient id="linear-gradient" x1="139.5" y1="15724.98" x2="139.5" y2="15364.92" gradientTransform="matrix(1, -0.08, -0.08, -1, 1955.42, 15937.35)" gradientUnits="userSpaceOnUse"><stop offset="0.56" stop-color="#f7b548"/><stop offset="1" stop-color="#fccf84"/></linearGradient></defs><path d="M611.88,611c-33.21,11.86-36.59,64.94,12.33,55.5,82.36-15.9,377.32-93.21,508.54-174.25,66.59-41.12,68.6-101-54.31-72.3S611.88,611,611.88,611Z" fill="#fccf84"/><path d="M601.72,614.28A21.1,21.1,0,0,0,627,629.51c38.73-9.17,131.42-33.16,244.61-77,117.82-45.66,180.45-86.82,204.06-104.22a18.74,18.74,0,0,0,6.21-22.21c-19.82-48.46-134.53-234.16-337-154.88C540.17,351.34,584.94,549.35,601.72,614.28Z" fill="url(#linear-gradient)"/><path d="M719.35,282.4c-31.84,15.64-56.56,34.48-75.54,55.26,177.44-52.57,285.05,42.7,317,77.24a22.83,22.83,0,0,0,25.37,5.6l13.11-5.27a20.74,20.74,0,0,0,7.5-33.34C966,338.07,862.28,248.66,719.35,282.4Z" fill="#fccf84"/></svg>