<svg id="asset" xmlns="http://www.w3.org/2000/svg" viewBox="0 0 2000 2000"><path d="M1201.32,361.93l-43.06,262c-30.43-10.63-54.52-20-74-28.28L1065,368.75s-46.27-14.17-111.4-20.71c-34.94-3.5-75.3-4.81-116.86-.55-33.67,3.45-68.12,10.55-101.09,23.11,61.84-27.18,125.83-41,172-47.91,37-5.55,62.55-6.73,66.58-6.89h.55C1092.09,314.23,1201.32,361.93,1201.32,361.93Z" fill="#d8e377"/><path d="M974.29,315.8c-4,.16-29.62,1.34-66.58,6.89A359.76,359.76,0,0,1,974.29,315.8Z" fill="#d8e377"/><path d="M1086.66,624q-12.21-4.26-23.64-8.35c-164.58-58.76-213.27-88.27-332.75-58.27A103.54,103.54,0,0,0,677.13,590a375.94,375.94,0,0,0-62,99.71q-1.56,3.68-3,7.4L545.54,624c23.73-146.76,101.61-219.67,190.1-253.36h0c33-12.56,67.42-19.66,101.09-23.11,41.56-4.26,81.92-2.95,116.86.55,65.13,6.54,111.4,20.71,111.4,20.71l9.15,108,10.09,119Z" fill="#81921f"/><polygon points="1086.66 623.97 1158.26 623.97 1201.32 361.93 1065.02 368.74 1086.66 623.97" fill="#bbcb37"/><path d="M974.85,315.78h0Z" fill="#d8e377"/><path d="M1076.59,619.61a.54.54,0,0,1-.71.57L1063,615.62c-164.58-58.76-213.27-88.27-332.75-58.27A103.54,103.54,0,0,0,677.13,590a375.83,375.83,0,0,0-61.65,98.86.53.53,0,0,1-.91.11l-53.8-72a.53.53,0,0,1,.8-.69l47.5,49.74a.53.53,0,0,0,.85-.63l-41.09-72.06a.53.53,0,0,1,.85-.61l46.54,53.7a.53.53,0,0,0,.9-.52l-36-102.5A.52.52,0,0,1,582,543l47.7,77.29a.53.53,0,0,0,1-.44l-36.56-114.5a.53.53,0,0,1,.93-.47l54.23,74.32a.53.53,0,0,0,.93-.48l-35-105.32a.53.53,0,0,1,.94-.47l52.31,76.22a.53.53,0,0,0,.95-.42l-25.38-108.9a.53.53,0,0,1,1-.4l48.58,78.93a.53.53,0,0,0,1-.38l-20.63-97.28a.53.53,0,0,1,1-.38l47.3,81.4a.53.53,0,0,0,1-.39l-24.4-99.1a.53.53,0,0,1,1-.39l59.2,104.65a.53.53,0,0,0,1-.4L728,390.83a.53.53,0,0,1,1-.38l51.09,99.46a.53.53,0,0,0,1-.33L761.73,375.27a.53.53,0,0,1,1-.31l51.81,114.56a.53.53,0,0,0,1-.29L797.54,366a.53.53,0,0,1,1-.28l50.91,119.43a.53.53,0,0,0,1-.26L838.06,361.27a.53.53,0,0,1,1-.21l37.06,121.09a.53.53,0,0,0,1-.18l-6.7-123.41a.53.53,0,0,1,1-.14l27.44,136a.53.53,0,0,0,1-.11V356.9a.53.53,0,0,1,1.05-.09l27.83,146.58a.53.53,0,0,0,1.05-.1V368.09a.53.53,0,0,1,1-.09l27,156.31a.53.53,0,0,0,1.05-.06l9.09-161a.53.53,0,0,1,1.05,0L989.9,532.9a.53.53,0,0,0,1.05,0l8.78-159.22a.53.53,0,0,1,1-.06c4.71,29.21,29.32,180.81,32.93,183.22,3.41,2.27-6.27-136.46-9.18-177a.53.53,0,0,1,1-.12L1048,512.28a.53.53,0,0,0,1-.11l-6.15-128.46a.53.53,0,0,1,1-.1Z" fill="#6e7f17"/><path d="M1094.08,624a.52.52,0,0,1-.53-.51l-12-242.91,18,204.21a.53.53,0,0,0,1.06,0l10.5-185.54a.53.53,0,0,1,1,0V588.8a.53.53,0,0,0,1.06.05l18.32-194.08a.53.53,0,0,1,1.06.07l-6,188.58a.53.53,0,0,0,1,.07l19.71-188.68a.53.53,0,0,1,1.06.08l-9.66,191.35a.53.53,0,0,0,1.06.09l28.21-214.43-20.45,213.81a.53.53,0,0,0,1.05.14c8.51-51.82,35.47-215.63,36-214,.65,2-30.33,239.84-31.87,251.62a.51.51,0,0,1-.52.45Z" fill="#a8b82f"/></svg>