<svg id="asset" xmlns="http://www.w3.org/2000/svg" viewBox="0 0 2000 2000"><path d="M1180.2,646.33c-66.87,27.49-145.46,55-230.49,79.82-29.22,8.53-58,16.39-86,23.55-223.39,57.06-401.66,69.77-414.38,26.18-10.65-36.47,97.58-102.09,261.46-164.8,56.58-21.65,119.79-43,187-62.59,125.7-36.71,242.66-60.94,331.92-70.78,96.8-10.69,161-4.47,168.47,21.05C1407.89,531.9,1319.41,589.11,1180.2,646.33Z" fill="#d25a48"/><path d="M1197.62,542.62l-.9-1.71A5,5,0,0,1,1197.62,542.62Z" fill="#4a4844"/><path d="M863.71,749.7c-223.39,57.06-401.66,69.77-414.38,26.18-10.65-36.47,97.58-102.09,261.46-164.8,28.69-1.2,49.55-.6,55.56,1.75,51,19.9-122,96.26-92,103.58S850,704.57,887.7,717.87C908.43,725.19,899.49,740.28,863.71,749.7Z" fill="#c45141"/><path d="M1144.43,544.2c-7.65-12.91-15.14-27.39-22-41.93-15.11-32.33-26.8-64.95-29.07-81.25-1-7.06-4-14.22-8.48-21.29-9.23-14.61-24.62-28.82-40.88-41-19.68-14.72-40.64-26.41-53.43-32.1-19.6-8.72-18-22.44-14.83-34.7a54.88,54.88,0,0,0-13.87,10.12c-6.08,5.9-10.47-.09-14.76-12.95-9.57,22.78-24,41.39-42.9,53.1-14,8.68-18.42,2.12-19.62-13-1.38-17.29,1.48-45.79-1-75.31-1.4-16.44-4.46-33.2-10.85-48.52-18.28-43.87-73.92-59-132.2-61A613.82,613.82,0,0,0,679,175.92c-15.39,8.94-30.94,18.77-46.38,29.42a701.47,701.47,0,0,0-77.11,61.45q-6,5.54-11.92,11.26h0q-5.17,5-10.22,10.14-7.11,7.21-14,14.66c-38.93,42.3-71.19,89.93-90.2,140.9q-7.68,20.58-13.35,37.8c-8,24.34-13.24,43.87-16.14,59.3-6.54,34.89-1.24,48.78,9.91,49.81,12.84,1.18,33.44-14.7,52.64-35.19,14.84-15.84,39.17-41.51,65.08-67.27l-16.69,7.89a3.14,3.14,0,0,1-4.42-3.5l4.72-21.93a3.14,3.14,0,0,0-.78-2.82l-10.75-11.4q5.34-5.71,11-11.6c38.12-39.93,83.54-83.57,96.4-91.78,20.84-13.3,42.56-12,75.37,7.09S680.77,434.2,677.37,526c-2.24,60.4,1.75,97.81,1.41,135.26a365.29,365.29,0,0,1-4.46,55.17q7.89-.76,16.78-1.94c55.09-7.25,137.91-25.77,229.1-52.4,105.78-30.89,196.19-64.92,243.13-90A238.51,238.51,0,0,1,1144.43,544.2ZM428,549.39l-1.12-.65q2.5-3.75,5.17-7.58l.66,5.11A3.15,3.15,0,0,1,428,549.39Z" fill="#df6551"/><path d="M884.64,329.27l-4.18,3.7a3.15,3.15,0,0,1-5.23-2.13l-1.59-22.37A3.12,3.12,0,0,0,872.1,306l-19.33-11.37a3.15,3.15,0,0,1,.41-5.63L874,280.55a3.14,3.14,0,0,0,1.88-2.23l4.85-21.9a3.11,3.11,0,0,1,2.91-2.46C886.12,283.48,883.26,312,884.64,329.27Z" fill="#fccf84"/><path d="M1144.43,544.2a3.12,3.12,0,0,0-.92,2.07l-1.1,22.4a3.14,3.14,0,0,1-5.17,2.25l-17.11-14.5a3.15,3.15,0,0,0-2.86-.63l-21.65,5.88a3.15,3.15,0,0,1-3.73-4.23l8.5-20.76a3.16,3.16,0,0,0-.28-2.91L1087.83,515a3.15,3.15,0,0,1,2.87-4.86l22.36,1.67a3.15,3.15,0,0,0,2.69-1.17l6.73-8.37C1129.29,516.81,1136.78,531.29,1144.43,544.2Z" fill="#fccf84"/><path d="M877,610.24a3.14,3.14,0,0,1-.33-2.91l8.12-20.91a3.15,3.15,0,0,0-3.82-4.16l-21.53,6.28a3.14,3.14,0,0,1-2.87-.59l-17.37-14.18a3.15,3.15,0,0,0-5.14,2.35l-.68,22.41a3.17,3.17,0,0,1-1.45,2.55l-18.85,12.14a3.15,3.15,0,0,0,.64,5.61l21.11,7.58a3.14,3.14,0,0,1,2,2.16l5.73,21.68a3.15,3.15,0,0,0,5.53,1.13l13.73-17.74a3.15,3.15,0,0,1,2.66-1.21l22.39,1.26a3.14,3.14,0,0,0,2.78-4.91Z" fill="#fccf84"/><path d="M715.05,697.24l-20.72,8.59a3.14,3.14,0,0,0-1.87,2.25l-1.36,6.39q-8.88,1.17-16.78,1.94a365.29,365.29,0,0,0,4.46-55.17l8.65-7.78a3.15,3.15,0,0,1,5.24,2.09l1.77,22.36a3.14,3.14,0,0,0,1.56,2.48l19.42,11.22A3.14,3.14,0,0,1,715.05,697.24Z" fill="#fccf84"/><path d="M813.22,482,793.8,470.76a3.15,3.15,0,0,1-1.56-2.47l-1.77-22.36a3.14,3.14,0,0,0-5.24-2.09l-16.67,15a3.16,3.16,0,0,1-2.84.72l-21.81-5.23a3.14,3.14,0,0,0-3.6,4.34l9.11,20.49a3.15,3.15,0,0,1-.19,2.92L737.52,501.2a3.15,3.15,0,0,0,3,4.78l22.3-2.34a3.13,3.13,0,0,1,2.72,1.09l14.57,17a3.14,3.14,0,0,0,5.47-1.38l4.67-21.94a3.18,3.18,0,0,1,1.87-2.25l20.72-8.59A3.14,3.14,0,0,0,813.22,482Z" fill="#fccf84"/><path d="M761.08,322.75l-3.89-22.08a3.14,3.14,0,0,1,.89-2.79l16-15.73a3.15,3.15,0,0,0-1.77-5.36l-22.2-3.12a3.17,3.17,0,0,1-2.38-1.71l-10-20.07a3.15,3.15,0,0,0-5.65,0l-9.83,20.16a3.15,3.15,0,0,1-2.36,1.73l-22.18,3.32A3.15,3.15,0,0,0,696,282.5l16.13,15.58a3.16,3.16,0,0,1,.91,2.78L709.32,323a3.15,3.15,0,0,0,4.58,3.3l19.8-10.53a3.16,3.16,0,0,1,2.93,0l19.9,10.35A3.15,3.15,0,0,0,761.08,322.75Z" fill="#fccf84"/><path d="M637.19,210l.48,22.42a3.14,3.14,0,0,0,5.11,2.39l17.51-14a3.15,3.15,0,0,1,2.87-.55l21.47,6.47a3.15,3.15,0,0,0,3.86-4.12l-7.92-21a3.12,3.12,0,0,1,.36-2.91l12.79-18.42a3.14,3.14,0,0,0-2.73-4.93l-12,.56c-15.39,8.94-30.94,18.77-46.38,29.42l3.21,2.11A3.12,3.12,0,0,1,637.19,210Z" fill="#fccf84"/><path d="M590.38,298.71a3.14,3.14,0,0,0-1.52-5.43l-22-4.16a3.14,3.14,0,0,1-2.3-1.82l-9.07-20.51q-6,5.54-11.92,11.26h0l-4.47,8.18a3.16,3.16,0,0,1-2.44,1.62l-3.31.34q-7.11,7.21-14,14.66l8.38,8.89a3.17,3.17,0,0,1,.79,2.82l-4.72,21.92a3.15,3.15,0,0,0,4.42,3.51l20.27-9.59a3.16,3.16,0,0,1,2.93.12l19.39,11.27a3.15,3.15,0,0,0,4.7-3.12l-2.86-22.25a3.14,3.14,0,0,1,1-2.74Z" fill="#fccf84"/><path d="M510.33,444.84q-5.61,5.88-11,11.6l-4.64-4.92a3.14,3.14,0,0,1,2-5.28Z" fill="#fccf84"/><path d="M430.85,521.28a3.16,3.16,0,0,0-1,2.75l2.2,17.13q-2.65,3.83-5.17,7.58l-18.27-10.61a3.11,3.11,0,0,0-2.92-.12l-6,2.84c2.9-15.43,8.1-35,16.14-59.3l5.91,13.36a3.13,3.13,0,0,0,2.29,1.82l22,4.15a3.15,3.15,0,0,1,1.51,5.44Z" fill="#fccf84"/><path d="M997.17,450.22,974.74,450a3.13,3.13,0,0,1-2.57-1.39L959.63,430a3.14,3.14,0,0,0-5.59.75L946.9,452a3.17,3.17,0,0,1-2.11,2l-21.57,6.17a3.14,3.14,0,0,0-1,5.55l18,13.36a3.14,3.14,0,0,1,1.27,2.64l-.79,22.41a3.14,3.14,0,0,0,5,2.67l18.27-13a3.13,3.13,0,0,1,2.9-.39l21.07,7.68a3.15,3.15,0,0,0,4.08-3.9l-6.72-21.4a3.14,3.14,0,0,1,.52-2.88l13.82-17.66A3.15,3.15,0,0,0,997.17,450.22Z" fill="#fccf84"/><path d="M1084.93,399.73a3.11,3.11,0,0,1-2.54-.74l-16.93-14.71a3.14,3.14,0,0,0-2.85-.67l-21.71,5.61a3.15,3.15,0,0,1-3.69-4.27L1046,364.3a3.16,3.16,0,0,0-.25-2.92l-1.67-2.63C1060.31,370.91,1075.7,385.12,1084.93,399.73Z" fill="#fccf84"/><path d="M654,405.4a3.15,3.15,0,0,0-.94,2.77l3.52,22.15a3.15,3.15,0,0,1-4.61,3.26L636.11,425c.44-2.74.89-5.25,1.36-7.5,4.13-19.92-9.06-16.48-30.16-1.22l1.59-8.64a3.15,3.15,0,0,0-.87-2.8L592.17,389a3.14,3.14,0,0,1,1.81-5.34l22.23-2.95A3.11,3.11,0,0,0,618.6,379l10.18-20a3.14,3.14,0,0,1,5.64.07l9.67,20.23a3.14,3.14,0,0,0,2.35,1.75l22.15,3.51a3.15,3.15,0,0,1,1.68,5.39Z" fill="#f9c163"/><path d="M568.36,448.84C555,461,540.93,474.63,527.29,488.2l-16.69,7.89a3.14,3.14,0,0,1-4.42-3.5l4.72-21.93a3.14,3.14,0,0,0-.78-2.82l-10.75-11.4q5.34-5.71,11-11.6L519,444a3.16,3.16,0,0,0,2.44-1.62l10.76-19.68a3.15,3.15,0,0,1,5.64.24l9.07,20.51a3.13,3.13,0,0,0,2.29,1.82Z" fill="#f9c163"/><path d="M428,549.39l-1.12-.65q2.5-3.75,5.17-7.58l.66,5.11A3.15,3.15,0,0,1,428,549.39Z" fill="#f9c163"/><path d="M657.82,550.34a3.13,3.13,0,0,0-.05,2.93l10.08,20a3.15,3.15,0,0,1-3.4,4.51l-22-4.18a3.12,3.12,0,0,0-2.8.85l-15,14.83c.92-24.4,2.05-49.92,3.42-73.95l12.37,13.14a3.16,3.16,0,0,0,2.77,1l22.17-3.4a3.14,3.14,0,0,1,3.23,4.62Z" fill="#f9c163"/><path d="M678.78,661.24a365.29,365.29,0,0,1-4.46,55.17c-1.51.15-3,.28-4.46.41l-2.11-2.47a3.13,3.13,0,0,0-2.72-1.08l-22.3,2.33a3.14,3.14,0,0,1-3-4.77l11.71-19.13a3.15,3.15,0,0,0,.19-2.92l-9.11-20.49a3.15,3.15,0,0,1,3.6-4.34l21.81,5.23a3.1,3.1,0,0,0,2.84-.72Z" fill="#f9c163"/><path d="M506.18,492.59l4.72-21.93a3.14,3.14,0,0,0-.78-2.82l-10.75-11.4c-19,20.31-34.91,38.56-42.06,49.15-7.59,11.23-16.89,23.55-25.28,35.57l.66,5.11a3.15,3.15,0,0,1-4.71,3.12l-1.12-.65C416,565,408,580.22,409.57,590.66c12.84,1.18,33.44-14.7,52.64-35.19,14.84-15.84,39.17-41.51,65.08-67.27l-16.69,7.89A3.14,3.14,0,0,1,506.18,492.59Z" fill="#d25a48"/><path d="M677.37,526c3.4-91.78,37.54-146.76,4.73-165.83s-54.53-20.39-75.37-7.09c-12.86,8.21-58.28,51.85-96.4,91.78L519,444a3.16,3.16,0,0,0,2.44-1.62l10.76-19.68a3.15,3.15,0,0,1,5.64.24l9.07,20.51a3.13,3.13,0,0,0,2.29,1.82l19.15,3.62c14.28-13,27.72-24.47,38.94-32.58h0l1.59-8.64a3.15,3.15,0,0,0-.87-2.8L592.17,389a3.14,3.14,0,0,1,1.81-5.34l22.23-2.95A3.11,3.11,0,0,0,618.6,379l10.18-20a3.14,3.14,0,0,1,5.64.07l9.67,20.23a3.14,3.14,0,0,0,2.35,1.75l22.15,3.51a3.15,3.15,0,0,1,1.68,5.39L654,405.4a3.15,3.15,0,0,0-.94,2.77l3.52,22.15a3.15,3.15,0,0,1-4.61,3.26L636.11,425c-3.31,20.41-6,53.65-8.05,90.38l12.37,13.14a3.16,3.16,0,0,0,2.77,1l22.17-3.4a3.14,3.14,0,0,1,3.23,4.62l-10.78,19.66a3.13,3.13,0,0,0-.05,2.93l10.08,20a3.15,3.15,0,0,1-3.4,4.51l-22-4.18a3.12,3.12,0,0,0-2.8.85l-15,14.83c-2.44,64.78-3.4,121.65-3.4,121.65l.87-.25c2,6.77,19.33,8.58,47.75,6.11l-2.11-2.47a3.13,3.13,0,0,0-2.72-1.08l-22.3,2.33a3.14,3.14,0,0,1-3-4.77l11.71-19.13a3.15,3.15,0,0,0,.19-2.92l-9.11-20.49a3.15,3.15,0,0,1,3.6-4.34l21.81,5.23a3.1,3.1,0,0,0,2.84-.72l8-7.22C679.12,623.79,675.13,586.38,677.37,526Z" fill="#d25a48"/><path d="M904.26,158.85l-20.32,1.52a3.14,3.14,0,0,0-2.48,1.56l-11.3,19.36a3.15,3.15,0,0,1-5.63-.39L856,160.15a3.13,3.13,0,0,0-2.24-1.88l-21.92-4.77a3.14,3.14,0,0,1-1.36-5.47l17.11-14.5a3.17,3.17,0,0,0,1.1-2.72L847.34,117C872.74,119.64,890.84,136.37,904.26,158.85Z" fill="#fedba1"/><path d="M916.76,295a3.15,3.15,0,0,0-.22,2.92l9,20.56a3.15,3.15,0,0,1-3.64,4.31l-21.77-5.4a3.12,3.12,0,0,0-2.84.7l-12.61,11.17c-1.38-17.29,1.48-45.79-1-75.31a3.07,3.07,0,0,1,2.57,1.11l14.43,17.16a3.13,3.13,0,0,0,2.71,1.11l22.33-2.16a3.14,3.14,0,0,1,3,4.79Z" fill="#fedba1"/><path d="M883.94,160.37a3.14,3.14,0,0,0-2.48,1.56l-11.3,19.36a3.15,3.15,0,0,1-5.63-.39L856,160.15a3.13,3.13,0,0,0-2.24-1.88l-21.92-4.77a3.14,3.14,0,0,1-1.36-5.47l17.11-14.5a3.17,3.17,0,0,0,1.1-2.72L847.34,117a71.79,71.79,0,0,0-15.35.1c-25.34,2.77-57,12.23-91.43,27.33,58.28,2,113.92,17.1,132.2,61,6.39,15.32,9.45,32.08,10.85,48.52a3.07,3.07,0,0,1,2.57,1.11l14.43,17.16a3.13,3.13,0,0,0,2.71,1.11l22.33-2.16a3.14,3.14,0,0,1,3,4.79l-11.86,19a3.15,3.15,0,0,0-.22,2.92l9,20.56a3.15,3.15,0,0,1-3.64,4.31l-21.77-5.4a3.12,3.12,0,0,0-2.84.7l-12.61,11.17c1.2,15.07,5.63,21.63,19.62,13,18.88-11.71,33.33-30.32,42.9-53.1-9.37-28.08-18.22-88.91-42.9-130.27Z" fill="#e9725d"/><path d="M975.79,292c-3.15,12.26-4.77,26,14.83,34.7,12.79,5.69,33.75,17.38,53.43,32.1l-10.37-16.28a3.15,3.15,0,0,1,2.92-4.83l22.35,1.95a3.15,3.15,0,0,0,2.7-1.14l3.12-3.78C1021.26,286.21,994,283.05,975.79,292Z" fill="#e9725d"/><path d="M1197.62,542.62l-.9-1.71h0c-40.91-77.36-74.91-132.29-103.3-170.73l-2.92,1.75a3.13,3.13,0,0,0-1.52,2.5l-1.38,22.39a3.11,3.11,0,0,1-2.66,2.92c4.47,7.07,7.5,14.23,8.48,21.29,2.27,16.3,14,48.92,29.07,81.25l7.32-9.1a3.15,3.15,0,0,1,5.51,1.22l5.32,21.79a3.16,3.16,0,0,0,1.94,2.19l21,8a3.14,3.14,0,0,1,.53,5.61L1145,543.75a3.14,3.14,0,0,0-.57.45,238.51,238.51,0,0,0,18.9,27.89C1186.91,559.49,1199.53,549.16,1197.62,542.62Z" fill="#e9725d"/><path d="M1093.41,370.17l-2.92,1.75a3.13,3.13,0,0,0-1.52,2.5l-1.38,22.39a3.11,3.11,0,0,1-2.66,2.92c-9.23-14.61-24.62-28.82-40.88-41l-10.37-16.28a3.15,3.15,0,0,1,2.92-4.83l22.35,1.95a3.15,3.15,0,0,0,2.7-1.14l3.12-3.78C1073.63,344.53,1083.16,356.27,1093.41,370.17Z" fill="#fedba1"/><path d="M1164.07,532,1145,543.75a3.14,3.14,0,0,0-.57.45c-7.65-12.91-15.14-27.39-22-41.93l7.32-9.1a3.15,3.15,0,0,1,5.51,1.22l5.32,21.79a3.16,3.16,0,0,0,1.94,2.19l21,8A3.14,3.14,0,0,1,1164.07,532Z" fill="#fedba1"/><path d="M1180.2,646.33c.11-19.78,20.08-43.83,36.33-55.61,31.18-22.6,70.58-41.24,91.32-67.84s-62.64-11.31-99.86-15.43c-24.11-2.66-16.09-10.88,21.75-29.74,96.8-10.69,161-4.47,168.47,21.05C1407.89,531.9,1319.41,589.11,1180.2,646.33Z" fill="#df6551"/></svg>