<svg id="asset" xmlns="http://www.w3.org/2000/svg" xmlns:xlink="http://www.w3.org/1999/xlink" viewBox="0 0 2000 2000"><defs><linearGradient id="linear-gradient" x1="973.02" y1="349.7" x2="1103.99" y2="349.7" gradientUnits="userSpaceOnUse"><stop offset="0.5" stop-color="#a61642"/><stop offset="1" stop-color="#8a1237"/></linearGradient><linearGradient id="linear-gradient-2" x1="459.23" y1="590" x2="879.41" y2="406.84" gradientUnits="userSpaceOnUse"><stop offset="0.09" stop-color="#851235" stop-opacity="0.8"/><stop offset="0.47" stop-color="#b92854" stop-opacity="0.49"/><stop offset="0.68" stop-color="#d93668" stop-opacity="0.3"/><stop offset="0.68" stop-color="#d73567" stop-opacity="0.33"/><stop offset="0.74" stop-color="#c52a59" stop-opacity="0.57"/><stop offset="0.81" stop-color="#b8214f" stop-opacity="0.76"/><stop offset="0.87" stop-color="#ae1b48" stop-opacity="0.89"/><stop offset="0.93" stop-color="#a81743" stop-opacity="0.97"/><stop offset="1" stop-color="#a61642"/></linearGradient><linearGradient id="linear-gradient-3" x1="534.61" y1="725.94" x2="942.98" y2="599.97" gradientUnits="userSpaceOnUse"><stop offset="0.09" stop-color="#851235"/><stop offset="0.77" stop-color="#9e153f"/><stop offset="0.95" stop-color="#a61642"/></linearGradient></defs><path d="M1164,503.87c-14.85-12.69-42.09-35.31-57.73-44.2-13.83-7.86-14.2-14.41-10.92-29.6h0c2-9.26,5.36-21.72,7.86-39.66,6.54-46.93-24.66-100.68-130.14-121l-2.82-.53c-43.8-8.11-86.49-5-127.88,6.36C786.44,290.53,733,321,682.38,359.24q-1.95,1.47-3.9,3c-2.81,2.15-5.62,4.34-8.41,6.54-72.32-73.33-77.9-69.34-84.42-60s2.79,19.44,21.41,41c12.66,14.63,20.84,37.74,25.68,54.81C555,491.39,484.93,643.52,478,699.79a101.43,101.43,0,0,0-.8,15.85c1,25.85,14.73,33.76,30.31,35.87,12.63,1.72,26.46-.38,35.67.16,22.61,1.33,30.59-46.56,49.92-47.89s-37.95,82.47-7.49,73.16c156-47.67,266.25-85.79,345.85-117.32,165.15-65.41,198.27-102.42,233.17-137.3.22-.22.43-.45.63-.68A12.58,12.58,0,0,0,1164,503.87Z" fill="#a61642"/><path d="M1103.16,390.4c-2.5,17.94-5.86,30.4-7.86,39.66C1084.72,370.51,1054,313.18,973,269.35,1078.5,289.72,1109.7,343.47,1103.16,390.4Z" fill="url(#linear-gradient)"/><path d="M678.48,362.21c-2.81,2.15-5.62,4.34-8.41,6.54-91.29,72-184.05,265.86-192,331a101.43,101.43,0,0,0-.8,15.85c34.26-30.47,98.13-131.47,160.24-183.45,82.65-69.17,171.77-84.42,209-114.71s41.61-47.16-14.5-48.73q-5.32-.15-11.56-.47c-32.89-1.69-83.64-6.57-138-9Z" fill="url(#linear-gradient-2)"/><path d="M1165.3,521.64c-.2.23-.41.46-.63.68-34.9,34.88-68,71.89-233.17,137.3-79.6,31.53-189.89,69.65-345.85,117.32-30.46,9.31,26.81-74.49,7.49-73.16S565.83,753,543.22,751.67l-.28,0c-18.23-1-27.57-22.23-15.72-36.12,43-50.39,142.22-98.63,186.26-111.51C766.09,588.62,989.6,529.6,1165.3,521.64Z" fill="url(#linear-gradient-3)"/></svg>