<svg id="asset" xmlns="http://www.w3.org/2000/svg" xmlns:xlink="http://www.w3.org/1999/xlink" viewBox="0 0 2000 2000"><defs><radialGradient id="radial-gradient" cx="1000.52" cy="662.46" r="239.9" gradientUnits="userSpaceOnUse"><stop offset="0.47" stop-color="#a08be8"/><stop offset="0.86" stop-color="#8065e0"/></radialGradient></defs><path d="M804,455.82,736.5,483l-18.37-73.07,48.44-19.48Z" fill="#8a6fe8"/><path d="M848.07,477.22a375.16,375.16,0,0,0-121.66,65.26,69.11,69.11,0,0,1,121.66-65.26Z" fill="#512bd4"/><path d="M739.68,415.8a49.58,49.58,0,0,1-60.54-34.41,48.39,48.39,0,0,1,34.47-59.7,49.56,49.56,0,0,1,60.53,34.41A48.36,48.36,0,0,1,739.68,415.8Z" fill="#d8cff7"/><path d="M1253.52,598.14c-209.91-209.91-576.14,53.1-576.14,190.77H656.54c0-123.71,110.53-287.15,334.08-306,37.85-3.18,70.68-3.17,99.05-1A376.77,376.77,0,0,1,1253.52,598.14Z" fill="url(#radial-gradient)"/><path d="M1253.52,598.14c-25.74-25.74-53.84-44.37-83.32-57a254.88,254.88,0,0,0-31.26-11C932.52,471.78,677.38,674,677.38,788.91H656.54c0-123.71,110.53-287.15,334.08-306,37.85-3.18,70.68-3.17,99.05-1a374.43,374.43,0,0,1,58.11,26.78q12.84,7.31,25,15.57A378.26,378.26,0,0,1,1253.52,598.14Z" fill="#c5d43b"/><path d="M901.09,533.05h-6c0-129.89-13.44-231.42-40-301.76l5.61-2.12C887.52,300.19,901.09,402.43,901.09,533.05Z" fill="#576e37"/><circle cx="852.7" cy="225.5" r="53.1" fill="#c5d43b"/><path d="M905.8,225.49a53.1,53.1,0,1,1-53.1-53.1A53.1,53.1,0,0,1,905.8,225.49Z" fill="#fffbf3"/><circle cx="852.7" cy="225.5" r="44.46" fill="#fffbf3"/><path d="M916,533.05c0,8.27-8,15-17.95,15s-18-6.7-18-15a12.88,12.88,0,0,1,1.75-6.44,48.61,48.61,0,0,0,3.5-7.09c4.19-11.12,9.36-25.63,9.26-29.4h6s4.31,14.35,8.67,26.72a44.32,44.32,0,0,0,4.62,9.14A13,13,0,0,1,916,533.05Z" fill="#95a527"/><circle cx="852.7" cy="225.5" r="25.44" fill="#576e37"/><path d="M905.8,225.49c-56.57-76.36-106.2,0-106.2,0a53.1,53.1,0,1,1,106.2,0Z" fill="#c5d43b"/><path d="M799.6,225.5c56.57,76.36,106.2,0,106.2,0a53.1,53.1,0,1,1-106.2,0Z" fill="#c5d43b"/><path d="M1199.79,229.39q-3.29,8.73-6.31,18.11c-.9,2.77-1.77,5.59-2.64,8.45q-1.44,4.82-2.82,9.79-1.15,4.13-2.24,8.36h0c-14.85,57.2-23.37,129.15-25.44,214.93q-.32,13.21-.42,26.86-3-1.83-6-3.62.12-12.21.42-24.06c2.11-86.26,10.74-158.68,25.79-216.3h0c.75-2.87,1.51-5.71,2.29-8.5q1.33-4.74,2.71-9.34t2.92-9.33q2.92-9,6.11-17.47Z" fill="#576e37"/><circle cx="1202.23" cy="223.6" r="53.1" fill="#c5d43b"/><path d="M1149.13,223.6a53.1,53.1,0,1,0,53.1-53.1A53.1,53.1,0,0,0,1149.13,223.6Z" fill="#fffbf3"/><circle cx="1202.23" cy="223.6" r="44.46" fill="#fffbf3"/><path d="M1172.8,524.27q-6.36-4.32-12.89-8.37-3-1.83-6-3.62t-6.16-3.58c3.53-10.49,6.53-20.48,6.53-20.48h6a6.2,6.2,0,0,0,0,.82c.5,4.74,5.29,18.15,9.22,28.58A48.67,48.67,0,0,0,1172.8,524.27Z" fill="#95a527"/><circle cx="1202.23" cy="223.6" r="25.44" fill="#576e37"/><path d="M1149.13,223.6c56.57-76.36,106.2,0,106.2,0a53.1,53.1,0,1,0-106.2,0Z" fill="#c5d43b"/><path d="M1255.33,223.6c-56.57,76.36-106.2,0-106.2,0a53.1,53.1,0,0,0,106.2,0Z" fill="#c5d43b"/></svg>