<svg id="asset" xmlns="http://www.w3.org/2000/svg" xmlns:xlink="http://www.w3.org/1999/xlink" viewBox="0 0 2000 2000"><defs><linearGradient id="linear-gradient" x1="559.54" y1="648.38" x2="744.53" y2="413.52" gradientUnits="userSpaceOnUse"><stop offset="0.34" stop-color="#28c2d1"/><stop offset="0.39" stop-color="#31c4d1"/><stop offset="0.54" stop-color="#4cc9cf"/><stop offset="0.69" stop-color="#60cccf"/><stop offset="0.84" stop-color="#6bcece"/><stop offset="1" stop-color="#6fcfce"/></linearGradient><linearGradient id="linear-gradient-2" x1="713.09" y1="253.43" x2="1067.76" y2="426.4" gradientUnits="userSpaceOnUse"><stop offset="0.31" stop-color="#6fcfce"/><stop offset="0.92" stop-color="#9fe4eb"/></linearGradient></defs><path d="M815.69,803.67l39.1-241.34-30.6-5L791.87,756.88C766,706.2,737.41,650.17,715.61,608l-27.54,14.23c51.33,99.34,140.71,275.68,141.6,277.45l27.66-14C856.93,884.88,839.49,850.46,815.69,803.67Z" fill="#4a4844"/><path d="M1174.31,560c-13.26,8.33-107.72,94.57-316.37,30.73-39.65-13.57-79.45,7.67-119.54,35.46-42.49,29.46-85.3,66.29-128.62,76.91,0,0-7-17.34-14.68-45.14-1.18-4.28-2.38-8.82-3.57-13.58s-2.31-9.47-3.43-14.5q-1.49-6.69-2.89-13.8c-14.84-75.32-20.16-184,44.11-261a215.21,215.21,0,0,1,53.52-45.81,269.43,269.43,0,0,1,47.4-22.74q14.53-5.37,30.8-9.68,6.35-1.68,12.56-3.15,10-2.37,19.63-4.23,18.22-3.53,35.18-5.31l1.51-.17q9.66-1,18.91-1.47,15.48-.81,29.87-.23C1072.56,269.51,1122,451.46,1127,470.17c.65,2.45,3.12,4.6,6.86,6.57a55.36,55.36,0,0,0,5.49,2.47c14.54,5.73,38.72,10.37,55.86,17.89.61.26,1.21.54,1.8.81C1220.49,508.85,1228.72,525.82,1174.31,560Z" fill="#6fcfce"/><path d="M1119.24,447.29c-.32-1.23-.84-3.15-1.56-5.68,1.12,2.95,2.13,5.73,3,8.32A6.5,6.5,0,0,1,1119.24,447.29Z" fill="#df6551"/><path d="M738.4,626.18c-42.49,29.46-85.3,66.29-128.62,76.91,0,0-7-17.34-14.68-45.14-1.18-4.28-2.38-8.82-3.57-13.58s-2.31-9.47-3.43-14.5q-1.49-6.69-2.89-13.8c-14.84-75.32-20.16-184,44.11-261-27.28,61.61-4,110,15.16,138.58s65.34,50.55,86.62,97.77C738.3,607.35,740.59,617.78,738.4,626.18Z" fill="url(#linear-gradient)"/><path d="M1174.31,560c-13.26,8.33-107.72,94.57-316.37,30.73-81.66-27.94-164,91.73-248.16,112.37,0,0-4.2-10.4-9.66-28,1.23,3.35,2,5.13,2,5.13,84.19-20.64,166.5-140.31,248.16-112.38,208.65,63.85,303.11-22.39,316.37-30.72,22.64-14.21,34.43-25.45,38.79-34.52C1221.58,513.65,1221.52,530.34,1174.31,560Z" fill="#fee7de"/><path d="M1011.76,436.67c-31.25-1.07-53.59-76.92-104.14-108-45.52-28-148.42-22.83-224.78-19.45a269.43,269.43,0,0,1,47.4-22.74q14.53-5.37,30.8-9.68,6.35-1.68,12.56-3.15,10-2.37,19.63-4.23,18.22-3.53,35.18-5.31c137.45,19,208.9,79.76,236.6,153.37C1072.41,437.13,1043,437.75,1011.76,436.67Z" fill="url(#linear-gradient-2)"/><path d="M720.11,338.82a7.51,7.51,0,0,1-7,8h-.5a7.5,7.5,0,0,1-7.48-7c-1.39-20.9,9.45-38.59,25.1-53.33q14.53-5.37,30.8-9.68,6.35-1.68,12.56-3.15C735.73,295.75,718.63,316.7,720.11,338.82Z" fill="#4a4844"/><path d="M769.69,332.92a7.49,7.49,0,0,1-7,8l-.51,0a7.5,7.5,0,0,1-7.47-7c-1.76-26.48,16.1-47.79,38.5-64.5q19-3.68,36.69-5.48C787.34,287.45,768.14,309.53,769.69,332.92Z" fill="#4a4844"/><path d="M815.35,332.92a7.49,7.49,0,0,1-7,8l-.51,0a7.5,7.5,0,0,1-7.47-7c-2-30.3,21.67-53.84,48.44-71.45q15.48-.81,29.87-.23C833.94,286.38,813.76,309,815.35,332.92Z" fill="#4a4844"/><path d="M631,613.69c-11.89,5.52-28.11,11.32-42.85,16.18q-1.49-6.69-2.89-13.8c14-4.64,29-10.05,39.86-15.08a7,7,0,1,1,5.88,12.7Z" fill="#4a4844"/><path d="M640.42,641c-12.55,5.81-29.94,12-45.32,17-1.18-4.28-2.38-8.82-3.57-13.58,14.82-4.85,31.32-10.7,43-16.11a7,7,0,1,1,5.89,12.7Z" fill="#4a4844"/><path d="M1195.16,497.1c-10.13,6-21.1,13-32.42,20.9-66.51,46.56-166.72,44.78-200,30.15s43.89-20.84,106.86-32.37c39.59-7.25,61.82-22.56,69.67-36.57C1153.84,484.94,1178,489.58,1195.16,497.1Z" fill="#9fe4eb"/><rect x="830.33" y="881.84" width="47.22" height="61.44" rx="12" transform="translate(-318.38 479.38) rotate(-26.62)" fill="#9fe4eb"/><circle cx="794.95" cy="787.58" r="33.7" fill="#fee7de"/><polygon points="829.97 900 857.46 885.67 877.57 925.39 850.28 940.11 829.97 900" fill="#4a4844"/><circle cx="794.95" cy="787.58" r="28.07" fill="#6fcfce"/><path d="M800,811.69c22.23-3.89,22.94-26.38,18.72-32.84-2.36-3.6-8.55-8.81-10.84-4.35s11.69,10.53,4.76,20.67-19,3.16-23.06,5.16S790.18,813.41,800,811.69Z" fill="#9fe4eb"/></svg>