<svg id="asset" xmlns="http://www.w3.org/2000/svg" xmlns:xlink="http://www.w3.org/1999/xlink" viewBox="0 0 2000 2000"><defs><linearGradient id="linear-gradient" x1="994.11" y1="678.79" x2="1281.79" y2="313.57" gradientUnits="userSpaceOnUse"><stop offset="0" stop-color="#c7862f"/><stop offset="0.02" stop-color="#c98830"/><stop offset="0.32" stop-color="#da9838"/><stop offset="0.63" stop-color="#e5a23d"/><stop offset="1" stop-color="#e8a53f"/></linearGradient><linearGradient id="linear-gradient-2" x1="708.55" y1="637.37" x2="1013.13" y2="250.69" gradientUnits="userSpaceOnUse"><stop offset="0.34" stop-color="#c7862f"/><stop offset="0.55" stop-color="#d99638"/><stop offset="0.77" stop-color="#e4a13d"/><stop offset="1" stop-color="#e8a53f"/></linearGradient><linearGradient id="linear-gradient-3" x1="938.8" y1="395.88" x2="1144.15" y2="363.75" gradientUnits="userSpaceOnUse"><stop offset="0.06" stop-color="#e8a53f"/><stop offset="0.91" stop-color="#fedea7"/></linearGradient><linearGradient id="linear-gradient-4" x1="938.52" y1="606.68" x2="1068.1" y2="442.17" gradientUnits="userSpaceOnUse"><stop offset="0.34" stop-color="#38776b"/><stop offset="0.53" stop-color="#3d8073"/><stop offset="0.82" stop-color="#4c9889"/><stop offset="1" stop-color="#57aa9a"/></linearGradient><linearGradient id="linear-gradient-5" x1="616.89" y1="845.25" x2="1006.18" y2="351.03" gradientUnits="userSpaceOnUse"><stop offset="0.34" stop-color="#c4832d"/><stop offset="0.46" stop-color="#d49336"/><stop offset="0.63" stop-color="#e8a640"/><stop offset="0.81" stop-color="#f3b146"/><stop offset="1" stop-color="#f7b548"/></linearGradient><linearGradient id="linear-gradient-6" x1="888.28" y1="217.5" x2="942.5" y2="229.98" gradientUnits="userSpaceOnUse"><stop offset="0.06" stop-color="#c4832d"/><stop offset="0.2" stop-color="#cb8e3b"/><stop offset="0.47" stop-color="#dca960"/><stop offset="0.84" stop-color="#f9d69c"/><stop offset="0.91" stop-color="#fedea7"/></linearGradient><linearGradient id="linear-gradient-7" x1="692.76" y1="313.08" x2="837.4" y2="397.6" gradientUnits="userSpaceOnUse"><stop offset="0.02" stop-color="#b87b2a" stop-opacity="0"/><stop offset="0.02" stop-color="#b87b2a" stop-opacity="0"/><stop offset="0.08" stop-color="#b87b2a" stop-opacity="0.27"/><stop offset="0.13" stop-color="#b87b2a" stop-opacity="0.49"/><stop offset="0.19" stop-color="#b87b2a" stop-opacity="0.67"/><stop offset="0.25" stop-color="#b87b2a" stop-opacity="0.82"/><stop offset="0.31" stop-color="#b87b2a" stop-opacity="0.92"/><stop offset="0.37" stop-color="#b87b2a" stop-opacity="0.98"/><stop offset="0.43" stop-color="#b87b2a"/><stop offset="0.57" stop-color="#c68f44"/><stop offset="0.86" stop-color="#ebc385"/><stop offset="1" stop-color="#fedea7"/></linearGradient></defs><path d="M1268.88,364.31c35.17-12,74.32-4.78,102.18,19.77,16,14.13,25.79,31.58,25.79,47,0,33.25,22.38,109.35-64.86,133s-115.45,31.56-115.45,31.56H1000L824.88,545.49l28.73-32.64s73.53,29.94,130.89-1.94,74-28,74-28,96.37-65.42,149.55-92.55A462.37,462.37,0,0,1,1268.88,364.31Z" fill="url(#linear-gradient)"/><path d="M1118,503.37l-3.39,1.07a.32.32,0,0,0-.09,0c-14.84,4.7-75,23.69-140,43.35-51.46,15.57-348.28,24.72-348.28,24.72s-23.5-103.31-24.83-123.27-.44-52.76,20.4-86.46,70.94-66.95,119.27-93.11,73.6-36.36,91.78-38.57,42.57,1.77,50.1,1.33a11,11,0,0,0,3.65-.8h0c4.81-1.93,9.18-7.16,34-14.72a66.68,66.68,0,0,1,17-2.83c1.58-.06,3.17-.07,4.76,0,20.51.65,41.8,10.26,58.69,28.86a107,107,0,0,1,10.67,13.89c23.09,35.63,99.13,227.84,106,246.11Z" fill="url(#linear-gradient-2)"/><path d="M1011.77,256.84c23.09,35.63,99.13,227.84,106,246.11a11.42,11.42,0,0,1-2.83,1.36l-.49.16c-6.6,2-17.48.66-34.87,2.11,0,0-37.91,15-49,18s-25.39-12.44-18.87-35,0-64.84-8.11-96.32-13.32-80.26-13-115.17c0-4.62,5-21,10.48-35.18Z" opacity="0.5" fill="url(#linear-gradient-3)"/><path d="M1118,503.37c5.54-1.44,6.36-2,5.12-7.54s-2.57-16.85-8.89-15.19-230.45,66.85-230.45,66.85l6.65,21.28,84.13-20.95Z" fill="url(#linear-gradient-4)"/><path d="M1185.2,601.36C920.65,624,742.41,637.27,653.29,663.87s-239.57,58.26-258.12,38.44-61.26-43.76,0-93,179.64-82.47,288.71-85.13,252.73,18.62,327.89,31.92,170.4,49.22,215.89,37.25C1227.66,593.38,1193,600.69,1185.2,601.36Z" fill="url(#linear-gradient-5)"/><path d="M932,231.24c-7.77,4.58-26.52,6.18-45.34.42,4.81-1.93,9.18-7.16,34-14.72a66.68,66.68,0,0,1,17-2.83C938.5,221.76,937.21,228.14,932,231.24Z" opacity="0.5" fill="url(#linear-gradient-6)"/><path d="M807.87,272.14c-6.6,30.93-44.31,85.8-83.82,109.74s-64.44,47.89-77.41,23.94,2-71.83,59.85-106.74,97-48.89,101.38-41.9S807.87,272.14,807.87,272.14Z" opacity="0.5" fill="url(#linear-gradient-7)"/></svg>