<svg id="asset" xmlns="http://www.w3.org/2000/svg" viewBox="0 0 2000 2000"><path d="M1196.71,559.42l0,0-.29.27-.19.19c-36.29,34.57-146.43,80.09-280.93,113.25-131.12,32.33-247.21,43.49-297.62,31.29l-.14,0c-2.68-.65-5.17-1.36-7.47-2.15h0c-10.59-3.62-17-8.65-18.65-15.13l-5.74-11L506,523.62c-3.11-6,4.68-11.59,9.36-6.75l79.89,82.56a9.25,9.25,0,0,0,15.86-5.61l16.85-190a5.83,5.83,0,0,1,10.34-3.16L763,554.2a9.24,9.24,0,0,0,16.24-4L821.36,340.4a5.83,5.83,0,0,1,10.28-2.48L964.78,505.27a9.24,9.24,0,0,0,16.3-3.94l39.29-196.24a5.84,5.84,0,0,1,10.69-1.92L1134.4,470.83A9.24,9.24,0,0,0,1151,469.1l45.84-127.52c2.21-6.14,11.31-4.57,11.32,2l.38,174.83,0,16.61C1210.29,542.09,1206.05,550.37,1196.71,559.42Z" fill="#f8b84f"/><polygon points="1062.81 480.25 1033.3 455.42 1049.22 420.3 1078.73 445.12 1062.81 480.25" fill="#e86e58"/><polygon points="1049.22 420.3 1056.02 450.27 1078.73 445.12 1049.22 420.3" fill="#cc5444"/><polygon points="1033.3 455.42 1056.02 450.27 1062.81 480.25 1033.3 455.42" fill="#cc5444"/><polygon points="871.78 528.61 842.27 503.79 858.19 468.66 887.7 493.49 871.78 528.61" fill="#e86e58"/><polygon points="858.19 468.66 864.98 498.64 887.7 493.49 858.19 468.66" fill="#cc5444"/><polygon points="842.27 503.79 864.98 498.64 871.78 528.61 842.27 503.79" fill="#cc5444"/><polygon points="684.17 578.13 654.66 553.3 670.58 518.17 700.09 543 684.17 578.13" fill="#e86e58"/><polygon points="670.58 518.17 677.38 548.15 700.09 543 670.58 518.17" fill="#cc5444"/><polygon points="654.66 553.3 677.38 548.15 684.17 578.13 654.66 553.3" fill="#cc5444"/><polygon points="563.82 634.32 541.02 609.11 534.39 577.95 563.53 602.96 563.82 634.32" fill="#e86e58"/><polygon points="534.39 577.95 541.02 609.11 563.53 602.96 534.39 577.95" fill="#cc5444"/><polygon points="1208.26 406.2 1200.92 438.81 1208.47 469.76 1223.87 434.59 1208.26 406.2" fill="#e86e58"/><polygon points="1208.47 469.76 1200.92 438.81 1223.87 434.59 1208.47 469.76" fill="#cc5444"/><polygon points="911.67 529.17 902.64 531.63 895.99 525.04 898.37 515.99 907.41 513.52 914.06 520.11 911.67 529.17" fill="#227be5"/><polygon points="905.02 522.58 898.37 515.99 907.41 513.52 905.02 522.58" fill="#0064da"/><polygon points="895.99 525.04 905.02 522.58 902.64 531.63 895.99 525.04" fill="#0064da"/><polygon points="911.67 529.17 905.02 522.58 914.06 520.11 911.67 529.17" fill="#0064da"/><polygon points="848.16 547.28 839.13 549.74 832.47 543.15 834.86 534.1 843.89 531.63 850.54 538.22 848.16 547.28" fill="#227be5"/><polygon points="841.51 540.69 834.86 534.1 843.89 531.63 841.51 540.69" fill="#0064da"/><polygon points="832.47 543.15 841.51 540.69 839.13 549.74 832.47 543.15" fill="#0064da"/><polygon points="848.16 547.28 841.51 540.69 850.54 538.22 848.16 547.28" fill="#0064da"/><polygon points="1102.43 485.29 1093.18 486.78 1087.27 479.51 1090.61 470.76 1099.85 469.28 1105.76 476.54 1102.43 485.29" fill="#227be5"/><polygon points="1096.52 478.03 1090.61 470.76 1099.85 469.28 1096.52 478.03" fill="#0064da"/><polygon points="1087.27 479.51 1096.52 478.03 1093.18 486.78 1087.27 479.51" fill="#0064da"/><polygon points="1102.43 485.29 1096.52 478.03 1105.76 476.54 1102.43 485.29" fill="#0064da"/><polygon points="1037.35 496.53 1028.1 498.02 1022.19 490.76 1025.53 482.01 1034.77 480.52 1040.68 487.78 1037.35 496.53" fill="#227be5"/><polygon points="1031.44 489.27 1025.53 482.01 1034.77 480.52 1031.44 489.27" fill="#0064da"/><polygon points="1022.19 490.76 1031.44 489.27 1028.1 498.02 1022.19 490.76" fill="#0064da"/><polygon points="1037.35 496.53 1031.44 489.27 1040.68 487.78 1037.35 496.53" fill="#0064da"/><polygon points="723.75 579.48 714.71 581.95 708.06 575.36 710.44 566.3 719.48 563.84 726.13 570.43 723.75 579.48" fill="#227be5"/><polygon points="717.1 572.89 710.44 566.3 719.48 563.84 717.1 572.89" fill="#0064da"/><polygon points="708.06 575.36 717.1 572.89 714.71 581.95 708.06 575.36" fill="#0064da"/><polygon points="723.75 579.48 717.1 572.89 726.13 570.43 723.75 579.48" fill="#0064da"/><polygon points="660.23 597.6 651.2 600.06 644.55 593.47 646.93 584.41 655.96 581.95 662.61 588.54 660.23 597.6" fill="#227be5"/><polygon points="653.58 591 646.93 584.41 655.96 581.95 653.58 591" fill="#0064da"/><polygon points="644.55 593.47 653.58 591 651.2 600.06 644.55 593.47" fill="#0064da"/><polygon points="660.23 597.6 653.58 591 662.61 588.54 660.23 597.6" fill="#0064da"/><polygon points="587.52 631.85 578.48 634.32 571.83 627.72 574.22 618.67 583.25 616.2 589.9 622.8 587.52 631.85" fill="#227be5"/><polygon points="580.87 625.26 574.22 618.67 583.25 616.2 580.87 625.26" fill="#0064da"/><polygon points="571.83 627.72 580.87 625.26 578.48 634.32 571.83 627.72" fill="#0064da"/><polygon points="587.52 631.85 580.87 625.26 589.9 622.8 587.52 631.85" fill="#0064da"/><polygon points="1197.85 476.35 1188.81 478.81 1182.16 472.22 1184.55 463.17 1193.58 460.7 1200.23 467.29 1197.85 476.35" fill="#227be5"/><polygon points="1191.2 469.76 1184.55 463.17 1193.58 460.7 1191.2 469.76" fill="#0064da"/><polygon points="1182.16 472.22 1191.2 469.76 1188.81 478.81 1182.16 472.22" fill="#0064da"/><polygon points="1197.85 476.35 1191.2 469.76 1200.23 467.29 1197.85 476.35" fill="#0064da"/><path d="M1214.87,534.19c-1.82,12.3-12.32,20-18.16,25.23l0,0c-.09.07-.18.17-.29.27l-.19.19c-36.29,34.57-146.43,80.09-280.93,113.25-131.12,32.33-247.21,43.49-297.62,31.29l-.14,0-7.42-2.14H610c-1.33-.18-22.63-3.31-24.39-18-1-8.42,0-8.14,0-8.14l.58-.07c63.7,5.82,178.42-6.24,306-34.68,148.75-33.16,270.56-78.68,310.69-113.25l.21-.19c.12-.1.22-.2.32-.27l0,0c2.38-1.92,3-2.17,5-5.27C1214.76,522.88,1215.89,527.31,1214.87,534.19Z" fill="#cc5444"/></svg>