<?xml version="1.0" encoding="utf-8"?>
<!-- Generator: Adobe Illustrator 24.3.0, SVG Export Plug-In . SVG Version: 6.00 Build 0)  -->
<svg version="1.1" xmlns="http://www.w3.org/2000/svg" xmlns:xlink="http://www.w3.org/1999/xlink" x="0px" y="0px"
	 viewBox="0 0 2000 2000" enable-background="new 0 0 2000 2000" xml:space="preserve">
<g id="ghost-image" display="none">
	<g display="inline" opacity="0.5">
		<path fill="#8A6FE8" d="M1469.02,1134.64c-57.66-4.68-181.26-73.79-228.06-150.36c-28.4-46.51,24.83-83.62,53.75-36.22
			c31.36,51.3,134.81,115.23,179.86,118.94L1469.02,1134.64z"/>
		<path fill="#8A6FE8" d="M1525.01,1005.66l-88.68,33.66c-15.81,6.01-23.74,23.69-17.79,39.47c6.01,15.81,23.68,23.74,39.47,17.79
			l88.68-33.66c15.81-6.01,23.74-23.69,17.79-39.47C1558.56,1007.59,1540.82,999.63,1525.01,1005.66z"/>
		<path fill="#8A6FE8" d="M1416.45,1155.13l37.83,51.37c10.17,13.62,29.44,16.44,43.06,6.26c13.63-10.17,16.44-29.43,6.27-43.06
			l-38.78-52.71L1416.45,1155.13z"/>
		<path fill="#8A6FE8" d="M1450.74,1158.21l76.78,42.91c14.86,8.25,33.6,2.87,41.85-12.01c8.25-14.83,2.87-33.6-12.01-41.85
			l-57-32.1L1450.74,1158.21z"/>
		<path fill="#8A6FE8" d="M1460.34,1121.85l84.59,24.43c16.33,4.74,33.4-4.69,38.15-20.98c4.74-16.33-4.69-33.4-20.98-38.15
			l-86.18-24.89L1460.34,1121.85z"/>
		
			<radialGradient id="SVGID_1_" cx="6130.1416" cy="9277.5146" r="6.0502" gradientTransform="matrix(10.6515 0 0 -10.6515 -63843.6289 99923.1875)" gradientUnits="userSpaceOnUse">
			<stop  offset="0" style="stop-color:#8065E0"/>
			<stop  offset="1" style="stop-color:#512BD4"/>
		</radialGradient>
		<path fill="url(#SVGID_1_)" d="M1451.57,1168.18c35.59,0,64.45-28.85,64.45-64.44c0-35.59-28.86-64.44-64.45-64.44
			c-35.58,0-64.44,28.85-64.44,64.44C1387.13,1139.33,1415.99,1168.18,1451.57,1168.18z"/>
		
			<linearGradient id="SVGID_2_" gradientUnits="userSpaceOnUse" x1="432.5041" y1="14876.1748" x2="492.2814" y2="14591.4668" gradientTransform="matrix(1 0 0 -1 694 15972)">
			<stop  offset="0" style="stop-color:#522CD5"/>
			<stop  offset="0.4397" style="stop-color:#8A6FE8"/>
		</linearGradient>
		<path fill="url(#SVGID_2_)" d="M1216.5,1374.16c0.66-59.76-7.85-181.06-69.53-282.64l-60.31,36.62
			c55.97,92.13,60.17,199.66,58.87,246.57C1145.39,1378.59,1181.58,1382.1,1216.5,1374.16z"/>
		<path fill="#522CD5" d="M1145.53,1374.05l55.85-0.26l52.14,298.71l-112.1,0.52c-8.54,0.03-15.01-6.84-14.43-15.38L1145.53,1374.05
			z"/>
		
			<linearGradient id="SVGID_3_" gradientUnits="userSpaceOnUse" x1="468.5244" y1="14600.0068" x2="646.1333" y2="14283.3535" gradientTransform="matrix(1 0 0 -1 694 15972)">
			<stop  offset="0" style="stop-color:#522CD5"/>
			<stop  offset="0.4397" style="stop-color:#8A6FE8"/>
		</linearGradient>
		<path fill="url(#SVGID_3_)" d="M1373.04,1593.94c9.68,7.65,9.52,18.71,8.77,30.39l-2.33,35.78c-0.43,6.41-6.01,11.68-12.41,11.7
			l-116.82,0.52c-7.28,0.03-12.76-5.84-12.27-13.08l0.77-37.08c0.89-13.48-3.65-18.43-14.08-31.13
			c-17.88-21.7-70.74-139.98-65.71-217.05l57.52-0.26C1220.29,1419.47,1280.66,1521.05,1373.04,1593.94z"/>
		
			<radialGradient id="SVGID_4_" cx="6400.3257" cy="8978.0986" r="6.0492" gradientTransform="matrix(20.3477 -0.0926 -0.0926 -20.3477 -128096.1875 184818.4375)" gradientUnits="userSpaceOnUse">
			<stop  offset="0.034" style="stop-color:#522CD5"/>
			<stop  offset="0.9955" style="stop-color:#8A6FE8"/>
		</radialGradient>
		<path fill="url(#SVGID_4_)" d="M1381.81,1624.33c0.55-8.17,0.69-15.98-2.5-22.59l-145.71,0.66c4.03,5.92,5.72,11.09,5.18,19.74
			l-0.78,37.08c-0.48,7.27,5.03,13.14,12.27,13.08l116.82-0.51c6.41-0.03,11.99-5.29,12.42-11.7L1381.81,1624.33z"/>
		
			<linearGradient id="SVGID_5_" gradientUnits="userSpaceOnUse" x1="103.6272" y1="14880.5391" x2="172.3586" y2="14557.1797" gradientTransform="matrix(1 0 0 -1 694 15972)">
			<stop  offset="0" style="stop-color:#522CD5"/>
			<stop  offset="0.4397" style="stop-color:#8A6FE8"/>
		</linearGradient>
		<path fill="url(#SVGID_5_)" d="M847.6,1418.81l-71.31-8.88l40.1-322.45l71.32,8.85L847.6,1418.81z"/>
		<path fill="#522CD5" d="M781.46,1371.7l56.51-0.26l15.64,302.04L740.18,1674c-8.62,0.03-14.31-6.93-12.68-15.55L781.46,1371.7z"/>
		
			<linearGradient id="SVGID_6_" gradientUnits="userSpaceOnUse" x1="48.8044" y1="14573.0049" x2="202.8481" y2="14279.4717" gradientTransform="matrix(1 0 0 -1 694 15972)">
			<stop  offset="0" style="stop-color:#522CD5"/>
			<stop  offset="0.4397" style="stop-color:#8A6FE8"/>
		</linearGradient>
		<path fill="url(#SVGID_6_)" d="M945.67,1595.09c8.71,7.88,8.51,18,6.27,29.81l-6.81,36.19c-1.21,6.47-7.53,11.78-14,11.81
			l-162.21,0.75c-7.36,0.02-12.19-5.89-10.81-13.25l5.78-37.51c2.56-13.62,0.57-17.65,0.83-35.13
			c0.49-32.76,15.61-138.25,30.27-216.16l58.21-0.25C851.42,1417.63,871.48,1527.86,945.67,1595.09z"/>
		
			<radialGradient id="SVGID_7_" cx="6408.5767" cy="8954.5996" r="6.0492" gradientTransform="matrix(22.145 -0.1007 -0.1006 -22.1216 -140153.875 200277.2969)" gradientUnits="userSpaceOnUse">
			<stop  offset="0.034" style="stop-color:#522CD5"/>
			<stop  offset="0.9955" style="stop-color:#8A6FE8"/>
		</radialGradient>
		<path fill="url(#SVGID_7_)" d="M763.92,1622.92l-5.78,37.51c-1.38,7.33,3.45,13.28,10.81,13.25l162.2-0.74
			c6.5-0.03,12.79-5.35,14-11.81l6.81-36.19c1.61-8.57,2.1-16.24-1.03-22.82l-185.86,0.83
			C765.36,1609.61,765.53,1614.39,763.92,1622.92z"/>
		<path fill="#8A6FE8" d="M803.96,455.82l-67.46,27.13l-18.37-73.07l48.43-19.49L803.96,455.82z"/>
		<path fill="#512BD4" d="M788.84,581.95c38.16,0,69.1-30.94,69.1-69.1c0-38.16-30.94-69.1-69.1-69.1s-69.1,30.94-69.1,69.1
			C719.74,551.01,750.68,581.95,788.84,581.95z"/>
		
			<radialGradient id="SVGID_8_" cx="6601.9434" cy="8790.5693" r="6.0492" gradientTransform="matrix(61.9498 0 0 -61.9498 -407973.375 545342.125)" gradientUnits="userSpaceOnUse">
			<stop  offset="0.4744" style="stop-color:#A08BE8"/>
			<stop  offset="0.8618" style="stop-color:#8065E0"/>
		</radialGradient>
		<path fill="url(#SVGID_8_)" d="M1300.17,939.67c24.86-95.46,8.83-171.66,8.83-171.66h22.45l0.54-0.43
			c-32.16-175.17-185.6-307.91-370.05-307.91c-207.82,0-376.29,168.47-376.29,376.29c0,207.82,168.44,376.29,376.29,376.29
			c163.98,0,303.45-104.92,354.99-251.25C1318.43,954.79,1318.29,943.64,1300.17,939.67z"/>
		<path fill="#D8CFF7" d="M1286.38,1026.53h-648.9c14.57,24.75,31.88,47.66,51.54,68.36h545.85
			C1254.5,1074.17,1271.8,1051.28,1286.38,1026.53z"/>
		
			<radialGradient id="SVGID_9_" cx="6575.8799" cy="8822.0029" r="6.0492" gradientTransform="matrix(48.2581 0 0 -48.2581 -316107.375 426431.9688)" gradientUnits="userSpaceOnUse">
			<stop  offset="0.0933" style="stop-color:#E1DFDD"/>
			<stop  offset="0.8998" style="stop-color:#FFFFFF"/>
		</radialGradient>
		<path fill="url(#SVGID_9_)" d="M1300.17,939.67c24.55-94.28,9.22-169.73,8.86-171.57H918.6c0,0-24.61-2.5-24.61,19.98
			c0,22.48,0.93,85.94,0.93,156.17c0,14.43,11.81,21.38,21.12,21.38C916.07,965.59,1256.6,965.57,1300.17,939.67z"/>
		<path fill="#A08BE8" d="M1065.02,939.87c0,0,60.05-47.51,71.75-56.31c11.72-8.8,21.96-9.29,32.71,0
			c10.75,9.29,70.85,56.31,70.85,56.31H1065.02z"/>
		<path fill="#512BD4" d="M1315.41,965.33c0,0,10.43-20.06-15.24-25.67c0.03-0.08-383.82-0.28-383.82-0.28
			c-8.93,0-20.43-5.32-21.41-14c0,6.21,0.03,12.47,0.03,18.83c0,13.11,9.75,20.03,18.48,21.18c0.86,0.11,1.75,0.2,2.65,0.2h26.24
			L1315.41,965.33z"/>
		<path fill="#512BD4" d="M1286.53,851.61c0.41-27.33-12.44-49.69-28.69-49.93c-16.25-0.24-29.76,21.72-30.17,49.05
			c-0.41,27.34,12.44,49.69,28.69,49.93C1272.61,900.9,1286.12,878.95,1286.53,851.61z"/>
		<path fill="#8065E0" d="M1256.74,825.01c-10.75,10.75-10.75,28.17,0,38.92c7.36,7.36,17.85,9.69,27.19,6.96
			c1.58-5.89,2.5-12.42,2.62-19.26c0.2-13.39-2.79-25.58-7.82-34.58C1270.88,816.36,1262.75,819,1256.74,825.01z"/>
		<path fill="#512BD4" d="M1020.8,900.92c16.25-0.24,29.1-22.6,28.69-49.93c-0.41-27.33-13.91-49.3-30.17-49.05
			c-16.25,0.24-29.1,22.6-28.69,49.93C991.04,879.19,1004.54,901.16,1020.8,900.92z"/>
		<path fill="#8065E0" d="M1019.83,826.62c-10.75,10.75-10.75,28.17,0,38.92c7.33,7.33,17.74,9.63,27.02,6.98
			c1.78-6.55,2.76-13.85,2.64-21.59c-0.17-12.42-3.07-23.69-7.7-32.28C1033.95,817.97,1025.84,820.61,1019.83,826.62z"/>
		<path fill="#512BD4" d="M1084.82,1115.23l123.17-0.56l-0.5-108.94l-123.17,0.56L1084.82,1115.23z"/>
		<path fill="#FFFFFF" d="M1106.12,1074.51c-0.83,0-1.52-0.26-2.1-0.8c-0.57-0.55-0.86-1.24-0.86-1.98c0-0.77,0.28-1.47,0.86-2.01
			c0.57-0.57,1.26-0.83,2.1-0.83c0.83,0,1.52,0.29,2.1,0.83c0.57,0.54,0.89,1.24,0.89,2.01c0,0.77-0.28,1.43-0.86,1.98
			C1107.68,1074.22,1106.96,1074.51,1106.12,1074.51z"/>
		<path fill="#FFFFFF" d="M1138.89,1073.97h-5.32l-14.08-22.11c-0.34-0.54-0.67-1.15-0.9-1.75h-0.11c0.11,0.63,0.18,2.01,0.18,4.14
			l0.03,19.74h-4.72l-0.05-30.12h5.66l13.6,21.59c0.57,0.89,0.94,1.52,1.12,1.84h0.08c-0.15-0.8-0.2-2.15-0.2-4.05l-0.03-19.4h4.69
			L1138.89,1073.97z"/>
		<path fill="#FFFFFF" d="M1161.83,1073.94l-16.5,0.03l-0.06-30.12l15.84-0.03v4.25l-10.95,0.03l0.03,8.54l10.09-0.03v4.23
			l-10.09,0.03l0.02,8.91l11.61-0.03V1073.94z"/>
		<path fill="#FFFFFF" d="M1185.2,1048.01l-8.45,0.02l0.06,25.87h-4.89l-0.06-25.87l-8.42,0.03v-4.25l21.73-0.06L1185.2,1048.01z"/>
		<path fill="#8A6FE8" d="M529.43,1254.19l40.18,57.34c10.81,15.24,31.93,18.74,47.17,7.94c15.23-10.81,18.74-31.93,7.93-47.14
			l-49.73-69.3L529.43,1254.19z"/>
		<path fill="#8A6FE8" d="M460.13,1232.49L449,1301.65c-2.82,18.43,9.8,35.7,28.28,38.52c18.43,2.82,35.7-9.8,38.52-28.29
			l11.38-70.88L460.13,1232.49z"/>
		<path fill="#8A6FE8" d="M504.99,1240.3l-9.34,69.42c-2.36,18.48,10.75,35.44,29.23,37.8c18.48,2.36,35.44-10.75,37.83-29.23
			l9.6-71.2L504.99,1240.3z"/>
		<path fill="#8A6FE8" d="M442.74,1211.82l-25.09,65.39c-6.58,17.48,2.3,36.99,19.78,43.52c17.48,6.58,36.99-2.3,43.52-19.77
			l25.73-67.06L442.74,1211.82z"/>
		
			<linearGradient id="SVGID_10_" gradientUnits="userSpaceOnUse" x1="-100.864" y1="15112.4697" x2="-100.864" y2="14731.5771" gradientTransform="matrix(1 0 0 -1 694 15972)">
			<stop  offset="0.2495" style="stop-color:#967FE6"/>
			<stop  offset="1" style="stop-color:#8A6FE8"/>
		</linearGradient>
		<path fill="url(#SVGID_10_)" d="M489.3,1240.42c-27.91-57-44.21-154.45,1.78-241.6c27.97-52.92,89.19-120.03,222.28-139.29
			l10.69,73.79c-80.8,11.7-138.52,46.39-167,100.32c-30.84,58.41-22.59,129.43-0.78,174.04L489.3,1240.42z"/>
		
			<radialGradient id="SVGID_11_" cx="6115.6206" cy="9256.3447" r="6.0492" gradientTransform="matrix(11.3989 0 0 -11.3989 -68974.6094 106373.5469)" gradientUnits="userSpaceOnUse">
			<stop  offset="0" style="stop-color:#8065E0"/>
			<stop  offset="1" style="stop-color:#512BD4"/>
		</radialGradient>
		<path fill="url(#SVGID_11_)" d="M738.97,954.1c38.06,0,68.9-30.84,68.9-68.9c0-38.06-30.84-68.9-68.9-68.9
			c-38.06,0-68.9,30.84-68.9,68.9C670.07,923.23,700.92,954.1,738.97,954.1z"/>
		
			<radialGradient id="SVGID_12_" cx="6401.9028" cy="8960.3008" r="6.0492" gradientTransform="matrix(22.7292 0 0 -22.7292 -145005.2656 204814.2031)" gradientUnits="userSpaceOnUse">
			<stop  offset="0" style="stop-color:#8065E0"/>
			<stop  offset="1" style="stop-color:#512BD4"/>
		</radialGradient>
		<path fill="url(#SVGID_12_)" d="M508.62,1277.33c39.09,0,70.77-31.68,70.77-70.77c0-39.09-31.68-70.77-70.77-70.77
			c-39.09,0-70.77,31.68-70.77,70.77C437.85,1245.65,469.55,1277.33,508.62,1277.33z"/>
		<path fill="#D8CFF7" d="M739.68,415.8c-26.24,6.99-53.32-8.39-60.54-34.41c-7.19-26.01,8.22-52.72,34.46-59.7
			c26.24-6.98,53.32,8.39,60.54,34.41C781.36,382.11,765.95,408.78,739.68,415.8z"/>
	</g>
</g>
<g id="bot-base" display="none">
	<g display="inline">
		
			<radialGradient id="SVGID_13_" cx="6601.9434" cy="8790.5693" r="6.0492" gradientTransform="matrix(61.9498 0 0 -61.9498 -407973.375 545342.125)" gradientUnits="userSpaceOnUse">
			<stop  offset="0.4744" style="stop-color:#A08BE8"/>
			<stop  offset="0.8618" style="stop-color:#8065E0"/>
		</radialGradient>
		<path fill="url(#SVGID_13_)" d="M1300.17,939.67c24.86-95.46,8.83-171.66,8.83-171.66h22.45l0.54-0.43
			c-32.16-175.17-185.6-307.91-370.05-307.91c-207.82,0-376.29,168.47-376.29,376.29c0,207.82,168.44,376.29,376.29,376.29
			c163.98,0,303.45-104.92,354.99-251.25C1318.43,954.79,1318.29,943.64,1300.17,939.67z"/>
		<path fill="#D8CFF7" d="M1286.38,1026.53h-648.9c14.57,24.75,31.88,47.66,51.54,68.36h545.85
			C1254.5,1074.17,1271.8,1051.28,1286.38,1026.53z"/>
		
			<radialGradient id="SVGID_14_" cx="6575.8799" cy="8822.0029" r="6.0492" gradientTransform="matrix(48.2581 0 0 -48.2581 -316107.375 426431.9688)" gradientUnits="userSpaceOnUse">
			<stop  offset="0.0933" style="stop-color:#E1DFDD"/>
			<stop  offset="0.8998" style="stop-color:#FFFFFF"/>
		</radialGradient>
		<path fill="url(#SVGID_14_)" d="M1300.17,939.67c24.55-94.28,9.22-169.73,8.86-171.57H918.6c0,0-24.61-2.5-24.61,19.98
			c0,22.48,0.93,85.94,0.93,156.17c0,14.43,11.81,21.38,21.12,21.38C916.07,965.59,1256.6,965.57,1300.17,939.67z"/>
		<path fill="#A08BE8" d="M1065.02,939.87c0,0,60.05-47.51,71.75-56.31c11.72-8.8,21.96-9.29,32.71,0
			c10.75,9.29,70.85,56.31,70.85,56.31H1065.02z"/>
		<path fill="#512BD4" d="M1315.41,965.33c0,0,10.43-20.06-15.24-25.67c0.03-0.08-383.82-0.28-383.82-0.28
			c-8.93,0-20.43-5.32-21.41-14c0,6.21,0.03,12.47,0.03,18.83c0,13.11,9.75,20.03,18.48,21.18c0.86,0.11,1.75,0.2,2.65,0.2h26.24
			L1315.41,965.33z"/>
		<path fill="#512BD4" d="M1084.82,1115.23l123.17-0.56l-0.5-108.94l-123.17,0.56L1084.82,1115.23z"/>
		<path fill="#FFFFFF" d="M1106.12,1074.51c-0.83,0-1.52-0.26-2.1-0.8c-0.57-0.55-0.86-1.24-0.86-1.98c0-0.77,0.28-1.47,0.86-2.01
			c0.57-0.57,1.26-0.83,2.1-0.83c0.83,0,1.52,0.29,2.1,0.83c0.57,0.54,0.89,1.24,0.89,2.01c0,0.77-0.28,1.43-0.86,1.98
			C1107.68,1074.22,1106.96,1074.51,1106.12,1074.51z"/>
		<path fill="#FFFFFF" d="M1138.89,1073.97h-5.32l-14.08-22.11c-0.34-0.54-0.67-1.15-0.9-1.75h-0.11c0.11,0.63,0.18,2.01,0.18,4.14
			l0.03,19.74h-4.72l-0.05-30.12h5.66l13.6,21.59c0.57,0.89,0.94,1.52,1.12,1.84h0.08c-0.15-0.8-0.2-2.15-0.2-4.05l-0.03-19.4h4.69
			L1138.89,1073.97z"/>
		<path fill="#FFFFFF" d="M1161.83,1073.94l-16.5,0.03l-0.06-30.12l15.84-0.03v4.25l-10.95,0.03l0.03,8.54l10.09-0.03v4.23
			l-10.09,0.03l0.02,8.91l11.61-0.03V1073.94z"/>
		<path fill="#FFFFFF" d="M1185.2,1048.01l-8.45,0.02l0.06,25.87h-4.89l-0.06-25.87l-8.42,0.03v-4.25l21.73-0.06L1185.2,1048.01z"/>
	</g>
</g>
<g id="asset">
	<g>
		<path fill="#8A6FE8" d="M803.96,455.82l-67.46,27.13l-18.37-73.07l48.43-19.49L803.96,455.82z"/>
		<path fill="#512BD4" d="M848.07,477.22c-44.76,14.18-85.89,36.52-121.66,65.26c-4.28-8.98-6.67-19.03-6.67-29.63
			c0-38.17,30.94-69.1,69.1-69.1C813.97,443.75,835.97,457.16,848.07,477.22z"/>
		<path fill="#D8CFF7" d="M739.68,415.8c-26.24,6.99-53.32-8.39-60.54-34.41c-7.19-26.01,8.22-52.72,34.46-59.7
			c26.24-6.98,53.32,8.39,60.54,34.41C781.36,382.11,765.95,408.78,739.68,415.8z"/>
	</g>
	<g>
		<path fill="#4ADAFA" d="M1024.87,665.39c30.75,0,57.51,21.46,71.31,53.1c-4.11-51.1-36.16-90.87-75.1-90.87
			c-41.73,0-75.55,45.66-75.55,101.99c0,4.31,0.2,8.55,0.58,12.72C955,698.12,986.89,665.39,1024.87,665.39z"/>
		<path fill="#4ADAFA" d="M1179.27,665.39c-30.75,0-57.51,21.46-71.31,53.1c4.11-51.1,36.16-90.87,75.1-90.87
			c41.73,0,75.55,45.66,75.55,101.99c0,4.31-0.2,8.55-0.58,12.72C1249.13,698.12,1217.25,665.39,1179.27,665.39z"/>
		<g>
			<path fill="#CC5444" d="M1431.62,566.07c-1.82-11.51-8.08-21.21-16.74-27.65c1.12-4.79,1.36-9.88,0.55-15.04
				c-0.6-3.76-1.72-7.3-3.26-10.58c10.7-10.59,16.32-26,13.79-42c-4.18-26.41-28.99-44.43-55.4-40.25
				c-6.39,1.01-12.28,3.24-17.5,6.4c-9.32-8.76-22.44-13.27-36.05-11.12c-0.09,0.01-0.17,0.03-0.26,0.05
				c-7.92-15.19-24.89-24.35-42.74-21.52c-10.44,1.65-19.33,7.12-25.47,14.76c-5.19-14.06-18.71-24.08-34.57-24.08
				c-12.46,0-23.46,6.19-30.13,15.65c-5.9-6.2-14.22-10.07-23.45-10.07c-17.88,0-32.37,14.49-32.37,32.37
				c0,0.49,0.02,0.98,0.04,1.46c-3.72-0.26-7.52-0.11-11.36,0.5c-22.13,3.51-38.58,20.96-41.83,41.98
				c131.47,41.32,231.84,152.84,257.14,290.65l-0.54,0.43H1309c0,0,1.57,7.44,2.96,20.59c4.37,0.58,8.89,0.56,13.46-0.16
				c25.4-4.02,42.72-27.87,38.7-53.27c-1.33-8.39-4.83-15.89-9.83-22.03c1.51-1.73,2.79-3.65,3.83-5.7
				c5.9,1.74,12.28,2.23,18.76,1.2c23.37-3.7,39.31-25.64,35.6-49.01c-1.56-9.84-6.36-18.35-13.13-24.65
				c3.62-6.12,5.21-13.48,4.01-21.05c-0.03-0.22-0.08-0.43-0.12-0.65C1422.56,606.65,1434.92,586.93,1431.62,566.07z"/>
			<path fill="#E86E58" d="M1295.07,488.44c4.46-6.17,11.4-10.5,19.56-11.4c15.32-1.69,29.11,9.36,30.8,24.68
				c0.2,1.81,0.22,3.6,0.07,5.35c3.91-5.41,5.9-12.24,5.11-19.4c-1.69-15.32-15.48-26.37-30.8-24.68
				C1306.31,464.48,1296.13,475.38,1295.07,488.44z"/>
			<path fill="#E86E58" d="M1217.54,549.53c-1.84-7.38-0.67-15.49,3.91-22.3c8.59-12.8,25.93-16.21,38.72-7.62
				c1.51,1.02,2.89,2.16,4.13,3.39c-1.61-6.48-5.54-12.41-11.52-16.42c-12.8-8.59-30.13-5.18-38.72,7.62
				C1206.48,525.48,1208.25,540.29,1217.54,549.53z"/>
			<path fill="#E86E58" d="M1294.19,586.1c3.02-6.85,8.85-12.52,16.6-15.23c14.55-5.09,30.34,2.21,35.27,16.31
				c0.58,1.67,0.98,3.35,1.22,5.04c2.65-6.01,3.12-12.91,0.82-19.5c-4.93-14.09-20.72-21.39-35.27-16.31
				C1299.99,560.89,1292.42,573.52,1294.19,586.1z"/>
			<path fill="#E86E58" d="M1225.13,494.48c-1.84-7.38-0.67-15.49,3.91-22.3c8.59-12.8,25.93-16.21,38.72-7.62
				c1.51,1.02,2.89,2.16,4.13,3.39c-1.61-6.48-5.54-12.41-11.52-16.42c-12.8-8.59-30.13-5.18-38.72,7.62
				C1214.07,470.44,1215.84,485.25,1225.13,494.48z"/>
			<path fill="#E86E58" d="M1329.45,652.24c4.7-5.82,11.82-9.77,20-10.36c15.37-1.11,28.7,10.07,29.77,24.97
				c0.13,1.76,0.07,3.49-0.14,5.18c4.13-5.11,6.39-11.64,5.89-18.61c-1.07-14.89-14.4-26.07-29.77-24.96
				C1341.64,629.43,1331.03,639.63,1329.45,652.24z"/>
		</g>
		<g>
			<path fill="#8B9B23" d="M747.63,506.6c3.19-87.9-4.42-130.64-9.43-148.66c-2.17-7.8-0.09-16.18,5.47-22.06
				c22.58-23.86,85.36-78.39,184.95-74.78c80.57,2.92,112.77,13.88,117.87,44.68c5.1,30.8,53.15,157.87,66.36,171
				C1126.06,489.91,747.63,506.6,747.63,506.6z"/>
			<path fill="#4ADAFA" d="M747.63,506.6c0,0,378.43-16.69,365.22-29.82c-6.43-6.39-21.11-39.76-35.07-75.88
				c-13.96-9.77-32.01-20.27-79.26-23.16c-108.44-6.65-210.74,45.93-250.2,77.66C748.51,470.46,748.32,487.46,747.63,506.6z"/>
			<path fill="#8B9B23" d="M707.17,503.32c138.16-46.98,310.14-75.8,430.36-74.32c1.53,22.85-3.11,57.72-66.42,61.91
				c-155.14,10.26-264.59,43.66-329.34,65.99C698.25,571.91,693.16,520.04,707.17,503.32z"/>
		</g>
		<g>
			<g>
				<path fill="#CC5444" d="M757.64,587.36c3.1-10.4-1.12-21.25-9.68-27c4.83-5.34,7.77-12.43,7.77-20.2
					c0-15.94-12.37-28.98-28.04-30.06c-0.12-0.17-0.24-0.34-0.36-0.5c8.06-13.5,6.27-31.24-5.35-42.86
					c-13.73-13.73-36-13.73-49.73,0c-1.7,1.7-3.19,3.53-4.47,5.47c-5.02-15.02-17.02-27.44-33.35-32.3
					c-18.35-5.47-37.34,0.05-49.97,12.72c-4.09-9.57-13.58-16.27-24.64-16.27c-14.8,0-26.79,11.99-26.79,26.79
					c0,0.28,0.01,0.56,0.02,0.84c-3.98-2.35-8.29-4.28-12.92-5.66c-27.65-8.24-56.6,5.22-68.6,30.49c-5.24-2.5-11.1-3.9-17.29-3.9
					c-22.19,0-40.19,17.99-40.19,40.19c0,19.33,13.65,35.47,31.83,39.31c0.1,4.4,1.05,8.59,2.69,12.41
					c-17.51,3.86-30.62,19.47-30.62,38.14c0,19.15,13.78,35.07,31.97,38.41c-11.77,18.75-9.5,43.79,6.81,60.11
					c15.24,15.24,38.09,18.22,56.32,8.96c4.58,13.06,15.14,23.82,29.42,28.07c3.77,1.12,7.56,1.72,11.32,1.84
					c-4.5,22.4,8.74,44.94,31.07,51.59c36.26,4.13,42.96-18.2,42.96-18.2s17.19,4.45,34.26-2.02c-0.39-0.4-0.77-0.8-1.17-1.18
					c9.22-2.83,16.89-10.06,19.85-19.99c2.71-9.11,0.86-18.5-4.23-25.7c2.74,1.54,5.69,2.82,8.83,3.75
					c22.67,6.75,46.53-6.15,53.28-28.82c3.52-11.83,1.69-23.97-4.08-33.84c17.4-3.14,32.45-15.73,37.84-33.83
					c4.44-14.92,1.35-30.29-7.07-42.04C751.07,599.16,755.65,594.01,757.64,587.36z"/>
				<g>
					<path fill="#E86E58" d="M503,509.26c3.38-6.82,9.52-12.23,17.42-14.46c14.83-4.19,30.25,4.45,34.44,19.28
						c0.49,1.75,0.8,3.51,0.95,5.26c2.97-5.98,3.81-13.04,1.86-19.97c-4.19-14.83-19.6-23.47-34.44-19.28
						C510.15,483.78,501.9,496.21,503,509.26z"/>
					<path fill="#E86E58" d="M454.13,608.93c-3.03-6.98-3.2-15.17,0.19-22.64c6.37-14.03,22.91-20.25,36.95-13.88
						c1.66,0.75,3.2,1.65,4.64,2.67c-2.66-6.13-7.51-11.33-14.06-14.3c-14.03-6.37-30.58-0.16-36.95,13.88
						C439.27,587.03,443.44,601.35,454.13,608.93z"/>
					<path fill="#E86E58" d="M607.9,570.66c1.03-8.96,5.76-17.85,13.79-24.27c15.08-12.05,36.09-10.84,46.92,2.72
						c1.28,1.6,2.35,3.31,3.24,5.08c0.9-7.86-1.04-15.77-6.11-22.1c-10.84-13.56-31.85-14.77-46.92-2.72
						C605.53,540,601.29,557.4,607.9,570.66z"/>
					<path fill="#E86E58" d="M555.74,710.69c1.85-7.25,6.67-13.81,13.87-17.75c13.51-7.41,30.29-2.8,37.47,10.29
						c0.85,1.55,1.52,3.14,2.03,4.77c1.62-6.36,0.96-13.25-2.4-19.37c-7.18-13.09-23.95-17.7-37.47-10.29
						C557.32,684.87,551.93,698.56,555.74,710.69z"/>
					<path fill="#E86E58" d="M645.63,611.22c7.47-0.33,15.15,2.39,21.01,8.14c11,10.79,11.44,28.18,0.98,38.84
						c-1.24,1.26-2.57,2.36-3.98,3.32c6.56-0.29,12.96-2.91,17.85-7.89c10.46-10.66,10.02-28.05-0.98-38.84
						C670.8,605.27,656.13,604.06,645.63,611.22z"/>
				</g>
			</g>
			<path fill="#E86E58" d="M518.46,655.6c-3.03-6.98-3.2-15.17,0.19-22.64c6.37-14.03,22.91-20.25,36.95-13.88
				c1.66,0.75,3.2,1.65,4.64,2.67c-2.66-6.13-7.51-11.33-14.06-14.3c-14.03-6.37-30.58-0.16-36.95,13.88
				C503.6,633.7,507.77,648.02,518.46,655.6z"/>
		</g>
	</g>
</g>
</svg>
