<svg xmlns="http://www.w3.org/2000/svg" viewBox="0 0 818.19 603.92"><g id="Layer_2" data-name="Layer 2"><g id="asset"><g id="dungeons-helmet"><path d="M300.18,424.49c-14.45-.47-22.14-.74-22.14-.74s-11.89,80.54-9.38,165.93c.57,6.88-1.14,10.81-6.09,12.74l13.38.69c11.88-.42,15.91-4.19,15.07-14.23C288.71,510.36,298.58,436,300.18,424.49Z" fill="#3f3c38"/><path d="M718,369.48l-49.69-179S493.56,187.63,384.21,0c-24,295.5,221.33,321.58,221.33,321.58l11.89,45.34Z" fill="#e29e3b"/><path d="M668.27,190.48S496.18,187.67,386.69,4.21C440.11,216,583,239.46,583,239.46l18.71,71.6,1.41.32,14.34,55.53L718,369.47Z" fill="#f7b548"/><path d="M133.9,460c-3.54,65.63,12.56,106.81,22.84,126,4.19,7.81,12.85,12.87,18.69,13.85l78.16,4.06c11.88-.42,15.91-4.19,15.07-14.23-2.51-85.4,9.38-165.93,9.38-165.93s106.59,3.72,273.12,7.78,233.12-11,242.21-9.24-32-292.32-310.59-290C192,134.65,141.36,321.83,133.9,460Z" fill="#f7f6f6"/><path d="M220.6,598.25c-10.28-19.16-26.39-60.35-22.84-126,7.46-138.2,58.1-325.37,348.87-327.77,12.46-.1,24.44.4,36,1.43-29.29-9-62.41-14-99.81-13.68C192,134.64,141.37,321.82,133.91,460c-3.54,65.63,12.56,106.81,22.84,126,4.19,7.81,12.85,12.87,18.69,13.85l47.15,1.48A23.13,23.13,0,0,1,220.6,598.25Z" fill="#dddbda"/><path d="M335.4,379.09l-49.69-179S111,197.24,1.65,9.61C-22.32,305.11,223,331.19,223,331.19l11.89,45.34Z" fill="#e29e3b"/><path d="M285.71,200.09S113.62,197.28,4.13,13.82C57.55,225.66,200.42,249.08,200.42,249.08l18.71,71.6,1.41.32,14.34,55.53,100.53,2.56Z" fill="#f7b548"/><path d="M818,412.32c1.19,5.75-3.09,11.18-9.58,12.12-26.75,3.9-103,12.08-264.43,10.51-176.76-1.72-368-11.61-418.34-14.36-6.89-.38-12.09-5.8-11.37-11.84l5.51-46c.67-5.63,6.27-9.7,12.68-9.22,45.82,3.42,222.67,15.63,416.85,15.74,135.37.08,217.25-7.83,245.76-11.17,6.38-.75,12.37,3.13,13.54,8.76Z" fill="#908d89"/><ellipse cx="171.28" cy="392.18" rx="16.83" ry="19.09" transform="translate(-232.37 534.34) rotate(-85.81)" fill="#dddbda"/><ellipse cx="251.23" cy="394.95" rx="16.83" ry="19.09" transform="translate(-161.03 616.64) rotate(-85.81)" fill="#dddbda"/><ellipse cx="338.29" cy="397.72" rx="16.83" ry="19.09" transform="translate(-83.09 706.03) rotate(-85.81)" fill="#dddbda"/><ellipse cx="428.06" cy="398.91" rx="16.83" ry="19.09" transform="translate(-1.08 796.66) rotate(-85.81)" fill="#dddbda"/><ellipse cx="512.84" cy="401.24" rx="16.83" ry="19.09" transform="translate(75.18 883.37) rotate(-85.81)" fill="#dddbda"/><ellipse cx="594.9" cy="401.65" rx="16.83" ry="19.09" transform="translate(150.84 965.59) rotate(-85.81)" fill="#dddbda"/><ellipse cx="679.66" cy="400.5" rx="16.83" ry="19.09" transform="translate(230.55 1049.07) rotate(-85.81)" fill="#dddbda"/><ellipse cx="763.53" cy="396.39" rx="16.83" ry="19.09" transform="translate(312.38 1128.9) rotate(-85.81)" fill="#dddbda"/><polygon points="614.34 345.48 481.42 282.81 528.73 175.89 643.96 261.28 614.34 345.48" fill="#c4c1be"/><polygon points="614.34 345.48 481.42 282.81 528.73 175.89 614.34 345.48" fill="#a7a4a0"/></g></g></g></svg>