<?xml version="1.0" encoding="utf-8"?>
<!-- Generator: Adobe Illustrator 26.0.0, SVG Export Plug-In . SVG Version: 6.00 Build 0)  -->
<svg version="1.1" xmlns="http://www.w3.org/2000/svg" xmlns:xlink="http://www.w3.org/1999/xlink" x="0px" y="0px"
	 viewBox="0 0 214.74 150" style="enable-background:new 0 0 214.74 150;" xml:space="preserve">
<style type="text/css">
	.st0{fill:#8A6FE8;}
	.st1{fill:url(#SVGID_1_);}
	.st2{fill:url(#SVGID_00000049925782791960634530000014260073455777307293_);}
	.st3{fill:url(#SVGID_00000062151687704738484100000007401514444475120257_);}
	.st4{fill:url(#SVGID_00000156580776017065639970000000526562393475622046_);}
	.st5{fill:#E3DBFF;}
	.st6{fill:#9127B2;}
	.st7{fill:#AE25A3;}
	.st8{fill:none;stroke:#9127B2;stroke-width:8;stroke-linecap:round;stroke-miterlimit:10;}
	.st9{fill:none;stroke:#AE25A3;stroke-width:8;stroke-linecap:round;stroke-miterlimit:10;}
	.st10{fill:#FFBE46;}
	.st11{fill:#FFBC46;}
	.st12{fill:#FFBB47;}
	.st13{fill:#FFB947;}
	.st14{fill:#FFB848;}
	.st15{fill:#FFB648;}
	.st16{fill:#FFB549;}
	.st17{fill:#FFB349;}
	.st18{fill:#FFB14A;}
	.st19{fill:#FFB04A;}
	.st20{fill:#FFAE4B;}
	.st21{fill:#FFAD4B;}
	.st22{fill:#FFAB4C;}
	.st23{fill:#FFAA4C;}
	.st24{fill:#FFA84D;}
	.st25{fill:#FFA74D;}
	.st26{fill:#FFA54E;}
	.st27{fill:#FFA34E;}
	.st28{fill:#FFA24F;}
	.st29{fill:#FFA04F;}
	.st30{fill:#FF9F50;}
	.st31{fill:#FF9D50;}
	.st32{fill:#FF9C51;}
	.st33{fill:#FF9A51;}
	.st34{fill:#FF9852;}
	.st35{fill:#FF9752;}
	.st36{fill:#FF9553;}
	.st37{fill:#FF9453;}
	.st38{fill:#FF9254;}
	.st39{fill:#FF9154;}
	.st40{fill:#FF8F55;}
	.st41{fill:#FF8E55;}
	.st42{fill:#FF8C56;}
	.st43{fill:#FF8A56;}
	.st44{fill:#FF8957;}
	.st45{fill:#FF8757;}
	.st46{fill:#FF8658;}
	.st47{fill:#FF8458;}
	.st48{fill:#FF8359;}
	.st49{fill:#FF8159;}
	.st50{fill:#FF7F5A;}
	.st51{fill:#FF7E5A;}
	.st52{fill:#FF7C5B;}
	.st53{fill:#FF7B5B;}
	.st54{fill:#FF795C;}
	.st55{fill:#FF785C;}
	.st56{fill:#FF765D;}
	.st57{fill:#FF745D;}
	.st58{fill:#FF735E;}
	.st59{fill:#FF715E;}
	.st60{fill:#FF705F;}
	.st61{fill:#FF6E5F;}
	.st62{fill:#FF6D60;}
	.st63{fill:#FF6B60;}
	.st64{fill:#FF6A61;}
	.st65{fill:#FF6861;}
	.st66{fill:#FF6662;}
	.st67{fill:#FF6562;}
	.st68{fill:#FF6363;}
	.st69{fill:#FF6263;}
	.st70{fill:#FF6064;}
	.st71{fill:#FF5F64;}
	.st72{fill:#FF5D65;}
	.st73{fill:#FF5B65;}
	.st74{fill:#FF5A66;}
	.st75{fill:#FF5866;}
	.st76{fill:#FF5767;}
	.st77{fill:#FF5567;}
	.st78{fill:#FF5468;}
	.st79{fill:#FF5268;}
	.st80{fill:#FF5069;}
	.st81{fill:#FF4F69;}
	.st82{fill:#FF4D6A;}
	.st83{fill:#FF4C6A;}
	.st84{fill:#FF4A6B;}
	.st85{fill:#FF496B;}
	.st86{fill:#FF476C;}
	.st87{fill:#FF466C;}
	.st88{fill:#FF446D;}
	.st89{fill:#FF426D;}
	.st90{fill:#FF416E;}
	.st91{fill:#FF3F6E;}
	.st92{fill:#FF3E6F;}
	.st93{fill:#FF3C6F;}
	.st94{fill:#FF3B70;}
	.st95{fill:#FF3970;}
	.st96{fill:#FF3771;}
	.st97{fill:#FF3671;}
	.st98{fill:#FF3472;}
	.st99{fill:#FF3372;}
	.st100{fill:#FF3173;}
	.st101{fill:#FF3073;}
	.st102{fill:#FF2E74;}
	.st103{fill:#FF2D74;}
	.st104{fill:#FF2B75;}
	.st105{fill:#FF2975;}
	.st106{fill:#FF2876;}
	.st107{fill:#FF2676;}
	.st108{fill:#FF2577;}
	.st109{fill:#FF2377;}
	.st110{fill:#FF2278;}
	.st111{fill:#FF2078;}
	.st112{fill:#FD2079;}
	.st113{fill:#FC207A;}
	.st114{fill:#FA207B;}
	.st115{fill:#F8207C;}
	.st116{fill:#F6217D;}
	.st117{fill:#F5217D;}
	.st118{fill:#F3217E;}
	.st119{fill:#F1217F;}
	.st120{fill:#EF2180;}
	.st121{fill:#EE2181;}
	.st122{fill:#EC2182;}
	.st123{fill:#EA2183;}
	.st124{fill:#E92184;}
	.st125{fill:#E72285;}
	.st126{fill:#E52286;}
	.st127{fill:#E32287;}
	.st128{fill:#E22287;}
	.st129{fill:#E02288;}
	.st130{fill:#DE2289;}
	.st131{fill:#DD228A;}
	.st132{fill:#DB228B;}
	.st133{fill:#D9228C;}
	.st134{fill:#D7238D;}
	.st135{fill:#D6238E;}
	.st136{fill:#D4238F;}
	.st137{fill:#D22390;}
	.st138{fill:#D02391;}
	.st139{fill:#CF2392;}
	.st140{fill:#CD2392;}
	.st141{fill:#CB2393;}
	.st142{fill:#CA2394;}
	.st143{fill:#C82395;}
	.st144{fill:#C62496;}
	.st145{fill:#C42497;}
	.st146{fill:#C32498;}
	.st147{fill:#C12499;}
	.st148{fill:#BF249A;}
	.st149{fill:#BE249B;}
	.st150{fill:#BC249C;}
	.st151{fill:#BA249C;}
	.st152{fill:#B8249D;}
	.st153{fill:#B7259E;}
	.st154{fill:#B5259F;}
	.st155{fill:#B325A0;}
	.st156{fill:#B125A1;}
	.st157{fill:#B025A2;}
	.st158{fill:#AC25A4;}
	.st159{fill:#AB25A5;}
	.st160{fill:#A925A6;}
	.st161{fill:#A726A6;}
	.st162{fill:#A526A7;}
	.st163{fill:#A426A8;}
	.st164{fill:#A226A9;}
	.st165{fill:#A026AA;}
	.st166{fill:#9F26AB;}
	.st167{fill:#9D26AC;}
	.st168{fill:#9B26AD;}
	.st169{fill:#9926AE;}
	.st170{fill:#9827AF;}
	.st171{fill:#9627B0;}
	.st172{fill:#9427B0;}
	.st173{fill:#9227B1;}
	.st174{fill:#8F27B3;}
	.st175{fill:#8D27B4;}
	.st176{fill:#8C27B5;}
	.st177{fill:#8A27B6;}
	.st178{fill:#8828B7;}
	.st179{fill:#8628B8;}
	.st180{fill:#8528B9;}
	.st181{fill:#8328BA;}
	.st182{fill:#8128BA;}
	.st183{fill:#8028BB;}
	.st184{fill:#7E28BC;}
	.st185{fill:#7C28BD;}
	.st186{fill:#7A28BE;}
	.st187{fill:#7928BF;}
	.st188{fill:#7729C0;}
	.st189{fill:#7529C1;}
	.st190{fill:#7329C2;}
	.st191{fill:#7229C3;}
	.st192{fill:#7029C4;}
	.st193{fill:#6E29C5;}
	.st194{fill:#6D29C5;}
	.st195{fill:#6B29C6;}
	.st196{fill:#6929C7;}
	.st197{fill:#672AC8;}
	.st198{fill:#662AC9;}
	.st199{fill:#642ACA;}
	.st200{fill:#622ACB;}
	.st201{fill:#612ACC;}
	.st202{fill:#5F2ACD;}
	.st203{fill:#5D2ACE;}
	.st204{fill:#5B2ACF;}
	.st205{fill:#5A2ACF;}
	.st206{fill:#582BD0;}
	.st207{fill:#562BD1;}
	.st208{fill:#542BD2;}
	.st209{fill:#532BD3;}
	.st210{fill:#512BD4;}
	.st211{opacity:0.2;fill:#512BD4;enable-background:new    ;}
	.st212{opacity:0.7;fill:#9DCFFF;enable-background:new    ;}
	.st213{fill:url(#SVGID_00000105406178473616973800000006469427002747564447_);}
	.st214{fill:#F4BC1B;}
	.st215{fill:url(#SVGID_00000108997697296377691770000011708814426035677107_);}
	.st216{fill:url(#SVGID_00000111906575844217281490000004578318743177203896_);}
	.st217{fill:#FFD590;}
	.st218{fill:#F7B548;}
	.st219{fill:url(#SVGID_00000072982664743230213650000006451983959165721783_);}
	.st220{fill:#FFFFFF;}
	.st221{fill:url(#SVGID_00000100378916616563149010000005249460307921223848_);}
	.st222{fill:url(#SVGID_00000078017212305344364700000013310520314221672835_);}
	.st223{fill:#F7784E;}
	.st224{fill:#5424D0;}
</style>
<g id="background">
	<g id="arms_00000169547948683303110060000015725789140551560065_">
		<g>
			<path d="M141.01,86.9c15.42-0.02,30.33,5.51,42.01,15.57c-10.99-13.46-27.72-22.06-46.45-22.06c-33.11,0-59.95,26.84-59.95,59.95
				c0,1.64,0.07,3.26,0.2,4.87C79.92,112.5,107.48,86.9,141.01,86.9z"/>
			<path d="M104.44,95.03C89.47,70.41,65.23,58.29,64.99,58.16l1.47-3.75c0.26,0.13,6.55,3.26,14.83,9.6
				c7.63,5.84,18.46,15.64,26.67,29.15L104.44,95.03z"/>
			<path d="M129.09,85.15c-2.95-28.66,9.02-52.98,9.14-53.22l-3.33-1.45c-0.13,0.26-3.26,6.55-6.01,16.61
				c-2.55,9.27-5.24,23.62-3.62,39.35L129.09,85.15z"/>
			<path class="st214" d="M87.75,53.6c0-1.25-4.57-2.35-11.59-3.03c6.32-3.14,10.19-5.8,9.75-6.96c-0.48-1.25-5.81-0.47-13.44,1.74
				c5.13-6.06,8.02-10.62,7.08-11.56c-0.88-0.88-4.89,1.57-10.34,6.06c2.25-6.68,3.11-11.31,1.98-11.82
				c-1.22-0.55-4.44,3.78-8.28,10.73c-0.66-7.91-1.83-13.18-3.17-13.18c-1.24,0-2.35,4.57-3.03,11.59c-3.14-6.32-5.8-10.2-6.96-9.75
				c-1.25,0.48-0.47,5.81,1.74,13.44c-6.06-5.13-10.61-8.02-11.56-7.08c-0.88,0.88,1.57,4.89,6.06,10.34
				c-6.68-2.25-11.31-3.11-11.82-1.98c-0.55,1.22,3.78,4.44,10.73,8.28c-7.91,0.66-13.18,1.83-13.18,3.17
				c0,1.24,4.57,2.35,11.59,3.03c-6.32,3.14-10.2,5.8-9.75,6.96c0.48,1.25,5.81,0.47,13.44-1.74c-5.13,6.06-8.02,10.61-7.08,11.56
				c0.88,0.88,4.89-1.57,10.34-6.06c-2.25,6.68-3.11,11.31-1.98,11.82c1.22,0.55,4.44-3.78,8.28-10.73
				c0.66,7.91,1.83,13.18,3.17,13.18c1.24,0,2.35-4.57,3.03-11.59c3.14,6.32,5.8,10.19,6.96,9.75c1.25-0.48,0.47-5.81-1.74-13.44
				c6.06,5.13,10.62,8.03,11.56,7.08c0.88-0.88-1.57-4.89-6.06-10.33c6.68,2.25,11.31,3.11,11.82,1.97
				c0.55-1.22-3.78-4.44-10.73-8.28C82.49,56.12,87.75,54.94,87.75,53.6z"/>
			<path d="M60.11,66.11c6.81,0,12.32-5.52,12.32-12.32s-5.52-12.32-12.32-12.32s-12.32,5.52-12.32,12.32S53.31,66.11,60.11,66.11z"
				/>
			<path class="st214" d="M162.8,30.63c0-1.25-4.57-2.35-11.59-3.03c6.32-3.14,10.2-5.8,9.75-6.96c-0.48-1.25-5.81-0.47-13.44,1.74
				c5.13-6.06,8.02-10.61,7.08-11.56c-0.88-0.88-4.89,1.57-10.34,6.06c2.25-6.68,3.11-11.31,1.98-11.82
				c-1.22-0.55-4.44,3.78-8.28,10.73c-0.66-7.91-1.83-13.18-3.17-13.18c-1.24,0-2.35,4.57-3.03,11.59c-3.14-6.32-5.8-10.2-6.96-9.75
				c-1.25,0.48-0.47,5.81,1.74,13.44c-6.06-5.13-10.61-8.02-11.56-7.08c-0.88,0.88,1.57,4.89,6.06,10.34
				c-6.68-2.25-11.31-3.11-11.82-1.98c-0.55,1.22,3.78,4.44,10.73,8.28c-7.91,0.66-13.18,1.83-13.18,3.17
				c0,1.24,4.57,2.35,11.59,3.03c-6.32,3.14-10.19,5.8-9.75,6.96c0.48,1.25,5.81,0.47,13.44-1.74c-5.13,6.06-8.03,10.62-7.08,11.56
				c0.88,0.88,4.89-1.57,10.33-6.06c-2.25,6.68-3.11,11.31-1.98,11.82c1.22,0.55,4.44-3.78,8.28-10.73
				c0.66,7.91,1.83,13.18,3.17,13.18c1.25,0,2.35-4.57,3.03-11.59c3.14,6.32,5.8,10.19,6.96,9.75c1.25-0.48,0.47-5.81-1.74-13.44
				c6.06,5.13,10.62,8.02,11.56,7.08c0.88-0.88-1.57-4.89-6.06-10.33c6.68,2.25,11.31,3.11,11.82,1.98
				c0.55-1.22-3.78-4.44-10.73-8.28C157.53,33.14,162.8,31.97,162.8,30.63z"/>
			<path d="M135.16,43.14c6.81,0,12.32-5.52,12.32-12.32s-5.52-12.32-12.32-12.32s-12.32,5.52-12.32,12.32
				S128.35,43.14,135.16,43.14z"/>
		</g>
	</g>
</g>
<g id="bot-base">
</g>
<g id="asset">
</g>
<g id="ghost-image">
</g>
<g id="headgear">
</g>
<g id="arms">
</g>
<g id="glasses">
</g>
<g id="shoes">
</g>
</svg>
