<?xml version="1.0" encoding="utf-8"?>
<!-- Generator: Adobe Illustrator 26.0.0, SVG Export Plug-In . SVG Version: 6.00 Build 0)  -->
<svg version="1.1" id="asset" xmlns="http://www.w3.org/2000/svg" xmlns:xlink="http://www.w3.org/1999/xlink" x="0px" y="0px"
	 viewBox="0 0 214.74 150" style="enable-background:new 0 0 214.74 150;" xml:space="preserve">
<style type="text/css">
	.st0{fill:#F4BC1B;}
</style>
<g>
	<path d="M141.61,87.63c15.69-0.02,30.87,5.61,42.77,15.85c-11.19-13.7-28.22-22.46-47.28-22.46c-33.69,0-61.02,27.33-61.02,61.02
		c0,1.67,0.07,3.32,0.2,4.96C79.42,113.7,107.47,87.63,141.61,87.63z"/>
	<path d="M104.39,95.91C89.15,70.85,64.48,58.5,64.24,58.39l1.5-3.82c0.28,0.13,6.66,3.32,15.09,9.76
		c7.76,5.94,18.79,15.93,27.16,29.67L104.39,95.91z"/>
	<path d="M129.49,85.85c-3.01-29.17,9.17-53.93,9.3-54.17l-3.4-1.49c-0.13,0.26-3.3,6.66-6.13,16.91
		c-2.6,9.43-5.35,24.04-3.68,40.06L129.49,85.85z"/>
	<path class="st0" d="M87.4,53.73c0-1.26-4.64-2.39-11.81-3.08c6.44-3.19,10.38-5.9,9.93-7.09c-0.48-1.28-5.92-0.48-13.68,1.76
		c5.22-6.16,8.17-10.82,7.2-11.77c-0.89-0.89-4.98,1.6-10.53,6.16c2.28-6.81,3.16-11.51,2-12.03c-1.24-0.56-4.51,3.84-8.43,10.93
		c-0.67-8.06-1.86-13.42-3.23-13.42c-1.26,0-2.39,4.66-3.08,11.81c-3.17-6.42-5.88-10.36-7.07-9.91c-1.26,0.48-0.48,5.92,1.76,13.68
		c-6.16-5.22-10.8-8.17-11.77-7.2c-0.89,0.89,1.6,4.98,6.16,10.53c-6.79-2.28-11.51-3.17-12.03-2c-0.56,1.24,3.84,4.53,10.93,8.43
		c-8.06,0.67-13.42,1.86-13.42,3.23c0,1.26,4.64,2.39,11.81,3.08c-6.44,3.19-10.38,5.9-9.93,7.09c0.48,1.28,5.92,0.48,13.68-1.76
		c-5.22,6.16-8.17,10.8-7.2,11.77c0.89,0.89,4.98-1.6,10.53-6.16c-2.28,6.79-3.17,11.51-2,12.03c1.24,0.56,4.53-3.84,8.43-10.93
		c0.67,8.06,1.86,13.42,3.23,13.42c1.26,0,2.39-4.64,3.08-11.81c3.19,6.42,5.9,10.38,7.09,9.93c1.26-0.48,0.48-5.92-1.76-13.68
		c6.16,5.22,10.8,8.17,11.77,7.2c0.89-0.89-1.6-4.98-6.16-10.53c6.81,2.28,11.51,3.17,12.03,2c0.56-1.24-3.84-4.53-10.93-8.43
		C82.04,56.29,87.4,55.11,87.4,53.73z"/>
	<path d="M59.26,66.47c6.92,0,12.55-5.63,12.55-12.55S66.2,41.39,59.26,41.39s-12.55,5.63-12.55,12.55S52.34,66.47,59.26,66.47z"/>
	<path class="st0" d="M163.8,30.36c0-1.26-4.66-2.39-11.81-3.08c6.44-3.19,10.38-5.9,9.93-7.09c-0.48-1.28-5.92-0.48-13.68,1.76
		c5.22-6.16,8.17-10.8,7.2-11.77c-0.89-0.89-4.98,1.6-10.53,6.16c2.28-6.81,3.17-11.51,2-12.03c-1.24-0.56-4.53,3.84-8.43,10.93
		c-0.67-8.06-1.86-13.42-3.23-13.42c-1.26,0-2.39,4.66-3.08,11.81c-3.19-6.44-5.9-10.38-7.09-9.93c-1.26,0.48-0.48,5.92,1.76,13.68
		c-6.16-5.22-10.8-8.17-11.77-7.2c-0.89,0.89,1.6,4.98,6.16,10.53c-6.81-2.28-11.51-3.17-12.03-2c-0.56,1.24,3.84,4.53,10.93,8.43
		c-8.06,0.67-13.42,1.88-13.42,3.23c0,1.26,4.64,2.39,11.81,3.08c-6.44,3.19-10.38,5.9-9.93,7.09c0.48,1.28,5.92,0.48,13.68-1.76
		c-5.22,6.18-8.17,10.8-7.2,11.77c0.89,0.89,4.98-1.6,10.53-6.16c-2.28,6.79-3.16,11.51-2,12.03c1.24,0.56,4.53-3.84,8.43-10.93
		c0.67,8.06,1.86,13.42,3.23,13.42c1.26,0,2.39-4.64,3.08-11.81c3.19,6.42,5.9,10.38,7.09,9.93c1.26-0.48,0.48-5.92-1.76-13.68
		c6.16,5.22,10.82,8.17,11.77,7.2c0.89-0.89-1.6-4.98-6.16-10.53c6.81,2.28,11.51,3.17,12.03,2c0.56-1.24-3.84-4.53-10.93-8.43
		C158.43,32.9,163.8,31.72,163.8,30.36z"/>
	<path d="M135.65,43.1c6.92,0,12.55-5.63,12.55-12.55S142.58,18,135.65,18s-12.55,5.63-12.55,12.55S128.73,43.1,135.65,43.1z"/>
</g>
</svg>
