<svg xmlns="http://www.w3.org/2000/svg" viewBox="0 0 655.78 381.39"><g id="Layer_2" data-name="Layer 2"><g id="asset"><g id="mohawk-green"><path d="M655.78,46.18l-43.06,262c-30.43-10.63-54.52-20-74-28.28L519.48,53s-46.27-14.17-111.4-20.71c-34.94-3.5-75.3-4.81-116.86-.55-33.67,3.45-68.12,10.55-101.09,23.11C252,27.67,316,13.89,362.17,6.94c37-5.55,62.55-6.73,66.58-6.89h.55C546.55-1.52,655.78,46.18,655.78,46.18Z" fill="#d8e377"/><path d="M428.75.05c-4,.16-29.62,1.34-66.58,6.89A359.76,359.76,0,0,1,428.75.05Z" fill="#d8e377"/><path d="M541.12,308.22q-12.21-4.26-23.64-8.35C352.9,241.11,304.21,211.6,184.73,241.6a103.54,103.54,0,0,0-53.14,32.68,375.94,375.94,0,0,0-62,99.71q-1.56,3.67-3,7.4L0,308.22C23.73,161.46,101.61,88.55,190.1,54.86h0c33-12.56,67.42-19.66,101.09-23.11,41.56-4.26,81.92-2.95,116.86.55C473.21,38.83,519.48,53,519.48,53l9.15,108,10.09,119Z" fill="#81921f"/><polygon points="541.12 308.22 612.72 308.22 655.77 46.18 519.48 52.99 541.12 308.22" fill="#bbcb37"/><path d="M429.31,0h0Z" fill="#d8e377"/><path d="M531.05,303.86a.53.53,0,0,1-.71.57l-12.86-4.56C352.9,241.11,304.21,211.6,184.73,241.6a103.54,103.54,0,0,0-53.14,32.68,375.83,375.83,0,0,0-61.65,98.86.53.53,0,0,1-.91.11l-53.8-72a.53.53,0,0,1,.8-.68l47.5,49.73a.53.53,0,0,0,.85-.63L23.29,277.64a.53.53,0,0,1,.85-.61l46.54,53.7a.53.53,0,0,0,.9-.52l-36-102.5a.52.52,0,0,1,.94-.45l47.7,77.29a.53.53,0,0,0,1-.44L48.59,189.61a.53.53,0,0,1,.93-.47l54.23,74.32a.53.53,0,0,0,.93-.48l-35-105.32a.53.53,0,0,1,.94-.47l52.31,76.22a.53.53,0,0,0,1-.41L98.51,124.09a.53.53,0,0,1,1-.4l48.58,78.94a.53.53,0,0,0,1-.39L128.39,105a.53.53,0,0,1,1-.38l47.3,81.4a.53.53,0,0,0,1-.39l-24.4-99.1a.53.53,0,0,1,1-.39l59.2,104.65a.52.52,0,0,0,1-.4L182.48,75.08a.53.53,0,0,1,1-.38l51.09,99.46a.53.53,0,0,0,1-.33L216.19,59.52a.53.53,0,0,1,1-.31L269,173.77a.53.53,0,0,0,1-.29L252,50.21a.53.53,0,0,1,1-.28l50.91,119.43a.53.53,0,0,0,1-.26L292.52,45.52a.53.53,0,0,1,1-.2l37.06,121.09a.53.53,0,0,0,1-.19L325,42.81a.53.53,0,0,1,1.05-.14l27.44,136a.53.53,0,0,0,1.05-.1V41.16a.53.53,0,0,1,1.05-.1l27.83,146.58a.53.53,0,0,0,1.05-.1V52.34a.53.53,0,0,1,1.05-.09l27,156.31a.53.53,0,0,0,1.05-.06l9.09-161a.53.53,0,0,1,1.05,0l20.68,169.73a.53.53,0,0,0,1.05,0L454.19,57.9a.53.53,0,0,1,1.05-.07C460,87,484.56,238.64,488.17,241.05c3.41,2.27-6.27-136.46-9.18-177a.53.53,0,0,1,1.05-.12l22.45,132.64a.53.53,0,0,0,1.05-.11L497.39,68a.53.53,0,0,1,1.05-.1Z" fill="#6e7f17"/><path d="M548.54,308.22a.52.52,0,0,1-.53-.51l-12-242.91L554,269a.53.53,0,0,0,1.06,0L565.6,83.47a.53.53,0,0,1,1,0V273.05a.53.53,0,0,0,1.06.05L586,79a.53.53,0,0,1,1.06.06l-6,188.58a.53.53,0,0,0,1,.07L601.85,79.06a.53.53,0,0,1,1.06.08l-9.66,191.35a.53.53,0,0,0,1.06.1L622.52,56.15,602.07,270a.53.53,0,0,0,1,.14c8.51-51.82,35.47-215.63,36-213.95.65,2-30.33,239.85-31.87,251.62a.51.51,0,0,1-.52.45Z" fill="#a8b82f"/></g></g></g></svg>