<?xml version="1.0" encoding="utf-8"?>
<!-- Generator: Adobe Illustrator 26.0.0, SVG Export Plug-In . SVG Version: 6.00 Build 0)  -->
<svg version="1.1" id="asset" xmlns="http://www.w3.org/2000/svg" xmlns:xlink="http://www.w3.org/1999/xlink" x="0px" y="0px"
	 viewBox="0 0 214.74 150" style="enable-background:new 0 0 214.74 150;" xml:space="preserve">
<style type="text/css">
	.st0{fill:url(#SVGID_1_);}
	.st1{fill:#FFFFFF;}
</style>
<g>
	
		<linearGradient id="SVGID_1_" gradientUnits="userSpaceOnUse" x1="-521.0396" y1="-5654.6533" x2="-414.592" y2="-5525.04" gradientTransform="matrix(1 0 0 1 564 5678.4224)">
		<stop  offset="0.0312" style="stop-color:#F9FC7F"/>
		<stop  offset="0.7396" style="stop-color:#FF7951"/>
	</linearGradient>
	<path class="st0" d="M69.28,11.52l5.56,130.53c0.05,1.21,0.57,2.35,1.45,3.18c0.88,0.83,2.06,1.28,3.27,1.25
		c13.94-0.37,31.3-4.71,48.81-12.93c17.66-8.29,32.15-18.97,41.34-29.54c0.89-1.02,1.35-2.36,1.27-3.71
		c-0.08-1.35-0.68-2.63-1.69-3.54L73.68,9.47c-0.38-0.35-0.86-0.58-1.38-0.66c-0.51-0.08-1.04,0-1.51,0.22
		c-0.47,0.22-0.87,0.57-1.14,1.02C69.39,10.49,69.26,11,69.28,11.52z"/>
	<path class="st1" d="M92.21,121.71c3.56,0,6.45-2.88,6.45-6.45c0-3.56-2.88-6.45-6.45-6.45c-3.56,0-6.45,2.88-6.45,6.45
		C85.76,118.83,88.65,121.71,92.21,121.71z"/>
	<path class="st1" d="M128.6,123.58c3.56,0,6.45-2.88,6.45-6.45c0-3.56-2.89-6.45-6.45-6.45c-3.56,0-6.45,2.89-6.45,6.45
		S125.04,123.58,128.6,123.58z"/>
	<path class="st1" d="M140.2,99.96c3.56,0,6.45-2.88,6.45-6.45c0-3.56-2.89-6.45-6.45-6.45c-3.56,0-6.45,2.88-6.45,6.45
		C133.76,97.07,136.64,99.96,140.2,99.96z"/>
	<path class="st1" d="M107.61,97.2c3.56,0,6.45-2.88,6.45-6.45c0-3.56-2.89-6.45-6.45-6.45s-6.45,2.88-6.45,6.45
		C101.17,94.31,104.05,97.2,107.61,97.2z"/>
	<path class="st1" d="M125.56,77.17c3.56,0,6.45-2.88,6.45-6.45c0-3.56-2.88-6.45-6.45-6.45c-3.56,0-6.45,2.88-6.45,6.45
		C119.12,74.29,122,77.17,125.56,77.17z"/>
	<path class="st1" d="M90.35,76.76c3.56,0,6.45-2.88,6.45-6.45c0-3.56-2.88-6.45-6.45-6.45c-3.56,0-6.45,2.88-6.45,6.45
		C83.9,73.87,86.79,76.76,90.35,76.76z"/>
	<path class="st1" d="M105.15,38.19c-1.32,0.41-2.47,1.22-3.29,2.33c-0.82,1.11-1.26,2.45-1.26,3.83c0,1.71,0.68,3.35,1.89,4.56
		c1.21,1.21,2.85,1.89,4.56,1.89c1.48,0,2.91-0.51,4.06-1.44c1.15-0.93,1.94-2.23,2.25-3.67L105.15,38.19z"/>
	<path class="st1" d="M81.18,47.66c0-0.85-0.17-1.69-0.49-2.47c-0.32-0.78-0.8-1.49-1.4-2.09c-0.6-0.6-1.31-1.07-2.09-1.4
		c-0.78-0.32-1.62-0.49-2.47-0.49c-1.51,0-2.97,0.53-4.13,1.5l0.44,10.22c1.08,0.76,2.37,1.17,3.7,1.17c0.85,0,1.69-0.17,2.47-0.49
		c0.78-0.32,1.49-0.8,2.09-1.4c0.6-0.6,1.07-1.31,1.4-2.09C81.02,49.35,81.18,48.51,81.18,47.66z"/>
	<path class="st1" d="M78.38,13.75c-1.22,0.47-2.27,1.29-3.01,2.37c-0.74,1.07-1.14,2.35-1.14,3.65c0,1.71,0.68,3.35,1.89,4.56
		c1.21,1.21,2.85,1.89,4.56,1.89c1.4,0,2.77-0.46,3.89-1.31c1.12-0.85,1.93-2.04,2.31-3.39L78.38,13.75z"/>
	<path class="st1" d="M102.91,135.4c-0.85,0-1.69,0.17-2.47,0.49c-0.78,0.32-1.49,0.8-2.09,1.4c-0.6,0.6-1.07,1.31-1.4,2.09
		c-0.32,0.78-0.49,1.62-0.49,2.47c0,0.84,0.16,1.67,0.48,2.45c4-0.85,8.13-1.94,12.35-3.27c-0.2-1.55-0.96-2.98-2.13-4.02
		C105.99,135.97,104.48,135.4,102.91,135.4z"/>
	<path class="st1" d="M72.63,85.86h-0.19L73,98.73c1.65-0.09,3.19-0.81,4.32-2.01c1.13-1.2,1.76-2.78,1.76-4.43
		c0-0.85-0.17-1.68-0.49-2.47c-0.32-0.78-0.8-1.49-1.4-2.09c-0.6-0.6-1.31-1.07-2.09-1.39C74.32,86.03,73.48,85.86,72.63,85.86z"/>
</g>
</svg>
