<svg xmlns="http://www.w3.org/2000/svg" viewBox="0 0 710.28 505.43"><g id="Layer_2" data-name="Layer 2"><g id="asset"><g id="skateboard-helmet"><path d="M709.87,267a14.16,14.16,0,0,1-11.78,17.39c-49.14,6.92-177.94,25.05-281,43.47-93.43,16.7-95.83,19.85-127.78,48.21s-41.53,41.12-86.25,22.69-97.43,1.42-102.22,46.79-54.14,59.87-54.14,59.87L31.67,475.29s16.5-11.3-1.07-63.76-77.47-280,189.27-372.21C479.56-50.41,664.44,80.82,709.87,267Z" fill="#6e7f17"/><path d="M706.44,255.55a14.16,14.16,0,0,1-11.78,17.39c-49.14,6.92-186.9,26.25-289.92,44.67-93.43,16.7-95.83,19.85-127.78,48.21s-41.53,41.12-86.25,22.69S93.28,389.93,88.49,435.3,39,493.43,39,493.43L23,465.07s12.78-11.34-4.79-63.8-77.47-280,189.27-372.21C467.18-60.67,661,69.36,706.44,255.55Z" fill="#c5d43b"/><ellipse cx="433.45" cy="174.39" rx="37.88" ry="40.36" transform="translate(134.9 533.78) rotate(-72.2)" fill="#56534f"/><ellipse cx="575.85" cy="148.07" rx="21.35" ry="38.98" transform="translate(4.5 312.66) rotate(-30.49)" fill="#56534f"/><path d="M59.24,182.61c155.26-205.27,376-138.92,376-138.92S204.15,45.79,59.24,182.61Z" fill="#e1ea95"/><path d="M55.12,395.27A9,9,0,0,1,49,379.71C105.87,326.21,177.3,309,180.32,308.3a9,9,0,0,1,4.11,17.53c-.69.16-69.85,16.91-123.15,67A9,9,0,0,1,55.12,395.27Z" fill="#a8b82f"/><path d="M41.69,354.56A9,9,0,0,1,35.52,339c56.92-53.5,128.35-70.71,131.37-71.41A9,9,0,0,1,171,285.12c-.69.16-69.85,16.91-123.15,67A9,9,0,0,1,41.69,354.56Z" fill="#a8b82f"/></g></g></g></svg>