<svg xmlns="http://www.w3.org/2000/svg" viewBox="0 0 780.19 383.16"><g id="Layer_2" data-name="Layer 2"><g id="asset"><g id="ski-hat"><path d="M694.61,187.25C557.31,38.23,341.31,41.58,259.26,53.3S122,60,122,60s-35.16,15.07-5,31.81S314.52,212.37,304.47,287.72,694.61,187.25,694.61,187.25Z" fill="#ed9583"/><path d="M130.61,92.09c-30.56,42.78-85.4,15.07-85.4,15.07l18.42-10L10.05,85.39,30.14,72,0,55.25l30.14-5L15.07,30.14l35.16,1.67L41.86,8.37l43.53,8.37L80.37,0S172.47,33.48,130.61,92.09Z" fill="#ed9583"/><path d="M286.05,383.16S410,296.09,542.24,269.3c128.56-26,238,3,238,3s-32-101.77-100.65-106.79-214.33-5-381.77,108.84C267.82,294.69,286.05,383.16,286.05,383.16Z" fill="#e75153"/><path d="M353.74,48.55C304.38,68.1,242.26,99.83,199.5,146.78c23.77,18.05,48.28,39,67.68,60.56C329.83,149.12,478.64,102.89,544,85.66,477.64,59.44,409.7,50.13,353.74,48.55Z" fill="#e75153"/><polygon points="239.17 173.58 239.17 142.98 264.9 151.32 270.47 176.37 239.17 173.58" fill="#ed9583"/><polygon points="271.93 143.77 274.02 115.95 300.46 126.38 303.93 150.73 271.93 143.77" fill="#fff"/><polygon points="309.93 120.48 312.71 95.44 338.45 107.96 341.24 133 309.93 120.48" fill="#ed9583"/><polygon points="350.33 103.98 355.82 80.67 375.04 92.66 373.94 116.64 350.33 103.98" fill="#fff"/><polygon points="387.47 84.98 387.47 66.15 414.98 73.95 413.31 99.62 387.47 84.98" fill="#ed9583"/><polygon points="302.91 316.89 310.44 286.78 328.84 305.18 323.4 334.04 302.91 316.89" fill="#fff"/><polygon points="343.72 296.09 348.56 265.57 370.52 283.44 364.93 311.71 343.72 296.09" fill="#ed9583"/><polygon points="382.05 277.85 387.63 245.85 412.19 266.32 406.24 294.6 382.05 277.85" fill="#fff"/><polygon points="425.59 260.74 430.42 232.46 455.35 249.95 450.14 274.5 425.59 260.74" fill="#ed9583"/><polygon points="470.98 242.88 478.05 213.48 501.49 233.95 495.17 258.88 470.98 242.88" fill="#fff"/><polygon points="520.47 228.37 526.79 201.2 547.63 221.67 542.05 243.99 520.47 228.37" fill="#ed9583"/><polygon points="567.72 217.95 577.4 189.3 598.61 212.74 591.54 235.81 567.72 217.95" fill="#fff"/><polygon points="619.45 210.51 629.49 186.69 648.1 209.76 640.28 231.71 619.45 210.51" fill="#ed9583"/><polygon points="665.21 207.53 676.38 187.06 693.86 207.16 687.91 228.37 665.21 207.53" fill="#fff"/><polygon points="711.72 208.27 722.51 188.92 737.4 209.76 732.56 233.57 711.72 208.27" fill="#ed9583"/><path d="M456.4,60.05q-13.61-2.73-26.91-4.74V68.93l27.35,10Z" fill="#fff"/><path d="M196.66,59.72c-46.3,2.86-62.79,2.69-74.7.27s-23.81,19.54-5,31.81c6.48,4.24,20.47,11.92,37.52,23.15C166.89,93.86,182.55,74.81,196.66,59.72Z" fill="#e75153"/></g></g></g></svg>