<svg xmlns="http://www.w3.org/2000/svg" viewBox="0 0 799.92 478.2"><g id="Layer_2" data-name="Layer 2"><g id="asset"><g id="space-helmet"><polygon points="387.35 196.4 381.1 32.77 395.52 30.77 404.64 190.79 387.35 196.4" fill="#3f3c38"/><circle cx="387.31" cy="24.56" r="24.56" fill="#f7b548"/><path d="M655.68,292.18C619.54,241.27,524.5,164.17,527.16,164,472.32,115.71,412,102.58,333.21,102.58,176.43,102.58,49,211.89,27.35,362.67c3.29,22.95,118.33,52.46,118.33,52.46,214-157.78,372.46-149.65,460.47-133.49,21.44,17.92,45.44,44.61,45.44,44.61S658.05,295.2,655.68,292.18Z" fill="#eeedec"/><path d="M527.16,164A310.11,310.11,0,0,0,321.59,86.43C164.81,86.43,45.66,216.34,24,367.13c3.29,22.95,56.37-7.81,56.37-7.81,214-157.78,348.28-184.74,497.86-150.7C599.68,226.54,524.5,164.17,527.16,164Z" fill="#dddbda"/><path d="M58.61,476.53h95.78a33.53,33.53,0,0,0,26.47-12.95l15.72-20.21a31.22,31.22,0,0,1,24.65-12.06H792.41a7.49,7.49,0,0,0,4.92-13.14c-30.41-26.41-104.49-87.6-191.18-136.54-64-36.13-264.56-4.37-356.65,52.56S58.61,476.53,58.61,476.53Z" fill="#0064da" opacity="0.46" style="isolation:isolate"/><polygon points="55.71 207.31 51.63 43.62 66.07 41.81 73.06 201.94 55.71 207.31" fill="#3f3c38"/><circle cx="57.94" cy="35.49" r="24.56" fill="#f7b548"/><path d="M497.15,214.9c-64.17-2.56-113.7,11.95-113.7,11.95s5.58,10.42,10.79,22.33c59.9-15.11,116.84-13.77,116.84-13.77S503.2,223.75,497.15,214.9Z" fill="#f7b548"/><path d="M655.57,292c-9.45-13.49-26.49-25.73-58.73-32.61-104.59-22.33-299.43,2.89-462.7,155.32l11.53.4c214-157.78,372.46-149.65,460.47-133.49,21.44,17.92,45.44,44.61,45.44,44.61s14.84-19.21,4.1-34.07Z" fill="#c4c1be"/><path d="M21.28,362.86l20.39-171.7a8.32,8.32,0,0,1,5.33-6.8l30-11.3A8.33,8.33,0,0,1,88,179l38.33,164.31a8.32,8.32,0,0,1-6.39,10L31.26,372A8.33,8.33,0,0,1,21.28,362.86Z" fill="#f7b548"/><path d="M79.82,410.67S183.9,273.57,331,226.48c150-48,254.51-10,254.51-10s2.6-17.3.56-19.35C573.28,184.31,515,148.16,515,148.16c-95.08-31.82-397.78-9.31-459.73,234.6C43.09,430.68,79.82,410.67,79.82,410.67Z" fill="#fff"/><path d="M68,414.45a42.27,42.27,0,0,0,11.86-3.78S182.73,269.77,331,226.48c152.93-44.65,254.51-10,254.51-10a32.36,32.36,0,0,0,.93-18.79C458.8,150.39,198.14,179.6,68,414.45Z" fill="#c4c1be"/><ellipse cx="78.57" cy="411.32" rx="65.43" ry="65.96" fill="#c4c1be"/><ellipse cx="65.43" cy="412.24" rx="65.43" ry="65.96" fill="#eeedec"/><path d="M36.39,416.15c0-22.84,21-41.36,46.86-41.36a53.29,53.29,0,0,1,6.1.36,51.5,51.5,0,0,0-23.11-5.38c-25.88,0-46.86,18.52-46.86,41.36,0,21,17.76,38.36,40.76,41C46,445,36.39,431.57,36.39,416.15Z" fill="#c4c1be"/></g></g></g></svg>