<svg xmlns="http://www.w3.org/2000/svg" viewBox="0 0 790.19 589.86"><g id="Layer_2" data-name="Layer 2"><g id="asset"><g id="swimcap-blue"><path d="M790.19,317.55c-83.71-65.55-245.37-86.5-442.95,18.58-40.49,21.54-31.6,253.73-31.6,253.73h-17.5s-1.79-51.21-5.78-133.74-91.78-111.68-237.93,8.6h0a380.16,380.16,0,0,1-2.62-44.63C51.8,212.27,220.27,43.8,428.09,43.8,600.34,43.8,745.55,159.57,790.19,317.55Z" fill="#1ba6c5"/><path d="M238.74,165c-1.21-3.8-7.23-7.84-16.42-8.27,6.92-10.77,9.84-22.43,6.67-26.15-3.44-4.05-14.91-5.18-27.3,3.47.45-11.56-2.3-21.63-6.49-23.3-6.26-2.51-21.75,5.17-27.12,28.66-8.39-13.33-22-22.92-27.41-20.67-5.6,2.32-10.78,15.75-2.63,33.39-15.48-4.88-32.91-3-35.53,2.4s2.37,18.72,19.85,26.48c-14.25,5-26,15.11-25.19,20.7s11.21,13.46,28.41,11.47c-3.93,13.5-3,27.28,1.57,29.95,4.94,2.88,17.54-.53,26.6-15.35,4.3,12.61,12.16,22.65,17.2,22.37,6.41-.35,16.52-12.59,13.15-34.09,15.2,9.79,36.67,11.56,40.51,6,3.38-4.88.65-18.51-14.88-28.85C226.55,187,240.77,171.34,238.74,165Zm-63.45,16.58a10,10,0,0,0-5.41,3.07,8.82,8.82,0,0,0-9.15,1.43,7.09,7.09,0,0,0-.73-.57,8.72,8.72,0,0,0,3.51-5.35c2.87.12,6.93-.94,9.42-7a10.31,10.31,0,0,0,5.31-.24,8.22,8.22,0,0,0,2.15,2.66q-1.9,1.74-3.84,3.66a9.56,9.56,0,0,0-.81,2.36Z" fill="#cff1f5"/><ellipse cx="168.89" cy="181.55" rx="25.61" ry="12.64" transform="translate(-75.54 139.88) rotate(-37.39)" fill="#f7b548"/><path d="M141.6,332.52c-1.2-3.8-7.23-7.84-16.42-8.27,6.92-10.77,9.84-22.43,6.67-26.15-3.44-4.05-14.91-5.18-27.3,3.48.46-11.57-2.3-21.64-6.49-23.31-6.26-2.5-21.74,5.18-27.12,28.66C62.55,293.6,49,284,43.53,286.26c-5.59,2.32-10.78,15.76-2.62,33.39-15.49-4.88-32.92-3-35.54,2.4s2.37,18.72,19.86,26.48c-14.25,5-26,15.12-25.19,20.7s11.2,13.46,28.41,11.47c-3.93,13.5-3,27.28,1.57,29.95,4.94,2.88,17.53-.53,26.59-15.35,4.3,12.61,12.16,22.65,17.21,22.37,6.4-.35,16.51-12.58,13.14-34.09,15.2,9.79,36.67,11.56,40.51,6,3.38-4.89.65-18.51-14.88-28.85C129.41,354.56,143.63,338.89,141.6,332.52ZM78.15,349.1a10,10,0,0,0-5.4,3.07,8.84,8.84,0,0,0-9.15,1.43,8.52,8.52,0,0,0-.74-.57,8.73,8.73,0,0,0,3.52-5.35c2.86.12,6.93-.94,9.41-7a10.2,10.2,0,0,0,5.31-.24,8.5,8.5,0,0,0,2.15,2.67q-1.91,1.73-3.83,3.66a9.6,9.6,0,0,0-.82,2.36Z" fill="#cff1f5"/><ellipse cx="71.75" cy="349.1" rx="25.61" ry="12.64" transform="translate(-197.26 115.32) rotate(-37.39)" fill="#f7b548"/><path d="M348.91,306.79c.56-4-3.12-10.2-11.22-14.57,10.91-6.71,18.59-16,17.35-20.68-1.35-5.14-11.19-11.13-26.11-8.7,5.43-10.23,7.3-20.49,4.26-23.82-4.56-5-21.85-4.76-36.87,14.08-1.78-15.66-9.88-30.19-15.74-30.51-6.05-.34-16.54,9.52-16.84,28.94-11.83-11.1-28.34-17-33.06-13.23s-6,17.89,6.41,32.46c-15-1.68-30,2.37-31.67,7.74s4.26,17,20.63,22.65c-9.39,10.46-14.53,23.29-11.57,27.67,3.2,4.74,16,7.12,30.62-2.3-1.59,13.23,1.14,25.68,5.81,27.62,5.92,2.46,20.33-4.19,26.62-25,9.45,15.42,28,26.31,33.9,23,5.17-2.94,8.61-16.4-.9-32.45C328.37,321.36,348,313.41,348.91,306.79Zm-64.37-12.57a10,10,0,0,0-6.2.42,8.84,8.84,0,0,0-8.87-2.67,7.18,7.18,0,0,0-.42-.83,8.69,8.69,0,0,0,5.49-3.3c2.53,1.35,6.66,2.15,11.5-2.19a10.33,10.33,0,0,0,4.9,2.08,8.36,8.36,0,0,0,.77,3.34q-2.46.74-5,1.63a9.67,9.67,0,0,0-1.76,1.78Z" fill="#cff1f5"/><ellipse cx="278.77" cy="291.45" rx="25.61" ry="12.64" transform="translate(-53.33 62.61) rotate(-11.7)" fill="#f7b548"/><path d="M416.78,87.26c.7-3.93-2.75-10.31-10.68-15,11.13-6.32,19.14-15.28,18.07-20-1.16-5.18-10.79-11.52-25.78-9.63,5.78-10,8-20.21,5.1-23.64-4.37-5.13-21.66-5.54-37.34,12.75C364.93,16,357.35,1.21,351.51.67c-6-.55-16.88,8.93-17.87,28.33-11.43-11.52-27.72-18-32.57-14.41s-6.61,17.67,5.26,32.68c-14.94-2.22-30,1.3-31.93,6.6S278.05,71,294.2,77.24c-9.75,10.12-15.35,22.76-12.54,27.24,3,4.85,15.76,7.69,30.68-1.21-2.06,13.17.22,25.71,4.81,27.81,5.84,2.67,20.48-3.45,27.5-24.06,8.9,15.74,27.08,27.3,33.07,24.17,5.26-2.75,9.18-16.08.25-32.46C395.73,101.09,415.61,93.84,416.78,87.26ZM352.91,72.41a10.06,10.06,0,0,0-6.22.19,8.84,8.84,0,0,0-8.76-3,7.89,7.89,0,0,0-.39-.84,8.72,8.72,0,0,0,5.6-3.1c2.48,1.44,6.58,2.39,11.57-1.78a10.47,10.47,0,0,0,4.82,2.26,8.26,8.26,0,0,0,.66,3.36q-2.49.64-5.1,1.45a9.8,9.8,0,0,0-1.82,1.71Z" fill="#cff1f5"/><ellipse cx="347.24" cy="69.43" rx="25.61" ry="12.64" transform="translate(-6.73 59.25) rotate(-9.66)" fill="#f7b548"/><path d="M541.18,238.29c1-3.87-2-10.48-9.62-15.67,11.55-5.53,20.17-13.91,19.43-18.74-.8-5.25-10-12.24-25-11.4,6.48-9.6,9.43-19.61,6.75-23.24-4-5.42-21.22-7-38.15,10.11-.11-15.75-6.64-31.06-12.43-32-6-1-17.46,7.73-19.8,27-10.6-12.29-26.39-19.89-31.48-16.65s-7.83,17.17,3,33c-14.75-3.25-30-.8-32.32,4.35s2.45,17.34,18.13,24.7c-10.44,9.41-16.9,21.63-14.42,26.3,2.69,5.05,15.19,8.77,30.69.94-3,13-1.57,25.65,2.86,28.07,5.63,3.08,20.67-2,29.11-22.08,7.78,16.33,25.11,29.12,31.3,26.42,5.44-2.37,10.29-15.4,2.52-32.36C519.22,250.61,539.55,244.77,541.18,238.29ZM478.49,219a10,10,0,0,0-6.21-.24,8.84,8.84,0,0,0-8.53-3.59,8.68,8.68,0,0,0-.33-.88,8.67,8.67,0,0,0,5.8-2.69c2.38,1.61,6.4,2.84,11.67-1a10.34,10.34,0,0,0,4.65,2.59,8.23,8.23,0,0,0,.42,3.39c-1.69.32-3.41.68-5.18,1.1a9.66,9.66,0,0,0-1.94,1.58Z" fill="#cff1f5"/><ellipse cx="473.05" cy="215.64" rx="25.61" ry="12.64" transform="translate(-18.95 47.66) rotate(-5.65)" fill="#f7b548"/><path d="M750.78,271.44c3-2.66,4.18-9.81.81-18.36,12.66,1.89,24.49-.23,26.59-4.64,2.28-4.8-1.4-15.72-14.37-23.48,10.74-4.33,18.79-11,18.6-15.47-.29-6.74-13.64-17.72-37.27-13,8.73-13.12,11.89-29.45,7.62-33.47s-18.79-3.38-31.53,11.29c-1.9-16.12-10.73-31.26-16.76-31.42s-16.1,9.84-16,29c-10.39-11-24.43-17.49-29.21-14.49s-7.68,15.74,1.19,30.61c-13.92,1.95-26.12,8.45-26.67,13.71-.61,5.69,7.67,15.78,24.9,18-9.74,9.09-15.67,20.37-13.35,24.86,2.94,5.7,18.25,9.9,36.48-2-2.69,17.88,4.5,38.19,11.14,39.42,5.84,1.08,17.14-7,20.21-25.41C725.68,269.36,745.8,275.9,750.78,271.44Zm-41.14-51.07a10,10,0,0,0-5-3.67,8.82,8.82,0,0,0-5-7.76,6.37,6.37,0,0,0,.21-.91,8.73,8.73,0,0,0,6.32,1c1.07,2.66,3.71,5.93,10.21,5.73a10.36,10.36,0,0,0,2.4,4.75,8.35,8.35,0,0,0-1.55,3.05q-2.35-1-4.91-2a9.58,9.58,0,0,0-2.49.23C709.72,220.66,709.69,220.52,709.64,220.37Z" fill="#cff1f5"/><ellipse cx="707.02" cy="214.53" rx="12.64" ry="25.61" transform="translate(182.04 734.43) rotate(-61.6)" fill="#f7b548"/><path d="M615,103.45c1.82-3.56.37-10.66-5.87-17.43,12.5-2.8,22.77-9,23.13-13.91.4-5.3-7-14.16-21.86-16.72,8.45-7.9,13.57-17,11.77-21.14-2.7-6.18-19.11-11.6-39.44,1.33,3.4-15.38.46-31.76-5-34C572.1-.67,559,5.24,552.38,23.51,544.79,9.16,531.1-1.78,525.41.24s-11.47,15-4.49,32.79c-13.64-6.46-29.09-7.49-32.46-3S487,47.5,500.6,58.18c-12.28,6.84-21.31,17.3-19.93,22.4,1.49,5.53,12.84,12,29.7,7.78-5.81,12-7.27,24.66-3.49,28,4.8,4.25,20.6,2.65,33.31-15,3.93,17.65,18,34,24.6,32.74,5.84-1.09,13.47-12.71,9.69-31C590.79,110.55,611.91,109.4,615,103.45ZM558.17,70.64a10,10,0,0,0-6-1.62,8.82,8.82,0,0,0-7.51-5.41c0-.3-.07-.61-.12-.92a8.73,8.73,0,0,0,6.26-1.34c2,2.1,5.59,4.2,11.59,1.67a10.28,10.28,0,0,0,3.94,3.56A8.49,8.49,0,0,0,566,70c-1.72-.07-3.48-.11-5.3-.09a9.38,9.38,0,0,0-2.24,1.1Z" fill="#cff1f5"/><ellipse cx="553.61" cy="66.14" rx="12.64" ry="25.61" transform="translate(417.99 606.94) rotate(-82.73)" fill="#f7b548"/></g></g></g></svg>