<svg xmlns="http://www.w3.org/2000/svg" viewBox="0 0 1002.12 685.26"><g id="Layer_2" data-name="Layer 2"><g id="asset"><g id="wizard-hat-red"><path d="M783.39,529.65c-66.87,27.49-145.46,55-230.49,79.82-29.22,8.53-58,16.39-86,23.55C243.51,690.08,65.24,702.79,52.52,659.2,41.87,622.73,150.1,557.11,314,494.4c56.58-21.65,119.79-42.95,187-62.59C626.71,395.1,743.67,370.87,832.93,361c96.8-10.69,161-4.47,168.47,21.05C1011.08,415.22,922.6,472.43,783.39,529.65Z" fill="#d25a48"/><path d="M800.81,425.94l-.9-1.71A5,5,0,0,1,800.81,425.94Z" fill="#4a4844"/><path d="M466.9,633C243.51,690.08,65.24,702.79,52.52,659.2,41.87,622.73,150.1,557.11,314,494.4c28.69-1.2,49.55-.6,55.56,1.75,51,19.9-122,96.26-92,103.58s175.68-11.83,213.37,1.47C511.61,608.52,502.68,623.61,466.9,633Z" fill="#c45141"/><path d="M747.62,427.52c-7.65-12.91-15.14-27.39-22-41.93-15.11-32.33-26.8-64.95-29.07-81.25-1-7.06-4-14.22-8.48-21.29-9.23-14.61-24.62-28.82-40.88-41-19.68-14.72-40.64-26.41-53.43-32.1-19.6-8.72-18-22.44-14.83-34.7a54.88,54.88,0,0,0-13.87,10.12c-6.08,5.9-10.47-.09-14.76-12.95-9.57,22.78-24,41.39-42.9,53.1-14,8.68-18.42,2.12-19.62-12.95-1.38-17.29,1.48-45.79-1-75.31-1.4-16.44-4.46-33.2-10.85-48.52-18.28-43.87-73.92-59-132.2-61a613.82,613.82,0,0,0-61.61,31.45C266.75,68.18,251.2,78,235.76,88.66a701.47,701.47,0,0,0-77.11,61.45q-6,5.53-11.92,11.26h0q-5.17,5-10.22,10.14-7.11,7.22-14,14.66c-38.93,42.3-71.19,89.93-90.2,140.9Q24.66,347.65,19,364.87c-8,24.34-13.24,43.87-16.14,59.3C-3.69,459.06,1.61,473,12.76,474c12.84,1.18,33.44-14.7,52.64-35.19,14.84-15.84,39.17-41.51,65.08-67.27l-16.69,7.89a3.14,3.14,0,0,1-4.42-3.5L114.09,354a3.14,3.14,0,0,0-.78-2.82l-10.75-11.4q5.34-5.72,11-11.6c38.12-39.93,83.54-83.57,96.4-91.78,20.84-13.3,42.56-12,75.37,7.09s-1.33,74-4.73,165.83c-2.24,60.4,1.75,97.81,1.41,135.26a365.29,365.29,0,0,1-4.46,55.17q7.89-.76,16.78-1.94c55.09-7.25,137.91-25.77,229.1-52.4,105.78-30.89,196.19-64.92,243.13-90A238.51,238.51,0,0,1,747.62,427.52ZM31.17,432.71l-1.12-.65q2.5-3.75,5.17-7.58l.66,5.11A3.15,3.15,0,0,1,31.17,432.71Z" fill="#df6551"/><path d="M487.83,212.59l-4.18,3.7a3.15,3.15,0,0,1-5.23-2.13l-1.59-22.37a3.12,3.12,0,0,0-1.54-2.49L456,177.93a3.15,3.15,0,0,1,.41-5.63l20.79-8.43a3.14,3.14,0,0,0,1.88-2.23l4.85-21.9a3.11,3.11,0,0,1,2.91-2.46C489.31,166.8,486.45,195.3,487.83,212.59Z" fill="#fccf84"/><path d="M747.62,427.52a3.12,3.12,0,0,0-.92,2.07L745.6,452a3.14,3.14,0,0,1-5.17,2.25l-17.11-14.5a3.15,3.15,0,0,0-2.86-.63L698.81,445a3.15,3.15,0,0,1-3.73-4.23l8.5-20.76a3.16,3.16,0,0,0-.28-2.91L691,398.32a3.15,3.15,0,0,1,2.87-4.86l22.36,1.67a3.15,3.15,0,0,0,2.69-1.17l6.73-8.37C732.48,400.13,740,414.61,747.62,427.52Z" fill="#fccf84"/><path d="M480.22,493.56a3.14,3.14,0,0,1-.34-2.91l8.12-20.9a3.14,3.14,0,0,0-3.81-4.16l-21.53,6.27a3.15,3.15,0,0,1-2.87-.58L442.41,457.1a3.14,3.14,0,0,0-5.13,2.34l-.69,22.41a3.14,3.14,0,0,1-1.44,2.55L416.3,496.55a3.14,3.14,0,0,0,.64,5.6l21.1,7.58a3.13,3.13,0,0,1,2,2.16l5.72,21.69a3.15,3.15,0,0,0,5.53,1.12L465,517a3.18,3.18,0,0,1,2.67-1.22L490.06,517a3.15,3.15,0,0,0,2.78-4.91Z" fill="#fccf84"/><path d="M318.24,580.56l-20.72,8.59a3.14,3.14,0,0,0-1.87,2.25l-1.36,6.39q-8.88,1.17-16.78,1.94A365.29,365.29,0,0,0,282,544.56l8.65-7.78a3.15,3.15,0,0,1,5.24,2.09l1.77,22.36a3.14,3.14,0,0,0,1.56,2.48l19.42,11.22A3.14,3.14,0,0,1,318.24,580.56Z" fill="#fccf84"/><path d="M416.41,365.31,397,354.08a3.11,3.11,0,0,1-1.56-2.47l-1.77-22.36a3.15,3.15,0,0,0-5.24-2.09l-16.67,15a3.16,3.16,0,0,1-2.84.72l-21.81-5.23a3.15,3.15,0,0,0-3.61,4.34l9.12,20.49a3.15,3.15,0,0,1-.19,2.92L340.7,384.53a3.15,3.15,0,0,0,3,4.77L366,387a3.16,3.16,0,0,1,2.72,1.09l14.57,17.05a3.15,3.15,0,0,0,5.47-1.39l4.67-21.94a3.13,3.13,0,0,1,1.87-2.25L416,370.94A3.15,3.15,0,0,0,416.41,365.31Z" fill="#fccf84"/><path d="M364.26,206.08,360.38,184a3.14,3.14,0,0,1,.89-2.79l16-15.72a3.15,3.15,0,0,0-1.77-5.36L353.28,157a3.15,3.15,0,0,1-2.37-1.71l-10-20.07a3.14,3.14,0,0,0-5.64,0l-9.84,20.15a3.12,3.12,0,0,1-2.36,1.73l-22.18,3.32a3.16,3.16,0,0,0-1.72,5.38l16.13,15.58a3.14,3.14,0,0,1,.92,2.78l-3.69,22.12a3.15,3.15,0,0,0,4.58,3.3l19.8-10.52a3.16,3.16,0,0,1,2.93,0l19.89,10.35A3.14,3.14,0,0,0,364.26,206.08Z" fill="#fccf84"/><path d="M240.38,93.33l.48,22.42a3.14,3.14,0,0,0,5.11,2.39l17.51-14a3.15,3.15,0,0,1,2.87-.55L287.82,110a3.15,3.15,0,0,0,3.86-4.12l-7.92-21a3.12,3.12,0,0,1,.36-2.91l12.79-18.42a3.14,3.14,0,0,0-2.73-4.93l-12,.56C266.75,68.18,251.2,78,235.76,88.66L239,90.77A3.12,3.12,0,0,1,240.38,93.33Z" fill="#fccf84"/><path d="M193.57,182a3.14,3.14,0,0,0-1.52-5.43l-22-4.16a3.14,3.14,0,0,1-2.3-1.82l-9.07-20.51q-6,5.53-11.92,11.26h0l-4.47,8.18a3.16,3.16,0,0,1-2.44,1.62l-3.31.34q-7.11,7.22-14,14.66l8.38,8.89a3.17,3.17,0,0,1,.79,2.82L127,219.8a3.15,3.15,0,0,0,4.42,3.51l20.27-9.59a3.16,3.16,0,0,1,2.93.12L174,225.11a3.15,3.15,0,0,0,4.7-3.12l-2.86-22.25a3.14,3.14,0,0,1,1-2.74Z" fill="#fccf84"/><path d="M113.52,328.16q-5.61,5.88-11,11.6l-4.64-4.92a3.14,3.14,0,0,1,2-5.28Z" fill="#fccf84"/><path d="M34,404.6a3.16,3.16,0,0,0-1,2.75l2.2,17.13q-2.65,3.82-5.17,7.58L11.78,421.45a3.11,3.11,0,0,0-2.92-.12l-6,2.84c2.9-15.43,8.1-35,16.14-59.3l5.91,13.36a3.13,3.13,0,0,0,2.29,1.82l22,4.15a3.15,3.15,0,0,1,1.51,5.44Z" fill="#fccf84"/><path d="M600.36,333.55l-22.43-.22a3.16,3.16,0,0,1-2.58-1.39l-12.53-18.6a3.14,3.14,0,0,0-5.59.76l-7.14,21.26a3.15,3.15,0,0,1-2.12,2l-21.56,6.17a3.15,3.15,0,0,0-1,5.55l18,13.36a3.18,3.18,0,0,1,1.27,2.64l-.8,22.41a3.15,3.15,0,0,0,5,2.68l18.27-13a3.18,3.18,0,0,1,2.91-.39l21.07,7.68a3.15,3.15,0,0,0,4.08-3.9l-6.72-21.39a3.13,3.13,0,0,1,.52-2.88l13.81-17.67A3.14,3.14,0,0,0,600.36,333.55Z" fill="#fccf84"/><path d="M688.12,283.05a3.11,3.11,0,0,1-2.54-.74L668.65,267.6a3.14,3.14,0,0,0-2.85-.67l-21.71,5.61a3.15,3.15,0,0,1-3.69-4.27l8.76-20.65a3.16,3.16,0,0,0-.25-2.92l-1.67-2.63C663.5,254.23,678.89,268.44,688.12,283.05Z" fill="#fccf84"/><path d="M257.2,288.72a3.15,3.15,0,0,0-.94,2.77l3.52,22.15a3.15,3.15,0,0,1-4.61,3.26l-15.87-8.6c.44-2.74.89-5.25,1.36-7.5,4.13-19.92-9.06-16.48-30.16-1.22l1.59-8.64a3.15,3.15,0,0,0-.87-2.8l-15.86-15.86a3.14,3.14,0,0,1,1.81-5.34L219.4,264a3.11,3.11,0,0,0,2.39-1.69l10.18-20a3.14,3.14,0,0,1,5.64.07l9.67,20.23a3.14,3.14,0,0,0,2.35,1.75l22.15,3.51a3.15,3.15,0,0,1,1.68,5.39Z" fill="#f9c163"/><path d="M171.55,332.16c-13.35,12.19-27.43,25.79-41.07,39.36l-16.69,7.89a3.14,3.14,0,0,1-4.42-3.5L114.09,354a3.14,3.14,0,0,0-.78-2.82l-10.75-11.4q5.34-5.72,11-11.6l8.68-.89a3.16,3.16,0,0,0,2.44-1.62L135.4,306a3.15,3.15,0,0,1,5.64.24l9.07,20.51a3.13,3.13,0,0,0,2.29,1.82Z" fill="#f9c163"/><path d="M31.17,432.71l-1.12-.65q2.5-3.75,5.17-7.58l.66,5.11A3.15,3.15,0,0,1,31.17,432.71Z" fill="#f9c163"/><path d="M261,433.66a3.13,3.13,0,0,0-.05,2.93l10.08,20a3.15,3.15,0,0,1-3.4,4.51l-22-4.18a3.12,3.12,0,0,0-2.8.85l-15,14.83c.92-24.4,2-49.92,3.42-73.95l12.37,13.14a3.16,3.16,0,0,0,2.77,1l22.17-3.4a3.14,3.14,0,0,1,3.23,4.62Z" fill="#f9c163"/><path d="M282,544.56a365.29,365.29,0,0,1-4.46,55.17c-1.51.15-3,.28-4.46.41l-2.11-2.47a3.13,3.13,0,0,0-2.72-1.08l-22.3,2.33a3.14,3.14,0,0,1-3-4.77L254.62,575a3.15,3.15,0,0,0,.19-2.92l-9.11-20.49a3.15,3.15,0,0,1,3.6-4.34l21.81,5.23a3.1,3.1,0,0,0,2.84-.72Z" fill="#f9c163"/><path d="M109.37,375.91,114.09,354a3.14,3.14,0,0,0-.78-2.82l-10.75-11.4c-19,20.31-34.91,38.56-42.06,49.15-7.59,11.23-16.89,23.55-25.28,35.57l.66,5.11a3.15,3.15,0,0,1-4.71,3.12l-1.12-.65C19.2,448.36,11.15,463.54,12.76,474c12.84,1.18,33.44-14.7,52.64-35.19,14.84-15.84,39.17-41.51,65.08-67.27l-16.69,7.89A3.14,3.14,0,0,1,109.37,375.91Z" fill="#d25a48"/><path d="M280.56,409.3c3.4-91.78,37.54-146.76,4.73-165.83s-54.53-20.39-75.37-7.09c-12.86,8.21-58.28,51.85-96.4,91.78l8.68-.89a3.16,3.16,0,0,0,2.44-1.62L135.4,306a3.15,3.15,0,0,1,5.64.24l9.07,20.51a3.13,3.13,0,0,0,2.29,1.82l19.15,3.62c14.28-13,27.72-24.47,38.94-32.58h0l1.59-8.64a3.15,3.15,0,0,0-.87-2.8l-15.86-15.86a3.14,3.14,0,0,1,1.81-5.34L219.4,264a3.11,3.11,0,0,0,2.39-1.69l10.18-20a3.14,3.14,0,0,1,5.64.07l9.67,20.23a3.14,3.14,0,0,0,2.35,1.75l22.15,3.51a3.15,3.15,0,0,1,1.68,5.39L257.2,288.72a3.15,3.15,0,0,0-.94,2.77l3.52,22.15a3.15,3.15,0,0,1-4.61,3.26l-15.87-8.6c-3.31,20.41-6,53.65-8.05,90.38l12.37,13.14a3.16,3.16,0,0,0,2.77,1l22.17-3.4a3.14,3.14,0,0,1,3.23,4.62L261,433.66a3.13,3.13,0,0,0-.05,2.93l10.08,20a3.15,3.15,0,0,1-3.4,4.51l-22-4.18a3.12,3.12,0,0,0-2.8.85l-15,14.83c-2.44,64.78-3.4,121.65-3.4,121.65l.87-.25c2,6.77,19.33,8.58,47.75,6.11l-2.11-2.47a3.13,3.13,0,0,0-2.72-1.08l-22.3,2.33a3.14,3.14,0,0,1-3-4.77L254.62,575a3.15,3.15,0,0,0,.19-2.92l-9.11-20.49a3.15,3.15,0,0,1,3.6-4.34l21.81,5.23a3.1,3.1,0,0,0,2.84-.72l8-7.22C282.31,507.11,278.32,469.7,280.56,409.3Z" fill="#d25a48"/><path d="M507.45,42.17l-20.32,1.52a3.14,3.14,0,0,0-2.48,1.56l-11.3,19.36a3.15,3.15,0,0,1-5.63-.39l-8.5-20.75A3.13,3.13,0,0,0,457,41.59l-21.92-4.77a3.14,3.14,0,0,1-1.36-5.47l17.11-14.5a3.17,3.17,0,0,0,1.1-2.72L450.53.36C475.93,3,494,19.69,507.45,42.17Z" fill="#fedba1"/><path d="M520,178.33a3.15,3.15,0,0,0-.22,2.92l9,20.56a3.15,3.15,0,0,1-3.64,4.31l-21.77-5.4a3.12,3.12,0,0,0-2.84.7l-12.61,11.17c-1.38-17.29,1.48-45.79-1-75.31a3.07,3.07,0,0,1,2.57,1.11l14.43,17.16a3.13,3.13,0,0,0,2.71,1.11l22.33-2.16a3.14,3.14,0,0,1,3,4.79Z" fill="#fedba1"/><path d="M487.13,43.69a3.14,3.14,0,0,0-2.48,1.56l-11.3,19.36a3.15,3.15,0,0,1-5.63-.39l-8.5-20.75A3.13,3.13,0,0,0,457,41.59l-21.92-4.77a3.14,3.14,0,0,1-1.36-5.47l17.11-14.5a3.17,3.17,0,0,0,1.1-2.72L450.53.36a71.79,71.79,0,0,0-15.35.1c-25.34,2.77-57,12.23-91.43,27.33,58.28,2,113.92,17.1,132.2,61,6.39,15.32,9.45,32.08,10.85,48.52a3.07,3.07,0,0,1,2.57,1.11l14.43,17.16a3.13,3.13,0,0,0,2.71,1.11l22.33-2.16a3.14,3.14,0,0,1,3,4.79l-11.86,19a3.15,3.15,0,0,0-.22,2.92l9,20.56a3.15,3.15,0,0,1-3.64,4.31l-21.77-5.4a3.12,3.12,0,0,0-2.84.7l-12.61,11.17c1.2,15.07,5.63,21.63,19.62,12.95,18.88-11.71,33.33-30.32,42.9-53.1-9.37-28.08-18.22-88.91-42.9-130.27Z" fill="#e9725d"/><path d="M579,175.27c-3.15,12.26-4.77,26,14.83,34.7,12.79,5.69,33.75,17.38,53.43,32.1l-10.37-16.28a3.15,3.15,0,0,1,2.92-4.83l22.35,1.95a3.15,3.15,0,0,0,2.7-1.14L668,218C624.45,169.53,597.19,166.37,579,175.27Z" fill="#e9725d"/><path d="M800.81,425.94l-.9-1.71h0C759,346.86,725,291.93,696.6,253.49l-2.92,1.75a3.13,3.13,0,0,0-1.52,2.5l-1.38,22.39a3.11,3.11,0,0,1-2.66,2.92c4.47,7.07,7.5,14.23,8.48,21.29,2.27,16.3,14,48.92,29.07,81.25l7.32-9.1a3.15,3.15,0,0,1,5.51,1.22l5.32,21.79a3.16,3.16,0,0,0,1.94,2.19l21,8a3.14,3.14,0,0,1,.53,5.61l-19.07,11.8a3.14,3.14,0,0,0-.57.45,238.51,238.51,0,0,0,18.9,27.89C790.1,442.81,802.72,432.48,800.81,425.94Z" fill="#e9725d"/><path d="M696.6,253.49l-2.92,1.75a3.13,3.13,0,0,0-1.52,2.5l-1.38,22.39a3.11,3.11,0,0,1-2.66,2.92c-9.23-14.61-24.62-28.82-40.88-41l-10.37-16.28a3.15,3.15,0,0,1,2.92-4.83l22.35,1.95a3.15,3.15,0,0,0,2.7-1.14L668,218C676.82,227.85,686.35,239.59,696.6,253.49Z" fill="#fedba1"/><path d="M767.26,415.27l-19.07,11.8a3.14,3.14,0,0,0-.57.45c-7.65-12.91-15.14-27.39-22-41.93l7.32-9.1a3.15,3.15,0,0,1,5.51,1.22l5.32,21.79a3.16,3.16,0,0,0,1.94,2.19l21,8A3.14,3.14,0,0,1,767.26,415.27Z" fill="#fedba1"/><path d="M783.39,529.65c.11-19.78,20.08-43.83,36.33-55.61C850.9,451.44,890.3,432.8,911,406.2s-62.64-11.31-99.86-15.43c-24.11-2.66-16.09-10.88,21.75-29.74,96.8-10.69,161-4.47,168.47,21.05C1011.08,415.22,922.6,472.43,783.39,529.65Z" fill="#df6551"/></g></g></g></svg>