<?xml version="1.0" standalone="no"?>
<!DOCTYPE svg PUBLIC "-//W3C//DTD SVG 20010904//EN"
 "http://www.w3.org/TR/2001/REC-SVG-20010904/DTD/svg10.dtd">
<svg version="1.0" xmlns="http://www.w3.org/2000/svg"
 width="196.000000pt" height="196.000000pt" viewBox="0 0 196.000000 196.000000"
 preserveAspectRatio="xMidYMid meet">
<metadata>
Created by potrace 1.11, written by Peter Selinger 2001-2013
</metadata>
<g transform="translate(0.000000,196.000000) scale(0.100000,-0.100000)"
fill="#000000" stroke="none">
<path d="M895 1733 c-284 -52 -471 -185 -588 -419 -190 -380 -23 -847 367
-1024 107 -49 179 -63 311 -63 82 0 141 6 185 17 223 60 408 214 503 419 31
65 34 95 11 104 -10 4 -13 14 -10 32 16 76 18 105 18 209 0 93 2 113 14 108
23 -9 25 11 8 70 -80 277 -298 476 -589 541 -27 6 -205 11 -230 6z"/>
</g>
</svg>
