<svg xmlns="http://www.w3.org/2000/svg" viewBox="0 0 394.06 363.9"><g id="Layer_2" data-name="Layer 2"><g id="asset"><g id="bubble-antenna"><circle cx="137.87" cy="197.7" r="65.84" fill="#c2e8e3" opacity="0.7"/><path d="M143.17,252.66c-22.95,4.2-57.16-14.59-63.93-48.78C79.24,203.88,100.84,235.27,143.17,252.66Z" fill="#e8fafe"/><circle cx="82.55" cy="89.64" r="40.02" fill="#c2e8e3" opacity="0.7"/><path d="M51.52,76.84C55.8,63.32,75.63,50.3,95.92,56.39,95.92,56.39,72.91,59.06,51.52,76.84Z" fill="#e8fafe"/><rect x="237.89" y="227.04" width="14" height="91.91" transform="translate(-95.97 137.67) rotate(-26.45)" fill="#8a6fe8"/><path d="M340.71,298.64A375.16,375.16,0,0,0,219.05,363.9a69.1,69.1,0,0,1,62.43-98.73,70.36,70.36,0,0,1,8.52.52A69.14,69.14,0,0,1,340.71,298.64Z" fill="#512bd4"/><path d="M200.63,232.19l.46.06Zm0,0,.46.06Z" fill="#d8cff7"/><path d="M261.64,185.57a101.07,101.07,0,0,1-5.56,27.49h0c-18.74,16.66-31.86,20.05-48.58,19.52a31.9,31.9,0,0,0,12.86-3c29.07-13.77,31.6-71.89,5.53-126.92C212.66,74.77,194.24,51.52,174,37.21c-12.77-9-25.08-13.65-35.87-13.65a32.27,32.27,0,0,0-14,3,33.59,33.59,0,0,0-13.89,12.67c7.25-14.6,16.38-23.71,39.59-32.5C161,9,172.69,14.24,184.39,22.52,207.11,38.58,227.62,64.31,242.15,95S263.6,157.81,261.64,185.57Z" fill="#c9bdf2"/><path d="M207.49,232.59a40,40,0,0,1-6.23-.32C203.4,232.42,205.47,232.54,207.49,232.59Z" fill="#d8cff7"/><path d="M256.07,213.07c-5.64,15.41-15.18,26.72-28,32.8a50,50,0,0,1-21.63,4.77c-14.21,0-29.66-5.48-45.2-16.21l-1.11-.77c-22.71-16.07-43.23-41.8-57.75-72.46-13-27.36-19.87-55.92-19.82-81.46q0-4.63.33-9.13c2.1-29.62,14-51,33.58-60.31,10.12-4.79,21.46-5.94,33.41-3.56-23.21,8.79-32.34,17.9-39.59,32.5-5.72,8.91-8.92,21.09-9.54,35.21-1,23.15,4.84,51.48,17.9,79,15.45,32.63,38.12,58.17,60.08,70.67a63.14,63.14,0,0,0,21.44,8l.11,0,.36.05.46.06h.17a40,40,0,0,0,6.23.32C224.21,233.12,237.33,229.73,256.07,213.07Z" fill="#d8cff7"/><circle cx="231.61" cy="65.84" r="65.84" fill="#c2e8e3" opacity="0.7"/><path d="M199,21.28C216.59,6,255.6,4.66,278.88,30.59,278.88,30.59,244.28,14.63,199,21.28Z" fill="#e8fafe"/><circle cx="330.76" cy="146.98" r="40.02" fill="#c2e8e3" opacity="0.7"/><path d="M344.85,116.52c13.33,4.84,25.5,25.2,18.57,45.21C363.42,161.73,361.72,138.63,344.85,116.52Z" fill="#e8fafe"/><circle cx="374.24" cy="61.41" r="19.82" fill="#c2e8e3" opacity="0.7"/><path d="M385.36,73.76c-4.8,5.12-16.44,6.71-24.2-.35A46.43,46.43,0,0,0,385.36,73.76Z" fill="#e8fafe"/><circle cx="19.82" cy="181.55" r="19.82" fill="#c2e8e3" opacity="0.7"/><path d="M21.71,198.07c-6.88,1.39-17.28-4.09-19.5-14.34A46.41,46.41,0,0,0,21.71,198.07Z" fill="#e8fafe"/></g></g></g></svg>