<svg width="32" height="32" viewBox="0 0 32 32" fill="none" xmlns="http://www.w3.org/2000/svg">
<path d="M22.2077 19.5307L12.4998 23.4283L9.86792 12.9294L16.8288 10.1249L22.2077 19.5307Z" fill="#8A6FE8"/>
<path d="M28.5501 22.6085C22.107 24.6508 16.196 27.858 11.0472 32C10.4288 30.7056 10.0836 29.2674 10.0836 27.7429C10.0836 25.4993 10.8171 23.4283 12.0683 21.7744C13.8805 19.3582 16.7713 17.8049 20.0216 17.8049C20.4387 17.8049 20.8414 17.8337 21.2441 17.8768C24.3506 18.2508 27.0113 20.0629 28.5501 22.6085Z" fill="#512BD4"/>
<path d="M12.96 13.7779C9.19193 14.7847 5.2944 12.5698 4.2589 8.83052C3.22339 5.09119 5.43822 1.25119 9.20631 0.244452C12.9744 -0.76229 16.8719 1.45254 17.9074 5.19187C18.9573 8.93119 16.7425 12.7712 12.96 13.7779Z" fill="#D8CFF7"/>
</svg>
