<?xml version="1.0" encoding="utf-8"?>
<!-- Generator: Adobe Illustrator 24.2.0, SVG Export Plug-In . SVG Version: 6.00 Build 0)  -->
<svg version="1.1" id="asset" xmlns="http://www.w3.org/2000/svg" xmlns:xlink="http://www.w3.org/1999/xlink" x="0px" y="0px"
	 viewBox="0 0 2000 2000" enable-background="new 0 0 2000 2000" xml:space="preserve">
<g>
	<path fill="#605D5A" d="M1335.9,1105.3l-15.3-11.7c13.3-17.6,39.8-114.1,21-184.7c-5.8-21.6-15.3-38.5-28.4-50.3
		c0.5-8.3,0.8-16.2,0.9-23.5c22.2,14.2,37.7,37.3,46.1,68.8C1380.2,979.4,1352.5,1083.4,1335.9,1105.3z"/>
	<path fill="#605D5A" d="M1332.2,1132.2c17.3,0,31.4-14,31.4-31.3c0-17.3-14-31.4-31.3-31.4c-17.3,0-31.4,14-31.4,31.3c0,0,0,0,0,0
		C1300.9,1118.1,1314.9,1132.1,1332.2,1132.2z"/>
	<path fill="#72ACF1" d="M1332.2,1118c9,0,16.3-7.3,16.3-16.3s-7.3-16.3-16.3-16.3c-9,0-16.3,7.3-16.3,16.3c0,0,0,0,0,0
		C1315.9,1110.7,1323.2,1118,1332.2,1118z"/>
	<path fill="#A3C9F6" d="M741.1,1187.8c-0.1,0-0.2,0-0.3,0.1c-1.2,0.2-28.9,3.9-43.5-10.5c-8.1-7.9-40.2-63.5-41.6-65.9
		c-0.9-1.5-0.5-3.5,1-4.4c1.5-0.9,3.5-0.5,4.4,1c0,0.1,0.1,0.1,0.1,0.2c9.2,15.9,34.4,58.4,40.5,64.5c12.4,12.2,37.9,8.8,38.1,8.7
		c1.7-0.3,3.4,0.8,3.7,2.6C744,1185.8,742.8,1187.4,741.1,1187.8L741.1,1187.8z"/>
	<path fill="#605D5A" d="M747.6,1192.6c4.9,0,8.8-4,8.8-8.9c0-4.9-4-8.8-8.9-8.8c-4.9,0-8.8,4-8.8,8.8
		C738.8,1188.6,742.7,1192.6,747.6,1192.6C747.6,1192.6,747.6,1192.6,747.6,1192.6z"/>
	<path fill="#A3C9F6" d="M765.2,1170.3c-0.8,0.2-1.6,0-2.2-0.3c-1.5-0.9-2.1-2.8-1.2-4.4c0.1-0.2,12.8-22.6,6-38.6
		c-3.4-8-33.5-47.2-44.9-61.6c-1.1-1.4-0.9-3.4,0.5-4.5c0,0,0,0,0,0c1.4-1.1,3.4-0.8,4.5,0.5c1.7,2.1,41.4,52.6,45.8,63.1
		c8,19-5.8,43.3-6.3,44.3C766.8,1169.6,766,1170.1,765.2,1170.3z"/>
	<path fill="#605D5A" d="M761,1182.4c4.9,0,8.9-4,8.9-8.8s-4-8.8-8.8-8.8c-4.9,0-8.9,4-8.9,8.8l0,0
		C752.2,1178.4,756.1,1182.4,761,1182.4z"/>
	<path fill="#605D5A" d="M689.6,1021c-9.9-2.8-20.4-1.9-29.7,2.6c-5,1.9-8,8.7-15.7,11.4c-5.5,6-9.1,13.5-10.4,21.6
		c-5.7,33.1,24.9,72.1,26.2,73.7c2.3,2.9,6.1,4.2,9.8,3.4c1.4-0.3,2.7-0.9,3.8-1.8c4.2-3.3,4.9-9.3,1.6-13.5
		c-7.4-9.3-25.8-38.1-22.3-58.6c1.2-7.2,5.1-12.7,11.9-17c6.5-4.1,12.9-5.2,19.8-3.3c19.7,5.3,37.9,33.4,43.2,43.8
		c2.4,4.7,8.2,6.6,13,4.2s6.6-8.2,4.2-13l0,0C743.9,1072.7,721.5,1029.7,689.6,1021z"/>
	<path fill="#605D5A" d="M662.5,1026.9l-15.2,12.4c-3.2-4-6.4-8-9.4-11.8c-75.1-97.1-84.6-177.6-69.2-218.1
		c4.5-12.1,11.9-22.9,21.4-31.6c-2.1,13.8-3.5,27.6-4.1,41.6c-6.5,20-5.5,49.1,5.6,83.9C603.3,939.6,625.9,982.1,662.5,1026.9z"/>
</g>
</svg>
