<?xml version="1.0" encoding="utf-8"?>
<!-- Generator: Adobe Illustrator 24.2.0, SVG Export Plug-In . SVG Version: 6.00 Build 0)  -->
<svg version="1.1" id="asset" xmlns="http://www.w3.org/2000/svg" xmlns:xlink="http://www.w3.org/1999/xlink" x="0px" y="0px"
	 viewBox="0 0 2000 2000" enable-background="new 0 0 2000 2000" xml:space="preserve">
<g>
	<circle opacity="0.7" fill="#C2E8E3" enable-background="new    " cx="645.2" cy="376.3" r="65.8"/>
	<path fill="#E8FAFE" d="M650.5,431.2c-23,4.2-57.2-14.6-63.9-48.8C586.6,382.5,608.2,413.9,650.5,431.2z"/>
	<circle opacity="0.7" fill="#C2E8E3" enable-background="new    " cx="589.9" cy="268.2" r="40"/>
	<path fill="#E8FAFE" d="M558.9,255.4c4.3-13.5,24.1-26.5,44.4-20.4C603.3,235,580.3,237.6,558.9,255.4z"/>
	
		<rect x="745.3" y="405.7" transform="matrix(0.8953 -0.4454 0.4454 0.8953 -122.4096 382.3396)" fill="#8A6FE8" width="14" height="91.9"/>
	<path fill="#512BD4" d="M848.1,477.2c-44.2,14-85.5,36.2-121.7,65.3c-16.4-34.5-1.7-75.7,32.8-92.1c9.3-4.4,19.4-6.7,29.6-6.7
		c2.8,0,5.7,0.2,8.5,0.5C818.4,446.9,837.1,459,848.1,477.2z"/>
	<path fill="#D8CFF7" d="M708,410.8l0.5,0.1L708,410.8z M708,410.8l0.5,0.1L708,410.8z"/>
	<path fill="#C9BDF2" d="M769,364.1c-0.6,9.4-2.4,18.6-5.6,27.5l0,0c-18.7,16.7-31.9,20-48.6,19.5c4.4-0.1,8.8-1.1,12.9-3
		c29.1-13.8,31.6-71.9,5.5-126.9c-13.2-27.9-31.7-51.1-51.9-65.4c-12.8-9-25.1-13.6-35.9-13.6c-4.8-0.1-9.6,1-14,3
		c-5.7,2.8-10.6,7.2-13.9,12.7c7.2-14.6,16.4-23.7,39.6-32.5c11.1,2.2,22.8,7.5,34.5,15.8c22.7,16.1,43.2,41.8,57.8,72.5
		S771,336.4,769,364.1z"/>
	<path fill="#D8CFF7" d="M714.8,411.2c-2.1,0.1-4.2-0.1-6.2-0.3C710.8,411,712.8,411.1,714.8,411.2z"/>
	<path fill="#D8CFF7" d="M763.4,391.6c-5.6,15.4-15.2,26.7-28,32.8c-6.8,3.2-14.2,4.8-21.6,4.8c-14.2,0-29.7-5.5-45.2-16.2l-1.1-0.8
		c-22.7-16.1-43.2-41.8-57.8-72.5c-13-27.4-19.9-55.9-19.8-81.5c0-3.1,0.1-6.1,0.3-9.1c2.1-29.6,14-51,33.6-60.3
		c10.1-4.8,21.5-5.9,33.4-3.6c-23.2,8.8-32.3,17.9-39.6,32.5c-5.7,8.9-8.9,21.1-9.5,35.2c-1,23.2,4.8,51.5,17.9,79
		c15.5,32.6,38.1,58.2,60.1,70.7c6.6,4,13.9,6.7,21.4,8h0.1h0.4l0.5,0.1h0.1c0,0,0.1,0,0.1,0c2.1,0.3,4.1,0.4,6.2,0.3
		C731.6,411.7,744.7,408.3,763.4,391.6z"/>
	<circle opacity="0.7" fill="#C2E8E3" enable-background="new    " cx="739" cy="244.4" r="65.8"/>
	<path fill="#E8FAFE" d="M706.4,199.9c17.6-15.3,56.6-16.6,79.9,9.3C786.2,209.2,751.6,193.2,706.4,199.9z"/>
	<circle opacity="0.7" fill="#C2E8E3" enable-background="new    " cx="838.1" cy="325.6" r="40"/>
	<path fill="#E8FAFE" d="M852.2,295.1c13.3,4.8,25.5,25.2,18.6,45.2C870.8,340.3,869.1,317.2,852.2,295.1z"/>
	<circle opacity="0.7" fill="#C2E8E3" enable-background="new    " cx="881.6" cy="240" r="19.8"/>
	<path fill="#E8FAFE" d="M892.7,252.3c-4.8,5.1-16.4,6.7-24.2-0.3C876.4,254.2,884.8,254.4,892.7,252.3z"/>
	<circle opacity="0.7" fill="#C2E8E3" enable-background="new    " cx="527.2" cy="360.1" r="19.8"/>
	<path fill="#E8FAFE" d="M529.1,376.6c-6.9,1.4-17.3-4.1-19.5-14.3C514.7,368.7,521.4,373.7,529.1,376.6z"/>
</g>
</svg>
