<?xml version="1.0" encoding="utf-8"?>
<!-- Generator: Adobe Illustrator 24.2.0, SVG Export Plug-In . SVG Version: 6.00 Build 0)  -->
<svg version="1.1" id="asset" xmlns="http://www.w3.org/2000/svg" xmlns:xlink="http://www.w3.org/1999/xlink" x="0px" y="0px"
	 viewBox="0 0 2000 2000" enable-background="new 0 0 2000 2000" xml:space="preserve">
<g>
	<path fill="#A3C9F6" d="M1310.3,1040.9h-0.5l-41.6-3.5c-3.3-0.3-5.7-3.2-5.4-6.5c0,0,0-0.1,0-0.1l9.5-79.5c0.1-1,0.5-2,1.1-2.8
		l38.1-52.2c2.2-2.4,6-2.6,8.5-0.4c2.1,1.9,2.5,4.9,1.2,7.4l-37.2,51l-8.6,71.8l35.5,3c3.3,0.5,5.5,3.6,5,6.8
		C1315.4,1038.6,1313.1,1040.7,1310.3,1040.9L1310.3,1040.9z"/>
	<path fill="#A3C9F6" d="M804.3,863.2c-2-5.9-4.8-11.6-8.3-16.7l171.8,75.9l9.4,4.2l-4.8,10.9l-17.1-7.5L804.3,863.2z"/>
	<path fill="#A3C9F6" d="M977.3,1037l-4.1,11.2l-24.7-9l-215.1-78.7c-3-2.4-5.8-5-8.4-7.7c4.6,0.9,9.2,1.4,13.9,1.3h1.9
		c0.5,0,1.1,0,1.6-0.1s1.2-0.1,1.8-0.1c1-0.1,2.1-0.2,3.1-0.3l1.5-0.2l202.4,74.1L977.3,1037z"/>
	<path fill="#A3C9F6" d="M954.8,928c0,0,147.7-66,199.9-66.2s145.5,64.6,145.5,64.6s-17,69.6,10.6,109.1
		c-27.9,46.2-95.4,141.3-181.4,141.7c-104.6,0.5-150.3-90.4-182.3-140C970,990.7,954.8,928,954.8,928z"/>
	<path fill="#3E8EED" d="M1000.9,981.4c0,0,117.4-27.6,165.8-27.8s117.3,24.9,117.3,24.9s-37.7-7.4-117.2-7
		S1000.9,981.4,1000.9,981.4z"/>
	<path fill="#3E8EED" d="M1284.4,1058c0,0-51.6,59.5-121.1,59.8c-74.5,0.3-162-57.1-162-57.1s82.5,39.4,162,39
		S1284.4,1058,1284.4,1058z"/>
</g>
</svg>
