<?xml version="1.0" encoding="utf-8"?>
<!-- Generator: Adobe Illustrator 24.2.0, SVG Export Plug-In . SVG Version: 6.00 Build 0)  -->
<svg version="1.1" id="asset" xmlns="http://www.w3.org/2000/svg" xmlns:xlink="http://www.w3.org/1999/xlink" x="0px" y="0px"
	 viewBox="0 0 2000 2000" enable-background="new 0 0 2000 2000" xml:space="preserve">
<g>
	<path fill="#625F5B" d="M1079.1,250.8l-2.4,6.6c-23.5-8.6-48-14.4-72.9-17.2c-0.5,1.2-1.1,2.4-1.8,3.6
		c-6.6,10.6-20.5,13.9-31.1,7.4c-3.9-2.4-7-6-8.9-10.3c-0.4-1-1.4-1.6-2.5-1.5c-1.5,0.1-2.9,0.2-4.3,0.4c-1.1,0.1-1.9,0.9-2.2,1.9
		c-3.1,12.1-15.4,19.4-27.5,16.4c-5.1-1.3-9.6-4.3-12.7-8.6c-0.6-0.9-1.7-1.2-2.8-0.9c-1.9,0.6-3.9,1.2-5.8,1.9
		c-1.1,0.4-1.8,1.5-1.7,2.7l0,0c1.3,12.4-7.7,23.6-20.1,24.9c-7.6,0.8-15.2-2.3-20-8.3c-2.8,1.7-5.6,3.5-8.4,5.3
		c5.1,11.4-0.1,24.8-11.5,29.8c-6.5,2.9-14,2.5-20.3-1c-1-0.6-2.3-0.4-3.1,0.4c-1,1.1-2.1,2.2-3.1,3.3c-0.8,0.9-0.9,2.2-0.2,3.2
		c3.9,5.6,5.1,12.7,3.3,19.3c-1.3,5.2-6.4,11.4-11.2,13.8c-5.3,2.7-11.3,3.3-17,1.6c-1.2-0.4-2.4,0.1-3,1.2c-0.4,0.7-0.7,1.4-1.1,2
		c-0.6,1.1-0.3,2.4,0.7,3.2c9.9,7.6,11.7,21.8,4.1,31.7c-3,3.8-7.1,6.6-11.7,8c-2.4,0.7-4.9,1-7.4,0.8c-1.3-0.1-2.4,0.8-2.7,2
		c-0.2,0.8-0.3,1.6-0.5,2.4c-0.2,1.2,0.4,2.4,1.6,2.8c11.6,4.7,17.1,17.9,12.4,29.5c-2.4,6-7.3,10.6-13.4,12.8
		c-0.4,0.1-0.9,0.3-1.4,0.4c0.7,3.8,1.7,7.6,2.8,11.4l-6.7,2.2c-1.3-4.1-2.4-8.4-3.1-12.6c-12.5-0.4-22.3-10.9-21.8-23.4
		c0.4-11.3,9.1-20.6,20.3-21.7h0.1c1.1-0.1,2-0.9,2.3-2c0.2-1.4,0.5-2.7,0.8-4.1c0.2-1.1-0.2-2.1-1.2-2.7
		c-10.7-6.4-14.2-20.3-7.7-31c3.2-5.3,8.4-9,14.4-10.4c2.9-0.6,5.9-0.7,8.8-0.3c1.1,0.2,2.1-0.3,2.7-1.3c0.6-1.1,1.2-2.2,1.7-3.2
		c0.5-1,0.3-2.2-0.5-3c-8.9-8.7-9.1-23-0.4-32c6.9-7.1,17.7-8.8,26.5-4.3c1,0.5,2.2,0.3,3-0.5c1.1-1.2,2.2-2.4,3.3-3.6
		c0.8-0.9,0.9-2.1,0.3-3.1c-6.8-10.5-3.8-24.5,6.7-31.3c9.4-6,21.7-4.4,29.1,4c2.8-1.9,5.7-3.7,8.7-5.5c-1-2.7-1.6-5.5-1.5-8.4
		c0.1-12.5,10.4-22.5,22.9-22.4c7.4,0.1,14.3,3.8,18.5,10c0.6,1,1.8,1.4,2.9,1c1.7-0.6,3.5-1.2,5.2-1.7c1.2-0.3,1.9-1.5,1.8-2.7
		c0-0.3-0.1-0.6-0.1-0.9c-1.3-12.4,7.6-23.6,20.1-24.9c11.3-1.2,21.7,6.1,24.4,17.1c0.3,1.2,1.4,2.1,2.7,1.9l2.2-0.2
		c1.3-0.1,2.3-1.1,2.3-2.4c1.1-12.4,12.1-21.6,24.5-20.5c12.1,1.1,21.2,11.6,20.6,23.7C1030.5,236.2,1055.3,242.1,1079.1,250.8z"/>
	<path opacity="0.4" fill="#3F3C38" enable-background="new    " d="M1002,243.8c-6.6,10.6-20.5,13.9-31.1,7.4
		c-3.9-2.4-7-6-8.9-10.3c-0.4-1-1.4-1.6-2.5-1.5c-1.5,0.1-2.9,0.2-4.3,0.4c-1.1,0.1-1.9,0.9-2.2,1.9c-3.1,12.1-15.4,19.4-27.5,16.4
		c-5.1-1.3-9.6-4.3-12.7-8.6c-0.6-0.9-1.7-1.2-2.8-0.9c-1.9,0.6-3.9,1.2-5.8,1.9c-1.1,0.4-1.8,1.5-1.7,2.7l0,0
		c1.3,12.4-7.7,23.6-20.1,24.9c-7.6,0.8-15.2-2.3-20-8.3c-2.8,1.7-5.6,3.5-8.4,5.3c5.1,11.4-0.1,24.8-11.5,29.8
		c-6.5,2.9-14,2.5-20.3-1c-1-0.6-2.3-0.4-3.1,0.4c-1,1.1-2.1,2.2-3.1,3.3c-0.8,0.9-0.9,2.2-0.2,3.2c3.9,5.6,5.1,12.7,3.3,19.3
		c-1.3,5.2-6.4,11.4-11.2,13.8c-5.3,2.7-11.3,3.3-17,1.6c-1.2-0.4-2.4,0.1-3,1.2c-0.4,0.7-0.7,1.4-1.1,2c-0.6,1.1-0.3,2.4,0.7,3.2
		c9.9,7.6,11.7,21.8,4.1,31.7c-3,3.8-7.1,6.6-11.7,8c-2.4,0.7-4.9,1-7.4,0.8c-1.3-0.1-2.4,0.8-2.7,2c-0.2,0.8-0.3,1.6-0.5,2.4
		c-0.2,1.2,0.4,2.4,1.6,2.8c11.6,4.7,17.1,17.9,12.4,29.5c-2.4,6-7.3,10.6-13.4,12.8c-2.5-8.3-7.8-30-2.4-52.1
		c6.9-28.1,24.8-60.8,35.9-74.2s42.2-46.6,82.4-63.3s64.5-16.4,104.9-16.7L1002,243.8z"/>
	<path fill="#512BD4" d="M848.1,477.2c-44.2,14-85.5,36.2-121.7,65.3c-16.4-34.5-1.7-75.7,32.8-92.1c9.3-4.4,19.4-6.7,29.6-6.7
		c2.8,0,5.7,0.2,8.5,0.5C818.4,446.9,837.1,459,848.1,477.2z"/>
	<path fill="#33312D" d="M1080.6,173.4c0,0-47.2-6.2-59.5-7.8s-30.1,2.1-33.5,24.3s-12.2,86.9-13.5,96.3s-3.3,32.8,16.5,36.8
		s31.9,6.3,31.9,6.3L1080.6,173.4z"/>
	<path fill="#3F3C38" d="M1149.3,342.5c-9.5-0.4-111.2-10.1-126.8-13.2s-11.3-23.5-11.6-30.5s13.4-101.4,19.5-117.1
		s30.4-10.9,50.2-8.4c18.8,2.4,55.2,7.9,55.2,7.9l22.2,4.1c-12.5-2.3-21.9,3.7-24.4,17.1s-8.8,56.3-9.2,62.9s-2,23,21.3,26.6
		c11.5,1.7,25,3,25,3c2.2,0.4,4.5,0.5,6.7,0.3v0.7c0,0.5-0.1,1.1-0.2,1.9v0.4c-0.5,4.4-1.6,12.9-3.6,24
		C1170.3,338.8,1158.8,342.9,1149.3,342.5z"/>
	<path fill="#4A4844" d="M1176.8,289.3c-1.7,0.1-3.5,0.1-5.2-0.2c-0.1,0-0.3,0-0.4,0c-0.1,0-13.5-1.3-24.7-3c-2.8-0.4-5.4-1.1-8-2.2
		c-8.5-3.8-8.7-10.8-8.3-17.6v-0.4c0-0.4,0.1-0.8,0.1-1.4c0.2,11.4,8.7,11.3,12.4,12.1s22,3.3,30,4.7s10.7-6.7,11.2-11.6
		s5.8-42.1,6.8-52.2s-5.8-11.7-11-13s-17.9-3.9-28.7-5.8c-10.1-1.8-12.3,8.2-14,18.5c0.9-5.6,1.7-10.4,2.3-13.6
		c1.9-9.8,7.9-14.1,17.5-12.3l0.6,0.1l0.8,0.2l2.2,0.4l1.9,0.4l2.1,0.4c3.5,0.6,6.3,1.1,9.1,1.6l2,0.4l1.6,0.3h0.2l1.1,0.2h0.1
		l0.5,0.1l0.8,0.1l1.3,0.2l1.1,0.2l5.9,1.2c0.8,0.1,1.7,0.4,2.4,0.8c2.8,1.4,5,3.9,6,6.8c1.2,3.2,1.6,6.6,1.2,9.9
		c-1,7.4-7.3,50.6-9.2,60.8C1186.2,288.4,1179.1,289,1176.8,289.3z"/>
	<path fill="#625F5B" d="M1172.8,281.2c-8-1.4-26.3-4-30-4.7s-12.2-0.6-12.4-12.1c0,0,0-0.1,0-0.3c0.7-6.9,3.6-27.1,6.1-43.1
		c0.2-1,0.2-1.6,0.3-1.8l0,0c0.1-0.4,0.1-0.8,0.2-1.1s0.1-0.6,0.2-0.9c1.7-10.2,3.8-20.3,14-18.5c10.8,1.9,23.6,4.6,28.7,5.8
		s12,2.9,11,13s-6.3,47.3-6.8,52.2S1180.7,282.6,1172.8,281.2z"/>
	<path fill="#33312D" d="M1177,298.2l-43.9-5.5c-26-3.1-25.7-21.1-24.5-28.6s5.8-39.9,9-60.7s8-24,18.1-22.1l22.2,4.1
		c-12.5-2.3-21.9,3.7-24.4,17.1s-8.8,56.2-9.2,62.9s-2,23,21.3,26.6c11.5,1.7,25,3,25,3c2.2,0.4,4.5,0.5,6.7,0.3v0.7
		c0,0.5-0.1,1.1-0.2,1.9L1177,298.2z"/>
	<path fill="#625F5B" d="M1088.9,277.1l-0.6-0.1c-5.4-0.6-29.4-4.4-31.9-4.7s-7.3-1.6-6.6-8.3s7.3-44.2,8-49.3s4.4-5.8,7.2-5.4
		s27,4.5,30.8,5.2c0.2,0,0.4,0.1,0.6,0.1c3.5,0.8,5.5,3.2,5.2,6.4c-0.3,3.4-6.6,45.1-7,48.2S1092.7,277.5,1088.9,277.1z"/>
	<path fill="#4A4844" d="M1088.9,277.1l-0.6-0.1c1-1.1,1.8-2.4,2.3-3.9c0.5-2.3,6.2-45.5,7.1-50.4c0.7-3.6,0.3-5.7-1.2-8
		c3.5,0.8,5.5,3.2,5.2,6.4c-0.3,3.4-6.6,45.1-7,48.2S1092.7,277.5,1088.9,277.1z"/>
	<path fill="#3F3C38" d="M1176.8,289.3c-1.7,0.1-3.5,0.1-5.2-0.2c-0.1,0-0.3,0-0.4,0c-0.1,0-13.5-1.3-24.7-3c-2.8-0.4-5.4-1.1-8-2.2
		c-8.5-3.8-8.7-10.8-8.3-17.6v-0.4c0-0.4,0.1-0.8,0.1-1.4c0,0,0-0.1,0-0.3c0.7-6.9,3.6-27.1,6.1-43.1c0.2-1,0.2-1.6,0.3-1.8l0,0
		c0.1-0.4,0.1-0.8,0.2-1.1s0.1-0.6,0.2-0.9c0.9-5.6,1.7-10.4,2.3-13.6c1.9-9.8,7.9-14.1,17.5-12.3l0.6,0.1l0.8,0.2l2.2,0.4l1.9,0.4
		l2.1,0.4c3.5,0.6,6.3,1.1,9.1,1.6l2,0.4l1.6,0.3h0.2l1.1,0.2h0.1l0.5,0.1l0.8,0.1l1.3,0.2l1.1,0.2l5.9,1.1c0.8,0.1,1.7,0.4,2.4,0.8
		c2.8,1.4,5,3.9,6,6.8c1.2,3.2,1.6,6.6,1.2,9.9c-1,7.4-7.3,50.6-9.2,60.8C1186.2,288.4,1179.1,289,1176.8,289.3z M1194.4,276.4
		c1.8-10.3,8.3-54,9.2-61.1c1-7.8-1.8-19-10.7-23c-1.2-0.5-2.5-0.9-3.8-1.2c-2.2-0.4-4.1-0.8-5.8-1.1l-2.4-0.4l-1.3-0.2l-1.3-0.2
		l-1.5-0.3l-6.8-1.2l-0.8-0.1c-0.1,0-0.3,0-0.4-0.1l-0.7-0.1l-2.3-0.4l-2.1-0.4l-4.2-0.8l-1.4-0.3c-12.5-2.3-21.9,3.7-24.4,17.1
		s-8.8,56.2-9.2,62.9c0,0.4,0,0.7-0.1,1.1s0,0.8-0.1,1.2c-0.1,1.7-0.1,3.5,0.1,5.2c0,0.5,0.1,1.1,0.2,1.7c0.2,1.4,0.6,2.9,1.2,4.2
		c0.2,0.4,0.4,0.9,0.6,1.3c2.5,5.2,8,10,19.4,11.8c11.5,1.7,25,3,25,3c2.2,0.4,4.5,0.5,6.7,0.3
		C1188.4,294.2,1192.9,285.2,1194.4,276.4L1194.4,276.4z"/>
	
		<ellipse transform="matrix(0.1559 -0.9878 0.9878 0.1559 742.8693 1349.3815)" fill="#4A4844" cx="1161" cy="240" rx="30.2" ry="20.5"/>
	<path fill="#3F3C38" d="M1157.8,260.1c-0.5-0.1-0.9-0.2-1.4-0.3c-6.3-2-10.2-10.4-9.3-20.1c0-0.3,0.1-0.6,0.1-0.9s0.1-0.6,0.1-0.9
		l0.2-1.2c0-0.3,0.1-0.5,0.2-0.8c2.1-9.4,8.4-16.1,15-16.1c0.5,0,0.9,0,1.4,0.1c7.5,1.2,12.2,11.1,10.4,22.2
		S1165.3,261.3,1157.8,260.1z"/>
	<path fill="#33312D" d="M1156.5,259.8c-6.3-2-10.2-10.4-9.3-20.1c0-0.3,0.1-0.6,0.1-0.9s0.1-0.6,0.1-0.9l0.2-1.2
		c0-0.3,0.1-0.5,0.2-0.8c2.1-9.4,8.4-16.1,15-16.1c5.4,1.9,8.4,11.1,6.8,21.5S1162.2,259.6,1156.5,259.8z"/>
</g>
</svg>
