<?xml version="1.0" encoding="utf-8"?>
<!-- Generator: Adobe Illustrator 24.2.0, SVG Export Plug-In . SVG Version: 6.00 Build 0)  -->
<svg version="1.1" id="asset" xmlns="http://www.w3.org/2000/svg" xmlns:xlink="http://www.w3.org/1999/xlink" x="0px" y="0px"
	 viewBox="0 0 2000 2000" enable-background="new 0 0 2000 2000" xml:space="preserve">
<g>
	<path fill="#8A6FE8" d="M804,455.8L736.5,483l-18.4-73.1l48.4-19.5L804,455.8z"/>
	<path fill="#512BD4" d="M848.1,477.2c-44.2,14-85.5,36.2-121.7,65.3c-16.4-34.5-1.7-75.7,32.8-92.1c9.3-4.4,19.4-6.7,29.6-6.7
		c2.8,0,5.7,0.2,8.5,0.5C818.4,446.9,837.1,459,848.1,477.2z"/>
	<path fill="#D8CFF7" d="M739.7,415.8c-26.2,7-53.2-8.3-60.5-34.4c-7.1-25.8,8-52.4,33.8-59.5c0.2-0.1,0.5-0.1,0.7-0.2
		c26.2-7,53.2,8.3,60.5,34.4c7.1,25.7-8,52.4-33.7,59.5C740.2,415.7,739.9,415.7,739.7,415.8z"/>
</g>
</svg>
