<?xml version="1.0" encoding="utf-8"?>
<!-- Generator: Adobe Illustrator 24.2.0, SVG Export Plug-In . SVG Version: 6.00 Build 0)  -->
<svg version="1.1" id="asset" xmlns="http://www.w3.org/2000/svg" xmlns:xlink="http://www.w3.org/1999/xlink" x="0px" y="0px"
	 viewBox="0 0 2000 2000" enable-background="new 0 0 2000 2000" xml:space="preserve">
<g>
	<path fill="#9C9894" d="M757.5,462.2c-18-45.4-23.4-89.6-15.7-127.8c7.2-36,25.7-66,53.4-86.8c30.9-23.2,72.1-33.5,116.1-29
		c47.3,4.8,96.5,26.2,142.4,61.8l-8.6,11.1c-43.8-34-90.6-54.4-135.3-58.9c-40.5-4.1-78.2,5.2-106.3,26.2
		c-24.9,18.7-41.6,45.8-48.1,78.3c-7.2,35.5-2,76.9,15,119.9L757.5,462.2z"/>
	<path fill="#512BD4" d="M848.1,477.2c-44.2,14-85.5,36.2-121.7,65.3c-16.4-34.5-1.7-75.7,32.8-92.1c9.3-4.4,19.4-6.7,29.6-6.7
		c2.8,0,5.7,0.2,8.5,0.5C818.4,446.9,837.1,459,848.1,477.2z"/>
	<path fill="#FCD18A" d="M1111.2,435.1c-5.6-3.3-10.8-7.3-15.4-11.9l0,0c-15.5-15.4-24.2-36.6-25.4-59.2c-1-21.6,4.4-43,15.6-61.5
		c9.1-15.4,21.9-28.4,37.2-37.8c20.9-12.7,45.1-17.4,67.6-12.4l0,0c8.5,1.9,16.6,5.1,24,9.5c42.5,25.4,53.8,84.8,25.2,132.7
		S1153.7,460.5,1111.2,435.1z"/>
	
		<linearGradient id="SVGID_1_" gradientUnits="userSpaceOnUse" x1="1338.041" y1="469.3816" x2="1049.651" y2="321.7115" gradientTransform="matrix(0.35 0.94 0.94 -0.35 436.62 -555.54)">
		<stop  offset="3.000000e-02" style="stop-color:#F8B84F;stop-opacity:0"/>
		<stop  offset="0.21" style="stop-color:#F8B84F;stop-opacity:0.22"/>
		<stop  offset="0.5" style="stop-color:#F8B84F;stop-opacity:0.55"/>
		<stop  offset="0.73" style="stop-color:#F8B84F;stop-opacity:0.79"/>
		<stop  offset="0.91" style="stop-color:#F8B84F;stop-opacity:0.94"/>
		<stop  offset="1" style="stop-color:#F8B84F"/>
	</linearGradient>
	<path opacity="0.3" fill="url(#SVGID_1_)" enable-background="new    " d="M1324.3,557.6c67.4-68.6,96.7-162.4,46.2-184.6
		l-204.9-89.8l-95.9,81.9l108.5,201c1.6,3.4,3.3,6.7,5.3,9.8C1213.1,623.5,1276.1,606.8,1324.3,557.6z"/>
	<circle fill="#F8BB55" cx="1124.3" cy="335.7" r="67"/>
	<path fill="#DF9B39" d="M1095.8,423.1l-81.8-70.5l-0.9-0.8l-0.2-0.2c-23.5-20.8-28.2-58.8-9.5-90.1c18-30.1,51.7-44.1,80.6-35.5
		l106.8,26.1l0,0c-22.5-5-46.7-0.3-67.6,12.4c-15.3,9.4-28,22.4-37.1,37.8c-11.2,18.5-16.6,39.9-15.6,61.5
		C1071.5,386.6,1080.3,407.8,1095.8,423.1z"/>
</g>
</svg>
