<?xml version="1.0" encoding="utf-8"?>
<!-- Generator: Adobe Illustrator 24.2.0, SVG Export Plug-In . SVG Version: 6.00 Build 0)  -->
<svg version="1.1" id="asset" xmlns="http://www.w3.org/2000/svg" xmlns:xlink="http://www.w3.org/1999/xlink" x="0px" y="0px"
	 viewBox="0 0 2000 2000" enable-background="new 0 0 2000 2000" xml:space="preserve">
<g>
	
		<linearGradient id="SVGID_1_" gradientUnits="userSpaceOnUse" x1="487.8795" y1="1015.9296" x2="1361.6431" y2="1015.9296" gradientTransform="matrix(1 0 0 -1 0 2000)">
		<stop  offset="4.000000e-02" style="stop-color:#F8B84F"/>
		<stop  offset="0.16" style="stop-color:#F5B44D"/>
		<stop  offset="0.26" style="stop-color:#EAA945"/>
		<stop  offset="0.37" style="stop-color:#D89738"/>
		<stop  offset="0.4" style="stop-color:#D18F33"/>
		<stop  offset="0.45" style="stop-color:#DD9A39"/>
		<stop  offset="0.54" style="stop-color:#E8A63F"/>
		<stop  offset="0.66" style="stop-color:#EFAC43"/>
		<stop  offset="1" style="stop-color:#F1AE44"/>
	</linearGradient>
	<path fill="url(#SVGID_1_)" d="M585.7,844.5c-44.9-38.2-55,25.8-56.2,32.3c0,0-39.3-5.4-41.5,13.2s173.4,264.5,517.9,244.6
		s360.5-116.9,355.2-128.9s-23.7-15-28.9-17.8s-14.8-17.9-19-16.4S963.6,1166.1,585.7,844.5z"/>
	
		<linearGradient id="SVGID_2_" gradientUnits="userSpaceOnUse" x1="695.5875" y1="810.9225" x2="844.3325" y2="959.6675" gradientTransform="matrix(1 0 0 -1 0 2000)">
		<stop  offset="0" style="stop-color:#F1AE44"/>
		<stop  offset="0.71" style="stop-color:#D18F33"/>
	</linearGradient>
	<path fill="url(#SVGID_2_)" d="M739,1232.5c0,0,15.5-4.8,22.1,7.9s9.2-6.1,15.2,0s12.6,5.2,12.6,5.2L804,1000l-42.9-26.2
		L739,1232.5z"/>
	<path fill="#F1AE44" d="M757.9,959.5c7-28.8,46.3-2.1,50,6.1s17.3-14.4,24.1,6.9s44,217.8,40.5,246.4s-40,38.8-40.5,48.5
		s-36.3-13.8-38,0S748.1,999.8,757.9,959.5z"/>
</g>
</svg>
