<svg xmlns="http://www.w3.org/2000/svg" viewBox="0 0 484.12 377.26"><g id="Layer_2" data-name="Layer 2"><g id="asset"><g id="gopro-antenna"><path d="M359.32,85.56,357,92.15A313.15,313.15,0,0,0,284.05,75a23.61,23.61,0,0,1-1.8,3.59,22.61,22.61,0,0,1-39.95-2.88,2.5,2.5,0,0,0-2.48-1.53c-1.45.1-2.9.22-4.34.35a2.5,2.5,0,0,0-2.2,1.9,22.62,22.62,0,0,1-40.17,7.79,2.51,2.51,0,0,0-2.76-.92c-1.94.59-3.88,1.22-5.8,1.87a2.5,2.5,0,0,0-1.66,2.69v0a22.61,22.61,0,0,1-40.07,16.61q-4.24,2.57-8.36,5.32a22.62,22.62,0,0,1-31.77,28.88,2.5,2.5,0,0,0-3.06.44q-1.56,1.65-3.08,3.31a2.53,2.53,0,0,0-.16,3.17,23.14,23.14,0,0,1,3.32,19.35c-1.32,5.16-6.44,11.4-11.22,13.75a23.25,23.25,0,0,1-17,1.62,2.56,2.56,0,0,0-3,1.18c-.37.68-.74,1.36-1.09,2a2.52,2.52,0,0,0,.72,3.18,22.61,22.61,0,0,1-7.58,39.66,23.14,23.14,0,0,1-7.44.84,2.53,2.53,0,0,0-2.65,2c-.17.79-.32,1.58-.48,2.37a2.51,2.51,0,0,0,1.57,2.81,22.62,22.62,0,0,1-1,42.27c-.44.16-.9.31-1.36.43a92.49,92.49,0,0,0,2.85,11.36l-6.67,2.15a100.76,100.76,0,0,1-3.13-12.65,22.61,22.61,0,0,1-1.63-45.08l.12,0a2.55,2.55,0,0,0,2.28-2.05c.24-1.35.52-2.72.81-4.08A2.51,2.51,0,0,0,42.72,224a22.61,22.61,0,0,1,6.64-41.42,23.24,23.24,0,0,1,8.77-.26A2.5,2.5,0,0,0,60.78,181c.57-1.09,1.15-2.17,1.74-3.25a2.52,2.52,0,0,0-.46-3,22.61,22.61,0,0,1,26.1-36.28,2.5,2.5,0,0,0,3-.54c1.1-1.2,2.2-2.4,3.32-3.58a2.53,2.53,0,0,0,.28-3.13,22.61,22.61,0,0,1,35.88-27.3c2.84-1.9,5.74-3.73,8.67-5.49A22.45,22.45,0,0,1,137.79,90a22.62,22.62,0,0,1,41.36-12.4,2.52,2.52,0,0,0,2.9,1c1.73-.58,3.46-1.15,5.19-1.69A2.49,2.49,0,0,0,189,74.18q-.08-.47-.12-.93a22.61,22.61,0,0,1,44.45-7.76,2.52,2.52,0,0,0,2.67,2q1.08-.1,2.16-.18a2.55,2.55,0,0,0,2.34-2.36,22.61,22.61,0,0,1,45.1,3.2A320.41,320.41,0,0,1,359.32,85.56Z" fill="#625f5b"/><path d="M282.25,78.57a22.61,22.61,0,0,1-39.95-2.88,2.5,2.5,0,0,0-2.48-1.53c-1.45.1-2.9.22-4.34.35a2.5,2.5,0,0,0-2.2,1.9,22.62,22.62,0,0,1-40.17,7.79,2.51,2.51,0,0,0-2.76-.92c-1.94.59-3.88,1.22-5.8,1.87a2.5,2.5,0,0,0-1.66,2.69v0a22.61,22.61,0,0,1-40.07,16.61q-4.24,2.57-8.36,5.32a22.62,22.62,0,0,1-31.77,28.88,2.5,2.5,0,0,0-3.06.44q-1.56,1.65-3.08,3.31a2.53,2.53,0,0,0-.16,3.17,23.14,23.14,0,0,1,3.32,19.35c-1.32,5.16-6.44,11.4-11.22,13.75a23.25,23.25,0,0,1-17,1.62,2.56,2.56,0,0,0-3,1.18c-.37.68-.74,1.36-1.09,2a2.52,2.52,0,0,0,.72,3.18,22.61,22.61,0,0,1-7.58,39.66,23.14,23.14,0,0,1-7.44.84,2.53,2.53,0,0,0-2.65,2c-.17.79-.32,1.58-.48,2.37a2.51,2.51,0,0,0,1.57,2.81,22.62,22.62,0,0,1-1,42.27c-2.51-8.26-7.84-30-2.44-52.13C55,196.34,72.93,163.66,84,150.26S126.21,103.61,166.4,87s64.47-16.43,104.9-16.74Z" fill="#3f3c38" opacity="0.4"/><path d="M128.33,312A375.16,375.16,0,0,0,6.67,377.26,69.1,69.1,0,0,1,69.1,278.53a70.36,70.36,0,0,1,8.52.52A69.14,69.14,0,0,1,128.33,312Z" fill="#512bd4"/><path d="M360.81,8.18S313.64,2,301.26.35,271.18,2.4,267.75,24.67,255.58,111.61,254.28,121s-3.29,32.79,16.53,36.82,31.92,6.31,31.92,6.31Z" fill="#33312d"/><path d="M429.53,177.29c-9.51-.38-111.19-10.06-126.8-13.17s-11.3-23.54-11.6-30.47S304.55,32.27,310.64,16.53,341,5.67,360.81,8.18c18.85,2.39,55.19,7.9,55.19,7.9l22.21,4.12c-12.5-2.32-21.88,3.67-24.44,17.1s-8.8,56.24-9.24,62.85-2,23,21.3,26.56c11.54,1.74,25,3,25,3a26.38,26.38,0,0,0,6.71.28l0,.7c0,.47-.11,1.1-.19,1.88l-.05.4c-.49,4.36-1.58,12.86-3.64,24C450.58,173.61,439,177.67,429.53,177.29Z" fill="#3f3c38"/><path d="M457,124.05a20.79,20.79,0,0,1-5.2-.23,2.6,2.6,0,0,0-.39,0c-.12,0-13.46-1.3-24.71-3a30.64,30.64,0,0,1-8-2.19c-8.46-3.8-8.73-10.81-8.26-17.66l0-.38c0-.34.06-.81.11-1.36.21,11.42,8.74,11.33,12.41,12.06s22,3.33,30,4.71,10.66-6.69,11.2-11.56S470,62.33,471,52.24s-5.85-11.73-11-13-17.94-3.85-28.73-5.78c-10.14-1.81-12.26,8.22-14,18.47.88-5.57,1.69-10.38,2.3-13.56,1.86-9.83,7.91-14.09,17.49-12.31l.61.11.82.16c.75.14,1.49.28,2.21.4l1.93.36,2.12.4,9.06,1.62,2,.36,1.56.27.16,0,1.12.2h.07l.47.08.78.14,1.31.24,1.09.19,5.79,1.07a11,11,0,0,1,2.44.75,12.16,12.16,0,0,1,6,6.83,21,21,0,0,1,1.25,10c-1,7.36-7.33,50.61-9.17,60.84C466.47,123.19,459.37,123.84,457,124.05Z" fill="#4a4844"/><path d="M453,116c-7.95-1.38-26.29-4-30-4.71s-12.2-.64-12.41-12.06c0,0,0-.12,0-.34.73-6.9,3.61-27.1,6.11-43.07.15-1,.24-1.66.26-1.77v0c.06-.37.13-.75.18-1.11s.11-.6.15-.9c1.7-10.25,3.82-20.28,14-18.47,10.79,1.93,23.61,4.58,28.73,5.78s12,2.86,11,13-6.28,47.3-6.82,52.16S461,117.34,453,116Z" fill="#625f5b"/><path d="M457.3,133l-43.9-5.54c-25.95-3.09-25.69-21.12-24.52-28.6s5.85-39.86,9-60.67,8-24,18.12-22.11l22.21,4.12c-12.5-2.32-21.88,3.67-24.44,17.1s-8.8,56.24-9.24,62.85-2,23,21.3,26.56c11.54,1.74,25,3,25,3a26.38,26.38,0,0,0,6.71.28l0,.7c0,.47-.11,1.1-.19,1.88Z" fill="#33312d"/><path d="M369.16,111.92l-.59-.07c-5.38-.64-29.37-4.35-31.91-4.67s-7.31-1.58-6.59-8.31,7.31-44.22,8-49.26,4.42-5.75,7.17-5.37,27,4.54,30.82,5.17a4.53,4.53,0,0,1,.64.13c3.46.79,5.47,3.18,5.17,6.43-.33,3.43-6.56,45.11-7,48.19S373,112.31,369.16,111.92Z" fill="#625f5b"/><path d="M369.16,111.92l-.59-.07a11.9,11.9,0,0,0,2.26-3.85c.48-2.28,6.19-45.46,7.13-50.42.7-3.62.34-5.67-1.25-8,3.46.79,5.47,3.18,5.17,6.43-.33,3.43-6.56,45.11-7,48.19S373,112.31,369.16,111.92Z" fill="#4a4844"/><path d="M457,124.05a20.79,20.79,0,0,1-5.2-.23,2.6,2.6,0,0,0-.39,0c-.12,0-13.46-1.3-24.71-3a30.64,30.64,0,0,1-8-2.19c-8.46-3.8-8.73-10.81-8.26-17.66l0-.38c0-.34.06-.81.11-1.36,0,0,0-.12,0-.34.73-6.9,3.61-27.1,6.11-43.07.15-1,.24-1.66.26-1.77v0c.06-.37.13-.75.18-1.11s.11-.6.15-.9c.88-5.57,1.69-10.38,2.3-13.56,1.86-9.83,7.91-14.09,17.49-12.31l.61.11.82.16c.75.14,1.49.28,2.21.4l1.93.36,2.12.4,9.06,1.62,2,.36,1.56.27.16,0,1.12.2h.07l.47.08.78.14,1.31.24,1.09.19,5.79,1.07a11,11,0,0,1,2.44.75,12.16,12.16,0,0,1,6,6.83,21,21,0,0,1,1.25,10c-1,7.36-7.33,50.61-9.17,60.84C466.47,123.19,459.37,123.84,457,124.05Zm17.69-12.87c1.85-10.35,8.27-54,9.21-61.11,1-7.82-1.79-19-10.73-23a16.3,16.3,0,0,0-3.79-1.18l-5.83-1.07-2.38-.43-1.31-.23-1.35-.24L457,23.61l-6.83-1.2c-.26-.05-.53-.09-.79-.15a2.7,2.7,0,0,1-.41-.07l-.74-.13-2.33-.42-2.12-.4-4.16-.77-1.45-.27c-12.5-2.32-21.88,3.67-24.44,17.1s-8.8,56.24-9.24,62.85c0,.35,0,.73-.07,1.12s0,.81-.07,1.25a36.2,36.2,0,0,0,.11,5.24c.05.54.13,1.1.22,1.65a21.28,21.28,0,0,0,1.16,4.24c.17.44.37.88.58,1.3,2.54,5.24,8,10,19.37,11.76,11.54,1.74,25,3,25,3a26.38,26.38,0,0,0,6.71.28C468.7,129,473.14,119.94,474.71,111.18Z" fill="#3f3c38"/><ellipse cx="441.28" cy="74.83" rx="30.24" ry="20.47" transform="translate(298.55 499.04) rotate(-81.03)" fill="#4a4844"/><path d="M438.11,94.9a8.83,8.83,0,0,1-1.37-.33c-6.3-2-10.21-10.41-9.28-20.07,0-.3.06-.58.1-.89s.08-.62.13-.93l.21-1.18c.05-.26.11-.52.16-.77,2.12-9.39,8.42-16.13,15-16.09a11.18,11.18,0,0,1,1.41.12C452,55.94,456.62,65.89,454.87,77S445.61,96.09,438.11,94.9Z" fill="#3f3c38"/><path d="M436.74,94.57c-6.3-2-10.21-10.41-9.28-20.07,0-.3.06-.58.1-.89s.08-.62.13-.93l.21-1.18c.05-.26.11-.52.16-.77,2.12-9.39,8.42-16.13,15-16.09,5.43,1.91,8.42,11.14,6.79,21.54S442.49,94.42,436.74,94.57Z" fill="#33312d"/></g></g></g></svg>