<svg xmlns="http://www.w3.org/2000/svg" xmlns:xlink="http://www.w3.org/1999/xlink" viewBox="0 0 676.27 386.48"><defs><linearGradient id="linear-gradient" x1="833.15" y1="129.35" x2="544.76" y2="277.02" gradientTransform="matrix(0.35, 0.94, -0.94, 0.35, 454.08, -505.46)" gradientUnits="userSpaceOnUse"><stop offset="0.03" stop-color="#f8b84f" stop-opacity="0"/><stop offset="0.21" stop-color="#f8b84f" stop-opacity="0.22"/><stop offset="0.5" stop-color="#f8b84f" stop-opacity="0.55"/><stop offset="0.73" stop-color="#f8b84f" stop-opacity="0.79"/><stop offset="0.91" stop-color="#f8b84f" stop-opacity="0.94"/><stop offset="1" stop-color="#f8b84f"/></linearGradient></defs><g id="Layer_2" data-name="Layer 2"><g id="asset"><g id="light-antenna"><path d="M37.77,244.51c-18-45.44-23.38-89.62-15.7-127.76,7.24-36,25.72-66,53.44-86.75C106.41,6.82,147.65-3.46,191.63,1c47.28,4.84,96.53,26.21,142.42,61.81l-8.58,11.07c-43.82-34-90.59-54.38-135.26-58.95C149.73,10.82,112,20.14,83.92,41.2,59,59.9,42.35,87,35.8,119.51c-7.15,35.49-2,76.93,15,119.85Z" fill="#9c9894"/><path d="M128.33,259.49A375.16,375.16,0,0,0,6.67,324.75,69.1,69.1,0,0,1,69.1,226a70.36,70.36,0,0,1,8.52.52A69.14,69.14,0,0,1,128.33,259.49Z" fill="#512bd4"/><path d="M391.47,217.37a80.41,80.41,0,0,1-15.39-11.93l0,0c-15.5-15.37-24.25-36.55-25.45-59.22a111.68,111.68,0,0,1,52.83-99.3C424.3,34.17,448.5,29.49,471,34.45h0A80.33,80.33,0,0,1,495,44c42.53,25.37,53.83,84.77,25.25,132.65S434,242.75,391.47,217.37Z" fill="#fcd18a"/><path d="M604.58,339.89c67.43-68.64,96.69-162.43,46.2-184.56L445.9,65.55,350,147.41l108.54,201a85.18,85.18,0,0,0,5.32,9.84C493.34,405.76,556.31,389,604.58,339.89Z" opacity="0.3" fill="url(#linear-gradient)"/><circle cx="404.52" cy="117.96" r="67.03" fill="#f8bb55"/><path d="M376,205.4,294.3,134.94l-.92-.8-.24-.21c-23.5-20.83-28.2-58.83-9.53-90.09,18-30.12,51.74-44.12,80.56-35.46L471,34.45h0c-22.5-5-46.7-.28-67.58,12.43a111.68,111.68,0,0,0-52.83,99.3C351.79,168.85,360.54,190,376,205.4Z" fill="#df9b39"/></g></g></g></svg>