<svg xmlns="http://www.w3.org/2000/svg" viewBox="0 0 420.02 420.81"><g id="Layer_2" data-name="Layer 2"><g id="asset"><g id="loud-speaker-antenna"><path d="M115.85,134.1q-7.35,0-14.26.69v-6.06a4.85,4.85,0,0,0-4.21-4.88,4.7,4.7,0,0,0-5.16,4.66v4a4.31,4.31,0,0,1-3.44,4.22h-.07a4.34,4.34,0,0,1-5.14-3.47l-.2-1.07a4.82,4.82,0,0,0-5-4.05,4.69,4.69,0,0,0-4.24,5.5l.39,2.18a5.48,5.48,0,0,1-3.38,6.08l-.1,0a5.41,5.41,0,0,1-7.12-3.39l-.31-1a4.82,4.82,0,0,0-5.48-3.37,4.7,4.7,0,0,0-3.51,6l1.17,3.65a6.5,6.5,0,0,1-2.51,7.36l-1.54,1.06a6.51,6.51,0,0,1-9.38-2.1h0a4.84,4.84,0,0,0-6.08-2.12,4.69,4.69,0,0,0-2.14,6.61l2.41,4.17a7.17,7.17,0,0,1-.63,8.07c-.61.74-1.22,1.51-1.81,2.27a7.14,7.14,0,0,1-10.28,1h0a4.7,4.7,0,0,0-6.6.52h0a4.7,4.7,0,0,0,.51,6.6l3.58,3.06a5.78,5.78,0,0,1,1.45,6.89c-.49,1.05-1,2.11-1.44,3.18a5.76,5.76,0,0,1-7.76,2.88h0A4.85,4.85,0,0,0,7.35,195a4.7,4.7,0,0,0,2,6.66l.15.07a9,9,0,0,1,4.92,10.14l-.12.53a9,9,0,0,1-9.54,7.13H4.68A4.28,4.28,0,0,0,0,223.87H0A5.2,5.2,0,0,0,4.68,229L5,229a6.64,6.64,0,0,1,6.12,7v.13a6.7,6.7,0,0,1-6.33,6.33H4.67A4.82,4.82,0,0,0,0,246.87a4.68,4.68,0,0,0,4.91,4.92l.62,0a5.41,5.41,0,0,1,5.67,5.1V257a5.43,5.43,0,0,1-5.14,5.74l-.39,0A4.84,4.84,0,0,0,1,267.17a4.69,4.69,0,0,0,4.91,4.92l.81,0a6.44,6.44,0,0,1,6.68,5.48l.09.54a5.92,5.92,0,0,1-4.77,6.75h0a4.85,4.85,0,0,0-4,5,4.69,4.69,0,0,0,5.51,4.25h0A6.52,6.52,0,0,1,17.7,299c.06.24.12.49.19.74a6.53,6.53,0,0,1-4.34,7.81l-1.11.36a4.84,4.84,0,0,0-3.37,5.48,4.7,4.7,0,0,0,6,3.51l3.07-1a4.05,4.05,0,0,1,5.1,2.63l0,.08a4.07,4.07,0,0,1-2.63,5.11l-2.87.91a4.82,4.82,0,0,0-3.37,5.48,4.69,4.69,0,0,0,6,3.51l1.89-.6a6,6,0,0,1,7.4,3.54c.53,1.36,1.07,2.73,1.63,4.1l13-5.29L43.36,333a6,6,0,0,1,3.74-7.94h0a4.83,4.83,0,0,0,3.38-5.48,4.7,4.7,0,0,0-6-3.51l-2.73.87a4.06,4.06,0,0,1-5.1-2.63l0-.08a4.07,4.07,0,0,1,2.64-5.11l2.52-.8a4.85,4.85,0,0,0,3.37-5.49,4.7,4.7,0,0,0-6-3.5l-1,.33A5.24,5.24,0,0,1,31.42,296l0-.11a5.24,5.24,0,0,1,4.15-6.39l2.22-.4a4.84,4.84,0,0,0,4.05-5,4.7,4.7,0,0,0-5.51-4.24l-3.24.59a4.81,4.81,0,0,1-5.6-4l0-.1a4.79,4.79,0,0,1,4.5-5.53l2-.1a4.82,4.82,0,0,0,4.66-4.44,4.7,4.7,0,0,0-4.91-4.93l-2.73.14a5.4,5.4,0,0,1-5.68-5l0-.19a5.41,5.41,0,0,1,5.15-5.7l2.51-.13A4.84,4.84,0,0,0,37.56,246,4.69,4.69,0,0,0,32.65,241l-2.2.11a5,5,0,0,1-5.23-5.33v-.11a5,5,0,0,1,5.39-4.63l1.59.13a4.83,4.83,0,0,0,5.2-3.79,4.7,4.7,0,0,0-4.22-5.53l-1.49-.12a4.38,4.38,0,0,1-3.94-5.24l0-.1A4.39,4.39,0,0,1,34,213.33l.92.44a4.71,4.71,0,0,0,6.24-2.24h0a4.7,4.7,0,0,0-2.24-6.23l-4.32-2.05a3.29,3.29,0,0,1-1.66-4.16c.31-.78.62-1.56.94-2.33A3.3,3.3,0,0,1,39,195.52h0a4.82,4.82,0,0,0,6.43,0,4.69,4.69,0,0,0-.18-6.95l-3.41-2.92a2.32,2.32,0,0,1-.42-3h0c.91-1.35,1.85-2.65,2.83-3.92a2.34,2.34,0,0,1,3.87.26h0a4.83,4.83,0,0,0,6.07,2.13,4.7,4.7,0,0,0,2.15-6.62l-1.25-2.15a4.61,4.61,0,0,1,1.06-5.89c.5-.4,1-.8,1.51-1.19a3.48,3.48,0,0,1,5.44,1.69h0a4.84,4.84,0,0,0,5.49,3.38,4.7,4.7,0,0,0,3.5-6L71,160.85a3.9,3.9,0,0,1,2.15-4.76l.1-.05A4,4,0,0,1,78.73,159l.45,2.46a4.7,4.7,0,0,0,5.44,3.77h0a4.69,4.69,0,0,0,3.77-5.45l-1.09-6a2.45,2.45,0,0,1,1.88-2.84h0a2.45,2.45,0,0,1,3,2.39v3.26a4.83,4.83,0,0,0,4.2,4.88,4.7,4.7,0,0,0,5.17-4.66v-7.9a133.43,133.43,0,0,1,14.26-.74Z" fill="#eb8470"/><path d="M137.45,95.08S115,97.71,105.27,109.46c-7.06,8.56-9,26.46-4.21,49,5.63,26.27,30.4,28.68,30.4,28.68l3.27-44.54Z" fill="#cc5444"/><path d="M175.15,62.51s-29.81,22.23-37.7,32.57-22.25,72.86-3.79,95.13,35,40.64,35,40.64Z" fill="#d55d4b"/><path d="M331.48,280.64c-31.92,15.7-67,17.09-98.81,3.9q-1.54-.63-3.06-1.32A120.65,120.65,0,0,1,198.48,263c-20.68-18.46-35.13-43.46-41.79-72.32A156.14,156.14,0,0,1,162.77,101c15.66-42.1,47.12-72.48,83.51-85.74,27.43-10,57.67-10.28,86,1.49a121.24,121.24,0,0,1,34.22,21.54c20.68,18.46,35.12,43.47,41.77,72.32a156.05,156.05,0,0,1-6.07,89.73C388.86,236.23,363.73,264.78,331.48,280.64Z" fill="#ef9b89"/><path d="M229.61,283.22A120.65,120.65,0,0,1,198.48,263c-20.68-18.46-35.13-43.46-41.79-72.32A156.14,156.14,0,0,1,162.77,101c15.66-42.1,47.12-72.48,83.51-85.74,61.52,45.33,107.85,112.09,74.62,186C299,249.85,266.75,275.51,229.61,283.22Z" fill="#eb8470" opacity="0.5"/><path d="M302.49,119.78a18,18,0,0,0-2.45-1.86h0a16.08,16.08,0,0,0-2.89-1.48c-.27-.11-.56-.22-.88-.33-6.85-2.27-15.3,0-23.77,9.48-8.64,9.67-5.76,32.59,5.57,42.7s23.44,2.36,30.23-5.25S318.11,133.72,302.49,119.78ZM280.71,165.3c-9.57-8.55-12.46-29-5.24-37.06,6.58-7.37,13.51-10.33,19.48-8.36.26.09.5.18.72.28a12,12,0,0,1,1.94,1l0,0,.28.18a14.15,14.15,0,0,1,1.91,1.45c13.48,12,11.21,31.18,5.48,37.61C301.28,164.87,290.85,174.35,280.71,165.3Z" fill="#fbc3af"/><path d="M305.3,160.37c-4,4.5-14.45,14-24.59,4.93-9.57-8.55-12.46-29-5.24-37.06,6.58-7.37,13.51-10.33,19.48-8.36.26.09.5.18.72.28a12,12,0,0,1,1.94,1l0,0,.28.18a14.15,14.15,0,0,1,1.91,1.45C313.3,134.79,311,153.94,305.3,160.37Z" fill="#d25a48"/><path d="M218.36,79.84c48.58,31.48,37.49,88.84,17,110s-51.32,29.3-68.82,12.57-18.3-118,10.82-125.63S216.65,78.74,218.36,79.84Z" fill="#e56b56"/><path d="M209.11,189.58c-18.4,3.64-61.43-24.3-42.7-63.51,16-33.51,39.34-30.22,45.79-28.55,1.63.42,3.24.8,4.89,1.11,13.25,2.45,64.26,12.08,79.16,17.47-6.85-2.27-15.3,0-23.77,9.48-8.64,9.67-5.76,32.59,5.57,42.7s23.44,2.36,30.23-5.25C298,184.26,227.51,186,209.11,189.58Z" fill="#d25a48"/><path d="M409.57,203.33c23.35-62.75,6.23-131.25-38-170.73A129.35,129.35,0,0,0,335,9.57C264.8-19.54,184.41,20,155.42,97.91c-23.34,62.76-6.22,131.24,38,170.73a129.18,129.18,0,0,0,36.59,23C300.2,320.78,380.6,281.23,409.57,203.33ZM232.68,284.54A120.83,120.83,0,0,1,198.47,263c-20.68-18.46-35.13-43.46-41.78-72.32A156,156,0,0,1,162.76,101C190.24,27.11,266.3-10.69,332.32,16.7a121.24,121.24,0,0,1,34.22,21.54c20.68,18.46,35.12,43.47,41.77,72.32a156.05,156.05,0,0,1-6.07,89.73c-13.38,36-38.5,64.48-70.76,80.35C299.56,296.34,264.47,297.73,232.68,284.54Z" fill="#fbc3af"/><path d="M129.84,355.55A375.16,375.16,0,0,0,8.18,420.81a69.1,69.1,0,0,1,62.43-98.73,70.36,70.36,0,0,1,8.52.52A69.14,69.14,0,0,1,129.84,355.55Z" fill="#512bd4"/></g></g></g></svg>