<svg xmlns="http://www.w3.org/2000/svg" viewBox="0 0 170.69 222.47"><g id="Layer_2" data-name="Layer 2"><g id="asset"><g id="original-antenna"><path d="M126.59,135.81,59.12,163,40.76,89.88,89.19,70.39Z" fill="#8a6fe8"/><path d="M170.69,157.21A375.35,375.35,0,0,0,49,222.47a69.1,69.1,0,0,1,62.43-98.73,72.45,72.45,0,0,1,8.52.52A69.14,69.14,0,0,1,170.69,157.21Z" fill="#512bd4"/><path d="M62.3,95.79A49.57,49.57,0,0,1,1.76,61.39,48.41,48.41,0,0,1,36.23,1.68,49.57,49.57,0,0,1,96.76,36.09,48.35,48.35,0,0,1,62.3,95.79Z" fill="#d8cff7"/></g></g></g></svg>