<svg xmlns="http://www.w3.org/2000/svg" viewBox="0 0 475.54 453.3"><g id="Layer_2" data-name="Layer 2"><g id="asset"><g id="prop-antenna"><path d="M317.53,341.8l-33.59,13.14-18.36-73.07,14.55-5.5Z" fill="#dee88b"/><path d="M380.29,354.7A375.16,375.16,0,0,0,258.63,420a69.1,69.1,0,0,1,62.43-98.73,70.36,70.36,0,0,1,8.52.52A69.14,69.14,0,0,1,380.29,354.7Z" fill="#512bd4"/><path d="M307.14,256.3a48.58,48.58,0,0,1-35.24,37,49.78,49.78,0,0,1-40.45-6.71,49,49,0,0,1-20.08-27.7,47.26,47.26,0,0,1-1.4-7A48,48,0,0,1,211,234.36a48.56,48.56,0,0,1,34.81-35.19,49.64,49.64,0,0,1,39.88,6.33,49,49,0,0,1,21.92,34.05A47.92,47.92,0,0,1,307.14,256.3Z" fill="#9eae2b"/><path d="M385.83,14.85,285.71,205.5a49.91,49.91,0,0,0-19.31-7.41L306.85,5.76A7.25,7.25,0,0,1,314.42,0l65.46,4.23A7.25,7.25,0,0,1,385.83,14.85Z" fill="#c5d43b"/><path d="M475.37,227.54l-7.52,34.21a7.25,7.25,0,0,1-7.6,5.68L307.14,256.3a47.92,47.92,0,0,0,.49-16.75L467.35,218.8A7.25,7.25,0,0,1,475.37,227.54Z" fill="#78881b"/><path d="M248.35,293.78l-56,154.74a7.24,7.24,0,0,1-9,4.43l-37.93-12.17A7.24,7.24,0,0,1,141.44,430l90-143.46A49.85,49.85,0,0,0,248.35,293.78Z" fill="#c5d43b"/><path d="M210,251.84,8.12,276.32A7.25,7.25,0,0,1,0,269l.72-48.55a7.24,7.24,0,0,1,8-7.1l202.3,21A48,48,0,0,0,210,251.84Z" fill="#78881b"/></g></g></g></svg>