<svg xmlns="http://www.w3.org/2000/svg" xmlns:xlink="http://www.w3.org/1999/xlink" viewBox="0 0 306.69 447.68"><defs><linearGradient id="linear-gradient" x1="60.03" y1="228.23" x2="173.45" y2="-81.37" gradientTransform="matrix(0.79, 0.61, -0.61, 0.79, 153.23, 47.46)" gradientUnits="userSpaceOnUse"><stop offset="0.03" stop-color="#7ad1ce"/><stop offset="0.17" stop-color="#8ed8d4"/><stop offset="0.46" stop-color="#b4e3df"/><stop offset="0.61" stop-color="#c2e8e3"/></linearGradient><linearGradient id="linear-gradient-2" x1="102.34" y1="-47.03" x2="43.48" y2="54.93" gradientTransform="matrix(0.79, 0.61, -0.61, 0.79, 153.23, 47.46)" gradientUnits="userSpaceOnUse"><stop offset="0.03" stop-color="#64bfaf"/><stop offset="0.12" stop-color="#70c6b9"/><stop offset="0.29" stop-color="#7ccdc5"/><stop offset="0.52" stop-color="#84d2cb"/><stop offset="1" stop-color="#86d3cd"/></linearGradient><linearGradient id="linear-gradient-3" x1="191.89" y1="4.38" x2="148.13" y2="80.18" xlink:href="#linear-gradient-2"/></defs><g id="Layer_2" data-name="Layer 2"><g id="asset"><g id="satellite-antenna"><path d="M169.2,336.84l-.27-34-.08-9.91L168.54,255l-.65-80.44L144,161.79,119.16,287.15a2.38,2.38,0,0,0,0,.26l-.66,3.31-5.58,28.22-1,5.1-9.21,46.52,6.87,1.36,9.18-46.35,43.49,9.71.34,42.63,7-.07Zm-7.34-42.94-31.75-7.59c6.58-4.48,19.07-12,31.53-19.25Zm-.93-115.08.65,80.2c-3.45,2-11.41,6.59-19.34,11.38-6.47,3.91-11.1,6.81-14.41,9l21.16-107Zm-40.2,136.46,4.54-22.93,29.54,7.07Zm6,4.91,35.16-16.37.2,24.27Z" fill="#c2e8e3"/><path d="M194.07,382.42A375.22,375.22,0,0,0,72.42,447.68,69.1,69.1,0,0,1,134.84,349a70.24,70.24,0,0,1,8.52.52A69.12,69.12,0,0,1,194.07,382.42Z" fill="#512bd4"/><path d="M79.61,16.81c-22.23,59.89,1.71,140.78,33,198.39S226.16,335.61,275.27,337.75Z" fill="#4bc8d0"/><path d="M290.39,334.85a34.67,34.67,0,0,1-18.61,2.65c-47.44-5.28-116.33-87.31-142.26-138-19.65-38.4-49.76-103-54.11-148.14-2.2-22.88,2.21-40.78,17.9-47.81C159.42-26.08,254.17,138.91,263.09,158S336.14,313.72,290.39,334.85Z" fill="#c2e8e3"/><path d="M271.78,337.5c-47.44-5.28-116.33-87.31-142.26-138-19.65-38.4-49.76-103-54.11-148.14,18.45-7.38,43.6.12,58,12.7,25,21.78,2.54,69.43,52,113s97.09,67.33,96.88,93.69C282.21,287.42,282.81,319.84,271.78,337.5Z" fill="url(#linear-gradient)"/><path d="M168.35,202.37l-1,.72c-4.05,1.69-12.2-6.32-14.13-10.54-2.05-4.45-4.26-10.61-1.63-12.73l.27-.19c4.89-3,13.16,7.23,14.58,9.6S171.85,198.44,168.35,202.37Z" fill="#effaf8"/><path d="M167.34,203.09l-4,2.86-.19.14h0c-3.85,2.59-12.58-5.89-14.6-10.28-2.12-4.6-4.41-11-1.35-12.91l4.35-3.07c-2.63,2.12-.42,8.28,1.63,12.73C155.14,196.77,163.29,204.78,167.34,203.09Z" fill="#dff5f2"/><path d="M1.58,231.53l-1,.53c0-.29,0-.58,0-.87Z" fill="none" stroke="#4bc8d0" stroke-miterlimit="10"/><path d="M303.65,101.28l-22,13.59-.34.23-9.56,6.61L134.94,209.46l-2.21-3.93L271,118.61l9.17-5.59c.54-.32,22.81-12.94,22.81-12.94a.58.58,0,0,1,.15-.06.68.68,0,0,1,.85.49A.71.71,0,0,1,303.65,101.28Z" fill="#86d3cd"/><path d="M271,118.61a.72.72,0,0,0-.19-1.29L139.39,80.51l-2.6-5.34,141.33,37.66c.12,0,1.66.41,2,.19Z" fill="url(#linear-gradient-2)"/><path d="M245.77,252.68l-4.22-5.43,31.51-124.94a.71.71,0,0,0-1.08-.77l-.27.17,9.56-6.61a1,1,0,0,0-.28.47Z" fill="url(#linear-gradient-3)"/></g></g></g></svg>