<?xml version="1.0" encoding="utf-8"?>
<!-- Generator: Adobe Illustrator 24.2.0, SVG Export Plug-In . SVG Version: 6.00 Build 0)  -->
<svg version="1.1" id="Layer_1" xmlns="http://www.w3.org/2000/svg" xmlns:xlink="http://www.w3.org/1999/xlink" x="0px" y="0px"
	 viewBox="0 0 2000 2000" enable-background="new 0 0 2000 2000" xml:space="preserve">
<ellipse fill="#5CDFF2" cx="981.8" cy="1755.6" rx="432" ry="110.8"/>
<path fill="#282828" d="M1278.9,1686.1c-8.7-1.9-12.6,5.8-12.6,5.8s-9.7,1.9-17.5-7.8s5.8-26.2-11.7-49.5
	c-9.9-13.2-25.6-25.7-40.8-34.8l-1.6-0.9l-1.8-1.1l-1.1-0.6l-1.2-0.7l-1.1-0.6l-1.2-0.6l-1.1-0.6l-1.2-0.6l-1.1-0.6l-1.1-0.6
	l-1.2-0.6l-1-0.5l-1.3-0.6l-0.8-0.4c-0.7-0.3-1.4-0.6-2-0.9l-0.8-0.3l-1.3-0.5l-0.8-0.3l-1.2-0.4l-0.8-0.3c-0.4-0.1-0.8-0.3-1.1-0.4
	l-0.8-0.3c-0.4-0.1-0.8-0.2-1.1-0.3l-0.7-0.2l-1.2-0.3l-0.6-0.2l-1.7-0.4c-2.3-0.5-4.5-0.8-6.8-0.9l-1.9-8.8v0.1
	c0,0-18,8.5-39.3,16.8c-11.3,4.4-23.5,8.9-34.5,12c-7.8,2.2-15,3.8-20.7,4.2c-2.2,0.2-4.4,0.1-6.5-0.2c-3,0.4-6.6,0.9-10.9,1.3
	c-13.1,1.2-32.7,1.9-61.6,0.1c-14.7-0.9-28.2-1.9-39.8-3.4c-14.5-1.8-26-4.4-32.5-8.5c-1.7-1-3.3-2.4-4.5-4h-1.6
	c-12.5-0.1-25-0.9-37.4-2.4c-15.5-2.1-27.5-6.3-39.7-16.1v-0.1l-1.8,4.9l-10.9,30.3l-2.9,1l-0.7,0.3c-0.9,0.3-1.8,0.6-2.7,1
	l-0.2,0.1l-3,1.1l-0.6,0.2l-2.8,1.1l-0.2,0.1c-1,0.4-2.1,0.8-3.1,1.3l-0.4,0.2c-1,0.4-2,0.8-3,1.3h-0.1l-3.3,1.5h-0.1l-3.3,1.5
	c-2.2,1.1-4.5,2.2-6.8,3.4c-6.9,3.6-13.6,7.8-20,12.3c-3.7,2.7-7.3,5.5-10.8,8.6l-0.2,0.2c-1.3,1.1-2.6,2.3-3.8,3.5
	s-2.5,2.4-3.7,3.6l-0.2,0.2c-0.7,0.8-1.5,1.5-2.2,2.3l-0.1,0.2l-0.2,0.2c-1.2,1.3-2.3,2.6-3.4,3.9l-0.1,0.1c-1.1,1.3-2.2,2.7-3.3,4
	l-0.4,0.5c-0.6,0.8-1.2,1.6-1.8,2.3l-0.3,0.5c-1.4,1.9-2.7,3.9-4,5.9c0,0.1-0.1,0.2-0.2,0.3l-0.1,0.1c-0.5,0.9-1.1,1.7-1.6,2.6
	c-0.1,0.1-0.1,0.2-0.2,0.3l-0.3,0.5c-0.5,0.8-1,1.6-1.4,2.5c-0.1,0.1-0.2,0.3-0.2,0.4s-0.1,0.2-0.1,0.3c-1.3,2.3-2.5,4.7-3.6,7.2
	v0.1c-0.4,0.8-0.8,1.7-1.2,2.6l-0.4,1c-0.4,0.9-0.7,1.8-1.1,2.7l-0.3,0.6v0.2c-0.5,1.2-0.9,2.3-1.3,3.6v0.1l-0.1,0.2
	c-0.5,1.5-1,2.9-1.5,4.4c-0.3,0.9-0.5,1.8-0.8,2.7c-0.1,0.2-0.1,0.4-0.2,0.7s-0.1,0.3-0.1,0.5c-0.3,1-0.5,2-0.8,3
	c0,0.1,0,0.2-0.1,0.3c0,0.2-0.1,0.3-0.1,0.5l-0.9,3.9c0,0.3-0.1,0.5-0.2,0.8c-0.2,1-0.4,2.1-0.6,3.1c-0.1,0.4-0.2,0.9-0.2,1.3
	c-0.2,0.9-0.3,1.9-0.5,2.9c0,0.2-0.1,0.5-0.1,0.7l-0.1,0.6c-0.2,1.2-0.3,2.3-0.5,3.5v0.7c-0.2,1.4-0.3,2.8-0.4,4.2l-0.1,0.7v0.5
	c-0.1,1-0.2,2.1-0.2,3.2v1.5c-0.1,1-0.1,2.1-0.1,3.2v1.4c0,1.5-0.1,3-0.1,4.6c1,27.2,46.6,50.5,83.5,43.7l3.3-0.6l1.1-0.2l2.2-0.4
	l1.4-0.3l2-0.4l1.4-0.3l1.9-0.4l1.5-0.3l1.8-0.4l1.5-0.3l1.6-0.4l1.6-0.4l1.5-0.4l1.7-0.4l1.4-0.3l1.8-0.4l1.1-0.3
	c5.5-1.4,10.8-2.8,15.6-4.2H835l2.5-0.7c0.6-1.5,1.1-3,1.5-4.6c0.2,1.3,0.5,2.7,0.8,3.9l1.5-0.4c0,1.1,0,2.2,0.1,3.2v0.6
	c0,1,0.1,2.1,0.1,3.1c0.5,1.5,1,3,1.6,4.4l-1.3,0.6c0,0.5,0.1,1,0.1,1.6v1.2c0,0.3,0,0.6,0.1,1v0.5c0,0.6,0.1,1.1,0.2,1.7v0.5
	c0,0.4,0.1,0.9,0.1,1.3v0.4c0,0.4,0.1,0.7,0.1,1.1v0.8c0,0.4,0.1,0.7,0.1,1.1v0.4c0,0.3,0.1,0.6,0.1,0.9s0,0.3,0.1,0.5s0,0.2,0,0.3
	v0.2l0.1,0.6v0.3l0.1,0.3c0,0.2,0.1,0.4,0.1,0.6s0.1,0.4,0.1,0.6v0.1c0.1,0.3,0.1,0.7,0.2,1c0,0.1,0,0.2,0.1,0.3
	c0.1,0.3,0.2,0.7,0.2,1c4.9,18.4,63.1,28.2,90.3,21.4s71.8-50.5,86.4-64.1l1.2-1.2l0.4-0.4c0.3-0.3,0.5-0.6,0.8-0.9l0.5-0.5l0.1-0.1
	c0.1-0.1,0.2-0.2,0.2-0.3c0.1-0.2,0.3-0.3,0.4-0.5c0.1-0.2,0.3-0.4,0.5-0.6l0.2-0.2c0.1-0.1,0.1-0.2,0.2-0.2l0.3-0.4l0.5-0.6
	c0.1-0.2,0.3-0.4,0.4-0.6c6.2-9,10.2-21.1,12.4-32v-0.1c0.2-1,0.4-2.1,0.6-3.1v-0.2c0.2-1,0.3-1.9,0.5-2.9v-0.2
	c0.1-0.9,0.3-1.7,0.4-2.5c0-0.3,0.1-0.7,0.1-1c0.1-0.6,0.2-1.1,0.2-1.7c0-0.3,0.1-0.6,0.1-0.8v-0.3c0.1-0.7,0.2-1.4,0.2-2v-0.4
	c0.1-0.8,0.2-1.5,0.2-2.3l1.1,0.6l0.4,0.2l0.8,0.4l0.6,0.2l0.8,0.3l0.6,0.2l0.8,0.3l0.7,0.2l0.8,0.3l0.7,0.3l0.9,0.3l0.7,0.3
	l0.9,0.3l0.8,0.3l0.9,0.3l0.8,0.2l1,0.3l0.8,0.3l1,0.3l0.9,0.3l1,0.3l0.9,0.2l1.1,0.3l0.9,0.2l1.1,0.3l1,0.3l1.1,0.3l1,0.2l1.2,0.3
	l1,0.2l1.2,0.3l1,0.2l1.2,0.3l1,0.2l1.2,0.3l1,0.2l1.3,0.3l1,0.2l1.3,0.3l1.1,0.2l1.3,0.3l1.1,0.2l1.3,0.3l1.1,0.2l1.3,0.3l1.1,0.2
	l1.3,0.3l1.2,0.2l1.3,0.3l1.2,0.2l1.4,0.3l1.2,0.2l1.4,0.3l1.2,0.2l1.3,0.3l1.2,0.2l1.3,0.2l1.3,0.2l1.3,0.2l1.3,0.2l1.2,0.2
	l1.3,0.2l1.3,0.2l1.3,0.2l1.2,0.2l1.3,0.2l1.2,0.2l1.4,0.2l1.1,0.2l1.5,0.2l1,0.2l1.5,0.2l1,0.2l1.5,0.2l1,0.2l1.6,0.2l0.8,0.1
	l1.7,0.3l0.7,0.1l1.8,0.3l0.5,0.1l2,0.3c16.7,2.5,31.1,4.3,38.7,4.8l1,0.1l1.3,0.1c19.4,1,41.7,1.9,65.1-1.9s22.3-15.5,36.9-25.2
	S1287.6,1688.1,1278.9,1686.1L1278.9,1686.1z M724.8,1677.3c-0.6,1-1.1,1.9-1.7,2.9c0.1-0.1,0.2-0.3,0.2-0.4
	C723.8,1679,724.3,1678.2,724.8,1677.3z M712.3,1706.7l-0.9,3.3c0-0.1,0.1-0.2,0.1-0.3C711.8,1708.7,712.1,1707.7,712.3,1706.7
	L712.3,1706.7z M726.8,1674c-0.6,0.9-1.2,1.9-1.8,2.9c0-0.1,0.1-0.2,0.2-0.3C725.7,1675.7,726.2,1674.9,726.8,1674z"/>
<path fill="#282828" d="M723,1680.5c-1.3,2.3-2.5,4.7-3.6,7.2c0.1-0.2,0.2-0.5,0.3-0.7C720.7,1684.7,721.8,1682.6,723,1680.5z
	 M716.3,1694.7c-0.5,1.2-0.9,2.4-1.4,3.6v-0.1C715.4,1697.1,715.9,1695.9,716.3,1694.7z M713.5,1702.9c0.5-1.5,0.9-2.9,1.5-4.4
	c-0.9,2.5-1.7,5.1-2.4,7.7c0.1-0.2,0.1-0.4,0.2-0.7C712.9,1704.7,713.2,1703.8,713.5,1702.9z M717.8,1691.2l0.4-1
	c0.4-0.9,0.8-1.7,1.2-2.6c-1,2.2-2,4.5-2.9,6.8l0.3-0.6C717,1693,717.4,1692.1,717.8,1691.2L717.8,1691.2z M711.3,1710.5
	c-0.4,1.5-0.7,3.1-1.1,4.7c0-0.3,0.1-0.5,0.2-0.8L711.3,1710.5L711.3,1710.5z M1079,1721.1l-1.1-0.2L1079,1721.1z M740.4,1656.3
	c-1.2,1.3-2.4,2.7-3.6,4c1.1-1.3,2.2-2.6,3.4-3.9L740.4,1656.3L740.4,1656.3z M1023.1,1763.2c0.2-0.2,0.3-0.4,0.5-0.6l-0.1,0.1
	C1023.4,1762.8,1023.3,1763,1023.1,1763.2z M731,1667.7c-1.4,1.9-2.7,3.9-4,5.9C728.3,1671.6,729.6,1669.7,731,1667.7z
	 M843.7,1807.2c-0.1-0.3-0.1-0.6-0.2-1v-0.1c0-0.2-0.1-0.4-0.1-0.6s-0.1-0.4-0.1-0.6l-0.1-0.3v-0.3c0.3,1.6,0.5,3,0.8,4.1
	c-0.1-0.3-0.2-0.6-0.2-1C843.7,1807.4,843.7,1807.3,843.7,1807.2L843.7,1807.2z M1083.8,1722.1l-1.1-0.2L1083.8,1722.1z
	 M798.6,1789.4l-1.4,0.3l-2.2,0.4l-1.1,0.2l-3.3,0.6c3.8-0.7,7.7-1.5,11.4-2.3l-1.4,0.3L798.6,1789.4z M841.8,1792.3v-0.3l0.1,1.2
	v-0.4C841.8,1792.7,841.8,1792.5,841.8,1792.3L841.8,1792.3z M842.5,1799.6c0-0.4-0.1-0.7-0.1-1.1v-0.4c0-0.4-0.1-0.8-0.1-1.3v-0.5
	c0-0.5-0.1-1.1-0.2-1.7v-0.5c0.2,2.3,0.4,4.3,0.6,6.2v-0.4C842.7,1799.9,842.5,1799.8,842.5,1799.6L842.5,1799.6z M837.5,1779.7
	l-2.5,0.7c-4.8,1.4-10.1,2.8-15.6,4.2l-1.1,0.3l-1.8,0.4l-1.4,0.3l-1.7,0.4l-1.5,0.4l-1.6,0.4l-1.6,0.4l-1.5,0.3l-1.8,0.4l-1.5,0.3
	c13.2-2.9,25.7-6.3,35.8-9.2c-0.3-1.3-0.6-2.6-0.8-3.9C838.5,1776.6,838,1778.2,837.5,1779.7L837.5,1779.7z M841.4,1785.5
	c0-1-0.1-2-0.1-3.1v-0.4c0.1,3,0.2,5.8,0.3,8.4l1.3-0.6C842.4,1788.5,841.9,1787,841.4,1785.5z M709.4,1719.7l-0.6,3.6
	c0-0.2,0.1-0.5,0.1-0.7C709.1,1721.6,709.2,1720.6,709.4,1719.7z M843,1803.3c0-0.2,0-0.3-0.1-0.5c0,0.3,0.1,0.6,0.1,0.9V1803.3z
	 M842.7,1801.5l0.1,0.4L842.7,1801.5z M707.6,1733.5v-0.5l-0.3,4.2v-0.5C707.5,1735.6,707.6,1734.5,707.6,1733.5z M1081.4,1721.6
	l-1.1-0.2L1081.4,1721.6z M707.2,1741.3c0-1.1,0.1-2.1,0.1-3.2c-0.2,3-0.2,6-0.2,9.1c0-1.5,0-3.1,0.1-4.6L707.2,1741.3L707.2,1741.3
	z M1091.3,1723.6l-1.2-0.2L1091.3,1723.6z M708.7,1723.8c-0.2,1.3-0.4,2.6-0.5,3.9v-0.4C708.4,1726.2,708.6,1725,708.7,1723.8z
	 M1088.8,1723.1l-1.2-0.2L1088.8,1723.1z M1086.3,1722.6l-1.1-0.2L1086.3,1722.6z M781.5,1625.4c-11,5.8-21.4,12.8-30.8,20.9
	c3.5-3.1,7.1-5.9,10.8-8.6C767.9,1633.2,774.5,1629.1,781.5,1625.4z M707.7,1732.2c0.1-1.4,0.3-2.8,0.4-4.2
	C708,1729.4,707.9,1730.8,707.7,1732.2z M1051.8,1713.9l-0.8-0.3L1051.8,1713.9z M1057.2,1715.6l-0.9-0.3L1057.2,1715.6z
	 M1048.5,1712.8l-0.7-0.3L1048.5,1712.8z M1050.1,1713.3l-0.7-0.3L1050.1,1713.3z M1053.5,1714.5l-0.8-0.2L1053.5,1714.5z
	 M1055.3,1715l-0.8-0.3L1055.3,1715z M709.6,1718.4c0.2-1.1,0.4-2.1,0.6-3.1C710,1716.3,709.8,1717.3,709.6,1718.4z M841.3,1781.8
	c0-1.1,0-2.2-0.1-3.2C841.3,1779.7,841.3,1780.7,841.3,1781.8z M1027.9,1756.7c-0.1,0.2-0.3,0.4-0.4,0.7
	C1027.6,1757.1,1027.7,1756.9,1027.9,1756.7z M1028.8,1755l-0.4,0.6L1028.8,1755z M1042.8,1710.4l-0.4-0.2L1042.8,1710.4z
	 M1022.3,1764.1l-0.4,0.4L1022.3,1764.1z M1045.5,1711.6l-0.6-0.2L1045.5,1711.6z M1076.6,1720.5l-1-0.2L1076.6,1720.5z
	 M1044.1,1711l-0.6-0.2L1044.1,1711z M1046.9,1712.2l-0.7-0.2L1046.9,1712.2z M1072,1719.5l-1-0.2L1072,1719.5z M1069.7,1718.9
	l-1-0.2L1069.7,1718.9z M1074.3,1720l-1-0.2L1074.3,1720z M731.4,1667.3c0.6-0.8,1.2-1.6,1.8-2.3
	C732.6,1665.7,732,1666.5,731.4,1667.3z M746.7,1650c1.3-1.2,2.5-2.4,3.8-3.5C749.2,1647.6,748,1648.8,746.7,1650z M1061.1,1716.7
	l-0.9-0.2L1061.1,1716.7z M1063.2,1717.3l-1-0.3L1063.2,1717.3z M1065.3,1717.8l-1-0.2L1065.3,1717.8z M1059.1,1716.1l-0.9-0.2
	L1059.1,1716.1z M1067.5,1718.4l-1-0.2L1067.5,1718.4z M1035.5,1739.3c0.1-0.4,0.3-0.8,0.4-1.2c-0.1,0.3-0.2,0.6-0.3,0.8
	L1035.5,1739.3L1035.5,1739.3z M1124.6,1729.5l-1.6-0.2L1124.6,1729.5z M1122,1729.1l-1.5-0.2L1122,1729.1z M1119.5,1728.7l-1.5-0.2
	L1119.5,1728.7z M1127,1729.9l-1.7-0.3L1127,1729.9z M1131.9,1730.6l-2-0.3L1131.9,1730.6z M1117,1728.3l-1.5-0.2L1117,1728.3z
	 M1129.5,1730.3l-1.8-0.3L1129.5,1730.3z M1040.5,1716.3c0-0.4,0.1-0.8,0.2-1.2c0,0.1,0,0.2-0.1,0.4
	C1040.6,1715.7,1040.6,1716,1040.5,1716.3L1040.5,1716.3z M1109.3,1727l-1.3-0.2L1109.3,1727z M1040.7,1714.6v-0.2V1714.6z
	 M1170.7,1735.5c-7.6-0.6-22.1-2.3-38.7-4.8C1148.7,1733.1,1163.1,1734.9,1170.7,1735.5z M1114.4,1727.8l-1.4-0.2L1114.4,1727.8z
	 M1040.8,1714.3c0.1-0.7,0.2-1.4,0.2-2C1040.9,1713,1040.8,1713.7,1040.8,1714.3z M1111.8,1727.4l-1.3-0.2L1111.8,1727.4z
	 M1171.8,1735.5l-1-0.1L1171.8,1735.5z M1040.3,1717.7c0.1-0.4,0.1-0.8,0.2-1.2c0,0.2-0.1,0.4-0.1,0.7S1040.3,1717.5,1040.3,1717.7z
	 M1099,1725.1l-1.2-0.2L1099,1725.1z M1026.9,1758.2c-0.2,0.2-0.3,0.4-0.4,0.7l-0.2,0.3l1.2-1.8L1026.9,1758.2z M1031.3,1750.2
	c-0.2,0.5-0.4,1-0.7,1.4c0,0.1-0.1,0.2-0.2,0.3c-0.2,0.5-0.5,0.9-0.7,1.4l-0.3,0.6l-0.3,0.5c0.9-1.6,1.7-3.3,2.5-5
	c-0.1,0.2-0.1,0.3-0.2,0.5S1031.3,1750.1,1031.3,1750.2L1031.3,1750.2z M1101.5,1725.6l-1.3-0.2L1101.5,1725.6z M1093.8,1724.1
	l-1.2-0.2L1093.8,1724.1z M1035,1740.8c-0.1,0.3-0.2,0.7-0.3,1l-0.3,0.8c-0.1,0.3-0.2,0.7-0.4,1l-0.3,0.8c-0.1,0.4-0.3,0.7-0.4,1.1
	l-0.3,0.8c0,0.1-0.1,0.2-0.1,0.2l-0.1,0.1c0.9-2.3,1.8-4.7,2.6-7c0,0.1-0.1,0.2-0.1,0.3L1035,1740.8L1035,1740.8z M1038.3,1728.8
	c-0.1,0.3-0.2,0.7-0.2,1s-0.1,0.6-0.2,0.9c0,0.1-0.1,0.3-0.1,0.4c0.3-1.1,0.5-2.1,0.7-3.2
	C1038.5,1728.2,1038.4,1728.5,1038.3,1728.8L1038.3,1728.8z M1096.4,1724.6l-1.2-0.2L1096.4,1724.6z M1032.1,1748.5
	c0.2-0.3,0.3-0.7,0.5-1.1l-0.3,0.7C1032.2,1748.3,1032.1,1748.4,1032.1,1748.5z M1024.2,1761.8c-0.1,0.2-0.3,0.3-0.4,0.5
	c0.3-0.4,0.7-0.8,1-1.2l-0.2,0.2C1024.6,1761.4,1024.4,1761.6,1024.2,1761.8z M1038.7,1727.1c0.1-0.4,0.2-0.7,0.2-1.1
	c-0.1,0.3-0.1,0.6-0.2,0.9V1727.1z M1039.7,1721.7c0,0.3-0.1,0.5-0.1,0.8s-0.1,0.6-0.2,1c0.2-0.9,0.3-1.8,0.4-2.6v0.1
	C1039.8,1721.1,1039.7,1721.4,1039.7,1721.7L1039.7,1721.7z M1039.9,1720.7c0.1-0.6,0.2-1.1,0.3-1.7l-0.2,1
	C1039.9,1720.2,1039.9,1720.5,1039.9,1720.7L1039.9,1720.7z M1037.4,1732.5c0.1-0.3,0.2-0.7,0.3-1c0,0.1,0,0.2-0.1,0.3
	L1037.4,1732.5L1037.4,1732.5z M1106.7,1726.5l-1.3-0.2L1106.7,1726.5z M1040.2,1718.5c0-0.2,0.1-0.4,0.1-0.7v0.3
	C1040.3,1718.2,1040.2,1718.3,1040.2,1718.5L1040.2,1718.5z M1038.6,1727.3v-0.2V1727.3z M1025.8,1759.8c-0.2,0.2-0.3,0.4-0.5,0.6
	l-0.3,0.4c0.4-0.5,0.8-1.1,1.2-1.7C1026.1,1759.4,1026,1759.6,1025.8,1759.8L1025.8,1759.8z M1036.4,1736.2l-0.2,0.8v0.1l-0.1,0.3
	c0.3-1,0.6-2.1,0.9-3.1l-0.2,0.7L1036.4,1736.2L1036.4,1736.2z M1104.1,1726l-1.3-0.2L1104.1,1726z M1039.2,1724.2
	c0,0.3-0.1,0.6-0.2,0.9s-0.1,0.3-0.1,0.5c0.1-0.6,0.2-1.1,0.3-1.7C1039.3,1724.1,1039.3,1724.1,1039.2,1724.2L1039.2,1724.2z
	 M1049.3,1713.1l-0.9-0.3L1049.3,1713.1z M1051,1713.6l-0.9-0.3L1051,1713.6z M1085.2,1722.4l-1.3-0.3L1085.2,1722.4z
	 M1087.7,1722.9l-1.3-0.3L1087.7,1722.9z M1052.7,1714.2l-0.9-0.3L1052.7,1714.2z M1095.2,1724.4l-1.4-0.3L1095.2,1724.4z
	 M1041,1711.9v0.4V1711.9z M1108,1726.7l-1.3-0.2L1108,1726.7z M1092.7,1723.9l-1.4-0.3L1092.7,1723.9z M1090.2,1723.4l-1.3-0.3
	L1090.2,1723.4z M1042.3,1710.2l-1.1-0.6L1042.3,1710.2z M1046.3,1711.9l-0.8-0.3L1046.3,1711.9z M1043.6,1710.8l-0.8-0.4
	L1043.6,1710.8z M1044.9,1711.4l-0.8-0.3L1044.9,1711.4z M1054.5,1714.8l-1-0.3L1054.5,1714.8z M1100.3,1725.3l-1.3-0.2
	L1100.3,1725.3z M1073.2,1719.7l-1.2-0.3L1073.2,1719.7z M1115.5,1728l-1.1-0.2L1115.5,1728z M1120.5,1728.8l-1-0.2L1120.5,1728.8z
	 M1118,1728.4l-1-0.2L1118,1728.4z M1070.9,1719.2l-1.2-0.3L1070.9,1719.2z M1075.5,1720.3l-1.3-0.3L1075.5,1720.3z M1077.9,1720.8
	l-1.3-0.3L1077.9,1720.8z M1110.5,1727.2l-1.2-0.2L1110.5,1727.2z M1080.3,1721.3l-1.3-0.3L1080.3,1721.3z M1105.4,1726.3l-1.2-0.2
	L1105.4,1726.3z M1102.8,1725.8l-1.3-0.2L1102.8,1725.8z M1113,1727.6l-1.2-0.2L1113,1727.6z M1123,1729.2l-1-0.2L1123,1729.2z
	 M1062.2,1717l-1.1-0.3L1062.2,1717z M1060.2,1716.5l-1.1-0.3L1060.2,1716.5z M1082.7,1721.9l-1.3-0.3L1082.7,1721.9z
	 M1058.2,1715.9l-1-0.3L1058.2,1715.9z M1056.3,1715.3l-1-0.3L1056.3,1715.3z M1064.3,1717.6l-1.1-0.3L1064.3,1717.6z
	 M1125.3,1729.6l-0.8-0.1L1125.3,1729.6z M1097.8,1724.9l-1.3-0.3L1097.8,1724.9z M1130,1730.3l-0.5-0.1L1130,1730.3z
	 M1066.5,1718.1l-1.2-0.3L1066.5,1718.1z M1068.7,1718.7l-1.2-0.3L1068.7,1718.7z M1127.7,1730l-0.7-0.1L1127.7,1730z
	 M1047.8,1712.5l-0.8-0.3L1047.8,1712.5z M1039.3,1724v-0.2V1724z"/>
<path fill="#282828" d="M1039.3,1724v-0.2V1724z M1040.6,1715.4c0-0.1,0-0.2,0.1-0.4s0-0.3,0-0.4v-0.1
	C1040.7,1714.9,1040.7,1715.2,1040.6,1715.4z M1040.3,1718.1v-0.4c0-0.2,0.1-0.4,0.1-0.6C1040.4,1717.5,1040.3,1717.8,1040.3,1718.1
	z M750.7,1646.3l-0.2,0.2L750.7,1646.3z M802,1788.7l1.8-0.4L802,1788.7z M839.7,1779l1.5-0.4L839.7,1779z M707.3,1738.2v-1
	C707.4,1737.5,707.3,1737.8,707.3,1738.2z M842.5,1800.4c0,0.3,0.1,0.5,0.1,0.8v0.3C842.6,1801.2,842.6,1800.8,842.5,1800.4
	L842.5,1800.4z M841.7,1790.5c0,0.4,0.1,0.8,0.1,1.2v0.3C841.8,1791.5,841.7,1791,841.7,1790.5z M841.9,1793.9v0.3
	c0-0.3,0-0.6-0.1-1C841.9,1793.5,841.9,1793.7,841.9,1793.9z M708.2,1728v-0.3V1728z M1037,1734.3l0.4-1.5c0-0.1,0.1-0.2,0.1-0.2
	C1037.3,1733.1,1037.1,1733.7,1037,1734.3z M712.3,1706.7c0-0.2,0.1-0.3,0.1-0.5C712.4,1706.4,712.4,1706.6,712.3,1706.7z
	 M716.3,1694.7v-0.2V1694.7z M714.9,1698.5l0.1-0.2C715,1698.4,715,1698.5,714.9,1698.5z M711.3,1710.5c0-0.2,0.1-0.3,0.1-0.5
	C711.4,1710.2,711.4,1710.4,711.3,1710.5z M708.7,1723.8l0.1-0.6L708.7,1723.8z M1038.6,1727.4c0,0.1-0.1,0.3-0.1,0.4
	C1038.6,1727.7,1038.6,1727.5,1038.6,1727.4z M1040.1,1719c0-0.2,0-0.3,0.1-0.5C1040.2,1718.7,1040.2,1718.9,1040.1,1719z
	 M1038.9,1726c0-0.1,0-0.2,0.1-0.4C1039,1725.8,1039,1725.9,1038.9,1726z M1040.5,1716.5L1040.5,1716.5L1040.5,1716.5z
	 M1027.9,1756.7c0.2-0.3,0.4-0.7,0.6-1L1027.9,1756.7z M842.8,1802c0,0.2,0,0.3,0.1,0.5l0.1,0.4
	C842.9,1802.6,842.8,1802.3,842.8,1802L842.8,1802z M1037.7,1731.3l0.1-0.3C1037.8,1731.2,1037.7,1731.3,1037.7,1731.3
	L1037.7,1731.3z M723,1680.5c0-0.1,0.1-0.2,0.1-0.3L723,1680.5z M1031.7,1749.4l0.4-0.9C1031.9,1748.8,1031.8,1749.1,1031.7,1749.4z
	 M1028.8,1755l0.1-0.2c0.1-0.1,0.1-0.3,0.2-0.4L1028.8,1755L1028.8,1755z M1022.3,1764.1c0.3-0.3,0.5-0.6,0.8-0.9
	C1022.8,1763.5,1022.6,1763.8,1022.3,1764.1z M843,1803.8c0,0.2,0,0.3,0.1,0.4l-0.1-0.6V1803.8z M1023.7,1762.5l0.2-0.2
	L1023.7,1762.5z M1024.9,1761l0.1-0.2C1025,1760.9,1024.9,1761,1024.9,1761z M707.7,1732.2l-0.1,0.7L707.7,1732.2z M1035.5,1739.4
	L1035.5,1739.4c0,0-0.1,0.2-0.1,0.3L1035.5,1739.4z M1039.3,1723.8c0-0.2,0-0.3,0.1-0.4C1039.4,1723.5,1039.3,1723.6,1039.3,1723.8z
	 M1035.9,1738.1l0.2-0.6C1036,1737.6,1035.9,1737.9,1035.9,1738.1z M727,1673.6c0,0.1-0.1,0.2-0.2,0.3
	C726.9,1673.8,727,1673.7,727,1673.6z M733.5,1664.4l-0.4,0.5L733.5,1664.4z M740.6,1656.1l-0.1,0.2L740.6,1656.1z M731.4,1667.3
	l-0.3,0.5L731.4,1667.3z M742.9,1653.7l-0.2,0.2L742.9,1653.7z M1032.5,1747.4l0.3-0.7L1032.5,1747.4z M724.8,1677.4l0.3-0.5
	L724.8,1677.4z"/>
<path fill="#282828" d="M1039.7,1721.7c0-0.3,0.1-0.5,0.1-0.8c-0.2,1-0.3,1.9-0.5,2.9c0-0.1,0-0.2,0.1-0.4c0-0.3,0.1-0.6,0.2-1
	S1039.7,1721.9,1039.7,1721.7L1039.7,1721.7z M1040.3,1718.1c-0.1,0.8-0.2,1.7-0.4,2.5c0-0.2,0.1-0.4,0.1-0.7l0.2-1
	c0-0.2,0.1-0.4,0.1-0.5C1040.2,1718.3,1040.2,1718.2,1040.3,1718.1L1040.3,1718.1z M1040.4,1717.1c0-0.2,0.1-0.4,0.1-0.7v-0.1
	c0-0.3,0.1-0.6,0.1-0.9C1040.5,1716,1040.5,1716.5,1040.4,1717.1z M1040.7,1714.6v-0.2V1714.6z M1026.2,1759.2l0.2-0.3
	c0.2-0.2,0.3-0.4,0.4-0.7l0.6-0.9c0.1-0.2,0.3-0.4,0.4-0.7l0.6-1l0.4-0.6l0.3-0.6l0.3-0.5l0.3-0.6c0.2-0.5,0.5-0.9,0.7-1.4
	c0.1-0.1,0.1-0.2,0.2-0.3c0.2-0.5,0.4-0.9,0.7-1.4c0.1-0.1,0.1-0.2,0.2-0.3s0.2-0.3,0.2-0.5s0.3-0.6,0.4-0.9
	c0.1-0.1,0.1-0.2,0.2-0.4l0.3-0.7l0.3-0.8l0.1-0.1c0-0.1,0.1-0.2,0.1-0.2l0.3-0.8c0.1-0.4,0.3-0.7,0.4-1.1l0.3-0.8
	c0.1-0.3,0.3-0.7,0.4-1l0.3-0.8c0.1-0.3,0.2-0.7,0.3-1s0.2-0.6,0.3-0.8c0-0.1,0-0.2,0.1-0.3c0-0.1,0.1-0.3,0.1-0.4l0.1-0.4
	c0.1-0.3,0.2-0.6,0.3-0.8s0.1-0.4,0.2-0.6l0.1-0.3v-0.1l0.2-0.8l0.3-1.2l0.2-0.7c0.2-0.6,0.3-1.2,0.5-1.8v-0.1l0.2-0.7
	c0-0.1,0.1-0.2,0.1-0.3s0.1-0.3,0.1-0.4s0.1-0.3,0.1-0.4c0.1-0.3,0.1-0.6,0.2-0.9s0.2-0.7,0.2-1s0.1-0.6,0.2-0.9
	c0-0.2,0.1-0.3,0.1-0.5v-0.2C1036.4,1738.1,1032.5,1750.1,1026.2,1759.2L1026.2,1759.2z M1039.2,1724.2v-0.2c-0.2,1-0.4,2-0.6,3.1
	v-0.1c0.1-0.3,0.1-0.6,0.2-0.9c0-0.1,0-0.2,0.1-0.4s0.1-0.3,0.1-0.5S1039.2,1724.5,1039.2,1724.2L1039.2,1724.2z"/>
<path fill="#494949" d="M1181,1735.6c30.7,2,60,3.3,73.3-4s43.3-38,27.3-46s-13.5,5.3-30.7,20
	C1232.3,1721.6,1207,1732.2,1181,1735.6L1181,1735.6z M945.7,1824.9c-20,9.3-40,8-66.7,3.3s-53.3-10.7-53.3-22s7.3-19.3,26.7-16.7
	s42.7,18,54,23.3S929.7,1828.9,945.7,1824.9L945.7,1824.9z M807,1787.6c-13.3,2.7-31.3,10.7-55.3,6s-59.3-14.7-65.3-28
	c-0.7-14,10.8-16.6,20.7-18.3s31.3,23.6,55.3,31.6C776.8,1783.7,791.8,1786.6,807,1787.6L807,1787.6z"/>
<path opacity="0.3" fill="#091426" enable-background="new    " d="M1044.7,1610.6c4.3-0.4,7.9-0.8,10.9-1.3
	c2.2,0.3,4.3,0.4,6.5,0.2c0.7,0,1.4-0.1,2.2-0.2l1.8-0.2h0.4c1.6-0.2,3.2-0.5,4.9-0.8l1.2-0.3l1.1-0.2l1.3-0.3l1.2-0.3l1.2-0.3
	l2.4-0.6l3-0.8c10.9-3.1,23.2-7.5,34.5-12l2-0.8l1.1-0.4l0.6-0.3l0.2-0.1l0.8-0.3l0.7-0.3l0.4-0.2l1-0.4l0.9-0.4l1.1-0.4l0.8-0.3
	l0.9-0.4l0.4-0.2l0.6-0.2l1.1-0.4l0.7-0.3l1-0.4l0.7-0.3l0.1-0.1l1.3-0.6h0.1l0.3-0.2l1.1-0.5l0.5-0.2l1-0.4l0.6-0.2l0.1-0.1
	l1.1-0.5l0.3-0.1l0.2-0.1l1-0.4c0.2-0.1,0.3-0.1,0.5-0.2l1.1-0.5l0.4-0.2l1-0.4l0.4-0.2h0.1l0.9-0.4c7.5-3.3,12.3-5.5,12.3-5.5
	l1.8,8.2h0.2c3.1,0.1,6.2,0.6,9.2,1.4s5.9,1.8,8.8,3c5.7,2.3,11.3,5,16.6,8.1c10.8,6,20.8,13.2,30,21.5c4.6,4.1,8.9,8.6,12.8,13.4
	c4,4.7,7.1,10.2,9.2,16.1c1.9,5.9,2.6,12.2,2,18.4c-0.2,3.1-0.5,6.1-0.5,9.2s0.6,6.1,2.5,8.4l-0.3,0.2c2.1,2.7,4.8,4.9,7.9,6.3
	c-2.1,0.8-4.2,1.5-6.4,2.1L1209,1705c21-13.8,25.8-32.2,31.8-52.6c-0.3-0.8-0.6-1.5-0.9-2.2c-1.1-2.5-2.4-4.9-4-7.1
	c-1.6-2.3-3.4-4.4-5.3-6.4c-3.9-4.3-8.1-8.3-12.5-12c-1.1-1-2.2-1.9-3.4-2.8s-2.3-1.9-3.4-2.7l-3.5-2.7c-1.2-0.9-2.4-1.7-3.6-2.6
	c-4.8-3.4-9.7-6.7-14.8-9.7c-1.2-0.8-2.5-1.5-3.8-2.2l-1.9-1.1l-1.9-1c-1.3-0.7-2.6-1.4-3.9-2s-2.6-1.4-3.9-1.9s-2.6-1.2-3.9-1.7
	c-1.1-0.4-2.2-0.9-3.2-1.3c-9.1-1.3-18.3-1.7-27.5-1.2l-7.7,1.6c-8.9,8.5-16.6,18.1-23,28.5c-1.6,2.6-5.5,8-5.5,8s5.7,8.4,7,10.5
	c12.2,18.9,26.8,33.9,43,49.5s34.9,31.2,57,27c-4.6,3.4-5.6,8.5-4.2,13.6c-8.1,2.6-16.4,4.4-24.8,5.5c5.8,0.4,11.5,0.7,17,1
	c-8.7-0.1-17.1-0.5-24.9-0.8l-1.3-0.1l-1-0.1c-7.6-0.6-22.1-2.3-38.7-4.8l-2-0.3l-0.5-0.1l-1.8-0.3l-0.7-0.1l-1.7-0.3l-0.8-0.1
	l-1.6-0.2l-1-0.2l-1.5-0.2l-1-0.2l-1.5-0.2l-1-0.2l-1.5-0.2l-1.1-0.2l-1.4-0.2l-1.2-0.2l-1.3-0.2l-1.2-0.2l-1.3-0.2l-1.3-0.2
	l-1.3-0.2l-1.2-0.2l-1.3-0.2l-1.3-0.2l-1.3-0.2l-1.3-0.2l-1.2-0.2l-1.3-0.3l-1.2-0.2l-1.4-0.3l-1.2-0.2l-1.4-0.3l-1.2-0.2l-1.3-0.3
	l-1.2-0.2l-1.3-0.3l-1.1-0.2l-1.3-0.3l-1.1-0.2l-1.3-0.3l-1.1-0.2l-1.3-0.3l-1.1-0.2l-1.3-0.3l-1-0.2l-1.3-0.3l-1-0.2l-1.2-0.3
	l-1-0.2l-1.2-0.3l-1-0.2l-0.3-0.1l-0.9-0.2l-1-0.2l-1.2-0.3l-1-0.2l-1.1-0.3l-1-0.3l-1.1-0.3l-0.9-0.2l-1.1-0.3l-0.9-0.2l-1-0.3
	l-0.9-0.3l-1-0.3l-0.8-0.3l-1-0.3l-0.8-0.2l-0.9-0.3l-0.8-0.3l-0.9-0.3l-0.7-0.3l-0.9-0.3l-0.7-0.3l-0.8-0.3l-0.7-0.2l-0.8-0.3
	l-0.6-0.2l-0.8-0.3l-0.6-0.2l-0.8-0.4l-0.4-0.2l-1.1-0.6c-0.1,0.7-0.1,1.5-0.2,2.3v0.4c-0.1,0.7-0.2,1.3-0.2,2v0.3
	c0,0.3-0.1,0.6-0.1,0.8c-0.1,0.5-0.1,1.1-0.2,1.7c0,0.3-0.1,0.7-0.1,1c-0.1,0.8-0.2,1.7-0.4,2.5v0.2c-0.2,1-0.3,1.9-0.5,2.9v0.2
	c-0.2,1-0.4,2.1-0.6,3.1v0.1c-2.3,10.9-6.2,23-12.4,32c-0.1,0.2-0.3,0.4-0.4,0.6s-0.3,0.4-0.5,0.6l-0.3,0.4
	c-0.1,0.1-0.1,0.2-0.2,0.2l-0.2,0.2c-0.2,0.2-0.3,0.4-0.5,0.6s-0.3,0.3-0.4,0.5l-0.2,0.3l-0.1,0.1c-0.2,0.2-0.3,0.4-0.5,0.5
	s-0.5,0.6-0.8,0.9l-0.4,0.4l-1.2,1.2c-14.6,13.6-59.2,57.3-86.4,64.1c-14.4,3.6-37.4,2.6-56.7-1.9l1.4,0.2c26.7,4.7,46.7,6,66.7-3.3
	c-16,4-28-6.7-39.3-12s-34.7-20.7-54-23.3c-3.2-0.5-6.4-0.6-9.7-0.4c-0.4-1.2-0.9-2.3-1.2-3.6c0-1-0.1-2-0.1-3.1v-0.6
	c0-1.1,0-2.2-0.1-3.2l-1.5,0.4c-0.3-1.3-0.6-2.6-0.8-3.9c-0.4,1.6-0.9,3.1-1.5,4.6l-2.5,0.7c-4.8,1.4-10.1,2.8-15.6,4.2l-1.1,0.3
	l-1.8,0.4l-1.4,0.3l-1.7,0.4l-1.5,0.4l-1.6,0.4l-1.6,0.4l-1.5,0.3l-1.8,0.4l-1.5,0.3l-1.9,0.4l-0.9,0.2c2.1-0.5,4.1-1,6-1.4
	c-15.2-0.9-30.2-3.9-44.7-8.7c-24-8-45.3-33.3-55.3-31.6c0-1.5,0-3,0.1-4.5v-1.4c0-1.1,0.1-2.1,0.1-3.2v-1.5
	c0.1-1.1,0.2-2.1,0.2-3.2v-0.5l0.1-0.7c0.1-1.4,0.3-2.8,0.4-4.2v-0.7c0.1-1.2,0.3-2.3,0.5-3.5l0.1-0.6c0-0.2,0.1-0.5,0.1-0.7
	c0.2-1,0.3-1.9,0.5-2.9c0.1-0.4,0.1-0.9,0.2-1.3c0.2-1.1,0.4-2.1,0.6-3.1c0-0.3,0.1-0.5,0.2-0.8l0.9-3.9c0-0.2,0.1-0.3,0.1-0.5
	c0-0.1,0.1-0.2,0.1-0.3c0.3-1,0.5-2,0.8-3c0-0.2,0.1-0.3,0.1-0.5s0.1-0.4,0.2-0.7c0.3-0.9,0.5-1.8,0.8-2.7c0.5-1.5,0.9-2.9,1.5-4.4
	l0.1-0.2v-0.1c0.4-1.2,0.9-2.4,1.3-3.6v-0.2l0.3-0.6c0.4-0.9,0.7-1.8,1.1-2.7l0.4-1c0.4-0.9,0.8-1.7,1.2-2.6v-0.1
	c0.1-0.2,0.2-0.5,0.3-0.7c1-2.2,2.1-4.4,3.3-6.5c0-0.1,0.1-0.2,0.1-0.3s0.2-0.3,0.2-0.4c0.5-0.8,0.9-1.7,1.4-2.5l0.3-0.5
	c0-0.1,0.1-0.2,0.2-0.3c0.5-0.9,1.1-1.8,1.6-2.6l0.1-0.1c0.1-0.1,0.1-0.2,0.2-0.3c1.3-2,2.6-4,4-5.9l0.3-0.5
	c0.6-0.8,1.2-1.6,1.8-2.3l0.4-0.5c1.1-1.4,2.1-2.7,3.3-4l0.1-0.1c1.1-1.3,2.2-2.6,3.4-3.9l0.2-0.2l0.1-0.2c0.7-0.8,1.5-1.5,2.2-2.3
	l0.2-0.2c1.2-1.2,2.5-2.5,3.7-3.6c1.3-1.2,2.5-2.4,3.8-3.5l0.2-0.2c3.5-3.1,7.1-5.9,10.8-8.6c6.4-4.6,13.1-8.7,20-12.3
	c2.2-1.2,4.5-2.3,6.8-3.4l3.3-1.5h0.1l3.3-1.5h0.1c1-0.4,2-0.9,3-1.3l0.4-0.2c1-0.4,2.1-0.9,3.1-1.3l0.2-0.1l2.8-1.1l0.6-0.2l3-1.1
	l0.2-0.1c0.9-0.3,1.8-0.7,2.7-1l0.7-0.3l2.9-1l0.3-0.7h0.2c1.2-3.4,2.3-6.7,3.4-10l7-19.5l1.8-4.9c1.5,1.2,3,2.3,4.5,3.4
	c10.7,7.4,21.6,10.9,35.1,12.7c12.4,1.5,24.9,2.3,37.4,2.4h1.6c1.2,1.6,2.7,3,4.5,4c6.5,4,18,6.6,32.5,8.5c0.7,2,1.2,3.2,1.1,3.8
	c0,0,13.5-1.8,34.2,7.5s26.6,34.2,26.6,34.2c-20-28.5-63.3-27.3-79.3-21.3s-24,24-24,42c0,20.3,17,39.3,31,68s7.8,29.6,20,47
	c7,10,20.7,12,38.7-4.7c15-13.9,29.5-24.5,36.2-33c5.3-25.7,13.5-72.5-5.3-100.7C1031,1638.8,1038.4,1638,1044.7,1610.6
	L1044.7,1610.6z M1049.3,1713.1l-0.9-0.3L1049.3,1713.1z M1051,1713.6l-0.9-0.3L1051,1713.6z M1085.2,1722.4l-1.3-0.3L1085.2,1722.4
	z M1087.7,1722.9l-1.3-0.3L1087.7,1722.9z M1052.7,1714.2l-0.9-0.3L1052.7,1714.2z M1095.2,1724.4l-1.4-0.3L1095.2,1724.4z
	 M1041,1711.9v0.4V1711.9z M1108,1726.7l-1.3-0.2L1108,1726.7z M1092.7,1723.9l-1.4-0.3L1092.7,1723.9z M1090.2,1723.4l-1.3-0.3
	L1090.2,1723.4z M1042.3,1710.2l-1.1-0.6L1042.3,1710.2z M1046.3,1711.9l-0.8-0.3L1046.3,1711.9z M1043.6,1710.8l-0.8-0.4
	L1043.6,1710.8z M1044.9,1711.4l-0.8-0.3L1044.9,1711.4z M1054.5,1714.8l-1-0.3L1054.5,1714.8z M1100.3,1725.3l-1.3-0.2
	L1100.3,1725.3z M1073.2,1719.7l-1.2-0.3L1073.2,1719.7z M1115.5,1728l-1.1-0.2L1115.5,1728z M1120.5,1728.8l-1-0.2L1120.5,1728.8z
	 M1118,1728.4l-1-0.2L1118,1728.4z M1070.9,1719.2l-1.2-0.3L1070.9,1719.2z M1075.5,1720.3l-1.3-0.3L1075.5,1720.3z M1077.9,1720.8
	l-1.3-0.3L1077.9,1720.8z M1110.5,1727.2l-1.2-0.2L1110.5,1727.2z M1080.3,1721.3l-1.3-0.3L1080.3,1721.3z M1105.4,1726.3l-1.2-0.2
	L1105.4,1726.3z M1102.8,1725.8l-1.3-0.2L1102.8,1725.8z M1113,1727.6l-1.2-0.2L1113,1727.6z M1123,1729.2l-1-0.2L1123,1729.2z
	 M1062.2,1717l-1.1-0.3L1062.2,1717z M1060.2,1716.5l-1.1-0.3L1060.2,1716.5z M1082.7,1721.9l-1.3-0.3L1082.7,1721.9z
	 M1058.2,1715.9l-1-0.3L1058.2,1715.9z M1056.3,1715.3l-1-0.3L1056.3,1715.3z M1064.3,1717.6l-1.1-0.3L1064.3,1717.6z
	 M1125.3,1729.6l-0.8-0.1L1125.3,1729.6z M1097.7,1724.9l-1.3-0.3L1097.7,1724.9z M1130,1730.3l-0.5-0.1L1130,1730.3z
	 M1066.5,1718.1l-1.2-0.3L1066.5,1718.1z M1068.7,1718.7l-1.2-0.3L1068.7,1718.7z M1127.7,1730l-0.7-0.1L1127.7,1730z
	 M1047.8,1712.5l-0.8-0.3L1047.8,1712.5z M1039.3,1724v-0.2V1724z"/>
<path opacity="0.3" fill="#091426" enable-background="new    " d="M1039.3,1724v-0.2V1724z M1040.6,1715.4c0-0.1,0-0.2,0.1-0.4
	s0-0.3,0-0.4v-0.1C1040.7,1714.9,1040.7,1715.2,1040.6,1715.4z M1040.3,1718.1v-0.4c0-0.2,0.1-0.4,0.1-0.6
	C1040.4,1717.5,1040.3,1717.8,1040.3,1718.1z M750.7,1646.3l-0.2,0.2L750.7,1646.3z M802,1788.7l1.8-0.4L802,1788.7z M839.7,1779
	l1.5-0.4L839.7,1779z M707.3,1738.2v-1C707.4,1737.5,707.3,1737.8,707.3,1738.2z M842.5,1800.4c0,0.3,0.1,0.5,0.1,0.8v0.3
	C842.6,1801.2,842.6,1800.8,842.5,1800.4L842.5,1800.4z M841.7,1790.5c0,0.4,0.1,0.8,0.1,1.2v0.3
	C841.8,1791.5,841.7,1791,841.7,1790.5z M841.9,1793.9v0.3c0-0.3,0-0.6-0.1-1C841.9,1793.5,841.9,1793.7,841.9,1793.9z M708.2,1728
	v-0.3V1728z M1037,1734.3l0.4-1.5c0-0.1,0.1-0.2,0.1-0.2C1037.3,1733.1,1037.1,1733.7,1037,1734.3z M712.3,1706.7
	c0-0.2,0.1-0.3,0.1-0.5C712.4,1706.4,712.4,1706.6,712.3,1706.7z M716.3,1694.7v-0.2V1694.7z M714.9,1698.5l0.1-0.2
	C715,1698.4,715,1698.5,714.9,1698.5z M711.3,1710.5c0-0.2,0.1-0.3,0.1-0.5C711.4,1710.2,711.4,1710.4,711.3,1710.5z M708.7,1723.8
	l0.1-0.6L708.7,1723.8z M1038.6,1727.4c0,0.1-0.1,0.3-0.1,0.4C1038.6,1727.7,1038.6,1727.5,1038.6,1727.4z M1040.1,1719
	c0-0.2,0-0.3,0.1-0.5C1040.2,1718.7,1040.2,1718.9,1040.1,1719z M1038.9,1726c0-0.1,0-0.2,0.1-0.4
	C1039,1725.8,1039,1725.9,1038.9,1726z M1040.5,1716.5L1040.5,1716.5L1040.5,1716.5z M1027.9,1756.7c0.2-0.3,0.4-0.7,0.6-1
	L1027.9,1756.7z M842.8,1802c0,0.2,0,0.3,0.1,0.5l0.1,0.4C842.9,1802.6,842.8,1802.3,842.8,1802L842.8,1802z M1037.7,1731.3l0.1-0.3
	C1037.8,1731.2,1037.7,1731.3,1037.7,1731.3L1037.7,1731.3z M723,1680.5c0-0.1,0.1-0.2,0.1-0.3L723,1680.5z M1031.7,1749.4l0.4-0.9
	C1031.9,1748.8,1031.8,1749.1,1031.7,1749.4z M1028.8,1755l0.1-0.2c0.1-0.1,0.1-0.3,0.2-0.4L1028.8,1755L1028.8,1755z
	 M1022.3,1764.1c0.3-0.3,0.5-0.6,0.8-0.9C1022.8,1763.5,1022.6,1763.8,1022.3,1764.1z M843,1803.8c0,0.2,0,0.3,0.1,0.4l-0.1-0.6
	V1803.8z M1023.7,1762.5l0.2-0.2L1023.7,1762.5z M1024.9,1761l0.1-0.2C1025,1760.9,1024.9,1761,1024.9,1761z M707.7,1732.2l-0.1,0.7
	L707.7,1732.2z M1035.5,1739.4L1035.5,1739.4c0,0-0.1,0.2-0.1,0.3L1035.5,1739.4z M1039.3,1723.8c0-0.2,0-0.3,0.1-0.4
	C1039.4,1723.5,1039.3,1723.6,1039.3,1723.8z M1035.9,1738.1l0.2-0.6C1036,1737.6,1035.9,1737.9,1035.9,1738.1z M727,1673.6
	c0,0.1-0.1,0.2-0.2,0.3C726.9,1673.8,727,1673.7,727,1673.6z M733.5,1664.4l-0.4,0.5L733.5,1664.4z M740.6,1656.1l-0.1,0.2
	L740.6,1656.1z M731.4,1667.3l-0.3,0.5L731.4,1667.3z M742.9,1653.7l-0.2,0.2L742.9,1653.7z M1032.5,1747.4l0.3-0.7L1032.5,1747.4z
	 M724.8,1677.4l0.3-0.5L724.8,1677.4z"/>
<path opacity="0.3" fill="#091426" enable-background="new    " d="M1039.7,1721.7c0-0.3,0.1-0.5,0.1-0.8c-0.2,1-0.3,1.9-0.5,2.9
	c0-0.1,0-0.2,0.1-0.4c0-0.3,0.1-0.6,0.2-1S1039.7,1721.9,1039.7,1721.7L1039.7,1721.7z M1040.3,1718.1c-0.1,0.8-0.2,1.7-0.4,2.5
	c0-0.2,0.1-0.4,0.1-0.7l0.2-1c0-0.2,0.1-0.4,0.1-0.5C1040.2,1718.3,1040.2,1718.2,1040.3,1718.1L1040.3,1718.1z M1040.4,1717.1
	c0-0.2,0.1-0.4,0.1-0.7v-0.1c0-0.3,0.1-0.6,0.1-0.9C1040.5,1716,1040.5,1716.5,1040.4,1717.1z M1040.7,1714.6v-0.2V1714.6z
	 M1026.2,1759.2l0.2-0.3c0.2-0.2,0.3-0.4,0.4-0.7l0.6-0.9c0.1-0.2,0.3-0.4,0.4-0.7l0.6-1l0.4-0.6l0.3-0.6l0.3-0.5l0.3-0.6
	c0.2-0.5,0.5-0.9,0.7-1.4c0.1-0.1,0.1-0.2,0.2-0.3c0.2-0.5,0.4-0.9,0.7-1.4c0.1-0.1,0.1-0.2,0.2-0.3s0.2-0.3,0.2-0.5
	s0.3-0.6,0.4-0.9c0.1-0.1,0.1-0.2,0.2-0.4l0.3-0.7l0.3-0.8l0.1-0.1c0-0.1,0.1-0.2,0.1-0.2l0.3-0.8c0.1-0.4,0.3-0.7,0.4-1.1l0.3-0.8
	c0.1-0.3,0.3-0.7,0.4-1l0.3-0.8c0.1-0.3,0.2-0.7,0.3-1s0.2-0.6,0.3-0.8c0-0.1,0-0.2,0.1-0.3c0-0.1,0.1-0.3,0.1-0.4l0.1-0.4
	c0.1-0.3,0.2-0.6,0.3-0.8s0.1-0.4,0.2-0.6l0.1-0.3v-0.1l0.2-0.8l0.3-1.2l0.2-0.7c0.2-0.6,0.3-1.2,0.5-1.8v-0.1l0.2-0.7
	c0-0.1,0.1-0.2,0.1-0.3s0.1-0.3,0.1-0.4s0.1-0.3,0.1-0.4c0.1-0.3,0.1-0.6,0.2-0.9s0.2-0.7,0.2-1s0.1-0.6,0.2-0.9
	c0-0.2,0.1-0.3,0.1-0.5v-0.2C1036.4,1738.1,1032.5,1750.1,1026.2,1759.2L1026.2,1759.2z M1039.2,1724.2v-0.2c-0.2,1-0.4,2-0.6,3.1
	v-0.1c0.1-0.3,0.1-0.6,0.2-0.9c0-0.1,0-0.2,0.1-0.4s0.1-0.3,0.1-0.5S1039.2,1724.5,1039.2,1724.2L1039.2,1724.2z M818.7,1600.6
	l7-19.5l-10.6,29.6h0.2C816.4,1607.2,817.6,1603.9,818.7,1600.6L818.7,1600.6z"/>
<path opacity="4.000000e-02" fill="#FFFFFF" enable-background="new    " d="M1043.3,1689.4c0.6-6.7,1.4-13.4,2.5-20.1
	c0.5-3.3,1.1-6.6,1.8-9.9s1.5-6.5,2.4-9.7c1.9-6.4,4.1-12.8,6.2-19.3s4.1-13.1,5.7-19.8l0.3-1.2c-2.2,0.2-4.4,0.1-6.5-0.2
	c-1.3,6.6-3,13-4.8,19.6s-3.8,13-5.4,19.7c-0.8,3.3-1.4,6.8-2,10.2s-1,6.8-1.3,10.2c-0.7,6.8-1,13.6-1.2,20.4
	c-0.1,3.4-0.1,6.8-0.1,10.2c0,3.4,0.1,6.8-0.1,10.2l0.4,0.1h0.4C1042.4,1702.9,1042.7,1696.1,1043.3,1689.4L1043.3,1689.4z
	 M892.8,1637.2c-1.2,0.8-2.3,1.7-3.4,2.6c-4.7,3.7-9.2,7.7-13.4,12c-2.1,2.1-4.2,4.4-6.1,6.7c-1.9,2.4-3.6,4.8-5.2,7.4
	c-3.1,5.1-5.8,10.5-8,16.1c-4.3,11.2-7.6,22.7-9.8,34.5c-4.7,23.5-6,47.6-3.9,71.4l0.8-0.1c0.7-23.6,3.8-47.1,9.3-70.1
	c0.7-2.8,1.5-5.7,2.3-8.5s1.5-5.6,2.4-8.4c1.7-5.5,3.6-10.9,5.9-16.1c2.1-5.1,4.7-10.1,7.6-14.8c1.4-2.3,3-4.5,4.7-6.6
	c0.8-1,1.7-2,2.6-3c0.4-0.5,1-1,1.5-1.5l1.5-1.5c3.9-4.1,8.1-7.9,12.5-11.5c1.5-1.2,3-2.3,4.6-3.4l0.8,0.2l0.2-0.9l1.1-0.7
	c0.6-0.4,1.1-0.7,1.7-1.1s1.2-0.7,1.7-1c1.1-0.6,2.4-1.3,3.6-2c5-2.5,10.2-4.7,15.5-6.3c1.3-0.4,2.7-0.8,4.1-1.2s2.7-0.7,4.1-1
	c2.8-0.7,5.5-1.2,8.3-1.7c5.7-0.9,11.4-1.4,17.1-1.5c5.6-0.3,11.1,0.4,16.5,1.8c5.4,1.5,10.6,3.9,15.2,7.2c2.4,1.7,4.6,3.5,6.8,5.5
	s4.3,4.1,6.2,6.3l0.7-0.5c-3.4-5-7.4-9.5-11.9-13.4c-4.6-4-9.8-7-15.5-9.1c-5.7-2-11.7-3.1-17.7-3.2c-6-0.2-12,0-18,0.6
	c-6,0.7-11.9,1.8-17.7,3.4s-11.4,3.7-16.9,6.3c-0.8,0.3-1.5,0.7-2.2,1.1c2.8-10.9,5.5-21.8,8.2-32.7c-1.7-1-3.3-2.4-4.5-4h-1.6
	c-0.8,2.8-1.5,5.7-2.3,8.5C899.2,1614.5,896,1625.8,892.8,1637.2L892.8,1637.2z M707.2,1741.3c0-1.1,0.1-2.1,0.1-3.2v-1.5
	c0.1-1.1,0.2-2.1,0.2-3.2v-0.5l0.1-0.7c0.1-1.4,0.3-2.8,0.4-4.2v-0.7c0.1-1.2,0.3-2.3,0.5-3.5l0.1-0.6c0-0.2,0.1-0.5,0.1-0.7
	c0.2-1,0.3-1.9,0.5-2.9c0.1-0.4,0.1-0.9,0.2-1.3c0.2-1.1,0.4-2.1,0.6-3.1c0-0.3,0.1-0.5,0.2-0.8l0.9-3.9c0-0.2,0.1-0.3,0.1-0.5
	c0-0.1,0.1-0.2,0.1-0.3c0.3-1,0.5-2,0.8-3c0-0.2,0.1-0.3,0.1-0.5s0.1-0.4,0.2-0.7c0.3-0.9,0.5-1.8,0.8-2.7c0.5-1.5,0.9-2.9,1.5-4.4
	l0.1-0.2v-0.1c0.4-1.2,0.9-2.4,1.3-3.6v-0.2l0.3-0.6c0.4-0.9,0.7-1.8,1.1-2.7l0.4-1c0.4-0.9,0.8-1.7,1.2-2.6v-0.1
	c0.1-0.2,0.2-0.5,0.3-0.7c1-2.2,2.1-4.4,3.3-6.5c0-0.1,0.1-0.2,0.1-0.3s0.2-0.3,0.2-0.4c0.5-0.8,0.9-1.7,1.4-2.5l0.3-0.5
	c0-0.1,0.1-0.2,0.2-0.3c0.5-0.9,1.1-1.8,1.6-2.6l0.1-0.1c0.1-0.1,0.1-0.2,0.2-0.3c1.3-2,2.6-4,4-5.9l0.3-0.5
	c0.6-0.8,1.2-1.6,1.8-2.3l0.4-0.5c1.1-1.4,2.1-2.7,3.3-4l0.1-0.1c1.1-1.3,2.2-2.6,3.4-3.9l0.2-0.2l0.1-0.2c0.7-0.8,1.5-1.5,2.2-2.3
	l0.2-0.2c1.2-1.2,2.5-2.5,3.7-3.6c1.3-1.2,2.5-2.4,3.8-3.5l0.2-0.2c3.5-3.1,7.1-5.9,10.8-8.6c6.4-4.6,13.1-8.7,20-12.3
	c2.2-1.2,4.5-2.3,6.8-3.4l3.3-1.5h0.1l3.3-1.5h0.1c1-0.4,2-0.9,3-1.3l0.4-0.2c1-0.4,2.1-0.9,3.1-1.3l0.2-0.1l2.8-1.1l0.6-0.2l3-1.1
	l0.2-0.1c0.9-0.3,1.8-0.7,2.7-1l0.7-0.3l2.9-1l0.3-0.7l-0.4,0.1h-0.1c-14.8,4.8-29,11.2-42.3,19.1c-13.5,8-25.6,18.2-35.8,30.1
	c-10.1,12-17.8,25.9-22.7,40.9c-2.4,7.4-4.2,15.1-5.3,22.9c-1,7.8-1.5,15.6-1.5,23.4h0.4c0-1.5,0-3.1,0.1-4.6
	C707.1,1742.2,707.2,1741.8,707.2,1741.3L707.2,1741.3z"/>
<path opacity="4.000000e-02" fill="#FFFFFF" enable-background="new    " d="M709.4,1735.7c0.3-1.9,0.7-3.8,1.1-5.7s0.8-3.8,1.2-5.6
	c1.8-7.4,4.1-14.6,7-21.7c2.7-7,6.1-13.7,10-20c1.9-3.2,4-6.2,6.2-9.2s4.5-5.8,7-8.6c9.9-11,21.4-20.6,34-28.3
	c12.7-8,26.4-14.3,40.5-20.1c4.1-1,8.3-1.6,12.5-1.8c4.6-0.2,9.1,0,13.7,0.5s9.1,1.4,13.5,2.7c2.2,0.7,4.4,1.5,6.5,2.5
	c0.5,0.2,1.1,0.5,1.6,0.8l1.5,0.9c0.5,0.3,1,0.6,1.5,1l1.5,1l0.6-0.5c-3.4-3.5-7.5-6.2-12-8.1c-4.4-1.9-9.1-3.4-13.8-4.3
	c-4.7-1-9.5-1.5-14.4-1.7c-2.4-0.1-4.8,0-7.2,0.1c3.6-10.5,6.9-20.4,10-30.2c-1.5-1-3-2.2-4.5-3.4l-1.8,4.9l-7,19.5
	c-1.1,3.3-2.2,6.6-3.4,10H815l-0.3,0.7l-2.9,1l-0.7,0.3c-0.9,0.3-1.8,0.6-2.7,1l-0.2,0.1l-3,1.1l-0.6,0.2l-2.8,1.1l-0.2,0.1
	c-1,0.4-2.1,0.8-3.1,1.3l-0.4,0.2c-1,0.4-2,0.8-3,1.3H795l-3.3,1.5h-0.1l-3.3,1.5c-2.2,1.1-4.5,2.2-6.8,3.4
	c-6.9,3.6-13.6,7.8-20,12.3c-3.7,2.7-7.3,5.5-10.8,8.6l-0.2,0.2c-1.3,1.1-2.6,2.3-3.8,3.5s-2.5,2.4-3.7,3.6l-0.2,0.2
	c-0.7,0.8-1.5,1.5-2.2,2.3l-0.1,0.2l-0.2,0.2c-1.2,1.3-2.3,2.6-3.4,3.9l-0.1,0.1c-1.1,1.3-2.2,2.7-3.3,4l-0.4,0.5
	c-0.6,0.8-1.2,1.6-1.8,2.3l-0.3,0.5c-1.4,1.9-2.7,3.9-4,5.9c0,0.1-0.1,0.2-0.2,0.3l-0.1,0.1c-0.5,0.9-1.1,1.7-1.6,2.6
	c-0.1,0.1-0.1,0.2-0.2,0.3l-0.3,0.5c-0.5,0.8-1,1.6-1.4,2.5c-0.1,0.1-0.2,0.3-0.2,0.4s-0.1,0.2-0.1,0.3c-1.1,2.1-2.2,4.3-3.3,6.5
	c-0.1,0.2-0.2,0.5-0.3,0.7v0.1c-0.4,0.8-0.8,1.7-1.2,2.6l-0.4,1c-0.4,0.9-0.7,1.8-1.1,2.7l-0.3,0.6v0.2c-0.5,1.2-0.9,2.3-1.3,3.6
	v0.1l-0.1,0.2c-0.5,1.5-1,2.9-1.5,4.4c-0.3,0.9-0.5,1.8-0.8,2.7c-0.1,0.2-0.1,0.4-0.2,0.7s-0.1,0.3-0.1,0.5c-0.3,1-0.5,2-0.8,3
	c0,0.1,0,0.2-0.1,0.3c0,0.2-0.1,0.3-0.1,0.5l-0.9,3.9c0,0.3-0.1,0.5-0.2,0.8c-0.2,1-0.4,2.1-0.6,3.1c-0.1,0.4-0.2,0.9-0.2,1.3
	c-0.2,0.9-0.3,1.9-0.5,2.9c0,0.2-0.1,0.5-0.1,0.7l-0.1,0.6c-0.2,1.2-0.3,2.3-0.5,3.5v0.7c-0.2,1.4-0.3,2.8-0.4,4.2l-0.1,0.7v0.5
	c-0.1,1-0.2,2.1-0.2,3.2v1.5c-0.1,1-0.1,2.1-0.1,3.2v1.4c0,1.5-0.1,3-0.1,4.6h0.4C708.1,1743.4,708.6,1739.5,709.4,1735.7
	L709.4,1735.7z M963.7,1047l1.5-1.7L963.7,1047z"/>
<path fill="#282828" d="M1425,1113c-35.5-14.6-52-27.3-66.9-34.8c-0.6,7-1.5,14-2.8,20.9c-0.1,0.3-0.1,0.7-0.2,1
	c-0.2,0.8-0.3,1.6-0.5,2.4c-0.2,1.2-0.5,2.3-0.8,3.5c-0.2,1-0.4,1.9-0.7,2.8c0,0.1-0.1,0.3-0.1,0.4c-0.3,1.1-0.5,2.1-0.8,3.2
	l-1.2,4.2c-0.1,0.3-0.2,0.6-0.3,1c-0.4,1.3-0.8,2.7-1.3,4c-0.4,1.3-0.9,2.6-1.4,3.9l-0.3,0.9c-0.5,1.2-0.9,2.5-1.4,3.7
	c-0.1,0.2-0.2,0.3-0.2,0.5c-0.1,0.2-0.2,0.5-0.3,0.7c-0.4,1-0.8,1.9-1.2,2.8l-0.5,1.1c-0.3,0.7-0.6,1.3-0.9,2l-0.2,0.4l-0.5,1
	l-0.7,1.3c-0.3,0.6-0.6,1.1-0.9,1.7l-0.3,0.6c-0.4,0.7-0.7,1.3-1.1,2l-0.1,0.2l-0.7,1.2l-0.2,0.4c-0.3,0.6-0.7,1.1-1,1.7l-0.5,0.8
	l-0.8,1.2l-0.4,0.6c-0.3,0.4-0.6,0.9-1,1.3l-0.1,0.1c-0.6,0.8-1.2,1.5-1.8,2.3l-0.3,0.3l-1.8,2.1c-1.9,2.1-4,4-6.2,5.6
	c-17.5,12.6-50.5-9.7-127.2-66c-70.1-51.4-115.8-119.1-141.7-132.6c-5.3-8-0.6-13.2,5.4-16.9l-0.3,0.1c29.6-7.4,58.5-17.7,86.2-30.5
	c-49.8,14.3-75.3,4.8-98.5,6c-39,2-73,31-113,31c-128,0-228-59-239-109c-10.7-48.8,14.3-72.9,13-87c-2-22-23-36-33-112
	s37-136,113-161s154,41,234,40s147-81.7,171-83c18-1,60,7,72,70s-1,146,1,184c0.1,1.7,0.8,3.3,2.1,4.4c4.7,11.8,22.9,25.8,26.9,59.6
	c1.3,11.1-1.6,25.1-8.9,40.2c7.7-15.5,10.8-29.8,9.4-41.2c-4.5-38.1-27-51-28-64s19-83,17-170s-44-129-92-171s-138-85-277-83
	S617.8,388.9,590,443c-37,72-52,126-19,257c25.2,100.2,95.9,212,246,251c46.2,12,101.8,14.1,163,9c3.6-0.3,7.2-0.6,10.8-1
	c3.8,3.4-3.3,9.6-9.9,15.7c-18.7,12.2-43.3,37.5-75.7,62.1c-39.5,29.9-198.1,117.5-237.9,176.7s1,111.7,35.9,147.6
	c20.9,21.5,48.8,40.2,71.6,53.7l-1.5,0.7l-0.5,0.2l-1.2,0.6l-0.7,0.3l-1.2,0.6l-0.8,0.3l-1.2,0.6l-0.8,0.4l-1.3,0.6l-0.9,0.4
	l-1.3,0.7l-0.9,0.5l-1.4,0.7l-1,0.5l-1.5,0.7l-1,0.5l-1.5,0.8l-1,0.5l-1.6,0.8l-1,0.5l-1.6,0.9l-1,0.5l-1.7,1l-0.9,0.5l-1.8,1
	l-0.8,0.5l-2,1.2l-0.6,0.4c-0.9,0.5-1.7,1.1-2.6,1.6l-2.6,1.7c-12.2,8-22.8,17.3-25.1,26.2c-5.8,23.3,5.8,38.8,19.4,28.2
	c24.7,40.2,63,64.4,102.1,71.6c-0.1,0.2-0.1,0.3-0.2,0.5l-0.4,1c-0.1,0.3-0.2,0.5-0.3,0.8l-0.3,0.8v0.1c-0.1,0.2-0.2,0.5-0.3,0.8
	s-0.3,0.8-0.4,1.1c-0.1,0.2-0.1,0.4-0.2,0.6v0.1c-0.1,0.3-0.2,0.6-0.3,0.8l-0.1,0.3c0,0.1-0.1,0.2-0.1,0.2c-0.2,0.4-0.3,0.8-0.4,1.2
	l-0.2,0.4c-0.1,0.3-0.2,0.6-0.3,0.8v0.1c0,0.1-0.1,0.2-0.1,0.3c-0.1,0.3-0.2,0.7-0.3,1c0,0.1,0,0.2-0.1,0.2l-0.2,0.8l-0.1,0.3
	l-0.3,0.8v0.1c-0.1,0.2-0.1,0.4-0.2,0.7v0.2l-0.2,0.7l-1,2.7c12.2,9.8,24.2,14,39.7,16.1c12.4,1.5,24.9,2.3,37.4,2.4h1.6
	c1.2,1.6,2.7,3,4.5,4c6.5,4,18,6.6,32.5,8.5c11.6,1.5,25.2,2.5,39.8,3.4c29,1.8,48.5,1.1,61.6-0.1c4.3-0.4,7.9-0.8,10.9-1.3
	c2.2,0.3,4.3,0.4,6.5,0.2c5.7-0.4,12.9-1.9,20.7-4.2c10.9-3.1,23.2-7.5,34.5-12c21.3-8.4,39.3-16.8,39.3-16.8s29.1-178.7,9.7-309.7
	c-0.3-2.1-0.6-4.2-1-6.3c-0.1-0.7-0.2-1.3-0.3-2c-0.2-1.4-0.5-2.9-0.7-4.3c-0.1-0.8-0.3-1.6-0.4-2.3c-0.2-1.3-0.4-2.7-0.7-4
	l-0.4-2.4c-0.2-1.3-0.5-2.7-0.7-4l-0.4-2.3c-0.3-1.4-0.5-2.8-0.8-4.1c-0.1-0.7-0.3-1.4-0.4-2.1l-0.9-4.5l-0.3-1.7
	c-0.4-1.9-0.8-3.7-1.1-5.6c-0.1-0.2-0.1-0.4-0.1-0.6c-1.3-6.4-2.7-12.8-4.2-19.2l-0.2-0.7c-0.4-1.9-0.9-3.8-1.3-5.6
	c-0.1-0.3-0.1-0.6-0.2-0.8c-0.4-1.8-0.9-3.7-1.3-5.5c-0.1-0.3-0.1-0.5-0.2-0.8c-0.5-1.9-0.9-3.8-1.4-5.7l-0.1-0.5
	c-1.6-6.1-3.2-12.2-4.8-18.2l-0.1-0.4l-1.5-3l1.5,3c-0.8-2.7-1.5-5.4-2.3-8.1c0.5,0.6,0.9,1.2,1.4,1.8l0.7,0.9
	c0.5,0.6,0.9,1.2,1.4,1.8c0.2,0.3,0.5,0.6,0.7,0.9c0.5,0.6,1,1.2,1.4,1.8l0.7,0.9c0.5,0.6,1,1.3,1.5,1.9l0.5,0.7
	c0.9,1.2,1.9,2.3,2.8,3.5l0.1,0.2l2.5,3.1l0.4,0.4l0.3,0.4l0.6,0.8l0.6,0.7l0.6,0.8c0.2,0.2,0.4,0.5,0.6,0.7l0.3,0.4l0.7,0.8l0.8,1
	c0.2,0.2,0.4,0.5,0.6,0.7v0.1c0.2,0.3,0.5,0.6,0.8,0.9l1.1,1.3l0.4,0.4c3.1,3.5,6.3,7.1,9.6,10.7l0.3,0.3c0.2,0.2,0.3,0.4,0.5,0.6
	l1.7,1.9l0.5,0.5l0.3,0.3c0.6,0.6,1.2,1.3,1.8,1.9l0.2,0.2l0.3,0.3l0.1,0.1c1.7,1.8,3.4,3.5,5.1,5.3l0.2,0.2
	c1.8,1.8,3.5,3.6,5.3,5.3c41.8,41.2,95.7,79.2,148.3,78.6c87.4-0.9,147.5-100.1,168.9-142.6C1501,1144.3,1471.4,1132.1,1425,1113
	L1425,1113z M744,1432.7c-0.8,0.2-1.5,0.4-2.3,0.6C742.5,1433.1,743.2,1432.9,744,1432.7z M740.5,1433.7c-0.7,0.2-1.5,0.5-2.2,0.7
	C739.1,1434.1,739.8,1433.8,740.5,1433.7z M744.4,1432.6c28.2-7.1,45.7,3,59.4,12.2C790.1,1435.6,772.6,1425.5,744.4,1432.6z
	 M808.7,1448c1,0.7,2,1.4,3,2C810.7,1449.4,809.7,1448.7,808.7,1448z M806.4,1446.5l2.1,1.4L806.4,1446.5z M964.7,1050.6v0.2
	c-0.1,0.4-0.1,0.9-0.2,1.3c-0.3,1.9-0.6,3.8-0.9,5.8c0,0.3-0.1,0.6-0.1,0.8c-0.2,1.4-0.4,2.8-0.7,4.3v0.2l-0.6,3.9
	c-0.1,0.5-0.2,1-0.3,1.6c-0.1,0.4-0.2,0.9-0.2,1.3c-0.1,0.4-0.1,0.8-0.2,1.2l-0.6,3.3v0.2c-0.1,0.5-0.2,1-0.2,1.5
	c0,0.2-0.1,0.4-0.1,0.6c-0.6,3.7-1.3,7.6-2,11.6c0,0.3-0.1,0.6-0.2,0.9c-0.1,0.7-0.3,1.4-0.4,2.2c-0.1,0.4-0.2,0.8-0.2,1.3
	c-0.5,2.9-1,5.8-1.6,8.8c-0.3,1.7-0.6,3.3-0.9,5l-0.5,2.4v0.1c-0.2,0.8-0.3,1.6-0.5,2.5c-0.1,0.4-0.1,0.7-0.2,1.1v0.1
	c-0.3,1.5-0.6,3-0.9,4.6v0.2c-0.3,1.4-0.5,2.8-0.8,4.2l-0.1,0.5c-0.3,1.4-0.5,2.8-0.8,4.2v0.3l-0.1,0.6c0,0.2-0.1,0.4-0.1,0.7
	c-0.3,1.7-0.7,3.4-1,5.2c-0.1,0.3-0.1,0.7-0.2,1l-1.7,9.1l-0.2,0.8c-0.9,4.5-1.7,9-2.6,13.6l-4.7,24.2c0,0.2-0.1,0.3-0.1,0.5
	l-0.8,4.3v0.4c-0.3,1.4-0.5,2.9-0.8,4.3v0.4l-1.8,9.3c0,0.3-0.1,0.6-0.2,0.8c-0.2,1.2-0.5,2.5-0.7,3.7c-0.1,0.4-0.2,0.8-0.2,1.2
	l-0.6,3.3l-0.3,1.5c-0.2,1.1-0.4,2.2-0.6,3.2c-0.1,0.5-0.2,0.9-0.3,1.4l-0.8,4.5c-0.3,1.6-0.6,3.2-0.9,4.7v0.2l-0.2,0.8
	c-0.2,1.2-0.4,2.4-0.7,3.6l-0.1,0.6c-0.1,0.3-0.1,0.7-0.2,1c-0.2,1-0.4,2-0.5,3c-0.1,0.5-0.2,0.9-0.3,1.4v0.2
	c-0.2,1.1-0.4,2.1-0.6,3.2c-0.1,0.5-0.2,1-0.3,1.6c-0.2,1.1-0.4,2.3-0.6,3.4l-0.2,1.1v0.1l-0.8,4.6l-0.1,0.4c0,0.2-0.1,0.5-0.1,0.8
	l-0.6,3.5c-0.1,0.5-0.2,1.1-0.3,1.6c-0.2,1-0.4,2-0.6,3.1v0.1l-0.3,1.7c-0.2,1-0.3,2-0.5,2.9c-0.1,0.6-0.2,1.2-0.3,1.7
	c-0.2,1-0.4,2.1-0.5,3.1c0,0.3-0.1,0.6-0.2,1s-0.1,0.4-0.1,0.6l-0.8,4.6l-0.9,5.1c0,0.2-0.1,0.4-0.1,0.6c-0.8,4-1.6,8.1-2.5,12.3
	c0,0.2-0.1,0.3-0.1,0.5c-0.3,1.5-0.6,2.9-1,4.4c-0.1,0.4-0.2,0.7-0.2,1.1c-0.4,1.7-0.8,3.5-1.2,5.3c-0.1,0.5-0.2,1-0.4,1.6l-0.4,1.8
	c-30.5-27.5-75.8-60.5-101.1-71.9c35.3-53.3,46-66.9,80-108.7c18.9-23.2,46.7-54.7,69.5-80.3
	C965.1,1048.4,964.9,1049.5,964.7,1050.6L964.7,1050.6z"/>
<path fill="none" d="M1144.1,1165l-1.5-3L1144.1,1165z M815.7,1236.3c25.3,11.4,70.6,44.4,101.1,71.9l0.4-1.8
	c0.1-0.5,0.2-1.1,0.4-1.6c0.4-1.8,0.8-3.5,1.2-5.3c0.1-0.4,0.2-0.7,0.2-1.1c0.3-1.5,0.6-2.9,1-4.4c0-0.2,0.1-0.3,0.1-0.5
	c0.9-4.2,1.7-8.3,2.5-12.3c0-0.2,0.1-0.4,0.1-0.6l0.9-5.1l0.8-4.6c0-0.2,0.1-0.4,0.1-0.6s0.1-0.6,0.2-1c0.2-1,0.4-2.1,0.5-3.1
	c0.1-0.6,0.2-1.2,0.3-1.7c0.2-1,0.3-2,0.5-2.9l0.3-1.7v-0.1c0.2-1,0.4-2.1,0.6-3.1c0.1-0.5,0.2-1.1,0.3-1.6l0.6-3.5
	c0-0.2,0.1-0.5,0.1-0.8l0.1-0.4l0.8-4.6v-0.1l0.2-1.1c0.2-1.1,0.4-2.3,0.6-3.4c0.1-0.5,0.2-1,0.3-1.6c0.2-1,0.4-2.1,0.6-3.2v-0.2
	c0.1-0.5,0.2-0.9,0.3-1.4c0.2-1,0.4-2,0.5-3c0.1-0.3,0.1-0.7,0.2-1l0.1-0.6c0.2-1.2,0.4-2.4,0.7-3.6l0.2-0.8v-0.2
	c0.3-1.6,0.6-3.2,0.9-4.7l0.8-4.5c0.1-0.4,0.2-0.9,0.3-1.4c0.2-1.1,0.4-2.2,0.6-3.2l0.3-1.5l0.6-3.3c0.1-0.4,0.2-0.8,0.2-1.2
	c0.2-1.2,0.5-2.5,0.7-3.7c0-0.3,0.1-0.6,0.2-0.8l1.8-9.3v-0.4c0.3-1.4,0.5-2.9,0.8-4.3v-0.4l0.8-4.3c0-0.2,0.1-0.3,0.1-0.5
	c1.6-8.2,3.1-16.3,4.7-24.2c0.9-4.6,1.8-9.2,2.6-13.6l0.2-0.8l1.7-9.1c0.1-0.3,0.1-0.7,0.2-1c0.3-1.7,0.7-3.5,1-5.2
	c0-0.2,0.1-0.4,0.1-0.7l0.1-0.6v-0.3c0.3-1.4,0.5-2.8,0.8-4.2l0.1-0.5c0.3-1.4,0.5-2.8,0.8-4.2v-0.2c0.3-1.5,0.6-3.1,0.9-4.6v-0.1
	c0.1-0.3,0.1-0.7,0.2-1.1c0.2-0.8,0.3-1.7,0.5-2.5v-0.1l0.5-2.4c0.3-1.7,0.6-3.4,0.9-5c0.5-3,1.1-5.9,1.6-8.8
	c0.1-0.4,0.2-0.8,0.2-1.3c0.1-0.7,0.2-1.4,0.4-2.2c0.1-0.3,0.1-0.6,0.2-0.9c0.7-4,1.4-7.8,2-11.6c0-0.2,0.1-0.4,0.1-0.6
	c0.1-0.5,0.2-1,0.2-1.5v-0.2l0.6-3.3c0.1-0.4,0.1-0.8,0.2-1.2c0.1-0.4,0.2-0.9,0.2-1.3c0.1-0.5,0.2-1,0.3-1.6l0.6-3.9v-0.2
	c0.2-1.4,0.5-2.9,0.7-4.3c0-0.3,0.1-0.6,0.1-0.8c0.3-2,0.6-3.9,0.9-5.8c0.1-0.4,0.1-0.9,0.2-1.3v-0.2c0.2-1.1,0.3-2.2,0.5-3.3
	c-22.8,25.6-50.6,57.1-69.5,80.3C861.7,1169.4,851,1183,815.7,1236.3L815.7,1236.3z"/>
<path fill="#282828" d="M1353.9,1106.1c-0.2,1-0.4,1.9-0.7,2.8C1353.4,1108,1353.7,1107,1353.9,1106.1z M1353.1,1109.3
	c-0.3,1.1-0.5,2.1-0.8,3.2C1352.6,1111.5,1352.9,1110.4,1353.1,1109.3z M1344.7,1134.1l-0.5,1.1L1344.7,1134.1z M1346.2,1130.7
	c-0.1,0.2-0.2,0.5-0.3,0.7C1346,1131.1,1346.1,1130.9,1346.2,1130.7z M1332.6,1154.3l0.3-0.3L1332.6,1154.3z M1354.7,1102.6
	c0.2-0.8,0.3-1.6,0.5-2.4C1355,1101,1354.8,1101.8,1354.7,1102.6z M1343.3,1137.2l-0.2,0.4L1343.3,1137.2z M1347.9,1126.4l0.3-0.9
	L1347.9,1126.4z M1336.1,1149.6l-0.4,0.6L1336.1,1149.6z M1342.6,1138.7l-0.7,1.3L1342.6,1138.7z M1334.8,1151.5l-0.1,0.2
	L1334.8,1151.5z M1338.8,1145.5c-0.1,0.1-0.2,0.3-0.3,0.4L1338.8,1145.5z M1339.6,1144.2l-0.1,0.2L1339.6,1144.2z M1337.5,1147.6
	l-0.5,0.8L1337.5,1147.6z M1341,1141.6l-0.3,0.6L1341,1141.6z"/>
<path fill="#494949" d="M1338.2,1146.4c-0.2,0.4-0.5,0.8-0.7,1.2c0.3-0.5,0.7-1.1,1-1.7L1338.2,1146.4z M1342.6,1138.7l0.5-1
	L1342.6,1138.7z M1336.1,1149.6l0.8-1.2L1336.1,1149.6z M1340.1,1143.3l-0.5,0.8c0.4-0.6,0.7-1.3,1.1-2
	C1340.5,1142.6,1340.3,1143,1340.1,1143.3z M1338.8,1145.5l0.7-1.2L1338.8,1145.5z M1341.3,1141.1l-0.3,0.6c0.3-0.6,0.6-1.1,0.9-1.7
	C1341.7,1140.3,1341.5,1140.7,1341.3,1141.1z M1153.3,1171.4l-0.1-0.2L1153.3,1171.4z M1334.8,1151.5c0.3-0.4,0.7-0.9,1-1.3
	C1335.4,1150.6,1335.1,1151.1,1334.8,1151.5z M1332.9,1154c0.6-0.7,1.2-1.5,1.8-2.3C1334.1,1152.5,1333.5,1153.2,1332.9,1154z
	 M1349.5,1121.6c0.4-1.3,0.9-2.7,1.3-4C1350.4,1119,1350,1120.3,1349.5,1121.6z M1353.1,1109.3c0-0.1,0.1-0.2,0.1-0.3
	C1353.2,1109.1,1353.1,1109.2,1353.1,1109.3z M1353.9,1106c0.3-1.2,0.5-2.3,0.8-3.5C1354.4,1103.8,1354.2,1104.9,1353.9,1106z
	 M1348.2,1125.5c0.5-1.3,0.9-2.6,1.4-3.9C1349.1,1123,1348.6,1124.2,1348.2,1125.5z M1355.1,1100.2c0.1-0.3,0.1-0.7,0.2-1
	C1355.3,1099.5,1355.2,1099.9,1355.1,1100.2z M1345.3,1132.7l-0.4,0.8l-0.3,0.6c0.4-0.9,0.8-1.8,1.2-2.8L1345.3,1132.7
	L1345.3,1132.7z M1343.8,1136.2l-0.5,1c0.3-0.7,0.6-1.3,0.9-2L1343.8,1136.2z M1346.2,1130.6c0.1-0.2,0.2-0.3,0.2-0.5
	C1346.3,1130.3,1346.3,1130.5,1346.2,1130.6z M1346.4,1130.1c0.5-1.2,1-2.4,1.4-3.7C1347.4,1127.7,1346.9,1128.9,1346.4,1130.1z"/>
<path fill="#494949" d="M1156.5,1175.3l1.8,2.2c0.2,0.2,0.4,0.5,0.6,0.7l1.8,2.1c0.2,0.2,0.4,0.5,0.6,0.7l1.9,2.2
	c0.1,0.2,0.3,0.3,0.4,0.5c3,3.5,6.2,7,9.4,10.5c0.1,0.2,0.3,0.3,0.4,0.4c0.7,0.8,1.5,1.6,2.2,2.4l0.5,0.5l2.3,2.4l0.3,0.3
	c3.5,3.7,7.1,7.3,10.8,11c0.9,0.9,1.8,1.7,2.7,2.6l0.3,0.3c0.9,0.9,1.8,1.7,2.7,2.6l0.2,0.2c4.8,4.6,9.7,9,14.7,13.4l0.1,0.1l3,2.6
	l0.1,0.1c6.2,5.2,12.5,10.3,19,15.1c20.6,15.3,42.7,27.9,65.1,35.1h0.1c6.9,2.2,14,3.9,21.2,5.1h0.3c1.1,0.2,2.3,0.3,3.4,0.5h0.1
	c4.7,0.6,9.5,0.9,14.2,0.9c20.1-6.7,29.4-26.9,34.1-58.1s-9.8-92.7-15.5-133.8c-0.1,0.3-0.1,0.7-0.2,1s-0.1,0.7-0.2,1
	c-0.2,0.8-0.3,1.6-0.5,2.4c-0.2,1.2-0.5,2.3-0.8,3.5c-0.2,1-0.4,1.9-0.7,2.8c0,0.1-0.1,0.3-0.1,0.4c-0.3,1.1-0.5,2.1-0.8,3.2
	l-1.2,4.2c-0.1,0.3-0.2,0.6-0.3,1c-0.4,1.3-0.8,2.7-1.3,4c-0.4,1.3-0.9,2.6-1.4,3.9l-0.3,0.9c-0.5,1.2-0.9,2.5-1.4,3.7
	c-0.1,0.2-0.2,0.3-0.2,0.5c-0.1,0.2-0.2,0.5-0.3,0.7c-0.4,1-0.8,1.9-1.2,2.8l-0.5,1.1c-0.3,0.7-0.6,1.3-0.9,2l-0.2,0.4l-0.5,1
	l-0.7,1.3c-0.3,0.6-0.6,1.1-0.9,1.7l-0.3,0.6c-0.4,0.7-0.7,1.3-1.1,2l-0.1,0.2l-0.7,1.2l-0.2,0.4c-0.3,0.6-0.7,1.1-1,1.7l-0.5,0.8
	l-0.8,1.2l-0.4,0.6c-0.3,0.4-0.6,0.9-1,1.3l-0.1,0.1c-0.6,0.8-1.2,1.5-1.8,2.3l-0.3,0.3l-1.8,2.1c-3.9,9.7-8,19.6-11.2,26.9
	c-6.8,15.3-20.8,28.5-49.1,27.2c-26.6-1.2-55.4-29.3-83.5-59c-34.9-36.9-67.8-78.8-84.3-103.2c13.8,30.8,27.5,68.1,39.1,108.6
	l1.4,1.9l0.7,0.9c0.5,0.6,0.9,1.2,1.4,1.8c0.2,0.3,0.5,0.6,0.7,0.9c0.5,0.6,1,1.2,1.4,1.8l0.7,0.9c0.5,0.6,1,1.3,1.5,1.9l0.5,0.7
	c0.9,1.2,1.9,2.3,2.8,3.5l0.1,0.2c1,1.2,1.9,2.3,2.9,3.5L1156.5,1175.3L1156.5,1175.3z"/>
<path fill="#99C7C9" d="M1135.3,1135.3c11.2,6.7,22.3,11.3,27,7.2c6-5.2-6.6-21.1-23.6-36.6c-8.2-7.4-14.1-12.5-18.7-15.1
	C1125.4,1104.9,1130.5,1119.8,1135.3,1135.3L1135.3,1135.3z M1183.5,1172c-7.7,8.7,11.5,30.5,19,38.5s25.8,20.8,34,12
	c7.5-8-14-30.5-22.5-38.5S1191,1163.5,1183.5,1172z M1276.5,1241c6.8,22.7,25,31.5,39.5,32s31-9.5,27.5-28.5s-26.5-33-43-30
	C1282.7,1217.7,1273.5,1231,1276.5,1241z M1353.7,1106.2c0.2-1.7-3.6,14.9-3.5,13.4c-1.2,3.7-2.4,7.2-3.8,10.6
	c-0.1,0.2-0.2,0.3-0.2,0.5c-0.3,0.7-0.6,1.4-0.9,2l-0.4,0.8c-0.2,0.6-0.5,1.1-0.8,1.7l-0.4,1c-0.2,0.5-0.5,1-0.7,1.5l-0.5,1
	l-0.7,1.3c-0.2,0.4-0.4,0.7-0.6,1.1l-0.6,1.2c-0.2,0.4-0.4,0.8-0.6,1.1l-0.6,1l-0.7,1.2l-0.6,0.9l-0.6,1c-3,14.6,0.8,30.2,8.1,30.2
	C1361.5,1177.7,1351,1127.5,1353.7,1106.2L1353.7,1106.2z"/>
<path fill="none" d="M916.8,1308.3c0.1-0.6,0.3-1.2,0.4-1.8v-0.1c0.1-0.5,0.2-1.1,0.4-1.6c0.4-1.8,0.8-3.5,1.2-5.3
	c0.1-0.4,0.2-0.8,0.2-1.1c0.3-1.5,0.6-2.9,1-4.4c0-0.2,0.1-0.4,0.1-0.5c0.1-0.3,0.2-0.7,0.2-1c0.4-1.7,0.7-3.5,1.1-5.2l0.1-0.6
	c0.3-1.6,0.6-3.1,0.9-4.7l0.2-0.8c0-0.2,0.1-0.4,0.1-0.6l0.9-5.1c0.3-1.7,0.6-3.5,0.9-5.2c0.1-0.3,0.1-0.6,0.2-0.9l1.7-9.4v-0.1
	l1.5-8.2v-0.1l0.1-0.6l0.9-5v-0.1l0.8-4.6l0.3-1.5v-0.1c0.2-1.1,0.4-2.2,0.6-3.4c0.1-0.4,0.2-0.9,0.2-1.4c0.2-1,0.4-2,0.5-3v-0.1
	l0.2-1c0.3-1.4,0.5-2.8,0.8-4.2v-0.1c0-0.2,0.1-0.5,0.1-0.7l1.8-9.5c0.1-0.4,0.2-0.9,0.2-1.3c0.2-1.1,0.4-2.2,0.6-3.2v-0.1
	c0.1-0.5,0.2-0.9,0.3-1.4v-0.1c1.2-6.2,2.3-12.3,3.5-18.4v-0.2c0.3-1.5,0.6-3,0.8-4.5v-0.2l5.6-29.1c0.9-4.6,1.8-9.2,2.6-13.6
	l0.2-0.8c0.3-1.6,0.6-3.3,0.9-4.9l0.1-0.5l0.6-3.3l0.1-0.5l0.2-1.1c0.1-0.7,0.3-1.4,0.4-2.1c0-0.3,0.1-0.6,0.2-0.8l0.4-2.2
	c0-0.2,0.1-0.4,0.1-0.7s0.1-0.4,0.1-0.6l0.1-0.4c0.3-1.4,0.5-2.8,0.8-4.2l0.1-0.5c0.3-1.4,0.5-2.8,0.8-4.2v-0.2
	c0.1-0.3,0.1-0.6,0.2-0.9c0.2-0.8,0.3-1.6,0.5-2.4l0.2-1.3l0.2-1.1l0.2-1.3c0.1-0.4,0.2-0.8,0.2-1.2c0.2-0.8,0.3-1.7,0.5-2.5
	l0.2-1.1c0.2-1.3,0.5-2.6,0.7-3.9s0.5-2.6,0.7-3.8l0.3-1.5c0.1-0.6,0.2-1.3,0.3-1.9s0.2-1,0.3-1.6l0.2-1.3c0-0.2,0.1-0.4,0.1-0.6
	c0.1-0.5,0.2-1,0.3-1.6c0-0.3,0.1-0.6,0.2-0.9s0.1-0.6,0.2-1l0.3-1.5l0.3-1.8l0.3-1.7c0.2-1,0.3-1.9,0.5-2.8
	c0.1-0.6,0.2-1.1,0.3-1.7l0.2-1.1c0-0.2,0.1-0.4,0.1-0.6c0.1-0.5,0.2-1,0.2-1.5v-0.2c0.1-0.5,0.2-1,0.2-1.4s0.2-0.9,0.2-1.4
	c0-0.2,0-0.3,0.1-0.5c0.1-0.4,0.1-0.8,0.2-1.2s0.2-0.9,0.2-1.3s0.2-1.1,0.3-1.6l0.2-1.4c0.1-0.8,0.3-1.6,0.4-2.4v-0.2
	c0.1-0.5,0.2-1,0.2-1.5s0.1-0.9,0.2-1.4s0.2-1,0.2-1.4c0-0.3,0.1-0.6,0.1-0.8s0-0.3,0.1-0.5l0.2-1.4c0.1-0.4,0.1-0.9,0.2-1.3
	s0.1-0.9,0.2-1.3s0.1-0.9,0.2-1.3s0.1-0.9,0.2-1.3v-0.2c0-0.3,0.1-0.6,0.1-1l0.3-2.1v-0.2c-22.8,25.6-50.6,57.1-69.5,80.3
	c-34,41.7-44.7,55.3-80,108.7c25.3,11.4,70.6,44.4,101.1,71.9L916.8,1308.3L916.8,1308.3z"/>
<path fill="#282828" d="M960.9,1074.7v0.2V1074.7z M962.8,1063.2v0.2V1063.2z M964.7,1050.6v0.2V1050.6z M961.7,1070.2
	c-0.1,0.4-0.1,0.8-0.2,1.2C961.5,1071,961.6,1070.6,961.7,1070.2z M963.6,1058.1c0,0.3-0.1,0.6-0.1,0.8
	C963.5,1058.6,963.6,1058.3,963.6,1058.1z M962.2,1067.3c-0.1,0.5-0.2,1.1-0.3,1.6C962,1068.3,962.1,1067.8,962.2,1067.3z
	 M953.2,1117.4v0.2V1117.4z M954.3,1111.7l-0.2,1.1v-0.1C954.1,1112.4,954.2,1112,954.3,1111.7z M960.6,1076.4
	c0,0.2-0.1,0.4-0.1,0.6C960.5,1076.8,960.6,1076.6,960.6,1076.4z M951.5,1126.5l-0.1,0.4v-0.2L951.5,1126.5L951.5,1126.5z
	 M958.5,1088.6c0,0.3-0.1,0.6-0.2,0.9C958.4,1089.2,958.4,1088.9,958.5,1088.6z M958,1091.7l-0.2,1.3
	C957.8,1092.5,957.9,1092.1,958,1091.7z M955.2,1106.7c-0.2,0.8-0.3,1.6-0.5,2.5v-0.1L955.2,1106.7z M1158.2,1223.1
	c0.4,1.9,0.8,3.7,1.1,5.6C1158.9,1226.8,1158.6,1225,1158.2,1223.1z M1165.3,1262.5c0.3,2.1,0.7,4.2,1,6.3
	C1166,1266.7,1165.7,1264.6,1165.3,1262.5z M952.3,1122.3l0.1-0.5L952.3,1122.3z M948.1,1144.2l0.2-0.8L948.1,1144.2z M930.9,1235
	c0.2-1,0.4-2,0.5-3C931.2,1233,931,1234,930.9,1235z M934.6,1215.2c0.2-1.1,0.4-2.2,0.6-3.2C935,1213,934.8,1214.1,934.6,1215.2z
	 M1164.3,1256.2c0.2,1.4,0.5,2.9,0.7,4.3C1164.8,1259,1164.6,1257.6,1164.3,1256.2z M1162.1,1243.5c0.2,1.3,0.5,2.7,0.7,4
	C1162.6,1246.1,1162.4,1244.8,1162.1,1243.5z M951.3,1127.4c0,0.2-0.1,0.4-0.1,0.7C951.2,1127.9,951.3,1127.7,951.3,1127.4z
	 M1153.8,1203.3c1.5,6.4,2.9,12.8,4.2,19.2C1156.7,1216,1155.3,1209.6,1153.8,1203.3z M1159.6,1230.3l0.9,4.5
	C1160.2,1233.4,1159.9,1231.9,1159.6,1230.3z M1160.9,1237c0.3,1.4,0.5,2.8,0.8,4.1C1161.4,1239.8,1161.2,1238.4,1160.9,1237z
	 M1149.2,1184.2c0.5,1.9,1,3.8,1.4,5.7C1150.2,1188,1149.7,1186.1,1149.2,1184.2z M832,1564.8c0.1-0.2,0.2-0.5,0.3-0.8
	c-0.3,0.9-0.6,1.7-0.9,2.5c0.1-0.2,0.1-0.4,0.2-0.6C831.7,1565.5,831.8,1565.1,832,1564.8z M831.3,1566.5c-0.1,0.4-0.3,0.8-0.4,1.1
	l0.1-0.3C831.1,1567.1,831.2,1566.8,831.3,1566.5L831.3,1566.5z M829.2,1572.8l0.2-0.8L829.2,1572.8z M1150.8,1190.7
	c0.4,1.8,0.9,3.7,1.3,5.5C1151.7,1194.3,1151.3,1192.5,1150.8,1190.7z M830.3,1569.5l-0.3,0.9v-0.1
	C830.1,1570.1,830.2,1569.8,830.3,1569.5z M830.5,1569.1c0.1-0.4,0.3-0.8,0.4-1.2C830.7,1568.3,830.6,1568.7,830.5,1569.1z
	 M829.1,1573.1l-0.3,0.9L829.1,1573.1z M828.4,1575.6l0.2-0.7L828.4,1575.6z M950.2,1133.3l-0.2,1.1
	C950.1,1134,950.1,1133.6,950.2,1133.3z M829.9,1570.7l-0.4,1.3c0-0.1,0-0.2,0.1-0.2C829.7,1571.4,829.8,1571.1,829.9,1570.7
	L829.9,1570.7z M828.4,1575.6l-1,2.7L828.4,1575.6z M917.6,1304.9c-0.1,0.5-0.2,1.1-0.4,1.6C917.3,1305.9,917.4,1305.4,917.6,1304.9
	z M828.9,1574.1c-0.1,0.2-0.1,0.5-0.2,0.7v-0.1C828.7,1574.5,828.8,1574.3,828.9,1574.1z M832.9,1562.3l0.4-1
	c-0.3,0.9-0.6,1.8-0.9,2.6l0.3-0.8C832.7,1562.8,832.8,1562.5,832.9,1562.3L832.9,1562.3z M939.8,1187.3c-0.3,1.5-0.6,3-0.8,4.5
	v-0.1C939.3,1190.2,939.6,1188.8,939.8,1187.3z M919,1298.5c-0.1,0.4-0.2,0.7-0.2,1.1C918.8,1299.2,918.9,1298.9,919,1298.5z
	 M930.6,1236.4c-0.2,1.1-0.4,2.2-0.6,3.4c0.2-1,0.4-2.1,0.6-3.2V1236.4L930.6,1236.4z M929.7,1241.3l-0.8,4.6l0.2-1.1
	C929.3,1243.6,929.5,1242.5,929.7,1241.3z M933.5,1221.1l0.8-4.5l-1.8,9.5v-0.2C932.9,1224.2,933.2,1222.7,933.5,1221.1z
	 M928.9,1246l-0.9,5l0.1-0.4L928.9,1246L928.9,1246z M932.4,1226.8c-0.2,1.4-0.5,2.8-0.8,4.2l0.1-0.6
	C932,1229.2,932.2,1228,932.4,1226.8z M936.3,1205.9c0.2-1.2,0.5-2.5,0.7-3.7c0-0.3,0.1-0.6,0.2-0.8l1.8-9.3
	c-1.2,6.1-2.3,12.2-3.5,18.4l0.6-3.3C936.2,1206.7,936.2,1206.3,936.3,1205.9L936.3,1205.9z M920.1,1293.6c0,0.2-0.1,0.3-0.1,0.5
	C920,1293.9,920,1293.8,920.1,1293.6z M925.5,1264.6c0.2-1,0.3-2,0.5-2.9l0.3-1.7l-1.7,9.4c0.2-1,0.4-2.1,0.5-3.1
	C925.3,1265.7,925.4,1265.2,925.5,1264.6L925.5,1264.6z M924.5,1270.4c-0.3,1.7-0.6,3.5-0.9,5.2l0.8-4.6
	C924.4,1270.8,924.5,1270.6,924.5,1270.4L924.5,1270.4z M940.7,1182.6c0-0.2,0.1-0.3,0.1-0.5c1.6-8.2,3.1-16.3,4.7-24.2l-5.6,29.1
	v-0.1L940.7,1182.6z M922.7,1280.7c0,0.2-0.1,0.4-0.1,0.6C922.5,1281.1,922.6,1280.9,922.7,1280.7z M927.2,1255.2l0.6-3.5l-1.5,8.2
	c0.2-1,0.4-2.1,0.6-3.1C927,1256.3,927.1,1255.8,927.2,1255.2L927.2,1255.2z M959.6,1345.2l-0.7-0.7L959.6,1345.2z"/>
<path fill="none" d="M815.7,1236.3c25.3,11.4,70.6,44.4,101.1,71.9l0.4-1.8c0.1-0.5,0.2-1.1,0.4-1.6c0.4-1.8,0.8-3.5,1.2-5.3
	c0.1-0.4,0.2-0.7,0.2-1.1c0.3-1.5,0.6-2.9,1-4.4c0-0.2,0.1-0.3,0.1-0.5c0.9-4.2,1.7-8.3,2.5-12.3c0-0.2,0.1-0.4,0.1-0.6l0.9-5.1
	l0.8-4.6c0-0.2,0.1-0.4,0.1-0.6s0.1-0.6,0.2-1c0.2-1,0.4-2.1,0.5-3.1c0.1-0.6,0.2-1.2,0.3-1.7c0.2-1,0.3-2,0.5-2.9l0.3-1.7v-0.1
	c0.2-1,0.4-2.1,0.6-3.1c0.1-0.5,0.2-1.1,0.3-1.6l0.6-3.5c0-0.2,0.1-0.5,0.1-0.8l0.1-0.4l0.8-4.6v-0.1l0.2-1.1
	c0.2-1.1,0.4-2.3,0.6-3.4c0.1-0.5,0.2-1,0.3-1.6c0.2-1,0.4-2.1,0.6-3.2v-0.2c0.1-0.5,0.2-0.9,0.3-1.4c0.2-1,0.4-2,0.5-3
	c0.1-0.3,0.1-0.7,0.2-1l0.1-0.6c0.2-1.2,0.4-2.4,0.7-3.6l0.2-0.8v-0.2c0.3-1.6,0.6-3.2,0.9-4.7l0.8-4.5c0.1-0.4,0.2-0.9,0.3-1.4
	c0.2-1.1,0.4-2.2,0.6-3.2l0.3-1.5l0.6-3.3c0.1-0.4,0.2-0.8,0.2-1.2c0.2-1.2,0.5-2.5,0.7-3.7c0-0.3,0.1-0.6,0.2-0.8l1.8-9.3v-0.4
	c0.3-1.4,0.5-2.9,0.8-4.3v-0.4l0.8-4.3c0-0.2,0.1-0.3,0.1-0.5c1.6-8.2,3.1-16.3,4.7-24.2c0.9-4.6,1.8-9.2,2.6-13.6l0.2-0.8l1.7-9.1
	c0.1-0.3,0.1-0.7,0.2-1c0.3-1.7,0.7-3.5,1-5.2c0-0.2,0.1-0.4,0.1-0.7l0.1-0.6v-0.3c0.3-1.4,0.5-2.8,0.8-4.2l0.1-0.5
	c0.3-1.4,0.5-2.8,0.8-4.2v-0.2c0.3-1.5,0.6-3.1,0.9-4.6v-0.1c0.1-0.3,0.1-0.7,0.2-1.1c0.2-0.8,0.3-1.7,0.5-2.5v-0.1l0.5-2.4
	c0.3-1.7,0.6-3.4,0.9-5c0.5-3,1.1-5.9,1.6-8.8c0.1-0.4,0.2-0.8,0.2-1.3c0.1-0.7,0.2-1.4,0.4-2.2c0.1-0.3,0.1-0.6,0.2-0.9
	c0.7-4,1.4-7.8,2-11.6c0-0.2,0.1-0.4,0.1-0.6c0.1-0.5,0.2-1,0.2-1.5v-0.2l0.6-3.3c0.1-0.4,0.1-0.8,0.2-1.2c0.1-0.4,0.2-0.9,0.2-1.3
	c0.1-0.5,0.2-1,0.3-1.6l0.6-3.9v-0.2c0.2-1.4,0.5-2.9,0.7-4.3c0-0.3,0.1-0.6,0.1-0.8c0.3-2,0.6-3.9,0.9-5.8c0.1-0.4,0.1-0.9,0.2-1.3
	v-0.2c0.2-1.1,0.3-2.2,0.5-3.3c-22.8,25.6-50.6,57.1-69.5,80.3C861.7,1169.4,851,1183,815.7,1236.3L815.7,1236.3z M1144.1,1165
	l-1.5-3L1144.1,1165z"/>
<path fill="#282828" d="M753.5,1425l1.6-0.8L753.5,1425z M751,1426.4l1.6-0.9L751,1426.4z M748.3,1427.9l1.7-1
	C749.4,1427.3,748.9,1427.6,748.3,1427.9z M745.6,1429.5l1.8-1L745.6,1429.5z M756.1,1423.7l1.5-0.8L756.1,1423.7z M758.6,1422.4
	l1.5-0.7L758.6,1422.4z M742.8,1431.1l2-1.2L742.8,1431.1z M1148.2,1165.2c0.5,0.6,1,1.3,1.5,1.9l0.5,0.7c0.9,1.2,1.9,2.3,2.8,3.5
	c-2-2.4-3.9-4.8-5.8-7.2l0.1,0.2L1148.2,1165.2z M1146.1,1162.4c0.3,0.4,0.7,0.8,1,1.2l-2.2-2.8c0.2,0.2,0.3,0.4,0.5,0.6
	S1145.8,1162.1,1146.1,1162.4L1146.1,1162.4z M1147,1163.7l0.3,0.4L1147,1163.7z M761,1421.2l1.4-0.7L761,1421.2z M1143.9,1159.7
	l0.3,0.4c-0.8-1-1.6-2.1-2.4-3.1c0.5,0.6,0.9,1.2,1.4,1.8L1143.9,1159.7L1143.9,1159.7z M739.6,1433.1c0.8-0.5,1.7-1.1,2.6-1.6
	C741.3,1432,740.5,1432.5,739.6,1433.1z M1144.3,1160.1l0.6,0.8L1144.3,1160.1z M769.7,1417l1.2-0.6L769.7,1417z M765.5,1418.9
	l1.3-0.6L765.5,1418.9z M767.7,1417.9l1.2-0.6L767.7,1417.9z M771.5,1416.1l1.2-0.6L771.5,1416.1z M773.2,1415.4l1.5-0.7
	L773.2,1415.4z M763.3,1420l1.3-0.7L763.3,1420z"/>
<path fill="#494949" d="M742.2,1431.5l0.6-0.4L742.2,1431.5z M770.8,1416.4l0.7-0.3L770.8,1416.4z M760,1421.6l1-0.5L760,1421.6z
	 M757.6,1422.9l1-0.5L757.6,1422.9z M772.7,1415.6l0.5-0.2L772.7,1415.6z M762.4,1420.5l0.9-0.5L762.4,1420.5z M766.8,1418.3
	l0.8-0.4L766.8,1418.3z M755.1,1424.2l1-0.5L755.1,1424.2z M752.6,1425.5l1-0.5L752.6,1425.5z M750,1426.9l1-0.5L750,1426.9z
	 M764.7,1419.3l0.9-0.4L764.7,1419.3z M768.9,1417.3l0.8-0.3L768.9,1417.3z M744.8,1429.9l0.8-0.5L744.8,1429.9z M747.4,1428.4
	l0.9-0.5L747.4,1428.4z M811.7,1450c17,11,49,37.3,55.7,30.3s-17.3-23.7-30-31.3c-11.5-7-42.8-24-64.2-35.3l1.6,0.9l-1.5,0.7
	l-0.5,0.2l-1.2,0.6l-0.7,0.3l-1.2,0.6l-0.8,0.3l-1.2,0.6l-0.8,0.4l-1.3,0.6l-0.9,0.4l-1.3,0.7l-0.9,0.5l-1.4,0.7l-1,0.5l-1.5,0.7
	l-1,0.5l-1.5,0.8l-1,0.5l-1.6,0.8l-1,0.5l-1.6,0.9l-1,0.5l-1.7,1l-0.9,0.5l-1.8,1l-0.8,0.5l-2,1.2l-0.6,0.4
	c-0.9,0.5-1.7,1.1-2.6,1.6l-2.6,1.7C775.6,1421.7,795.7,1439.7,811.7,1450L811.7,1450z"/>
<path opacity="0.3" fill="#091426" enable-background="new    " d="M1144.1,1165l-1.5-3c25.1,119,29.9,264,19.4,336
	c-5.9,40.4-11.8,73.5-16.6,84.4c-14.6-1.7-24.8-17.7-29.1-32.5c-9.4-32.1-6.1-66.4-4.9-99.8c1.4-38.4,0.1-76.8-4-115
	c-2.1-19.1-4.8-38.1-8.2-57c-2.2-11.9-3.1-35.4-9.7-47.6c-0.2-1.2-0.3-2.4-0.4-3.5c-8-63-28-158-43-215c9,46,18,123,25,248
	s-15.9,288.1-22.9,334.1c-1.1,7.3-2.2,13.3-3.4,18.5c4.3-0.4,7.9-0.8,10.9-1.3c2.2,0.3,4.3,0.4,6.5,0.2c0.7,0,1.4-0.1,2.2-0.2
	l1.8-0.2h0.4c1.6-0.2,3.2-0.5,4.9-0.8l1.2-0.3l1.1-0.2l1.3-0.3l1.2-0.3l1.2-0.3l2.4-0.6l3-0.8c10.9-3.1,23.2-7.5,34.5-12l2-0.8
	l1.1-0.4l0.6-0.3l0.2-0.1l0.8-0.3l0.7-0.3l0.4-0.2l1-0.4l0.9-0.4l1.1-0.4l0.8-0.3l0.9-0.4l0.4-0.2l0.6-0.2l1.1-0.4l0.7-0.3l1-0.4
	l0.7-0.3l0.1-0.1l1.3-0.6h0.1l0.3-0.2l1.1-0.5l0.5-0.2l1-0.4l0.6-0.2l0.1-0.1l1.1-0.5l0.3-0.1l0.2-0.1l1-0.4
	c0.2-0.1,0.3-0.1,0.5-0.2l1.1-0.5l0.4-0.2l1-0.4l0.4-0.2h0.1l0.9-0.4c7.5-3.3,12.3-5.5,12.3-5.5s29.1-178.7,9.7-309.7
	c-0.3-2.1-0.6-4.2-1-6.3c-0.1-0.7-0.2-1.3-0.3-2c-0.2-1.4-0.5-2.9-0.7-4.3c-0.1-0.8-0.3-1.6-0.4-2.3c-0.2-1.3-0.4-2.7-0.7-4
	l-0.4-2.4c-0.2-1.3-0.5-2.7-0.7-4l-0.4-2.3c-0.3-1.4-0.5-2.8-0.8-4.1c-0.1-0.7-0.3-1.4-0.4-2.1l-0.9-4.5l-0.3-1.7
	c-0.4-1.9-0.8-3.7-1.1-5.6c-0.1-0.2-0.1-0.4-0.1-0.6c-1.3-6.4-2.7-12.8-4.2-19.2l-0.2-0.7c-0.4-1.9-0.9-3.8-1.3-5.6
	c-0.1-0.3-0.1-0.6-0.2-0.8c-0.4-1.8-0.9-3.7-1.3-5.5c-0.1-0.3-0.1-0.5-0.2-0.8c-0.5-1.9-0.9-3.8-1.4-5.7l-0.1-0.5
	c-1.6-6.1-3.2-12.2-4.8-18.2l-0.1-0.4L1144.1,1165L1144.1,1165z M1457.8,1126.6l-6.4-2.6l-0.3-0.1c-4.5-1.9-15.2,20.4-16.8,23.8
	c-2.5,5.3-4.9,10.3-7.3,15.4c-2.5,5.3-5.3,10.5-8.4,15.5c-3.9,6.1-8,12.3-13.8,16.6c-7.2,5.3-14.6,4.9-22.9,3.6
	c-9.5-1.5-13.5-1.1-21.6,4.3c-6.4,4.3-19,10.4-26.8,11.8c-11.1,2.1-22.5,1.7-33.8,1.3c-14.9-0.5-30.1-1.1-44-6.2
	c-10.3-3.8-11.6-3.4-20.7-9.6c-20-13.4-36.9-33.1-53.3-50.7c-29.3-31.2-64.7-100-101.3-142c14.8,32,49.1,105.9,61.5,149.3
	c40.8,53.6,119.9,134,196.3,133.2c1.4,0,2.8-0.1,4.2-0.1c0.5,0,0.9-0.1,1.4-0.1c0.9,0,1.9-0.1,2.8-0.2c0.6,0,1.1-0.1,1.6-0.2
	c0.8-0.1,1.7-0.2,2.5-0.3l1.7-0.2l2.4-0.3l1.7-0.3c0.8-0.1,1.6-0.3,2.3-0.4l1.7-0.3c0.8-0.2,1.5-0.3,2.3-0.5l1.7-0.4l2.3-0.6
	l1.7-0.4l2.3-0.7l1.6-0.5c0.8-0.2,1.6-0.5,2.4-0.8c0.5-0.2,1-0.3,1.5-0.5c0.8-0.3,1.7-0.6,2.5-0.9l1.3-0.5c0.9-0.3,1.8-0.7,2.7-1.1
	c0.3-0.1,0.7-0.3,1-0.4c1.1-0.4,2.2-0.9,3.3-1.4l0.4-0.2c3.8-1.7,7.5-3.6,11.2-5.6l0.2-0.1c1.2-0.6,2.3-1.3,3.4-2l0.4-0.2
	c1.1-0.6,2.1-1.3,3.1-1.9l0.5-0.3c1-0.7,2-1.3,3-2l0.5-0.3l3-2.1l0.4-0.3c1-0.7,2.1-1.4,3.1-2.2l0.3-0.2c1.1-0.8,2.1-1.6,3.2-2.4
	l0.1-0.1c12.2-9.5,23.5-20.1,33.7-31.7c25.3-28.6,43.5-60.3,53.3-79.9C1502.6,1145.2,1485.3,1137.9,1457.8,1126.6L1457.8,1126.6z
	 M1154.5,912.5l-1.8,0.9L1154.5,912.5z M1149.5,914.8l-1.8,0.8L1149.5,914.8z M1048.5,922c-39,2-73,31-113,31
	c-88.7,0-163.9-28.3-205.4-62.3c-0.4-0.2-0.8-0.5-1.1-0.7c-46-31-50.3-58.2-58-72c-11.4-20.4,0.5-42.1-12.9-50.4
	c-31.5-19.5-94-198.5-27-307.5c8.4-13.6,29.2-26,40.9-37.5c9-8.9,8.3-17.2,18.9-24.8c85.3-61,215.8-81.9,286.7-57.8
	c-65-22-82.6-27.1-69.6-38.1c12.3-10.4,133.7-3.8,162.2,14c-30.4-22.7-25.9-41.2-147.5-46.1H917c-139,2-299.2,118.9-327,173
	c-37,72-52,126-19,257c25.2,100.2,95.9,212,246,251c46.2,12,101.8,14.1,163,9c57.8-4.8,114.3-19.7,166.9-44
	C1097.2,930.3,1071.7,920.8,1048.5,922z M1173.4,902.7l0.6-0.3L1173.4,902.7z M1159.3,910.1l-1.5,0.8L1159.3,910.1z M1170,904.5
	l-1.2,0.6L1170,904.5z M1164,907.7l-0.2,0.1L1164,907.7z M1161.7,1241.1l0.4,2.3L1161.7,1241.1z"/>
<path opacity="0.3" fill="#091426" enable-background="new    " d="M1158,1222.5c0,0.2,0.1,0.4,0.1,0.6
	C1158.1,1222.9,1158.1,1222.7,1158,1222.5z M1159.3,1228.7l0.3,1.7L1159.3,1228.7z M1160.5,1234.9c0.1,0.7,0.3,1.4,0.4,2.1
	C1160.8,1236.3,1160.7,1235.6,1160.5,1234.9z M1162.8,1247.4l0.4,2.4L1162.8,1247.4z M1163.9,1253.8c0.1,0.8,0.3,1.6,0.4,2.3
	C1164.2,1255.4,1164.1,1254.6,1163.9,1253.8z M1153.7,1202.6l0.2,0.7L1153.7,1202.6z M1165,1260.5c0.1,0.7,0.2,1.3,0.3,2
	C1165.2,1261.8,1165.1,1261.1,1165,1260.5z M1149.1,1183.7l0.1,0.5L1149.1,1183.7z M1150.6,1189.9c0.1,0.3,0.1,0.5,0.2,0.8
	C1150.7,1190.4,1150.7,1190.1,1150.6,1189.9z M934.5,1215.2c-0.1,0.4-0.2,0.9-0.2,1.3C934.4,1216.1,934.5,1215.6,934.5,1215.2z
	 M932.4,1226.7l0.2-0.7C932.5,1226.3,932.4,1226.5,932.4,1226.7z M964.5,1052.2c0.1-0.4,0.1-0.9,0.2-1.3
	C964.6,1051.3,964.6,1051.8,964.5,1052.2z M931.4,1232c0.1-0.3,0.1-0.6,0.2-0.9L931.4,1232z M935.4,1210.5c-0.1,0.5-0.2,0.9-0.3,1.4
	v0.1C935.3,1211.4,935.4,1210.9,935.4,1210.5z M922.7,1280.7l0.9-5.1L922.7,1280.7z M922.4,1282.1c-0.3,1.6-0.6,3.1-0.9,4.7
	l-0.1,0.6c-0.3,1.7-0.7,3.5-1.1,5.2c-0.1,0.3-0.2,0.7-0.2,1c0.9-4.2,1.7-8.3,2.5-12.3L922.4,1282.1L922.4,1282.1z M963.3,1060.3
	c-0.1,0.4-0.2,0.9-0.2,1.4s-0.2,1-0.2,1.5c0.2-1.4,0.5-2.9,0.7-4.3C963.4,1059.4,963.4,1059.8,963.3,1060.3z M958.1,1091.1
	c0,0.2-0.1,0.4-0.1,0.6c0.1-0.7,0.2-1.4,0.4-2.2C958.2,1090,958.2,1090.5,958.1,1091.1L958.1,1091.1z M938.9,1192v-0.3V1192z
	 M957.4,1094.5c-0.1,0.6-0.2,1.3-0.3,1.9l-0.3,1.5c-0.2,1.3-0.5,2.5-0.7,3.8c0.5-3,1.1-5.9,1.6-8.8
	C957.6,1093.5,957.5,1094,957.4,1094.5z M928.8,1246L928.8,1246L928.8,1246z M927.8,1251.6L927.8,1251.6c0-0.1,0.1-0.4,0.1-0.7
	L927.8,1251.6L927.8,1251.6z M930.9,1235c-0.1,0.5-0.2,0.9-0.2,1.4C930.7,1235.9,930.8,1235.4,930.9,1235z M965.2,1047.6l-0.3,2.1
	c0,0.3-0.1,0.6-0.1,1c0.2-1.1,0.3-2.2,0.5-3.3S965.2,1047.5,965.2,1047.6L965.2,1047.6z M930,1239.8l-0.3,1.5L930,1239.8z
	 M924.7,1269.4c-0.1,0.3-0.1,0.6-0.2,0.9C924.5,1270.1,924.6,1269.7,924.7,1269.4z M919,1298.5c0.3-1.5,0.6-2.9,1-4.4
	C919.7,1295.6,919.3,1297,919,1298.5z M964.3,1053.5c-0.1,0.4-0.1,0.9-0.2,1.3s-0.1,0.9-0.2,1.3l-0.2,1.4c0,0.2-0.1,0.3-0.1,0.5
	c0.3-2,0.6-3.9,0.9-5.8C964.4,1052.6,964.4,1053.1,964.3,1053.5L964.3,1053.5z M952.4,1121.8c0.3-1.4,0.5-2.8,0.8-4.2
	C952.9,1119,952.6,1120.3,952.4,1121.8z M951.5,1126.5c0.3-1.4,0.5-2.8,0.8-4.2C952,1123.7,951.7,1125.1,951.5,1126.5z
	 M953.8,1114.1c-0.2,0.8-0.3,1.6-0.5,2.4c0,0.3-0.1,0.6-0.2,0.9c0.3-1.5,0.6-3.1,0.9-4.6L953.8,1114.1L953.8,1114.1z M960.3,1078.1
	c-0.1,0.6-0.2,1.1-0.3,1.7c-0.2,0.9-0.3,1.9-0.5,2.8l-0.3,1.7l-0.3,1.8l-0.3,1.5c0,0.3-0.1,0.6-0.2,1c0.7-4,1.4-7.8,2-11.6
	L960.3,1078.1L960.3,1078.1z M960.6,1076.4c0.1-0.5,0.2-1,0.2-1.5C960.8,1075.4,960.7,1075.9,960.6,1076.4z M955.4,1105.6l-0.2,1.1
	c0.3-1.7,0.6-3.4,0.9-5C955.9,1103,955.6,1104.3,955.4,1105.6z M917.2,1306.5c-0.1,0.6-0.3,1.2-0.4,1.8L917.2,1306.5z M962.4,1065.8
	l-0.2,1.4l0.6-3.9C962.7,1064.2,962.5,1065,962.4,1065.8L962.4,1065.8z M954.5,1110.4l-0.2,1.3c0.2-0.8,0.3-1.7,0.5-2.5
	L954.5,1110.4z M961.7,1070.2c0.1-0.4,0.2-0.9,0.2-1.3C961.8,1069.3,961.8,1069.8,961.7,1070.2z M945.5,1157.9
	c0.9-4.6,1.8-9.2,2.6-13.6C947.2,1148.8,946.4,1153.3,945.5,1157.9z M939.8,1187.3v-0.3V1187.3z M949.9,1134.8l-0.6,3.3l-0.1,0.5
	c-0.3,1.6-0.6,3.2-0.9,4.9l1.7-9.1L949.9,1134.8L949.9,1134.8z M950.7,1130.3c-0.1,0.3-0.1,0.6-0.2,0.8c-0.1,0.7-0.3,1.4-0.4,2.1
	c0.3-1.7,0.7-3.5,1-5.2L950.7,1130.3L950.7,1130.3z M917.6,1304.9c0.4-1.8,0.8-3.5,1.2-5.3C918.4,1301.3,918,1303.1,917.6,1304.9z
	 M951.3,1127.4l0.1-0.6C951.4,1127,951.3,1127.2,951.3,1127.4z M961.4,1071.9c-0.1,0.5-0.2,0.9-0.2,1.4s-0.2,1-0.2,1.4l0.6-3.3
	C961.4,1071.6,961.4,1071.7,961.4,1071.9L961.4,1071.9z M828.6,1574.9L828.6,1574.9L828.6,1574.9z M830.9,1567.9
	c0-0.1,0-0.2,0.1-0.2C830.9,1567.7,830.9,1567.8,830.9,1567.9z M833.4,1560.8c-0.1,0.2-0.1,0.3-0.2,0.5
	C833.3,1561,833.3,1560.9,833.4,1560.8z M830.5,1569.1l-0.2,0.4L830.5,1569.1z M829.2,1572.8l-0.1,0.3L829.2,1572.8z M829.9,1570.7
	c0-0.1,0.1-0.2,0.1-0.3C830,1570.5,830,1570.6,829.9,1570.7z"/>
<path opacity="0.3" fill="#091426" enable-background="new    " d="M994.3,1025c0,0,0-0.1-0.7-9.4c-7.1,8-17.2,19.2-28.4,31.8
	c-0.1,1.1-0.3,2.2-0.5,3.3v0.2c-0.1,0.4-0.1,0.9-0.2,1.3c-0.3,1.9-0.6,3.8-0.9,5.8c0,0.3-0.1,0.6-0.1,0.8c-0.2,1.4-0.4,2.8-0.7,4.3
	v0.2l-0.6,3.9c-0.1,0.5-0.2,1-0.3,1.6c-0.1,0.4-0.2,0.9-0.2,1.3c-0.1,0.4-0.1,0.8-0.2,1.2l-0.6,3.3v0.2c-0.1,0.5-0.2,1-0.2,1.5
	c0,0.2-0.1,0.4-0.1,0.6c-0.6,3.7-1.3,7.6-2,11.6c0,0.3-0.1,0.6-0.2,0.9c-0.1,0.7-0.3,1.4-0.4,2.2c-0.1,0.4-0.2,0.8-0.2,1.3
	c-0.5,2.9-1,5.8-1.6,8.8c-0.3,1.7-0.6,3.3-0.9,5l-0.5,2.4v0.1c-0.2,0.8-0.3,1.6-0.5,2.5c-0.1,0.4-0.1,0.7-0.2,1.1v0.1
	c-0.3,1.5-0.6,3-0.9,4.6v0.2c-0.3,1.4-0.5,2.8-0.8,4.2l-0.1,0.5c-0.3,1.4-0.5,2.8-0.8,4.2v0.3l-0.1,0.6c0,0.2-0.1,0.4-0.1,0.7
	c-0.3,1.7-0.7,3.4-1,5.2c-0.1,0.3-0.1,0.7-0.2,1l-1.7,9.1l-0.2,0.8c-0.9,4.5-1.7,9-2.6,13.6l-4.7,24.2c0,0.2-0.1,0.3-0.1,0.5
	l-0.8,4.3v0.4c-0.3,1.4-0.5,2.9-0.8,4.3v0.4l-1.8,9.3c0,0.3-0.1,0.6-0.2,0.8c-0.2,1.2-0.5,2.5-0.7,3.7c-0.1,0.4-0.2,0.8-0.2,1.2
	l-0.6,3.3l-0.3,1.5c-0.2,1.1-0.4,2.2-0.6,3.2c-0.1,0.5-0.2,0.9-0.3,1.4l-0.8,4.5c-0.3,1.6-0.6,3.2-0.9,4.7v0.2l-0.2,0.8
	c-0.2,1.2-0.4,2.4-0.7,3.6l-0.1,0.6c-0.1,0.3-0.1,0.7-0.2,1c-0.2,1-0.4,2-0.5,3c-0.1,0.5-0.2,0.9-0.3,1.4v0.2
	c-0.2,1.1-0.4,2.1-0.6,3.2c-0.1,0.5-0.2,1-0.3,1.6c-0.2,1.1-0.4,2.3-0.6,3.4l-0.2,1.1v0.1l-0.8,4.6l-0.1,0.4c0,0.2-0.1,0.5-0.1,0.8
	l-0.6,3.5c-0.1,0.5-0.2,1.1-0.3,1.6c-0.2,1-0.4,2-0.6,3.1v0.1l-0.3,1.7c-0.2,1-0.3,2-0.5,2.9c-0.1,0.6-0.2,1.2-0.3,1.7
	c-0.2,1-0.4,2.1-0.5,3.1c0,0.3-0.1,0.6-0.2,1s-0.1,0.4-0.1,0.6l-0.8,4.6l-0.9,5.1c0,0.2-0.1,0.4-0.1,0.6c-0.8,4-1.6,8.1-2.5,12.3
	c0,0.2-0.1,0.3-0.1,0.5c-0.3,1.5-0.6,2.9-1,4.4c-0.1,0.4-0.2,0.7-0.2,1.1c-0.4,1.7-0.8,3.5-1.2,5.3c-0.1,0.5-0.2,1-0.4,1.6l-0.4,1.8
	c5.8,5.2,11,10.2,15.5,14.9c6.5,3.9,15.4,10.7,24.7,19.5c0.6,0.6,1.3,1.2,1.9,1.8l0.7,0.7c3.2,3.2,6.5,6.6,9.8,10.2
	C974.9,1296.7,994.9,1078.5,994.3,1025L994.3,1025z"/>
<path fill="none" d="M1144.1,1165l-1.5-3L1144.1,1165z"/>
<path opacity="0.3" fill="#091426" enable-background="new    " d="M827.5,1578.2c1.5,1.2,3,2.3,4.5,3.4
	c10.7,7.4,21.6,10.9,35.1,12.7c12.4,1.5,24.9,2.3,37.4,2.4h1.6c1.2,1.6,2.7,3,4.5,4c6.5,4,18,6.6,32.5,8.5
	c-1.7-4.6-4.5-13.5-3.5-28.9c0.1-1.9-0.4-4.2-0.5-7c9.6-3.4,25.6-8.8,32.4-16.7c20.7-24.1,32.2-62.7,27.1-90.2
	c3.2-6.6,5.4-13.6,6.5-20.9c4-28.2-9.2-56.1-26.2-78.5c1.1,5.6,2,11.2,2.4,16.9c4.2,50.9-25.3,102.3-70.2,126.6
	s-102.7,21.2-146.2-5.6c-17.4-10.7-33.1-27-33.7-48.5c-6.4,11.4-7.9,23.6-8.6,36h1.1l0.8-0.1l0.3-0.1l0.7-0.2l0.4-0.1
	c0.2-0.1,0.5-0.1,0.7-0.2l0.5-0.2l0.6-0.3l0.6-0.3c0.2-0.1,0.4-0.2,0.5-0.3s0.5-0.3,0.7-0.5l0.5-0.3l1.2-0.9
	c5.2,8.6,11.3,16.6,18,24.1c2.8,3.1,5.7,6.1,8.7,8.9c1,0.9,2,1.9,3,2.8c9.9,8.9,20.9,16.4,32.8,22.4c2.3,1.2,4.7,2.3,7,3.3
	c10.4,4.6,21.3,8,32.5,10.1c-0.1,0.2-0.1,0.3-0.2,0.5l-0.4,1c-0.1,0.3-0.2,0.5-0.3,0.8l-0.3,0.8v0.1c-0.1,0.2-0.2,0.5-0.3,0.8
	s-0.3,0.8-0.4,1.1c-0.1,0.2-0.1,0.4-0.2,0.6v0.1c-0.1,0.3-0.2,0.6-0.3,0.8l-0.1,0.3c0,0.1-0.1,0.2-0.1,0.2c-0.2,0.4-0.3,0.8-0.4,1.2
	l-0.2,0.4c-0.1,0.3-0.2,0.6-0.3,0.8v0.1c0,0.1-0.1,0.2-0.1,0.3c-0.1,0.3-0.2,0.7-0.3,1c0,0.1,0,0.2-0.1,0.2l-0.2,0.8l-0.1,0.3
	l-0.3,0.8v0.1c-0.1,0.2-0.1,0.4-0.2,0.7v0.2l-0.2,0.7L827.5,1578.2L827.5,1578.2z M774.7,1414.7l-1.4,0.6L774.7,1414.7z"/>
<path opacity="0.3" fill="#091426" enable-background="new    " d="M868.8,1446.2c-6.6-10.3-17.6-16.9-28.2-23.2l-49-28.9
	c-27-15.9-54.9-32.6-72.9-58.3s-34.2-68.7-14.6-93.2c-10.1,6-19.4,8.7-23.8,15.9c-1.3,2.3-4.3,3.1-6.5,1.7c-1.1-0.7-1.9-1.7-2.3-3
	c-1.1-4.6-0.5-9,0.8-15.2c2.7-13.6,14.7-31.2,23-42.2c32.4-42.5,54.2-51.5,97.5-85.4c14.5-11.3,55.4-33.9,67.3-47.9
	c-63,40-162.7,101.7-193.1,147c-39.8,59.2,1,111.7,35.9,147.6c20.9,21.5,48.8,40.2,71.6,53.7l-1.6-0.9
	c21.3,11.3,52.6,28.3,64.2,35.3c12.7,7.7,36.7,24.3,30,31.3c-1.2,1.2-3.1,1.4-5.6,0.9C876.3,1486.3,878.2,1460.8,868.8,1446.2
	L868.8,1446.2z M762,1420.7l0.3-0.1L762,1420.7z M764.3,1419.5l-0.7,0.3L764.3,1419.5z M771,1416.4l-0.8,0.4L771,1416.4z
	 M772.8,1415.6l-1,0.4L772.8,1415.6z M766,1418.7l-0.3,0.2L766,1418.7z M769.2,1417.2l-0.5,0.2L769.2,1417.2z"/>
<path opacity="0.3" fill="#091426" enable-background="new    " d="M809,1232c2.8,1.2,5.2,2.3,7.5,3.1c34.7-52.3,45.5-66,79.2-107.4
	c22.8-28,58.5-68,82.8-95.1c15.9-16.2,15.9-18.5,21.6-32.3c-44.5,43.7-90.5,87.4-131,134.8c-29.5,34.4-65.8,71.3-107,90
	C774.6,1223,797.3,1227,809,1232z"/>
<path opacity="0.3" fill="#091426" enable-background="new    " d="M980.8,974.7c-18.7,12.2-43.3,37.5-75.7,62.1
	c-12.4,9.4-36.4,24.4-64.8,42.4c1.1-0.2,2.2-0.4,3.2-0.7c26.8-6.2,51.8-18.3,73.4-35.3c14-11.1,26.4-24.2,41.1-34.5
	s32.4-17.7,50.1-15.3c10.9,1.6,21.8,2.5,32.8,2.7c7.9,0,15.3-4,22.9-5.5c2.9,3,6,5.8,8.4,8.5c12.3,13.2,23.6,27.3,35.1,41.2
	c22.5,27,46.6,54.3,78.9,69.6c15.7,7.4,32.4,11.6,49.6,14.2c-11.5-8.1-24.3-17.5-38.6-28c-66.7-48.9-111.3-112.5-137.8-130.3
	c-0.4,0.4-0.8,0.9-1.1,1.3c-0.3-0.4-0.6-0.8-0.9-1.1c-8.1-9.4-3.1-15.3,3.5-19.4c-23.1,5.9-46.6,10-70.3,12.5
	C994.5,962.4,987.4,968.6,980.8,974.7L980.8,974.7z"/>
<path opacity="4.000000e-02" fill="#FFFFFF" enable-background="new    " d="M653.2,843.2c-6.4-7.3-12.5-15-18.2-23
	c-2.8,0.5-5.7,1.2-8.5,1.9c9.3,13.2,19.6,25.6,30.7,37.3c2.6-1.2,5.3-2.2,7.9-3.3C661,851.9,657.1,847.6,653.2,843.2z M1295.5,776.4
	c-1.7,7.9-4.4,15.6-8,22.8c3.7-7.2,6.5-14.9,8.2-22.8H1295.5z M1108.5,923.4c-41.6,15.3-85,24.9-129.1,28.6
	c-20.5,1.7-40.2,2.6-58.5,2.6c-38.5,0-72.8-3.8-101.8-11.3c-55.4-14.4-103-39.7-141.8-75.5c-2.6,1.2-5.2,2.5-7.7,3.8
	c37.3,34.9,85.6,63.3,147.5,79.4c30.8,8,65.8,11.6,103.8,11.6c19,0,38.8-0.9,59.2-2.6c57.8-4.8,114.3-19.7,167-44
	C1134.4,919.7,1121.5,922.2,1108.5,923.4L1108.5,923.4z M616.4,807c2.9-0.5,5.8-1,8.6-1.4c-21.1-33.1-36.8-69.4-46.2-107.5
	c-15.8-62.6-20.9-108.2-16.6-147.8c4.1-37.6,16.9-68.6,34.9-103.6c14-27.3,62.8-69.5,118.8-102.8c40.5-24.1,120.5-64.7,201.2-65.8
	c3.1,0,6.2-0.1,9.2-0.1c60.3,0,115.4,8.6,163.7,25.7c38.8,13.7,72.9,32.8,98.7,55.4c22.2,19.4,45.2,40.5,61.8,66.9
	c17.9,28.4,26.6,59.7,27.5,98.3c1,45.1-3.9,85.5-8.7,115.8c-1.3,22.1-2.5,41.5-1.8,55.1c0.1,1.7,0.8,3.3,2.1,4.4
	c2.5,6.4,9,13.4,15.1,23.8l0.8-0.5c-7.5-13.2-15.8-20.9-16.4-28.7c-1-13,19-83,17-170s-44-129-92-171c-46.9-41-134-83.1-267.7-83.1
	c-3.1,0-6.2,0-9.3,0.1c-139,2-299.2,118.9-327,173c-37,72-52,126-19,257C580.4,737.8,595.7,773.9,616.4,807L616.4,807z M1297,758
	c-1-8.4-3.1-16.7-6.3-24.6l-0.8,0.4c3.4,8,5.6,16.5,6.5,25.2c0.2,1.8,0.3,3.7,0.3,5.5l0.5-0.1C1297.3,762.3,1297.2,760.1,1297,758
	L1297,758z M959.6,1345.2l-0.7-0.7L959.6,1345.2z M961,1340l5-38.5l5.1-38.5c3.4-25.7,6.7-51.4,9.9-77.1c1.6-12.9,3-25.7,4.5-38.6
	l2.1-19.3c0.7-6.4,1.4-12.9,1.9-19.3l0.9-9.7l0.4-4.8l0.3-4.8c0.5-6.5,1-12.9,1.2-19.4c0.2-3.2,0.3-6.5,0.5-9.7s0.2-6.5,0.3-9.7
	c0.2-6.5,0.1-13-0.1-19.5c-3,25.8-6.1,51.4-8.9,77.1c-1.4,12.8-2.8,25.7-4.3,38.6l-4.4,38.6c-2.9,25.7-6,51.4-9,77.1l-4.6,38.6
	l-4.8,38.5l-0.3,2.7c0.8,0.7,1.6,1.5,2.4,2.3l0.7,0.7l0.7,0.7L961,1340L961,1340z M910.7,1600.7c2.6-10.5,5.1-21,7.6-31.5
	c2.3-9.5,4.5-18.9,6.7-28.4l-0.3,0.2c-2.2,1.3-4.5,2.6-6.8,3.9c-1.9,7.6-3.8,15.2-5.7,22.9c-2.5,9.7-5,19.3-7.6,29h1.6
	C907.4,1598.4,908.9,1599.7,910.7,1600.7z"/>
<path opacity="4.000000e-02" fill="#FFFFFF" enable-background="new    " d="M765.6,1224.7c8.7-1.3,17.5-0.8,26,1.4
	s16.6,5.6,24.2,9.9c11.1,5.1,21.5,11.6,31.7,18.2s20.1,13.8,29.8,21.1s19.2,14.9,28.5,22.8s18.4,16,26.9,24.7l-0.1-0.1
	c4.5,2.8,8.8,5.8,12.8,9.1c4.1,3.3,8,6.7,11.9,10.3c7.6,7.2,14.7,15,21.2,23.2c6.5,8.3,12.1,17.1,16.9,26.5
	c4.8,9.4,8.2,19.4,10,29.8c1.9,10.4,1.5,21.1-1.1,31.4c-2.7,10.2-7.6,19.7-13.4,28.4c-5.9,8.7-12.6,16.8-20,24.2
	c-7.4,7.5-15.3,14.4-23.6,20.7c-8.3,6.3-17.1,12.1-26.2,17.3c-9.1,5.2-18.6,9.7-28.5,13.3c-4.9,1.8-10,3.3-15.1,4.4
	c-5.1,1.2-10.4,1.9-15.6,2c-10.5,0.3-21-0.7-31.3-2.8c-20.6-4.4-40.1-13-57.1-25.4s-31.4-28-42.3-46v-0.1c-0.6-2.6-1.2-5.1-1.7-7.7
	c-0.6-2.6-0.9-5.2-1.1-7.8c-0.1-2.6,0-5.3,0.5-7.9s1.2-5.1,2-7.6l0.7,0.2c-1.4,5-2.3,10.2-1.8,15.2c0.3,2.6,0.7,5.1,1.4,7.6
	c0.6,2.5,1.2,5,1.9,7.6l-0.2-0.5c11.3,17.3,25.9,32.2,43,43.9c16.8,11.6,35.8,19.6,55.9,23.4c9.9,1.9,20,2.7,30.1,2.2
	c9.7-0.3,19.4-3,28.8-6.5c9.5-3.6,18.6-8,27.4-13.2c8.8-5.1,17.3-10.9,25.3-17.1s15.6-13,22.7-20.2c7.1-7.2,13.5-15,19.1-23.3
	c5.5-8.1,9.7-17,12.5-26.4c0.6-2.3,1.1-4.6,1.4-6.9c0.3-2.4,0.5-4.8,0.6-7.1c0.1-4.8-0.2-9.7-1-14.4c-1.7-9.7-4.8-19.1-9.3-27.9
	c-4.5-9-9.9-17.6-16-25.6c-6.2-8.1-12.9-15.7-20.3-22.7c-3.7-3.5-7.5-6.9-11.4-10.1s-7.9-6.1-12.1-8.8l-0.2-0.1
	c-0.3-0.2-0.6-0.5-0.9-0.8c-8.2-8.7-17-16.8-26.1-24.8c-4.5-4-9.1-7.9-13.8-11.7l-14.1-11.4c-9.5-7.5-19.2-14.7-29.1-21.6
	c-9.9-6.9-20-13.6-30.7-19l-0.1-0.1c-7.3-4.5-15.2-8-23.4-10.4c-4.1-1.2-8.3-2.1-12.6-2.5c-4.3-0.5-8.6-0.4-12.9,0.1L765.6,1224.7
	L765.6,1224.7z M1064,1602.5l1.8-10c2.4-13.4,4.6-26.8,6.8-40.2l3-20.2c1-6.7,1.9-13.5,2.8-20.2c1.7-13.5,3.2-27,4.7-40.5
	s2.5-27.1,3.5-40.7s1.6-27.2,2-40.8s0.3-27.2,0.1-40.8s-0.7-27.2-1.5-40.8c-1.4-27.2-3.7-54.2-6.6-81.3s-6.6-53.9-10.7-80.8
	s-8.6-53.6-13.4-80.3l-0.8,0.1c4.3,26.8,8.3,53.6,11.8,80.5s6.6,53.8,9.1,80.8s4.4,54,5.4,81.1c0.5,13.5,0.8,27.1,0.9,40.6
	s-0.1,27.1-0.7,40.6s-1.4,27-2.6,40.4s-2.7,26.9-4.3,40.4s-3.2,26.9-5,40.3s-3.6,26.8-5.4,40.3s-3.8,26.8-5.8,40.2l-1.5,10.1l-0.8,5
	c-0.3,1.6-0.6,3.3-0.9,4.9c2.2,0.3,4.3,0.4,6.5,0.2c0.3-1.3,0.6-2.6,0.8-3.8L1064,1602.5L1064,1602.5z"/>
<path opacity="4.000000e-02" fill="#FFFFFF" enable-background="new    " d="M970,1047.4l-4.3-0.6l-0.5,0.6
	c-3.3,24.6-10.3,61.5-18.4,103.8c-5.5,30.9-11.8,64.4-18.6,98.6c-1.6,8.6-3.1,17.2-4.6,25.8c-1.8,10.3-4.1,21.3-6.8,32.7
	c1.6,1.4,3.1,2.8,4.6,4.2C942.7,1212.5,961.2,1107.6,970,1047.4z"/>
<path fill="#FFC5AF" d="M1296.5,759c-4-33.8-22.2-47.8-26.9-59.6c-1.2-1.1-2-2.7-2.1-4.4c-2-38,11-121-1-184s-54-71-72-70
	c-24,1.3-91,82-171,83s-158-65-234-40s-123,85-113,161s31,90,33,112c1.3,14.1-23.7,38.2-13,87c11,50,111,109,239,109
	c40,0,74-29,113-31c23.2-1.2,48.7,8.3,98.5-6c1.4-0.4,2.9-0.8,4.3-1.3c44.6-21.4,81-47.6,106.2-73.8c13.6-14.1,23.6-28.4,30.1-41.8
	C1294.9,784.1,1297.8,770.1,1296.5,759L1296.5,759z"/>
<path fill="#A34F3E" stroke="#8E4637" stroke-width="3" stroke-miterlimit="10" d="M1018.3,766.7c0.6,8.9,18.8,8,27.9,6.8
	s19.6-8.1,19.3-11s-7.1-12.5-26-10.2S1018.3,766.7,1018.3,766.7z"/>
<path opacity="3.000000e-02" fill="#000D26" enable-background="new    " d="M1020.4,763.7c-1.9,1.5-1.4,4.2,0.5,5.8
	s4.6,2.2,7.2,2.6c11.9,2.2,25.1,2.8,35.8-2c0.3-0.1,0.6-0.3,0.6-0.5s-0.5-0.3-0.6-0.1c-11.4,8.3-25.4,11.9-40.7,10.6
	c-4.7-0.4-9.8-1.5-12.4-4.7c-2.1-2.6-2-6.3,0.2-8.8C1013.1,764,1016.5,763.5,1020.4,763.7L1020.4,763.7z M1257.5,841
	c12.3-12.8,21.7-25.8,28.2-38.1C1195,897.4,1136.1,903.3,1051,911c-88,8-32-4-114,6c-76.2,9.3-173-9-242.5-85.5
	c0.4,4.2,1.1,8.3,2,12.5c11,50,111,109,239,109c40,0,74-29,113-31c23.9-1.2,50.1,8.9,102.8-7.2
	C1195.9,893.4,1232.3,867.2,1257.5,841z M1266.5,511c-12-63-54-71-72-70c-22.8,1.3-84.3,74-158.8,82.2c-5.1,0.2-10.2,0.5-15.2,0.8
	c-78.9-0.7-155.9-64.7-230.9-40c-76,25-123,85-113,161s31,90,33,112c0.1,1.2,0,2.3-0.2,3.5c0.6-3.8,24.7-8.4,28-9.1
	c12.6-2.7,25.4-4.3,38.3-4.8c34.5-1.8,69.2,2.1,103,8.8c3.6,0.7,7.2,1.3,10.8,1.8l2.5,1l4.1,1c0.9,0,1.7-0.1,2.6-0.1
	c-0.6-0.3-1.3-0.7-1.9-1.1c17.9,1.4,35.3-0.6,51-8.1c35.5-10.2,71.5-24.7,104.3-22.7c49,3,49,20,75,14c4.1-1,8.3-3.1,12.8-6
	c9-3.2,16.9-9.5,24.2-15.8c2.3-2,4.6-3.9,6.8-5.9c21.6-13.5,51.1-25.3,96.6-18.3C1265.5,657,1278.5,574,1266.5,511L1266.5,511z"/>
<path fill="#282828" d="M667,806c-42-9-112,14-128,40c-10,14,0,23,11,15s65.7-48,113.7-42C671.7,820,672.3,808.3,667,806z
	 M675,852.3c-50.7,18-98,52.7-108.7,80.7c-4.7,11.3,6.7,21.3,16.7,11.3s47.3-56,97.3-78C687.7,863.7,681.7,851,675,852.3z"/>
<path opacity="0.3" fill="#091426" enable-background="new    " d="M664.3,815.7c-7.8,0.5-15.6,0.1-23.4,0.3
	c-22.7,0.9-44.8,7.5-64.2,19.4c-7.8,4.8-15.2,10.4-23.8,13.4c-3.7,1.3-7.9,2.1-11.3,0.3c-1.2-0.7-2.2-1.7-2.8-2.9
	C529.1,860.1,539,869,550,861s65.7-48,113.7-42c3.8,0.5,6-1.9,6.6-4.8C668.4,815.1,666.4,815.7,664.3,815.7z M583,944.3
	c10-10,47.3-56,97.3-78c3.4-1.2,3.9-4.6,2.9-7.7c-2.2,3-6.1,5.1-9.7,6.6c-12.4,5.4-25.3,10.2-36.5,17.8
	c-15.1,10.2-26.3,25.1-39.2,38c-6.2,6.3-13.3,12.4-22.1,13.8c-2.3,0.4-5.1,0.2-6.6-1.6c-0.8-1-1.3-2.2-1.5-3.4
	c-0.5,1.1-1,2.2-1.4,3.2C561.7,944.3,573,954.3,583,944.3L583,944.3z"/>
<path fill="#282828" d="M1391.9,778c-18.7-14.5-68.6-17.3-94.7-13.6c-0.1,4-0.6,8.1-1.5,12c33.4-1.4,76.9,10.9,85.2,14.6
	C1389.9,795,1395.9,789,1391.9,778z M1371.9,701c-11.6-2.7-57.7,5-86.6,21.7c2,3.4,3.7,7,5.3,10.7c25.4-12.8,64.2-15.4,79.3-14.4
	C1385.9,720,1384.9,704,1371.9,701L1371.9,701z"/>
<path opacity="0.3" fill="#091426" enable-background="new    " d="M1391.9,778c-0.2-0.2-0.4-0.3-0.6-0.5c-1.3,1.6-2.9,2.9-4.7,3.8
	c-6.3,3.1-13.8,2.2-20.8,1c-17.1-2.9-33.9-7.1-50.4-12.4c-0.8-0.2-1.5-0.5-2.2-1c-2.4-1.9-1.6-3.9-0.2-5.8c-0.7,0-1.3,0-2,0.1
	c-0.9,0-1.8,0.1-2.8,0.2h-0.5l-2.3,0.2h-0.3c-0.9,0.1-1.8,0.2-2.6,0.2h-0.2l-2.3,0.2h-0.3l-2.4,0.3c-0.1,4-0.6,8.1-1.5,12
	c1,0,2.1-0.1,3.1-0.1h3.3c6.6,0.1,13.2,0.5,19.8,1.3c7.8,0.9,15.5,2.2,22.7,3.6l3,0.6c4,0.8,7.8,1.7,11.4,2.6l2.5,0.6h0.1l2.3,0.6
	h0.2l2.2,0.6h0.2l2.1,0.6h0.1c1.4,0.4,2.7,0.8,3.9,1.2h0.1l1.7,0.5h0.2l1.5,0.5l0.2,0.1l1.3,0.4l0.2,0.1l1.1,0.4h0.1l1,0.4h0.1
	l0.8,0.3C1389.9,795,1395.9,789,1391.9,778L1391.9,778z M1371.6,719h1.3l0.9-0.1h0.3l1-0.2l0.2-0.1c0.3-0.1,0.5-0.1,0.8-0.2l0.3-0.1
	c0.2-0.1,0.4-0.1,0.6-0.2l0.3-0.1c0.2-0.1,0.5-0.2,0.7-0.3h0.1c0.2-0.1,0.5-0.3,0.7-0.5l0.2-0.2c0.2-0.1,0.3-0.2,0.4-0.4l0.2-0.2
	l0.4-0.4l0.2-0.2c0.2-0.2,0.3-0.4,0.4-0.6l0.1-0.1c0.1-0.2,0.2-0.3,0.3-0.5c0-0.1,0.1-0.1,0.1-0.2c0.1-0.1,0.1-0.3,0.2-0.5l0.1-0.2
	c0.1-0.2,0.1-0.3,0.2-0.5s0-0.1,0-0.2c0.1-0.2,0.1-0.5,0.1-0.7v-1.7c0-0.1,0-0.5-0.1-0.7v-0.1c0-0.2-0.1-0.4-0.1-0.6s0-0.2-0.1-0.3
	s-0.1-0.3-0.2-0.5c0-0.1-0.1-0.2-0.1-0.3c-0.1-0.2-0.1-0.3-0.2-0.5c0-0.1-0.1-0.2-0.1-0.2s-0.2-0.5-0.4-0.7c0-0.1-0.1-0.1-0.1-0.2
	l-0.3-0.5l-0.2-0.3l-0.3-0.4c-0.1-0.1-0.1-0.2-0.2-0.2s-0.3-0.3-0.5-0.5l-0.1-0.1c-2.1,2.1-4.5,3.9-7.1,5.4
	c-6.2,3.5-13.3,5.3-20.3,6.6c-14.6,2.8-29.5,3.9-44.3,3.3c-1.3,0-2.5-0.2-3.7-0.6c-1.5-0.7-2.7-2-3.2-3.6c-1.1,0.5-2.2,0.9-3.2,1.4
	l-1.1,0.5c-0.7,0.3-1.3,0.6-2,0.9l-1.3,0.7l-1.7,0.8l-1.4,0.7l-1.6,0.8l-1.4,0.8l-0.8,0.5c2,3.4,3.7,7,5.3,10.7l1.8-0.9l0.7-0.3
	c0.6-0.3,1.2-0.5,1.7-0.8l0.8-0.4c0.6-0.2,1.1-0.5,1.7-0.7l0.9-0.4c0.6-0.2,1.1-0.4,1.7-0.7l1-0.4l1.7-0.6l1-0.3l1.8-0.6l1-0.3
	l1.8-0.5l1.1-0.3l1.8-0.5l1.1-0.3l1.9-0.5l1-0.3l1.8-0.4l1-0.2c0.6-0.2,1.2-0.3,1.9-0.4l1-0.2l1.9-0.4l0.9-0.2l2-0.4l0.7-0.1
	c0.7-0.1,1.4-0.3,2.2-0.4h0.1c2.6-0.4,5.2-0.8,7.7-1.2l0.6-0.1l1.8-0.2l1-0.1l1.7-0.2l1.1-0.1l1.6-0.2l1.1-0.1l1.5-0.1l1.2-0.1
	l1.4-0.1l1.2-0.1c0.4,0,0.9-0.1,1.3-0.1l1.2-0.1l1.2-0.1l1.2-0.1h13l1.5,0.1L1371.6,719L1371.6,719z"/>
<path fill="#282828" d="M994,274c25,7,66,42,80,45s15.7-4.7,15.7-4.7c27,3,79.3,32.7,93.3,45.7c7,8,15,14,15-2s6-137-27-165
	C1131.6,159.5,1015,238,994,274z"/>
<path opacity="0.3" fill="#091426" enable-background="new    " d="M1084.6,317.8c-2.1,0.1-4.2,0.1-6.2-0.2
	c-11.1-1.7-18.8-12.1-23.1-22.5c-10.2-24.2-4.5-57.4,7.9-80.4c-31.8,19.2-59.8,43.5-69.1,59.4c25,7,66,42,80,45
	C1078.7,320,1082.1,319.2,1084.6,317.8L1084.6,317.8z M1095.8,319c-1.8-0.2-3.1-1.9-2.8-3.7c0.1-0.6,0.3-1.2,0.7-1.6
	c8.5-10.4,20.1-37.9,24-47.3c4.7-11.3,20-47.3,26.7-52.7s13.3-6.7,17.3-6s9.3,7.3,12,18.7s10.7,70,11.3,82s7.3,37.3,3.3,39.3
	s-16.8-9.7-26-14.7c-8.7-4.7-32.7-14-46-15.3C1109.9,317,1101.3,319.7,1095.8,319L1095.8,319z"/>
<path fill="#8D5548" d="M937.7,806.3c-2,1.6-4.3,2.9-6.7,3.8c-2.4,1-4.8,1.7-7.4,2.2c-2.5,0.5-5.1,0.8-7.6,0.8
	c-2.6,0-5.1-0.2-7.7-0.8c2.5-0.6,5-1.1,7.4-1.5l7.2-1.4l7.2-1.5C932.5,807.4,935.1,806.8,937.7,806.3z"/>
<path fill="#8D5548" d="M929,808.8c7.9,6.2,16.6,11.4,25.8,15.6c9.2,4.2,18.7,7.5,28.5,9.9s19.8,3.8,29.8,4.3
	c10,0.4,20.1-0.2,30-1.8s19.7-4.3,29-8c9.4-3.6,18.5-8.2,27-13.6c2.2-1.3,4.2-2.8,6.3-4.2c1.1-0.7,2.1-1.4,3.1-2.2l3-2.3
	c4-3,8-6.3,11.7-9.7c1.9-1.7,3.7-3.5,5.5-5.2l2.6-2.7l1.3-1.4l1.2-1.4c0.8-1,1.7-1.9,2.5-2.9l2.3-3c0.8-1,1.4-2,2.2-3.1
	c0.4-0.5,0.7-1,1-1.6l0.9-1.6l1.7,0.8c-2.2,4.7-5.1,9.2-8.4,13.2l-1.2,1.5l-1.3,1.5l-2.5,3c-1.8,1.9-3.5,3.8-5.4,5.6
	c-3.7,3.6-7.6,7.1-11.6,10.4l-3.1,2.4c-1,0.8-2,1.6-3.1,2.3c-2.1,1.5-4.2,3.1-6.4,4.5l-6.6,4.2l-6.8,3.8c-1.1,0.7-2.3,1.2-3.5,1.8
	l-3.5,1.7c-2.3,1.2-4.8,2.1-7.2,3.1c-9.7,4-19.7,6.9-30.1,8.7c-10.3,1.8-20.8,2.4-31.2,2c-10.4-0.5-20.8-2.1-30.9-4.7
	c-10.1-2.6-20-6.2-29.3-10.8c-9.4-4.6-18.2-10.3-26.2-17.1L929,808.8L929,808.8z"/>
<path opacity="3.000000e-02" enable-background="new    " d="M928.2,809.8c2.5,1,4.7,2.2,7.2,3.1l3.5,1.5c1.2,0.5,2.4,0.9,3.6,1.3
	s2.3,0.9,3.5,1.3l3.6,1.2c2.3,0.8,4.7,1.5,7.1,2.2c9.3,2.7,18.9,4.8,28.5,6.2l3.5,0.5l3.6,0.3c1.2,0.1,2.4,0.3,3.5,0.4
	s2.4,0.2,3.5,0.3l3.5,0.2l1.8,0.1h1.8c2.3,0,4.7,0.1,7,0.2s4.7-0.1,7-0.2c1.2,0,2.3-0.1,3.5-0.2l3.5-0.3c2.3-0.1,4.6-0.4,6.9-0.7
	l3.5-0.4c1.2-0.1,2.3-0.4,3.4-0.6c2.3-0.4,4.6-0.7,6.9-1.2s4.5-1.1,6.8-1.6c1.1-0.2,2.3-0.5,3.4-0.9l3.3-1c1.1-0.3,2.2-0.6,3.3-1
	l3.3-1.2c9-3.1,17.7-6.9,26.2-11.2c8.7-4.5,17.1-9.5,25.2-15c2.1-1.4,4-2.9,6.1-4.3l3-2.3l1.5-1.1l1.5-1.2l3-2.4l2.9-2.5
	c1-0.8,1.8-1.7,2.8-2.6c0.5-0.4,0.9-0.9,1.3-1.4l1.3-1.4l1.4,0.6l-0.9,1.8c-0.3,0.6-0.6,1.2-1,1.7c-0.7,1.1-1.3,2.2-2.1,3.3
	l-2.3,3.2l-2.4,3l-1.2,1.5l-1.3,1.5l-2.6,2.9c-1.8,1.8-3.6,3.7-5.4,5.5c-7.5,7.1-15.6,13.6-24.2,19.3s-17.8,10.5-27.4,14.3
	c-9.6,3.9-19.6,6.8-29.8,8.5c-10.2,1.7-20.6,2.3-30.9,1.8c-10.3-0.6-20.6-2.1-30.6-4.7c-10-2.5-19.8-6-29.1-10.5s-18.1-10.1-26-16.8
	L928.2,809.8L928.2,809.8z"/>
<path opacity="3.000000e-02" enable-background="new    " d="M928.5,809.4c7.8,6.5,16.5,11.9,25.7,16.2c9.2,4.4,18.8,7.8,28.7,10.3
	s20,3.9,30.1,4.4c10.2,0.4,20.4-0.2,30.4-1.9s19.9-4.4,29.3-8.3c9.4-3.8,18.5-8.5,27-14c8.5-5.6,16.5-11.9,23.9-18.8
	c1.8-1.7,3.6-3.6,5.4-5.4l2.6-2.8l1.3-1.4l1.2-1.5c0.8-1,1.6-2,2.4-2.9l2.2-3c0.8-1,1.4-2.1,2.1-3.2c0.3-0.5,0.6-1.1,0.9-1.6
	l0.9-1.6l2.3,1l-0.7,1.9c-0.2,0.6-0.5,1.3-0.8,1.9l-1.8,3.6l-2,3.4c-0.7,1.1-1.5,2.2-2.2,3.3l-1.1,1.6l-1.2,1.6l-2.4,3.2
	c-1.7,2-3.3,4.1-5.1,6c-3.6,3.9-7.3,7.7-11.2,11.3l-3,2.6c-1,0.9-2,1.8-3.1,2.5c-2.1,1.6-4.2,3.3-6.3,4.9l-6.6,4.6
	c-2.2,1.4-4.6,2.8-6.8,4.2c-1.1,0.7-2.3,1.3-3.5,2l-3.6,1.9c-2.3,1.3-4.8,2.4-7.3,3.5c-9.9,4.5-20.3,7.8-31,9.8l-2,0.4
	c-0.7,0.1-1.3,0.3-2,0.3l-4.1,0.5c-2.7,0.4-5.4,0.8-8.1,0.9l-4.1,0.2c-1.4,0.1-2.7,0.2-4.1,0.2h-8.2c-2.7-0.1-5.5-0.3-8.2-0.5
	l-2-0.2l-2-0.3l-4.1-0.5c-1.3-0.2-2.7-0.3-4-0.6l-4-0.8l-4-0.8c-1.3-0.3-2.6-0.7-4-1c-10.6-2.7-20.7-7-29.9-12.8
	c-2.3-1.5-4.5-3-6.7-4.7c-2.2-1.6-4.3-3.4-6.2-5.3c-1-1-2-1.8-2.9-2.8s-1.8-2-2.7-3.1c-0.4-0.5-0.9-1-1.3-1.6s-0.8-1.1-1.2-1.7
	c-0.8-1.2-1.6-2.2-2.3-3.4L928.5,809.4L928.5,809.4z"/>
<path fill="#8D5548" d="M1130.3,774c2.6,0.3,5.3,0.2,7.9-0.1c2.6-0.2,5.2-0.6,7.9-0.9s5.3-0.5,8-0.6c2.7-0.2,5.5,0,8.2,0.6l-7.9,1.7
	c-2.6,0.5-5.3,1-8,1.3s-5.5,0.4-8.2,0.2C1135.4,776.2,1132.7,775.4,1130.3,774z"/>
<path fill="#282828" d="M588,462c-10-102,58-248,138-264c31-6.2,107,76,121,109c6,14-20,5-52,14s-86,48-88,57s6,46-2,56
	s-47,4.7-69.3,7C613.9,443.3,603,451,588,462z"/>
<path opacity="0.3" fill="#091426" enable-background="new    " d="M639.2,341.9c-4.8-23.3-4.2-47.3-0.8-70.9
	c-34.9,55.1-56.3,130.7-50.4,191c15-11,25.9-18.7,47.7-21c4.4-0.5,9.4-0.6,14.7-0.7c2.9-3.3,5.6-6.7,8.2-10.2
	c5.5-7.3,13-12.9,20.6-16.9C658,395.3,644.7,369.1,639.2,341.9L639.2,341.9z M847.5,312.1c-3.2,0.7-7.1-0.9-10.4-2.4
	c-8.1-3.8-16.8-6.5-25.6-8c-1.4-0.1-2.8-0.6-4-1.3c-1-0.8-1.8-1.8-2.4-3c-13.2-22.3-29.8-42.4-49.1-59.8c-9.2-8.3-20.8-16.4-33-14.1
	c-10.3,1.9-17.9,11-22.7,20.4c-6,11.8-9.2,24.8-11.8,37.8c-6.7,33-10.4,66.5-11.1,100.2c-0.1,3.1-0.1,6.2,0.9,9.2s3.2,5.6,6.2,6.3
	c8.1,1.9,16.4-5.4,22.2-10.7c-0.3-2.9-0.2-5.8,0.2-8.7c2-9,56-48,88-57C821.9,313.4,844.6,318.6,847.5,312.1L847.5,312.1z"/>
<path fill="#D9E9E6" d="M887.7,753.5c14.1,0.5,32.4,5.3,41.1,8.8c21-13.8,32.1-62.2,22.2-109.9c-2.2-10.6-6.2-20.8-11.9-30
	c-23.1-37.7-69.1-53.1-90.1-24c-15.1,20.9-16.5,50,0,94.7c6.7,18.1,15,33.2,24.6,44.8C878,743.3,882.7,748.6,887.7,753.5
	L887.7,753.5z"/>
<path fill="#C6D9D5" d="M848.5,693.2c-3.6-9.4-6.6-19-8.9-28.8c-2.4-9.8-3.5-19.9-3.2-30.1c0.2-10.2,2.7-20.2,7.4-29.3
	c0.6-1.1,1.2-2.2,1.9-3.3l2.1-3.2c0.3-0.5,0.7-1.1,1.1-1.6l1.2-1.5c0.8-1,1.7-1.9,2.6-2.8c3.7-3.6,8.1-6.4,13-8.2
	c4.9-1.7,10-2.4,15.2-2.2c5.1,0.3,10.2,1.2,15,2.9c9.6,3.4,18.5,8.6,26.1,15.4c7.6,6.7,14,14.6,19.1,23.4c5,8.8,8.5,18.4,10.5,28.3
	l-1.1,0.2c-3.8-9.1-8.7-17.7-14.6-25.5c-5.6-7.5-12.3-14.2-19.8-19.8l-2.8-2c-0.9-0.6-1.9-1.2-2.8-1.9l-2.9-1.8l-2.9-1.6
	c-3.9-2-7.9-3.7-12.1-4.9c-3.9-1.2-8-1.8-12.1-1.9c-3.8-0.1-7.5,0.5-11.1,1.7c-3.4,1.2-6.5,3.1-9.1,5.6l-2,2l-0.9,1.1l-0.5,0.5
	c-0.2,0.2-0.3,0.4-0.5,0.6l-1.8,2.6l-1.7,2.7c-0.6,0.9-1.1,1.8-1.5,2.8c-0.5,0.9-1,1.9-1.4,2.9l-1.2,3l-1,3.1
	c-0.4,1-0.6,2.1-0.9,3.2c-0.3,1.1-0.6,2.1-0.8,3.2l-0.6,3.3c-0.2,1.1-0.3,2.2-0.4,3.4c-1.1,9.1-0.7,18.7,0.2,28.4s2.7,19.6,4.1,29.7
	L848.5,693.2L848.5,693.2z"/>
<path fill="#8D5548" d="M873.6,737.8c-7.2-8.2-13.4-17.2-18.3-26.9c-2.5-4.8-4.8-9.8-6.9-14.8c-1.1-2.5-2-5.1-2.9-7.6
	s-1.8-5.1-2.7-7.7c-0.4-1.3-0.9-2.6-1.3-3.9l-1.2-3.9c-0.8-2.6-1.4-5.3-2.1-7.9s-1.1-5.4-1.7-8.1c-0.3-1.3-0.4-2.7-0.7-4.1
	s-0.4-2.7-0.6-4.1l-0.4-4.1c0-0.7-0.1-1.4-0.2-2.1v-2.1c0-1.4-0.1-2.8-0.1-4.2l0.2-4.2c0.3-5.6,1.3-11.1,2.8-16.5
	c1.7-5.4,4-10.5,7-15.3c2.9-4.9,6.9-9.2,11.5-12.6c2.4-1.6,4.9-3,7.6-4c1.3-0.5,2.7-1,4.1-1.3c0.7-0.2,1.4-0.3,2.1-0.5l1-0.2
	l1.1-0.2l2.1-0.3l2.1-0.1l1.1-0.1h3.2c2.8,0.2,5.6,0.6,8.4,1.2c5.4,1.2,10.7,3.1,15.6,5.8c4.9,2.6,9.5,5.6,13.7,9.2
	c8.4,7,15.4,15.5,20.7,25.1c-6-8.9-13.5-16.8-22.2-23.2c-4.3-3.2-8.8-5.9-13.7-8.2c-2.4-1.1-4.8-2.1-7.3-2.9c-2.5-0.8-5-1.4-7.6-1.9
	s-5.1-0.7-7.7-0.8h-2.9l-1,0.1l-1.9,0.2l-1.9,0.3L872,586l-0.9,0.2c-0.6,0.2-1.2,0.3-1.8,0.5c-1.2,0.4-2.4,0.8-3.6,1.3
	c-2.3,1-4.5,2.2-6.6,3.7c-1,0.7-2,1.5-2.9,2.4c-0.5,0.4-1,0.8-1.4,1.3l-1.3,1.4c-0.4,0.5-0.8,0.9-1.2,1.5l-1.2,1.5l-2.2,3.2
	c-2.7,4.4-4.9,9.2-6.4,14.2s-2.4,10.2-2.7,15.4l-0.2,3.9v6c0,0.7,0.1,1.3,0.1,2l0.3,4c1.2,10.6,3.3,21.1,6.4,31.3
	c3,10.3,6.6,20.4,11,30.3C861.8,719.9,867.2,729.2,873.6,737.8L873.6,737.8z"/>
<path fill="#D9E9E6" d="M1160.4,719.3c6.6-7.8,12.5-18.1,17.4-29.9c16.1-39.1,21.5-94.8-3.8-121.9c-19.7-21.2-47.5,0.8-59.8,31.8
	c-3.8,9.6-6.9,19.5-9.2,29.7c-7,32.5-2.2,90.8,10,103c7.9,7.9,18.7,5.4,26.6,1.8C1147.4,728.4,1153.6,723.5,1160.4,719.3
	L1160.4,719.3z"/>
<path fill="#C6D9D5" d="M1177.2,689.2c1.3-8.8,2.8-17.3,3.7-25.9s1.6-16.9,1.7-25.3c0.2-8.2-0.1-16.4-1-24.6
	c-0.4-4-1.1-7.9-1.9-11.8c-0.8-3.8-1.9-7.5-3.2-11.1c-1.2-3.5-2.8-6.8-4.7-10l-1.4-2.3l-1.5-2.2l-1.7-2c-0.6-0.6-1-1.2-1.6-1.7
	c-1-1-2.1-1.9-3.3-2.7c-1.1-0.7-2.3-1.2-3.5-1.6c-1.3-0.3-2.6-0.5-4-0.5c-1.5,0-3,0.2-4.5,0.6c-1.7,0.5-3.3,1-4.8,1.8
	c-1.7,0.8-3.3,1.7-4.9,2.7c-3.4,2.1-6.5,4.6-9.4,7.3c-6.1,5.5-11.4,12.3-16.5,19.6l-1-0.4c3.1-8.2,7.5-15.9,12.9-22.9
	c2.7-3.5,5.8-6.7,9.2-9.5c3.4-2.9,7.3-5.2,11.4-6.8c2.1-0.8,4.3-1.3,6.6-1.6c2.3-0.2,4.5-0.2,6.8,0.2c2.2,0.4,4.4,1.2,6.4,2.2
	c2,1.1,3.8,2.4,5.5,3.9c6.6,6.1,11.2,14,14.3,22.2c1.5,4.2,2.7,8.4,3.5,12.8c0.8,4.3,1.4,8.7,1.7,13.1c0.3,4.4,0.4,8.8,0.3,13.2
	s-0.4,8.8-0.9,13.1s-1.1,8.7-1.9,13s-1.7,8.6-2.8,12.8c-2.2,8.5-5,16.8-8.4,24.8L1177.2,689.2L1177.2,689.2z"/>
<path fill="#8D5548" d="M1177.8,689.4c5.6-16.4,9.3-33.5,10.8-50.7c0.8-8.6,0.8-17.2,0.1-25.7c-0.4-4.2-1-8.5-1.8-12.7
	c-0.8-4.1-2-8.2-3.5-12.2c-1.4-3.9-3.2-7.7-5.4-11.3l-1.7-2.6l-1.9-2.5l-2-2.4c-0.7-0.7-1.4-1.5-2.1-2.2c-1.5-1.3-3.1-2.5-4.8-3.5
	c-1.7-0.9-3.6-1.6-5.5-2s-3.9-0.5-5.9-0.3s-4,0.6-5.9,1.3c-3.9,1.4-7.6,3.5-10.8,6.1c-3.4,2.6-6.5,5.6-9.2,8.8
	c-5.6,6.6-10.3,13.9-14,21.8c2.8-8.4,6.8-16.3,12.1-23.3c2.7-3.6,5.7-6.9,9.1-9.8c3.4-3,7.3-5.5,11.6-7.2c2.2-0.8,4.5-1.4,6.8-1.8
	c4.8-0.6,9.7,0.2,14,2.5c2.1,1.1,4.1,2.4,5.8,4c0.9,0.8,1.7,1.6,2.5,2.4l2.2,2.6l2.1,2.7c0.7,0.9,1.3,1.9,1.9,2.8
	c2.4,3.8,4.4,7.9,5.9,12.2c3,8.4,4.7,17.3,5.3,26.2c0.3,4.4,0.3,8.9,0.2,13.3c-0.1,2.2-0.2,4.4-0.4,6.6s-0.4,4.4-0.7,6.6
	c-1.1,8.7-2.9,17.4-5.3,25.8C1184.7,673.3,1181.6,681.5,1177.8,689.4L1177.8,689.4z"/>
<path fill="#894733" d="M1130,746.5c3.5-5.5,7.6-10.5,12.3-15c4.7-4.5,9.8-8.6,15.2-12.2c1.3-0.9,2.8-1.7,4.2-2.5l2.1-1.2l2.2-1.1
	l2.2-1.1c0.7-0.3,1.5-0.7,2.2-1c1.5-0.7,3-1.3,4.5-1.8c6.1-2.3,12.5-3.5,19-3.7c-6.2,1.3-12.3,3.3-18.2,5.8c-1.5,0.6-2.9,1.3-4.3,2
	c-0.7,0.3-1.4,0.7-2.1,1l-2.1,1.2l-2.1,1.1c-0.7,0.4-1.4,0.8-2,1.2c-1.4,0.8-2.7,1.6-4,2.5c-2.7,1.7-5.3,3.5-7.8,5.4s-5,3.9-7.5,5.9
	C1139,737.3,1134.4,741.8,1130,746.5L1130,746.5z"/>
<path fill="#A34F3E" d="M1122,733h-0.7c-12.8-0.8-22.1-25.9-20.2-54.8c1.8-28.5,13.7-51.7,26.4-51.7h0.6c5.9,0.4,11.5,6.2,15.3,15.9
	c4.1,10.5,5.9,24.3,5,38.8C1146.6,709.8,1134.7,733,1122,733L1122,733z"/>
<path fill="#8E4637" d="M1127.5,624v5h0.5c10,0.6,19.8,22.2,17.9,52.1c-0.9,13.9-4.2,26.8-9.3,36.3c-4.5,8.3-9.8,13.1-14.6,13.1
	h-0.5c-10-0.6-19.8-22.2-17.9-52.1c0.9-13.9,4.2-26.8,9.3-36.3c4.5-8.3,9.8-13.1,14.6-13.1V624 M1127.5,624
	c-14.1,0-27,23.9-28.9,54.1c-2,30.8,8.1,56.5,22.6,57.4h0.8c14.1,0,27-23.9,28.9-54.1c2-30.8-8.1-56.5-22.6-57.4H1127.5z"/>
<path fill="#A34F3E" d="M903.7,750.4c-16.8,0-33.5-22.5-37.8-51.2c-4.7-30.8,5.9-58.1,23.6-60.8c0.9-0.1,1.9-0.2,2.8-0.2
	c16.8,0,33.5,22.5,37.8,51.2c4.7,30.8-5.9,58-23.6,60.8C905.6,750.3,904.6,750.4,903.7,750.4z"/>
<path fill="#8E4637" d="M892.3,635.8v5c7.2,0,14.7,4.7,21.2,13.3c7,9.2,12.1,21.9,14.2,35.8c2.2,14.7,1,29-3.5,40.2
	c-4.2,10.3-10.5,16.6-18,17.8c-0.8,0.1-1.6,0.2-2.4,0.2c-7.2,0-14.7-4.7-21.2-13.3c-7-9.2-12-21.9-14.2-35.8
	c-4.4-28.9,5.4-55.5,21.5-57.9c0.8-0.1,1.6-0.2,2.5-0.2L892.3,635.8 M892.3,635.8c-1.1,0-2.1,0.1-3.2,0.2
	c-19.1,3-30.6,31.4-25.7,63.6c4.7,30.4,22.3,53.3,40.3,53.3c1.1,0,2.1-0.1,3.2-0.2c19.1-2.9,30.6-31.4,25.7-63.6
	C927.9,658.7,910.3,635.8,892.3,635.8z"/>
<path fill="#894733" d="M932.5,764c-2.3-0.9-4.7-1.6-7.2-2.2c-2.4-0.7-4.8-1.2-7.2-1.8s-4.8-1.1-7.3-1.6s-4.9-1-7.3-1.5
	s-4.9-0.9-7.3-1.2s-4.9-0.7-7.4-0.9s-4.9-0.4-7.4-0.4c-2.5-0.1-5,0.2-7.4,0.7c2.3-1.1,4.8-1.9,7.3-2.2c2.5-0.4,5.1-0.5,7.6-0.5
	s5.1,0.2,7.6,0.5s5,0.7,7.5,1.1c5,0.9,9.9,2.2,14.7,3.8c2.4,0.8,4.8,1.7,7.1,2.7C928.2,761.3,930.4,762.5,932.5,764L932.5,764z"/>
<ellipse transform="matrix(0.977 -0.2134 0.2134 0.977 -117.3922 207.5438)" fill="#FFFFFF" cx="902.7" cy="647.6" rx="8.3" ry="20.7"/>
<ellipse transform="matrix(0.9999 -1.587959e-02 1.587959e-02 0.9999 -9.931 18.1292)" fill="#FFFFFF" cx="1136.6" cy="634.4" rx="8.3" ry="20.7"/>
<path fill="#282828" d="M1607.6,1001.6c-30-22.5-134.6-73.3-194.6-43.3c-32.1,16-38.4,34.4-45.6,61.7c-0.2,0.3-0.3,0.7-0.4,1
	c-0.9,3.3-1.6,6.9-2.2,10.8c-1.1,6-1.9,12.1-2.5,18.2c-1.2,9.2-2.4,18.6-4.2,26.9c1.1,20.1,21.8,59.1,58,74c51,21,92-4,92-4l1.9-6.8
	c21.9,11.7,48.3,17.1,67.7,9.9c0,0,7.6,12.8,33.4,16.9c19,3,43.4-44.4,47-78C1662,1052,1637.6,1024.1,1607.6,1001.6L1607.6,1001.6z"
	/>
<path fill="#494949" d="M1658,1089c4-37-20.4-64.9-50.4-87.4S1469,928.3,1412,957c-9.8,4.9-17.1,10.2-22.7,15.9
	c-6.3,8-12.3,18.6-18,33c-1.3,4.2-2.4,8.5-3.6,13c12.5-27.6,13.9-30.9,30.4-19.9c18,12,41,34,75,54s65,34,80,53s19,41,36,51
	c5.9,3.5,10.7,6.4,14.8,8.5c2.2,0.6,4.6,1.1,7.2,1.5C1630,1170,1654.4,1122.6,1658,1089L1658,1089z"/>
<path fill="#99C7C9" d="M1438.4,949.1c-2.9,10.8,18.4,31.4,44.6,40.9c33,12,82,28,100,23s-28-35-51-47c-5.5-2.9-12.1-6-19.3-8.9
	C1487.6,949.8,1461.5,945.8,1438.4,949.1L1438.4,949.1z"/>
<path opacity="0.3" fill="#091426" enable-background="new    " d="M1559.7,1116c-0.8,1.6-1.7,3.1-2.9,4.4
	c-7.3,8.8-20.3,10.2-31.5,8.4c-25.4-4.2-45.4-21.4-61.3-40.6c-4.1-4.9-17.7-20.5-21.8-27.9c0.8,15.4,2.8,33.4,3.4,41.4
	c1.5,18-12.6,36.3-13.9,54.5c3.9,1,7.8,1.7,11.8,2.3c1.1,0.1,2.1,0.3,3.2,0.4l0.5,0.1l3,0.3h0.4c1,0.1,2,0.1,3,0.2h0.2
	c1,0,2,0.1,3,0.1h3.6c0.9,0,1.8,0,2.7-0.1h0.3c0.9,0,1.8-0.1,2.8-0.2h0.4c1.8-0.1,3.6-0.3,5.4-0.6h0.4l2.5-0.4l0.3-0.1l2.4-0.4h0.1
	c0.8-0.2,1.6-0.3,2.4-0.5l0.4-0.1l2.3-0.5h0.2l2.1-0.5l0.2-0.1l2.1-0.6l0.3-0.1c1.4-0.4,2.7-0.8,3.9-1.2l0.3-0.1l1.8-0.6l0.2-0.1
	l1.7-0.6h0.1l1.6-0.6l0.3-0.1l1.5-0.6h0.1l1.3-0.5l0.2-0.1l1.2-0.5l0.2-0.1c0.8-0.3,1.5-0.7,2.1-1l0.2-0.1l0.9-0.4l0.1-0.1l0.7-0.3
	h0.1l0.6-0.3h0.1l0.5-0.3l0.3-0.2l0.2-0.1h0.1l1.9-6.8c21.9,11.7,48.3,17.1,67.7,9.9c0.7,1,1.4,2,2.3,2.8c0.1-0.3,0.2-0.7,0.2-1
	C1571.7,1142.7,1567.3,1129,1559.7,1116L1559.7,1116z"/>
<path opacity="0.3" fill="#091426" enable-background="new    " d="M1658,1089l0.3-3c-0.5,1.4-1,2.7-1.6,4
	c-4.8,11.3-12.9,21.7-24.1,26.8c-15,6.8-33,2.8-47.4-5.3s-26.1-20.1-38.8-30.6c-32.1-26.2-70.7-43-107-63
	c-15.2-8.4-30.9-18.4-38-34.3c-2.5-5.7-3.7-11.9-3.4-18.1c-3.1,2.2-6,4.7-8.7,7.4c-6.3,8-12.3,18.6-18,33c-1.3,4.2-2.4,8.5-3.6,13
	c12.5-27.6,13.8-30.9,30.3-19.9c18,12,41,34,75,54s65,34,80,53s17.3,43,34.3,53c6,3.5,12.3,4.4,16.4,6.5c2.2,0.6,4.6,1.1,7.2,1.5
	C1630,1170,1654.4,1122.6,1658,1089L1658,1089z"/>
<path opacity="4.000000e-02" fill="#FFFFFF" enable-background="new    " d="M1447.8,1081c4.9,4.7,8.8,9.8,12.8,14.7
	c4.1,4.9,8.5,9.5,13.1,13.9l1.7,1.6l1.8,1.6c1.2,1.1,2.4,2.1,3.6,3.1s2.4,2,3.7,3s2.5,2,3.8,2.9c5.1,3.8,10.5,7.2,16.1,10.3
	c11.1,6.2,23.1,10.8,35.5,13.7c6.2,1.5,12.5,2.5,18.9,3c1.6,0.2,3.2,0.2,4.8,0.3s3.2,0,4.8,0.1h1.2c0.3,0,0.5,0,0.8-0.1
	c0.6-0.2,1.3-0.4,1.9-0.6c0.7-0.2,1.4-0.5,2.2-0.7c1-0.3,2.1-0.2,3,0.4l0.2,0.4c-0.6,0.6-1.2,1.1-1.9,1.5c-0.7,0.4-1.5,0.8-2.2,1.2
	c-0.8,0.3-1.6,0.6-2.5,0.8c-0.4,0.1-0.9,0.1-1.3,0.2h-1.2c-1.6,0-3.3,0.1-4.9,0s-3.3,0-4.9-0.2c-6.5-0.4-13.1-1.3-19.5-2.7
	c-12.8-2.8-25.2-7.4-36.7-13.8c-11.5-6.3-22.1-14.1-31.5-23.2s-17.4-19.6-23.5-31.2L1447.8,1081L1447.8,1081z"/>
</svg>
