<svg xmlns="http://www.w3.org/2000/svg" xmlns:xlink="http://www.w3.org/1999/xlink" viewBox="0 0 288 288"><defs><radialGradient id="radial-gradient" cx="-307.36" cy="2092.93" r="0.87" gradientTransform="matrix(61.95, 0, 0, -61.95, 19187.19, 129767.49)" gradientUnits="userSpaceOnUse"><stop offset="0.47" stop-color="#a08be8"/><stop offset="0.86" stop-color="#8065e0"/></radialGradient><radialGradient id="radial-gradient-2" cx="-309.15" cy="2095.92" r="0.87" gradientTransform="matrix(48.26, 0, 0, -48.26, 15096.29, 101245.59)" gradientUnits="userSpaceOnUse"><stop offset="0.09" stop-color="#e1dfdd"/><stop offset="0.9" stop-color="#fff"/></radialGradient><linearGradient id="linear-gradient" x1="164.63" y1="168.29" x2="164.63" y2="210.89" gradientUnits="userSpaceOnUse"><stop offset="0" stop-color="#522cd5"/><stop offset="0.44" stop-color="#8a6fe8"/></linearGradient><linearGradient id="linear-gradient-2" x1="125.38" y1="172.52" x2="125.38" y2="214.77" xlink:href="#linear-gradient"/><radialGradient id="radial-gradient-3" cx="228.37" cy="149.7" r="0.73" gradientUnits="userSpaceOnUse"><stop offset="0" stop-color="#5b36de"/><stop offset="1" stop-color="#512bd4"/></radialGradient><radialGradient id="radial-gradient-4" cx="129.37" cy="456.22" r="0.9" gradientTransform="matrix(1, 0.08, -0.08, 1, 117.03, -284.78)" xlink:href="#radial-gradient-3"/><radialGradient id="radial-gradient-5" cx="221.19" cy="168.61" r="4.47" xlink:href="#radial-gradient-3"/><clipPath id="clip-path"><path d="M217,151.83c6-5.15,14.09-8.48,15.56-5.24s1.3,6.19-3,7.06l-12.18,2.44S215.26,153.33,217,151.83Z" fill="none"/></clipPath><radialGradient id="radial-gradient-6" cx="208.89" cy="2183.67" r="15.18" gradientTransform="translate(2394.72 -48.97) rotate(90)" gradientUnits="userSpaceOnUse"><stop offset="0" stop-color="#3a1ba8"/><stop offset="1" stop-color="#512bd4" stop-opacity="0"/></radialGradient><clipPath id="clip-path-2"><path d="M212.48,167.2s6.74,7.24,10.31,8.79,6.2-2.26,7.12-5.1.63-4.43-2.53-5.87-13-5-13-5S210.83,164.19,212.48,167.2Z" fill="none"/></clipPath><radialGradient id="radial-gradient-7" cx="208.89" cy="2183.67" r="15.18" gradientTransform="translate(2394.72 -48.97) rotate(90)" gradientUnits="userSpaceOnUse"><stop offset="0" stop-color="#3a1ba8"/><stop offset="0.79" stop-color="#512bd4" stop-opacity="0"/></radialGradient><clipPath id="clip-path-3"><path d="M205.91,167.45c-1,5-.88,10.87-1.07,13.18s.38,5.12,4,5,5.29-1.6,4.45-5.42-3.08-13.1-3.08-13.1Z" fill="none"/></clipPath><linearGradient id="linear-gradient-3" x1="-608.62" y1="2644.92" x2="-608.62" y2="2590.02" gradientTransform="matrix(1, 0, 0, -1, 694, 2768.63)" gradientUnits="userSpaceOnUse"><stop offset="0.25" stop-color="#967fe6"/><stop offset="1" stop-color="#8a6fe8"/></linearGradient><radialGradient id="radial-gradient-9" cx="-314.07" cy="2102.51" r="0.21" gradientTransform="matrix(48.29, 0, 0, -48.29, 15273.01, 101657.15)" gradientUnits="userSpaceOnUse"><stop offset="0" stop-color="#8065e0"/><stop offset="1" stop-color="#512bd4"/></radialGradient><radialGradient id="radial-gradient-10" cx="208.27" cy="159.12" r="10.57" gradientTransform="matrix(1, 0, 0, 1, 0, 0)" xlink:href="#radial-gradient-9"/><radialGradient id="radial-gradient-11" cx="212.47" cy="160.92" r="5.21" gradientTransform="translate(245.6 -103.55) rotate(60)" gradientUnits="userSpaceOnUse"><stop offset="0" stop-color="#60defa"/><stop offset="1" stop-color="#1daccc"/></radialGradient><radialGradient id="radial-gradient-12" cx="215.42" cy="162.43" r="10.45" gradientTransform="matrix(0, 1, -3.88, 0, 846.59, -52.36)" gradientUnits="userSpaceOnUse"><stop offset="0.26" stop-color="#4adafa"/><stop offset="0.26" stop-color="#4adafa" stop-opacity="0.98"/><stop offset="0.29" stop-color="#4adafa" stop-opacity="0.8"/><stop offset="0.33" stop-color="#4adafa" stop-opacity="0.63"/><stop offset="0.36" stop-color="#4adafa" stop-opacity="0.48"/><stop offset="0.4" stop-color="#4adafa" stop-opacity="0.35"/><stop offset="0.45" stop-color="#4adafa" stop-opacity="0.24"/><stop offset="0.49" stop-color="#4adafa" stop-opacity="0.15"/><stop offset="0.55" stop-color="#4adafa" stop-opacity="0.08"/><stop offset="0.62" stop-color="#4adafa" stop-opacity="0.03"/><stop offset="0.72" stop-color="#4adafa" stop-opacity="0.01"/><stop offset="1" stop-color="#4adafa" stop-opacity="0"/></radialGradient><radialGradient id="radial-gradient-13" cx="217.58" cy="164.59" r="12.79" gradientTransform="matrix(0, 1, -3.88, 0, 857.14, -52.35)" xlink:href="#radial-gradient-12"/><radialGradient id="radial-gradient-14" cx="220.46" cy="167.47" r="15.57" gradientTransform="matrix(0, 1, -3.88, 0, 871.21, -52.34)" xlink:href="#radial-gradient-12"/><radialGradient id="radial-gradient-15" cx="91.79" cy="2449.29" r="2.11" gradientTransform="matrix(0.68, 0.73, -0.73, 0.68, 1825.63, -1552.17)" xlink:href="#radial-gradient-3"/><radialGradient id="radial-gradient-16" cx="178.32" cy="2760.86" r="2.23" gradientTransform="translate(2113.82 -1660.53) rotate(51.68)" xlink:href="#radial-gradient-3"/><radialGradient id="radial-gradient-17" cx="85.19" cy="2469.75" r="5.35" gradientTransform="matrix(0.68, 0.73, -0.73, 0.68, 1825.63, -1552.17)" xlink:href="#radial-gradient-3"/><clipPath id="clip-path-4"><path d="M86.2,177c8.62.94,17.36,5,15.86,8.58s-4,5.67-7.93,2.85l-11.07-8S83.7,176.74,86.2,177Z" fill="none"/></clipPath><radialGradient id="radial-gradient-18" cx="1353.95" cy="4183.45" r="16.66" gradientTransform="translate(4258.7 -1175.66) rotate(90)" xlink:href="#radial-gradient-6"/><clipPath id="clip-path-5"><path d="M70.48,184.88s-.78,10.83.65,14.87,6.45,3.28,9.42,1.9,4-2.8,2.82-6.43S77.71,181,77.71,181,71.66,181.31,70.48,184.88Z" fill="none"/></clipPath><radialGradient id="radial-gradient-19" cx="1353.95" cy="4183.45" r="16.66" gradientTransform="translate(4258.7 -1175.66) rotate(90)" xlink:href="#radial-gradient-7"/><clipPath id="clip-path-6"><path d="M65.36,179.78c-4.73,2.94-9.39,7.43-11.4,9s-3.82,4.14-1,6.91,5.25,3.05,7.69-.49,8.23-12.27,8.23-12.27Z" fill="none"/></clipPath><radialGradient id="radial-gradient-21" cx="71.01" cy="2459.37" r="11.61" gradientTransform="matrix(0.68, 0.73, -0.73, 0.68, 1825.63, -1552.17)" xlink:href="#radial-gradient-9"/><radialGradient id="radial-gradient-22" cx="75.62" cy="2461.34" r="5.73" gradientTransform="matrix(0.5, 0.87, -0.87, 0.5, 2169.29, -1115.99)" xlink:href="#radial-gradient-11"/><radialGradient id="radial-gradient-23" cx="78.86" cy="2463" r="11.19" gradientTransform="matrix(0, 1, -3.88, 0, 9643.81, 114.38)" xlink:href="#radial-gradient-12"/><radialGradient id="radial-gradient-24" cx="81.23" cy="2465.37" r="13.76" gradientTransform="matrix(0, 1, -3.88, 0, 9652.91, 115.37)" xlink:href="#radial-gradient-12"/><radialGradient id="radial-gradient-25" cx="84.39" cy="2468.54" r="16.81" gradientTransform="matrix(0, 1, -3.88, 0, 9665.03, 116.69)" xlink:href="#radial-gradient-12"/><linearGradient id="linear-gradient-4" x1="125.17" y1="132.51" x2="161.64" y2="132.51" gradientUnits="userSpaceOnUse"><stop offset="0" stop-color="#9fe4eb" stop-opacity="0.8"/><stop offset="1" stop-color="#70d6e0" stop-opacity="0.3"/></linearGradient><linearGradient id="linear-gradient-5" x1="170.02" y1="132.51" x2="206.49" y2="132.51" xlink:href="#linear-gradient-4"/></defs><g style="isolation:isolate"><g id="asset"><path d="M187.22,135.31a59.2,59.2,0,0,0,1.28-24.72h3.23l.08-.06a54.17,54.17,0,1,0-2.17,27.85C189.85,137.49,189.83,135.88,187.22,135.31Z" fill="url(#radial-gradient)"/><path d="M185.24,147.82H91.8a54.49,54.49,0,0,0,7.42,9.84h78.6A54.49,54.49,0,0,0,185.24,147.82Z" fill="#d8cff7"/><path d="M187.22,135.31a59.4,59.4,0,0,0,1.28-24.7H132.28s-3.55-.36-3.55,2.87.14,12.38.14,22.49a3,3,0,0,0,3,3.08S181,139,187.22,135.31Z" fill="url(#radial-gradient-2)"/><path d="M153.36,135.34s8.65-6.84,10.33-8.11,3.17-1.33,4.71,0,10.21,8.11,10.21,8.11Z" fill="#a08be8"/><path d="M189.42,139s1.5-2.89-2.2-3.7c0,0-55.27,0-55.27,0-1.28,0-2.94-.76-3.08-2,0,.89,0,1.79,0,2.71a3,3,0,0,0,2.66,3.05c.12,0,.25,0,.38,0h3.78Z" fill="#512bd4"/><path d="M156.21,160.59l17.74-.08-.07-15.68-17.74.08Z" fill="#512bd4"/><path d="M159.28,154.73a.41.41,0,0,1-.3-.12.38.38,0,0,1-.12-.28A.4.4,0,0,1,159,154a.44.44,0,0,1,.6,0,.37.37,0,0,1,.13.29.38.38,0,0,1-.12.28A.43.43,0,0,1,159.28,154.73Z" fill="#fff"/><path d="M164,154.65h-.77l-2-3.18a1.49,1.49,0,0,1-.13-.25h0a3.45,3.45,0,0,1,0,.59v2.84h-.68v-4.33h.82l2,3.11.16.26h0a3.91,3.91,0,0,1,0-.58v-2.8H164Z" fill="#fff"/><path d="M167.3,154.65h-2.37v-4.34h2.28v.61h-1.58v1.22h1.45v.61h-1.45v1.29h1.67Z" fill="#fff"/><path d="M170.67,150.91h-1.22v3.72h-.7v-3.72h-1.22v-.61h3.13Z" fill="#fff"/><polygon points="183.26 218.74 174.99 216.96 182.89 215.16 183.26 218.74" fill="#4d4d4d"/><path d="M214.68,234.56c0-5.29-4-10.44-9-11.47l-37.74-7.82a7.84,7.84,0,0,0-4,.15c-2.23.42-6.18,1.12-12,2.16-2.38.43,1.16,3.44,7.12,7.32.81,4.57,4.46,8.67,8.83,9.57L179.87,237c8.29,4.44,15.32,7.86,16,7.75,1.86-.31,9.15-1.38,13.33-2.39l0-.05C212.43,241.46,214.68,238.52,214.68,234.56Z" fill="#666"/><path d="M195.46,227.67l14.24-2.73a10.93,10.93,0,0,0-2.22-1.28l-14.62,2.8A9.19,9.19,0,0,1,195.46,227.67Z" fill="#908d89"/><path d="M185.46,224.71,200,221.92l-3.28-.68-14.68,2.81C180,223.66,188.57,225.35,185.46,224.71Z" fill="#908d89"/><path d="M176.12,222.77,190.7,220l-3.29-.69-14.68,2.81C170.67,221.72,179.23,223.41,176.12,222.77Z" fill="#908d89"/><path d="M166.79,220.84l14.57-2.79-3.28-.68-14.68,2.81C161.33,219.78,169.9,221.48,166.79,220.84Z" fill="#908d89"/><path d="M199.94,233.88c0-.08,0-.15,0-.23l14.14-2.71a12.85,12.85,0,0,0-.66-1.58L199.5,232C199.16,231.24,199.51,232.35,199.94,233.88Z" fill="#908d89"/><path d="M200,238.76a7,7,0,0,1-.79,1.86l14.89-2.86a8.47,8.47,0,0,0,.45-1.8Z" fill="#908d89"/><path d="M193,242.51l-37.84-7.84a9.22,9.22,0,0,1-6.87-8.77h0c0-4.05,3.08-6.7,6.87-5.91L193,227.83a9.22,9.22,0,0,1,6.88,8.77h0C199.87,240.66,196.79,243.3,193,242.51Z" fill="#56534f"/><path d="M193.08,244.6l-37.74-7.83c-5-1-9-6.17-9-11.47s4-8.77,9-7.74l37.74,7.83c5,1,9,6.18,9,11.47S198.05,245.63,193.08,244.6Zm-37.74-23.3c-3-.63-5.5,1.49-5.5,4.73a7.38,7.38,0,0,0,5.5,7l37.74,7.83c3,.63,5.51-1.5,5.51-4.73a7.38,7.38,0,0,0-5.51-7Z" fill="#eeedec"/><ellipse cx="192.5" cy="234.95" rx="4.41" ry="5.44" transform="translate(-97.2 143.65) rotate(-33.18)" fill="#e29e3b"/><ellipse cx="174.26" cy="231.22" rx="4.41" ry="5.44" transform="translate(-98.13 133.07) rotate(-33.18)" fill="#e29e3b"/><ellipse cx="155.86" cy="227.09" rx="4.41" ry="5.44" transform="translate(-98.87 122.32) rotate(-33.18)" fill="#e29e3b"/><path d="M165.1,213.22l20.27-3.43v9.09l-2.55-.53-.23-2.66-14.43,3s-.65,10.21-.84,11.63-3.28,1.5-3.28,1.5l1-18.63" fill="#cc5444"/><polygon points="156.69 211.44 165.1 213.25 185.34 209.81 176.57 207.96 156.69 211.44" fill="#f8b8a4"/><path d="M161.85,230c.65,2.35,3.28,2.31,3.35.8s-.1-17.58-.1-17.58l-8.4-1.77Z" fill="#ea7f6b"/><path d="M154.72,172.19c8.81,14.59,9.78,31.52,9.6,38.09,0,.56,5.19,1.07,10.22-.08.09-8.38-2.12-27.41-10.45-41.91A53.64,53.64,0,0,1,154.72,172.19Z" fill="url(#linear-gradient)"/><polygon points="133.47 222.28 125.2 220.49 133.1 218.69 133.47 222.28" fill="#4d4d4d"/><path d="M164.89,238.1c0-5.29-4-10.44-9-11.47l-37.74-7.83a7.84,7.84,0,0,0-4,.16c-2.23.42-6.18,1.11-12,2.15-2.38.43,1.16,3.45,7.12,7.32.81,4.58,4.46,8.67,8.83,9.58l11.93,2.47c8.29,4.45,15.32,7.87,16,7.76,1.86-.31,9.15-1.38,13.33-2.4l0,0C162.64,245,164.89,242.06,164.89,238.1Z" fill="#666"/><path d="M145.67,231.21l14.24-2.73a10.48,10.48,0,0,0-2.22-1.28L143.07,230A9.19,9.19,0,0,1,145.67,231.21Z" fill="#908d89"/><path d="M135.67,228.25l14.57-2.79-3.28-.68-14.68,2.81C130.21,227.19,138.78,228.88,135.67,228.25Z" fill="#908d89"/><path d="M126.33,226.31l14.58-2.79-3.29-.68-14.68,2.81C120.88,225.26,129.44,227,126.33,226.31Z" fill="#908d89"/><path d="M117,224.37l14.57-2.78-3.28-.68-14.68,2.8C111.54,223.32,120.11,225,117,224.37Z" fill="#908d89"/><path d="M150.15,237.42c0-.08,0-.16,0-.23l14.14-2.72a12.85,12.85,0,0,0-.66-1.58l-13.9,2.67C149.37,234.78,149.72,235.89,150.15,237.42Z" fill="#908d89"/><path d="M150.24,242.3a6.75,6.75,0,0,1-.8,1.86l14.9-2.86a8.47,8.47,0,0,0,.45-1.8Z" fill="#908d89"/><path d="M143.2,246.05l-37.84-7.85a9.2,9.2,0,0,1-6.87-8.76h0c0-4.06,3.08-6.71,6.87-5.92l37.84,7.85a9.21,9.21,0,0,1,6.88,8.77h0C150.08,244.19,147,246.84,143.2,246.05Z" fill="#56534f"/><path d="M143.29,248.14l-37.74-7.83c-5-1-9-6.18-9-11.47s4-8.77,9-7.74l37.74,7.83c5,1,9,6.17,9,11.47S148.26,249.16,143.29,248.14Zm-37.74-23.31c-3-.63-5.5,1.49-5.5,4.73a7.36,7.36,0,0,0,5.5,7l37.74,7.83c3,.63,5.51-1.49,5.51-4.73a7.38,7.38,0,0,0-5.51-7Z" fill="#eeedec"/><ellipse cx="142.71" cy="238.49" rx="4.41" ry="5.44" transform="translate(-107.25 116.98) rotate(-33.18)" fill="#e29e3b"/><ellipse cx="124.47" cy="234.76" rx="4.41" ry="5.44" transform="translate(-108.18 106.39) rotate(-33.18)" fill="#e29e3b"/><ellipse cx="106.07" cy="230.63" rx="4.41" ry="5.44" transform="translate(-108.92 95.65) rotate(-33.18)" fill="#e29e3b"/><path d="M115.31,216.76l20.27-3.44v9.1l-2.55-.53-.24-2.66-14.42,3s-.65,10.22-.84,11.64-3.28,1.5-3.28,1.5l1-18.63" fill="#cc5444"/><polygon points="106.9 214.98 115.31 216.79 135.55 213.35 126.78 211.5 106.9 214.98" fill="#f8b8a4"/><path d="M112.06,233.54c.65,2.35,3.28,2.3,3.34.79s-.09-17.57-.09-17.57l-8.4-1.78Z" fill="#ea7f6b"/><path d="M134.63,174.45a53.64,53.64,0,0,1-10.88-1.93c-7.73,14.59-8.07,33.14-7.37,41.7,5.1,1.14,10.24.25,10.18-.31C125.91,207.26,126.57,189.17,134.63,174.45Z" fill="url(#linear-gradient-2)"/><path d="M227.39,150a12.1,12.1,0,0,1,1.93-.61,1.36,1.36,0,0,1,0,.17,5.17,5.17,0,0,1-.61.17Z" fill="url(#radial-gradient-3)"/><path d="M230,145.31c-3.23,0-8.7,2.78-13,6.52-1.74,1.5.36,4.26.36,4.26l12.18-2.44c4.32-.87,4.46-3.89,3-7.06a2.49,2.49,0,0,0-2.52-1.28Z" fill="#8a6fe8"/><path d="M208.81,181.6a4.93,4.93,0,0,1,0-.64c0-.48.06-1.1.09-1.82.17.72.31,1.36.43,1.9,0,.2.07.36.09.49A6.3,6.3,0,0,1,208.81,181.6Z" fill="url(#radial-gradient-4)"/><path d="M210.18,167.08l-4.27.37c-1,5-.88,10.87-1.07,13.18s.35,5,3.7,5h.27c3.59-.15,5.29-1.6,4.45-5.42s-3.08-13.1-3.08-13.1Z" fill="#8a6fe8"/><path d="M224.41,172.33c-1.86-.85-5.8-4.52-8.34-7.16a1.8,1.8,0,0,1,.07-.27c3.11,1.16,7.68,2.9,9.58,3.77a4.38,4.38,0,0,1,.58.29c0,.17-.1.39-.19.69A5.52,5.52,0,0,1,224.41,172.33Z" fill="url(#radial-gradient-5)"/><path d="M214.4,160s-3.57,4.21-1.92,7.22c0,0,6.74,7.24,10.31,8.79a4.1,4.1,0,0,0,1.64.36c2.73,0,4.71-3.08,5.48-5.46.92-2.84.63-4.43-2.53-5.87s-13-5-13-5Z" fill="#8a6fe8"/><g clip-path="url(#clip-path)"><ellipse cx="211.05" cy="159.93" rx="18.62" ry="10.67" transform="translate(-38.34 248.94) rotate(-56.8)" fill="url(#radial-gradient-6)" style="mix-blend-mode:multiply"/></g><g clip-path="url(#clip-path-2)"><ellipse cx="211.05" cy="159.93" rx="18.62" ry="10.67" transform="translate(-38.34 248.94) rotate(-56.8)" fill="url(#radial-gradient-7)" style="mix-blend-mode:multiply"/></g><g clip-path="url(#clip-path-3)"><ellipse cx="211.05" cy="159.93" rx="18.62" ry="10.67" transform="translate(-38.34 248.94) rotate(-56.8)" fill="url(#radial-gradient-6)" style="mix-blend-mode:multiply"/></g><path d="M212.42,153.62l-.8,9.74c-6.45-.52-18.65-6.65-26.94-14.54a54.22,54.22,0,0,0,4.46-9C195.27,146.41,206.9,153.16,212.42,153.62Z" fill="#8a6fe8"/><path d="M70.42,178.61c-4-8.22-6.37-22.26.26-34.82,4-7.63,12.85-17.3,32-20.08l1.54,10.64c-11.64,1.68-20,6.68-24.07,14.46-4.44,8.41-3.25,18.65-.11,25.08Z" fill="url(#linear-gradient-3)"/><path d="M106.4,137.34a9.93,9.93,0,1,0-9.93-9.93A9.92,9.92,0,0,0,106.4,137.34Z" fill="url(#radial-gradient-9)"/><path d="M218,152.06c-5.43-4.36-13.61-5.66-17.46-.45s-4.26,11.69,5.94,18C211.82,172.94,220.66,154.19,218,152.06Z" fill="url(#radial-gradient-10)"/><ellipse cx="212.47" cy="160.92" rx="10.49" ry="3.99" transform="translate(-33.12 264.47) rotate(-60)" fill="#512bd4"/><ellipse cx="212.47" cy="160.92" rx="6.89" ry="2.62" transform="translate(-33.12 264.47) rotate(-60)" fill="url(#radial-gradient-11)"/><ellipse cx="215.42" cy="162.43" rx="10.27" ry="2.66" transform="translate(-32.96 267.78) rotate(-60)" fill="none" stroke-miterlimit="10" stroke-width="6" stroke="url(#radial-gradient-12)"/><ellipse cx="217.58" cy="164.59" rx="13.49" ry="3.5" transform="translate(-33.75 270.73) rotate(-60)" fill="none" stroke-miterlimit="10" stroke-width="6" opacity="0.6" stroke="url(#radial-gradient-13)"/><ellipse cx="220.46" cy="167.47" rx="17.3" ry="4.48" transform="translate(-34.8 274.66) rotate(-60)" fill="none" stroke-miterlimit="10" stroke-width="6" opacity="0.3" stroke="url(#radial-gradient-14)"/><path d="M97.38,185.72a3.58,3.58,0,0,1-.92-.52l-3.78-2.72A18.14,18.14,0,0,1,97.92,185,3.79,3.79,0,0,1,97.38,185.72Z" fill="url(#radial-gradient-15)"/><path d="M86,177c-2.29,0-2.89,3.49-2.89,3.49l11.07,8a5.84,5.84,0,0,0,3.36,1.3c2.09,0,3.57-1.76,4.57-4.15C103.56,182,94.82,178,86.2,177L86,177Z" fill="#8a6fe8"/><path d="M56.74,193.68a7,7,0,0,1-1-.83l-.12-.13a4.78,4.78,0,0,1,.82-.8c.61-.48,1.38-1.15,2.28-1.93l1.47-1.27c-1.1,1.63-2.14,3.16-2.87,4.22A5.64,5.64,0,0,1,56.74,193.68Z" fill="url(#radial-gradient-16)"/><path d="M58.75,195.21h0m6.61-15.43c-4.73,2.94-9.39,7.43-11.4,9s-3.82,4.14-1,6.91c1.38,1.36,2.67,2.12,3.92,2.12s2.53-.81,3.77-2.61c2.44-3.54,8.23-12.27,8.23-12.27l-3.5-3.16Z" fill="#8a6fe8"/><path d="M75.86,198.75a1.92,1.92,0,0,1-.88-.14,1.22,1.22,0,0,1-.08-.19c-.74-2.09-.73-8.23-.49-12.41a3.4,3.4,0,0,1,.86-.43c1.4,3.37,3.55,8.65,4.31,10.91a6.43,6.43,0,0,1,.26,1,7.25,7.25,0,0,1-1,.52,7.7,7.7,0,0,1-3,.73Z" fill="url(#radial-gradient-17)"/><path d="M77.71,181s-6,.29-7.23,3.86c0,0-.78,10.83.64,14.87.79,2.24,2.7,3,4.74,3a11.71,11.71,0,0,0,4.69-1.1c3-1.39,4-2.8,2.82-6.43S77.71,181,77.71,181Z" fill="#8a6fe8"/><g clip-path="url(#clip-path-4)"><ellipse cx="75.25" cy="178.29" rx="20.45" ry="11.71" transform="translate(-29.09 15.31) rotate(-9.74)" fill="url(#radial-gradient-18)" style="mix-blend-mode:multiply"/></g><g clip-path="url(#clip-path-5)"><ellipse cx="75.25" cy="178.29" rx="20.45" ry="11.71" transform="translate(-29.09 15.31) rotate(-9.74)" fill="url(#radial-gradient-19)" style="mix-blend-mode:multiply"/></g><g clip-path="url(#clip-path-6)"><ellipse cx="75.25" cy="178.29" rx="20.45" ry="11.71" transform="translate(-29.09 15.31) rotate(-9.74)" fill="url(#radial-gradient-18)" style="mix-blend-mode:multiply"/></g><path d="M86.78,178c-.55-7.63-5.62-15.17-12.69-14.38S61.51,169,64,181.89C65.37,188.65,87.05,181.72,86.78,178Z" fill="url(#radial-gradient-21)"/><ellipse cx="75.52" cy="180.17" rx="11.52" ry="4.38" transform="translate(-38.45 21.5) rotate(-12.95)" fill="#512bd4"/><ellipse cx="75.52" cy="180.17" rx="7.57" ry="2.88" transform="translate(-38.45 21.5) rotate(-12.95)" fill="url(#radial-gradient-22)"/><ellipse cx="76.51" cy="183.68" rx="11.28" ry="2.92" transform="translate(-39.21 21.81) rotate(-12.95)" fill="none" stroke-miterlimit="10" stroke-width="6" stroke="url(#radial-gradient-23)"/><ellipse cx="76.39" cy="187.03" rx="14.81" ry="3.84" transform="translate(-39.96 21.87) rotate(-12.95)" fill="none" stroke-miterlimit="10" stroke-width="6" opacity="0.6" stroke="url(#radial-gradient-24)"/><ellipse cx="76.23" cy="191.5" rx="18.99" ry="4.92" transform="translate(-40.97 21.95) rotate(-12.95)" fill="none" stroke-miterlimit="10" stroke-width="6" opacity="0.3" stroke="url(#radial-gradient-25)"/><circle cx="92.91" cy="54.18" r="9.48" fill="#c2e8e3" opacity="0.7"/><path d="M93.68,62.1c-3.31.6-8.23-2.1-9.21-7A22.22,22.22,0,0,0,93.68,62.1Z" fill="#e8fafe"/><circle cx="84.95" cy="38.62" r="5.76" fill="#c2e8e3" opacity="0.7"/><path d="M80.48,36.78a5.3,5.3,0,0,1,6.39-2.94A13.45,13.45,0,0,0,80.48,36.78Z" fill="#e8fafe"/><rect x="107.32" y="58.41" width="2.02" height="13.23" transform="translate(-17.63 55.06) rotate(-26.45)" fill="#8a6fe8"/><path d="M122.12,68.72a54,54,0,0,0-17.52,9.4,10,10,0,0,1-1-4.27,10,10,0,0,1,10-9.95c.42,0,.83,0,1.23.07A10,10,0,0,1,122.12,68.72Z" fill="#512bd4"/><path d="M102,59.15h0Zm0,0h0Z" fill="#d8cff7"/><path d="M110.74,52.44a15.1,15.1,0,0,1-.8,4h0c-2.69,2.4-4.58,2.88-7,2.81a4.64,4.64,0,0,0,1.85-.43c4.19-2,4.55-10.35.8-18.28a24.41,24.41,0,0,0-7.47-9.43,9.28,9.28,0,0,0-5.17-2,4.65,4.65,0,0,0-2,.43,4.87,4.87,0,0,0-2,1.83c1-2.11,2.36-3.42,5.7-4.68a13,13,0,0,1,5,2.27,26.94,26.94,0,0,1,8.32,10.43A27,27,0,0,1,110.74,52.44Z" fill="#c9bdf2"/><path d="M102.94,59.21a5.56,5.56,0,0,1-.9-.05Z" fill="#d8cff7"/><path d="M109.93,56.4a8,8,0,0,1-4,4.72,7.21,7.21,0,0,1-3.11.69,11.61,11.61,0,0,1-6.51-2.34.91.91,0,0,1-.16-.11A26.94,26.94,0,0,1,87.8,48.93,27.94,27.94,0,0,1,85,37.2c0-.45,0-.89,0-1.32.31-4.26,2-7.35,4.84-8.68a7.54,7.54,0,0,1,4.81-.51C91.3,28,90,29.26,88.94,31.37a10.29,10.29,0,0,0-1.37,5.07,24.9,24.9,0,0,0,2.57,11.38c2.23,4.7,5.49,8.37,8.66,10.17a8.84,8.84,0,0,0,3.08,1.15H102a5.56,5.56,0,0,0,.9.05C105.35,59.28,107.24,58.8,109.93,56.4Z" fill="#d8cff7"/><circle cx="106.41" cy="35.2" r="9.48" fill="#c2e8e3" opacity="0.7"/><path d="M101.72,28.78c2.53-2.21,8.15-2.39,11.5,1.34A22.16,22.16,0,0,0,101.72,28.78Z" fill="#e8fafe"/><circle cx="120.69" cy="46.88" r="5.76" fill="#c2e8e3" opacity="0.7"/><path d="M122.72,42.49A5.31,5.31,0,0,1,125.39,49,13.46,13.46,0,0,0,122.72,42.49Z" fill="#e8fafe"/><circle cx="126.95" cy="34.56" r="2.85" fill="#c2e8e3" opacity="0.7"/><path d="M128.55,36.34a2.64,2.64,0,0,1-3.48-.05A6.74,6.74,0,0,0,128.55,36.34Z" fill="#e8fafe"/><circle cx="75.91" cy="51.86" r="2.85" fill="#c2e8e3" opacity="0.7"/><path d="M76.19,54.24a2.63,2.63,0,0,1-2.81-2.07A6.65,6.65,0,0,0,76.19,54.24Z" fill="#e8fafe"/><path d="M185.26,122.63c.06-3.93-1.79-7.15-4.13-7.19s-4.29,3.13-4.35,7.07,1.8,7.15,4.14,7.19S185.2,126.57,185.26,122.63Z" fill="#512bd4"/><path d="M181,118.8a4,4,0,0,0,3.92,6.61,11.6,11.6,0,0,0,.37-2.78,10.13,10.13,0,0,0-1.12-5A4,4,0,0,0,181,118.8Z" fill="#8065e0"/><path d="M151.33,123.44a1,1,0,0,0,.88-1.49c-1.23-2.06-5.58-2.22-8.81-.19-1,.61-1.14,1.52.24,1.43s4.77-.63,6.05-.06A4.87,4.87,0,0,0,151.33,123.44Z" fill="#512bd4"/><path d="M161.64,124.89c0,8.42-8.17,15.25-18.24,15.25s-18.23-6.83-18.23-15.25Z" fill="url(#linear-gradient-4)"/><path d="M143.4,141.28c-10.8,0-19.6-7.35-19.6-16.39v-1.15H163v1.15C163,133.93,154.21,141.28,143.4,141.28ZM126.59,126c.7,7.25,8,13,16.81,13s16.11-5.71,16.81-13Z" fill="#f4b246"/><path d="M206.49,124.89c0,8.42-8.16,15.25-18.23,15.25S170,133.31,170,124.89Z" fill="url(#linear-gradient-5)"/><path d="M188.26,141.28c-10.81,0-19.6-7.35-19.6-16.39v-1.15h39.2v1.15C207.86,133.93,199.06,141.28,188.26,141.28ZM171.45,126c.7,7.25,8,13,16.81,13s16.11-5.71,16.81-13Z" fill="#f4b246"/><path d="M162.17,128.44l-1.6-1.86c2.12-1.27,7.09-2.89,10.69.12l-1.93,1.62a5,5,0,0,0-4.55-.87A10.3,10.3,0,0,0,162.17,128.44Z" fill="#f4b246"/><path d="M198.71,148.11a6.37,6.37,0,0,1-8-.64c0,1.31-1.44,1.11-2.73.9a10.4,10.4,0,0,1-4.79-1.55c-2.21.85-4.61.26-6.88-.39l-.87-.25a12.43,12.43,0,0,0-1.36-.22c-2.3-.37-6.32-1.16-7.25-1.13s-5,.76-7.24,1.13a12.22,12.22,0,0,0-1.37.22l-.86.25c-2.28.65-4.68,1.24-6.89.39a10.4,10.4,0,0,1-4.79,1.55c-1.29.21-2.71.41-2.73-.9a6.37,6.37,0,0,1-8,.64c3.1-16.31,29.48-13.29,31.14-13.26h1.46C169.23,134.82,195.61,131.8,198.71,148.11Z" fill="#33312d"/><path d="M172.33,80.56h0l0,0,0,0c-5.22,5-21.08,11.53-40.45,16.3-18.88,4.66-35.6,6.27-42.86,4.51h0a9.68,9.68,0,0,1-1.07-.31h0c-1.53-.52-2.46-1.24-2.69-2.18l-.83-1.58-11.46-22a.84.84,0,0,1,1.35-1l11.5,11.89A1.33,1.33,0,0,0,88,85.51l2.43-27.36a.84.84,0,0,1,1.49-.45l18,22.1a1.33,1.33,0,0,0,2.34-.57L118.28,49a.84.84,0,0,1,1.48-.36l19.17,24.1a1.33,1.33,0,0,0,2.35-.57l5.65-28.26a.84.84,0,0,1,1.54-.27L163.35,67.8a1.33,1.33,0,0,0,2.39-.25l6.6-18.36a.84.84,0,0,1,1.63.28L174,74.65V77C174.28,78.06,173.67,79.25,172.33,80.56Z" fill="#f8b84f"/><polygon points="153.04 69.16 148.8 65.58 151.09 60.52 155.34 64.1 153.04 69.16" fill="#e86e58"/><polygon points="151.09 60.52 152.07 64.84 155.34 64.1 151.09 60.52" fill="#cc5444"/><polygon points="148.8 65.58 152.07 64.84 153.04 69.16 148.8 65.58" fill="#cc5444"/><polygon points="125.54 76.12 121.29 72.55 123.58 67.49 127.83 71.06 125.54 76.12" fill="#e86e58"/><polygon points="123.58 67.49 124.56 71.8 127.83 71.06 123.58 67.49" fill="#cc5444"/><polygon points="121.29 72.55 124.56 71.8 125.54 76.12 121.29 72.55" fill="#cc5444"/><polygon points="98.52 83.25 94.27 79.67 96.56 74.62 100.81 78.19 98.52 83.25" fill="#e86e58"/><polygon points="96.56 74.62 97.54 78.93 100.81 78.19 96.56 74.62" fill="#cc5444"/><polygon points="94.27 79.67 97.54 78.93 98.52 83.25 94.27 79.67" fill="#cc5444"/><polygon points="81.19 91.34 77.91 87.71 76.95 83.22 81.15 86.83 81.19 91.34" fill="#e86e58"/><polygon points="76.95 83.22 77.91 87.71 81.15 86.83 76.95 83.22" fill="#cc5444"/><polygon points="173.99 58.49 172.93 63.19 174.02 67.64 176.24 62.58 173.99 58.49" fill="#e86e58"/><polygon points="174.02 67.64 172.93 63.19 176.24 62.58 174.02 67.64" fill="#cc5444"/><polygon points="131.28 76.2 129.98 76.56 129.02 75.61 129.37 74.3 130.67 73.95 131.62 74.9 131.28 76.2" fill="#227be5"/><polygon points="130.32 75.25 129.37 74.3 130.67 73.95 130.32 75.25" fill="#0064da"/><polygon points="129.02 75.61 130.32 75.25 129.98 76.56 129.02 75.61" fill="#0064da"/><polygon points="131.28 76.2 130.32 75.25 131.62 74.9 131.28 76.2" fill="#0064da"/><polygon points="122.14 78.81 120.83 79.16 119.88 78.21 120.22 76.91 121.52 76.56 122.48 77.5 122.14 78.81" fill="#227be5"/><polygon points="121.18 77.86 120.22 76.91 121.52 76.56 121.18 77.86" fill="#0064da"/><polygon points="119.88 78.21 121.18 77.86 120.83 79.16 119.88 78.21" fill="#0064da"/><polygon points="122.14 78.81 121.18 77.86 122.48 77.5 122.14 78.81" fill="#0064da"/><polygon points="158.75 69.88 157.42 70.1 156.57 69.05 157.05 67.79 158.38 67.58 159.23 68.62 158.75 69.88" fill="#227be5"/><polygon points="157.9 68.84 157.05 67.79 158.38 67.58 157.9 68.84" fill="#0064da"/><polygon points="156.57 69.05 157.9 68.84 157.42 70.1 156.57 69.05" fill="#0064da"/><polygon points="158.75 69.88 157.9 68.84 159.23 68.62 158.75 69.88" fill="#0064da"/><polygon points="149.38 71.5 148.05 71.72 147.19 70.67 147.68 69.41 149.01 69.19 149.86 70.24 149.38 71.5" fill="#227be5"/><polygon points="148.53 70.45 147.68 69.41 149.01 69.19 148.53 70.45" fill="#0064da"/><polygon points="147.19 70.67 148.53 70.45 148.05 71.72 147.19 70.67" fill="#0064da"/><polygon points="149.38 71.5 148.53 70.45 149.86 70.24 149.38 71.5" fill="#0064da"/><polygon points="104.22 83.45 102.92 83.8 101.96 82.85 102.3 81.55 103.61 81.19 104.56 82.14 104.22 83.45" fill="#227be5"/><polygon points="103.26 82.5 102.3 81.55 103.61 81.19 103.26 82.5" fill="#0064da"/><polygon points="101.96 82.85 103.26 82.5 102.92 83.8 101.96 82.85" fill="#0064da"/><polygon points="104.22 83.45 103.26 82.5 104.56 82.14 104.22 83.45" fill="#0064da"/><polygon points="95.07 86.05 93.77 86.41 92.81 85.46 93.16 84.16 94.46 83.8 95.42 84.75 95.07 86.05" fill="#227be5"/><polygon points="94.11 85.1 93.16 84.16 94.46 83.8 94.11 85.1" fill="#0064da"/><polygon points="92.81 85.46 94.11 85.1 93.77 86.41 92.81 85.46" fill="#0064da"/><polygon points="95.07 86.05 94.11 85.1 95.42 84.75 95.07 86.05" fill="#0064da"/><polygon points="84.6 90.99 83.3 91.34 82.34 90.39 82.69 89.09 83.99 88.73 84.95 89.68 84.6 90.99" fill="#227be5"/><polygon points="83.64 90.04 82.69 89.09 83.99 88.73 83.64 90.04" fill="#0064da"/><polygon points="82.34 90.39 83.64 90.04 83.3 91.34 82.34 90.39" fill="#0064da"/><polygon points="84.6 90.99 83.64 90.04 84.95 89.68 84.6 90.99" fill="#0064da"/><polygon points="172.49 68.59 171.19 68.95 170.23 68 170.57 66.7 171.88 66.34 172.83 67.29 172.49 68.59" fill="#227be5"/><polygon points="171.53 67.64 170.57 66.7 171.88 66.34 171.53 67.64" fill="#0064da"/><polygon points="170.23 68 171.53 67.64 171.19 68.95 170.23 68" fill="#0064da"/><polygon points="172.49 68.59 171.53 67.64 172.83 67.29 172.49 68.59" fill="#0064da"/><path d="M174.94,76.92c-.26,1.77-1.77,2.88-2.61,3.64h0l0,0,0,0c-5.22,5-21.08,11.53-40.45,16.3-18.88,4.66-35.6,6.27-42.86,4.51h0l-1.07-.31h0c-.2,0-3.26-.47-3.52-2.59-.14-1.21,0-1.17,0-1.17h.09c9.17.84,25.69-.9,44.06-5,21.42-4.78,39-11.33,44.74-16.31l0,0,.05,0h0a2.54,2.54,0,0,0,.73-.76C174.93,75.29,175.09,75.93,174.94,76.92Z" fill="#cc5444"/></g></g></svg>