<svg width="32" height="32" viewBox="0 0 32 32" fill="none" xmlns="http://www.w3.org/2000/svg">
<g clip-path="url(#clip0)">
<path d="M16.8555 31.9683C3.30004 32.1865 1.52425 31.3737 0.52505 26.9551C-1.41217 18.3842 2.76645 14.8116 1.01785 7.71977C-0.611794 1.10591 9.51955 -0.531315 19.984 0.138232C30.4484 0.807778 31.9998 3.70748 30.2359 9.36698C28.9971 13.3393 29.3251 18.2876 31.6022 23.3059C33.8793 28.3241 26.0862 31.8184 16.8555 31.9683Z" fill="url(#paint0_linear)"/>
<path d="M19.9841 0.138232C9.5197 -0.531315 -0.611684 1.10591 1.01797 7.71976C1.03836 7.80637 1.05875 7.89131 1.07914 7.97626C6.35895 5.09654 8.44572 5.17149 6.13124 6.80705C4.11074 8.23608 5.82706 8.21776 7.07946 7.92296C8.97591 7.4766 9.47042 8.07119 8.63435 8.55586C7.2273 9.37198 7.7473 10.0249 9.5061 9.48524C15.8038 7.55154 25.58 9.05886 29.6329 12.245C29.7468 11.2424 29.949 10.2797 30.2328 9.36865C32.0001 3.70748 30.4469 0.807778 19.9841 0.138232Z" fill="#27BEE0"/>
<path d="M27.0175 7.54484C26.9258 7.808 26.7575 8.03619 26.5366 8.20108C26.4975 8.22939 26.4958 8.28269 26.5315 8.31434C26.7524 8.50421 26.9207 8.74739 27.0141 9.02554C27.0379 9.09549 27.1348 9.09549 27.1586 9.02554C27.2537 8.74739 27.4237 8.50255 27.6412 8.31434C27.6769 8.28269 27.6769 8.22939 27.6361 8.20108C27.4135 8.03619 27.2453 7.808 27.1552 7.54484C27.1348 7.47822 27.0396 7.47822 27.0175 7.54484Z" fill="#8EE8FC"/>
<path d="M15.2803 3.09959C15.4427 3.09959 15.5743 2.97059 15.5743 2.81145C15.5743 2.65232 15.4427 2.52332 15.2803 2.52332C15.1179 2.52332 14.9863 2.65232 14.9863 2.81145C14.9863 2.97059 15.1179 3.09959 15.2803 3.09959Z" fill="#8EE8FC"/>
<path d="M17.8293 2.51327C18.0564 2.51327 18.2406 2.33282 18.2406 2.11021C18.2406 1.88761 18.0564 1.70715 17.8293 1.70715C17.6022 1.70715 17.4181 1.88761 17.4181 2.11021C17.4181 2.33282 17.6022 2.51327 17.8293 2.51327Z" fill="#8EE8FC"/>
<path d="M24.1338 3.36268C22.1932 2.70813 20.5126 2.47662 20.3835 2.84803C20.2526 3.21778 21.7225 4.05054 23.6631 4.7051C25.6037 5.35965 27.2843 5.59116 27.4135 5.21975C27.5443 4.84833 26.0744 4.01723 24.1338 3.36268ZM23.6937 4.61516C21.9349 4.02223 20.6027 3.28107 20.7148 2.95962C20.827 2.63817 22.3445 2.85969 24.1015 3.45262C25.8603 4.04555 27.1926 4.78671 27.0804 5.10816C26.9683 5.42794 25.4525 5.20809 23.6937 4.61516Z" fill="#33D5F9"/>
<path d="M24.1338 3.36268C22.1932 2.70813 20.5126 2.47662 20.3835 2.84803C20.2526 3.21778 21.7225 4.05054 23.6631 4.7051C25.6037 5.35965 27.2843 5.59116 27.4135 5.21975C27.5443 4.84833 26.0744 4.01723 24.1338 3.36268ZM23.6937 4.61516C21.9349 4.02223 20.6027 3.28107 20.7148 2.95962C20.827 2.63817 22.3445 2.85969 24.1015 3.45262C25.8603 4.04555 27.1926 4.78671 27.0804 5.10816C26.9683 5.42794 25.4525 5.20809 23.6937 4.61516Z" fill="#33D5F9"/>
<path d="M23.9809 5.62784C24.972 5.62784 25.7754 4.8404 25.7754 3.86904C25.7754 2.89767 24.972 2.11023 23.9809 2.11023C22.9898 2.11023 22.1864 2.89767 22.1864 3.86904C22.1864 4.8404 22.9898 5.62784 23.9809 5.62784Z" fill="url(#paint1_radial)"/>
<path d="M25.8077 4.02058L25.755 4.10719C26.6199 4.51358 27.0414 4.8317 26.9683 5.03989C26.8561 5.36134 25.563 5.07653 23.8042 4.4836C22.0454 3.89067 20.7709 3.32272 20.8831 3.00127C20.9561 2.79141 21.4642 2.76976 22.4175 2.97628L22.4566 2.88301C21.3062 2.62153 20.4718 2.58821 20.3818 2.84637C20.2509 3.21612 21.7208 4.04889 23.6614 4.70345C25.602 5.35801 27.2827 5.58952 27.4118 5.2181C27.5019 4.9666 26.8476 4.50025 25.8077 4.02058Z" fill="#33D5F9"/>
<path d="M4.45855 10.2198C4.45855 10.2181 4.46365 10.0182 4.36509 9.82003C4.23764 9.56021 3.99804 9.42197 3.65817 9.41198C3.63268 9.41198 3.61229 9.39033 3.61399 9.36701C3.61569 9.3437 3.63608 9.32371 3.66157 9.32537C4.47554 9.35036 4.51123 8.60087 4.51123 8.56923C4.51123 8.54591 4.53162 8.52759 4.55711 8.52759C4.5826 8.52759 4.60299 8.54591 4.60299 8.56923C4.60299 8.57089 4.61149 8.77075 4.71514 8.97062C4.85109 9.2321 5.08389 9.36868 5.40337 9.37867C5.42885 9.37867 5.44925 9.40032 5.44755 9.42364C5.44585 9.44696 5.42546 9.46694 5.39997 9.46528C5.09069 9.45528 4.85449 9.57853 4.69815 9.83169C4.5775 10.0249 4.55031 10.2231 4.55031 10.2264C4.54691 10.2497 4.52482 10.2664 4.50103 10.2647C4.47724 10.2614 4.45855 10.2414 4.45855 10.2198Z" fill="#8EE8FC"/>
<path d="M3.78812 8.59467C3.78933 8.55605 3.75685 8.5237 3.71558 8.52241C3.67431 8.52112 3.63987 8.55137 3.63866 8.58999C3.63745 8.62861 3.66993 8.66096 3.7112 8.66225C3.75247 8.66354 3.78691 8.63328 3.78812 8.59467Z" fill="#8EE8FC"/>
<path d="M3.9708 8.77843C3.97203 8.73983 3.93957 8.70751 3.89829 8.70624C3.85702 8.70498 3.82256 8.73525 3.82132 8.77385C3.82009 8.81246 3.85255 8.84478 3.89383 8.84604C3.93511 8.84731 3.96956 8.81704 3.9708 8.77843Z" fill="#8EE8FC"/>
<path d="M4.15245 8.96239C4.15369 8.92379 4.12122 8.89147 4.07994 8.8902C4.03866 8.88894 4.0042 8.91921 4.00296 8.95781C4.00173 8.99642 4.0342 9.02874 4.07548 9.03C4.11676 9.03127 4.15122 9.001 4.15245 8.96239Z" fill="#8EE8FC"/>
<path d="M5.03288 9.84908C5.03409 9.81048 5.00161 9.77814 4.96034 9.77684C4.91906 9.77555 4.88462 9.8058 4.88341 9.84441C4.88221 9.88301 4.91469 9.91535 4.95596 9.91664C4.99724 9.91794 5.03168 9.88769 5.03288 9.84908Z" fill="#8EE8FC"/>
<path d="M5.21454 10.0313C5.21578 9.99269 5.18332 9.96035 5.14205 9.95909C5.10078 9.95782 5.06633 9.98811 5.0651 10.0267C5.06387 10.0654 5.09632 10.0977 5.13759 10.099C5.17886 10.1002 5.21331 10.07 5.21454 10.0313Z" fill="#8EE8FC"/>
<path d="M5.39633 10.2152C5.39757 10.1766 5.36511 10.1442 5.32383 10.143C5.28255 10.1417 5.24809 10.172 5.24686 10.2106C5.24563 10.2492 5.27809 10.2815 5.31937 10.2828C5.36064 10.2841 5.3951 10.2538 5.39633 10.2152Z" fill="#8EE8FC"/>
<path d="M5.4459 8.64599C5.44713 8.60738 5.41467 8.57506 5.37339 8.5738C5.33211 8.57253 5.29765 8.6028 5.29642 8.64141C5.29519 8.68001 5.32765 8.71233 5.36893 8.71359C5.4102 8.71486 5.44466 8.68459 5.4459 8.64599Z" fill="#8EE8FC"/>
<path d="M5.25339 8.81845C5.25462 8.77983 5.22216 8.74749 5.18088 8.74623C5.13961 8.74496 5.10515 8.77524 5.10392 8.81386C5.10268 8.85248 5.13514 8.88482 5.17642 8.88608C5.2177 8.88735 5.25216 8.85707 5.25339 8.81845Z" fill="#8EE8FC"/>
<path d="M5.05937 8.98922C5.06058 8.95061 5.0281 8.91827 4.98682 8.91698C4.94555 8.91569 4.91111 8.94594 4.9099 8.98454C4.90869 9.02315 4.94117 9.05549 4.98245 9.05678C5.02372 9.05807 5.05816 9.02782 5.05937 8.98922Z" fill="#8EE8FC"/>
<path d="M4.12606 9.82076C4.12729 9.78213 4.09483 9.74979 4.05356 9.74853C4.01229 9.74726 3.97783 9.77755 3.9766 9.81617C3.97536 9.8548 4.00782 9.88713 4.0491 9.8884C4.09037 9.88967 4.12482 9.85938 4.12606 9.82076Z" fill="#8EE8FC"/>
<path d="M3.93198 9.99301C3.93321 9.95439 3.90075 9.92205 3.85947 9.92079C3.8182 9.91952 3.78374 9.9498 3.78251 9.98842C3.78127 10.027 3.81373 10.0594 3.85501 10.0606C3.89629 10.0619 3.93075 10.0316 3.93198 9.99301Z" fill="#8EE8FC"/>
<path d="M3.73955 10.1656C3.74076 10.127 3.70828 10.0946 3.667 10.0933C3.62573 10.092 3.59129 10.1223 3.59008 10.1609C3.58887 10.1995 3.62135 10.2319 3.66263 10.2332C3.7039 10.2345 3.73834 10.2042 3.73955 10.1656Z" fill="#8EE8FC"/>
<path d="M0.169922 24.9815C0.253189 25.6094 0.368743 26.2656 0.525081 26.9551C1.52428 31.3738 3.30008 32.1866 16.8556 31.9684C25.6054 31.8268 33.0587 28.6806 31.8759 24.0804C27.2997 22.8029 22.4685 22.1184 17.4742 22.1184C11.411 22.1167 5.58737 23.1261 0.169922 24.9815Z" fill="#77E3FB"/>
<path d="M17.5489 24.2086C19.273 24.2086 20.6706 23.9916 20.6706 23.7239C20.6706 23.4563 19.273 23.2393 17.5489 23.2393C15.8249 23.2393 14.4272 23.4563 14.4272 23.7239C14.4272 23.9916 15.8249 24.2086 17.5489 24.2086Z" fill="#2CC7EA"/>
<path d="M17.5489 23.241C15.8241 23.241 14.4272 23.4575 14.4272 23.7256C14.4272 23.8122 14.5717 23.8922 14.8249 23.9621C15.3687 23.8206 16.3679 23.7256 17.5081 23.7256C18.6773 23.7256 19.6969 23.8256 20.2321 23.9721C20.5108 23.9005 20.6706 23.8156 20.6706 23.7256C20.6706 23.4575 19.272 23.241 17.5489 23.241Z" fill="#1BA6C5"/>
<path d="M27.9005 23.8323C27.924 23.5896 26.8539 23.2919 25.5104 23.1672C24.1668 23.0425 23.0587 23.1381 23.0353 23.3807C23.0118 23.6234 24.0819 23.9212 25.4254 24.0458C26.769 24.1705 27.8771 24.0749 27.9005 23.8323Z" fill="#2CC7EA"/>
<path d="M25.511 23.166C24.1668 23.0411 23.0589 23.1377 23.0351 23.3792C23.0283 23.4575 23.1337 23.5407 23.324 23.6223C23.7607 23.5324 24.5475 23.5191 25.4362 23.6023C26.3471 23.6873 27.1338 23.8505 27.5366 24.0237C27.7592 23.9787 27.8917 23.9121 27.9002 23.8305C27.924 23.589 26.8535 23.2909 25.511 23.166Z" fill="#1BA6C5"/>
<path d="M25.4201 24.7849C25.4298 24.5671 24.6085 24.3535 23.5857 24.3078C22.5628 24.2621 21.7257 24.4016 21.716 24.6194C21.7063 24.8372 22.5276 25.0508 23.5504 25.0965C24.5733 25.1422 25.4104 25.0027 25.4201 24.7849Z" fill="#2CC7EA"/>
<path d="M23.5863 24.3069C22.5633 24.2619 21.7255 24.4018 21.717 24.62C21.7136 24.69 21.7969 24.76 21.9447 24.8233C22.2727 24.7216 22.8692 24.67 23.5455 24.7C24.2389 24.73 24.8405 24.8383 25.1514 24.9715C25.3197 24.9199 25.4165 24.8549 25.4199 24.7816C25.4318 24.5651 24.6093 24.3518 23.5863 24.3069Z" fill="#1BA6C5"/>
<path d="M11.4131 23.6725C12.4605 23.5667 13.2974 23.3651 13.2824 23.2224C13.2674 23.0797 12.4061 23.0498 11.3587 23.1557C10.3113 23.2616 9.47434 23.4631 9.48936 23.6058C9.50438 23.7486 10.3657 23.7784 11.4131 23.6725Z" fill="#2CC7EA"/>
<path d="M11.3577 23.1543C12.4045 23.0477 13.266 23.0794 13.2813 23.2209C13.2864 23.2676 13.2032 23.3192 13.0519 23.3725C12.7138 23.3309 12.102 23.3408 11.4087 23.4108C10.6984 23.4824 10.0849 23.599 9.76883 23.7106C9.5955 23.6889 9.49354 23.654 9.48844 23.6057C9.47485 23.4624 10.3109 23.2609 11.3577 23.1543Z" fill="#1BA6C5"/>
<path d="M3.63764 26.8044C4.72441 26.5254 5.56668 26.1543 5.5189 25.9755C5.47112 25.7966 4.55138 25.8777 3.4646 26.1566C2.37783 26.4355 1.53556 26.8066 1.58334 26.9855C1.63113 27.1644 2.55087 27.0833 3.63764 26.8044Z" fill="#2CC7EA"/>
<path d="M3.46325 26.1557C4.55082 25.8776 5.47016 25.796 5.51774 25.9742C5.53303 26.0325 5.45656 26.1091 5.30872 26.1973C4.93997 26.1907 4.29422 26.289 3.57371 26.4738C2.8362 26.6637 2.21085 26.8952 1.90157 27.0801C1.71295 27.0768 1.59739 27.0468 1.5804 26.9851C1.53452 26.8053 2.37738 26.4355 3.46325 26.1557Z" fill="#1BA6C5"/>
<path d="M21.0513 22.3216C22.0182 22.2933 22.1796 21.5121 22.1796 21.5121L25.2724 21.9535C25.2724 21.9535 25.1772 22.5614 25.7465 22.7829C26.314 23.0061 21.0513 22.3216 21.0513 22.3216Z" fill="#77E3FB"/>
<path d="M0.781738 24.9165C1.42748 24.6566 1.50225 23.9871 1.50225 23.9871L8.33181 22.3132C8.33181 22.3132 8.33181 22.8712 9.39389 22.8712C10.456 22.8712 0.781738 24.9165 0.781738 24.9165Z" fill="#77E3FB"/>
<path d="M10.8944 22.5714C11.5537 22.2749 11.5707 21.7036 11.5707 21.7036L14.1741 21.4288C14.1741 21.4288 14.6686 22.1367 15.1036 22.1817C15.5369 22.2283 10.8944 22.5714 10.8944 22.5714Z" fill="#77E3FB"/>
<path d="M5.12646 25.2996C6.73133 24.924 8.00281 24.4983 7.9664 24.3489C7.93 24.1994 6.59948 24.3828 4.99461 24.7585C3.38975 25.1342 2.11826 25.5599 2.15467 25.7093C2.19108 25.8587 3.52159 25.6753 5.12646 25.2996Z" fill="#2CC7EA"/>
<path d="M2.91257 21.9268L2.15466 23.3325L2.88538 25.5576L3.15217 25.4943C3.15217 25.4943 3.17086 24.3551 3.88288 23.7372C4.43177 23.2642 2.91257 21.9268 2.91257 21.9268Z" fill="#B2B2B2"/>
<path d="M5.56015 21.304L6.88733 22.22L7.26628 24.5284L6.99948 24.5917C6.99948 24.5917 6.4557 23.5841 5.53466 23.3509C4.82604 23.1727 5.56015 21.304 5.56015 21.304Z" fill="#6D6A66"/>
<path d="M2.91257 21.9268L2.15466 23.3325L2.88538 25.5576L3.15217 25.4943C3.15217 25.4943 3.17086 24.3551 3.88288 23.7372C4.43177 23.2642 2.91257 21.9268 2.91257 21.9268Z" fill="#6D6A66"/>
<path d="M2.32968 18.8389C2.41124 17.2816 3.0145 16.5937 3.023 16.582C3.03659 16.587 3.89305 16.9318 4.68664 18.2842C5.48702 19.6467 5.77081 22.0168 5.63656 23.3659C5.59068 23.8206 4.85657 24.0171 4.84468 24.0205C4.83278 24.0221 4.08678 24.1737 3.83698 23.789C3.09097 22.6464 2.24641 20.4079 2.32968 18.8389Z" fill="white"/>
<path d="M2.35859 18.4808C2.36538 18.4242 2.37048 18.3659 2.37898 18.3126C2.38408 18.281 2.38917 18.251 2.39427 18.2194C2.40277 18.1711 2.40957 18.1228 2.41806 18.0778C2.42316 18.0461 2.42996 18.0162 2.43676 17.9862C2.44525 17.9429 2.45375 17.9012 2.46395 17.8596C2.47074 17.8313 2.47754 17.803 2.48434 17.7747C2.49453 17.7364 2.50473 17.6964 2.51493 17.6597C2.52172 17.6331 2.53022 17.6081 2.53702 17.5831C2.54721 17.5465 2.55911 17.5115 2.5693 17.4782C2.5778 17.4549 2.5846 17.4316 2.5931 17.4099C2.60499 17.3766 2.61689 17.345 2.62878 17.3133C2.63728 17.2933 2.64408 17.2733 2.65257 17.2534C2.66447 17.2234 2.67636 17.1934 2.68996 17.1651C2.69676 17.1484 2.70525 17.1301 2.71205 17.1134C2.72564 17.0851 2.73754 17.0585 2.74943 17.0318C2.75623 17.0185 2.76303 17.0035 2.76983 16.9902C2.78342 16.9635 2.79532 16.9386 2.80891 16.9152C2.81401 16.9053 2.81911 16.8936 2.8259 16.8853C2.8412 16.8586 2.85479 16.8336 2.86839 16.812C2.87179 16.807 2.87519 16.802 2.87689 16.797C2.90917 16.742 2.93976 16.6987 2.96185 16.6654C2.96695 16.6588 2.97035 16.6538 2.97545 16.6471C2.98224 16.6388 2.98734 16.6304 2.99244 16.6238C2.99754 16.6171 3.00264 16.6121 3.00603 16.6071C3.00773 16.6055 3.00943 16.6021 3.01113 16.6005C2.65767 19.3169 2.91767 21.7719 4.21257 24.0237C4.06302 23.9904 3.92028 23.9221 3.83701 23.7922C3.0927 22.6497 2.24813 20.4112 2.3297 18.8406C2.3348 18.7473 2.34159 18.6557 2.35009 18.5691C2.35179 18.5375 2.35689 18.5092 2.35859 18.4808Z" fill="#B0D1F7"/>
<path d="M3.74186 20.0131C4.02248 20.0131 4.24996 19.7901 4.24996 19.5151C4.24996 19.24 4.02248 19.0171 3.74186 19.0171C3.46125 19.0171 3.23376 19.24 3.23376 19.5151C3.23376 19.7901 3.46125 20.0131 3.74186 20.0131Z" fill="#F7B548"/>
<path d="M4.27714 21.7037C4.27884 21.7037 4.27884 21.7037 4.27714 21.7037H4.27884C4.45048 21.6704 4.86512 22.5631 4.86512 22.5631L5.14721 25.0265L5.12851 25.0315L5.05034 25.0498L5.04015 25.0514L4.15139 22.7297C4.15139 22.7297 4.10891 21.7503 4.27714 21.7037Z" fill="#6D6A66"/>
<path d="M3.40878 18.2077C3.05192 18.291 2.70186 18.2927 2.39258 18.2244C2.57101 17.0984 3.01454 16.5904 3.02303 16.582C3.03493 16.587 3.66198 16.8402 4.33832 17.7563C4.09362 17.9612 3.77414 18.1228 3.40878 18.2077Z" fill="#DDDBDA"/>
<path d="M2.87689 18.2726C2.70865 18.2742 2.54552 18.2576 2.39258 18.2243C2.55401 17.2 2.93636 16.6887 3.00943 16.597C2.90747 17.1617 2.86669 17.7229 2.87689 18.2726Z" fill="#908D89"/>
<path d="M10.8391 30.8348C13.4819 30.5842 15.5718 29.8488 15.507 29.1924C15.4422 28.5359 13.2472 28.2069 10.6044 28.4576C7.96153 28.7082 5.87164 29.4436 5.93645 30.1C6.00127 30.7565 8.19625 31.0855 10.8391 30.8348Z" fill="#2CC7EA"/>
<path d="M15.5064 29.1902C15.4418 28.5339 13.2463 28.2058 10.6038 28.4557C7.96138 28.7055 5.87121 29.4417 5.93578 30.0979C5.94088 30.1512 5.96127 30.2029 5.99356 30.2512C6.6444 29.7415 8.34882 29.2635 10.3795 29.0703C12.8062 28.8404 14.8555 29.0986 15.2243 29.6516C15.4197 29.4983 15.52 29.3418 15.5064 29.1902Z" fill="#1BA6C5"/>
</g>
<defs>
<linearGradient id="paint0_linear" x1="16" y1="-4.68576e-06" x2="16" y2="32.0001" gradientUnits="userSpaceOnUse">
<stop offset="0.2292" stop-color="#33D5F9"/>
<stop offset="0.6349" stop-color="#29C3E5"/>
</linearGradient>
<radialGradient id="paint1_radial" cx="0" cy="0" r="1" gradientUnits="userSpaceOnUse" gradientTransform="translate(24.2271 3.33868) scale(2.6229 2.57075)">
<stop stop-color="#33D5F9"/>
<stop offset="1" stop-color="#2CC7EA"/>
</radialGradient>
<clipPath id="clip0">
<rect width="32" height="32" fill="white"/>
</clipPath>
</defs>
</svg>
