<?xml version="1.0" encoding="utf-8"?>
<!-- Generator: Adobe Illustrator 26.0.0, SVG Export Plug-In . SVG Version: 6.00 Build 0)  -->
<svg version="1.1" xmlns="http://www.w3.org/2000/svg" xmlns:xlink="http://www.w3.org/1999/xlink" x="0px" y="0px"
	 viewBox="0 0 214.74 150" style="enable-background:new 0 0 214.74 150;" xml:space="preserve">
<style type="text/css">
	.st0{fill:#8A6FE8;}
	.st1{fill:url(#SVGID_1_);}
	.st2{fill:url(#SVGID_00000013878357057068376300000009265854423061093008_);}
	.st3{fill:url(#SVGID_00000082369204723757448950000012352409322100629425_);}
	.st4{fill:url(#SVGID_00000138563766801023336490000015051258638052086452_);}
	.st5{fill:#E3DBFF;}
	.st6{fill:#9127B2;}
	.st7{fill:#AE25A3;}
	.st8{fill:none;stroke:#9127B2;stroke-width:8;stroke-linecap:round;stroke-miterlimit:10;}
	.st9{fill:none;stroke:#AE25A3;stroke-width:8;stroke-linecap:round;stroke-miterlimit:10;}
	.st10{fill:#FFBE46;}
	.st11{fill:#FFBC46;}
	.st12{fill:#FFBB47;}
	.st13{fill:#FFB947;}
	.st14{fill:#FFB848;}
	.st15{fill:#FFB648;}
	.st16{fill:#FFB549;}
	.st17{fill:#FFB349;}
	.st18{fill:#FFB14A;}
	.st19{fill:#FFB04A;}
	.st20{fill:#FFAE4B;}
	.st21{fill:#FFAD4B;}
	.st22{fill:#FFAB4C;}
	.st23{fill:#FFAA4C;}
	.st24{fill:#FFA84D;}
	.st25{fill:#FFA74D;}
	.st26{fill:#FFA54E;}
	.st27{fill:#FFA34E;}
	.st28{fill:#FFA24F;}
	.st29{fill:#FFA04F;}
	.st30{fill:#FF9F50;}
	.st31{fill:#FF9D50;}
	.st32{fill:#FF9C51;}
	.st33{fill:#FF9A51;}
	.st34{fill:#FF9852;}
	.st35{fill:#FF9752;}
	.st36{fill:#FF9553;}
	.st37{fill:#FF9453;}
	.st38{fill:#FF9254;}
	.st39{fill:#FF9154;}
	.st40{fill:#FF8F55;}
	.st41{fill:#FF8E55;}
	.st42{fill:#FF8C56;}
	.st43{fill:#FF8A56;}
	.st44{fill:#FF8957;}
	.st45{fill:#FF8757;}
	.st46{fill:#FF8658;}
	.st47{fill:#FF8458;}
	.st48{fill:#FF8359;}
	.st49{fill:#FF8159;}
	.st50{fill:#FF7F5A;}
	.st51{fill:#FF7E5A;}
	.st52{fill:#FF7C5B;}
	.st53{fill:#FF7B5B;}
	.st54{fill:#FF795C;}
	.st55{fill:#FF785C;}
	.st56{fill:#FF765D;}
	.st57{fill:#FF745D;}
	.st58{fill:#FF735E;}
	.st59{fill:#FF715E;}
	.st60{fill:#FF705F;}
	.st61{fill:#FF6E5F;}
	.st62{fill:#FF6D60;}
	.st63{fill:#FF6B60;}
	.st64{fill:#FF6A61;}
	.st65{fill:#FF6861;}
	.st66{fill:#FF6662;}
	.st67{fill:#FF6562;}
	.st68{fill:#FF6363;}
	.st69{fill:#FF6263;}
	.st70{fill:#FF6064;}
	.st71{fill:#FF5F64;}
	.st72{fill:#FF5D65;}
	.st73{fill:#FF5B65;}
	.st74{fill:#FF5A66;}
	.st75{fill:#FF5866;}
	.st76{fill:#FF5767;}
	.st77{fill:#FF5567;}
	.st78{fill:#FF5468;}
	.st79{fill:#FF5268;}
	.st80{fill:#FF5069;}
	.st81{fill:#FF4F69;}
	.st82{fill:#FF4D6A;}
	.st83{fill:#FF4C6A;}
	.st84{fill:#FF4A6B;}
	.st85{fill:#FF496B;}
	.st86{fill:#FF476C;}
	.st87{fill:#FF466C;}
	.st88{fill:#FF446D;}
	.st89{fill:#FF426D;}
	.st90{fill:#FF416E;}
	.st91{fill:#FF3F6E;}
	.st92{fill:#FF3E6F;}
	.st93{fill:#FF3C6F;}
	.st94{fill:#FF3B70;}
	.st95{fill:#FF3970;}
	.st96{fill:#FF3771;}
	.st97{fill:#FF3671;}
	.st98{fill:#FF3472;}
	.st99{fill:#FF3372;}
	.st100{fill:#FF3173;}
	.st101{fill:#FF3073;}
	.st102{fill:#FF2E74;}
	.st103{fill:#FF2D74;}
	.st104{fill:#FF2B75;}
	.st105{fill:#FF2975;}
	.st106{fill:#FF2876;}
	.st107{fill:#FF2676;}
	.st108{fill:#FF2577;}
	.st109{fill:#FF2377;}
	.st110{fill:#FF2278;}
	.st111{fill:#FF2078;}
	.st112{fill:#FD2079;}
	.st113{fill:#FC207A;}
	.st114{fill:#FA207B;}
	.st115{fill:#F8207C;}
	.st116{fill:#F6217D;}
	.st117{fill:#F5217D;}
	.st118{fill:#F3217E;}
	.st119{fill:#F1217F;}
	.st120{fill:#EF2180;}
	.st121{fill:#EE2181;}
	.st122{fill:#EC2182;}
	.st123{fill:#EA2183;}
	.st124{fill:#E92184;}
	.st125{fill:#E72285;}
	.st126{fill:#E52286;}
	.st127{fill:#E32287;}
	.st128{fill:#E22287;}
	.st129{fill:#E02288;}
	.st130{fill:#DE2289;}
	.st131{fill:#DD228A;}
	.st132{fill:#DB228B;}
	.st133{fill:#D9228C;}
	.st134{fill:#D7238D;}
	.st135{fill:#D6238E;}
	.st136{fill:#D4238F;}
	.st137{fill:#D22390;}
	.st138{fill:#D02391;}
	.st139{fill:#CF2392;}
	.st140{fill:#CD2392;}
	.st141{fill:#CB2393;}
	.st142{fill:#CA2394;}
	.st143{fill:#C82395;}
	.st144{fill:#C62496;}
	.st145{fill:#C42497;}
	.st146{fill:#C32498;}
	.st147{fill:#C12499;}
	.st148{fill:#BF249A;}
	.st149{fill:#BE249B;}
	.st150{fill:#BC249C;}
	.st151{fill:#BA249C;}
	.st152{fill:#B8249D;}
	.st153{fill:#B7259E;}
	.st154{fill:#B5259F;}
	.st155{fill:#B325A0;}
	.st156{fill:#B125A1;}
	.st157{fill:#B025A2;}
	.st158{fill:#AC25A4;}
	.st159{fill:#AB25A5;}
	.st160{fill:#A925A6;}
	.st161{fill:#A726A6;}
	.st162{fill:#A526A7;}
	.st163{fill:#A426A8;}
	.st164{fill:#A226A9;}
	.st165{fill:#A026AA;}
	.st166{fill:#9F26AB;}
	.st167{fill:#9D26AC;}
	.st168{fill:#9B26AD;}
	.st169{fill:#9926AE;}
	.st170{fill:#9827AF;}
	.st171{fill:#9627B0;}
	.st172{fill:#9427B0;}
	.st173{fill:#9227B1;}
	.st174{fill:#8F27B3;}
	.st175{fill:#8D27B4;}
	.st176{fill:#8C27B5;}
	.st177{fill:#8A27B6;}
	.st178{fill:#8828B7;}
	.st179{fill:#8628B8;}
	.st180{fill:#8528B9;}
	.st181{fill:#8328BA;}
	.st182{fill:#8128BA;}
	.st183{fill:#8028BB;}
	.st184{fill:#7E28BC;}
	.st185{fill:#7C28BD;}
	.st186{fill:#7A28BE;}
	.st187{fill:#7928BF;}
	.st188{fill:#7729C0;}
	.st189{fill:#7529C1;}
	.st190{fill:#7329C2;}
	.st191{fill:#7229C3;}
	.st192{fill:#7029C4;}
	.st193{fill:#6E29C5;}
	.st194{fill:#6D29C5;}
	.st195{fill:#6B29C6;}
	.st196{fill:#6929C7;}
	.st197{fill:#672AC8;}
	.st198{fill:#662AC9;}
	.st199{fill:#642ACA;}
	.st200{fill:#622ACB;}
	.st201{fill:#612ACC;}
	.st202{fill:#5F2ACD;}
	.st203{fill:#5D2ACE;}
	.st204{fill:#5B2ACF;}
	.st205{fill:#5A2ACF;}
	.st206{fill:#582BD0;}
	.st207{fill:#562BD1;}
	.st208{fill:#542BD2;}
	.st209{fill:#532BD3;}
	.st210{fill:#512BD4;}
	.st211{opacity:0.2;fill:#512BD4;enable-background:new    ;}
	.st212{opacity:0.7;fill:#9DCFFF;enable-background:new    ;}
	.st213{fill:url(#SVGID_00000134237578239561258710000011164266894011911589_);}
	.st214{fill:#F4BC1B;}
	.st215{fill:url(#SVGID_00000145045708524898258880000006983309218625732999_);}
	.st216{fill:url(#SVGID_00000124154427242386469580000010220923422570723232_);}
	.st217{fill:#FFD590;}
	.st218{fill:#F7B548;}
	.st219{fill:url(#SVGID_00000116929748954057468500000012498153458893840789_);}
	.st220{fill:#FFFFFF;}
	.st221{fill:url(#SVGID_00000148646161233877380520000010983010952951549841_);}
	.st222{fill:url(#SVGID_00000090283686631968654230000008694578110099127175_);}
	.st223{fill:#F7784E;}
	.st224{fill:#5424D0;}
</style>
<g id="background">
	<g id="background_00000017510810425587778880000014381686766519800450_">
		<g>
			
				<linearGradient id="SVGID_1_" gradientUnits="userSpaceOnUse" x1="-499.4086" y1="-14517.2988" x2="-419.0555" y2="-14378.123" gradientTransform="matrix(1 0 0 1 564 14522)">
				<stop  offset="0" style="stop-color:#FF6F40"/>
				<stop  offset="0.5208" style="stop-color:#FFBE46"/>
			</linearGradient>
			<path class="st1" d="M36.27,40.46c9.38,22.58,10.27,44.64,4.42,62.19c-8.33,25-1.87,38.08,43.71,42.19s89.96-2.08,83.58-31.69
				c-6.84-31.76,11.78-47.21,4.27-85.58C170,16.06,160.74,8.99,146.32,6.28c-14.42-2.71-52.26-4.24-75.9,0S29.48,24.1,36.27,40.46z"
				/>
			<path class="st223" d="M38.17,112.24c-3.31,18.82,6.88,29.06,46.23,32.61c45.58,4.11,89.96-2.08,83.58-31.69
				c-0.04-0.19-0.08-0.38-0.12-0.57C147.35,111.62,74.85,108.6,38.17,112.24z"/>
			<path class="st103" d="M157.72,24.01c0.77,0,1.39-0.62,1.39-1.39c0-0.77-0.62-1.39-1.39-1.39c-0.77,0-1.39,0.62-1.39,1.39
				C156.32,23.39,156.95,24.01,157.72,24.01z"/>
			<path class="st224" d="M109.82,11.24l-2.25,0.92l0.92,2.25l2.25-0.92L109.82,11.24z"/>
			<path class="st103" d="M63.62,18.78l3.84,0.56l1.03,3.61l-3.84-0.56L63.62,18.78z"/>
			<path class="st103" d="M67.09,14.59c0.57,0,1.04-0.46,1.04-1.04s-0.46-1.04-1.04-1.04s-1.04,0.46-1.04,1.04
				S66.52,14.59,67.09,14.59z"/>
			<path class="st103" d="M47.51,49.04l1.26,3.08l3.08-1.26l-1.26-3.08L47.51,49.04z"/>
			<path class="st224" d="M53.94,38.87c0.76,0.17,1.65-0.85,1.97-2.28c0.32-1.43-0.03-2.73-0.8-2.9c-0.76-0.17-1.65,0.85-1.97,2.28
				C52.82,37.4,53.18,38.7,53.94,38.87z"/>
			<path class="st224" d="M132.56,11.27l3.46-0.35l-0.56,3.84L132,15.11L132.56,11.27z"/>
			<path class="st10" d="M41.93,39.07c0.59,0,1.06-0.47,1.06-1.06s-0.47-1.06-1.06-1.06c-0.59,0-1.06,0.47-1.06,1.06
				C40.87,38.59,41.35,39.07,41.93,39.07z"/>
			<path class="st103" d="M91.23,7.99c0.77,0,1.39-0.62,1.39-1.39S92,5.21,91.23,5.21c-0.77,0-1.39,0.62-1.39,1.39
				C89.84,7.37,90.46,7.99,91.23,7.99z"/>
			<path class="st103" d="M141.17,10.78c0.77,0,1.39-0.62,1.39-1.39s-0.62-1.39-1.39-1.39c-0.77,0-1.39,0.62-1.39,1.39
				S140.4,10.78,141.17,10.78z"/>
			<path class="st103" d="M50.59,74.34c0.77,0,1.39-0.62,1.39-1.39s-0.62-1.39-1.39-1.39s-1.39,0.62-1.39,1.39
				S49.82,74.34,50.59,74.34z"/>
			<path class="st103" d="M159.58,71.7c0.77,0,1.39-0.62,1.39-1.39c0-0.77-0.62-1.39-1.39-1.39c-0.77,0-1.39,0.62-1.39,1.39
				C158.19,71.07,158.81,71.7,159.58,71.7z"/>
			<path class="st224" d="M164.67,63.36c1.21,0,2.18-0.98,2.18-2.18S165.88,59,164.67,59s-2.18,0.98-2.18,2.18
				C162.49,62.38,163.47,63.36,164.67,63.36z"/>
			<path class="st224" d="M160.51,57.11c0.77,0,1.39-0.62,1.39-1.39c0-0.77-0.62-1.39-1.39-1.39s-1.39,0.62-1.39,1.39
				C159.11,56.49,159.74,57.11,160.51,57.11z"/>
			<path class="st103" d="M126.36,15.11h-2.84v2.84h2.84V15.11z"/>
			<path class="st10" d="M122.13,7.91c0.77,0,1.39-0.62,1.39-1.39s-0.62-1.39-1.39-1.39s-1.39,0.62-1.39,1.39
				S121.36,7.91,122.13,7.91z"/>
			<path class="st103" d="M114.69,9.05c1.18-0.23,2.01-1.12,1.84-1.99c-0.17-0.87-1.26-1.39-2.45-1.17s-2.01,1.12-1.84,1.99
				C112.41,8.76,113.51,9.28,114.69,9.05z"/>
			<path class="st10" d="M160.22,33.8h-3.33l0.78-2.8H161L160.22,33.8z"/>
			<path class="st10" d="M47.33,61.18c0.77,0,1.39-0.62,1.39-1.39c0-0.77-0.62-1.39-1.39-1.39c-0.77,0-1.39,0.62-1.39,1.39
				C45.93,60.56,46.56,61.18,47.33,61.18z"/>
			<path class="st224" d="M53.26,67.21c0.7,0,1.27-0.57,1.27-1.27c0-0.7-0.57-1.27-1.27-1.27c-0.7,0-1.27,0.57-1.27,1.27
				C51.98,66.64,52.55,67.21,53.26,67.21z"/>
			<path class="st224" d="M82.43,14.41l-2.38,3.07l3.07,2.38l2.38-3.07L82.43,14.41z"/>
			<path class="st224" d="M57.08,18.81c0.77,0,1.39-0.62,1.39-1.39s-0.62-1.39-1.39-1.39s-1.39,0.62-1.39,1.39
				S56.31,18.81,57.08,18.81z"/>
			<path class="st103" d="M48.01,27.97c0.74-1.29,0.71-2.7-0.06-3.14c-0.78-0.45-2.01,0.23-2.76,1.52c-0.74,1.29-0.71,2.7,0.06,3.14
				C46.04,29.94,47.27,29.26,48.01,27.97z"/>
			<path class="st224" d="M85.97,10.71c0.19-0.47-0.3-1.11-1.09-1.42c-0.79-0.32-1.58-0.19-1.77,0.28c-0.19,0.47,0.3,1.11,1.09,1.42
				C84.99,11.31,85.79,11.18,85.97,10.71z"/>
			<path class="st103" d="M162.21,38.01l1.3,2.19l-1.7,2.32l-1.3-2.19L162.21,38.01z"/>
			<path class="st103" d="M163.51,18.83l0.02,2.06l2.06-0.02l-0.02-2.06L163.51,18.83z"/>
			<path class="st224" d="M166.33,30.35c0.63-0.61,0.35-1.93-0.64-2.95c-0.98-1.02-2.29-1.35-2.92-0.74
				c-0.63,0.61-0.35,1.93,0.64,2.95C164.39,30.62,165.69,30.95,166.33,30.35z"/>
			<path class="st10" d="M46.54,18.88c0.51,0,0.99-0.18,1.39-0.5c0.39-0.32,0.66-0.77,0.76-1.26c0.1-0.5,0.02-1.01-0.22-1.46
				c-0.24-0.44-0.62-0.79-1.09-0.99c-1.06,0.67-2.06,1.37-3.01,2.1c0.02,0.56,0.26,1.1,0.67,1.49
				C45.43,18.66,45.97,18.88,46.54,18.88z"/>
			<path class="st10" d="M146.77,24.04l-1.06-3.15l-3.15,1.06l1.06,3.15L146.77,24.04z"/>
			<path class="st10" d="M76.61,8.64c0.77,0,1.39-0.62,1.39-1.39s-0.62-1.39-1.39-1.39s-1.39,0.62-1.39,1.39S75.84,8.64,76.61,8.64z
				"/>
			<path class="st224" d="M154.13,14.69c0.84,0,1.52-0.68,1.52-1.52c0-0.84-0.68-1.52-1.52-1.52c-0.84,0-1.52,0.68-1.52,1.52
				C152.61,14,153.29,14.69,154.13,14.69z"/>
			<path class="st103" d="M167.81,53.23c0.91,0,1.64-0.73,1.64-1.64c0-0.91-0.73-1.64-1.64-1.64c-0.91,0-1.64,0.73-1.64,1.64
				C166.18,52.5,166.91,53.23,167.81,53.23z"/>
			<path class="st10" d="M105.36,6.54c0.52-0.24,0.92-0.68,1.12-1.22c0.2-0.54,0.18-1.13-0.06-1.65c-1.33,0.02-2.67,0.05-4.01,0.08
				c-0.16,0.41-0.2,0.85-0.11,1.28c0.09,0.43,0.32,0.82,0.63,1.12c0.32,0.3,0.72,0.5,1.15,0.57C104.52,6.79,104.96,6.72,105.36,6.54
				z"/>
		</g>
	</g>
</g>
<g id="bot-base">
</g>
<g id="asset">
</g>
<g id="ghost-image">
</g>
<g id="headgear">
</g>
<g id="arms">
</g>
<g id="glasses">
</g>
<g id="shoes">
</g>
</svg>
