<?xml version="1.0" encoding="utf-8"?>
<!-- Generator: Adobe Illustrator 26.0.0, SVG Export Plug-In . SVG Version: 6.00 Build 0)  -->
<svg version="1.1" id="asset" xmlns="http://www.w3.org/2000/svg" xmlns:xlink="http://www.w3.org/1999/xlink" x="0px" y="0px"
	 viewBox="0 0 214.74 150" style="enable-background:new 0 0 214.74 150;" xml:space="preserve">
<style type="text/css">
	.st0{fill:url(#SVGID_1_);}
	.st1{fill:#F7784E;}
	.st2{fill:#FF2D74;}
	.st3{fill:#5424D0;}
	.st4{fill:#FFBE46;}
</style>
<g>
	
		<linearGradient id="SVGID_1_" gradientUnits="userSpaceOnUse" x1="-496.5678" y1="-15435.5303" x2="-418.0309" y2="-15299.5" gradientTransform="matrix(1 0 0 1 564 15442)">
		<stop  offset="0" style="stop-color:#FF6F40"/>
		<stop  offset="0.5208" style="stop-color:#FFBE46"/>
	</linearGradient>
	<path class="st0" d="M39.76,41.43c9.16,22.07,10.03,43.63,4.32,60.79c-8.14,24.44-1.83,37.22,42.72,41.24
		c44.54,4.02,87.93-2.03,81.69-30.98c-6.69-31.05,11.51-46.15,4.18-83.64c-2.2-11.26-11.26-18.17-25.36-20.82S96.23,3.87,73.13,8.02
		C50.03,12.15,33.11,25.43,39.76,41.43z"/>
	<path class="st1" d="M41.61,111.58c-3.24,18.4,6.72,28.4,45.18,31.87c44.54,4.02,87.93-2.03,81.69-30.98
		c-0.04-0.19-0.08-0.37-0.12-0.56C148.32,110.97,77.46,108.02,41.61,111.58z"/>
	<path class="st2" d="M158.46,25.35c0.75,0,1.36-0.61,1.36-1.36s-0.61-1.36-1.36-1.36s-1.36,0.61-1.36,1.36
		S157.7,25.35,158.46,25.35z"/>
	<path class="st3" d="M111.64,12.86l-2.2,0.9l0.9,2.2l2.2-0.9L111.64,12.86z"/>
	<path class="st2" d="M66.48,20.23l3.75,0.54l1.01,3.53l-3.75-0.54L66.48,20.23z"/>
	<path class="st2" d="M69.88,16.13c0.56,0,1.01-0.45,1.01-1.01c0-0.57-0.45-1.01-1.01-1.01s-1.01,0.45-1.01,1.01
		C68.86,15.68,69.32,16.13,69.88,16.13z"/>
	<path class="st2" d="M50.74,49.8l1.23,3.01l3.01-1.23l-1.23-3.01L50.74,49.8z"/>
	<path class="st3" d="M57.03,39.87c0.75,0.17,1.61-0.83,1.92-2.23c0.32-1.4-0.04-2.67-0.78-2.83c-0.75-0.17-1.61,0.83-1.92,2.23
		C55.93,38.42,56.28,39.7,57.03,39.87z"/>
	<path class="st3" d="M133.87,12.89l3.38-0.34l-0.54,3.75l-3.38,0.34L133.87,12.89z"/>
	<path class="st4" d="M45.29,40.06c0.57,0,1.04-0.46,1.04-1.04s-0.46-1.04-1.04-1.04c-0.57,0-1.04,0.46-1.04,1.04
		S44.71,40.06,45.29,40.06z"/>
	<path class="st2" d="M93.48,9.69c0.75,0,1.36-0.61,1.36-1.36s-0.61-1.36-1.36-1.36c-0.75,0-1.36,0.61-1.36,1.36
		C92.11,9.08,92.72,9.69,93.48,9.69z"/>
	<path class="st2" d="M142.28,12.42c0.75,0,1.36-0.61,1.36-1.36s-0.61-1.36-1.36-1.36s-1.36,0.61-1.36,1.36
		S141.52,12.42,142.28,12.42z"/>
	<path class="st2" d="M53.75,74.54c0.75,0,1.36-0.61,1.36-1.36c0-0.75-0.61-1.36-1.36-1.36c-0.75,0-1.36,0.61-1.36,1.36
		S52.99,74.54,53.75,74.54z"/>
	<path class="st2" d="M160.28,71.95c0.75,0,1.36-0.61,1.36-1.36s-0.61-1.36-1.36-1.36s-1.36,0.61-1.36,1.36
		S159.52,71.95,160.28,71.95z"/>
	<path class="st3" d="M165.26,63.8c1.17,0,2.13-0.96,2.13-2.13s-0.96-2.13-2.13-2.13s-2.13,0.96-2.13,2.13
		C163.12,62.85,164.07,63.8,165.26,63.8z"/>
	<path class="st3" d="M161.18,57.7c0.75,0,1.36-0.61,1.36-1.36c0-0.75-0.61-1.36-1.36-1.36s-1.36,0.61-1.36,1.36
		C159.82,57.09,160.43,57.7,161.18,57.7z"/>
	<path class="st2" d="M127.81,16.64h-2.78v2.78h2.78V16.64z"/>
	<path class="st4" d="M123.67,9.6c0.75,0,1.36-0.61,1.36-1.36s-0.61-1.36-1.36-1.36s-1.36,0.61-1.36,1.36S122.92,9.6,123.67,9.6z"/>
	<path class="st2" d="M116.4,10.72c1.16-0.22,1.96-1.09,1.8-1.94c-0.16-0.85-1.23-1.36-2.39-1.14s-1.96,1.09-1.8,1.94
		S115.25,10.94,116.4,10.72z"/>
	<path class="st4" d="M160.9,34.91h-3.25l0.76-2.74h3.25L160.9,34.91z"/>
	<path class="st4" d="M50.56,61.67c0.75,0,1.36-0.61,1.36-1.36s-0.61-1.36-1.36-1.36c-0.75,0-1.36,0.61-1.36,1.36
		S49.8,61.67,50.56,61.67z"/>
	<path class="st3" d="M56.36,67.56c0.69,0,1.25-0.56,1.25-1.25c0-0.69-0.56-1.25-1.25-1.25c-0.69,0-1.25,0.56-1.25,1.25
		C55.11,67.01,55.67,67.56,56.36,67.56z"/>
	<path class="st3" d="M84.87,15.95l-2.33,2.99l2.99,2.33l2.33-2.99L84.87,15.95z"/>
	<path class="st3" d="M60.09,20.26c0.75,0,1.36-0.61,1.36-1.36c0-0.75-0.61-1.36-1.36-1.36c-0.75,0-1.36,0.61-1.36,1.36
		C58.73,19.65,59.34,20.26,60.09,20.26z"/>
	<path class="st2" d="M51.23,29.21c0.72-1.26,0.7-2.63-0.07-3.07c-0.76-0.44-1.96,0.22-2.69,1.49c-0.72,1.26-0.7,2.63,0.07,3.07
		C49.3,31.13,50.51,30.47,51.23,29.21z"/>
	<path class="st3" d="M88.33,12.34c0.18-0.46-0.29-1.08-1.07-1.39c-0.78-0.31-1.55-0.19-1.73,0.28c-0.18,0.46,0.29,1.08,1.07,1.39
		C87.37,12.93,88.15,12.81,88.33,12.34z"/>
	<path class="st2" d="M162.85,39.03l1.27,2.15l-1.67,2.27l-1.27-2.15L162.85,39.03z"/>
	<path class="st2" d="M164.12,20.28l0.02,2.01l2.01-0.02l-0.02-2.01L164.12,20.28z"/>
	<path class="st3" d="M166.87,31.54c0.62-0.59,0.34-1.88-0.62-2.88c-0.96-0.99-2.24-1.32-2.86-0.72c-0.62,0.59-0.34,1.88,0.62,2.88
		C164.97,31.81,166.26,32.13,166.87,31.54z"/>
	<path class="st4" d="M49.79,20.33c0.49,0,0.97-0.17,1.36-0.49c0.38-0.31,0.65-0.75,0.74-1.23s0.02-0.99-0.21-1.42
		s-0.61-0.78-1.07-0.96c-1.04,0.65-2.02,1.34-2.94,2.05c0.02,0.55,0.25,1.07,0.65,1.46C48.71,20.12,49.24,20.33,49.79,20.33z"/>
	<path class="st4" d="M147.76,25.37l-1.04-3.08l-3.08,1.04l1.04,3.08L147.76,25.37z"/>
	<path class="st4" d="M79.18,10.32c0.75,0,1.36-0.61,1.36-1.36S79.93,7.6,79.18,7.6c-0.75,0-1.36,0.61-1.36,1.36
		S78.42,10.32,79.18,10.32z"/>
	<path class="st3" d="M154.95,16.23c0.82,0,1.49-0.67,1.49-1.49s-0.67-1.49-1.49-1.49s-1.49,0.67-1.49,1.49
		S154.13,16.23,154.95,16.23z"/>
	<path class="st2" d="M168.32,53.9c0.88,0,1.6-0.72,1.6-1.6c0-0.88-0.72-1.6-1.6-1.6c-0.88,0-1.6,0.72-1.6,1.6
		C166.72,53.18,167.44,53.9,168.32,53.9z"/>
	<path class="st4" d="M107.28,8.26c0.51-0.24,0.9-0.67,1.09-1.19c0.2-0.52,0.17-1.1-0.06-1.62c-1.3,0.02-2.61,0.04-3.92,0.08
		c-0.16,0.4-0.2,0.83-0.1,1.25c0.09,0.42,0.3,0.8,0.62,1.09s0.7,0.49,1.13,0.56C106.46,8.51,106.9,8.44,107.28,8.26z"/>
</g>
</svg>
