<?xml version="1.0" encoding="utf-8"?>
<!-- Generator: Adobe Illustrator 24.3.0, SVG Export Plug-In . SVG Version: 6.00 Build 0)  -->
<svg version="1.1" xmlns="http://www.w3.org/2000/svg" xmlns:xlink="http://www.w3.org/1999/xlink" x="0px" y="0px"
	 viewBox="0 0 2000 2000" enable-background="new 0 0 2000 2000" xml:space="preserve">
<g id="ghost-image" display="none">
	<g display="inline" opacity="0.5">
		<path fill="#8A6FE8" d="M1469.02,1134.64c-57.66-4.68-181.26-73.79-228.06-150.36c-28.4-46.51,24.83-83.62,53.75-36.22
			c31.36,51.3,134.81,115.23,179.86,118.94L1469.02,1134.64z"/>
		<path fill="#8A6FE8" d="M1525.01,1005.66l-88.68,33.66c-15.81,6.01-23.74,23.69-17.79,39.47c6.01,15.81,23.68,23.74,39.47,17.79
			l88.68-33.66c15.81-6.01,23.74-23.69,17.79-39.47C1558.56,1007.59,1540.82,999.63,1525.01,1005.66z"/>
		<path fill="#8A6FE8" d="M1416.45,1155.13l37.83,51.37c10.17,13.62,29.44,16.44,43.06,6.26c13.63-10.17,16.44-29.43,6.27-43.06
			l-38.78-52.71L1416.45,1155.13z"/>
		<path fill="#8A6FE8" d="M1450.74,1158.21l76.78,42.91c14.86,8.25,33.6,2.87,41.85-12.01c8.25-14.83,2.87-33.6-12.01-41.85
			l-57-32.1L1450.74,1158.21z"/>
		<path fill="#8A6FE8" d="M1460.34,1121.85l84.59,24.43c16.33,4.74,33.4-4.69,38.15-20.98c4.74-16.33-4.69-33.4-20.98-38.15
			l-86.18-24.89L1460.34,1121.85z"/>
		
			<radialGradient id="SVGID_1_" cx="6110.5552" cy="6670.0747" r="6.0502" gradientTransform="matrix(10.6515 0 0 -10.6515 -63635.0039 72150.0391)" gradientUnits="userSpaceOnUse">
			<stop  offset="0" style="stop-color:#8065E0"/>
			<stop  offset="1" style="stop-color:#512BD4"/>
		</radialGradient>
		<path fill="url(#SVGID_1_)" d="M1451.57,1168.18c35.59,0,64.45-28.85,64.45-64.44c0-35.59-28.86-64.44-64.45-64.44
			c-35.58,0-64.44,28.85-64.44,64.44C1387.13,1139.33,1415.99,1168.18,1451.57,1168.18z"/>
		
			<linearGradient id="SVGID_2_" gradientUnits="userSpaceOnUse" x1="432.5041" y1="10108.8672" x2="492.2814" y2="9824.1582" gradientTransform="matrix(1 0 0 -1 694 11204.6914)">
			<stop  offset="0" style="stop-color:#522CD5"/>
			<stop  offset="0.4397" style="stop-color:#8A6FE8"/>
		</linearGradient>
		<path fill="url(#SVGID_2_)" d="M1216.5,1374.16c0.66-59.76-7.85-181.06-69.53-282.64l-60.31,36.62
			c55.97,92.13,60.17,199.66,58.87,246.57C1145.39,1378.59,1181.58,1382.1,1216.5,1374.16z"/>
		<path fill="#522CD5" d="M1145.53,1374.05l55.85-0.26l52.14,298.71l-112.1,0.52c-8.54,0.03-15.01-6.84-14.43-15.38L1145.53,1374.05
			z"/>
		
			<linearGradient id="SVGID_3_" gradientUnits="userSpaceOnUse" x1="468.5244" y1="9832.6982" x2="646.1333" y2="9516.0449" gradientTransform="matrix(1 0 0 -1 694 11204.6914)">
			<stop  offset="0" style="stop-color:#522CD5"/>
			<stop  offset="0.4397" style="stop-color:#8A6FE8"/>
		</linearGradient>
		<path fill="url(#SVGID_3_)" d="M1373.04,1593.94c9.68,7.65,9.52,18.71,8.77,30.39l-2.33,35.78c-0.43,6.41-6.01,11.68-12.41,11.7
			l-116.82,0.52c-7.28,0.03-12.76-5.84-12.27-13.08l0.77-37.08c0.89-13.48-3.65-18.43-14.08-31.13
			c-17.88-21.7-70.74-139.98-65.71-217.05l57.52-0.26C1220.29,1419.47,1280.66,1521.05,1373.04,1593.94z"/>
		
			<radialGradient id="SVGID_4_" cx="6379.2393" cy="6477.2959" r="6.0492" gradientTransform="matrix(20.3477 -0.0926 -0.0926 -20.3477 -127898.6953 133930.9219)" gradientUnits="userSpaceOnUse">
			<stop  offset="0.034" style="stop-color:#522CD5"/>
			<stop  offset="0.9955" style="stop-color:#8A6FE8"/>
		</radialGradient>
		<path fill="url(#SVGID_4_)" d="M1381.81,1624.33c0.55-8.17,0.69-15.98-2.5-22.59l-145.71,0.66c4.03,5.92,5.72,11.09,5.18,19.74
			l-0.78,37.08c-0.48,7.27,5.03,13.14,12.27,13.08l116.82-0.51c6.41-0.03,11.99-5.29,12.42-11.7L1381.81,1624.33z"/>
		
			<linearGradient id="SVGID_5_" gradientUnits="userSpaceOnUse" x1="103.6272" y1="10113.2305" x2="172.3586" y2="9789.8721" gradientTransform="matrix(1 0 0 -1 694 11204.6914)">
			<stop  offset="0" style="stop-color:#522CD5"/>
			<stop  offset="0.4397" style="stop-color:#8A6FE8"/>
		</linearGradient>
		<path fill="url(#SVGID_5_)" d="M847.6,1418.81l-71.31-8.88l40.1-322.45l71.32,8.85L847.6,1418.81z"/>
		<path fill="#522CD5" d="M781.46,1371.7l56.51-0.26l15.64,302.04L740.18,1674c-8.62,0.03-14.31-6.93-12.68-15.55L781.46,1371.7z"/>
		
			<linearGradient id="SVGID_6_" gradientUnits="userSpaceOnUse" x1="48.8044" y1="9805.6963" x2="202.8481" y2="9512.1631" gradientTransform="matrix(1 0 0 -1 694 11204.6914)">
			<stop  offset="0" style="stop-color:#522CD5"/>
			<stop  offset="0.4397" style="stop-color:#8A6FE8"/>
		</linearGradient>
		<path fill="url(#SVGID_6_)" d="M945.67,1595.09c8.71,7.88,8.51,18,6.27,29.81l-6.81,36.19c-1.21,6.47-7.53,11.78-14,11.81
			l-162.21,0.75c-7.36,0.02-12.19-5.89-10.81-13.25l5.78-37.51c2.56-13.62,0.57-17.65,0.83-35.13
			c0.49-32.76,15.61-138.25,30.27-216.16l58.21-0.25C851.42,1417.63,871.48,1527.86,945.67,1595.09z"/>
		
			<radialGradient id="SVGID_7_" cx="6387.4478" cy="6463.1904" r="6.0492" gradientTransform="matrix(22.145 -0.1007 -0.1006 -22.1216 -139936.6562 145161.2969)" gradientUnits="userSpaceOnUse">
			<stop  offset="0.034" style="stop-color:#522CD5"/>
			<stop  offset="0.9955" style="stop-color:#8A6FE8"/>
		</radialGradient>
		<path fill="url(#SVGID_7_)" d="M763.92,1622.92l-5.78,37.51c-1.38,7.33,3.45,13.28,10.81,13.25l162.2-0.74
			c6.5-0.03,12.79-5.35,14-11.81l6.81-36.19c1.61-8.57,2.1-16.24-1.03-22.82l-185.86,0.83
			C765.36,1609.61,765.53,1614.39,763.92,1622.92z"/>
		<path fill="#8A6FE8" d="M803.96,455.82l-67.46,27.13l-18.37-73.07l48.43-19.49L803.96,455.82z"/>
		<path fill="#512BD4" d="M788.84,581.95c38.16,0,69.1-30.94,69.1-69.1c0-38.16-30.94-69.1-69.1-69.1s-69.1,30.94-69.1,69.1
			C719.74,551.01,750.68,581.95,788.84,581.95z"/>
		
			<radialGradient id="SVGID_8_" cx="6580.6768" cy="6368.438" r="6.0492" gradientTransform="matrix(61.9498 0 0 -61.9498 -406655.9062 395291.5938)" gradientUnits="userSpaceOnUse">
			<stop  offset="0.4744" style="stop-color:#A08BE8"/>
			<stop  offset="0.8618" style="stop-color:#8065E0"/>
		</radialGradient>
		<path fill="url(#SVGID_8_)" d="M1300.17,939.67c24.86-95.46,8.83-171.66,8.83-171.66h22.45l0.54-0.43
			c-32.16-175.17-185.6-307.91-370.05-307.91c-207.82,0-376.29,168.47-376.29,376.29c0,207.82,168.44,376.29,376.29,376.29
			c163.98,0,303.45-104.92,354.99-251.25C1318.43,954.79,1318.29,943.64,1300.17,939.67z"/>
		<path fill="#D8CFF7" d="M1286.38,1026.53h-648.9c14.57,24.75,31.88,47.66,51.54,68.36h545.85
			C1254.5,1074.17,1271.8,1051.28,1286.38,1026.53z"/>
		
			<radialGradient id="SVGID_9_" cx="6554.7124" cy="6388.9546" r="6.0492" gradientTransform="matrix(48.2581 0 0 -48.2581 -315085.8438 309017.6875)" gradientUnits="userSpaceOnUse">
			<stop  offset="0.0933" style="stop-color:#E1DFDD"/>
			<stop  offset="0.8998" style="stop-color:#FFFFFF"/>
		</radialGradient>
		<path fill="url(#SVGID_9_)" d="M1300.17,939.67c24.55-94.28,9.22-169.73,8.86-171.57H918.6c0,0-24.61-2.5-24.61,19.98
			c0,22.48,0.93,85.94,0.93,156.17c0,14.43,11.81,21.38,21.12,21.38C916.07,965.59,1256.6,965.57,1300.17,939.67z"/>
		<path fill="#A08BE8" d="M1065.02,939.87c0,0,60.05-47.51,71.75-56.31c11.72-8.8,21.96-9.29,32.71,0
			c10.75,9.29,70.85,56.31,70.85,56.31H1065.02z"/>
		<path fill="#512BD4" d="M1315.41,965.33c0,0,10.43-20.06-15.24-25.67c0.03-0.08-383.82-0.28-383.82-0.28
			c-8.93,0-20.43-5.32-21.41-14c0,6.21,0.03,12.47,0.03,18.83c0,13.11,9.75,20.03,18.48,21.18c0.86,0.11,1.75,0.2,2.65,0.2h26.24
			L1315.41,965.33z"/>
		<path fill="#512BD4" d="M1286.53,851.61c0.41-27.33-12.44-49.69-28.69-49.93c-16.25-0.24-29.76,21.72-30.17,49.05
			c-0.41,27.34,12.44,49.69,28.69,49.93C1272.61,900.9,1286.12,878.95,1286.53,851.61z"/>
		<path fill="#8065E0" d="M1256.74,825.01c-10.75,10.75-10.75,28.17,0,38.92c7.36,7.36,17.85,9.69,27.19,6.96
			c1.58-5.89,2.5-12.42,2.62-19.26c0.2-13.39-2.79-25.58-7.82-34.58C1270.88,816.36,1262.75,819,1256.74,825.01z"/>
		<path fill="#512BD4" d="M1020.8,900.92c16.25-0.24,29.1-22.6,28.69-49.93c-0.41-27.33-13.91-49.3-30.17-49.05
			c-16.25,0.24-29.1,22.6-28.69,49.93C991.04,879.19,1004.54,901.16,1020.8,900.92z"/>
		<path fill="#8065E0" d="M1019.83,826.62c-10.75,10.75-10.75,28.17,0,38.92c7.33,7.33,17.74,9.63,27.02,6.98
			c1.78-6.55,2.76-13.85,2.64-21.59c-0.17-12.42-3.07-23.69-7.7-32.28C1033.95,817.97,1025.84,820.61,1019.83,826.62z"/>
		<path fill="#512BD4" d="M1084.82,1115.23l123.17-0.56l-0.5-108.94l-123.17,0.56L1084.82,1115.23z"/>
		<path fill="#FFFFFF" d="M1106.12,1074.51c-0.83,0-1.52-0.26-2.1-0.8c-0.57-0.55-0.86-1.24-0.86-1.98c0-0.77,0.28-1.47,0.86-2.01
			c0.57-0.57,1.26-0.83,2.1-0.83c0.83,0,1.52,0.29,2.1,0.83c0.57,0.54,0.89,1.24,0.89,2.01c0,0.77-0.28,1.43-0.86,1.98
			C1107.68,1074.22,1106.96,1074.51,1106.12,1074.51z"/>
		<path fill="#FFFFFF" d="M1138.89,1073.97h-5.32l-14.08-22.11c-0.34-0.54-0.67-1.15-0.9-1.75h-0.11c0.11,0.63,0.18,2.01,0.18,4.14
			l0.03,19.74h-4.72l-0.05-30.12h5.66l13.6,21.59c0.57,0.89,0.94,1.52,1.12,1.84h0.08c-0.15-0.8-0.2-2.15-0.2-4.05l-0.03-19.4h4.69
			L1138.89,1073.97z"/>
		<path fill="#FFFFFF" d="M1161.83,1073.94l-16.5,0.03l-0.06-30.12l15.84-0.03v4.25l-10.95,0.03l0.03,8.54l10.09-0.03v4.23
			l-10.09,0.03l0.02,8.91l11.61-0.03V1073.94z"/>
		<path fill="#FFFFFF" d="M1185.2,1048.01l-8.45,0.02l0.06,25.87h-4.89l-0.06-25.87l-8.42,0.03v-4.25l21.73-0.06L1185.2,1048.01z"/>
		<path fill="#8A6FE8" d="M529.43,1254.19l40.18,57.34c10.81,15.24,31.93,18.74,47.17,7.94c15.23-10.81,18.74-31.93,7.93-47.14
			l-49.73-69.3L529.43,1254.19z"/>
		<path fill="#8A6FE8" d="M460.13,1232.49L449,1301.65c-2.82,18.43,9.8,35.7,28.28,38.52c18.43,2.82,35.7-9.8,38.52-28.29
			l11.38-70.88L460.13,1232.49z"/>
		<path fill="#8A6FE8" d="M504.99,1240.3l-9.34,69.42c-2.36,18.48,10.75,35.44,29.23,37.8c18.48,2.36,35.44-10.75,37.83-29.23
			l9.6-71.2L504.99,1240.3z"/>
		<path fill="#8A6FE8" d="M442.74,1211.82l-25.09,65.39c-6.58,17.48,2.3,36.99,19.78,43.52c17.48,6.58,36.99-2.3,43.52-19.77
			l25.73-67.06L442.74,1211.82z"/>
		
			<linearGradient id="SVGID_10_" gradientUnits="userSpaceOnUse" x1="-100.864" y1="10345.1621" x2="-100.864" y2="9964.2686" gradientTransform="matrix(1 0 0 -1 694 11204.6914)">
			<stop  offset="0.2495" style="stop-color:#967FE6"/>
			<stop  offset="1" style="stop-color:#8A6FE8"/>
		</linearGradient>
		<path fill="url(#SVGID_10_)" d="M489.3,1240.42c-27.91-57-44.21-154.45,1.78-241.6c27.97-52.92,89.19-120.03,222.28-139.29
			l10.69,73.79c-80.8,11.7-138.52,46.39-167,100.32c-30.84,58.41-22.59,129.43-0.78,174.04L489.3,1240.42z"/>
		
			<radialGradient id="SVGID_11_" cx="6095.9009" cy="6663.5776" r="6.0492" gradientTransform="matrix(11.3989 0 0 -11.3989 -68749.8281 76818.8594)" gradientUnits="userSpaceOnUse">
			<stop  offset="0" style="stop-color:#8065E0"/>
			<stop  offset="1" style="stop-color:#512BD4"/>
		</radialGradient>
		<path fill="url(#SVGID_11_)" d="M738.97,954.1c38.06,0,68.9-30.84,68.9-68.9c0-38.06-30.84-68.9-68.9-68.9
			c-38.06,0-68.9,30.84-68.9,68.9C670.07,923.23,700.92,954.1,738.97,954.1z"/>
		
			<radialGradient id="SVGID_12_" cx="6381.2383" cy="6471.7744" r="6.0492" gradientTransform="matrix(22.7292 0 0 -22.7292 -144535.5781 148252)" gradientUnits="userSpaceOnUse">
			<stop  offset="0" style="stop-color:#8065E0"/>
			<stop  offset="1" style="stop-color:#512BD4"/>
		</radialGradient>
		<path fill="url(#SVGID_12_)" d="M508.62,1277.33c39.09,0,70.77-31.68,70.77-70.77c0-39.09-31.68-70.77-70.77-70.77
			c-39.09,0-70.77,31.68-70.77,70.77C437.85,1245.65,469.55,1277.33,508.62,1277.33z"/>
		<path fill="#D8CFF7" d="M739.68,415.8c-26.24,6.99-53.32-8.39-60.54-34.41c-7.19-26.01,8.22-52.72,34.46-59.7
			c26.24-6.98,53.32,8.39,60.54,34.41C781.36,382.11,765.95,408.78,739.68,415.8z"/>
	</g>
</g>
<g id="bot-base" display="none">
	<g display="inline">
		
			<radialGradient id="SVGID_13_" cx="6580.6768" cy="6368.438" r="6.0492" gradientTransform="matrix(61.9498 0 0 -61.9498 -406655.9062 395291.5938)" gradientUnits="userSpaceOnUse">
			<stop  offset="0.4744" style="stop-color:#A08BE8"/>
			<stop  offset="0.8618" style="stop-color:#8065E0"/>
		</radialGradient>
		<path fill="url(#SVGID_13_)" d="M1300.17,939.67c24.86-95.46,8.83-171.66,8.83-171.66h22.45l0.54-0.43
			c-32.16-175.17-185.6-307.91-370.05-307.91c-207.82,0-376.29,168.47-376.29,376.29c0,207.82,168.44,376.29,376.29,376.29
			c163.98,0,303.45-104.92,354.99-251.25C1318.43,954.79,1318.29,943.64,1300.17,939.67z"/>
		<path fill="#D8CFF7" d="M1286.38,1026.53h-648.9c14.57,24.75,31.88,47.66,51.54,68.36h545.85
			C1254.5,1074.17,1271.8,1051.28,1286.38,1026.53z"/>
		
			<radialGradient id="SVGID_14_" cx="6554.7124" cy="6388.9546" r="6.0492" gradientTransform="matrix(48.2581 0 0 -48.2581 -315085.8438 309017.6875)" gradientUnits="userSpaceOnUse">
			<stop  offset="0.0933" style="stop-color:#E1DFDD"/>
			<stop  offset="0.8998" style="stop-color:#FFFFFF"/>
		</radialGradient>
		<path fill="url(#SVGID_14_)" d="M1300.17,939.67c24.55-94.28,9.22-169.73,8.86-171.57H918.6c0,0-24.61-2.5-24.61,19.98
			c0,22.48,0.93,85.94,0.93,156.17c0,14.43,11.81,21.38,21.12,21.38C916.07,965.59,1256.6,965.57,1300.17,939.67z"/>
		<path fill="#A08BE8" d="M1065.02,939.87c0,0,60.05-47.51,71.75-56.31c11.72-8.8,21.96-9.29,32.71,0
			c10.75,9.29,70.85,56.31,70.85,56.31H1065.02z"/>
		<path fill="#512BD4" d="M1315.41,965.33c0,0,10.43-20.06-15.24-25.67c0.03-0.08-383.82-0.28-383.82-0.28
			c-8.93,0-20.43-5.32-21.41-14c0,6.21,0.03,12.47,0.03,18.83c0,13.11,9.75,20.03,18.48,21.18c0.86,0.11,1.75,0.2,2.65,0.2h26.24
			L1315.41,965.33z"/>
		<path fill="#512BD4" d="M1084.82,1115.23l123.17-0.56l-0.5-108.94l-123.17,0.56L1084.82,1115.23z"/>
		<path fill="#FFFFFF" d="M1106.12,1074.51c-0.83,0-1.52-0.26-2.1-0.8c-0.57-0.55-0.86-1.24-0.86-1.98c0-0.77,0.28-1.47,0.86-2.01
			c0.57-0.57,1.26-0.83,2.1-0.83c0.83,0,1.52,0.29,2.1,0.83c0.57,0.54,0.89,1.24,0.89,2.01c0,0.77-0.28,1.43-0.86,1.98
			C1107.68,1074.22,1106.96,1074.51,1106.12,1074.51z"/>
		<path fill="#FFFFFF" d="M1138.89,1073.97h-5.32l-14.08-22.11c-0.34-0.54-0.67-1.15-0.9-1.75h-0.11c0.11,0.63,0.18,2.01,0.18,4.14
			l0.03,19.74h-4.72l-0.05-30.12h5.66l13.6,21.59c0.57,0.89,0.94,1.52,1.12,1.84h0.08c-0.15-0.8-0.2-2.15-0.2-4.05l-0.03-19.4h4.69
			L1138.89,1073.97z"/>
		<path fill="#FFFFFF" d="M1161.83,1073.94l-16.5,0.03l-0.06-30.12l15.84-0.03v4.25l-10.95,0.03l0.03,8.54l10.09-0.03v4.23
			l-10.09,0.03l0.02,8.91l11.61-0.03V1073.94z"/>
		<path fill="#FFFFFF" d="M1185.2,1048.01l-8.45,0.02l0.06,25.87h-4.89l-0.06-25.87l-8.42,0.03v-4.25l21.73-0.06L1185.2,1048.01z"/>
	</g>
</g>
<g id="asset">
	<g>
		<radialGradient id="SVGID_15_" cx="1010.9366" cy="1809.5931" r="787.4272" gradientUnits="userSpaceOnUse">
			<stop  offset="0.5324" style="stop-color:#FAE969"/>
			<stop  offset="0.9614" style="stop-color:#FBB03B"/>
		</radialGradient>
		<path fill="url(#SVGID_15_)" d="M79.44,543.92c126.45,304.51,138.43,601.92,59.62,838.59c-112.27,337.13-25.2,513.48,589.34,568.9
			s1213.05-28.01,1127-427.36c-92.29-428.28,158.84-636.57,57.58-1153.87c-30.41-155.39-141.45-241.99-349.77-287.2H539.88
			C206,157.53-12.21,323.24,79.44,543.92z"/>
		<radialGradient id="SVGID_16_" cx="1011.3785" cy="1806.6239" r="787.4824" gradientUnits="userSpaceOnUse">
			<stop  offset="0.5324" style="stop-color:#FAE969"/>
			<stop  offset="0.9614" style="stop-color:#FBB03B"/>
		</radialGradient>
		<path fill="url(#SVGID_16_)" d="M79.44,543.92c126.45,304.51,138.43,601.92,59.62,838.59c-112.27,337.13-25.2,513.48,589.34,568.9
			s1213.05-28.01,1127-427.36c-92.29-428.28,158.84-636.57,57.58-1153.87c-30.41-155.39-155.29-250.6-349.77-287.2
			s-704.64-57.16-1023.33,0S-12.21,323.24,79.44,543.92z"/>
		<radialGradient id="SVGID_17_" cx="1042.3145" cy="410.3863" r="1364.031" gradientUnits="userSpaceOnUse">
			<stop  offset="0" style="stop-color:#E8D441"/>
			<stop  offset="0.6204" style="stop-color:#F5E35D"/>
			<stop  offset="0.9991" style="stop-color:#FAE969"/>
		</radialGradient>
		<path opacity="0.43" fill="url(#SVGID_17_)" d="M1154.01,1473.98L1901.43,326.5c-29.1-86.06-91.21-150.58-181.01-193.91
			l-637.53,1365.99L1456.36,67.84c-81.5-8.93-183.67-15.68-293.67-18.69L1042.21,1388.9l-133-1339.62
			c-100.46,3-199.59,9.77-288.75,21.37l381.07,1427.94L363.09,130.84c-79.56,29.84-148.08,68.71-199.8,114.5
			c-6.89,6.87-13.61,13.55-20.18,19.92l787.31,1208.71L88.97,567.46c1.46,3.7,2.91,7.39,4.34,11.08c0.08,0.22,0.17,0.43,0.25,0.65
			c5.8,14.99,11.33,29.95,16.58,44.89c0.02,0.05,0.04,0.1,0.05,0.15c1.28,3.65,2.55,7.3,3.8,10.95c0.09,0.25,0.17,0.5,0.26,0.75
			c5.05,14.76,9.84,29.48,14.36,44.17c0.08,0.27,0.17,0.53,0.25,0.8c1.07,3.49,2.13,6.99,3.17,10.48c0.12,0.41,0.25,0.83,0.37,1.24
			c4.29,14.38,8.32,28.73,12.1,43.03c0.15,0.56,0.3,1.12,0.45,1.68c0.86,3.27,1.71,6.54,2.54,9.81c0.17,0.65,0.33,1.31,0.5,1.96
			c3.54,13.94,6.84,27.84,9.91,41.69c0.19,0.86,0.38,1.71,0.57,2.57c0.67,3.04,1.32,6.08,1.97,9.11c0.19,0.9,0.38,1.8,0.57,2.7
			c2.15,10.25,4.18,20.48,6.08,30.67c0.05,0.28,0.11,0.55,0.16,0.83c0.55,2.97,1.08,5.93,1.61,8.89c0.19,1.09,0.39,2.18,0.58,3.26
			c0.5,2.84,0.99,5.68,1.47,8.52c0.19,1.09,0.37,2.19,0.55,3.28c0.49,2.94,0.98,5.87,1.44,8.8c0,0.02,0,0.03,0.01,0.05
			c1.07,6.7,2.08,13.39,3.04,20.07c0.1,0.67,0.2,1.34,0.29,2.01c0.4,2.81,0.78,5.62,1.16,8.42c0.16,1.2,0.32,2.4,0.48,3.6
			c0.36,2.74,0.72,5.47,1.06,8.2c0.14,1.15,0.28,2.3,0.43,3.45c0.35,2.84,0.7,5.68,1.03,8.52l769.36,626.18L187.99,1098.8
			c0,0.03,0,0.05,0,0.08c-0.41,12.94-1.04,25.79-1.89,38.54c0,0.04-0.01,0.08-0.01,0.11c-0.85,12.75-1.92,25.4-3.21,37.95
			c0,0.04-0.01,0.08-0.01,0.12c-1.29,12.55-2.8,25-4.52,37.35c0,0.03-0.01,0.06-0.01,0.09c-1.73,12.36-3.67,24.62-5.82,36.76
			l698.11,311.89l-722.74-207.29c0,0.01-0.01,0.02-0.01,0.04c-1.14,3.83-2.3,7.64-3.48,11.44c-0.35,1.13-0.7,2.26-1.05,3.39
			c-0.44,1.39-0.88,2.77-1.32,4.16c-0.97,3.04-1.96,6.08-2.97,9.11c-0.85,2.55-1.69,5.09-2.51,7.63c-0.27,0.84-0.54,1.67-0.81,2.51
			c-0.55,1.69-1.09,3.38-1.63,5.05c-0.32,1.02-0.64,2.03-0.96,3.04c-0.47,1.49-0.94,2.98-1.41,4.46c-0.34,1.09-0.68,2.18-1.01,3.27
			c-0.43,1.4-0.86,2.79-1.29,4.18c-0.34,1.12-0.68,2.24-1.02,3.36c-0.41,1.35-0.81,2.7-1.21,4.04c-0.34,1.14-0.68,2.29-1.01,3.43
			c-0.38,1.3-0.76,2.6-1.14,3.9c-0.34,1.17-0.67,2.33-1,3.49c-0.36,1.27-0.72,2.53-1.08,3.79c-0.33,1.18-0.66,2.35-0.99,3.52
			c-0.34,1.23-0.68,2.47-1.02,3.7c-0.32,1.19-0.65,2.37-0.97,3.55c-0.32,1.2-0.64,2.4-0.96,3.6c-0.32,1.2-0.63,2.39-0.95,3.59
			c-0.31,1.17-0.61,2.34-0.9,3.51c-0.31,1.21-0.62,2.41-0.92,3.61c-0.29,1.15-0.57,2.29-0.85,3.43c-0.3,1.21-0.6,2.42-0.89,3.63
			c-0.27,1.12-0.54,2.23-0.8,3.35c-0.29,1.22-0.58,2.44-0.87,3.65c-0.25,1.08-0.5,2.16-0.74,3.24c-0.28,1.24-0.57,2.48-0.85,3.71
			c-0.23,1.01-0.44,2.01-0.66,3.02c-0.77,3.49-1.51,6.97-2.21,10.43l752.53,111.96h351.66l640.1-95.23
			c-2.86-14.22-5.34-28.19-7.47-41.94c-0.03-0.19-0.06-0.37-0.09-0.56c-0.39-2.52-0.77-5.04-1.13-7.55
			c-0.05-0.37-0.11-0.73-0.16-1.1c-0.36-2.46-0.7-4.91-1.03-7.35c-0.05-0.33-0.09-0.67-0.13-1c-1.77-13.13-3.23-26.05-4.39-38.8
			c-0.04-0.46-0.09-0.91-0.13-1.37c-0.19-2.14-0.37-4.27-0.55-6.39c-0.06-0.68-0.11-1.37-0.17-2.05c-0.16-2.05-0.32-4.09-0.47-6.12
			c-0.05-0.72-0.1-1.43-0.15-2.15c-0.14-2.05-0.28-4.09-0.41-6.13c-0.04-0.61-0.07-1.21-0.11-1.82c-0.13-2.17-0.26-4.33-0.38-6.49
			c0,0,0-0.01,0-0.01l-602.54,172.82l602.6-269.21c0-0.01,0-0.02,0-0.02c0.18-3.36,0.38-6.7,0.59-10.04
			c0.02-0.26,0.03-0.52,0.05-0.77c0.22-3.34,0.45-6.67,0.7-9.99c0,0,0,0,0,0c0.77-10.22,1.7-20.36,2.76-30.43
			c0.03-0.28,0.06-0.56,0.09-0.84c0.33-3.13,0.68-6.26,1.04-9.38c0.02-0.17,0.04-0.34,0.06-0.51c1.14-9.9,2.42-19.73,3.8-29.51
			c0.06-0.44,0.13-0.89,0.19-1.33c0.4-2.81,0.81-5.62,1.23-8.43c0.07-0.44,0.13-0.87,0.2-1.31c0.98-6.48,2-12.93,3.06-19.37
			c0.01-0.06,0.02-0.12,0.03-0.18c0.5-3.02,1.01-6.04,1.53-9.05c0.11-0.62,0.21-1.24,0.32-1.86c0.44-2.55,0.89-5.1,1.35-7.64
			c0.11-0.63,0.23-1.27,0.34-1.9c0.51-2.85,1.03-5.7,1.56-8.55c0.04-0.22,0.08-0.44,0.12-0.66c0.6-3.24,1.21-6.47,1.83-9.7
			l-722.15,427.69l764.66-622.35c1.23-5.68,2.44-11.37,3.64-17.09c0-0.02,0.01-0.04,0.01-0.07c6.62-31.5,12.82-63.66,18.09-96.87
			c0.01-0.05,0.01-0.1,0.02-0.14c0.46-2.93,0.92-5.86,1.37-8.8c0.03-0.2,0.06-0.39,0.09-0.59c0.43-2.8,0.85-5.61,1.26-8.42
			c0.04-0.29,0.08-0.59,0.13-0.88c0.4-2.73,0.79-5.47,1.17-8.21c0.05-0.34,0.1-0.69,0.14-1.03c0.38-2.7,0.75-5.41,1.11-8.12
			c0.05-0.38,0.1-0.76,0.15-1.14c0.36-2.7,0.71-5.4,1.05-8.12c0.05-0.38,0.1-0.77,0.15-1.15c0.34-2.72,0.67-5.44,1-8.17
			c0.05-0.38,0.09-0.76,0.14-1.14c0.33-2.76,0.65-5.54,0.96-8.32c0.04-0.34,0.08-0.68,0.11-1.02c0.32-2.84,0.62-5.68,0.92-8.54
			c0.03-0.29,0.06-0.57,0.09-0.86c0.31-2.95,0.6-5.9,0.89-8.87c0.02-0.19,0.04-0.37,0.05-0.56c0.3-3.12,0.59-6.25,0.87-9.39
			c0-0.03,0.01-0.07,0.01-0.1c2.57-28.99,4.21-58.91,4.63-89.99c0-0.01,0-0.01,0-0.02L1154.01,1473.98z"/>
		<path fill="#9C9894" d="M105.07,1511.72c-44.65,253.83,92.71,391.84,623.34,439.7c614.54,55.42,1213.05-28.01,1127-427.36
			c-0.55-2.57-1.09-5.13-1.62-7.69C1577.16,1503.34,599.59,1462.64,105.07,1511.72z"/>
	</g>
</g>
</svg>
