<?xml version="1.0" encoding="utf-8"?>
<!-- Generator: Adobe Illustrator 26.0.0, SVG Export Plug-In . SVG Version: 6.00 Build 0)  -->
<svg version="1.1" id="asset" xmlns="http://www.w3.org/2000/svg" xmlns:xlink="http://www.w3.org/1999/xlink" x="0px" y="0px"
	 viewBox="0 0 214.74 150" style="enable-background:new 0 0 214.74 150;" xml:space="preserve">
<style type="text/css">
	.st0{fill:#2B0B98;}
	.st1{fill:#D600AA;}
	.st2{fill:#5424D0;}
	.st3{fill:#FFBE46;}
	.st4{fill:url(#SVGID_1_);}
	.st5{fill:url(#SVGID_00000046301340606065559020000002406076871180604062_);}
	.st6{fill:url(#SVGID_00000171722120675248607490000002087827395313031832_);}
	.st7{fill:url(#SVGID_00000178180136504241001450000015170773549343113103_);}
	.st8{fill:url(#SVGID_00000010284476964659002060000016603886833258547101_);}
	.st9{fill:url(#SVGID_00000079484395448171365580000012833180432597815224_);}
</style>
<g>
	<path class="st0" d="M38.39,40.58c9.56,23.01,10.46,45.49,4.51,63.37c-8.48,25.48-1.9,38.81,44.54,43s91.68-2.12,85.17-32.3
		c-6.97-32.37,12-48.11,4.35-87.2c-2.3-11.74-11.74-18.94-26.43-21.7c-14.7-2.77-53.25-4.32-77.34,0S31.46,23.91,38.39,40.58z"/>
	<path class="st1" d="M65.36,17.73c0.78,0,1.42-0.64,1.42-1.42c0-0.78-0.64-1.42-1.42-1.42s-1.42,0.64-1.42,1.42
		C63.94,17.09,64.58,17.73,65.36,17.73z"/>
	<path class="st2" d="M104.97,16.31c0.78,0,1.42-0.64,1.42-1.42c0-0.78-0.64-1.42-1.42-1.42s-1.42,0.64-1.42,1.42
		C103.55,15.67,104.19,16.31,104.97,16.31z"/>
	<path class="st1" d="M88.41,18.19c0.78,0,1.42-0.64,1.42-1.42c0-0.78-0.64-1.42-1.42-1.42c-0.78,0-1.42,0.64-1.42,1.42
		C86.99,17.55,87.63,18.19,88.41,18.19z"/>
	<path class="st3" d="M77.96,12.47c0.78,0,1.42-0.64,1.42-1.42c0-0.78-0.64-1.42-1.42-1.42c-0.78,0-1.42,0.64-1.42,1.42
		C76.54,11.84,77.17,12.47,77.96,12.47z"/>
	<path class="st2" d="M145.42,15.45c0.78,0,1.42-0.64,1.42-1.42c0-0.78-0.64-1.42-1.42-1.42S144,13.25,144,14.03
		C144,14.81,144.64,15.45,145.42,15.45z"/>
	<path class="st3" d="M160.3,30.48c0.78,0,1.42-0.64,1.42-1.42s-0.64-1.42-1.42-1.42s-1.42,0.64-1.42,1.42S159.52,30.48,160.3,30.48
		z"/>
	<path class="st3" d="M72.06,22.91c0.47,0,0.86-0.38,0.86-0.86c0-0.47-0.38-0.86-0.86-0.86c-0.47,0-0.86,0.38-0.86,0.86
		C71.2,22.52,71.58,22.91,72.06,22.91z"/>
	<path class="st3" d="M97.11,11.34c0.47,0,0.86-0.38,0.86-0.86c0-0.47-0.38-0.86-0.86-0.86c-0.47,0-0.86,0.38-0.86,0.86
		C96.25,10.96,96.64,11.34,97.11,11.34z"/>
	<path class="st1" d="M124.2,16.31c0.47,0,0.86-0.38,0.86-0.86c0-0.47-0.38-0.86-0.86-0.86s-0.86,0.38-0.86,0.86
		C123.34,15.92,123.72,16.31,124.2,16.31z"/>
	<path class="st3" d="M128.13,12.2c0.47,0,0.86-0.38,0.86-0.86c0-0.47-0.38-0.86-0.86-0.86c-0.47,0-0.86,0.38-0.86,0.86
		C127.28,11.82,127.66,12.2,128.13,12.2z"/>
	<path class="st1" d="M137.96,11.99c0.47,0,0.86-0.38,0.86-0.86s-0.38-0.86-0.86-0.86c-0.47,0-0.86,0.38-0.86,0.86
		C137.1,11.61,137.49,11.99,137.96,11.99z"/>
	<path class="st1" d="M151.49,22.05c0.47,0,0.86-0.38,0.86-0.86c0-0.47-0.38-0.86-0.86-0.86c-0.47,0-0.86,0.38-0.86,0.86
		C150.63,21.67,151.02,22.05,151.49,22.05z"/>
	<path class="st1" d="M168.28,21.19c0.47,0,0.86-0.38,0.86-0.86c0-0.47-0.38-0.86-0.86-0.86c-0.47,0-0.86,0.38-0.86,0.86
		C167.42,20.81,167.8,21.19,168.28,21.19z"/>
	<path class="st2" d="M59.26,32.19c0.47,0,0.86-0.38,0.86-0.86s-0.38-0.86-0.86-0.86s-0.86,0.38-0.86,0.86S58.79,32.19,59.26,32.19z
		"/>
	<path class="st3" d="M48.86,25.75c0.47,0,0.86-0.38,0.86-0.86c0-0.47-0.38-0.86-0.86-0.86S48,24.42,48,24.89
		C48,25.37,48.38,25.75,48.86,25.75z"/>
	<path class="st1" d="M114.85,9.05c0.47,0,0.86-0.38,0.86-0.86c0-0.47-0.38-0.86-0.86-0.86S114,7.72,114,8.19
		C114,8.66,114.38,9.05,114.85,9.05z"/>
	<path class="st1" d="M40.37,34.37c0.65,0,1.18-0.53,1.18-1.18c0-0.65-0.53-1.18-1.18-1.18s-1.18,0.53-1.18,1.18
		C39.18,33.84,39.71,34.37,40.37,34.37z"/>
	
		<linearGradient id="SVGID_1_" gradientUnits="userSpaceOnUse" x1="-480.2853" y1="15515.7734" x2="-441.2456" y2="15428.3047" gradientTransform="matrix(1 0 0 -1 564 15585.0703)">
		<stop  offset="0" style="stop-color:#D600AA"/>
		<stop  offset="1" style="stop-color:#512BD4"/>
	</linearGradient>
	<path class="st4" d="M40.33,113.72c-3.37,19.18,7.01,29.61,47.11,33.23c46.44,4.19,91.68-2.12,85.17-32.3
		c-0.04-0.19-0.08-0.39-0.12-0.58C151.58,113.09,77.7,110.01,40.33,113.72z"/>
	
		<linearGradient id="SVGID_00000027572233729432792440000004999117495643813537_" gradientUnits="userSpaceOnUse" x1="-515.816" y1="15524.6348" x2="-507.7601" y2="15524.4072" gradientTransform="matrix(1 0 0 -1 564 15585.0703)">
		<stop  offset="0" style="stop-color:#D600AA"/>
		<stop  offset="1" style="stop-color:#512BD4"/>
	</linearGradient>
	<path style="fill:url(#SVGID_00000027572233729432792440000004999117495643813537_);" d="M52.71,12.57
		c-1.49,8.9-2.34,19.87,0.55,27.15c5.59,14.1-4.61,17.52-0.67,32.17s-2.65,24.31-0.34,29.3s0,8.65,0,8.65h1.12
		c0,0,2.91-4.95,1.03-8.82s3.17-18.47,0.08-30.07c-3.08-11.6,3.84-17.32,0.51-31.73c-1.98-8.56-1.21-19.22,0.15-27.88
		C54.31,11.74,53.49,12.14,52.71,12.57z"/>
	
		<linearGradient id="SVGID_00000164501692461665969010000017986487578436133293_" gradientUnits="userSpaceOnUse" x1="-523.5551" y1="15522.8535" x2="-514.8002" y2="15522.5664" gradientTransform="matrix(1 0 0 -1 564 15585.0703)">
		<stop  offset="0" style="stop-color:#D600AA"/>
		<stop  offset="1" style="stop-color:#512BD4"/>
	</linearGradient>
	<path style="fill:url(#SVGID_00000164501692461665969010000017986487578436133293_);" d="M47.57,108.57c0,0-0.99-3.83-0.33-10.15
		s3.45-24.46-0.33-43.09c-2.48-12.22-1.09-26.54-0.1-39.02c-0.78,0.59-1.53,1.21-2.23,1.84c-0.8,11.61-1.31,25.92,0.69,36.02
		c2.97,15.02,2.39,16.93,1.36,25.59c0.01,4.61-0.37,9.21-1.14,13.75c-0.38,10.38,0.76,14.9,0.76,14.9L47.57,108.57z"/>
	
		<linearGradient id="SVGID_00000079452252337913032160000002814188596772581301_" gradientUnits="userSpaceOnUse" x1="-403.115" y1="15526.1279" x2="-396.3088" y2="15525.9639" gradientTransform="matrix(1 0 0 -1 564 15585.0703)">
		<stop  offset="0" style="stop-color:#D600AA"/>
		<stop  offset="1" style="stop-color:#512BD4"/>
	</linearGradient>
	<path style="fill:url(#SVGID_00000079452252337913032160000002814188596772581301_);" d="M164.93,39.54
		c0.46-6.13,0.68-18.59,0.55-28.36c-0.5-0.31-1.02-0.61-1.55-0.9c0.19,9.87-0.11,22.09-0.36,29.88
		c-0.37,11.73,3.33,14.72,1.23,35.81s0.74,31.82,0.74,31.82h1.11c0,0-2.22-16.84,0.12-31.57C169.13,61.5,164.19,49.39,164.93,39.54z
		"/>
	
		<linearGradient id="SVGID_00000022533780221482909310000016525197244828809901_" gradientUnits="userSpaceOnUse" x1="-396.5903" y1="15531.7295" x2="-389.7864" y2="15531.5117" gradientTransform="matrix(1 0 0 -1 564 15585.0703)">
		<stop  offset="0" style="stop-color:#D600AA"/>
		<stop  offset="1" style="stop-color:#512BD4"/>
	</linearGradient>
	<path style="fill:url(#SVGID_00000022533780221482909310000016525197244828809901_);" d="M172.68,78.2
		c-2.1-21.09,1.6-24.08,1.23-35.81c-0.19-6.19-0.42-15.17-0.41-23.55c-0.47-0.71-0.98-1.4-1.52-2.06
		c-0.05,9.11,0.17,19.55,0.58,24.99c0.74,9.86-4.19,21.96-1.85,36.68c0.62,3.89,0.92,7.92,1.03,11.75c0.35-2.59,0.81-5.13,1.32-7.66
		C172.96,81.14,172.83,79.7,172.68,78.2z"/>
	
		<linearGradient id="SVGID_00000131338396283655216050000006442986016078926465_" gradientUnits="userSpaceOnUse" x1="-414.9719" y1="15526.7471" x2="-406.6135" y2="15526.5156" gradientTransform="matrix(1 0 0 -1 564 15585.0703)">
		<stop  offset="0" style="stop-color:#D600AA"/>
		<stop  offset="1" style="stop-color:#512BD4"/>
	</linearGradient>
	<path style="fill:url(#SVGID_00000131338396283655216050000006442986016078926465_);" d="M154.24,57.35
		c-3.78,18.63-0.98,36.77-0.33,43.09c0.65,6.32-0.33,10.15-0.33,10.15l1.31-0.17c0,0,1.64-6.49,0.33-21.79s-2.96-14.14,0.66-32.44
		c2.51-12.72,0.35-36.77-0.71-49.37c-0.68-0.19-1.38-0.37-2.09-0.53C153.94,20.53,157.21,42.75,154.24,57.35z"/>
</g>
</svg>
