<?xml version="1.0" encoding="utf-8"?>
<!-- Generator: Adobe Illustrator 24.3.0, SVG Export Plug-In . SVG Version: 6.00 Build 0)  -->
<svg version="1.1" xmlns="http://www.w3.org/2000/svg" xmlns:xlink="http://www.w3.org/1999/xlink" x="0px" y="0px"
	 viewBox="0 0 2000 2000" enable-background="new 0 0 2000 2000" xml:space="preserve">
<g id="ghost-image" display="none">
	<g display="inline" opacity="0.5">
		<path fill="#8A6FE8" d="M1469.02,1134.64c-57.66-4.68-181.26-73.79-228.06-150.36c-28.4-46.51,24.83-83.62,53.75-36.22
			c31.36,51.3,134.81,115.23,179.86,118.94L1469.02,1134.64z"/>
		<path fill="#8A6FE8" d="M1525.01,1005.66l-88.68,33.66c-15.81,6.01-23.74,23.69-17.79,39.47c6.01,15.81,23.68,23.74,39.47,17.79
			l88.68-33.66c15.81-6.01,23.74-23.69,17.79-39.47C1558.56,1007.59,1540.82,999.63,1525.01,1005.66z"/>
		<path fill="#8A6FE8" d="M1416.45,1155.13l37.83,51.37c10.17,13.62,29.44,16.44,43.06,6.26c13.63-10.17,16.44-29.43,6.27-43.06
			l-38.78-52.71L1416.45,1155.13z"/>
		<path fill="#8A6FE8" d="M1450.74,1158.21l76.78,42.91c14.86,8.25,33.6,2.87,41.85-12.01c8.25-14.83,2.87-33.6-12.01-41.85
			l-57-32.1L1450.74,1158.21z"/>
		<path fill="#8A6FE8" d="M1460.34,1121.85l84.59,24.43c16.33,4.74,33.4-4.69,38.15-20.98c4.74-16.33-4.69-33.4-20.98-38.15
			l-86.18-24.89L1460.34,1121.85z"/>
		
			<radialGradient id="SVGID_1_" cx="-340.1232" cy="9277.5146" r="6.0502" gradientTransform="matrix(10.6515 0 0 -10.6515 5074.3931 99923.1875)" gradientUnits="userSpaceOnUse">
			<stop  offset="0" style="stop-color:#8065E0"/>
			<stop  offset="1" style="stop-color:#512BD4"/>
		</radialGradient>
		<path fill="url(#SVGID_1_)" d="M1451.57,1168.18c35.59,0,64.45-28.85,64.45-64.44c0-35.59-28.86-64.44-64.45-64.44
			c-35.58,0-64.44,28.85-64.44,64.44C1387.13,1139.33,1415.99,1168.18,1451.57,1168.18z"/>
		
			<linearGradient id="SVGID_2_" gradientUnits="userSpaceOnUse" x1="432.5041" y1="14876.1748" x2="492.2814" y2="14591.4668" gradientTransform="matrix(1 0 0 -1 694 15972)">
			<stop  offset="0" style="stop-color:#522CD5"/>
			<stop  offset="0.4397" style="stop-color:#8A6FE8"/>
		</linearGradient>
		<path fill="url(#SVGID_2_)" d="M1216.5,1374.16c0.66-59.76-7.85-181.06-69.53-282.64l-60.31,36.62
			c55.97,92.13,60.17,199.66,58.87,246.57C1145.39,1378.59,1181.58,1382.1,1216.5,1374.16z"/>
		<path fill="#522CD5" d="M1145.53,1374.05l55.85-0.26l52.14,298.71l-112.1,0.52c-8.54,0.03-15.01-6.84-14.43-15.38L1145.53,1374.05
			z"/>
		
			<linearGradient id="SVGID_3_" gradientUnits="userSpaceOnUse" x1="468.5244" y1="14600.0068" x2="646.1333" y2="14283.3535" gradientTransform="matrix(1 0 0 -1 694 15972)">
			<stop  offset="0" style="stop-color:#522CD5"/>
			<stop  offset="0.4397" style="stop-color:#8A6FE8"/>
		</linearGradient>
		<path fill="url(#SVGID_3_)" d="M1373.04,1593.94c9.68,7.65,9.52,18.71,8.77,30.39l-2.33,35.78c-0.43,6.41-6.01,11.68-12.41,11.7
			l-116.82,0.52c-7.28,0.03-12.76-5.84-12.27-13.08l0.77-37.08c0.89-13.48-3.65-18.43-14.08-31.13
			c-17.88-21.7-70.74-139.98-65.71-217.05l57.52-0.26C1220.29,1419.47,1280.66,1521.05,1373.04,1593.94z"/>
		
			<radialGradient id="SVGID_4_" cx="-389.4038" cy="8976.502" r="6.0492" gradientTransform="matrix(20.3477 -0.0926 -0.0926 -20.3477 10058.9678 184157.2188)" gradientUnits="userSpaceOnUse">
			<stop  offset="0.034" style="stop-color:#522CD5"/>
			<stop  offset="0.9955" style="stop-color:#8A6FE8"/>
		</radialGradient>
		<path fill="url(#SVGID_4_)" d="M1381.81,1624.33c0.55-8.17,0.69-15.98-2.5-22.59l-145.71,0.66c4.03,5.92,5.72,11.09,5.18,19.74
			l-0.78,37.08c-0.48,7.27,5.03,13.14,12.27,13.08l116.82-0.51c6.41-0.03,11.99-5.29,12.42-11.7L1381.81,1624.33z"/>
		
			<linearGradient id="SVGID_5_" gradientUnits="userSpaceOnUse" x1="103.6272" y1="14880.5391" x2="172.3586" y2="14557.1797" gradientTransform="matrix(1 0 0 -1 694 15972)">
			<stop  offset="0" style="stop-color:#522CD5"/>
			<stop  offset="0.4397" style="stop-color:#8A6FE8"/>
		</linearGradient>
		<path fill="url(#SVGID_5_)" d="M847.6,1418.81l-71.31-8.88l40.1-322.45l71.32,8.85L847.6,1418.81z"/>
		<path fill="#522CD5" d="M781.46,1371.7l56.51-0.26l15.64,302.04L740.18,1674c-8.62,0.03-14.31-6.93-12.68-15.55L781.46,1371.7z"/>
		
			<linearGradient id="SVGID_6_" gradientUnits="userSpaceOnUse" x1="48.8044" y1="14573.0049" x2="202.8481" y2="14279.4717" gradientTransform="matrix(1 0 0 -1 694 15972)">
			<stop  offset="0" style="stop-color:#522CD5"/>
			<stop  offset="0.4397" style="stop-color:#8A6FE8"/>
		</linearGradient>
		<path fill="url(#SVGID_6_)" d="M945.67,1595.09c8.71,7.88,8.51,18,6.27,29.81l-6.81,36.19c-1.21,6.47-7.53,11.78-14,11.81
			l-162.21,0.75c-7.36,0.02-12.19-5.89-10.81-13.25l5.78-37.51c2.56-13.62,0.57-17.65,0.83-35.13
			c0.49-32.76,15.61-138.25,30.27-216.16l58.21-0.25C851.42,1417.63,871.48,1527.86,945.67,1595.09z"/>
		
			<radialGradient id="SVGID_7_" cx="-409.6337" cy="8953.1309" r="6.0492" gradientTransform="matrix(22.145 -0.1007 -0.1006 -22.1216 10835.0605 199558.0469)" gradientUnits="userSpaceOnUse">
			<stop  offset="0.034" style="stop-color:#522CD5"/>
			<stop  offset="0.9955" style="stop-color:#8A6FE8"/>
		</radialGradient>
		<path fill="url(#SVGID_7_)" d="M763.92,1622.92l-5.78,37.51c-1.38,7.33,3.45,13.28,10.81,13.25l162.2-0.74
			c6.5-0.03,12.79-5.35,14-11.81l6.81-36.19c1.61-8.57,2.1-16.24-1.03-22.82l-185.86,0.83
			C765.36,1609.61,765.53,1614.39,763.92,1622.92z"/>
		<path fill="#8A6FE8" d="M803.96,455.82l-67.46,27.13l-18.37-73.07l48.43-19.49L803.96,455.82z"/>
		<path fill="#512BD4" d="M788.84,581.95c38.16,0,69.1-30.94,69.1-69.1c0-38.16-30.94-69.1-69.1-69.1s-69.1,30.94-69.1,69.1
			C719.74,551.01,750.68,581.95,788.84,581.95z"/>
		
			<radialGradient id="SVGID_8_" cx="-423.4456" cy="8790.5693" r="6.0492" gradientTransform="matrix(61.9498 0 0 -61.9498 27248.0605 545342.125)" gradientUnits="userSpaceOnUse">
			<stop  offset="0.4744" style="stop-color:#A08BE8"/>
			<stop  offset="0.8618" style="stop-color:#8065E0"/>
		</radialGradient>
		<path fill="url(#SVGID_8_)" d="M1300.17,939.67c24.86-95.46,8.83-171.66,8.83-171.66h22.45l0.54-0.43
			c-32.16-175.17-185.6-307.91-370.05-307.91c-207.82,0-376.29,168.47-376.29,376.29c0,207.82,168.44,376.29,376.29,376.29
			c163.98,0,303.45-104.92,354.99-251.25C1318.43,954.79,1318.29,943.64,1300.17,939.67z"/>
		<path fill="#D8CFF7" d="M1286.38,1026.53h-648.9c14.57,24.75,31.88,47.66,51.54,68.36h545.85
			C1254.5,1074.17,1271.8,1051.28,1286.38,1026.53z"/>
		
			<radialGradient id="SVGID_9_" cx="-416.8061" cy="8822.0029" r="6.0492" gradientTransform="matrix(48.2581 0 0 -48.2581 21346.373 426431.9688)" gradientUnits="userSpaceOnUse">
			<stop  offset="0.0933" style="stop-color:#E1DFDD"/>
			<stop  offset="0.8998" style="stop-color:#FFFFFF"/>
		</radialGradient>
		<path fill="url(#SVGID_9_)" d="M1300.17,939.67c24.55-94.28,9.22-169.73,8.86-171.57H918.6c0,0-24.61-2.5-24.61,19.98
			c0,22.48,0.93,85.94,0.93,156.17c0,14.43,11.81,21.38,21.12,21.38C916.07,965.59,1256.6,965.57,1300.17,939.67z"/>
		<path fill="#A08BE8" d="M1065.02,939.87c0,0,60.05-47.51,71.75-56.31c11.72-8.8,21.96-9.29,32.71,0
			c10.75,9.29,70.85,56.31,70.85,56.31H1065.02z"/>
		<path fill="#512BD4" d="M1315.41,965.33c0,0,10.43-20.06-15.24-25.67c0.03-0.08-383.82-0.28-383.82-0.28
			c-8.93,0-20.43-5.32-21.41-14c0,6.21,0.03,12.47,0.03,18.83c0,13.11,9.75,20.03,18.48,21.18c0.86,0.11,1.75,0.2,2.65,0.2h26.24
			L1315.41,965.33z"/>
		<path fill="#512BD4" d="M1286.53,851.61c0.41-27.33-12.44-49.69-28.69-49.93c-16.25-0.24-29.76,21.72-30.17,49.05
			c-0.41,27.34,12.44,49.69,28.69,49.93C1272.61,900.9,1286.12,878.95,1286.53,851.61z"/>
		<path fill="#8065E0" d="M1256.74,825.01c-10.75,10.75-10.75,28.17,0,38.92c7.36,7.36,17.85,9.69,27.19,6.96
			c1.58-5.89,2.5-12.42,2.62-19.26c0.2-13.39-2.79-25.58-7.82-34.58C1270.88,816.36,1262.75,819,1256.74,825.01z"/>
		<path fill="#512BD4" d="M1020.8,900.92c16.25-0.24,29.1-22.6,28.69-49.93c-0.41-27.33-13.91-49.3-30.17-49.05
			c-16.25,0.24-29.1,22.6-28.69,49.93C991.04,879.19,1004.54,901.16,1020.8,900.92z"/>
		<path fill="#8065E0" d="M1019.83,826.62c-10.75,10.75-10.75,28.17,0,38.92c7.33,7.33,17.74,9.63,27.02,6.98
			c1.78-6.55,2.76-13.85,2.64-21.59c-0.17-12.42-3.07-23.69-7.7-32.28C1033.95,817.97,1025.84,820.61,1019.83,826.62z"/>
		<path fill="#512BD4" d="M1084.82,1115.23l123.17-0.56l-0.5-108.94l-123.17,0.56L1084.82,1115.23z"/>
		<path fill="#FFFFFF" d="M1106.12,1074.51c-0.83,0-1.52-0.26-2.1-0.8c-0.57-0.55-0.86-1.24-0.86-1.98c0-0.77,0.28-1.47,0.86-2.01
			c0.57-0.57,1.26-0.83,2.1-0.83c0.83,0,1.52,0.29,2.1,0.83c0.57,0.54,0.89,1.24,0.89,2.01c0,0.77-0.28,1.43-0.86,1.98
			C1107.68,1074.22,1106.96,1074.51,1106.12,1074.51z"/>
		<path fill="#FFFFFF" d="M1138.89,1073.97h-5.32l-14.08-22.11c-0.34-0.54-0.67-1.15-0.9-1.75h-0.11c0.11,0.63,0.18,2.01,0.18,4.14
			l0.03,19.74h-4.72l-0.05-30.12h5.66l13.6,21.59c0.57,0.89,0.94,1.52,1.12,1.84h0.08c-0.15-0.8-0.2-2.15-0.2-4.05l-0.03-19.4h4.69
			L1138.89,1073.97z"/>
		<path fill="#FFFFFF" d="M1161.83,1073.94l-16.5,0.03l-0.06-30.12l15.84-0.03v4.25l-10.95,0.03l0.03,8.54l10.09-0.03v4.23
			l-10.09,0.03l0.02,8.91l11.61-0.03V1073.94z"/>
		<path fill="#FFFFFF" d="M1185.2,1048.01l-8.45,0.02l0.06,25.87h-4.89l-0.06-25.87l-8.42,0.03v-4.25l21.73-0.06L1185.2,1048.01z"/>
		<path fill="#8A6FE8" d="M529.43,1254.19l40.18,57.34c10.81,15.24,31.93,18.74,47.17,7.94c15.23-10.81,18.74-31.93,7.93-47.14
			l-49.73-69.3L529.43,1254.19z"/>
		<path fill="#8A6FE8" d="M460.13,1232.49L449,1301.65c-2.82,18.43,9.8,35.7,28.28,38.52c18.43,2.82,35.7-9.8,38.52-28.29
			l11.38-70.88L460.13,1232.49z"/>
		<path fill="#8A6FE8" d="M504.99,1240.3l-9.34,69.42c-2.36,18.48,10.75,35.44,29.23,37.8c18.48,2.36,35.44-10.75,37.83-29.23
			l9.6-71.2L504.99,1240.3z"/>
		<path fill="#8A6FE8" d="M442.74,1211.82l-25.09,65.39c-6.58,17.48,2.3,36.99,19.78,43.52c17.48,6.58,36.99-2.3,43.52-19.77
			l25.73-67.06L442.74,1211.82z"/>
		
			<linearGradient id="SVGID_10_" gradientUnits="userSpaceOnUse" x1="-100.864" y1="15112.4697" x2="-100.864" y2="14731.5771" gradientTransform="matrix(1 0 0 -1 694 15972)">
			<stop  offset="0.2495" style="stop-color:#967FE6"/>
			<stop  offset="1" style="stop-color:#8A6FE8"/>
		</linearGradient>
		<path fill="url(#SVGID_10_)" d="M489.3,1240.42c-27.91-57-44.21-154.45,1.78-241.6c27.97-52.92,89.19-120.03,222.28-139.29
			l10.69,73.79c-80.8,11.7-138.52,46.39-167,100.32c-30.84,58.41-22.59,129.43-0.78,174.04L489.3,1240.42z"/>
		
			<radialGradient id="SVGID_11_" cx="-398.6002" cy="9256.3447" r="6.0492" gradientTransform="matrix(11.3989 0 0 -11.3989 5280.3384 106373.5469)" gradientUnits="userSpaceOnUse">
			<stop  offset="0" style="stop-color:#8065E0"/>
			<stop  offset="1" style="stop-color:#512BD4"/>
		</radialGradient>
		<path fill="url(#SVGID_11_)" d="M738.97,954.1c38.06,0,68.9-30.84,68.9-68.9c0-38.06-30.84-68.9-68.9-68.9
			c-38.06,0-68.9,30.84-68.9,68.9C670.07,923.23,700.92,954.1,738.97,954.1z"/>
		
			<radialGradient id="SVGID_12_" cx="-424.5891" cy="8960.3008" r="6.0492" gradientTransform="matrix(22.7292 0 0 -22.7292 10155.4404 204814.2031)" gradientUnits="userSpaceOnUse">
			<stop  offset="0" style="stop-color:#8065E0"/>
			<stop  offset="1" style="stop-color:#512BD4"/>
		</radialGradient>
		<path fill="url(#SVGID_12_)" d="M508.62,1277.33c39.09,0,70.77-31.68,70.77-70.77c0-39.09-31.68-70.77-70.77-70.77
			c-39.09,0-70.77,31.68-70.77,70.77C437.85,1245.65,469.55,1277.33,508.62,1277.33z"/>
		<path fill="#D8CFF7" d="M739.68,415.8c-26.24,6.99-53.32-8.39-60.54-34.41c-7.19-26.01,8.22-52.72,34.46-59.7
			c26.24-6.98,53.32,8.39,60.54,34.41C781.36,382.11,765.95,408.78,739.68,415.8z"/>
	</g>
</g>
<g id="bot-base" display="none">
	<g display="inline">
		
			<radialGradient id="SVGID_13_" cx="-423.4456" cy="8790.5693" r="6.0492" gradientTransform="matrix(61.9498 0 0 -61.9498 27248.0605 545342.125)" gradientUnits="userSpaceOnUse">
			<stop  offset="0.4744" style="stop-color:#A08BE8"/>
			<stop  offset="0.8618" style="stop-color:#8065E0"/>
		</radialGradient>
		<path fill="url(#SVGID_13_)" d="M1300.17,939.67c24.86-95.46,8.83-171.66,8.83-171.66h22.45l0.54-0.43
			c-32.16-175.17-185.6-307.91-370.05-307.91c-207.82,0-376.29,168.47-376.29,376.29c0,207.82,168.44,376.29,376.29,376.29
			c163.98,0,303.45-104.92,354.99-251.25C1318.43,954.79,1318.29,943.64,1300.17,939.67z"/>
		<path fill="#D8CFF7" d="M1286.38,1026.53h-648.9c14.57,24.75,31.88,47.66,51.54,68.36h545.85
			C1254.5,1074.17,1271.8,1051.28,1286.38,1026.53z"/>
		
			<radialGradient id="SVGID_14_" cx="-416.8061" cy="8822.0029" r="6.0492" gradientTransform="matrix(48.2581 0 0 -48.2581 21346.373 426431.9688)" gradientUnits="userSpaceOnUse">
			<stop  offset="0.0933" style="stop-color:#E1DFDD"/>
			<stop  offset="0.8998" style="stop-color:#FFFFFF"/>
		</radialGradient>
		<path fill="url(#SVGID_14_)" d="M1300.17,939.67c24.55-94.28,9.22-169.73,8.86-171.57H918.6c0,0-24.61-2.5-24.61,19.98
			c0,22.48,0.93,85.94,0.93,156.17c0,14.43,11.81,21.38,21.12,21.38C916.07,965.59,1256.6,965.57,1300.17,939.67z"/>
		<path fill="#A08BE8" d="M1065.02,939.87c0,0,60.05-47.51,71.75-56.31c11.72-8.8,21.96-9.29,32.71,0
			c10.75,9.29,70.85,56.31,70.85,56.31H1065.02z"/>
		<path fill="#512BD4" d="M1315.41,965.33c0,0,10.43-20.06-15.24-25.67c0.03-0.08-383.82-0.28-383.82-0.28
			c-8.93,0-20.43-5.32-21.41-14c0,6.21,0.03,12.47,0.03,18.83c0,13.11,9.75,20.03,18.48,21.18c0.86,0.11,1.75,0.2,2.65,0.2h26.24
			L1315.41,965.33z"/>
		<path fill="#512BD4" d="M1084.82,1115.23l123.17-0.56l-0.5-108.94l-123.17,0.56L1084.82,1115.23z"/>
		<path fill="#FFFFFF" d="M1106.12,1074.51c-0.83,0-1.52-0.26-2.1-0.8c-0.57-0.55-0.86-1.24-0.86-1.98c0-0.77,0.28-1.47,0.86-2.01
			c0.57-0.57,1.26-0.83,2.1-0.83c0.83,0,1.52,0.29,2.1,0.83c0.57,0.54,0.89,1.24,0.89,2.01c0,0.77-0.28,1.43-0.86,1.98
			C1107.68,1074.22,1106.96,1074.51,1106.12,1074.51z"/>
		<path fill="#FFFFFF" d="M1138.89,1073.97h-5.32l-14.08-22.11c-0.34-0.54-0.67-1.15-0.9-1.75h-0.11c0.11,0.63,0.18,2.01,0.18,4.14
			l0.03,19.74h-4.72l-0.05-30.12h5.66l13.6,21.59c0.57,0.89,0.94,1.52,1.12,1.84h0.08c-0.15-0.8-0.2-2.15-0.2-4.05l-0.03-19.4h4.69
			L1138.89,1073.97z"/>
		<path fill="#FFFFFF" d="M1161.83,1073.94l-16.5,0.03l-0.06-30.12l15.84-0.03v4.25l-10.95,0.03l0.03,8.54l10.09-0.03v4.23
			l-10.09,0.03l0.02,8.91l11.61-0.03V1073.94z"/>
		<path fill="#FFFFFF" d="M1185.2,1048.01l-8.45,0.02l0.06,25.87h-4.89l-0.06-25.87l-8.42,0.03v-4.25l21.73-0.06L1185.2,1048.01z"/>
	</g>
</g>
<g id="asset">
	<g>
		<path fill="#D2F6FE" d="M1070.37,1941.88c-797.66,13.11-902.18-35.69-960.96-300.98C-4.62,1126.26,241.27,911.82,138.4,485.95
			C42.49,88.86,638.75-9.37,1254.48,30.82s707.14,214.33,603.25,554.13c-72.93,238.55-53.58,535.58,80.37,836.86
			S1613.62,1932.95,1070.37,1941.88z"/>
		<path fill="#A3C9F6" d="M1172.37,379.5h-89.63c-4.92,0-8.9-3.99-8.9-8.9v-28.62c0-4.92,3.99-8.9,8.9-8.9h89.63
			c4.92,0,8.9,3.99,8.9,8.9v28.62C1181.27,375.51,1177.28,379.5,1172.37,379.5z"/>
		<path fill="#9C9894" d="M109.41,1640.9c58.78,265.29,163.3,314.1,960.96,300.98c514.3-8.45,952.58-197,884.16-472.72H82.82
			C87.39,1522.74,95.85,1579.69,109.41,1640.9z"/>
		<path fill="#BDD8F9" d="M975.72,851.42v199.68h646.78V851.42H975.72z M1269.44,1013.47h-130.65V882.06h130.65V1013.47z
			 M1430.45,1013.47h-130.65V882.06h130.65V1013.47z M1590.08,1013.47h-130.65V882.06h130.65V1013.47z"/>
		<path fill="#A3C9F6" d="M937.76,1039.3v412.17h866.89V1039.3H937.76z M1109.3,1218.88H977.61v-131.41h131.68V1218.88z
			 M1271.59,1218.88h-131.68v-131.41h131.68V1218.88z M1432.95,1218.88h-131.68v-131.41h131.68V1218.88z M1595.24,1218.88h-131.68
			v-131.41h131.68V1218.88z M1756.14,1218.88h-131.68v-131.41h131.68V1218.88z"/>
		<g>
			<rect x="1780.59" y="924.53" fill="#8DBCF4" width="24.06" height="513.54"/>
			<rect x="1608.14" y="684.78" fill="#8DBCF4" width="24.06" height="753.29"/>
			<rect x="1435.69" y="684.78" fill="#8DBCF4" width="24.06" height="753.29"/>
			<rect x="1263.24" y="684.78" fill="#8DBCF4" width="24.06" height="753.29"/>
			<rect x="1090.79" y="768.01" fill="#8DBCF4" width="24.06" height="670.06"/>
			<rect x="1020.06" y="835.96" fill="#8DBCF4" width="675.58" height="23.57"/>
			<rect x="1020.06" y="1028.51" fill="#8DBCF4" width="784.59" height="23.57"/>
		</g>
		<path fill="#FDD99C" d="M1524.44,1438.07c-37.03-32.28-155.56-124.7-263.25-89.74c-88.42,28.7-176.32,75.19-202.9,89.74H1524.44z"
			/>
		<path fill="#BDD8F9" d="M885.69,286.39l2.11-9.82L404.86,172.83c-5.96,2.11-11.83,4.28-17.63,6.48L885.69,286.39z"/>
		<rect x="328.69" y="455.56" fill="#A3C9F6" width="85.95" height="23.04"/>
		<rect x="464.46" y="325.39" fill="#BDD8F9" width="741.11" height="13.08"/>
		<path fill="#BDD8F9" d="M191.2,357.46v-13.08h-56.24c-1,4.31-1.89,8.67-2.67,13.08H191.2z"/>
		<g>
			<path fill="#BDD8F9" d="M428.63,1518.58H313.71V479.38h114.92V1518.58z M327.1,1505.19h88.14V492.77H327.1V1505.19z"/>
		</g>
		<path fill="#BDD8F9" d="M383.11,189.8l30.45,134.85h-84.78l30.26-133.98c-5.15,2.2-10.24,4.44-15.25,6.72l-31.76,140.65h118.28
			L393.9,176.81c-11.22,4.16-22.16,8.49-32.8,12.99H383.11z"/>
		<g>
			<polygon fill="#BDD8F9" points="419.58,329.1 330.83,292.67 330.83,283.37 393.22,257.78 342.72,233.69 342.56,224.7 
				389.28,200.41 393.91,209.33 356.14,228.97 407.77,253.59 407.51,262.77 345.96,288.02 423.4,319.81 			"/>
		</g>
		<path fill="#8DBCF4" d="M469.45,408V331.5c0-3.72-3.01-6.73-6.73-6.73H189.67c-3.72,0-6.73,3.01-6.73,6.73v82.45
			c0,3.72,3.01,6.73,6.73,6.73h68.15c1.15,0,2.26,0.28,3.27,0.85c24.73,13.84,61.16,35.26,69.13,39.96
			c1.03,0.61,2.21,0.93,3.41,0.93h133.6c2.51,0,4.81-1.39,5.97-3.61l16.24-31.09c1.92-3.68,0.09-8.21-3.86-9.51l-11.52-3.8
			C471.31,413.49,469.45,410.91,469.45,408z"/>
		<path fill="#BDD8F9" d="M409.03,394.17l77.39,24.18c-1.9-1.22-16.97-79.88-16.97-79.88h-60.41V394.17z"/>
		<path fill="#BDD8F9" d="M331.78,554.31l93.07-64.89h-18.94l-83.45,58.18v13.41l83.45,58.18l-83.45,58.18v13.41l83.45,58.18
			l-83.45,58.18v13.41l83.45,58.18l-83.45,58.18v13.41l83.45,58.18l-83.45,58.18v13.41l83.45,58.18l-83.45,58.18v13.41l83.45,58.18
			l-83.45,58.18v13.41l83.45,58.18l-83.45,58.18v13.41l62.23,43.38c6.37,0.09,12.86,0.17,19.3,0.25l-72.2-50.34l93.07-64.89
			l-93.07-64.89l93.07-64.89l-93.07-64.89l93.07-64.89l-93.07-64.89l93.07-64.89l-93.07-64.89l93.07-64.89l-93.07-64.89l93.07-64.89
			l-93.07-64.89l93.07-64.89L331.78,554.31z"/>
		<rect x="300.2" y="478.61" fill="#8DBCF4" width="141.22" height="18.68"/>
		<rect x="319.28" y="549.74" fill="#BDD8F9" width="105.57" height="10.41"/>
		<rect x="319.28" y="613.82" fill="#BDD8F9" width="105.57" height="10.41"/>
		<rect x="319.28" y="679.45" fill="#BDD8F9" width="105.57" height="10.41"/>
		<rect x="319.28" y="743.38" fill="#BDD8F9" width="105.57" height="10.41"/>
		<rect x="319.28" y="808.15" fill="#BDD8F9" width="105.57" height="10.41"/>
		<rect x="319.28" y="872.99" fill="#BDD8F9" width="105.57" height="10.41"/>
		<rect x="319.28" y="938.08" fill="#BDD8F9" width="105.57" height="10.41"/>
		<rect x="319.28" y="1003.71" fill="#BDD8F9" width="105.57" height="10.41"/>
		<rect x="319.28" y="1068.64" fill="#BDD8F9" width="105.57" height="10.41"/>
		<rect x="319.28" y="1133.41" fill="#BDD8F9" width="105.57" height="10.41"/>
		<rect x="319.28" y="1197.75" fill="#BDD8F9" width="105.57" height="10.41"/>
		<rect x="319.28" y="1262.51" fill="#BDD8F9" width="105.57" height="10.41"/>
		<rect x="1124.61" y="343.66" fill="#A3C9F6" width="8.54" height="265.79"/>
		<circle fill="#A3C9F6" cx="1128.56" cy="608.21" r="13.94"/>
		<polygon fill="#A3C9F6" points="1280.94,695.71 1128.59,612.04 984,694.44 980.69,688.62 1128.53,604.37 1130.17,605.27 
			1284.16,689.84 		"/>
		<rect x="942.48" y="684.06" fill="#BDD8F9" width="372.45" height="63.52"/>
		<path fill="#BDD8F9" d="M390.39,338.47h-53.38c-2.53,0-4.59,2.05-4.59,4.59v21.63c0,3.3,2.14,6.22,5.29,7.2l52.68,16.46V338.47z"
			/>
		<g>
			<path fill="#F7B548" d="M80.64,1439.14c0.21,3.46,0.43,6.93,0.67,10.42C81.07,1446.07,80.85,1442.59,80.64,1439.14z"/>
			<path fill="#FDD99C" d="M1031.54,1438.07c-96.1-28.11-116.56-117.09-249.14-111.75c-69.3,2.79-205.1,69.48-262.49,58.73
				c-54.51-10.22-146.82-122.79-440.99-11.28c-0.85,20.63-0.41,42.01,1.65,64.3H1031.54z"/>
			<path fill="#F7B548" d="M81.58,1453.37c0.21,2.97,0.44,5.94,0.68,8.93C82.02,1459.31,81.8,1456.33,81.58,1453.37z"/>
		</g>
		<path fill="#625F5B" d="M109.41,1640.9c5.21,23.53,10.79,45.36,17.17,65.59h1749.59c77.23-75.38,106.9-165.94,68.99-267.35H80.63
			C84.36,1501.35,93.29,1568.12,109.41,1640.9z"/>
		<path fill="#9C9894" d="M109.41,1640.9c58.78,265.29,163.3,314.1,960.96,300.98c491.28-8.08,913.18-180.48,890.33-436.22
			c-33.28-7.19-92.51-4.15-130.94,0.66c-53.58,6.7-157.4,23.44-157.4,23.44s-115.51-45.41-221.02-31.81
			c-105.51,13.59-116.72,23.37-188.11,13.59c-71.39-9.78-121.66-20.29-178.92-36.74c-57.26-16.45-196.63,36.74-196.63,36.74
			l-83.73-36.74l-172.98,38.27c0,0-240.14-47.51-542.06,12.31C93.78,1562.22,100.49,1600.64,109.41,1640.9z"/>
		<g>
			<polygon fill="#FFFFFF" points="1829.31,1577.82 1829.31,1313.76 1809.84,1313.76 1809.84,1484.33 1535.6,1484.33 
				1535.6,1313.76 1516.13,1313.76 1516.13,1577.82 1487.35,1577.82 1487.35,1590.22 1564.87,1590.22 1564.87,1577.82 
				1535.6,1577.82 1535.6,1501.45 1809.84,1501.45 1809.84,1577.82 1781.26,1577.82 1781.26,1590.22 1858.77,1590.22 
				1858.77,1577.82 			"/>
			<path fill="#FFFFFF" d="M1836.97,1439.49h-331.4c-7.15,0-12.94-5.8-12.94-12.94v-84.63c0-7.15,5.8-12.94,12.94-12.94h331.4
				c7.15,0,12.94,5.8,12.94,12.94v84.63C1849.92,1433.69,1844.12,1439.49,1836.97,1439.49z"/>
			<g>
				<path fill="#E86E58" d="M1578.57,1328.96h-48.61l-37.34,70.35v30.82c0,5.17,4.19,9.36,9.36,9.36h17.92L1578.57,1328.96z"/>
				<polygon fill="#E86E58" points="1720.27,1328.96 1661.6,1439.49 1710.21,1439.49 1768.88,1328.96 				"/>
				<path fill="#E86E58" d="M1840.15,1328.96h-24.73l-58.67,110.52h48.61l44.56-83.94v-16.81
					C1849.92,1333.34,1845.54,1328.96,1840.15,1328.96z"/>
				<polygon fill="#E86E58" points="1566.45,1439.49 1615.06,1439.49 1673.73,1328.96 1625.12,1328.96 				"/>
			</g>
		</g>
		<path fill="#FFFFFF" d="M1793.49,379.44h-574.88c0,0,59.16-69.21,173.02-92.65s149.58,40.19,149.58,40.19
			s42.42-88.19,122.79-81.49C1744.37,252.18,1793.49,379.44,1793.49,379.44z"/>
		<polygon fill="#BBB8B4" points="432.75,1765.86 389.21,1765.86 407.07,1740.18 426.05,1741.3 		"/>
		<polygon fill="#BBB8B4" points="318.89,1717.86 284.28,1722.32 263.07,1714.51 276.47,1691.07 301.03,1686.6 		"/>
		<polygon fill="#BBB8B4" points="316.66,1610.69 278.7,1610.69 288.75,1587.25 313.31,1585.02 325.59,1597.3 		"/>
		<polygon fill="#BBB8B4" points="214.52,1670.97 154.24,1674.32 159.82,1645.3 194.42,1643.07 208.93,1650.88 		"/>
		<polygon fill="#BBB8B4" points="424.93,1870.79 395.91,1873.02 362.42,1858.51 374.7,1836.18 403.73,1831.72 422.7,1846.23 		"/>
		<polygon fill="#BBB8B4" points="316.66,1810.51 277.59,1812.74 277.59,1797.11 296.56,1784.83 		"/>
		<polygon fill="#BBB8B4" points="498.61,1812.74 456.19,1801.58 470.7,1781.48 490.79,1778.13 504.19,1793.76 		"/>
		<polygon fill="#BBB8B4" points="470.7,1656.18 514.24,1656.18 496.38,1630.51 477.4,1631.62 		"/>
		<polygon fill="#BBB8B4" points="1416.19,1746.6 1450.79,1751.07 1472,1743.25 1458.61,1719.81 1434.05,1715.34 		"/>
		<polygon fill="#BBB8B4" points="570.05,1600.93 608,1600.93 597.96,1577.48 573.4,1575.25 561.12,1587.53 		"/>
		<polygon fill="#BBB8B4" points="1609.86,1746.04 1670.14,1749.39 1664.56,1720.37 1629.96,1718.14 1615.44,1725.95 		"/>
		<polygon fill="#BBB8B4" points="1285.58,1880.55 1314.61,1882.79 1348.1,1868.27 1335.82,1845.95 1306.79,1841.48 1287.82,1856 		
			"/>
		<polygon fill="#BBB8B4" points="1416.75,1849.86 1455.82,1852.09 1455.82,1836.46 1436.84,1824.18 		"/>
		<polygon fill="#BBB8B4" points="1138.79,1859.9 1181.21,1848.74 1166.7,1828.65 1146.61,1825.3 1133.21,1840.93 		"/>
		<polygon fill="#BBB8B4" points="945.96,1764.46 980.56,1768.93 1001.77,1761.11 988.38,1737.67 963.82,1733.2 		"/>
		<polygon fill="#BBB8B4" points="693.6,1902.59 719.84,1915.18 756.31,1913.78 752.95,1888.52 727.51,1873.85 704.57,1880.51 		"/>
		<polygon fill="#BBB8B4" points="1016.84,1901.76 973.31,1901.76 991.17,1876.09 1010.14,1877.2 		"/>
		<polygon fill="#BBB8B4" points="820.38,1853.76 781.31,1856 781.31,1840.37 800.28,1828.09 		"/>
		<polygon fill="#BBB8B4" points="1745.77,1649.48 1789.3,1649.48 1771.44,1623.81 1752.47,1624.93 		"/>
		<polygon fill="#BBB8B4" points="1596.19,1594.79 1634.14,1594.79 1624.09,1571.34 1599.54,1569.11 1587.26,1581.39 		"/>
		<polygon fill="#BBB8B4" points="1782.61,1706.41 1817.21,1710.88 1838.42,1703.07 1825.02,1679.62 1800.47,1675.16 		"/>
		<polygon fill="#BBB8B4" points="686.42,1747.16 642.89,1747.16 660.75,1721.48 679.72,1722.6 		"/>
		<polygon fill="#BBB8B4" points="1075.72,1645.3 1033.31,1634.14 1047.82,1614.04 1067.91,1610.69 1081.31,1626.32 		"/>
		<path fill="#BDD8F9" d="M346.24,156.74h48c4.62,0,8.37,3.75,8.37,8.37v21.2c0,4.62-3.75,8.37-8.37,8.37h-48
			c-4.62,0-8.37-3.75-8.37-8.37v-21.2C337.86,160.49,341.61,156.74,346.24,156.74z"/>
		<path fill="#BDD8F9" d="M152.4,294.37l191.07-108.89c3.03-5.55,5.97-11.07,8.82-16.59L160.95,277.94
			C157.9,283.32,155.04,288.79,152.4,294.37z"/>
		<path fill="#BDD8F9" d="M1134.69,276.15H740.84h-33.49H552.34l-56.24,51.13l6.75,7.43l38.39-34.9l22.63,31.27h12.95l27.81-38.42
			l27.81,38.42h12.95l27.81-38.42L701,331.08h6.35h6.6h0.18l27.81-38.42l27.81,38.42h12.95l27.81-38.42l27.81,38.42h12.95
			l27.81-38.42l27.81,38.42h12.95l27.81-38.42l27.81,38.42h12.95l27.81-38.42l27.81,38.42h12.95l27.81-38.42l27.81,38.42h12.95
			l20.66-28.55l31.98,33.19l7.23-6.97L1134.69,276.15z M570.35,324.87l-22.49-31.07l8.36-7.6h42.12L570.35,324.87z M638.91,324.87
			l-27.99-38.68h55.99L638.91,324.87z M679.48,286.19h27.87h28.12l-27.91,38.55l-0.21-0.29v0.25L679.48,286.19z M776.22,324.87
			l-27.99-38.68h55.99L776.22,324.87z M844.78,324.87l-27.99-38.68h55.99L844.78,324.87z M913.34,324.87l-28-38.68h55.99
			L913.34,324.87z M981.9,324.87l-27.99-38.68h55.99L981.9,324.87z M1050.47,324.87l-27.99-38.68h55.99L1050.47,324.87z
			 M1119.03,324.87l-27.99-38.68h39.38l9.48,9.84L1119.03,324.87z"/>
	</g>
</g>
</svg>
