<?xml version="1.0" encoding="utf-8"?>
<!-- Generator: Adobe Illustrator 24.3.0, SVG Export Plug-In . SVG Version: 6.00 Build 0)  -->
<svg version="1.1" xmlns="http://www.w3.org/2000/svg" xmlns:xlink="http://www.w3.org/1999/xlink" x="0px" y="0px"
	 viewBox="0 0 2000 2000" enable-background="new 0 0 2000 2000" xml:space="preserve">
<g id="ghost-image" display="none">
	<g display="inline" opacity="0.5">
		<path fill="#8A6FE8" d="M1469.02,1134.64c-57.66-4.68-181.26-73.79-228.06-150.36c-28.4-46.51,24.83-83.62,53.75-36.22
			c31.36,51.3,134.81,115.23,179.86,118.94L1469.02,1134.64z"/>
		<path fill="#8A6FE8" d="M1525.01,1005.66l-88.68,33.66c-15.81,6.01-23.74,23.69-17.79,39.47c6.01,15.81,23.68,23.74,39.47,17.79
			l88.68-33.66c15.81-6.01,23.74-23.69,17.79-39.47C1558.56,1007.59,1540.82,999.63,1525.01,1005.66z"/>
		<path fill="#8A6FE8" d="M1416.45,1155.13l37.83,51.37c10.17,13.62,29.44,16.44,43.06,6.26c13.63-10.17,16.44-29.43,6.27-43.06
			l-38.78-52.71L1416.45,1155.13z"/>
		<path fill="#8A6FE8" d="M1450.74,1158.21l76.78,42.91c14.86,8.25,33.6,2.87,41.85-12.01c8.25-14.83,2.87-33.6-12.01-41.85
			l-57-32.1L1450.74,1158.21z"/>
		<path fill="#8A6FE8" d="M1460.34,1121.85l84.59,24.43c16.33,4.74,33.4-4.69,38.15-20.98c4.74-16.33-4.69-33.4-20.98-38.15
			l-86.18-24.89L1460.34,1121.85z"/>
		
			<radialGradient id="SVGID_1_" cx="3946.4006" cy="9277.5146" r="6.0502" gradientTransform="matrix(10.6515 0 0 -10.6515 -40583.5156 99923.1875)" gradientUnits="userSpaceOnUse">
			<stop  offset="0" style="stop-color:#8065E0"/>
			<stop  offset="1" style="stop-color:#512BD4"/>
		</radialGradient>
		<path fill="url(#SVGID_1_)" d="M1451.57,1168.18c35.59,0,64.45-28.85,64.45-64.44c0-35.59-28.86-64.44-64.45-64.44
			c-35.58,0-64.44,28.85-64.44,64.44C1387.13,1139.33,1415.99,1168.18,1451.57,1168.18z"/>
		
			<linearGradient id="SVGID_2_" gradientUnits="userSpaceOnUse" x1="432.5041" y1="14876.1748" x2="492.2814" y2="14591.4668" gradientTransform="matrix(1 0 0 -1 694 15972)">
			<stop  offset="0" style="stop-color:#522CD5"/>
			<stop  offset="0.4397" style="stop-color:#8A6FE8"/>
		</linearGradient>
		<path fill="url(#SVGID_2_)" d="M1216.5,1374.16c0.66-59.76-7.85-181.06-69.53-282.64l-60.31,36.62
			c55.97,92.13,60.17,199.66,58.87,246.57C1145.39,1378.59,1181.58,1382.1,1216.5,1374.16z"/>
		<path fill="#522CD5" d="M1145.53,1374.05l55.85-0.26l52.14,298.71l-112.1,0.52c-8.54,0.03-15.01-6.84-14.43-15.38L1145.53,1374.05
			z"/>
		
			<linearGradient id="SVGID_3_" gradientUnits="userSpaceOnUse" x1="468.5244" y1="14600.0068" x2="646.1333" y2="14283.3535" gradientTransform="matrix(1 0 0 -1 694 15972)">
			<stop  offset="0" style="stop-color:#522CD5"/>
			<stop  offset="0.4397" style="stop-color:#8A6FE8"/>
		</linearGradient>
		<path fill="url(#SVGID_3_)" d="M1373.04,1593.94c9.68,7.65,9.52,18.71,8.77,30.39l-2.33,35.78c-0.43,6.41-6.01,11.68-12.41,11.7
			l-116.82,0.52c-7.28,0.03-12.76-5.84-12.27-13.08l0.77-37.08c0.89-13.48-3.65-18.43-14.08-31.13
			c-17.88-21.7-70.74-139.98-65.71-217.05l57.52-0.26C1220.29,1419.47,1280.66,1521.05,1373.04,1593.94z"/>
		
			<radialGradient id="SVGID_4_" cx="4108.7642" cy="8977.5596" r="6.0492" gradientTransform="matrix(20.3477 -0.0926 -0.0926 -20.3477 -81468.2578 184595.2656)" gradientUnits="userSpaceOnUse">
			<stop  offset="0.034" style="stop-color:#522CD5"/>
			<stop  offset="0.9955" style="stop-color:#8A6FE8"/>
		</radialGradient>
		<path fill="url(#SVGID_4_)" d="M1381.81,1624.33c0.55-8.17,0.69-15.98-2.5-22.59l-145.71,0.66c4.03,5.92,5.72,11.09,5.18,19.74
			l-0.78,37.08c-0.48,7.27,5.03,13.14,12.27,13.08l116.82-0.51c6.41-0.03,11.99-5.29,12.42-11.7L1381.81,1624.33z"/>
		
			<linearGradient id="SVGID_5_" gradientUnits="userSpaceOnUse" x1="103.6272" y1="14880.5391" x2="172.3586" y2="14557.1797" gradientTransform="matrix(1 0 0 -1 694 15972)">
			<stop  offset="0" style="stop-color:#522CD5"/>
			<stop  offset="0.4397" style="stop-color:#8A6FE8"/>
		</linearGradient>
		<path fill="url(#SVGID_5_)" d="M847.6,1418.81l-71.31-8.88l40.1-322.45l71.32,8.85L847.6,1418.81z"/>
		<path fill="#522CD5" d="M781.46,1371.7l56.51-0.26l15.64,302.04L740.18,1674c-8.62,0.03-14.31-6.93-12.68-15.55L781.46,1371.7z"/>
		
			<linearGradient id="SVGID_6_" gradientUnits="userSpaceOnUse" x1="48.8044" y1="14573.0049" x2="202.8481" y2="14279.4717" gradientTransform="matrix(1 0 0 -1 694 15972)">
			<stop  offset="0" style="stop-color:#522CD5"/>
			<stop  offset="0.4397" style="stop-color:#8A6FE8"/>
		</linearGradient>
		<path fill="url(#SVGID_6_)" d="M945.67,1595.09c8.71,7.88,8.51,18,6.27,29.81l-6.81,36.19c-1.21,6.47-7.53,11.78-14,11.81
			l-162.21,0.75c-7.36,0.02-12.19-5.89-10.81-13.25l5.78-37.51c2.56-13.62,0.57-17.65,0.83-35.13
			c0.49-32.76,15.61-138.25,30.27-216.16l58.21-0.25C851.42,1417.63,871.48,1527.86,945.67,1595.09z"/>
		
			<radialGradient id="SVGID_7_" cx="4107.4028" cy="8954.1035" r="6.0492" gradientTransform="matrix(22.145 -0.1007 -0.1006 -22.1216 -89194.4844 200034.5469)" gradientUnits="userSpaceOnUse">
			<stop  offset="0.034" style="stop-color:#522CD5"/>
			<stop  offset="0.9955" style="stop-color:#8A6FE8"/>
		</radialGradient>
		<path fill="url(#SVGID_7_)" d="M763.92,1622.92l-5.78,37.51c-1.38,7.33,3.45,13.28,10.81,13.25l162.2-0.74
			c6.5-0.03,12.79-5.35,14-11.81l6.81-36.19c1.61-8.57,2.1-16.24-1.03-22.82l-185.86,0.83
			C765.36,1609.61,765.53,1614.39,763.92,1622.92z"/>
		<path fill="#8A6FE8" d="M803.96,455.82l-67.46,27.13l-18.37-73.07l48.43-19.49L803.96,455.82z"/>
		<path fill="#512BD4" d="M788.84,581.95c38.16,0,69.1-30.94,69.1-69.1c0-38.16-30.94-69.1-69.1-69.1s-69.1,30.94-69.1,69.1
			C719.74,551.01,750.68,581.95,788.84,581.95z"/>
		
			<radialGradient id="SVGID_8_" cx="4230.8457" cy="8790.5693" r="6.0492" gradientTransform="matrix(61.9498 0 0 -61.9498 -261084.3594 545342.125)" gradientUnits="userSpaceOnUse">
			<stop  offset="0.4744" style="stop-color:#A08BE8"/>
			<stop  offset="0.8618" style="stop-color:#8065E0"/>
		</radialGradient>
		<path fill="url(#SVGID_8_)" d="M1300.17,939.67c24.86-95.46,8.83-171.66,8.83-171.66h22.45l0.54-0.43
			c-32.16-175.17-185.6-307.91-370.05-307.91c-207.82,0-376.29,168.47-376.29,376.29c0,207.82,168.44,376.29,376.29,376.29
			c163.98,0,303.45-104.92,354.99-251.25C1318.43,954.79,1318.29,943.64,1300.17,939.67z"/>
		<path fill="#D8CFF7" d="M1286.38,1026.53h-648.9c14.57,24.75,31.88,47.66,51.54,68.36h545.85
			C1254.5,1074.17,1271.8,1051.28,1286.38,1026.53z"/>
		
			<radialGradient id="SVGID_9_" cx="4215.8198" cy="8822.0029" r="6.0492" gradientTransform="matrix(48.2581 0 0 -48.2581 -202215.3438 426431.9688)" gradientUnits="userSpaceOnUse">
			<stop  offset="0.0933" style="stop-color:#E1DFDD"/>
			<stop  offset="0.8998" style="stop-color:#FFFFFF"/>
		</radialGradient>
		<path fill="url(#SVGID_9_)" d="M1300.17,939.67c24.55-94.28,9.22-169.73,8.86-171.57H918.6c0,0-24.61-2.5-24.61,19.98
			c0,22.48,0.93,85.94,0.93,156.17c0,14.43,11.81,21.38,21.12,21.38C916.07,965.59,1256.6,965.57,1300.17,939.67z"/>
		<path fill="#A08BE8" d="M1065.02,939.87c0,0,60.05-47.51,71.75-56.31c11.72-8.8,21.96-9.29,32.71,0
			c10.75,9.29,70.85,56.31,70.85,56.31H1065.02z"/>
		<path fill="#512BD4" d="M1315.41,965.33c0,0,10.43-20.06-15.24-25.67c0.03-0.08-383.82-0.28-383.82-0.28
			c-8.93,0-20.43-5.32-21.41-14c0,6.21,0.03,12.47,0.03,18.83c0,13.11,9.75,20.03,18.48,21.18c0.86,0.11,1.75,0.2,2.65,0.2h26.24
			L1315.41,965.33z"/>
		<path fill="#512BD4" d="M1286.53,851.61c0.41-27.33-12.44-49.69-28.69-49.93c-16.25-0.24-29.76,21.72-30.17,49.05
			c-0.41,27.34,12.44,49.69,28.69,49.93C1272.61,900.9,1286.12,878.95,1286.53,851.61z"/>
		<path fill="#8065E0" d="M1256.74,825.01c-10.75,10.75-10.75,28.17,0,38.92c7.36,7.36,17.85,9.69,27.19,6.96
			c1.58-5.89,2.5-12.42,2.62-19.26c0.2-13.39-2.79-25.58-7.82-34.58C1270.88,816.36,1262.75,819,1256.74,825.01z"/>
		<path fill="#512BD4" d="M1020.8,900.92c16.25-0.24,29.1-22.6,28.69-49.93c-0.41-27.33-13.91-49.3-30.17-49.05
			c-16.25,0.24-29.1,22.6-28.69,49.93C991.04,879.19,1004.54,901.16,1020.8,900.92z"/>
		<path fill="#8065E0" d="M1019.83,826.62c-10.75,10.75-10.75,28.17,0,38.92c7.33,7.33,17.74,9.63,27.02,6.98
			c1.78-6.55,2.76-13.85,2.64-21.59c-0.17-12.42-3.07-23.69-7.7-32.28C1033.95,817.97,1025.84,820.61,1019.83,826.62z"/>
		<path fill="#512BD4" d="M1084.82,1115.23l123.17-0.56l-0.5-108.94l-123.17,0.56L1084.82,1115.23z"/>
		<path fill="#FFFFFF" d="M1106.12,1074.51c-0.83,0-1.52-0.26-2.1-0.8c-0.57-0.55-0.86-1.24-0.86-1.98c0-0.77,0.28-1.47,0.86-2.01
			c0.57-0.57,1.26-0.83,2.1-0.83c0.83,0,1.52,0.29,2.1,0.83c0.57,0.54,0.89,1.24,0.89,2.01c0,0.77-0.28,1.43-0.86,1.98
			C1107.68,1074.22,1106.96,1074.51,1106.12,1074.51z"/>
		<path fill="#FFFFFF" d="M1138.89,1073.97h-5.32l-14.08-22.11c-0.34-0.54-0.67-1.15-0.9-1.75h-0.11c0.11,0.63,0.18,2.01,0.18,4.14
			l0.03,19.74h-4.72l-0.05-30.12h5.66l13.6,21.59c0.57,0.89,0.94,1.52,1.12,1.84h0.08c-0.15-0.8-0.2-2.15-0.2-4.05l-0.03-19.4h4.69
			L1138.89,1073.97z"/>
		<path fill="#FFFFFF" d="M1161.83,1073.94l-16.5,0.03l-0.06-30.12l15.84-0.03v4.25l-10.95,0.03l0.03,8.54l10.09-0.03v4.23
			l-10.09,0.03l0.02,8.91l11.61-0.03V1073.94z"/>
		<path fill="#FFFFFF" d="M1185.2,1048.01l-8.45,0.02l0.06,25.87h-4.89l-0.06-25.87l-8.42,0.03v-4.25l21.73-0.06L1185.2,1048.01z"/>
		<path fill="#8A6FE8" d="M529.43,1254.19l40.18,57.34c10.81,15.24,31.93,18.74,47.17,7.94c15.23-10.81,18.74-31.93,7.93-47.14
			l-49.73-69.3L529.43,1254.19z"/>
		<path fill="#8A6FE8" d="M460.13,1232.49L449,1301.65c-2.82,18.43,9.8,35.7,28.28,38.52c18.43,2.82,35.7-9.8,38.52-28.29
			l11.38-70.88L460.13,1232.49z"/>
		<path fill="#8A6FE8" d="M504.99,1240.3l-9.34,69.42c-2.36,18.48,10.75,35.44,29.23,37.8c18.48,2.36,35.44-10.75,37.83-29.23
			l9.6-71.2L504.99,1240.3z"/>
		<path fill="#8A6FE8" d="M442.74,1211.82l-25.09,65.39c-6.58,17.48,2.3,36.99,19.78,43.52c17.48,6.58,36.99-2.3,43.52-19.77
			l25.73-67.06L442.74,1211.82z"/>
		
			<linearGradient id="SVGID_10_" gradientUnits="userSpaceOnUse" x1="-100.864" y1="15112.4697" x2="-100.864" y2="14731.5771" gradientTransform="matrix(1 0 0 -1 694 15972)">
			<stop  offset="0.2495" style="stop-color:#967FE6"/>
			<stop  offset="1" style="stop-color:#8A6FE8"/>
		</linearGradient>
		<path fill="url(#SVGID_10_)" d="M489.3,1240.42c-27.91-57-44.21-154.45,1.78-241.6c27.97-52.92,89.19-120.03,222.28-139.29
			l10.69,73.79c-80.8,11.7-138.52,46.39-167,100.32c-30.84,58.41-22.59,129.43-0.78,174.04L489.3,1240.42z"/>
		
			<radialGradient id="SVGID_11_" cx="3917.0442" cy="9256.3447" r="6.0492" gradientTransform="matrix(11.3989 0 0 -11.3989 -43913.2617 106373.5469)" gradientUnits="userSpaceOnUse">
			<stop  offset="0" style="stop-color:#8065E0"/>
			<stop  offset="1" style="stop-color:#512BD4"/>
		</radialGradient>
		<path fill="url(#SVGID_11_)" d="M738.97,954.1c38.06,0,68.9-30.84,68.9-68.9c0-38.06-30.84-68.9-68.9-68.9
			c-38.06,0-68.9,30.84-68.9,68.9C670.07,923.23,700.92,954.1,738.97,954.1z"/>
		
			<radialGradient id="SVGID_12_" cx="4097.9341" cy="8960.3008" r="6.0492" gradientTransform="matrix(22.7292 0 0 -22.7292 -92637.8906 204814.2031)" gradientUnits="userSpaceOnUse">
			<stop  offset="0" style="stop-color:#8065E0"/>
			<stop  offset="1" style="stop-color:#512BD4"/>
		</radialGradient>
		<path fill="url(#SVGID_12_)" d="M508.62,1277.33c39.09,0,70.77-31.68,70.77-70.77c0-39.09-31.68-70.77-70.77-70.77
			c-39.09,0-70.77,31.68-70.77,70.77C437.85,1245.65,469.55,1277.33,508.62,1277.33z"/>
		<path fill="#D8CFF7" d="M739.68,415.8c-26.24,6.99-53.32-8.39-60.54-34.41c-7.19-26.01,8.22-52.72,34.46-59.7
			c26.24-6.98,53.32,8.39,60.54,34.41C781.36,382.11,765.95,408.78,739.68,415.8z"/>
	</g>
</g>
<g id="bot-base" display="none">
	<g display="inline">
		
			<radialGradient id="SVGID_13_" cx="4230.8457" cy="8790.5693" r="6.0492" gradientTransform="matrix(61.9498 0 0 -61.9498 -261084.3594 545342.125)" gradientUnits="userSpaceOnUse">
			<stop  offset="0.4744" style="stop-color:#A08BE8"/>
			<stop  offset="0.8618" style="stop-color:#8065E0"/>
		</radialGradient>
		<path fill="url(#SVGID_13_)" d="M1300.17,939.67c24.86-95.46,8.83-171.66,8.83-171.66h22.45l0.54-0.43
			c-32.16-175.17-185.6-307.91-370.05-307.91c-207.82,0-376.29,168.47-376.29,376.29c0,207.82,168.44,376.29,376.29,376.29
			c163.98,0,303.45-104.92,354.99-251.25C1318.43,954.79,1318.29,943.64,1300.17,939.67z"/>
		<path fill="#D8CFF7" d="M1286.38,1026.53h-648.9c14.57,24.75,31.88,47.66,51.54,68.36h545.85
			C1254.5,1074.17,1271.8,1051.28,1286.38,1026.53z"/>
		
			<radialGradient id="SVGID_14_" cx="4215.8198" cy="8822.0029" r="6.0492" gradientTransform="matrix(48.2581 0 0 -48.2581 -202215.3438 426431.9688)" gradientUnits="userSpaceOnUse">
			<stop  offset="0.0933" style="stop-color:#E1DFDD"/>
			<stop  offset="0.8998" style="stop-color:#FFFFFF"/>
		</radialGradient>
		<path fill="url(#SVGID_14_)" d="M1300.17,939.67c24.55-94.28,9.22-169.73,8.86-171.57H918.6c0,0-24.61-2.5-24.61,19.98
			c0,22.48,0.93,85.94,0.93,156.17c0,14.43,11.81,21.38,21.12,21.38C916.07,965.59,1256.6,965.57,1300.17,939.67z"/>
		<path fill="#A08BE8" d="M1065.02,939.87c0,0,60.05-47.51,71.75-56.31c11.72-8.8,21.96-9.29,32.71,0
			c10.75,9.29,70.85,56.31,70.85,56.31H1065.02z"/>
		<path fill="#512BD4" d="M1315.41,965.33c0,0,10.43-20.06-15.24-25.67c0.03-0.08-383.82-0.28-383.82-0.28
			c-8.93,0-20.43-5.32-21.41-14c0,6.21,0.03,12.47,0.03,18.83c0,13.11,9.75,20.03,18.48,21.18c0.86,0.11,1.75,0.2,2.65,0.2h26.24
			L1315.41,965.33z"/>
		<path fill="#512BD4" d="M1084.82,1115.23l123.17-0.56l-0.5-108.94l-123.17,0.56L1084.82,1115.23z"/>
		<path fill="#FFFFFF" d="M1106.12,1074.51c-0.83,0-1.52-0.26-2.1-0.8c-0.57-0.55-0.86-1.24-0.86-1.98c0-0.77,0.28-1.47,0.86-2.01
			c0.57-0.57,1.26-0.83,2.1-0.83c0.83,0,1.52,0.29,2.1,0.83c0.57,0.54,0.89,1.24,0.89,2.01c0,0.77-0.28,1.43-0.86,1.98
			C1107.68,1074.22,1106.96,1074.51,1106.12,1074.51z"/>
		<path fill="#FFFFFF" d="M1138.89,1073.97h-5.32l-14.08-22.11c-0.34-0.54-0.67-1.15-0.9-1.75h-0.11c0.11,0.63,0.18,2.01,0.18,4.14
			l0.03,19.74h-4.72l-0.05-30.12h5.66l13.6,21.59c0.57,0.89,0.94,1.52,1.12,1.84h0.08c-0.15-0.8-0.2-2.15-0.2-4.05l-0.03-19.4h4.69
			L1138.89,1073.97z"/>
		<path fill="#FFFFFF" d="M1161.83,1073.94l-16.5,0.03l-0.06-30.12l15.84-0.03v4.25l-10.95,0.03l0.03,8.54l10.09-0.03v4.23
			l-10.09,0.03l0.02,8.91l11.61-0.03V1073.94z"/>
		<path fill="#FFFFFF" d="M1185.2,1048.01l-8.45,0.02l0.06,25.87h-4.89l-0.06-25.87l-8.42,0.03v-4.25l21.73-0.06L1185.2,1048.01z"/>
	</g>
</g>
<g id="asset">
	<g>
		
			<linearGradient id="SVGID_15_" gradientUnits="userSpaceOnUse" x1="989.5865" y1="-9.5841" x2="989.5865" y2="1911.7225" gradientTransform="matrix(0.9997 -0.0248 -0.0248 -0.9997 24.5703 1983.9952)">
			<stop  offset="0.0949" style="stop-color:#77E3FB"/>
			<stop  offset="0.2428" style="stop-color:#BBF1FD"/>
			<stop  offset="0.9938" style="stop-color:#BBF1FD"/>
		</linearGradient>
		<path fill="url(#SVGID_15_)" d="M1016.86,49.03c-797.74,6.65-901.02,58.02-953.21,324.69
			c-101.25,517.3,149.87,725.59,57.58,1153.87c-86.05,399.35,512.46,482.78,1127,427.36s701.61-231.77,589.35-568.9
			c-78.81-236.67-66.83-534.09,59.62-838.59S1560.16,44.51,1016.86,49.03z"/>
		<path fill="#FFFFFF" d="M1837.58,1386.05c-59.8-179.59-67.31-394.17-12.2-620.28l-64.56-23.85l-178.35-86.2l-238.44,153.44
			c-25.71,16.54-58.35,17.86-85.31,3.45l-64.32-34.39c0,0-94.06,116.17-178.38,146.33s-146.39-9.1-146.39-9.1L518.5,1244.78
			l-129.03-110.14c0,0-75.13,51.42-170.02,0c-30.83,9.38-69.47-2-95.58,13.09c20.48,115.09,28.6,234.87-2.64,379.86
			c-21.16,98.22-0.92,177.33,50.79,239.96l1706.13-139.21C1884.21,1559.17,1868.42,1478.68,1837.58,1386.05z"/>
		<linearGradient id="SVGID_16_" gradientUnits="userSpaceOnUse" x1="997.0984" y1="655.7188" x2="997.0984" y2="1851.4563">
			<stop  offset="0" style="stop-color:#FFFFFF"/>
			<stop  offset="0.2727" style="stop-color:#BBF1FD"/>
			<stop  offset="0.7414" style="stop-color:#BBF1FD"/>
			<stop  offset="0.9435" style="stop-color:#FFFFFF"/>
		</linearGradient>
		<path fill="url(#SVGID_16_)" d="M1837.58,1386.05c-60.34-181.19-67.46-397.98-10.74-626.31c-20.6-1.36-42.82-6.61-66.02-17.82
			c-107.57-51.99-178.35-86.2-178.35-86.2s14.26,49.63,69.51,104.35c55.26,54.72,57.16,80.38,0,99.46
			c-51.66,17.25-113.65,14.05-113.65,14.05s63.68,59.11,21.55,93.19c-73.85,59.76-95.01,74.99-21.55,160.75
			c73.46,85.77-214.5,300.08-487.9,189.25c-247.81-100.46-671.92,83.62-935.67,317.05c5.29,46.18,21.99,86.85,48.44,122.47
			c100.27,51.28,311.09,98.67,706.41,94.96c502.21-4.72,840.1-102.39,995.65-159.54
			C1892.82,1609.76,1878.36,1508.52,1837.58,1386.05z"/>
		<linearGradient id="SVGID_17_" gradientUnits="userSpaceOnUse" x1="401.0638" y1="1134.6401" x2="401.0638" y2="1386.3853">
			<stop  offset="0" style="stop-color:#FFFFFF"/>
			<stop  offset="0.8876" style="stop-color:#BBF1FD"/>
		</linearGradient>
		<path fill="url(#SVGID_17_)" d="M322.49,1203.03c199.57,50.49-119.83,175.91-119.83,175.91s59.29,27.47,189.16-23.09
			s207.63-62.51,207.63-62.51s-27.08-2.57-80.96-48.56s-129.03-110.14-129.03-110.14s-41.02,50.19-139.81,31.78
			C247.98,1166.1,266.4,1188.84,322.49,1203.03z"/>
		<linearGradient id="SVGID_18_" gradientUnits="userSpaceOnUse" x1="999.7582" y1="915.4521" x2="999.7582" y2="1174.7871">
			<stop  offset="0" style="stop-color:#FFFFFF"/>
			<stop  offset="0.8154" style="stop-color:#BBF1FD"/>
		</linearGradient>
		<path fill="url(#SVGID_18_)" d="M910.95,1000c105.06,65.89-7.24,174.79-7.24,174.79s61.76-18.27,115.34-83.26
			c53.58-64.99,110.87-108.64,110.87-108.64s-86.45-17.81-127.64-53.97c-77.25,21.58-132.67-13.46-132.67-13.46
			S867.08,972.48,910.95,1000z"/>
		<path fill="#58D0DB" d="M1745.75,1264.41l-33.49-197.2l-45.02,242.9c0,0,93.79-1.12,148.21-2
			c-21.09-88.85-30.3-184.69-26.56-285.1L1745.75,1264.41z"/>
		<path fill="#179BB8" d="M1684.26,1263.59l23.46,10.03l-34.08-102.91l18.61,7.81l-31.45-76.6l15.16,3.25l-29.35-58.46l-30.45,69.15
			l15.19-5.3l-28.95,69.9l20.77-5.78l-26.61,78.33l21.91-5.79l-42.12,148.4l64.45-5.24c26.06,1.48,81.88,4.69,85.31,5.24
			C1730.6,1396.34,1684.26,1263.59,1684.26,1263.59z"/>
		<path fill="#24BADB" d="M1637.31,1333.85l34.31,6.96l-49.84-71.48l27.22,5.42l-46-53.2l22.17,2.26l-42.93-40.61l-44.53,48.03
			l22.22-3.68l-42.34,48.55l30.38-4.02l-38.92,54.41l32.04-4.02l-61.59,103.08l94.26-3.64c38.11,1.03,119.75,3.26,124.77,3.64
			C1705.1,1426.06,1637.31,1333.85,1637.31,1333.85z"/>
		<path fill="#58D0DB" d="M286.06,1662.54l67.87-327.2l63.71,252.16l42.28-152.4l54.7,283.53
			C514.62,1718.64,296.17,1662.85,286.06,1662.54z"/>
		<path fill="#179BB8" d="M279.67,1377.02l29.91,12.54l-50.54-123.1l24.36,5.22l-47.17-93.96l-51.88,121.9l24.41-8.52l-43.58,101.56
			l33.39-9.29l-42.76,125.89l35.21-9.3L170,1573.99c45.46,37.03,104.28,66.76,173.36,90.02c-19.89-61.15-46.62-137.72-46.62-137.72
			l37.7,16.11L279.67,1377.02z"/>
		<path fill="#34C4D1" d="M247.42,1500.01l-79.05-238.74l43.18,18.11l-72.96-177.7l35.16,7.54l-68.09-135.63l-12.51,28.4
			c37.2,163.6,72.6,319.01,28.08,525.61c-22.11,102.63,0.99,184.39,57.95,248.3c53.44,3.13,105.96,6.35,110.94,7.15
			c10.41,1.67-97.12-306.29-97.12-306.29L247.42,1500.01z"/>
		<path fill="#70D6E0" d="M1484.65,1344.11l23.46,8.14l-34.08-83.55l18.61,6.34l-31.45-62.19l15.16,2.64l-29.35-47.46l-30.45,56.14
			l15.19-4.31l-28.95,56.75l20.77-4.69l-26.61,63.6l21.91-4.7l-42.12,120.48l64.45-4.26c26.06,1.2,81.88,3.81,85.31,4.26
			C1530.99,1451.89,1484.65,1344.11,1484.65,1344.11z"/>
		<path fill="#24BADB" d="M1088.21,1513.81l27.63,8.14l-40.14-83.55l21.92,6.34l-37.04-62.19l17.85,2.64l-34.57-47.46l-35.86,56.14
			l17.89-4.31l-34.1,56.75l24.47-4.69l-31.34,63.6l25.8-4.7L961.12,1621l75.91-4.26c30.69,1.2,96.44,3.81,100.49,4.26
			C1142.81,1621.58,1088.21,1513.81,1088.21,1513.81z"/>
		<polygon fill="#88DDE5" points="990.59,1624.69 943.27,1360.31 908.42,1580.82 		"/>
		<linearGradient id="SVGID_19_" gradientUnits="userSpaceOnUse" x1="998.706" y1="1267.6558" x2="998.706" y2="1970.3529">
			<stop  offset="0" style="stop-color:#FFFFFF"/>
			<stop  offset="0.5672" style="stop-color:#8EE8FC"/>
		</linearGradient>
		<path fill="url(#SVGID_19_)" d="M1806.77,1267.66c-89.57,4.49-234.22,33.31-437.03,139.39
			c-616.2,322.29-724.57,256.87-1251.76,247.51c56.85,289.93,587.3,349.36,1130.26,300.4c614.54-55.42,701.61-231.77,589.34-568.9
			C1824.93,1348.08,1814.64,1308.53,1806.77,1267.66z"/>
		<path fill="#60DEFA" d="M1248.23,1954.95c115.53-10.42,212.41-25.11,292.83-44.34c-419.25-25.56-1046.53-84.81-1417.54-393.98
			c-0.74,3.64-1.5,7.29-2.29,10.96C35.18,1926.94,633.69,2010.38,1248.23,1954.95z"/>
		<g>
			<path fill="#D2F6FE" d="M1842.86,278.74L41.17,686.87c2.76,47.1,8.15,91.65,15.06,134.48l1842.24-277.07
				C1939.41,442.64,1914.51,352.92,1842.86,278.74z"/>
			<path fill="#D2F6FE" d="M1414.49,84.77L42.66,526.38c-4.24,55.28-4.43,106.87-1.76,155.7l1740.17-455.74
				C1691.61,163.11,1563.87,114.87,1414.49,84.77z"/>
		</g>
	</g>
</g>
</svg>
