<?xml version="1.0" encoding="utf-8"?>
<!-- Generator: Adobe Illustrator 26.0.0, SVG Export Plug-In . SVG Version: 6.00 Build 0)  -->
<svg version="1.1" id="asset" xmlns="http://www.w3.org/2000/svg" xmlns:xlink="http://www.w3.org/1999/xlink" x="0px" y="0px"
	 viewBox="0 0 214.74 150" style="enable-background:new 0 0 214.74 150;" xml:space="preserve">
<style type="text/css">
	.st0{fill:#FFAD4D;}
	.st1{fill:url(#SVGID_1_);}
	.st2{fill:#FF476C;}
	.st3{fill:#9127B2;}
	.st4{fill:#E22287;}
</style>
<g>
	<path class="st0" d="M171.7,84.31v-0.04c-0.01-0.64-0.01-1.28,0-1.93c0-0.04,0-0.08,0-0.12c0-0.18,0.01-0.35,0.01-0.53l0-0.24
		c0-0.16,0.01-0.33,0.01-0.49l0.01-0.3c0-0.15,0.01-0.31,0.01-0.46c0-0.15,0.01-0.3,0.02-0.44c0.05-1.26,0.13-2.53,0.23-3.8
		c0.9-10.76,3.78-22.14,8.88-33.6c10.06-22.62-24.38-37.9-65.16-39.05c-53.19-1.5-67.95,3.87-72.16,22.6
		C38.85,46.87,42.23,61.22,45,75.06c0.38,1.9,0.75,3.79,1.09,5.69c0,0.01,0,0.02,0.01,0.03c0.05,0.28,0.1,0.57,0.15,0.85
		c0.01,0.08,0.03,0.16,0.04,0.24c0.04,0.23,0.08,0.45,0.11,0.68c0.01,0.08,0.03,0.16,0.04,0.25c0.04,0.27,0.09,0.54,0.13,0.8
		c0.01,0.03,0.01,0.06,0.02,0.09c0.05,0.3,0.09,0.6,0.14,0.91l0.03,0.2c0.03,0.23,0.07,0.47,0.1,0.7c0.8,5.76,1.15,11.69,0.45,18.24
		l-0.02,0.18c-0.02,0.18-0.04,0.35-0.06,0.53c-0.01,0.09-0.02,0.19-0.03,0.28c-0.03,0.22-0.06,0.45-0.09,0.67
		c-0.32,2.43-0.77,4.84-1.35,7.22c-7.2,29.82,37.57,37.19,83.81,34.18c41.39-2.7,51.23-13.47,47.24-34c0-0.02-0.01-0.05-0.01-0.08
		c-0.03-0.13-0.05-0.26-0.08-0.4c-0.01-0.03-0.01-0.07-0.02-0.1c-0.03-0.13-0.05-0.26-0.08-0.39l-0.02-0.12l-0.08-0.38
		c-0.01-0.04-0.02-0.08-0.03-0.12c-0.03-0.13-0.06-0.26-0.09-0.39c-0.01-0.03-0.01-0.06-0.02-0.09c-0.13-0.58-0.28-1.17-0.43-1.77
		c-0.02-0.06-0.03-0.13-0.05-0.19l-0.08-0.31l-0.06-0.24l-0.08-0.29c-0.02-0.09-0.05-0.18-0.08-0.26l-0.08-0.27
		c-0.03-0.1-0.05-0.19-0.08-0.29c-0.03-0.1-0.05-0.17-0.08-0.26c-0.03-0.11-0.06-0.21-0.09-0.32c-0.02-0.08-0.05-0.16-0.07-0.24
		c-0.04-0.12-0.07-0.24-0.11-0.36l-0.06-0.19c-0.06-0.19-0.11-0.37-0.17-0.56c-0.08-0.26-0.16-0.53-0.24-0.79l-0.08-0.25
		c-0.05-0.18-0.11-0.37-0.16-0.55c-0.03-0.1-0.05-0.19-0.08-0.29c-0.05-0.17-0.09-0.35-0.14-0.52l-0.08-0.3
		c-0.05-0.17-0.09-0.35-0.13-0.52c-1.3-5.15-2.05-10.62-2.22-16.32c-0.01-0.21-0.01-0.43-0.02-0.64c0-0.02,0-0.05,0-0.07
		C171.71,84.73,171.71,84.52,171.7,84.31z"/>
	
		<linearGradient id="SVGID_1_" gradientUnits="userSpaceOnUse" x1="-455.1167" y1="-15330.2744" x2="-436.9257" y2="-15285.6709" gradientTransform="matrix(1 0 0 1 564 15442)">
		<stop  offset="0" style="stop-color:#FF7951"/>
		<stop  offset="1" style="stop-color:#FF2078"/>
	</linearGradient>
	<path class="st1" d="M176.77,112.74c-0.03-0.13-0.05-0.26-0.08-0.4c-0.01-0.03-0.01-0.07-0.02-0.1c-0.03-0.13-0.05-0.26-0.08-0.39
		l-0.02-0.12l-0.08-0.38c-0.01-0.04-0.02-0.08-0.03-0.12c-0.03-0.13-0.06-0.26-0.09-0.39c-0.01-0.03-0.01-0.06-0.02-0.09
		c-0.13-0.58-0.28-1.17-0.43-1.77c-0.02-0.06-0.03-0.13-0.05-0.19l-0.08-0.31l-0.06-0.24l-0.08-0.29c-0.02-0.09-0.05-0.18-0.08-0.26
		c-0.02-0.08-0.04-0.15-0.06-0.23c-39.67,0.98-100.68,6.01-130.48,9.73c-1.73,26.01,40.74,32.47,84.52,29.61
		c41.39-2.7,51.23-13.47,47.24-34C176.78,112.79,176.78,112.76,176.77,112.74z"/>
	<path class="st2" d="M142.73,15.98c2.6,0.34,5.66,0.03,9.11-0.92c2.74-0.76,5.74-1.92,8.9-3.45l0.02-0.01
		c-0.31-0.13-0.63-0.25-0.95-0.38c-4.85,2.3-11.54,4.73-16.99,4.01c-3.03-0.39-5.97-1.26-8.72-2.59c-2.16-1.05-4.18-2.39-5.99-3.97
		c-2.55-2.22-3.99-4.31-4.43-5l-0.89-0.06c-0.34,0.63-1.78,3.16-4.46,5.71c-1.75,1.68-3.76,3.07-5.95,4.13
		c-2.72,1.28-5.67,2-8.67,2.1c-2.65,0.1-5.41-0.5-8.2-1.78c-2.25-1.03-4.52-2.51-6.76-4.39c-2.09-1.77-4-3.73-5.72-5.87
		c-0.45,0.03-0.89,0.06-1.32,0.09c-0.62,3.06-1.69,6.02-3.18,8.76c-1.55,2.84-3.48,5.23-5.73,7.11c-2.81,2.35-6.15,3.91-9.91,4.64
		c-3.71,0.72-7.34,0.89-10.79,0.5c-2.61-0.29-5.18-0.91-7.63-1.87c-0.08,0.24-0.15,0.48-0.23,0.72c2.49,0.96,5.09,1.6,7.74,1.89
		c1.26,0.14,2.52,0.21,3.78,0.21c2.44-0.01,4.87-0.25,7.26-0.71c3.89-0.75,7.34-2.37,10.25-4.8c2.33-1.94,4.32-4.41,5.91-7.33
		c1.5-2.75,2.59-5.71,3.22-8.79c1.75,2.18,3.7,4.2,5.84,6.01c2.29,1.93,4.62,3.44,6.93,4.51c2.9,1.34,5.78,1.96,8.56,1.85
		c3.18-0.12,6.2-0.86,8.98-2.19c2.26-1.09,4.34-2.53,6.15-4.27c2.37-2.26,3.78-4.47,4.36-5.48c0.61,0.91,2.02,2.81,4.36,4.85
		c1.87,1.63,3.94,3.01,6.17,4.09C136.59,14.68,139.61,15.58,142.73,15.98z"/>
	<path class="st3" d="M51.89,30.1c1.46,0,2.64-1.18,2.64-2.64c0-1.46-1.18-2.64-2.64-2.64s-2.64,1.18-2.64,2.64
		C49.25,28.92,50.43,30.1,51.89,30.1z"/>
	<path class="st4" d="M58.8,30.23c1.46,0,2.64-1.18,2.64-2.64c0-1.46-1.18-2.64-2.64-2.64c-1.46,0-2.64,1.18-2.64,2.64
		C56.16,29.05,57.35,30.23,58.8,30.23z"/>
	<path class="st2" d="M65.93,29.06c1.46,0,2.64-1.18,2.64-2.64c0-1.46-1.18-2.64-2.64-2.64s-2.64,1.18-2.64,2.64
		C63.29,27.88,64.47,29.06,65.93,29.06z"/>
	<path class="st3" d="M72.37,26.26c1.46,0,2.64-1.18,2.64-2.64c0-1.46-1.18-2.64-2.64-2.64s-2.64,1.18-2.64,2.64
		C69.73,25.08,70.91,26.26,72.37,26.26z"/>
	<path class="st4" d="M77.61,21.71c1.46,0,2.64-1.18,2.64-2.64c0-1.46-1.18-2.64-2.64-2.64c-1.46,0-2.64,1.18-2.64,2.64
		C74.97,20.53,76.15,21.71,77.61,21.71z"/>
	<path class="st2" d="M81.73,15.74c1.46,0,2.64-1.18,2.64-2.64s-1.18-2.64-2.64-2.64c-1.46,0-2.64,1.18-2.64,2.64
		C79.09,14.56,80.27,15.74,81.73,15.74z"/>
	<path class="st3" d="M88.88,15.74c1.46,0,2.64-1.18,2.64-2.64s-1.18-2.64-2.64-2.64c-1.46,0-2.64,1.18-2.64,2.64
		C86.24,14.56,87.42,15.74,88.88,15.74z"/>
	<path class="st4" d="M95.2,19.33c1.46,0,2.64-1.18,2.64-2.64c0-1.46-1.18-2.64-2.64-2.64c-1.46,0-2.64,1.18-2.64,2.64
		C92.56,18.14,93.74,19.33,95.2,19.33z"/>
	<path class="st2" d="M102.07,21.24c1.46,0,2.64-1.18,2.64-2.64c0-1.46-1.18-2.64-2.64-2.64c-1.46,0-2.64,1.18-2.64,2.64
		C99.43,20.06,100.61,21.24,102.07,21.24z"/>
	<path class="st3" d="M109.36,20.38c1.46,0,2.64-1.18,2.64-2.64c0-1.46-1.18-2.64-2.64-2.64c-1.46,0-2.64,1.18-2.64,2.64
		C106.72,19.2,107.9,20.38,109.36,20.38z"/>
	<path class="st4" d="M116.12,17.18c1.46,0,2.64-1.18,2.64-2.64s-1.18-2.64-2.64-2.64c-1.46,0-2.64,1.18-2.64,2.64
		C113.49,16,114.67,17.18,116.12,17.18z"/>
	<path class="st2" d="M121.71,12.42c1.46,0,2.64-1.18,2.64-2.64s-1.18-2.64-2.64-2.64c-1.46,0-2.64,1.18-2.64,2.64
		C119.07,11.24,120.25,12.42,121.71,12.42z"/>
	<path class="st3" d="M127.72,14.89c1.46,0,2.64-1.18,2.64-2.64s-1.18-2.64-2.64-2.64c-1.46,0-2.64,1.18-2.64,2.64
		C125.08,13.71,126.26,14.89,127.72,14.89z"/>
	<path class="st4" d="M134.22,18.48c1.46,0,2.64-1.18,2.64-2.64s-1.18-2.64-2.64-2.64c-1.46,0-2.64,1.18-2.64,2.64
		C131.58,17.3,132.76,18.48,134.22,18.48z"/>
	<path class="st2" d="M141.68,20.57c1.46,0,2.64-1.18,2.64-2.64c0-1.46-1.18-2.64-2.64-2.64c-1.46,0-2.64,1.18-2.64,2.64
		C139.05,19.39,140.23,20.57,141.68,20.57z"/>
	<path class="st3" d="M149.46,20.38c1.46,0,2.64-1.18,2.64-2.64c0-1.46-1.18-2.64-2.64-2.64c-1.46,0-2.64,1.18-2.64,2.64
		C146.82,19.2,148,20.38,149.46,20.38z"/>
	<path class="st4" d="M156.64,18.38c1.46,0,2.64-1.18,2.64-2.64s-1.18-2.64-2.64-2.64s-2.64,1.18-2.64,2.64
		C154.01,17.2,155.19,18.38,156.64,18.38z"/>
	<path class="st2" d="M163.01,15.35c0.52,0,1.03-0.16,1.47-0.45c0.43-0.29,0.77-0.71,0.97-1.19c-1.52-0.76-3.12-1.48-4.81-2.16
		c-0.2,0.4-0.29,0.85-0.26,1.29c0.02,0.45,0.16,0.88,0.4,1.26c0.24,0.38,0.57,0.69,0.96,0.91S162.57,15.35,163.01,15.35
		L163.01,15.35L163.01,15.35z"/>
	<path class="st2" d="M44.91,28.58c0.37,0,0.74-0.08,1.08-0.23s0.65-0.38,0.89-0.66c0.25-0.28,0.43-0.61,0.54-0.96
		c0.11-0.36,0.14-0.73,0.1-1.1c-0.05-0.37-0.17-0.73-0.36-1.05c-0.19-0.32-0.45-0.59-0.76-0.81c-0.31-0.21-0.66-0.36-1.02-0.42
		c-0.37-0.07-0.74-0.05-1.11,0.04c-0.24,0.8-0.46,1.63-0.65,2.49c-0.16,0.69-0.3,1.38-0.44,2.06
		C43.67,28.35,44.28,28.58,44.91,28.58z"/>
</g>
</svg>
