<?xml version="1.0" encoding="utf-8"?>
<!-- Generator: Adobe Illustrator 26.0.0, SVG Export Plug-In . SVG Version: 6.00 Build 0)  -->
<svg version="1.1" id="asset" xmlns="http://www.w3.org/2000/svg" xmlns:xlink="http://www.w3.org/1999/xlink" x="0px" y="0px"
	 viewBox="0 0 214.74 150" style="enable-background:new 0 0 214.74 150;" xml:space="preserve">
<style type="text/css">
	.st0{fill:#2B0B98;}
	.st1{fill:url(#SVGID_1_);}
	.st2{fill:url(#SVGID_00000118395707940688893170000015897349746577740701_);}
	.st3{fill:url(#SVGID_00000027576037182108949280000005572413240487707307_);}
	.st4{fill:url(#SVGID_00000038385613898138326650000006190677975396286859_);}
	.st5{fill:url(#SVGID_00000102516810893883171480000015211345734223451322_);}
	.st6{fill:url(#SVGID_00000031192393881173008920000002847945246330387640_);}
	.st7{fill:url(#SVGID_00000030480981283379628220000016906042644261114813_);}
	.st8{fill:url(#SVGID_00000006667094684857025360000012868592752262270654_);}
	.st9{fill:url(#SVGID_00000136377044305081058710000015342099291752322745_);}
	.st10{fill:url(#SVGID_00000172435974839642099300000006417023906941094325_);}
	.st11{fill:url(#SVGID_00000128482160682546210910000008010251547609362100_);}
	.st12{fill:url(#SVGID_00000166635311000649070010000005786179957579643523_);}
	.st13{fill:url(#SVGID_00000059999530601262631720000013695830069922840750_);}
	.st14{fill:url(#SVGID_00000126301331787313553070000008563407021342529416_);}
	.st15{fill:url(#SVGID_00000083771323002385696820000016734742107266001593_);}
</style>
<g>
	<path class="st0" d="M38.83,101.87v0.29c0,0.13,0,0.26,0.01,0.39l0,0.25c0,0.2,0.01,0.41,0.01,0.61l0.01,0.23
		c0,0.14,0.01,0.28,0.01,0.42c0,0.09,0.01,0.18,0.01,0.27c0,0.13,0.01,0.26,0.02,0.4c0,0.09,0.01,0.18,0.01,0.27
		c0.01,0.15,0.01,0.31,0.02,0.46c0,0.07,0.01,0.13,0.01,0.2c0.01,0.21,0.02,0.43,0.04,0.64c0,0.08,0.01,0.16,0.02,0.24
		c0.01,0.15,0.02,0.29,0.03,0.44c0.01,0.09,0.01,0.18,0.02,0.27c0.01,0.14,0.02,0.29,0.03,0.43l0.02,0.25
		c0,0.04,0.01,0.08,0.01,0.12l134.37,2.48v-0.02c0-0.03-0.01-0.07-0.01-0.1l-0.01-0.07c-0.01-0.04-0.01-0.07-0.02-0.11
		c-0.01-0.07-0.02-0.13-0.03-0.2c0-0.02,0-0.04-0.01-0.06c0-0.02-0.01-0.05-0.01-0.07c-0.02-0.1-0.03-0.2-0.05-0.29
		c0-0.02-0.01-0.04-0.01-0.07c0-0.02-0.01-0.05-0.02-0.08l-0.03-0.18c-0.01-0.04-0.02-0.07-0.02-0.11s-0.01-0.07-0.02-0.11
		c-0.01-0.04-0.01-0.06-0.02-0.08c-0.01-0.03-0.02-0.08-0.03-0.11l-0.02-0.08c-0.02-0.07-0.03-0.14-0.05-0.22
		c-0.01-0.02-0.01-0.04-0.01-0.06c0-0.02-0.01-0.06-0.02-0.08c-0.03-0.1-0.05-0.21-0.08-0.31c0-0.01-0.01-0.03-0.01-0.04l-0.02-0.06
		c-0.02-0.08-0.04-0.15-0.06-0.23l-0.03-0.1c-0.01-0.03-0.02-0.07-0.03-0.1c-0.01-0.02-0.01-0.04-0.02-0.06
		c-0.02-0.05-0.03-0.11-0.05-0.16c0-0.01-0.01-0.03-0.01-0.04c-0.02-0.08-0.05-0.16-0.08-0.24c-0.01-0.02-0.01-0.03-0.02-0.05v-0.01
		c-0.01-0.03-0.02-0.06-0.03-0.09c-0.04-0.11-0.08-0.22-0.11-0.33c0-0.01,0-0.01-0.01-0.02c0-0.01-0.01-0.03-0.01-0.04
		c-0.03-0.09-0.07-0.19-0.1-0.28c-0.01-0.03-0.02-0.06-0.03-0.09c-0.01-0.03-0.02-0.06-0.04-0.09c0-0.01-0.01-0.02-0.01-0.03
		c-0.03-0.07-0.06-0.14-0.08-0.21c0,0,0-0.01,0-0.01c0,0,0-0.01,0-0.01c-0.03-0.08-0.07-0.17-0.1-0.25c0-0.01,0-0.01-0.01-0.02
		c-0.01-0.02-0.02-0.04-0.03-0.06c-0.01-0.02-0.02-0.06-0.04-0.09c-0.05-0.11-0.1-0.23-0.15-0.34c0,0,0-0.01-0.01-0.01
		c-0.12-0.26-0.23-0.52-0.34-0.78c-0.1-0.22-0.19-0.45-0.29-0.67c-0.06-0.13-0.12-0.27-0.17-0.4l-0.18-0.44
		c-0.07-0.16-0.13-0.32-0.2-0.47s-0.14-0.33-0.21-0.5l-0.15-0.38c-0.08-0.19-0.15-0.38-0.23-0.57c-0.03-0.08-0.06-0.15-0.09-0.23
		c-0.31-0.79-0.61-1.57-0.9-2.36c-0.06-0.15-0.11-0.31-0.17-0.46l-0.16-0.44c-0.07-0.18-0.13-0.36-0.19-0.55
		c-0.08-0.22-0.16-0.45-0.23-0.67c-0.05-0.14-0.1-0.28-0.14-0.42c-0.05-0.16-0.11-0.32-0.16-0.48c-0.05-0.14-0.09-0.28-0.14-0.41
		c-0.06-0.18-0.12-0.37-0.18-0.55l-0.06-0.17c-0.03-0.09-0.05-0.17-0.08-0.26c-0.08-0.24-0.15-0.48-0.22-0.72
		c-0.04-0.12-0.07-0.23-0.11-0.35c-0.06-0.19-0.11-0.38-0.17-0.56c-0.03-0.11-0.07-0.23-0.1-0.34c-0.07-0.24-0.14-0.48-0.21-0.72
		c-0.02-0.05-0.03-0.11-0.05-0.16c-0.02-0.07-0.04-0.14-0.06-0.21c-0.05-0.17-0.1-0.35-0.14-0.52c-0.02-0.08-0.05-0.17-0.07-0.25
		l-0.02-0.07c-0.02-0.06-0.03-0.13-0.05-0.19c-0.04-0.16-0.09-0.32-0.13-0.48c-0.02-0.09-0.05-0.17-0.07-0.26
		c-0.02-0.07-0.04-0.13-0.05-0.2c-0.05-0.17-0.09-0.35-0.13-0.52l-0.02-0.09c-0.04-0.15-0.08-0.3-0.11-0.45
		c-0.02-0.09-0.05-0.19-0.07-0.29c-0.03-0.12-0.06-0.24-0.09-0.36c-0.01-0.03-0.01-0.06-0.02-0.09l-0.11-0.44
		c-0.01-0.06-0.03-0.12-0.04-0.19c-0.04-0.18-0.08-0.36-0.12-0.53v-0.01c-0.04-0.19-0.08-0.37-0.13-0.56
		c-0.06-0.27-0.12-0.55-0.18-0.82l-0.05-0.24c-0.12-0.58-0.24-1.15-0.35-1.73l-0.05-0.28c-0.04-0.22-0.08-0.44-0.12-0.66l-0.05-0.26
		c-0.04-0.24-0.08-0.47-0.12-0.71c-0.02-0.1-0.03-0.19-0.05-0.29c-0.04-0.25-0.08-0.51-0.12-0.76l-0.04-0.25
		c-0.03-0.21-0.06-0.41-0.09-0.62c-0.01-0.09-0.03-0.17-0.04-0.25c-0.04-0.25-0.07-0.51-0.11-0.76c-0.13-0.95-0.24-1.91-0.34-2.85
		c-0.06-0.59-0.12-1.18-0.17-1.77V73c-0.08-0.97-0.14-1.93-0.19-2.89v-0.04c-0.03-0.57-0.05-1.14-0.07-1.71v-0.02
		c-0.01-0.38-0.02-0.76-0.02-1.13v-0.01c-0.01-0.56-0.01-1.13-0.01-1.69v-0.06c0.01-0.56,0.02-1.12,0.03-1.67
		c0.19-6.58,1.2-12.84,2.97-18.61c4.09-13.37,3.95-23.16-4.33-29.74l-0.03-0.02c-0.23-0.18-0.47-0.36-0.71-0.54l-0.05-0.03
		c-0.24-0.17-0.48-0.34-0.73-0.51l-0.06-0.04c-0.25-0.17-0.5-0.33-0.76-0.49l-0.07-0.05l-0.25-0.16l-0.03-0.02
		c-0.17-0.1-0.34-0.2-0.51-0.3l-0.08-0.05l-0.26-0.14l-0.08-0.04c-0.16-0.09-0.32-0.18-0.49-0.26l-0.09-0.05
		c-0.09-0.05-0.17-0.09-0.26-0.14l-0.11-0.06c-0.16-0.08-0.33-0.16-0.49-0.24l-0.09-0.05l-0.26-0.13l-0.14-0.07
		c-0.17-0.08-0.35-0.16-0.53-0.24l-0.07-0.03c-0.09-0.04-0.18-0.08-0.27-0.12l-0.16-0.07l-0.27-0.11l-0.11-0.05
		c-0.17-0.07-0.34-0.14-0.51-0.21l-0.18-0.07l-0.27-0.11l-0.2-0.08c-0.14-0.06-0.29-0.11-0.43-0.17l-0.21-0.08l-0.27-0.1l-0.23-0.08
		c-0.14-0.05-0.28-0.1-0.42-0.15l-0.24-0.08l-0.27-0.09c-0.08-0.03-0.17-0.06-0.25-0.08L151,10l-0.29-0.09l-0.26-0.08l-0.27-0.09
		l-0.31-0.09l-0.4-0.12l-0.26-0.08l-0.3-0.08l-0.25-0.07c-0.16-0.05-0.32-0.09-0.49-0.13l-0.25-0.07L147.6,9l-0.26-0.07
		c-0.17-0.04-0.34-0.09-0.51-0.13l-0.24-0.06l-0.36-0.09l-0.26-0.06c-0.16-0.04-0.33-0.08-0.49-0.12l-0.26-0.06l-0.4-0.09
		l-0.26-0.06l-0.46-0.1l-0.27-0.06l-0.48-0.1l-0.25-0.05l-0.46-0.09l-0.19-0.04l-0.61-0.12l-0.24-0.05l-0.47-0.09l-0.21-0.04
		l-0.64-0.11l-0.23-0.04l-0.49-0.08l-0.22-0.04l-0.66-0.11l-0.21-0.03l-0.52-0.08l-0.23-0.04l-0.7-0.1l-0.18-0.03l-0.57-0.08
		l-0.24-0.03l-0.73-0.1l-0.11-0.01l-0.66-0.09l-0.24-0.03l-0.67-0.08l-0.11-0.01l-0.77-0.09l-0.23-0.03
		c-0.22-0.03-0.44-0.05-0.66-0.07l-0.16-0.02c-0.26-0.03-0.53-0.06-0.79-0.08l-0.22-0.02l-0.66-0.07l-0.19-0.02L129,5.97l-0.2-0.02
		l-0.68-0.06l-0.21-0.02l-0.85-0.07l-0.18-0.02l-0.72-0.06l-0.23-0.02c-0.29-0.02-0.58-0.05-0.88-0.07l-0.12-0.01l-0.79-0.06
		l-0.24-0.02c-0.3-0.02-0.6-0.04-0.9-0.06h-0.01l-0.34-0.02l-0.16-0.01l-0.29-0.02l-0.21-0.01l-0.28-0.02l-0.23-0.01l-0.27-0.02
		l-0.24-0.01l-0.27-0.02l-0.24-0.01l-0.27-0.02l-0.24-0.01l-0.26-0.01l-0.25-0.01l-0.26-0.01l-0.25-0.01l-0.26-0.01l-0.25-0.01
		l-0.26-0.01l-0.24-0.01l-0.27-0.01l-0.24-0.01l-0.26-0.01c-0.08,0-0.16-0.01-0.24-0.01l-0.27-0.01l-0.24-0.01l-0.26-0.01
		l-0.25-0.01l-0.26-0.01l-0.24-0.01l-0.27-0.01l-0.24-0.01l-0.26-0.01l-0.24-0.01l-0.26-0.01l-0.24-0.01l-0.27-0.01l-0.24-0.01
		l-0.27-0.01l-0.24-0.01l-0.27-0.01L112.36,5L112.09,5l-0.23-0.01l-0.27-0.01l-0.23-0.01l-0.27-0.01l-0.23-0.01l-0.27-0.01l-0.23,0
		l-0.27-0.01l-0.22,0l-0.27-0.01h-0.21l-0.29,0h-0.21l-0.29,0h-2.08c-0.61,0-1.23,0-1.84,0h-2.49l-0.29,0h-0.19l-0.29,0.01h-0.2
		l-0.29,0.01h-0.2l-0.29,0.01l-0.19,0l-0.29,0.01l-0.19,0.01l-0.29,0.01l-0.19,0.01l-0.29,0.01L98.79,5l-0.29,0.01L98.3,5.02
		l-0.29,0.01l-0.19,0.01l-0.29,0.01l-0.19,0.01l-0.29,0.01l-0.18,0.01l-0.29,0.01l-0.19,0.01L96.09,5.1L95.91,5.1l-0.3,0.01
		l-0.18,0.01l-0.3,0.01l-0.18,0.01l-0.3,0.01l-0.17,0.01l-0.3,0.02l-0.17,0.01l-0.3,0.02l-0.16,0.01l-0.31,0.02L93.1,5.25
		l-0.32,0.02l-0.14,0.01L92.3,5.29L92.17,5.3l-0.34,0.02l-0.11,0.01l-0.36,0.02l-0.09,0.01c-0.13,0.01-0.25,0.02-0.38,0.03h-0.04
		c-1.21,0.08-2.4,0.18-3.58,0.29h-0.02l-0.39,0.04l-0.06,0.01l-0.37,0.04l-0.08,0.01l-0.36,0.04L85.91,5.8l-0.35,0.04l-0.1,0.01
		l-0.34,0.04l-0.11,0.01l-0.33,0.04l-0.11,0.01l-0.33,0.04l-0.12,0.01l-0.33,0.04l-0.12,0.01l-0.32,0.04l-0.12,0.01l-0.32,0.04
		l-0.12,0.02l-0.32,0.04L82.35,6.2l-0.32,0.04l-0.12,0.02L81.6,6.29L81.48,6.3l-0.31,0.04l-0.12,0.02L80.73,6.4l-0.12,0.02
		L80.3,6.46l-0.11,0.02l-0.32,0.04l-0.11,0.02l-0.32,0.05L79.33,6.6l-0.32,0.05l-0.1,0.01l-0.33,0.05l-0.09,0.01l-0.33,0.05
		l-0.08,0.01l-0.34,0.05l-0.07,0.01l-0.35,0.06l-0.06,0.01l-0.36,0.06l-0.03,0.01l-0.38,0.06h-0.01c-1.79,0.31-3.52,0.65-5.2,1.02h0
		l-0.37,0.08l-0.02,0.01l-0.35,0.08l-0.04,0.01l-0.34,0.08l-0.05,0.01l-0.33,0.08L69.7,8.44l-0.33,0.08l-0.06,0.01l-0.32,0.08
		l-0.06,0.01l-0.32,0.08l-0.06,0.02L68.23,8.8l-0.06,0.02L67.86,8.9L67.8,8.92L67.49,9l-0.06,0.02L67.12,9.1l-0.06,0.02L66.75,9.2
		l-0.06,0.02l-0.3,0.09l-0.06,0.02l-0.31,0.09l-0.05,0.01l-0.31,0.09l-0.04,0.01l-0.32,0.09l-0.04,0.01l-0.32,0.1L64.9,9.75
		l-0.33,0.1l-0.02,0.01l-0.34,0.11c-2.12,0.67-4.21,1.46-6.24,2.37c-0.1,0.04-0.2,0.09-0.3,0.14h-0.01l-0.29,0.13l-0.01,0.01
		l-0.29,0.13l-0.02,0.01l-0.28,0.14l-0.02,0.01l-0.27,0.13l-0.02,0.01c-0.09,0.04-0.18,0.09-0.27,0.13l-0.02,0.01l-0.27,0.14
		l-0.02,0.01l-0.26,0.14l-0.02,0.01l-0.26,0.14l-0.02,0.01c-0.09,0.05-0.18,0.09-0.26,0.14l-0.02,0.01l-0.26,0.14l-0.01,0.01
		c-0.09,0.05-0.18,0.1-0.26,0.15l-0.01,0.01l-0.27,0.15c-2.36,1.36-4.41,2.88-6.12,4.58c-0.06,0.06-0.13,0.13-0.19,0.19l0,0
		c-0.06,0.06-0.13,0.13-0.19,0.19l0,0.01c-0.06,0.07-0.12,0.13-0.18,0.2l-0.01,0.01c-0.06,0.07-0.12,0.13-0.18,0.2l0,0.01
		c-0.06,0.07-0.12,0.13-0.18,0.2l0,0.01c-0.06,0.07-0.12,0.13-0.18,0.2c-0.06,0.07-0.12,0.14-0.18,0.2
		c-1.63,1.93-2.84,4.08-3.58,6.44c-0.03,0.08-0.05,0.17-0.08,0.25v0c-0.02,0.08-0.05,0.17-0.07,0.25v0.01
		c-0.02,0.08-0.05,0.17-0.07,0.25v0.01c-0.02,0.08-0.04,0.17-0.06,0.25v0c-0.02,0.08-0.04,0.17-0.06,0.25v0.01
		c-0.02,0.09-0.04,0.17-0.06,0.26v0c-0.02,0.09-0.04,0.17-0.05,0.26c-0.57,2.88-0.48,6.06,0.37,9.57
		c2.45,10.13,2.14,18.59,0.93,26.72c-0.54,3.62-1.25,7.19-1.98,10.8c-0.31,1.52-0.62,3.05-0.91,4.6c0,0.02-0.01,0.04-0.01,0.06
		c-0.06,0.32-0.12,0.64-0.18,0.96l-0.01,0.04c-0.12,0.66-0.25,1.32-0.36,1.98l-0.01,0.04c-0.01,0.06-0.02,0.13-0.03,0.19v0.01
		c-0.04,0.25-0.09,0.51-0.13,0.76c-0.01,0.06-0.02,0.11-0.03,0.17c-0.03,0.17-0.06,0.34-0.09,0.52c-0.01,0.08-0.03,0.17-0.04,0.25
		v0.01c-0.01,0.04-0.01,0.08-0.02,0.13c-0.04,0.22-0.07,0.45-0.11,0.67c-0.01,0.05-0.02,0.1-0.02,0.15
		c-0.04,0.22-0.07,0.44-0.1,0.66c0,0.01,0,0.03-0.01,0.04c0,0.01,0,0.02-0.01,0.03c0,0.03-0.01,0.06-0.01,0.08
		c-0.02,0.11-0.03,0.21-0.05,0.32c0,0.03-0.01,0.05-0.01,0.08c-0.02,0.14-0.04,0.28-0.06,0.42c-0.01,0.04-0.01,0.07-0.02,0.11
		c-0.04,0.25-0.07,0.49-0.1,0.74c-0.01,0.04-0.01,0.08-0.02,0.12c-0.02,0.14-0.04,0.29-0.06,0.43l-0.02,0.13l-0.04,0.29
		c0,0.01,0,0.03-0.01,0.04l-0.01,0.07c-0.01,0.05-0.01,0.09-0.02,0.14c-0.03,0.2-0.05,0.39-0.07,0.59c0,0.04-0.01,0.08-0.01,0.12
		c-0.02,0.19-0.05,0.38-0.07,0.57c0,0.04-0.01,0.09-0.01,0.13l-0.04,0.37c-0.01,0.06-0.01,0.13-0.02,0.19
		c-0.01,0.12-0.03,0.24-0.04,0.36c0,0.04-0.01,0.07-0.01,0.11c0,0.04-0.01,0.06-0.01,0.1c-0.04,0.4-0.08,0.8-0.11,1.2l-0.02,0.22
		c-0.01,0.11-0.02,0.22-0.03,0.33c0,0.02,0,0.04-0.01,0.07l-0.02,0.19l-0.03,0.33c-0.01,0.08-0.01,0.17-0.02,0.25
		c0,0.04-0.01,0.08-0.01,0.12c0,0.01,0,0.03,0,0.04l-0.03,0.41c-0.01,0.1-0.01,0.19-0.02,0.29c0,0.07-0.01,0.14-0.01,0.22
		c0,0.02,0,0.05,0,0.07v0.03c-0.01,0.09-0.01,0.19-0.02,0.28c-0.01,0.11-0.01,0.21-0.02,0.32l-0.01,0.25c0,0.02,0,0.05,0,0.07
		c-0.01,0.09-0.01,0.18-0.01,0.27c-0.01,0.11-0.01,0.22-0.01,0.33l-0.01,0.32c0,0.04,0,0.09-0.01,0.13l-0.01,0.37l-0.01,0.3
		c0,0.11-0.01,0.21-0.01,0.32c0,0.11-0.01,0.2-0.01,0.3c0,0.11-0.01,0.22-0.01,0.34c0,0.09,0,0.19-0.01,0.29c0,0.17,0,0.33-0.01,0.5
		v0.99C38.83,101.61,38.82,101.74,38.83,101.87z"/>
	
		<linearGradient id="SVGID_1_" gradientUnits="userSpaceOnUse" x1="-480.0475" y1="-15384.0713" x2="-441.0495" y2="-15296.1992" gradientTransform="matrix(1 0 0 1 564 15448.0254)">
		<stop  offset="0" style="stop-color:#D600AA"/>
		<stop  offset="1" style="stop-color:#512BD4"/>
	</linearGradient>
	<path class="st1" d="M39.05,107.38c0,0,1.13,11.78,2.84,16.93c1.72,5.15,5.26,15.24,28.86,17.63c20.12,2.03,61.61,3.44,87.35-9.83
		c16.53-8.11,16.07-18.56,15.29-22.21C123.62,105.43,39.05,107.38,39.05,107.38z"/>
	
		<radialGradient id="SVGID_00000099650369811994757930000017555384060062579627_" cx="3581.7014" cy="-7639.6592" r="0.0716" gradientTransform="matrix(246.305 0 0 279.285 -882141.625 2133660)" gradientUnits="userSpaceOnUse">
		<stop  offset="0" style="stop-color:#F61474"/>
		<stop  offset="1" style="stop-color:#FF85B9"/>
	</radialGradient>
	<path style="fill:url(#SVGID_00000099650369811994757930000017555384060062579627_);" d="M59.91,25.54
		c2.69-1.27,4.77-3.56,5.77-6.36c1-2.8,0.85-5.89-0.42-8.58c-0.14-0.29-0.28-0.56-0.44-0.84l-0.28,0.09l-0.02,0.01l-0.34,0.11
		c-2.12,0.67-4.21,1.46-6.24,2.37c-0.1,0.04-0.2,0.09-0.3,0.14h-0.01l-0.29,0.13l-0.01,0.01l-0.29,0.13l-0.02,0.01l-0.28,0.14
		l-0.02,0.01l-0.27,0.13l-0.02,0.01c-0.09,0.04-0.18,0.09-0.27,0.13l-0.02,0.01l-0.27,0.14l-0.02,0.01l-0.26,0.14l-0.02,0.01
		l-0.26,0.14l-0.02,0.01c-0.09,0.05-0.18,0.09-0.26,0.14l-0.02,0.01l-0.26,0.14l-0.01,0.01c-0.09,0.05-0.18,0.1-0.26,0.15
		l-0.01,0.01l-0.27,0.15c-2.36,1.36-4.41,2.88-6.12,4.58c-0.06,0.06-0.13,0.13-0.19,0.19l0,0c-0.06,0.06-0.13,0.13-0.19,0.19l0,0.01
		c-0.06,0.07-0.12,0.13-0.18,0.2l-0.01,0.01c-0.06,0.07-0.12,0.13-0.18,0.2l0,0.01c-0.06,0.07-0.12,0.13-0.18,0.2l0,0.01
		c-0.06,0.07-0.12,0.13-0.18,0.2c-0.06,0.07-0.12,0.14-0.18,0.2c-0.36,0.43-0.71,0.87-1.03,1.33c1.49,2.26,3.74,3.91,6.34,4.64
		C54.69,26.93,57.47,26.7,59.91,25.54L59.91,25.54z"/>
	
		<linearGradient id="SVGID_00000116219482307985165600000014349030825870653066_" gradientUnits="userSpaceOnUse" x1="-492.7738" y1="-15425.5518" x2="-465.5253" y2="-15432.2129" gradientTransform="matrix(1 0 0 1 564 15448.0254)">
		<stop  offset="0" style="stop-color:#D600AA"/>
		<stop  offset="1" style="stop-color:#512BD4"/>
	</linearGradient>
	<path style="fill:url(#SVGID_00000116219482307985165600000014349030825870653066_);" d="M96.23,24.56c3.64-3.64,3.64-9.54,0-13.18
		c-3.64-3.64-9.54-3.64-13.18,0c-3.64,3.64-3.64,9.54,0,13.18C86.69,28.2,92.59,28.2,96.23,24.56z"/>
	
		<linearGradient id="SVGID_00000145033174183627721230000002882393326216449672_" gradientUnits="userSpaceOnUse" x1="-531.1267" y1="-15422.9316" x2="-505.1086" y2="-15412.3057" gradientTransform="matrix(1 0 0 1 564 15448.0254)">
		<stop  offset="0" style="stop-color:#D600AA"/>
		<stop  offset="1" style="stop-color:#512BD4"/>
	</linearGradient>
	<path style="fill:url(#SVGID_00000145033174183627721230000002882393326216449672_);" d="M52.1,42.6c2.51-1.15,4.59-3.08,5.92-5.51
		c1.33-2.42,1.85-5.21,1.48-7.95c-0.37-2.74-1.61-5.29-3.54-7.27c-1.93-1.98-4.44-3.29-7.17-3.73c-0.25,0.22-0.49,0.45-0.72,0.69
		c-0.06,0.06-0.13,0.13-0.19,0.19l0,0c-0.06,0.06-0.13,0.13-0.19,0.19l0,0.01c-0.06,0.07-0.12,0.13-0.18,0.2l-0.01,0.01
		c-0.06,0.07-0.12,0.13-0.18,0.2l0,0.01c-0.06,0.07-0.12,0.13-0.18,0.2l0,0.01c-0.06,0.07-0.12,0.13-0.18,0.2
		c-0.06,0.07-0.12,0.14-0.18,0.2c-1.63,1.93-2.84,4.08-3.58,6.44c-0.03,0.08-0.05,0.17-0.08,0.25v0c-0.02,0.08-0.05,0.17-0.07,0.25
		v0.01c-0.02,0.08-0.05,0.17-0.07,0.25v0.01c-0.02,0.08-0.04,0.17-0.06,0.25c-0.02,0.08-0.04,0.17-0.06,0.25v0.01
		c-0.02,0.09-0.04,0.17-0.06,0.26v0c-0.02,0.09-0.04,0.17-0.05,0.26c-0.57,2.88-0.48,6.06,0.37,9.57c0.45,1.88,0.82,3.71,1.09,5.47
		C46.86,44.06,49.63,43.74,52.1,42.6L52.1,42.6z"/>
	
		<linearGradient id="SVGID_00000012459690517732050700000009546250060901404603_" gradientUnits="userSpaceOnUse" x1="-468.7022" y1="-15440.4707" x2="-449.52" y2="-15428.873" gradientTransform="matrix(1 0 0 1 564 15448.0254)">
		<stop  offset="0" style="stop-color:#D600AA"/>
		<stop  offset="1" style="stop-color:#512BD4"/>
	</linearGradient>
	<path style="fill:url(#SVGID_00000012459690517732050700000009546250060901404603_);" d="M108.26,22.86c4.11,0,7.44-3.34,7.44-7.47
		s-3.33-7.47-7.44-7.47c-4.11,0-7.44,3.34-7.44,7.47S104.15,22.86,108.26,22.86z"/>
	
		<linearGradient id="SVGID_00000183940372777351232020000009297661829872542353_" gradientUnits="userSpaceOnUse" x1="-506.1361" y1="-15449.3701" x2="-478.9344" y2="-15427.1025" gradientTransform="matrix(1 0 0 1 564 15448.0254)">
		<stop  offset="0" style="stop-color:#D600AA"/>
		<stop  offset="1" style="stop-color:#512BD4"/>
	</linearGradient>
	<path style="fill:url(#SVGID_00000183940372777351232020000009297661829872542353_);" d="M80.29,23.74
		c6.48-2.97,9.32-10.63,6.35-17.11c-0.14-0.29-0.28-0.58-0.44-0.86l-0.23,0.02L85.89,5.8l-0.35,0.04l-0.1,0.01L85.1,5.88L84.99,5.9
		l-0.33,0.04l-0.11,0.01l-0.33,0.04l-0.12,0.01l-0.32,0.03l-0.12,0.01l-0.32,0.04l-0.12,0.01l-0.32,0.04l-0.12,0.02l-0.32,0.04
		L82.33,6.2l-0.32,0.04l-0.12,0.02l-0.31,0.04L81.46,6.3l-0.31,0.04l-0.12,0.02L80.71,6.4l-0.12,0.02l-0.31,0.04l-0.11,0.02
		l-0.32,0.04l-0.11,0.02l-0.32,0.05L79.31,6.6l-0.32,0.05l-0.1,0.01l-0.33,0.05l-0.09,0.01l-0.33,0.05l-0.08,0.01l-0.34,0.05
		l-0.07,0.01l-0.35,0.06l-0.06,0.01l-0.36,0.06l-0.03,0.01l-0.38,0.06h-0.01c-1.79,0.31-3.52,0.65-5.2,1.02l-0.37,0.08l-0.02,0.01
		l-0.36,0.08l-0.04,0.01L70.1,8.33l-0.05,0.01l-0.33,0.08l-0.05,0.01l-0.33,0.08l-0.06,0.01l-0.32,0.08l-0.06,0.01l-0.32,0.08
		l-0.06,0.02L68.21,8.8l-0.06,0.02L67.83,8.9l-0.06,0.02L67.46,9L67.4,9.02L67.09,9.1l-0.06,0.02L66.72,9.2l-0.06,0.02l-0.3,0.09
		L66.3,9.33l-0.31,0.09l-0.05,0.01l-0.31,0.09l-0.04,0.01l-0.32,0.09l-0.04,0.01l-0.32,0.1l-0.03,0.01l-0.33,0.1l-0.02,0.01
		l-0.34,0.11c-0.71,0.22-1.42,0.46-2.12,0.72c-0.23,2.26,0.13,4.55,1.07,6.62c0.93,2.08,2.4,3.87,4.25,5.19
		c1.85,1.33,4.02,2.14,6.28,2.36C75.94,25.07,78.22,24.69,80.29,23.74L80.29,23.74z"/>
	
		<radialGradient id="SVGID_00000034790674305758534480000005249862826682827422_" cx="3582.3835" cy="-7638.6299" r="0.0716" gradientTransform="matrix(287.54 0 0 287.54 -1029989.4375 2196424.75)" gradientUnits="userSpaceOnUse">
		<stop  offset="0" style="stop-color:#F61474"/>
		<stop  offset="1" style="stop-color:#FF85B9"/>
	</radialGradient>
	<path style="fill:url(#SVGID_00000034790674305758534480000005249862826682827422_);" d="M97.03,22.28c2.04,0,4.05-0.52,5.84-1.52
		c1.79-0.99,3.29-2.43,4.37-4.16c1.08-1.74,1.7-3.72,1.8-5.76c0.1-2.04-0.32-4.08-1.23-5.91h-1.32c-0.61,0-1.23,0-1.84,0h-2.49
		l-0.29,0h-0.19l-0.29,0.01h-0.2l-0.29,0.01h-0.2l-0.29,0.01l-0.19,0l-0.29,0.01l-0.19,0.01l-0.29,0.01l-0.19,0.01l-0.29,0.01
		L98.76,5l-0.29,0.01l-0.19,0.01l-0.29,0.01L97.8,5.03l-0.29,0.01l-0.19,0.01l-0.29,0.01l-0.18,0.01l-0.29,0.01l-0.19,0.01
		L96.07,5.1l-0.18,0.01l-0.3,0.01l-0.18,0.01l-0.3,0.01l-0.18,0.01l-0.3,0.01l-0.17,0.01l-0.3,0.02L94,5.2l-0.3,0.02l-0.16,0.01
		l-0.31,0.02l-0.15,0.01l-0.32,0.02l-0.14,0.01l-0.33,0.02L92.15,5.3l-0.34,0.02L91.7,5.33l-0.36,0.02l-0.09,0.01
		C91.12,5.37,91,5.38,90.87,5.39h-0.04c-1.21,0.08-2.4,0.18-3.58,0.29h-0.02l-0.39,0.04l-0.06,0.01l-0.37,0.04l-0.08,0.01
		l-0.36,0.04L85.88,5.8h-0.03c-0.73,1.82-1,3.8-0.78,5.75c0.21,1.95,0.9,3.82,2,5.45s2.59,2.96,4.32,3.88
		C93.13,21.8,95.06,22.28,97.03,22.28L97.03,22.28z"/>
	
		<linearGradient id="SVGID_00000075852658890783083610000009495099386781917604_" gradientUnits="userSpaceOnUse" x1="-456.2009" y1="-15451.1816" x2="-444.6297" y2="-15434.3945" gradientTransform="matrix(1 0 0 1 564 15448.0254)">
		<stop  offset="0" style="stop-color:#D600AA"/>
		<stop  offset="1" style="stop-color:#512BD4"/>
	</linearGradient>
	<path style="fill:url(#SVGID_00000075852658890783083610000009495099386781917604_);" d="M104.73,7.38c0.9,1.97,2.39,3.6,4.26,4.69
		c1.87,1.08,4.03,1.56,6.18,1.37c2.15-0.2,4.19-1.05,5.84-2.46c1.64-1.4,2.81-3.28,3.35-5.38l-0.24-0.02l-0.24-0.02
		c-0.3-0.02-0.6-0.04-0.9-0.06h-0.01l-0.34-0.02l-0.16-0.01l-0.29-0.02l-0.21-0.01l-0.28-0.02l-0.23-0.01l-0.27-0.02l-0.24-0.01
		l-0.27-0.02l-0.24-0.01l-0.27-0.02l-0.24-0.01l-0.26-0.01l-0.25-0.01l-0.26-0.01l-0.25-0.01l-0.26-0.01l-0.25-0.01l-0.26-0.01
		l-0.24-0.01l-0.27-0.01l-0.24-0.01l-0.26-0.01c-0.08,0-0.16-0.01-0.24-0.01l-0.27-0.01l-0.24-0.01l-0.26-0.01l-0.25-0.01
		l-0.26-0.01l-0.24-0.01l-0.27-0.01l-0.24-0.01l-0.26-0.01l-0.24-0.01l-0.26-0.01l-0.24-0.01l-0.27-0.01l-0.24-0.01l-0.27-0.01
		l-0.24-0.01l-0.27-0.01L112.34,5l-0.27-0.01l-0.23-0.01l-0.27-0.01l-0.23-0.01l-0.27-0.01l-0.23-0.01l-0.27-0.01l-0.23,0
		l-0.27-0.01l-0.22,0l-0.27-0.01h-0.21l-0.29,0h-0.21l-0.29,0h-2.08c-0.61,0-1.23,0-1.84,0h-0.7C104.11,5.78,104.37,6.6,104.73,7.38
		L104.73,7.38z"/>
	
		<radialGradient id="SVGID_00000092456696968044238690000016973335919403664316_" cx="3539.906" cy="-7655.9565" r="0.0716" gradientTransform="matrix(70.313 0 0 195.848 -248860.2656 1499483.375)" gradientUnits="userSpaceOnUse">
		<stop  offset="0" style="stop-color:#F61474"/>
		<stop  offset="1" style="stop-color:#FF85B9"/>
	</radialGradient>
	<path style="fill:url(#SVGID_00000092456696968044238690000016973335919403664316_);" d="M42.48,85.18c1.07-0.5,1.97-1.3,2.6-2.31
		c0.63-1,0.96-2.16,0.95-3.34c-0.01-1.18-0.36-2.34-1.01-3.33c-0.65-0.99-1.56-1.77-2.64-2.26c-0.11,0.54-0.22,1.09-0.33,1.63
		c-0.31,1.52-0.62,3.05-0.91,4.6c0,0.02-0.01,0.04-0.01,0.06c-0.06,0.32-0.12,0.64-0.18,0.96l-0.01,0.04
		c-0.12,0.66-0.25,1.32-0.36,1.98l-0.01,0.04c-0.01,0.06-0.02,0.13-0.03,0.19v0.01c-0.04,0.25-0.09,0.51-0.13,0.76
		c-0.01,0.06-0.02,0.11-0.03,0.17c-0.03,0.17-0.06,0.34-0.09,0.52c-0.01,0.08-0.03,0.17-0.04,0.25v0.01
		c-0.01,0.04-0.01,0.08-0.02,0.13c-0.03,0.16-0.05,0.31-0.08,0.47C40.95,85.72,41.75,85.52,42.48,85.18L42.48,85.18z"/>
	
		<linearGradient id="SVGID_00000045614834523837651230000005615063548445048491_" gradientUnits="userSpaceOnUse" x1="-527.8835" y1="-15380.3633" x2="-511.7173" y2="-15372.3359" gradientTransform="matrix(1 0 0 1 564 15448.0254)">
		<stop  offset="0" style="stop-color:#D600AA"/>
		<stop  offset="1" style="stop-color:#512BD4"/>
	</linearGradient>
	<path style="fill:url(#SVGID_00000045614834523837651230000005615063548445048491_);" d="M46.02,79.58c1.01,0,2.01-0.22,2.93-0.64
		c0.92-0.42,1.73-1.04,2.39-1.81c0.66-0.77,1.14-1.67,1.41-2.65c0.27-0.97,0.33-2,0.18-2.99c-0.16-1-0.53-1.95-1.09-2.79
		c-0.56-0.84-1.3-1.55-2.16-2.08s-1.83-0.86-2.83-0.98c-1-0.12-2.02-0.02-2.98,0.29c-0.51,3.23-1.15,6.42-1.8,9.65
		c-0.16,0.8-0.32,1.6-0.48,2.41C42.82,79.01,44.4,79.58,46.02,79.58L46.02,79.58z"/>
	
		<radialGradient id="SVGID_00000083810379004941120710000006164144628227643274_" cx="3570.8193" cy="-7641.6616" r="0.0716" gradientTransform="matrix(149.377 0 0 279.735 -533352.9375 2137702)" gradientUnits="userSpaceOnUse">
		<stop  offset="0" style="stop-color:#F61474"/>
		<stop  offset="1" style="stop-color:#FF85B9"/>
	</radialGradient>
	<path style="fill:url(#SVGID_00000083810379004941120710000006164144628227643274_);" d="M50.76,70.04
		c1.93-0.89,3.46-2.47,4.28-4.43c0.82-1.96,0.86-4.16,0.13-6.16c-0.74-2-2.2-3.64-4.09-4.6c-1.9-0.96-4.08-1.18-6.13-0.6
		c-0.05,3.63-0.4,7.11-0.91,10.53c-0.25,1.68-0.53,3.34-0.84,5c1.15,0.63,2.44,0.99,3.75,1.03C48.26,70.85,49.57,70.59,50.76,70.04
		L50.76,70.04z"/>
	
		<radialGradient id="SVGID_00000099664432352172223530000017568880812394865069_" cx="3563.8528" cy="-7661.2441" r="0.0716" gradientTransform="matrix(147.972 0 0 157.231 -527228.6875 1204595)" gradientUnits="userSpaceOnUse">
		<stop  offset="0" style="stop-color:#F61474"/>
		<stop  offset="1" style="stop-color:#FF85B9"/>
	</radialGradient>
	<path style="fill:url(#SVGID_00000099664432352172223530000017568880812394865069_);" d="M120.21,11.29
		c0.69,1.47,1.93,2.6,3.45,3.17c1.52,0.56,3.2,0.51,4.68-0.16c1.48-0.66,2.64-1.88,3.23-3.39c0.59-1.51,0.56-3.19-0.07-4.68
		l-0.63-0.07l-0.22-0.02l-0.66-0.07l-0.19-0.02l-0.82-0.08l-0.2-0.02l-0.68-0.06l-0.21-0.02l-0.85-0.07l-0.18-0.02l-0.72-0.06
		l-0.23-0.02c-0.29-0.02-0.58-0.05-0.88-0.07l-0.12-0.01l-0.79-0.06l-0.24-0.02c-0.3-0.02-0.6-0.04-0.9-0.06h-0.01l-0.34-0.02
		l-0.16-0.01l-0.29-0.02l-0.21-0.01l-0.28-0.02l-0.23-0.01l-0.27-0.02l-0.24-0.01l-0.27-0.02l-0.09-0.01
		c-0.55,0.88-0.88,1.89-0.94,2.92C119.57,9.32,119.77,10.35,120.21,11.29L120.21,11.29z"/>
	
		<linearGradient id="SVGID_00000069364310625259877980000010103474238143816598_" gradientUnits="userSpaceOnUse" x1="-528.7214" y1="-15410.5371" x2="-500.9395" y2="-15394.9492" gradientTransform="matrix(1 0 0 1 564 15448.0254)">
		<stop  offset="0" style="stop-color:#D600AA"/>
		<stop  offset="1" style="stop-color:#512BD4"/>
	</linearGradient>
	<path style="fill:url(#SVGID_00000069364310625259877980000010103474238143816598_);" d="M43.88,41.72
		c0.81,4.38,1.16,8.84,1.04,13.3c1.55,1.79,3.62,3.04,5.92,3.58c2.3,0.54,4.71,0.34,6.89-0.57c2.18-0.91,4.02-2.49,5.25-4.51
		c1.23-2.02,1.8-4.37,1.61-6.73c-0.18-2.36-1.11-4.59-2.64-6.39c-1.53-1.8-3.59-3.07-5.89-3.63c-2.3-0.56-4.71-0.38-6.9,0.51
		C46.99,38.15,45.14,39.71,43.88,41.72L43.88,41.72z"/>
	
		<radialGradient id="SVGID_00000161613369995640255330000005049163784437267615_" cx="3583.9868" cy="-7631.4438" r="0.0716" gradientTransform="matrix(287.483 0 0 398.455 -1030281.75 3040815.5)" gradientUnits="userSpaceOnUse">
		<stop  offset="0" style="stop-color:#F61474"/>
		<stop  offset="1" style="stop-color:#FF85B9"/>
	</radialGradient>
	<path style="fill:url(#SVGID_00000161613369995640255330000005049163784437267615_);" d="M61.43,41.21
		c6.64,0,12.02-5.38,12.02-12.02s-5.38-12.02-12.02-12.02S49.4,22.55,49.4,29.19S54.79,41.21,61.43,41.21z"/>
	
		<radialGradient id="SVGID_00000070115198501531112400000008909782149663719320_" cx="3617.8474" cy="-7659.1445" r="0.0716" gradientTransform="matrix(95.603 -95.603 132.5069 132.5069 669086.0625 1360798.125)" gradientUnits="userSpaceOnUse">
		<stop  offset="0" style="stop-color:#F61474"/>
		<stop  offset="1" style="stop-color:#FF85B9"/>
	</radialGradient>
	<path style="fill:url(#SVGID_00000070115198501531112400000008909782149663719320_);" d="M80.42,33.19c2.21-2.21,2.21-5.79,0-8
		c-2.21-2.21-5.79-2.21-8,0c-2.21,2.21-2.21,5.79,0,8S78.22,35.4,80.42,33.19z"/>
</g>
</svg>
