<?xml version="1.0" encoding="utf-8"?>
<!-- Generator: Adobe Illustrator 24.3.0, SVG Export Plug-In . SVG Version: 6.00 Build 0)  -->
<svg version="1.1" xmlns="http://www.w3.org/2000/svg" xmlns:xlink="http://www.w3.org/1999/xlink" x="0px" y="0px"
	 viewBox="0 0 2000 2000" enable-background="new 0 0 2000 2000" xml:space="preserve">
<g id="ghost-image" display="none">
	<g display="inline" opacity="0.5">
		<path fill="#8A6FE8" d="M1469.02,1134.64c-57.66-4.68-181.26-73.79-228.06-150.36c-28.4-46.51,24.83-83.62,53.75-36.22
			c31.36,51.3,134.81,115.23,179.86,118.94L1469.02,1134.64z"/>
		<path fill="#8A6FE8" d="M1525.01,1005.66l-88.68,33.66c-15.81,6.01-23.74,23.69-17.79,39.47c6.01,15.81,23.68,23.74,39.47,17.79
			l88.68-33.66c15.81-6.01,23.74-23.69,17.79-39.47C1558.56,1007.59,1540.82,999.63,1525.01,1005.66z"/>
		<path fill="#8A6FE8" d="M1416.45,1155.13l37.83,51.37c10.17,13.62,29.44,16.44,43.06,6.26c13.63-10.17,16.44-29.43,6.27-43.06
			l-38.78-52.71L1416.45,1155.13z"/>
		<path fill="#8A6FE8" d="M1450.74,1158.21l76.78,42.91c14.86,8.25,33.6,2.87,41.85-12.01c8.25-14.83,2.87-33.6-12.01-41.85
			l-57-32.1L1450.74,1158.21z"/>
		<path fill="#8A6FE8" d="M1460.34,1121.85l84.59,24.43c16.33,4.74,33.4-4.69,38.15-20.98c4.74-16.33-4.69-33.4-20.98-38.15
			l-86.18-24.89L1460.34,1121.85z"/>
		
			<radialGradient id="SVGID_1_" cx="-4650.2178" cy="9277.5146" r="6.0502" gradientTransform="matrix(10.6515 0 0 -10.6515 50983.3633 99923.1875)" gradientUnits="userSpaceOnUse">
			<stop  offset="0" style="stop-color:#8065E0"/>
			<stop  offset="1" style="stop-color:#512BD4"/>
		</radialGradient>
		<path fill="url(#SVGID_1_)" d="M1451.57,1168.18c35.59,0,64.45-28.85,64.45-64.44c0-35.59-28.86-64.44-64.45-64.44
			c-35.58,0-64.44,28.85-64.44,64.44C1387.13,1139.33,1415.99,1168.18,1451.57,1168.18z"/>
		
			<linearGradient id="SVGID_2_" gradientUnits="userSpaceOnUse" x1="432.5041" y1="14876.1748" x2="492.2814" y2="14591.4668" gradientTransform="matrix(1 0 0 -1 694 15972)">
			<stop  offset="0" style="stop-color:#522CD5"/>
			<stop  offset="0.4397" style="stop-color:#8A6FE8"/>
		</linearGradient>
		<path fill="url(#SVGID_2_)" d="M1216.5,1374.16c0.66-59.76-7.85-181.06-69.53-282.64l-60.31,36.62
			c55.97,92.13,60.17,199.66,58.87,246.57C1145.39,1378.59,1181.58,1382.1,1216.5,1374.16z"/>
		<path fill="#522CD5" d="M1145.53,1374.05l55.85-0.26l52.14,298.71l-112.1,0.52c-8.54,0.03-15.01-6.84-14.43-15.38L1145.53,1374.05
			z"/>
		
			<linearGradient id="SVGID_3_" gradientUnits="userSpaceOnUse" x1="468.5244" y1="14600.0068" x2="646.1333" y2="14283.3535" gradientTransform="matrix(1 0 0 -1 694 15972)">
			<stop  offset="0" style="stop-color:#522CD5"/>
			<stop  offset="0.4397" style="stop-color:#8A6FE8"/>
		</linearGradient>
		<path fill="url(#SVGID_3_)" d="M1373.04,1593.94c9.68,7.65,9.52,18.71,8.77,30.39l-2.33,35.78c-0.43,6.41-6.01,11.68-12.41,11.7
			l-116.82,0.52c-7.28,0.03-12.76-5.84-12.27-13.08l0.77-37.08c0.89-13.48-3.65-18.43-14.08-31.13
			c-17.88-21.7-70.74-139.98-65.71-217.05l57.52-0.26C1220.29,1419.47,1280.66,1521.05,1373.04,1593.94z"/>
		
			<radialGradient id="SVGID_4_" cx="-4912.3062" cy="8975.4375" r="6.0492" gradientTransform="matrix(20.3477 -0.0926 -0.0926 -20.3477 102089.4766 183716.75)" gradientUnits="userSpaceOnUse">
			<stop  offset="0.034" style="stop-color:#522CD5"/>
			<stop  offset="0.9955" style="stop-color:#8A6FE8"/>
		</radialGradient>
		<path fill="url(#SVGID_4_)" d="M1381.81,1624.33c0.55-8.17,0.69-15.98-2.5-22.59l-145.71,0.66c4.03,5.92,5.72,11.09,5.18,19.74
			l-0.78,37.08c-0.48,7.27,5.03,13.14,12.27,13.08l116.82-0.51c6.41-0.03,11.99-5.29,12.42-11.7L1381.81,1624.33z"/>
		
			<linearGradient id="SVGID_5_" gradientUnits="userSpaceOnUse" x1="103.6272" y1="14880.5391" x2="172.3586" y2="14557.1797" gradientTransform="matrix(1 0 0 -1 694 15972)">
			<stop  offset="0" style="stop-color:#522CD5"/>
			<stop  offset="0.4397" style="stop-color:#8A6FE8"/>
		</linearGradient>
		<path fill="url(#SVGID_5_)" d="M847.6,1418.81l-71.31-8.88l40.1-322.45l71.32,8.85L847.6,1418.81z"/>
		<path fill="#522CD5" d="M781.46,1371.7l56.51-0.26l15.64,302.04L740.18,1674c-8.62,0.03-14.31-6.93-12.68-15.55L781.46,1371.7z"/>
		
			<linearGradient id="SVGID_6_" gradientUnits="userSpaceOnUse" x1="48.8044" y1="14573.0049" x2="202.8481" y2="14279.4717" gradientTransform="matrix(1 0 0 -1 694 15972)">
			<stop  offset="0" style="stop-color:#522CD5"/>
			<stop  offset="0.4397" style="stop-color:#8A6FE8"/>
		</linearGradient>
		<path fill="url(#SVGID_6_)" d="M945.67,1595.09c8.71,7.88,8.51,18,6.27,29.81l-6.81,36.19c-1.21,6.47-7.53,11.78-14,11.81
			l-162.21,0.75c-7.36,0.02-12.19-5.89-10.81-13.25l5.78-37.51c2.56-13.62,0.57-17.65,0.83-35.13
			c0.49-32.76,15.61-138.25,30.27-216.16l58.21-0.25C851.42,1417.63,871.48,1527.86,945.67,1595.09z"/>
		
			<radialGradient id="SVGID_7_" cx="-4951.5083" cy="8952.1533" r="6.0492" gradientTransform="matrix(22.145 -0.1007 -0.1006 -22.1216 111414.6484 199078.9219)" gradientUnits="userSpaceOnUse">
			<stop  offset="0.034" style="stop-color:#522CD5"/>
			<stop  offset="0.9955" style="stop-color:#8A6FE8"/>
		</radialGradient>
		<path fill="url(#SVGID_7_)" d="M763.92,1622.92l-5.78,37.51c-1.38,7.33,3.45,13.28,10.81,13.25l162.2-0.74
			c6.5-0.03,12.79-5.35,14-11.81l6.81-36.19c1.61-8.57,2.1-16.24-1.03-22.82l-185.86,0.83
			C765.36,1609.61,765.53,1614.39,763.92,1622.92z"/>
		<path fill="#8A6FE8" d="M803.96,455.82l-67.46,27.13l-18.37-73.07l48.43-19.49L803.96,455.82z"/>
		<path fill="#512BD4" d="M788.84,581.95c38.16,0,69.1-30.94,69.1-69.1c0-38.16-30.94-69.1-69.1-69.1s-69.1,30.94-69.1,69.1
			C719.74,551.01,750.68,581.95,788.84,581.95z"/>
		
			<radialGradient id="SVGID_8_" cx="-5103.3301" cy="8790.5693" r="6.0492" gradientTransform="matrix(61.9498 0 0 -61.9498 317165.9688 545342.125)" gradientUnits="userSpaceOnUse">
			<stop  offset="0.4744" style="stop-color:#A08BE8"/>
			<stop  offset="0.8618" style="stop-color:#8065E0"/>
		</radialGradient>
		<path fill="url(#SVGID_8_)" d="M1300.17,939.67c24.86-95.46,8.83-171.66,8.83-171.66h22.45l0.54-0.43
			c-32.16-175.17-185.6-307.91-370.05-307.91c-207.82,0-376.29,168.47-376.29,376.29c0,207.82,168.44,376.29,376.29,376.29
			c163.98,0,303.45-104.92,354.99-251.25C1318.43,954.79,1318.29,943.64,1300.17,939.67z"/>
		<path fill="#D8CFF7" d="M1286.38,1026.53h-648.9c14.57,24.75,31.88,47.66,51.54,68.36h545.85
			C1254.5,1074.17,1271.8,1051.28,1286.38,1026.53z"/>
		
			<radialGradient id="SVGID_9_" cx="-5074.9058" cy="8822.0029" r="6.0492" gradientTransform="matrix(48.2581 0 0 -48.2581 246137.4062 426431.9688)" gradientUnits="userSpaceOnUse">
			<stop  offset="0.0933" style="stop-color:#E1DFDD"/>
			<stop  offset="0.8998" style="stop-color:#FFFFFF"/>
		</radialGradient>
		<path fill="url(#SVGID_9_)" d="M1300.17,939.67c24.55-94.28,9.22-169.73,8.86-171.57H918.6c0,0-24.61-2.5-24.61,19.98
			c0,22.48,0.93,85.94,0.93,156.17c0,14.43,11.81,21.38,21.12,21.38C916.07,965.59,1256.6,965.57,1300.17,939.67z"/>
		<path fill="#A08BE8" d="M1065.02,939.87c0,0,60.05-47.51,71.75-56.31c11.72-8.8,21.96-9.29,32.71,0
			c10.75,9.29,70.85,56.31,70.85,56.31H1065.02z"/>
		<path fill="#512BD4" d="M1315.41,965.33c0,0,10.43-20.06-15.24-25.67c0.03-0.08-383.82-0.28-383.82-0.28
			c-8.93,0-20.43-5.32-21.41-14c0,6.21,0.03,12.47,0.03,18.83c0,13.11,9.75,20.03,18.48,21.18c0.86,0.11,1.75,0.2,2.65,0.2h26.24
			L1315.41,965.33z"/>
		<path fill="#512BD4" d="M1286.53,851.61c0.41-27.33-12.44-49.69-28.69-49.93c-16.25-0.24-29.76,21.72-30.17,49.05
			c-0.41,27.34,12.44,49.69,28.69,49.93C1272.61,900.9,1286.12,878.95,1286.53,851.61z"/>
		<path fill="#8065E0" d="M1256.74,825.01c-10.75,10.75-10.75,28.17,0,38.92c7.36,7.36,17.85,9.69,27.19,6.96
			c1.58-5.89,2.5-12.42,2.62-19.26c0.2-13.39-2.79-25.58-7.82-34.58C1270.88,816.36,1262.75,819,1256.74,825.01z"/>
		<path fill="#512BD4" d="M1020.8,900.92c16.25-0.24,29.1-22.6,28.69-49.93c-0.41-27.33-13.91-49.3-30.17-49.05
			c-16.25,0.24-29.1,22.6-28.69,49.93C991.04,879.19,1004.54,901.16,1020.8,900.92z"/>
		<path fill="#8065E0" d="M1019.83,826.62c-10.75,10.75-10.75,28.17,0,38.92c7.33,7.33,17.74,9.63,27.02,6.98
			c1.78-6.55,2.76-13.85,2.64-21.59c-0.17-12.42-3.07-23.69-7.7-32.28C1033.95,817.97,1025.84,820.61,1019.83,826.62z"/>
		<path fill="#512BD4" d="M1084.82,1115.23l123.17-0.56l-0.5-108.94l-123.17,0.56L1084.82,1115.23z"/>
		<path fill="#FFFFFF" d="M1106.12,1074.51c-0.83,0-1.52-0.26-2.1-0.8c-0.57-0.55-0.86-1.24-0.86-1.98c0-0.77,0.28-1.47,0.86-2.01
			c0.57-0.57,1.26-0.83,2.1-0.83c0.83,0,1.52,0.29,2.1,0.83c0.57,0.54,0.89,1.24,0.89,2.01c0,0.77-0.28,1.43-0.86,1.98
			C1107.68,1074.22,1106.96,1074.51,1106.12,1074.51z"/>
		<path fill="#FFFFFF" d="M1138.89,1073.97h-5.32l-14.08-22.11c-0.34-0.54-0.67-1.15-0.9-1.75h-0.11c0.11,0.63,0.18,2.01,0.18,4.14
			l0.03,19.74h-4.72l-0.05-30.12h5.66l13.6,21.59c0.57,0.89,0.94,1.52,1.12,1.84h0.08c-0.15-0.8-0.2-2.15-0.2-4.05l-0.03-19.4h4.69
			L1138.89,1073.97z"/>
		<path fill="#FFFFFF" d="M1161.83,1073.94l-16.5,0.03l-0.06-30.12l15.84-0.03v4.25l-10.95,0.03l0.03,8.54l10.09-0.03v4.23
			l-10.09,0.03l0.02,8.91l11.61-0.03V1073.94z"/>
		<path fill="#FFFFFF" d="M1185.2,1048.01l-8.45,0.02l0.06,25.87h-4.89l-0.06-25.87l-8.42,0.03v-4.25l21.73-0.06L1185.2,1048.01z"/>
		<path fill="#8A6FE8" d="M529.43,1254.19l40.18,57.34c10.81,15.24,31.93,18.74,47.17,7.94c15.23-10.81,18.74-31.93,7.93-47.14
			l-49.73-69.3L529.43,1254.19z"/>
		<path fill="#8A6FE8" d="M460.13,1232.49L449,1301.65c-2.82,18.43,9.8,35.7,28.28,38.52c18.43,2.82,35.7-9.8,38.52-28.29
			l11.38-70.88L460.13,1232.49z"/>
		<path fill="#8A6FE8" d="M504.99,1240.3l-9.34,69.42c-2.36,18.48,10.75,35.44,29.23,37.8c18.48,2.36,35.44-10.75,37.83-29.23
			l9.6-71.2L504.99,1240.3z"/>
		<path fill="#8A6FE8" d="M442.74,1211.82l-25.09,65.39c-6.58,17.48,2.3,36.99,19.78,43.52c17.48,6.58,36.99-2.3,43.52-19.77
			l25.73-67.06L442.74,1211.82z"/>
		
			<linearGradient id="SVGID_10_" gradientUnits="userSpaceOnUse" x1="-100.864" y1="15112.4697" x2="-100.864" y2="14731.5771" gradientTransform="matrix(1 0 0 -1 694 15972)">
			<stop  offset="0.2495" style="stop-color:#967FE6"/>
			<stop  offset="1" style="stop-color:#8A6FE8"/>
		</linearGradient>
		<path fill="url(#SVGID_10_)" d="M489.3,1240.42c-27.91-57-44.21-154.45,1.78-241.6c27.97-52.92,89.19-120.03,222.28-139.29
			l10.69,73.79c-80.8,11.7-138.52,46.39-167,100.32c-30.84,58.41-22.59,129.43-0.78,174.04L489.3,1240.42z"/>
		
			<radialGradient id="SVGID_11_" cx="-4737.9756" cy="9256.3447" r="6.0492" gradientTransform="matrix(11.3989 0 0 -11.3989 54744.4414 106373.5469)" gradientUnits="userSpaceOnUse">
			<stop  offset="0" style="stop-color:#8065E0"/>
			<stop  offset="1" style="stop-color:#512BD4"/>
		</radialGradient>
		<path fill="url(#SVGID_11_)" d="M738.97,954.1c38.06,0,68.9-30.84,68.9-68.9c0-38.06-30.84-68.9-68.9-68.9
			c-38.06,0-68.9,30.84-68.9,68.9C670.07,923.23,700.92,954.1,738.97,954.1z"/>
		
			<radialGradient id="SVGID_12_" cx="-4971.9805" cy="8960.3008" r="6.0492" gradientTransform="matrix(22.7292 0 0 -22.7292 113514.0078 204814.2031)" gradientUnits="userSpaceOnUse">
			<stop  offset="0" style="stop-color:#8065E0"/>
			<stop  offset="1" style="stop-color:#512BD4"/>
		</radialGradient>
		<path fill="url(#SVGID_12_)" d="M508.62,1277.33c39.09,0,70.77-31.68,70.77-70.77c0-39.09-31.68-70.77-70.77-70.77
			c-39.09,0-70.77,31.68-70.77,70.77C437.85,1245.65,469.55,1277.33,508.62,1277.33z"/>
		<path fill="#D8CFF7" d="M739.68,415.8c-26.24,6.99-53.32-8.39-60.54-34.41c-7.19-26.01,8.22-52.72,34.46-59.7
			c26.24-6.98,53.32,8.39,60.54,34.41C781.36,382.11,765.95,408.78,739.68,415.8z"/>
	</g>
</g>
<g id="bot-base" display="none">
	<g display="inline">
		
			<radialGradient id="SVGID_13_" cx="-5103.3301" cy="8790.5693" r="6.0492" gradientTransform="matrix(61.9498 0 0 -61.9498 317165.9688 545342.125)" gradientUnits="userSpaceOnUse">
			<stop  offset="0.4744" style="stop-color:#A08BE8"/>
			<stop  offset="0.8618" style="stop-color:#8065E0"/>
		</radialGradient>
		<path fill="url(#SVGID_13_)" d="M1300.17,939.67c24.86-95.46,8.83-171.66,8.83-171.66h22.45l0.54-0.43
			c-32.16-175.17-185.6-307.91-370.05-307.91c-207.82,0-376.29,168.47-376.29,376.29c0,207.82,168.44,376.29,376.29,376.29
			c163.98,0,303.45-104.92,354.99-251.25C1318.43,954.79,1318.29,943.64,1300.17,939.67z"/>
		<path fill="#D8CFF7" d="M1286.38,1026.53h-648.9c14.57,24.75,31.88,47.66,51.54,68.36h545.85
			C1254.5,1074.17,1271.8,1051.28,1286.38,1026.53z"/>
		
			<radialGradient id="SVGID_14_" cx="-5074.9058" cy="8822.0029" r="6.0492" gradientTransform="matrix(48.2581 0 0 -48.2581 246137.4062 426431.9688)" gradientUnits="userSpaceOnUse">
			<stop  offset="0.0933" style="stop-color:#E1DFDD"/>
			<stop  offset="0.8998" style="stop-color:#FFFFFF"/>
		</radialGradient>
		<path fill="url(#SVGID_14_)" d="M1300.17,939.67c24.55-94.28,9.22-169.73,8.86-171.57H918.6c0,0-24.61-2.5-24.61,19.98
			c0,22.48,0.93,85.94,0.93,156.17c0,14.43,11.81,21.38,21.12,21.38C916.07,965.59,1256.6,965.57,1300.17,939.67z"/>
		<path fill="#A08BE8" d="M1065.02,939.87c0,0,60.05-47.51,71.75-56.31c11.72-8.8,21.96-9.29,32.71,0
			c10.75,9.29,70.85,56.31,70.85,56.31H1065.02z"/>
		<path fill="#512BD4" d="M1315.41,965.33c0,0,10.43-20.06-15.24-25.67c0.03-0.08-383.82-0.28-383.82-0.28
			c-8.93,0-20.43-5.32-21.41-14c0,6.21,0.03,12.47,0.03,18.83c0,13.11,9.75,20.03,18.48,21.18c0.86,0.11,1.75,0.2,2.65,0.2h26.24
			L1315.41,965.33z"/>
		<path fill="#512BD4" d="M1084.82,1115.23l123.17-0.56l-0.5-108.94l-123.17,0.56L1084.82,1115.23z"/>
		<path fill="#FFFFFF" d="M1106.12,1074.51c-0.83,0-1.52-0.26-2.1-0.8c-0.57-0.55-0.86-1.24-0.86-1.98c0-0.77,0.28-1.47,0.86-2.01
			c0.57-0.57,1.26-0.83,2.1-0.83c0.83,0,1.52,0.29,2.1,0.83c0.57,0.54,0.89,1.24,0.89,2.01c0,0.77-0.28,1.43-0.86,1.98
			C1107.68,1074.22,1106.96,1074.51,1106.12,1074.51z"/>
		<path fill="#FFFFFF" d="M1138.89,1073.97h-5.32l-14.08-22.11c-0.34-0.54-0.67-1.15-0.9-1.75h-0.11c0.11,0.63,0.18,2.01,0.18,4.14
			l0.03,19.74h-4.72l-0.05-30.12h5.66l13.6,21.59c0.57,0.89,0.94,1.52,1.12,1.84h0.08c-0.15-0.8-0.2-2.15-0.2-4.05l-0.03-19.4h4.69
			L1138.89,1073.97z"/>
		<path fill="#FFFFFF" d="M1161.83,1073.94l-16.5,0.03l-0.06-30.12l15.84-0.03v4.25l-10.95,0.03l0.03,8.54l10.09-0.03v4.23
			l-10.09,0.03l0.02,8.91l11.61-0.03V1073.94z"/>
		<path fill="#FFFFFF" d="M1185.2,1048.01l-8.45,0.02l0.06,25.87h-4.89l-0.06-25.87l-8.42,0.03v-4.25l21.73-0.06L1185.2,1048.01z"/>
	</g>
</g>
<g id="asset">
	<g>
		<linearGradient id="SVGID_15_" gradientUnits="userSpaceOnUse" x1="995.363" y1="34.5253" x2="995.363" y2="1005.2019">
			<stop  offset="0" style="stop-color:#98C2F5"/>
			<stop  offset="0.7674" style="stop-color:#D8E8FB"/>
		</linearGradient>
		<path fill="url(#SVGID_15_)" d="M1045.88,37.69C337.48,17.74,141.02,89.18,84.92,338.67c-64.14,285.22-15.78,478.51,21.5,666.53
			h1688.97c11.95-143.36,50.38-294.86,118.22-447.44C2047.56,256.48,1588.98,52.98,1045.88,37.69z"/>
		<path fill="#FFFFFF" d="M106.42,1005.2h1688.97c9.36-112.3,34.97-229.58,78.23-348.47c-10.41,0.15-21.88,1.12-34.15,3.42
			c-39.74,7.45-72,77.02-72,77.02s-8.04-36.72-60.28-55.26c-51.91-18.42-127.26,31.81-127.26,31.81s-13.93-87.81-112.19-120.56
			c-70.33-23.44-143.48,18.42-143.48,18.42s-75.91-107.16-218.79-84.84C888.19,560.71,900.09,776.8,900.09,776.8
			s-87.03-68.09-192.52-26.23c-84.63,33.58-102.18,137.86-102.18,137.86s-28.43-50.79-90.38-59.16
			c-46.93-6.34-97.15,23.44-97.15,23.44s-22.33-80.37-84.84-89.3c-62.51-8.93-107.68,60.84-107.68,60.84s-31.64-37.48-85.4-38.51
			c-30.35-0.58-53.51,7.92-70.81,19.25C79.45,874.72,93.54,940.26,106.42,1005.2z"/>
		<path fill="#FBC977" d="M1797.03,986.98c-393.88,0-1189.04,0-1210.06,0c-28.94,0-42.65-44.92-42.65-44.92s-77.67,0-100.06,0
			c-22.38,0-29.4-25.44-29.4-25.44s-76.35-24.94-80.72-29.75s0-65.59,0-65.59h-19.8V797.7l-24.37-15.72V640.3l-18.28-22.36
			l-39.85,10.22v95.15l-22.1,24.3v103.25l-32.47,22.19l-88.49,13.38c0.85,13.05,1.44,26.23,1.76,39.54
			c13.89,70.31,28.69,138.29,38.37,208.28h1662.86C1790.39,1086.31,1792.09,1037.12,1797.03,986.98z"/>
		<path fill="#FBC977" d="M1810.45,890.02c-20.13-10.23-17.35-37.7-17.35-37.7h-56.09v-35.66l-35.06-10.13l-14.02-50.85v-48.71
			l-26.64-8.59v-31.54l-30.85-25.36h-49.08l-6,25.36h-64.91l-6-25.61h-35.26l-8.41,15.65v23.45h-29.45c0,0,0,74.32,0,99.89
			c0,25.57-29.45,40.18-29.45,40.18v38.53l-57.49,36.01L1320.53,958c0,0-64.51,11.21-74.32,12.61c-9.82,1.4-1.4,21.49-36.46,21.49
			c-35.06,0-403.72,0-403.72,0v184.65h987.81C1787.6,1085.45,1792.83,989.17,1810.45,890.02z"/>
		<path fill="#FDD490" d="M1217.27,1087.52c-308.63,50.43-460.95,39.99-748.18,0c-163.67-22.79-261.29-32.14-352.44-28.83
			c19.5,106.93,31.98,214.9,15.14,340.01c198.02,199.13,752.14,248.37,1219.47,217.87c246.82-16.11,409.36-53.75,508.87-114.95
			c-6.27-33.66-15.38-69.3-26.9-106.99c-31.97-104.59-46.21-220.43-40.82-342.94C1600.68,1042.45,1406.03,1056.67,1217.27,1087.52z"
			/>
		<path fill="#F9BE5C" d="M539.86,1165.07c-185.05,12.43-320.94,0-408.82-14.82c9.83,77.96,12.82,158.8,0.76,248.44
			c198.02,199.13,752.14,248.37,1219.47,217.87c246.81-16.11,409.36-53.75,508.87-114.95c-6.27-33.66-15.38-69.3-26.9-107
			c-25.34-82.9-39.53-172.87-41.65-267.62c-58.97,6.36-118.35,14.91-175.56,22.76C1180.11,1209.53,984.25,1135.22,539.86,1165.07z"
			/>
		<polygon fill="#F8B84F" points="1472.63,687.66 1472.63,857.57 1486.83,814.49 1486.83,703.23 		"/>
		<path fill="#F8B84F" d="M1585.46,914.48l140.14,26.94l-390,16.58l46.03,15.39h416.82c1.8-16.36,3.95-32.83,6.44-49.37
			c-5.21-9.32-7.61-17.47-7.61-17.47L1585.46,914.48z"/>
		<path fill="#F8B84F" d="M337.15,888.71c-0.01,0-0.01-0.01-0.02-0.01c-0.47-0.23-0.89-0.45-1.26-0.65
			c-0.36-0.2-0.66-0.38-0.92-0.55c-0.06-0.04-0.14-0.09-0.19-0.13c-0.27-0.19-0.48-0.36-0.61-0.51c-1.64-1.8-2.05-11.47-1.92-22.85
			c0-0.01,0-0.02,0-0.03c0.21-18.98,1.92-42.7,1.92-42.7l-19.8-6.11V797.7l-24.37-15.72V640.3l-18.28-22.36v185.7l22.04,18.98v54.47
			h7.44l4.47,31.9l43.16,18.21H166.49l52.46,22.5h102.7l72.29,22.04h165.98c-10.51-13.03-15.59-29.68-15.59-29.68
			c-32.36,0-88.46,0-100.06,0c-8.39,0-14.63-3.58-19.14-8.05c-7.52-7.45-10.26-17.39-10.26-17.39S342.99,891.6,337.15,888.71z"/>
		<path fill="#F8B84F" d="M1508.35,700.59v162.45h48.53l9.58,23.26h238.42c-14-11.95-11.77-33.99-11.77-33.99h-56.09v-35.66
			l-35.06-10.13l-21.59-73.65l-19.08-15.08v-19.42v-31.54l-30.85-25.36h-16.22v38.3h-82.34L1508.35,700.59z"/>
		<polygon fill="#FBC977" points="1725.27,871.45 1681.38,855.49 1653.39,739.83 1635.94,732.89 1624.29,704.4 1620.02,858.04 
			1620.02,858.04 1597.18,871.88 		"/>
		<g>
			<path fill="#A2AD6D" d="M389.59,952.71c35.97,10.18,52.27-48.18,46.16-71.94s-21.72-17.49-22.25,5.43
				c-0.73,31.89-13.05,54.29-23.91,54.97C383.8,941.53,375.95,948.85,389.59,952.71z"/>
			<path fill="#A2AD6D" d="M361.08,1188.92c0,0,7.47-236.21-0.07-359.07c-2.58-42.03,21.01-44.8,25.86-1.36
				c12.43,111.45,17.65,360.43,17.65,360.43H361.08z"/>
			<path fill="#A2AD6D" d="M369.23,1005.65c-19.31-7.51-21.72-46.84-28.51-67.2c-6.79-20.36-27.83-21.4-25.11,15.43
				c2.72,36.83,23.76,66.7,45.18,69.5C375.65,1025.34,381.44,1010.41,369.23,1005.65z"/>
		</g>
		<path fill="#889643" d="M1557.63,1346.81c-212.84,25.89-426.28,78.25-642.98,78.25c-330.21,0-303.19-77.68-780.03-49.76
			c-4.06,37.76-10.74,77.04-20.71,118.31c-95.91,397.09,500.35,495.33,1116.07,455.14s707.14-214.33,603.25-554.13
			c-4.53-14.82-8.7-29.86-12.51-45.11C1741.81,1340.51,1647.53,1335.87,1557.63,1346.81z"/>
		<path fill="#EBA841" d="M1557.63,1346.81c-212.84,25.89-426.28,78.25-642.98,78.25c-330.21,0-303.19-77.68-780.03-49.76
			c-4.06,37.76-10.74,77.04-20.71,118.31c-95.91,397.09,500.35,495.33,1116.07,455.14s707.14-214.33,603.25-554.13
			c-4.53-14.82-8.7-29.86-12.51-45.11C1741.81,1340.51,1647.53,1335.87,1557.63,1346.81z"/>
		<polygon fill="#E8A53F" points="235.12,1327.66 185.22,1054.05 207.44,1049.61 276.76,1321.68 		"/>
		<polygon fill="#E29E3B" points="160.77,1110.21 262.84,1079.7 291.9,1098.5 276.34,1120.73 162.99,1140.73 		"/>
		<polygon fill="#E29E3B" points="294.12,1165.73 174.11,1156.84 146.39,1172 170.98,1195.88 291.9,1201.29 		"/>
		<g>
			<path fill="#F7B548" d="M211.94,1506.85c0,0,38.51-43.53,53.58-55.26c15.07-11.72,72,10.05,72,10.05l43.53,3.35l13.4,21.77
				c0,0-48.56,21.77-83.72,25.12S211.94,1506.85,211.94,1506.85z"/>
			<path fill="#D59235" d="M310.73,1511.87c35.16-3.35,83.72-25.12,83.72-25.12l-13.15-21.38c-15.29,13.02-42.68,33.19-62.19,29.75
				c-28.47-5.02-30.14-11.72-41.86-18.42c-4.89-2.8-22.03-0.63-40.35,2.84c-13.12,13.92-24.95,27.3-24.95,27.3
				S275.57,1515.22,310.73,1511.87z"/>
		</g>
		<path fill="#E5A13D" d="M1403.18,1430.65c-177.1,1.41-244.86-121.78-244.86-121.78l100.13,36.12l-59.86-79.96l85.86,51.15
			c0,0-51.76-77.94-44.45-75.5s92.55,68.2,92.55,68.2l-29.23-99.86l53.58,53.58l14.61-82.81l29.23,82.81l26.79-36.53v63.33
			l70.63-94.99l-29.23,87.68l102.29-80.37l-49.07,92.05l109.96-33.6l-79.56,58.45l103.92-18.27l-119.34,64.54h94.99
			C1632.12,1364.88,1579.93,1429.23,1403.18,1430.65z"/>
		<g>
			<path fill="#64BFAF" d="M1697.85,1521.84c-58.4,2.57-146.67-45.92-133.23-129.4s108.45-142.2,158.29-131
				c49.84,11.19,99.7,63.95,102.93,156.75S1748.62,1519.6,1697.85,1521.84z"/>
			<path fill="#57AA9A" d="M1810.98,1433.99c10.6-77.38-35.75-125.51-35.75-125.51s22.78,69.94,2.58,132
				c-13.34,40.98-55.41,62.52-82.46,72.42c20.76-17.92,54.59-50.87,61.25-80.4c20.16-89.33-4.91-140.99-4.91-140.99
				s-1.37,86.1-15.15,130.69c-8.49,27.46-34.22,59.26-52.74,79.64c9.89-24.76,24.93-64.58,32.91-96.48
				c12.54-50.14,3.56-123.41,0.74-124.67c-2.82-1.26-27.1,131.29-36.04,159.93c-6.06,19.42-12.94,47.54-17.18,63.84
				c-2.7-20.26-6.45-54.34-7.13-91.18c-1.08-58.66,40.91-133.86,40.91-133.86s-53.43,48.74-63.88,119.95
				c-5.28,36,6.85,84.83,13.52,107.81c-18.75-30.54-40.05-72.85-37.37-104.07c4.97-57.94,55.43-116.35,55.43-116.35
				s-46.98,32.97-66.59,58.26c-19.62,25.29-21.75,70.77-12.05,97.61c22.98,63.54,58.81,69.95,58.81,69.95s20.79,23.91,10.74,8.69
				l6.87,1.55l3.55,0.8l11.83,2.67C1678.9,1526.29,1800.38,1511.37,1810.98,1433.99z"/>
			<path fill="#E1EA95" d="M1757.12,1274.31l1.24-7.82l-10.38,3.59l2-9.62l-8.57,3.56l-2.82-9.55l-10.1,5.29l-1.83-7.98l-8.31,4.24
				l-5.9-6.92l-4.46,7.39l-4.62-6.89l-4.56,7.62l-7.75-4.23l-0.44,7.46l-8.62-0.37c0,0,4.67,8.5,9.15,12.62
				c0.01,0.01,0.02,0.01,0.02,0.02c4.51,5.17,15.53,11.31,29.36,13.64c32.84,5.54,45.52-10.26,45.52-10.26L1757.12,1274.31z"/>
		</g>
		<g>
			<path fill="#F7B548" d="M1587.41,1589.35c-78.56-2.38-99.74-24.98-99.74-24.98l-32.85-5.77c0,0-8.21-28.82,0-45.16
				c8.21-16.33-5.87-24.98,50.45-24.98c56.32,0,95.04,3.84,110.3,7.69c15.25,3.84,61.02,12.49,99.74,16.33
				c38.72,3.84,55.15,2.88,59.84,5.77c4.69,2.88,15.25,30.75,15.25,30.75s4.69,8.65-18.77,12.49
				c-23.47,3.84-73.92,23.06-96.22,25.94C1653.12,1590.31,1619.09,1590.31,1587.41,1589.35z"/>
			<path fill="#D59235" d="M1775.15,1518.25c-0.22-0.14-0.48-0.26-0.76-0.38c-6.45,8.48-13.82,18.06-16.84,21.52
				c-5.87,6.73-12.91,19.22-29.33,10.57c-16.43-8.65-35.2-13.45-35.2-13.45s-120.86,21.14-140.8,21.14s-56.32-4.8-49.28-23.06
				c7.04-18.26,19.95-22.1-5.87-22.1c-13.6,0-27.84-6.13-38.28-11.93c-1.01,3.55-1.43,7.86-3.96,12.9c-8.21,16.33,0,45.16,0,45.16
				l32.85,5.77c0,0,21.17,22.6,99.74,24.98c31.68,0.96,65.71,0.96,88-1.92c22.29-2.88,72.75-22.1,96.22-25.94
				c23.47-3.84,18.77-12.49,18.77-12.49S1779.84,1521.13,1775.15,1518.25z"/>
		</g>
	</g>
</g>
</svg>
