<svg xmlns="http://www.w3.org/2000/svg" viewBox="0 0 732.68 265.58"><g id="Layer_2" data-name="Layer 2"><g id="asset"><g id="cateye-glasses"><path d="M686.77,6.15C623.06,0,541.55-7,449.81,39.15c-78.39,39.42-88,34.22-88,34.22-33.28,0-140.23-75.46-256-73.33S-.9,19.55.93,36.68,34.55,195,118.27,239s166.53,9.47,192.81-47.66S341,114,360,113.41s22.3,10.08,37.28,44.3,65.69,107.87,140.56,107.87,149.88-94,174.62-167.3S749.73,12.24,686.77,6.15ZM318.41,137.24c-3.06,28.73-52,110.61-135.4,111.22S63,145.8,60.52,92s48.89-66,90.83-66S281,52.17,305.58,76.73C319,90.19,321.47,108.52,318.41,137.24ZM665.68,92c-2.44,53.78-39,157.06-122.49,156.44S410.84,166,407.78,137.24s-.6-47.05,12.83-60.51C445.18,52.17,532.91,26,574.85,26S668.12,38.24,665.68,92Z" fill="#ea7b66"/><path d="M318.41,137.24c-3.06,28.73-52,110.61-135.4,111.22S63,145.8,60.52,92s48.89-66,90.83-66S281,52.17,305.58,76.73C319,90.19,321.47,108.52,318.41,137.24Z" fill="#b6e3de" opacity="0.3"/><path d="M665.68,92c-2.44,53.78-39,157.06-122.49,156.44S410.84,166,407.78,137.24s-.6-47.05,12.83-60.51C445.18,52.17,532.91,26,574.85,26S668.12,38.24,665.68,92Z" fill="#b6e3de" opacity="0.3"/><circle cx="24.9" cy="31.49" r="10.74" fill="#92d5cd"/><path d="M33,30.75c-2.6-2.6-9-4.89-12.23-4.74s6-1.85,8.71,0A9.15,9.15,0,0,1,33,30.75Z" fill="#e7f6f4"/><circle cx="35.63" cy="63.51" r="10.74" fill="#92d5cd"/><path d="M43.75,62.78c-2.6-2.6-9-4.9-12.22-4.74s6-1.85,8.71,0A9.06,9.06,0,0,1,43.75,62.78Z" fill="#e7f6f4"/><circle cx="57.1" cy="34.41" r="10.74" fill="#92d5cd"/><path d="M65.22,33.67c-2.6-2.6-9-4.89-12.22-4.74s6-1.85,8.71,0A9.05,9.05,0,0,1,65.22,33.67Z" fill="#e7f6f4"/><circle cx="677.88" cy="31.49" r="10.74" fill="#92d5cd"/><path d="M686,30.75c-2.59-2.6-9-4.89-12.22-4.74s6-1.85,8.71,0A9.1,9.1,0,0,1,686,30.75Z" fill="#e7f6f4"/><circle cx="688.62" cy="63.51" r="10.74" fill="#92d5cd"/><path d="M696.74,62.78c-2.6-2.6-9-4.9-12.22-4.74s6-1.85,8.71,0A9.06,9.06,0,0,1,696.74,62.78Z" fill="#e7f6f4"/><circle cx="710.09" cy="34.41" r="10.74" fill="#92d5cd"/><path d="M718.21,33.67c-2.6-2.6-9-4.89-12.22-4.74s6-1.85,8.71,0A9.05,9.05,0,0,1,718.21,33.67Z" fill="#e7f6f4"/></g></g></g></svg>