<svg xmlns="http://www.w3.org/2000/svg" xmlns:xlink="http://www.w3.org/1999/xlink" viewBox="0 0 615.07 267.24"><defs><linearGradient id="linear-gradient" x1="310.84" y1="9034.62" x2="310.84" y2="9267.31" gradientTransform="matrix(1, 0, 0, -1, 0, 9284.49)" gradientUnits="userSpaceOnUse"><stop offset="0.23" stop-color="#fff"/><stop offset="0.62" stop-color="#d5d3d0"/></linearGradient><linearGradient id="linear-gradient-2" x1="271.27" y1="9034.61" x2="271.27" y2="9259.37" gradientTransform="matrix(1, 0, 0, -1, 0, 9284.49)" gradientUnits="userSpaceOnUse"><stop offset="0.06" stop-color="#fff"/><stop offset="0.62" stop-color="#a7a4a0"/></linearGradient><linearGradient id="linear-gradient-3" x1="28.15" y1="59.17" x2="28.15" y2="59.71" gradientTransform="matrix(1, 0, 0, 1, 0, 0)" xlink:href="#linear-gradient"/><linearGradient id="linear-gradient-4" x1="34.8" y1="56.51" x2="34.8" y2="59.16" gradientTransform="matrix(1, 0, 0, 1, 0, 0)" xlink:href="#linear-gradient"/><linearGradient id="linear-gradient-5" x1="45.84" y1="54.24" x2="45.84" y2="56.25" gradientTransform="matrix(1, 0, 0, 1, 0, 0)" xlink:href="#linear-gradient"/><linearGradient id="linear-gradient-6" x1="57.28" y1="51.15" x2="57.28" y2="54.24" gradientTransform="matrix(1, 0, 0, 1, 0, 0)" xlink:href="#linear-gradient"/><linearGradient id="linear-gradient-7" x1="78.35" y1="45.44" x2="78.35" y2="51.15" gradientTransform="matrix(1, 0, 0, 1, 0, 0)" xlink:href="#linear-gradient"/><linearGradient id="linear-gradient-8" x1="105.79" y1="40.48" x2="105.79" y2="45.44" gradientTransform="matrix(1, 0, 0, 1, 0, 0)" xlink:href="#linear-gradient"/><linearGradient id="linear-gradient-9" x1="124.51" y1="38.67" x2="124.51" y2="40.45" gradientTransform="matrix(1, 0, 0, 1, 0, 0)" xlink:href="#linear-gradient"/><linearGradient id="linear-gradient-10" x1="133.28" y1="37.46" x2="133.28" y2="38.67" gradientTransform="matrix(1, 0, 0, 1, 0, 0)" xlink:href="#linear-gradient"/><linearGradient id="linear-gradient-11" x1="142.85" y1="35.66" x2="142.85" y2="37.33" gradientTransform="matrix(1, 0, 0, 1, 0, 0)" xlink:href="#linear-gradient"/><linearGradient id="linear-gradient-12" x1="152.6" y1="34.24" x2="152.6" y2="35.66" gradientTransform="matrix(1, 0, 0, 1, 0, 0)" xlink:href="#linear-gradient"/><linearGradient id="linear-gradient-13" x1="169.62" y1="30.96" x2="169.62" y2="33.87" gradientTransform="matrix(1, 0, 0, 1, 0, 0)" xlink:href="#linear-gradient"/><linearGradient id="linear-gradient-14" x1="187.96" y1="28.74" x2="187.96" y2="30.96" gradientTransform="matrix(1, 0, 0, 1, 0, 0)" xlink:href="#linear-gradient"/><linearGradient id="linear-gradient-15" x1="272.53" y1="230.58" x2="272.53" y2="233.9" gradientTransform="matrix(1, 0, 0, 1, 0, 0)" xlink:href="#linear-gradient"/><linearGradient id="linear-gradient-16" x1="276.14" y1="223.04" x2="276.14" y2="226.95" gradientTransform="matrix(1, 0, 0, 1, 0, 0)" xlink:href="#linear-gradient"/><linearGradient id="linear-gradient-17" x1="290.19" y1="186.35" x2="290.19" y2="192.03" gradientTransform="matrix(1, 0, 0, 1, 0, 0)" xlink:href="#linear-gradient"/><linearGradient id="linear-gradient-18" x1="32.07" y1="59.71" x2="32.07" y2="161.55" gradientTransform="matrix(1, 0, 0, 1, 0, 0)" xlink:href="#linear-gradient-2"/><linearGradient id="linear-gradient-19" x1="39.49" y1="163.46" x2="39.49" y2="166.42" gradientTransform="matrix(1, 0, 0, 1, 0, 0)" xlink:href="#linear-gradient-2"/><linearGradient id="linear-gradient-20" x1="148.77" y1="167.44" x2="148.77" y2="249.88" gradientTransform="matrix(1, 0, 0, 1, 0, 0)" xlink:href="#linear-gradient-2"/><linearGradient id="linear-gradient-21" x1="333.09" y1="155.49" x2="333.09" y2="158.11" gradientTransform="matrix(1, 0, 0, 1, 0, 0)" xlink:href="#linear-gradient-2"/><linearGradient id="linear-gradient-22" x1="352.33" y1="155.63" x2="352.33" y2="156.32" gradientTransform="matrix(1, 0, 0, 1, 0, 0)" xlink:href="#linear-gradient-2"/><linearGradient id="linear-gradient-23" x1="358.47" y1="156.56" x2="358.47" y2="157.18" gradientTransform="matrix(1, 0, 0, 1, 0, 0)" xlink:href="#linear-gradient-2"/><linearGradient id="linear-gradient-24" x1="366.81" y1="157.56" x2="366.81" y2="164.27" gradientTransform="matrix(1, 0, 0, 1, 0, 0)" xlink:href="#linear-gradient-2"/><linearGradient id="linear-gradient-25" x1="374.49" y1="165.37" x2="374.49" y2="167.18" gradientTransform="matrix(1, 0, 0, 1, 0, 0)" xlink:href="#linear-gradient-2"/><linearGradient id="linear-gradient-26" x1="381.39" y1="168.5" x2="381.39" y2="186.34" gradientTransform="matrix(1, 0, 0, 1, 0, 0)" xlink:href="#linear-gradient-2"/><linearGradient id="linear-gradient-27" x1="398.75" y1="202.37" x2="398.75" y2="220.19" gradientTransform="matrix(1, 0, 0, 1, 0, 0)" xlink:href="#linear-gradient-2"/><linearGradient id="linear-gradient-28" x1="406.14" y1="222.12" x2="406.14" y2="229.61" gradientTransform="matrix(1, 0, 0, 1, 0, 0)" xlink:href="#linear-gradient-2"/><linearGradient id="linear-gradient-29" x1="427.98" y1="229.62" x2="427.98" y2="247.08" gradientTransform="matrix(1, 0, 0, 1, 0, 0)" xlink:href="#linear-gradient-2"/></defs><g id="Layer_2" data-name="Layer 2"><g id="asset"><g id="construction-safety-glasses"><path d="M27.09,59.7v81.91c0,4.18,10.72,28.39,42.47,54.37,30.37,24.85,83.75,53.89,167.29,53.89,3,0,6,0,9-.11,20.85-.51,27.48-15.77,37.4-42.69,3.65-9.9,7.42-20.14,12.7-30.2,11.32-21.58,31.24-21.45,44.39-21.37H343c16,0,29.15,1.7,39.59,23,10,20.5,21.53,43.85,31.06,61.58,2.91,5.41,5.36,7.75,33.14,6.7,29.83-1.13,66.29-18.06,100-46.45,30.28-25.47,47.45-51.07,47.75-59,.41-11-3.34-64.08-5.74-95.32-29-7.39-150.72-35.69-287.71-27.3C165.32,27,55.45,52.62,27.09,59.7Z" opacity="0.7" fill="url(#linear-gradient)"/><path d="M508.64,42.87c-7-18.53-177.53-19.6-294.91-16.28C119.86,37.65,49,54.23,27.08,59.71v81.91C27.11,145.8,37.8,170,69.55,196c30.37,24.85,83.75,53.89,167.29,53.89,3,0,6,0,9-.11,20.85-.51,27.48-15.77,37.4-42.69,3.65-9.9,7.42-20.14,12.7-30.2,11.32-21.58,31.24-21.45,44.39-21.37H343c16.05,0,29.15,1.7,39.59,23,10,20.5,21.53,43.85,31.06,61.58,2.91,5.41,5.36,7.75,33.14,6.7,20.74-.78,44.69-9.22,68.71-23.82-2.33-12.69-16-15.07-16-15.07S527.89,93.94,508.64,42.87Z" opacity="0.7" fill="url(#linear-gradient-2)"/><g id="asset-2" data-name="asset"><path d="M608.81,38.92l-.45-5.8-6.51-1.85c-1.43-.41-38-3.05-92.61-11.65-50.32-7.93-175.88-16.18-259.83-11C89.64,18.36,15,44.64,13.72,45L6.59,46.91v94.7c0,9,8.57,22.5,12.25,27.9,6.34,9.3,17.72,23.53,36,38.56,33.15,27.29,91.29,59.17,182,59.17,3.17,0,6.4,0,9.65-.14,36.48-.9,46.59-28.34,56.37-54.88,3.47-9.43,7.07-19.18,11.86-28.32,5.87-11.18,13.26-11.13,25.51-11.05H343c10.95,0,14.63,0,20.66,12.31,10.56,21.57,21.68,44.14,31.34,62.12,9.24,17.19,26.87,17.84,52.71,16.86,47.72-1.8,91.64-33,113.57-51.47,26.24-22.08,53.15-53.49,53.79-70.81C615.61,126.4,609.09,42.48,608.81,38.92ZM594.55,141.34c-.3,8-17.47,33.56-47.75,59A253.89,253.89,0,0,1,515.46,223c-1.5.91-3,1.8-4.51,2.66-.75.44-1.5.86-2.24,1.28l-2.15,1.19q-3.49,1.91-7,3.62c-.69.35-1.39.69-2.08,1l-2.2,1L492.7,235l-1.86.81-1.9.81A147,147,0,0,1,467,243.9c-1,.23-1.91.44-2.86.65l-1.5.31c-1,.2-2,.39-3,.56-.64.12-1.27.22-1.91.32l-2.48.35-1.45.18q-3,.36-6,.5l-1.13,0c-27.78,1.05-30.23-1.29-33.14-6.7-1.79-3.32-3.64-6.84-5.55-10.5h0l-3.86-7.49-1-1.93c-2.94-5.79-6-11.79-9-17.82,0,0,0,0,0,0q-2-4-4-8c-1.33-2.68-2.64-5.35-3.92-8l-3.82-7.8a55.92,55.92,0,0,0-6.16-10q-.52-.69-1.08-1.32c-.55-.65-1.1-1.25-1.66-1.81-.37-.38-.74-.74-1.12-1.1a29.21,29.21,0,0,0-11.45-6.71l-1.3-.38c-.87-.24-1.74-.45-2.63-.62l-1.35-.24a57.77,57.77,0,0,0-7-.69h0c-1.91-.09-3.87-.12-5.87-.12h-2.63c-6.61,0-14.92-.09-23,2.61s-15.77,8-21.41,18.77c-.66,1.26-1.3,2.52-1.91,3.78s-1.2,2.52-1.78,3.78c-.29.64-.58,1.27-.86,1.91-.84,1.89-1.63,3.79-2.4,5.68-2.07,5.06-3.92,10.1-5.75,15.05-2.17,5.89-4.18,11.22-6.22,16-.58,1.35-1.17,2.65-1.75,3.91s-1.2,2.47-1.81,3.63-1.22,2.26-1.85,3.32a34.81,34.81,0,0,1-9.86,11.17c-.42.29-.85.56-1.29.83l-.69.4c-.45.24-.91.48-1.38.71a0,0,0,0,1,0,0q-.7.33-1.44.63c-.25.11-.5.2-.76.3a32.38,32.38,0,0,1-10.33,1.81c-3,.07-6,.11-9,.11-83.54,0-136.92-29-167.29-53.89a178.8,178.8,0,0,1-28.19-28.54c-.27-.34-.54-.68-.78-1-.76-1-1.49-2-2.19-3,0,0,0,0,0,0l-1.34-1.89s0,0,0,0c-7.1-10.3-10-17.78-10-19.94V59.71l2.13-.54h.06c3-.74,6.7-1.63,11-2.65l1.11-.26c2.7-.62,5.63-1.3,8.8-2,4.29-1,9-2,14.09-3.09,8.33-1.77,17.72-3.7,28.05-5.71q12.53-2.41,26.83-5a.35.35,0,0,0,.14,0l10.33-1.78,7.21-1.21.77-.13,10.39-1.67c3-.47,6-.95,9.11-1.42l2.43-.37q9.78-1.47,20.07-2.91,8.15-1.12,16.6-2.22l.3,0,4.12-.52,8.67-1.07C238,23.65,268.8,20.7,301.1,18.72c137-8.39,258.75,19.91,287.71,27.3C591.21,77.26,595,130.37,594.55,141.34Z" fill="#cc5444"/><path d="M27.09,59.7l2.13-.53-2.13.54Z" opacity="0.7" fill="url(#linear-gradient-3)"/><path d="M29.28,59.16c3-.74,6.7-1.64,11-2.65C36,57.53,32.28,58.42,29.28,59.16Z" opacity="0.7" fill="url(#linear-gradient-4)"/><path d="M41.44,56.25c2.7-.63,5.63-1.31,8.8-2C47.07,55,44.14,55.63,41.44,56.25Z" opacity="0.7" fill="url(#linear-gradient-5)"/><path d="M50.24,54.24c4.29-1,9-2,14.09-3.09C59.23,52.24,54.53,53.28,50.24,54.24Z" opacity="0.7" fill="url(#linear-gradient-6)"/><path d="M64.33,51.15c8.33-1.79,17.72-3.71,28.05-5.71C82.05,47.45,72.66,49.38,64.33,51.15Z" opacity="0.7" fill="url(#linear-gradient-7)"/><path d="M92.38,45.44c8.34-1.62,17.31-3.29,26.83-5Q104.93,43,92.38,45.44Z" opacity="0.7" fill="url(#linear-gradient-8)"/><path d="M119.35,40.45q5.07-.89,10.33-1.78Z" opacity="0.7" fill="url(#linear-gradient-9)"/><path d="M129.68,38.67c2.37-.41,4.78-.81,7.21-1.21Z" opacity="0.7" fill="url(#linear-gradient-10)"/><path d="M137.66,37.33q5.1-.84,10.39-1.67Z" opacity="0.7" fill="url(#linear-gradient-11)"/><path d="M148.05,35.66c3-.48,6-1,9.11-1.42C154.08,34.71,151.05,35.19,148.05,35.66Z" opacity="0.7" fill="url(#linear-gradient-12)"/><path d="M159.59,33.87q9.78-1.48,20.07-2.91Q169.39,32.4,159.59,33.87Z" opacity="0.7" fill="url(#linear-gradient-13)"/><path d="M179.66,31q8.15-1.14,16.6-2.22Q187.82,29.84,179.66,31Z" opacity="0.7" fill="url(#linear-gradient-14)"/><path d="M271.61,233.9c.63-1.06,1.25-2.16,1.85-3.32C272.86,231.74,272.25,232.84,271.61,233.9Z" opacity="0.7" fill="url(#linear-gradient-15)"/><path d="M275.27,227c.58-1.26,1.17-2.56,1.75-3.91C276.44,224.39,275.86,225.7,275.27,227Z" opacity="0.7" fill="url(#linear-gradient-16)"/><path d="M289,192c.77-1.89,1.56-3.79,2.4-5.68C290.56,188.24,289.76,190.14,289,192Z" opacity="0.7" fill="url(#linear-gradient-17)"/><path d="M37.06,161.55c-7.12-10.3-10-17.78-10-19.93V59.71h0v81.9C27.11,143.77,30,151.25,37.06,161.55Z" opacity="0.7" fill="url(#linear-gradient-18)"/><path d="M38.4,163.46c.7,1,1.43,1.95,2.19,3C39.81,165.41,39.09,164.43,38.4,163.46Z" opacity="0.7" fill="url(#linear-gradient-19)"/><path d="M245.85,249.76A32.38,32.38,0,0,0,256.18,248a31.85,31.85,0,0,1-10.34,1.82c-3,.07-6,.11-9,.11-83.54,0-136.92-29-167.29-53.89a177.83,177.83,0,0,1-28.18-28.55A178.8,178.8,0,0,0,69.56,196c30.37,24.85,83.75,53.89,167.29,53.89C239.82,249.87,242.81,249.83,245.85,249.76Z" opacity="0.7" fill="url(#linear-gradient-20)"/><path d="M343,155.51c2,0,4,0,5.87.12-1.91-.08-3.87-.11-5.88-.11h-2.63c-6.6,0-14.92-.09-23,2.6,8.07-2.7,16.38-2.65,23-2.61Z" opacity="0.7" fill="url(#linear-gradient-21)"/><path d="M348.85,155.63a57.77,57.77,0,0,1,7,.69A59.87,59.87,0,0,0,348.85,155.63Z" opacity="0.7" fill="url(#linear-gradient-22)"/><path d="M357.16,156.56c.89.17,1.76.38,2.63.62C358.92,157,358.05,156.74,357.16,156.56Z" opacity="0.7" fill="url(#linear-gradient-23)"/><path d="M361.09,157.56a29.21,29.21,0,0,1,11.45,6.71A29.71,29.71,0,0,0,361.09,157.56Z" opacity="0.7" fill="url(#linear-gradient-24)"/><path d="M373.66,165.37c.56.56,1.11,1.16,1.66,1.81C374.77,166.54,374.22,165.94,373.66,165.37Z" opacity="0.7" fill="url(#linear-gradient-25)"/><path d="M382.56,178.54l3.82,7.8q-2-3.94-3.83-7.79a57,57,0,0,0-6.15-10.05A55.92,55.92,0,0,1,382.56,178.54Z" opacity="0.7" fill="url(#linear-gradient-26)"/><path d="M394.28,202.37c3,6,6,12,9,17.82C400.27,214.4,397.27,208.4,394.28,202.37Z" opacity="0.7" fill="url(#linear-gradient-27)"/><path d="M408.07,229.61q-1.9-3.66-3.86-7.49Z" opacity="0.7" fill="url(#linear-gradient-28)"/><path d="M446.76,246.82l1.13,0-1.14.06c-27.78,1-30.23-1.29-33.14-6.7-1.78-3.33-3.64-6.85-5.54-10.51,1.91,3.66,3.76,7.18,5.55,10.5C416.53,245.53,419,247.87,446.76,246.82Z" opacity="0.7" fill="url(#linear-gradient-29)"/><path d="M611.77,38.24a7.87,7.87,0,0,0-5.95-7.64C580.24,24.17,474.29,0,327.61,0,158.45,0,0,36.08,0,36.08L1.45,79.77s153.81-38,325.29-38,285,33.13,285,33.13V38.24Z" fill="#625f5b"/><path d="M101,77.32c228.84-43.53,419.72-4.47,419.72-4.47S333.14,63.92,101,77.32Z" fill="#d5d3d0" opacity="0.7"/></g></g></g></g></svg>