<svg width="32" height="32" viewBox="0 0 32 32" fill="none" xmlns="http://www.w3.org/2000/svg">
<path opacity="0.3" d="M25.294 22.0489C28.7971 22.0489 31.6369 19.2091 31.6369 15.706C31.6369 12.2029 28.7971 9.36304 25.294 9.36304C21.7909 9.36304 18.951 12.2029 18.951 15.706C18.951 19.2091 21.7909 22.0489 25.294 22.0489Z" fill="#9FE4EB"/>
<path opacity="0.3" d="M6.70599 22.0489C10.2091 22.0489 13.049 19.2091 13.049 15.706C13.049 12.2029 10.2091 9.36304 6.70599 9.36304C3.20288 9.36304 0.363037 12.2029 0.363037 15.706C0.363037 19.2091 3.20288 22.0489 6.70599 22.0489Z" fill="#9FE4EB"/>
<path d="M19.3141 15.706H18.588C18.588 15.3222 18.0953 15.0473 17.7997 14.9176C17.2551 14.6791 16.5186 14.5442 15.777 14.5442C14.5997 14.5442 13.412 14.9021 13.412 15.7008H12.6859C12.6859 15.0732 13.0541 14.5442 13.7284 14.2175C14.2574 13.9581 14.9835 13.8181 15.777 13.8181C17.4937 13.8233 19.3141 14.482 19.3141 15.706Z" fill="#F7B548"/>
<path d="M25.294 22.412C21.5961 22.412 18.588 19.4039 18.588 15.706C18.588 12.0081 21.5961 9 25.294 9C28.9919 9 32 12.0081 32 15.706C32 19.4039 28.9919 22.412 25.294 22.412ZM25.294 9.72609C21.9955 9.72609 19.3141 12.4075 19.3141 15.706C19.3141 19.0045 21.9955 21.6859 25.294 21.6859C28.5926 21.6859 31.2739 19.0045 31.2739 15.706C31.2739 12.4075 28.5926 9.72609 25.294 9.72609Z" fill="#F7B548"/>
<path d="M6.706 22.412C3.0081 22.412 0 19.4039 0 15.706C0 12.0081 3.0081 9 6.706 9C10.4039 9 13.412 12.0081 13.412 15.706C13.412 19.4039 10.4039 22.412 6.706 22.412ZM6.706 9.72609C3.40746 9.72609 0.726094 12.4075 0.726094 15.706C0.726094 19.0045 3.40746 21.6859 6.706 21.6859C10.0045 21.6859 12.6859 19.0045 12.6859 15.706C12.6859 12.4075 10.0045 9.72609 6.706 9.72609Z" fill="#F7B548"/>
</svg>
