<?xml version="1.0" encoding="utf-8"?>
<!-- Generator: Adobe Illustrator 24.2.0, SVG Export Plug-In . SVG Version: 6.00 Build 0)  -->
<svg version="1.1" id="asset" xmlns="http://www.w3.org/2000/svg" xmlns:xlink="http://www.w3.org/1999/xlink" x="0px" y="0px"
	 viewBox="0 0 2000 2000" enable-background="new 0 0 2000 2000" xml:space="preserve">
<g>
	<path fill="#9FE4EB" d="M1117.5,845.4c1.7-8.9,5-8.9,6.9-8.1c5.8,2.3,4.8,21.9-0.1,21.9C1120.4,859.2,1115.5,856.3,1117.5,845.4z"
		/>
	<path fill="#9FE4EB" d="M1188.8,845.4c-1.7-8.9-5-8.9-6.9-8.1c-5.8,2.3-4.8,21.9,0.1,21.9C1185.9,859.2,1190.8,856.3,1188.8,845.4z
		"/>
	<g>
		<defs>
			<ellipse id="SVGID_1_" cx="1020.1" cy="851.4" rx="102.4" ry="82"/>
		</defs>
		<clipPath id="SVGID_2_">
			<use xlink:href="#SVGID_1_"  overflow="visible"/>
		</clipPath>
		<g clip-path="url(#SVGID_2_)">
			<g>
				<defs>
					<rect id="SVGID_3_" x="912.6" y="764.4" width="214.8" height="174.1"/>
				</defs>
				<clipPath id="SVGID_4_">
					<use xlink:href="#SVGID_3_"  overflow="visible"/>
				</clipPath>
				<g clip-path="url(#SVGID_4_)">
					<g>
						<defs>
							<rect id="SVGID_5_" x="912.6" y="764.4" width="214.8" height="174.1"/>
						</defs>
						<clipPath id="SVGID_6_">
							<use xlink:href="#SVGID_5_"  overflow="visible"/>
						</clipPath>
						<g clip-path="url(#SVGID_6_)">
							
								<image overflow="visible" enable-background="new    " width="449" height="364" xlink:href="E4BA757FB0BC9839.png"  transform="matrix(0.48 0 0 0.48 912.4 764.19)">
							</image>
						</g>
					</g>
				</g>
			</g>
		</g>
	</g>
	
		<linearGradient id="SVGID_7_" gradientUnits="userSpaceOnUse" x1="1090.8912" y1="1149.9507" x2="1113.4265" y2="1149.9507" gradientTransform="matrix(1 0 0 -1 0 2000)">
		<stop  offset="0.35" style="stop-color:#33312D"/>
		<stop  offset="1" style="stop-color:#000000"/>
	</linearGradient>
	<path fill="url(#SVGID_7_)" d="M1110.6,846.3c-6.1-2-13.2-3.6-16.6-1.6s-5.4,8.7,1.6,10.3s12.8,1.8,16.3,0
		S1112.2,846.9,1110.6,846.3z"/>
	<g>
		<defs>
			<ellipse id="SVGID_8_" cx="1286.4" cy="851.4" rx="102.4" ry="82"/>
		</defs>
		<clipPath id="SVGID_9_">
			<use xlink:href="#SVGID_8_"  overflow="visible"/>
		</clipPath>
		<g clip-path="url(#SVGID_9_)">
			<g>
				<defs>
					<rect id="SVGID_10_" x="1179" y="764.4" width="214.8" height="174.1"/>
				</defs>
				<clipPath id="SVGID_11_">
					<use xlink:href="#SVGID_10_"  overflow="visible"/>
				</clipPath>
				<g clip-path="url(#SVGID_11_)">
					<g>
						<defs>
							<rect id="SVGID_12_" x="1179" y="764.4" width="214.8" height="174.1"/>
						</defs>
						<clipPath id="SVGID_13_">
							<use xlink:href="#SVGID_12_"  overflow="visible"/>
						</clipPath>
						<g clip-path="url(#SVGID_13_)">
							
								<image overflow="visible" enable-background="new    " width="448" height="364" xlink:href="E4BA757FB0BC983B.png"  transform="matrix(0.48 0 0 0.48 1178.8 764.19)">
							</image>
						</g>
					</g>
				</g>
			</g>
		</g>
	</g>
	<path fill="#33312D" d="M1198,847.2c0,0-21.4-12.4-44.4-12.4c-19.4,0-36,7.8-42.1,11c-1.8,0.9-3.6,2.1-3.6,4.2
		c-0.1,1.8,0.7,3.5,2.1,4.7c2.9,2,19.4-9.8,43.5-9.8c25.8,0,41.5,12.1,44.4,10.1S1198,847.2,1198,847.2z"/>
</g>
</svg>
