<?xml version="1.0" encoding="utf-8"?>
<!-- Generator: Adobe Illustrator 24.2.0, SVG Export Plug-In . SVG Version: 6.00 Build 0)  -->
<svg version="1.1" id="asset" xmlns="http://www.w3.org/2000/svg" xmlns:xlink="http://www.w3.org/1999/xlink" x="0px" y="0px"
	 viewBox="0 0 2000 2000" enable-background="new 0 0 2000 2000" xml:space="preserve">
<g>
	<path opacity="0.8" fill="#9FE4EB" enable-background="new    " d="M1423.7,827.5c0,80.8-4.9,153-109.6,153H932.3
		c-91.8,0-109.6-72.2-109.6-153c0-85.8,143.5-94.4,330.9-94.4S1423.7,741.7,1423.7,827.5z"/>
	<path fill="#22B5D6" d="M1423.7,827.5c0,4.3,0,8.6-0.1,12.9c-2.6-82.1-85.7-90.5-270.1-90.5c-184,0-325.7,8.3-330.7,89.8
		c-0.1-4.1-0.2-8.1-0.2-12.2c0-85.8,143.5-94.4,330.9-94.4S1423.7,741.7,1423.7,827.5z"/>
	<path opacity="0.5" fill="#E7F8FA" enable-background="new    " d="M1302.4,764c-19.6-3-35.8,0.8,8.6,14.3
		c83.5,25.3,82.5,86.8,96.4,98.5c3.6,3,10.8-42.7-3-63.9C1384.1,781.5,1335.1,769,1302.4,764z"/>
</g>
</svg>
