<?xml version="1.0" encoding="utf-8"?>
<!-- Generator: Adobe Illustrator 24.2.0, SVG Export Plug-In . SVG Version: 6.00 Build 0)  -->
<svg version="1.1" id="asset" xmlns="http://www.w3.org/2000/svg" xmlns:xlink="http://www.w3.org/1999/xlink" x="0px" y="0px"
	 viewBox="0 0 2000 2000" enable-background="new 0 0 2000 2000" xml:space="preserve">
<g>
	<path fill="#EA7B66" d="M1476.4,725.5c-63.7-6.2-145.2-13.2-237,33c-78.4,39.4-88,34.2-88,34.2c-33.3,0-140.2-75.5-256-73.3
		S788.7,739,790.6,756.1s33.6,158.3,117.3,202.3s166.5,9.5,192.8-47.7s29.9-77.3,48.9-77.9s22.3,10.1,37.3,44.3
		S1252.6,985,1327.4,985s149.9-94,174.6-167.3S1539.4,731.6,1476.4,725.5z M1108.1,856.6c-3.1,28.7-52,110.6-135.4,111.2
		S852.6,865.2,850.2,811.4s48.9-66,90.8-66s129.7,26.2,154.2,50.7C1108.7,809.6,1111.1,827.9,1108.1,856.6z M1455.3,811.4
		c-2.4,53.8-39,157.1-122.5,156.4s-132.3-82.5-135.4-111.2s-0.6-47,12.8-60.5c24.6-24.6,112.3-50.7,154.2-50.7
		S1457.8,757.6,1455.3,811.4L1455.3,811.4z"/>
	<path opacity="0.3" fill="#B6E3DE" enable-background="new    " d="M1108.1,856.6c-3.1,28.7-52,110.6-135.4,111.2
		S852.6,865.2,850.2,811.4s48.9-66,90.8-66s129.7,26.2,154.2,50.7C1108.7,809.6,1111.1,827.9,1108.1,856.6z"/>
	<path opacity="0.3" fill="#B6E3DE" enable-background="new    " d="M1455.3,811.4c-2.4,53.8-39,157.1-122.5,156.4
		s-132.3-82.5-135.4-111.2s-0.6-47,12.8-60.5c24.6-24.6,112.3-50.7,154.2-50.7S1457.8,757.6,1455.3,811.4z"/>
	<circle fill="#92D5CD" cx="814.5" cy="750.9" r="10.7"/>
	<path fill="#E7F6F4" d="M822.7,750.2c-2.6-2.6-9-4.9-12.2-4.7s6-1.8,8.7,0C820.8,746.6,822,748.2,822.7,750.2z"/>
	<circle fill="#92D5CD" cx="825.3" cy="782.9" r="10.7"/>
	<path fill="#E7F6F4" d="M833.4,782.2c-2.6-2.6-9-4.9-12.2-4.7s6-1.8,8.7,0C831.5,778.6,832.8,780.3,833.4,782.2z"/>
	<circle fill="#92D5CD" cx="846.7" cy="753.8" r="10.7"/>
	<path fill="#E7F6F4" d="M854.9,753.1c-2.6-2.6-9-4.9-12.2-4.7s6-1.8,8.7,0C853,749.5,854.3,751.1,854.9,753.1z"/>
	<circle fill="#92D5CD" cx="1467.5" cy="750.9" r="10.7"/>
	<path fill="#E7F6F4" d="M1475.7,750.2c-2.6-2.6-9-4.9-12.2-4.7s6-1.8,8.7,0C1473.8,746.6,1475,748.2,1475.7,750.2z"/>
	<circle fill="#92D5CD" cx="1478.3" cy="782.9" r="10.7"/>
	<path fill="#E7F6F4" d="M1486.4,782.2c-2.6-2.6-9-4.9-12.2-4.7s6-1.8,8.7,0C1484.5,778.6,1485.8,780.3,1486.4,782.2z"/>
	<circle fill="#92D5CD" cx="1499.7" cy="753.8" r="10.7"/>
	<path fill="#E7F6F4" d="M1507.8,753.1c-2.6-2.6-9-4.9-12.2-4.7s6-1.8,8.7,0C1506,749.5,1507.2,751.1,1507.8,753.1z"/>
</g>
</svg>
