<?xml version="1.0" encoding="utf-8"?>
<!-- Generator: Adobe Illustrator 24.2.0, SVG Export Plug-In . SVG Version: 6.00 Build 0)  -->
<svg version="1.1" id="Layer_1" xmlns="http://www.w3.org/2000/svg" xmlns:xlink="http://www.w3.org/1999/xlink" x="0px" y="0px"
	 viewBox="0 0 2000 2000" enable-background="new 0 0 2000 2000" xml:space="preserve">
<g>
	<g id="asset">
		<circle opacity="0.3" fill="#9FE4EB" enable-background="new    " cx="1328.4" cy="851.2" r="122.3"/>
		
			<ellipse transform="matrix(0.7071 -0.7071 0.7071 0.7071 -317.7528 935.2167)" opacity="0.3" fill="#9FE4EB" enable-background="new    " cx="970" cy="851.2" rx="122.3" ry="122.3"/>
		<path fill="#F7B548" d="M1213.1,851.2h-14c0-7.4-9.5-12.7-15.2-15.2c-10.5-4.6-24.7-7.2-39-7.2c-22.7,0-45.6,6.9-45.6,22.3h-14
			c0-12.1,7.1-22.3,20.1-28.6c10.2-5,24.2-7.7,39.5-7.7C1178,814.8,1213.1,827.6,1213.1,851.2z"/>
		<path fill="#F7B548" d="M1328.4,980.5c-71.4,0-129.3-57.9-129.3-129.3s57.9-129.3,129.3-129.3s129.3,57.9,129.3,129.3v0
			C1457.7,922.6,1399.8,980.4,1328.4,980.5z M1328.4,735.9c-63.7,0-115.3,51.6-115.3,115.3s51.6,115.3,115.3,115.3
			s115.3-51.6,115.3-115.3v0C1443.7,787.5,1392.1,735.9,1328.4,735.9z"/>
		<path fill="#F7B548" d="M970,980.5c-71.4,0-129.3-57.9-129.3-129.3c0-71.4,57.9-129.3,129.3-129.3c71.4,0,129.3,57.9,129.3,129.3
			C1099.2,922.6,1041.4,980.4,970,980.5z M970,735.9c-63.7,0-115.3,51.6-115.3,115.3S906.3,966.5,970,966.5s115.3-51.6,115.3-115.3
			C1085.2,787.5,1033.7,735.9,970,735.9z"/>
	</g>
</g>
</svg>
