<?xml version="1.0" encoding="utf-8"?>
<!-- Generator: Adobe Illustrator 24.2.0, SVG Export Plug-In . SVG Version: 6.00 Build 0)  -->
<svg version="1.1" id="asset" xmlns="http://www.w3.org/2000/svg" xmlns:xlink="http://www.w3.org/1999/xlink" x="0px" y="0px"
	 viewBox="0 0 2000 2000" enable-background="new 0 0 2000 2000" xml:space="preserve">
<g>
	
		<linearGradient id="SVGID_1_" gradientUnits="userSpaceOnUse" x1="796.81" y1="1133.1936" x2="1506.46" y2="1133.1936" gradientTransform="matrix(1 0 0 -1 0 2000)">
		<stop  offset="0" style="stop-color:#DF6551"/>
		<stop  offset="4.000000e-02" style="stop-color:#E06952"/>
		<stop  offset="9.000000e-02" style="stop-color:#E47653"/>
		<stop  offset="0.13" style="stop-color:#EA8C56"/>
		<stop  offset="0.18" style="stop-color:#F3AA5A"/>
		<stop  offset="0.21" style="stop-color:#F9BE5C"/>
		<stop  offset="0.25" style="stop-color:#E1C273"/>
		<stop  offset="0.37" style="stop-color:#A4CDAE"/>
		<stop  offset="0.46" style="stop-color:#7ED3D2"/>
		<stop  offset="0.51" style="stop-color:#70D6E0"/>
		<stop  offset="0.82" style="stop-color:#F7B548"/>
		<stop  offset="0.82" style="stop-color:#F7B448"/>
		<stop  offset="0.87" style="stop-color:#EE934D"/>
		<stop  offset="0.92" style="stop-color:#E77B51"/>
		<stop  offset="0.96" style="stop-color:#E36D53"/>
		<stop  offset="1" style="stop-color:#E26854"/>
	</linearGradient>
	<path fill="url(#SVGID_1_)" d="M1356.9,727.6c-67.4-1.1-120.3,30.3-145,40.5s-39.4,7.3-60.3,7.3s-35.5,2.9-60.3-7.3
		s-77.6-41.6-145-40.5c-50.4,0.8-108.9,27-135.3,40.2c-8.7,4.4-14.2,13.3-14.2,23V822c0,6.3,2.3,12.3,6.5,17
		c6.9,7.9,16.8,21,16.1,31.3c-1.1,15.7,19,121.4,86.5,128.2s154.7,23.6,178-34.8s39.3-131.4,67.8-131.4s44.5,73,67.8,131.4
		s110.5,41.6,178,34.8s87.6-112.4,86.5-128.1c-0.7-10.3,9.1-23.5,16-31.3c4.2-4.7,6.5-10.8,6.5-17v-31.2c0-9.7-5.5-18.6-14.2-23
		C1465.8,754.6,1407.3,728.4,1356.9,727.6z M1074,920.9c-19.6,60.7-82.7,59.6-141.2,56.3s-82.1-92.2-79-144.9s63.3-67.6,120.4-60.8
		c0,0,32.8,2.2,81.2,20.2S1093.6,860.3,1074,920.9z M1370.4,977.2c-58.5,3.4-121.6,4.4-141.2-56.3s-29.7-111.3,18.6-129.2
		s81.1-20.2,81.1-20.2c57.1-6.7,117.3,8.1,120.4,60.8S1428.9,973.8,1370.4,977.2L1370.4,977.2z"/>
	
		<linearGradient id="SVGID_2_" gradientUnits="userSpaceOnUse" x1="1212.9597" y1="1125.8181" x2="1449.6467" y2="1125.8181" gradientTransform="matrix(1 0 0 -1 0 2000)">
		<stop  offset="0" style="stop-color:#9FE4EB;stop-opacity:0.8"/>
		<stop  offset="1" style="stop-color:#70D6E0;stop-opacity:0.3"/>
	</linearGradient>
	<path fill="url(#SVGID_2_)" d="M1370.4,977.2c-58.5,3.4-121.6,4.4-141.2-56.3s-29.7-111.3,18.6-129.2s81.2-20.2,81.2-20.2
		c57.1-6.7,117.3,8.1,120.4,60.8S1428.9,973.8,1370.4,977.2z"/>
	
		<linearGradient id="SVGID_3_" gradientUnits="userSpaceOnUse" x1="853.5551" y1="1125.8175" x2="1090.2643" y2="1125.8175" gradientTransform="matrix(1 0 0 -1 0 2000)">
		<stop  offset="0" style="stop-color:#9FE4EB;stop-opacity:0.8"/>
		<stop  offset="1" style="stop-color:#70D6E0;stop-opacity:0.3"/>
	</linearGradient>
	<path fill="url(#SVGID_3_)" d="M1074,920.9c-19.6,60.7-82.7,59.6-141.2,56.3s-82.1-92.2-79-144.9s63.3-67.6,120.4-60.8
		c0,0,32.8,2.2,81.2,20.2S1093.6,860.3,1074,920.9z"/>
</g>
</svg>
