<svg xmlns="http://www.w3.org/2000/svg" viewBox="0 0 601.06 247.41"><g id="Layer_2" data-name="Layer 2"><g id="asset"><g id="future-glasses"><path d="M601.06,94.44c0,80.81-4.92,153-109.63,153H109.63C17.85,247.41,0,175.25,0,94.44,0,8.65,143.55,0,330.89,0S601.06,8.65,601.06,94.44Z" fill="#9fe4eb" opacity="0.8"/><path d="M601.06,94.44c0,4.32,0,8.61-.06,12.86-2.55-82.09-85.7-90.47-270.11-90.47C146.94,16.83,5.22,25.17.15,106.68Q0,100.6,0,94.44C0,8.65,143.55,0,330.89,0S601.06,8.65,601.06,94.44Z" fill="#22b5d6"/><path d="M479.75,30.93c-19.62-3-35.8.84,8.64,14.29,83.47,25.28,82.47,86.8,96.44,98.52,3.62,3,10.8-42.74-3-63.93C561.41,48.43,512.46,35.92,479.75,30.93Z" fill="#e7f8fa" opacity="0.5"/></g></g></g></svg>