<?xml version="1.0" encoding="utf-8"?>
<!-- Generator: Adobe Illustrator 26.0.0, SVG Export Plug-In . SVG Version: 6.00 Build 0)  -->
<svg version="1.1" id="asset" xmlns="http://www.w3.org/2000/svg" xmlns:xlink="http://www.w3.org/1999/xlink" x="0px" y="0px"
	 viewBox="0 0 214.74 150" style="enable-background:new 0 0 214.74 150;" xml:space="preserve">
<style type="text/css">
	.st0{fill:#9DCFFF;fill-opacity:0.7;}
	.st1{fill:#A20381;}
	.st2{fill:#D600AA;}
	.st3{fill:url(#SVGID_1_);}
	.st4{fill:url(#SVGID_00000081629867177012766780000002053488243797158567_);}
	.st5{fill:#FF476C;}
	.st6{fill:url(#SVGID_00000122705124613239905800000006889590813616509344_);}
	.st7{fill:url(#SVGID_00000048475679307220825450000012532627795940392635_);}
	.st8{fill:#FF5860;}
	.st9{fill:#691AE7;}
</style>
<g>
	<path class="st0" d="M157.88,110.33c16.89,0,30.58-13.69,30.58-30.58s-13.69-30.58-30.58-30.58S127.3,62.86,127.3,79.75
		S140.99,110.33,157.88,110.33z"/>
	<path class="st0" d="M60.55,110.33c16.89,0,30.58-13.69,30.58-30.58S77.44,49.17,60.55,49.17c-16.89,0-30.58,13.69-30.58,30.58
		S43.66,110.33,60.55,110.33z"/>
	<path class="st1" d="M154.17,39.17c-9.28,0-18.27,3.18-25.49,9c-7.22,5.82-12.22,13.94-14.19,23.01
		c-4.83-1.66-11.45-2.21-17.68,0.25c-1.91-9.12-6.9-17.3-14.14-23.18c-7.24-5.87-16.27-9.08-25.59-9.08
		c-10.76,0-21.08,4.28-28.69,11.89S16.51,68.99,16.51,79.75s4.28,21.08,11.89,28.69c7.61,7.61,17.93,11.89,28.69,11.89
		c10.77,0,21.08-4.28,28.7-11.89c7.61-7.61,11.89-17.93,11.89-28.7c0-0.24,0-0.48,0-0.72c5.94-3.31,12.74-1.86,15.94-0.42
		c0,0.38-0.02,0.76-0.02,1.15c0,10.76,4.28,21.08,11.89,28.7s17.93,11.89,28.7,11.89c10.76,0,21.08-4.28,28.69-11.89
		c7.61-7.61,11.89-17.93,11.89-28.69c0-5.33-1.05-10.61-3.09-15.53c-2.04-4.92-5.03-9.4-8.8-13.17c-3.77-3.77-8.25-6.76-13.17-8.8
		C164.78,40.21,159.51,39.16,154.17,39.17z M57.1,103.36c-3.1,0-6.17-0.61-9.04-1.8s-5.47-2.93-7.66-5.12
		c-2.19-2.19-3.93-4.8-5.12-7.66c-1.19-2.86-1.8-5.93-1.8-9.04c0-6.26,2.49-12.27,6.91-16.69c4.43-4.43,10.43-6.91,16.69-6.91
		c3.1,0,6.17,0.61,9.04,1.8c2.86,1.19,5.47,2.93,7.66,5.12s3.93,4.8,5.12,7.66s1.8,5.93,1.8,9.04c0,3.1-0.61,6.17-1.8,9.04
		c-1.19,2.86-2.93,5.47-5.12,7.66s-4.8,3.93-7.66,5.12C63.27,102.75,60.2,103.36,57.1,103.36z M154.17,103.36
		c-6.26,0-12.27-2.49-16.7-6.91c-4.43-4.43-6.91-10.43-6.91-16.7c0-6.26,2.49-12.27,6.92-16.69c4.43-4.43,10.43-6.91,16.7-6.91
		s12.27,2.49,16.69,6.91c4.43,4.43,6.91,10.43,6.91,16.69c0,3.1-0.61,6.17-1.8,9.04c-1.19,2.86-2.93,5.47-5.12,7.66
		s-4.8,3.93-7.66,5.12C160.35,102.75,157.28,103.36,154.17,103.36z"/>
	<path class="st2" d="M157.63,39.17c-9.28,0-18.27,3.18-25.49,9c-7.22,5.82-12.22,13.94-14.18,23.01
		c-4.83-1.66-11.45-2.21-17.68,0.25c-1.91-9.12-6.9-17.3-14.14-23.18c-7.24-5.87-16.27-9.08-25.59-9.08
		c-10.76,0-21.08,4.28-28.69,11.89S19.97,68.99,19.97,79.75s4.28,21.08,11.89,28.69c7.61,7.61,17.93,11.89,28.69,11.89
		s21.09-4.28,28.7-11.89c7.61-7.61,11.89-17.93,11.89-28.7c0-0.24,0-0.48,0-0.72c5.94-3.31,12.74-1.86,15.94-0.42
		c0,0.38-0.02,0.76-0.02,1.15c0,10.76,4.28,21.08,11.89,28.7c7.61,7.61,17.93,11.89,28.7,11.89c10.76,0,21.08-4.28,28.69-11.89
		c7.61-7.61,11.89-17.93,11.89-28.69c0-5.33-1.05-10.61-3.09-15.53s-5.03-9.4-8.8-13.17c-3.77-3.77-8.25-6.76-13.17-8.8
		C168.24,40.21,162.96,39.16,157.63,39.17z M60.55,103.36c-3.1,0-6.17-0.61-9.04-1.8s-5.47-2.93-7.66-5.12
		c-2.19-2.19-3.93-4.8-5.12-7.66s-1.8-5.93-1.8-9.04c0-6.26,2.49-12.27,6.91-16.69c4.43-4.43,10.43-6.91,16.69-6.91
		c3.1,0,6.17,0.61,9.04,1.8c2.86,1.19,5.47,2.93,7.66,5.12c2.19,2.19,3.93,4.8,5.12,7.66s1.8,5.93,1.8,9.04
		c0,3.1-0.61,6.17-1.8,9.04c-1.19,2.86-2.93,5.47-5.12,7.66c-2.19,2.19-4.8,3.93-7.66,5.12C66.72,102.75,63.65,103.36,60.55,103.36z
		 M157.63,103.36c-6.26,0-12.27-2.49-16.7-6.91c-4.43-4.43-6.91-10.43-6.91-16.7c0-6.26,2.49-12.27,6.92-16.69
		c4.43-4.43,10.43-6.91,16.7-6.91c6.26,0,12.27,2.49,16.69,6.91c4.43,4.43,6.91,10.43,6.91,16.69c0,3.1-0.61,6.17-1.8,9.04
		c-1.19,2.86-2.93,5.47-5.12,7.66s-4.8,3.93-7.66,5.12C163.8,102.75,160.73,103.36,157.63,103.36z"/>
	
		<linearGradient id="SVGID_1_" gradientUnits="userSpaceOnUse" x1="-500.7019" y1="-5677.897" x2="-487.8945" y2="-5668.4336" gradientTransform="matrix(1 0 0 1 564 5713.2944)">
		<stop  offset="0" style="stop-color:#FF7951"/>
		<stop  offset="1" style="stop-color:#FF2078"/>
	</linearGradient>
	<path class="st3" d="M67.41,48.73c5.68,0,10.29-4.61,10.29-10.29S73.1,28.15,67.41,28.15c-5.68,0-10.29,4.61-10.29,10.29
		S61.73,48.73,67.41,48.73z"/>
	
		<linearGradient id="SVGID_00000034770629552148526250000013588445114858712496_" gradientUnits="userSpaceOnUse" x1="-511.2629" y1="-5690.6982" x2="-512.1928" y2="-5658.543" gradientTransform="matrix(1 0 0 1 564 5713.2944)">
		<stop  offset="0.1333" style="stop-color:#7014E8"/>
		<stop  offset="1" style="stop-color:#4931DE"/>
	</linearGradient>
	<path style="fill:url(#SVGID_00000034770629552148526250000013588445114858712496_);" d="M52.44,43.1c5.68,0,10.28-4.6,10.28-10.28
		s-4.6-10.28-10.28-10.28s-10.28,4.6-10.28,10.28C42.16,38.5,46.76,43.1,52.44,43.1z"/>
	<path class="st5" d="M38.09,54.76c5.11,0,9.25-4.14,9.25-9.25s-4.14-9.25-9.25-9.25s-9.25,4.14-9.25,9.25S32.99,54.76,38.09,54.76z
		"/>
	
		<linearGradient id="SVGID_00000174581658617207575050000016096618648207770795_" gradientUnits="userSpaceOnUse" x1="-489.4789" y1="-5677.4751" x2="-480.2321" y2="-5662.2334" gradientTransform="matrix(1 0 0 1 564 5713.2944)">
		<stop  offset="0.1094" style="stop-color:#FFBE46"/>
		<stop  offset="0.7894" style="stop-color:#FF7951"/>
	</linearGradient>
	<path style="fill:url(#SVGID_00000174581658617207575050000016096618648207770795_);" d="M79.52,50.67c3.65,0,6.61-2.96,6.61-6.61
		c0-3.65-2.96-6.61-6.61-6.61c-3.65,0-6.61,2.96-6.61,6.61C72.9,47.71,75.86,50.67,79.52,50.67z"/>
	
		<linearGradient id="SVGID_00000010997352508877571120000006055002841970713020_" gradientUnits="userSpaceOnUse" x1="-421.1696" y1="-5687.6709" x2="-406.7804" y2="-5663.9541" gradientTransform="matrix(1 0 0 1 564 5713.2944)">
		<stop  offset="0.1094" style="stop-color:#FFBE46"/>
		<stop  offset="0.7894" style="stop-color:#FF7951"/>
	</linearGradient>
	<path style="fill:url(#SVGID_00000010997352508877571120000006055002841970713020_);" d="M150.6,48.73
		c5.68,0,10.29-4.61,10.29-10.29s-4.61-10.29-10.29-10.29s-10.29,4.61-10.29,10.29S144.92,48.73,150.6,48.73z"/>
	<path class="st5" d="M165.57,43.1c5.68,0,10.28-4.6,10.28-10.28s-4.6-10.28-10.28-10.28c-5.68,0-10.28,4.6-10.28,10.28
		C155.29,38.5,159.89,43.1,165.57,43.1z"/>
	<path class="st8" d="M179.92,54.76c5.11,0,9.25-4.14,9.25-9.25s-4.14-9.25-9.25-9.25s-9.25,4.14-9.25,9.25
		S174.81,54.76,179.92,54.76z"/>
	<path class="st9" d="M138.5,50.67c3.65,0,6.61-2.96,6.61-6.61c0-3.65-2.96-6.61-6.61-6.61c-3.65,0-6.61,2.96-6.61,6.61
		S134.84,50.67,138.5,50.67z"/>
</g>
</svg>
