<?xml version="1.0" encoding="utf-8"?>
<!-- Generator: Adobe Illustrator 26.0.0, SVG Export Plug-In . SVG Version: 6.00 Build 0)  -->
<svg version="1.1" id="asset" xmlns="http://www.w3.org/2000/svg" xmlns:xlink="http://www.w3.org/1999/xlink" x="0px" y="0px"
	 viewBox="0 0 214.74 150" style="enable-background:new 0 0 214.74 150;" xml:space="preserve">
<style type="text/css">
	.st0{opacity:0.68;fill:url(#SVGID_1_);enable-background:new    ;}
	.st1{opacity:0.68;fill:url(#SVGID_00000130619130010554042710000007424246937798503612_);enable-background:new    ;}
	.st2{fill:#2B0B98;}
</style>
<g>
	
		<linearGradient id="SVGID_1_" gradientUnits="userSpaceOnUse" x1="-469.5776" y1="-5639.668" x2="-544.6643" y2="-5639.668" gradientTransform="matrix(1 0 0 1 564 5713.2944)">
		<stop  offset="0" style="stop-color:#FFBE46"/>
		<stop  offset="0.1302" style="stop-color:#FF8757"/>
		<stop  offset="0.5365" style="stop-color:#FF436D"/>
		<stop  offset="0.7917" style="stop-color:#BE249B"/>
		<stop  offset="1" style="stop-color:#7029C4"/>
	</linearGradient>
	<path class="st0" d="M58.44,114.22c20.23,0,36.63-18.17,36.63-40.59s-16.4-40.59-36.63-40.59c-20.23,0-36.63,18.17-36.63,40.59
		C21.81,96.04,38.21,114.22,58.44,114.22z"/>
	
		<linearGradient id="SVGID_00000059310391781454265890000010789441973941547441_" gradientUnits="userSpaceOnUse" x1="-371.9243" y1="-5639.668" x2="-447.0109" y2="-5639.668" gradientTransform="matrix(1 0 0 1 564 5713.2944)">
		<stop  offset="0" style="stop-color:#FFBE46"/>
		<stop  offset="0.1302" style="stop-color:#FF8757"/>
		<stop  offset="0.5365" style="stop-color:#FF436D"/>
		<stop  offset="0.7917" style="stop-color:#BE249B"/>
		<stop  offset="1" style="stop-color:#7029C4"/>
	</linearGradient>
	<path style="opacity:0.68;fill:url(#SVGID_00000059310391781454265890000010789441973941547441_);enable-background:new    ;" d="
		M156.09,114.22c20.23,0,36.63-18.17,36.63-40.59s-16.4-40.59-36.63-40.59s-36.63,18.17-36.63,40.59S135.87,114.22,156.09,114.22z"
		/>
	<path class="st2" d="M206.9,77.74l-0.86-8.27c-0.14-1.33-1.15-2.32-2.36-2.35c-2.52-0.05-6.65-1.12-8.63-7.2
		c-5.34-18.08-20.68-31.14-38.77-31.14c-18.95,0-34.89,14.32-39.47,33.73c-3.45-3.57-4.62-5.7-9.41-5.7c-4.79,0-6.01,2.17-9.47,5.77
		c-4.56-19.45-20.51-33.81-39.49-33.81c-18.1,0-33.44,13.06-38.77,31.14c-1.98,6.08-6.11,7.15-8.63,7.2
		c-1.21,0.02-2.22,1.02-2.36,2.35l-0.85,8.27c-0.14,1.38,0.72,2.6,1.95,2.8c2.81,0.47,7.57,2.15,10.06,8.07
		c5.48,17.79,20.7,30.59,38.61,30.59c22.53,0,40.8-20.24,40.8-45.21c0-0.87-0.03-1.73-0.07-2.59c2.55-4.79,3.5-7.93,8.23-7.93
		s5.61,3.08,8.16,7.8c-0.05,0.9-0.07,1.81-0.07,2.72c0,24.97,18.26,45.21,40.8,45.21c17.91,0,33.12-12.79,38.61-30.59
		c2.49-5.92,7.25-7.6,10.06-8.07C206.18,80.33,207.04,79.1,206.9,77.74z M58.44,112.55c-19.22,0-34.79-17.26-34.79-38.56
		s15.58-38.56,34.79-38.56s34.79,17.26,34.79,38.56S77.66,112.55,58.44,112.55z M156.28,112.55c-19.22,0-34.79-17.26-34.79-38.56
		s15.58-38.56,34.79-38.56s34.79,17.26,34.79,38.56C191.07,95.28,175.49,112.55,156.28,112.55z"/>
</g>
</svg>
