<svg xmlns="http://www.w3.org/2000/svg" xmlns:xlink="http://www.w3.org/1999/xlink" viewBox="0 0 702.86 361.82"><defs><linearGradient id="linear-gradient" x1="44.78" y1="174.27" x2="693.36" y2="174.27" gradientUnits="userSpaceOnUse"><stop offset="0" stop-color="#0b7891" stop-opacity="0.8"/><stop offset="1" stop-color="#d27767" stop-opacity="0.8"/></linearGradient></defs><g id="Layer_2" data-name="Layer 2"><g id="asset"><g id="green-ski-goggles"><path d="M567,339a239,239,0,0,1-31.05-1.9,89.16,89.16,0,0,1-43.51-18.62c-24.78-19.58-40-31.78-45.17-36.28-8.53-7.36-17.48-11.09-26.63-11.09-7.52,0-15,2.41-22.83,7.36l-.16.1-.16.11c-3.18,2.2-5.91,4.27-8.8,6.46l-3.33,2.51c-3.86,2.9-7.54,6.1-11.45,9.49-14.32,12.43-30.56,26.52-65.21,35.29-22.86,5.79-57.72,6.57-88.8,6.57-69.4,0-116.26-17.85-143.28-54.55-22-29.88-31.79-71.8-31.79-135.93,0-26.87,10.1-49.34,30.87-68.71,18.4-17.15,45.18-31.49,79.6-42.62C220.63,16.08,300.19,10.56,355.43,9.65c5.82-.1,11.72-.14,17.52-.14,22.39,0,38.62.69,46.3,1.1,62.63,3.34,118.85,12.67,162.57,27,74,24.21,111.54,61.55,111.54,111,0,56.37-5.73,96.2-18,125.35C660.71,308.53,636.07,328.85,600,336A170.54,170.54,0,0,1,567,339Z" fill="url(#linear-gradient)"/><path d="M373,19c22.16,0,38.2.68,45.79,1.08,61.81,3.3,117.18,12.47,160.11,26.52,32.74,10.71,58.26,24.17,75.85,40,19.61,17.67,29.15,37.93,29.15,61.93,0,55.06-5.49,93.72-17.29,121.66-13.48,31.93-35.22,49.89-68.4,56.49A161.27,161.27,0,0,1,567,329.54a228.8,228.8,0,0,1-29.81-1.82,79.61,79.61,0,0,1-38.86-16.65c-30.73-24.28-41.35-33-44.86-36-10.29-8.89-21.34-13.4-32.83-13.4-9.24,0-18.63,3-27.9,8.83l-.33.2-.31.22c-3.36,2.32-6.3,4.55-9.15,6.71-1.06.8-2.14,1.62-3.31,2.49-4.11,3.09-7.92,6.4-12,9.9-13.52,11.74-28.85,25.05-61.31,33.26-21.85,5.53-56,6.28-86.47,6.28-35.06,0-64.54-4.79-87.61-14.24-20.42-8.36-36.12-20.28-48-36.44C73.28,264,65.59,245.6,60.71,222.63c-4.33-20.38-6.43-44.61-6.43-74.07,0-24.09,9.11-44.29,27.85-61.76,17.37-16.2,43-29.84,76-40.54,35.47-11.47,98.51-25.48,197.41-27.11,5.77-.1,11.62-.14,17.37-.14h0m0-19c-5.6,0-11.51,0-17.68.14C240.74,2,35.28,23.56,35.28,148.56c0,110.86,28.19,200,184.57,200,36.88,0,69-1.26,91.13-6.86,46.58-11.78,62.92-33.54,80-46.38,4.16-3.11,7.65-5.87,11.84-8.76,6.14-3.88,12-5.89,17.75-5.89,6.85,0,13.55,2.85,20.41,8.78,6.35,5.49,26,21.14,45.5,36.55a98.65,98.65,0,0,0,48.16,20.58,247.31,247.31,0,0,0,32.29,2,179.42,179.42,0,0,0,34.91-3.19c84.58-16.84,101-98.22,101-196.79,0-126.78-220.53-144.1-283.1-147.44C409.87.59,393.5,0,373,0Z" fill="#c5d43b"/><path d="M219.85,348.54c36.88,0,80-4.4,102.16-10C296.7,351,244.68,361.82,184.57,361.82,28.2,361.82,0,269.29,0,154.22,0,9.6,255.13-1.59,355.27.15,240.74,2,35.28,23.56,35.28,148.56,35.28,259.42,63.47,348.54,219.85,348.54Z" fill="#9eae2b"/></g></g></g></svg>