<svg xmlns="http://www.w3.org/2000/svg" xmlns:xlink="http://www.w3.org/1999/xlink" viewBox="0 0 583.71 176.89"><defs><linearGradient id="linear-gradient" x1="9.5" y1="60.9" x2="262.73" y2="60.9" gradientUnits="userSpaceOnUse"><stop offset="0" stop-color="#9fe4eb" stop-opacity="0.8"/><stop offset="1" stop-color="#70d6e0" stop-opacity="0.3"/></linearGradient><linearGradient id="linear-gradient-2" x1="320.98" y1="60.9" x2="574.21" y2="60.9" xlink:href="#linear-gradient"/></defs><g id="Layer_2" data-name="Layer 2"><g id="asset"><g id="mustache-glasses"><path d="M262.73,8c0,58.49-56.69,105.9-126.62,105.9S9.5,66.44,9.5,8Z" fill="url(#linear-gradient)"/><path d="M136.11,121.8C61.06,121.8,0,70.72,0,8V0H272.23V8C272.23,70.72,211.17,121.8,136.11,121.8ZM19.38,15.89c4.85,50.32,55.35,90,116.73,90s111.89-39.7,116.74-90Z" fill="#f4b246"/><path d="M574.21,8c0,58.49-56.69,105.9-126.62,105.9S321,66.44,321,8Z" fill="url(#linear-gradient-2)"/><path d="M447.59,121.8c-75,0-136.11-51.08-136.11-113.85V0H583.71V8C583.71,70.72,522.65,121.8,447.59,121.8ZM330.86,15.89c4.85,50.32,55.35,90,116.73,90s111.89-39.7,116.74-90Z" fill="#f4b246"/><path d="M266.41,32.63l-11.1-12.9c14.74-8.87,49.23-20.11,74.26.83L316.13,31.8c-8.3-6.95-18.63-8.94-31.57-6.07A68.84,68.84,0,0,0,266.41,32.63Z" fill="#f4b246"/><path d="M520.22,169.22c-17.7,11.2-40.83,10.48-55.51-4.45-.1,9.09-10,7.69-19,6.24-11.83-1.91-23.66-3.54-33.23-10.76-15.36,5.89-32,1.79-47.82-2.73-6-1.72-2.77-.74-6-1.72-3.06-.92-6.31-1-9.47-1.5-15.94-2.59-43.85-8-50.31-7.9-6.46-.14-34.37,5.31-50.31,7.9-3.16.51-6.41.58-9.47,1.5-3.25,1,0,0-6,1.72-15.82,4.52-32.46,8.62-47.82,2.73-9.57,7.22-21.4,8.85-33.23,10.76-9,1.45-18.88,2.85-19-6.24-14.68,14.93-37.81,15.65-55.51,4.45C99.09,56,282.26,77,293.81,77.16l5.07-.09,5.07.09C315.5,77,498.67,56,520.22,169.22Z" fill="#33312d"/></g></g></g></svg>