<svg xmlns="http://www.w3.org/2000/svg" xmlns:xlink="http://www.w3.org/1999/xlink" viewBox="0 0 471.15 164.09"><defs><radialGradient id="radial-gradient" cx="102.42" cy="82.05" fx="177.97447246727432" fy="35.5252939956092" r="106.52" gradientTransform="translate(0 -11.02) scale(1 1.13)" gradientUnits="userSpaceOnUse"><stop offset="0.32" stop-color="#625f5b"/><stop offset="1" stop-color="#33312d"/></radialGradient><linearGradient id="linear-gradient" x1="173.25" y1="80.67" x2="195.79" y2="80.67" gradientUnits="userSpaceOnUse"><stop offset="0.35" stop-color="#33312d"/><stop offset="1"/></linearGradient><radialGradient id="radial-gradient-2" cx="368.73" cy="82.05" fx="368.7340512216051" fy="19.078619583563942" r="92.79" gradientTransform="translate(292.22 -297.25) rotate(60.95) scale(1 1.43)" xlink:href="#radial-gradient"/></defs><g id="Layer_2" data-name="Layer 2"><g id="asset"><g id="pinch-glasses"><path d="M199.88,76c1.66-8.88,5-8.86,6.87-8.11,5.76,2.31,4.76,21.93-.12,21.93C202.75,89.81,197.82,87,199.88,76Z" fill="#9fe4eb"/><path d="M271.15,76c-1.66-8.88-5-8.86-6.87-8.11-5.77,2.31-4.77,21.93.11,21.93C268.27,89.81,273.2,87,271.15,76Z" fill="#9fe4eb"/><ellipse cx="102.42" cy="82.05" rx="102.42" ry="82.05" fill="url(#radial-gradient)"/><path d="M193,77c-6.06-2-13.26-3.61-16.64-1.61S170.94,84,178,85.65s12.84,1.75,16.26,0S194.57,77.49,193,77Z" fill="url(#linear-gradient)"/><ellipse cx="368.73" cy="82.05" rx="102.42" ry="82.05" fill="url(#radial-gradient-2)"/><path d="M280.35,77.81S258.9,65.44,235.91,65.44c-19.4,0-36,7.83-42.06,11-1.75.93-3.63,2.12-3.55,4.2a5.87,5.87,0,0,0,2.13,4.71c2.92,2,19.41-9.81,43.48-9.81,25.82,0,41.52,12.12,44.44,10.15S280.35,77.81,280.35,77.81Z" fill="#33312d"/></g></g></g></svg>