<svg xmlns="http://www.w3.org/2000/svg" xmlns:xlink="http://www.w3.org/1999/xlink" viewBox="0 0 709.72 278.52"><defs><linearGradient id="linear-gradient" y1="139.26" x2="709.72" y2="139.26" gradientUnits="userSpaceOnUse"><stop offset="0" stop-color="#df6551"/><stop offset="0.04" stop-color="#e06952"/><stop offset="0.09" stop-color="#e47653"/><stop offset="0.13" stop-color="#ea8c56"/><stop offset="0.18" stop-color="#f3aa5a"/><stop offset="0.21" stop-color="#f9be5c"/><stop offset="0.25" stop-color="#e1c273"/><stop offset="0.37" stop-color="#a4cdae"/><stop offset="0.46" stop-color="#7ed3d2"/><stop offset="0.51" stop-color="#70d6e0"/><stop offset="0.82" stop-color="#f7b548"/><stop offset="0.82" stop-color="#f7b448"/><stop offset="0.87" stop-color="#ee934d"/><stop offset="0.92" stop-color="#e77b51"/><stop offset="0.96" stop-color="#e36d53"/><stop offset="1" stop-color="#e26854"/></linearGradient><linearGradient id="linear-gradient-2" x1="416.22" y1="146.62" x2="652.93" y2="146.62" gradientUnits="userSpaceOnUse"><stop offset="0" stop-color="#9fe4eb" stop-opacity="0.8"/><stop offset="1" stop-color="#70d6e0" stop-opacity="0.3"/></linearGradient><linearGradient id="linear-gradient-3" x1="56.79" y1="146.62" x2="293.5" y2="146.62" xlink:href="#linear-gradient-2"/></defs><g id="Layer_2" data-name="Layer 2"><g id="asset"><g id="rainbow-glasses"><path d="M560.17,0c-67.45-1.13-120.3,30.35-145,40.47s-39.36,7.26-60.28,7.26-35.53,2.86-60.27-7.26S217-1.1,149.55,0C99.19.86,40.67,27.05,14.24,40.28A25.73,25.73,0,0,0,0,63.31V94.46a25.87,25.87,0,0,0,6.45,17.05c6.91,7.86,16.8,21,16.06,31.33C21.37,158.56,41.46,264.25,109,271s154.72,23.61,178-34.85S326.31,104.7,354.86,104.7s44.53,73,67.84,131.44,110.49,41.6,178,34.85,87.63-112.43,86.49-128.15c-.74-10.3,9.15-23.47,16.06-31.33a25.87,25.87,0,0,0,6.45-17.05V63.31a25.73,25.73,0,0,0-14.24-23C669.05,27.05,610.54.86,560.17,0ZM277.24,193.36C257.65,254,194.52,253,136.06,249.63S54,157.43,57.05,104.7s63.26-67.57,120.38-60.83c0,0,32.83,2.25,81.18,20.24S296.84,132.7,277.24,193.36Zm296.42,56.27C515.2,253,452.07,254,432.48,193.36S402.77,82.1,451.11,64.11s81.18-20.24,81.18-20.24C589.41,37.13,649.58,52,652.67,104.7S632.13,246.26,573.66,249.63Z" fill="url(#linear-gradient)"/><path d="M573.66,249.63C515.2,253,452.07,254,432.48,193.36S402.77,82.1,451.11,64.11s81.18-20.24,81.18-20.24C589.41,37.13,649.58,52,652.67,104.7S632.13,246.26,573.66,249.63Z" fill="url(#linear-gradient-2)"/><path d="M277.24,193.36C257.65,254,194.52,253,136.06,249.63S54,157.43,57.05,104.7s63.26-67.57,120.38-60.83c0,0,32.83,2.25,81.18,20.24S296.84,132.7,277.24,193.36Z" fill="url(#linear-gradient-3)"/></g></g></g></svg>