<svg xmlns="http://www.w3.org/2000/svg" viewBox="0 0 617.02 258.62"><g style="isolation:isolate"><g id="Layer_2" data-name="Layer 2"><g id="asset"><g id="round-glasses"><circle cx="487.71" cy="129.31" r="122.31" fill="#9fe4eb" opacity="0.3" style="mix-blend-mode:multiply"/><circle cx="129.31" cy="129.31" r="122.31" fill="#9fe4eb" opacity="0.3" style="mix-blend-mode:multiply"/><path d="M372.4,129.31h-14c0-7.43-9.53-12.69-15.22-15.16-10.5-4.57-24.71-7.19-39-7.19-22.68,0-45.57,6.91-45.57,22.35h-14c0-12.11,7.14-22.27,20.1-28.62,10.19-5,24.21-7.73,39.47-7.73C337.26,93,372.4,105.7,372.4,129.31Z" fill="#f7b548"/><path d="M487.71,258.62A129.31,129.31,0,1,1,617,129.31,129.46,129.46,0,0,1,487.71,258.62Zm0-244.62A115.31,115.31,0,1,0,603,129.31,115.44,115.44,0,0,0,487.71,14Z" fill="#f7b548"/><path d="M129.31,258.62A129.31,129.31,0,1,1,258.62,129.31,129.46,129.46,0,0,1,129.31,258.62Zm0-244.62A115.31,115.31,0,1,0,244.62,129.31,115.44,115.44,0,0,0,129.31,14Z" fill="#f7b548"/></g></g></g></g></svg>