<svg xmlns="http://www.w3.org/2000/svg" xmlns:xlink="http://www.w3.org/1999/xlink" viewBox="0 0 618.8 324.43"><defs><linearGradient id="linear-gradient" x1="342.01" y1="4310.68" x2="342.01" y2="4557.3" gradientTransform="matrix(1, 0, 0, -1, 0, 4596.9)" gradientUnits="userSpaceOnUse"><stop offset="0.38" stop-color="#fff"/><stop offset="0.84" stop-color="#33d5f9"/></linearGradient><linearGradient id="linear-gradient-2" x1="522.63" y1="46.74" x2="522.63" y2="285.2" gradientTransform="matrix(1, 0, 0, 1, 0, 0)" xlink:href="#linear-gradient"/></defs><g id="Layer_2" data-name="Layer 2"><g id="asset"><g id="ski-goggles-red"><path d="M579.37,106.68V212.14c0,30.3-3.35,29.09-20.09,38.79s-54.55,22.37-80,31.52c-17.14,6.16-19.85,1.21-28.78-7.27s-22.12-27.73-36.64-47.13-32.57-41.37-52.67-41.37h-.34c-20.09,0-36.84,23-51.35,42.43s-29,37.58-37.95,46.06-17.12,15.76-42.79,7.27-87.27-21.82-104-31.52-20.09-8.49-20.09-38.79V106.67c0-20.61-1.12-27.88,24.56-38.79C154.58,57.1,231.19,40,349,39.6c117.83.41,180.43,17.5,205.8,28.28C580.48,78.8,579.37,86.07,579.37,106.68Z" opacity="0.7" fill="url(#linear-gradient)"/><g id="asset-2" data-name="asset"><path d="M12.54,233.92l46.68,5.48c8.31,1,15.57-6.1,15.57-15.18V105.62c0-9.13-7.32-16.21-15.67-15.16L12.44,96.32C5.35,97.21,0,103.73,0,111.48V218.73C0,226.54,5.4,233.08,12.54,233.92Z" fill="#512bd4"/><path d="M617.13,92.13c-2.23-18.18-7.56-30.44-26.6-40C507.34,10.35,432.94,1.18,360.6.12Q357,0,353.31,0h-8.59Q341,0,337.43.12c-72.33,1.06-160.75,10.23-243.94,52C75,61.39,62,73.2,59.13,90.46c-.09.55-.17,1.11-.24,1.67-2.23,18.18-2.23,110.31,0,132.13a66.84,66.84,0,0,0,3,15.17C66.32,252.05,76,260.8,99.08,271.54c31.26,14.55,121.14,44.85,146.81,50.91s37.95-1.21,55.81-30.31c17.64-28.73,34.19-64.53,59.33-65.42,25.14.89,41.69,36.69,59.33,65.42,17.86,29.09,30.14,36.37,55.81,30.31S553.69,286.08,585,271.54s29.95-25.46,32.18-47.28S619.36,110.32,617.13,92.13ZM450.5,275.18c-8.93-8.49-22.12-27.73-36.64-47.13s-32.57-41.37-52.67-41.37h-.34c-20.09,0-36.84,23-51.35,42.43s-29,37.58-37.95,46.06-17.12,15.76-42.79,7.27-87.27-21.82-104-31.52-20.09-8.49-20.09-38.79V106.67c0-20.61-1.12-27.88,24.56-38.79C154.58,57.1,231.19,40,349,39.6c47.54.17,86.1,3,116.84,7.14h0c35.91,6.86,47.93,11,71.91,21.15,25.67,10.91,24.56,18.18,24.56,38.79V212.14c0,30.3-3.35,29.09-20.09,38.79s-40.31,23-66,31.52a85.35,85.35,0,0,1-10.13,2.73C459.63,284.9,456.44,280.82,450.5,275.18Z" fill="#e86e58"/><path d="M579.37,106.68V212.14c0,18-1.18,24.88-5.66,29.53-3.05,3.18-7.64,5.32-14.44,9.26q-2,1.14-4.29,2.33c-18.24,9.31-52.06,20.7-75.51,29.12l-.2.07q-1.77.65-3.33,1.11l-.8.25-.15,0a28,28,0,0,1-8.85,1.33,85.35,85.35,0,0,0,10.13-2.73c25.68-8.49,49.25-21.82,66-31.52s20.09-8.49,20.09-38.79V106.68c0-20.61,1.11-27.88-24.56-38.79-24-10.19-36-14.29-71.91-21.15,43.06,5.72,70.79,13.81,86.45,20.11l.19.08c.8.32,1.57.64,2.3.95q2.76,1.17,5.12,2.31l.94.45c1.22.59,2.36,1.18,3.42,1.78l.8.44c.77.43,1.49.87,2.18,1.31l1.45,1c.39.27.76.53,1.11.8h0c.39.29.76.58,1.12.88s.73.61,1.07.9.62.57.91.87h0a20.79,20.79,0,0,1,2,2.28c.23.32.46.63.68,1,.31.48.6,1,.86,1.45l.51,1c.23.5.44,1,.62,1.53v0a16.34,16.34,0,0,1,.5,1.59c.15.55.28,1.11.4,1.68C579.51,93.78,579.37,99.4,579.37,106.68Z" fill="url(#linear-gradient-2)"/><path d="M579.36,106.68V212.14c0,18-1.18,24.87-5.65,29.53-3.05,3.18-7.64,5.32-14.44,9.26q-2,1.14-4.29,2.33c-18.21,9.36-51.94,21.05-75.51,29.12l-.2.07-3.33,1.11-.8.25-.15,0c-4.86,1.5-6.76,1.63-9.13,1.39l.28-.06a85.35,85.35,0,0,0,10.13-2.73c25.68-8.49,49.25-21.82,66-31.52s20.09-8.49,20.09-38.79V106.68c0-20.61,1.11-27.88-24.56-38.79-24-10.19-36-14.29-71.91-21.15h0l-3.53-.67c38.52,4.3,65.32,10.61,90,20.78l.19.08,2.29,1q2.76,1.17,5.13,2.3l.94.45c1.22.6,2.36,1.19,3.42,1.78l.8.44c.76.44,1.49.87,2.18,1.31l1.45,1c.38.27.75.53,1.11.8h0l1.12.88c.37.3.73.61,1.07.9s.62.58.91.87h0a23,23,0,0,1,2,2.28c.23.32.46.63.68,1,.31.48.59,1,.86,1.45l.51,1c.22.5.43,1,.62,1.53v0c.19.52.35,1,.5,1.59s.28,1.11.4,1.68C579.5,93.78,579.36,99.4,579.36,106.68Z" fill="#cc5444"/></g></g></g></g></svg>