<svg xmlns="http://www.w3.org/2000/svg" xmlns:xlink="http://www.w3.org/1999/xlink" viewBox="0 0 607.27 797.17"><defs><linearGradient id="linear-gradient" x1="329.27" y1="9464.25" x2="329.27" y2="9764.78" gradientTransform="matrix(1, 0, 0, -1, 0, 10184.48)" gradientUnits="userSpaceOnUse"><stop offset="0.42" stop-color="#70d6e0"/><stop offset="0.65" stop-color="#0bbacf"/></linearGradient></defs><g id="Layer_2" data-name="Layer 2"><g id="asset"><g id="snorkel-mask-green"><path d="M442.1,734.34c46.19-6.48,61.42-64.28,61.42-64.28l45.57,16.29s-5,17-19.2,42.36c-24.72,44-33.32,70.51-75,68.34-37.45-1.95-58-74.81-41-69.49C421,729.8,432.75,735.65,442.1,734.34Z" fill="#d1de63"/><path d="M587.66,416.44c-.4,32-2.19,66.46-5.23,100.23-4.54,50.45-11.85,99.27-21.48,135.58-3.82,14.37-8,26.78-12.5,36.55a91.58,91.58,0,0,1-17.81-2.57c-18.5-4.59-28.25-13.45-28.25-13.45q2.49-8.26,4.81-16.68c14.44-24.65,22.63-55.63,23.51-90.14a81.25,81.25,0,0,0-1.38-17.34q5.76-40.56,8.2-83.45,1.38-24,1.71-48.75c1-75-5.2-154.61-18.43-236.56q-4.12-25.59-8.76-49.26l49-3.54c2.38,13.37,4.8,27.57,7.25,42.72C582.15,255.05,588.66,338,587.66,416.44Z" fill="#625f5b"/><path d="M499.93,4.67,517.29.5C527.56-2,537.74,5,540,16l24.39,117.21c2.29,11-4.17,22-14.43,24.43l-17.36,4.17c-10.27,2.46-20.45-4.48-22.74-15.5L485.5,29.1C483.2,18.07,489.67,7.13,499.93,4.67Z" fill="#d1de63"/><path d="M202.69,412.77C75.89,434-1.28,489.53,0,554.26,2.1,658.07,41.59,719.47,160.08,723.93c48,1.81-10.39-8.93-30.14-27.91S44.71,588.86,60.3,537.51,202.69,412.77,202.69,412.77Z" fill="#d1de63"/><path d="M316.5,420.31C138.88,427.08,42.11,495.66,71.73,596.12s93.54,164.09,157.46,95.44S318.05,576,397.57,664.77s166.82,30.14,188.64-53.58S580,410.26,316.5,420.31Z" opacity="0.7" fill="url(#linear-gradient)"/><path d="M171.51,720c23.39,36.84,55.29,48.64,104.21,10.05,32.9-26,98.33-40.35,130.6,0,20.09,25.12,56.72,26.8,70-5s-27.28-6.7-85-80.37-76.39-53.58-120,1.67" fill="#625f5b"/><path d="M364.86,419.92q-22.74-.57-48.36.39C279,421.74,245,426,215.14,432.62c27.07,36.9,66.07,91.73,105.12,172.57,19.49,1,47.31,26.1,77.31,59.58,26.21,29.25,53.26,42.47,78.54,44.08A1500.73,1500.73,0,0,0,364.86,419.92Z" fill="#70d6e0" opacity="0.7"/><path d="M594.79,568.51c-.73,28.4-15.48,58.7-33.84,83.74a234,234,0,0,1-30.31,34c-8.77,8-17.16,14.14-24.21,17.75-9.45,4.85-18.35,10.55-27,15.94a90.13,90.13,0,0,1-27.77-14.38c12.3-4.44,24.74-12.51,35.68-23.49A128.07,128.07,0,0,0,507.2,656.1c14.44-24.65,22.63-55.63,23.51-90.14a81.25,81.25,0,0,0-1.38-17.34c-2.73-14.34-9.45-27.48-20.08-39.21-35.92-39.66-139.56-64-217.36-64-49,0-143.93,20.28-189.32,44.47.19-3.59,30.75-31.91,30.75-31.91l37.78-34.14c31.6-5.6,67-8.49,105.45-8.49,1.89,0,8-.21,13,0,96.23.7,195,16.36,248,49.79a110.54,110.54,0,0,1,23,18.77,140.17,140.17,0,0,1,21.94,32.73C590.46,533.24,595.23,551.38,594.79,568.51Z" fill="#1189a5"/><path d="M258.13,606.11a40.3,40.3,0,0,0-3.42,2.47c-8.69,6.62-18.42,16.55-30,30.37-3.4,4-6.74,8.21-10.27,12.6-16.3,20.27-33,41-54.12,51.16a115.43,115.43,0,0,0,44.41,3.54c22.92-6.13,130.35-123,122-122.6C286.88,585.52,271.1,597.9,258.13,606.11Z" fill="#1189a5"/><path d="M577.86,474.18c-42-46.39-127-72.27-239.76-73.09-5-.23-11.07,0-13,0-115.48,0-202.6,26-245.3,73.11-20.24,22.35-30.12,48.69-29.36,78.3,1.44,56.15,20,104.87,52.2,137.19C125,712,153,725.12,178.26,725.12c1.05,0,2.1,0,3.14-.07,45.67-2,75-38.49,98.61-67.81,3.44-4.28,6.69-8.32,9.9-12.15,18.27-21.8,27.77-28.47,32.39-30.35a20.28,20.28,0,0,1,10.78-.63c2.71.67,11.25,3,34.73,31,3.21,3.83,6.46,7.87,9.9,12.15,23.58,29.32,52.93,65.8,98.61,67.81,1,.05,2.09.07,3.14.07,25.26,0,53.28-13.09,75.58-35.45,32.22-32.32,50.76-81,52.2-137.19C608,522.87,598.1,496.53,577.86,474.18Zm1.44,77.47c-1.23,48.06-16.62,89.29-43.34,116.09-17.88,17.94-39.76,28.16-58.51,27.34-33.59-1.47-56.47-29.93-78.61-57.44-3.54-4.4-6.88-8.55-10.27-12.6-24.38-29.1-40.43-40.39-55.81-41.12-7.67-.36-17.21.07-30.19,8.28a40.3,40.3,0,0,0-3.42,2.47c-8.69,6.62-18.42,16.55-30,30.37-3.4,4.05-6.74,8.21-10.27,12.6-22.14,27.52-45,56-78.61,57.44-18.76.82-40.63-9.4-58.51-27.34-26.72-26.8-42.11-68-43.34-116.09-.54-21.21,6.68-40.23,21.46-56.55,36.86-40.69,119-64,225.28-64,2.58,0,9.42.12,15.34.06h.19c102.37,1.16,181.26,24.33,217.17,64C572.62,511.42,579.84,530.45,579.3,551.65Z" fill="#fff"/></g></g></g></svg>