<svg xmlns="http://www.w3.org/2000/svg" xmlns:xlink="http://www.w3.org/1999/xlink" viewBox="0 0 782.34 811.63"><defs><linearGradient id="linear-gradient" x1="125.75" y1="493.21" x2="771.34" y2="493.21" gradientUnits="userSpaceOnUse"><stop offset="0" stop-color="#9fe4eb" stop-opacity="0.6"/><stop offset="1" stop-color="#9fe4eb" stop-opacity="0.6"/></linearGradient></defs><g id="Layer_2" data-name="Layer 2"><g id="asset"><g id="snorkel-mask-yellow"><polygon points="80.75 456.02 27.07 456.02 27.07 614.34 109.25 614.34 109.25 460.7 80.75 456.02" fill="#cb8930"/><path d="M299.32,667.48c36.89,0,80-4.4,102.17-10-25.31,12.45-77.34,23.29-137.44,23.29-156.38,0-184.57-92.53-184.57-207.6,0-144.62,255.12-155.81,355.27-154.07-114.53,1.89-320,23.41-320,148.41C114.75,578.36,143,667.48,299.32,667.48Z" fill="#eba841"/><path d="M646.43,656.48a237.6,237.6,0,0,1-30.85-1.89,87.66,87.66,0,0,1-42.79-18.31c-24.76-19.56-39.94-31.75-45.11-36.23-8.81-7.61-18.1-11.46-27.62-11.46-7.81,0-15.54,2.48-23.62,7.59l-.19.12-.18.13c-3.22,2.21-6,4.29-8.86,6.49l-3.32,2.51c-3.91,2.93-7.61,6.15-11.54,9.55-14.19,12.33-30.29,26.3-64.59,35-22.7,5.75-57.44,6.53-88.44,6.53-68.88,0-115.35-17.65-142.06-53.94-21.79-29.6-31.51-71.25-31.51-135,0-26.43,9.95-48.55,30.4-67.61,18.23-17,44.83-31.23,79-42.3,65.2-21.08,144.61-26.59,199.74-27.5,5.82-.1,11.71-.14,17.5-.14,22.35,0,38.55.68,46.22,1.09,62.5,3.34,118.58,12.64,162.18,26.91,73.33,24,110.51,60.84,110.51,109.55,0,56.17-5.7,95.81-17.92,124.77C739,626.4,714.73,646.43,679.18,653.5A169,169,0,0,1,646.43,656.48Z" fill="url(#linear-gradient)"/><path d="M452.43,341c22.09,0,38.07.67,45.63,1.08,61.56,3.29,116.66,12.4,159.35,26.37,32.34,10.58,57.49,23.83,74.77,39.39,18.94,17.07,28.16,36.6,28.16,59.71,0,54.65-5.42,92.93-17.05,120.49-13.06,30.94-34.11,48.33-66.23,54.72a158.42,158.42,0,0,1-30.63,2.77A228.15,228.15,0,0,1,617,643.69a76.68,76.68,0,0,1-37.4-16c-30.67-24.23-41.26-32.91-44.75-35.93-10.85-9.38-22.56-14.13-34.79-14.13-9.82,0-19.75,3.12-29.51,9.29l-.37.24-.37.25c-3.42,2.36-6.39,4.61-9.26,6.79l-3.29,2.48c-4.2,3.16-8,6.5-12.13,10-13.27,11.52-28.31,24.58-60.08,32.61-21.53,5.45-55.42,6.19-85.74,6.19-34.66,0-63.76-4.72-86.47-14C193,623.32,177.67,611.72,166.12,596c-10.69-14.52-18.21-32.53-23-55.08-4.28-20.17-6.37-44.19-6.37-73.44,0-23.21,8.8-42.7,26.9-59.57,17-15.89,42.26-29.31,74.92-39.87,35.28-11.41,98-25.35,196.54-27,5.75-.1,11.58-.14,17.32-.14h0m0-22c-5.59,0-11.5,0-17.67.14-114.53,1.89-320,23.41-320,148.41,0,110.86,28.2,200,184.57,200,36.89,0,69-1.26,91.14-6.86,46.58-11.78,62.92-33.54,80-46.38,4.15-3.11,7.65-5.87,11.83-8.76,6.15-3.88,12-5.89,17.75-5.89,6.85,0,13.56,2.85,20.42,8.78,6.34,5.49,26,21.14,45.49,36.55a98.73,98.73,0,0,0,48.17,20.58,247.31,247.31,0,0,0,32.29,2,179.39,179.39,0,0,0,34.9-3.19c84.59-16.84,101-98.22,101-196.79,0-126.78-220.54-144.1-283.11-147.44-9.89-.53-26.25-1.11-46.81-1.11Z" fill="#fac369"/><path d="M10.42,359.65c.22-1.08.45-2.17.68-3.26A24.71,24.71,0,0,1,10.42,359.65Z" fill="#f1ae44"/><path d="M27.07,657.11c9.61,45.63,32.59,82.41,37.1,94.66s10.37,36.85,11.31,49.29,20.76,12.41,35.18,7.51,14-9.34,10.65-25.39,3-15.43,14.49-14.38c8.65.79,20.3,1,43.15-3.11,11.35-2.06,22.94-1.12,34.1,1.79,3.82,1,9.32.56,17.15-3.41,17.09-8.68,21.3-18.92,18.8-26.41a58.94,58.94,0,0,1-2.78-11.46c-.83-6.74-4-16-14.83-16-17.13,0-27.92,7.74-34,8.95-9,1.78-21.06,5.37-34.82,4s-71.36-26.35-79-49.55L76,650.45Z" fill="#b6e3de"/><path d="M27.07,657.11c9.61,45.63,32.59,82.41,37.1,94.66s10.37,36.85,11.31,49.29,20.76,12.41,35.18,7.51,14-9.34,10.65-25.39,3-15.43,14.49-14.38c8.65.79,20.3,1,43.15-3.11,11.35-2.06,22.94-1.12,34.1,1.79,3.82,1,9.32.56,17.15-3.41,17.09-8.68,21.3-18.92,18.8-26.41a58.94,58.94,0,0,1-2.78-11.46s-1.14,4.55-5,4.84c-17.08,1.32-22.34,5.58-28.38,6.79-9,1.78-36.47,9.51-50.23,8.16s-54.68-13.83-77.91-21.47c-27.55-9.07-32.81-61.63-32.81-61.63Z" fill="#6fcfce" opacity="0.8"/><path d="M272.84,68.75C264.9,78.32,140.32,206,95.5,278.45s-56.25,135.39-48.3,186S74.65,643.26,76,650.46c0,0,0,0,0,0,1.22,7.17-19.33,12.63-28,13-6.71.32-15.3,1.31-19.8-6.58a24.84,24.84,0,0,1-2.79-9.7C23.36,629-1.2,465.89.05,435.92c.61-14.55,3.81-44.38,10.37-76.27.22-1.08.45-2.17.68-3.26v0Q12,352.2,12.94,348c6.93-30.24,16.87-60.89,30.44-80.95C70.22,227.39,235,38.15,267.16,1.33a3.85,3.85,0,0,1,6.72,2c.62,4.47,1.25,9.82,1.78,15.53C277.49,38.53,278.13,62.38,272.84,68.75Z" fill="#f9c163"/><path d="M264.83,33.72S46.24,271.87,20.74,359.65c17.62-56.17,23.61-77.19,36.52-93.85C86.61,227.93,224.72,58.72,256.86,21.9a3.85,3.85,0,0,1,6.72,2C264.2,28.37,264.3,28,264.83,33.72Z" fill="#ffe9c5" opacity="0.4"/></g></g></g></svg>