<svg xmlns="http://www.w3.org/2000/svg" viewBox="0 0 677.94 292.98"><g id="Layer_2" data-name="Layer 2"><g id="asset"><g id="spiral-goggles"><path d="M613.43,26.11c5.44,3.15,10.37,4.79,11,3.69s-3.25-4.56-8.69-7.7-10.37-4.79-11-3.68S608,23,613.43,26.11Z" fill="#f1ae44"/><path d="M606.38,26.6h4.27a3.47,3.47,0,0,1,3.47,3.47V40.53a0,0,0,0,1,0,0H602.91a0,0,0,0,1,0,0V30.07A3.47,3.47,0,0,1,606.38,26.6Z" transform="translate(1118.73 366.89) rotate(-150)" fill="#c4832d"/><path d="M610.68,30.89c5.44,3.14,10.37,4.79,11,3.68l2.75-4.77c-.64,1.1-5.57-.54-11-3.69s-9.33-6.58-8.69-7.69L602,23.19C601.34,24.3,605.23,27.74,610.68,30.89Z" fill="#d59235"/><path d="M657.59,75.7c3.51,5.21,7.23,8.85,8.29,8.14s-.93-5.53-4.45-10.73-7.23-8.84-8.29-8.13S654.07,70.5,657.59,75.7Z" fill="#f1ae44"/><path d="M647.78,73.29h4.27a3.47,3.47,0,0,1,3.47,3.47V87.22a0,0,0,0,1,0,0H644.31a0,0,0,0,1,0,0V76.76a3.47,3.47,0,0,1,3.47-3.47Z" transform="translate(947.36 663.66) rotate(-124.05)" fill="#c4832d"/><path d="M653,78.8c3.51,5.2,7.22,8.84,8.29,8.12l4.56-3.08c-1.06.71-4.78-2.93-8.29-8.14s-5.51-10-4.45-10.72l-4.57,3.09C647.51,68.78,649.5,73.58,653,78.8Z" fill="#d59235"/><path d="M673.3,147.17c-.14,6.28.79,11.39,2.07,11.43s2.43-5,2.56-11.33-.79-11.39-2.07-11.42S673.43,140.89,673.3,147.17Z" fill="#f1ae44"/><path d="M662.27,139.49h4.27A3.47,3.47,0,0,1,670,143v10.46a0,0,0,0,1,0,0H658.8a0,0,0,0,1,0,0V143a3.47,3.47,0,0,1,3.47-3.47Z" transform="translate(503.75 807.57) rotate(-88.77)" fill="#c4832d"/><path d="M667.79,147.06c-.14,6.28.79,11.39,2.07,11.42l5.51.12c-1.28,0-2.21-5.15-2.07-11.43s1.28-11.35,2.56-11.32l-5.51-.12C669.07,135.7,667.92,140.77,667.79,147.06Z" fill="#d59235"/><path d="M167.27.22q-4-.22-8.06-.22A146.46,146.46,0,0,0,18.41,105.94q-1.86,6.42-3.12,13.09A146.62,146.62,0,0,0,159.21,293q4,0,8.06-.22a146.49,146.49,0,0,0,0-292.54Zm104.19,208A114.73,114.73,0,0,1,234.85,244a114.18,114.18,0,0,1-121.63-1.66,114.54,114.54,0,0,1-35.57-36.61A114.22,114.22,0,0,1,79.48,84.34,114.53,114.53,0,0,1,115.82,49,114.17,114.17,0,0,1,237.1,50.38a114.55,114.55,0,0,1,35.61,36.35A113.24,113.24,0,0,1,287,122.1h0a114.85,114.85,0,0,1-.54,51.06A112.6,112.6,0,0,1,271.46,208.23Z" fill="#33312d"/><path d="M317.92,112.79A146.55,146.55,0,0,0,175.33,0q-4.05,0-8.06.22a146.49,146.49,0,0,0,0,292.54q4,.23,8.06.22A146.49,146.49,0,0,0,321.74,151.14c.06-1.54.08-3.09.08-4.65A146.75,146.75,0,0,0,317.92,112.79ZM148.24,257.49a112.81,112.81,0,0,1-35-15.12,114.54,114.54,0,0,1-35.57-36.61A114.22,114.22,0,0,1,79.48,84.34,114.53,114.53,0,0,1,115.82,49,114.17,114.17,0,0,1,237.1,50.38a114.55,114.55,0,0,1,35.61,36.35A113.24,113.24,0,0,1,287,122.1h0a114.85,114.85,0,0,1-.54,51.06,112.6,112.6,0,0,1-15,35.06A114.73,114.73,0,0,1,234.85,244a114.41,114.41,0,0,1-86.61,13.46Z" fill="#4a4844"/><path d="M289.57,146.49a113.88,113.88,0,0,1-3.15,26.68,112.6,112.6,0,0,1-15,35.06A114.94,114.94,0,0,1,234.85,244a114.18,114.18,0,0,1-121.63-1.66,114.43,114.43,0,0,1-35.57-36.61A114.15,114.15,0,0,1,79.48,84.34,114.43,114.43,0,0,1,115.82,49a114.27,114.27,0,0,1,59.51-16.72A114.28,114.28,0,0,1,287,122.1h0A113.82,113.82,0,0,1,289.57,146.49Z" fill="#c2e8e3" opacity="0.6"/><path d="M289.57,146.49a113.88,113.88,0,0,1-3.15,26.68c-16.29-3.23-31.92-8.68-41-17.85-36.32-36.55-70.22-9.07-70.22-9.07,31.14-49.2,77.12,3.84,111.79-24.14A113.82,113.82,0,0,1,289.57,146.49Z" fill="#dc624f" opacity="0.8"/><path d="M271.46,208.23A114.94,114.94,0,0,1,234.85,244c-9.26-13.82-16.48-28.76-16.44-41.72.17-51.53-43.25-56.06-43.25-56.06C232.05,133.46,227,203.67,271.46,208.23Z" fill="#dc624f" opacity="0.8"/><path d="M199.43,258.18a114.62,114.62,0,0,1-51.19-.69c3.23-16.29,8.69-31.91,17.87-41,36.55-36.31,9-70.21,9-70.21C224.43,177.42,171.18,223.49,199.43,258.18Z" fill="#dc624f" opacity="0.8"/><path d="M113.22,242.37a114.43,114.43,0,0,1-35.57-36.61c13.75-9.19,28.58-16.32,41.46-16.27,51.53.16,56.05-43.24,56.05-43.24C188,203.05,117.93,198.06,113.22,242.37Z" fill="#dc624f" opacity="0.8"/><path d="M175.16,146.25c-31.07,49.11-76.93-3.65-111.59,24a114.87,114.87,0,0,1,.76-50.83c16.15,3.23,31.59,8.68,40.62,17.77C141.27,173.74,175.16,146.25,175.16,146.25Z" fill="#dc624f" opacity="0.8"/><path d="M175.16,146.25C118.54,159,123.33,89.46,79.48,84.34A114.43,114.43,0,0,1,115.82,49c9.1,13.68,16.15,28.42,16.11,41.22C131.76,141.72,175.16,146.25,175.16,146.25Z" fill="#dc624f" opacity="0.8"/><path d="M184.23,76c-36.55,36.32-9.07,70.22-9.07,70.22-49-31,3.52-76.82-23.88-111.45a112.8,112.8,0,0,1,24.05-2.56A114,114,0,0,1,202,35.39C198.78,51.54,193.34,67,184.23,76Z" fill="#dc624f" opacity="0.8"/><path d="M272.7,86.73C259,95.92,244.11,103.05,231.23,103c-51.53-.15-56.07,43.25-56.07,43.25-12.74-56.7,57-51.83,61.94-95.87A114.52,114.52,0,0,1,272.7,86.73Z" fill="#dc624f" opacity="0.8"/><path d="M277.69,144.63a103.21,103.21,0,0,1-2.86,24.26,102.18,102.18,0,0,1-13.6,31.87,104.41,104.41,0,0,1-21,23.7,103.76,103.76,0,0,0,7.65-10.4,102.49,102.49,0,0,0,13.61-31.88,104.73,104.73,0,0,0,.48-46.42h0a102.93,102.93,0,0,0-13-32.15,104.21,104.21,0,0,0-32.36-33A103.72,103.72,0,0,0,94.06,78.14a103.89,103.89,0,0,1,181.26,44.32h0A104.41,104.41,0,0,1,277.69,144.63Z" fill="#c2e8e3" opacity="0.2"/><path d="M506.87.22q-4-.22-8.06-.22A146.46,146.46,0,0,0,358,105.94q-1.86,6.42-3.12,13.09A146.62,146.62,0,0,0,498.81,293q4.05,0,8.06-.22a146.49,146.49,0,0,0,0-292.54Zm104.19,208A114.73,114.73,0,0,1,574.45,244a114.18,114.18,0,0,1-121.63-1.66,114.54,114.54,0,0,1-35.57-36.61,114.22,114.22,0,0,1,1.83-121.42A114.53,114.53,0,0,1,455.42,49,114.17,114.17,0,0,1,576.7,50.38a114.55,114.55,0,0,1,35.61,36.35,113.24,113.24,0,0,1,14.25,35.37h0a114.85,114.85,0,0,1-.54,51.06A112.6,112.6,0,0,1,611.06,208.23Z" fill="#33312d"/><path d="M514.93,0q-4,0-8.06.22a146.49,146.49,0,0,0,0,292.54q4,.23,8.06.22a146.49,146.49,0,0,0,0-293ZM487.84,257.49a112.81,112.81,0,0,1-35-15.12,114.54,114.54,0,0,1-35.57-36.61,114.22,114.22,0,0,1,1.83-121.42A114.53,114.53,0,0,1,455.42,49,114.17,114.17,0,0,1,576.7,50.38a114.55,114.55,0,0,1,35.61,36.35,113.24,113.24,0,0,1,14.25,35.37h0a114.85,114.85,0,0,1-.54,51.06,112.6,112.6,0,0,1-15,35.06A114.73,114.73,0,0,1,574.45,244a114.41,114.41,0,0,1-86.61,13.46Z" fill="#4a4844"/><path d="M629.17,146.49A114.41,114.41,0,0,1,626,173.17a112.85,112.85,0,0,1-15,35.06A114.73,114.73,0,0,1,574.45,244a114.18,114.18,0,0,1-121.63-1.66,114.54,114.54,0,0,1-35.57-36.61,114.22,114.22,0,0,1,1.83-121.42A114.53,114.53,0,0,1,455.42,49,114.17,114.17,0,0,1,576.7,50.38a114.55,114.55,0,0,1,35.61,36.35,113.24,113.24,0,0,1,14.25,35.37h0A113.82,113.82,0,0,1,629.17,146.49Z" fill="#c2e8e3" opacity="0.6"/><path d="M629.17,146.49A114.41,114.41,0,0,1,626,173.17c-16.3-3.23-31.93-8.68-41-17.85-36.32-36.55-70.22-9.07-70.22-9.07,31.14-49.2,77.12,3.84,111.79-24.14A113.82,113.82,0,0,1,629.17,146.49Z" fill="#dc624f" opacity="0.8"/><path d="M611.06,208.23A114.73,114.73,0,0,1,574.45,244C565.19,230.21,558,215.27,558,202.31c.17-51.53-43.24-56.06-43.24-56.06C571.66,133.46,566.57,203.67,611.06,208.23Z" fill="#dc624f" opacity="0.8"/><path d="M539,258.18a114.62,114.62,0,0,1-51.19-.69c3.24-16.29,8.7-31.91,17.87-41,36.55-36.31,9.06-70.21,9.06-70.21C564,177.42,510.79,223.49,539,258.18Z" fill="#dc624f" opacity="0.8"/><path d="M452.82,242.37a114.54,114.54,0,0,1-35.57-36.61c13.76-9.19,28.59-16.32,41.47-16.27,51.52.16,56-43.24,56-43.24C527.55,203.05,457.53,198.06,452.82,242.37Z" fill="#dc624f" opacity="0.8"/><path d="M514.77,146.25c-31.08,49.11-76.94-3.65-111.6,24a114.69,114.69,0,0,1,.77-50.83c16.15,3.23,31.58,8.68,40.61,17.77C480.87,173.74,514.77,146.25,514.77,146.25Z" fill="#dc624f" opacity="0.8"/><path d="M514.77,146.25C458.15,159,462.93,89.46,419.08,84.34A114.53,114.53,0,0,1,455.42,49c9.11,13.68,16.15,28.42,16.12,41.22C471.37,141.72,514.77,146.25,514.77,146.25Z" fill="#dc624f" opacity="0.8"/><path d="M523.84,76c-36.55,36.32-9.07,70.22-9.07,70.22-49-31,3.51-76.82-23.89-111.45a114.46,114.46,0,0,1,50.74.59C538.39,51.54,532.94,67,523.84,76Z" fill="#dc624f" opacity="0.8"/><path d="M612.31,86.73c-13.75,9.19-28.6,16.32-41.48,16.27-51.52-.15-56.06,43.25-56.06,43.25-12.75-56.7,57-51.83,61.93-95.87A114.55,114.55,0,0,1,612.31,86.73Z" fill="#dc624f" opacity="0.8"/><path d="M617.29,144.63a103.74,103.74,0,0,1-2.85,24.26,102.43,102.43,0,0,1-13.61,31.87,104.17,104.17,0,0,1-21,23.7,105.44,105.44,0,0,0,7.66-10.4,102.47,102.47,0,0,0,13.6-31.88,104.54,104.54,0,0,0,.49-46.42h0a102.93,102.93,0,0,0-13-32.15,104.32,104.32,0,0,0-32.36-33,103.73,103.73,0,0,0-122.65,7.59,103.89,103.89,0,0,1,181.26,44.32h0A103.76,103.76,0,0,1,617.29,144.63Z" fill="#c2e8e3" opacity="0.2"/><path d="M365.21,128.77c0-.25.06-.49.08-.74l-.46,1.71c.14-.32.27-.64.38-1a39.88,39.88,0,0,1-3.45,12.35,6.56,6.56,0,0,1-1.85,2.62c-1.75,1.31-4.31.72-6.13-.49s-3.26-2.94-5.12-4.1c-6.07-3.79-14.11-.18-19.41,4.61-2.58,2.33-5,5-7.51,7.38.06-1.54.08-3.09.08-4.65a146.75,146.75,0,0,0-3.9-33.7,42.53,42.53,0,0,1,26.58-6.13c6,.59,12,2.49,16.35,6.66C364.91,117.25,367,123.48,365.21,128.77Z" fill="#f1ae44"/><path d="M365.29,128c0,.25-.05.49-.08.74s-.24.65-.38,1Z" fill="#f1ae44"/><path d="M167.27.22q-4-.22-8.06-.22A146.46,146.46,0,0,0,18.41,105.94q-1.86,6.42-3.12,13.09A146.62,146.62,0,0,0,159.21,293q4,0,8.06-.22a146.49,146.49,0,0,0,0-292.54Zm104.19,208A114.73,114.73,0,0,1,234.85,244a114.18,114.18,0,0,1-121.63-1.66,114.54,114.54,0,0,1-35.57-36.61A114.22,114.22,0,0,1,79.48,84.34,114.53,114.53,0,0,1,115.82,49,114.17,114.17,0,0,1,237.1,50.38a114.55,114.55,0,0,1,35.61,36.35A113.24,113.24,0,0,1,287,122.1h0a114.85,114.85,0,0,1-.54,51.06A112.6,112.6,0,0,1,271.46,208.23Z" fill="#33312d"/><path d="M175.33,0q-4.05,0-8.06.22a146.49,146.49,0,0,0,0,292.54q4,.23,8.06.22a146.49,146.49,0,0,0,0-293ZM148.24,257.49a112.81,112.81,0,0,1-35-15.12,114.54,114.54,0,0,1-35.57-36.61A114.22,114.22,0,0,1,79.48,84.34,114.53,114.53,0,0,1,115.82,49,114.17,114.17,0,0,1,237.1,50.38a114.55,114.55,0,0,1,35.61,36.35A113.24,113.24,0,0,1,287,122.1h0a114.85,114.85,0,0,1-.54,51.06,112.6,112.6,0,0,1-15,35.06A114.73,114.73,0,0,1,234.85,244a114.41,114.41,0,0,1-86.61,13.46Z" fill="#4a4844"/><path d="M289.57,146.49a113.88,113.88,0,0,1-3.15,26.68,112.6,112.6,0,0,1-15,35.06A114.94,114.94,0,0,1,234.85,244a114.18,114.18,0,0,1-121.63-1.66,114.43,114.43,0,0,1-35.57-36.61A114.15,114.15,0,0,1,79.48,84.34,114.43,114.43,0,0,1,115.82,49a114.27,114.27,0,0,1,59.51-16.72A114.28,114.28,0,0,1,287,122.1h0A113.82,113.82,0,0,1,289.57,146.49Z" fill="#c2e8e3" opacity="0.6"/><path d="M289.57,146.49a113.88,113.88,0,0,1-3.15,26.68c-16.29-3.23-31.92-8.68-41-17.85-36.32-36.55-70.22-9.07-70.22-9.07,31.14-49.2,77.12,3.84,111.79-24.14A113.82,113.82,0,0,1,289.57,146.49Z" fill="#dc624f" opacity="0.8"/><path d="M271.46,208.23A114.94,114.94,0,0,1,234.85,244c-9.26-13.82-16.48-28.76-16.44-41.72.17-51.53-43.25-56.06-43.25-56.06C232.05,133.46,227,203.67,271.46,208.23Z" fill="#dc624f" opacity="0.8"/><path d="M199.43,258.18a114.62,114.62,0,0,1-51.19-.69c3.23-16.29,8.69-31.91,17.87-41,36.55-36.31,9-70.21,9-70.21C224.43,177.42,171.18,223.49,199.43,258.18Z" fill="#dc624f" opacity="0.8"/><path d="M113.22,242.37a114.43,114.43,0,0,1-35.57-36.61c13.75-9.19,28.58-16.32,41.46-16.27,51.53.16,56.05-43.24,56.05-43.24C188,203.05,117.93,198.06,113.22,242.37Z" fill="#dc624f" opacity="0.8"/><path d="M175.16,146.25c-31.07,49.11-76.93-3.65-111.59,24a114.87,114.87,0,0,1,.76-50.83c16.15,3.23,31.59,8.68,40.62,17.77C141.27,173.74,175.16,146.25,175.16,146.25Z" fill="#dc624f" opacity="0.8"/><path d="M175.16,146.25C118.54,159,123.33,89.46,79.48,84.34A114.43,114.43,0,0,1,115.82,49c9.1,13.68,16.15,28.42,16.11,41.22C131.76,141.72,175.16,146.25,175.16,146.25Z" fill="#dc624f" opacity="0.8"/><path d="M184.23,76c-36.55,36.32-9.07,70.22-9.07,70.22-49-31,3.52-76.82-23.88-111.45a112.8,112.8,0,0,1,24.05-2.56A114,114,0,0,1,202,35.39C198.78,51.54,193.34,67,184.23,76Z" fill="#dc624f" opacity="0.8"/><path d="M272.7,86.73C259,95.92,244.11,103.05,231.23,103c-51.53-.15-56.07,43.25-56.07,43.25-12.74-56.7,57-51.83,61.94-95.87A114.52,114.52,0,0,1,272.7,86.73Z" fill="#dc624f" opacity="0.8"/><path d="M277.69,144.63a103.21,103.21,0,0,1-2.86,24.26,102.18,102.18,0,0,1-13.6,31.87,104.41,104.41,0,0,1-21,23.7,103.76,103.76,0,0,0,7.65-10.4,102.49,102.49,0,0,0,13.61-31.88,104.73,104.73,0,0,0,.48-46.42h0a102.93,102.93,0,0,0-13-32.15,104.21,104.21,0,0,0-32.36-33A103.72,103.72,0,0,0,94.06,78.14a103.89,103.89,0,0,1,181.26,44.32h0A104.41,104.41,0,0,1,277.69,144.63Z" fill="#c2e8e3" opacity="0.2"/><path d="M64.52,21.29c-5.44,3.15-10.37,4.79-11,3.69s3.25-4.56,8.69-7.7,10.37-4.79,11-3.68S70,18.15,64.52,21.29Z" fill="#f1ae44"/><path d="M63.82,21.78H75a0,0,0,0,1,0,0V32.24a3.47,3.47,0,0,1-3.47,3.47H67.29a3.47,3.47,0,0,1-3.47-3.47V21.78a0,0,0,0,1,0,0Z" transform="matrix(0.87, -0.5, 0.5, 0.87, -5.07, 38.56)" fill="#c4832d"/><path d="M67.27,26.07c-5.44,3.14-10.37,4.79-11,3.68L53.51,25c.64,1.1,5.57-.54,11-3.69s9.33-6.58,8.69-7.69L76,18.37C76.61,19.48,72.72,22.92,67.27,26.07Z" fill="#d59235"/><path d="M20.36,70.88c-3.52,5.22-7.23,8.85-8.29,8.14S13,73.5,16.51,68.29s7.23-8.84,8.29-8.12S23.87,65.68,20.36,70.88Z" fill="#f1ae44"/><path d="M22.42,68.47H33.64a0,0,0,0,1,0,0V78.93a3.47,3.47,0,0,1-3.47,3.47H25.89a3.47,3.47,0,0,1-3.47-3.47V68.47A0,0,0,0,1,22.42,68.47Z" transform="translate(-50.17 56.42) rotate(-55.95)" fill="#c4832d"/><path d="M24.92,74c-3.52,5.2-7.23,8.84-8.29,8.12L12.07,79c1.06.71,4.77-2.92,8.29-8.14s5.51-10,4.44-10.71l4.57,3.08C30.43,64,28.44,68.76,24.92,74Z" fill="#d59235"/><path d="M4.64,142.35c.15,6.29-.79,11.4-2.06,11.43S.15,148.73,0,142.45.81,131.06,2.09,131,4.51,136.07,4.64,142.35Z" fill="#f1ae44"/><path d="M7.93,134.67H19.15a0,0,0,0,1,0,0v10.46a3.47,3.47,0,0,1-3.47,3.47H11.4a3.47,3.47,0,0,1-3.47-3.47V134.67a0,0,0,0,1,0,0Z" transform="translate(-127.78 158.21) rotate(-91.23)" fill="#c4832d"/><path d="M10.16,142.24c.13,6.28-.79,11.4-2.08,11.42l-5.5.12c1.27,0,2.21-5.14,2.06-11.43S3.37,131,2.09,131l5.51-.12C8.88,130.88,10,136,10.16,142.24Z" fill="#d59235"/></g></g></g></svg>