<?xml version="1.0" encoding="utf-8"?>
<!-- Generator: Adobe Illustrator 26.0.0, SVG Export Plug-In . SVG Version: 6.00 Build 0)  -->
<svg version="1.1" id="asset" xmlns="http://www.w3.org/2000/svg" xmlns:xlink="http://www.w3.org/1999/xlink" x="0px" y="0px"
	 viewBox="0 0 2000 2000" enable-background="new 0 0 2000 2000" xml:space="preserve">
<g>
	<path fill="#8A6FE8" d="M1498.1,994.5c-36.4,9.9-125.6-5.7-181.4-33.1c-7.4,20.8-16.5,40.8-27.3,59.8
		c74.3,37.7,179.8,51.6,226.5,38.8L1498.1,994.5z"/>
	<path fill="#8A6FE8" d="M530.1,1254.4l40.2,57.3c2.6,3.6,5.8,6.7,9.6,9.1c3.8,2.4,8,3.9,12.3,4.7s8.9,0.6,13.2-0.4
		c4.3-1,8.4-2.8,12-5.4c3.6-2.6,6.7-5.8,9-9.6c2.4-3.8,4-7.9,4.7-12.3s0.6-8.9-0.4-13.2c-1-4.3-2.8-8.4-5.4-12l-49.7-69.3
		L530.1,1254.4z"/>
	<path fill="#8A6FE8" d="M460.8,1232.7l-11.1,69.2c-1.3,8.8,1,17.8,6.3,25s13.2,12,22.1,13.3c8.8,1.3,17.8-0.8,25-6.1
		s12-13.2,13.5-22l11.4-70.9L460.8,1232.7z"/>
	<path fill="#8A6FE8" d="M505.7,1240.5l-9.3,69.4c-0.6,4.4-0.2,8.9,0.9,13.2c1.2,4.3,3.2,8.3,5.9,11.8c2.7,3.5,6.1,6.5,9.9,8.7
		c3.8,2.2,8.1,3.6,12.5,4.2c4.4,0.6,8.9,0.2,13.2-0.9c4.3-1.2,8.3-3.2,11.8-5.9c3.5-2.7,6.5-6.1,8.7-9.9c2.2-3.8,3.6-8.1,4.2-12.5
		l9.6-71.2L505.7,1240.5z"/>
	<path fill="#8A6FE8" d="M443.4,1212l-25.1,65.4c-3,8.4-2.6,17.6,1.1,25.7c3.7,8.1,10.5,14.4,18.8,17.5c8.3,3.1,17.6,2.8,25.7-0.8
		c8.1-3.6,14.5-10.3,17.7-18.6l25.7-67.1L443.4,1212z"/>
	
		<linearGradient id="SVGID_1_" gradientUnits="userSpaceOnUse" x1="593.8129" y1="-10386.29" x2="593.8129" y2="-10005.4004" gradientTransform="matrix(1 0 0 1 0 11246)">
		<stop  offset="0.25" style="stop-color:#967FE6"/>
		<stop  offset="1" style="stop-color:#8A6FE8"/>
	</linearGradient>
	<path fill="url(#SVGID_1_)" d="M490,1240.6c-27.9-57-44.2-154.4,1.8-241.6c28-52.9,89.2-120,222.3-139.3l10.7,73.8
		c-80.8,11.7-138.5,46.4-167,100.3c-30.8,58.4-22.6,129.4-0.8,174L490,1240.6z"/>
	
		<radialGradient id="SVGID_00000035501702140998367450000016228891852740776356_" cx="6197.8809" cy="-3585.9683" r="7.247061e-03" gradientTransform="matrix(9504.0703 0 0 9504.0996 -58904360 34082288)" gradientUnits="userSpaceOnUse">
		<stop  offset="0" style="stop-color:#8065E0"/>
		<stop  offset="1" style="stop-color:#512BD4"/>
	</radialGradient>
	<path fill="url(#SVGID_00000035501702140998367450000016228891852740776356_)" d="M739.7,954.3c13.6,0,27-4,38.3-11.6
		s20.2-18.3,25.4-30.9c5.2-12.6,6.6-26.4,3.9-39.8c-2.7-13.4-9.2-25.6-18.9-35.3c-9.6-9.6-21.9-16.2-35.3-18.9s-27.2-1.3-39.8,3.9
		c-12.6,5.2-23.3,14-30.9,25.4s-11.6,24.7-11.6,38.3c0,9,1.8,18,5.2,26.4c3.5,8.4,8.5,16,14.9,22.3c6.4,6.4,14,11.5,22.4,14.9
		C721.6,952.5,730.6,954.3,739.7,954.3L739.7,954.3z"/>
	
		<radialGradient id="SVGID_00000175299635741917413020000013887865479577332411_" cx="6220.2227" cy="-3550.0803" r="3.635927e-03" gradientTransform="matrix(19464.0996 0 0 19464.0996 -121070512 69100320)" gradientUnits="userSpaceOnUse">
		<stop  offset="0" style="stop-color:#8065E0"/>
		<stop  offset="1" style="stop-color:#512BD4"/>
	</radialGradient>
	<path fill="url(#SVGID_00000175299635741917413020000013887865479577332411_)" d="M509.3,1277.5c14,0,27.7-4.2,39.3-11.9
		c11.6-7.8,20.7-18.8,26.1-31.8s6.8-27.2,4-40.9c-2.7-13.7-9.5-26.3-19.4-36.2s-22.5-16.6-36.2-19.4c-13.7-2.7-28-1.3-40.9,4
		c-12.9,5.4-24,14.4-31.8,26.1c-7.8,11.6-11.9,25.3-11.9,39.3c0,9.3,1.8,18.5,5.4,27.1c3.6,8.6,8.8,16.4,15.3,23
		c6.6,6.6,14.4,11.8,23,15.3C490.8,1275.7,500,1277.5,509.3,1277.5z"/>
	<path fill="#8A6FE8" d="M1484.5,919.5l-49.4,81c-4.2,6.9-5.6,15.2-3.7,23.1c1.9,7.9,6.9,14.7,13.8,18.9c6.9,4.2,15.2,5.6,23.1,3.7
		s14.7-6.9,18.9-13.8l49.4-81c2.1-3.4,3.6-7.2,4.2-11.2c0.7-4,0.5-8.1-0.4-12c-0.9-3.9-2.6-7.7-5-10.9c-2.4-3.3-5.4-6-8.8-8.2
		c-3.5-2.1-7.3-3.5-11.3-4.1c-4-0.6-8.1-0.4-12,0.5c-3.9,1-7.6,2.7-10.9,5.1C1489.3,913,1486.6,916,1484.5,919.5L1484.5,919.5z"/>
	<circle fill="#FFDFEF" cx="1519.1" cy="737" r="137.8"/>
	<polygon fill="#FFDFEF" points="1539.7,1205.3 1512.4,1205.7 1507.1,856 1534.3,855.6 	"/>
	<path fill="#FF4C00" d="M1526.1,689.1l-3.4,0c-5,0.1-9-3.9-9.1-8.9l-0.4-31.7c-0.1-5,3.9-9,8.9-9.1l3.4,0c5-0.1,9,3.9,9.1,8.9
		l0.4,31.7C1535,685,1531,689.1,1526.1,689.1z"/>
	<path fill="#FFFFFF" d="M1491.2,668.4l-2.4,2.5c-3.5,3.6-9.2,3.6-12.7,0.2l-22.7-22.1c-3.6-3.5-3.6-9.2-0.2-12.7l2.4-2.5
		c3.5-3.6,9.2-3.6,12.7-0.2l22.7,22.1C1494.6,659.2,1494.7,664.9,1491.2,668.4z"/>
	<path fill="#FFA600" d="M1498.1,693.6l0.9,3.3c1.3,4.8-1.5,9.7-6.3,11.1l-30.6,8.4c-4.8,1.3-9.7-1.5-11.1-6.3l-0.9-3.3
		c-1.3-4.8,1.5-9.7,6.3-11.1l30.6-8.4C1491.8,686,1496.7,688.8,1498.1,693.6z"/>
	<path fill="#E000AA" d="M1486.9,732.5l3,1.7c4.3,2.5,5.8,7.9,3.4,12.3l-15.6,27.6c-2.4,4.3-7.9,5.8-12.3,3.4l-3-1.7
		c-4.3-2.5-5.8-7.9-3.4-12.3l15.6-27.6C1477.1,731.6,1482.5,730.1,1486.9,732.5z"/>
	<path fill="#FFFFFF" d="M1562.2,651.2l2.1-2.8c3-4,8.6-4.7,12.6-1.7l25.3,19.1c4,3,4.7,8.6,1.7,12.6l-2.1,2.8
		c-3,4-8.6,4.7-12.6,1.7l-25.3-19.1C1559.9,660.8,1559.2,655.2,1562.2,651.2z"/>
	<path fill="#FFFFFF" d="M1598.4,743.6l-0.5-3.4c-0.7-4.9,2.8-9.5,7.7-10.1l31.4-4.3c4.9-0.7,9.5,2.8,10.1,7.7l0.5,3.4
		c0.7,4.9-2.8,9.5-7.7,10.1l-31.4,4.3C1603.6,752,1599.1,748.5,1598.4,743.6z"/>
	<path fill="#FFA600" d="M1562.9,749.3l-3.2-1.3c-4.6-1.9-6.8-7.2-4.9-11.7l12.1-29.3c1.9-4.6,7.2-6.8,11.7-4.9l3.2,1.3
		c4.6,1.9,6.8,7.2,4.9,11.7l-12.1,29.3C1572.7,749,1567.5,751.2,1562.9,749.3z"/>
	<path fill="#E000AA" d="M1540.6,760.4l-3.2,1.3c-4.6,1.9-9.8-0.3-11.8-4.8l-12.2-29.3c-1.9-4.6,0.3-9.8,4.8-11.8l3.2-1.3
		c4.6-1.9,9.8,0.3,11.8,4.8l12.2,29.3C1547.3,753.2,1545.2,758.5,1540.6,760.4z"/>
	<path fill="#FF4C00" d="M1515.8,820.8l1.2,3.2c1.8,4.7-0.6,9.8-5.2,11.6l-29.7,11.2c-4.7,1.8-9.8-0.6-11.6-5.2l-1.2-3.2
		c-1.8-4.7,0.6-9.8,5.2-11.6l29.7-11.2C1508.9,813.8,1514.1,816.2,1515.8,820.8z"/>
	<path fill="#FFFFFF" d="M1507.3,784.5l1.4-3.1c2.1-4.5,7.4-6.5,11.9-4.4l28.8,13.2c4.5,2.1,6.5,7.4,4.4,11.9l-1.4,3.1
		c-2.1,4.5-7.4,6.5-11.9,4.4l-28.8-13.2C1507.2,794.4,1505.2,789,1507.3,784.5z"/>
	<path fill="#FF4C00" d="M1583.1,773.6l3.1-1.5c4.4-2.2,9.8-0.4,12.1,4l14.2,28.3c2.2,4.4,0.4,9.8-4,12.1l-3.1,1.5
		c-4.4,2.2-9.8,0.4-12.1-4l-14.2-28.3C1576.9,781.2,1578.7,775.8,1583.1,773.6z"/>
	<path fill="#FFA600" d="M1416.4,764l3.1-1.5c4.4-2.2,9.8-0.4,12.1,4l14.2,28.3c2.2,4.4,0.4,9.8-4,12.1l-3.1,1.5
		c-4.4,2.2-9.8,0.4-12.1-4l-14.2-28.3C1410.2,771.6,1412,766.2,1416.4,764z"/>
	<path fill="#E000AA" d="M1424.7,678.2l2.9,1.9c4.1,2.8,5.3,8.3,2.5,12.5l-17.5,26.4c-2.8,4.1-8.3,5.3-12.5,2.5l-2.9-1.9
		c-4.1-2.8-5.3-8.3-2.5-12.5l17.5-26.4C1415,676.6,1420.6,675.5,1424.7,678.2z"/>
	
		<radialGradient id="SVGID_00000129165020777743162200000010014168141545049007_" cx="5757.6533" cy="-4681.2007" r="1" gradientTransform="matrix(60.5612 -21.9975 21.9976 60.5616 -244219.6875 411198.375)" gradientUnits="userSpaceOnUse">
		<stop  offset="0" style="stop-color:#8065E0"/>
		<stop  offset="1" style="stop-color:#512BD4"/>
	</radialGradient>
	<path fill="url(#SVGID_00000129165020777743162200000010014168141545049007_)" d="M1511.1,1097.4c12-4.3,22.4-12.2,29.9-22.4
		c7.5-10.3,11.9-22.6,12.4-35.3s-2.7-25.3-9.3-36.2c-6.6-10.9-16.3-19.6-27.8-25s-24.4-7.2-37-5.3s-24.3,7.5-33.7,16.2
		c-9.4,8.6-16.1,19.8-19.1,32.2c-3,12.4-2.3,25.4,2,37.4c5.8,16.1,17.8,29.2,33.3,36.4C1477.3,1102.5,1495,1103.3,1511.1,1097.4z"/>
	<path fill="#8A6FE8" d="M1583.8,1111.7c-0.2,8.6-3.7,16.7-9.8,22.7s-14.3,9.4-22.9,9.5l-43.1,0.4c-8.8,0-17.2-3.5-23.4-9.6
		s-9.7-14.6-9.7-23.3c0-8.8,3.5-17.2,9.6-23.4s14.6-9.7,23.3-9.7l42.6-0.4c4.4,0,8.8,0.8,12.9,2.5c4.1,1.7,7.8,4.2,10.9,7.3
		c3.1,3.2,5.6,6.9,7.2,11C1583.1,1102.9,1583.9,1107.3,1583.8,1111.7L1583.8,1111.7z"/>
	<path fill="#8A6FE8" d="M1607.8,1065.2c-0.2,8.6-3.7,16.7-9.8,22.7c-6.1,6-14.3,9.4-22.9,9.5l-75.3,2.3c-4.3,0-8.6-0.8-12.6-2.5
		c-4-1.7-7.7-4.1-10.7-7.1s-5.5-6.7-7.2-10.7c-1.7-4-2.5-8.3-2.5-12.6c0-4.3,0.8-8.6,2.5-12.6s4.1-7.7,7.1-10.7s6.7-5.5,10.7-7.2
		c4-1.7,8.3-2.5,12.6-2.5l74.8-2.3C1606.4,1031.7,1607.8,1065.2,1607.8,1065.2z"/>
	<path fill="#8A6FE8" d="M1580.4,1016.4c-0.2,8.6-3.7,16.7-9.8,22.7s-14.3,9.4-22.9,9.5l-54.1,1.4c-4.3,0-8.6-0.8-12.6-2.5
		c-4-1.7-7.7-4.1-10.7-7.1s-5.5-6.7-7.2-10.7s-2.5-8.3-2.5-12.6c0-4.3,0.8-8.6,2.5-12.6c1.7-4,4.1-7.7,7.2-10.7
		c3.1-3.1,6.7-5.5,10.7-7.2c4-1.7,8.3-2.5,12.6-2.5l53.6-1.4c4.4,0,8.8,0.8,12.9,2.5s7.8,4.2,10.9,7.3c3.1,3.2,5.6,6.9,7.2,11
		C1579.7,1007.6,1580.5,1012,1580.4,1016.4L1580.4,1016.4z"/>
</g>
</svg>
