<?xml version="1.0" encoding="utf-8"?>
<!-- Generator: Adobe Illustrator 26.0.0, SVG Export Plug-In . SVG Version: 6.00 Build 0)  -->
<svg version="1.1" id="asset" xmlns="http://www.w3.org/2000/svg" xmlns:xlink="http://www.w3.org/1999/xlink" x="0px" y="0px"
	 viewBox="0 0 2000 2000" style="enable-background:new 0 0 2000 2000;" xml:space="preserve">
<style type="text/css">
	.st0{fill:#8A6FE8;}
	.st1{fill:url(#SVGID_1_);}
	.st2{fill:url(#SVGID_00000134210136092630017680000013166615108535239076_);}
	.st3{fill:#E3DBFF;}
	.st4{fill:#FF5311;}
	.st5{fill:url(#SVGID_00000102507710728838618720000004555304458874592176_);}
	.st6{fill:#D600AA;}
	.st7{fill:url(#SVGID_00000025423657566529878780000000372851275467655564_);}
	.st8{fill:url(#SVGID_00000041286431158568101580000018156755688615259780_);}
	.st9{fill:url(#SVGID_00000171682785554305114870000012187848608781467275_);}
	.st10{fill:url(#SVGID_00000025425346077178714340000010138045403973213589_);}
</style>
<g>
	<path class="st0" d="M1314.74,967.04c-8.35,22.47-18.79,43.93-31.08,64.13c58.15,58.22,148.32,104.24,195.3,108.06l5.61-68.49
		C1443.76,1067.37,1355.6,1015.2,1314.74,967.04z"/>
	<path class="st0" d="M1497.5,994.59l-75.06,59.97c-6.43,5.13-10.55,12.6-11.47,20.77c-0.92,8.17,1.44,16.37,6.57,22.8
		s12.6,10.56,20.78,11.47c8.17,0.92,16.37-1.45,22.8-6.58l75.04-59.97c3.22-2.52,5.92-5.66,7.93-9.23c2-3.57,3.28-7.5,3.76-11.57
		s0.15-8.19-0.98-12.13c-1.12-3.94-3.01-7.62-5.57-10.82c-2.55-3.2-5.72-5.87-9.31-7.84c-3.59-1.97-7.53-3.21-11.61-3.65
		c-4.07-0.44-8.19-0.07-12.12,1.1C1504.33,990.07,1500.68,992,1497.5,994.59z"/>
	
		<radialGradient id="SVGID_1_" cx="2070.5037" cy="-4413.4092" r="1" gradientTransform="matrix(65.2535 0 0 65.2533 -133637.25 289123.0312)" gradientUnits="userSpaceOnUse">
		<stop  offset="0" style="stop-color:#8065E0"/>
		<stop  offset="1" style="stop-color:#512BD4"/>
	</radialGradient>
	<path class="st1" d="M1461.27,1173.18c15.11,0,29.75-5.24,41.42-14.82c11.68-9.58,19.67-22.91,22.62-37.73
		c2.95-14.81,0.67-30.19-6.45-43.51c-7.12-13.32-18.63-23.76-32.59-29.54c-13.95-5.78-29.48-6.55-43.93-2.16
		c-14.46,4.38-26.94,13.64-35.34,26.2c-8.39,12.56-12.17,27.64-10.69,42.67c1.48,15.03,8.13,29.08,18.8,39.77
		C1427.36,1166.3,1443.96,1173.17,1461.27,1173.18z"/>
	<path class="st0" d="M527.33,1260.29l40.7,58.07c5.27,7.4,13.26,12.4,22.21,13.91s18.14-0.6,25.54-5.86
		c3.67-2.6,6.79-5.9,9.18-9.71c2.39-3.81,4.01-8.05,4.77-12.49c0.75-4.43,0.62-8.97-0.38-13.36c-1-4.38-2.86-8.53-5.47-12.19
		l-50.37-70.19L527.33,1260.29z"/>
	<path class="st0" d="M457.15,1238.31l-11.26,70.05c-1.32,8.95,0.96,18.05,6.34,25.32s13.41,12.12,22.34,13.49
		c8.94,1.37,18.05-0.86,25.35-6.19c7.3-5.33,12.2-13.33,13.62-22.26l11.52-71.78L457.15,1238.31z"/>
	<path class="st0" d="M502.61,1246.22l-9.46,70.31c-0.86,6.71,0.3,13.53,3.31,19.59c3.02,6.06,7.76,11.09,13.63,14.46
		c5.88,3.36,12.62,4.91,19.37,4.44c6.76-0.47,13.22-2.93,18.58-7.08c3.56-2.75,6.54-6.17,8.77-10.07c2.23-3.9,3.67-8.21,4.24-12.66
		l9.72-72.11L502.61,1246.22z"/>
	<path class="st0" d="M439.54,1217.37l-25.41,66.24c-3.07,8.47-2.68,17.82,1.09,26c3.77,8.19,10.62,14.56,19.06,17.72
		c8.44,3.17,17.79,2.88,26.01-0.81c8.23-3.68,14.67-10.46,17.93-18.87l26.06-67.91L439.54,1217.37z"/>
	
		<linearGradient id="SVGID_00000065776088217559228460000015140479695479282848_" gradientUnits="userSpaceOnUse" x1="27.8701" y1="-9849.2051" x2="27.8701" y2="-9463.4453" gradientTransform="matrix(1 0 0 1 564 10709.7852)">
		<stop  offset="0.25" style="stop-color:#967FE6"/>
		<stop  offset="1" style="stop-color:#8A6FE8"/>
	</linearGradient>
	<path style="fill:url(#SVGID_00000065776088217559228460000015140479695479282848_);" d="M486.71,1246.34
		c-28.27-57.73-44.77-156.41,1.8-244.69c28.36-53.59,90.33-121.53,225.12-141.07l10.83,74.73
		c-81.83,11.85-140.29,46.98-169.14,101.6c-31.24,59.15-22.89,131.08-0.79,176.22L486.71,1246.34z"/>
	<path class="st3" d="M1486.26,1127.63l-97.05-569.85l7.98-1.36l87.93,516.31l64.28-501.53l8.05,1.01L1486.26,1127.63z"/>
	<path class="st4" d="M1400.38,604.33l27.45,26.47l-40.78,8.92L1400.38,604.33z"/>
	
		<linearGradient id="SVGID_00000008829885037381373960000008827075299446232967_" gradientUnits="userSpaceOnUse" x1="728.1783" y1="-10343.2275" x2="947.9064" y2="-10218.0693" gradientTransform="matrix(1 0 0 1 564 10709.7852)">
		<stop  offset="0" style="stop-color:#FF7951"/>
		<stop  offset="1" style="stop-color:#FF2078"/>
	</linearGradient>
	<path style="fill:url(#SVGID_00000008829885037381373960000008827075299446232967_);" d="M1207.87,416.86
		c19.03,86.98,147.29,209.9,198.2,198.76c49.12-10.76,116.09-176.41,97.06-263.32c-19.03-86.92-100.56-143.01-182.1-125.17
		C1239.5,244.98,1188.84,329.89,1207.87,416.86z"/>
	<path class="st6" d="M1541.13,678.22l15.03,35.03l-41.05-7.58L1541.13,678.22z"/>
	<path class="st6" d="M1436.35,430.78c-16.21,87.54,54.39,250.58,105.64,260.05c49.46,9.11,175.4-117.59,191.58-205.15
		c16.17-87.56-37.25-170.86-119.33-186.05C1532.17,284.44,1452.52,343.18,1436.35,430.78z"/>
	<path class="st3" d="M1478.61,545.6l-3.25,548.06h8.1l3.26-548.07L1478.61,545.6z"/>
	
		<linearGradient id="SVGID_00000150793467089335934070000001126173250252236441_" gradientUnits="userSpaceOnUse" x1="884.3804" y1="-10168.1152" x2="929.2504" y2="-10132.2881" gradientTransform="matrix(1 0 0 1 564 10709.7852)">
		<stop  offset="0" style="stop-color:#D600AA"/>
		<stop  offset="1" style="stop-color:#512BD4"/>
	</linearGradient>
	<path style="fill:url(#SVGID_00000150793467089335934070000001126173250252236441_);" d="M1482.54,544.86l21.15,31.73h-41.74
		L1482.54,544.86z"/>
	
		<linearGradient id="SVGID_00000023992580895997891880000017156822080056488840_" gradientUnits="userSpaceOnUse" x1="627.2227" y1="-10492.8506" x2="1065.9175" y2="-10290.4424" gradientTransform="matrix(1 0 0 1 564 10709.7852)">
		<stop  offset="0" style="stop-color:#D600AA"/>
		<stop  offset="1" style="stop-color:#512BD4"/>
	</linearGradient>
	<path style="fill:url(#SVGID_00000023992580895997891880000017156822080056488840_);" d="M1334.53,320.57
		c0,89.03,99.01,236.53,151.13,236.53c50.29,0,151.13-147.5,151.13-236.53s-67.67-161.2-151.13-161.2
		C1402.19,159.36,1334.53,231.54,1334.53,320.57z"/>
	<path class="st0" d="M1525.57,1211.9c-3.15,8.08-9.33,14.62-17.21,18.23c-7.89,3.62-16.88,4.02-25.06,1.13l-41.17-14.5
		c-4.13-1.5-7.93-3.79-11.17-6.75s-5.87-6.53-7.74-10.51c-1.86-3.97-2.93-8.28-3.13-12.67c-0.2-4.38,0.47-8.77,1.96-12.9
		c1.5-4.13,3.79-7.92,6.75-11.17c2.96-3.24,6.53-5.87,10.51-7.74c3.97-1.86,8.28-2.93,12.67-3.13c4.38-0.2,8.77,0.47,12.9,1.96
		l40.69,14.34c4.23,1.5,8.12,3.82,11.43,6.85c3.31,3.02,5.97,6.68,7.84,10.76s2.89,8.49,3.02,12.97
		C1527.99,1203.26,1527.21,1207.72,1525.57,1211.9z"/>
	<path class="st0" d="M1564.49,1175.91c-3.15,8.09-9.33,14.63-17.22,18.24s-16.88,4.01-25.06,1.12l-72.44-23.85
		c-4.13-1.5-7.93-3.79-11.18-6.75c-3.24-2.96-5.87-6.53-7.74-10.51c-1.86-3.98-2.92-8.28-3.13-12.67c-0.2-4.39,0.47-8.77,1.96-12.9
		c1.5-4.13,3.79-7.93,6.75-11.17s6.53-5.88,10.51-7.74s8.28-2.93,12.67-3.13s8.77,0.46,12.9,1.96l71.98,23.7
		C1574.79,1143.56,1564.49,1175.91,1564.49,1175.91z"/>
	<path class="st0" d="M1555.31,1119.99c-3.15,8.08-9.33,14.62-17.22,18.24c-7.89,3.61-16.87,4.02-25.05,1.13l-51.96-17.36
		c-8.34-3.02-15.14-9.22-18.91-17.26c-3.76-8.03-4.18-17.23-1.17-25.57c3.02-8.34,9.22-15.14,17.26-18.91
		c8.03-3.77,17.23-4.19,25.57-1.17l51.48,17.22c4.22,1.49,8.11,3.82,11.42,6.84c3.3,3.02,5.97,6.68,7.84,10.76
		c1.86,4.07,2.89,8.48,3.02,12.96C1557.72,1111.35,1556.94,1115.81,1555.31,1119.99z"/>
	
		<radialGradient id="SVGID_00000014632865054527925380000017549631699074150557_" cx="3192.4858" cy="-3164.9524" r="3.634579e-03" gradientTransform="matrix(19464.0996 0 0 19464.0996 -62138348 61604156)" gradientUnits="userSpaceOnUse">
		<stop  offset="0" style="stop-color:#8065E0"/>
		<stop  offset="1" style="stop-color:#512BD4"/>
	</radialGradient>
	<path style="fill:url(#SVGID_00000014632865054527925380000017549631699074150557_);" d="M507.29,1282.41
		c14,0,27.68-4.15,39.32-11.93c11.64-7.77,20.71-18.83,26.07-31.76s6.76-27.16,4.03-40.89c-2.73-13.72-9.47-26.33-19.37-36.23
		s-22.51-16.64-36.24-19.37c-13.73-2.73-27.96-1.33-40.89,4.03c-12.93,5.36-23.98,14.43-31.76,26.06
		c-7.78,11.64-11.93,25.32-11.93,39.32c0,9.29,1.83,18.5,5.38,27.08c3.56,8.59,8.77,16.39,15.34,22.97
		c6.57,6.57,14.37,11.78,22.96,15.34C488.79,1280.58,497.99,1282.41,507.29,1282.41z"/>
	
		<radialGradient id="SVGID_00000111155638584219336880000015840348478062025131_" cx="3192.4976" cy="-3164.969" r="3.634579e-03" gradientTransform="matrix(19464.0996 0 0 19464.0996 -62138348 61604156)" gradientUnits="userSpaceOnUse">
		<stop  offset="0" style="stop-color:#8065E0"/>
		<stop  offset="1" style="stop-color:#512BD4"/>
	</radialGradient>
	<path style="fill:url(#SVGID_00000111155638584219336880000015840348478062025131_);" d="M739.55,957.36
		c14,0,27.68-4.15,39.32-11.93c11.64-7.77,20.71-18.83,26.07-31.76s6.76-27.16,4.03-40.89c-2.73-13.72-9.47-26.33-19.37-36.23
		s-22.51-16.64-36.24-19.37s-27.96-1.33-40.89,4.03c-12.93,5.36-23.98,14.43-31.76,26.06c-7.78,11.64-11.93,25.32-11.93,39.32
		c0,9.29,1.83,18.5,5.38,27.08c3.56,8.59,8.77,16.39,15.34,22.97c6.57,6.57,14.37,11.78,22.96,15.34
		C721.05,955.53,730.25,957.36,739.55,957.36z"/>
</g>
</svg>
