<?xml version="1.0" encoding="utf-8"?>
<!-- Generator: Adobe Illustrator 26.0.0, SVG Export Plug-In . SVG Version: 6.00 Build 0)  -->
<svg version="1.1" id="asset" xmlns="http://www.w3.org/2000/svg" xmlns:xlink="http://www.w3.org/1999/xlink" x="0px" y="0px"
	 viewBox="0 0 2000 2000" style="enable-background:new 0 0 2000 2000;" xml:space="preserve">
<style type="text/css">
	.st0{fill:#8A6FE8;}
	.st1{fill:url(#SVGID_1_);}
	.st2{fill:#D600AA;}
	.st3{fill:#FF6AE0;}
	.st4{fill:url(#SVGID_00000016782124579682069460000017906469952507849371_);}
	.st5{fill:url(#SVGID_00000180358024647784638960000009541475901549590954_);}
	.st6{fill:#FFA34B;}
	.st7{fill:#F7B548;}
	.st8{fill:#FFA04B;}
	.st9{fill:#EEAE44;}
	.st10{fill:#FFE5B9;}
	.st11{fill:#FFD590;}
	.st12{fill:url(#SVGID_00000136379929650525280170000010554638920153880994_);}
</style>
<g>
	<path class="st0" d="M1310.8,977.15c-9.06,22.36-20.2,43.64-33.18,63.62c57.2,63,155.28,114.34,204.97,118.37l5.66-68.42
		C1444.65,1087.13,1346.92,1027.75,1310.8,977.15z"/>
	<path class="st0" d="M1539.23,1028.67l-89.7,34.05c-7.45,3.07-13.42,8.92-16.62,16.31c-3.21,7.39-3.41,15.75-0.55,23.28
		c2.85,7.54,8.53,13.67,15.83,17.08c7.3,3.42,15.65,3.85,23.26,1.21l89.71-34.05c7.68-2.91,13.89-8.75,17.26-16.24
		c3.38-7.49,3.64-16.01,0.73-23.69c-2.91-7.68-8.75-13.89-16.23-17.27c-7.49-3.38-16.01-3.64-23.69-0.73V1028.67z"/>
	<path class="st0" d="M1429.37,1179.87l38.26,51.96c4.96,6.55,12.31,10.87,20.44,12.02c8.13,1.15,16.39-0.96,22.98-5.87
		c6.58-4.91,10.96-12.22,12.18-20.35c1.21-8.12-0.83-16.4-5.69-23.02l-39.23-53.33L1429.37,1179.87z"/>
	<path class="st0" d="M1464.09,1182.99l77.67,43.42c7.22,3.92,15.69,4.82,23.58,2.52c7.88-2.3,14.54-7.62,18.52-14.81
		c3.98-7.19,4.96-15.65,2.72-23.56c-2.23-7.9-7.49-14.61-14.64-18.65l-57.66-32.48L1464.09,1182.99z"/>
	<path class="st0" d="M1473.81,1146.2l85.57,24.71c3.93,1.14,8.04,1.49,12.11,1.04s8-1.7,11.58-3.67c3.59-1.97,6.75-4.63,9.3-7.82
		c2.56-3.19,4.46-6.86,5.6-10.78s1.5-8.04,1.05-12.11c-0.45-4.06-1.7-8-3.67-11.58s-4.63-6.74-7.82-9.3s-6.86-4.46-10.79-5.6
		l-87.16-25.18L1473.81,1146.2z"/>
	
		<radialGradient id="SVGID_1_" cx="-300.1637" cy="5939.1133" r="1" gradientTransform="matrix(65.1781 0 0 -65.1781 21022.5742 388230.5312)" gradientUnits="userSpaceOnUse">
		<stop  offset="0" style="stop-color:#8065E0"/>
		<stop  offset="1" style="stop-color:#512BD4"/>
	</radialGradient>
	<path class="st1" d="M1464.94,1193.07c12.89,0,25.49-3.82,36.21-10.98s19.08-17.34,24.01-29.26c4.93-11.91,6.22-25.02,3.71-37.66
		c-2.52-12.64-8.72-24.26-17.84-33.38s-20.73-15.32-33.38-17.84c-12.64-2.52-25.75-1.22-37.66,3.71
		c-11.91,4.93-22.09,13.29-29.25,24.01s-10.99,23.32-10.99,36.21c0,17.29,6.87,33.87,19.1,46.09S1447.65,1193.07,1464.94,1193.07z"
		/>
	<path class="st2" d="M1490.24,1178.18l-148.09-41.51v-224.5l148.09,41.51V1178.18z"/>
	<path class="st3" d="M1490.24,1178.18l148.03-50.93V902.73l-148.03,50.94V1178.18z"/>
	
		<linearGradient id="SVGID_00000047036909692502567560000011811951275769434756_" gradientUnits="userSpaceOnUse" x1="25.963" y1="10782.1426" x2="328.8875" y2="10707.5684" gradientTransform="matrix(1 0 0 -1 564 11780)">
		<stop  offset="0.25" style="stop-color:#967FE6"/>
		<stop  offset="1" style="stop-color:#8A6FE8"/>
	</linearGradient>
	<path style="fill:url(#SVGID_00000047036909692502567560000011811951275769434756_);" d="M752.09,1243.12
		c-35.18-8.66-65.11-19.64-89.51-32.87c-44.7-24.28-72.67-56.49-83.14-95.86c-7.08-26.5-5.74-55.32,3.89-85.64
		c7.85-24.71,21.31-50.58,40.01-76.88c29.92-42.03,74.47-86.16,122.25-121.05l42.96,58.82c-41.72,30.47-80.3,68.55-105.86,104.47
		c-36.02,50.58-37.75,83.15-32.87,101.55c12.14,45.52,85.12,77.96,205.64,91.42l-8.09,72.39
		C812.31,1255.57,780.55,1250.12,752.09,1243.12z"/>
	
		<radialGradient id="SVGID_00000136410718238496249650000013479040180447882943_" cx="-995.0758" cy="5559.3857" r="7.250892e-03" gradientTransform="matrix(9615.46 0 0 -9615.4697 9568853 53456992)" gradientUnits="userSpaceOnUse">
		<stop  offset="0" style="stop-color:#8065E0"/>
		<stop  offset="1" style="stop-color:#512BD4"/>
	</radialGradient>
	<path style="fill:url(#SVGID_00000136410718238496249650000013479040180447882943_);" d="M740.41,957.28
		c13.79,0,27.27-4.08,38.73-11.74c11.46-7.66,20.4-18.55,25.68-31.28c5.28-12.74,6.66-26.75,3.97-40.28
		c-2.69-13.52-9.33-25.94-19.08-35.69s-22.17-16.39-35.69-19.08s-27.54-1.31-40.28,3.97c-12.74,5.28-23.62,14.21-31.28,25.68
		c-7.66,11.47-11.75,24.94-11.74,38.73c0,18.48,7.34,36.21,20.41,49.28C704.19,949.94,721.92,957.28,740.41,957.28z"/>
	<path class="st6" d="M827.01,958.97c0,0-27.67-15.58-54.37-30.58c-32.8-18.42,9.34-52.22,25.51-24.05
		C810.99,926.71,827.01,958.97,827.01,958.97z"/>
	<path class="st7" d="M820.63,944.04c0,0-45.94,12.4-76.63,20.41c-40.8,10.65-44.6-48.36-2.09-38.64
		C792.51,937.39,820.63,944.04,820.63,944.04z"/>
	<path class="st7" d="M810.07,963.39c0,0,16.52-27.11,32.48-53.26c19.6-32.1-33.67-40.98-34-8.51
		C808.26,927.4,810.07,963.39,810.07,963.39z"/>
	<path class="st8" d="M808.33,947.26c0,0,46.14-11.64,76.83-19.65c40.8-10.65,15.26-63.99-17.07-34.73
		C829.62,927.7,808.33,947.26,808.33,947.26z"/>
	<path class="st9" d="M696.67,1292.28l36.36-9.49L654.6,987.27l-36.36,9.49L696.67,1292.28z"/>
	<path class="st10" d="M978.12,927.12l-330.95,85.3l70.72,274.39l330.95-85.3L978.12,927.12z"/>
	<path class="st11" d="M984.41,901.4l-330.12,86.17l16.2,62.04l330.12-86.17L984.41,901.4z"/>
	<path class="st7" d="M634.49,1059.42l36.59-9.43l-16.03-62.2l-36.59,9.43L634.49,1059.42z"/>
	
		<linearGradient id="SVGID_00000023268870945509828530000009999734536998333588_" gradientUnits="userSpaceOnUse" x1="233.1674" y1="10695.8389" x2="330.2965" y2="10699.2275" gradientTransform="matrix(1 0 0 -1 564 11780)">
		<stop  offset="0.1094" style="stop-color:#FFBE46"/>
		<stop  offset="0.7894" style="stop-color:#FF7951"/>
	</linearGradient>
	<path style="fill:url(#SVGID_00000023268870945509828530000009999734536998333588_);" d="M832.58,941.08l-37.1,9.68l71.22,272.82
		l37.09-9.68L832.58,941.08z"/>
	<path class="st0" d="M926.16,1150.96c8.8,1.06,16.85,5.5,22.45,12.38c5.59,6.88,8.3,15.66,7.54,24.5l-3.86,55.84
		c-0.85,9.03-5.25,17.35-12.23,23.13s-15.98,8.56-25,7.71c-9.03-0.85-17.35-5.25-23.13-12.23s-8.55-15.98-7.71-25l3.83-55.32
		c0.4-4.57,1.7-9.01,3.85-13.06c2.14-4.05,5.08-7.63,8.64-10.52s7.66-5.04,12.06-6.31C917,1150.79,921.61,1150.41,926.16,1150.96z"
		/>
	<path class="st0" d="M860.65,1165.05c8.8,1.06,16.85,5.49,22.45,12.37c5.59,6.88,8.3,15.67,7.54,24.5l-3.86,55.84
		c-0.85,9.03-5.25,17.35-12.23,23.13s-15.98,8.56-25,7.71c-9.03-0.85-17.35-5.25-23.13-12.23s-8.56-15.98-7.71-25l3.83-55.33
		c0.4-4.57,1.7-9.01,3.85-13.06c2.15-4.05,5.08-7.63,8.64-10.52s7.66-5.04,12.06-6.31C851.49,1164.88,856.1,1164.5,860.65,1165.05z"
		/>
	<path class="st0" d="M796.29,1182.92c8.8,1.06,16.85,5.49,22.45,12.37c5.59,6.88,8.3,15.67,7.53,24.5l-3.86,55.83
		c-0.37,4.51-1.63,8.9-3.71,12.91s-4.93,7.58-8.4,10.49c-3.47,2.91-7.47,5.09-11.79,6.44s-8.86,1.82-13.36,1.4
		s-8.88-1.73-12.87-3.86c-3.99-2.12-7.52-5.02-10.39-8.52s-5.01-7.53-6.3-11.87c-1.29-4.33-1.72-8.88-1.24-13.38l3.82-55.33
		c0.4-4.57,1.71-9,3.85-13.05c2.15-4.05,5.08-7.62,8.64-10.52c3.56-2.89,7.66-5.04,12.06-6.31
		C787.12,1182.75,791.74,1182.38,796.29,1182.92z"/>
</g>
</svg>
