<?xml version="1.0" encoding="utf-8"?>
<!-- Generator: Adobe Illustrator 24.2.0, SVG Export Plug-In . SVG Version: 6.00 Build 0)  -->
<svg version="1.1" id="asset" xmlns="http://www.w3.org/2000/svg" xmlns:xlink="http://www.w3.org/1999/xlink" x="0px" y="0px"
	 viewBox="0 0 2000 2000" enable-background="new 0 0 2000 2000" xml:space="preserve">
<g>
	<path fill="#8A6FE8" d="M1474.6,1067l-5.6,67.6c-44.8-3.6-129.4-46.2-186.9-100.9c12.2-19.7,22.5-40.5,30.9-62.2
		C1355.5,1017,1436.2,1063.8,1474.6,1067z"/>
	<path fill="#8A6FE8" d="M1525,1005.7l-88.7,33.7c-15.8,6-23.8,23.7-17.8,39.5c6,15.8,23.7,23.8,39.5,17.8l88.7-33.7
		c15.7-6.2,23.5-23.9,17.4-39.7C1558,1007.8,1540.6,999.9,1525,1005.7L1525,1005.7z"/>
	<path fill="#8A6FE8" d="M1416.4,1155.1l37.8,51.4c10.1,13.7,29.3,16.7,43,6.6s16.7-29.3,6.6-43c-0.1-0.1-0.2-0.3-0.3-0.4
		l-38.8-52.7L1416.4,1155.1z"/>
	<path fill="#8A6FE8" d="M1450.7,1158.2l76.8,42.9c14.9,8.1,33.6,2.6,41.7-12.4c8-14.8,2.7-33.2-11.9-41.5l-57-32.1L1450.7,1158.2z"
		/>
	<path fill="#8A6FE8" d="M1460.3,1121.8l84.6,24.4c16.3,4.7,33.4-4.7,38.1-21s-4.7-33.4-21-38.1l-86.2-24.9L1460.3,1121.8z"/>
	
		<radialGradient id="SVGID_1_" cx="-1097.0525" cy="-787.5125" r="6.05" gradientTransform="matrix(10.65 0 0 10.65 13137.8594 9493.7109)" gradientUnits="userSpaceOnUse">
		<stop  offset="0" style="stop-color:#8065E0"/>
		<stop  offset="1" style="stop-color:#512BD4"/>
	</radialGradient>
	<path fill="url(#SVGID_1_)" d="M1451.6,1168.2c35.6,0,64.4-28.9,64.4-64.4s-28.9-64.4-64.4-64.4s-64.4,28.9-64.4,64.4
		C1387.1,1139.3,1416,1168.2,1451.6,1168.2z"/>
	<path fill="#8A6FE8" d="M529.4,1254.2l40.2,57.3c10.8,15.2,31.9,18.8,47.2,8c15.2-10.8,18.8-31.9,8-47.2L575,1203L529.4,1254.2z"/>
	<path fill="#8A6FE8" d="M460.1,1232.5l-11.1,69.2c-2.7,18.5,10.1,35.6,28.5,38.3c18.3,2.7,35.4-9.8,38.3-28.1l11.4-70.9
		L460.1,1232.5z"/>
	<path fill="#8A6FE8" d="M505,1240.3l-9.3,69.4c-2.4,18.5,10.7,35.4,29.2,37.8c18.5,2.4,35.4-10.7,37.8-29.2l9.6-71.2L505,1240.3z"
		/>
	<path fill="#8A6FE8" d="M442.7,1211.8l-25.1,65.4c-6.6,17.5,2.3,37,19.8,43.5c17.5,6.6,37-2.3,43.5-19.8l0,0l25.7-67.1
		L442.7,1211.8z"/>
	
		<linearGradient id="SVGID_2_" gradientUnits="userSpaceOnUse" x1="-100.8671" y1="-1246.4698" x2="-100.8671" y2="-865.58" gradientTransform="matrix(1 0 0 1 694 2106)">
		<stop  offset="0.25" style="stop-color:#967FE6"/>
		<stop  offset="1" style="stop-color:#8A6FE8"/>
	</linearGradient>
	<path fill="url(#SVGID_2_)" d="M489.3,1240.4c-27.9-57-44.2-154.4,1.8-241.6c28-52.9,89.2-120,222.3-139.3l10.7,73.8
		c-80.8,11.7-138.5,46.4-167,100.3c-30.8,58.4-22.6,129.4-0.8,174L489.3,1240.4z"/>
	
		<radialGradient id="SVGID_3_" cx="-1160.6594" cy="-802.8495" r="6.05" gradientTransform="matrix(11.4 0 0 11.4 13966.1895 10011.6992)" gradientUnits="userSpaceOnUse">
		<stop  offset="0" style="stop-color:#8065E0"/>
		<stop  offset="1" style="stop-color:#512BD4"/>
	</radialGradient>
	<path fill="url(#SVGID_3_)" d="M739,954.1c38.1,0,68.9-30.8,68.9-68.9s-30.8-68.9-68.9-68.9c-38.1,0-68.9,30.8-68.9,68.9
		C670.1,923.2,700.9,954.1,739,954.1C739,954.1,739,954.1,739,954.1z"/>
	
		<radialGradient id="SVGID_4_" cx="-1223.186" cy="-766.2661" r="6.05" gradientTransform="matrix(22.73 0 0 22.73 28306.2383 18569.4492)" gradientUnits="userSpaceOnUse">
		<stop  offset="0" style="stop-color:#8065E0"/>
		<stop  offset="1" style="stop-color:#512BD4"/>
	</radialGradient>
	<path fill="url(#SVGID_4_)" d="M508.6,1277.3c39.1,0,70.8-31.7,70.8-70.8s-31.7-70.8-70.8-70.8s-70.8,31.7-70.8,70.8
		C437.8,1245.6,469.5,1277.3,508.6,1277.3C508.6,1277.3,508.6,1277.3,508.6,1277.3z"/>
</g>
</svg>
