<?xml version="1.0" encoding="utf-8"?>
<!-- Generator: Adobe Illustrator 24.2.0, SVG Export Plug-In . SVG Version: 6.00 Build 0)  -->
<svg version="1.1" id="Layer_1" xmlns="http://www.w3.org/2000/svg" xmlns:xlink="http://www.w3.org/1999/xlink" x="0px" y="0px"
	 viewBox="0 0 2000 2000" enable-background="new 0 0 2000 2000" xml:space="preserve">
<g id="ghost-image" display="none">
	<g display="inline" opacity="0.5">
		<path fill="#8A6FE8" d="M1469,1134.6c-57.7-4.7-181.3-73.8-228.1-150.4c-28.4-46.5,24.8-83.6,53.8-36.2
			c31.4,51.3,134.8,115.2,179.9,118.9L1469,1134.6z"/>
		<path fill="#8A6FE8" d="M1525,1005.7l-88.7,33.7c-15.8,6-23.7,23.7-17.8,39.5c6,15.8,23.7,23.7,39.5,17.8l88.7-33.7
			c15.8-6,23.7-23.7,17.8-39.5C1558.6,1007.6,1540.8,999.6,1525,1005.7z"/>
		<path fill="#8A6FE8" d="M1416.4,1155.1l37.8,51.4c10.2,13.6,29.4,16.4,43.1,6.3c13.6-10.2,16.4-29.4,6.3-43.1l-38.8-52.7
			L1416.4,1155.1z"/>
		<path fill="#8A6FE8" d="M1450.7,1158.2l76.8,42.9c14.9,8.2,33.6,2.9,41.8-12c8.2-14.8,2.9-33.6-12-41.8l-57-32.1L1450.7,1158.2z"
			/>
		<path fill="#8A6FE8" d="M1460.3,1121.8l84.6,24.4c16.3,4.7,33.4-4.7,38.2-21c4.7-16.3-4.7-33.4-21-38.2l-86.2-24.9L1460.3,1121.8z
			"/>
		
			<radialGradient id="SVGID_1_" cx="-1849.1202" cy="-5541.521" r="6.0501" gradientTransform="matrix(10.6515 0 0 10.6515 21147.4785 60129.25)" gradientUnits="userSpaceOnUse">
			<stop  offset="0" style="stop-color:#8065E0"/>
			<stop  offset="1" style="stop-color:#512BD4"/>
		</radialGradient>
		<path fill="url(#SVGID_1_)" d="M1451.6,1168.2c35.6,0,64.4-28.8,64.4-64.4c0-35.6-28.9-64.4-64.4-64.4
			c-35.6,0-64.4,28.8-64.4,64.4C1387.1,1139.3,1416,1168.2,1451.6,1168.2z"/>
		
			<linearGradient id="SVGID_2_" gradientUnits="userSpaceOnUse" x1="432.5013" y1="-9702.1826" x2="492.2793" y2="-9417.4707" gradientTransform="matrix(1 0 0 1 694 10798)">
			<stop  offset="0" style="stop-color:#522CD5"/>
			<stop  offset="0.4397" style="stop-color:#8A6FE8"/>
		</linearGradient>
		<path fill="url(#SVGID_2_)" d="M1216.5,1374.2c0.7-59.8-7.8-181.1-69.5-282.6l-60.3,36.6c56,92.1,60.2,199.7,58.9,246.6
			C1145.4,1378.6,1181.6,1382.1,1216.5,1374.2z"/>
		<path fill="#522CD5" d="M1145.5,1374.1l55.8-0.3l52.1,298.7l-112.1,0.5c-8.5,0-15-6.8-14.4-15.4L1145.5,1374.1z"/>
		
			<linearGradient id="SVGID_3_" gradientUnits="userSpaceOnUse" x1="468.5236" y1="-9426.0088" x2="646.134" y2="-9109.3525" gradientTransform="matrix(1 0 0 1 694 10798)">
			<stop  offset="0" style="stop-color:#522CD5"/>
			<stop  offset="0.4397" style="stop-color:#8A6FE8"/>
		</linearGradient>
		<path fill="url(#SVGID_3_)" d="M1373,1593.9c9.7,7.7,9.5,18.7,8.8,30.4l-2.3,35.8c-0.4,6.4-6,11.7-12.4,11.7l-116.8,0.5
			c-7.3,0-12.8-5.8-12.3-13.1l0.8-37.1c0.9-13.5-3.7-18.4-14.1-31.1c-17.9-21.7-70.7-140-65.7-217.1l57.5-0.3
			C1220.3,1419.5,1280.7,1521.1,1373,1593.9z"/>
		
			<radialGradient id="SVGID_4_" cx="-1973.2617" cy="-5311.1372" r="6.0492" gradientTransform="matrix(20.3477 -9.260000e-02 9.260000e-02 20.3477 41947.4023 109428.8438)" gradientUnits="userSpaceOnUse">
			<stop  offset="3.400000e-02" style="stop-color:#522CD5"/>
			<stop  offset="0.9955" style="stop-color:#8A6FE8"/>
		</radialGradient>
		<path fill="url(#SVGID_4_)" d="M1381.8,1624.3c0.6-8.2,0.7-16-2.5-22.6l-145.7,0.7c4,5.9,5.7,11.1,5.2,19.7l-0.8,37.1
			c-0.5,7.3,5,13.1,12.3,13.1l116.8-0.5c6.4,0,12-5.3,12.4-11.7L1381.8,1624.3z"/>
		
			<linearGradient id="SVGID_5_" gradientUnits="userSpaceOnUse" x1="103.6376" y1="-9706.5342" x2="172.368" y2="-9383.1787" gradientTransform="matrix(1 0 0 1 694 10798)">
			<stop  offset="0" style="stop-color:#522CD5"/>
			<stop  offset="0.4397" style="stop-color:#8A6FE8"/>
		</linearGradient>
		<path fill="url(#SVGID_5_)" d="M847.6,1418.8l-71.3-8.9l40.1-322.5l71.3,8.8L847.6,1418.8z"/>
		<path fill="#522CD5" d="M781.5,1371.7l56.5-0.3l15.6,302l-113.4,0.5c-8.6,0-14.3-6.9-12.7-15.6L781.5,1371.7z"/>
		
			<linearGradient id="SVGID_6_" gradientUnits="userSpaceOnUse" x1="48.7987" y1="-9399.0107" x2="202.8451" y2="-9105.4717" gradientTransform="matrix(1 0 0 1 694 10798)">
			<stop  offset="0" style="stop-color:#522CD5"/>
			<stop  offset="0.4397" style="stop-color:#8A6FE8"/>
		</linearGradient>
		<path fill="url(#SVGID_6_)" d="M945.7,1595.1c8.7,7.9,8.5,18,6.3,29.8l-6.8,36.2c-1.2,6.5-7.5,11.8-14,11.8l-162.2,0.8
			c-7.4,0-12.2-5.9-10.8-13.2l5.8-37.5c2.6-13.6,0.6-17.7,0.8-35.1c0.5-32.8,15.6-138.2,30.3-216.2l58.2-0.2
			C851.4,1417.6,871.5,1527.9,945.7,1595.1z"/>
		
			<radialGradient id="SVGID_7_" cx="-2000.1051" cy="-5294.0503" r="6.0492" gradientTransform="matrix(22.145 -0.1007 0.1006 22.1216 45687.8281 118453.1641)" gradientUnits="userSpaceOnUse">
			<stop  offset="3.400000e-02" style="stop-color:#522CD5"/>
			<stop  offset="0.9955" style="stop-color:#8A6FE8"/>
		</radialGradient>
		<path fill="url(#SVGID_7_)" d="M763.9,1622.9l-5.8,37.5c-1.4,7.3,3.5,13.3,10.8,13.2l162.2-0.7c6.5,0,12.8-5.3,14-11.8l6.8-36.2
			c1.6-8.6,2.1-16.2-1-22.8l-185.9,0.8C765.4,1609.6,765.5,1614.4,763.9,1622.9z"/>
		<path fill="#8A6FE8" d="M804,455.8L736.5,483l-18.4-73.1l48.4-19.5L804,455.8z"/>
		<path fill="#512BD4" d="M788.8,582c38.2,0,69.1-30.9,69.1-69.1s-30.9-69.1-69.1-69.1s-69.1,30.9-69.1,69.1
			C719.7,551,750.7,582,788.8,582z"/>
		
			<radialGradient id="SVGID_8_" cx="-2061.9094" cy="-5177.9517" r="6.0492" gradientTransform="matrix(61.9498 0 0 61.9498 128750.5547 321541.2188)" gradientUnits="userSpaceOnUse">
			<stop  offset="0.4744" style="stop-color:#A08BE8"/>
			<stop  offset="0.8618" style="stop-color:#8065E0"/>
		</radialGradient>
		<path fill="url(#SVGID_8_)" d="M1300.2,939.7C1325,844.2,1309,768,1309,768h22.4l0.5-0.4c-32.2-175.2-185.6-307.9-370-307.9
			c-207.8,0-376.3,168.5-376.3,376.3s168.4,376.3,376.3,376.3c164,0,303.5-104.9,355-251.2C1318.4,954.8,1318.3,943.6,1300.2,939.7z
			"/>
		<path fill="#D8CFF7" d="M1286.4,1026.5H637.5c14.6,24.8,31.9,47.7,51.5,68.4h545.8C1254.5,1074.2,1271.8,1051.3,1286.4,1026.5z"/>
		
			<radialGradient id="SVGID_9_" cx="-2047.6427" cy="-5202.1172" r="6.0492" gradientTransform="matrix(48.2581 0 0 48.2581 100047.4609 251743.1562)" gradientUnits="userSpaceOnUse">
			<stop  offset="9.330000e-02" style="stop-color:#E1DFDD"/>
			<stop  offset="0.8998" style="stop-color:#FFFFFF"/>
		</radialGradient>
		<path fill="url(#SVGID_9_)" d="M1300.2,939.7c24.6-94.3,9.2-169.7,8.9-171.6H918.6c0,0-24.6-2.5-24.6,20s0.9,85.9,0.9,156.2
			c0,14.4,11.8,21.4,21.1,21.4C916.1,965.6,1256.6,965.6,1300.2,939.7z"/>
		<path fill="#A08BE8" d="M1065,939.9c0,0,60.1-47.5,71.8-56.3c11.7-8.8,22-9.3,32.7,0s70.8,56.3,70.8,56.3H1065z"/>
		<path fill="#512BD4" d="M1315.4,965.3c0,0,10.4-20.1-15.2-25.7c0-0.1-383.8-0.3-383.8-0.3c-8.9,0-20.4-5.3-21.4-14
			c0,6.2,0,12.5,0,18.8c0,13.1,9.8,20,18.5,21.2c0.9,0.1,1.8,0.2,2.7,0.2h26.2L1315.4,965.3z"/>
		<path fill="#512BD4" d="M1286.5,851.6c0.4-27.3-12.4-49.7-28.7-49.9s-29.8,21.7-30.2,49c-0.4,27.3,12.4,49.7,28.7,49.9
			C1272.6,900.9,1286.1,879,1286.5,851.6z"/>
		<path fill="#8065E0" d="M1256.7,825c-10.8,10.8-10.8,28.2,0,38.9c7.4,7.4,17.8,9.7,27.2,7c1.6-5.9,2.5-12.4,2.6-19.3
			c0.2-13.4-2.8-25.6-7.8-34.6C1270.9,816.4,1262.8,819,1256.7,825z"/>
		<path fill="#512BD4" d="M1020.8,900.9c16.3-0.2,29.1-22.6,28.7-49.9s-13.9-49.3-30.2-49c-16.2,0.2-29.1,22.6-28.7,49.9
			C991,879.2,1004.5,901.2,1020.8,900.9z"/>
		<path fill="#8065E0" d="M1019.8,826.6c-10.8,10.8-10.8,28.2,0,38.9c7.3,7.3,17.7,9.6,27,7c1.8-6.5,2.8-13.8,2.6-21.6
			c-0.2-12.4-3.1-23.7-7.7-32.3C1033.9,818,1025.8,820.6,1019.8,826.6z"/>
		<path fill="#512BD4" d="M1084.8,1115.2l123.2-0.6l-0.5-108.9l-123.2,0.6L1084.8,1115.2z"/>
		<path fill="#FFFFFF" d="M1106.1,1074.5c-0.8,0-1.5-0.3-2.1-0.8c-0.6-0.6-0.9-1.2-0.9-2c0-0.8,0.3-1.5,0.9-2
			c0.6-0.6,1.3-0.8,2.1-0.8c0.8,0,1.5,0.3,2.1,0.8c0.6,0.5,0.9,1.2,0.9,2s-0.3,1.4-0.9,2C1107.7,1074.2,1107,1074.5,1106.1,1074.5z"
			/>
		<path fill="#FFFFFF" d="M1138.9,1074h-5.3l-14.1-22.1c-0.3-0.5-0.7-1.2-0.9-1.8h-0.1c0.1,0.6,0.2,2,0.2,4.1l0,19.7h-4.7l-0.1-30.1
			h5.7l13.6,21.6c0.6,0.9,0.9,1.5,1.1,1.8h0.1c-0.2-0.8-0.2-2.2-0.2-4.1l0-19.4h4.7L1138.9,1074z"/>
		<path fill="#FFFFFF" d="M1161.8,1073.9l-16.5,0l-0.1-30.1l15.8,0v4.2l-10.9,0l0,8.5l10.1,0v4.2l-10.1,0l0,8.9l11.6,0
			L1161.8,1073.9L1161.8,1073.9z"/>
		<path fill="#FFFFFF" d="M1185.2,1048l-8.4,0l0.1,25.9h-4.9l-0.1-25.9l-8.4,0v-4.2l21.7-0.1L1185.2,1048z"/>
		<path fill="#8A6FE8" d="M529.4,1254.2l40.2,57.3c10.8,15.2,31.9,18.7,47.2,7.9c15.2-10.8,18.7-31.9,7.9-47.1L575,1203
			L529.4,1254.2z"/>
		<path fill="#8A6FE8" d="M460.1,1232.5l-11.1,69.2c-2.8,18.4,9.8,35.7,28.3,38.5c18.4,2.8,35.7-9.8,38.5-28.3l11.4-70.9
			L460.1,1232.5z"/>
		<path fill="#8A6FE8" d="M505,1240.3l-9.3,69.4c-2.4,18.5,10.8,35.4,29.2,37.8c18.5,2.4,35.4-10.8,37.8-29.2l9.6-71.2L505,1240.3z"
			/>
		<path fill="#8A6FE8" d="M442.7,1211.8l-25.1,65.4c-6.6,17.5,2.3,37,19.8,43.5c17.5,6.6,37-2.3,43.5-19.8l25.7-67.1L442.7,1211.8z"
			/>
		
			<linearGradient id="SVGID_10_" gradientUnits="userSpaceOnUse" x1="-100.8671" y1="-9938.4697" x2="-100.8671" y2="-9557.5801" gradientTransform="matrix(1 0 0 1 694 10798)">
			<stop  offset="0.2495" style="stop-color:#967FE6"/>
			<stop  offset="1" style="stop-color:#8A6FE8"/>
		</linearGradient>
		<path fill="url(#SVGID_10_)" d="M489.3,1240.4c-27.9-57-44.2-154.4,1.8-241.6c28-52.9,89.2-120,222.3-139.3l10.7,73.8
			c-80.8,11.7-138.5,46.4-167,100.3c-30.8,58.4-22.6,129.4-0.8,174L489.3,1240.4z"/>
		
			<radialGradient id="SVGID_11_" cx="-1917.849" cy="-5530.1206" r="6.0492" gradientTransform="matrix(11.3989 0 0 11.3989 22598.1035 63898.6953)" gradientUnits="userSpaceOnUse">
			<stop  offset="0" style="stop-color:#8065E0"/>
			<stop  offset="1" style="stop-color:#512BD4"/>
		</radialGradient>
		<path fill="url(#SVGID_11_)" d="M739,954.1c38.1,0,68.9-30.8,68.9-68.9S777,816.3,739,816.3s-68.9,30.8-68.9,68.9
			C670.1,923.2,700.9,954.1,739,954.1z"/>
		
			<radialGradient id="SVGID_12_" cx="-2016.6659" cy="-5303.478" r="6.0492" gradientTransform="matrix(22.7292 0 0 22.7292 46342.0781 121697.5625)" gradientUnits="userSpaceOnUse">
			<stop  offset="0" style="stop-color:#8065E0"/>
			<stop  offset="1" style="stop-color:#512BD4"/>
		</radialGradient>
		<path fill="url(#SVGID_12_)" d="M508.6,1277.3c39.1,0,70.8-31.7,70.8-70.8s-31.7-70.8-70.8-70.8s-70.8,31.7-70.8,70.8
			C437.9,1245.7,469.5,1277.3,508.6,1277.3z"/>
		<path fill="#D8CFF7" d="M739.7,415.8c-26.2,7-53.3-8.4-60.5-34.4c-7.2-26,8.2-52.7,34.5-59.7c26.2-7,53.3,8.4,60.5,34.4
			C781.4,382.1,766,408.8,739.7,415.8z"/>
	</g>
</g>
<g id="bot-base" display="none">
	<g display="inline">
		
			<radialGradient id="SVGID_13_" cx="-2061.9094" cy="-5177.9517" r="6.0492" gradientTransform="matrix(61.9498 0 0 61.9498 128750.5547 321541.2188)" gradientUnits="userSpaceOnUse">
			<stop  offset="0.4744" style="stop-color:#A08BE8"/>
			<stop  offset="0.8618" style="stop-color:#8065E0"/>
		</radialGradient>
		<path fill="url(#SVGID_13_)" d="M1300.2,939.7C1325,844.2,1309,768,1309,768h22.4l0.5-0.4c-32.2-175.2-185.6-307.9-370-307.9
			c-207.8,0-376.3,168.5-376.3,376.3s168.4,376.3,376.3,376.3c164,0,303.5-104.9,355-251.2C1318.4,954.8,1318.3,943.6,1300.2,939.7z
			"/>
		<path fill="#D8CFF7" d="M1286.4,1026.5H637.5c14.6,24.8,31.9,47.7,51.5,68.4h545.8C1254.5,1074.2,1271.8,1051.3,1286.4,1026.5z"/>
		
			<radialGradient id="SVGID_14_" cx="-2047.6427" cy="-5202.1172" r="6.0492" gradientTransform="matrix(48.2581 0 0 48.2581 100047.4609 251743.1562)" gradientUnits="userSpaceOnUse">
			<stop  offset="9.330000e-02" style="stop-color:#E1DFDD"/>
			<stop  offset="0.8998" style="stop-color:#FFFFFF"/>
		</radialGradient>
		<path fill="url(#SVGID_14_)" d="M1300.2,939.7c24.6-94.3,9.2-169.7,8.9-171.6H918.6c0,0-24.6-2.5-24.6,20s0.9,85.9,0.9,156.2
			c0,14.4,11.8,21.4,21.1,21.4C916.1,965.6,1256.6,965.6,1300.2,939.7z"/>
		<path fill="#A08BE8" d="M1065,939.9c0,0,60.1-47.5,71.8-56.3c11.7-8.8,22-9.3,32.7,0s70.8,56.3,70.8,56.3H1065z"/>
		<path fill="#512BD4" d="M1315.4,965.3c0,0,10.4-20.1-15.2-25.7c0-0.1-383.8-0.3-383.8-0.3c-8.9,0-20.4-5.3-21.4-14
			c0,6.2,0,12.5,0,18.8c0,13.1,9.8,20,18.5,21.2c0.9,0.1,1.8,0.2,2.7,0.2h26.2L1315.4,965.3z"/>
		<path fill="#512BD4" d="M1084.8,1115.2l123.2-0.6l-0.5-108.9l-123.2,0.6L1084.8,1115.2z"/>
		<path fill="#FFFFFF" d="M1106.1,1074.5c-0.8,0-1.5-0.3-2.1-0.8c-0.6-0.6-0.9-1.2-0.9-2c0-0.8,0.3-1.5,0.9-2
			c0.6-0.6,1.3-0.8,2.1-0.8c0.8,0,1.5,0.3,2.1,0.8c0.6,0.5,0.9,1.2,0.9,2s-0.3,1.4-0.9,2C1107.7,1074.2,1107,1074.5,1106.1,1074.5z"
			/>
		<path fill="#FFFFFF" d="M1138.9,1074h-5.3l-14.1-22.1c-0.3-0.5-0.7-1.2-0.9-1.8h-0.1c0.1,0.6,0.2,2,0.2,4.1l0,19.7h-4.7l-0.1-30.1
			h5.7l13.6,21.6c0.6,0.9,0.9,1.5,1.1,1.8h0.1c-0.2-0.8-0.2-2.2-0.2-4.1l0-19.4h4.7L1138.9,1074z"/>
		<path fill="#FFFFFF" d="M1161.8,1073.9l-16.5,0l-0.1-30.1l15.8,0v4.2l-10.9,0l0,8.5l10.1,0v4.2l-10.1,0l0,8.9l11.6,0
			L1161.8,1073.9L1161.8,1073.9z"/>
		<path fill="#FFFFFF" d="M1185.2,1048l-8.4,0l0.1,25.9h-4.9l-0.1-25.9l-8.4,0v-4.2l21.7-0.1L1185.2,1048z"/>
	</g>
</g>
<g id="asset">
	<g>
		<g>
			<path fill="#E29E3B" d="M1312.9,971.5c-8.4,21.8-18.8,42.6-30.9,62.2c57.5,54.7,142.1,97.3,186.9,100.9l5.6-67.6
				C1436.1,1063.8,1355.4,1017,1312.9,971.5z"/>
			<path fill="#F7F6F6" d="M1464.9,1134.3l-138.6-21.6c0,0-12.5-47.6,10.6-85.4c26.6-43.5,72.9-51.3,72.9-51.3l64.3,95.6
				L1464.9,1134.3z"/>
			<path fill="#F7B548" d="M1474.3,984.3l-57.2,75.7c-10.2,13.5-7.5,32.7,5.9,42.9c13.5,10.2,32.7,7.5,42.9-5.9l57.2-75.7
				c10.2-13.5,7.5-32.7-5.9-42.9C1503.7,968.1,1484.4,970.8,1474.3,984.3z"/>
			<path fill="#DDDBDA" d="M1323.2,1074.5c-1.2,21.5,3.2,38.2,3.2,38.2l138.6,21.6l0.6-3.8L1323.2,1074.5z"/>
			<g>
				<g>
					
						<radialGradient id="SVGID_15_" cx="1659.3333" cy="1457.595" r="153.4033" gradientTransform="matrix(1 0 0 -1 0 2000)" gradientUnits="userSpaceOnUse">
						<stop  offset="0.1426" style="stop-color:#FFE5B9"/>
						<stop  offset="0.854" style="stop-color:#F7B548"/>
					</radialGradient>
					<path fill="url(#SVGID_15_)" d="M1625.4,708.1c-28.7-46.3-58.4-54.8-58.4-54.8s19.8-12.8,19.8-22c0-8.5-14.7-14.7-22.1-16.5
						c-19.7-4.9-27.6-22-27.6-22s17.6,8.8,28.7,3.3s-7.7-25.3-7.7-25.3s5.5-9.9,22.1-14.3s24.2-24.2,4.4-26.5s-33.1,8.8-33.1,8.8
						s-2.2-19.8,23.2-24.2c17.4-3,21.3-14,2.2-16.5c-38.6-5.1-18.7-27.6-18.7-27.6s8.8,11,30.9,13.2s1.1-11-1.1-26.5
						c-2.2-15.4,7.7-16.5,22.1-1.1s4.8-42.2,4.8-42.2s19.1,35.3,29.4,32.3c19.1-5.5,9.9-22,15.4-41.9c5.5-19.8,25.3-27.6,25.3-27.6
						s-14.3,29.8-6.6,38.6s28.7-11,28.7-11s8.8,8.8-3.3,26.5c-12.1,17.6,5.4,24.6,24.2,13.2c17.6-10.7,18.7-37.5,18.7-37.5
						c0.4-0.1,25.3,23.9,2.2,40.8c-13.9,10.2-16.5,28.7,1.1,20.9c17.6-7.7,26.4-23.1,26.4-23.1s2.2,17.6-2.2,29.8
						c-4.4,12.1-11,17.6-22.1,24.2c-11,6.6-14.3,22.1,11,19.8c25.3-2.2,23.2,18.7,0,19.8c-23.2,1.1-46.2,5.3-26.4,12.1
						c58.4,20.2,45.2,45.2,24.2,44.1s-19.8,6.6-17.6,13.2c2.2,6.6,16.5,14.3,16.5,14.3s-5.5,8.8-20.9,3.3
						c-15.4-5.5-26.4-3.3-22.1,5.5c7.4,14.8,38.6,20.2,38.6,20.2s-4.4,15.1-28.7,14s-43-7.7-29.8,6.6c13.2,14.3,4.4,29.8,4.4,29.8
						s-7.7-22-33.1-23.2C1643.1,677.6,1625.4,708.1,1625.4,708.1z"/>
					<g>
						<circle fill="#FFE5B9" cx="1720.2" cy="386.6" r="8.8"/>
						<circle fill="#FFE5B9" cx="1766.6" cy="369" r="9.9"/>
						<circle fill="#FFE5B9" cx="1788.6" cy="428.5" r="7.7"/>
						<circle fill="#FFE5B9" cx="1809.5" cy="456.1" r="7.7"/>
						<circle fill="#FFE5B9" cx="1776.5" cy="656.7" r="7.7"/>
						<circle fill="#FFE5B9" cx="1729.1" cy="682" r="7.7"/>
						<circle fill="#FFE5B9" cx="1535.1" cy="567.4" r="8.8"/>
						<circle fill="#FFE5B9" cx="1567" cy="451.6" r="9.9"/>
						<circle fill="#FFE5B9" cx="1631" cy="365.7" r="11"/>
						<circle fill="#FFE5B9" cx="1642" cy="412" r="7.7"/>
						<circle fill="#FFE5B9" cx="1565.9" cy="674.3" r="11"/>
						<polygon fill="#FFE5B9" points="1590.7,420.6 1581.2,404.2 1590.7,389.2 1600.1,404.2 						"/>
						<polygon fill="#FFE5B9" points="1804.5,527.5 1795,511.2 1804.5,496.1 1813.9,511.2 						"/>
						<polygon fill="#FFE5B9" points="1812.3,616.1 1802.8,599.7 1812.3,584.7 1821.7,599.7 						"/>
						<polygon fill="#FFE5B9" points="1524,536.7 1514.6,520.3 1524,505.3 1533.5,520.3 						"/>
						<polygon fill="#FFE5B9" points="1685.5,758.3 1676.1,741.9 1685.5,726.9 1695,741.9 						"/>
					</g>
				</g>
				<g>
					<path fill="#B77125" d="M1603.8,750.6c4.4-26.4-15.1-127-15.1-127l-2.4-63.5c0,0,89.8-46.2,116.8-100.1
						c1.9-3.9,16.7,8.1,15.1,12.2c-17.6,46.4-102.1,98.7-105,104.5s3.2,41.2,4.6,50c1.5,8.8,7.7,61.4,15.1,61.4
						S1603.8,750.6,1603.8,750.6z"/>
					<path fill="#B77125" d="M1671.3,642.2c8.8-22,57.2-80.6,57.2-80.6l1.5-70.4c0,0-3.9-1-11.2-0.5c-8.8,29.8-9.3,62.5-9.3,62.5
						l-42.5,37.6L1671.3,642.2z"/>
					<path fill="#AA691B" d="M1376.7,1455.6c0,0,14.7-26.4,30.8-71.8c16.1-45.4,36.6-134.8,52.8-159.8
						c16.1-24.9,16.1-77.7,60.1-139.2s27.8-107,32.2-130.4c4.4-23.5,54.2-82.1,54.2-82.1s1.5-46.9,20.5-96.7
						c19.1-49.8,33.7-89.4,45.4-104.1s10.3-66,10.3-76.2s-41-49.8-49.8-60.1c-8.8-10.3,7.3-54.2,7.3-54.2l32.2-36.6l-11.7-5.9
						c0,0-35.2,29.3-38.1,36.6c-2.9,7.3-11.7,49.8-13.2,60.1c-1.5,10.3,38.1,48.4,42.5,60.1c4.4,11.7,8.8,45.4,1.5,55.7
						c-7.3,10.3-35.2,58.6-44,76.2s-35.2,124.6-35.2,124.6s-27.8,41-44,61.6s-13.2,82.1-13.2,82.1s-5.9,63-41,102.6
						s-39.6,127.5-52.8,139.2s-63,162.7-76.2,181.7C1334.2,1438,1376.7,1455.6,1376.7,1455.6z"/>
					<path fill="#3F3C38" d="M1653.9,557.2c8.3,15.2,15.8,31.1,15.8,36.6c0,10.3,6.4,49.8-5.3,64.4c-11.7,14.7-26.4,54.2-45.4,104.1
						s-20.5,96.7-20.5,96.7s-49.8,58.6-54.2,82.1s11.7,68.9-32.2,130.4s-44,114.3-60.1,139.2s-36.6,114.3-52.8,159.8
						c-9.9,27.9-27.2,57.4-39,76.1c8.2,5.5,16.5,9,16.5,9s14.7-26.4,30.8-71.8c16.1-45.4,36.6-134.8,52.8-159.8
						c16.1-24.9,16.1-77.7,60.1-139.2s27.8-107,32.2-130.4c4.4-23.5,54.2-82.1,54.2-82.1s1.5-46.9,20.5-96.7
						c19.1-49.8,33.7-89.4,45.4-104.1c11.7-14.7,10.3-66,10.3-76.2C1683,589,1667.8,572,1653.9,557.2z"/>
				</g>
			</g>
			<path fill="#E29E3B" d="M1438.4,1167.4c32.9,13.5,70.6-2.2,84.1-35.1c13.5-32.9-2.2-70.6-35.1-84.1
				c-32.9-13.5-70.6,2.2-84.1,35.1C1389.8,1116.2,1405.5,1153.9,1438.4,1167.4z"/>
			<g>
				<path fill="#F7B548" d="M1540.4,1040.4l-56.5,11.6c-16.6,3.3-27.3,19.4-24.1,36c3.3,16.6,19.4,27.3,36,24.1l56.5-11.6
					c16.6-3.3,27.3-19.4,24.1-36C1573.2,1047.8,1557,1037,1540.4,1040.4z"/>
				<path fill="#F7B548" d="M1534.7,1080.5l-56.2,12.7c-16.5,3.6-26.9,20-23.4,36.4c3.6,16.5,20,26.9,36.4,23.4l56.2-12.7
					c16.5-3.6,26.9-20,23.4-36.4C1567.6,1087.3,1551.2,1076.9,1534.7,1080.5z"/>
				<path fill="#F7B548" d="M1512.6,1119.4l-56.2,12.7c-16.5,3.6-26.9,20-23.4,36.4c3.6,16.5,20,26.9,36.4,23.4l56.2-12.7
					c16.5-3.6,26.9-20,23.4-36.4C1545.5,1126.3,1529.1,1115.8,1512.6,1119.4z"/>
			</g>
		</g>
		<g>
			<path fill="#F7B548" d="M539.5,1245.5l57.9,39.4c15.5,10.4,36.5,6.2,46.9-9.3s6.2-36.5-9.3-46.9l-71-47.2L539.5,1245.5z"/>
			<path fill="#E29E3B" d="M489.6,1239.8c-27.9-57-44.2-154.4,1.8-241.6c28-52.9,89.2-120,222.3-139.3l10.7,73.8
				c-80.8,11.7-138.5,46.4-167,100.3c-30.8,58.4-22.6,129.4-0.8,174L489.6,1239.8z"/>
			<path fill="#F7B548" d="M739.3,953.5c38.1,0,68.9-30.8,68.9-68.9s-30.8-68.9-68.9-68.9s-68.9,30.8-68.9,68.9
				C670.4,922.7,701.3,953.5,739.3,953.5z"/>
			<path fill="#F7F6F6" d="M470.7,1178l-28.5-137.3c0,0,40.2-28.5,83.7-20.1c50,9.6,73.7,50.2,73.7,50.2l-67,93.8L470.7,1178z"/>
			<path fill="#DDDBDA" d="M478.8,1023.7c-21.6,6.4-36.6,17-36.6,17l28.5,137.3l18.1-3.9L478.8,1023.7z"/>
			<path fill="#F7B548" d="M460.5,1231.9l-11.1,69.2c-2.8,18.4,9.8,35.7,28.3,38.5c18.4,2.8,35.7-9.8,38.5-28.3l11.4-70.9
				L460.5,1231.9z"/>
			<path fill="#F7B548" d="M505.3,1239.7l-9.3,69.4c-2.4,18.5,10.8,35.4,29.2,37.8c18.5,2.4,35.4-10.8,37.8-29.2l9.6-71.2
				L505.3,1239.7z"/>
			<path fill="#F7B548" d="M443.1,1211.2l-25.1,65.4c-6.6,17.5,2.3,37,19.8,43.5c17.5,6.6,37-2.3,43.5-19.8l25.7-67.1L443.1,1211.2z
				"/>
			<path fill="#E29E3B" d="M509,1276.8c39.1,0,70.8-31.7,70.8-70.8s-31.7-70.8-70.8-70.8s-70.8,31.7-70.8,70.8
				S469.9,1276.8,509,1276.8z"/>
		</g>
	</g>
</g>
</svg>
