<?xml version="1.0" encoding="utf-8"?>
<!-- Generator: Adobe Illustrator 24.2.0, SVG Export Plug-In . SVG Version: 6.00 Build 0)  -->
<svg version="1.1" id="Layer_1" xmlns="http://www.w3.org/2000/svg" xmlns:xlink="http://www.w3.org/1999/xlink" x="0px" y="0px"
	 viewBox="0 0 2000 2000" enable-background="new 0 0 2000 2000" xml:space="preserve">
<g id="ghost-image" display="none">
	<g display="inline" opacity="0.5">
		<path fill="#8A6FE8" d="M1469,1134.6c-57.7-4.7-181.3-73.8-228.1-150.4c-28.4-46.5,24.8-83.6,53.8-36.2
			c31.4,51.3,134.8,115.2,179.9,118.9L1469,1134.6z"/>
		<path fill="#8A6FE8" d="M1525,1005.7l-88.7,33.7c-15.8,6-23.7,23.7-17.8,39.5c6,15.8,23.7,23.7,39.5,17.8l88.7-33.7
			c15.8-6,23.7-23.7,17.8-39.5C1558.6,1007.6,1540.8,999.6,1525,1005.7z"/>
		<path fill="#8A6FE8" d="M1416.4,1155.1l37.8,51.4c10.2,13.6,29.4,16.4,43.1,6.3c13.6-10.2,16.4-29.4,6.3-43.1l-38.8-52.7
			L1416.4,1155.1z"/>
		<path fill="#8A6FE8" d="M1450.7,1158.2l76.8,42.9c14.9,8.2,33.6,2.9,41.8-12c8.2-14.8,2.9-33.6-12-41.8l-57-32.1L1450.7,1158.2z"
			/>
		<path fill="#8A6FE8" d="M1460.3,1121.8l84.6,24.4c16.3,4.7,33.4-4.7,38.2-21c4.7-16.3-4.7-33.4-21-38.2l-86.2-24.9L1460.3,1121.8z
			"/>
		
			<radialGradient id="SVGID_1_" cx="1010.5859" cy="9418.334" r="6.0461" gradientTransform="matrix(10.6515 0 0 -10.6515 -9312.6553 101423.1875)" gradientUnits="userSpaceOnUse">
			<stop  offset="0" style="stop-color:#8065E0"/>
			<stop  offset="1" style="stop-color:#512BD4"/>
		</radialGradient>
		<path fill="url(#SVGID_1_)" d="M1451.6,1168.2c35.6,0,64.4-28.8,64.4-64.4s-28.9-64.4-64.4-64.4c-35.6,0-64.4,28.8-64.4,64.4
			C1387.1,1139.3,1416,1168.2,1451.6,1168.2z"/>
		
			<linearGradient id="SVGID_2_" gradientUnits="userSpaceOnUse" x1="432.5485" y1="16376.1064" x2="492.3166" y2="16091.4414" gradientTransform="matrix(1 0 0 -1 694 17472)">
			<stop  offset="0" style="stop-color:#522CD5"/>
			<stop  offset="0.4397" style="stop-color:#8A6FE8"/>
		</linearGradient>
		<path fill="url(#SVGID_2_)" d="M1216.5,1374.2c0.7-59.8-7.8-181.1-69.5-282.6l-60.3,36.6c56,92.1,60.2,199.7,58.9,246.6
			C1145.4,1378.6,1181.6,1382.1,1216.5,1374.2z"/>
		<path fill="#522CD5" d="M1145.5,1374.1l55.8-0.3l52.1,298.7l-112.1,0.5c-8.5,0-15-6.8-14.4-15.4L1145.5,1374.1z"/>
		
			<linearGradient id="SVGID_3_" gradientUnits="userSpaceOnUse" x1="468.4987" y1="16100.0625" x2="646.1445" y2="15783.3428" gradientTransform="matrix(1 0 0 -1 694 17472)">
			<stop  offset="0" style="stop-color:#522CD5"/>
			<stop  offset="0.4397" style="stop-color:#8A6FE8"/>
		</linearGradient>
		<path fill="url(#SVGID_3_)" d="M1373,1593.9c9.7,7.7,9.5,18.7,8.8,30.4l-2.3,35.8c-0.4,6.4-6,11.7-12.4,11.7l-116.8,0.5
			c-7.3,0-12.8-5.8-12.3-13.1l0.8-37.1c0.9-13.5-3.7-18.4-14.1-31.1c-17.9-21.7-70.7-140-65.7-217.1l57.5-0.3
			C1220.3,1419.5,1280.7,1521.1,1373,1593.9z"/>
		
			<radialGradient id="SVGID_4_" cx="1028.3282" cy="9050.5527" r="6.0492" gradientTransform="matrix(20.3477 -9.260000e-02 -9.260000e-02 -20.3477 -18781.7617 185795.25)" gradientUnits="userSpaceOnUse">
			<stop  offset="3.400000e-02" style="stop-color:#522CD5"/>
			<stop  offset="0.9955" style="stop-color:#8A6FE8"/>
		</radialGradient>
		<path fill="url(#SVGID_4_)" d="M1381.8,1624.3c0.6-8.2,0.7-16-2.5-22.6l-145.7,0.7c4,5.9,5.7,11.1,5.2,19.7l-0.8,37.1
			c-0.5,7.3,5,13.1,12.3,13.1l116.8-0.5c6.4,0,12-5.3,12.4-11.7L1381.8,1624.3z"/>
		
			<linearGradient id="SVGID_5_" gradientUnits="userSpaceOnUse" x1="103.6381" y1="16380.6123" x2="172.3822" y2="16057.1924" gradientTransform="matrix(1 0 0 -1 694 17472)">
			<stop  offset="0" style="stop-color:#522CD5"/>
			<stop  offset="0.4397" style="stop-color:#8A6FE8"/>
		</linearGradient>
		<path fill="url(#SVGID_5_)" d="M847.6,1418.8l-71.3-8.9l40.1-322.5l71.3,8.8L847.6,1418.8z"/>
		<path fill="#522CD5" d="M781.5,1371.7l56.5-0.3l15.6,302l-113.4,0.5c-8.6,0-14.3-6.9-12.7-15.6L781.5,1371.7z"/>
		
			<linearGradient id="SVGID_6_" gradientUnits="userSpaceOnUse" x1="48.8876" y1="16072.8994" x2="202.8965" y2="15779.4316" gradientTransform="matrix(1 0 0 -1 694 17472)">
			<stop  offset="0" style="stop-color:#522CD5"/>
			<stop  offset="0.4397" style="stop-color:#8A6FE8"/>
		</linearGradient>
		<path fill="url(#SVGID_6_)" d="M945.7,1595.1c8.7,7.9,8.5,18,6.3,29.8l-6.8,36.2c-1.2,6.5-7.5,11.8-14,11.8l-162.2,0.8
			c-7.4,0-12.2-5.9-10.8-13.2l5.8-37.5c2.6-13.6,0.6-17.7,0.8-35.1c0.5-32.8,15.6-138.2,30.3-216.2l58.2-0.2
			C851.4,1417.6,871.5,1527.9,945.7,1595.1z"/>
		
			<radialGradient id="SVGID_7_" cx="1014.0165" cy="9021.2432" r="6.0492" gradientTransform="matrix(22.145 -0.1007 -0.1006 -22.1216 -20684.8223 201208.1719)" gradientUnits="userSpaceOnUse">
			<stop  offset="3.400000e-02" style="stop-color:#522CD5"/>
			<stop  offset="0.9955" style="stop-color:#8A6FE8"/>
		</radialGradient>
		<path fill="url(#SVGID_7_)" d="M763.9,1622.9l-5.8,37.5c-1.4,7.3,3.5,13.3,10.8,13.2l162.2-0.7c6.5,0,12.8-5.3,14-11.8l6.8-36.2
			c1.6-8.6,2.1-16.2-1-22.8l-185.9,0.8C765.4,1609.6,765.5,1614.4,763.9,1622.9z"/>
		<path fill="#8A6FE8" d="M804,455.8L736.5,483l-18.4-73.1l48.4-19.5L804,455.8z"/>
		<path fill="#512BD4" d="M788.8,582c38.2,0,69.1-30.9,69.1-69.1s-30.9-69.1-69.1-69.1s-69.1,30.9-69.1,69.1
			C719.7,551,750.7,582,788.8,582z"/>
		
			<radialGradient id="SVGID_8_" cx="1043.1462" cy="8814.7822" r="6.0492" gradientTransform="matrix(61.9498 0 0 -61.9498 -63607.0117 546842.125)" gradientUnits="userSpaceOnUse">
			<stop  offset="0.4744" style="stop-color:#A08BE8"/>
			<stop  offset="0.8618" style="stop-color:#8065E0"/>
		</radialGradient>
		<path fill="url(#SVGID_8_)" d="M1300.2,939.7C1325,844.2,1309,768,1309,768h22.4l0.5-0.4c-32.2-175.2-185.6-307.9-370-307.9
			c-207.8,0-376.3,168.5-376.3,376.3s168.4,376.3,376.3,376.3c164,0,303.5-104.9,355-251.2C1318.4,954.8,1318.3,943.6,1300.2,939.7z
			"/>
		<path fill="#D8CFF7" d="M1286.4,1026.5H637.5c14.6,24.8,31.9,47.7,51.5,68.4h545.8C1254.5,1074.2,1271.8,1051.3,1286.4,1026.5z"/>
		
			<radialGradient id="SVGID_9_" cx="1042.9587" cy="8853.0859" r="6.0492" gradientTransform="matrix(48.2581 0 0 -48.2581 -49099.1094 427931.9688)" gradientUnits="userSpaceOnUse">
			<stop  offset="9.330000e-02" style="stop-color:#E1DFDD"/>
			<stop  offset="0.8998" style="stop-color:#FFFFFF"/>
		</radialGradient>
		<path fill="url(#SVGID_9_)" d="M1300.2,939.7c24.6-94.3,9.2-169.7,8.9-171.6H918.6c0,0-24.6-2.5-24.6,20s0.9,85.9,0.9,156.2
			c0,14.4,11.8,21.4,21.1,21.4C916.1,965.6,1256.6,965.6,1300.2,939.7z"/>
		<path fill="#A08BE8" d="M1065,939.9c0,0,60.1-47.5,71.8-56.3c11.7-8.8,22-9.3,32.7,0s70.8,56.3,70.8,56.3H1065z"/>
		<path fill="#512BD4" d="M1315.4,965.3c0,0,10.4-20.1-15.2-25.7c0-0.1-383.8-0.3-383.8-0.3c-8.9,0-20.4-5.3-21.4-14
			c0,6.2,0,12.5,0,18.8c0,13.1,9.8,20,18.5,21.2c0.9,0.1,1.8,0.2,2.7,0.2h26.2L1315.4,965.3z"/>
		<path fill="#512BD4" d="M1286.5,851.6c0.4-27.3-12.4-49.7-28.7-49.9s-29.8,21.7-30.2,49c-0.4,27.3,12.4,49.7,28.7,49.9
			C1272.6,900.9,1286.1,879,1286.5,851.6z"/>
		<path fill="#8065E0" d="M1256.7,825c-10.8,10.8-10.8,28.2,0,38.9c7.4,7.4,17.8,9.7,27.2,7c1.6-5.9,2.5-12.4,2.6-19.3
			c0.2-13.4-2.8-25.6-7.8-34.6C1270.9,816.4,1262.8,819,1256.7,825z"/>
		<path fill="#512BD4" d="M1020.8,900.9c16.3-0.2,29.1-22.6,28.7-49.9s-13.9-49.3-30.2-49c-16.2,0.2-29.1,22.6-28.7,49.9
			C991,879.2,1004.5,901.2,1020.8,900.9z"/>
		<path fill="#8065E0" d="M1019.8,826.6c-10.8,10.8-10.8,28.2,0,38.9c7.3,7.3,17.7,9.6,27,7c1.8-6.5,2.8-13.8,2.6-21.6
			c-0.2-12.4-3.1-23.7-7.7-32.3C1033.9,818,1025.8,820.6,1019.8,826.6z"/>
		<path fill="#512BD4" d="M1084.8,1115.2l123.2-0.6l-0.5-108.9l-123.2,0.6L1084.8,1115.2z"/>
		<path fill="#FFFFFF" d="M1106.1,1074.5c-0.8,0-1.5-0.3-2.1-0.8c-0.6-0.6-0.9-1.2-0.9-2s0.3-1.5,0.9-2c0.6-0.6,1.3-0.8,2.1-0.8
			c0.8,0,1.5,0.3,2.1,0.8s0.9,1.2,0.9,2s-0.3,1.4-0.9,2C1107.7,1074.2,1107,1074.5,1106.1,1074.5z"/>
		<path fill="#FFFFFF" d="M1138.9,1074h-5.3l-14.1-22.1c-0.3-0.5-0.7-1.2-0.9-1.8h-0.1c0.1,0.6,0.2,2,0.2,4.1v19.7h-4.7l-0.1-30.1
			h5.7l13.6,21.6c0.6,0.9,0.9,1.5,1.1,1.8h0.1c-0.2-0.8-0.2-2.2-0.2-4.1v-19.4h4.7L1138.9,1074z"/>
		<path fill="#FFFFFF" d="M1161.8,1073.9h-16.5l-0.1-30.1h15.8v4.2h-10.9v8.5h10.1v4.2h-10.1v8.9h11.6L1161.8,1073.9L1161.8,1073.9z
			"/>
		<path fill="#FFFFFF" d="M1185.2,1048h-8.4l0.1,25.9h-4.9l-0.1-25.9h-8.4v-4.2l21.7-0.1L1185.2,1048z"/>
		<path fill="#8A6FE8" d="M529.4,1254.2l40.2,57.3c10.8,15.2,31.9,18.7,47.2,7.9c15.2-10.8,18.7-31.9,7.9-47.1L575,1203
			L529.4,1254.2z"/>
		<path fill="#8A6FE8" d="M460.1,1232.5l-11.1,69.2c-2.8,18.4,9.8,35.7,28.3,38.5c18.4,2.8,35.7-9.8,38.5-28.3l11.4-70.9
			L460.1,1232.5z"/>
		<path fill="#8A6FE8" d="M505,1240.3l-9.3,69.4c-2.4,18.5,10.8,35.4,29.2,37.8c18.5,2.4,35.4-10.8,37.8-29.2l9.6-71.2L505,1240.3z"
			/>
		<path fill="#8A6FE8" d="M442.7,1211.8l-25.1,65.4c-6.6,17.5,2.3,37,19.8,43.5c17.5,6.6,37-2.3,43.5-19.8l25.7-67.1L442.7,1211.8z"
			/>
		
			<linearGradient id="SVGID_10_" gradientUnits="userSpaceOnUse" x1="-100.8368" y1="16612.5" x2="-100.8368" y2="16231.5996" gradientTransform="matrix(1 0 0 -1 694 17472)">
			<stop  offset="0.2495" style="stop-color:#967FE6"/>
			<stop  offset="1" style="stop-color:#8A6FE8"/>
		</linearGradient>
		<path fill="url(#SVGID_10_)" d="M489.3,1240.4c-27.9-57-44.2-154.4,1.8-241.6c28-52.9,89.2-120,222.3-139.3l10.7,73.8
			c-80.8,11.7-138.5,46.4-167,100.3c-30.8,58.4-22.6,129.4-0.8,174L489.3,1240.4z"/>
		
			<radialGradient id="SVGID_11_" cx="961.2823" cy="9387.9365" r="6.0492" gradientTransform="matrix(11.3989 0 0 -11.3989 -10220.8252 107873.5469)" gradientUnits="userSpaceOnUse">
			<stop  offset="0" style="stop-color:#8065E0"/>
			<stop  offset="1" style="stop-color:#512BD4"/>
		</radialGradient>
		<path fill="url(#SVGID_11_)" d="M739,954.1c38.1,0,68.9-30.8,68.9-68.9S777,816.3,739,816.3s-68.9,30.8-68.9,68.9
			C670.1,923.2,700.9,954.1,739,954.1z"/>
		
			<radialGradient id="SVGID_12_" cx="1000.4819" cy="9026.2949" r="6.0492" gradientTransform="matrix(22.7292 0 0 -22.7292 -22235.2812 206314.2031)" gradientUnits="userSpaceOnUse">
			<stop  offset="0" style="stop-color:#8065E0"/>
			<stop  offset="1" style="stop-color:#512BD4"/>
		</radialGradient>
		<path fill="url(#SVGID_12_)" d="M508.6,1277.3c39.1,0,70.8-31.7,70.8-70.8s-31.7-70.8-70.8-70.8s-70.8,31.7-70.8,70.8
			C437.9,1245.7,469.5,1277.3,508.6,1277.3z"/>
		<path fill="#D8CFF7" d="M739.7,415.8c-26.2,7-53.3-8.4-60.5-34.4s8.2-52.7,34.5-59.7c26.2-7,53.3,8.4,60.5,34.4
			C781.4,382.1,766,408.8,739.7,415.8z"/>
	</g>
</g>
<g id="bot-base" display="none">
	<g display="inline">
		
			<radialGradient id="SVGID_13_" cx="1043.1462" cy="8814.7822" r="6.0492" gradientTransform="matrix(61.9498 0 0 -61.9498 -63607.0117 546842.125)" gradientUnits="userSpaceOnUse">
			<stop  offset="0.4744" style="stop-color:#A08BE8"/>
			<stop  offset="0.8618" style="stop-color:#8065E0"/>
		</radialGradient>
		<path fill="url(#SVGID_13_)" d="M1300.2,939.7C1325,844.2,1309,768,1309,768h22.4l0.5-0.4c-32.2-175.2-185.6-307.9-370-307.9
			c-207.8,0-376.3,168.5-376.3,376.3s168.4,376.3,376.3,376.3c164,0,303.5-104.9,355-251.2C1318.4,954.8,1318.3,943.6,1300.2,939.7z
			"/>
		<path fill="#D8CFF7" d="M1286.4,1026.5H637.5c14.6,24.8,31.9,47.7,51.5,68.4h545.8C1254.5,1074.2,1271.8,1051.3,1286.4,1026.5z"/>
		
			<radialGradient id="SVGID_14_" cx="1042.9587" cy="8853.0859" r="6.0492" gradientTransform="matrix(48.2581 0 0 -48.2581 -49099.1094 427931.9688)" gradientUnits="userSpaceOnUse">
			<stop  offset="9.330000e-02" style="stop-color:#E1DFDD"/>
			<stop  offset="0.8998" style="stop-color:#FFFFFF"/>
		</radialGradient>
		<path fill="url(#SVGID_14_)" d="M1300.2,939.7c24.6-94.3,9.2-169.7,8.9-171.6H918.6c0,0-24.6-2.5-24.6,20s0.9,85.9,0.9,156.2
			c0,14.4,11.8,21.4,21.1,21.4C916.1,965.6,1256.6,965.6,1300.2,939.7z"/>
		<path fill="#A08BE8" d="M1065,939.9c0,0,60.1-47.5,71.8-56.3c11.7-8.8,22-9.3,32.7,0s70.8,56.3,70.8,56.3H1065z"/>
		<path fill="#512BD4" d="M1315.4,965.3c0,0,10.4-20.1-15.2-25.7c0-0.1-383.8-0.3-383.8-0.3c-8.9,0-20.4-5.3-21.4-14
			c0,6.2,0,12.5,0,18.8c0,13.1,9.8,20,18.5,21.2c0.9,0.1,1.8,0.2,2.7,0.2h26.2L1315.4,965.3z"/>
		<path fill="#512BD4" d="M1084.8,1115.2l123.2-0.6l-0.5-108.9l-123.2,0.6L1084.8,1115.2z"/>
		<path fill="#FFFFFF" d="M1106.1,1074.5c-0.8,0-1.5-0.3-2.1-0.8c-0.6-0.6-0.9-1.2-0.9-2s0.3-1.5,0.9-2c0.6-0.6,1.3-0.8,2.1-0.8
			c0.8,0,1.5,0.3,2.1,0.8s0.9,1.2,0.9,2s-0.3,1.4-0.9,2C1107.7,1074.2,1107,1074.5,1106.1,1074.5z"/>
		<path fill="#FFFFFF" d="M1138.9,1074h-5.3l-14.1-22.1c-0.3-0.5-0.7-1.2-0.9-1.8h-0.1c0.1,0.6,0.2,2,0.2,4.1v19.7h-4.7l-0.1-30.1
			h5.7l13.6,21.6c0.6,0.9,0.9,1.5,1.1,1.8h0.1c-0.2-0.8-0.2-2.2-0.2-4.1v-19.4h4.7L1138.9,1074z"/>
		<path fill="#FFFFFF" d="M1161.8,1073.9h-16.5l-0.1-30.1h15.8v4.2h-10.9v8.5h10.1v4.2h-10.1v8.9h11.6L1161.8,1073.9L1161.8,1073.9z
			"/>
		<path fill="#FFFFFF" d="M1185.2,1048h-8.4l0.1,25.9h-4.9l-0.1-25.9h-8.4v-4.2l21.7-0.1L1185.2,1048z"/>
	</g>
</g>
<g>
	<path fill="#8A6FE8" d="M1300.1,996.7c-10.7,21.8-23.4,42.4-37.9,61.6c76,43.4,154.3,52.3,159.1,52.8l11.5-69.9
		C1431.9,1041,1363.7,1033.3,1300.1,996.7z"/>
	<path fill="#FAC369" d="M1560.8,948.5c-13.5-13.3-35.2-13.1-48.5,0.4l-82.9,85.3l-0.5,0.3l-28.9,87.2
		c35.2,11.2,89.6,17.3,89.6,17.3l35.7-106l35.9-36C1574.5,983.5,1574.3,961.8,1560.8,948.5z"/>
	
		<rect x="1684.6" y="827.6" transform="matrix(0.4167 -0.909 0.909 0.4167 229.5038 2053.7837)" fill="#625F5B" width="61.1" height="41"/>
	<path fill="#625F5B" d="M1436.9,1309.7l-25.3-11.6c-10.7-4.9-15.3-17.5-10.5-28.2l191.3-420.1c4.9-10.7,17.5-15.3,28.2-10.5
		l25.3,11.6c10.7,4.9,15.3,17.5,10.5,28.2L1465,1299.2C1460.1,1309.9,1447.5,1314.6,1436.9,1309.7z"/>
	<path fill="#908D89" d="M1742.8,915.5l-36.5-16.7c-3-1.4-4.3-4.9-2.9-7.8l35.2-76.8c1.4-3,4.9-4.3,7.8-2.9l36.5,16.7
		c3,1.4,4.3,4.9,2.9,7.8l-35.2,76.8C1749.2,915.5,1745.7,916.8,1742.8,915.5z"/>
	<path fill="#908D89" d="M1605.5,744.8c-52-23.9-112.4,20.5-128.9,33.8c-2.4,2-2.9,5.6-1,8.1l0,0c1.7,2.2,4.7,3,7.2,1.8
		c11-5.2,40.8-17.7,59.8-9c19.4,8.9,22.3,38.8,22.7,49.2c0.1,2.2,1.4,4.2,3.4,5.2l112.3,51.5c3,1.4,6.5,0.1,7.8-2.9l35.2-76.8
		c1.4-3,0.1-6.5-2.9-7.8L1605.5,744.8z"/>
	<path fill="#E29E3B" d="M1439.6,1025.5l-21.9,107.4c-0.8,4.1-4.8,6.7-8.8,5.8l-46.3-9.5c-4.1-0.8-6.7-4.8-5.8-8.8l21.9-107.4
		c0.8-4,4.8-6.7,8.8-5.8l46.3,9.5C1437.8,1017.5,1440.4,1021.5,1439.6,1025.5z"/>
	<path fill="#FAC369" d="M1623.8,1053.8L1623.8,1053.8c0.6-18.8-14.2-34.5-33-35.1l-30-0.9c-18.8-0.6-34.5,14.2-35.1,33l0,0
		c-0.2,5.5,1,10.8,3.2,15.4c-14.8,3.3-26.1,16.3-26.6,32.2l0,0c-0.2,6.4,1.4,12.4,4.3,17.6c-15.6,2.7-27.7,16.1-28.2,32.5l0,0
		c-0.6,18.8,14.2,34.5,33,35.1l30,0.9c18.8,0.6,34.5-14.2,35.1-33l0,0c0.2-6.4-1.4-12.4-4.3-17.6c15.6-2.7,27.7-16.1,28.2-32.5l0,0
		c0.2-5.5-1-10.8-3.2-15.4C1612,1082.6,1623.3,1069.6,1623.8,1053.8z"/>
	<path fill="#F1AE44" d="M1596.7,1038.1l-67.5-1.5c-2.1,4.3-3.4,9.1-3.6,14.2c-0.2,5,0.8,9.8,2.6,14.2l67.8,1.5
		c7.8,0.2,14.3-6,14.5-13.8C1610.8,1044.7,1604.6,1038.2,1596.7,1038.1z"/>
	<path fill="#F1AE44" d="M1576,1086.3l-70.4-1.6c-2,4.1-3.2,8.7-3.3,13.6c-0.2,5.2,0.9,10.2,2.9,14.7l70.2,1.6
		c7.8,0.2,14.3-6,14.5-13.8C1590,1093,1583.8,1086.5,1576,1086.3z"/>
	<path fill="#F1AE44" d="M1563.5,1150.1c0.2-7.8-6-14.3-13.8-14.5l-67.6-1.5c-2.2,4.3-3.5,9.2-3.7,14.4c-0.2,4.9,0.8,9.6,2.5,13.9
		l68.1,1.5C1556.8,1164.1,1563.3,1157.9,1563.5,1150.1z"/>
	<path fill="#FAC369" d="M510.7,1141.5c-1.8,46.1,26,59.6,39.9,95.7c19.3,50,7.7,71.2,7.7,71.2s-10.5,3.2-40.6-3.9
		c-30.1-7.1-46-40.7-47.8-72.6s-8.9-100.1-8.9-100.1L510.7,1141.5z"/>
	
		<linearGradient id="SVGID_15_" gradientUnits="userSpaceOnUse" x1="333.0546" y1="-396.8309" x2="333.0546" y2="-12.1897" gradientTransform="matrix(0.9851 0.1719 -0.1719 0.9851 205.5801 1163.1064)">
		<stop  offset="0.3344" style="stop-color:#9780E6"/>
		<stop  offset="0.8488" style="stop-color:#8A6FE8"/>
	</linearGradient>
	<path fill="url(#SVGID_15_)" d="M432.9,1190.4c-17.9-61.5-17.1-161.3,43.8-240c37-47.8,109.5-103.9,245.3-100l-2.8,73.1
		c-82.4-2.4-145.4,22.7-183.1,71.4c-40.8,52.7-47.4,124.9-33.5,173L432.9,1190.4z"/>
	
		<radialGradient id="SVGID_16_" cx="736.9418" cy="-638.2329" r="69.6227" gradientTransform="matrix(1 0 0 1 0 1500)" gradientUnits="userSpaceOnUse">
		<stop  offset="0" style="stop-color:#8065E0"/>
		<stop  offset="1" style="stop-color:#512BD4"/>
	</radialGradient>
	<circle fill="url(#SVGID_16_)" cx="739.2" cy="885.8" r="69.6"/>
	<path fill="#605D5A" d="M372.8,1355.6V1336c0-13.3,10.4-24.1,23.1-24.1h136.8c12.8,0,23.2,10.8,23.2,24.1v19.6h17.9V1336
		c0-23.6-18.4-42.7-41-42.7H395.9c-22.6,0-41,19.2-41,42.7v19.6H372.8z"/>
	<path fill="#E86E58" d="M694.1,1355.6H253.7c-20,0-36.1,16.8-36.1,37.6v212.4c0,20.8,16.2,37.6,36.1,37.6h440.4
		c20,0,36.1-16.9,36.1-37.6v-212.4C730.2,1372.5,714,1355.6,694.1,1355.6z"/>
	<path fill="#ED9583" d="M696.1,1355.6h-114v287.7h114c18.8,0,34.1-15.9,34.1-35.5v-216.7C730.2,1371.6,714.9,1355.6,696.1,1355.6z"
		/>
	<path fill="#605D5A" d="M730.7,1421.9H217.6v6.2h513.2v-6.2H730.7z"/>
	<path fill="#FFFFFF" d="M277.2,1445.8h-18c-3.7,0-6.6-3.1-6.6-6.9v-36.4c0-3.8,3-6.9,6.6-6.9h18c3.7,0,6.6,3.1,6.6,6.9v36.4
		C283.9,1442.7,280.9,1445.8,277.2,1445.8z"/>
	<path fill="#FFFFFF" d="M539.6,1445.8h-18c-3.7,0-6.6-3.1-6.6-6.9v-36.4c0-3.8,3-6.9,6.6-6.9h18c3.7,0,6.6,3.1,6.6,6.9v36.4
		C546.3,1442.7,543.3,1445.8,539.6,1445.8z"/>
	<path fill="#605D5A" d="M234.6,1480.8v132.7h328.9v-132.7H234.6z M557.5,1487v56.2h-317V1487H557.5z M240.5,1607.3v-57.9h316.9
		v57.9H240.5z"/>
	<path fill="#FFFFFF" d="M541,1505.6H236.4l11.9-18.2H553L541,1505.6z"/>
	<path fill="#FFFFFF" d="M541,1567.9H236.4l11.9-18.2H553L541,1567.9z"/>
	<path fill="#FAC369" d="M409,1147.4c-16,23-31.6,71.2-36.3,112c-4,34.3,9.2,70.6,23.3,79.5c14.2,8.9,37.8,0.6,37.8,0.6
		s7.8,15.6,22.1,15.7c17.2,0.2,32.4-19,32.4-19s12.2,16.7,25.4,12.4c20.7-6.8,28-35.2,28-35.2s-14.5-1.7-17.6-16.3
		c-3.8-18-11.5-161.1-11.5-161.1L409,1147.4z"/>
	<path fill="#F1AE44" d="M406.5,1257.2c2.2-17.8-13.3-17.5-20-5c-6,11.2-8.8,40.3,2.1,79.6c2.4,3.1,4.8,5.6,7.4,7.2
		c6.6,4.2,15.4,4.5,22.8,3.8C409.5,1318.4,403.5,1282,406.5,1257.2z"/>
	<path fill="#F1AE44" d="M513.7,1348.5c3.8-1.2,7.2-3.2,10.1-5.4c-12.9-21.3-22-56-23.5-78.2c-1.7-25.8-22.2-25.3-27.2-6.1
		c-4.1,15.9,2.2,48.8,17.3,80C494.5,1343.2,503.8,1351.7,513.7,1348.5z"/>
	<path fill="#F1AE44" d="M426.3,1258.2c-4.5,19.5-5,46.5,7.1,77.9c0.4-0.1,0.7-0.2,0.7-0.2s7.6,15.3,21.7,15.4
		c5,0.1,9.8-1.6,14.1-3.8c-15.5-26.8-20.5-71.6-16.9-91C457.2,1234.1,432.2,1233.2,426.3,1258.2z"/>
	<path fill="#E29E3B" d="M513.1,1162.8H404c-4.1,0-7.5-3.3-7.5-7.5v-47.1c0-4.1,3.3-7.5,7.5-7.5h109.1c4.1,0,7.5,3.3,7.5,7.5v47.1
		C520.6,1159.4,517.2,1162.8,513.1,1162.8z"/>
</g>
</svg>
