<?xml version="1.0" encoding="utf-8"?>
<!-- Generator: Adobe Illustrator 26.0.0, SVG Export Plug-In . SVG Version: 6.00 Build 0)  -->
<svg version="1.1" id="asset" xmlns="http://www.w3.org/2000/svg" xmlns:xlink="http://www.w3.org/1999/xlink" x="0px" y="0px"
	 viewBox="0 0 2000 2000" enable-background="new 0 0 2000 2000" xml:space="preserve">
<g>
	<path fill="#8A6FE8" d="M1310.8,977.2c-9.1,22.4-20.2,43.6-33.2,63.6c57.2,63,155.3,114.3,205,118.4l5.7-68.4
		C1444.7,1087.1,1346.9,1027.8,1310.8,977.2z"/>
	<path fill="#8A6FE8" d="M1539.2,1028.7l-89.7,34.1c-7.4,3.1-13.4,8.9-16.6,16.3c-3.2,7.4-3.4,15.8-0.6,23.3
		c2.8,7.5,8.5,13.7,15.8,17.1c7.3,3.4,15.7,3.8,23.3,1.2l89.7-34.1c7.7-2.9,13.9-8.8,17.3-16.2c3.4-7.5,3.6-16,0.7-23.7
		c-2.9-7.7-8.8-13.9-16.2-17.3C1555.4,1026,1546.9,1025.7,1539.2,1028.7L1539.2,1028.7z"/>
	<path fill="#8A6FE8" d="M1429.4,1179.9l38.3,52c5,6.6,12.3,10.9,20.4,12c8.1,1.2,16.4-1,23-5.9c6.6-4.9,11-12.2,12.2-20.3
		c1.2-8.1-0.8-16.4-5.7-23l-39.2-53.3L1429.4,1179.9z"/>
	<path fill="#8A6FE8" d="M1464.1,1183l77.7,43.4c7.2,3.9,15.7,4.8,23.6,2.5c7.9-2.3,14.5-7.6,18.5-14.8c4-7.2,5-15.7,2.7-23.6
		c-2.2-7.9-7.5-14.6-14.6-18.7l-57.7-32.5L1464.1,1183z"/>
	<path fill="#8A6FE8" d="M1473.8,1146.2l85.6,24.7c3.9,1.1,8,1.5,12.1,1s8-1.7,11.6-3.7c3.6-2,6.8-4.6,9.3-7.8
		c2.6-3.2,4.5-6.9,5.6-10.8s1.5-8,1.1-12.1c-0.4-4.1-1.7-8-3.7-11.6s-4.6-6.7-7.8-9.3s-6.9-4.5-10.8-5.6l-87.2-25.2L1473.8,1146.2z"
		/>
	
		<radialGradient id="SVGID_1_" cx="371.3727" cy="-4802.1543" r="1" gradientTransform="matrix(65.1781 0 0 65.1781 -22746.8906 314125.7188)" gradientUnits="userSpaceOnUse">
		<stop  offset="0" style="stop-color:#8065E0"/>
		<stop  offset="1" style="stop-color:#512BD4"/>
	</radialGradient>
	<path fill="url(#SVGID_1_)" d="M1464.9,1193.1c12.9,0,25.5-3.8,36.2-11s19.1-17.3,24-29.3c4.9-11.9,6.2-25,3.7-37.7
		c-2.5-12.6-8.7-24.3-17.8-33.4s-20.7-15.3-33.4-17.8c-12.6-2.5-25.8-1.2-37.7,3.7c-11.9,4.9-22.1,13.3-29.2,24s-11,23.3-11,36.2
		c0,17.3,6.9,33.9,19.1,46.1S1447.7,1193.1,1464.9,1193.1z"/>
	<path fill="#D600AA" d="M1490.2,1178.2l-148.1-41.5V912.2l148.1,41.5V1178.2z"/>
	<path fill="#FF6AE0" d="M1490.2,1178.2l148-50.9V902.7l-148,50.9V1178.2z"/>
	
		<linearGradient id="SVGID_00000116210122346187329910000005283347184940586141_" gradientUnits="userSpaceOnUse" x1="25.963" y1="-10482.1426" x2="328.8875" y2="-10407.5684" gradientTransform="matrix(1 0 0 1 564 11480)">
		<stop  offset="0.25" style="stop-color:#967FE6"/>
		<stop  offset="1" style="stop-color:#8A6FE8"/>
	</linearGradient>
	<path fill="url(#SVGID_00000116210122346187329910000005283347184940586141_)" d="M752.1,1243.1c-35.2-8.7-65.1-19.6-89.5-32.9
		c-44.7-24.3-72.7-56.5-83.1-95.9c-7.1-26.5-5.7-55.3,3.9-85.6c7.8-24.7,21.3-50.6,40-76.9c29.9-42,74.5-86.2,122.2-121l43,58.8
		c-41.7,30.5-80.3,68.5-105.9,104.5c-36,50.6-37.8,83.2-32.9,101.6c12.1,45.5,85.1,78,205.6,91.4l-8.1,72.4
		C812.3,1255.6,780.5,1250.1,752.1,1243.1z"/>
	
		<radialGradient id="SVGID_00000123440997437963468510000017870555658333930416_" cx="-313.1467" cy="-4409.4741" r="7.250892e-03" gradientTransform="matrix(9615.46 0 0 9615.4697 3011791.25 42400052)" gradientUnits="userSpaceOnUse">
		<stop  offset="0" style="stop-color:#8065E0"/>
		<stop  offset="1" style="stop-color:#512BD4"/>
	</radialGradient>
	<path fill="url(#SVGID_00000123440997437963468510000017870555658333930416_)" d="M740.4,957.3c13.8,0,27.3-4.1,38.7-11.7
		c11.5-7.7,20.4-18.5,25.7-31.3c5.3-12.7,6.7-26.8,4-40.3c-2.7-13.5-9.3-25.9-19.1-35.7s-22.2-16.4-35.7-19.1s-27.5-1.3-40.3,4
		c-12.7,5.3-23.6,14.2-31.3,25.7c-7.7,11.5-11.8,24.9-11.7,38.7c0,18.5,7.3,36.2,20.4,49.3C704.2,949.9,721.9,957.3,740.4,957.3z"/>
	<path fill="#FFA34B" d="M827,959c0,0-27.7-15.6-54.4-30.6c-32.8-18.4,9.3-52.2,25.5-24C811,926.7,827,959,827,959z"/>
	<path fill="#F7B548" d="M820.6,944c0,0-45.9,12.4-76.6,20.4c-40.8,10.7-44.6-48.4-2.1-38.6C792.5,937.4,820.6,944,820.6,944z"/>
	<path fill="#F7B548" d="M810.1,963.4c0,0,16.5-27.1,32.5-53.3c19.6-32.1-33.7-41-34-8.5C808.3,927.4,810.1,963.4,810.1,963.4z"/>
	<path fill="#FFA04B" d="M808.3,947.3c0,0,46.1-11.6,76.8-19.7c40.8-10.7,15.3-64-17.1-34.7C829.6,927.7,808.3,947.3,808.3,947.3z"
		/>
	<path fill="#EEAE44" d="M696.7,1292.3l36.4-9.5l-78.4-295.5l-36.4,9.5L696.7,1292.3z"/>
	<path fill="#FFE5B9" d="M978.1,927.1l-331,85.3l70.7,274.4l331-85.3L978.1,927.1z"/>
	<path fill="#FFD590" d="M984.4,901.4l-330.1,86.2l16.2,62l330.1-86.2L984.4,901.4z"/>
	<path fill="#F7B548" d="M634.5,1059.4l36.6-9.4l-16-62.2l-36.6,9.4L634.5,1059.4z"/>
	
		<linearGradient id="SVGID_00000122717078140470480680000001275384495988152982_" gradientUnits="userSpaceOnUse" x1="233.1674" y1="-10395.8389" x2="330.2965" y2="-10399.2275" gradientTransform="matrix(1 0 0 1 564 11480)">
		<stop  offset="0.1094" style="stop-color:#FFBE46"/>
		<stop  offset="0.7894" style="stop-color:#FF7951"/>
	</linearGradient>
	<path fill="url(#SVGID_00000122717078140470480680000001275384495988152982_)" d="M832.6,941.1l-37.1,9.7l71.2,272.8l37.1-9.7
		L832.6,941.1z"/>
	<path fill="#8A6FE8" d="M926.2,1151c8.8,1.1,16.8,5.5,22.5,12.4c5.6,6.9,8.3,15.7,7.5,24.5l-3.9,55.8c-0.8,9-5.2,17.3-12.2,23.1
		s-16,8.6-25,7.7c-9-0.8-17.3-5.2-23.1-12.2s-8.5-16-7.7-25l3.8-55.3c0.4-4.6,1.7-9,3.8-13.1c2.1-4.1,5.1-7.6,8.6-10.5
		s7.7-5,12.1-6.3C917,1150.8,921.6,1150.4,926.2,1151z"/>
	<path fill="#8A6FE8" d="M860.7,1165.1c8.8,1.1,16.8,5.5,22.5,12.4c5.6,6.9,8.3,15.7,7.5,24.5l-3.9,55.8c-0.8,9-5.2,17.3-12.2,23.1
		s-16,8.6-25,7.7c-9-0.8-17.3-5.2-23.1-12.2s-8.6-16-7.7-25l3.8-55.3c0.4-4.6,1.7-9,3.8-13.1c2.2-4.1,5.1-7.6,8.6-10.5
		s7.7-5,12.1-6.3C851.5,1164.9,856.1,1164.5,860.7,1165.1z"/>
	<path fill="#8A6FE8" d="M796.3,1182.9c8.8,1.1,16.8,5.5,22.5,12.4c5.6,6.9,8.3,15.7,7.5,24.5l-3.9,55.8c-0.4,4.5-1.6,8.9-3.7,12.9
		s-4.9,7.6-8.4,10.5c-3.5,2.9-7.5,5.1-11.8,6.4s-8.9,1.8-13.4,1.4s-8.9-1.7-12.9-3.9c-4-2.1-7.5-5-10.4-8.5s-5-7.5-6.3-11.9
		c-1.3-4.3-1.7-8.9-1.2-13.4l3.8-55.3c0.4-4.6,1.7-9,3.8-13.1c2.2-4.1,5.1-7.6,8.6-10.5c3.6-2.9,7.7-5,12.1-6.3
		C787.1,1182.8,791.7,1182.4,796.3,1182.9z"/>
</g>
</svg>
