<?xml version="1.0" encoding="utf-8"?>
<!-- Generator: Adobe Illustrator 26.0.0, SVG Export Plug-In . SVG Version: 6.00 Build 0)  -->
<svg version="1.1" id="asset" xmlns="http://www.w3.org/2000/svg" xmlns:xlink="http://www.w3.org/1999/xlink" x="0px" y="0px"
	 viewBox="0 0 2000 2000" enable-background="new 0 0 2000 2000" xml:space="preserve">
<g>
	<path fill="#8A6FE8" d="M1314.7,967c-8.3,22.5-18.8,43.9-31.1,64.1c58.2,58.2,148.3,104.2,195.3,108.1l5.6-68.5
		C1443.8,1067.4,1355.6,1015.2,1314.7,967z"/>
	<path fill="#8A6FE8" d="M1497.5,994.6l-75.1,60c-6.4,5.1-10.6,12.6-11.5,20.8c-0.9,8.2,1.4,16.4,6.6,22.8s12.6,10.6,20.8,11.5
		c8.2,0.9,16.4-1.4,22.8-6.6l75-60c3.2-2.5,5.9-5.7,7.9-9.2c2-3.6,3.3-7.5,3.8-11.6s0.2-8.2-1-12.1c-1.1-3.9-3-7.6-5.6-10.8
		c-2.6-3.2-5.7-5.9-9.3-7.8c-3.6-2-7.5-3.2-11.6-3.7c-4.1-0.4-8.2-0.1-12.1,1.1C1504.3,990.1,1500.7,992,1497.5,994.6z"/>
	
		<radialGradient id="SVGID_1_" cx="2742.052" cy="5576.4355" r="1" gradientTransform="matrix(65.2535 0 0 -65.2533 -177458.1406 365014.3438)" gradientUnits="userSpaceOnUse">
		<stop  offset="0" style="stop-color:#8065E0"/>
		<stop  offset="1" style="stop-color:#512BD4"/>
	</radialGradient>
	<path fill="url(#SVGID_1_)" d="M1461.3,1173.2c15.1,0,29.8-5.2,41.4-14.8c11.7-9.6,19.7-22.9,22.6-37.7c2.9-14.8,0.7-30.2-6.4-43.5
		c-7.1-13.3-18.6-23.8-32.6-29.5c-13.9-5.8-29.5-6.6-43.9-2.2c-14.5,4.4-26.9,13.6-35.3,26.2c-8.4,12.6-12.2,27.6-10.7,42.7
		c1.5,15,8.1,29.1,18.8,39.8C1427.4,1166.3,1444,1173.2,1461.3,1173.2z"/>
	<path fill="#8A6FE8" d="M527.3,1260.3l40.7,58.1c5.3,7.4,13.3,12.4,22.2,13.9s18.1-0.6,25.5-5.9c3.7-2.6,6.8-5.9,9.2-9.7
		c2.4-3.8,4-8.1,4.8-12.5c0.8-4.4,0.6-9-0.4-13.4c-1-4.4-2.9-8.5-5.5-12.2l-50.4-70.2L527.3,1260.3z"/>
	<path fill="#8A6FE8" d="M457.1,1238.3l-11.3,70.1c-1.3,8.9,1,18.1,6.3,25.3s13.4,12.1,22.3,13.5c8.9,1.4,18-0.9,25.4-6.2
		c7.3-5.3,12.2-13.3,13.6-22.3l11.5-71.8L457.1,1238.3z"/>
	<path fill="#8A6FE8" d="M502.6,1246.2l-9.5,70.3c-0.9,6.7,0.3,13.5,3.3,19.6c3,6.1,7.8,11.1,13.6,14.5c5.9,3.4,12.6,4.9,19.4,4.4
		c6.8-0.5,13.2-2.9,18.6-7.1c3.6-2.8,6.5-6.2,8.8-10.1c2.2-3.9,3.7-8.2,4.2-12.7l9.7-72.1L502.6,1246.2z"/>
	<path fill="#8A6FE8" d="M439.5,1217.4l-25.4,66.2c-3.1,8.5-2.7,17.8,1.1,26c3.8,8.2,10.6,14.6,19.1,17.7c8.4,3.2,17.8,2.9,26-0.8
		c8.2-3.7,14.7-10.5,17.9-18.9l26.1-67.9L439.5,1217.4z"/>
	
		<linearGradient id="SVGID_00000116224193459544496390000002483062946656395698_" gradientUnits="userSpaceOnUse" x1="27.8701" y1="11849.2051" x2="27.8701" y2="11463.4453" gradientTransform="matrix(1 0 0 -1 564 12709.7852)">
		<stop  offset="0.25" style="stop-color:#967FE6"/>
		<stop  offset="1" style="stop-color:#8A6FE8"/>
	</linearGradient>
	<path fill="url(#SVGID_00000116224193459544496390000002483062946656395698_)" d="M486.7,1246.3c-28.3-57.7-44.8-156.4,1.8-244.7
		c28.4-53.6,90.3-121.5,225.1-141.1l10.8,74.7c-81.8,11.8-140.3,47-169.1,101.6c-31.2,59.2-22.9,131.1-0.8,176.2L486.7,1246.3z"/>
	<path fill="#E3DBFF" d="M1486.3,1127.6l-97.1-569.8l8-1.4l87.9,516.3l64.3-501.5l8.1,1L1486.3,1127.6z"/>
	<path fill="#FF5311" d="M1400.4,604.3l27.4,26.5l-40.8,8.9L1400.4,604.3z"/>
	
		<linearGradient id="SVGID_00000123432790130997115310000007416038338528955054_" gradientUnits="userSpaceOnUse" x1="728.1782" y1="12343.2275" x2="947.9063" y2="12218.0693" gradientTransform="matrix(1 0 0 -1 564 12709.7852)">
		<stop  offset="0" style="stop-color:#FF7951"/>
		<stop  offset="1" style="stop-color:#FF2078"/>
	</linearGradient>
	<path fill="url(#SVGID_00000123432790130997115310000007416038338528955054_)" d="M1207.9,416.9c19,87,147.3,209.9,198.2,198.8
		c49.1-10.8,116.1-176.4,97.1-263.3c-19-86.9-100.6-143-182.1-125.2C1239.5,245,1188.8,329.9,1207.9,416.9z"/>
	<path fill="#D600AA" d="M1541.1,678.2l15,35l-41.1-7.6L1541.1,678.2z"/>
	<path fill="#D600AA" d="M1436.3,430.8c-16.2,87.5,54.4,250.6,105.6,260c49.5,9.1,175.4-117.6,191.6-205.1
		c16.2-87.6-37.2-170.9-119.3-186.1C1532.2,284.4,1452.5,343.2,1436.3,430.8z"/>
	<path fill="#E3DBFF" d="M1478.6,545.6l-3.2,548.1h8.1l3.3-548.1L1478.6,545.6z"/>
	
		<linearGradient id="SVGID_00000000206715822660133820000000001887450513950378_" gradientUnits="userSpaceOnUse" x1="884.3804" y1="12168.1152" x2="929.2504" y2="12132.2881" gradientTransform="matrix(1 0 0 -1 564 12709.7852)">
		<stop  offset="0" style="stop-color:#D600AA"/>
		<stop  offset="1" style="stop-color:#512BD4"/>
	</linearGradient>
	<path fill="url(#SVGID_00000000206715822660133820000000001887450513950378_)" d="M1482.5,544.9l21.2,31.7H1462L1482.5,544.9z"/>
	
		<linearGradient id="SVGID_00000072245398714394450760000009373776164171539349_" gradientUnits="userSpaceOnUse" x1="627.2227" y1="12492.8506" x2="1065.9175" y2="12290.4424" gradientTransform="matrix(1 0 0 -1 564 12709.7852)">
		<stop  offset="0" style="stop-color:#D600AA"/>
		<stop  offset="1" style="stop-color:#512BD4"/>
	</linearGradient>
	<path fill="url(#SVGID_00000072245398714394450760000009373776164171539349_)" d="M1334.5,320.6c0,89,99,236.5,151.1,236.5
		c50.3,0,151.1-147.5,151.1-236.5s-67.7-161.2-151.1-161.2C1402.2,159.4,1334.5,231.5,1334.5,320.6z"/>
	<path fill="#8A6FE8" d="M1525.6,1211.9c-3.2,8.1-9.3,14.6-17.2,18.2c-7.9,3.6-16.9,4-25.1,1.1l-41.2-14.5
		c-4.1-1.5-7.9-3.8-11.2-6.8s-5.9-6.5-7.7-10.5c-1.9-4-2.9-8.3-3.1-12.7c-0.2-4.4,0.5-8.8,2-12.9c1.5-4.1,3.8-7.9,6.8-11.2
		c3-3.2,6.5-5.9,10.5-7.7c4-1.9,8.3-2.9,12.7-3.1c4.4-0.2,8.8,0.5,12.9,2l40.7,14.3c4.2,1.5,8.1,3.8,11.4,6.8c3.3,3,6,6.7,7.8,10.8
		s2.9,8.5,3,13C1528,1203.3,1527.2,1207.7,1525.6,1211.9z"/>
	<path fill="#8A6FE8" d="M1564.5,1175.9c-3.2,8.1-9.3,14.6-17.2,18.2s-16.9,4-25.1,1.1l-72.4-23.8c-4.1-1.5-7.9-3.8-11.2-6.8
		c-3.2-3-5.9-6.5-7.7-10.5c-1.9-4-2.9-8.3-3.1-12.7c-0.2-4.4,0.5-8.8,2-12.9c1.5-4.1,3.8-7.9,6.8-11.2s6.5-5.9,10.5-7.7
		s8.3-2.9,12.7-3.1s8.8,0.5,12.9,2l72,23.7C1574.8,1143.6,1564.5,1175.9,1564.5,1175.9z"/>
	<path fill="#8A6FE8" d="M1555.3,1120c-3.2,8.1-9.3,14.6-17.2,18.2c-7.9,3.6-16.9,4-25.1,1.1l-52-17.4c-8.3-3-15.1-9.2-18.9-17.3
		c-3.8-8-4.2-17.2-1.2-25.6c3-8.3,9.2-15.1,17.3-18.9c8-3.8,17.2-4.2,25.6-1.2l51.5,17.2c4.2,1.5,8.1,3.8,11.4,6.8
		c3.3,3,6,6.7,7.8,10.8c1.9,4.1,2.9,8.5,3,13C1557.7,1111.3,1556.9,1115.8,1555.3,1120z"/>
	
		<radialGradient id="SVGID_00000116193874568101720740000007733577360869446558_" cx="3874.4507" cy="4314.9961" r="3.634579e-03" gradientTransform="matrix(19464.0996 0 0 -19464.0996 -75412184 83988720)" gradientUnits="userSpaceOnUse">
		<stop  offset="0" style="stop-color:#8065E0"/>
		<stop  offset="1" style="stop-color:#512BD4"/>
	</radialGradient>
	<path fill="url(#SVGID_00000116193874568101720740000007733577360869446558_)" d="M507.3,1282.4c14,0,27.7-4.2,39.3-11.9
		c11.6-7.8,20.7-18.8,26.1-31.8s6.8-27.2,4-40.9c-2.7-13.7-9.5-26.3-19.4-36.2s-22.5-16.6-36.2-19.4c-13.7-2.7-28-1.3-40.9,4
		c-12.9,5.4-24,14.4-31.8,26.1c-7.8,11.6-11.9,25.3-11.9,39.3c0,9.3,1.8,18.5,5.4,27.1c3.6,8.6,8.8,16.4,15.3,23
		c6.6,6.6,14.4,11.8,23,15.3C488.8,1280.6,498,1282.4,507.3,1282.4z"/>
	
		<radialGradient id="SVGID_00000092443305221074316950000013975648700503427207_" cx="3874.4624" cy="4315.0127" r="3.634579e-03" gradientTransform="matrix(19464.0996 0 0 -19464.0996 -75412184 83988720)" gradientUnits="userSpaceOnUse">
		<stop  offset="0" style="stop-color:#8065E0"/>
		<stop  offset="1" style="stop-color:#512BD4"/>
	</radialGradient>
	<path fill="url(#SVGID_00000092443305221074316950000013975648700503427207_)" d="M739.5,957.4c14,0,27.7-4.2,39.3-11.9
		c11.6-7.8,20.7-18.8,26.1-31.8s6.8-27.2,4-40.9c-2.7-13.7-9.5-26.3-19.4-36.2s-22.5-16.6-36.2-19.4s-28-1.3-40.9,4
		c-12.9,5.4-24,14.4-31.8,26.1c-7.8,11.6-11.9,25.3-11.9,39.3c0,9.3,1.8,18.5,5.4,27.1c3.6,8.6,8.8,16.4,15.3,23
		c6.6,6.6,14.4,11.8,23,15.3C721,955.5,730.2,957.4,739.5,957.4z"/>
</g>
</svg>
