<?xml version="1.0" encoding="utf-8"?>
<!-- Generator: Adobe Illustrator 26.0.0, SVG Export Plug-In . SVG Version: 6.00 Build 0)  -->
<svg version="1.1" id="asset" xmlns="http://www.w3.org/2000/svg" xmlns:xlink="http://www.w3.org/1999/xlink" x="0px" y="0px"
	 viewBox="0 0 2000 2000" style="enable-background:new 0 0 2000 2000;" xml:space="preserve">
<style type="text/css">
	.st0{fill:#8A6FE8;}
	.st1{fill:url(#SVGID_1_);}
	.st2{fill:url(#SVGID_00000061438027035170157410000003554314623265632915_);}
	.st3{fill:url(#SVGID_00000140711330567597091100000017267952685815473851_);}
	.st4{fill:#FFDFEF;}
	.st5{fill:#FF4C00;}
	.st6{fill:#FFFFFF;}
	.st7{fill:#FFA600;}
	.st8{fill:#E000AA;}
	.st9{fill:url(#SVGID_00000143587923194178498680000008573818550176858498_);}
</style>
<g>
	<path class="st0" d="M1498.14,994.51c-36.45,9.94-125.64-5.74-181.37-33.07c-7.36,20.83-16.52,40.81-27.26,59.78
		c74.28,37.69,179.8,51.56,226.51,38.76L1498.14,994.51z"/>
	<path class="st0" d="M530.08,1254.38l40.19,57.34c2.57,3.62,5.84,6.69,9.6,9.05c3.76,2.36,7.95,3.95,12.33,4.69
		s8.86,0.61,13.19-0.39c4.33-0.99,8.42-2.83,12.04-5.4c3.62-2.57,6.69-5.83,9.05-9.6c2.36-3.76,3.95-7.95,4.69-12.33
		s0.61-8.86-0.39-13.18c-0.99-4.33-2.83-8.42-5.4-12.04l-49.73-69.3L530.08,1254.38z"/>
	<path class="st0" d="M460.79,1232.67l-11.12,69.21c-1.3,8.83,0.95,17.82,6.26,25s13.24,11.96,22.06,13.32
		c8.82,1.35,17.82-0.85,25.03-6.11s12.05-13.16,13.45-21.98l11.38-70.88L460.79,1232.67z"/>
	<path class="st0" d="M505.67,1240.48l-9.34,69.42c-0.56,4.4-0.25,8.87,0.91,13.16c1.17,4.28,3.16,8.29,5.88,11.8
		c2.72,3.52,6.1,6.46,9.95,8.66c3.85,2.21,8.1,3.63,12.5,4.2c4.4,0.56,8.88,0.25,13.16-0.92c4.28-1.16,8.29-3.16,11.81-5.88
		c3.51-2.71,6.45-6.09,8.66-9.95c2.21-3.85,3.63-8.1,4.19-12.5l9.6-71.2L505.67,1240.48z"/>
	<path class="st0" d="M443.4,1212.01l-25.09,65.4c-3.03,8.37-2.65,17.59,1.08,25.68c3.73,8.08,10.49,14.36,18.82,17.49
		c8.33,3.13,17.56,2.84,25.69-0.8c8.12-3.64,14.48-10.33,17.7-18.63l25.73-67.06L443.4,1212.01z"/>
	
		<linearGradient id="SVGID_1_" gradientUnits="userSpaceOnUse" x1="593.8129" y1="10686.29" x2="593.8129" y2="10305.4004" gradientTransform="matrix(1 0 0 -1 0 11546)">
		<stop  offset="0.25" style="stop-color:#967FE6"/>
		<stop  offset="1" style="stop-color:#8A6FE8"/>
	</linearGradient>
	<path class="st1" d="M489.98,1240.6c-27.91-57-44.21-154.44,1.78-241.6c28-52.91,89.19-120,222.28-139.29l10.69,73.79
		c-80.8,11.7-138.52,46.39-167,100.32c-30.85,58.4-22.6,129.43-0.78,174L489.98,1240.6z"/>
	
		<radialGradient id="SVGID_00000102526014932101338270000014808636602609893045_" cx="5515.9526" cy="4735.8789" r="7.247061e-03" gradientTransform="matrix(9504.0703 0 0 -9504.0996 -52423268 45011152)" gradientUnits="userSpaceOnUse">
		<stop  offset="0" style="stop-color:#8065E0"/>
		<stop  offset="1" style="stop-color:#512BD4"/>
	</radialGradient>
	<path style="fill:url(#SVGID_00000102526014932101338270000014808636602609893045_);" d="M739.65,954.29
		c13.63,0,26.95-4.04,38.28-11.61s20.16-18.33,25.38-30.92c5.22-12.59,6.58-26.44,3.92-39.81c-2.66-13.37-9.22-25.64-18.86-35.28
		c-9.64-9.64-21.91-16.2-35.28-18.86s-27.22-1.29-39.81,3.92c-12.59,5.22-23.35,14.05-30.92,25.38s-11.61,24.65-11.61,38.28
		c0,9.05,1.78,18.01,5.24,26.37c3.46,8.36,8.54,15.96,14.93,22.35c6.4,6.4,13.99,11.47,22.36,14.94
		C721.64,952.51,730.6,954.29,739.65,954.29L739.65,954.29z"/>
	
		<radialGradient id="SVGID_00000095312899302878916990000000396214433132136881_" cx="5538.2578" cy="4700.0366" r="3.635927e-03" gradientTransform="matrix(19464.0996 0 0 -19464.0996 -107796680 91483184)" gradientUnits="userSpaceOnUse">
		<stop  offset="0" style="stop-color:#8065E0"/>
		<stop  offset="1" style="stop-color:#512BD4"/>
	</radialGradient>
	<path style="fill:url(#SVGID_00000095312899302878916990000000396214433132136881_);" d="M509.29,1277.52
		c14,0,27.68-4.15,39.32-11.93c11.64-7.77,20.71-18.83,26.07-31.76s6.76-27.16,4.03-40.89c-2.73-13.72-9.47-26.33-19.37-36.23
		s-22.51-16.64-36.24-19.37c-13.73-2.73-27.96-1.33-40.89,4.03c-12.93,5.36-23.98,14.43-31.76,26.06
		c-7.78,11.64-11.93,25.32-11.93,39.32c0,9.29,1.83,18.5,5.38,27.08c3.56,8.59,8.77,16.39,15.34,22.97
		c6.57,6.57,14.37,11.78,22.96,15.34C490.79,1275.68,499.99,1277.52,509.29,1277.52z"/>
	<path class="st0" d="M1484.48,919.49l-49.44,80.95c-4.24,6.93-5.55,15.25-3.65,23.14c1.9,7.89,6.86,14.71,13.79,18.94
		c6.92,4.24,15.25,5.55,23.14,3.65s14.71-6.86,18.95-13.79l49.42-80.95c2.14-3.43,3.58-7.25,4.25-11.24
		c0.66-3.99,0.52-8.07-0.4-12.01c-0.93-3.94-2.63-7.65-5-10.93c-2.37-3.28-5.37-6.05-8.82-8.16c-3.46-2.11-7.29-3.52-11.28-4.14
		c-4-0.62-8.09-0.44-12.01,0.53c-3.93,0.96-7.63,2.7-10.88,5.1C1489.3,913,1486.55,916.03,1484.48,919.49L1484.48,919.49z"/>
	<circle class="st4" cx="1519.11" cy="736.97" r="137.78"/>
	<polygon class="st4" points="1539.65,1205.31 1512.38,1205.67 1507.05,855.99 1534.33,855.63 	"/>
	<path class="st5" d="M1526.05,689.14l-3.45,0.05c-4.96,0.07-9.04-3.91-9.11-8.87l-0.42-31.7c-0.07-4.96,3.91-9.04,8.87-9.11
		l3.45-0.05c4.96-0.07,9.04,3.91,9.11,8.87l0.42,31.7C1534.99,684.99,1531.02,689.07,1526.05,689.14z"/>
	<path class="st6" d="M1491.2,668.43l-2.41,2.47c-3.46,3.56-9.16,3.63-12.71,0.17l-22.71-22.12c-3.56-3.46-3.63-9.16-0.17-12.71
		l2.41-2.47c3.46-3.56,9.16-3.63,12.71-0.17l22.71,22.12C1494.59,659.19,1494.67,664.88,1491.2,668.43z"/>
	<path class="st7" d="M1498.05,693.56l0.92,3.33c1.32,4.79-1.49,9.74-6.27,11.06l-30.56,8.44c-4.79,1.32-9.74-1.49-11.06-6.27
		l-0.92-3.33c-1.32-4.79,1.49-9.74,6.27-11.06l30.56-8.44C1491.78,685.96,1496.73,688.77,1498.05,693.56z"/>
	<path class="st8" d="M1486.86,732.52l3,1.7c4.32,2.45,5.83,7.94,3.39,12.26l-15.64,27.58c-2.45,4.32-7.94,5.83-12.26,3.39l-3-1.7
		c-4.32-2.45-5.83-7.94-3.39-12.26l15.64-27.58C1477.05,731.58,1482.54,730.07,1486.86,732.52z"/>
	<path class="st6" d="M1562.17,651.2l2.08-2.75c3-3.96,8.64-4.74,12.59-1.74l25.28,19.14c3.96,3,4.74,8.64,1.74,12.59l-2.08,2.75
		c-3,3.96-8.64,4.74-12.59,1.74l-25.28-19.14C1559.95,660.8,1559.17,655.16,1562.17,651.2z"/>
	<path class="st6" d="M1598.4,743.61l-0.47-3.42c-0.68-4.92,2.76-9.46,7.68-10.14l31.41-4.34c4.92-0.68,9.46,2.76,10.14,7.68
		l0.47,3.42c0.68,4.92-2.76,9.46-7.68,10.14l-31.41,4.34C1603.62,751.96,1599.08,748.52,1598.4,743.61z"/>
	<path class="st7" d="M1562.89,749.32l-3.19-1.32c-4.59-1.9-6.77-7.15-4.88-11.74l12.11-29.3c1.9-4.59,7.15-6.77,11.74-4.88
		l3.19,1.32c4.59,1.9,6.77,7.15,4.88,11.74l-12.11,29.3C1572.73,749.04,1567.48,751.22,1562.89,749.32z"/>
	<path class="st8" d="M1540.57,760.39l-3.19,1.32c-4.59,1.9-9.85-0.27-11.75-4.85l-12.16-29.28c-1.9-4.59,0.27-9.85,4.85-11.75
		l3.19-1.32c4.59-1.9,9.85,0.27,11.75,4.85l12.16,29.28C1547.33,753.22,1545.16,758.48,1540.57,760.39z"/>
	<path class="st5" d="M1515.84,820.81l1.21,3.23c1.75,4.65-0.61,9.83-5.25,11.58l-29.68,11.15c-4.65,1.75-9.83-0.61-11.58-5.25
		l-1.21-3.23c-1.75-4.65,0.61-9.83,5.25-11.58l29.68-11.15C1508.91,813.81,1514.09,816.16,1515.84,820.81z"/>
	<path class="st6" d="M1507.28,784.54l1.44-3.14c2.07-4.51,7.41-6.49,11.92-4.42l28.82,13.22c4.51,2.07,6.49,7.41,4.42,11.92
		l-1.44,3.14c-2.07,4.51-7.41,6.49-11.92,4.42l-28.82-13.22C1507.19,794.39,1505.21,789.05,1507.28,784.54z"/>
	<path class="st5" d="M1583.1,773.56l3.08-1.55c4.44-2.23,9.84-0.44,12.07,3.99l14.25,28.32c2.23,4.44,0.44,9.84-3.99,12.07
		l-3.08,1.55c-4.44,2.23-9.84,0.44-12.07-3.99l-14.25-28.32C1576.88,781.19,1578.67,775.79,1583.1,773.56z"/>
	<path class="st7" d="M1416.44,764l3.08-1.55c4.44-2.23,9.84-0.44,12.07,3.99l14.25,28.32c2.23,4.44,0.44,9.84-3.99,12.07
		l-3.08,1.55c-4.44,2.23-9.84,0.44-12.07-3.99l-14.25-28.32C1410.22,771.63,1412.01,766.23,1416.44,764z"/>
	<path class="st8" d="M1424.73,678.24l2.88,1.91c4.14,2.75,5.26,8.33,2.52,12.46l-17.53,26.41c-2.75,4.14-8.33,5.26-12.46,2.52
		l-2.88-1.91c-4.14-2.75-5.26-8.33-2.52-12.46l17.53-26.41C1415.01,676.63,1420.59,675.5,1424.73,678.24z"/>
	
		<radialGradient id="SVGID_00000180353991222163534030000012822370314964367542_" cx="5081.0981" cy="5815.1875" r="1" gradientTransform="matrix(60.5612 -21.9975 -21.9976 -60.5616 -178301.7031 464991.9062)" gradientUnits="userSpaceOnUse">
		<stop  offset="0" style="stop-color:#8065E0"/>
		<stop  offset="1" style="stop-color:#512BD4"/>
	</radialGradient>
	<path style="fill:url(#SVGID_00000180353991222163534030000012822370314964367542_);" d="M1511.06,1097.45
		c11.97-4.35,22.4-12.16,29.94-22.43c7.54-10.27,11.86-22.55,12.43-35.28s-2.66-25.34-9.26-36.25c-6.61-10.9-16.3-19.6-27.84-24.99
		s-24.43-7.24-37.03-5.31s-24.34,7.55-33.74,16.16c-9.41,8.61-16.05,19.8-19.08,32.18c-3.04,12.38-2.34,25.38,2.02,37.36
		c5.84,16.06,17.81,29.15,33.3,36.38C1477.27,1102.5,1495,1103.29,1511.06,1097.45z"/>
	<path class="st0" d="M1583.79,1111.71c-0.21,8.57-3.73,16.72-9.83,22.73s-14.31,9.41-22.87,9.49l-43.1,0.42
		c-8.76,0.01-17.17-3.46-23.37-9.64s-9.69-14.58-9.71-23.34c-0.01-8.75,3.46-17.16,9.64-23.36s14.58-9.69,23.34-9.71l42.6-0.41
		c4.42-0.04,8.82,0.81,12.91,2.5c4.09,1.68,7.8,4.19,10.9,7.35c3.11,3.15,5.55,6.9,7.17,11.01
		C1583.11,1102.88,1583.89,1107.29,1583.79,1111.71L1583.79,1111.71z"/>
	<path class="st0" d="M1607.78,1065.19c-0.21,8.57-3.74,16.72-9.84,22.74c-6.11,6.01-14.31,9.41-22.88,9.48l-75.27,2.29
		c-4.34,0.01-8.64-0.84-12.64-2.5c-4.02-1.65-7.66-4.08-10.73-7.14s-5.51-6.7-7.18-10.7c-1.66-4.01-2.53-8.3-2.53-12.64
		c-0.01-4.34,0.84-8.63,2.49-12.64s4.08-7.65,7.14-10.72s6.7-5.51,10.71-7.18c4-1.66,8.3-2.53,12.63-2.53l74.79-2.27
		C1606.43,1031.69,1607.78,1065.19,1607.78,1065.19z"/>
	<path class="st0" d="M1580.42,1016.43c-0.21,8.57-3.73,16.72-9.83,22.73s-14.31,9.42-22.87,9.49l-54.07,1.4
		c-4.34,0.01-8.64-0.84-12.64-2.5c-4.02-1.65-7.65-4.08-10.72-7.14s-5.51-6.7-7.18-10.7s-2.52-8.3-2.53-12.63
		c0-4.34,0.84-8.63,2.49-12.64c1.66-4.01,4.08-7.65,7.15-10.72c3.06-3.07,6.69-5.51,10.7-7.17c4-1.66,8.3-2.53,12.63-2.53
		l53.58-1.37c4.42-0.04,8.81,0.81,12.9,2.5s7.8,4.19,10.9,7.34c3.11,3.15,5.55,6.9,7.18,11.01
		C1579.73,1007.6,1580.52,1012,1580.42,1016.43L1580.42,1016.43z"/>
</g>
</svg>
