<?xml version="1.0" encoding="utf-8"?>
<!-- Generator: Adobe Illustrator 24.3.0, SVG Export Plug-In . SVG Version: 6.00 Build 0)  -->
<svg version="1.1" xmlns="http://www.w3.org/2000/svg" xmlns:xlink="http://www.w3.org/1999/xlink" x="0px" y="0px"
	 viewBox="0 0 2000 2000" enable-background="new 0 0 2000 2000" xml:space="preserve">
<g id="ghost-image" display="none">
	<g display="inline" opacity="0.5">
		<path fill="#8A6FE8" d="M1469.02,1134.64c-57.66-4.68-181.26-73.79-228.06-150.36c-28.4-46.51,24.83-83.62,53.75-36.22
			c31.36,51.3,134.81,115.23,179.86,118.94L1469.02,1134.64z"/>
		<path fill="#8A6FE8" d="M1525.01,1005.66l-88.68,33.66c-15.81,6.01-23.74,23.69-17.79,39.47c6.01,15.81,23.68,23.74,39.47,17.79
			l88.68-33.66c15.81-6.01,23.74-23.69,17.79-39.47C1558.56,1007.59,1540.82,999.63,1525.01,1005.66z"/>
		<path fill="#8A6FE8" d="M1416.45,1155.13l37.83,51.37c10.17,13.62,29.44,16.44,43.06,6.26c13.63-10.17,16.44-29.43,6.27-43.06
			l-38.78-52.71L1416.45,1155.13z"/>
		<path fill="#8A6FE8" d="M1450.74,1158.21l76.78,42.91c14.86,8.25,33.6,2.87,41.85-12.01c8.25-14.83,2.87-33.6-12.01-41.85
			l-57-32.1L1450.74,1158.21z"/>
		<path fill="#8A6FE8" d="M1460.34,1121.85l84.59,24.43c16.33,4.74,33.4-4.69,38.15-20.98c4.74-16.33-4.69-33.4-20.98-38.15
			l-86.18-24.89L1460.34,1121.85z"/>
		
			<radialGradient id="SVGID_1_" cx="6130.1416" cy="9277.5146" r="6.0502" gradientTransform="matrix(10.6515 0 0 -10.6515 -63843.6289 99923.1875)" gradientUnits="userSpaceOnUse">
			<stop  offset="0" style="stop-color:#8065E0"/>
			<stop  offset="1" style="stop-color:#512BD4"/>
		</radialGradient>
		<path fill="url(#SVGID_1_)" d="M1451.57,1168.18c35.59,0,64.45-28.85,64.45-64.44c0-35.59-28.86-64.44-64.45-64.44
			c-35.58,0-64.44,28.85-64.44,64.44C1387.13,1139.33,1415.99,1168.18,1451.57,1168.18z"/>
		
			<linearGradient id="SVGID_2_" gradientUnits="userSpaceOnUse" x1="432.5041" y1="14876.1748" x2="492.2814" y2="14591.4668" gradientTransform="matrix(1 0 0 -1 694 15972)">
			<stop  offset="0" style="stop-color:#522CD5"/>
			<stop  offset="0.4397" style="stop-color:#8A6FE8"/>
		</linearGradient>
		<path fill="url(#SVGID_2_)" d="M1216.5,1374.16c0.66-59.76-7.85-181.06-69.53-282.64l-60.31,36.62
			c55.97,92.13,60.17,199.66,58.87,246.57C1145.39,1378.59,1181.58,1382.1,1216.5,1374.16z"/>
		<path fill="#522CD5" d="M1145.53,1374.05l55.85-0.26l52.14,298.71l-112.1,0.52c-8.54,0.03-15.01-6.84-14.43-15.38L1145.53,1374.05
			z"/>
		
			<linearGradient id="SVGID_3_" gradientUnits="userSpaceOnUse" x1="468.5244" y1="14600.0068" x2="646.1333" y2="14283.3535" gradientTransform="matrix(1 0 0 -1 694 15972)">
			<stop  offset="0" style="stop-color:#522CD5"/>
			<stop  offset="0.4397" style="stop-color:#8A6FE8"/>
		</linearGradient>
		<path fill="url(#SVGID_3_)" d="M1373.04,1593.94c9.68,7.65,9.52,18.71,8.77,30.39l-2.33,35.78c-0.43,6.41-6.01,11.68-12.41,11.7
			l-116.82,0.52c-7.28,0.03-12.76-5.84-12.27-13.08l0.77-37.08c0.89-13.48-3.65-18.43-14.08-31.13
			c-17.88-21.7-70.74-139.98-65.71-217.05l57.52-0.26C1220.29,1419.47,1280.66,1521.05,1373.04,1593.94z"/>
		
			<radialGradient id="SVGID_4_" cx="6400.3257" cy="8978.0986" r="6.0492" gradientTransform="matrix(20.3477 -0.0926 -0.0926 -20.3477 -128096.1875 184818.4375)" gradientUnits="userSpaceOnUse">
			<stop  offset="0.034" style="stop-color:#522CD5"/>
			<stop  offset="0.9955" style="stop-color:#8A6FE8"/>
		</radialGradient>
		<path fill="url(#SVGID_4_)" d="M1381.81,1624.33c0.55-8.17,0.69-15.98-2.5-22.59l-145.71,0.66c4.03,5.92,5.72,11.09,5.18,19.74
			l-0.78,37.08c-0.48,7.27,5.03,13.14,12.27,13.08l116.82-0.51c6.41-0.03,11.99-5.29,12.42-11.7L1381.81,1624.33z"/>
		
			<linearGradient id="SVGID_5_" gradientUnits="userSpaceOnUse" x1="103.6272" y1="14880.5391" x2="172.3586" y2="14557.1797" gradientTransform="matrix(1 0 0 -1 694 15972)">
			<stop  offset="0" style="stop-color:#522CD5"/>
			<stop  offset="0.4397" style="stop-color:#8A6FE8"/>
		</linearGradient>
		<path fill="url(#SVGID_5_)" d="M847.6,1418.81l-71.31-8.88l40.1-322.45l71.32,8.85L847.6,1418.81z"/>
		<path fill="#522CD5" d="M781.46,1371.7l56.51-0.26l15.64,302.04L740.18,1674c-8.62,0.03-14.31-6.93-12.68-15.55L781.46,1371.7z"/>
		
			<linearGradient id="SVGID_6_" gradientUnits="userSpaceOnUse" x1="48.8044" y1="14573.0049" x2="202.8481" y2="14279.4717" gradientTransform="matrix(1 0 0 -1 694 15972)">
			<stop  offset="0" style="stop-color:#522CD5"/>
			<stop  offset="0.4397" style="stop-color:#8A6FE8"/>
		</linearGradient>
		<path fill="url(#SVGID_6_)" d="M945.67,1595.09c8.71,7.88,8.51,18,6.27,29.81l-6.81,36.19c-1.21,6.47-7.53,11.78-14,11.81
			l-162.21,0.75c-7.36,0.02-12.19-5.89-10.81-13.25l5.78-37.51c2.56-13.62,0.57-17.65,0.83-35.13
			c0.49-32.76,15.61-138.25,30.27-216.16l58.21-0.25C851.42,1417.63,871.48,1527.86,945.67,1595.09z"/>
		
			<radialGradient id="SVGID_7_" cx="6408.5767" cy="8954.5996" r="6.0492" gradientTransform="matrix(22.145 -0.1007 -0.1006 -22.1216 -140153.875 200277.2969)" gradientUnits="userSpaceOnUse">
			<stop  offset="0.034" style="stop-color:#522CD5"/>
			<stop  offset="0.9955" style="stop-color:#8A6FE8"/>
		</radialGradient>
		<path fill="url(#SVGID_7_)" d="M763.92,1622.92l-5.78,37.51c-1.38,7.33,3.45,13.28,10.81,13.25l162.2-0.74
			c6.5-0.03,12.79-5.35,14-11.81l6.81-36.19c1.61-8.57,2.1-16.24-1.03-22.82l-185.86,0.83
			C765.36,1609.61,765.53,1614.39,763.92,1622.92z"/>
		<path fill="#8A6FE8" d="M803.96,455.82l-67.46,27.13l-18.37-73.07l48.43-19.49L803.96,455.82z"/>
		<path fill="#512BD4" d="M788.84,581.95c38.16,0,69.1-30.94,69.1-69.1c0-38.16-30.94-69.1-69.1-69.1s-69.1,30.94-69.1,69.1
			C719.74,551.01,750.68,581.95,788.84,581.95z"/>
		
			<radialGradient id="SVGID_8_" cx="6601.9434" cy="8790.5693" r="6.0492" gradientTransform="matrix(61.9498 0 0 -61.9498 -407973.375 545342.125)" gradientUnits="userSpaceOnUse">
			<stop  offset="0.4744" style="stop-color:#A08BE8"/>
			<stop  offset="0.8618" style="stop-color:#8065E0"/>
		</radialGradient>
		<path fill="url(#SVGID_8_)" d="M1300.17,939.67c24.86-95.46,8.83-171.66,8.83-171.66h22.45l0.54-0.43
			c-32.16-175.17-185.6-307.91-370.05-307.91c-207.82,0-376.29,168.47-376.29,376.29c0,207.82,168.44,376.29,376.29,376.29
			c163.98,0,303.45-104.92,354.99-251.25C1318.43,954.79,1318.29,943.64,1300.17,939.67z"/>
		<path fill="#D8CFF7" d="M1286.38,1026.53h-648.9c14.57,24.75,31.88,47.66,51.54,68.36h545.85
			C1254.5,1074.17,1271.8,1051.28,1286.38,1026.53z"/>
		
			<radialGradient id="SVGID_9_" cx="6575.8799" cy="8822.0029" r="6.0492" gradientTransform="matrix(48.2581 0 0 -48.2581 -316107.375 426431.9688)" gradientUnits="userSpaceOnUse">
			<stop  offset="0.0933" style="stop-color:#E1DFDD"/>
			<stop  offset="0.8998" style="stop-color:#FFFFFF"/>
		</radialGradient>
		<path fill="url(#SVGID_9_)" d="M1300.17,939.67c24.55-94.28,9.22-169.73,8.86-171.57H918.6c0,0-24.61-2.5-24.61,19.98
			c0,22.48,0.93,85.94,0.93,156.17c0,14.43,11.81,21.38,21.12,21.38C916.07,965.59,1256.6,965.57,1300.17,939.67z"/>
		<path fill="#A08BE8" d="M1065.02,939.87c0,0,60.05-47.51,71.75-56.31c11.72-8.8,21.96-9.29,32.71,0
			c10.75,9.29,70.85,56.31,70.85,56.31H1065.02z"/>
		<path fill="#512BD4" d="M1315.41,965.33c0,0,10.43-20.06-15.24-25.67c0.03-0.08-383.82-0.28-383.82-0.28
			c-8.93,0-20.43-5.32-21.41-14c0,6.21,0.03,12.47,0.03,18.83c0,13.11,9.75,20.03,18.48,21.18c0.86,0.11,1.75,0.2,2.65,0.2h26.24
			L1315.41,965.33z"/>
		<path fill="#512BD4" d="M1286.53,851.61c0.41-27.33-12.44-49.69-28.69-49.93c-16.25-0.24-29.76,21.72-30.17,49.05
			c-0.41,27.34,12.44,49.69,28.69,49.93C1272.61,900.9,1286.12,878.95,1286.53,851.61z"/>
		<path fill="#8065E0" d="M1256.74,825.01c-10.75,10.75-10.75,28.17,0,38.92c7.36,7.36,17.85,9.69,27.19,6.96
			c1.58-5.89,2.5-12.42,2.62-19.26c0.2-13.39-2.79-25.58-7.82-34.58C1270.88,816.36,1262.75,819,1256.74,825.01z"/>
		<path fill="#512BD4" d="M1020.8,900.92c16.25-0.24,29.1-22.6,28.69-49.93c-0.41-27.33-13.91-49.3-30.17-49.05
			c-16.25,0.24-29.1,22.6-28.69,49.93C991.04,879.19,1004.54,901.16,1020.8,900.92z"/>
		<path fill="#8065E0" d="M1019.83,826.62c-10.75,10.75-10.75,28.17,0,38.92c7.33,7.33,17.74,9.63,27.02,6.98
			c1.78-6.55,2.76-13.85,2.64-21.59c-0.17-12.42-3.07-23.69-7.7-32.28C1033.95,817.97,1025.84,820.61,1019.83,826.62z"/>
		<path fill="#512BD4" d="M1084.82,1115.23l123.17-0.56l-0.5-108.94l-123.17,0.56L1084.82,1115.23z"/>
		<path fill="#FFFFFF" d="M1106.12,1074.51c-0.83,0-1.52-0.26-2.1-0.8c-0.57-0.55-0.86-1.24-0.86-1.98c0-0.77,0.28-1.47,0.86-2.01
			c0.57-0.57,1.26-0.83,2.1-0.83c0.83,0,1.52,0.29,2.1,0.83c0.57,0.54,0.89,1.24,0.89,2.01c0,0.77-0.28,1.43-0.86,1.98
			C1107.68,1074.22,1106.96,1074.51,1106.12,1074.51z"/>
		<path fill="#FFFFFF" d="M1138.89,1073.97h-5.32l-14.08-22.11c-0.34-0.54-0.67-1.15-0.9-1.75h-0.11c0.11,0.63,0.18,2.01,0.18,4.14
			l0.03,19.74h-4.72l-0.05-30.12h5.66l13.6,21.59c0.57,0.89,0.94,1.52,1.12,1.84h0.08c-0.15-0.8-0.2-2.15-0.2-4.05l-0.03-19.4h4.69
			L1138.89,1073.97z"/>
		<path fill="#FFFFFF" d="M1161.83,1073.94l-16.5,0.03l-0.06-30.12l15.84-0.03v4.25l-10.95,0.03l0.03,8.54l10.09-0.03v4.23
			l-10.09,0.03l0.02,8.91l11.61-0.03V1073.94z"/>
		<path fill="#FFFFFF" d="M1185.2,1048.01l-8.45,0.02l0.06,25.87h-4.89l-0.06-25.87l-8.42,0.03v-4.25l21.73-0.06L1185.2,1048.01z"/>
		<path fill="#8A6FE8" d="M529.43,1254.19l40.18,57.34c10.81,15.24,31.93,18.74,47.17,7.94c15.23-10.81,18.74-31.93,7.93-47.14
			l-49.73-69.3L529.43,1254.19z"/>
		<path fill="#8A6FE8" d="M460.13,1232.49L449,1301.65c-2.82,18.43,9.8,35.7,28.28,38.52c18.43,2.82,35.7-9.8,38.52-28.29
			l11.38-70.88L460.13,1232.49z"/>
		<path fill="#8A6FE8" d="M504.99,1240.3l-9.34,69.42c-2.36,18.48,10.75,35.44,29.23,37.8c18.48,2.36,35.44-10.75,37.83-29.23
			l9.6-71.2L504.99,1240.3z"/>
		<path fill="#8A6FE8" d="M442.74,1211.82l-25.09,65.39c-6.58,17.48,2.3,36.99,19.78,43.52c17.48,6.58,36.99-2.3,43.52-19.77
			l25.73-67.06L442.74,1211.82z"/>
		
			<linearGradient id="SVGID_10_" gradientUnits="userSpaceOnUse" x1="-100.864" y1="15112.4697" x2="-100.864" y2="14731.5771" gradientTransform="matrix(1 0 0 -1 694 15972)">
			<stop  offset="0.2495" style="stop-color:#967FE6"/>
			<stop  offset="1" style="stop-color:#8A6FE8"/>
		</linearGradient>
		<path fill="url(#SVGID_10_)" d="M489.3,1240.42c-27.91-57-44.21-154.45,1.78-241.6c27.97-52.92,89.19-120.03,222.28-139.29
			l10.69,73.79c-80.8,11.7-138.52,46.39-167,100.32c-30.84,58.41-22.59,129.43-0.78,174.04L489.3,1240.42z"/>
		
			<radialGradient id="SVGID_11_" cx="6115.6206" cy="9256.3447" r="6.0492" gradientTransform="matrix(11.3989 0 0 -11.3989 -68974.6094 106373.5469)" gradientUnits="userSpaceOnUse">
			<stop  offset="0" style="stop-color:#8065E0"/>
			<stop  offset="1" style="stop-color:#512BD4"/>
		</radialGradient>
		<path fill="url(#SVGID_11_)" d="M738.97,954.1c38.06,0,68.9-30.84,68.9-68.9c0-38.06-30.84-68.9-68.9-68.9
			c-38.06,0-68.9,30.84-68.9,68.9C670.07,923.23,700.92,954.1,738.97,954.1z"/>
		
			<radialGradient id="SVGID_12_" cx="6401.9028" cy="8960.3008" r="6.0492" gradientTransform="matrix(22.7292 0 0 -22.7292 -145005.2656 204814.2031)" gradientUnits="userSpaceOnUse">
			<stop  offset="0" style="stop-color:#8065E0"/>
			<stop  offset="1" style="stop-color:#512BD4"/>
		</radialGradient>
		<path fill="url(#SVGID_12_)" d="M508.62,1277.33c39.09,0,70.77-31.68,70.77-70.77c0-39.09-31.68-70.77-70.77-70.77
			c-39.09,0-70.77,31.68-70.77,70.77C437.85,1245.65,469.55,1277.33,508.62,1277.33z"/>
		<path fill="#D8CFF7" d="M739.68,415.8c-26.24,6.99-53.32-8.39-60.54-34.41c-7.19-26.01,8.22-52.72,34.46-59.7
			c26.24-6.98,53.32,8.39,60.54,34.41C781.36,382.11,765.95,408.78,739.68,415.8z"/>
	</g>
</g>
<g id="bot-base" display="none">
	<g display="inline">
		
			<radialGradient id="SVGID_13_" cx="6601.9434" cy="8790.5693" r="6.0492" gradientTransform="matrix(61.9498 0 0 -61.9498 -407973.375 545342.125)" gradientUnits="userSpaceOnUse">
			<stop  offset="0.4744" style="stop-color:#A08BE8"/>
			<stop  offset="0.8618" style="stop-color:#8065E0"/>
		</radialGradient>
		<path fill="url(#SVGID_13_)" d="M1300.17,939.67c24.86-95.46,8.83-171.66,8.83-171.66h22.45l0.54-0.43
			c-32.16-175.17-185.6-307.91-370.05-307.91c-207.82,0-376.29,168.47-376.29,376.29c0,207.82,168.44,376.29,376.29,376.29
			c163.98,0,303.45-104.92,354.99-251.25C1318.43,954.79,1318.29,943.64,1300.17,939.67z"/>
		<path fill="#D8CFF7" d="M1286.38,1026.53h-648.9c14.57,24.75,31.88,47.66,51.54,68.36h545.85
			C1254.5,1074.17,1271.8,1051.28,1286.38,1026.53z"/>
		
			<radialGradient id="SVGID_14_" cx="6575.8799" cy="8822.0029" r="6.0492" gradientTransform="matrix(48.2581 0 0 -48.2581 -316107.375 426431.9688)" gradientUnits="userSpaceOnUse">
			<stop  offset="0.0933" style="stop-color:#E1DFDD"/>
			<stop  offset="0.8998" style="stop-color:#FFFFFF"/>
		</radialGradient>
		<path fill="url(#SVGID_14_)" d="M1300.17,939.67c24.55-94.28,9.22-169.73,8.86-171.57H918.6c0,0-24.61-2.5-24.61,19.98
			c0,22.48,0.93,85.94,0.93,156.17c0,14.43,11.81,21.38,21.12,21.38C916.07,965.59,1256.6,965.57,1300.17,939.67z"/>
		<path fill="#A08BE8" d="M1065.02,939.87c0,0,60.05-47.51,71.75-56.31c11.72-8.8,21.96-9.29,32.71,0
			c10.75,9.29,70.85,56.31,70.85,56.31H1065.02z"/>
		<path fill="#512BD4" d="M1315.41,965.33c0,0,10.43-20.06-15.24-25.67c0.03-0.08-383.82-0.28-383.82-0.28
			c-8.93,0-20.43-5.32-21.41-14c0,6.21,0.03,12.47,0.03,18.83c0,13.11,9.75,20.03,18.48,21.18c0.86,0.11,1.75,0.2,2.65,0.2h26.24
			L1315.41,965.33z"/>
		<path fill="#512BD4" d="M1084.82,1115.23l123.17-0.56l-0.5-108.94l-123.17,0.56L1084.82,1115.23z"/>
		<path fill="#FFFFFF" d="M1106.12,1074.51c-0.83,0-1.52-0.26-2.1-0.8c-0.57-0.55-0.86-1.24-0.86-1.98c0-0.77,0.28-1.47,0.86-2.01
			c0.57-0.57,1.26-0.83,2.1-0.83c0.83,0,1.52,0.29,2.1,0.83c0.57,0.54,0.89,1.24,0.89,2.01c0,0.77-0.28,1.43-0.86,1.98
			C1107.68,1074.22,1106.96,1074.51,1106.12,1074.51z"/>
		<path fill="#FFFFFF" d="M1138.89,1073.97h-5.32l-14.08-22.11c-0.34-0.54-0.67-1.15-0.9-1.75h-0.11c0.11,0.63,0.18,2.01,0.18,4.14
			l0.03,19.74h-4.72l-0.05-30.12h5.66l13.6,21.59c0.57,0.89,0.94,1.52,1.12,1.84h0.08c-0.15-0.8-0.2-2.15-0.2-4.05l-0.03-19.4h4.69
			L1138.89,1073.97z"/>
		<path fill="#FFFFFF" d="M1161.83,1073.94l-16.5,0.03l-0.06-30.12l15.84-0.03v4.25l-10.95,0.03l0.03,8.54l10.09-0.03v4.23
			l-10.09,0.03l0.02,8.91l11.61-0.03V1073.94z"/>
		<path fill="#FFFFFF" d="M1185.2,1048.01l-8.45,0.02l0.06,25.87h-4.89l-0.06-25.87l-8.42,0.03v-4.25l21.73-0.06L1185.2,1048.01z"/>
	</g>
</g>
<g id="asset">
	<g>
		
			<linearGradient id="SVGID_15_" gradientUnits="userSpaceOnUse" x1="999.1843" y1="19.5003" x2="999.1843" y2="1940.8069" gradientTransform="matrix(-1 0 0 1 1998.3687 0)">
			<stop  offset="0.0949" style="stop-color:#77E3FB"/>
			<stop  offset="0.2428" style="stop-color:#BBF1FD"/>
			<stop  offset="0.9938" style="stop-color:#BBF1FD"/>
		</linearGradient>
		<path fill="url(#SVGID_15_)" d="M948.87,1938.88c797.66,13.11,902.18-35.69,960.96-300.98
			c114.03-514.64-131.85-729.08-28.99-1154.94C1976.75,85.86,1380.49-12.37,764.77,27.81S57.63,242.14,161.51,581.95
			c72.93,238.55,53.58,535.58-80.37,836.86S405.63,1929.95,948.87,1938.88z"/>
		<path fill="#FFE5B9" d="M1909.83,1637.9c-58.78,265.29-163.3,314.1-960.96,300.98c-543.24-8.93-1001.68-218.79-867.73-520.07
			c24.67-55.48,45.43-110.81,62.47-165.67h1791.88C1945.7,1364.44,1942.93,1488.52,1909.83,1637.9z"/>
		<path fill="#F9C163" d="M1939.48,1419.77c-251.71-12.96-418.08-16.02-363.34,18.64c70.52,44.65-1.82,66.06-450.66,48.2
			c-448.84-17.86-544.17-14.31-475.59,23.9c89.67,49.95-430.92,12.73-592.1,3.81c1.13-30.65,8.7-62.53,23.36-95.51
			c24.72-55.59,45.52-111.04,62.57-166.01l1791.45-3.02C1940.2,1303.07,1942.27,1359.27,1939.48,1419.77z"/>
		<linearGradient id="SVGID_16_" gradientUnits="userSpaceOnUse" x1="1025.6316" y1="892.9514" x2="1025.6316" y2="1346.1675">
			<stop  offset="0.4455" style="stop-color:#FFFFFF"/>
			<stop  offset="0.7566" style="stop-color:#BBF1FD"/>
		</linearGradient>
		<path fill="url(#SVGID_16_)" d="M1940,1324.07c0-0.01,0-0.01,0-0.02c-2.01-57.49-8.01-111.28-15.95-162.84
			c-0.01-0.04-0.01-0.07-0.02-0.11c-0.4-2.58-0.8-5.14-1.21-7.71c-0.03-0.2-0.06-0.4-0.09-0.6c-0.39-2.43-0.78-4.86-1.17-7.29
			c-0.05-0.33-0.11-0.65-0.16-0.98c-0.38-2.32-0.76-4.64-1.15-6.95c-0.07-0.42-0.14-0.84-0.21-1.27c-0.38-2.24-0.75-4.48-1.14-6.71
			c-0.08-0.49-0.17-0.97-0.25-1.46c-0.37-2.16-0.74-4.31-1.12-6.46c-0.1-0.58-0.2-1.16-0.3-1.74c-0.36-2.08-0.73-4.15-1.1-6.23
			c-0.11-0.63-0.22-1.26-0.34-1.89c-0.36-2.03-0.73-4.06-1.09-6.08c-0.12-0.67-0.24-1.33-0.36-2c-0.36-1.99-0.73-3.97-1.09-5.95
			c-0.13-0.7-0.26-1.4-0.39-2.11c-0.36-1.95-0.72-3.9-1.09-5.84c-0.14-0.73-0.27-1.45-0.41-2.18c-0.36-1.91-0.72-3.82-1.08-5.73
			c-0.14-0.76-0.29-1.51-0.43-2.27c-0.36-1.9-0.72-3.8-1.09-5.7c-0.13-0.7-0.27-1.39-0.4-2.09c-0.38-1.95-0.75-3.9-1.13-5.85
			c-0.12-0.62-0.24-1.23-0.36-1.84c-0.4-2.04-0.8-4.08-1.2-6.12c-0.01-0.06-0.02-0.12-0.04-0.18
			c-101.17-30.1-165.34,51.6-165.34,51.6s-46.88-43.54-132.28-41.86c-87.05,1.71-122.23,66.98-122.23,66.98
			s-31.81-40.19-80.37-30.14c-51.63,10.68-77.12,63.72-77.12,63.72c-154.32-228.32-258.13-140.74-258.13-140.74
			s-47.91-70.13-136.81-81.95c-88.9-11.82-96.81,81.04-96.81,81.04s-72.51-36.8-131.59,7.04c-37.91,28.13-71.57,79.75-71.44,111.63
			c1.12-37.95-17.54-89.79-78.14-138.42c-90.42-72.56-203.16-39.07-203.16-39.07s-16.74-67.53-97.12-74.23
			c-19.6-1.63-37.16,0.62-51.89,4.79c-2.75,131.43-28.31,271.06-79.03,413.1c-0.57,1.61-1.15,3.23-1.74,4.85
			c-0.73,2.03-1.46,4.05-2.2,6.08c-1.1,3.01-2.23,6.05-3.37,9.12c-0.66,1.78-1.33,3.55-2,5.33c-1.16,3.07-2.34,6.17-3.54,9.3
			c-0.02,0.04-0.03,0.08-0.04,0.12L1940,1324.07z"/>
		
			<linearGradient id="SVGID_17_" gradientUnits="userSpaceOnUse" x1="689.7299" y1="132.285" x2="689.7299" y2="351.2789" gradientTransform="matrix(-1 0 0 1 1998.3687 0)">
			<stop  offset="0.5272" style="stop-color:#FFFFFF"/>
			<stop  offset="0.9938" style="stop-color:#BBF1FD"/>
		</linearGradient>
		<path fill="url(#SVGID_17_)" d="M1628.6,351.28H988.67c0,0,3.08-62.09,74.52-99.4c25.34-13.23,75.06,0.86,75.06,0.86
			s46.56-106.84,120.56-118.33c129.49-20.09,187.53,108.43,187.53,108.43s54.21-15.1,88.6-0.51
			C1606.84,272.84,1628.6,351.28,1628.6,351.28z"/>
		<path fill="#FFFFFF" d="M81.14,1418.81c25.47-57.28,46.78-114.41,64.12-171.01l1789.43-3.02c4.66,47.49,7,97.28,5.67,150.35
			c-0.19,6.5-0.43,13.04-0.73,19.64c-251.75-12.96-434.8-24.03-380.05,10.63c70.54,44.65,17.11,61.83-431.8,43.96
			c-448.91-17.86-569.64-8.78-499.72,26.94c64.65,33.03-408.42,21.96-570.02,13.04C59.77,1480.22,67.27,1450.01,81.14,1418.81z"/>
		
			<linearGradient id="SVGID_18_" gradientUnits="userSpaceOnUse" x1="996.116" y1="1203.207" x2="996.116" y2="1483.63" gradientTransform="matrix(-1 0 0 1 1998.3687 0)">
			<stop  offset="0.1442" style="stop-color:#2ECCEF"/>
			<stop  offset="0.4769" style="stop-color:#77E3FB"/>
		</linearGradient>
		<path fill="url(#SVGID_18_)" d="M1940.37,1394.57c-316.48-14.43-578.42-36.55-514.32,4.03c70.52,44.65,30.53,58.05-418.31,40.19
			c-448.84-17.86-570.8-8.93-500.89,26.79c60.19,30.75-275.9,15.17-443.08,4.54c3.88-16.79,9.62-33.9,17.37-51.31
			c31.72-71.35,57.01-142.46,76.17-212.61l1772.67-2.99C1937.62,1262.94,1942.06,1326.01,1940.37,1394.57z"/>
		<path fill="#0BBACF" d="M1597.04,1212.25l78.14-44.31c0,0,82.6,2.94,125.02-20.43c31.01-17.08,41.74-21.75,119.39-13.85
			c4.33,25.63,8.25,51.77,11.51,78.59H1597.04z"/>
		<path fill="#FDD696" d="M1813.6,1693.48h-127.26c0,0,35.72-35.9,63.63-40.37C1777.88,1648.65,1813.6,1693.48,1813.6,1693.48z"/>
		<path fill="#F9C163" d="M351.28,1629.02H197.23c0,0,24.56-27.9,60.28-32.04C293.23,1592.83,351.28,1629.02,351.28,1629.02z"/>
		<path fill="#FDD696" d="M1646.16,1469.32h75.91c0,0-11.16-18.9-37.95-18.9S1646.16,1469.32,1646.16,1469.32z"/>
		
			<rect x="1813.6" y="1534.18" transform="matrix(-0.9479 0.3185 -0.3185 -0.9479 4051.7676 2432.6101)" fill="#F9C163" width="26.79" height="26.79"/>
		
			<rect x="911.71" y="1816.09" transform="matrix(-0.9433 -0.3319 0.3319 -0.9433 1186.4484 3856.4446)" fill="#FFF6E8" width="21.64" height="21.64"/>
		
			<rect x="699.27" y="1862.97" transform="matrix(-0.9899 0.1419 -0.1419 -0.9899 1686.4111 3634.429)" fill="#F9C163" width="28.73" height="28.73"/>
		
			<rect x="345.95" y="1756.17" transform="matrix(-0.9486 -0.3164 0.3164 -0.9486 144.055 3566.9751)" fill="#FFF6E8" width="31.26" height="31.26"/>
		
			<rect x="384.77" y="1578.25" transform="matrix(-0.9782 0.2077 -0.2077 -0.9782 1120.9456 3068.1121)" fill="#FDD696" width="29.3" height="29.3"/>
		
			<rect x="295.47" y="1545.05" transform="matrix(-0.7883 0.6153 -0.6153 -0.7883 1505.9142 2594.2563)" fill="#FFF6E8" width="22.33" height="22.33"/>
		
			<rect x="1579.36" y="1850.72" transform="matrix(-1 -4.469814e-11 4.469814e-11 -1 3185.3354 3728.0608)" fill="#FDD696" width="26.61" height="26.61"/>
		
			<rect x="1653.54" y="1816.09" transform="matrix(-0.9832 -0.1825 0.1825 -0.9832 2967.4609 3926.824)" fill="#F9C163" width="21.64" height="21.64"/>
		
			<rect x="1664.36" y="1601.74" transform="matrix(-1 -4.500990e-11 4.500990e-11 -1 3350.7092 3225.4568)" fill="#FFF6E8" width="21.98" height="21.98"/>
		
			<rect x="973.75" y="1878.85" transform="matrix(-1 -4.476076e-11 4.476076e-11 -1 1973.2021 3783.407)" fill="#FDD696" width="25.7" height="25.7"/>
		
			<rect x="600.42" y="1816.09" transform="matrix(-1 -4.479407e-11 4.479407e-11 -1 1222.4861 3653.8208)" fill="#FDD696" width="21.64" height="21.64"/>
		
			<rect x="185.6" y="1662.37" transform="matrix(-1 -4.515689e-11 4.515689e-11 -1 394.4674 3348)" fill="#FDD696" width="23.26" height="23.26"/>
		
			<rect x="1251.71" y="1831.29" transform="matrix(-0.948 -0.3183 0.3183 -0.948 1887.1787 4009.7715)" fill="#FDD696" width="38.87" height="38.87"/>
		
			<rect x="1537.3" y="1521.72" transform="matrix(-1 -4.497481e-11 4.497481e-11 -1 3099.5198 3068.3501)" fill="#FDD696" width="24.91" height="24.91"/>
		
			<rect x="1849.6" y="1601.94" transform="matrix(-1 -4.497126e-11 4.497126e-11 -1 3720.9724 3225.6604)" fill="#FDD696" width="21.78" height="21.78"/>
		<path fill="#FFFFFF" d="M358.23,1452.66l-239.14-12.75c0,0,78.39-20.41,145.37-18.9C331.44,1422.52,358.23,1452.66,358.23,1452.66
			z"/>
		<path fill="#FFFFFF" d="M1871.38,1371.36l-207.01-1.62c0,0,62.17-24.22,103.51-23.56S1871.38,1371.36,1871.38,1371.36z"/>
		<path fill="#FFFFFF" d="M755.31,1398.97l-176.93,2.82c0,0,56.74-19.05,106.19-21.36C734.02,1378.13,755.31,1398.97,755.31,1398.97
			z"/>
		
			<linearGradient id="SVGID_19_" gradientUnits="userSpaceOnUse" x1="314.9165" y1="617.0314" x2="314.9165" y2="788.4136" gradientTransform="matrix(-1 0 0 1 1998.3687 0)">
			<stop  offset="0.5272" style="stop-color:#FFFFFF"/>
			<stop  offset="0.9938" style="stop-color:#BBF1FD"/>
		</linearGradient>
		<path fill="url(#SVGID_19_)" d="M1859.53,788.41h-352.16c0,0,17.03-61.39,73.3-85.26c26.91-11.42,69.33,0.4,69.33,0.4
			s45.43-100.58,146.76-84.86c23.65,3.67,43.71,19.78,59.18,37.57C1853.91,702.05,1855.53,745.79,1859.53,788.41z"/>
		<circle fill="#FFF6E8" cx="770.97" cy="1860.21" r="13.61"/>
		<circle fill="#FFF6E8" cx="530.45" cy="1850.72" r="6.1"/>
		<circle fill="#FFF6E8" cx="329.86" cy="1715.89" r="6.35"/>
		<circle fill="#FFF6E8" cx="430.61" cy="1552.52" r="8.17"/>
		<circle fill="#FFF6E8" cx="208.87" cy="1727.69" r="6.21"/>
		<circle fill="#FFF6E8" cx="171.02" cy="1569.76" r="9.08"/>
		<circle fill="#FFF6E8" cx="902.58" cy="1904.56" r="6.42"/>
		<circle fill="#FFF6E8" cx="1058.69" cy="1878.85" r="9.28"/>
		<circle fill="#FFF6E8" cx="1099.53" cy="1891.7" r="6.44"/>
		<circle fill="#FFF6E8" cx="1399.05" cy="1801.21" r="6.81"/>
		<circle fill="#FFF6E8" cx="1555.17" cy="1837.73" r="8.86"/>
		<circle fill="#FFF6E8" cx="1360.03" cy="1878.85" r="12.85"/>
		<circle fill="#FFF6E8" cx="1807.49" cy="1637.9" r="10.89"/>
		<circle fill="#FFF6E8" cx="1749.97" cy="1528.71" r="9.01"/>
		<circle fill="#FFF6E8" cx="1827" cy="1469.32" r="19.51"/>
		<circle fill="#FFF6E8" cx="1625.05" cy="1439.06" r="5.45"/>
		<circle fill="#FFF6E8" cx="1500.71" cy="1562.5" r="6.81"/>
		<circle fill="#FFF6E8" cx="1726.71" cy="1837.73" r="8.86"/>
		<circle fill="#FFF6E8" cx="524.34" cy="1685.63" r="9.81"/>
		<circle fill="#FFF6E8" cx="666.84" cy="1643.26" r="10.12"/>
		<circle fill="#FFF6E8" cx="808.13" cy="1721.48" r="6.21"/>
		<path fill="#0BBACF" d="M783.09,1299.53c-38.21-8.57-133.08-38.91-225.12-82.53c-178.77-84.72-287.31-30.79-303.05-21.11
			c-1.3-161.3,70.02-279.49,113.72-334.47c6.06,67.16-14.85,179.83-14.85,179.83s38.66-38.47,46.5-50.5s9.47-48.99,11.2-70.94
			c21.82,37.27,29.12,86.56,29.12,86.56s25.76-38.47,24.64-54.1c-1.12-15.63-16.8-61.32-31.94-88.7
			c43.1,15.9,85.69,71.87,85.69,71.87s-3.36-55.31-26.88-70.58c-23.52-15.27-29.12-22-82.88-37.63c39.2-14.43,101.92,0,101.92,0
			s-10.08-21.64-31.36-31.26s-53.76-9.62-79.52,0c3.36-39.68-23.52-80.55-23.52-80.55s3.36,39.68-3.36,58.91
			c-14.56-8.42-28-19.24-48.16-27.65s-86.24-12.02-86.24-12.02l97.44,57.04c0,0-73.78-3.87-84,0
			c-29.87,11.31-45.05,35.97-49.67,44.75c0.03,1.01,0.06,2.02,0.09,3.02l123.49-12.24c0,0-66.08,25.25-73.92,37.63
			s-36.69,74.19-36.69,74.19s75.18-63.93,137.62-83.38c-39.67,43.73-106.83,140.57-125.1,308.58c-12.46-15.42-29.09-34.5-48.57-53.3
			c-12.23,61.99-29.3,125.02-51.39,188.57H783.09z"/>
	</g>
</g>
</svg>
