<?xml version="1.0" encoding="utf-8"?>
<!-- Generator: Adobe Illustrator 26.0.0, SVG Export Plug-In . SVG Version: 6.00 Build 0)  -->
<svg version="1.1" id="asset" xmlns="http://www.w3.org/2000/svg" xmlns:xlink="http://www.w3.org/1999/xlink" x="0px" y="0px"
	 viewBox="0 0 2000 2000" enable-background="new 0 0 2000 2000" xml:space="preserve">
<g>
	<path fill="#2B0B98" d="M53.4,1392.2v4c0,1.8,0,3.6,0.1,5.4l0.1,3.5c0,2.8,0.1,5.7,0.2,8.5l0.1,3.2c0.1,2,0.1,3.9,0.2,5.9
		c0,1.3,0.1,2.5,0.1,3.8c0.1,1.8,0.1,3.7,0.2,5.5c0.1,1.2,0.1,2.5,0.2,3.8c0.1,2.2,0.2,4.3,0.3,6.5c0,0.9,0.1,1.8,0.1,2.8
		c0.2,3,0.3,6,0.5,9c0.1,1.1,0.1,2.2,0.2,3.3c0.1,2.1,0.3,4.1,0.4,6.2c0.1,1.2,0.2,2.5,0.3,3.7c0.1,2,0.3,4,0.5,6.1l0.3,3.5
		c0,0.5,0.1,1.1,0.1,1.6l1877.6,34.6v-0.3c-0.1-0.5-0.1-1-0.2-1.4l-0.1-1c-0.1-0.5-0.2-1-0.2-1.5c-0.1-0.9-0.3-1.9-0.4-2.8
		c0-0.3-0.1-0.6-0.1-0.9c0-0.3-0.1-0.7-0.2-1c-0.2-1.4-0.4-2.7-0.7-4.1c-0.1-0.3-0.1-0.6-0.2-0.9s-0.1-0.8-0.2-1.1l-0.5-2.5
		c-0.1-0.5-0.2-1-0.3-1.6s-0.2-1-0.3-1.5s-0.2-0.8-0.2-1.2s-0.2-1.1-0.3-1.6l-0.2-1.1c-0.2-1-0.5-2-0.7-3.1
		c-0.1-0.3-0.1-0.5-0.2-0.8c-0.1-0.3-0.2-0.8-0.3-1.2c-0.4-1.5-0.7-2.9-1.1-4.4c-0.1-0.2-0.1-0.4-0.2-0.6l-0.2-0.9
		c-0.3-1.1-0.6-2.1-0.9-3.2l-0.4-1.4c-0.1-0.5-0.3-1-0.4-1.4c-0.1-0.3-0.2-0.6-0.2-0.8c-0.2-0.8-0.4-1.5-0.7-2.2
		c-0.1-0.2-0.1-0.4-0.2-0.6c-0.3-1.1-0.7-2.2-1.1-3.3c-0.1-0.2-0.2-0.5-0.2-0.7v-0.1c-0.2-0.4-0.3-0.9-0.4-1.3
		c-0.5-1.5-1.1-3.1-1.6-4.6c0-0.1-0.1-0.2-0.1-0.3c0-0.1-0.1-0.4-0.2-0.6c-0.5-1.3-0.9-2.6-1.4-3.9c-0.2-0.4-0.3-0.8-0.5-1.2
		c-0.2-0.4-0.3-0.9-0.5-1.3c-0.1-0.1-0.1-0.3-0.2-0.4c-0.4-1-0.8-2-1.2-3c0,0,0-0.1,0-0.1c0,0,0-0.1-0.1-0.1
		c-0.5-1.2-0.9-2.3-1.4-3.5c0-0.1-0.1-0.2-0.1-0.2c-0.1-0.3-0.2-0.6-0.4-0.9s-0.3-0.8-0.5-1.2c-0.7-1.6-1.4-3.2-2.1-4.8
		c0-0.1-0.1-0.1-0.1-0.2c-1.6-3.6-3.2-7.2-4.8-10.8c-1.3-3.1-2.7-6.2-4-9.3c-0.8-1.9-1.6-3.8-2.4-5.6l-2.6-6.1
		c-0.9-2.2-1.8-4.4-2.8-6.6s-1.9-4.7-2.9-7l-2.2-5.3c-1.1-2.7-2.2-5.3-3.2-8c-0.4-1.1-0.8-2.2-1.3-3.2c-4.3-11-8.5-21.9-12.5-32.9
		c-0.8-2.1-1.6-4.3-2.3-6.4l-2.2-6.2c-0.9-2.6-1.8-5.1-2.7-7.6c-1.1-3.1-2.2-6.2-3.2-9.4c-0.7-2-1.3-3.9-2-5.9
		c-0.8-2.2-1.5-4.4-2.2-6.7c-0.7-1.9-1.3-3.9-1.9-5.8c-0.8-2.6-1.7-5.2-2.5-7.7l-0.8-2.4c-0.4-1.2-0.8-2.4-1.2-3.6
		c-1.1-3.3-2.1-6.7-3.1-10c-0.5-1.6-1-3.3-1.5-4.9c-0.8-2.6-1.6-5.2-2.4-7.9c-0.5-1.6-1-3.2-1.4-4.8c-1-3.3-2-6.7-2.9-10
		c-0.2-0.8-0.4-1.5-0.7-2.3c-0.3-1-0.6-1.9-0.8-2.9c-0.7-2.4-1.3-4.8-2-7.2c-0.3-1.2-0.7-2.3-1-3.5l-0.3-1c-0.2-0.9-0.5-1.8-0.7-2.6
		c-0.6-2.2-1.2-4.5-1.8-6.7c-0.3-1.2-0.7-2.4-1-3.6c-0.2-0.9-0.5-1.9-0.7-2.8c-0.6-2.4-1.3-4.8-1.9-7.3l-0.3-1.3
		c-0.5-2.1-1.1-4.2-1.6-6.3c-0.3-1.3-0.7-2.6-1-4c-0.4-1.7-0.8-3.3-1.2-5c-0.1-0.4-0.2-0.8-0.3-1.2l-1.5-6.2
		c-0.2-0.9-0.4-1.7-0.6-2.6c-0.6-2.5-1.2-5-1.7-7.4v-0.1c-0.6-2.6-1.2-5.2-1.8-7.8c-0.8-3.8-1.7-7.6-2.5-11.4l-0.7-3.4
		c-1.7-8.1-3.3-16.1-4.8-24.2l-0.8-3.9c-0.6-3.1-1.1-6.1-1.7-9.2l-0.7-3.7c-0.6-3.3-1.2-6.6-1.7-9.9c-0.2-1.3-0.5-2.7-0.7-4
		c-0.6-3.6-1.2-7.1-1.7-10.7l-0.5-3.5c-0.4-2.9-0.9-5.8-1.3-8.7c-0.2-1.2-0.4-2.4-0.5-3.6c-0.5-3.6-1-7.1-1.5-10.6
		c-1.8-13.3-3.4-26.6-4.8-39.9c-0.9-8.2-1.6-16.5-2.3-24.7v-0.2c-1.1-13.5-2-27-2.7-40.4v-0.6c-0.4-8-0.7-16-0.9-23.9v-0.3
		c-0.2-5.3-0.3-10.5-0.3-15.8v-0.1c-0.1-7.9-0.1-15.7-0.1-23.5v-0.8c0.1-7.8,0.2-15.6,0.4-23.4c2.7-92,16.8-179.3,41.4-260
		c57.1-186.8,55.2-323.6-60.5-415.5l-0.4-0.3c-3.2-2.6-6.5-5.1-9.9-7.6l-0.6-0.5c-3.3-2.4-6.8-4.8-10.2-7.2l-0.8-0.6
		c-3.4-2.3-7-4.6-10.6-6.8l-1-0.6l-3.6-2.2l-0.4-0.2c-2.3-1.4-4.7-2.8-7.1-4.2l-1.2-0.6l-3.6-2l-1.1-0.6c-2.2-1.2-4.5-2.5-6.8-3.7
		l-1.2-0.7c-1.2-0.6-2.4-1.3-3.6-1.9l-1.6-0.8c-2.3-1.2-4.6-2.3-6.8-3.4l-1.3-0.6l-3.7-1.8l-1.9-0.9c-2.4-1.1-4.9-2.3-7.4-3.4
		l-1-0.4c-1.2-0.6-2.5-1.1-3.7-1.6l-2.2-1l-3.7-1.6l-1.5-0.6c-2.4-1-4.8-2-7.2-3l-2.6-1l-3.7-1.5l-2.9-1.1c-2-0.8-4-1.6-6.1-2.3
		l-2.9-1.1l-3.7-1.4l-3.2-1.2c-1.9-0.7-3.9-1.4-5.9-2.1l-3.3-1.2l-3.7-1.3c-1.2-0.4-2.3-0.8-3.5-1.2l-5.6-1.8l-4-1.3l-3.7-1.2
		l-3.8-1.2l-4.3-1.3l-5.6-1.7l-3.6-1.1l-4.2-1.2l-3.5-1c-2.2-0.6-4.5-1.2-6.8-1.9l-3.6-1l-4.5-1.2l-3.6-0.9
		c-2.4-0.6-4.8-1.2-7.2-1.8l-3.3-0.8l-5-1.2l-3.6-0.9c-2.3-0.5-4.6-1.1-6.9-1.6l-3.6-0.8l-5.6-1.3l-3.6-0.8l-6.4-1.4l-3.8-0.8
		l-6.7-1.4l-3.5-0.7l-6.4-1.2l-2.7-0.5l-8.5-1.6l-3.4-0.6l-6.5-1.2l-3-0.5l-8.9-1.6l-3.2-0.6l-6.8-1.2l-3.1-0.5l-9.3-1.5l-3-0.5
		l-7.3-1.1l-3.2-0.5l-9.7-1.4l-2.4-0.3l-8-1.1l-3.3-0.5l-10.2-1.5l-1.5-0.2l-9.2-1.2l-3.3-0.4l-9.4-1.2l-1.5-0.2l-10.8-1.3l-3.3-0.4
		c-3-0.3-6.1-0.7-9.2-1L1351,56c-3.7-0.4-7.4-0.8-11.1-1.2l-3.1-0.3l-9.2-0.9l-2.7-0.3l-11.5-1.1l-2.9-0.3l-9.5-0.9l-3-0.3l-11.8-1
		l-2.4-0.2l-10.1-0.8l-3.2-0.3c-4.1-0.3-8.2-0.6-12.2-0.9l-1.7-0.1l-11-0.8l-3.4-0.2c-4.2-0.3-8.3-0.6-12.6-0.8h-0.2l-4.8-0.3
		l-2.3-0.2l-4.1-0.2l-3-0.2l-3.9-0.2l-3.3-0.2l-3.7-0.2l-3.4-0.2l-3.8-0.2l-3.3-0.2l-3.7-0.2l-3.4-0.2l-3.6-0.2l-3.5-0.2l-3.6-0.2
		l-3.4-0.2l-3.6-0.2l-3.5-0.2l-3.7-0.2l-3.4-0.2l-3.7-0.2l-3.4-0.2l-3.7-0.2c-1.1,0-2.2-0.1-3.4-0.2l-3.7-0.2l-3.3-0.1l-3.7-0.2
		l-3.4-0.2l-3.7-0.1l-3.3-0.1l-3.7-0.2l-3.3-0.1l-3.7-0.1l-3.4-0.1l-3.7-0.1l-3.3-0.1l-3.7-0.1l-3.3-0.1l-3.7-0.1l-3.3-0.1l-3.7-0.1
		l-3.2-0.1l-3.8-0.1l-3.2-0.1l-3.8-0.1l-3.2-0.1l-3.8-0.1l-3.2-0.1l-3.8-0.1L1053,38l-3.8-0.1l-3.1-0.1l-3.8-0.1h-3l-4-0.1h-2.9
		l-4.1-0.1h-29c-8.6,0-17.1,0-25.7,0h-34.8l-4.1,0.1h-2.7l-4.1,0.1h-2.8l-4,0.1h-2.7l-4.1,0.1l-2.7,0.1l-4.1,0.1l-2.7,0.1l-4.1,0.1
		l-2.7,0.1l-4.1,0.1l-2.7,0.1l-4.1,0.1l-2.7,0.1l-4.1,0.1l-2.6,0.1l-4.1,0.1l-2.6,0.1l-4.1,0.2l-2.6,0.1l-4.1,0.2l-2.6,0.1l-4.1,0.2
		l-2.5,0.1l-4.2,0.2l-2.5,0.1l-4.2,0.2l-2.5,0.1l-4.2,0.2l-2.4,0.1l-4.2,0.2l-2.4,0.1l-4.2,0.2l-2.3,0.1l-4.4,0.2l-2.1,0.1l-4.5,0.3
		l-2,0.1l-4.6,0.3l-1.8,0.1l-4.7,0.3l-1.5,0.1l-5,0.3l-1.2,0.1c-1.8,0.1-3.5,0.2-5.3,0.4h-0.6c-16.8,1.2-33.5,2.5-50,4h-0.2
		l-5.5,0.5l-0.9,0.1l-5.2,0.5l-1.1,0.1l-5.1,0.5l-1.2,0.1l-4.9,0.5l-1.4,0.1l-4.7,0.5l-1.5,0.2l-4.6,0.5l-1.6,0.2l-4.6,0.5l-1.6,0.2
		l-4.5,0.5l-1.6,0.2l-4.5,0.5l-1.7,0.2l-4.4,0.5l-1.7,0.2l-4.4,0.5l-1.7,0.2l-4.4,0.5l-1.7,0.2l-4.4,0.6l-1.7,0.2l-4.4,0.6l-1.7,0.2
		l-4.4,0.6l-1.7,0.2l-4.4,0.6l-1.6,0.2l-4.4,0.6l-1.5,0.2l-4.4,0.6l-1.5,0.2l-4.5,0.7l-1.4,0.2l-4.6,0.7l-1.3,0.2l-4.6,0.7l-1.1,0.2
		l-4.8,0.8l-1,0.2l-4.9,0.8l-0.8,0.1l-5.1,0.8l-0.5,0.1l-5.4,0.9h-0.1c-25,4.3-49.2,9.1-72.7,14.3h0l-5.1,1.2l-0.3,0.1l-4.9,1.1
		l-0.5,0.1l-4.8,1.1l-0.6,0.2l-4.7,1.1l-0.7,0.2l-4.6,1.1l-0.8,0.2l-4.5,1.1l-0.8,0.2l-4.5,1.1l-0.9,0.2l-4.4,1.1l-0.9,0.2l-4.4,1.2
		l-0.9,0.2l-4.4,1.2l-0.9,0.2l-4.3,1.2l-0.8,0.2l-4.3,1.2l-0.8,0.2l-4.2,1.2l-0.8,0.2l-4.3,1.2l-0.7,0.2l-4.4,1.3l-0.6,0.2l-4.4,1.3
		l-0.6,0.2l-4.5,1.4l-0.4,0.1l-4.6,1.4l-0.2,0.1l-4.7,1.5c-29.7,9.4-58.8,20.4-87.2,33.1c-1.4,0.6-2.8,1.3-4.2,1.9h-0.1l-4.1,1.9
		l-0.2,0.1l-4,1.9l-0.2,0.1l-3.9,1.9L304,149l-3.8,1.9l-0.3,0.1c-1.3,0.6-2.5,1.2-3.8,1.9l-0.3,0.2l-3.7,1.9l-0.3,0.2l-3.7,1.9
		l-0.3,0.2l-3.7,2l-0.3,0.1c-1.2,0.6-2.5,1.3-3.7,2l-0.2,0.1l-3.7,2l-0.2,0.1c-1.2,0.7-2.5,1.4-3.7,2.1l-0.1,0.1l-3.7,2.1
		c-33,19-61.7,40.3-85.5,64c-0.9,0.9-1.8,1.8-2.7,2.7l-0.1,0.1c-0.9,0.9-1.8,1.8-2.6,2.7l-0.1,0.1c-0.9,0.9-1.7,1.8-2.6,2.7
		l-0.1,0.1c-0.9,0.9-1.7,1.8-2.5,2.8l-0.1,0.1c-0.8,0.9-1.7,1.9-2.5,2.8l-0.1,0.1c-0.8,0.9-1.6,1.9-2.5,2.8s-1.6,1.9-2.4,2.9
		c-22.8,27-39.7,57-50,90c-0.4,1.2-0.7,2.3-1.1,3.5v0.1c-0.3,1.2-0.7,2.3-1,3.5v0.1c-0.3,1.2-0.6,2.3-1,3.5v0.1
		c-0.3,1.2-0.6,2.4-0.9,3.5v0c-0.3,1.2-0.6,2.4-0.8,3.6v0.1c-0.3,1.2-0.5,2.4-0.8,3.6v0c-0.3,1.2-0.5,2.4-0.8,3.7
		c-8,40.2-6.7,84.7,5.1,133.7c34.2,141.5,29.9,259.7,13,373.3c-7.5,50.7-17.5,100.4-27.7,150.9c-4.3,21.3-8.6,42.7-12.8,64.3
		c-0.1,0.3-0.1,0.6-0.2,0.9c-0.9,4.5-1.7,8.9-2.6,13.4l-0.1,0.5c-1.7,9.2-3.4,18.4-5.1,27.7l-0.1,0.5c-0.2,0.9-0.3,1.8-0.5,2.6v0.1
		c-0.6,3.5-1.2,7.1-1.8,10.7c-0.1,0.8-0.3,1.6-0.4,2.4c-0.4,2.4-0.8,4.8-1.2,7.2c-0.2,1.2-0.4,2.4-0.6,3.6v0.1
		c-0.1,0.6-0.2,1.2-0.3,1.8c-0.5,3.1-1,6.3-1.5,9.4c-0.1,0.7-0.2,1.4-0.3,2.2c-0.5,3.1-1,6.1-1.4,9.2c0,0.2,0,0.3-0.1,0.5
		c0,0.1,0,0.3-0.1,0.4c-0.1,0.4-0.1,0.8-0.2,1.2c-0.2,1.5-0.4,3-0.7,4.5c0,0.4-0.1,0.8-0.2,1.1c-0.3,1.9-0.6,3.9-0.9,5.8
		c-0.1,0.5-0.2,1-0.2,1.6c-0.5,3.4-1,6.9-1.4,10.3c-0.1,0.5-0.2,1.1-0.2,1.6c-0.3,2-0.5,4-0.8,6l-0.2,1.8l-0.5,4
		c0,0.2,0,0.3-0.1,0.5l-0.1,1c-0.1,0.7-0.2,1.3-0.2,2c-0.3,2.7-0.7,5.5-1,8.3c-0.1,0.6-0.1,1.2-0.2,1.7c-0.3,2.7-0.6,5.3-0.9,8
		c-0.1,0.6-0.1,1.2-0.2,1.8l-0.6,5.2c-0.1,0.9-0.2,1.8-0.3,2.7c-0.2,1.7-0.4,3.4-0.5,5c0,0.5-0.1,1-0.2,1.6s-0.1,0.9-0.1,1.3
		c-0.6,5.6-1.1,11.2-1.6,16.8l-0.3,3.1c-0.1,1.5-0.3,3.1-0.4,4.6c0,0.3-0.1,0.6-0.1,0.9l-0.2,2.6l-0.4,4.7c-0.1,1.2-0.2,2.3-0.3,3.5
		c0,0.5-0.1,1.1-0.1,1.6c0,0.2,0,0.4,0,0.6l-0.4,5.7c-0.1,1.3-0.2,2.7-0.3,4c-0.1,1-0.1,2-0.2,3.1c0,0.3,0,0.7,0,1v0.4
		c-0.1,1.3-0.2,2.6-0.2,3.9c-0.1,1.5-0.2,2.9-0.2,4.4l-0.2,3.5c0,0.3,0,0.7,0,1c-0.1,1.3-0.1,2.6-0.2,3.8c-0.1,1.6-0.1,3.1-0.2,4.6
		l-0.2,4.5c0,0.6,0,1.2-0.1,1.8l-0.2,5.2l-0.1,4.1c0,1.5-0.1,3-0.1,4.5s-0.1,2.8-0.1,4.2c0,1.6-0.1,3.1-0.1,4.7c0,1.3,0,2.6-0.1,4
		c0,2.3-0.1,4.6-0.1,7v13.8C53.5,1388.6,53.4,1390.4,53.4,1392.2z"/>
	
		<linearGradient id="SVGID_1_" gradientUnits="userSpaceOnUse" x1="119.9882" y1="-15365.5879" x2="664.9173" y2="-14137.7188" gradientTransform="matrix(1 0 0 1 564 16228.0254)">
		<stop  offset="0" style="stop-color:#D600AA"/>
		<stop  offset="1" style="stop-color:#512BD4"/>
	</linearGradient>
	<path fill="url(#SVGID_1_)" d="M56.6,1469.2c0,0,15.8,164.6,39.7,236.5s73.5,213,403.2,246.3c281.2,28.3,860.9,48,1220.5-137.3
		c231-113.3,224.5-259.4,213.6-310.4C1238.3,1442.1,56.6,1469.2,56.6,1469.2z"/>
	
		<radialGradient id="SVGID_00000174599027096429616800000003828790607628351374_" cx="5110.084" cy="-7109.6509" r="1" gradientTransform="matrix(246.305 0 0 279.285 -1258439.5 1985835.75)" gradientUnits="userSpaceOnUse">
		<stop  offset="0" style="stop-color:#F61474"/>
		<stop  offset="1" style="stop-color:#FF85B9"/>
	</radialGradient>
	<path fill="url(#SVGID_00000174599027096429616800000003828790607628351374_)" d="M348,325.7c37.6-17.8,66.6-49.8,80.7-88.9
		c14-39.2,11.9-82.3-5.8-119.9c-1.9-4-3.9-7.9-6.1-11.7l-3.9,1.2l-0.2,0.1l-4.7,1.5c-29.7,9.4-58.8,20.4-87.2,33.1
		c-1.4,0.6-2.8,1.3-4.2,1.9h-0.1l-4.1,1.9l-0.2,0.1l-4,1.9l-0.2,0.1l-3.9,1.9l-0.3,0.1l-3.8,1.9l-0.3,0.1c-1.3,0.6-2.5,1.2-3.8,1.9
		l-0.3,0.2l-3.7,1.9l-0.3,0.2l-3.7,1.9l-0.3,0.2l-3.7,2l-0.3,0.1c-1.2,0.6-2.5,1.3-3.7,2l-0.2,0.1l-3.7,2l-0.2,0.1
		c-1.2,0.7-2.5,1.4-3.7,2.1l-0.1,0.1l-3.7,2.1c-33,19-61.7,40.3-85.5,64c-0.9,0.9-1.8,1.8-2.7,2.7l-0.1,0.1
		c-0.9,0.9-1.8,1.8-2.6,2.7l-0.1,0.1c-0.9,0.9-1.7,1.8-2.6,2.7l-0.1,0.1c-0.9,0.9-1.7,1.8-2.5,2.8l-0.1,0.1
		c-0.8,0.9-1.7,1.9-2.5,2.8l-0.1,0.1c-0.8,0.9-1.6,1.9-2.5,2.8s-1.6,1.9-2.4,2.9c-5.1,6-9.9,12.2-14.4,18.5
		c20.8,31.6,52.2,54.6,88.6,64.8C275,345.1,313.9,341.9,348,325.7L348,325.7z"/>
	
		<linearGradient id="SVGID_00000132789851568988730720000002524740921712001711_" gradientUnits="userSpaceOnUse" x1="-57.8391" y1="-15945.1943" x2="322.9118" y2="-16038.2705" gradientTransform="matrix(1 0 0 1 564 16228.0254)">
		<stop  offset="0" style="stop-color:#D600AA"/>
		<stop  offset="1" style="stop-color:#512BD4"/>
	</linearGradient>
	<path fill="url(#SVGID_00000132789851568988730720000002524740921712001711_)" d="M855.6,312c50.9-50.9,50.9-133.3,0-184.2
		s-133.3-50.9-184.2,0s-50.9,133.3,0,184.2S804.7,362.9,855.6,312z"/>
	
		<linearGradient id="SVGID_00000021109809416073931100000010393610909871028628_" gradientUnits="userSpaceOnUse" x1="-593.7531" y1="-15908.5811" x2="-230.196" y2="-15760.1064" gradientTransform="matrix(1 0 0 1 564 16228.0254)">
		<stop  offset="0" style="stop-color:#D600AA"/>
		<stop  offset="1" style="stop-color:#512BD4"/>
	</linearGradient>
	<path fill="url(#SVGID_00000021109809416073931100000010393610909871028628_)" d="M238.9,564.1C274,548,303,521,321.6,487.1
		c18.6-33.9,25.9-72.8,20.7-111.1s-22.5-73.9-49.5-101.6c-27-27.7-62.1-46-100.2-52.2c-3.4,3.1-6.8,6.3-10.1,9.6
		c-0.9,0.9-1.8,1.8-2.7,2.7l-0.1,0.1c-0.9,0.9-1.8,1.8-2.6,2.7l-0.1,0.1c-0.9,0.9-1.7,1.8-2.6,2.7l-0.1,0.1
		c-0.9,0.9-1.7,1.8-2.5,2.8l-0.1,0.1c-0.8,0.9-1.7,1.9-2.5,2.8l-0.1,0.1c-0.8,0.9-1.6,1.9-2.5,2.8s-1.6,1.9-2.4,2.9
		c-22.8,27-39.7,57-50,90c-0.4,1.2-0.7,2.3-1.1,3.5v0.1c-0.3,1.2-0.7,2.3-1,3.5v0.1c-0.3,1.2-0.6,2.3-1,3.5v0.1
		c-0.3,1.2-0.6,2.4-0.9,3.5s-0.6,2.4-0.8,3.6v0.1c-0.3,1.2-0.5,2.4-0.8,3.6v0c-0.3,1.2-0.5,2.4-0.8,3.7c-8,40.2-6.7,84.7,5.1,133.7
		c6.3,26.3,11.4,51.8,15.3,76.5C165.7,584.5,204.4,580,238.9,564.1L238.9,564.1z"/>
	
		<linearGradient id="SVGID_00000013900400110327168230000009562261879832020387_" gradientUnits="userSpaceOnUse" x1="278.5201" y1="-16153.6699" x2="546.5572" y2="-15991.6074" gradientTransform="matrix(1 0 0 1 564 16228.0254)">
		<stop  offset="0" style="stop-color:#D600AA"/>
		<stop  offset="1" style="stop-color:#512BD4"/>
	</linearGradient>
	<path fill="url(#SVGID_00000013900400110327168230000009562261879832020387_)" d="M1023.7,288.3c57.4,0,104-46.7,104-104.4
		s-46.5-104.4-104-104.4s-104,46.7-104,104.4S966.3,288.3,1023.7,288.3z"/>
	
		<linearGradient id="SVGID_00000138539543908439049300000010820277536858255037_" gradientUnits="userSpaceOnUse" x1="-244.5539" y1="-16278.0195" x2="135.5421" y2="-15966.873" gradientTransform="matrix(1 0 0 1 564 16228.0254)">
		<stop  offset="0" style="stop-color:#D600AA"/>
		<stop  offset="1" style="stop-color:#512BD4"/>
	</linearGradient>
	<path fill="url(#SVGID_00000138539543908439049300000010820277536858255037_)" d="M632.8,300.5C723.3,259,763,152,721.5,61.5
		c-1.9-4.1-3.9-8.1-6.1-12l-3.2,0.3l-1.2,0.1l-4.9,0.5l-1.4,0.1L700,51l-1.5,0.2l-4.6,0.5l-1.6,0.2l-4.6,0.5l-1.6,0.2l-4.5,0.5
		l-1.6,0.2l-4.5,0.5l-1.7,0.2l-4.4,0.5l-1.7,0.2l-4.4,0.5l-1.7,0.2l-4.4,0.5l-1.7,0.2l-4.4,0.6l-1.7,0.2l-4.4,0.6l-1.7,0.2l-4.4,0.6
		l-1.7,0.2l-4.4,0.6l-1.6,0.2l-4.4,0.6l-1.5,0.2l-4.4,0.6l-1.5,0.2l-4.5,0.7l-1.4,0.2l-4.6,0.7l-1.3,0.2l-4.6,0.7l-1.1,0.2l-4.8,0.8
		l-1,0.2l-4.9,0.8l-0.8,0.1l-5.1,0.8l-0.5,0.1l-5.4,0.9H579c-25,4.3-49.2,9.1-72.7,14.3l-5.1,1.2l-0.3,0.1l-5,1.1l-0.5,0.1l-4.8,1.1
		l-0.6,0.2l-4.7,1.1l-0.7,0.2l-4.6,1.1l-0.8,0.2l-4.5,1.1l-0.8,0.2l-4.5,1.1l-0.9,0.2l-4.4,1.1l-0.9,0.2l-4.4,1.2l-0.9,0.2l-4.4,1.2
		l-0.9,0.2l-4.3,1.2l-0.8,0.2l-4.3,1.2l-0.8,0.2l-4.2,1.2l-0.8,0.2l-4.3,1.2l-0.7,0.2l-4.4,1.3l-0.6,0.2l-4.4,1.3l-0.6,0.2l-4.5,1.4
		l-0.4,0.1l-4.6,1.4l-0.2,0.1l-4.8,1.5c-9.9,3.1-19.8,6.5-29.6,10c-3.3,31.6,1.9,63.6,14.9,92.6s33.5,54,59.4,72.6
		s56.1,29.9,87.8,33C572,319.1,603.9,313.7,632.8,300.5L632.8,300.5z"/>
	
		<radialGradient id="SVGID_00000072958562903987086970000017812083354596534717_" cx="5113.3706" cy="-7108.7129" r="1" gradientTransform="matrix(287.54 0 0 287.54 -1469541.75 2044192.5)" gradientUnits="userSpaceOnUse">
		<stop  offset="0" style="stop-color:#F61474"/>
		<stop  offset="1" style="stop-color:#FF85B9"/>
	</radialGradient>
	<path fill="url(#SVGID_00000072958562903987086970000017812083354596534717_)" d="M866.7,280.2c28.6,0,56.7-7.3,81.6-21.2
		c25-13.9,46-33.9,61.1-58.2c15.1-24.3,23.7-52,25.1-80.5s-4.5-57-17.2-82.6h-18.5c-8.6,0-17.1,0-25.7,0h-34.8l-4.1,0.1h-2.7
		l-4.1,0.1h-2.8l-4,0.1H918l-4.1,0.1l-2.7,0.1l-4.1,0.1l-2.7,0.1l-4.1,0.1l-2.7,0.1l-4.1,0.1l-2.7,0.1l-4.1,0.1l-2.7,0.1l-4.1,0.1
		l-2.6,0.1l-4.1,0.1l-2.6,0.1l-4.1,0.2l-2.6,0.1l-4.1,0.2l-2.6,0.1l-4.1,0.2l-2.5,0.1l-4.2,0.2l-2.5,0.1l-4.2,0.2l-2.5,0.1l-4.2,0.2
		l-2.4,0.1l-4.2,0.2l-2.4,0.1l-4.2,0.2l-2.3,0.1l-4.4,0.2l-2.1,0.1l-4.5,0.3l-2,0.1l-4.6,0.3l-1.8,0.1l-4.7,0.3l-1.5,0.1l-5,0.3
		l-1.2,0.1c-1.8,0.1-3.5,0.2-5.3,0.4h-0.6c-16.8,1.2-33.5,2.5-50,4h-0.2l-5.5,0.5l-0.9,0.1l-5.2,0.5l-1.1,0.1l-5.1,0.5l-1.2,0.1
		h-0.4c-10.2,25.5-13.9,53.1-11,80.4c3,27.3,12.6,53.4,28,76.2c15.4,22.7,36.1,41.3,60.4,54.2C812.2,273.4,839.2,280.2,866.7,280.2
		L866.7,280.2z"/>
	
		<linearGradient id="SVGID_00000056412750558844949110000013218844905758193337_" gradientUnits="userSpaceOnUse" x1="453.2036" y1="-16303.3379" x2="614.8906" y2="-16068.7656" gradientTransform="matrix(1 0 0 1 564 16228.0254)">
		<stop  offset="0" style="stop-color:#D600AA"/>
		<stop  offset="1" style="stop-color:#512BD4"/>
	</linearGradient>
	<path fill="url(#SVGID_00000056412750558844949110000013218844905758193337_)" d="M974.3,71.9c12.6,27.5,33.4,50.3,59.5,65.5
		s56.3,21.8,86.4,19.1c30.1-2.7,58.6-14.7,81.6-34.3c23-19.6,39.3-45.8,46.8-75.1l-3.4-0.2l-3.4-0.2c-4.2-0.3-8.3-0.6-12.6-0.8h-0.2
		l-4.8-0.3l-2.3-0.2l-4.1-0.2l-3-0.2l-3.9-0.2l-3.3-0.2l-3.7-0.2l-3.4-0.2l-3.8-0.2l-3.3-0.2l-3.7-0.2l-3.4-0.2l-3.6-0.2l-3.5-0.2
		l-3.6-0.2l-3.4-0.2l-3.6-0.2l-3.5-0.2l-3.7-0.2l-3.4-0.2l-3.7-0.2l-3.4-0.2l-3.7-0.2c-1.1,0-2.2-0.1-3.4-0.2l-3.7-0.2l-3.3-0.1
		l-3.7-0.2l-3.4-0.2l-3.7-0.1l-3.3-0.1l-3.7-0.2l-3.3-0.1l-3.7-0.1l-3.4-0.1l-3.7-0.1l-3.3-0.1l-3.7-0.1l-3.3-0.1l-3.7-0.1l-3.3-0.1
		l-3.7-0.1l-3.2-0.1l-3.8-0.1l-3.2-0.1l-3.8-0.1l-3.2-0.1l-3.8-0.1l-3.2-0.1l-3.8-0.1l-3.2-0.1l-3.8-0.1l-3.1-0.1l-3.8-0.1h-3
		l-4-0.1h-2.9l-4.1-0.1h-29c-8.6,0-17.1,0-25.7,0h-9.8C965.6,49.5,969.2,61,974.3,71.9L974.3,71.9z"/>
	
		<radialGradient id="SVGID_00000161592180421736996430000001072961727918672265_" cx="5052.728" cy="-7123.5552" r="1" gradientTransform="matrix(70.313 0 0 195.848 -355186.4062 1396214.5)" gradientUnits="userSpaceOnUse">
		<stop  offset="0" style="stop-color:#F61474"/>
		<stop  offset="1" style="stop-color:#FF85B9"/>
	</radialGradient>
	<path fill="url(#SVGID_00000161592180421736996430000001072961727918672265_)" d="M104.4,1159c14.9-7.1,27.6-18.2,36.3-32.2
		c8.8-14,13.4-30.2,13.2-46.7c-0.1-16.5-5-32.7-14.1-46.5c-9-13.8-21.8-24.8-36.9-31.6c-1.5,7.6-3,15.2-4.6,22.8
		c-4.3,21.3-8.6,42.7-12.8,64.3c-0.1,0.3-0.1,0.6-0.2,0.9c-0.9,4.5-1.7,8.9-2.6,13.4l-0.1,0.5c-1.7,9.2-3.4,18.4-5.1,27.7l-0.1,0.5
		c-0.2,0.9-0.3,1.8-0.5,2.6v0.1c-0.6,3.5-1.2,7.1-1.8,10.7c-0.1,0.8-0.3,1.6-0.4,2.4c-0.4,2.4-0.8,4.8-1.2,7.2
		c-0.2,1.2-0.4,2.4-0.6,3.6v0.1c-0.1,0.6-0.2,1.2-0.3,1.8c-0.3,2.2-0.7,4.4-1.1,6.6C83.1,1166.6,94.2,1163.8,104.4,1159L104.4,1159z
		"/>
	
		<linearGradient id="SVGID_00000109733028878621625350000003168430018417326490_" gradientUnits="userSpaceOnUse" x1="-548.4355" y1="-15313.7705" x2="-322.5414" y2="-15201.6006" gradientTransform="matrix(1 0 0 1 564 16228.0254)">
		<stop  offset="0" style="stop-color:#D600AA"/>
		<stop  offset="1" style="stop-color:#512BD4"/>
	</linearGradient>
	<path fill="url(#SVGID_00000109733028878621625350000003168430018417326490_)" d="M154,1080.8c14.1,0,28.1-3.1,40.9-9
		c12.8-5.9,24.2-14.6,33.4-25.3c9.2-10.8,15.9-23.4,19.7-37c3.8-13.6,4.7-27.9,2.4-41.8s-7.4-27.3-15.3-39s-18.2-21.7-30.2-29
		s-25.6-12.1-39.6-13.7s-28.3-0.2-41.7,4.1c-7.2,45.1-16.1,89.7-25.2,134.8c-2.2,11.2-4.5,22.4-6.7,33.6
		C109.3,1072.9,131.3,1080.8,154,1080.8L154,1080.8z"/>
	
		<radialGradient id="SVGID_00000114795968302171980710000007796430563151670416_" cx="5095.2158" cy="-7109.5981" r="1" gradientTransform="matrix(149.377 0 0 279.735 -760963.25 1989637.5)" gradientUnits="userSpaceOnUse">
		<stop  offset="0" style="stop-color:#F61474"/>
		<stop  offset="1" style="stop-color:#FF85B9"/>
	</radialGradient>
	<path fill="url(#SVGID_00000114795968302171980710000007796430563151670416_)" d="M220.2,947.4c27-12.4,48.3-34.5,59.8-61.9
		c11.4-27.4,12-58.2,1.8-86s-30.7-50.8-57.2-64.3c-26.5-13.5-57.1-16.4-85.7-8.3c-0.7,50.8-5.6,99.3-12.7,147.1
		c-3.5,23.4-7.5,46.6-11.8,69.8c16.1,8.8,34.1,13.8,52.5,14.4C185.2,958.8,203.5,955.1,220.2,947.4L220.2,947.4z"/>
	
		<radialGradient id="SVGID_00000015330057500342326490000005380007846413749400_" cx="5094.8564" cy="-7134.9873" r="1" gradientTransform="matrix(147.972 0 0 157.231 -752683.6875 1121947.625)" gradientUnits="userSpaceOnUse">
		<stop  offset="0" style="stop-color:#F61474"/>
		<stop  offset="1" style="stop-color:#FF85B9"/>
	</radialGradient>
	<path fill="url(#SVGID_00000015330057500342326490000005380007846413749400_)" d="M1190.7,126.6c9.7,20.5,27,36.4,48.2,44.3
		c21.2,7.9,44.7,7.1,65.4-2.2c20.7-9.3,36.9-26.3,45.1-47.4c8.2-21.1,7.9-44.6-1-65.4l-8.8-0.9l-3.1-0.3l-9.2-0.9l-2.7-0.3
		l-11.5-1.1l-2.9-0.3l-9.5-0.9l-3-0.3l-11.8-1l-2.4-0.2l-10.1-0.8l-3.2-0.3c-4.1-0.3-8.1-0.6-12.2-0.9l-1.7-0.1l-11-0.8l-3.4-0.2
		c-4.2-0.3-8.3-0.6-12.6-0.8h-0.2l-4.8-0.3l-2.3-0.2l-4.1-0.2l-3-0.2l-3.9-0.2l-3.3-0.2l-3.7-0.2l-3.4-0.2l-3.8-0.2l-1.2-0.1
		c-7.7,12.3-12.3,26.3-13.1,40.8C1181.7,99,1184.5,113.4,1190.7,126.6L1190.7,126.6z"/>
	
		<linearGradient id="SVGID_00000008831834788821604540000004606949956442738573_" gradientUnits="userSpaceOnUse" x1="-560.1439" y1="-15735.4004" x2="-171.9399" y2="-15517.583" gradientTransform="matrix(1 0 0 1 564 16228.0254)">
		<stop  offset="0" style="stop-color:#D600AA"/>
		<stop  offset="1" style="stop-color:#512BD4"/>
	</linearGradient>
	<path fill="url(#SVGID_00000008831834788821604540000004606949956442738573_)" d="M124.1,551.7c11.4,61.2,16.2,123.5,14.5,185.8
		c21.6,25,50.6,42.5,82.7,50c32.1,7.5,65.9,4.7,96.3-8c30.5-12.7,56.1-34.8,73.4-63c17.2-28.2,25.1-61.1,22.5-94
		c-2.6-32.9-15.5-64.2-36.9-89.3c-21.4-25.2-50.2-42.9-82.2-50.8s-65.8-5.4-96.4,7.1C167.5,501.9,141.6,523.7,124.1,551.7
		L124.1,551.7z"/>
	
		<radialGradient id="SVGID_00000092451237437853547290000015382974178439327388_" cx="5113.3672" cy="-7099.8892" r="1" gradientTransform="matrix(287.483 0 0 398.455 -1469746.625 2829354.5)" gradientUnits="userSpaceOnUse">
		<stop  offset="0" style="stop-color:#F61474"/>
		<stop  offset="1" style="stop-color:#FF85B9"/>
	</radialGradient>
	<path fill="url(#SVGID_00000092451237437853547290000015382974178439327388_)" d="M369.2,544.7c92.8,0,168-75.2,168-168
		s-75.2-168-168-168s-168,75.2-168,168S276.4,544.7,369.2,544.7z"/>
	
		<radialGradient id="SVGID_00000005259608067437667490000002255754504591183025_" cx="5151.1538" cy="-7132.7056" r="1" gradientTransform="matrix(95.603 -95.603 132.5069 132.5069 453206.375 1438008.375)" gradientUnits="userSpaceOnUse">
		<stop  offset="0" style="stop-color:#F61474"/>
		<stop  offset="1" style="stop-color:#FF85B9"/>
	</radialGradient>
	<path fill="url(#SVGID_00000005259608067437667490000002255754504591183025_)" d="M634.7,432.5c30.8-30.9,30.8-80.9,0-111.7
		c-30.9-30.9-80.9-30.9-111.7,0c-30.9,30.9-30.9,80.9,0,111.7S603.8,463.4,634.7,432.5z"/>
</g>
</svg>
