<?xml version="1.0" encoding="utf-8"?>
<!-- Generator: Adobe Illustrator 26.0.0, SVG Export Plug-In . SVG Version: 6.00 Build 0)  -->
<svg version="1.1" id="asset" xmlns="http://www.w3.org/2000/svg" xmlns:xlink="http://www.w3.org/1999/xlink" x="0px" y="0px"
	 viewBox="0 0 2000 2000" enable-background="new 0 0 2000 2000" xml:space="preserve">
<g>
	
		<linearGradient id="SVGID_1_" gradientUnits="userSpaceOnUse" x1="-117.606" y1="-16167.4277" x2="965.8436" y2="-14290.832" gradientTransform="matrix(1 0 0 1 564 16222)">
		<stop  offset="0" style="stop-color:#FF6F40"/>
		<stop  offset="0.5208" style="stop-color:#FFBE46"/>
	</linearGradient>
	<path fill="url(#SVGID_1_)" d="M64.6,536.8C191,841.3,203,1138.7,124.2,1375.4C11.9,1712.5,99,1888.9,713.5,1944.3
		s1213.1-28,1127-427.4c-92.3-428.3,158.8-636.6,57.6-1153.9c-30.4-155.4-155.3-250.6-349.8-287.2S843.7,18.7,525,75.9
		C206.3,133-27.1,316.1,64.6,536.8z"/>
	<path fill="#F7784E" d="M90.2,1504.6c-44.7,253.8,92.7,391.8,623.3,439.7c614.5,55.4,1213.1-28,1127-427.4
		c-0.6-2.6-1.1-5.1-1.6-7.7C1562.3,1496.2,584.7,1455.5,90.2,1504.6z"/>
	<path fill="#FF2D74" d="M1702.1,315c10.4,0,18.8-8.4,18.8-18.8s-8.4-18.8-18.8-18.8s-18.8,8.4-18.8,18.8S1691.7,315,1702.1,315z"/>
	<path fill="#5424D0" d="M1056.3,142.7l-30.3,12.4l12.4,30.3l30.3-12.4L1056.3,142.7z"/>
	<path fill="#FF2D74" d="M433.3,244.4l51.8,7.5l13.9,48.7l-51.8-7.5L433.3,244.4z"/>
	<path fill="#FF2D74" d="M480.1,187.9c7.7,0,14-6.2,14-14s-6.2-14-14-14s-14,6.2-14,14S472.4,187.9,480.1,187.9z"/>
	<path fill="#FF2D74" d="M216.1,652.4l16.9,41.5l41.5-16.9l-16.9-41.5L216.1,652.4z"/>
	<path fill="#5424D0" d="M302.9,515.3c10.3,2.3,22.2-11.4,26.5-30.7c4.4-19.3-0.5-36.8-10.8-39.1c-10.3-2.3-22.2,11.4-26.5,30.7
		C287.7,495.4,292.5,513,302.9,515.3z"/>
	<path fill="#5424D0" d="M1362.9,143.1l46.6-4.7l-7.5,51.8l-46.6,4.7L1362.9,143.1z"/>
	<path fill="#FFBE46" d="M140.9,518c7.9,0,14.3-6.4,14.3-14.3s-6.4-14.3-14.3-14.3c-7.9,0-14.3,6.4-14.3,14.3
		C126.6,511.6,133,518,140.9,518z"/>
	<path fill="#FF2D74" d="M805.7,99c10.4,0,18.8-8.4,18.8-18.8s-8.4-18.8-18.8-18.8s-18.8,8.4-18.8,18.8
		C786.8,90.6,795.3,99,805.7,99z"/>
	<path fill="#FF2D74" d="M1478.9,136.6c10.4,0,18.8-8.4,18.8-18.8s-8.4-18.8-18.8-18.8s-18.8,8.4-18.8,18.8
		S1468.5,136.6,1478.9,136.6z"/>
	<path fill="#FF2D74" d="M257.6,993.6c10.4,0,18.8-8.4,18.8-18.8S268,956,257.6,956s-18.8,8.4-18.8,18.8
		C238.8,985.2,247.2,993.6,257.6,993.6z"/>
	<path fill="#FF2D74" d="M1727.2,957.9c10.4,0,18.8-8.4,18.8-18.8s-8.4-18.8-18.8-18.8s-18.8,8.4-18.8,18.8
		S1716.8,957.9,1727.2,957.9z"/>
	<path fill="#5424D0" d="M1795.9,845.5c16.2,0,29.4-13.2,29.4-29.4s-13.2-29.4-29.4-29.4s-29.4,13.2-29.4,29.4
		C1766.5,832.4,1779.6,845.5,1795.9,845.5z"/>
	<path fill="#5424D0" d="M1739.7,761.3c10.4,0,18.8-8.4,18.8-18.8s-8.4-18.8-18.8-18.8s-18.8,8.4-18.8,18.8
		S1729.3,761.3,1739.7,761.3z"/>
	<path fill="#FF2D74" d="M1279.3,194.9H1241v38.3h38.3V194.9z"/>
	<path fill="#FFBE46" d="M1222.2,97.8c10.4,0,18.8-8.4,18.8-18.8s-8.4-18.8-18.8-18.8s-18.8,8.4-18.8,18.8S1211.9,97.8,1222.2,97.8z
		"/>
	<path fill="#FF2D74" d="M1121.9,113.2c16-3.1,27.1-15.1,24.8-26.8c-2.2-11.7-17-18.8-33-15.7s-27.1,15.1-24.8,26.8
		S1106,116.3,1121.9,113.2z"/>
	<path fill="#FFBE46" d="M1735.8,446.9H1691l10.5-37.8h44.8L1735.8,446.9z"/>
	<path fill="#FFBE46" d="M213.6,816.1c10.4,0,18.8-8.4,18.8-18.8s-8.4-18.8-18.8-18.8s-18.8,8.4-18.8,18.8S203.2,816.1,213.6,816.1z
		"/>
	<path fill="#5424D0" d="M293.6,897.4c9.5,0,17.2-7.7,17.2-17.2s-7.7-17.2-17.2-17.2s-17.2,7.7-17.2,17.2S284.1,897.4,293.6,897.4z"
		/>
	<path fill="#5424D0" d="M686.9,185.4l-32.1,41.3l41.3,32.1l32.1-41.3L686.9,185.4z"/>
	<path fill="#5424D0" d="M345.1,244.8c10.4,0,18.8-8.4,18.8-18.8s-8.4-18.8-18.8-18.8s-18.8,8.4-18.8,18.8S334.7,244.8,345.1,244.8z
		"/>
	<path fill="#FF2D74" d="M222.9,368.3c10-17.4,9.6-36.3-0.9-42.4s-27.1,3.1-37.1,20.5s-9.6,36.3,0.9,42.4
		C196.2,394.8,212.9,385.7,222.9,368.3z"/>
	<path fill="#5424D0" d="M734.7,135.6c2.5-6.3-4-14.9-14.7-19.2c-10.7-4.3-21.4-2.6-23.9,3.8c-2.5,6.3,4,14.9,14.7,19.2
		C721.5,143.7,732.2,142,734.7,135.6z"/>
	<path fill="#FF2D74" d="M1762.7,503.7l17.5,29.6l-23,31.3l-17.5-29.6L1762.7,503.7z"/>
	<path fill="#FF2D74" d="M1780.2,245.1l0.3,27.7l27.7-0.3l-0.3-27.7L1780.2,245.1z"/>
	<path fill="#5424D0" d="M1818.2,400.4c8.5-8.2,4.7-26-8.6-39.7c-13.2-13.7-30.9-18.2-39.4-10s-4.7,26,8.6,39.7
		C1792,404.1,1809.7,408.6,1818.2,400.4z"/>
	<path fill="#FFBE46" d="M203,245.8c6.8,0,13.4-2.4,18.7-6.7s8.9-10.3,10.2-17s0.3-13.6-2.9-19.6s-8.4-10.7-14.7-13.3
		c-14.3,9-27.8,18.5-40.6,28.3c0.3,7.6,3.5,14.8,9,20.1C188.1,242.9,195.4,245.8,203,245.8z"/>
	<path fill="#FFBE46" d="M1554.5,315.3l-14.3-42.5l-42.5,14.3l14.3,42.5L1554.5,315.3z"/>
	<path fill="#FFBE46" d="M608.4,107.7c10.4,0,18.8-8.4,18.8-18.8s-8.4-18.8-18.8-18.8s-18.8,8.4-18.8,18.8S598,107.7,608.4,107.7z"
		/>
	<path fill="#5424D0" d="M1653.8,189.2c11.3,0,20.5-9.2,20.5-20.5s-9.2-20.5-20.5-20.5s-20.5,9.2-20.5,20.5
		S1642.4,189.2,1653.8,189.2z"/>
	<path fill="#FF2D74" d="M1838.2,708.9c12.2,0,22.1-9.9,22.1-22.1s-9.9-22.1-22.1-22.1s-22.1,9.9-22.1,22.1S1826,708.9,1838.2,708.9
		z"/>
	<path fill="#FFBE46" d="M996.1,79.3c7-3.3,12.4-9.2,15-16.4c2.7-7.2,2.4-15.2-0.8-22.3c-18,0.3-36,0.6-54.1,1.1
		c-2.2,5.5-2.7,11.5-1.4,17.3s4.2,11,8.5,15.1s9.7,6.7,15.6,7.7C984.8,82.7,990.8,81.8,996.1,79.3z"/>
</g>
</svg>
