<?xml version="1.0" encoding="utf-8"?>
<!-- Generator: Adobe Illustrator 24.3.0, SVG Export Plug-In . SVG Version: 6.00 Build 0)  -->
<svg version="1.1" xmlns="http://www.w3.org/2000/svg" xmlns:xlink="http://www.w3.org/1999/xlink" x="0px" y="0px"
	 viewBox="0 0 2000 2000" enable-background="new 0 0 2000 2000" xml:space="preserve">
<g id="ghost-image" display="none">
	<g display="inline" opacity="0.5">
		<path fill="#8A6FE8" d="M1469.02,1134.64c-57.66-4.68-181.26-73.79-228.06-150.36c-28.4-46.51,24.83-83.62,53.75-36.22
			c31.36,51.3,134.81,115.23,179.86,118.94L1469.02,1134.64z"/>
		<path fill="#8A6FE8" d="M1525.01,1005.66l-88.68,33.66c-15.81,6.01-23.74,23.69-17.79,39.47c6.01,15.81,23.68,23.74,39.47,17.79
			l88.68-33.66c15.81-6.01,23.74-23.69,17.79-39.47C1558.56,1007.59,1540.82,999.63,1525.01,1005.66z"/>
		<path fill="#8A6FE8" d="M1416.45,1155.13l37.83,51.37c10.17,13.62,29.44,16.44,43.06,6.26c13.63-10.17,16.44-29.43,6.27-43.06
			l-38.78-52.71L1416.45,1155.13z"/>
		<path fill="#8A6FE8" d="M1450.74,1158.21l76.78,42.91c14.86,8.25,33.6,2.87,41.85-12.01c8.25-14.83,2.87-33.6-12.01-41.85
			l-57-32.1L1450.74,1158.21z"/>
		<path fill="#8A6FE8" d="M1460.34,1121.85l84.59,24.43c16.33,4.74,33.4-4.69,38.15-20.98c4.74-16.33-4.69-33.4-20.98-38.15
			l-86.18-24.89L1460.34,1121.85z"/>
		
			<radialGradient id="SVGID_1_" cx="1810.1029" cy="6670.0747" r="6.0502" gradientTransform="matrix(10.6515 0 0 -10.6515 -17828.7402 72150.0391)" gradientUnits="userSpaceOnUse">
			<stop  offset="0" style="stop-color:#8065E0"/>
			<stop  offset="1" style="stop-color:#512BD4"/>
		</radialGradient>
		<path fill="url(#SVGID_1_)" d="M1451.57,1168.18c35.59,0,64.45-28.85,64.45-64.44c0-35.59-28.86-64.44-64.45-64.44
			c-35.58,0-64.44,28.85-64.44,64.44C1387.13,1139.33,1415.99,1168.18,1451.57,1168.18z"/>
		
			<linearGradient id="SVGID_2_" gradientUnits="userSpaceOnUse" x1="432.5041" y1="10108.8672" x2="492.2814" y2="9824.1582" gradientTransform="matrix(1 0 0 -1 694 11204.6914)">
			<stop  offset="0" style="stop-color:#522CD5"/>
			<stop  offset="0.4397" style="stop-color:#8A6FE8"/>
		</linearGradient>
		<path fill="url(#SVGID_2_)" d="M1216.5,1374.16c0.66-59.76-7.85-181.06-69.53-282.64l-60.31,36.62
			c55.97,92.13,60.17,199.66,58.87,246.57C1145.39,1378.59,1181.58,1382.1,1216.5,1374.16z"/>
		<path fill="#522CD5" d="M1145.53,1374.05l55.85-0.26l52.14,298.71l-112.1,0.52c-8.54,0.03-15.01-6.84-14.43-15.38L1145.53,1374.05
			z"/>
		
			<linearGradient id="SVGID_3_" gradientUnits="userSpaceOnUse" x1="468.5244" y1="9832.6982" x2="646.1333" y2="9516.0449" gradientTransform="matrix(1 0 0 -1 694 11204.6914)">
			<stop  offset="0" style="stop-color:#522CD5"/>
			<stop  offset="0.4397" style="stop-color:#8A6FE8"/>
		</linearGradient>
		<path fill="url(#SVGID_3_)" d="M1373.04,1593.94c9.68,7.65,9.52,18.71,8.77,30.39l-2.33,35.78c-0.43,6.41-6.01,11.68-12.41,11.7
			l-116.82,0.52c-7.28,0.03-12.76-5.84-12.27-13.08l0.77-37.08c0.89-13.48-3.65-18.43-14.08-31.13
			c-17.88-21.7-70.74-139.98-65.71-217.05l57.52-0.26C1220.29,1419.47,1280.66,1521.05,1373.04,1593.94z"/>
		
			<radialGradient id="SVGID_4_" cx="1866.4551" cy="6476.2344" r="6.0492" gradientTransform="matrix(20.3477 -0.0926 -0.0926 -20.3477 -36074.0703 133491.4531)" gradientUnits="userSpaceOnUse">
			<stop  offset="0.034" style="stop-color:#522CD5"/>
			<stop  offset="0.9955" style="stop-color:#8A6FE8"/>
		</radialGradient>
		<path fill="url(#SVGID_4_)" d="M1381.81,1624.33c0.55-8.17,0.69-15.98-2.5-22.59l-145.71,0.66c4.03,5.92,5.72,11.09,5.18,19.74
			l-0.78,37.08c-0.48,7.27,5.03,13.14,12.27,13.08l116.82-0.51c6.41-0.03,11.99-5.29,12.42-11.7L1381.81,1624.33z"/>
		
			<linearGradient id="SVGID_5_" gradientUnits="userSpaceOnUse" x1="103.6272" y1="10113.2305" x2="172.3586" y2="9789.8721" gradientTransform="matrix(1 0 0 -1 694 11204.6914)">
			<stop  offset="0" style="stop-color:#522CD5"/>
			<stop  offset="0.4397" style="stop-color:#8A6FE8"/>
		</linearGradient>
		<path fill="url(#SVGID_5_)" d="M847.6,1418.81l-71.31-8.88l40.1-322.45l71.32,8.85L847.6,1418.81z"/>
		<path fill="#522CD5" d="M781.46,1371.7l56.51-0.26l15.64,302.04L740.18,1674c-8.62,0.03-14.31-6.93-12.68-15.55L781.46,1371.7z"/>
		
			<linearGradient id="SVGID_6_" gradientUnits="userSpaceOnUse" x1="48.8044" y1="9805.6963" x2="202.8481" y2="9512.1631" gradientTransform="matrix(1 0 0 -1 694 11204.6914)">
			<stop  offset="0" style="stop-color:#522CD5"/>
			<stop  offset="0.4397" style="stop-color:#8A6FE8"/>
		</linearGradient>
		<path fill="url(#SVGID_6_)" d="M945.67,1595.09c8.71,7.88,8.51,18,6.27,29.81l-6.81,36.19c-1.21,6.47-7.53,11.78-14,11.81
			l-162.21,0.75c-7.36,0.02-12.19-5.89-10.81-13.25l5.78-37.51c2.56-13.62,0.57-17.65,0.83-35.13
			c0.49-32.76,15.61-138.25,30.27-216.16l58.21-0.25C851.42,1417.63,871.48,1527.86,945.67,1595.09z"/>
		
			<radialGradient id="SVGID_7_" cx="1855.7336" cy="6462.2148" r="6.0492" gradientTransform="matrix(22.145 -0.1007 -0.1006 -22.1216 -39582.0742 144683.25)" gradientUnits="userSpaceOnUse">
			<stop  offset="0.034" style="stop-color:#522CD5"/>
			<stop  offset="0.9955" style="stop-color:#8A6FE8"/>
		</radialGradient>
		<path fill="url(#SVGID_7_)" d="M763.92,1622.92l-5.78,37.51c-1.38,7.33,3.45,13.28,10.81,13.25l162.2-0.74
			c6.5-0.03,12.79-5.35,14-11.81l6.81-36.19c1.61-8.57,2.1-16.24-1.03-22.82l-185.86,0.83
			C765.36,1609.61,765.53,1614.39,763.92,1622.92z"/>
		<path fill="#8A6FE8" d="M803.96,455.82l-67.46,27.13l-18.37-73.07l48.43-19.49L803.96,455.82z"/>
		<path fill="#512BD4" d="M788.84,581.95c38.16,0,69.1-30.94,69.1-69.1c0-38.16-30.94-69.1-69.1-69.1s-69.1,30.94-69.1,69.1
			C719.74,551.01,750.68,581.95,788.84,581.95z"/>
		
			<radialGradient id="SVGID_8_" cx="1911.2618" cy="6368.438" r="6.0492" gradientTransform="matrix(61.9498 0 0 -61.9498 -117386.5938 395291.5938)" gradientUnits="userSpaceOnUse">
			<stop  offset="0.4744" style="stop-color:#A08BE8"/>
			<stop  offset="0.8618" style="stop-color:#8065E0"/>
		</radialGradient>
		<path fill="url(#SVGID_8_)" d="M1300.17,939.67c24.86-95.46,8.83-171.66,8.83-171.66h22.45l0.54-0.43
			c-32.16-175.17-185.6-307.91-370.05-307.91c-207.82,0-376.29,168.47-376.29,376.29c0,207.82,168.44,376.29,376.29,376.29
			c163.98,0,303.45-104.92,354.99-251.25C1318.43,954.79,1318.29,943.64,1300.17,939.67z"/>
		<path fill="#D8CFF7" d="M1286.38,1026.53h-648.9c14.57,24.75,31.88,47.66,51.54,68.36h545.85
			C1254.5,1074.17,1271.8,1051.28,1286.38,1026.53z"/>
		
			<radialGradient id="SVGID_9_" cx="1907.0333" cy="6388.9546" r="6.0492" gradientTransform="matrix(48.2581 0 0 -48.2581 -90797.7031 309017.6875)" gradientUnits="userSpaceOnUse">
			<stop  offset="0.0933" style="stop-color:#E1DFDD"/>
			<stop  offset="0.8998" style="stop-color:#FFFFFF"/>
		</radialGradient>
		<path fill="url(#SVGID_9_)" d="M1300.17,939.67c24.55-94.28,9.22-169.73,8.86-171.57H918.6c0,0-24.61-2.5-24.61,19.98
			c0,22.48,0.93,85.94,0.93,156.17c0,14.43,11.81,21.38,21.12,21.38C916.07,965.59,1256.6,965.57,1300.17,939.67z"/>
		<path fill="#A08BE8" d="M1065.02,939.87c0,0,60.05-47.51,71.75-56.31c11.72-8.8,21.96-9.29,32.71,0
			c10.75,9.29,70.85,56.31,70.85,56.31H1065.02z"/>
		<path fill="#512BD4" d="M1315.41,965.33c0,0,10.43-20.06-15.24-25.67c0.03-0.08-383.82-0.28-383.82-0.28
			c-8.93,0-20.43-5.32-21.41-14c0,6.21,0.03,12.47,0.03,18.83c0,13.11,9.75,20.03,18.48,21.18c0.86,0.11,1.75,0.2,2.65,0.2h26.24
			L1315.41,965.33z"/>
		<path fill="#512BD4" d="M1286.53,851.61c0.41-27.33-12.44-49.69-28.69-49.93c-16.25-0.24-29.76,21.72-30.17,49.05
			c-0.41,27.34,12.44,49.69,28.69,49.93C1272.61,900.9,1286.12,878.95,1286.53,851.61z"/>
		<path fill="#8065E0" d="M1256.74,825.01c-10.75,10.75-10.75,28.17,0,38.92c7.36,7.36,17.85,9.69,27.19,6.96
			c1.58-5.89,2.5-12.42,2.62-19.26c0.2-13.39-2.79-25.58-7.82-34.58C1270.88,816.36,1262.75,819,1256.74,825.01z"/>
		<path fill="#512BD4" d="M1020.8,900.92c16.25-0.24,29.1-22.6,28.69-49.93c-0.41-27.33-13.91-49.3-30.17-49.05
			c-16.25,0.24-29.1,22.6-28.69,49.93C991.04,879.19,1004.54,901.16,1020.8,900.92z"/>
		<path fill="#8065E0" d="M1019.83,826.62c-10.75,10.75-10.75,28.17,0,38.92c7.33,7.33,17.74,9.63,27.02,6.98
			c1.78-6.55,2.76-13.85,2.64-21.59c-0.17-12.42-3.07-23.69-7.7-32.28C1033.95,817.97,1025.84,820.61,1019.83,826.62z"/>
		<path fill="#512BD4" d="M1084.82,1115.23l123.17-0.56l-0.5-108.94l-123.17,0.56L1084.82,1115.23z"/>
		<path fill="#FFFFFF" d="M1106.12,1074.51c-0.83,0-1.52-0.26-2.1-0.8c-0.57-0.55-0.86-1.24-0.86-1.98c0-0.77,0.28-1.47,0.86-2.01
			c0.57-0.57,1.26-0.83,2.1-0.83c0.83,0,1.52,0.29,2.1,0.83c0.57,0.54,0.89,1.24,0.89,2.01c0,0.77-0.28,1.43-0.86,1.98
			C1107.68,1074.22,1106.96,1074.51,1106.12,1074.51z"/>
		<path fill="#FFFFFF" d="M1138.89,1073.97h-5.32l-14.08-22.11c-0.34-0.54-0.67-1.15-0.9-1.75h-0.11c0.11,0.63,0.18,2.01,0.18,4.14
			l0.03,19.74h-4.72l-0.05-30.12h5.66l13.6,21.59c0.57,0.89,0.94,1.52,1.12,1.84h0.08c-0.15-0.8-0.2-2.15-0.2-4.05l-0.03-19.4h4.69
			L1138.89,1073.97z"/>
		<path fill="#FFFFFF" d="M1161.83,1073.94l-16.5,0.03l-0.06-30.12l15.84-0.03v4.25l-10.95,0.03l0.03,8.54l10.09-0.03v4.23
			l-10.09,0.03l0.02,8.91l11.61-0.03V1073.94z"/>
		<path fill="#FFFFFF" d="M1185.2,1048.01l-8.45,0.02l0.06,25.87h-4.89l-0.06-25.87l-8.42,0.03v-4.25l21.73-0.06L1185.2,1048.01z"/>
		<path fill="#8A6FE8" d="M529.43,1254.19l40.18,57.34c10.81,15.24,31.93,18.74,47.17,7.94c15.23-10.81,18.74-31.93,7.93-47.14
			l-49.73-69.3L529.43,1254.19z"/>
		<path fill="#8A6FE8" d="M460.13,1232.49L449,1301.65c-2.82,18.43,9.8,35.7,28.28,38.52c18.43,2.82,35.7-9.8,38.52-28.29
			l11.38-70.88L460.13,1232.49z"/>
		<path fill="#8A6FE8" d="M504.99,1240.3l-9.34,69.42c-2.36,18.48,10.75,35.44,29.23,37.8c18.48,2.36,35.44-10.75,37.83-29.23
			l9.6-71.2L504.99,1240.3z"/>
		<path fill="#8A6FE8" d="M442.74,1211.82l-25.09,65.39c-6.58,17.48,2.3,36.99,19.78,43.52c17.48,6.58,36.99-2.3,43.52-19.77
			l25.73-67.06L442.74,1211.82z"/>
		
			<linearGradient id="SVGID_10_" gradientUnits="userSpaceOnUse" x1="-100.864" y1="10345.1621" x2="-100.864" y2="9964.2686" gradientTransform="matrix(1 0 0 -1 694 11204.6914)">
			<stop  offset="0.2495" style="stop-color:#967FE6"/>
			<stop  offset="1" style="stop-color:#8A6FE8"/>
		</linearGradient>
		<path fill="url(#SVGID_10_)" d="M489.3,1240.42c-27.91-57-44.21-154.45,1.78-241.6c27.97-52.92,89.19-120.03,222.28-139.29
			l10.69,73.79c-80.8,11.7-138.52,46.39-167,100.32c-30.84,58.41-22.59,129.43-0.78,174.04L489.3,1240.42z"/>
		
			<radialGradient id="SVGID_11_" cx="1766.2335" cy="6663.5776" r="6.0492" gradientTransform="matrix(11.3989 0 0 -11.3989 -19396.3848 76818.8594)" gradientUnits="userSpaceOnUse">
			<stop  offset="0" style="stop-color:#8065E0"/>
			<stop  offset="1" style="stop-color:#512BD4"/>
		</radialGradient>
		<path fill="url(#SVGID_11_)" d="M738.97,954.1c38.06,0,68.9-30.84,68.9-68.9c0-38.06-30.84-68.9-68.9-68.9
			c-38.06,0-68.9,30.84-68.9,68.9C670.07,923.23,700.92,954.1,738.97,954.1z"/>
		
			<radialGradient id="SVGID_12_" cx="1844.0201" cy="6471.7744" r="6.0492" gradientTransform="matrix(22.7292 0 0 -22.7292 -41408.2305 148252)" gradientUnits="userSpaceOnUse">
			<stop  offset="0" style="stop-color:#8065E0"/>
			<stop  offset="1" style="stop-color:#512BD4"/>
		</radialGradient>
		<path fill="url(#SVGID_12_)" d="M508.62,1277.33c39.09,0,70.77-31.68,70.77-70.77c0-39.09-31.68-70.77-70.77-70.77
			c-39.09,0-70.77,31.68-70.77,70.77C437.85,1245.65,469.55,1277.33,508.62,1277.33z"/>
		<path fill="#D8CFF7" d="M739.68,415.8c-26.24,6.99-53.32-8.39-60.54-34.41c-7.19-26.01,8.22-52.72,34.46-59.7
			c26.24-6.98,53.32,8.39,60.54,34.41C781.36,382.11,765.95,408.78,739.68,415.8z"/>
	</g>
</g>
<g id="bot-base" display="none">
	<g display="inline">
		
			<radialGradient id="SVGID_13_" cx="1911.2618" cy="6368.438" r="6.0492" gradientTransform="matrix(61.9498 0 0 -61.9498 -117386.5938 395291.5938)" gradientUnits="userSpaceOnUse">
			<stop  offset="0.4744" style="stop-color:#A08BE8"/>
			<stop  offset="0.8618" style="stop-color:#8065E0"/>
		</radialGradient>
		<path fill="url(#SVGID_13_)" d="M1300.17,939.67c24.86-95.46,8.83-171.66,8.83-171.66h22.45l0.54-0.43
			c-32.16-175.17-185.6-307.91-370.05-307.91c-207.82,0-376.29,168.47-376.29,376.29c0,207.82,168.44,376.29,376.29,376.29
			c163.98,0,303.45-104.92,354.99-251.25C1318.43,954.79,1318.29,943.64,1300.17,939.67z"/>
		<path fill="#D8CFF7" d="M1286.38,1026.53h-648.9c14.57,24.75,31.88,47.66,51.54,68.36h545.85
			C1254.5,1074.17,1271.8,1051.28,1286.38,1026.53z"/>
		
			<radialGradient id="SVGID_14_" cx="1907.0333" cy="6388.9546" r="6.0492" gradientTransform="matrix(48.2581 0 0 -48.2581 -90797.7031 309017.6875)" gradientUnits="userSpaceOnUse">
			<stop  offset="0.0933" style="stop-color:#E1DFDD"/>
			<stop  offset="0.8998" style="stop-color:#FFFFFF"/>
		</radialGradient>
		<path fill="url(#SVGID_14_)" d="M1300.17,939.67c24.55-94.28,9.22-169.73,8.86-171.57H918.6c0,0-24.61-2.5-24.61,19.98
			c0,22.48,0.93,85.94,0.93,156.17c0,14.43,11.81,21.38,21.12,21.38C916.07,965.59,1256.6,965.57,1300.17,939.67z"/>
		<path fill="#A08BE8" d="M1065.02,939.87c0,0,60.05-47.51,71.75-56.31c11.72-8.8,21.96-9.29,32.71,0
			c10.75,9.29,70.85,56.31,70.85,56.31H1065.02z"/>
		<path fill="#512BD4" d="M1315.41,965.33c0,0,10.43-20.06-15.24-25.67c0.03-0.08-383.82-0.28-383.82-0.28
			c-8.93,0-20.43-5.32-21.41-14c0,6.21,0.03,12.47,0.03,18.83c0,13.11,9.75,20.03,18.48,21.18c0.86,0.11,1.75,0.2,2.65,0.2h26.24
			L1315.41,965.33z"/>
		<path fill="#512BD4" d="M1084.82,1115.23l123.17-0.56l-0.5-108.94l-123.17,0.56L1084.82,1115.23z"/>
		<path fill="#FFFFFF" d="M1106.12,1074.51c-0.83,0-1.52-0.26-2.1-0.8c-0.57-0.55-0.86-1.24-0.86-1.98c0-0.77,0.28-1.47,0.86-2.01
			c0.57-0.57,1.26-0.83,2.1-0.83c0.83,0,1.52,0.29,2.1,0.83c0.57,0.54,0.89,1.24,0.89,2.01c0,0.77-0.28,1.43-0.86,1.98
			C1107.68,1074.22,1106.96,1074.51,1106.12,1074.51z"/>
		<path fill="#FFFFFF" d="M1138.89,1073.97h-5.32l-14.08-22.11c-0.34-0.54-0.67-1.15-0.9-1.75h-0.11c0.11,0.63,0.18,2.01,0.18,4.14
			l0.03,19.74h-4.72l-0.05-30.12h5.66l13.6,21.59c0.57,0.89,0.94,1.52,1.12,1.84h0.08c-0.15-0.8-0.2-2.15-0.2-4.05l-0.03-19.4h4.69
			L1138.89,1073.97z"/>
		<path fill="#FFFFFF" d="M1161.83,1073.94l-16.5,0.03l-0.06-30.12l15.84-0.03v4.25l-10.95,0.03l0.03,8.54l10.09-0.03v4.23
			l-10.09,0.03l0.02,8.91l11.61-0.03V1073.94z"/>
		<path fill="#FFFFFF" d="M1185.2,1048.01l-8.45,0.02l0.06,25.87h-4.89l-0.06-25.87l-8.42,0.03v-4.25l21.73-0.06L1185.2,1048.01z"/>
	</g>
</g>
<g id="asset">
	<g>
		<path fill="#EA7B66" d="M940.31,40.14c634.2-25.01,902.18,35.69,960.96,300.98c114.03,514.64-131.85,729.08-28.99,1154.94
			c95.91,397.09-500.35,495.33-1116.07,455.14c-615.72-40.19-707.14-214.33-603.25-554.13c72.93-238.55,53.58-535.58-80.37-836.86
			S397.41,61.56,940.31,40.14z"/>
		<path fill="#ED9583" d="M1879.95,1614.66l-565.78-76.93l-1133.87,244c85.18,93.93,262.71,149.04,575.91,169.48
			C1305.31,1987.05,1838.94,1912.8,1879.95,1614.66z"/>
		<path fill="#CC5444" d="M132.98,1703.71l822.74-153.72v-78.43L116.25,1603.8C116.54,1640.01,121.85,1673.29,132.98,1703.71z"/>
		<path fill="#D8604D" d="M1051.94,1110.76l-859.18,62.25c-4.93,78.82-18.38,153.97-39.81,224.06
			c-27.6,90.27-41.41,168.84-35.28,236.32l934.26-146.16V1110.76z"/>
		<path fill="#CC5444" d="M1010.7,1148.85l-821.07,62.79c-2.34,23.45-5.43,46.56-9.29,69.26l830.36-78.27V1148.85z"/>
		<polygon fill="#CF5746" points="1008.41,1238.61 488.35,1290.15 488.35,1534.75 1010.7,1456.32 		"/>
		<path fill="#EC8C79" d="M737.76,1086.31l-542.96,31.67c-0.22,18.53-0.91,36.88-2.04,55.04l859.18-62.25L737.76,1086.31z"/>
		<polygon fill="#CC5444" points="357.47,1124.95 245.02,1131.41 245.02,1074.64 357.47,1068.18 		"/>
		<path fill="#CC5444" d="M509.82,1097.22l-315,18.52c-0.08,8.34-0.26,16.65-0.53,24.92l317.06-18.64
			c6.71-0.39,11.94-5.83,11.94-12.4v0C523.28,1102.47,517.12,1096.79,509.82,1097.22z"/>
		<path fill="#CC5444" d="M585.36,577.4H80.08c74.94,174.1,111.7,346.43,114.6,506.51l391.13-19.8c4.69-0.24,8.37-4.03,8.37-8.63
			V586.04C594.19,581.27,590.24,577.4,585.36,577.4z"/>
		<path fill="#D8604D" d="M562.98,600.56H89.84c65.19,158.46,98.85,315.05,104.26,461.88l369.32-18.12
			c4.41-0.22,7.87-3.67,7.87-7.87V608.44C571.28,604.09,567.57,600.56,562.98,600.56z"/>
		<path fill="#D8604D" d="M1519.47,911.74c-23.08,1.4-43.76,15.28-53.62,35.84l-59.81,124.63c0,0,130.88,224.09,130.88,235.49
			c0,4.69,142.83,14.57,310.94,24.58c-8.87-160.4,27.7-295.27,55.47-443.78L1519.47,911.74z"/>
		<polygon fill="#CC5444" points="1423.39,1404.21 1406.73,1596.26 1427.57,1598.52 1499.89,1419.84 		"/>
		<path fill="#CC5444" d="M1545.72,1251.72c0,0-92.88-145.58-108.35-167.19c-10.86-15.17-22.32-28.33-40.98-28.13
			c-18.51,0.2-131.66,2.76-131.66,2.76l104.97,298.26l485.14,46.96c-6.71-48.57-9.01-94.55-8.17-138.86L1545.72,1251.72z"/>
		<path fill="#D8604D" d="M1865.1,1463.99c-6.34-30.78-10.87-60.48-13.87-89.29c-196.81-10.27-393.37-19.47-419.94-20.87
			c-23.65-1.24-31.44-6.9-40.97-25.96c-32.37-64.74-65.75-155.83-104.74-250.07c-15.3-36.99-60.99-14.18-50.51,22.29
			c11.77,40.95,59.48,187.62,86.17,252.57c28,68.15,75.14,78.78,100.06,80.58C1434.31,1434.18,1639.03,1448.31,1865.1,1463.99
			C1865.1,1463.99,1865.1,1463.99,1865.1,1463.99z"/>
		<path fill="#EA7B66" d="M1518.64,1201.92c-3.97-0.08-7.9,0.48-11.64,1.68l-84.31,26.89l16.78,42.3l407.21,28.28
			c-0.63-31.57,0.43-62.22,2.73-92.26L1518.64,1201.92z"/>
		<path fill="#DF6551" d="M1428.95,1229.27c-10.12-0.28-18.29,7.66-18.29,17.72v67.49c0,10.06,8.17,18.63,18.29,19.14l420.44,21.21
			c-3.17-39.09-3.58-76.61-1.98-113.09L1428.95,1229.27z"/>
		<path fill="#CF5746" d="M152.95,1397.07c-21.32,69.73-34.4,132.48-36.43,188.54l335.31-45.65v-245.58l-279.42,27.61
			C166.9,1347.59,160.42,1372.64,152.95,1397.07z"/>
	</g>
</g>
</svg>
