<?xml version="1.0" encoding="utf-8"?>
<!-- Generator: Adobe Illustrator 26.0.0, SVG Export Plug-In . SVG Version: 6.00 Build 0)  -->
<svg version="1.1" id="asset" xmlns="http://www.w3.org/2000/svg" xmlns:xlink="http://www.w3.org/1999/xlink" x="0px" y="0px"
	 viewBox="0 0 2000 2000" style="enable-background:new 0 0 2000 2000;" xml:space="preserve">
<style type="text/css">
	.st0{fill:#FFAD4D;}
	.st1{fill:url(#SVGID_1_);}
	.st2{fill:#FF476C;}
	.st3{fill:#9127B2;}
	.st4{fill:#E22287;}
</style>
<g>
	<path class="st0" d="M1806.61,1121.97v-0.47c-0.11-8.52-0.11-17.08,0-25.68c0-0.53,0-1.06,0-1.59c0-2.35,0.07-4.71,0.11-7.06
		l0.06-3.25c0-2.17,0.1-4.35,0.15-6.52l0.12-3.93c0.06-2.04,0.12-4.08,0.19-6.13c0.06-2.04,0.14-4,0.23-5.86
		c0.66-16.76,1.7-33.64,3.12-50.65c12-143.36,50.37-294.86,118.21-447.45c134-301.28-324.62-504.77-867.72-520.07
		c-708.4-19.95-904.86,51.49-961,301c-62.73,279.16-17.74,470.25,19.16,654.54c5.06,25.32,10,50.52,14.48,75.79
		c0,0.15,0,0.3,0.08,0.44c0.67,3.79,1.33,7.58,2,11.38c0.19,1.06,0.37,2.12,0.55,3.18c0.51,3,1,6,1.51,9
		c0.18,1.1,0.37,2.19,0.54,3.29c0.59,3.56,1.17,7.13,1.72,10.7c0.07,0.42,0.13,0.84,0.2,1.26c0.63,4,1.24,8.03,1.84,12.08l0.39,2.7
		c0.45,3.1,0.9,6.21,1.33,9.32c10.71,76.69,15.35,155.74,6,242.89l-0.27,2.45c-0.26,2.34-0.53,4.68-0.81,7
		c-0.15,1.25-0.29,2.5-0.45,3.75c-0.36,2.97-0.74,5.95-1.14,8.94c-4.31,32.34-10.32,64.44-18,96.14
		c-95.92,397.09,500.35,495.33,1116.07,455.14c551.24-36,682.23-179.33,629.08-452.79c-0.06-0.33-0.13-0.65-0.19-1
		c-0.34-1.76-0.7-3.52-1.06-5.29c-0.09-0.46-0.18-0.93-0.28-1.39c-0.35-1.71-0.71-3.43-1.07-5.14l-0.33-1.56l-1.11-5.12
		c-0.12-0.51-0.23-1-0.35-1.54c-0.38-1.74-0.78-3.49-1.18-5.24c-0.09-0.41-0.19-0.82-0.28-1.22c-1.78-7.74-3.7-15.58-5.75-23.52
		c-0.21-0.84-0.43-1.69-0.65-2.53l-1.08-4.12l-0.84-3.16l-1-3.85c-0.31-1.17-0.63-2.34-1-3.51l-1-3.65
		c-0.35-1.27-0.71-2.54-1.07-3.82c-0.36-1.28-0.65-2.29-1-3.44c-0.4-1.4-0.8-2.8-1.21-4.2c-0.3-1-0.6-2.09-0.91-3.15
		c-0.48-1.61-0.95-3.23-1.43-4.85l-0.77-2.57c-0.74-2.48-1.5-4.98-2.27-7.5c-1.08-3.51-2.13-7.03-3.15-10.56l-1-3.37
		c-0.71-2.43-1.4-4.87-2.09-7.32c-0.35-1.29-0.7-2.58-1.06-3.87c-0.63-2.3-1.26-4.62-1.88-6.95l-1-4c-0.6-2.3-1.19-4.6-1.77-6.91
		c-17.3-68.54-27.3-141.4-29.5-217.39c-0.08-2.82-0.15-5.66-0.21-8.51c0-0.32,0-0.63,0-0.95
		C1806.73,1127.58,1806.66,1124.79,1806.61,1121.97z"/>
	
		<linearGradient id="SVGID_1_" gradientUnits="userSpaceOnUse" x1="406.0067" y1="15034.8701" x2="648.2617" y2="14440.8701" gradientTransform="matrix(1 0 0 -1 564 16522)">
		<stop  offset="0" style="stop-color:#FF7951"/>
		<stop  offset="1" style="stop-color:#FF2078"/>
	</linearGradient>
	<path class="st1" d="M1874.08,1500.62c-0.34-1.76-0.7-3.52-1.06-5.29c-0.09-0.46-0.18-0.93-0.28-1.39
		c-0.35-1.71-0.71-3.43-1.07-5.14l-0.33-1.56l-1.11-5.12c-0.12-0.51-0.23-1-0.35-1.54c-0.38-1.74-0.78-3.49-1.18-5.24
		c-0.09-0.41-0.19-0.82-0.28-1.22c-1.78-7.74-3.7-15.58-5.75-23.52c-0.21-0.84-0.43-1.69-0.65-2.53l-1.08-4.12l-0.84-3.16l-1-3.85
		c-0.31-1.17-0.63-2.34-1-3.51c-0.28-1-0.56-2-0.83-3c-528.31,13-1340.81,80.09-1737.67,129.59
		c-23,346.35,542.58,432.41,1125.59,394.36c551.24-36,682.23-179.33,629.08-452.79C1874.21,1501.26,1874.15,1500.94,1874.08,1500.62
		z"/>
	<path class="st2" d="M1420.71,212.04c34.6,4.54,75.43,0.43,121.38-12.23c36.53-10.07,76.4-25.54,118.5-46l0.23-0.11
		c-4.17-1.7-8.36-3.39-12.6-5c-64.6,30.57-153.63,63-226.2,53.45c-40.31-5.16-79.51-16.8-116.1-34.48
		c-28.81-14.02-55.65-31.79-79.82-52.83c-34-29.56-53.17-57.46-59-66.61l-11.82-0.85c-4.5,8.43-23.68,42.14-59.34,76.1
		c-23.34,22.39-50.08,40.93-79.23,54.94c-36.17,17.11-75.45,26.64-115.43,28c-35.31,1.38-72.06-6.6-109.24-23.72
		c-29.92-13.78-60.19-33.47-90-58.52c-27.81-23.57-53.3-49.74-76.13-78.16c-5.93,0.37-11.79,0.77-17.6,1.18
		c-8.22,40.78-22.5,80.11-42.36,116.67c-20.65,37.79-46.37,69.69-76.37,94.74c-37.48,31.31-81.88,52.09-132,61.78
		c-49.4,9.56-97.74,11.79-143.7,6.65c-34.81-3.81-68.97-12.18-101.61-24.88c-1.02,3.17-2.02,6.36-3,9.59
		c33.14,12.82,67.81,21.29,103.13,25.19c16.73,1.87,33.56,2.8,50.39,2.79c32.45-0.09,64.82-3.27,96.67-9.52
		c51.77-10,97.69-31.52,136.48-63.92c31-25.89,57.49-58.73,78.77-97.61c19.99-36.67,34.46-76.1,42.94-117
		c23.3,29.09,49.34,55.88,77.76,80c30.47,25.67,61.51,45.87,92.27,60.05c38.66,17.82,77,26.12,113.93,24.68
		c42.36-1.66,82.59-11.45,119.57-29.11c30.13-14.51,57.77-33.71,81.88-56.89c31.58-30.14,50.3-59.49,58-73
		c8.1,12.11,26.9,37.46,58.07,64.65c24.87,21.71,52.5,40.04,82.17,54.5C1338.93,194.76,1379.26,206.74,1420.71,212.04z"/>
	<path class="st3" d="M211,400.16c19.4,0,35.12-15.72,35.12-35.12S230.4,329.92,211,329.92s-35.12,15.72-35.12,35.12
		C175.88,384.43,191.61,400.16,211,400.16z"/>
	<path class="st4" d="M303.05,401.79c19.4,0,35.12-15.72,35.12-35.12s-15.72-35.12-35.12-35.12s-35.12,15.72-35.12,35.12
		C267.93,386.06,283.66,401.79,303.05,401.79z"/>
	<path class="st2" d="M397.99,386.26c19.4,0,35.12-15.72,35.12-35.12s-15.72-35.12-35.12-35.12s-35.12,15.72-35.12,35.12
		C362.87,370.53,378.6,386.26,397.99,386.26z"/>
	<path class="st3" d="M483.74,348.97c19.4,0,35.12-15.72,35.12-35.12s-15.72-35.12-35.12-35.12s-35.12,15.72-35.12,35.12
		C448.62,333.24,464.35,348.97,483.74,348.97z"/>
	<path class="st4" d="M553.49,288.32c19.4,0,35.12-15.72,35.12-35.12s-15.72-35.12-35.12-35.12s-35.12,15.72-35.12,35.12
		C518.38,272.59,534.1,288.32,553.49,288.32z"/>
	<path class="st2" d="M608.42,208.87c19.4,0,35.12-15.72,35.12-35.12s-15.72-35.12-35.12-35.12s-35.12,15.72-35.12,35.12
		C573.29,193.14,589.02,208.87,608.42,208.87z"/>
	<path class="st3" d="M703.6,208.87c19.4,0,35.12-15.72,35.12-35.12S723,138.63,703.6,138.63s-35.12,15.72-35.12,35.12
		C668.48,193.14,684.2,208.87,703.6,208.87z"/>
	<path class="st4" d="M787.73,256.61c19.4,0,35.12-15.72,35.12-35.12s-15.72-35.12-35.12-35.12s-35.12,15.72-35.12,35.12
		C752.61,240.88,768.33,256.61,787.73,256.61z"/>
	<path class="st2" d="M879.27,282.16c19.4,0,35.12-15.72,35.12-35.12s-15.72-35.12-35.12-35.12s-35.12,15.72-35.12,35.12
		C844.15,266.43,859.87,282.16,879.27,282.16z"/>
	<path class="st3" d="M976.36,270.62c19.4,0,35.12-15.72,35.12-35.12s-15.72-35.12-35.12-35.12s-35.12,15.72-35.12,35.12
		C941.24,254.89,956.97,270.62,976.36,270.62z"/>
	<path class="st4" d="M1066.42,228c19.4,0,35.12-15.72,35.12-35.12s-15.72-35.12-35.12-35.12s-35.12,15.72-35.12,35.12
		C1031.3,212.27,1047.03,228,1066.42,228z"/>
	<path class="st2" d="M1140.76,164.71c19.4,0,35.12-15.72,35.12-35.12s-15.72-35.12-35.12-35.12s-35.12,15.72-35.12,35.12
		C1105.64,148.98,1121.35,164.71,1140.76,164.71z"/>
	<path class="st3" d="M1220.83,197.59c19.4,0,35.12-15.72,35.12-35.12s-15.72-35.12-35.12-35.12s-35.12,15.72-35.12,35.12
		C1185.7,181.86,1201.43,197.59,1220.83,197.59z"/>
	<path class="st4" d="M1307.38,245.4c19.4,0,35.12-15.72,35.12-35.12s-15.72-35.12-35.12-35.12s-35.12,15.72-35.12,35.12
		C1272.26,229.67,1287.97,245.4,1307.38,245.4z"/>
	<path class="st2" d="M1406.81,273.23c19.4,0,35.12-15.72,35.12-35.12s-15.72-35.12-35.12-35.12s-35.12,15.72-35.12,35.12
		C1371.69,257.5,1387.41,273.23,1406.81,273.23z"/>
	<path class="st3" d="M1510.36,270.62c19.4,0,35.12-15.72,35.12-35.12s-15.72-35.12-35.12-35.12s-35.12,15.72-35.12,35.12
		C1475.24,254.89,1490.96,270.62,1510.36,270.62z"/>
	<path class="st4" d="M1606.06,243.98c19.4,0,35.12-15.72,35.12-35.12s-15.72-35.12-35.12-35.12s-35.12,15.72-35.12,35.12
		C1570.94,228.25,1586.66,243.98,1606.06,243.98z"/>
	<path class="st2" d="M1690.84,203.65c6.97,0,13.78-2.07,19.56-5.95c5.79-3.88,10.29-9.39,12.94-15.84
		c-20.28-10.08-41.61-19.67-64-28.76c-2.62,5.35-3.83,11.29-3.52,17.24c0.3,5.95,2.12,11.73,5.27,16.78
		c3.16,5.06,7.55,9.23,12.76,12.12s11.07,4.41,17.03,4.41L1690.84,203.65L1690.84,203.65z"/>
	<path class="st2" d="M118.12,379.84c4.97,0,9.89-1.05,14.43-3.09s8.59-5.02,11.88-8.75c3.3-3.72,5.77-8.1,7.24-12.85
		c1.48-4.75,1.93-9.76,1.32-14.69c-0.6-4.94-2.25-9.69-4.83-13.94s-6.03-7.91-10.13-10.73s-8.75-4.74-13.64-5.62
		c-4.89-0.89-9.92-0.72-14.75,0.48c-3.2,10.7-6.08,21.76-8.64,33.18c-2.08,9.24-4.04,18.39-5.88,27.44
		C101.5,376.8,109.67,379.85,118.12,379.84z"/>
</g>
</svg>
