<?xml version="1.0" encoding="utf-8"?>
<!-- Generator: Adobe Illustrator 24.3.0, SVG Export Plug-In . SVG Version: 6.00 Build 0)  -->
<svg version="1.1" xmlns="http://www.w3.org/2000/svg" xmlns:xlink="http://www.w3.org/1999/xlink" x="0px" y="0px"
	 viewBox="0 0 2000 2000" enable-background="new 0 0 2000 2000" xml:space="preserve">
<g id="ghost-image" display="none">
	<g display="inline" opacity="0.5">
		<path fill="#8A6FE8" d="M1469.02,1134.64c-57.66-4.68-181.26-73.79-228.06-150.36c-28.4-46.51,24.83-83.62,53.75-36.22
			c31.36,51.3,134.81,115.23,179.86,118.94L1469.02,1134.64z"/>
		<path fill="#8A6FE8" d="M1525.01,1005.66l-88.68,33.66c-15.81,6.01-23.74,23.69-17.79,39.47c6.01,15.81,23.68,23.74,39.47,17.79
			l88.68-33.66c15.81-6.01,23.74-23.69,17.79-39.47C1558.56,1007.59,1540.82,999.63,1525.01,1005.66z"/>
		<path fill="#8A6FE8" d="M1416.45,1155.13l37.83,51.37c10.17,13.62,29.44,16.44,43.06,6.26c13.63-10.17,16.44-29.43,6.27-43.06
			l-38.78-52.71L1416.45,1155.13z"/>
		<path fill="#8A6FE8" d="M1450.74,1158.21l76.78,42.91c14.86,8.25,33.6,2.87,41.85-12.01c8.25-14.83,2.87-33.6-12.01-41.85
			l-57-32.1L1450.74,1158.21z"/>
		<path fill="#8A6FE8" d="M1460.34,1121.85l84.59,24.43c16.33,4.74,33.4-4.69,38.15-20.98c4.74-16.33-4.69-33.4-20.98-38.15
			l-86.18-24.89L1460.34,1121.85z"/>
		
			<radialGradient id="SVGID_1_" cx="1819.7452" cy="9277.5146" r="6.0502" gradientTransform="matrix(10.6515 0 0 -10.6515 -17931.4453 99923.1875)" gradientUnits="userSpaceOnUse">
			<stop  offset="0" style="stop-color:#8065E0"/>
			<stop  offset="1" style="stop-color:#512BD4"/>
		</radialGradient>
		<path fill="url(#SVGID_1_)" d="M1451.57,1168.18c35.59,0,64.45-28.85,64.45-64.44c0-35.59-28.86-64.44-64.45-64.44
			c-35.58,0-64.44,28.85-64.44,64.44C1387.13,1139.33,1415.99,1168.18,1451.57,1168.18z"/>
		
			<linearGradient id="SVGID_2_" gradientUnits="userSpaceOnUse" x1="432.5041" y1="14876.1748" x2="492.2814" y2="14591.4668" gradientTransform="matrix(1 0 0 -1 694 15972)">
			<stop  offset="0" style="stop-color:#522CD5"/>
			<stop  offset="0.4397" style="stop-color:#8A6FE8"/>
		</linearGradient>
		<path fill="url(#SVGID_2_)" d="M1216.5,1374.16c0.66-59.76-7.85-181.06-69.53-282.64l-60.31,36.62
			c55.97,92.13,60.17,199.66,58.87,246.57C1145.39,1378.59,1181.58,1382.1,1216.5,1374.16z"/>
		<path fill="#522CD5" d="M1145.53,1374.05l55.85-0.26l52.14,298.71l-112.1,0.52c-8.54,0.03-15.01-6.84-14.43-15.38L1145.53,1374.05
			z"/>
		
			<linearGradient id="SVGID_3_" gradientUnits="userSpaceOnUse" x1="468.5244" y1="14600.0068" x2="646.1333" y2="14283.3535" gradientTransform="matrix(1 0 0 -1 694 15972)">
			<stop  offset="0" style="stop-color:#522CD5"/>
			<stop  offset="0.4397" style="stop-color:#8A6FE8"/>
		</linearGradient>
		<path fill="url(#SVGID_3_)" d="M1373.04,1593.94c9.68,7.65,9.52,18.71,8.77,30.39l-2.33,35.78c-0.43,6.41-6.01,11.68-12.41,11.7
			l-116.82,0.52c-7.28,0.03-12.76-5.84-12.27-13.08l0.77-37.08c0.89-13.48-3.65-18.43-14.08-31.13
			c-17.88-21.7-70.74-139.98-65.71-217.05l57.52-0.26C1220.29,1419.47,1280.66,1521.05,1373.04,1593.94z"/>
		
			<radialGradient id="SVGID_4_" cx="1877.1066" cy="8977.0352" r="6.0492" gradientTransform="matrix(20.3477 -0.0926 -0.0926 -20.3477 -36059.2305 184377.9375)" gradientUnits="userSpaceOnUse">
			<stop  offset="0.034" style="stop-color:#522CD5"/>
			<stop  offset="0.9955" style="stop-color:#8A6FE8"/>
		</radialGradient>
		<path fill="url(#SVGID_4_)" d="M1381.81,1624.33c0.55-8.17,0.69-15.98-2.5-22.59l-145.71,0.66c4.03,5.92,5.72,11.09,5.18,19.74
			l-0.78,37.08c-0.48,7.27,5.03,13.14,12.27,13.08l116.82-0.51c6.41-0.03,11.99-5.29,12.42-11.7L1381.81,1624.33z"/>
		
			<linearGradient id="SVGID_5_" gradientUnits="userSpaceOnUse" x1="103.6272" y1="14880.5391" x2="172.3586" y2="14557.1797" gradientTransform="matrix(1 0 0 -1 694 15972)">
			<stop  offset="0" style="stop-color:#522CD5"/>
			<stop  offset="0.4397" style="stop-color:#8A6FE8"/>
		</linearGradient>
		<path fill="url(#SVGID_5_)" d="M847.6,1418.81l-71.31-8.88l40.1-322.45l71.32,8.85L847.6,1418.81z"/>
		<path fill="#522CD5" d="M781.46,1371.7l56.51-0.26l15.64,302.04L740.18,1674c-8.62,0.03-14.31-6.93-12.68-15.55L781.46,1371.7z"/>
		
			<linearGradient id="SVGID_6_" gradientUnits="userSpaceOnUse" x1="48.8044" y1="14573.0049" x2="202.8481" y2="14279.4717" gradientTransform="matrix(1 0 0 -1 694 15972)">
			<stop  offset="0" style="stop-color:#522CD5"/>
			<stop  offset="0.4397" style="stop-color:#8A6FE8"/>
		</linearGradient>
		<path fill="url(#SVGID_6_)" d="M945.67,1595.09c8.71,7.88,8.51,18,6.27,29.81l-6.81,36.19c-1.21,6.47-7.53,11.78-14,11.81
			l-162.21,0.75c-7.36,0.02-12.19-5.89-10.81-13.25l5.78-37.51c2.56-13.62,0.57-17.65,0.83-35.13
			c0.49-32.76,15.61-138.25,30.27-216.16l58.21-0.25C851.42,1417.63,871.48,1527.86,945.67,1595.09z"/>
		
			<radialGradient id="SVGID_7_" cx="1866.384" cy="8953.6211" r="6.0492" gradientTransform="matrix(22.145 -0.1007 -0.1006 -22.1216 -39567.2383 199798.1406)" gradientUnits="userSpaceOnUse">
			<stop  offset="0.034" style="stop-color:#522CD5"/>
			<stop  offset="0.9955" style="stop-color:#8A6FE8"/>
		</radialGradient>
		<path fill="url(#SVGID_7_)" d="M763.92,1622.92l-5.78,37.51c-1.38,7.33,3.45,13.28,10.81,13.25l162.2-0.74
			c6.5-0.03,12.79-5.35,14-11.81l6.81-36.19c1.61-8.57,2.1-16.24-1.03-22.82l-185.86,0.83
			C765.36,1609.61,765.53,1614.39,763.92,1622.92z"/>
		<path fill="#8A6FE8" d="M803.96,455.82l-67.46,27.13l-18.37-73.07l48.43-19.49L803.96,455.82z"/>
		<path fill="#512BD4" d="M788.84,581.95c38.16,0,69.1-30.94,69.1-69.1c0-38.16-30.94-69.1-69.1-69.1s-69.1,30.94-69.1,69.1
			C719.74,551.01,750.68,581.95,788.84,581.95z"/>
		
			<radialGradient id="SVGID_8_" cx="1921.7314" cy="8790.5693" r="6.0492" gradientTransform="matrix(61.9498 0 0 -61.9498 -118035.1797 545342.125)" gradientUnits="userSpaceOnUse">
			<stop  offset="0.4744" style="stop-color:#A08BE8"/>
			<stop  offset="0.8618" style="stop-color:#8065E0"/>
		</radialGradient>
		<path fill="url(#SVGID_8_)" d="M1300.17,939.67c24.86-95.46,8.83-171.66,8.83-171.66h22.45l0.54-0.43
			c-32.16-175.17-185.6-307.91-370.05-307.91c-207.82,0-376.29,168.47-376.29,376.29c0,207.82,168.44,376.29,376.29,376.29
			c163.98,0,303.45-104.92,354.99-251.25C1318.43,954.79,1318.29,943.64,1300.17,939.67z"/>
		<path fill="#D8CFF7" d="M1286.38,1026.53h-648.9c14.57,24.75,31.88,47.66,51.54,68.36h545.85
			C1254.5,1074.17,1271.8,1051.28,1286.38,1026.53z"/>
		
			<radialGradient id="SVGID_9_" cx="1917.4542" cy="8822.0029" r="6.0492" gradientTransform="matrix(48.2581 0 0 -48.2581 -91300.5938 426431.9688)" gradientUnits="userSpaceOnUse">
			<stop  offset="0.0933" style="stop-color:#E1DFDD"/>
			<stop  offset="0.8998" style="stop-color:#FFFFFF"/>
		</radialGradient>
		<path fill="url(#SVGID_9_)" d="M1300.17,939.67c24.55-94.28,9.22-169.73,8.86-171.57H918.6c0,0-24.61-2.5-24.61,19.98
			c0,22.48,0.93,85.94,0.93,156.17c0,14.43,11.81,21.38,21.12,21.38C916.07,965.59,1256.6,965.57,1300.17,939.67z"/>
		<path fill="#A08BE8" d="M1065.02,939.87c0,0,60.05-47.51,71.75-56.31c11.72-8.8,21.96-9.29,32.71,0
			c10.75,9.29,70.85,56.31,70.85,56.31H1065.02z"/>
		<path fill="#512BD4" d="M1315.41,965.33c0,0,10.43-20.06-15.24-25.67c0.03-0.08-383.82-0.28-383.82-0.28
			c-8.93,0-20.43-5.32-21.41-14c0,6.21,0.03,12.47,0.03,18.83c0,13.11,9.75,20.03,18.48,21.18c0.86,0.11,1.75,0.2,2.65,0.2h26.24
			L1315.41,965.33z"/>
		<path fill="#512BD4" d="M1286.53,851.61c0.41-27.33-12.44-49.69-28.69-49.93c-16.25-0.24-29.76,21.72-30.17,49.05
			c-0.41,27.34,12.44,49.69,28.69,49.93C1272.61,900.9,1286.12,878.95,1286.53,851.61z"/>
		<path fill="#8065E0" d="M1256.74,825.01c-10.75,10.75-10.75,28.17,0,38.92c7.36,7.36,17.85,9.69,27.19,6.96
			c1.58-5.89,2.5-12.42,2.62-19.26c0.2-13.39-2.79-25.58-7.82-34.58C1270.88,816.36,1262.75,819,1256.74,825.01z"/>
		<path fill="#512BD4" d="M1020.8,900.92c16.25-0.24,29.1-22.6,28.69-49.93c-0.41-27.33-13.91-49.3-30.17-49.05
			c-16.25,0.24-29.1,22.6-28.69,49.93C991.04,879.19,1004.54,901.16,1020.8,900.92z"/>
		<path fill="#8065E0" d="M1019.83,826.62c-10.75,10.75-10.75,28.17,0,38.92c7.33,7.33,17.74,9.63,27.02,6.98
			c1.78-6.55,2.76-13.85,2.64-21.59c-0.17-12.42-3.07-23.69-7.7-32.28C1033.95,817.97,1025.84,820.61,1019.83,826.62z"/>
		<path fill="#512BD4" d="M1084.82,1115.23l123.17-0.56l-0.5-108.94l-123.17,0.56L1084.82,1115.23z"/>
		<path fill="#FFFFFF" d="M1106.12,1074.51c-0.83,0-1.52-0.26-2.1-0.8c-0.57-0.55-0.86-1.24-0.86-1.98c0-0.77,0.28-1.47,0.86-2.01
			c0.57-0.57,1.26-0.83,2.1-0.83c0.83,0,1.52,0.29,2.1,0.83c0.57,0.54,0.89,1.24,0.89,2.01c0,0.77-0.28,1.43-0.86,1.98
			C1107.68,1074.22,1106.96,1074.51,1106.12,1074.51z"/>
		<path fill="#FFFFFF" d="M1138.89,1073.97h-5.32l-14.08-22.11c-0.34-0.54-0.67-1.15-0.9-1.75h-0.11c0.11,0.63,0.18,2.01,0.18,4.14
			l0.03,19.74h-4.72l-0.05-30.12h5.66l13.6,21.59c0.57,0.89,0.94,1.52,1.12,1.84h0.08c-0.15-0.8-0.2-2.15-0.2-4.05l-0.03-19.4h4.69
			L1138.89,1073.97z"/>
		<path fill="#FFFFFF" d="M1161.83,1073.94l-16.5,0.03l-0.06-30.12l15.84-0.03v4.25l-10.95,0.03l0.03,8.54l10.09-0.03v4.23
			l-10.09,0.03l0.02,8.91l11.61-0.03V1073.94z"/>
		<path fill="#FFFFFF" d="M1185.2,1048.01l-8.45,0.02l0.06,25.87h-4.89l-0.06-25.87l-8.42,0.03v-4.25l21.73-0.06L1185.2,1048.01z"/>
		<path fill="#8A6FE8" d="M529.43,1254.19l40.18,57.34c10.81,15.24,31.93,18.74,47.17,7.94c15.23-10.81,18.74-31.93,7.93-47.14
			l-49.73-69.3L529.43,1254.19z"/>
		<path fill="#8A6FE8" d="M460.13,1232.49L449,1301.65c-2.82,18.43,9.8,35.7,28.28,38.52c18.43,2.82,35.7-9.8,38.52-28.29
			l11.38-70.88L460.13,1232.49z"/>
		<path fill="#8A6FE8" d="M504.99,1240.3l-9.34,69.42c-2.36,18.48,10.75,35.44,29.23,37.8c18.48,2.36,35.44-10.75,37.83-29.23
			l9.6-71.2L504.99,1240.3z"/>
		<path fill="#8A6FE8" d="M442.74,1211.82l-25.09,65.39c-6.58,17.48,2.3,36.99,19.78,43.52c17.48,6.58,36.99-2.3,43.52-19.77
			l25.73-67.06L442.74,1211.82z"/>
		
			<linearGradient id="SVGID_10_" gradientUnits="userSpaceOnUse" x1="-100.864" y1="15112.4697" x2="-100.864" y2="14731.5771" gradientTransform="matrix(1 0 0 -1 694 15972)">
			<stop  offset="0.2495" style="stop-color:#967FE6"/>
			<stop  offset="1" style="stop-color:#8A6FE8"/>
		</linearGradient>
		<path fill="url(#SVGID_10_)" d="M489.3,1240.42c-27.91-57-44.21-154.45,1.78-241.6c27.97-52.92,89.19-120.03,222.28-139.29
			l10.69,73.79c-80.8,11.7-138.52,46.39-167,100.32c-30.84,58.41-22.59,129.43-0.78,174.04L489.3,1240.42z"/>
		
			<radialGradient id="SVGID_11_" cx="1775.9413" cy="9256.3447" r="6.0492" gradientTransform="matrix(11.3989 0 0 -11.3989 -19507.043 106373.5469)" gradientUnits="userSpaceOnUse">
			<stop  offset="0" style="stop-color:#8065E0"/>
			<stop  offset="1" style="stop-color:#512BD4"/>
		</radialGradient>
		<path fill="url(#SVGID_11_)" d="M738.97,954.1c38.06,0,68.9-30.84,68.9-68.9c0-38.06-30.84-68.9-68.9-68.9
			c-38.06,0-68.9,30.84-68.9,68.9C670.07,923.23,700.92,954.1,738.97,954.1z"/>
		
			<radialGradient id="SVGID_12_" cx="1854.1932" cy="8960.3008" r="6.0492" gradientTransform="matrix(22.7292 0 0 -22.7292 -41639.457 204814.2031)" gradientUnits="userSpaceOnUse">
			<stop  offset="0" style="stop-color:#8065E0"/>
			<stop  offset="1" style="stop-color:#512BD4"/>
		</radialGradient>
		<path fill="url(#SVGID_12_)" d="M508.62,1277.33c39.09,0,70.77-31.68,70.77-70.77c0-39.09-31.68-70.77-70.77-70.77
			c-39.09,0-70.77,31.68-70.77,70.77C437.85,1245.65,469.55,1277.33,508.62,1277.33z"/>
		<path fill="#D8CFF7" d="M739.68,415.8c-26.24,6.99-53.32-8.39-60.54-34.41c-7.19-26.01,8.22-52.72,34.46-59.7
			c26.24-6.98,53.32,8.39,60.54,34.41C781.36,382.11,765.95,408.78,739.68,415.8z"/>
	</g>
</g>
<g id="bot-base" display="none">
	<g display="inline">
		
			<radialGradient id="SVGID_13_" cx="1921.7314" cy="8790.5693" r="6.0492" gradientTransform="matrix(61.9498 0 0 -61.9498 -118035.1797 545342.125)" gradientUnits="userSpaceOnUse">
			<stop  offset="0.4744" style="stop-color:#A08BE8"/>
			<stop  offset="0.8618" style="stop-color:#8065E0"/>
		</radialGradient>
		<path fill="url(#SVGID_13_)" d="M1300.17,939.67c24.86-95.46,8.83-171.66,8.83-171.66h22.45l0.54-0.43
			c-32.16-175.17-185.6-307.91-370.05-307.91c-207.82,0-376.29,168.47-376.29,376.29c0,207.82,168.44,376.29,376.29,376.29
			c163.98,0,303.45-104.92,354.99-251.25C1318.43,954.79,1318.29,943.64,1300.17,939.67z"/>
		<path fill="#D8CFF7" d="M1286.38,1026.53h-648.9c14.57,24.75,31.88,47.66,51.54,68.36h545.85
			C1254.5,1074.17,1271.8,1051.28,1286.38,1026.53z"/>
		
			<radialGradient id="SVGID_14_" cx="1917.4542" cy="8822.0029" r="6.0492" gradientTransform="matrix(48.2581 0 0 -48.2581 -91300.5938 426431.9688)" gradientUnits="userSpaceOnUse">
			<stop  offset="0.0933" style="stop-color:#E1DFDD"/>
			<stop  offset="0.8998" style="stop-color:#FFFFFF"/>
		</radialGradient>
		<path fill="url(#SVGID_14_)" d="M1300.17,939.67c24.55-94.28,9.22-169.73,8.86-171.57H918.6c0,0-24.61-2.5-24.61,19.98
			c0,22.48,0.93,85.94,0.93,156.17c0,14.43,11.81,21.38,21.12,21.38C916.07,965.59,1256.6,965.57,1300.17,939.67z"/>
		<path fill="#A08BE8" d="M1065.02,939.87c0,0,60.05-47.51,71.75-56.31c11.72-8.8,21.96-9.29,32.71,0
			c10.75,9.29,70.85,56.31,70.85,56.31H1065.02z"/>
		<path fill="#512BD4" d="M1315.41,965.33c0,0,10.43-20.06-15.24-25.67c0.03-0.08-383.82-0.28-383.82-0.28
			c-8.93,0-20.43-5.32-21.41-14c0,6.21,0.03,12.47,0.03,18.83c0,13.11,9.75,20.03,18.48,21.18c0.86,0.11,1.75,0.2,2.65,0.2h26.24
			L1315.41,965.33z"/>
		<path fill="#512BD4" d="M1084.82,1115.23l123.17-0.56l-0.5-108.94l-123.17,0.56L1084.82,1115.23z"/>
		<path fill="#FFFFFF" d="M1106.12,1074.51c-0.83,0-1.52-0.26-2.1-0.8c-0.57-0.55-0.86-1.24-0.86-1.98c0-0.77,0.28-1.47,0.86-2.01
			c0.57-0.57,1.26-0.83,2.1-0.83c0.83,0,1.52,0.29,2.1,0.83c0.57,0.54,0.89,1.24,0.89,2.01c0,0.77-0.28,1.43-0.86,1.98
			C1107.68,1074.22,1106.96,1074.51,1106.12,1074.51z"/>
		<path fill="#FFFFFF" d="M1138.89,1073.97h-5.32l-14.08-22.11c-0.34-0.54-0.67-1.15-0.9-1.75h-0.11c0.11,0.63,0.18,2.01,0.18,4.14
			l0.03,19.74h-4.72l-0.05-30.12h5.66l13.6,21.59c0.57,0.89,0.94,1.52,1.12,1.84h0.08c-0.15-0.8-0.2-2.15-0.2-4.05l-0.03-19.4h4.69
			L1138.89,1073.97z"/>
		<path fill="#FFFFFF" d="M1161.83,1073.94l-16.5,0.03l-0.06-30.12l15.84-0.03v4.25l-10.95,0.03l0.03,8.54l10.09-0.03v4.23
			l-10.09,0.03l0.02,8.91l11.61-0.03V1073.94z"/>
		<path fill="#FFFFFF" d="M1185.2,1048.01l-8.45,0.02l0.06,25.87h-4.89l-0.06-25.87l-8.42,0.03v-4.25l21.73-0.06L1185.2,1048.01z"/>
	</g>
</g>
<g id="asset">
	<g>
		<linearGradient id="SVGID_15_" gradientUnits="userSpaceOnUse" x1="1010.641" y1="43.0292" x2="1010.641" y2="1970.3533">
			<stop  offset="0" style="stop-color:#B0D1F7"/>
			<stop  offset="0.2131" style="stop-color:#B8D9F7"/>
			<stop  offset="0.3238" style="stop-color:#CFF1F5"/>
		</linearGradient>
		<path fill="url(#SVGID_15_)" d="M972.45,43.03c611.42-0.08,901.02,64.03,953.21,330.69c101.25,517.3-149.87,725.59-57.58,1153.87
			c86.05,399.35-512.46,482.78-1127,427.36s-701.61-231.77-589.35-568.9c78.81-236.67,66.83-534.09-59.62-838.59
			S429.13,43.1,972.45,43.03z"/>
		<linearGradient id="SVGID_16_" gradientUnits="userSpaceOnUse" x1="1218.0341" y1="738.5303" x2="1218.0341" y2="1313.1929">
			<stop  offset="0.175" style="stop-color:#E8FAFE"/>
			<stop  offset="0.5571" style="stop-color:#BBF1FD"/>
		</linearGradient>
		<path fill="url(#SVGID_16_)" d="M1904.4,821.34l-46.83,15.2c-28.71,9.32-60.17,3.98-84.2-14.3l-110.08-83.72l-145.03,53.31
			c-17.12,6.29-35.85,6.63-53.18,0.93c-34.93-11.49-92.88-29.48-99.84-24.76c-8.28,5.61-257.34,64.13-344.7,84.54
			c-19.05,4.45-39.06,2.06-56.53-6.75c-25.8-13.01-62.17-30.45-70.03-29.5c-12.46,1.51-385.37,33.39-385.37,33.39
			c-19.4,1.66,252.43,237.78,252.43,237.78l1086.56,225.72c4.2-163.93,51.99-302.96,80.83-464.65L1904.4,821.34z"/>
		<path fill="#FFFFFF" d="M1860.91,1692.1c17.36-47.6,20.6-102.21,7.17-164.51l0,0c0,0,0,0,0-0.01c-0.86-3.98-1.68-7.94-2.48-11.89
			c-0.24-1.19-0.47-2.36-0.71-3.55c-0.57-2.88-1.13-5.75-1.67-8.61c-0.23-1.2-0.46-2.4-0.68-3.6c-0.66-3.55-1.3-7.09-1.91-10.61
			c-0.06-0.35-0.13-0.7-0.19-1.04c-0.67-3.86-1.3-7.7-1.91-11.53c-0.17-1.1-0.34-2.19-0.51-3.28c-0.44-2.83-0.87-5.66-1.28-8.47
			c-0.17-1.16-0.34-2.32-0.5-3.47c-0.47-3.27-0.91-6.52-1.34-9.77c-0.07-0.53-0.15-1.06-0.21-1.59c-0.49-3.76-0.95-7.51-1.38-11.24
			c-0.11-0.98-0.22-1.95-0.33-2.92c-0.32-2.83-0.63-5.64-0.92-8.45c-0.12-1.11-0.23-2.22-0.34-3.32c-0.31-3.09-0.6-6.17-0.88-9.24
			c-0.05-0.61-0.12-1.23-0.17-1.83c-0.32-3.68-0.62-7.35-0.89-11c-0.06-0.84-0.12-1.67-0.18-2.51c-0.21-2.85-0.4-5.7-0.57-8.54
			c-0.06-1.04-0.13-2.08-0.19-3.12c-0.17-2.98-0.33-5.94-0.48-8.9c-0.03-0.64-0.07-1.29-0.1-1.93c-0.17-3.62-0.31-7.23-0.44-10.83
			c-0.02-0.65-0.04-1.3-0.06-1.96c-0.09-2.94-0.17-5.88-0.24-8.81c-0.02-0.95-0.04-1.9-0.06-2.86c-0.05-2.92-0.09-5.82-0.12-8.72
			c-0.01-0.64-0.02-1.28-0.02-1.92c-0.02-3.59-0.03-7.16-0.01-10.72c0-0.41,0.01-0.81,0.01-1.22c0.02-3.11,0.06-6.2,0.11-9.29
			c0.01-0.85,0.03-1.7,0.05-2.55c0.06-2.89,0.13-5.78,0.21-8.66c0.02-0.62,0.03-1.23,0.05-1.85c0.11-3.56,0.24-7.11,0.39-10.64
			c0-0.1,0.01-0.21,0.01-0.31c0.14-3.34,0.31-6.67,0.49-9.99c0.04-0.73,0.08-1.46,0.12-2.19c0.16-2.92,0.34-5.83,0.53-8.73
			c0.04-0.56,0.07-1.12,0.11-1.68c0.47-6.95,1.01-13.87,1.62-20.75c0.05-0.6,0.11-1.2,0.16-1.79c0.27-2.97,0.55-5.94,0.84-8.9
			c0.05-0.49,0.1-0.98,0.14-1.47c0.69-6.92,1.45-13.8,2.28-20.65c0.06-0.5,0.12-1,0.18-1.5c0.36-3.03,0.75-6.05,1.14-9.08
			c0.05-0.38,0.1-0.76,0.15-1.14c0.9-6.91,1.86-13.79,2.87-20.65c0.04-0.24,0.07-0.48,0.11-0.72c0.43-2.87,0.84-5.73,1.3-8.59
			c0.11-0.65,0.2-1.3,0.31-1.95c1.09-6.94,2.23-13.86,3.42-20.76c0,0,0,0,0,0l-140.36-112.48l-81.29,11.64
			c-30.18,4.32-60.79-4.15-84.46-23.37l-130.62-106.07l-535.55,76.6c-30.82,4.41-61.89-6.14-83.65-28.39L572.31,733.3h-98.64
			c-29.51,0-56.86-15.47-72.06-40.77l-39.9-66.39c0,0-164.88-12.88-246.28-19.07c0,0,0,0,0,0
			c87.6,238.15,105.61,469.76,65.47,668.88L1860.91,1692.1z"/>
		<path fill="#E8FAFE" d="M1286.56,1258.16l138.29-91.61l-8.41-97.68l34.29-22.17l-18.52-81.08l90.1,146.27
			c0,0-51.89,32.86-30.81,97.27C1512.59,1273.58,1286.56,1258.16,1286.56,1258.16z"/>
		<path fill="#E8FAFE" d="M1736.96,1094.89v74.75l-53.58,88.52c0,0,48.68-26.41,110.51-37
			C1855.72,1210.58,1736.96,1094.89,1736.96,1094.89z"/>
		<path fill="#E8FAFE" d="M285.69,729.71c5.23,19.61-55.33,33.02-119.63,44.83c5.97,25.2,11.15,50.25,15.57,75.12
			c138.03,3.67,233.84-47.99,233.84-47.99l-64.92-145.96C350.55,655.72,272.29,679.48,285.69,729.71z"/>
		<polygon fill="#E8FAFE" points="572.31,768.01 618.58,885.2 487.9,926.05 462.22,988.93 360.59,1005.73 527.19,1058.83 
			605.06,972.18 688.02,913.42 		"/>
		<polygon fill="#E8FAFE" points="874.61,1017.75 889.59,1095.41 709.02,1220.91 1062.28,1174.33 1278.1,1072.66 1228.82,1042.28 
			1011.62,1072.66 		"/>
		<path fill="#9FE4EB" d="M200.19,1115l1676.15,482.74c-0.27-22.21-2.96-45.58-8.25-70.14l0,0c0,0,0,0,0-0.01
			c-0.86-3.98-1.68-7.94-2.48-11.89c-0.24-1.19-0.47-2.36-0.71-3.55c-0.57-2.88-1.13-5.75-1.67-8.61c-0.23-1.2-0.46-2.4-0.68-3.6
			c-0.66-3.55-1.3-7.09-1.91-10.61c-0.06-0.35-0.13-0.7-0.19-1.04c-0.67-3.86-1.3-7.7-1.91-11.53c-0.17-1.1-0.34-2.19-0.51-3.28
			c-0.44-2.83-0.87-5.66-1.28-8.47c-0.17-1.16-0.34-2.32-0.5-3.47c-0.47-3.27-0.91-6.52-1.34-9.77c-0.07-0.53-0.15-1.06-0.21-1.59
			c-0.49-3.76-0.95-7.51-1.38-11.24c-0.11-0.98-0.22-1.95-0.33-2.92c-0.32-2.83-0.63-5.64-0.92-8.45c-0.12-1.11-0.23-2.22-0.34-3.32
			c-0.31-3.09-0.6-6.17-0.88-9.24c-0.05-0.61-0.12-1.23-0.17-1.83c-0.32-3.68-0.62-7.35-0.89-11c-0.06-0.84-0.12-1.67-0.18-2.51
			c-0.21-2.85-0.4-5.7-0.57-8.54c-0.06-1.04-0.13-2.08-0.19-3.12c-0.17-2.98-0.33-5.94-0.48-8.9c-0.03-0.64-0.07-1.29-0.1-1.93
			c-0.17-3.62-0.31-7.23-0.44-10.83c-0.02-0.65-0.04-1.3-0.06-1.96c-0.09-2.94-0.17-5.88-0.24-8.81c-0.02-0.95-0.04-1.9-0.06-2.86
			c-0.05-2.92-0.09-5.82-0.12-8.72c-0.01-0.64-0.02-1.28-0.02-1.92c-0.02-3.59-0.03-7.16-0.01-10.72c0-0.41,0.01-0.81,0.01-1.22
			c0.02-3.11,0.06-6.2,0.11-9.29c0.01-0.85,0.03-1.7,0.05-2.55c0.06-2.89,0.13-5.78,0.21-8.66c0.02-0.62,0.03-1.23,0.05-1.85
			c0.09-3.02,0.21-6.03,0.33-9.03c-41.22-14.72-118.63-38.31-185.98-36.03c-97.22,3.3-242.28,50.43-242.28,50.43
			s-100.56-76.7-252.83-132.99s-312.11-30.87-312.11-30.87s-81.16-87.87-258.61-149.33s-362.52-54.51-362.52-54.51l-33.53,72.99
			C201.59,1051.16,201.55,1083.36,200.19,1115z"/>
		<path fill="#40C9D6" d="M1866.08,1518.06c-0.27-1.3-0.52-2.6-0.78-3.9c-0.37-1.82-0.74-3.65-1.09-5.47
			c-0.33-1.7-0.65-3.39-0.97-5.08c-0.26-1.37-0.52-2.75-0.78-4.12c-0.36-1.96-0.71-3.91-1.06-5.86c-0.19-1.06-0.38-2.11-0.56-3.17
			c-0.38-2.17-0.75-4.33-1.11-6.49c-0.13-0.79-0.26-1.57-0.39-2.36c-0.39-2.36-0.77-4.72-1.14-7.06c-0.08-0.54-0.17-1.07-0.25-1.61
			c-0.4-2.55-0.78-5.08-1.15-7.61c-0.04-0.28-0.08-0.56-0.12-0.85c-0.4-2.74-0.79-5.46-1.16-8.18v0
			c-317.13-49.57-873.78-168.42-1388.68-437.59c-82.1-42.92-187.61-84.88-275.28-103.81c21.14,167.69,7.18,325.61-37.3,463.39
			c-0.82,2.58-1.66,5.17-2.53,7.76c0,0,0,0,0,0c0,0,0,0,0,0c-0.92,2.75-1.82,5.49-2.71,8.22c-0.29,0.9-0.58,1.79-0.87,2.68
			c-0.59,1.83-1.18,3.66-1.76,5.48c-0.34,1.06-0.67,2.11-1,3.16c-0.52,1.66-1.04,3.31-1.56,4.96c-0.34,1.1-0.68,2.2-1.02,3.3
			c-0.49,1.59-0.97,3.17-1.45,4.75c-0.34,1.13-0.68,2.25-1.01,3.38c-0.46,1.54-0.92,3.09-1.37,4.62c-0.33,1.13-0.66,2.25-0.99,3.37
			c-0.45,1.54-0.89,3.07-1.33,4.6c-0.32,1.11-0.63,2.21-0.94,3.31c-0.44,1.55-0.87,3.09-1.29,4.63c-0.3,1.07-0.59,2.13-0.88,3.2
			c-0.43,1.58-0.86,3.16-1.28,4.74c-0.27,1.01-0.54,2.02-0.81,3.03c-0.44,1.66-0.86,3.3-1.29,4.95c-0.24,0.91-0.47,1.83-0.71,2.74
			c-0.47,1.83-0.92,3.65-1.37,5.47c-0.18,0.72-0.36,1.44-0.54,2.16c-0.59,2.39-1.16,4.78-1.72,7.15c-0.03,0.13-0.07,0.27-0.1,0.4
			c-0.61,2.6-1.2,5.19-1.78,7.76c0,0.02-0.01,0.04-0.01,0.06c-0.55,2.48-1.09,4.94-1.62,7.4c-0.12,0.55-0.23,1.09-0.34,1.64
			c-0.41,1.93-0.81,3.86-1.2,5.78c-0.14,0.7-0.28,1.4-0.41,2.09c-0.35,1.76-0.7,3.52-1.03,5.28c-0.14,0.76-0.28,1.51-0.42,2.27
			c-0.32,1.69-0.63,3.38-0.93,5.06c-0.14,0.78-0.27,1.55-0.41,2.32c-0.29,1.66-0.57,3.31-0.85,4.96c-0.13,0.77-0.25,1.53-0.38,2.3
			c-0.27,1.66-0.53,3.32-0.78,4.98c-0.11,0.73-0.22,1.45-0.33,2.18c-0.26,1.71-0.5,3.41-0.74,5.11c-0.09,0.66-0.19,1.31-0.27,1.97
			c-0.25,1.8-0.48,3.59-0.7,5.38c-0.07,0.54-0.14,1.09-0.21,1.63c-0.24,1.99-0.47,3.97-0.69,5.95c-0.04,0.33-0.08,0.66-0.11,0.99
			c-1.03,9.45-1.77,18.72-2.2,27.82c-0.01,0.16-0.01,0.31-0.02,0.47c-0.1,2.08-0.18,4.15-0.24,6.21c-0.01,0.33-0.02,0.65-0.03,0.98
			c-0.05,1.89-0.1,3.78-0.13,5.66c-0.01,0.4-0.01,0.8-0.01,1.2c-0.02,1.81-0.03,3.61-0.03,5.41c0,0.42,0,0.84,0.01,1.26
			c0.01,1.78,0.03,3.56,0.07,5.33c0.01,0.41,0.02,0.81,0.03,1.22c0.04,1.8,0.1,3.59,0.17,5.38c0.01,0.36,0.03,0.71,0.04,1.07
			c0.08,1.87,0.17,3.74,0.28,5.59c0.01,0.25,0.03,0.51,0.04,0.76c0.12,2.04,0.27,4.06,0.43,6.08c0.01,0.06,0.01,0.13,0.01,0.19
			c1.03,12.83,2.81,25.27,5.37,37.33c0.02,0.08,0.04,0.16,0.05,0.25c0.41,1.9,0.83,3.79,1.28,5.67c0.04,0.15,0.07,0.3,0.11,0.45
			c0.43,1.82,0.89,3.63,1.36,5.44c0.04,0.17,0.09,0.34,0.13,0.51c0.48,1.8,0.97,3.6,1.48,5.39c0.04,0.14,0.08,0.29,0.12,0.43
			c0.53,1.84,1.08,3.67,1.66,5.5c0.02,0.07,0.05,0.15,0.07,0.22c5.47,17.34,12.78,33.84,22.07,49.49c0.02,0.03,0.03,0.06,0.05,0.09
			c1.02,1.71,2.06,3.41,3.12,5.1c0.02,0.03,0.04,0.07,0.06,0.1c11.92,18.93,26.84,36.61,45.02,53.08c0.01,0.01,0.03,0.02,0.04,0.04
			c1.65,1.49,3.32,2.97,5.02,4.44c0,0,0.01,0.01,0.01,0.01c329.28,23.55,997.91,58.56,1451.73,83.14c7.68-3.21,15.2-6.52,22.56-9.93
			c0.08-0.04,0.16-0.07,0.24-0.11c7.32-3.4,14.48-6.89,21.47-10.48c0.04-0.02,0.09-0.04,0.13-0.07c2.3-1.18,4.58-2.38,6.84-3.58
			c0.07-0.04,0.15-0.08,0.22-0.12c6.84-3.65,13.51-7.39,20-11.24c0.09-0.05,0.17-0.1,0.26-0.15c2.13-1.26,4.24-2.54,6.33-3.82
			c0.06-0.04,0.12-0.08,0.19-0.12c4.26-2.62,8.45-5.29,12.55-8c0,0,0.01,0,0.01-0.01c2.01-1.33,4-2.67,5.97-4.02
			c0.12-0.08,0.23-0.16,0.35-0.24c1.96-1.34,3.9-2.7,5.81-4.07c0.04-0.03,0.08-0.05,0.11-0.08c3.9-2.78,7.71-5.6,11.44-8.47
			c0.08-0.06,0.16-0.12,0.24-0.18c1.81-1.4,3.6-2.8,5.37-4.22c0.12-0.1,0.25-0.2,0.37-0.3c5.42-4.35,10.66-8.8,15.71-13.35
			c0.12-0.11,0.25-0.22,0.37-0.34c1.62-1.47,3.22-2.94,4.8-4.43c0.12-0.11,0.24-0.22,0.35-0.33c3.25-3.07,6.43-6.19,9.51-9.35
			c0.05-0.05,0.09-0.09,0.14-0.14c1.5-1.54,2.97-3.09,4.43-4.65c0.14-0.15,0.28-0.3,0.42-0.45c1.44-1.55,2.85-3.1,4.25-4.67
			c0.1-0.11,0.19-0.22,0.29-0.33c2.86-3.22,5.63-6.48,8.31-9.79c0.1-0.13,0.21-0.25,0.31-0.38c1.29-1.6,2.56-3.21,3.82-4.83
			c0.14-0.18,0.28-0.37,0.43-0.55c1.26-1.63,2.49-3.27,3.71-4.93c0.07-0.09,0.13-0.18,0.2-0.27c2.48-3.39,4.88-6.83,7.18-10.32
			c0.13-0.19,0.25-0.38,0.38-0.57c1.1-1.67,2.17-3.35,3.23-5.03c0.13-0.2,0.25-0.41,0.38-0.61c1.08-1.73,2.13-3.47,3.17-5.22
			c0.03-0.04,0.05-0.09,0.08-0.13c1.05-1.78,2.07-3.57,3.07-5.37c0.06-0.11,0.12-0.21,0.18-0.32c0.97-1.75,1.91-3.51,2.84-5.28
			c0.13-0.24,0.25-0.48,0.38-0.72c0.91-1.74,1.79-3.5,2.65-5.26c0.1-0.21,0.2-0.42,0.31-0.63c1.78-3.67,3.47-7.38,5.07-11.13
			c0.09-0.2,0.17-0.4,0.26-0.6c0.76-1.81,1.5-3.63,2.23-5.45c0.11-0.28,0.22-0.55,0.33-0.83c0.72-1.83,1.41-3.68,2.09-5.53
			c0.07-0.2,0.14-0.39,0.21-0.59c0.69-1.92,1.36-3.84,2.01-5.78c0.01-0.03,0.02-0.05,0.03-0.08c0.64-1.92,1.25-3.86,1.84-5.8
			c0.08-0.27,0.17-0.55,0.25-0.82c0.56-1.88,1.11-3.76,1.63-5.66c0.08-0.3,0.17-0.61,0.25-0.91c0.52-1.93,1.03-3.88,1.51-5.83
			c0.04-0.15,0.07-0.31,0.11-0.46c0.47-1.95,0.93-3.91,1.36-5.88c0.04-0.16,0.07-0.32,0.11-0.49c0.43-1.97,0.83-3.95,1.21-5.95
			c0.06-0.33,0.13-0.65,0.19-0.98c0.37-1.96,0.71-3.93,1.04-5.9c0.05-0.31,0.1-0.62,0.15-0.93c0.33-2.05,0.64-4.11,0.92-6.18
			c0.01-0.07,0.02-0.14,0.03-0.21c0.28-2.05,0.53-4.12,0.76-6.19c0.03-0.27,0.06-0.53,0.09-0.8c0.22-2.03,0.42-4.07,0.59-6.13
			c0.03-0.37,0.06-0.74,0.09-1.11c0.17-2.05,0.32-4.11,0.44-6.18c0.02-0.3,0.03-0.6,0.05-0.89c0.12-2.14,0.22-4.29,0.3-6.45
			c0-0.04,0-0.08,0-0.12c0.07-2.17,0.12-4.36,0.14-6.55c0-0.34,0.01-0.68,0.01-1.02c0.02-2.11,0.01-4.22-0.02-6.35
			c-0.01-0.39-0.01-0.79-0.02-1.18c-0.04-2.16-0.09-4.32-0.17-6.5c-0.01-0.25-0.02-0.51-0.03-0.76c-0.09-2.16-0.19-4.32-0.32-6.5
			c-0.01-0.2-0.02-0.39-0.03-0.59c-0.14-2.22-0.3-4.45-0.49-6.7c-0.03-0.4-0.06-0.8-0.1-1.2c-0.19-2.2-0.4-4.4-0.64-6.62
			c-0.04-0.4-0.09-0.79-0.13-1.19c-0.25-2.28-0.52-4.58-0.82-6.88c-0.02-0.17-0.05-0.33-0.07-0.5c-0.29-2.26-0.61-4.52-0.96-6.8
			c-0.05-0.3-0.09-0.61-0.13-0.91c-0.35-2.29-0.72-4.59-1.12-6.9c-0.07-0.44-0.15-0.87-0.23-1.31c-0.4-2.3-0.82-4.6-1.27-6.92
			c-0.07-0.38-0.15-0.76-0.22-1.14c-0.48-2.43-0.97-4.87-1.5-7.33C1867.39,1524.4,1866.72,1521.22,1866.08,1518.06z"/>
		<path fill="#57AA9A" d="M1148.11,1576.43l43.01-93.42c0,0-27.84,2.28-23.42,0.98s36.09-71.9,36.09-71.9l-18.96,0.8l23.36-55.73
			l-18.96,0.8l34.05-67.35c0,0-16.68,1.82-13.38,0.56c3.3-1.26,29.91-59.35,29.91-59.35l32.18,74.62l-13.66-6.13l31.43,56.78
			l-18.08-4.83l42.03,69.74l-21.38-3.57l29.25,57.99l-24.96-9.01l57,107.1L1148.11,1576.43z"/>
		<polygon fill="#179BB8" points="1559.19,1215.62 1529.76,1282.04 1544.47,1274.78 1522.41,1329.48 1540.8,1321.67 
			1501.56,1421.57 1530.37,1412.09 1481.83,1593.95 1667.08,1595.16 1618.04,1448.92 1640.1,1461.2 1599.65,1352.92 
			1616.81,1361.85 1582.48,1282.04 1593.51,1282.04 		"/>
		<path fill="#57AA9A" d="M324.55,1307.55c-3.42,0,33.08-49.09,33.08-49.09h-18.25l9.13-15.88l-38.79,15.88l33.08-56.31l-27.38,5.78
			l27.38-49.09h-23.96l7.99-23.1l-26.24,14.44l20.53-40.43l-21.68,5.78l21.68-53.42h-12.55l12.55-36.1l-30.8,20.21l7.09-30.51
			l-16.22,7.89l7.99-36.58l-9.13,5.78l-17.11-36.1l-13.69,31.77l-9.13-5.78l1.14,25.99l-25.1-14.44l15.97,63.53l-21.68-7.22
			l18.25,43.32l-27.66-8.24c-0.08,4.98-0.19,9.94-0.34,14.89l9.75,16.45l-10.14-5.27c-0.44,10.95-1.04,21.82-1.8,32.63l13.08,20.28
			l-14.59-1.09c-0.35,4.02-0.73,8.03-1.13,12.04l6.6,22.26l-8.43-5.2c-0.01,0.11-0.03,0.22-0.04,0.33
			c-0.66,21.84-1.96,43.43-3.87,64.73l12.34,10.89l-13.31-0.54c-0.32,3.25-0.66,6.48-1.02,9.72l162,40.13l7.47-10.32
			C357.64,1307.55,327.97,1307.55,324.55,1307.55z"/>
		<path fill="#24BADB" d="M1545.8,1591.28c-4.33,0,41.87-49.09,41.87-49.09h-23.1l11.55-15.88l-49.09,15.88l41.87-56.31l-34.65,5.78
			l34.65-49.09h-30.32l10.11-23.1l-33.21,14.44l25.99-40.43l-27.43,5.78l27.43-53.42h-15.88l15.88-36.1l-38.98,20.21l8.97-30.51
			l-20.53,7.89l10.11-36.58l-11.55,5.78l-21.66-36.1l-17.33,31.77l-11.55-5.78l1.44,25.99l-31.77-14.44l20.21,63.53l-27.43-7.22
			l23.1,43.32l-49.09-11.55l25.99,34.65l-56.31-23.1l57.76,70.75l-24.55-1.44l12.99,34.65l-59.2-28.88l31.77,57.76l-34.65-1.44
			l62.09,43.32l-44.76-1.44l25.99,23.1l-57.76-7.22l44.76,53.42l-36.1-1.44l144.39,79.19l112.62-48.87l-40.43-5.78l47.65-51.98
			C1587.67,1591.28,1550.13,1591.28,1545.8,1591.28z"/>
		<polygon fill="#24BADB" points="1147.18,1240.71 1108.96,1307.12 1128.07,1299.87 1099.41,1354.57 1123.29,1346.75 
			1072.33,1446.66 1109.76,1437.17 1046.7,1619.04 1287.31,1620.24 1223.62,1474.01 1252.28,1486.29 1199.73,1378.01 
			1222.02,1386.94 1177.44,1307.12 1191.77,1307.12 		"/>
		<path fill="#179BB8" d="M283.28,1350.83l43.01-93.42c0,0-27.84,2.28-23.42,0.98c4.41-1.3,36.09-71.9,36.09-71.9l-18.96,0.8
			l23.36-55.73l-18.96,0.8l34.05-67.35c0,0-16.68,1.82-13.38,0.56c3.3-1.26,29.91-59.35,29.91-59.35l32.18,74.62l-13.66-6.13
			l31.43,56.78l-18.08-4.83l42.03,69.74l-21.38-3.57l29.25,57.99l-24.96-9.01l57,107.1L283.28,1350.83z"/>
		<polygon fill="#179BB8" points="523.51,1070.5 494.6,1158.89 509.06,1149.23 487.38,1222.03 505.44,1211.63 466.9,1344.6 
			495.2,1331.97 447.52,1574.01 629.5,1575.62 581.32,1381 603,1397.34 563.25,1253.23 580.12,1265.12 546.39,1158.89 
			557.23,1158.89 		"/>
		<path fill="#57AA9A" d="M727.56,1442.19c0,0-32.28-13.19-51.57-28.28c49.49,13.07,86.07,12.43,86.07,12.43
			s-41.24-17.3-72.19-49.65c21.25,6.88,49.61,2.37,49.61,2.37s-8.66-7.31-12.56-16.05c19.77,4.36,37.36,0.18,37.36,0.18
			s-45.6-25.73-64.96-41.97c14.09,0.35,25.62-1.46,25.62-1.46s-11.49-10.04-17.69-20.96c16.38,6.58,37.72,6.52,37.72,6.52
			s-31.37-18.53-53.91-43.75c34.3,18.86,68.22,22.62,68.22,22.62l-17.13-19.75c0,0,35.52,2.02,36.97,1.94s-43.76-31.61-64.52-51.24
			c10.2,0.28,19.37-0.53,19.37-0.53l-10.27-18.49l50.59,19.66c0,0-33.02-30.49-46.18-52.86c8.77,0.66,17.89-1.02,17.89-1.02
			l-6.43-10.62l16.44-0.94c0,0-10.28-10.11-17.82-23.26c24.97,8.4,44.78,11.32,45.43,11.28c0.64-0.04-13.4-19.47-18.47-31.9
			c10.69,0.26,21.56-4.7,21.56-4.7s-12.39-13.17-18.08-27.87c7.3,0.45,16.84-0.96,16.84-0.96l-11.73-11.47c0,0,7.99-4.5,10.46-12.16
			c2.47-7.66,8.36-46.15,8.36-46.15l0.3,4.28c0.86,3.19,11,40.49,19.53,59.92c8.92,20.3,26.45,21.62,26.45,21.62
			s-7.63,10.84-16.42,18.28c5.32-0.3,17.4-0.99,17.4-0.99s-0.75,7.96-3.98,15.26c-4.73,10.68-18.97,28.83-18.97,28.83
			s19.68,0.61,38.02-1.01c-8.07,13.64-12.74,23.27-17.69,29.92c20.88-2.35,43.56-18.67,43.56-18.67s-8.42,22.45-23.1,37.16
			c-14.68,14.71-32.26,25.53-32.26,25.53s8.71,3.86,18.43,4.17c-7.8,12.01-21.76,26.68-21.76,26.68s15.98,3.71,27.56-1.57
			c-3.01,15.2-10.31,31.81-10.31,31.81s9.87,2.91,29.01-1.65c19.14-4.56,30.67-6.46,46.52-17.69
			c-7.61,15.46-27.43,29.31-27.43,29.31s11.65,0.2,25.14-1.43c-18.66,17.25-64.04,33.72-64.04,33.72s20.07,7.53,41.97,4.54
			c-16.57,15.69-49.54,32.89-49.54,32.89s46.49-1.21,82.56-15.12c-19.58,18.17-50.57,31.79-50.57,31.79s19.24,1.5,34.81-1.99
			c-12.53,22.68-61.82,55.56-61.82,55.56s25.45,4.04,57.05-3.25c-11.06,14.51-36.9,33.32-36.9,33.32s24.85,2.05,63.55-8.25
			c-21.17,20-50.37,35.25-50.37,35.25s26.1,6.89,47.77,4.21c-31.78,33.9-96.27,59.67-96.27,59.67s-82.3-18.55-108.44-34.69
			c12.97-2.19,22.39-7.06,22.39-7.06s-24.26-17.12-39.75-33.58c23.19,2.72,48.54,0.7,48.54,0.7s-34.54-14.51-54.35-34.48
			C713.46,1445.88,727.56,1442.19,727.56,1442.19z"/>
		<path fill="#24BADB" d="M751.66,1450.43c-4.33,0,41.87-49.09,41.87-49.09h-23.1l11.55-15.88l-49.09,15.88l41.87-56.31l-34.65,5.78
			l34.65-49.09h-30.32l10.11-23.1l-33.21,14.44l25.99-40.43l-27.43,5.78l27.43-53.42h-15.88l15.88-36.1l-38.98,20.21l8.97-30.51
			l-20.53,7.89l10.11-36.58l-11.55,5.78l-21.66-36.1l-17.33,31.77l-11.55-5.78l1.44,25.99l-31.77-14.44l20.21,63.53l-27.43-7.22
			l23.1,43.32l-49.09-11.55l25.99,34.65l-56.31-23.1l57.76,70.75l-24.55-1.44l12.99,34.65l-59.2-28.88l31.77,57.76l-34.65-1.44
			l62.09,43.32L552.4,1410l25.99,23.1l-57.76-7.22l44.76,53.42l-36.1-1.44l144.39,79.19l112.62-48.87l-40.43-5.78l47.65-51.98
			C793.53,1450.43,755.99,1450.43,751.66,1450.43z"/>
		<polygon fill="#179BB8" points="934.28,1128.06 975.22,1192.84 955.82,1186.38 986.73,1239.85 962.54,1233.03 1017.59,1330.74 
			979.81,1322.81 1050.34,1501.9 809.99,1513.08 867.57,1364.33 839.44,1377.79 887.46,1267.42 865.56,1277.27 906.8,1195.68 
			892.48,1196.27 		"/>
		<path fill="#179BB8" d="M1875.93,1617.39c1.53-27.98-0.97-57.88-7.85-89.8c-36.88-171.14-18.92-307.15,9.48-441.79l-41.19-109.23
			l-23.44,72.57l16.74-8.61L1789.48,1150l18.98-8.61l-49.12,118.08l22.33-9.84l-15.63,59.04l21.21-11.69l-46.88,142.06l24.56-9.84
			l-59.16,188.19H1875.93z"/>
		<path fill="#57AA9A" d="M1812.76,1576.75c0,0,37.52-15.01,59.45-31.17c-58.01,15.87-101.58,17.32-101.58,17.32
			s47.91-19.62,82.54-53.68c-24.82,8.08-58.87,5.19-58.87,5.19s9.81-7.79,13.85-16.74c-23.23,5.48-44.44,2.31-44.44,2.31
			s52.52-28.28,74.46-45.6c-16.74,1.15-30.59,0-30.59,0s12.99-10.68,19.62-21.93c-19.05,7.5-44.44,8.66-44.44,8.66
			s36.07-20.29,61.18-46.75c-39.54,20.78-79.65,26.47-79.65,26.47l19.05-20.69c0,0-42.13,4.04-43.87,4.04s49.93-34.05,73.3-54.83
			c-12.12,0.87-23.09,0.58-23.09,0.58l10.97-19.05l-58.87,22.51c0,0,37.23-32.32,51.37-55.41c-10.39,1.15-21.36,0-21.36,0
			l6.93-10.97h-19.62c0,0,11.54-10.68,19.62-24.24c-29.15,9.81-52.52,13.85-53.29,13.85s14.62-20.2,19.82-32.9
			c-12.7,0.87-25.97-3.46-25.97-3.46s13.85-13.85,19.62-28.86c-8.66,0.87-20.11,0-20.11,0l13.18-12.12c0,0-9.81-4.04-13.28-11.54
			c-3.46-7.5-13.08-45.6-13.08-45.6l-0.06,4.29c-0.81,3.24-10.34,41.05-19.18,60.93c-9.23,20.78-30.01,23.09-30.01,23.09
			s9.81,10.39,20.78,17.32c-6.35,0-20.78,0-20.78,0s1.43,7.9,5.77,15.01c6.35,10.39,24.53,27.7,24.53,27.7s-23.38,1.73-45.31,1.15
			c10.53,13.16,16.74,22.51,23.09,28.86c-25.01-1.15-53.1-16.16-53.1-16.16s11.54,21.93,30.01,35.79
			c18.47,13.85,40.12,23.65,40.12,23.65s-10.11,4.35-21.65,5.21c10.1,11.54,27.7,25.4,27.7,25.4s-18.76,4.62-32.9,0
			c4.62,15.01,14.43,31.17,14.43,31.17s-11.54,3.46-34.63,0c-23.09-3.46-36.94-4.7-56.56-15.01c10.1,15.01,34.63,27.7,34.63,27.7
			s-13.85,0.87-30.01,0c23.38,16.16,78.5,30.01,78.5,30.01s-23.38,8.66-49.64,6.93c20.78,14.72,61.18,30.01,61.18,30.01
			s-55.41,1.44-99.28-10.39c24.53,17.03,62.34,28.86,62.34,28.86s-22.8,2.6-41.56,0c16.45,21.93,77.34,51.95,77.34,51.95
			s-30.01,5.48-68.11,0c14.14,13.85,46.17,31.17,46.17,31.17s-29.44,3.46-76.19-4.62c26.55,18.76,62.34,32.32,62.34,32.32
			s-30.59,8.37-56.56,6.93c40.11,32.03,118.61,54.09,118.61,54.09s96.68-23.21,126.69-40.81c-15.58-1.44-27.13-5.77-27.13-5.77
			s27.7-18.47,45.02-35.79c-27.42,4.04-57.72,3.46-57.72,3.46s40.11-16.45,62.34-37.52
			C1829.79,1579.64,1812.76,1576.75,1812.76,1576.75z"/>
		<path fill="#E8FAFE" d="M151.73,1386.05c-112.27,337.13-25.2,513.48,589.35,568.9c579.8,52.29,1145.34-19.03,1135.15-362.64
			c-344.17-52.4-1034.21-172.37-1685.35-374.77C182.6,1276.38,169.48,1332.76,151.73,1386.05z"/>
		<linearGradient id="SVGID_17_" gradientUnits="userSpaceOnUse" x1="786.8384" y1="1970.3492" x2="786.8384" y2="1394.7812">
			<stop  offset="0" style="stop-color:#8EE8FC"/>
			<stop  offset="0.7901" style="stop-color:#E8FAFE"/>
		</linearGradient>
		<path fill="url(#SVGID_17_)" d="M148.86,1394.78c-107.84,331.45-16.99,505.23,592.22,560.17
			c260.85,23.52,518.79,22.02,722.73-18.03C1091.53,1802.57,475.42,1570.62,148.86,1394.78z"/>
	</g>
</g>
</svg>
