<?xml version="1.0" encoding="utf-8"?>
<!-- Generator: Adobe Illustrator 26.0.0, SVG Export Plug-In . SVG Version: 6.00 Build 0)  -->
<svg version="1.1" id="asset" xmlns="http://www.w3.org/2000/svg" xmlns:xlink="http://www.w3.org/1999/xlink" x="0px" y="0px"
	 viewBox="0 0 2000 2000" style="enable-background:new 0 0 2000 2000;" xml:space="preserve">
<style type="text/css">
	.st0{fill:#2B0B98;}
	.st1{fill:url(#SVGID_1_);}
	.st2{fill:url(#SVGID_00000024002828686974454120000010933990472199305099_);}
	.st3{fill:url(#SVGID_00000066510940472433217520000011781509368685822904_);}
	.st4{fill:url(#SVGID_00000055698830329808259360000004260388310127350667_);}
	.st5{fill:url(#SVGID_00000085218120833582194370000016318374512321352841_);}
	.st6{fill:url(#SVGID_00000180326699177538214610000012140894029224802232_);}
	.st7{fill:url(#SVGID_00000094602733938042219650000016820068556045353661_);}
	.st8{fill:url(#SVGID_00000114070370315818880910000003451828986251622558_);}
	.st9{fill:url(#SVGID_00000183936650922426627050000004633176592114208419_);}
	.st10{fill:url(#SVGID_00000074404335929926469880000013980925249142312590_);}
	.st11{fill:url(#SVGID_00000146467524161469197020000016570719944915163291_);}
	.st12{fill:url(#SVGID_00000060751405437705409410000012438628998868781246_);}
	.st13{fill:url(#SVGID_00000181078951813256790790000003644398901658072253_);}
	.st14{fill:url(#SVGID_00000178177536951512612410000005162297863897901217_);}
	.st15{fill:url(#SVGID_00000034796112320473002580000007231880307533957283_);}
</style>
<g>
	<path class="st0" d="M53.44,1392.22v4c0,1.81,0.05,3.63,0.07,5.45l0.06,3.5c0,2.83,0.11,5.68,0.19,8.53l0.09,3.24
		c0.06,2,0.11,3.91,0.18,5.88c0,1.27,0.09,2.54,0.14,3.81c0.06,1.84,0.14,3.68,0.21,5.53c0.06,1.25,0.11,2.51,0.16,3.77
		c0.1,2.15,0.2,4.31,0.31,6.47c0,0.92,0.09,1.84,0.14,2.76c0.16,2.98,0.33,5.98,0.51,9c0.06,1.09,0.14,2.2,0.21,3.3
		c0.12,2.05,0.26,4.1,0.4,6.16c0.08,1.25,0.17,2.49,0.26,3.74c0.14,2,0.29,4.02,0.45,6.06l0.27,3.53c0,0.54,0.09,1.09,0.13,1.63
		l1877.58,34.63v-0.26c-0.06-0.48-0.11-1-0.18-1.43l-0.12-1c-0.07-0.51-0.15-1-0.22-1.52c-0.13-0.94-0.26-1.87-0.41-2.81
		c-0.02-0.3-0.06-0.59-0.13-0.88c0-0.29-0.11-0.67-0.16-1c-0.22-1.36-0.45-2.73-0.7-4.1c-0.05-0.31-0.11-0.62-0.17-0.93
		s-0.14-0.76-0.21-1.14l-0.48-2.5c-0.11-0.53-0.21-1-0.32-1.58s-0.2-1-0.31-1.5s-0.17-0.77-0.25-1.16s-0.23-1.07-0.35-1.6
		l-0.24-1.05c-0.23-1-0.47-2-0.71-3.06c-0.07-0.27-0.14-0.54-0.2-0.82c-0.06-0.28-0.19-0.77-0.29-1.16
		c-0.36-1.46-0.74-2.92-1.13-4.39c-0.06-0.2-0.11-0.4-0.17-0.59l-0.24-0.9c-0.29-1.06-0.59-2.12-0.9-3.18l-0.39-1.37
		c-0.14-0.48-0.28-1-0.43-1.43c-0.08-0.28-0.17-0.56-0.25-0.84c-0.23-0.75-0.45-1.49-0.69-2.24c-0.06-0.2-0.12-0.4-0.19-0.6
		c-0.34-1.1-0.69-2.19-1.06-3.29c-0.07-0.24-0.15-0.48-0.23-0.71v-0.12c-0.15-0.43-0.29-0.86-0.43-1.29
		c-0.52-1.54-1.06-3.08-1.6-4.62c-0.02-0.1-0.06-0.2-0.11-0.28c0-0.09-0.13-0.37-0.2-0.56c-0.47-1.3-0.95-2.6-1.44-3.91
		c-0.15-0.42-0.31-0.83-0.47-1.25c-0.16-0.42-0.33-0.87-0.5-1.3c-0.05-0.14-0.11-0.27-0.16-0.41c-0.39-1-0.78-2-1.18-3
		c0-0.04,0-0.07-0.01-0.1c-0.01-0.04-0.04-0.07-0.06-0.09c-0.47-1.16-0.94-2.32-1.43-3.48c-0.02-0.08-0.05-0.15-0.09-0.22
		c-0.12-0.3-0.25-0.6-0.37-0.89s-0.34-0.81-0.52-1.22c-0.67-1.59-1.36-3.18-2.07-4.78c-0.03-0.06-0.06-0.12-0.08-0.19
		c-1.62-3.61-3.2-7.22-4.76-10.84c-1.34-3.11-2.67-6.22-4-9.34c-0.8-1.88-1.61-3.75-2.4-5.62l-2.57-6.12
		c-0.92-2.21-1.84-4.41-2.75-6.62s-1.92-4.67-2.87-7l-2.16-5.35c-1.07-2.67-2.15-5.34-3.2-8c-0.43-1.08-0.85-2.16-1.28-3.25
		c-4.32-10.98-8.5-21.95-12.52-32.91c-0.78-2.14-1.57-4.29-2.34-6.43l-2.22-6.18c-0.92-2.55-1.82-5.1-2.71-7.64
		c-1.1-3.13-2.18-6.25-3.25-9.38c-0.68-2-1.33-3.92-2-5.87c-0.75-2.22-1.5-4.45-2.24-6.67c-0.67-1.93-1.3-3.86-1.91-5.79
		c-0.85-2.58-1.69-5.15-2.52-7.73l-0.78-2.41c-0.38-1.2-0.76-2.41-1.15-3.61c-1.06-3.33-2.11-6.67-3.14-10
		c-0.5-1.63-1-3.26-1.49-4.89c-0.8-2.62-1.6-5.24-2.38-7.86c-0.48-1.59-1-3.19-1.43-4.78c-1-3.33-1.97-6.67-2.92-10
		c-0.22-0.76-0.43-1.52-0.65-2.28c-0.27-1-0.55-1.94-0.83-2.92c-0.67-2.42-1.33-4.84-2-7.25c-0.32-1.17-0.65-2.33-1-3.49l-0.27-1
		c-0.24-0.88-0.47-1.75-0.71-2.62c-0.61-2.23-1.21-4.46-1.8-6.69c-0.33-1.21-0.65-2.42-1-3.64c-0.25-0.94-0.49-1.88-0.74-2.82
		c-0.64-2.42-1.26-4.84-1.88-7.27l-0.33-1.29c-0.54-2.12-1.07-4.23-1.6-6.35c-0.33-1.32-0.65-2.64-1-4c-0.4-1.65-0.81-3.3-1.21-5
		c-0.1-0.4-0.19-0.79-0.29-1.19l-1.47-6.15c-0.2-0.86-0.41-1.73-0.61-2.59c-0.58-2.48-1.16-5-1.72-7.43v-0.08
		c-0.6-2.61-1.18-5.22-1.76-7.83c-0.85-3.82-1.68-7.64-2.49-11.45l-0.72-3.38c-1.7-8.06-3.32-16.11-4.85-24.15l-0.75-3.93
		c-0.57-3.07-1.14-6.13-1.69-9.19l-0.66-3.65c-0.59-3.33-1.16-6.63-1.71-9.88c-0.23-1.33-0.46-2.67-0.68-4
		c-0.59-3.56-1.18-7.12-1.74-10.67l-0.54-3.51c-0.45-2.89-0.88-5.78-1.31-8.66c-0.18-1.19-0.36-2.37-0.53-3.56
		c-0.52-3.55-1-7.09-1.5-10.64c-1.82-13.33-3.42-26.63-4.8-39.88c-0.86-8.25-1.63-16.47-2.31-24.68v-0.17
		c-1.12-13.55-2.01-27.03-2.67-40.44v-0.56c-0.38-8-0.69-15.98-0.91-23.93v-0.31c-0.16-5.28-0.27-10.55-0.33-15.81v-0.13
		c-0.11-7.88-0.14-15.73-0.07-23.55v-0.85c0.07-7.83,0.22-15.63,0.44-23.38c2.69-92,16.78-179.35,41.45-260
		c57.12-186.84,55.18-323.59-60.49-415.53l-0.37-0.3c-3.22-2.56-6.53-5.08-9.92-7.55l-0.64-0.46c-3.34-2.42-6.75-4.81-10.23-7.16
		l-0.85-0.57c-3.45-2.32-6.99-4.6-10.61-6.83l-1-0.63l-3.56-2.17l-0.36-0.21c-2.34-1.4-4.72-2.8-7.13-4.18l-1.15-0.65l-3.6-2
		l-1.12-0.62c-2.24-1.23-4.51-2.46-6.81-3.67l-1.25-0.66c-1.21-0.64-2.42-1.26-3.64-1.89l-1.59-0.81c-2.26-1.16-4.55-2.3-6.85-3.42
		l-1.3-0.63l-3.68-1.76l-1.93-0.91c-2.44-1.15-4.9-2.29-7.38-3.4l-1-0.45c-1.23-0.55-2.47-1.1-3.72-1.64l-2.23-1l-3.72-1.6
		l-1.5-0.63c-2.36-1-4.75-2-7.15-3l-2.55-1l-3.71-1.49l-2.86-1.11c-2-0.78-4-1.56-6.07-2.32l-2.89-1.08l-3.71-1.37l-3.24-1.16
		c-1.94-0.67-3.9-1.36-5.87-2.08l-3.33-1.16l-3.72-1.26c-1.16-0.4-2.34-0.79-3.51-1.18l-5.56-1.82l-4-1.28l-3.7-1.17l-3.82-1.23
		l-4.29-1.3l-5.61-1.7l-3.64-1.06l-4.15-1.18l-3.52-1c-2.24-0.63-4.51-1.25-6.79-1.87l-3.55-1l-4.49-1.19l-3.57-0.93
		c-2.37-0.62-4.76-1.22-7.16-1.82L1559.3,91l-5-1.22l-3.57-0.86c-2.28-0.54-4.58-1.08-6.88-1.61l-3.63-0.83l-5.64-1.28l-3.58-0.79
		l-6.37-1.38l-3.77-0.8l-6.69-1.4l-3.53-0.72l-6.38-1.23l-2.71-0.53l-8.53-1.64l-3.42-0.64l-6.51-1.2l-3-0.54l-8.9-1.57l-3.25-0.55
		l-6.84-1.16l-3.14-0.52l-9.29-1.51l-3-0.46l-7.32-1.13l-3.25-0.5l-9.72-1.44l-2.45-0.35l-8-1.14l-3.32-0.46l-10.23-1.46l-1.53-0.2
		l-9.25-1.2l-3.32-0.42l-9.4-1.15l-1.49-0.19l-10.75-1.26l-3.27-0.37c-3.04-0.35-6.1-0.69-9.16-1l-2.2-0.24
		c-3.68-0.4-7.37-0.79-11.09-1.18l-3.14-0.33l-9.2-0.92l-2.69-0.27l-11.46-1.1l-2.86-0.26l-9.54-0.86l-3-0.27l-11.84-1l-2.45-0.21
		l-10.08-0.81l-3.24-0.26c-4.06-0.32-8.15-0.63-12.25-0.93l-1.66-0.12l-11-0.8l-3.41-0.24c-4.16-0.28-8.34-0.57-12.55-0.84h-0.16
		l-4.76-0.31l-2.28-0.15l-4.12-0.25l-3-0.19l-3.86-0.24l-3.26-0.19l-3.72-0.23l-3.39-0.2l-3.78-0.21l-3.29-0.19l-3.74-0.21
		l-3.4-0.19l-3.6-0.2l-3.49-0.18l-3.64-0.19l-3.44-0.18l-3.63-0.19l-3.47-0.17l-3.68-0.18l-3.36-0.16l-3.73-0.18l-3.37-0.16
		l-3.7-0.16c-1.12-0.05-2.24-0.11-3.36-0.15l-3.73-0.17l-3.35-0.14l-3.65-0.15l-3.44-0.15l-3.67-0.14l-3.34-0.13l-3.74-0.15
		l-3.34-0.12l-3.68-0.13l-3.37-0.12l-3.7-0.13l-3.33-0.11l-3.71-0.13l-3.32-0.1l-3.71-0.12l-3.32-0.09l-3.72-0.11l-3.25-0.09
		l-3.81-0.11l-3.2-0.08l-3.79-0.1l-3.25-0.07l-3.75-0.09l-3.24-0.07l-3.78-0.09l-3.16-0.06l-3.84-0.07l-3.14-0.06l-3.84-0.07h-3
		l-4-0.06h-2.9l-4.07-0.06h-29c-8.58-0.04-17.14-0.04-25.69,0h-34.8l-4.1,0.06h-2.72l-4.07,0.1h-2.75l-4,0.07h-2.74l-4.08,0.09
		l-2.71,0.06l-4.06,0.09l-2.7,0.07l-4.08,0.1L898,38.43l-4.07,0.12l-2.67,0.07l-4.07,0.12l-2.69,0.14l-4.08,0.13l-2.62,0.08
		l-4.09,0.14l-2.62,0.1l-4.1,0.15l-2.57,0.09l-4.1,0.16l-2.6,0.11l-4.08,0.17l-2.53,0.11l-4.16,0.18l-2.48,0.11l-4.15,0.19
		l-2.47,0.12l-4.17,0.2l-2.42,0.12l-4.2,0.21l-2.37,0.13l-4.24,0.22l-2.26,0.13l-4.36,0.24l-2.07,0.12l-4.52,0.26l-1.95,0.12
		l-4.59,0.28l-1.85,0.12l-4.72,0.29l-1.53,0.1l-5,0.33l-1.25,0.09c-1.76,0.12-3.52,0.23-5.28,0.36h-0.57
		c-16.85,1.18-33.52,2.51-50,4h-0.23l-5.47,0.51l-0.9,0.08l-5.22,0.5l-1.08,0.1l-5.09,0.5l-1.2,0.12l-4.93,0.5l-1.37,0.13l-4.74,0.5
		l-1.54,0.16l-4.64,0.49l-1.59,0.17l-4.59,0.51l-1.63,0.18L681.73,53l-1.64,0.19l-4.49,0.52l-1.71,0.2l-4.43,0.52l-1.72,0.21
		l-4.41,0.54l-1.72,0.21l-4.41,0.49l-1.72,0.21l-4.38,0.57l-1.7,0.22l-4.38,0.57l-1.68,0.22l-4.37,0.59l-1.66,0.23l-4.4,0.6
		l-1.59,0.23l-4.43,0.62l-1.55,0.22l-4.43,0.64l-1.51,0.23l-4.49,0.66l-1.41,0.19l-4.58,0.69l-1.3,0.2l-4.64,0.72l-1.14,0.18
		l-4.79,0.75l-1,0.16l-4.93,0.79l-0.78,0.13l-5.09,0.85l-0.48,0.08l-5.37,0.9h-0.1c-24.95,4.3-49.2,9.07-72.73,14.3h-0.05
		l-5.15,1.16l-0.34,0.08L496.12,84l-0.54,0.12l-4.77,1.12l-0.65,0.15l-4.66,1.14l-0.7,0.17l-4.59,1.12l-0.77,0.19l-4.51,1.12
		l-0.82,0.2l-4.52,1.13l-0.85,0.22l-4.41,1.13l-0.85,0.22l-4.38,1.15l-0.85,0.23l-4.35,1.16l-0.85,0.23l-4.33,1.18l-0.84,0.23
		l-4.31,1.2l-0.82,0.23l-4.25,1.24l-0.79,0.22l-4.33,1.25l-0.69,0.2l-4.39,1.29l-0.62,0.18l-4.42,1.32l-0.56,0.17l-4.53,1.37
		l-0.41,0.13l-4.59,1.42l-0.24,0.08L408.2,108c-29.68,9.36-58.81,20.41-87.23,33.1c-1.41,0.62-2.81,1.26-4.2,1.91h-0.08l-4.09,1.87
		l-0.16,0.08l-4,1.88l-0.22,0.11l-3.91,1.93l-0.27,0.13l-3.84,1.87l-0.29,0.15c-1.27,0.62-2.53,1.25-3.78,1.88l-0.33,0.17l-3.73,1.9
		l-0.32,0.16l-3.7,1.92l-0.31,0.16l-3.69,2l-0.27,0.15c-1.24,0.65-2.47,1.32-3.69,2l-0.24,0.13l-3.69,2l-0.18,0.11
		c-1.24,0.68-2.48,1.37-3.7,2.07l-0.13,0.07l-3.73,2.13c-33,19-61.69,40.26-85.53,64c-0.9,0.9-1.79,1.8-2.68,2.71l-0.06,0.06
		c-0.88,0.9-1.76,1.8-2.63,2.71l-0.06,0.07c-0.87,0.91-1.73,1.82-2.58,2.73l-0.07,0.07c-0.85,0.91-1.7,1.83-2.54,2.75l-0.06,0.07
		c-0.84,0.92-1.67,1.85-2.5,2.77l-0.05,0.07c-0.83,0.93-1.65,1.87-2.47,2.81s-1.64,1.9-2.45,2.86c-22.8,27-39.74,57-50,90
		c-0.36,1.16-0.71,2.33-1.06,3.51v0.06c-0.34,1.16-0.67,2.33-1,3.5v0.09c-0.33,1.16-0.64,2.33-1,3.5v0.11
		c-0.3,1.17-0.6,2.35-0.89,3.53v0.02c-0.29,1.18-0.57,2.37-0.84,3.56v0.09c-0.28,1.2-0.54,2.39-0.8,3.6v0.05
		c-0.26,1.22-0.52,2.44-0.76,3.66c-8,40.21-6.71,84.68,5.13,133.7c34.19,141.54,29.85,259.72,13,373.34
		c-7.51,50.65-17.51,100.4-27.68,150.9c-4.28,21.26-8.6,42.66-12.77,64.31c-0.06,0.3-0.12,0.59-0.17,0.89
		c-0.87,4.47-1.73,8.95-2.57,13.45l-0.09,0.49c-1.73,9.18-3.43,18.41-5.08,27.7l-0.09,0.49c-0.15,0.87-0.31,1.75-0.47,2.63v0.14
		c-0.62,3.54-1.24,7.09-1.85,10.65c-0.13,0.78-0.27,1.57-0.4,2.36c-0.41,2.4-0.82,4.81-1.22,7.22c-0.2,1.18-0.4,2.37-0.59,3.55v0.11
		c-0.1,0.59-0.19,1.18-0.29,1.76c-0.51,3.12-1,6.26-1.51,9.4c-0.12,0.71-0.23,1.43-0.34,2.15c-0.49,3.06-1,6.12-1.43,9.2
		c-0.02,0.18-0.04,0.35-0.08,0.53c0.01,0.14-0.02,0.28-0.07,0.41c-0.05,0.39-0.12,0.78-0.17,1.17c-0.23,1.49-0.45,3-0.68,4.49
		c0,0.38-0.11,0.75-0.16,1.13c-0.29,1.94-0.58,3.88-0.86,5.83c-0.07,0.52-0.15,1-0.22,1.56c-0.49,3.43-1,6.88-1.45,10.33
		c-0.07,0.54-0.15,1.07-0.22,1.61c-0.28,2-0.54,4-0.81,6l-0.24,1.79l-0.51,4c-0.01,0.18-0.04,0.35-0.07,0.53l-0.12,1
		c-0.09,0.65-0.17,1.3-0.25,2c-0.35,2.74-0.68,5.5-1,8.26c-0.06,0.58-0.13,1.16-0.2,1.74c-0.32,2.67-0.63,5.33-0.94,8
		c-0.06,0.59-0.13,1.19-0.2,1.78l-0.57,5.18c-0.09,0.89-0.19,1.77-0.28,2.66c-0.18,1.68-0.36,3.37-0.53,5c0,0.52-0.11,1-0.16,1.56
		s-0.09,0.9-0.13,1.35c-0.56,5.56-1.09,11.15-1.58,16.78l-0.27,3.09c-0.13,1.53-0.26,3.06-0.38,4.6c0,0.31-0.06,0.61-0.08,0.92
		l-0.21,2.6l-0.36,4.68c-0.09,1.16-0.17,2.33-0.26,3.5c0,0.54-0.08,1.08-0.11,1.62c0.01,0.2-0.01,0.4-0.05,0.6l-0.39,5.72
		c-0.08,1.33-0.17,2.66-0.26,4c-0.06,1-0.12,2-0.19,3.06c0.01,0.33-0.01,0.67-0.05,1v0.4c-0.07,1.29-0.15,2.59-0.22,3.89
		c-0.09,1.47-0.16,2.94-0.24,4.42l-0.18,3.49c0.01,0.33-0.01,0.67-0.05,1c-0.07,1.27-0.13,2.55-0.19,3.82
		c-0.07,1.55-0.13,3.1-0.2,4.64l-0.18,4.54c0.01,0.6-0.01,1.21-0.07,1.81l-0.18,5.17l-0.12,4.13c0,1.49-0.09,3-0.12,4.49
		s-0.07,2.78-0.1,4.18c0,1.56-0.07,3.13-0.09,4.7c0,1.32,0,2.63-0.07,4c0,2.32-0.06,4.63-0.08,7v13.84
		C53.47,1388.64,53.36,1390.43,53.44,1392.22z"/>
	
		<linearGradient id="SVGID_1_" gradientUnits="userSpaceOnUse" x1="119.9882" y1="15665.5879" x2="664.9173" y2="14437.7188" gradientTransform="matrix(1 0 0 -1 564 16528.0254)">
		<stop  offset="0" style="stop-color:#D600AA"/>
		<stop  offset="1" style="stop-color:#512BD4"/>
	</linearGradient>
	<path class="st1" d="M56.6,1469.2c0,0,15.75,164.61,39.72,236.54s73.49,213,403.21,246.28c281.16,28.33,860.91,48,1220.52-137.31
		c231-113.33,224.49-259.36,213.61-310.36C1238.34,1442.06,56.6,1469.2,56.6,1469.2z"/>
	
		<radialGradient id="SVGID_00000005265720894494060210000007190738241067460519_" cx="4430.853" cy="8256.6074" r="1" gradientTransform="matrix(246.305 0 0 -279.285 -1091141.5 2306163.5)" gradientUnits="userSpaceOnUse">
		<stop  offset="0" style="stop-color:#F61474"/>
		<stop  offset="1" style="stop-color:#FF85B9"/>
	</radialGradient>
	<path style="fill:url(#SVGID_00000005265720894494060210000007190738241067460519_);" d="M348.05,325.71
		c37.61-17.77,66.63-49.75,80.67-88.9c14.04-39.16,11.94-82.29-5.83-119.91c-1.9-4-3.94-7.89-6.13-11.68l-3.92,1.21l-0.24,0.08
		l-4.73,1.47c-29.68,9.36-58.81,20.41-87.23,33.1c-1.41,0.62-2.81,1.26-4.2,1.91h-0.08l-4.09,1.87l-0.16,0.08l-4,1.88l-0.22,0.11
		l-3.91,1.93l-0.27,0.13l-3.84,1.87l-0.29,0.15c-1.27,0.62-2.53,1.25-3.78,1.88l-0.33,0.17l-3.73,1.9l-0.32,0.16l-3.7,1.92
		l-0.31,0.16l-3.69,2l-0.27,0.15c-1.24,0.65-2.47,1.32-3.69,2l-0.24,0.13l-3.69,2l-0.18,0.11c-1.24,0.68-2.48,1.37-3.7,2.07
		l-0.13,0.07l-3.73,2.13c-33,19-61.69,40.26-85.53,64c-0.9,0.9-1.79,1.8-2.68,2.71l-0.06,0.06c-0.88,0.9-1.76,1.8-2.63,2.71
		l-0.06,0.07c-0.87,0.91-1.73,1.82-2.58,2.73l-0.07,0.07c-0.85,0.91-1.7,1.83-2.54,2.75l-0.06,0.07c-0.84,0.92-1.67,1.85-2.5,2.77
		l-0.05,0.07c-0.83,0.93-1.65,1.87-2.47,2.81s-1.64,1.9-2.45,2.86c-5.09,6-9.88,12.18-14.37,18.55
		c20.77,31.57,52.24,54.58,88.62,64.8C275.04,345.11,313.89,341.85,348.05,325.71L348.05,325.71z"/>
	
		<linearGradient id="SVGID_00000000223932529864488760000015188549743184593825_" gradientUnits="userSpaceOnUse" x1="-57.8392" y1="16245.1943" x2="322.9117" y2="16338.2705" gradientTransform="matrix(1 0 0 -1 564 16528.0254)">
		<stop  offset="0" style="stop-color:#D600AA"/>
		<stop  offset="1" style="stop-color:#512BD4"/>
	</linearGradient>
	<path style="fill:url(#SVGID_00000000223932529864488760000015188549743184593825_);" d="M855.59,312.02
		c50.86-50.86,50.86-133.33,0-184.19s-133.33-50.86-184.19,0s-50.86,133.33,0,184.19S804.73,362.88,855.59,312.02z"/>
	
		<linearGradient id="SVGID_00000114034855941389241820000010659817963091660987_" gradientUnits="userSpaceOnUse" x1="-593.7531" y1="16208.5811" x2="-230.196" y2="16060.1064" gradientTransform="matrix(1 0 0 -1 564 16528.0254)">
		<stop  offset="0" style="stop-color:#D600AA"/>
		<stop  offset="1" style="stop-color:#512BD4"/>
	</linearGradient>
	<path style="fill:url(#SVGID_00000114034855941389241820000010659817963091660987_);" d="M238.87,564.07
		c35.12-16.12,64.13-43.09,82.75-76.94c18.63-33.85,25.88-72.79,20.7-111.08s-22.53-73.9-49.48-101.58
		c-26.95-27.68-62.09-45.98-100.23-52.18c-3.45,3.13-6.8,6.33-10.06,9.6c-0.9,0.9-1.79,1.8-2.68,2.71l-0.06,0.06
		c-0.88,0.9-1.76,1.8-2.63,2.71l-0.06,0.07c-0.87,0.91-1.73,1.82-2.58,2.73l-0.07,0.07c-0.85,0.91-1.7,1.83-2.54,2.75l-0.06,0.07
		c-0.84,0.92-1.67,1.85-2.5,2.77l-0.05,0.07c-0.83,0.93-1.65,1.87-2.47,2.81s-1.64,1.9-2.45,2.86c-22.8,27-39.74,57-50,90
		c-0.36,1.16-0.71,2.33-1.06,3.51v0.06c-0.34,1.16-0.67,2.33-1,3.5v0.09c-0.33,1.16-0.64,2.33-1,3.5v0.11
		c-0.3,1.17-0.6,2.35-0.89,3.53s-0.57,2.37-0.84,3.56v0.09c-0.28,1.2-0.54,2.39-0.8,3.6v0.05c-0.26,1.22-0.52,2.44-0.76,3.66
		c-8,40.21-6.71,84.68,5.13,133.7c6.34,26.31,11.43,51.79,15.26,76.46C165.7,584.48,204.36,579.96,238.87,564.07L238.87,564.07z"/>
	
		<linearGradient id="SVGID_00000158735249099379966190000004939027438268827016_" gradientUnits="userSpaceOnUse" x1="278.5201" y1="16453.6699" x2="546.5572" y2="16291.6074" gradientTransform="matrix(1 0 0 -1 564 16528.0254)">
		<stop  offset="0" style="stop-color:#D600AA"/>
		<stop  offset="1" style="stop-color:#512BD4"/>
	</linearGradient>
	<path style="fill:url(#SVGID_00000158735249099379966190000004939027438268827016_);" d="M1023.67,288.27
		c57.42,0,103.96-46.74,103.96-104.39S1081.09,79.5,1023.67,79.5s-103.96,46.74-103.96,104.39S966.26,288.27,1023.67,288.27z"/>
	
		<linearGradient id="SVGID_00000095335420268672300320000002671575059813609134_" gradientUnits="userSpaceOnUse" x1="-244.554" y1="16578.0195" x2="135.542" y2="16266.873" gradientTransform="matrix(1 0 0 -1 564 16528.0254)">
		<stop  offset="0" style="stop-color:#D600AA"/>
		<stop  offset="1" style="stop-color:#512BD4"/>
	</linearGradient>
	<path style="fill:url(#SVGID_00000095335420268672300320000002671575059813609134_);" d="M632.78,300.49
		c90.48-41.5,130.17-148.5,88.67-239.03c-1.89-4.12-3.92-8.12-6.08-12l-3.17,0.31l-1.2,0.12l-4.93,0.5l-1.37,0.13l-4.74,0.5
		l-1.54,0.16l-4.64,0.49l-1.59,0.17l-4.59,0.51l-1.63,0.18l-4.52,0.46l-1.64,0.19l-4.49,0.52l-1.71,0.2l-4.43,0.52l-1.72,0.21
		l-4.41,0.54l-1.72,0.21l-4.41,0.49l-1.72,0.21l-4.38,0.57l-1.7,0.22l-4.38,0.57l-1.68,0.22l-4.37,0.59l-1.66,0.23l-4.4,0.6
		l-1.59,0.23l-4.43,0.62l-1.55,0.22l-4.43,0.64l-1.51,0.23l-4.49,0.66l-1.41,0.19l-4.58,0.69l-1.3,0.2l-4.64,0.72l-1.14,0.18
		l-4.79,0.75l-1,0.16l-4.93,0.79l-0.78,0.13l-5.09,0.85l-0.48,0.08l-5.37,0.9h-0.1c-24.95,4.3-49.19,9.07-72.73,14.3l-5.15,1.16
		l-0.34,0.08l-5.01,1.13l-0.54,0.12l-4.8,1.14l-0.65,0.15l-4.66,1.14l-0.7,0.17l-4.59,1.12l-0.77,0.19l-4.51,1.12l-0.82,0.2
		l-4.52,1.13l-0.85,0.22l-4.41,1.13l-0.85,0.22l-4.38,1.15l-0.85,0.23l-4.35,1.16l-0.85,0.23l-4.3,1.18l-0.84,0.23l-4.31,1.2
		l-0.82,0.23l-4.25,1.24l-0.79,0.22l-4.33,1.25l-0.69,0.2l-4.39,1.29l-0.62,0.18l-4.42,1.32l-0.56,0.17l-4.53,1.37l-0.39,0.1
		l-4.59,1.42l-0.24,0.08l-4.75,1.5c-9.93,3.13-19.8,6.47-29.6,10c-3.28,31.63,1.86,63.57,14.9,92.57s33.53,54.04,59.37,72.57
		s56.13,29.9,87.78,32.95C571.98,319.12,603.88,313.74,632.78,300.49L632.78,300.49z"/>
	
		<radialGradient id="SVGID_00000144333224108732894060000002532019428111635354_" cx="4433.7427" cy="8255.7568" r="1" gradientTransform="matrix(287.54 0 0 -287.54 -1274121.5 2374013.5)" gradientUnits="userSpaceOnUse">
		<stop  offset="0" style="stop-color:#F61474"/>
		<stop  offset="1" style="stop-color:#FF85B9"/>
	</radialGradient>
	<path style="fill:url(#SVGID_00000144333224108732894060000002532019428111635354_);" d="M866.68,280.17
		c28.57-0.01,56.66-7.3,81.63-21.18c24.97-13.89,45.98-33.91,61.06-58.17c15.08-24.27,23.72-51.97,25.11-80.51
		s-4.52-56.95-17.16-82.57h-18.47c-8.58-0.04-17.14-0.04-25.69,0h-34.8l-4.1,0.06h-2.72l-4.07,0.1h-2.75l-4,0.07h-2.74l-4.08,0.09
		l-2.71,0.06l-4.06,0.09l-2.7,0.07l-4.08,0.1l-2.68,0.07l-4.07,0.12l-2.67,0.07l-4.07,0.12l-2.69,0.14l-4.08,0.13l-2.62,0.08
		l-4.09,0.14l-2.62,0.1l-4.1,0.15l-2.57,0.09l-4.1,0.16l-2.6,0.11l-4.08,0.17l-2.53,0.11l-4.16,0.18l-2.48,0.11l-4.15,0.19
		l-2.47,0.12l-4.17,0.2l-2.42,0.12l-4.2,0.21l-2.37,0.13l-4.24,0.22l-2.26,0.13l-4.36,0.24l-2.07,0.12l-4.52,0.26l-2,0.12
		l-4.59,0.28l-1.85,0.12l-4.72,0.29l-1.53,0.1l-5,0.33l-1.25,0.09c-1.76,0.12-3.52,0.23-5.28,0.36h-0.57
		c-16.85,1.18-33.52,2.51-50,4h-0.23l-5.47,0.51l-0.9,0.08l-5.22,0.5l-1.08,0.1l-5.09,0.5l-1.2,0.12h-0.37
		c-10.16,25.5-13.93,53.1-10.96,80.38c2.97,27.29,12.57,53.44,27.97,76.16c15.4,22.72,36.13,41.32,60.38,54.18
		C812.21,273.44,839.24,280.16,866.68,280.17L866.68,280.17z"/>
	
		<linearGradient id="SVGID_00000042003729019934507390000011672587433263404446_" gradientUnits="userSpaceOnUse" x1="453.2036" y1="16603.3379" x2="614.8906" y2="16368.7656" gradientTransform="matrix(1 0 0 -1 564 16528.0254)">
		<stop  offset="0" style="stop-color:#D600AA"/>
		<stop  offset="1" style="stop-color:#512BD4"/>
	</linearGradient>
	<path style="fill:url(#SVGID_00000042003729019934507390000011672587433263404446_);" d="M974.26,71.88
		c12.6,27.46,33.4,50.33,59.54,65.47s56.33,21.81,86.41,19.08c30.09-2.73,58.58-14.72,81.57-34.33
		c22.98-19.6,39.32-45.85,46.77-75.13l-3.37-0.25l-3.41-0.24c-4.16-0.28-8.34-0.57-12.55-0.84h-0.16l-4.76-0.31l-2.28-0.15
		l-4.12-0.25l-3-0.19l-3.86-0.24l-3.26-0.19l-3.72-0.23l-3.39-0.2l-3.78-0.21l-3.29-0.19l-3.74-0.21l-3.4-0.19l-3.6-0.2l-3.49-0.18
		l-3.64-0.19l-3.44-0.18l-3.63-0.19l-3.47-0.17l-3.68-0.18l-3.36-0.16l-3.73-0.18l-3.37-0.16l-3.7-0.16c-1.12,0-2.24-0.11-3.36-0.15
		l-3.73-0.17l-3.35-0.14l-3.65-0.15l-3.44-0.15l-3.67-0.14l-3.34-0.13l-3.74-0.15l-3.34-0.12l-3.68-0.13l-3.37-0.12l-3.7-0.13
		l-3.33-0.11l-3.71-0.13l-3.32-0.1l-3.71-0.12l-3.32-0.09l-3.72-0.11l-3.25-0.09l-3.81-0.11l-3.2-0.08l-3.79-0.1l-3.25-0.07
		l-3.75-0.09l-3.24-0.07l-3.78-0.09l-3.16-0.06l-3.84-0.07l-3.14-0.06l-3.84-0.07h-3l-4-0.06h-2.9l-4.07-0.06h-29
		c-8.58-0.04-17.14-0.04-25.69,0h-9.77C965.6,49.51,969.25,60.99,974.26,71.88L974.26,71.88z"/>
	
		<radialGradient id="SVGID_00000065766391111791742550000009835977185809502897_" cx="4380.4277" cy="8269.2148" r="1" gradientTransform="matrix(70.313 0 0 -195.848 -307914.9375 1620589.75)" gradientUnits="userSpaceOnUse">
		<stop  offset="0" style="stop-color:#F61474"/>
		<stop  offset="1" style="stop-color:#FF85B9"/>
	</radialGradient>
	<path style="fill:url(#SVGID_00000065766391111791742550000009835977185809502897_);" d="M104.45,1158.99
		c14.94-7.05,27.55-18.23,36.34-32.22c8.78-13.99,13.38-30.21,13.23-46.72c-0.15-16.52-5.02-32.66-14.05-46.49
		c-9.03-13.83-21.83-24.79-36.9-31.57c-1.51,7.59-3.03,15.19-4.58,22.81c-4.28,21.26-8.6,42.66-12.77,64.31
		c-0.06,0.3-0.12,0.59-0.17,0.89c-0.87,4.46-1.73,8.95-2.57,13.45l-0.09,0.49c-1.73,9.18-3.43,18.41-5.08,27.7l-0.09,0.49
		c-0.15,0.87-0.31,1.75-0.47,2.63v0.14c-0.62,3.54-1.24,7.09-1.85,10.65c-0.13,0.78-0.27,1.57-0.4,2.36
		c-0.41,2.4-0.81,4.8-1.22,7.22c-0.2,1.18-0.4,2.37-0.59,3.55v0.11c-0.1,0.59-0.19,1.18-0.29,1.76c-0.35,2.19-0.7,4.39-1.06,6.59
		C83.14,1166.59,94.22,1163.82,104.45,1158.99L104.45,1158.99z"/>
	
		<linearGradient id="SVGID_00000141429504348839497470000017299226865214529174_" gradientUnits="userSpaceOnUse" x1="-548.4356" y1="15613.7705" x2="-322.5415" y2="15501.6006" gradientTransform="matrix(1 0 0 -1 564 16528.0254)">
		<stop  offset="0" style="stop-color:#D600AA"/>
		<stop  offset="1" style="stop-color:#512BD4"/>
	</linearGradient>
	<path style="fill:url(#SVGID_00000141429504348839497470000017299226865214529174_);" d="M154.01,1080.78
		c14.13-0.01,28.1-3.09,40.93-9.01c12.83-5.93,24.23-14.56,33.4-25.32c9.17-10.75,15.9-23.36,19.74-36.97
		c3.83-13.6,4.67-27.88,2.45-41.84s-7.43-27.27-15.29-39.02s-18.17-21.66-30.22-29.04s-25.56-12.06-39.6-13.72
		s-28.26-0.25-41.7,4.11c-7.16,45.11-16.11,89.65-25.2,134.79c-2.24,11.16-4.49,22.36-6.74,33.62
		C109.27,1072.89,131.29,1080.81,154.01,1080.78L154.01,1080.78z"/>
	
		<radialGradient id="SVGID_00000017480591667329033370000018349649123652334472_" cx="4417.7812" cy="8256.5596" r="1" gradientTransform="matrix(149.377 0 0 -279.735 -659770.125 2310482.75)" gradientUnits="userSpaceOnUse">
		<stop  offset="0" style="stop-color:#F61474"/>
		<stop  offset="1" style="stop-color:#FF85B9"/>
	</radialGradient>
	<path style="fill:url(#SVGID_00000017480591667329033370000018349649123652334472_);" d="M220.21,947.42
		c27.01-12.38,48.35-34.5,59.76-61.94c11.4-27.44,12.03-58.17,1.75-86.05s-30.71-50.85-57.19-64.32
		c-26.49-13.47-57.08-16.44-85.66-8.32c-0.73,50.76-5.59,99.33-12.67,147.09c-3.47,23.41-7.47,46.62-11.78,69.81
		c16.12,8.84,34.08,13.78,52.46,14.43C185.24,958.77,203.51,955.11,220.21,947.42L220.21,947.42z"/>
	
		<radialGradient id="SVGID_00000090993548633559949350000016243354415571235714_" cx="4417.4653" cy="8279.5811" r="1" gradientTransform="matrix(147.972 0 0 -157.231 -652448.8125 1301913.25)" gradientUnits="userSpaceOnUse">
		<stop  offset="0" style="stop-color:#F61474"/>
		<stop  offset="1" style="stop-color:#FF85B9"/>
	</radialGradient>
	<path style="fill:url(#SVGID_00000090993548633559949350000016243354415571235714_);" d="M1190.67,126.57
		c9.65,20.5,26.96,36.39,48.2,44.25c21.25,7.86,44.73,7.07,65.4-2.2c20.67-9.28,36.87-26.29,45.12-47.39
		c8.24-21.1,7.88-44.59-1.02-65.43l-8.78-0.93l-3.14-0.33l-9.2-0.92l-2.69-0.27l-11.46-1.1l-2.86-0.26l-9.54-0.86l-3-0.27l-11.84-1
		l-2.45-0.21l-10.08-0.81l-3.24-0.26c-4.06-0.32-8.14-0.63-12.25-0.93l-1.66-0.12l-11-0.8l-3.41-0.24
		c-4.16-0.28-8.34-0.57-12.55-0.84h-0.16l-4.76-0.31l-2.28-0.15l-4.12-0.25l-3-0.19l-3.86-0.24l-3.26-0.19l-3.72-0.23l-3.39-0.2
		l-3.78-0.21l-1.23-0.07c-7.74,12.29-12.26,26.34-13.13,40.84C1181.66,98.96,1184.46,113.44,1190.67,126.57L1190.67,126.57z"/>
	
		<linearGradient id="SVGID_00000107559000517679170370000003361461727603051182_" gradientUnits="userSpaceOnUse" x1="-560.144" y1="16035.4004" x2="-171.94" y2="15817.583" gradientTransform="matrix(1 0 0 -1 564 16528.0254)">
		<stop  offset="0" style="stop-color:#D600AA"/>
		<stop  offset="1" style="stop-color:#512BD4"/>
	</linearGradient>
	<path style="fill:url(#SVGID_00000107559000517679170370000003361461727603051182_);" d="M124.1,551.7
		c11.36,61.25,16.23,123.54,14.54,185.81c21.63,24.95,50.58,42.45,82.74,49.98c32.15,7.54,65.86,4.73,96.33-8.01
		c30.47-12.74,56.13-34.77,73.35-62.96c17.21-28.18,25.09-61.08,22.52-94c-2.58-32.92-15.48-64.19-36.86-89.35
		c-21.39-25.16-50.17-42.93-82.25-50.78s-65.81-5.37-96.4,7.07C167.47,501.91,141.59,523.69,124.1,551.7L124.1,551.7z"/>
	
		<radialGradient id="SVGID_00000074421829707231214850000016305702912460653228_" cx="4433.7393" cy="8247.7559" r="1" gradientTransform="matrix(287.483 0 0 -398.455 -1274365.25 3286727.75)" gradientUnits="userSpaceOnUse">
		<stop  offset="0" style="stop-color:#F61474"/>
		<stop  offset="1" style="stop-color:#FF85B9"/>
	</radialGradient>
	<path style="fill:url(#SVGID_00000074421829707231214850000016305702912460653228_);" d="M369.21,544.68c92.78,0,168-75.22,168-168
		s-75.22-168-168-168s-168,75.22-168,168S276.43,544.68,369.21,544.68z"/>
	
		<radialGradient id="SVGID_00000076570828837472568810000005144397007246113176_" cx="4468.2754" cy="8276.9248" r="1" gradientTransform="matrix(95.603 -95.603 -132.5069 -132.5069 670108.5625 1524340.125)" gradientUnits="userSpaceOnUse">
		<stop  offset="0" style="stop-color:#F61474"/>
		<stop  offset="1" style="stop-color:#FF85B9"/>
	</radialGradient>
	<path style="fill:url(#SVGID_00000076570828837472568810000005144397007246113176_);" d="M634.68,432.55
		c30.85-30.85,30.85-80.88,0-111.74c-30.86-30.85-80.88-30.85-111.74,0c-30.86,30.86-30.86,80.88,0,111.74
		S603.82,463.41,634.68,432.55z"/>
</g>
</svg>
