<?xml version="1.0" encoding="utf-8"?>
<!-- Generator: Adobe Illustrator 26.0.0, SVG Export Plug-In . SVG Version: 6.00 Build 0)  -->
<svg version="1.1" id="asset" xmlns="http://www.w3.org/2000/svg" xmlns:xlink="http://www.w3.org/1999/xlink" x="0px" y="0px"
	 viewBox="0 0 2000 2000" enable-background="new 0 0 2000 2000" xml:space="preserve">
<g>
	<path fill="#FFAD4D" d="M1806.6,1122v-0.5c-0.1-8.5-0.1-17.1,0-25.7c0-0.5,0-1.1,0-1.6c0-2.3,0.1-4.7,0.1-7.1l0.1-3.2
		c0-2.2,0.1-4.3,0.2-6.5l0.1-3.9c0.1-2,0.1-4.1,0.2-6.1c0.1-2,0.1-4,0.2-5.9c0.7-16.8,1.7-33.6,3.1-50.7
		c12-143.4,50.4-294.9,118.2-447.5c134-301.3-324.6-504.8-867.7-520.1c-708.4-20-904.9,51.5-961,301
		c-62.7,279.2-17.7,470.2,19.2,654.5c5.1,25.3,10,50.5,14.5,75.8c0,0.2,0,0.3,0.1,0.4c0.7,3.8,1.3,7.6,2,11.4
		c0.2,1.1,0.4,2.1,0.6,3.2c0.5,3,1,6,1.5,9c0.2,1.1,0.4,2.2,0.5,3.3c0.6,3.6,1.2,7.1,1.7,10.7c0.1,0.4,0.1,0.8,0.2,1.3
		c0.6,4,1.2,8,1.8,12.1l0.4,2.7c0.4,3.1,0.9,6.2,1.3,9.3c10.7,76.7,15.4,155.7,6,242.9l-0.3,2.4c-0.3,2.3-0.5,4.7-0.8,7
		c-0.1,1.2-0.3,2.5-0.4,3.8c-0.4,3-0.7,5.9-1.1,8.9c-4.3,32.3-10.3,64.4-18,96.1c-95.9,397.1,500.3,495.3,1116.1,455.1
		c551.2-36,682.2-179.3,629.1-452.8c-0.1-0.3-0.1-0.7-0.2-1c-0.3-1.8-0.7-3.5-1.1-5.3c-0.1-0.5-0.2-0.9-0.3-1.4
		c-0.3-1.7-0.7-3.4-1.1-5.1l-0.3-1.6l-1.1-5.1c-0.1-0.5-0.2-1-0.3-1.5c-0.4-1.7-0.8-3.5-1.2-5.2c-0.1-0.4-0.2-0.8-0.3-1.2
		c-1.8-7.7-3.7-15.6-5.8-23.5c-0.2-0.8-0.4-1.7-0.7-2.5l-1.1-4.1l-0.8-3.2l-1-3.8c-0.3-1.2-0.6-2.3-1-3.5l-1-3.7
		c-0.3-1.3-0.7-2.5-1.1-3.8c-0.4-1.3-0.7-2.3-1-3.4c-0.4-1.4-0.8-2.8-1.2-4.2c-0.3-1-0.6-2.1-0.9-3.2c-0.5-1.6-0.9-3.2-1.4-4.8
		l-0.8-2.6c-0.7-2.5-1.5-5-2.3-7.5c-1.1-3.5-2.1-7-3.2-10.6l-1-3.4c-0.7-2.4-1.4-4.9-2.1-7.3c-0.3-1.3-0.7-2.6-1.1-3.9
		c-0.6-2.3-1.3-4.6-1.9-6.9l-1-4c-0.6-2.3-1.2-4.6-1.8-6.9c-17.3-68.5-27.3-141.4-29.5-217.4c-0.1-2.8-0.2-5.7-0.2-8.5
		c0-0.3,0-0.6,0-0.9C1806.7,1127.6,1806.7,1124.8,1806.6,1122z"/>
	
		<linearGradient id="SVGID_1_" gradientUnits="userSpaceOnUse" x1="406.0067" y1="-14734.8701" x2="648.2617" y2="-14140.8701" gradientTransform="matrix(1 0 0 1 564 16222)">
		<stop  offset="0" style="stop-color:#FF7951"/>
		<stop  offset="1" style="stop-color:#FF2078"/>
	</linearGradient>
	<path fill="url(#SVGID_1_)" d="M1874.1,1500.6c-0.3-1.8-0.7-3.5-1.1-5.3c-0.1-0.5-0.2-0.9-0.3-1.4c-0.3-1.7-0.7-3.4-1.1-5.1
		l-0.3-1.6l-1.1-5.1c-0.1-0.5-0.2-1-0.3-1.5c-0.4-1.7-0.8-3.5-1.2-5.2c-0.1-0.4-0.2-0.8-0.3-1.2c-1.8-7.7-3.7-15.6-5.8-23.5
		c-0.2-0.8-0.4-1.7-0.7-2.5l-1.1-4.1l-0.8-3.2l-1-3.8c-0.3-1.2-0.6-2.3-1-3.5c-0.3-1-0.6-2-0.8-3
		c-528.3,13-1340.8,80.1-1737.7,129.6c-23,346.3,542.6,432.4,1125.6,394.4c551.2-36,682.2-179.3,629.1-452.8
		C1874.2,1501.3,1874.2,1500.9,1874.1,1500.6z"/>
	<path fill="#FF476C" d="M1420.7,212c34.6,4.5,75.4,0.4,121.4-12.2c36.5-10.1,76.4-25.5,118.5-46l0.2-0.1c-4.2-1.7-8.4-3.4-12.6-5
		c-64.6,30.6-153.6,63-226.2,53.4c-40.3-5.2-79.5-16.8-116.1-34.5c-28.8-14-55.7-31.8-79.8-52.8c-34-29.6-53.2-57.5-59-66.6
		l-11.8-0.8c-4.5,8.4-23.7,42.1-59.3,76.1c-23.3,22.4-50.1,40.9-79.2,54.9c-36.2,17.1-75.5,26.6-115.4,28
		c-35.3,1.4-72.1-6.6-109.2-23.7c-29.9-13.8-60.2-33.5-90-58.5c-27.8-23.6-53.3-49.7-76.1-78.2c-5.9,0.4-11.8,0.8-17.6,1.2
		c-8.2,40.8-22.5,80.1-42.4,116.7c-20.7,37.8-46.4,69.7-76.4,94.7c-37.5,31.3-81.9,52.1-132,61.8c-49.4,9.6-97.7,11.8-143.7,6.6
		c-34.8-3.8-69-12.2-101.6-24.9c-1,3.2-2,6.4-3,9.6c33.1,12.8,67.8,21.3,103.1,25.2c16.7,1.9,33.6,2.8,50.4,2.8
		c32.5-0.1,64.8-3.3,96.7-9.5c51.8-10,97.7-31.5,136.5-63.9c31-25.9,57.5-58.7,78.8-97.6c20-36.7,34.5-76.1,42.9-117
		c23.3,29.1,49.3,55.9,77.8,80c30.5,25.7,61.5,45.9,92.3,60.1c38.7,17.8,77,26.1,113.9,24.7c42.4-1.7,82.6-11.4,119.6-29.1
		c30.1-14.5,57.8-33.7,81.9-56.9c31.6-30.1,50.3-59.5,58-73c8.1,12.1,26.9,37.5,58.1,64.7c24.9,21.7,52.5,40,82.2,54.5
		C1338.9,194.8,1379.3,206.7,1420.7,212z"/>
	<path fill="#9127B2" d="M211,400.2c19.4,0,35.1-15.7,35.1-35.1s-15.7-35.1-35.1-35.1s-35.1,15.7-35.1,35.1
		C175.9,384.4,191.6,400.2,211,400.2z"/>
	<path fill="#E22287" d="M303,401.8c19.4,0,35.1-15.7,35.1-35.1s-15.7-35.1-35.1-35.1s-35.1,15.7-35.1,35.1
		C267.9,386.1,283.7,401.8,303,401.8z"/>
	<path fill="#FF476C" d="M398,386.3c19.4,0,35.1-15.7,35.1-35.1S417.4,316,398,316s-35.1,15.7-35.1,35.1
		C362.9,370.5,378.6,386.3,398,386.3z"/>
	<path fill="#9127B2" d="M483.7,349c19.4,0,35.1-15.7,35.1-35.1s-15.7-35.1-35.1-35.1s-35.1,15.7-35.1,35.1
		C448.6,333.2,464.4,349,483.7,349z"/>
	<path fill="#E22287" d="M553.5,288.3c19.4,0,35.1-15.7,35.1-35.1s-15.7-35.1-35.1-35.1s-35.1,15.7-35.1,35.1
		C518.4,272.6,534.1,288.3,553.5,288.3z"/>
	<path fill="#FF476C" d="M608.4,208.9c19.4,0,35.1-15.7,35.1-35.1s-15.7-35.1-35.1-35.1s-35.1,15.7-35.1,35.1
		C573.3,193.1,589,208.9,608.4,208.9z"/>
	<path fill="#9127B2" d="M703.6,208.9c19.4,0,35.1-15.7,35.1-35.1s-15.7-35.1-35.1-35.1s-35.1,15.7-35.1,35.1
		C668.5,193.1,684.2,208.9,703.6,208.9z"/>
	<path fill="#E22287" d="M787.7,256.6c19.4,0,35.1-15.7,35.1-35.1s-15.7-35.1-35.1-35.1s-35.1,15.7-35.1,35.1
		C752.6,240.9,768.3,256.6,787.7,256.6z"/>
	<path fill="#FF476C" d="M879.3,282.2c19.4,0,35.1-15.7,35.1-35.1s-15.7-35.1-35.1-35.1s-35.1,15.7-35.1,35.1
		C844.2,266.4,859.9,282.2,879.3,282.2z"/>
	<path fill="#9127B2" d="M976.4,270.6c19.4,0,35.1-15.7,35.1-35.1s-15.7-35.1-35.1-35.1s-35.1,15.7-35.1,35.1
		C941.2,254.9,957,270.6,976.4,270.6z"/>
	<path fill="#E22287" d="M1066.4,228c19.4,0,35.1-15.7,35.1-35.1s-15.7-35.1-35.1-35.1s-35.1,15.7-35.1,35.1
		C1031.3,212.3,1047,228,1066.4,228z"/>
	<path fill="#FF476C" d="M1140.8,164.7c19.4,0,35.1-15.7,35.1-35.1s-15.7-35.1-35.1-35.1s-35.1,15.7-35.1,35.1
		C1105.6,149,1121.3,164.7,1140.8,164.7z"/>
	<path fill="#9127B2" d="M1220.8,197.6c19.4,0,35.1-15.7,35.1-35.1s-15.7-35.1-35.1-35.1s-35.1,15.7-35.1,35.1
		C1185.7,181.9,1201.4,197.6,1220.8,197.6z"/>
	<path fill="#E22287" d="M1307.4,245.4c19.4,0,35.1-15.7,35.1-35.1s-15.7-35.1-35.1-35.1s-35.1,15.7-35.1,35.1
		C1272.3,229.7,1288,245.4,1307.4,245.4z"/>
	<path fill="#FF476C" d="M1406.8,273.2c19.4,0,35.1-15.7,35.1-35.1s-15.7-35.1-35.1-35.1s-35.1,15.7-35.1,35.1
		C1371.7,257.5,1387.4,273.2,1406.8,273.2z"/>
	<path fill="#9127B2" d="M1510.4,270.6c19.4,0,35.1-15.7,35.1-35.1s-15.7-35.1-35.1-35.1s-35.1,15.7-35.1,35.1
		C1475.2,254.9,1491,270.6,1510.4,270.6z"/>
	<path fill="#E22287" d="M1606.1,244c19.4,0,35.1-15.7,35.1-35.1s-15.7-35.1-35.1-35.1s-35.1,15.7-35.1,35.1
		C1570.9,228.2,1586.7,244,1606.1,244z"/>
	<path fill="#FF476C" d="M1690.8,203.6c7,0,13.8-2.1,19.6-5.9c5.8-3.9,10.3-9.4,12.9-15.8c-20.3-10.1-41.6-19.7-64-28.8
		c-2.6,5.4-3.8,11.3-3.5,17.2c0.3,5.9,2.1,11.7,5.3,16.8c3.2,5.1,7.6,9.2,12.8,12.1S1684.9,203.7,1690.8,203.6L1690.8,203.6
		L1690.8,203.6z"/>
	<path fill="#FF476C" d="M118.1,379.8c5,0,9.9-1,14.4-3.1s8.6-5,11.9-8.8c3.3-3.7,5.8-8.1,7.2-12.9c1.5-4.8,1.9-9.8,1.3-14.7
		c-0.6-4.9-2.2-9.7-4.8-13.9s-6-7.9-10.1-10.7s-8.8-4.7-13.6-5.6c-4.9-0.9-9.9-0.7-14.8,0.5c-3.2,10.7-6.1,21.8-8.6,33.2
		c-2.1,9.2-4,18.4-5.9,27.4C101.5,376.8,109.7,379.9,118.1,379.8z"/>
</g>
</svg>
