<?xml version="1.0" encoding="utf-8"?>
<!-- Generator: Adobe Illustrator 24.3.0, SVG Export Plug-In . SVG Version: 6.00 Build 0)  -->
<svg version="1.1" xmlns="http://www.w3.org/2000/svg" xmlns:xlink="http://www.w3.org/1999/xlink" x="0px" y="0px"
	 viewBox="0 0 2000 2000" enable-background="new 0 0 2000 2000" xml:space="preserve">
<g id="ghost-image" display="none">
	<g display="inline" opacity="0.5">
		<path fill="#8A6FE8" d="M1469.02,1134.64c-57.66-4.68-181.26-73.79-228.06-150.36c-28.4-46.51,24.83-83.62,53.75-36.22
			c31.36,51.3,134.81,115.23,179.86,118.94L1469.02,1134.64z"/>
		<path fill="#8A6FE8" d="M1525.01,1005.66l-88.68,33.66c-15.81,6.01-23.74,23.69-17.79,39.47c6.01,15.81,23.68,23.74,39.47,17.79
			l88.68-33.66c15.81-6.01,23.74-23.69,17.79-39.47C1558.56,1007.59,1540.82,999.63,1525.01,1005.66z"/>
		<path fill="#8A6FE8" d="M1416.45,1155.13l37.83,51.37c10.17,13.62,29.44,16.44,43.06,6.26c13.63-10.17,16.44-29.43,6.27-43.06
			l-38.78-52.71L1416.45,1155.13z"/>
		<path fill="#8A6FE8" d="M1450.74,1158.21l76.78,42.91c14.86,8.25,33.6,2.87,41.85-12.01c8.25-14.83,2.87-33.6-12.01-41.85
			l-57-32.1L1450.74,1158.21z"/>
		<path fill="#8A6FE8" d="M1460.34,1121.85l84.59,24.43c16.33,4.74,33.4-4.69,38.15-20.98c4.74-16.33-4.69-33.4-20.98-38.15
			l-86.18-24.89L1460.34,1121.85z"/>
		
			<radialGradient id="SVGID_1_" cx="-359.4077" cy="6670.0747" r="6.0502" gradientTransform="matrix(10.6515 0 0 -10.6515 5279.8022 72150.0391)" gradientUnits="userSpaceOnUse">
			<stop  offset="0" style="stop-color:#8065E0"/>
			<stop  offset="1" style="stop-color:#512BD4"/>
		</radialGradient>
		<path fill="url(#SVGID_1_)" d="M1451.57,1168.18c35.59,0,64.45-28.85,64.45-64.44c0-35.59-28.86-64.44-64.45-64.44
			c-35.58,0-64.44,28.85-64.44,64.44C1387.13,1139.33,1415.99,1168.18,1451.57,1168.18z"/>
		
			<linearGradient id="SVGID_2_" gradientUnits="userSpaceOnUse" x1="432.5041" y1="10108.8672" x2="492.2814" y2="9824.1582" gradientTransform="matrix(1 0 0 -1 694 11204.6914)">
			<stop  offset="0" style="stop-color:#522CD5"/>
			<stop  offset="0.4397" style="stop-color:#8A6FE8"/>
		</linearGradient>
		<path fill="url(#SVGID_2_)" d="M1216.5,1374.16c0.66-59.76-7.85-181.06-69.53-282.64l-60.31,36.62
			c55.97,92.13,60.17,199.66,58.87,246.57C1145.39,1378.59,1181.58,1382.1,1216.5,1374.16z"/>
		<path fill="#522CD5" d="M1145.53,1374.05l55.85-0.26l52.14,298.71l-112.1,0.52c-8.54,0.03-15.01-6.84-14.43-15.38L1145.53,1374.05
			z"/>
		
			<linearGradient id="SVGID_3_" gradientUnits="userSpaceOnUse" x1="468.5244" y1="9832.6982" x2="646.1333" y2="9516.0449" gradientTransform="matrix(1 0 0 -1 694 11204.6914)">
			<stop  offset="0" style="stop-color:#522CD5"/>
			<stop  offset="0.4397" style="stop-color:#8A6FE8"/>
		</linearGradient>
		<path fill="url(#SVGID_3_)" d="M1373.04,1593.94c9.68,7.65,9.52,18.71,8.77,30.39l-2.33,35.78c-0.43,6.41-6.01,11.68-12.41,11.7
			l-116.82,0.52c-7.28,0.03-12.76-5.84-12.27-13.08l0.77-37.08c0.89-13.48-3.65-18.43-14.08-31.13
			c-17.88-21.7-70.74-139.98-65.71-217.05l57.52-0.26C1220.29,1419.47,1280.66,1521.05,1373.04,1593.94z"/>
		
			<radialGradient id="SVGID_4_" cx="-410.1736" cy="6475.6992" r="6.0492" gradientTransform="matrix(20.3477 -0.0926 -0.0926 -20.3477 10250.0137 133269.7344)" gradientUnits="userSpaceOnUse">
			<stop  offset="0.034" style="stop-color:#522CD5"/>
			<stop  offset="0.9955" style="stop-color:#8A6FE8"/>
		</radialGradient>
		<path fill="url(#SVGID_4_)" d="M1381.81,1624.33c0.55-8.17,0.69-15.98-2.5-22.59l-145.71,0.66c4.03,5.92,5.72,11.09,5.18,19.74
			l-0.78,37.08c-0.48,7.27,5.03,13.14,12.27,13.08l116.82-0.51c6.41-0.03,11.99-5.29,12.42-11.7L1381.81,1624.33z"/>
		
			<linearGradient id="SVGID_5_" gradientUnits="userSpaceOnUse" x1="103.6272" y1="10113.2305" x2="172.3586" y2="9789.8721" gradientTransform="matrix(1 0 0 -1 694 11204.6914)">
			<stop  offset="0" style="stop-color:#522CD5"/>
			<stop  offset="0.4397" style="stop-color:#8A6FE8"/>
		</linearGradient>
		<path fill="url(#SVGID_5_)" d="M847.6,1418.81l-71.31-8.88l40.1-322.45l71.32,8.85L847.6,1418.81z"/>
		<path fill="#522CD5" d="M781.46,1371.7l56.51-0.26l15.64,302.04L740.18,1674c-8.62,0.03-14.31-6.93-12.68-15.55L781.46,1371.7z"/>
		
			<linearGradient id="SVGID_6_" gradientUnits="userSpaceOnUse" x1="48.8044" y1="9805.6963" x2="202.8481" y2="9512.1631" gradientTransform="matrix(1 0 0 -1 694 11204.6914)">
			<stop  offset="0" style="stop-color:#522CD5"/>
			<stop  offset="0.4397" style="stop-color:#8A6FE8"/>
		</linearGradient>
		<path fill="url(#SVGID_6_)" d="M945.67,1595.09c8.71,7.88,8.51,18,6.27,29.81l-6.81,36.19c-1.21,6.47-7.53,11.78-14,11.81
			l-162.21,0.75c-7.36,0.02-12.19-5.89-10.81-13.25l5.78-37.51c2.56-13.62,0.57-17.65,0.83-35.13
			c0.49-32.76,15.61-138.25,30.27-216.16l58.21-0.25C851.42,1417.63,871.48,1527.86,945.67,1595.09z"/>
		
			<radialGradient id="SVGID_7_" cx="-430.4449" cy="6461.7227" r="6.0492" gradientTransform="matrix(22.145 -0.1007 -0.1006 -22.1216 11045.2354 144442.0781)" gradientUnits="userSpaceOnUse">
			<stop  offset="0.034" style="stop-color:#522CD5"/>
			<stop  offset="0.9955" style="stop-color:#8A6FE8"/>
		</radialGradient>
		<path fill="url(#SVGID_7_)" d="M763.92,1622.92l-5.78,37.51c-1.38,7.33,3.45,13.28,10.81,13.25l162.2-0.74
			c6.5-0.03,12.79-5.35,14-11.81l6.81-36.19c1.61-8.57,2.1-16.24-1.03-22.82l-185.86,0.83
			C765.36,1609.61,765.53,1614.39,763.92,1622.92z"/>
		<path fill="#8A6FE8" d="M803.96,455.82l-67.46,27.13l-18.37-73.07l48.43-19.49L803.96,455.82z"/>
		<path fill="#512BD4" d="M788.84,581.95c38.16,0,69.1-30.94,69.1-69.1c0-38.16-30.94-69.1-69.1-69.1s-69.1,30.94-69.1,69.1
			C719.74,551.01,750.68,581.95,788.84,581.95z"/>
		
			<radialGradient id="SVGID_8_" cx="-444.3846" cy="6368.438" r="6.0492" gradientTransform="matrix(61.9498 0 0 -61.9498 28545.2324 395291.5938)" gradientUnits="userSpaceOnUse">
			<stop  offset="0.4744" style="stop-color:#A08BE8"/>
			<stop  offset="0.8618" style="stop-color:#8065E0"/>
		</radialGradient>
		<path fill="url(#SVGID_8_)" d="M1300.17,939.67c24.86-95.46,8.83-171.66,8.83-171.66h22.45l0.54-0.43
			c-32.16-175.17-185.6-307.91-370.05-307.91c-207.82,0-376.29,168.47-376.29,376.29c0,207.82,168.44,376.29,376.29,376.29
			c163.98,0,303.45-104.92,354.99-251.25C1318.43,954.79,1318.29,943.64,1300.17,939.67z"/>
		<path fill="#D8CFF7" d="M1286.38,1026.53h-648.9c14.57,24.75,31.88,47.66,51.54,68.36h545.85
			C1254.5,1074.17,1271.8,1051.28,1286.38,1026.53z"/>
		
			<radialGradient id="SVGID_9_" cx="-437.6477" cy="6388.9546" r="6.0492" gradientTransform="matrix(48.2581 0 0 -48.2581 22352.1484 309017.6875)" gradientUnits="userSpaceOnUse">
			<stop  offset="0.0933" style="stop-color:#E1DFDD"/>
			<stop  offset="0.8998" style="stop-color:#FFFFFF"/>
		</radialGradient>
		<path fill="url(#SVGID_9_)" d="M1300.17,939.67c24.55-94.28,9.22-169.73,8.86-171.57H918.6c0,0-24.61-2.5-24.61,19.98
			c0,22.48,0.93,85.94,0.93,156.17c0,14.43,11.81,21.38,21.12,21.38C916.07,965.59,1256.6,965.57,1300.17,939.67z"/>
		<path fill="#A08BE8" d="M1065.02,939.87c0,0,60.05-47.51,71.75-56.31c11.72-8.8,21.96-9.29,32.71,0
			c10.75,9.29,70.85,56.31,70.85,56.31H1065.02z"/>
		<path fill="#512BD4" d="M1315.41,965.33c0,0,10.43-20.06-15.24-25.67c0.03-0.08-383.82-0.28-383.82-0.28
			c-8.93,0-20.43-5.32-21.41-14c0,6.21,0.03,12.47,0.03,18.83c0,13.11,9.75,20.03,18.48,21.18c0.86,0.11,1.75,0.2,2.65,0.2h26.24
			L1315.41,965.33z"/>
		<path fill="#512BD4" d="M1286.53,851.61c0.41-27.33-12.44-49.69-28.69-49.93c-16.25-0.24-29.76,21.72-30.17,49.05
			c-0.41,27.34,12.44,49.69,28.69,49.93C1272.61,900.9,1286.12,878.95,1286.53,851.61z"/>
		<path fill="#8065E0" d="M1256.74,825.01c-10.75,10.75-10.75,28.17,0,38.92c7.36,7.36,17.85,9.69,27.19,6.96
			c1.58-5.89,2.5-12.42,2.62-19.26c0.2-13.39-2.79-25.58-7.82-34.58C1270.88,816.36,1262.75,819,1256.74,825.01z"/>
		<path fill="#512BD4" d="M1020.8,900.92c16.25-0.24,29.1-22.6,28.69-49.93c-0.41-27.33-13.91-49.3-30.17-49.05
			c-16.25,0.24-29.1,22.6-28.69,49.93C991.04,879.19,1004.54,901.16,1020.8,900.92z"/>
		<path fill="#8065E0" d="M1019.83,826.62c-10.75,10.75-10.75,28.17,0,38.92c7.33,7.33,17.74,9.63,27.02,6.98
			c1.78-6.55,2.76-13.85,2.64-21.59c-0.17-12.42-3.07-23.69-7.7-32.28C1033.95,817.97,1025.84,820.61,1019.83,826.62z"/>
		<path fill="#512BD4" d="M1084.82,1115.23l123.17-0.56l-0.5-108.94l-123.17,0.56L1084.82,1115.23z"/>
		<path fill="#FFFFFF" d="M1106.12,1074.51c-0.83,0-1.52-0.26-2.1-0.8c-0.57-0.55-0.86-1.24-0.86-1.98c0-0.77,0.28-1.47,0.86-2.01
			c0.57-0.57,1.26-0.83,2.1-0.83c0.83,0,1.52,0.29,2.1,0.83c0.57,0.54,0.89,1.24,0.89,2.01c0,0.77-0.28,1.43-0.86,1.98
			C1107.68,1074.22,1106.96,1074.51,1106.12,1074.51z"/>
		<path fill="#FFFFFF" d="M1138.89,1073.97h-5.32l-14.08-22.11c-0.34-0.54-0.67-1.15-0.9-1.75h-0.11c0.11,0.63,0.18,2.01,0.18,4.14
			l0.03,19.74h-4.72l-0.05-30.12h5.66l13.6,21.59c0.57,0.89,0.94,1.52,1.12,1.84h0.08c-0.15-0.8-0.2-2.15-0.2-4.05l-0.03-19.4h4.69
			L1138.89,1073.97z"/>
		<path fill="#FFFFFF" d="M1161.83,1073.94l-16.5,0.03l-0.06-30.12l15.84-0.03v4.25l-10.95,0.03l0.03,8.54l10.09-0.03v4.23
			l-10.09,0.03l0.02,8.91l11.61-0.03V1073.94z"/>
		<path fill="#FFFFFF" d="M1185.2,1048.01l-8.45,0.02l0.06,25.87h-4.89l-0.06-25.87l-8.42,0.03v-4.25l21.73-0.06L1185.2,1048.01z"/>
		<path fill="#8A6FE8" d="M529.43,1254.19l40.18,57.34c10.81,15.24,31.93,18.74,47.17,7.94c15.23-10.81,18.74-31.93,7.93-47.14
			l-49.73-69.3L529.43,1254.19z"/>
		<path fill="#8A6FE8" d="M460.13,1232.49L449,1301.65c-2.82,18.43,9.8,35.7,28.28,38.52c18.43,2.82,35.7-9.8,38.52-28.29
			l11.38-70.88L460.13,1232.49z"/>
		<path fill="#8A6FE8" d="M504.99,1240.3l-9.34,69.42c-2.36,18.48,10.75,35.44,29.23,37.8c18.48,2.36,35.44-10.75,37.83-29.23
			l9.6-71.2L504.99,1240.3z"/>
		<path fill="#8A6FE8" d="M442.74,1211.82l-25.09,65.39c-6.58,17.48,2.3,36.99,19.78,43.52c17.48,6.58,36.99-2.3,43.52-19.77
			l25.73-67.06L442.74,1211.82z"/>
		
			<linearGradient id="SVGID_10_" gradientUnits="userSpaceOnUse" x1="-100.864" y1="10345.1621" x2="-100.864" y2="9964.2686" gradientTransform="matrix(1 0 0 -1 694 11204.6914)">
			<stop  offset="0.2495" style="stop-color:#967FE6"/>
			<stop  offset="1" style="stop-color:#8A6FE8"/>
		</linearGradient>
		<path fill="url(#SVGID_10_)" d="M489.3,1240.42c-27.91-57-44.21-154.45,1.78-241.6c27.97-52.92,89.19-120.03,222.28-139.29
			l10.69,73.79c-80.8,11.7-138.52,46.39-167,100.32c-30.84,58.41-22.59,129.43-0.78,174.04L489.3,1240.42z"/>
		
			<radialGradient id="SVGID_11_" cx="-418.0157" cy="6663.5776" r="6.0492" gradientTransform="matrix(11.3989 0 0 -11.3989 5501.6543 76818.8594)" gradientUnits="userSpaceOnUse">
			<stop  offset="0" style="stop-color:#8065E0"/>
			<stop  offset="1" style="stop-color:#512BD4"/>
		</radialGradient>
		<path fill="url(#SVGID_11_)" d="M738.97,954.1c38.06,0,68.9-30.84,68.9-68.9c0-38.06-30.84-68.9-68.9-68.9
			c-38.06,0-68.9,30.84-68.9,68.9C670.07,923.23,700.92,954.1,738.97,954.1z"/>
		
			<radialGradient id="SVGID_12_" cx="-444.9353" cy="6471.7744" r="6.0492" gradientTransform="matrix(22.7292 0 0 -22.7292 10617.8955 148252)" gradientUnits="userSpaceOnUse">
			<stop  offset="0" style="stop-color:#8065E0"/>
			<stop  offset="1" style="stop-color:#512BD4"/>
		</radialGradient>
		<path fill="url(#SVGID_12_)" d="M508.62,1277.33c39.09,0,70.77-31.68,70.77-70.77c0-39.09-31.68-70.77-70.77-70.77
			c-39.09,0-70.77,31.68-70.77,70.77C437.85,1245.65,469.55,1277.33,508.62,1277.33z"/>
		<path fill="#D8CFF7" d="M739.68,415.8c-26.24,6.99-53.32-8.39-60.54-34.41c-7.19-26.01,8.22-52.72,34.46-59.7
			c26.24-6.98,53.32,8.39,60.54,34.41C781.36,382.11,765.95,408.78,739.68,415.8z"/>
	</g>
</g>
<g id="bot-base" display="none">
	<g display="inline">
		
			<radialGradient id="SVGID_13_" cx="-444.3846" cy="6368.438" r="6.0492" gradientTransform="matrix(61.9498 0 0 -61.9498 28545.2324 395291.5938)" gradientUnits="userSpaceOnUse">
			<stop  offset="0.4744" style="stop-color:#A08BE8"/>
			<stop  offset="0.8618" style="stop-color:#8065E0"/>
		</radialGradient>
		<path fill="url(#SVGID_13_)" d="M1300.17,939.67c24.86-95.46,8.83-171.66,8.83-171.66h22.45l0.54-0.43
			c-32.16-175.17-185.6-307.91-370.05-307.91c-207.82,0-376.29,168.47-376.29,376.29c0,207.82,168.44,376.29,376.29,376.29
			c163.98,0,303.45-104.92,354.99-251.25C1318.43,954.79,1318.29,943.64,1300.17,939.67z"/>
		<path fill="#D8CFF7" d="M1286.38,1026.53h-648.9c14.57,24.75,31.88,47.66,51.54,68.36h545.85
			C1254.5,1074.17,1271.8,1051.28,1286.38,1026.53z"/>
		
			<radialGradient id="SVGID_14_" cx="-437.6477" cy="6388.9546" r="6.0492" gradientTransform="matrix(48.2581 0 0 -48.2581 22352.1484 309017.6875)" gradientUnits="userSpaceOnUse">
			<stop  offset="0.0933" style="stop-color:#E1DFDD"/>
			<stop  offset="0.8998" style="stop-color:#FFFFFF"/>
		</radialGradient>
		<path fill="url(#SVGID_14_)" d="M1300.17,939.67c24.55-94.28,9.22-169.73,8.86-171.57H918.6c0,0-24.61-2.5-24.61,19.98
			c0,22.48,0.93,85.94,0.93,156.17c0,14.43,11.81,21.38,21.12,21.38C916.07,965.59,1256.6,965.57,1300.17,939.67z"/>
		<path fill="#A08BE8" d="M1065.02,939.87c0,0,60.05-47.51,71.75-56.31c11.72-8.8,21.96-9.29,32.71,0
			c10.75,9.29,70.85,56.31,70.85,56.31H1065.02z"/>
		<path fill="#512BD4" d="M1315.41,965.33c0,0,10.43-20.06-15.24-25.67c0.03-0.08-383.82-0.28-383.82-0.28
			c-8.93,0-20.43-5.32-21.41-14c0,6.21,0.03,12.47,0.03,18.83c0,13.11,9.75,20.03,18.48,21.18c0.86,0.11,1.75,0.2,2.65,0.2h26.24
			L1315.41,965.33z"/>
		<path fill="#512BD4" d="M1084.82,1115.23l123.17-0.56l-0.5-108.94l-123.17,0.56L1084.82,1115.23z"/>
		<path fill="#FFFFFF" d="M1106.12,1074.51c-0.83,0-1.52-0.26-2.1-0.8c-0.57-0.55-0.86-1.24-0.86-1.98c0-0.77,0.28-1.47,0.86-2.01
			c0.57-0.57,1.26-0.83,2.1-0.83c0.83,0,1.52,0.29,2.1,0.83c0.57,0.54,0.89,1.24,0.89,2.01c0,0.77-0.28,1.43-0.86,1.98
			C1107.68,1074.22,1106.96,1074.51,1106.12,1074.51z"/>
		<path fill="#FFFFFF" d="M1138.89,1073.97h-5.32l-14.08-22.11c-0.34-0.54-0.67-1.15-0.9-1.75h-0.11c0.11,0.63,0.18,2.01,0.18,4.14
			l0.03,19.74h-4.72l-0.05-30.12h5.66l13.6,21.59c0.57,0.89,0.94,1.52,1.12,1.84h0.08c-0.15-0.8-0.2-2.15-0.2-4.05l-0.03-19.4h4.69
			L1138.89,1073.97z"/>
		<path fill="#FFFFFF" d="M1161.83,1073.94l-16.5,0.03l-0.06-30.12l15.84-0.03v4.25l-10.95,0.03l0.03,8.54l10.09-0.03v4.23
			l-10.09,0.03l0.02,8.91l11.61-0.03V1073.94z"/>
		<path fill="#FFFFFF" d="M1185.2,1048.01l-8.45,0.02l0.06,25.87h-4.89l-0.06-25.87l-8.42,0.03v-4.25l21.73-0.06L1185.2,1048.01z"/>
	</g>
</g>
<g id="asset">
	<g>
		<linearGradient id="SVGID_15_" gradientUnits="userSpaceOnUse" x1="995.5574" y1="32.8464" x2="995.5574" y2="1954.1531">
			<stop  offset="0.2292" style="stop-color:#33D5F9"/>
			<stop  offset="0.6349" style="stop-color:#29C3E5"/>
		</linearGradient>
		<path fill="url(#SVGID_15_)" d="M1045.87,1952.22c-797.66,13.11-902.18-35.69-960.96-300.98
			C-29.12,1136.6,216.77,922.16,113.9,496.3C17.99,99.21,614.25,0.97,1229.98,41.16s707.14,214.33,603.25,554.13
			c-72.93,238.55-53.58,535.58,80.37,836.86S1589.12,1943.29,1045.87,1952.22z"/>
		<path fill="#27BEE0" d="M1229.98,41.16C614.25,0.97,17.99,99.21,113.9,496.3c1.25,5.17,2.43,10.31,3.58,15.42
			C428.21,338.85,551,343.32,414.81,441.55c-118.92,85.78-17.9,84.67,55.81,66.98c111.63-26.79,140.65,8.93,91.53,37.95
			c-82.85,48.96-52.19,88.25,51.35,55.81c370.6-116.09,945.93-25.57,1184.37,165.72c0,0,0.01,0.01,0.01,0.01
			c6.75-60.21,18.61-118.01,35.33-172.73C1937.11,255.48,1845.7,81.34,1229.98,41.16z"/>
		<path fill="#8EE8FC" d="M1643.88,485.82c-5.36,15.82-15.29,29.5-28.34,39.42c-2.32,1.7-2.41,4.92-0.27,6.79
			c12.96,11.35,22.88,26.01,28.43,42.73c1.43,4.2,7.06,4.2,8.49,0c5.63-16.72,15.55-31.38,28.43-42.73c2.15-1.88,2.06-5.1-0.27-6.79
			c-13.05-9.92-22.97-23.6-28.34-39.42C1650.76,481.88,1645.22,481.88,1643.88,485.82z"/>
		<circle fill="#8EE8FC" cx="417.05" cy="242.85" r="17.29"/>
		<circle fill="#8EE8FC" cx="1176.12" cy="135.69" r="24.21"/>
		<g>
			<path fill="#33D5F9" d="M1474.2,234.73c-114.25-39.33-213.07-53.18-220.73-30.93c-7.66,22.24,78.75,72.16,193,111.48
				c114.25,39.33,213.07,53.18,220.73,30.93C1674.86,323.96,1588.45,274.05,1474.2,234.73z M1448.33,309.9
				c-103.45-35.61-181.94-80.1-175.3-99.38c6.63-19.28,95.88-6.03,199.33,29.58c103.45,35.61,181.94,80.1,175.3,99.38
				C1641.02,358.75,1551.78,345.51,1448.33,309.9z"/>
			<path fill="#33D5F9" d="M1474.2,234.73c-114.25-39.33-213.07-53.18-220.73-30.93c-7.66,22.24,78.75,72.16,193,111.48
				c114.25,39.33,213.07,53.18,220.73,30.93C1674.86,323.96,1588.45,274.05,1474.2,234.73z M1448.33,309.9
				c-103.45-35.61-181.94-80.1-175.3-99.38c6.63-19.28,95.88-6.03,199.33,29.58c103.45,35.61,181.94,80.1,175.3,99.38
				C1641.02,358.75,1551.78,345.51,1448.33,309.9z"/>
			<radialGradient id="SVGID_16_" cx="1479.6915" cy="233.3035" r="154.3496" gradientUnits="userSpaceOnUse">
				<stop  offset="0" style="stop-color:#33D5F9"/>
				<stop  offset="1" style="stop-color:#2CC7EA"/>
			</radialGradient>
			<circle fill="url(#SVGID_16_)" cx="1465.24" cy="265.19" r="105.57"/>
			<path fill="#33D5F9" d="M1572.74,274.29l-3.14,5.19c50.86,24.4,75.73,43.55,71.43,56.05c-6.63,19.27-82.74,2.24-186.19-33.37
				c-103.45-35.61-178.49-69.73-171.86-89c4.35-12.63,34.24-13.93,90.3-1.48l2.3-5.64c-67.68-15.73-116.8-17.66-122.11-2.24
				c-7.66,22.24,78.75,72.16,193,111.48c114.25,39.33,213.07,53.18,220.73,30.93C1672.42,331.05,1633.93,303.04,1572.74,274.29z"/>
		</g>
		<g>
			<path fill="#8EE8FC" d="M316.4,646.4c0-0.12,0.28-12.07-5.46-23.96c-7.55-15.62-21.55-23.87-41.63-24.49
				c-1.49-0.05-2.67-1.25-2.62-2.7s1.29-2.58,2.79-2.53c47.9,1.5,49.96-43.5,50.03-45.42c0.05-1.41,1.25-2.53,2.71-2.53
				c1.46,0,2.66,1.13,2.7,2.54c0,0.12,0.45,12.13,6.57,24.08c8.03,15.68,21.66,23.94,40.52,24.53c1.5,0.05,2.67,1.25,2.62,2.7
				c-0.05,1.45-1.29,2.58-2.79,2.53c-18.15-0.57-32.06,6.83-41.34,22c-7.07,11.56-8.69,23.54-8.71,23.65
				c-0.18,1.39-1.45,2.39-2.89,2.28C317.45,648.98,316.35,647.8,316.4,646.4z"/>
			<g>
				
					<ellipse transform="matrix(0.0313 -0.9995 0.9995 0.0313 -284.4089 804.0398)" fill="#8EE8FC" cx="272.59" cy="548.74" rx="4.24" ry="4.39"/>
				
					<ellipse transform="matrix(0.0313 -0.9995 0.9995 0.0313 -285.0477 825.4333)" fill="#8EE8FC" cx="283.31" cy="559.77" rx="4.24" ry="4.39"/>
				
					<ellipse transform="matrix(0.0313 -0.9995 0.9995 0.0313 -285.6864 846.8268)" fill="#8EE8FC" cx="294.02" cy="570.8" rx="4.24" ry="4.39"/>
			</g>
			<g>
				
					<ellipse transform="matrix(0.0313 -0.9995 0.9995 0.0313 -288.769 950.0708)" fill="#8EE8FC" cx="345.75" cy="624.01" rx="4.24" ry="4.39"/>
				
					<ellipse transform="matrix(0.0313 -0.9995 0.9995 0.0313 -289.4078 971.4644)" fill="#8EE8FC" cx="356.46" cy="635.03" rx="4.24" ry="4.39"/>
				
					<ellipse transform="matrix(0.0313 -0.9995 0.9995 0.0313 -290.0466 992.8579)" fill="#8EE8FC" cx="367.18" cy="646.06" rx="4.24" ry="4.39"/>
			</g>
			<g>
				
					<ellipse transform="matrix(0.0313 -0.9995 0.9995 0.0313 -192.9699 904.4877)" fill="#8EE8FC" cx="370.13" cy="551.79" rx="4.24" ry="4.39"/>
				
					<ellipse transform="matrix(0.0313 -0.9995 0.9995 0.0313 -214.3291 903.1193)" fill="#8EE8FC" cx="358.74" cy="562.13" rx="4.24" ry="4.39"/>
				
					<ellipse transform="matrix(0.0313 -0.9995 0.9995 0.0313 -235.6884 901.7509)" fill="#8EE8FC" cx="347.36" cy="572.46" rx="4.24" ry="4.39"/>
			</g>
			<g>
				
					<ellipse transform="matrix(0.0313 -0.9995 0.9995 0.0313 -338.7671 895.1469)" fill="#8EE8FC" cx="292.41" cy="622.34" rx="4.24" ry="4.39"/>
				
					<ellipse transform="matrix(0.0313 -0.9995 0.9995 0.0313 -360.1263 893.7784)" fill="#8EE8FC" cx="281.03" cy="632.67" rx="4.24" ry="4.39"/>
				
					<ellipse transform="matrix(0.0313 -0.9995 0.9995 0.0313 -381.4856 892.4099)" fill="#8EE8FC" cx="269.64" cy="643.01" rx="4.24" ry="4.39"/>
			</g>
		</g>
		<path fill="#77E3FB" d="M64.04,1532.74c4.88,37.74,11.71,77.15,20.87,118.5c58.78,265.29,163.3,314.1,960.96,300.98
			c514.86-8.46,953.52-197.41,883.92-473.61c-269.28-76.75-553.59-117.84-847.49-117.84C725.5,1360.77,382.84,1421.34,64.04,1532.74
			z"/>
		<g>
			<ellipse fill="#2CC7EA" cx="1086.66" cy="1457.25" rx="183.71" ry="29.05"/>
			<path fill="#1BA6C5" d="M1086.66,1428.2c-101.46,0-183.71,13.01-183.71,29.05c0,5.16,8.52,10.01,23.44,14.21
				c32.04-8.51,90.77-14.21,157.93-14.21c68.83,0,128.8,5.99,160.27,14.85c16.37-4.34,25.78-9.42,25.78-14.85
				C1270.37,1441.21,1188.12,1428.2,1086.66,1428.2z"/>
		</g>
		<g>
			
				<ellipse transform="matrix(0.0943 -0.9955 0.9955 0.0943 -37.3048 2859.293)" fill="#2CC7EA" cx="1552.78" cy="1450.15" rx="26.51" ry="143.8"/>
			<path fill="#1BA6C5" d="M1555.28,1423.76c-79.07-7.49-144.28-1.74-145.66,12.83c-0.44,4.69,5.78,9.72,17.05,14.63
				c25.7-5.36,71.96-6.21,124.3-1.25c53.63,5.08,99.86,14.94,123.62,25.31c13.13-2.74,20.9-6.66,21.36-11.58
				C1697.32,1449.13,1634.34,1431.25,1555.28,1423.76z"/>
		</g>
		<g>
			
				<ellipse transform="matrix(0.1361 -0.9907 0.9907 0.1361 -121.2121 3080.3247)" fill="#2CC7EA" cx="1705.54" cy="1609.66" rx="23.66" ry="109.1"/>
			<path fill="#1BA6C5" d="M1708.76,1586.22c-59.69-8.2-109.52-4.35-111.3,8.59c-0.57,4.16,3.9,8.76,12.22,13.36
				c19.79-4.27,54.98-4.13,94.49,1.3c40.49,5.56,75.11,15.24,92.65,24.93c10.11-2.18,16.21-5.52,16.81-9.89
				C1815.4,1611.56,1768.46,1594.42,1708.76,1586.22z"/>
		</g>
		<g>
			
				<ellipse transform="matrix(0.9947 -0.1026 0.1026 0.9947 -143.8454 81.9187)" fill="#2CC7EA" cx="724.05" cy="1438.66" rx="112.17" ry="15.64"/>
			<path fill="#1BA6C5" d="M722.45,1423.1c61.62-6.36,112.3-4.55,113.18,4.05c0.29,2.76-4.62,5.89-13.45,9.08
				c-19.93-2.55-55.92-1.92-96.71,2.29c-41.8,4.31-77.9,11.28-96.52,18c-10.18-1.3-16.18-3.43-16.48-6.34
				C611.59,1441.58,660.83,1429.46,722.45,1423.1z"/>
		</g>
		<g>
			
				<ellipse transform="matrix(0.9674 -0.2533 0.2533 0.9674 -402.3927 119.4938)" fill="#2CC7EA" cx="262.94" cy="1622.7" rx="119.73" ry="20.08"/>
			<path fill="#1BA6C5" d="M257.85,1603.27c63.97-16.75,118.1-21.62,120.91-10.89c0.9,3.45-3.62,8.1-12.29,13.37
				c-21.69-0.4-59.72,5.48-102.06,16.57c-43.39,11.36-80.16,25.26-98.45,36.38c-11.08-0.2-17.9-2.05-18.85-5.67
				C144.3,1642.29,193.88,1620.02,257.85,1603.27z"/>
		</g>
		<path fill="#77E3FB" d="M1292.77,1373.08c56.93-1.66,66.42-48.56,66.42-48.56l181.95,26.55c0,0-5.58,36.5,27.91,49.78
			S1292.77,1373.08,1292.77,1373.08z"/>
		<path fill="#77E3FB" d="M100.02,1528.8c37.95-15.63,42.42-55.81,42.42-55.81l401.86-100.46c0,0,0,33.49,62.51,33.49
			S100.02,1528.8,100.02,1528.8z"/>
		<path fill="#77E3FB" d="M695.06,1388.08c38.82-17.83,39.84-52.12,39.84-52.12l153.23-16.46c0,0,29.14,42.47,54.68,45.21
			C968.35,1367.45,695.06,1388.08,695.06,1388.08z"/>
		
			<ellipse transform="matrix(0.9727 -0.2323 0.2323 0.9727 -347.2613 111.0642)" fill="#2CC7EA" cx="298.03" cy="1530.27" rx="149.86" ry="14.27"/>
		<g>
			<path fill="#B2B2B2" d="M190.35,1371.56l-38.02,71.97l36.64,113.89l13.4-3.22c0,0,0.91-58.34,36.69-89.9
				C266.55,1440.06,190.35,1371.56,190.35,1371.56z"/>
			<path fill="#6D6A66" d="M323.14,1339.7l66.53,46.89l19.02,118.12l-13.4,3.22c0,0-27.28-51.58-73.48-63.47
				C286.32,1435.32,323.14,1339.7,323.14,1339.7z"/>
			<path fill="#6D6A66" d="M190.35,1371.56l-38.02,71.97l36.64,113.89l13.4-3.22c0,0,0.91-58.34,36.69-89.9
				C266.55,1440.06,190.35,1371.56,190.35,1371.56z"/>
			<path fill="#FFFFFF" d="M161.07,1213.53c4.08-79.74,34.33-114.92,34.81-115.47l0-0.02c0,0,0.01,0.01,0.02,0.01
				c0,0,0.01-0.01,0.01-0.01l0,0.02c0.67,0.27,43.6,17.91,83.43,87.12c40.14,69.76,54.41,191.04,47.65,260.08
				c-2.28,23.23-39.15,33.31-39.71,33.46l0,0c0,0-0.01,0-0.01,0c0,0-0.01,0-0.01,0l0,0c-0.58,0.12-38.01,7.86-50.58-11.81
				C199.3,1408.45,156.97,1293.89,161.07,1213.53z"/>
			<path fill="#B0D1F7" d="M162.59,1195.24c0.32-2.92,0.64-5.84,1.02-8.62c0.23-1.64,0.49-3.19,0.74-4.78
				c0.38-2.46,0.77-4.92,1.2-7.26c0.29-1.6,0.61-3.11,0.92-4.66c0.45-2.2,0.89-4.39,1.37-6.47c0.34-1.49,0.7-2.92,1.05-4.35
				c0.5-2,1-3.98,1.52-5.88c0.37-1.35,0.75-2.66,1.13-3.96c0.54-1.84,1.09-3.64,1.65-5.38c0.39-1.2,0.78-2.38,1.17-3.53
				c0.58-1.7,1.16-3.34,1.76-4.93c0.39-1.04,0.77-2.09,1.16-3.08c0.61-1.57,1.22-3.06,1.83-4.52c0.37-0.88,0.74-1.78,1.11-2.61
				c0.64-1.46,1.27-2.82,1.9-4.16c0.33-0.7,0.66-1.44,0.99-2.11c0.67-1.37,1.32-2.63,1.96-3.86c0.27-0.51,0.55-1.07,0.81-1.56
				c0.74-1.37,1.44-2.61,2.13-3.79c0.15-0.25,0.3-0.55,0.45-0.79c1.65-2.8,3.11-5.04,4.3-6.74c0.24-0.34,0.43-0.6,0.64-0.9
				c0.31-0.43,0.63-0.88,0.88-1.22c0.27-0.36,0.48-0.63,0.68-0.89c0.09-0.11,0.19-0.24,0.26-0.34
				c-17.75,139.03-4.69,264.69,60.29,379.92c-7.54-1.74-14.63-5.21-18.87-11.86c-37.36-58.45-79.69-173.01-75.59-253.38
				c0.25-4.81,0.6-9.44,1.02-13.92C162.24,1198.1,162.43,1196.71,162.59,1195.24z"/>
			<circle fill="#F7B548" cx="231.91" cy="1248.16" r="25.52"/>
			<path fill="#6D6A66" d="M258.78,1360.18l0-0.02c0.01,0,0.03,0,0.05,0c0.01,0,0.03-0.01,0.04-0.02l0,0.02
				c8.6-1.72,29.42,43.96,29.42,43.96l14.18,126.07l-0.97,0.23l-3.95,0.95l-0.47,0.11l-44.56-118.78
				C252.51,1412.7,250.33,1362.55,258.78,1360.18z"/>
			<path fill="#DDDBDA" d="M215.21,1181.28c-17.89,4.29-35.46,4.31-50.94,0.85c8.92-57.65,31.21-83.61,31.61-84.08l0-0.02
				c0,0,0.01,0.01,0.02,0.01c0,0,0.01-0.01,0.01-0.01l0,0.02c0.57,0.23,32.01,13.18,66,60.13
				C249.55,1168.65,233.54,1176.88,215.21,1181.28z"/>
			<path fill="#908D89" d="M188.58,1184.61c-8.47,0.09-16.65-0.76-24.31-2.47c8.11-52.38,27.25-78.6,30.98-83.3
				C190.07,1127.74,188.06,1156.42,188.58,1184.61z"/>
		</g>
		<path fill="#2CC7EA" d="M214.94,1726.53c-35.06,9.01-68.15,19.3-98.19,30.26c21.31,49.77,51.17,88.01,99.03,116.95
			c11.46-2.56,23.09-5.35,34.85-8.37c151.32-38.9,266-101.51,256.15-139.85C496.92,1687.18,366.26,1687.63,214.94,1726.53z"/>
		<path fill="#1BA6C5" d="M214.94,1726.53c-35.06,9.01-68.15,19.3-98.19,30.26c4.61,10.76,9.61,20.98,15.11,30.68
			c23.82-8.02,49.23-15.58,75.77-22.4c138.97-35.72,260.5-39.02,287.05-9.62c9.98-10.88,14.38-21.05,12.09-29.93
			C496.92,1687.18,366.26,1687.63,214.94,1726.53z"/>
		<circle fill="#8EE8FC" cx="1293.05" cy="112.8" r="12.84"/>
		<circle fill="#8EE8FC" cx="1790.07" cy="360.06" r="12.84"/>
	</g>
</g>
</svg>
