<?xml version="1.0" encoding="utf-8"?>
<!-- Generator: Adobe Illustrator 24.3.0, SVG Export Plug-In . SVG Version: 6.00 Build 0)  -->
<svg version="1.1" xmlns="http://www.w3.org/2000/svg" xmlns:xlink="http://www.w3.org/1999/xlink" x="0px" y="0px"
	 viewBox="0 0 2000 2000" enable-background="new 0 0 2000 2000" xml:space="preserve">
<g id="ghost-image" display="none">
	<g display="inline" opacity="0.5">
		<path fill="#8A6FE8" d="M1469.02,1134.64c-57.66-4.68-181.26-73.79-228.06-150.36c-28.4-46.51,24.83-83.62,53.75-36.22
			c31.36,51.3,134.81,115.23,179.86,118.94L1469.02,1134.64z"/>
		<path fill="#8A6FE8" d="M1525.01,1005.66l-88.68,33.66c-15.81,6.01-23.74,23.69-17.79,39.47c6.01,15.81,23.68,23.74,39.47,17.79
			l88.68-33.66c15.81-6.01,23.74-23.69,17.79-39.47C1558.56,1007.59,1540.82,999.63,1525.01,1005.66z"/>
		<path fill="#8A6FE8" d="M1416.45,1155.13l37.83,51.37c10.17,13.62,29.44,16.44,43.06,6.26c13.63-10.17,16.44-29.43,6.27-43.06
			l-38.78-52.71L1416.45,1155.13z"/>
		<path fill="#8A6FE8" d="M1450.74,1158.21l76.78,42.91c14.86,8.25,33.6,2.87,41.85-12.01c8.25-14.83,2.87-33.6-12.01-41.85
			l-57-32.1L1450.74,1158.21z"/>
		<path fill="#8A6FE8" d="M1460.34,1121.85l84.59,24.43c16.33,4.74,33.4-4.69,38.15-20.98c4.74-16.33-4.69-33.4-20.98-38.15
			l-86.18-24.89L1460.34,1121.85z"/>
		
			<radialGradient id="SVGID_1_" cx="-2490.3494" cy="9277.5146" r="6.0502" gradientTransform="matrix(10.6515 0 0 -10.6515 27977.5254 99923.1875)" gradientUnits="userSpaceOnUse">
			<stop  offset="0" style="stop-color:#8065E0"/>
			<stop  offset="1" style="stop-color:#512BD4"/>
		</radialGradient>
		<path fill="url(#SVGID_1_)" d="M1451.57,1168.18c35.59,0,64.45-28.85,64.45-64.44c0-35.59-28.86-64.44-64.45-64.44
			c-35.58,0-64.44,28.85-64.44,64.44C1387.13,1139.33,1415.99,1168.18,1451.57,1168.18z"/>
		
			<linearGradient id="SVGID_2_" gradientUnits="userSpaceOnUse" x1="432.5041" y1="14876.1748" x2="492.2814" y2="14591.4668" gradientTransform="matrix(1 0 0 -1 694 15972)">
			<stop  offset="0" style="stop-color:#522CD5"/>
			<stop  offset="0.4397" style="stop-color:#8A6FE8"/>
		</linearGradient>
		<path fill="url(#SVGID_2_)" d="M1216.5,1374.16c0.66-59.76-7.85-181.06-69.53-282.64l-60.31,36.62
			c55.97,92.13,60.17,199.66,58.87,246.57C1145.39,1378.59,1181.58,1382.1,1216.5,1374.16z"/>
		<path fill="#522CD5" d="M1145.53,1374.05l55.85-0.26l52.14,298.71l-112.1,0.52c-8.54,0.03-15.01-6.84-14.43-15.38L1145.53,1374.05
			z"/>
		
			<linearGradient id="SVGID_3_" gradientUnits="userSpaceOnUse" x1="468.5244" y1="14600.0068" x2="646.1333" y2="14283.3535" gradientTransform="matrix(1 0 0 -1 694 15972)">
			<stop  offset="0" style="stop-color:#522CD5"/>
			<stop  offset="0.4397" style="stop-color:#8A6FE8"/>
		</linearGradient>
		<path fill="url(#SVGID_3_)" d="M1373.04,1593.94c9.68,7.65,9.52,18.71,8.77,30.39l-2.33,35.78c-0.43,6.41-6.01,11.68-12.41,11.7
			l-116.82,0.52c-7.28,0.03-12.76-5.84-12.27-13.08l0.77-37.08c0.89-13.48-3.65-18.43-14.08-31.13
			c-17.88-21.7-70.74-139.98-65.71-217.05l57.52-0.26C1220.29,1419.47,1280.66,1521.05,1373.04,1593.94z"/>
		
			<radialGradient id="SVGID_4_" cx="-2645.7959" cy="8975.9707" r="6.0492" gradientTransform="matrix(20.3477 -0.0926 -0.0926 -20.3477 55971.2812 183937.4844)" gradientUnits="userSpaceOnUse">
			<stop  offset="0.034" style="stop-color:#522CD5"/>
			<stop  offset="0.9955" style="stop-color:#8A6FE8"/>
		</radialGradient>
		<path fill="url(#SVGID_4_)" d="M1381.81,1624.33c0.55-8.17,0.69-15.98-2.5-22.59l-145.71,0.66c4.03,5.92,5.72,11.09,5.18,19.74
			l-0.78,37.08c-0.48,7.27,5.03,13.14,12.27,13.08l116.82-0.51c6.41-0.03,11.99-5.29,12.42-11.7L1381.81,1624.33z"/>
		
			<linearGradient id="SVGID_5_" gradientUnits="userSpaceOnUse" x1="103.6272" y1="14880.5391" x2="172.3586" y2="14557.1797" gradientTransform="matrix(1 0 0 -1 694 15972)">
			<stop  offset="0" style="stop-color:#522CD5"/>
			<stop  offset="0.4397" style="stop-color:#8A6FE8"/>
		</linearGradient>
		<path fill="url(#SVGID_5_)" d="M847.6,1418.81l-71.31-8.88l40.1-322.45l71.32,8.85L847.6,1418.81z"/>
		<path fill="#522CD5" d="M781.46,1371.7l56.51-0.26l15.64,302.04L740.18,1674c-8.62,0.03-14.31-6.93-12.68-15.55L781.46,1371.7z"/>
		
			<linearGradient id="SVGID_6_" gradientUnits="userSpaceOnUse" x1="48.8044" y1="14573.0049" x2="202.8481" y2="14279.4717" gradientTransform="matrix(1 0 0 -1 694 15972)">
			<stop  offset="0" style="stop-color:#522CD5"/>
			<stop  offset="0.4397" style="stop-color:#8A6FE8"/>
		</linearGradient>
		<path fill="url(#SVGID_6_)" d="M945.67,1595.09c8.71,7.88,8.51,18,6.27,29.81l-6.81,36.19c-1.21,6.47-7.53,11.78-14,11.81
			l-162.21,0.75c-7.36,0.02-12.19-5.89-10.81-13.25l5.78-37.51c2.56-13.62,0.57-17.65,0.83-35.13
			c0.49-32.76,15.61-138.25,30.27-216.16l58.21-0.25C851.42,1417.63,871.48,1527.86,945.67,1595.09z"/>
		
			<radialGradient id="SVGID_7_" cx="-2675.4907" cy="8952.6436" r="6.0492" gradientTransform="matrix(22.145 -0.1007 -0.1006 -22.1216 61012.3516 199319.0156)" gradientUnits="userSpaceOnUse">
			<stop  offset="0.034" style="stop-color:#522CD5"/>
			<stop  offset="0.9955" style="stop-color:#8A6FE8"/>
		</radialGradient>
		<path fill="url(#SVGID_7_)" d="M763.92,1622.92l-5.78,37.51c-1.38,7.33,3.45,13.28,10.81,13.25l162.2-0.74
			c6.5-0.03,12.79-5.35,14-11.81l6.81-36.19c1.61-8.57,2.1-16.24-1.03-22.82l-185.86,0.83
			C765.36,1609.61,765.53,1614.39,763.92,1622.92z"/>
		<path fill="#8A6FE8" d="M803.96,455.82l-67.46,27.13l-18.37-73.07l48.43-19.49L803.96,455.82z"/>
		<path fill="#512BD4" d="M788.84,581.95c38.16,0,69.1-30.94,69.1-69.1c0-38.16-30.94-69.1-69.1-69.1s-69.1,30.94-69.1,69.1
			C719.74,551.01,750.68,581.95,788.84,581.95z"/>
		
			<radialGradient id="SVGID_8_" cx="-2758.1531" cy="8790.5693" r="6.0492" gradientTransform="matrix(61.9498 0 0 -61.9498 171882.7188 545342.125)" gradientUnits="userSpaceOnUse">
			<stop  offset="0.4744" style="stop-color:#A08BE8"/>
			<stop  offset="0.8618" style="stop-color:#8065E0"/>
		</radialGradient>
		<path fill="url(#SVGID_8_)" d="M1300.17,939.67c24.86-95.46,8.83-171.66,8.83-171.66h22.45l0.54-0.43
			c-32.16-175.17-185.6-307.91-370.05-307.91c-207.82,0-376.29,168.47-376.29,376.29c0,207.82,168.44,376.29,376.29,376.29
			c163.98,0,303.45-104.92,354.99-251.25C1318.43,954.79,1318.29,943.64,1300.17,939.67z"/>
		<path fill="#D8CFF7" d="M1286.38,1026.53h-648.9c14.57,24.75,31.88,47.66,51.54,68.36h545.85
			C1254.5,1074.17,1271.8,1051.28,1286.38,1026.53z"/>
		
			<radialGradient id="SVGID_9_" cx="-2740.6455" cy="8822.0029" r="6.0492" gradientTransform="matrix(48.2581 0 0 -48.2581 133490.4531 426431.9688)" gradientUnits="userSpaceOnUse">
			<stop  offset="0.0933" style="stop-color:#E1DFDD"/>
			<stop  offset="0.8998" style="stop-color:#FFFFFF"/>
		</radialGradient>
		<path fill="url(#SVGID_9_)" d="M1300.17,939.67c24.55-94.28,9.22-169.73,8.86-171.57H918.6c0,0-24.61-2.5-24.61,19.98
			c0,22.48,0.93,85.94,0.93,156.17c0,14.43,11.81,21.38,21.12,21.38C916.07,965.59,1256.6,965.57,1300.17,939.67z"/>
		<path fill="#A08BE8" d="M1065.02,939.87c0,0,60.05-47.51,71.75-56.31c11.72-8.8,21.96-9.29,32.71,0
			c10.75,9.29,70.85,56.31,70.85,56.31H1065.02z"/>
		<path fill="#512BD4" d="M1315.41,965.33c0,0,10.43-20.06-15.24-25.67c0.03-0.08-383.82-0.28-383.82-0.28
			c-8.93,0-20.43-5.32-21.41-14c0,6.21,0.03,12.47,0.03,18.83c0,13.11,9.75,20.03,18.48,21.18c0.86,0.11,1.75,0.2,2.65,0.2h26.24
			L1315.41,965.33z"/>
		<path fill="#512BD4" d="M1286.53,851.61c0.41-27.33-12.44-49.69-28.69-49.93c-16.25-0.24-29.76,21.72-30.17,49.05
			c-0.41,27.34,12.44,49.69,28.69,49.93C1272.61,900.9,1286.12,878.95,1286.53,851.61z"/>
		<path fill="#8065E0" d="M1256.74,825.01c-10.75,10.75-10.75,28.17,0,38.92c7.36,7.36,17.85,9.69,27.19,6.96
			c1.58-5.89,2.5-12.42,2.62-19.26c0.2-13.39-2.79-25.58-7.82-34.58C1270.88,816.36,1262.75,819,1256.74,825.01z"/>
		<path fill="#512BD4" d="M1020.8,900.92c16.25-0.24,29.1-22.6,28.69-49.93c-0.41-27.33-13.91-49.3-30.17-49.05
			c-16.25,0.24-29.1,22.6-28.69,49.93C991.04,879.19,1004.54,901.16,1020.8,900.92z"/>
		<path fill="#8065E0" d="M1019.83,826.62c-10.75,10.75-10.75,28.17,0,38.92c7.33,7.33,17.74,9.63,27.02,6.98
			c1.78-6.55,2.76-13.85,2.64-21.59c-0.17-12.42-3.07-23.69-7.7-32.28C1033.95,817.97,1025.84,820.61,1019.83,826.62z"/>
		<path fill="#512BD4" d="M1084.82,1115.23l123.17-0.56l-0.5-108.94l-123.17,0.56L1084.82,1115.23z"/>
		<path fill="#FFFFFF" d="M1106.12,1074.51c-0.83,0-1.52-0.26-2.1-0.8c-0.57-0.55-0.86-1.24-0.86-1.98c0-0.77,0.28-1.47,0.86-2.01
			c0.57-0.57,1.26-0.83,2.1-0.83c0.83,0,1.52,0.29,2.1,0.83c0.57,0.54,0.89,1.24,0.89,2.01c0,0.77-0.28,1.43-0.86,1.98
			C1107.68,1074.22,1106.96,1074.51,1106.12,1074.51z"/>
		<path fill="#FFFFFF" d="M1138.89,1073.97h-5.32l-14.08-22.11c-0.34-0.54-0.67-1.15-0.9-1.75h-0.11c0.11,0.63,0.18,2.01,0.18,4.14
			l0.03,19.74h-4.72l-0.05-30.12h5.66l13.6,21.59c0.57,0.89,0.94,1.52,1.12,1.84h0.08c-0.15-0.8-0.2-2.15-0.2-4.05l-0.03-19.4h4.69
			L1138.89,1073.97z"/>
		<path fill="#FFFFFF" d="M1161.83,1073.94l-16.5,0.03l-0.06-30.12l15.84-0.03v4.25l-10.95,0.03l0.03,8.54l10.09-0.03v4.23
			l-10.09,0.03l0.02,8.91l11.61-0.03V1073.94z"/>
		<path fill="#FFFFFF" d="M1185.2,1048.01l-8.45,0.02l0.06,25.87h-4.89l-0.06-25.87l-8.42,0.03v-4.25l21.73-0.06L1185.2,1048.01z"/>
		<path fill="#8A6FE8" d="M529.43,1254.19l40.18,57.34c10.81,15.24,31.93,18.74,47.17,7.94c15.23-10.81,18.74-31.93,7.93-47.14
			l-49.73-69.3L529.43,1254.19z"/>
		<path fill="#8A6FE8" d="M460.13,1232.49L449,1301.65c-2.82,18.43,9.8,35.7,28.28,38.52c18.43,2.82,35.7-9.8,38.52-28.29
			l11.38-70.88L460.13,1232.49z"/>
		<path fill="#8A6FE8" d="M504.99,1240.3l-9.34,69.42c-2.36,18.48,10.75,35.44,29.23,37.8c18.48,2.36,35.44-10.75,37.83-29.23
			l9.6-71.2L504.99,1240.3z"/>
		<path fill="#8A6FE8" d="M442.74,1211.82l-25.09,65.39c-6.58,17.48,2.3,36.99,19.78,43.52c17.48,6.58,36.99-2.3,43.52-19.77
			l25.73-67.06L442.74,1211.82z"/>
		
			<linearGradient id="SVGID_10_" gradientUnits="userSpaceOnUse" x1="-100.864" y1="15112.4697" x2="-100.864" y2="14731.5771" gradientTransform="matrix(1 0 0 -1 694 15972)">
			<stop  offset="0.2495" style="stop-color:#967FE6"/>
			<stop  offset="1" style="stop-color:#8A6FE8"/>
		</linearGradient>
		<path fill="url(#SVGID_10_)" d="M489.3,1240.42c-27.91-57-44.21-154.45,1.78-241.6c27.97-52.92,89.19-120.03,222.28-139.29
			l10.69,73.79c-80.8,11.7-138.52,46.39-167,100.32c-30.84,58.41-22.59,129.43-0.78,174.04L489.3,1240.42z"/>
		
			<radialGradient id="SVGID_11_" cx="-2563.4338" cy="9256.3447" r="6.0492" gradientTransform="matrix(11.3989 0 0 -11.3989 29957.0625 106373.5469)" gradientUnits="userSpaceOnUse">
			<stop  offset="0" style="stop-color:#8065E0"/>
			<stop  offset="1" style="stop-color:#512BD4"/>
		</radialGradient>
		<path fill="url(#SVGID_11_)" d="M738.97,954.1c38.06,0,68.9-30.84,68.9-68.9c0-38.06-30.84-68.9-68.9-68.9
			c-38.06,0-68.9,30.84-68.9,68.9C670.07,923.23,700.92,954.1,738.97,954.1z"/>
		
			<radialGradient id="SVGID_12_" cx="-2693.1982" cy="8960.3008" r="6.0492" gradientTransform="matrix(22.7292 0 0 -22.7292 61719.1133 204814.2031)" gradientUnits="userSpaceOnUse">
			<stop  offset="0" style="stop-color:#8065E0"/>
			<stop  offset="1" style="stop-color:#512BD4"/>
		</radialGradient>
		<path fill="url(#SVGID_12_)" d="M508.62,1277.33c39.09,0,70.77-31.68,70.77-70.77c0-39.09-31.68-70.77-70.77-70.77
			c-39.09,0-70.77,31.68-70.77,70.77C437.85,1245.65,469.55,1277.33,508.62,1277.33z"/>
		<path fill="#D8CFF7" d="M739.68,415.8c-26.24,6.99-53.32-8.39-60.54-34.41c-7.19-26.01,8.22-52.72,34.46-59.7
			c26.24-6.98,53.32,8.39,60.54,34.41C781.36,382.11,765.95,408.78,739.68,415.8z"/>
	</g>
</g>
<g id="bot-base" display="none">
	<g display="inline">
		
			<radialGradient id="SVGID_13_" cx="-2758.1531" cy="8790.5693" r="6.0492" gradientTransform="matrix(61.9498 0 0 -61.9498 171882.7188 545342.125)" gradientUnits="userSpaceOnUse">
			<stop  offset="0.4744" style="stop-color:#A08BE8"/>
			<stop  offset="0.8618" style="stop-color:#8065E0"/>
		</radialGradient>
		<path fill="url(#SVGID_13_)" d="M1300.17,939.67c24.86-95.46,8.83-171.66,8.83-171.66h22.45l0.54-0.43
			c-32.16-175.17-185.6-307.91-370.05-307.91c-207.82,0-376.29,168.47-376.29,376.29c0,207.82,168.44,376.29,376.29,376.29
			c163.98,0,303.45-104.92,354.99-251.25C1318.43,954.79,1318.29,943.64,1300.17,939.67z"/>
		<path fill="#D8CFF7" d="M1286.38,1026.53h-648.9c14.57,24.75,31.88,47.66,51.54,68.36h545.85
			C1254.5,1074.17,1271.8,1051.28,1286.38,1026.53z"/>
		
			<radialGradient id="SVGID_14_" cx="-2740.6455" cy="8822.0029" r="6.0492" gradientTransform="matrix(48.2581 0 0 -48.2581 133490.4531 426431.9688)" gradientUnits="userSpaceOnUse">
			<stop  offset="0.0933" style="stop-color:#E1DFDD"/>
			<stop  offset="0.8998" style="stop-color:#FFFFFF"/>
		</radialGradient>
		<path fill="url(#SVGID_14_)" d="M1300.17,939.67c24.55-94.28,9.22-169.73,8.86-171.57H918.6c0,0-24.61-2.5-24.61,19.98
			c0,22.48,0.93,85.94,0.93,156.17c0,14.43,11.81,21.38,21.12,21.38C916.07,965.59,1256.6,965.57,1300.17,939.67z"/>
		<path fill="#A08BE8" d="M1065.02,939.87c0,0,60.05-47.51,71.75-56.31c11.72-8.8,21.96-9.29,32.71,0
			c10.75,9.29,70.85,56.31,70.85,56.31H1065.02z"/>
		<path fill="#512BD4" d="M1315.41,965.33c0,0,10.43-20.06-15.24-25.67c0.03-0.08-383.82-0.28-383.82-0.28
			c-8.93,0-20.43-5.32-21.41-14c0,6.21,0.03,12.47,0.03,18.83c0,13.11,9.75,20.03,18.48,21.18c0.86,0.11,1.75,0.2,2.65,0.2h26.24
			L1315.41,965.33z"/>
		<path fill="#512BD4" d="M1084.82,1115.23l123.17-0.56l-0.5-108.94l-123.17,0.56L1084.82,1115.23z"/>
		<path fill="#FFFFFF" d="M1106.12,1074.51c-0.83,0-1.52-0.26-2.1-0.8c-0.57-0.55-0.86-1.24-0.86-1.98c0-0.77,0.28-1.47,0.86-2.01
			c0.57-0.57,1.26-0.83,2.1-0.83c0.83,0,1.52,0.29,2.1,0.83c0.57,0.54,0.89,1.24,0.89,2.01c0,0.77-0.28,1.43-0.86,1.98
			C1107.68,1074.22,1106.96,1074.51,1106.12,1074.51z"/>
		<path fill="#FFFFFF" d="M1138.89,1073.97h-5.32l-14.08-22.11c-0.34-0.54-0.67-1.15-0.9-1.75h-0.11c0.11,0.63,0.18,2.01,0.18,4.14
			l0.03,19.74h-4.72l-0.05-30.12h5.66l13.6,21.59c0.57,0.89,0.94,1.52,1.12,1.84h0.08c-0.15-0.8-0.2-2.15-0.2-4.05l-0.03-19.4h4.69
			L1138.89,1073.97z"/>
		<path fill="#FFFFFF" d="M1161.83,1073.94l-16.5,0.03l-0.06-30.12l15.84-0.03v4.25l-10.95,0.03l0.03,8.54l10.09-0.03v4.23
			l-10.09,0.03l0.02,8.91l11.61-0.03V1073.94z"/>
		<path fill="#FFFFFF" d="M1185.2,1048.01l-8.45,0.02l0.06,25.87h-4.89l-0.06-25.87l-8.42,0.03v-4.25l21.73-0.06L1185.2,1048.01z"/>
	</g>
</g>
<g id="asset">
	<g>
		<path fill="#28C2D1" d="M940.31,26.43c797.66-13.11,902.18,35.69,960.96,300.98c114.03,514.64-131.85,729.08-28.99,1154.94
			c95.91,397.09-500.35,495.33-1116.07,455.14c-615.72-40.19-707.14-214.33-603.25-554.13c72.93-238.55,53.58-535.58-80.37-836.86
			S397.06,35.36,940.31,26.43z"/>
		<path fill="#FFFFFF" d="M122.44,1511.54h1755.73c-1.54-9.54-3.5-19.27-5.89-29.18c-5.24-21.71-9.57-42.87-13.09-63.55H142.68
			C133.79,1451.32,126.94,1482.23,122.44,1511.54z"/>
		<path fill="#84817D" d="M756.2,1937.5c600.35,39.18,1182.19-53.23,1121.97-425.96H122.44
			C83.14,1767.58,223.28,1902.72,756.2,1937.5z"/>
		<g>
			<rect x="1634.2" y="788.34" fill="#625F5B" width="36.37" height="793.1"/>
			<path fill="#0F849E" d="M1832.23,678.31h-95.74c-2.58,0-4.66-2.09-4.66-4.66v-0.88c0-2.58,2.09-4.66,4.66-4.66h95.74
				c2.58,0,4.66,2.09,4.66,4.66v0.88C1836.89,676.23,1834.8,678.31,1832.23,678.31z"/>
			<path fill="#179BB8" d="M1822.69,744.46h-4.42c-2.44,0-4.43-1.98-4.43-4.43v-76c0-2.44,1.98-4.43,4.43-4.43h4.42
				c2.44,0,4.43,1.98,4.43,4.43v76C1827.12,742.47,1825.14,744.46,1822.69,744.46z"/>
			<path fill="#625F5B" d="M1555.1,1649.07H1527c-4.93,0-8.92-3.99-8.92-8.92v-13.2c0-4.93,3.99-8.92,8.92-8.92h28.1
				c4.93,0,8.92,3.99,8.92,8.92v13.2C1564.02,1645.08,1560.03,1649.07,1555.1,1649.07z"/>
			<path fill="#625F5B" d="M1774.58,1649.07h-28.1c-4.93,0-8.92-3.99-8.92-8.92v-13.2c0-4.93,3.99-8.92,8.92-8.92h28.1
				c4.93,0,8.92,3.99,8.92,8.92v13.2C1783.5,1645.08,1779.5,1649.07,1774.58,1649.07z"/>
			<path fill="#625F5B" d="M1763.71,1598.42h-229.67c-4.23,0-7.66-3.43-7.66-7.66v-9.31c0-4.23,3.43-7.66,7.66-7.66h229.67
				c4.23,0,7.66,3.43,7.66,7.66v9.31C1771.37,1594.99,1767.94,1598.42,1763.71,1598.42z"/>
			<path fill="#FFFFFF" d="M1790.27,1589.1h-280.23c-3.11,0-5.77,2.21-6.36,5.26l-6.67,34.91c-0.76,3.99,2.29,7.69,6.36,7.69h293.58
				c4.06,0,7.12-3.7,6.36-7.69l-6.67-34.91C1796.04,1591.3,1793.37,1589.1,1790.27,1589.1z"/>
			<path fill="#FFFFFF" d="M1796.6,630.89h-329.62c-3.69,0-6.67,2.99-6.67,6.67v63.86c0,3.68,2.99,6.67,6.67,6.67h329.62
				c3.68,0,6.67-2.99,6.67-6.67v-63.86C1803.28,633.88,1800.29,630.89,1796.6,630.89z M1775.2,683.7c0,3.18-2.58,5.76-5.76,5.76
				h-275.58c-3.18,0-5.76-2.58-5.76-5.76v-30.82c0-3.18,2.58-5.76,5.76-5.76h275.58c3.18,0,5.76,2.58,5.76,5.76V683.7z"/>
			<path fill="#0F849E" d="M1746.91,737.46h-38.47c-4,0-7.24-3.24-7.24-7.24V666.2c0-4,3.24-7.24,7.24-7.24h38.47
				c4,0,7.24,3.24,7.24,7.24v64.02C1754.15,734.22,1750.91,737.46,1746.91,737.46z"/>
			<rect x="1710.95" y="668.44" fill="#F7B548" width="33.83" height="24.42"/>
			<path fill="#FFFFFF" d="M1807.49,778.73L1654,804.21c-0.86,0.14-1.73,0.14-2.59,0l-154.76-25.49c-3.83-0.63-6.64-3.94-6.64-7.82
				v-33.83c0-4.38,3.55-7.93,7.93-7.93h308.25c4.38,0,7.93,3.55,7.93,7.93v33.84C1814.12,774.79,1811.32,778.1,1807.49,778.73z"/>
			<g>
				<g>
					<rect x="1498.57" y="690.22" fill="#179BB8" width="4.57" height="12.12"/>
				</g>
				<g>
					<rect x="1525.35" y="690.22" fill="#179BB8" width="4.57" height="12.12"/>
				</g>
				<g>
					<rect x="1552.13" y="690.22" fill="#B3AFAB" width="4.57" height="12.12"/>
				</g>
				<g>
					<rect x="1578.92" y="690.22" fill="#B3AFAB" width="4.57" height="12.12"/>
				</g>
				<g>
					<rect x="1605.7" y="690.22" fill="#179BB8" width="4.57" height="12.12"/>
				</g>
				<g>
					<rect x="1632.48" y="690.22" fill="#179BB8" width="4.57" height="12.12"/>
				</g>
				<g>
					<rect x="1659.26" y="690.22" fill="#179BB8" width="4.57" height="12.12"/>
				</g>
				<g>
					<rect x="1686.04" y="690.22" fill="#179BB8" width="4.57" height="12.12"/>
				</g>
			</g>
			<path fill="#0F849E" d="M1582.28,718.3h-28.22c-3.31,0-5.99-2.68-5.99-5.99v-32.69c0-3.31,2.68-5.99,5.99-5.99h28.22
				c3.31,0,5.99,2.68,5.99,5.99v32.69C1588.27,715.62,1585.59,718.3,1582.28,718.3z"/>
		</g>
		<g>
			<path fill="#179BB8" d="M289.53,802.88h-7.49c0-65.77-2.01-127.42-26.67-216.05c-9.43-33.88-7.6-59.77,5.45-76.94
				c18.7-24.62,56.02-24.62,68.28-24.62v7.49c-30.86,0-51.25,7.08-62.32,21.66c-11.55,15.2-12.96,38.89-4.19,70.4
				C287.51,674.36,289.53,736.55,289.53,802.88z"/>
		</g>
		<g>
			<path fill="#179BB8" d="M657.5,866.58c-0.25-4.69-5.79-115.52,29.84-168.38c12.63-18.75,15.93-35.01,9.54-47.02
				c-7.47-14.04-26.09-19.27-36.08-19.27h-42.18v-7.49h42.18c12.19,0,33.61,6.19,42.69,23.25c5.42,10.19,8.09,27.95-9.95,54.72
				c-14.08,20.89-23.49,55.76-27.22,100.83c-2.84,34.33-1.37,62.69-1.35,62.97L657.5,866.58z"/>
		</g>
		<g>
			<path fill="#179BB8" d="M265.98,807.44h-7.49c0-2.07,0.07-5.08,0.15-8.9c0.69-30.74,2.79-124.31-24.14-183.79
				c-14.67-32.41-16.14-58.11-4.36-76.37c11.51-17.85,33.49-24.18,48.81-24.18h50.15v7.49h-50.15c-13.44,0-32.64,5.43-42.51,20.75
				c-10.31,15.99-8.67,39.28,4.89,69.22c27.63,61.04,25.58,152.59,24.8,187.05C266.04,802.48,265.98,805.46,265.98,807.44z"/>
		</g>
		
			<rect x="345.06" y="564.65" transform="matrix(-1 4.491906e-11 -4.491906e-11 -1 850.8525 1154.4075)" fill="#0F849E" width="160.72" height="25.11"/>
		<path fill="#179BB8" d="M378.8,802.88H220.13c-4.66,0-8.44,3.78-8.44,8.44v262.4c0,4.66,3.78,8.44,8.44,8.44H378.8
			c4.66,0,8.44-3.78,8.44-8.44v-262.4C387.24,806.66,383.46,802.88,378.8,802.88z"/>
		<path fill="#0F849E" d="M338.94,891.22H260c-9.05,0-16.38-7.33-16.38-16.38v-16.92c0-9.05,7.33-16.38,16.38-16.38h78.95
			c9.05,0,16.38,7.33,16.38,16.38v16.92C355.32,883.89,347.99,891.22,338.94,891.22z"/>
		<path fill="#0F849E" d="M338.94,966.17H260c-9.05,0-16.38-7.33-16.38-16.38v-16.92c0-9.05,7.33-16.38,16.38-16.38h78.95
			c9.05,0,16.38,7.33,16.38,16.38v16.92C355.32,958.83,347.99,966.17,338.94,966.17z"/>
		
			<rect x="371.28" y="700.29" transform="matrix(-1 2.392740e-11 -2.392740e-11 -1 802.316 1782.4496)" fill="#0F849E" width="59.75" height="381.86"/>
		<g>
			<path fill="#625F5B" d="M676.83,1532.41v62.82l-14.42,8.99c0,0-25.08,0-25.08-34.2c0-20.52,0-37.62,0-37.62H676.83z"/>
			<circle fill="#625F5B" cx="689.77" cy="1614.48" r="39.5"/>
			<circle fill="#FFFFFF" cx="689.77" cy="1614.48" r="19.25"/>
		</g>
		<g>
			<path fill="#625F5B" d="M191.57,1532.41v62.82l14.42,8.99c0,0,25.08,0,25.08-34.2c0-20.52,0-37.62,0-37.62H191.57z"/>
			<circle fill="#625F5B" cx="178.63" cy="1614.48" r="39.5"/>
			<circle fill="#FFFFFF" cx="178.63" cy="1614.48" r="19.25"/>
		</g>
		
			<rect x="485.27" y="1018.32" transform="matrix(-1 4.495814e-11 -4.495814e-11 -1 1052.6127 2091.3591)" fill="#0F849E" width="82.07" height="54.71"/>
		
			<rect x="428.28" y="1062.52" transform="matrix(-1 4.489108e-11 -4.489108e-11 -1 1051.4728 2144.6768)" fill="#0F849E" width="194.92" height="19.64"/>
		<path fill="#CFF1F5" d="M200.67,670.49h537.29c9.91,0,17.95,8.04,17.95,17.95v0.57c0,9.91-8.04,17.95-17.95,17.95H200.67
			c-9.91,0-17.95-8.04-17.95-17.95v-0.57C182.72,678.53,190.75,670.49,200.67,670.49z"/>
		<path fill="#FFFFFF" d="M344.21,1026.3h365.34c8.34,0,15.1-6.76,15.1-15.1V774.94c0-8.34-6.76-15.1-15.1-15.1H344.21
			c-8.34,0-15.1,6.76-15.1,15.1v236.26C329.11,1019.54,335.87,1026.3,344.21,1026.3z"/>
		<path fill="#0F849E" d="M357.93,998.95h337.89c1.44,0,2.61-1.17,2.61-2.61V789.8c0-1.44-1.17-2.61-2.61-2.61H357.93
			c-1.44,0-2.61,1.17-2.61,2.61v206.54C355.32,997.78,356.49,998.95,357.93,998.95z"/>
		<path fill="#88DDE5" d="M293.07,670.49h337.66c4.02,0,7.28-3.26,7.28-7.28v-70.1c0-4.02-3.26-7.28-7.28-7.28H293.07
			c-4.02,0-7.28,3.26-7.28,7.28v70.1C285.79,667.23,289.05,670.49,293.07,670.49z"/>
		<path fill="#179BB8" d="M313.62,392.61h270.99c2.78,0,5.03,2.25,5.03,5.03v167.19c0,2.78-2.25,5.03-5.03,5.03H313.62
			c-2.78,0-5.03-2.25-5.03-5.03V397.64C308.59,394.86,310.84,392.61,313.62,392.61z"/>
		<path fill="#58D0DB" d="M333.28,414.08h154.42c2.3,0,4.17,1.87,4.17,4.17v112.94c0,2.3-1.87,4.17-4.17,4.17H333.28
			c-2.3,0-4.17-1.87-4.17-4.17V418.25C329.11,415.95,330.97,414.08,333.28,414.08z"/>
		
			<rect x="511.49" y="606.92" transform="matrix(-1 4.495014e-11 -4.495014e-11 -1 1124.4255 1260.365)" fill="#0F849E" width="101.45" height="46.52"/>
		<path fill="#179BB8" d="M763.36,1109.51H194.72c-1.62,97.04-15.87,189.14-41.77,273.85c-18.52,60.59-30.83,115.91-35.07,166.15
			h645.48V1109.51z"/>
		<path fill="#0F849E" d="M194.72,1109.51c-0.14,8.4-0.38,16.76-0.71,25.09h569.35v-25.09H194.72z"/>
		
			<rect x="413.84" y="1138.39" transform="matrix(-1 4.483779e-11 -4.483779e-11 -1 934.0643 2291.9792)" fill="#0F849E" width="106.39" height="15.2"/>
		
			<rect x="413.84" y="1247.4" transform="matrix(-1 4.482935e-11 -4.482935e-11 -1 934.0643 2509.9993)" fill="#0F849E" width="106.39" height="15.2"/>
		
			<rect x="413.84" y="1397.97" transform="matrix(-1 4.493194e-11 -4.493194e-11 -1 934.0643 2811.1392)" fill="#0F849E" width="106.39" height="15.2"/>
		<path fill="#0F849E" d="M763.36,1364.14H158.57c-0.7,2.5-1.41,5-2.13,7.49h606.91V1364.14z"/>
		<path fill="#0F849E" d="M763.36,1207.44H188.65c-0.27,2.5-0.57,4.99-0.86,7.49h575.57V1207.44z"/>
		<path fill="#FFFFFF" d="M797.45,1109.51v-37.82H194.71c0.21,12.69,0.22,25.29,0.01,37.82H797.45z"/>
		<path fill="#FFFFFF" d="M1754,539.53h-439.62c-3.6,0-6.53-2.92-6.53-6.53V257.48c0-3.6,2.92-6.53,6.53-6.53H1754
			c3.6,0,6.53,2.92,6.53,6.53v275.53C1760.53,536.61,1757.61,539.53,1754,539.53z"/>
		<g>
			<path fill="#9FE4EB" d="M1540.49,373.83l8.15,5.48c1.41,0.95,3.12,1.37,4.81,1.19l9.76-1.07c2.92-0.32,5.74,1.16,7.13,3.74
				l4.67,8.64c0.81,1.5,2.12,2.66,3.71,3.29l9.14,3.59c2.73,1.07,4.54,3.69,4.57,6.63l0.11,9.82c0.02,1.7,0.64,3.35,1.76,4.63
				l6.43,7.43c1.92,2.22,2.3,5.38,0.97,7.99l-4.46,8.75c-0.77,1.52-0.99,3.26-0.6,4.92l2.24,9.56c0.67,2.86-0.46,5.83-2.86,7.53
				l-8.02,5.67c-1.39,0.98-2.39,2.43-2.82,4.08l-2.46,9.51c-0.74,2.84-3.12,4.95-6.03,5.34l-9.74,1.3c-1.69,0.23-3.24,1.04-4.39,2.3
				l-6.6,7.28c-1.97,2.17-5.06,2.94-7.82,1.93l-9.22-3.38c-1.6-0.59-3.36-0.59-4.96,0l-9.22,3.38c-2.76,1.01-5.85,0.25-7.82-1.93
				l-6.6-7.28c-1.14-1.26-2.7-2.08-4.39-2.3l-9.74-1.3c-2.91-0.39-5.29-2.5-6.03-5.34l-2.46-9.51c-0.43-1.65-1.42-3.09-2.82-4.08
				l-8.02-5.67c-2.4-1.69-3.52-4.67-2.86-7.53l2.24-9.56c0.39-1.66,0.18-3.4-0.6-4.92l-4.46-8.75c-1.33-2.61-0.95-5.78,0.97-7.99
				l6.43-7.43c1.11-1.29,1.74-2.93,1.76-4.63l0.11-9.82c0.03-2.93,1.84-5.55,4.57-6.63l9.14-3.59c1.59-0.62,2.9-1.79,3.71-3.29
				l4.67-8.64c1.39-2.58,4.21-4.06,7.13-3.74l9.76,1.07c1.69,0.19,3.4-0.23,4.81-1.19l8.15-5.48
				C1534.87,372.2,1538.05,372.2,1540.49,373.83z"/>
			<circle fill="#CFF1F5" cx="1536.46" cy="438.62" r="48.52"/>
		</g>
		<rect x="1371.73" y="292.89" fill="#CFF1F5" width="329.46" height="18.15"/>
		<rect x="1371.73" y="330.92" fill="#CFF1F5" width="329.46" height="18.15"/>
		
			<polyline fill="none" stroke="#F7B548" stroke-width="10" stroke-linecap="round" stroke-linejoin="round" stroke-miterlimit="10" points="
			393.87,899.15 445.53,899.15 466.67,856.88 490.62,945.65 518.8,804.74 546.98,976.65 572.47,830.42 597.71,938.6 610.39,897.74 
			662.89,897.74 		"/>
		<rect x="509.96" y="505.88" fill="#88DDE5" width="63.63" height="29.28"/>
		<rect x="509.96" y="416.28" fill="#F7B548" width="63.63" height="75.9"/>
		<circle fill="#40C9D6" cx="480.58" cy="617.29" r="10.96"/>
		<circle fill="#40C9D6" cx="440.55" cy="617.29" r="10.96"/>
		<circle fill="#40C9D6" cx="400.52" cy="617.29" r="10.96"/>
		<circle fill="#40C9D6" cx="360.48" cy="617.29" r="10.96"/>
	</g>
</g>
</svg>
