<?xml version="1.0" encoding="utf-8"?>
<!-- Generator: Adobe Illustrator 24.3.0, SVG Export Plug-In . SVG Version: 6.00 Build 0)  -->
<svg version="1.1" xmlns="http://www.w3.org/2000/svg" xmlns:xlink="http://www.w3.org/1999/xlink" x="0px" y="0px"
	 viewBox="0 0 2000 2000" enable-background="new 0 0 2000 2000" xml:space="preserve">
<g id="ghost-image" display="none">
	<g display="inline" opacity="0.5">
		<path fill="#8A6FE8" d="M1469.02,1134.64c-57.66-4.68-181.26-73.79-228.06-150.36c-28.4-46.51,24.83-83.62,53.75-36.22
			c31.36,51.3,134.81,115.23,179.86,118.94L1469.02,1134.64z"/>
		<path fill="#8A6FE8" d="M1525.01,1005.66l-88.68,33.66c-15.81,6.01-23.74,23.69-17.79,39.47c6.01,15.81,23.68,23.74,39.47,17.79
			l88.68-33.66c15.81-6.01,23.74-23.69,17.79-39.47C1558.56,1007.59,1540.82,999.63,1525.01,1005.66z"/>
		<path fill="#8A6FE8" d="M1416.45,1155.13l37.83,51.37c10.17,13.62,29.44,16.44,43.06,6.26c13.63-10.17,16.44-29.43,6.27-43.06
			l-38.78-52.71L1416.45,1155.13z"/>
		<path fill="#8A6FE8" d="M1450.74,1158.21l76.78,42.91c14.86,8.25,33.6,2.87,41.85-12.01c8.25-14.83,2.87-33.6-12.01-41.85
			l-57-32.1L1450.74,1158.21z"/>
		<path fill="#8A6FE8" d="M1460.34,1121.85l84.59,24.43c16.33,4.74,33.4-4.69,38.15-20.98c4.74-16.33-4.69-33.4-20.98-38.15
			l-86.18-24.89L1460.34,1121.85z"/>
		
			<radialGradient id="SVGID_1_" cx="3931.4021" cy="6670.0747" r="6.0502" gradientTransform="matrix(10.6515 0 0 -10.6515 -40423.7578 72150.0391)" gradientUnits="userSpaceOnUse">
			<stop  offset="0" style="stop-color:#8065E0"/>
			<stop  offset="1" style="stop-color:#512BD4"/>
		</radialGradient>
		<path fill="url(#SVGID_1_)" d="M1451.57,1168.18c35.59,0,64.45-28.85,64.45-64.44c0-35.59-28.86-64.44-64.45-64.44
			c-35.58,0-64.44,28.85-64.44,64.44C1387.13,1139.33,1415.99,1168.18,1451.57,1168.18z"/>
		
			<linearGradient id="SVGID_2_" gradientUnits="userSpaceOnUse" x1="432.5041" y1="10108.8672" x2="492.2814" y2="9824.1582" gradientTransform="matrix(1 0 0 -1 694 11204.6914)">
			<stop  offset="0" style="stop-color:#522CD5"/>
			<stop  offset="0.4397" style="stop-color:#8A6FE8"/>
		</linearGradient>
		<path fill="url(#SVGID_2_)" d="M1216.5,1374.16c0.66-59.76-7.85-181.06-69.53-282.64l-60.31,36.62
			c55.97,92.13,60.17,199.66,58.87,246.57C1145.39,1378.59,1181.58,1382.1,1216.5,1374.16z"/>
		<path fill="#522CD5" d="M1145.53,1374.05l55.85-0.26l52.14,298.71l-112.1,0.52c-8.54,0.03-15.01-6.84-14.43-15.38L1145.53,1374.05
			z"/>
		
			<linearGradient id="SVGID_3_" gradientUnits="userSpaceOnUse" x1="468.5244" y1="9832.6982" x2="646.1333" y2="9516.0449" gradientTransform="matrix(1 0 0 -1 694 11204.6914)">
			<stop  offset="0" style="stop-color:#522CD5"/>
			<stop  offset="0.4397" style="stop-color:#8A6FE8"/>
		</linearGradient>
		<path fill="url(#SVGID_3_)" d="M1373.04,1593.94c9.68,7.65,9.52,18.71,8.77,30.39l-2.33,35.78c-0.43,6.41-6.01,11.68-12.41,11.7
			l-116.82,0.52c-7.28,0.03-12.76-5.84-12.27-13.08l0.77-37.08c0.89-13.48-3.65-18.43-14.08-31.13
			c-17.88-21.7-70.74-139.98-65.71-217.05l57.52-0.26C1220.29,1419.47,1280.66,1521.05,1373.04,1593.94z"/>
		
			<radialGradient id="SVGID_4_" cx="4092.4922" cy="6476.7583" r="6.0492" gradientTransform="matrix(20.3477 -0.0926 -0.0926 -20.3477 -81368.7266 133708.2344)" gradientUnits="userSpaceOnUse">
			<stop  offset="0.034" style="stop-color:#522CD5"/>
			<stop  offset="0.9955" style="stop-color:#8A6FE8"/>
		</radialGradient>
		<path fill="url(#SVGID_4_)" d="M1381.81,1624.33c0.55-8.17,0.69-15.98-2.5-22.59l-145.71,0.66c4.03,5.92,5.72,11.09,5.18,19.74
			l-0.78,37.08c-0.48,7.27,5.03,13.14,12.27,13.08l116.82-0.51c6.41-0.03,11.99-5.29,12.42-11.7L1381.81,1624.33z"/>
		
			<linearGradient id="SVGID_5_" gradientUnits="userSpaceOnUse" x1="103.6272" y1="10113.2305" x2="172.3586" y2="9789.8721" gradientTransform="matrix(1 0 0 -1 694 11204.6914)">
			<stop  offset="0" style="stop-color:#522CD5"/>
			<stop  offset="0.4397" style="stop-color:#8A6FE8"/>
		</linearGradient>
		<path fill="url(#SVGID_5_)" d="M847.6,1418.81l-71.31-8.88l40.1-322.45l71.32,8.85L847.6,1418.81z"/>
		<path fill="#522CD5" d="M781.46,1371.7l56.51-0.26l15.64,302.04L740.18,1674c-8.62,0.03-14.31-6.93-12.68-15.55L781.46,1371.7z"/>
		
			<linearGradient id="SVGID_6_" gradientUnits="userSpaceOnUse" x1="48.8044" y1="9805.6963" x2="202.8481" y2="9512.1631" gradientTransform="matrix(1 0 0 -1 694 11204.6914)">
			<stop  offset="0" style="stop-color:#522CD5"/>
			<stop  offset="0.4397" style="stop-color:#8A6FE8"/>
		</linearGradient>
		<path fill="url(#SVGID_6_)" d="M945.67,1595.09c8.71,7.88,8.51,18,6.27,29.81l-6.81,36.19c-1.21,6.47-7.53,11.78-14,11.81
			l-162.21,0.75c-7.36,0.02-12.19-5.89-10.81-13.25l5.78-37.51c2.56-13.62,0.57-17.65,0.83-35.13
			c0.49-32.76,15.61-138.25,30.27-216.16l58.21-0.25C851.42,1417.63,871.48,1527.86,945.67,1595.09z"/>
		
			<radialGradient id="SVGID_7_" cx="4091.1082" cy="6462.6963" r="6.0492" gradientTransform="matrix(22.145 -0.1007 -0.1006 -22.1216 -89084.3359 144919.0625)" gradientUnits="userSpaceOnUse">
			<stop  offset="0.034" style="stop-color:#522CD5"/>
			<stop  offset="0.9955" style="stop-color:#8A6FE8"/>
		</radialGradient>
		<path fill="url(#SVGID_7_)" d="M763.92,1622.92l-5.78,37.51c-1.38,7.33,3.45,13.28,10.81,13.25l162.2-0.74
			c6.5-0.03,12.79-5.35,14-11.81l6.81-36.19c1.61-8.57,2.1-16.24-1.03-22.82l-185.86,0.83
			C765.36,1609.61,765.53,1614.39,763.92,1622.92z"/>
		<path fill="#8A6FE8" d="M803.96,455.82l-67.46,27.13l-18.37-73.07l48.43-19.49L803.96,455.82z"/>
		<path fill="#512BD4" d="M788.84,581.95c38.16,0,69.1-30.94,69.1-69.1c0-38.16-30.94-69.1-69.1-69.1s-69.1,30.94-69.1,69.1
			C719.74,551.01,750.68,581.95,788.84,581.95z"/>
		
			<radialGradient id="SVGID_8_" cx="4214.5605" cy="6368.438" r="6.0492" gradientTransform="matrix(61.9498 0 0 -61.9498 -260075.4844 395291.5938)" gradientUnits="userSpaceOnUse">
			<stop  offset="0.4744" style="stop-color:#A08BE8"/>
			<stop  offset="0.8618" style="stop-color:#8065E0"/>
		</radialGradient>
		<path fill="url(#SVGID_8_)" d="M1300.17,939.67c24.86-95.46,8.83-171.66,8.83-171.66h22.45l0.54-0.43
			c-32.16-175.17-185.6-307.91-370.05-307.91c-207.82,0-376.29,168.47-376.29,376.29c0,207.82,168.44,376.29,376.29,376.29
			c163.98,0,303.45-104.92,354.99-251.25C1318.43,954.79,1318.29,943.64,1300.17,939.67z"/>
		<path fill="#D8CFF7" d="M1286.38,1026.53h-648.9c14.57,24.75,31.88,47.66,51.54,68.36h545.85
			C1254.5,1074.17,1271.8,1051.28,1286.38,1026.53z"/>
		
			<radialGradient id="SVGID_9_" cx="4199.6104" cy="6388.9546" r="6.0492" gradientTransform="matrix(48.2581 0 0 -48.2581 -201433.1094 309017.6875)" gradientUnits="userSpaceOnUse">
			<stop  offset="0.0933" style="stop-color:#E1DFDD"/>
			<stop  offset="0.8998" style="stop-color:#FFFFFF"/>
		</radialGradient>
		<path fill="url(#SVGID_9_)" d="M1300.17,939.67c24.55-94.28,9.22-169.73,8.86-171.57H918.6c0,0-24.61-2.5-24.61,19.98
			c0,22.48,0.93,85.94,0.93,156.17c0,14.43,11.81,21.38,21.12,21.38C916.07,965.59,1256.6,965.57,1300.17,939.67z"/>
		<path fill="#A08BE8" d="M1065.02,939.87c0,0,60.05-47.51,71.75-56.31c11.72-8.8,21.96-9.29,32.71,0
			c10.75,9.29,70.85,56.31,70.85,56.31H1065.02z"/>
		<path fill="#512BD4" d="M1315.41,965.33c0,0,10.43-20.06-15.24-25.67c0.03-0.08-383.82-0.28-383.82-0.28
			c-8.93,0-20.43-5.32-21.41-14c0,6.21,0.03,12.47,0.03,18.83c0,13.11,9.75,20.03,18.48,21.18c0.86,0.11,1.75,0.2,2.65,0.2h26.24
			L1315.41,965.33z"/>
		<path fill="#512BD4" d="M1286.53,851.61c0.41-27.33-12.44-49.69-28.69-49.93c-16.25-0.24-29.76,21.72-30.17,49.05
			c-0.41,27.34,12.44,49.69,28.69,49.93C1272.61,900.9,1286.12,878.95,1286.53,851.61z"/>
		<path fill="#8065E0" d="M1256.74,825.01c-10.75,10.75-10.75,28.17,0,38.92c7.36,7.36,17.85,9.69,27.19,6.96
			c1.58-5.89,2.5-12.42,2.62-19.26c0.2-13.39-2.79-25.58-7.82-34.58C1270.88,816.36,1262.75,819,1256.74,825.01z"/>
		<path fill="#512BD4" d="M1020.8,900.92c16.25-0.24,29.1-22.6,28.69-49.93c-0.41-27.33-13.91-49.3-30.17-49.05
			c-16.25,0.24-29.1,22.6-28.69,49.93C991.04,879.19,1004.54,901.16,1020.8,900.92z"/>
		<path fill="#8065E0" d="M1019.83,826.62c-10.75,10.75-10.75,28.17,0,38.92c7.33,7.33,17.74,9.63,27.02,6.98
			c1.78-6.55,2.76-13.85,2.64-21.59c-0.17-12.42-3.07-23.69-7.7-32.28C1033.95,817.97,1025.84,820.61,1019.83,826.62z"/>
		<path fill="#512BD4" d="M1084.82,1115.23l123.17-0.56l-0.5-108.94l-123.17,0.56L1084.82,1115.23z"/>
		<path fill="#FFFFFF" d="M1106.12,1074.51c-0.83,0-1.52-0.26-2.1-0.8c-0.57-0.55-0.86-1.24-0.86-1.98c0-0.77,0.28-1.47,0.86-2.01
			c0.57-0.57,1.26-0.83,2.1-0.83c0.83,0,1.52,0.29,2.1,0.83c0.57,0.54,0.89,1.24,0.89,2.01c0,0.77-0.28,1.43-0.86,1.98
			C1107.68,1074.22,1106.96,1074.51,1106.12,1074.51z"/>
		<path fill="#FFFFFF" d="M1138.89,1073.97h-5.32l-14.08-22.11c-0.34-0.54-0.67-1.15-0.9-1.75h-0.11c0.11,0.63,0.18,2.01,0.18,4.14
			l0.03,19.74h-4.72l-0.05-30.12h5.66l13.6,21.59c0.57,0.89,0.94,1.52,1.12,1.84h0.08c-0.15-0.8-0.2-2.15-0.2-4.05l-0.03-19.4h4.69
			L1138.89,1073.97z"/>
		<path fill="#FFFFFF" d="M1161.83,1073.94l-16.5,0.03l-0.06-30.12l15.84-0.03v4.25l-10.95,0.03l0.03,8.54l10.09-0.03v4.23
			l-10.09,0.03l0.02,8.91l11.61-0.03V1073.94z"/>
		<path fill="#FFFFFF" d="M1185.2,1048.01l-8.45,0.02l0.06,25.87h-4.89l-0.06-25.87l-8.42,0.03v-4.25l21.73-0.06L1185.2,1048.01z"/>
		<path fill="#8A6FE8" d="M529.43,1254.19l40.18,57.34c10.81,15.24,31.93,18.74,47.17,7.94c15.23-10.81,18.74-31.93,7.93-47.14
			l-49.73-69.3L529.43,1254.19z"/>
		<path fill="#8A6FE8" d="M460.13,1232.49L449,1301.65c-2.82,18.43,9.8,35.7,28.28,38.52c18.43,2.82,35.7-9.8,38.52-28.29
			l11.38-70.88L460.13,1232.49z"/>
		<path fill="#8A6FE8" d="M504.99,1240.3l-9.34,69.42c-2.36,18.48,10.75,35.44,29.23,37.8c18.48,2.36,35.44-10.75,37.83-29.23
			l9.6-71.2L504.99,1240.3z"/>
		<path fill="#8A6FE8" d="M442.74,1211.82l-25.09,65.39c-6.58,17.48,2.3,36.99,19.78,43.52c17.48,6.58,36.99-2.3,43.52-19.77
			l25.73-67.06L442.74,1211.82z"/>
		
			<linearGradient id="SVGID_10_" gradientUnits="userSpaceOnUse" x1="-100.864" y1="10345.1621" x2="-100.864" y2="9964.2686" gradientTransform="matrix(1 0 0 -1 694 11204.6914)">
			<stop  offset="0.2495" style="stop-color:#967FE6"/>
			<stop  offset="1" style="stop-color:#8A6FE8"/>
		</linearGradient>
		<path fill="url(#SVGID_10_)" d="M489.3,1240.42c-27.91-57-44.21-154.45,1.78-241.6c27.97-52.92,89.19-120.03,222.28-139.29
			l10.69,73.79c-80.8,11.7-138.52,46.39-167,100.32c-30.84,58.41-22.59,129.43-0.78,174.04L489.3,1240.42z"/>
		
			<radialGradient id="SVGID_11_" cx="3901.9438" cy="6663.5776" r="6.0492" gradientTransform="matrix(11.3989 0 0 -11.3989 -43741.1328 76818.8594)" gradientUnits="userSpaceOnUse">
			<stop  offset="0" style="stop-color:#8065E0"/>
			<stop  offset="1" style="stop-color:#512BD4"/>
		</radialGradient>
		<path fill="url(#SVGID_11_)" d="M738.97,954.1c38.06,0,68.9-30.84,68.9-68.9c0-38.06-30.84-68.9-68.9-68.9
			c-38.06,0-68.9,30.84-68.9,68.9C670.07,923.23,700.92,954.1,738.97,954.1z"/>
		
			<radialGradient id="SVGID_12_" cx="4082.1099" cy="6471.7744" r="6.0492" gradientTransform="matrix(22.7292 0 0 -22.7292 -92278.2188 148252)" gradientUnits="userSpaceOnUse">
			<stop  offset="0" style="stop-color:#8065E0"/>
			<stop  offset="1" style="stop-color:#512BD4"/>
		</radialGradient>
		<path fill="url(#SVGID_12_)" d="M508.62,1277.33c39.09,0,70.77-31.68,70.77-70.77c0-39.09-31.68-70.77-70.77-70.77
			c-39.09,0-70.77,31.68-70.77,70.77C437.85,1245.65,469.55,1277.33,508.62,1277.33z"/>
		<path fill="#D8CFF7" d="M739.68,415.8c-26.24,6.99-53.32-8.39-60.54-34.41c-7.19-26.01,8.22-52.72,34.46-59.7
			c26.24-6.98,53.32,8.39,60.54,34.41C781.36,382.11,765.95,408.78,739.68,415.8z"/>
	</g>
</g>
<g id="bot-base" display="none">
	<g display="inline">
		
			<radialGradient id="SVGID_13_" cx="4214.5605" cy="6368.438" r="6.0492" gradientTransform="matrix(61.9498 0 0 -61.9498 -260075.4844 395291.5938)" gradientUnits="userSpaceOnUse">
			<stop  offset="0.4744" style="stop-color:#A08BE8"/>
			<stop  offset="0.8618" style="stop-color:#8065E0"/>
		</radialGradient>
		<path fill="url(#SVGID_13_)" d="M1300.17,939.67c24.86-95.46,8.83-171.66,8.83-171.66h22.45l0.54-0.43
			c-32.16-175.17-185.6-307.91-370.05-307.91c-207.82,0-376.29,168.47-376.29,376.29c0,207.82,168.44,376.29,376.29,376.29
			c163.98,0,303.45-104.92,354.99-251.25C1318.43,954.79,1318.29,943.64,1300.17,939.67z"/>
		<path fill="#D8CFF7" d="M1286.38,1026.53h-648.9c14.57,24.75,31.88,47.66,51.54,68.36h545.85
			C1254.5,1074.17,1271.8,1051.28,1286.38,1026.53z"/>
		
			<radialGradient id="SVGID_14_" cx="4199.6104" cy="6388.9546" r="6.0492" gradientTransform="matrix(48.2581 0 0 -48.2581 -201433.1094 309017.6875)" gradientUnits="userSpaceOnUse">
			<stop  offset="0.0933" style="stop-color:#E1DFDD"/>
			<stop  offset="0.8998" style="stop-color:#FFFFFF"/>
		</radialGradient>
		<path fill="url(#SVGID_14_)" d="M1300.17,939.67c24.55-94.28,9.22-169.73,8.86-171.57H918.6c0,0-24.61-2.5-24.61,19.98
			c0,22.48,0.93,85.94,0.93,156.17c0,14.43,11.81,21.38,21.12,21.38C916.07,965.59,1256.6,965.57,1300.17,939.67z"/>
		<path fill="#A08BE8" d="M1065.02,939.87c0,0,60.05-47.51,71.75-56.31c11.72-8.8,21.96-9.29,32.71,0
			c10.75,9.29,70.85,56.31,70.85,56.31H1065.02z"/>
		<path fill="#512BD4" d="M1315.41,965.33c0,0,10.43-20.06-15.24-25.67c0.03-0.08-383.82-0.28-383.82-0.28
			c-8.93,0-20.43-5.32-21.41-14c0,6.21,0.03,12.47,0.03,18.83c0,13.11,9.75,20.03,18.48,21.18c0.86,0.11,1.75,0.2,2.65,0.2h26.24
			L1315.41,965.33z"/>
		<path fill="#512BD4" d="M1084.82,1115.23l123.17-0.56l-0.5-108.94l-123.17,0.56L1084.82,1115.23z"/>
		<path fill="#FFFFFF" d="M1106.12,1074.51c-0.83,0-1.52-0.26-2.1-0.8c-0.57-0.55-0.86-1.24-0.86-1.98c0-0.77,0.28-1.47,0.86-2.01
			c0.57-0.57,1.26-0.83,2.1-0.83c0.83,0,1.52,0.29,2.1,0.83c0.57,0.54,0.89,1.24,0.89,2.01c0,0.77-0.28,1.43-0.86,1.98
			C1107.68,1074.22,1106.96,1074.51,1106.12,1074.51z"/>
		<path fill="#FFFFFF" d="M1138.89,1073.97h-5.32l-14.08-22.11c-0.34-0.54-0.67-1.15-0.9-1.75h-0.11c0.11,0.63,0.18,2.01,0.18,4.14
			l0.03,19.74h-4.72l-0.05-30.12h5.66l13.6,21.59c0.57,0.89,0.94,1.52,1.12,1.84h0.08c-0.15-0.8-0.2-2.15-0.2-4.05l-0.03-19.4h4.69
			L1138.89,1073.97z"/>
		<path fill="#FFFFFF" d="M1161.83,1073.94l-16.5,0.03l-0.06-30.12l15.84-0.03v4.25l-10.95,0.03l0.03,8.54l10.09-0.03v4.23
			l-10.09,0.03l0.02,8.91l11.61-0.03V1073.94z"/>
		<path fill="#FFFFFF" d="M1185.2,1048.01l-8.45,0.02l0.06,25.87h-4.89l-0.06-25.87l-8.42,0.03v-4.25l21.73-0.06L1185.2,1048.01z"/>
	</g>
</g>
<g id="asset">
	<g>
		<path fill="#8EE8FC" d="M1049.93,1957.59c-797.66,13.11-902.18-35.69-960.96-300.98c-114.03-514.64,131.85-729.08,28.99-1154.94
			C22.05,104.57,618.31,6.34,1234.04,46.53s707.14,214.33,603.25,554.13c-72.93,238.55-53.58,535.58,80.37,836.86
			S1593.18,1948.66,1049.93,1957.59z"/>
		<path fill="#6FD0C3" d="M1817.91,1123.59c-17.4-90.42-24.53-178.59-22.07-262.91c-168.79-12.65-293.37,42-293.37,42
			s-111.59-53.7-239.12-53.7c-127.53,0-194.68,79.99-386.58,34.37c-135.5-32.22-235.14-51.55-396.54,15.03
			c-129.21,53.3-207.24-4.3-278.98-21.48c-20.55-4.92-45.35-4.73-70.27-1.95c-12.28,82.88-31.22,163.33-46.72,248.64H1817.91z"/>
		<path fill="#64BFAF" d="M1825.83,1161.75c-8.18-36.68-14.67-73.04-19.53-108.96c-38.14-8.72-88.05-16.43-123.9-8.46
			c-66.05,14.68-137.89,63.87-256.85,18.35c-148.6-56.87-240.34-40.36-365.09-12.84c-176.68,38.97-238.5-29.35-355.92-29.35
			c-117.42,0-220.16,45.87-220.16,45.87s-175.11-71.28-385.75-17.31c-7.38,36.83-14.67,74.18-20.99,112.71H1825.83z"/>
		<path fill="#B3AFAB" d="M88.97,1656.61c58.78,265.29,163.3,314.1,960.96,300.98c543.24-8.93,1001.68-218.79,867.73-520.07
			c-42.12-94.74-72.91-189.06-93.06-281.28H78.56C55.02,1297.25,43.98,1453.56,88.97,1656.61z"/>
		<path fill="#9C9894" d="M444.72,1359.87c-18.35,91.73-195.16,117.43-286.9,139.45s-143.1,89.9,119.25,146.77
			c262.35,56.87,293.54-284.37,293.54-284.37L444.72,1359.87z"/>
		<linearGradient id="SVGID_15_" gradientUnits="userSpaceOnUse" x1="1941.1715" y1="1638.4883" x2="743.4283" y2="1638.4883">
			<stop  offset="0.2941" style="stop-color:#B3AFAB"/>
			<stop  offset="0.6604" style="stop-color:#9C9894"/>
		</linearGradient>
		<path fill="url(#SVGID_15_)" d="M1917.66,1437.52c-3.03-6.81-5.97-13.61-8.88-20.41c-335.27-19.11-1009.34-57.22-1051.96-57.22
			c-56.87,0-99.07-1.83-99.07-1.83s-102.74,194.47,242.17,291.71c192.14,54.17,330.19,173.81,414.79,269.17
			C1777.01,1844.18,2019.91,1667.49,1917.66,1437.52z"/>
		<linearGradient id="SVGID_16_" gradientUnits="userSpaceOnUse" x1="326.6782" y1="1316.7736" x2="1320.9785" y2="1316.7736">
			<stop  offset="0.2941" style="stop-color:#B3AFAB"/>
			<stop  offset="0.6604" style="stop-color:#9C9894"/>
		</linearGradient>
		<path fill="url(#SVGID_16_)" d="M1320.98,1282.83c-124.75,27.52-45.87,100.9-45.87,100.9l-783.39-31.19
			c0,0-23.85-62.38-137.6-73.39c-113.75-11.01,148.6-29.35,372.43-29.35s590.75,20.18,590.75,20.18L1320.98,1282.83z"/>
		<path fill="#E6E4E3" d="M1049.93,1957.59c243.75-4.01,470.42-48.47,634.17-123.49c-424.97-10.71-1121.73-67.43-1617.13-304.92
			c4.94,40.45,12.11,82.81,22,127.44C147.76,1921.9,252.27,1970.71,1049.93,1957.59z"/>
		<polygon fill="#45897C" points="392.63,1120.24 366.95,1120.24 370.3,1046.57 387.05,1046.57 		"/>
		<polygon fill="#45897C" points="1640.53,1122.5 1659.41,1122.5 1656.94,1068.33 1644.63,1068.33 		"/>
		<path fill="#57AA9A" d="M279.88,1104.62c0,0-22.33-10.05-48-10.05s-56.93,13.4-56.93,13.4s-18.98-6.7-35.72-29.02
			s-16.74-41.86,6.7-40.74c23.44,1.12,17.86-2.79,20.09-22.88c2.23-20.09,21.21-17.86,32.37-7.81s22.29,6.81,30.7-5.58
			c10.6-15.63,29.58-10.6,31.81,8.93c1.67,14.59,20.43,5.96,39.07,2.23c19.53-3.91,25.69,10.72,10.6,29.58
			c-6.7,8.37-12.07,16.66-2.79,28.47C320.07,1086.76,279.88,1104.62,279.88,1104.62z"/>
		<path fill="#57AA9A" d="M996.07,1107.66c0,0,19.13-11.27,41.14-11.27c22,0,48.79,15.02,48.79,15.02s16.26-7.51,30.61-32.55
			c14.35-25.04,14.35-46.95-5.74-45.7c-20.09,1.25-15.31-3.13-17.22-25.66s-18.18-20.03-27.74-8.76
			c-9.57,11.27-19.1,7.64-26.31-6.26c-9.09-17.53-25.35-11.89-27.27,10.02c-1.43,16.36-17.51,6.68-33.48,2.5
			c-16.74-4.38-22.02,12.02-9.09,33.18c5.74,9.39,10.34,18.68,2.39,31.92C961.63,1087.63,996.07,1107.66,996.07,1107.66z"/>
		<path fill="#57AA9A" d="M1235.26,1098.73c31.74-1.92,59.31-1.52,82-0.12c21.58-13.65,35.93-37.71,35.93-65.13
			c0-42.54-34.48-77.02-77.02-77.02c-42.54,0-77.02,34.48-77.02,77.02C1199.14,1060.98,1213.57,1085.1,1235.26,1098.73z"/>
		<path fill="#57AA9A" d="M1512.93,1100.4c18.74-2.59,35.03-2.05,48.43-0.17c12.75-18.44,21.22-50.95,21.22-88.01
			c0-57.48-20.37-104.08-45.49-104.08c-25.12,0-45.49,46.6-45.49,104.08C1491.6,1049.4,1500.12,1081.99,1512.93,1100.4z"/>
		<path fill="#57AA9A" d="M819.45,1094.68c18.74-2.59,35.03-2.05,48.43-0.17c12.75-18.44,21.22-50.95,21.22-88.01
			c0-57.48-20.37-104.08-45.49-104.08c-25.12,0-45.49,46.6-45.49,104.08C798.11,1043.68,806.64,1076.27,819.45,1094.68z"/>
		<path fill="#45897C" d="M1656.94,1076.53c23.74-1.9,45.14-7.39,52.53-13.13c7.39-5.75-12.31-11.49-12.31-11.49
			s23.8-6.57,33.65-18.88c9.85-12.31-9.03-11.49-9.03-11.49s31.19-27.09,33.65-35.29c2.46-8.21-13.95-3.28-13.95-3.28
			s17.24-15.59,17.24-25.44c0-9.85-18.06-2.46-18.06-2.46s20.52-21.34,20.52-29.55c0-8.21-21.34,0-21.34,0s9.03-13.13,6.57-18.06
			c-2.46-4.92-31.19,5.75-31.19,5.75s23.8-22.98,23.8-29.55s-13.13-6.57-13.13-6.57s16.42-15.59,15.59-24.62
			c-0.82-9.03-24.62,2.46-24.62,2.46s5.75-7.39,4.1-14.77c-1.64-7.39-27.09,3.28-27.09,3.28s8.21-20.52,4.92-27.91
			c-3.28-7.39-13.13,2.46-13.13,2.46s-5.75-24.62-11.49-30.37c-5.75-5.75-18.06,4.1-18.06,4.1s-8.21-16.42-13.95-18.06
			c-5.75-1.64-12.31,20.52-12.31,20.52s-11.49-9.85-15.59-4.1c-4.1,5.75,4.1,27.09,4.1,27.09s-18.88-8.21-18.06-1.64
			s7.94,27.88,7.94,27.88s-15.33-4.08-25.18-7.36c-9.85-3.28,0,21.34,0,21.34s-27.91-0.82-21.34,8.21
			c6.57,9.03,25.44,25.44,25.44,25.44s-20.52-5.75-21.34,1.64c-0.82,7.39,11.49,16.42,11.49,16.42s-23.8,5.75-19.7,16.42
			c4.1,10.67,34.47,14.77,34.47,14.77s-38.58,2.46-32.01,10.67c6.57,8.21,16.42,16.42,16.42,16.42s-15.59-1.64-15.59,9.03
			s19.7,17.24,19.7,17.24s-21.34,4.92-14.77,13.13c6.57,8.21,23.8,15.59,23.8,15.59s-21.34,3.28-14.77,10.67
			c6.57,7.39,29.55,14.77,29.55,14.77s-20.52-3.28-12.31,12.31C1600.31,1075.71,1636.42,1078.17,1656.94,1076.53z"/>
		<path fill="#45897C" d="M370.3,1057.73c-32.29-2.58-61.4-10.05-71.44-17.86c-10.05-7.81,16.74-15.63,16.74-15.63
			s-32.37-8.93-45.77-25.67s12.28-15.63,12.28-15.63s-42.42-36.84-45.77-48c-3.35-11.16,18.98-4.47,18.98-4.47
			s-23.44-21.21-23.44-34.6s24.56-3.35,24.56-3.35s-27.91-29.02-27.91-40.19s29.02,0,29.02,0s-12.28-17.86-8.93-24.56
			c3.35-6.7,42.42,7.81,42.42,7.81s-32.37-31.26-32.37-40.19c0-8.93,17.86-8.93,17.86-8.93s-22.33-21.21-21.21-33.49
			s33.49,3.35,33.49,3.35s-7.81-10.05-5.58-20.09c2.23-10.05,36.84,4.47,36.84,4.47s-11.16-27.91-6.7-37.95
			c4.47-10.05,17.86,3.35,17.86,3.35s7.81-33.49,15.63-41.3c7.81-7.81,24.56,5.58,24.56,5.58s11.16-22.33,18.98-24.56
			s16.74,27.91,16.74,27.91s15.63-13.4,21.21-5.58c5.58,7.81-5.58,36.84-5.58,36.84s25.67-11.16,24.56-2.23
			c-1.12,8.93-23.44,54.7-23.44,54.7s33.49-22.33,46.88-26.79c13.4-4.47,0,29.02,0,29.02s37.95-1.12,29.02,11.16
			c-8.93,12.28-34.6,34.6-34.6,34.6s27.91-7.81,29.02,2.23c1.12,10.05-15.63,22.33-15.63,22.33s32.37,7.81,26.79,22.33
			c-5.58,14.51-46.88,20.09-46.88,20.09s52.46,3.35,43.53,14.51c-8.93,11.16-22.33,22.33-22.33,22.33s21.21-2.23,21.21,12.28
			s-26.79,23.44-26.79,23.44s29.02,6.7,20.09,17.86s-32.37,21.21-32.37,21.21s29.02,4.47,20.09,14.51
			c-8.93,10.05-40.19,20.09-40.19,20.09s27.91-4.47,16.74,16.74C447.32,1056.62,398.21,1059.97,370.3,1057.73z"/>
		<path fill="#45897C" d="M731.81,1104.57c31.74-1.92,59.31-1.52,82-0.12c21.58-13.65,35.93-37.71,35.93-65.13
			c0-42.54-34.48-77.02-77.02-77.02c-42.54,0-77.02,34.48-77.02,77.02C695.7,1066.82,710.12,1090.94,731.81,1104.57z"/>
		<path fill="#57AA9A" d="M553.02,1121.04c0,0,50.76,0,72.62-3.12c21.87-3.12,70.28,2.34,70.28,2.34s26.55-10.15,29.67-17.18
			c3.12-7.03-3.9-16.4-3.9-16.4s13.28-17.96,11.71-29.67c-1.56-11.71-23.43-13.28-23.43-13.28s6.25-26.55-3.9-35.14
			c-10.15-8.59-21.08,1.56-21.08,1.56s4.69-12.49-3.9-15.62c-8.59-3.12-19.52,9.37-19.52,9.37s0-24.21-12.49-28.11
			c-12.49-3.9-35.92,17.18-35.92,17.18s-9.37-21.87-26.55-17.18c-17.18,4.69-12.49,32.02-12.49,32.02s-16.4-18.74-26.55-9.37
			c-10.15,9.37-5.47,21.08-5.47,21.08s-16.98,1.94-19.52,7.03c-7.81,15.62,10.93,28.11,10.93,28.11s-18.74-0.78-19.52,9.37
			c-0.78,10.15,28.11,14.84,28.11,14.84s-8.59,0-17.18,13.28C516.31,1105.42,553.02,1121.04,553.02,1121.04z"/>
		<path fill="#45897C" d="M1502.04,1111.31c0,0-57.55,0-82.34-3.54s-79.68,2.66-79.68,2.66s-30.1-11.51-33.64-19.48
			c-3.54-7.97,4.43-18.59,4.43-18.59s-15.05-20.36-13.28-33.64c1.77-13.28,26.56-15.05,26.56-15.05s-7.08-30.1,4.43-39.84
			c11.51-9.74,23.91,1.77,23.91,1.77s-5.31-14.17,4.43-17.71c9.74-3.54,22.13,10.62,22.13,10.62s0-27.45,14.17-31.87
			c14.17-4.43,40.73,19.48,40.73,19.48s10.62-24.79,30.1-19.48c19.48,5.31,14.17,36.3,14.17,36.3s18.59-21.25,30.1-10.62
			s6.2,23.91,6.2,23.91s19.25,2.2,22.13,7.97c8.85,17.71-12.4,31.87-12.4,31.87s21.25-0.89,22.13,10.62
			c0.89,11.51-31.87,16.82-31.87,16.82s9.74,0,19.48,15.05C1543.65,1093.61,1502.04,1111.31,1502.04,1111.31z"/>
		<path fill="#9C9894" d="M1834.8,1199.5l-712.68-35.72c0,0-24,72.56-186.98,88.19s428.09,5.58,428.09,5.58
			c78.7,80.37,328.74,141.77,328.74,141.77l195.78-33.88C1866.26,1309.71,1848.66,1254.28,1834.8,1199.5z"/>
		<path fill="#E6E4E3" d="M1878.94,1341.99c-114.39,19.35-296.51,38.69-577.66,35c-511.25-6.7-540.28-80.37-781.39-51.35
			c-92.19,11.1-138.42,100.46,64.74,82.6c178.84-15.72,868.29,34.11,1327.97,240.8c34.82-63.3,39.35-134.41,5.07-211.52
			C1903.47,1405.61,1890.58,1373.74,1878.94,1341.99z"/>
		<path fill="#E6E4E3" d="M58.94,1338.86c240.42-48.91,771.93-111.93,1193.22-54.52c112.38,15.31,158.35-42.18,52.46-51.91
			c-206.51-18.98-718.52-16.93-779.72-30.7c-44.65-10.05-17.44-24.62,76.46-31.26c331.53-23.44,982.88,18.42,1253.13,99.16
			c-13.89-44.98-25.24-89.63-34.17-133.77H82.06C70.8,1199.66,61.71,1266.32,58.94,1338.86z"/>
		<path fill="#33D5F9" d="M1867.12,328.31c-35.26-163.71-210.93-254.24-633.08-281.79C635.92,7.49,56.18,99.07,111.42,468.33
			C629.35,122.1,1086.61,135.66,939.6,191.87c-151.81,58.05-38.96,68.8,276.84,13.4C1495.3,156.35,1813.3,268.87,1867.12,328.31z"/>
	</g>
</g>
</svg>
