<?xml version="1.0" encoding="utf-8"?>
<!-- Generator: Adobe Illustrator 26.0.0, SVG Export Plug-In . SVG Version: 6.00 Build 0)  -->
<svg version="1.1" id="asset" xmlns="http://www.w3.org/2000/svg" xmlns:xlink="http://www.w3.org/1999/xlink" x="0px" y="0px"
	 viewBox="0 0 2000 2000" style="enable-background:new 0 0 2000 2000;" xml:space="preserve">
<style type="text/css">
	.st0{fill:#2B0B98;}
	.st1{fill:#D600AA;}
	.st2{fill:#5424D0;}
	.st3{fill:#FFBE46;}
	.st4{fill:url(#SVGID_1_);}
	.st5{fill:url(#SVGID_00000107547042203343842350000001112877792057189796_);}
	.st6{fill:url(#SVGID_00000136384103188669281260000015148784322546839712_);}
	.st7{fill:url(#SVGID_00000136375774914885189440000009919223515528598974_);}
	.st8{fill:url(#SVGID_00000136410865543347408470000014912245814406999996_);}
	.st9{fill:url(#SVGID_00000003079383733365829100000001731173076961736347_);}
</style>
<g>
	<path class="st0" d="M85.91,533.34c126.46,304.5,138.46,601.92,59.62,838.58c-112.27,337.14-25.16,513.49,589.34,568.92
		s1213.06-28,1127-427.37c-92.29-428.27,158.83-636.56,57.58-1153.87c-30.41-155.38-155.28-250.59-349.77-287.19
		s-704.64-57.17-1023.31,0S-5.74,312.66,85.91,533.34z"/>
	<path class="st1" d="M442.84,230.93c10.38,0,18.8-8.42,18.8-18.8s-8.42-18.8-18.8-18.8c-10.38,0-18.8,8.42-18.8,18.8
		S432.45,230.93,442.84,230.93z"/>
	<path class="st2" d="M966.92,212.13c10.38,0,18.8-8.42,18.8-18.8s-8.42-18.8-18.8-18.8s-18.8,8.42-18.8,18.8
		S956.53,212.13,966.92,212.13z"/>
	<path class="st1" d="M747.84,237.04c10.38,0,18.8-8.42,18.8-18.8s-8.42-18.8-18.8-18.8s-18.8,8.42-18.8,18.8
		S737.46,237.04,747.84,237.04z"/>
	<path class="st3" d="M609.49,161.36c10.38,0,18.8-8.42,18.8-18.8s-8.42-18.8-18.8-18.8s-18.8,8.42-18.8,18.8
		S599.11,161.36,609.49,161.36z"/>
	<path class="st2" d="M1502.2,200.79c10.38,0,18.8-8.42,18.8-18.8s-8.42-18.8-18.8-18.8s-18.8,8.42-18.8,18.8
		S1491.82,200.79,1502.2,200.79z"/>
	<path class="st3" d="M1699.09,399.59c10.38,0,18.8-8.42,18.8-18.8s-8.42-18.8-18.8-18.8s-18.8,8.42-18.8,18.8
		S1688.71,399.59,1699.09,399.59z"/>
	<path class="st3" d="M531.38,299.45c6.26,0,11.33-5.07,11.33-11.33c0-6.26-5.08-11.33-11.33-11.33c-6.26,0-11.33,5.07-11.33,11.33
		C520.04,294.38,525.12,299.45,531.38,299.45z"/>
	<path class="st3" d="M862.93,146.43c6.26,0,11.33-5.08,11.33-11.33c0-6.26-5.07-11.33-11.33-11.33s-11.33,5.07-11.33,11.33
		C851.59,141.35,856.67,146.43,862.93,146.43z"/>
	<path class="st1" d="M1221.32,212.13c6.26,0,11.33-5.07,11.33-11.33s-5.07-11.33-11.33-11.33s-11.34,5.07-11.34,11.33
		C1209.98,207.05,1215.06,212.13,1221.32,212.13z"/>
	<path class="st3" d="M1273.42,157.76c6.26,0,11.34-5.08,11.34-11.33c0-6.26-5.08-11.33-11.34-11.33s-11.33,5.07-11.33,11.33
		C1262.09,152.69,1267.16,157.76,1273.42,157.76z"/>
	<path class="st1" d="M1403.45,155.03c6.26,0,11.34-5.07,11.34-11.33s-5.08-11.33-11.34-11.33s-11.33,5.07-11.33,11.33
		C1392.12,149.96,1397.19,155.03,1403.45,155.03z"/>
	<path class="st1" d="M1582.46,288.12c6.26,0,11.34-5.07,11.34-11.33c0-6.26-5.08-11.33-11.34-11.33c-6.25,0-11.33,5.07-11.33,11.33
		S1576.21,288.12,1582.46,288.12z"/>
	<path class="st1" d="M1804.59,276.79c6.26,0,11.34-5.08,11.34-11.33c0-6.26-5.08-11.33-11.34-11.33s-11.33,5.07-11.33,11.33
		C1793.26,271.71,1798.33,276.79,1804.59,276.79z"/>
	<path class="st2" d="M362.07,422.26c6.26,0,11.33-5.07,11.33-11.33s-5.07-11.33-11.33-11.33c-6.26,0-11.33,5.08-11.33,11.33
		S355.81,422.26,362.07,422.26z"/>
	<path class="st3" d="M224.4,337.05c6.26,0,11.33-5.08,11.33-11.33c0-6.26-5.07-11.33-11.33-11.33s-11.33,5.07-11.33,11.33
		C213.07,331.98,218.15,337.05,224.4,337.05z"/>
	<path class="st1" d="M1097.7,116.04c6.26,0,11.33-5.07,11.33-11.33s-5.07-11.33-11.33-11.33s-11.34,5.07-11.34,11.33
		C1086.36,110.96,1091.44,116.04,1097.7,116.04z"/>
	<path class="st1" d="M112.06,451.06c8.65,0,15.67-7.01,15.67-15.67c0-8.65-7.02-15.67-15.67-15.67s-15.67,7.01-15.67,15.67
		S103.41,451.06,112.06,451.06z"/>
	
		<linearGradient id="SVGID_1_" gradientUnits="userSpaceOnUse" x1="121.6576" y1="-14519.7861" x2="638.2346" y2="-13362.3984" gradientTransform="matrix(1 0 0 1 564 15433.0703)">
		<stop  offset="0" style="stop-color:#D600AA"/>
		<stop  offset="1" style="stop-color:#512BD4"/>
	</linearGradient>
	<path class="st4" d="M111.54,1501.14c-44.65,253.78,92.71,391.84,623.33,439.7c614.54,55.42,1213.06-28,1127-427.37
		c-0.56-2.57-1.09-5.13-1.62-7.68C1583.63,1492.76,606.06,1452.05,111.54,1501.14z"/>
	
		<linearGradient id="SVGID_00000126292185251562003970000014030225046450625702_" gradientUnits="userSpaceOnUse" x1="-348.4877" y1="-14637.04" x2="-241.8917" y2="-14634.0303" gradientTransform="matrix(1 0 0 1 564 15433.0703)">
		<stop  offset="0" style="stop-color:#D600AA"/>
		<stop  offset="1" style="stop-color:#512BD4"/>
	</linearGradient>
	<path style="fill:url(#SVGID_00000126292185251562003970000014030225046450625702_);" d="M275.37,162.61
		c-19.73,117.79-30.9,262.9,7.31,359.28c74,186.54-61,231.78-8.82,425.73s-35.08,321.62-4.49,387.66s0,114.47,0,114.47h14.82
		c0,0,38.56-65.49,13.57-116.67s41.91-244.35,1.11-397.9s50.75-229.12,6.7-419.83c-26.17-113.28-16.05-254.37,2-368.92
		C296.51,151.63,285.78,157.03,275.37,162.61z"/>
	
		<linearGradient id="SVGID_00000073681614733951363290000014518180326395713208_" gradientUnits="userSpaceOnUse" x1="-450.8922" y1="-14613.4746" x2="-335.0462" y2="-14609.6748" gradientTransform="matrix(1 0 0 1 564 15433.0703)">
		<stop  offset="0" style="stop-color:#D600AA"/>
		<stop  offset="1" style="stop-color:#512BD4"/>
	</linearGradient>
	<path style="fill:url(#SVGID_00000073681614733951363290000014518180326395713208_);" d="M207.43,1432.92
		c0,0-13.06-50.63-4.35-134.29c8.71-83.66,45.68-323.6-4.35-570.16c-32.84-161.76-14.36-351.2-1.31-516.34
		c-10.38,7.86-20.23,15.96-29.54,24.31c-10.6,153.57-17.33,343,9.09,476.65c39.28,198.72,31.67,224,18.06,338.59
		c0.16,60.99-4.88,121.87-15.06,182c-5.08,137.36,10.05,197.12,10.05,197.12L207.43,1432.92z"/>
	
		<linearGradient id="SVGID_00000097465007309435665590000004381192161556975290_" gradientUnits="userSpaceOnUse" x1="1142.7817" y1="-14656.8047" x2="1232.8417" y2="-14654.6348" gradientTransform="matrix(1 0 0 1 564 15433.0703)">
		<stop  offset="0" style="stop-color:#D600AA"/>
		<stop  offset="1" style="stop-color:#512BD4"/>
	</linearGradient>
	<path style="fill:url(#SVGID_00000097465007309435665590000004381192161556975290_);" d="M1760.37,519.52
		c6.09-81.14,9-246,7.23-375.25c-6.67-4.11-13.49-8.07-20.48-11.9c2.49,130.63-1.45,292.29-4.7,395.4
		c-4.9,155.2,44,194.83,16.32,473.85s9.79,421,9.79,421h14.68c0,0-29.37-222.89,1.63-417.71
		C1815.84,810.09,1750.54,649.92,1760.37,519.52z"/>
	
		<linearGradient id="SVGID_00000100345526919520053870000009968592341217360256_" gradientUnits="userSpaceOnUse" x1="1229.1177" y1="-14730.9248" x2="1319.1477" y2="-14728.0439" gradientTransform="matrix(1 0 0 1 564 15433.0703)">
		<stop  offset="0" style="stop-color:#D600AA"/>
		<stop  offset="1" style="stop-color:#512BD4"/>
	</linearGradient>
	<path style="fill:url(#SVGID_00000100345526919520053870000009968592341217360256_);" d="M1862.92,1031.05
		c-27.74-279,21.21-318.66,16.32-473.86c-2.58-81.9-5.6-200.76-5.48-311.66c-6.2-9.46-12.92-18.57-20.12-27.29
		c-0.68,120.56,2.24,258.64,7.65,330.7c9.79,130.43-55.48,290.58-24.47,485.41c8.18,51.41,12.15,104.77,13.57,155.47
		c4.63-34.3,10.67-67.92,17.49-101.36C1866.53,1070.01,1864.88,1050.87,1862.92,1031.05z"/>
	
		<linearGradient id="SVGID_00000008835628664972979830000011947757633694880187_" gradientUnits="userSpaceOnUse" x1="985.89" y1="-14664.9932" x2="1096.4897" y2="-14661.9326" gradientTransform="matrix(1 0 0 1 564 15433.0703)">
		<stop  offset="0" style="stop-color:#D600AA"/>
		<stop  offset="1" style="stop-color:#512BD4"/>
	</linearGradient>
	<path style="fill:url(#SVGID_00000008835628664972979830000011947757633694880187_);" d="M1618.88,755.26
		c-50,246.56-13,486.51-4.35,570.16c8.65,83.65-4.35,134.29-4.35,134.29l17.4-2.2c0,0,21.76-85.86,4.35-288.39
		s-39.16-187.12,8.7-429.27c33.26-168.26,4.68-486.53-9.38-653.25c-9.02-2.49-18.22-4.83-27.6-7
		C1614.86,268.02,1658.09,562.03,1618.88,755.26z"/>
</g>
</svg>
