<?xml version="1.0" encoding="utf-8"?>
<!-- Generator: Adobe Illustrator 26.0.0, SVG Export Plug-In . SVG Version: 6.00 Build 0)  -->
<svg version="1.1" id="asset" xmlns="http://www.w3.org/2000/svg" xmlns:xlink="http://www.w3.org/1999/xlink" x="0px" y="0px"
	 viewBox="0 0 2000 2000" enable-background="new 0 0 2000 2000" xml:space="preserve">
<g>
	<path fill="#2B0B98" d="M85.9,533.3c126.5,304.5,138.5,601.9,59.6,838.6c-112.3,337.1-25.2,513.5,589.3,568.9s1213.1-28,1127-427.4
		c-92.3-428.3,158.8-636.6,57.6-1153.9C1889,204.2,1764.2,109,1569.7,72.4S865,15.2,546.4,72.4S-5.7,312.7,85.9,533.3z"/>
	<path fill="#D600AA" d="M442.8,230.9c10.4,0,18.8-8.4,18.8-18.8s-8.4-18.8-18.8-18.8c-10.4,0-18.8,8.4-18.8,18.8
		S432.5,230.9,442.8,230.9z"/>
	<path fill="#5424D0" d="M966.9,212.1c10.4,0,18.8-8.4,18.8-18.8s-8.4-18.8-18.8-18.8s-18.8,8.4-18.8,18.8S956.5,212.1,966.9,212.1z
		"/>
	<path fill="#D600AA" d="M747.8,237c10.4,0,18.8-8.4,18.8-18.8s-8.4-18.8-18.8-18.8s-18.8,8.4-18.8,18.8S737.5,237,747.8,237z"/>
	<path fill="#FFBE46" d="M609.5,161.4c10.4,0,18.8-8.4,18.8-18.8s-8.4-18.8-18.8-18.8s-18.8,8.4-18.8,18.8S599.1,161.4,609.5,161.4z
		"/>
	<path fill="#5424D0" d="M1502.2,200.8c10.4,0,18.8-8.4,18.8-18.8s-8.4-18.8-18.8-18.8s-18.8,8.4-18.8,18.8
		S1491.8,200.8,1502.2,200.8z"/>
	<path fill="#FFBE46" d="M1699.1,399.6c10.4,0,18.8-8.4,18.8-18.8s-8.4-18.8-18.8-18.8s-18.8,8.4-18.8,18.8
		S1688.7,399.6,1699.1,399.6z"/>
	<path fill="#FFBE46" d="M531.4,299.5c6.3,0,11.3-5.1,11.3-11.3c0-6.3-5.1-11.3-11.3-11.3c-6.3,0-11.3,5.1-11.3,11.3
		C520,294.4,525.1,299.5,531.4,299.5z"/>
	<path fill="#FFBE46" d="M862.9,146.4c6.3,0,11.3-5.1,11.3-11.3c0-6.3-5.1-11.3-11.3-11.3s-11.3,5.1-11.3,11.3
		C851.6,141.4,856.7,146.4,862.9,146.4z"/>
	<path fill="#D600AA" d="M1221.3,212.1c6.3,0,11.3-5.1,11.3-11.3s-5.1-11.3-11.3-11.3s-11.3,5.1-11.3,11.3
		C1210,207.1,1215.1,212.1,1221.3,212.1z"/>
	<path fill="#FFBE46" d="M1273.4,157.8c6.3,0,11.3-5.1,11.3-11.3c0-6.3-5.1-11.3-11.3-11.3s-11.3,5.1-11.3,11.3
		C1262.1,152.7,1267.2,157.8,1273.4,157.8z"/>
	<path fill="#D600AA" d="M1403.4,155c6.3,0,11.3-5.1,11.3-11.3s-5.1-11.3-11.3-11.3s-11.3,5.1-11.3,11.3
		C1392.1,150,1397.2,155,1403.4,155z"/>
	<path fill="#D600AA" d="M1582.5,288.1c6.3,0,11.3-5.1,11.3-11.3c0-6.3-5.1-11.3-11.3-11.3c-6.2,0-11.3,5.1-11.3,11.3
		S1576.2,288.1,1582.5,288.1z"/>
	<path fill="#D600AA" d="M1804.6,276.8c6.3,0,11.3-5.1,11.3-11.3c0-6.3-5.1-11.3-11.3-11.3s-11.3,5.1-11.3,11.3
		C1793.3,271.7,1798.3,276.8,1804.6,276.8z"/>
	<path fill="#5424D0" d="M362.1,422.3c6.3,0,11.3-5.1,11.3-11.3s-5.1-11.3-11.3-11.3c-6.3,0-11.3,5.1-11.3,11.3
		S355.8,422.3,362.1,422.3z"/>
	<path fill="#FFBE46" d="M224.4,337c6.3,0,11.3-5.1,11.3-11.3c0-6.3-5.1-11.3-11.3-11.3s-11.3,5.1-11.3,11.3
		C213.1,332,218.1,337,224.4,337z"/>
	<path fill="#D600AA" d="M1097.7,116c6.3,0,11.3-5.1,11.3-11.3s-5.1-11.3-11.3-11.3s-11.3,5.1-11.3,11.3
		C1086.4,111,1091.4,116,1097.7,116z"/>
	<path fill="#D600AA" d="M112.1,451.1c8.7,0,15.7-7,15.7-15.7c0-8.6-7-15.7-15.7-15.7s-15.7,7-15.7,15.7S103.4,451.1,112.1,451.1z"
		/>
	
		<linearGradient id="SVGID_1_" gradientUnits="userSpaceOnUse" x1="121.6576" y1="16519.7871" x2="638.2347" y2="15362.3984" gradientTransform="matrix(1 0 0 -1 564 17433.0703)">
		<stop  offset="0" style="stop-color:#D600AA"/>
		<stop  offset="1" style="stop-color:#512BD4"/>
	</linearGradient>
	<path fill="url(#SVGID_1_)" d="M111.5,1501.1c-44.7,253.8,92.7,391.8,623.3,439.7c614.5,55.4,1213.1-28,1127-427.4
		c-0.6-2.6-1.1-5.1-1.6-7.7C1583.6,1492.8,606.1,1452.1,111.5,1501.1z"/>
	
		<linearGradient id="SVGID_00000026139893847918980970000011538406950331624602_" gradientUnits="userSpaceOnUse" x1="-348.4877" y1="16637.041" x2="-241.8917" y2="16634.0312" gradientTransform="matrix(1 0 0 -1 564 17433.0703)">
		<stop  offset="0" style="stop-color:#D600AA"/>
		<stop  offset="1" style="stop-color:#512BD4"/>
	</linearGradient>
	<path fill="url(#SVGID_00000026139893847918980970000011538406950331624602_)" d="M275.4,162.6c-19.7,117.8-30.9,262.9,7.3,359.3
		c74,186.5-61,231.8-8.8,425.7s-35.1,321.6-4.5,387.7s0,114.5,0,114.5h14.8c0,0,38.6-65.5,13.6-116.7s41.9-244.3,1.1-397.9
		s50.8-229.1,6.7-419.8c-26.2-113.3-16-254.4,2-368.9C296.5,151.6,285.8,157,275.4,162.6z"/>
	
		<linearGradient id="SVGID_00000060718060953868748660000005537393524010998970_" gradientUnits="userSpaceOnUse" x1="-450.8922" y1="16613.4746" x2="-335.0462" y2="16609.6758" gradientTransform="matrix(1 0 0 -1 564 17433.0703)">
		<stop  offset="0" style="stop-color:#D600AA"/>
		<stop  offset="1" style="stop-color:#512BD4"/>
	</linearGradient>
	<path fill="url(#SVGID_00000060718060953868748660000005537393524010998970_)" d="M207.4,1432.9c0,0-13.1-50.6-4.4-134.3
		c8.7-83.7,45.7-323.6-4.4-570.2c-32.8-161.8-14.4-351.2-1.3-516.3c-10.4,7.9-20.2,16-29.5,24.3c-10.6,153.6-17.3,343,9.1,476.6
		c39.3,198.7,31.7,224,18.1,338.6c0.2,61-4.9,121.9-15.1,182c-5.1,137.4,10.1,197.1,10.1,197.1L207.4,1432.9z"/>
	
		<linearGradient id="SVGID_00000045586091963005049830000001390649468184152253_" gradientUnits="userSpaceOnUse" x1="1142.7817" y1="16656.8047" x2="1232.8417" y2="16654.6348" gradientTransform="matrix(1 0 0 -1 564 17433.0703)">
		<stop  offset="0" style="stop-color:#D600AA"/>
		<stop  offset="1" style="stop-color:#512BD4"/>
	</linearGradient>
	<path fill="url(#SVGID_00000045586091963005049830000001390649468184152253_)" d="M1760.4,519.5c6.1-81.1,9-246,7.2-375.2
		c-6.7-4.1-13.5-8.1-20.5-11.9c2.5,130.6-1.4,292.3-4.7,395.4c-4.9,155.2,44,194.8,16.3,473.8s9.8,421,9.8,421h14.7
		c0,0-29.4-222.9,1.6-417.7C1815.8,810.1,1750.5,649.9,1760.4,519.5z"/>
	
		<linearGradient id="SVGID_00000163765933027240837560000004283437843696253575_" gradientUnits="userSpaceOnUse" x1="1229.1177" y1="16730.9258" x2="1319.1477" y2="16728.0449" gradientTransform="matrix(1 0 0 -1 564 17433.0703)">
		<stop  offset="0" style="stop-color:#D600AA"/>
		<stop  offset="1" style="stop-color:#512BD4"/>
	</linearGradient>
	<path fill="url(#SVGID_00000163765933027240837560000004283437843696253575_)" d="M1862.9,1031.1c-27.7-279,21.2-318.7,16.3-473.9
		c-2.6-81.9-5.6-200.8-5.5-311.7c-6.2-9.5-12.9-18.6-20.1-27.3c-0.7,120.6,2.2,258.6,7.7,330.7c9.8,130.4-55.5,290.6-24.5,485.4
		c8.2,51.4,12.2,104.8,13.6,155.5c4.6-34.3,10.7-67.9,17.5-101.4C1866.5,1070,1864.9,1050.9,1862.9,1031.1z"/>
	
		<linearGradient id="SVGID_00000098906139858297535310000013856619794721273501_" gradientUnits="userSpaceOnUse" x1="985.89" y1="16664.9941" x2="1096.4897" y2="16661.9336" gradientTransform="matrix(1 0 0 -1 564 17433.0703)">
		<stop  offset="0" style="stop-color:#D600AA"/>
		<stop  offset="1" style="stop-color:#512BD4"/>
	</linearGradient>
	<path fill="url(#SVGID_00000098906139858297535310000013856619794721273501_)" d="M1618.9,755.3c-50,246.6-13,486.5-4.3,570.2
		c8.7,83.7-4.3,134.3-4.3,134.3l17.4-2.2c0,0,21.8-85.9,4.3-288.4s-39.2-187.1,8.7-429.3c33.3-168.3,4.7-486.5-9.4-653.2
		c-9-2.5-18.2-4.8-27.6-7C1614.9,268,1658.1,562,1618.9,755.3z"/>
</g>
</svg>
