<?xml version="1.0" encoding="utf-8"?>
<!-- Generator: Adobe Illustrator 24.2.0, SVG Export Plug-In . SVG Version: 6.00 Build 0)  -->
<svg version="1.1" id="asset" xmlns="http://www.w3.org/2000/svg" xmlns:xlink="http://www.w3.org/1999/xlink" x="0px" y="0px"
	 viewBox="0 0 2000 2000" enable-background="new 0 0 2000 2000" xml:space="preserve">
<g>
	<path fill="#F8B84F" d="M1196.7,559.4L1196.7,559.4l-0.3,0.3l-0.2,0.2c-36.3,34.6-146.4,80.1-280.9,113.2
		c-131.1,32.3-247.2,43.5-297.6,31.3h-0.1c-2.7-0.7-5.2-1.4-7.5-2.2l0,0c-10.6-3.6-17-8.7-18.7-15.1l-5.7-11L506,523.6
		c-3.1-6,4.7-11.6,9.4-6.8l79.9,82.6c3.6,3.7,9.4,3.8,13.1,0.2c1.6-1.5,2.6-3.6,2.8-5.8l16.8-190c0.3-3.2,3.1-5.6,6.3-5.3
		c1.6,0.1,3,0.9,4,2.1L763,554.2c3.2,4,9,4.6,13,1.4c1.7-1.4,2.8-3.3,3.2-5.4l42.1-209.8c0.6-3.2,3.7-5.2,6.9-4.6
		c1.3,0.3,2.6,1,3.4,2.1l133.1,167.4c3.2,4,9,4.7,13,1.5c1.7-1.4,2.9-3.3,3.3-5.4l39.3-196.2c0.6-3.2,3.7-5.2,6.9-4.6
		c1.6,0.3,3,1.3,3.8,2.7l103.3,167.7c2.7,4.4,8.3,5.7,12.7,3.1c1.8-1.1,3.2-2.8,3.9-4.8l45.8-127.5c2.2-6.1,11.3-4.6,11.3,2
		l0.4,174.8V535C1210.3,542.1,1206.1,550.4,1196.7,559.4z"/>
	<polygon fill="#E86E58" points="1062.8,480.2 1033.3,455.4 1049.2,420.3 1078.7,445.1 	"/>
	<polygon fill="#CC5444" points="1049.2,420.3 1056,450.3 1078.7,445.1 	"/>
	<polygon fill="#CC5444" points="1033.3,455.4 1056,450.3 1062.8,480.2 	"/>
	<polygon fill="#E86E58" points="871.8,528.6 842.3,503.8 858.2,468.7 887.7,493.5 	"/>
	<polygon fill="#CC5444" points="858.2,468.7 865,498.6 887.7,493.5 	"/>
	<polygon fill="#CC5444" points="842.3,503.8 865,498.6 871.8,528.6 	"/>
	<polygon fill="#E86E58" points="684.2,578.1 654.7,553.3 670.6,518.2 700.1,543 	"/>
	<polygon fill="#CC5444" points="670.6,518.2 677.4,548.2 700.1,543 	"/>
	<polygon fill="#CC5444" points="654.7,553.3 677.4,548.2 684.2,578.1 	"/>
	<polygon fill="#E86E58" points="563.8,634.3 541,609.1 534.4,578 563.5,603 	"/>
	<polygon fill="#CC5444" points="534.4,578 541,609.1 563.5,603 	"/>
	<polygon fill="#E86E58" points="1208.3,406.2 1200.9,438.8 1208.5,469.8 1223.9,434.6 	"/>
	<polygon fill="#CC5444" points="1208.5,469.8 1200.9,438.8 1223.9,434.6 	"/>
	<polygon fill="#227BE5" points="911.7,529.2 902.6,531.6 896,525 898.4,516 907.4,513.5 914.1,520.1 	"/>
	<polygon fill="#0064DA" points="905,522.6 898.4,516 907.4,513.5 	"/>
	<polygon fill="#0064DA" points="896,525 905,522.6 902.6,531.6 	"/>
	<polygon fill="#0064DA" points="911.7,529.2 905,522.6 914.1,520.1 	"/>
	<polygon fill="#227BE5" points="848.2,547.3 839.1,549.7 832.5,543.2 834.9,534.1 843.9,531.6 850.5,538.2 	"/>
	<polygon fill="#0064DA" points="841.5,540.7 834.9,534.1 843.9,531.6 	"/>
	<polygon fill="#0064DA" points="832.5,543.2 841.5,540.7 839.1,549.7 	"/>
	<polygon fill="#0064DA" points="848.2,547.3 841.5,540.7 850.5,538.2 	"/>
	<polygon fill="#227BE5" points="1102.4,485.3 1093.2,486.8 1087.3,479.5 1090.6,470.8 1099.8,469.3 1105.8,476.5 	"/>
	<polygon fill="#0064DA" points="1096.5,478 1090.6,470.8 1099.8,469.3 	"/>
	<polygon fill="#0064DA" points="1087.3,479.5 1096.5,478 1093.2,486.8 	"/>
	<polygon fill="#0064DA" points="1102.4,485.3 1096.5,478 1105.8,476.5 	"/>
	<polygon fill="#227BE5" points="1037.3,496.5 1028.1,498 1022.2,490.8 1025.5,482 1034.8,480.5 1040.7,487.8 	"/>
	<polygon fill="#0064DA" points="1031.4,489.3 1025.5,482 1034.8,480.5 	"/>
	<polygon fill="#0064DA" points="1022.2,490.8 1031.4,489.3 1028.1,498 	"/>
	<polygon fill="#0064DA" points="1037.3,496.5 1031.4,489.3 1040.7,487.8 	"/>
	<polygon fill="#227BE5" points="723.8,579.5 714.7,582 708.1,575.4 710.4,566.3 719.5,563.8 726.1,570.4 	"/>
	<polygon fill="#0064DA" points="717.1,572.9 710.4,566.3 719.5,563.8 	"/>
	<polygon fill="#0064DA" points="708.1,575.4 717.1,572.9 714.7,582 	"/>
	<polygon fill="#0064DA" points="723.8,579.5 717.1,572.9 726.1,570.4 	"/>
	<polygon fill="#227BE5" points="660.2,597.6 651.2,600.1 644.5,593.5 646.9,584.4 656,582 662.6,588.5 	"/>
	<polygon fill="#0064DA" points="653.6,591 646.9,584.4 656,582 	"/>
	<polygon fill="#0064DA" points="644.5,593.5 653.6,591 651.2,600.1 	"/>
	<polygon fill="#0064DA" points="660.2,597.6 653.6,591 662.6,588.5 	"/>
	<polygon fill="#227BE5" points="587.5,631.8 578.5,634.3 571.8,627.7 574.2,618.7 583.2,616.2 589.9,622.8 	"/>
	<polygon fill="#0064DA" points="580.9,625.3 574.2,618.7 583.2,616.2 	"/>
	<polygon fill="#0064DA" points="571.8,627.7 580.9,625.3 578.5,634.3 	"/>
	<polygon fill="#0064DA" points="587.5,631.8 580.9,625.3 589.9,622.8 	"/>
	<polygon fill="#227BE5" points="1197.8,476.4 1188.8,478.8 1182.2,472.2 1184.6,463.2 1193.6,460.7 1200.2,467.3 	"/>
	<polygon fill="#0064DA" points="1191.2,469.8 1184.6,463.2 1193.6,460.7 	"/>
	<polygon fill="#0064DA" points="1182.2,472.2 1191.2,469.8 1188.8,478.8 	"/>
	<polygon fill="#0064DA" points="1197.8,476.4 1191.2,469.8 1200.2,467.3 	"/>
	<path fill="#CC5444" d="M1214.9,534.2c-1.8,12.3-12.3,20-18.2,25.2l0,0c-0.1,0.1-0.2,0.2-0.3,0.3l-0.2,0.2
		c-36.3,34.6-146.4,80.1-280.9,113.2c-131.1,32.3-247.2,43.5-297.6,31.3h-0.1l-7.4-2.1H610c-1.3-0.2-22.6-3.3-24.4-18
		c-1-8.4,0-8.1,0-8.1l0.6-0.1c63.7,5.8,178.4-6.2,306-34.7c148.7-33.2,270.6-78.7,310.7-113.2l0.2-0.2c0.1-0.1,0.2-0.2,0.3-0.3l0,0
		c2.4-1.9,3-2.2,5-5.3C1214.8,522.9,1215.9,527.3,1214.9,534.2z"/>
</g>
</svg>
