<?xml version="1.0" encoding="utf-8"?>
<!-- Generator: Adobe Illustrator 24.2.0, SVG Export Plug-In . SVG Version: 6.00 Build 0)  -->
<svg version="1.1" id="Layer_1" xmlns="http://www.w3.org/2000/svg" xmlns:xlink="http://www.w3.org/1999/xlink" x="0px" y="0px"
	 viewBox="0 0 2000 2000" enable-background="new 0 0 2000 2000" xml:space="preserve">
<g id="ghost-image" display="none">
	<g display="inline" opacity="0.5">
		<path fill="#8A6FE8" d="M1469,1134.6c-57.7-4.7-181.3-73.8-228.1-150.4c-28.4-46.5,24.8-83.6,53.8-36.2
			c31.4,51.3,134.8,115.2,179.9,118.9L1469,1134.6z"/>
		<path fill="#8A6FE8" d="M1525,1005.7l-88.7,33.7c-15.8,6-23.7,23.7-17.8,39.5c6,15.8,23.7,23.7,39.5,17.8l88.7-33.7
			c15.8-6,23.7-23.7,17.8-39.5C1558.6,1007.6,1540.8,999.6,1525,1005.7z"/>
		<path fill="#8A6FE8" d="M1416.4,1155.1l37.8,51.4c10.2,13.6,29.4,16.4,43.1,6.3c13.6-10.2,16.4-29.4,6.3-43.1l-38.8-52.7
			L1416.4,1155.1z"/>
		<path fill="#8A6FE8" d="M1450.7,1158.2l76.8,42.9c14.9,8.2,33.6,2.9,41.8-12c8.2-14.8,2.9-33.6-12-41.8l-57-32.1L1450.7,1158.2z"
			/>
		<path fill="#8A6FE8" d="M1460.3,1121.8l84.6,24.4c16.3,4.7,33.4-4.7,38.2-21c4.7-16.3-4.7-33.4-21-38.2l-86.2-24.9L1460.3,1121.8z
			"/>
		
			<radialGradient id="SVGID_1_" cx="3066.5642" cy="9374.5791" r="6.0461" gradientTransform="matrix(10.6515 0 0 -10.6515 -31211.9082 100957.125)" gradientUnits="userSpaceOnUse">
			<stop  offset="0" style="stop-color:#8065E0"/>
			<stop  offset="1" style="stop-color:#512BD4"/>
		</radialGradient>
		<path fill="url(#SVGID_1_)" d="M1451.6,1168.2c35.6,0,64.4-28.8,64.4-64.4s-28.9-64.4-64.4-64.4c-35.6,0-64.4,28.8-64.4,64.4
			C1387.1,1139.3,1416,1168.2,1451.6,1168.2z"/>
		
			<linearGradient id="SVGID_2_" gradientUnits="userSpaceOnUse" x1="432.5485" y1="16296.1064" x2="492.3166" y2="16011.4414" gradientTransform="matrix(1 0 0 -1 694 17392)">
			<stop  offset="0" style="stop-color:#522CD5"/>
			<stop  offset="0.4397" style="stop-color:#8A6FE8"/>
		</linearGradient>
		<path fill="url(#SVGID_2_)" d="M1216.5,1374.2c0.7-59.8-7.8-181.1-69.5-282.6l-60.3,36.6c56,92.1,60.2,199.7,58.9,246.6
			C1145.4,1378.6,1181.6,1382.1,1216.5,1374.2z"/>
		<path fill="#522CD5" d="M1145.5,1374.1l55.8-0.3l52.1,298.7l-112.1,0.5c-8.5,0-15-6.8-14.4-15.4L1145.5,1374.1z"/>
		
			<linearGradient id="SVGID_3_" gradientUnits="userSpaceOnUse" x1="468.4987" y1="16020.0625" x2="646.1445" y2="15703.3428" gradientTransform="matrix(1 0 0 -1 694 17392)">
			<stop  offset="0" style="stop-color:#522CD5"/>
			<stop  offset="0.4397" style="stop-color:#8A6FE8"/>
		</linearGradient>
		<path fill="url(#SVGID_3_)" d="M1373,1593.9c9.7,7.7,9.5,18.7,8.8,30.4l-2.3,35.8c-0.4,6.4-6,11.7-12.4,11.7l-116.8,0.5
			c-7.3,0-12.8-5.8-12.3-13.1l0.8-37.1c0.9-13.5-3.7-18.4-14.1-31.1c-17.9-21.7-70.7-140-65.7-217.1l57.5-0.3
			C1220.3,1419.5,1280.7,1521.1,1373,1593.9z"/>
		
			<radialGradient id="SVGID_4_" cx="3185.8101" cy="9009.0938" r="6.0492" gradientTransform="matrix(20.3477 -9.260000e-02 -9.260000e-02 -20.3477 -62685.3672 185151.4531)" gradientUnits="userSpaceOnUse">
			<stop  offset="3.400000e-02" style="stop-color:#522CD5"/>
			<stop  offset="0.9955" style="stop-color:#8A6FE8"/>
		</radialGradient>
		<path fill="url(#SVGID_4_)" d="M1381.8,1624.3c0.6-8.2,0.7-16-2.5-22.6l-145.7,0.7c4,5.9,5.7,11.1,5.2,19.7l-0.8,37.1
			c-0.5,7.3,5,13.1,12.3,13.1l116.8-0.5c6.4,0,12-5.3,12.4-11.7L1381.8,1624.3z"/>
		
			<linearGradient id="SVGID_5_" gradientUnits="userSpaceOnUse" x1="103.6381" y1="16300.6123" x2="172.3822" y2="15977.1924" gradientTransform="matrix(1 0 0 -1 694 17392)">
			<stop  offset="0" style="stop-color:#522CD5"/>
			<stop  offset="0.4397" style="stop-color:#8A6FE8"/>
		</linearGradient>
		<path fill="url(#SVGID_5_)" d="M847.6,1418.8l-71.3-8.9l40.1-322.5l71.3,8.8L847.6,1418.8z"/>
		<path fill="#522CD5" d="M781.5,1371.7l56.5-0.3l15.6,302l-113.4,0.5c-8.6,0-14.3-6.9-12.7-15.6L781.5,1371.7z"/>
		
			<linearGradient id="SVGID_6_" gradientUnits="userSpaceOnUse" x1="48.8876" y1="15992.8994" x2="202.8965" y2="15699.4316" gradientTransform="matrix(1 0 0 -1 694 17392)">
			<stop  offset="0" style="stop-color:#522CD5"/>
			<stop  offset="0.4397" style="stop-color:#8A6FE8"/>
		</linearGradient>
		<path fill="url(#SVGID_6_)" d="M945.7,1595.1c8.7,7.9,8.5,18,6.3,29.8l-6.8,36.2c-1.2,6.5-7.5,11.8-14,11.8l-162.2,0.8
			c-7.4,0-12.2-5.9-10.8-13.2l5.8-37.5c2.6-13.6,0.6-17.7,0.8-35.1c0.5-32.8,15.6-138.2,30.3-216.2l58.2-0.2
			C851.4,1417.6,871.5,1527.9,945.7,1595.1z"/>
		
			<radialGradient id="SVGID_7_" cx="3180.5493" cy="8979.9014" r="6.0492" gradientTransform="matrix(22.145 -0.1007 -0.1006 -22.1216 -68666.7812 200511.8438)" gradientUnits="userSpaceOnUse">
			<stop  offset="3.400000e-02" style="stop-color:#522CD5"/>
			<stop  offset="0.9955" style="stop-color:#8A6FE8"/>
		</radialGradient>
		<path fill="url(#SVGID_7_)" d="M763.9,1622.9l-5.8,37.5c-1.4,7.3,3.5,13.3,10.8,13.2l162.2-0.7c6.5,0,12.8-5.3,14-11.8l6.8-36.2
			c1.6-8.6,2.1-16.2-1-22.8l-185.9,0.8C765.4,1609.6,765.5,1614.4,763.9,1622.9z"/>
		<path fill="#8A6FE8" d="M804,455.8L736.5,483l-18.4-73.1l48.4-19.5L804,455.8z"/>
		<path fill="#512BD4" d="M788.8,582c38.2,0,69.1-30.9,69.1-69.1s-30.9-69.1-69.1-69.1s-69.1,30.9-69.1,69.1
			C719.7,551,750.7,582,788.8,582z"/>
		
			<radialGradient id="SVGID_8_" cx="3275.5198" cy="8774.1367" r="6.0492" gradientTransform="matrix(61.9498 0 0 -61.9498 -201902.0938 544324.125)" gradientUnits="userSpaceOnUse">
			<stop  offset="0.4744" style="stop-color:#A08BE8"/>
			<stop  offset="0.8618" style="stop-color:#8065E0"/>
		</radialGradient>
		<path fill="url(#SVGID_8_)" d="M1300.2,939.7C1325,844.2,1309,768,1309,768h22.4l0.5-0.4c-32.2-175.2-185.6-307.9-370-307.9
			c-207.8,0-376.3,168.5-376.3,376.3s168.4,376.3,376.3,376.3c164,0,303.5-104.9,355-251.2C1318.4,954.8,1318.3,943.6,1300.2,939.7z
			"/>
		<path fill="#D8CFF7" d="M1286.4,1026.5H637.5c14.6,24.8,31.9,47.7,51.5,68.4h545.8C1254.5,1074.2,1271.8,1051.3,1286.4,1026.5z"/>
		
			<radialGradient id="SVGID_9_" cx="3264.9409" cy="8812.2568" r="6.0492" gradientTransform="matrix(48.2581 0 0 -48.2581 -156327.7344 425961.6562)" gradientUnits="userSpaceOnUse">
			<stop  offset="9.330000e-02" style="stop-color:#E1DFDD"/>
			<stop  offset="0.8998" style="stop-color:#FFFFFF"/>
		</radialGradient>
		<path fill="url(#SVGID_9_)" d="M1300.2,939.7c24.6-94.3,9.2-169.7,8.9-171.6H918.6c0,0-24.6-2.5-24.6,20s0.9,85.9,0.9,156.2
			c0,14.4,11.8,21.4,21.1,21.4C916.1,965.6,1256.6,965.6,1300.2,939.7z"/>
		<path fill="#A08BE8" d="M1065,939.9c0,0,60.1-47.5,71.8-56.3c11.7-8.8,22-9.3,32.7,0s70.8,56.3,70.8,56.3H1065z"/>
		<path fill="#512BD4" d="M1315.4,965.3c0,0,10.4-20.1-15.2-25.7c0-0.1-383.8-0.3-383.8-0.3c-8.9,0-20.4-5.3-21.4-14
			c0,6.2,0,12.5,0,18.8c0,13.1,9.8,20,18.5,21.2c0.9,0.1,1.8,0.2,2.7,0.2h26.2L1315.4,965.3z"/>
		<path fill="#512BD4" d="M1286.5,851.6c0.4-27.3-12.4-49.7-28.7-49.9s-29.8,21.7-30.2,49c-0.4,27.3,12.4,49.7,28.7,49.9
			C1272.6,900.9,1286.1,879,1286.5,851.6z"/>
		<path fill="#8065E0" d="M1256.7,825c-10.8,10.8-10.8,28.2,0,38.9c7.4,7.4,17.8,9.7,27.2,7c1.6-5.9,2.5-12.4,2.6-19.3
			c0.2-13.4-2.8-25.6-7.8-34.6C1270.9,816.4,1262.8,819,1256.7,825z"/>
		<path fill="#512BD4" d="M1020.8,900.9c16.3-0.2,29.1-22.6,28.7-49.9s-13.9-49.3-30.2-49c-16.2,0.2-29.1,22.6-28.7,49.9
			C991,879.2,1004.5,901.2,1020.8,900.9z"/>
		<path fill="#8065E0" d="M1019.8,826.6c-10.8,10.8-10.8,28.2,0,38.9c7.3,7.3,17.7,9.6,27,7c1.8-6.5,2.8-13.8,2.6-21.6
			c-0.2-12.4-3.1-23.7-7.7-32.3C1033.9,818,1025.8,820.6,1019.8,826.6z"/>
		<path fill="#512BD4" d="M1084.8,1115.2l123.2-0.6l-0.5-108.9l-123.2,0.6L1084.8,1115.2z"/>
		<path fill="#FFFFFF" d="M1106.1,1074.5c-0.8,0-1.5-0.3-2.1-0.8c-0.6-0.6-0.9-1.2-0.9-2s0.3-1.5,0.9-2c0.6-0.6,1.3-0.8,2.1-0.8
			c0.8,0,1.5,0.3,2.1,0.8s0.9,1.2,0.9,2s-0.3,1.4-0.9,2C1107.7,1074.2,1107,1074.5,1106.1,1074.5z"/>
		<path fill="#FFFFFF" d="M1138.9,1074h-5.3l-14.1-22.1c-0.3-0.5-0.7-1.2-0.9-1.8h-0.1c0.1,0.6,0.2,2,0.2,4.1v19.7h-4.7l-0.1-30.1
			h5.7l13.6,21.6c0.6,0.9,0.9,1.5,1.1,1.8h0.1c-0.2-0.8-0.2-2.2-0.2-4.1v-19.4h4.7L1138.9,1074z"/>
		<path fill="#FFFFFF" d="M1161.8,1073.9h-16.5l-0.1-30.1h15.8v4.2h-10.9v8.5h10.1v4.2h-10.1v8.9h11.6L1161.8,1073.9L1161.8,1073.9z
			"/>
		<path fill="#FFFFFF" d="M1185.2,1048h-8.4l0.1,25.9h-4.9l-0.1-25.9h-8.4v-4.2l21.7-0.1L1185.2,1048z"/>
		<path fill="#8A6FE8" d="M529.4,1254.2l40.2,57.3c10.8,15.2,31.9,18.7,47.2,7.9c15.2-10.8,18.7-31.9,7.9-47.1L575,1203
			L529.4,1254.2z"/>
		<path fill="#8A6FE8" d="M460.1,1232.5l-11.1,69.2c-2.8,18.4,9.8,35.7,28.3,38.5c18.4,2.8,35.7-9.8,38.5-28.3l11.4-70.9
			L460.1,1232.5z"/>
		<path fill="#8A6FE8" d="M505,1240.3l-9.3,69.4c-2.4,18.5,10.8,35.4,29.2,37.8c18.5,2.4,35.4-10.8,37.8-29.2l9.6-71.2L505,1240.3z"
			/>
		<path fill="#8A6FE8" d="M442.7,1211.8l-25.1,65.4c-6.6,17.5,2.3,37,19.8,43.5c17.5,6.6,37-2.3,43.5-19.8l25.7-67.1L442.7,1211.8z"
			/>
		
			<linearGradient id="SVGID_10_" gradientUnits="userSpaceOnUse" x1="-100.8368" y1="16532.5" x2="-100.8368" y2="16151.5996" gradientTransform="matrix(1 0 0 -1 694 17392)">
			<stop  offset="0.2495" style="stop-color:#967FE6"/>
			<stop  offset="1" style="stop-color:#8A6FE8"/>
		</linearGradient>
		<path fill="url(#SVGID_10_)" d="M489.3,1240.4c-27.9-57-44.2-154.4,1.8-241.6c28-52.9,89.2-120,222.3-139.3l10.7,73.8
			c-80.8,11.7-138.5,46.4-167,100.3c-30.8,58.4-22.6,129.4-0.8,174L489.3,1240.4z"/>
		
			<radialGradient id="SVGID_11_" cx="3031.2278" cy="9344.4268" r="6.0492" gradientTransform="matrix(11.3989 0 0 -11.3989 -33815.9297 107377.5938)" gradientUnits="userSpaceOnUse">
			<stop  offset="0" style="stop-color:#8065E0"/>
			<stop  offset="1" style="stop-color:#512BD4"/>
		</radialGradient>
		<path fill="url(#SVGID_11_)" d="M739,954.1c38.1,0,68.9-30.8,68.9-68.9S777,816.3,739,816.3s-68.9,30.8-68.9,68.9
			C670.1,923.2,700.9,954.1,739,954.1z"/>
		
			<radialGradient id="SVGID_12_" cx="3169.6543" cy="8984.5352" r="6.0492" gradientTransform="matrix(22.7292 0 0 -22.7292 -71538.8359 205365.0312)" gradientUnits="userSpaceOnUse">
			<stop  offset="0" style="stop-color:#8065E0"/>
			<stop  offset="1" style="stop-color:#512BD4"/>
		</radialGradient>
		<path fill="url(#SVGID_12_)" d="M508.6,1277.3c39.1,0,70.8-31.7,70.8-70.8s-31.7-70.8-70.8-70.8s-70.8,31.7-70.8,70.8
			C437.9,1245.7,469.5,1277.3,508.6,1277.3z"/>
		<path fill="#D8CFF7" d="M739.7,415.8c-26.2,7-53.3-8.4-60.5-34.4s8.2-52.7,34.5-59.7c26.2-7,53.3,8.4,60.5,34.4
			C781.4,382.1,766,408.8,739.7,415.8z"/>
	</g>
</g>
<g id="bot-base" display="none">
	<g display="inline">
		
			<radialGradient id="SVGID_13_" cx="3275.5198" cy="8774.1367" r="6.0492" gradientTransform="matrix(61.9498 0 0 -61.9498 -201902.0938 544324.125)" gradientUnits="userSpaceOnUse">
			<stop  offset="0.4744" style="stop-color:#A08BE8"/>
			<stop  offset="0.8618" style="stop-color:#8065E0"/>
		</radialGradient>
		<path fill="url(#SVGID_13_)" d="M1300.2,939.7C1325,844.2,1309,768,1309,768h22.4l0.5-0.4c-32.2-175.2-185.6-307.9-370-307.9
			c-207.8,0-376.3,168.5-376.3,376.3s168.4,376.3,376.3,376.3c164,0,303.5-104.9,355-251.2C1318.4,954.8,1318.3,943.6,1300.2,939.7z
			"/>
		<path fill="#D8CFF7" d="M1286.4,1026.5H637.5c14.6,24.8,31.9,47.7,51.5,68.4h545.8C1254.5,1074.2,1271.8,1051.3,1286.4,1026.5z"/>
		
			<radialGradient id="SVGID_14_" cx="3264.9409" cy="8812.2568" r="6.0492" gradientTransform="matrix(48.2581 0 0 -48.2581 -156327.7344 425961.6562)" gradientUnits="userSpaceOnUse">
			<stop  offset="9.330000e-02" style="stop-color:#E1DFDD"/>
			<stop  offset="0.8998" style="stop-color:#FFFFFF"/>
		</radialGradient>
		<path fill="url(#SVGID_14_)" d="M1300.2,939.7c24.6-94.3,9.2-169.7,8.9-171.6H918.6c0,0-24.6-2.5-24.6,20s0.9,85.9,0.9,156.2
			c0,14.4,11.8,21.4,21.1,21.4C916.1,965.6,1256.6,965.6,1300.2,939.7z"/>
		<path fill="#A08BE8" d="M1065,939.9c0,0,60.1-47.5,71.8-56.3c11.7-8.8,22-9.3,32.7,0s70.8,56.3,70.8,56.3H1065z"/>
		<path fill="#512BD4" d="M1315.4,965.3c0,0,10.4-20.1-15.2-25.7c0-0.1-383.8-0.3-383.8-0.3c-8.9,0-20.4-5.3-21.4-14
			c0,6.2,0,12.5,0,18.8c0,13.1,9.8,20,18.5,21.2c0.9,0.1,1.8,0.2,2.7,0.2h26.2L1315.4,965.3z"/>
		<path fill="#512BD4" d="M1084.8,1115.2l123.2-0.6l-0.5-108.9l-123.2,0.6L1084.8,1115.2z"/>
		<path fill="#FFFFFF" d="M1106.1,1074.5c-0.8,0-1.5-0.3-2.1-0.8c-0.6-0.6-0.9-1.2-0.9-2s0.3-1.5,0.9-2c0.6-0.6,1.3-0.8,2.1-0.8
			c0.8,0,1.5,0.3,2.1,0.8s0.9,1.2,0.9,2s-0.3,1.4-0.9,2C1107.7,1074.2,1107,1074.5,1106.1,1074.5z"/>
		<path fill="#FFFFFF" d="M1138.9,1074h-5.3l-14.1-22.1c-0.3-0.5-0.7-1.2-0.9-1.8h-0.1c0.1,0.6,0.2,2,0.2,4.1v19.7h-4.7l-0.1-30.1
			h5.7l13.6,21.6c0.6,0.9,0.9,1.5,1.1,1.8h0.1c-0.2-0.8-0.2-2.2-0.2-4.1v-19.4h4.7L1138.9,1074z"/>
		<path fill="#FFFFFF" d="M1161.8,1073.9h-16.5l-0.1-30.1h15.8v4.2h-10.9v8.5h10.1v4.2h-10.1v8.9h11.6L1161.8,1073.9L1161.8,1073.9z
			"/>
		<path fill="#FFFFFF" d="M1185.2,1048h-8.4l0.1,25.9h-4.9l-0.1-25.9h-8.4v-4.2l21.7-0.1L1185.2,1048z"/>
	</g>
</g>
<g>
	<g id="asset">
		<g>
			<path fill="#605D5A" d="M630.8,656c-9.4,17.2-17.4,35.2-24,53.9h709.3c-6.6-18.7-14.6-36.7-24-53.9H630.8z"/>
			<path fill="#9FE4EB" d="M692.6,574.9c0,0,213.4-8.4,397-90.9c-13-41.1-55.3-141.6-80.7-182.1c-7.4-11.8-61-36.8-73.7-38.7
				c-60.5-9.1-219.9,40.2-245,65.7c-5,5.1-35,60.5-34.1,73.1C658.4,432.3,692.6,574.9,692.6,574.9z"/>
			<g>
				<circle fill="#FFFFFF" cx="961.4" cy="608.2" r="118"/>
				
					<radialGradient id="SVGID_15_" cx="926.2105" cy="-983.5281" r="217.0735" gradientTransform="matrix(1 0 0 1 0 1500)" gradientUnits="userSpaceOnUse">
					<stop  offset="9.330000e-02" style="stop-color:#E1DFDD"/>
					<stop  offset="0.6573" style="stop-color:#FFFFFF"/>
				</radialGradient>
				<circle fill="url(#SVGID_15_)" cx="961.4" cy="608.2" r="105.9"/>
				<circle fill="#B3AFAB" cx="961.4" cy="608.2" r="36.2"/>
			</g>
		</g>
	</g>
	<g>
		<path fill="#605D5A" d="M1335.9,1105.3l-15.3-11.6c13.4-17.6,39.8-114.1,21-184.7c-5.8-21.6-15.3-38.5-28.4-50.3
			c0.5-8.3,0.8-16.1,0.9-23.5c22.2,14.2,37.7,37.3,46.1,68.9C1380.2,979.4,1352.5,1083.4,1335.9,1105.3z"/>
		<path fill="#605D5A" d="M1322,1175.6c30,0,54.3-24.3,54.3-54.3S1352,1067,1322,1067s-54.3,24.3-54.3,54.3
			C1267.6,1151.3,1291.9,1175.6,1322,1175.6z"/>
		<path fill="#72ACF1" d="M1321.9,1151c15.6,0,28.3-12.6,28.3-28.2s-12.6-28.2-28.3-28.2c-15.6,0-28.2,12.6-28.2,28.2
			C1293.7,1138.3,1306.3,1151,1321.9,1151z"/>
		<path fill="#A3C9F6" d="M773.3,1237.9c-0.1,0-0.3,0-0.4,0.1c-1.5,0.2-37.5,5.1-56.5-13.7c-10.5-10.3-52.2-82.5-54-85.5
			c-1.2-2-0.5-4.5,1.5-5.7s4.5-0.5,5.7,1.5c11.9,20.6,44.6,75.8,52.6,83.7c16.1,15.8,49.1,11.4,49.5,11.3c2.3-0.3,4.4,1.3,4.7,3.6
			C776.7,1235.4,775.4,1237.4,773.3,1237.9z"/>
		<path fill="#605D5A" d="M781.7,1244.2c6.3,0,11.5-5.1,11.5-11.5c0-6.3-5.1-11.5-11.5-11.5c-6.3,0-11.5,5.1-11.5,11.5
			C770.2,1239,775.4,1244.2,781.7,1244.2z"/>
		<path fill="#A3C9F6" d="M804.5,1215.3c-1,0.2-2,0.1-2.9-0.4c-2-1.2-2.7-3.7-1.5-5.7c0.1-0.3,16.5-29.3,7.8-50.2
			c-4.4-10.4-43.5-61.2-58.3-79.9c-1.4-1.8-1.1-4.4,0.7-5.8s4.4-1.1,5.8,0.7c2.2,2.8,53.7,68.3,59.4,81.9
			c10.3,24.6-7.5,56.2-8.2,57.5C806.6,1214.3,805.6,1215,804.5,1215.3z"/>
		<path fill="#605D5A" d="M799.1,1230.9c6.3,0,11.5-5.1,11.5-11.5c0-6.3-5.1-11.5-11.5-11.5c-6.3,0-11.5,5.1-11.5,11.5
			S792.7,1230.9,799.1,1230.9z"/>
		<path fill="#605D5A" d="M706.4,1021.5c-13.2-3.6-26.1-2.4-38.5,3.4c-6.5,2.5-10.4,11.2-20.3,14.9c-7.1,7.8-11.7,17.2-13.5,28
			c-7.3,42.9,32.3,93.5,34,95.7c3.1,3.9,8.1,5.5,12.7,4.4c1.7-0.4,3.4-1.2,4.9-2.4c5.4-4.3,6.3-12.1,2.1-17.6
			c-9.6-12.1-33.5-49.5-29-76c1.6-9.3,6.7-16.5,15.5-22.1c8.4-5.3,16.8-6.7,25.6-4.3c25.5,6.9,49.1,43.3,56.1,56.8
			c3.2,6.1,10.7,8.6,16.8,5.4c6.1-3.1,8.5-10.7,5.4-16.8C776.9,1088.6,747.8,1032.8,706.4,1021.5z"/>
		<path fill="#605D5A" d="M667.2,1032.5l-14.6,12.1c-3.2-4-6.4-7.9-9.4-11.9c-75.1-97.1-84.6-177.6-69.2-218.1
			c4.7-12.4,11.9-22.9,21.4-31.6c-2.1,13.6-3.5,27.5-4.1,41.6c-6.5,20-5.5,49.1,5.6,83.9C608.5,944.8,630.6,987.7,667.2,1032.5z"/>
	</g>
	<g>
		<g>
			<path fill="#A3C9F6" d="M1310.3,1040.9c-0.2,0-0.3,0-0.5,0l-41.6-3.5c-1.6-0.1-3.1-0.9-4.1-2.2c-1-1.3-1.5-2.9-1.3-4.5l9.5-79.5
				c0.1-1,0.5-2,1.1-2.8l38.1-52.3c1.9-2.7,5.7-3.3,8.3-1.3c2.7,1.9,3.3,5.7,1.3,8.3l-37.2,51l-8.6,71.8l35.5,3
				c3.3,0.3,5.7,3.2,5.4,6.5C1316,1038.6,1313.4,1040.9,1310.3,1040.9z"/>
		</g>
		<g>
			<path fill="#A3C9F6" d="M804.3,863.2c-2-6-4.8-11.6-8.3-16.7l171.8,75.9l9.4,4.2l-4.8,10.9l-17.1-7.5L804.3,863.2z"/>
			<path fill="#A3C9F6" d="M977.3,1037l-4.1,11.2l-24.7-9l-215.1-78.7c0,0-5.5-4.4-8.4-7.7c4.5,0.9,9.1,1.4,13.9,1.4
				c0.6,0,1.3,0,1.9,0c0.5,0,1.1,0,1.6-0.1c0.6,0,1.2-0.1,1.8-0.1c1-0.1,2.1-0.2,3.1-0.3c0.5-0.1,1-0.1,1.5-0.2l202.4,74.1
				L977.3,1037z"/>
		</g>
		<path fill="#A3C9F6" d="M954.8,928c0,0,147.7-66,199.9-66.2s145.5,64.6,145.5,64.6s-17,69.6,10.6,109.1
			c-27.9,46.2-95.4,141.3-181.4,141.7c-104.6,0.5-150.3-90.4-182.3-140C970,990.7,954.8,928,954.8,928z"/>
		<path fill="#3E8EED" d="M1000.9,981.4c0,0,117.4-27.6,165.8-27.8s117.3,24.9,117.3,24.9s-37.7-7.4-117.2-7
			C1087.4,971.9,1000.9,981.4,1000.9,981.4z"/>
		<path fill="#3E8EED" d="M1284.4,1057.9c0,0-51.5,59.5-121.1,59.8c-74.5,0.3-162-57.1-162-57.1s82.5,39.4,162,39
			C1242.6,1099.4,1284.4,1057.9,1284.4,1057.9z"/>
	</g>
</g>
</svg>
