<?xml version="1.0" encoding="utf-8"?>
<!-- Generator: Adobe Illustrator 26.0.0, SVG Export Plug-In . SVG Version: 6.00 Build 0)  -->
<svg version="1.1" id="asset" xmlns="http://www.w3.org/2000/svg" xmlns:xlink="http://www.w3.org/1999/xlink" x="0px" y="0px"
	 viewBox="0 0 2000 2000" enable-background="new 0 0 2000 2000" xml:space="preserve">
<g>
	<path d="M1014.4,511.1c84.5-0.1,166.3,30.2,230.4,85.4c-60.3-73.8-152-121-254.7-121c-181.5,0-328.7,147.2-328.7,328.7
		c0,9,0.4,17.9,1.1,26.7C679.4,651.5,830.5,511.1,1014.4,511.1z"/>
	<path d="M813.9,555.7c-82.1-135-215-201.5-216.3-202.1l8.1-20.6c1.5,0.7,35.9,17.9,81.3,52.6c41.8,32,101.2,85.8,146.3,159.8
		L813.9,555.7z"/>
	<path d="M949.1,501.5c-16.2-157.1,49.4-290.5,50.1-291.8l-18.3-8c-0.7,1.4-17.8,35.9-33,91.1c-14,50.8-28.8,129.5-19.8,215.8
		L949.1,501.5z"/>
	<path fill="#F4BC1B" d="M722.4,328.5c0-6.8-25-12.9-63.6-16.6c34.7-17.2,55.9-31.8,53.5-38.2c-2.6-6.9-31.9-2.6-73.7,9.5
		c28.1-33.2,44-58.3,38.8-63.4c-4.8-4.8-26.8,8.6-56.7,33.2c12.3-36.7,17-62,10.8-64.8c-6.7-3-24.3,20.7-45.4,58.9
		c-3.6-43.4-10-72.3-17.4-72.3c-6.8,0-12.9,25.1-16.6,63.6C535,203.8,520.4,182.6,514,185c-6.8,2.6-2.6,31.9,9.5,73.7
		c-33.2-28.1-58.2-44-63.4-38.8c-4.8,4.8,8.6,26.8,33.2,56.7c-36.6-12.3-62-17.1-64.8-10.8c-3,6.7,20.7,24.4,58.9,45.4
		c-43.4,3.6-72.3,10-72.3,17.4c0,6.8,25,12.9,63.6,16.6c-34.7,17.2-55.9,31.8-53.5,38.2c2.6,6.9,31.9,2.6,73.7-9.5
		c-28.1,33.2-44,58.2-38.8,63.4c4.8,4.8,26.8-8.6,56.7-33.2c-12.3,36.6-17.1,62-10.8,64.8c6.7,3,24.4-20.7,45.4-58.9
		c3.6,43.4,10,72.3,17.4,72.3c6.8,0,12.9-25,16.6-63.6c17.2,34.6,31.8,55.9,38.2,53.5c6.8-2.6,2.6-31.9-9.5-73.7
		c33.2,28.1,58.2,44,63.4,38.8c4.8-4.8-8.6-26.8-33.2-56.7c36.7,12.3,62,17.1,64.8,10.8c3-6.7-20.7-24.4-58.9-45.4
		C693.5,342.3,722.4,335.9,722.4,328.5z"/>
	<path d="M570.8,397.1c37.3,0,67.6-30.3,67.6-67.6S608.2,262,570.8,262s-67.6,30.3-67.6,67.6S533.5,397.1,570.8,397.1z"/>
	<path fill="#F4BC1B" d="M1133.9,202.6c0-6.8-25.1-12.9-63.6-16.6c34.7-17.2,55.9-31.8,53.5-38.2c-2.6-6.9-31.9-2.6-73.7,9.5
		c28.1-33.2,44-58.2,38.8-63.4c-4.8-4.8-26.8,8.6-56.7,33.2c12.3-36.7,17.1-62,10.8-64.8c-6.7-3-24.4,20.7-45.4,58.9
		c-3.6-43.4-10-72.3-17.4-72.3c-6.8,0-12.9,25.1-16.6,63.6c-17.2-34.7-31.8-55.9-38.2-53.5c-6.8,2.6-2.6,31.9,9.5,73.7
		c-33.2-28.1-58.2-44-63.4-38.8c-4.8,4.8,8.6,26.8,33.2,56.7c-36.7-12.3-62-17.1-64.8-10.8c-3,6.7,20.7,24.4,58.9,45.4
		c-43.4,3.6-72.3,10.1-72.3,17.4c0,6.8,25,12.9,63.6,16.6c-34.7,17.2-55.9,31.8-53.5,38.2c2.6,6.9,31.9,2.6,73.7-9.5
		c-28.1,33.3-44,58.2-38.8,63.4c4.8,4.8,26.8-8.6,56.7-33.2c-12.3,36.6-17,62-10.8,64.8c6.7,3,24.4-20.7,45.4-58.9
		c3.6,43.4,10,72.3,17.4,72.3c6.8,0,12.9-25,16.6-63.6c17.2,34.6,31.8,55.9,38.2,53.5c6.8-2.6,2.6-31.9-9.5-73.7
		c33.2,28.1,58.3,44,63.4,38.8c4.8-4.8-8.6-26.8-33.2-56.7c36.7,12.3,62,17.1,64.8,10.8c3-6.7-20.7-24.4-58.9-45.4
		C1105,216.3,1133.9,209.9,1133.9,202.6z"/>
	<path d="M982.3,271.2c37.3,0,67.6-30.3,67.6-67.6s-30.3-67.6-67.6-67.6s-67.6,30.3-67.6,67.6S945,271.2,982.3,271.2z"/>
</g>
</svg>
