<?xml version="1.0" encoding="utf-8"?>
<!-- Generator: Adobe Illustrator 24.2.0, SVG Export Plug-In . SVG Version: 6.00 Build 0)  -->
<svg version="1.1" id="asset" xmlns="http://www.w3.org/2000/svg" xmlns:xlink="http://www.w3.org/1999/xlink" x="0px" y="0px"
	 viewBox="0 0 2000 2000" enable-background="new 0 0 2000 2000" xml:space="preserve">
<g>
	
		<linearGradient id="SVGID_1_" gradientUnits="userSpaceOnUse" x1="994.1019" y1="1321.2156" x2="1281.7836" y2="1686.4375" gradientTransform="matrix(1 0 0 -1 0 2000)">
		<stop  offset="0" style="stop-color:#C7862F"/>
		<stop  offset="2.000000e-02" style="stop-color:#C98830"/>
		<stop  offset="0.32" style="stop-color:#DA9838"/>
		<stop  offset="0.63" style="stop-color:#E5A23D"/>
		<stop  offset="1" style="stop-color:#E8A53F"/>
	</linearGradient>
	<path fill="url(#SVGID_1_)" d="M1268.9,364.3c35.2-12,74.3-4.8,102.2,19.8c16,14.1,25.8,31.6,25.8,47c0,33.2,22.4,109.4-64.9,133
		s-115.4,31.6-115.4,31.6H1000l-175.1-50.1l28.7-32.6c0,0,73.5,29.9,130.9-1.9s74-28,74-28s96.4-65.4,149.6-92.5
		C1227.7,380.2,1248,371.5,1268.9,364.3z"/>
	
		<linearGradient id="SVGID_2_" gradientUnits="userSpaceOnUse" x1="708.5698" y1="1362.6405" x2="1013.1241" y2="1749.288" gradientTransform="matrix(1 0 0 -1 0 2000)">
		<stop  offset="0.34" style="stop-color:#C7862F"/>
		<stop  offset="0.55" style="stop-color:#D99638"/>
		<stop  offset="0.77" style="stop-color:#E4A13D"/>
		<stop  offset="1" style="stop-color:#E8A53F"/>
	</linearGradient>
	<path fill="url(#SVGID_2_)" d="M1118,503.4l-3.4,1.1c0,0-0.1,0-0.1,0c-14.8,4.7-75,23.7-140,43.3c-51.5,15.6-348.3,24.7-348.3,24.7
		s-23.5-103.3-24.8-123.3s-0.4-52.8,20.4-86.5s70.9-67,119.3-93.1s73.6-36.4,91.8-38.6s42.6,1.8,50.1,1.3c1.3-0.1,2.5-0.3,3.7-0.8
		l0,0c4.8-1.9,9.2-7.2,34-14.7c5.5-1.7,11.2-2.6,17-2.8c1.6-0.1,3.2-0.1,4.8,0c20.5,0.6,41.8,10.3,58.7,28.9
		c3.9,4.3,7.5,9,10.7,13.9c23.1,35.6,99.1,227.8,106,246.1L1118,503.4z"/>
	
		<linearGradient id="SVGID_3_" gradientUnits="userSpaceOnUse" x1="938.7922" y1="1604.1694" x2="1144.1423" y2="1636.2994" gradientTransform="matrix(1 0 0 -1 0 2000)">
		<stop  offset="6.000000e-02" style="stop-color:#E8A53F"/>
		<stop  offset="0.91" style="stop-color:#FEDEA7"/>
	</linearGradient>
	<path opacity="0.5" fill="url(#SVGID_3_)" enable-background="new    " d="M1011.8,256.8c23.1,35.6,99.1,227.8,106,246.1
		c-0.9,0.6-1.8,1-2.8,1.4l-0.5,0.2c-6.6,2-17.5,0.7-34.9,2.1c0,0-37.9,15-49,18s-25.4-12.4-18.9-35s0-64.8-8.1-96.3
		s-13.3-80.3-13-115.2c0-4.6,5-21,10.5-35.2L1011.8,256.8z"/>
	
		<linearGradient id="SVGID_4_" gradientUnits="userSpaceOnUse" x1="938.5624" y1="1393.3174" x2="1068.1462" y2="1557.8323" gradientTransform="matrix(1 0 0 -1 0 2000)">
		<stop  offset="0.34" style="stop-color:#38776B"/>
		<stop  offset="0.53" style="stop-color:#3D8073"/>
		<stop  offset="0.82" style="stop-color:#4C9889"/>
		<stop  offset="1" style="stop-color:#57AA9A"/>
	</linearGradient>
	<path fill="url(#SVGID_4_)" d="M1118,503.4c5.5-1.4,6.4-2,5.1-7.5s-2.6-16.9-8.9-15.2s-230.5,66.9-230.5,66.9l6.7,21.3l84.1-21
		L1118,503.4z"/>
	
		<linearGradient id="SVGID_5_" gradientUnits="userSpaceOnUse" x1="616.8802" y1="1154.7578" x2="1006.1701" y2="1648.9778" gradientTransform="matrix(1 0 0 -1 0 2000)">
		<stop  offset="0.34" style="stop-color:#C4832D"/>
		<stop  offset="0.46" style="stop-color:#D49336"/>
		<stop  offset="0.63" style="stop-color:#E8A640"/>
		<stop  offset="0.81" style="stop-color:#F3B146"/>
		<stop  offset="1" style="stop-color:#F7B548"/>
	</linearGradient>
	<path fill="url(#SVGID_5_)" d="M1185.2,601.4c-264.5,22.6-442.8,35.9-531.9,62.5s-239.6,58.3-258.1,38.4s-61.3-43.8,0-93
		s179.6-82.5,288.7-85.1s252.7,18.6,327.9,31.9s170.4,49.2,215.9,37.2C1227.7,593.4,1193,600.7,1185.2,601.4z"/>
	
		<linearGradient id="SVGID_6_" gradientUnits="userSpaceOnUse" x1="888.2809" y1="1782.5038" x2="942.5009" y2="1770.0238" gradientTransform="matrix(1 0 0 -1 0 2000)">
		<stop  offset="6.000000e-02" style="stop-color:#C4832D"/>
		<stop  offset="0.2" style="stop-color:#CB8E3B"/>
		<stop  offset="0.47" style="stop-color:#DCA960"/>
		<stop  offset="0.84" style="stop-color:#F9D69C"/>
		<stop  offset="0.91" style="stop-color:#FEDEA7"/>
	</linearGradient>
	<path opacity="0.5" fill="url(#SVGID_6_)" enable-background="new    " d="M932,231.2c-7.8,4.6-26.5,6.2-45.3,0.4
		c4.8-1.9,9.2-7.2,34-14.7c5.5-1.7,11.2-2.6,17-2.8C938.5,221.8,937.2,228.1,932,231.2z"/>
	
		<linearGradient id="SVGID_7_" gradientUnits="userSpaceOnUse" x1="692.7599" y1="1686.9198" x2="837.3999" y2="1602.3998" gradientTransform="matrix(1 0 0 -1 0 2000)">
		<stop  offset="2.000000e-02" style="stop-color:#B87B2A;stop-opacity:0"/>
		<stop  offset="2.000000e-02" style="stop-color:#B87B2A;stop-opacity:0"/>
		<stop  offset="8.000000e-02" style="stop-color:#B87B2A;stop-opacity:0.27"/>
		<stop  offset="0.13" style="stop-color:#B87B2A;stop-opacity:0.49"/>
		<stop  offset="0.19" style="stop-color:#B87B2A;stop-opacity:0.67"/>
		<stop  offset="0.25" style="stop-color:#B87B2A;stop-opacity:0.82"/>
		<stop  offset="0.31" style="stop-color:#B87B2A;stop-opacity:0.92"/>
		<stop  offset="0.37" style="stop-color:#B87B2A;stop-opacity:0.98"/>
		<stop  offset="0.43" style="stop-color:#B87B2A"/>
		<stop  offset="0.57" style="stop-color:#C68F44"/>
		<stop  offset="0.86" style="stop-color:#EBC385"/>
		<stop  offset="1" style="stop-color:#FEDEA7"/>
	</linearGradient>
	<path opacity="0.5" fill="url(#SVGID_7_)" enable-background="new    " d="M807.9,272.1c-6.6,30.9-44.3,85.8-83.8,109.7
		s-64.4,47.9-77.4,23.9s2-71.8,59.8-106.7s97-48.9,101.4-41.9C812.2,264.2,807.9,272.1,807.9,272.1z"/>
</g>
</svg>
