<?xml version="1.0" encoding="utf-8"?>
<!-- Generator: Adobe Illustrator 24.2.0, SVG Export Plug-In . SVG Version: 6.00 Build 0)  -->
<svg version="1.1" id="asset" xmlns="http://www.w3.org/2000/svg" xmlns:xlink="http://www.w3.org/1999/xlink" x="0px" y="0px"
	 viewBox="0 0 2000 2000" enable-background="new 0 0 2000 2000" xml:space="preserve">
<g>
	<path fill="#D25A48" d="M1180.2,646.3c-66.9,27.5-145.5,55-230.5,79.8c-29.2,8.5-58,16.4-86,23.5
		c-223.4,57.1-401.7,69.8-414.4,26.2c-10.6-36.5,97.6-102.1,261.5-164.8c56.6-21.7,119.8-43,187-62.6
		c125.7-36.7,242.7-60.9,331.9-70.8c96.8-10.7,161-4.5,168.5,21C1407.9,531.9,1319.4,589.1,1180.2,646.3z"/>
	<path fill="#4A4844" d="M1197.6,542.6l-0.9-1.7C1197.1,541.4,1197.4,542,1197.6,542.6z"/>
	<path fill="#C45141" d="M863.7,749.7c-223.4,57.1-401.7,69.8-414.4,26.2c-10.6-36.5,97.6-102.1,261.5-164.8
		c28.7-1.2,49.5-0.6,55.6,1.8c51,19.9-122,96.3-92,103.6s175.6-11.8,213.3,1.5C908.4,725.2,899.5,740.3,863.7,749.7z"/>
	<path fill="#DF6551" d="M1144.4,544.2c-7.7-12.9-15.1-27.4-22-41.9c-15.1-32.3-26.8-65-29.1-81.2c-1-7.1-4-14.2-8.5-21.3
		c-9.2-14.6-24.6-28.8-40.9-41c-19.7-14.7-40.6-26.4-53.4-32.1c-19.6-8.7-18-22.4-14.8-34.7c-5.1,2.6-9.8,6-13.9,10.1
		c-6.1,5.9-10.5-0.1-14.8-13c-9.6,22.8-24,41.4-42.9,53.1c-14,8.7-18.4,2.1-19.6-13c-1.4-17.3,1.5-45.8-1-75.3
		c-1.4-16.4-4.5-33.2-10.8-48.5c-18.3-43.9-73.9-59-132.2-61c-21.1,9.4-41.6,19.9-61.5,31.6c-15.4,8.9-30.9,18.8-46.4,29.4
		c-27.1,18.6-52.9,39.2-77.1,61.5c-4,3.7-8,7.4-11.9,11.3l0,0c-3.4,3.3-6.9,6.7-10.2,10.1c-4.7,4.8-9.4,9.7-14,14.7
		c-38.9,42.3-71.2,89.9-90.2,140.9c-5.1,13.7-9.6,26.3-13.4,37.8c-8,24.3-13.2,43.9-16.1,59.3c-6.5,34.9-1.2,48.8,9.9,49.8
		c12.8,1.2,33.4-14.7,52.6-35.2c14.8-15.8,39.2-41.5,65.1-67.3l-16.7,7.9c-1.6,0.7-3.4,0.1-4.2-1.5c-0.3-0.6-0.4-1.3-0.2-2l4.7-21.9
		c0.2-1-0.1-2.1-0.8-2.8l-10.8-11.4c3.6-3.8,7.2-7.7,11-11.6c38.1-39.9,83.5-83.6,96.4-91.8c20.8-13.3,42.6-12,75.4,7.1
		s-1.4,74-4.8,165.8c-2.2,60.4,1.8,97.8,1.4,135.3c-0.1,18.5-1.6,36.9-4.5,55.2c5.3-0.5,10.9-1.2,16.8-1.9
		c55.1-7.2,137.9-25.8,229.1-52.4c105.8-30.9,196.2-64.9,243.1-90C1156.4,563.3,1150.1,553.9,1144.4,544.2z M428,549.4l-1.1-0.7
		c1.7-2.5,3.4-5,5.2-7.6l0.7,5.1c0.2,1.7-1,3.3-2.7,3.5C429.3,549.9,428.6,549.7,428,549.4z"/>
	<path fill="#FCCF84" d="M884.6,329.3l-4.2,3.7c-1.3,1.2-3.3,1-4.4-0.3c-0.5-0.5-0.7-1.2-0.8-1.9l-1.6-22.4c-0.1-1-0.7-2-1.5-2.5
		l-19.3-11.4c-1.5-0.9-2-2.8-1.1-4.3c0.4-0.6,0.9-1.1,1.5-1.3l20.8-8.5c1-0.4,1.7-1.2,1.9-2.2l4.8-21.9c0.3-1.4,1.5-2.4,2.9-2.5
		C886.1,283.5,883.3,312,884.6,329.3z"/>
	<path fill="#FCCF84" d="M1144.4,544.2c-0.6,0.6-0.9,1.3-0.9,2.1l-1.1,22.4c-0.1,1.7-1.5,3.1-3.3,3c-0.7,0-1.4-0.3-1.9-0.7
		l-17.1-14.5c-0.8-0.7-1.9-0.9-2.9-0.6l-21.7,5.9c-1.7,0.4-3.4-0.6-3.9-2.2c-0.2-0.7-0.1-1.4,0.1-2l8.5-20.8c0.4-1,0.3-2-0.3-2.9
		l-12.3-18.8c-0.9-1.5-0.5-3.4,0.9-4.4c0.6-0.4,1.3-0.6,1.9-0.5l22.4,1.7c1,0.1,2-0.4,2.7-1.2l6.7-8.4
		C1129.3,516.8,1136.8,531.3,1144.4,544.2z"/>
	<path fill="#FCCF84" d="M877,610.2c-0.6-0.9-0.7-1.9-0.3-2.9l8.1-20.9c0.6-1.6-0.2-3.4-1.8-4.1c-0.6-0.2-1.4-0.3-2-0.1l-21.5,6.3
		c-1,0.3-2.1,0.1-2.9-0.6l-17.4-14.2c-1.3-1.1-3.3-0.9-4.4,0.4c-0.4,0.5-0.7,1.2-0.7,1.9l-0.7,22.4c0,1-0.6,2-1.5,2.5l-18.8,12.1
		c-1.5,0.9-1.9,2.9-0.9,4.4c0.4,0.6,0.9,1,1.6,1.3l21.1,7.6c1,0.3,1.7,1.2,2,2.2l5.7,21.7c0.4,1.7,2.2,2.7,3.9,2.2
		c0.7-0.2,1.3-0.6,1.7-1.1l13.7-17.7c0.6-0.8,1.6-1.3,2.7-1.2l22.4,1.3c1.7,0.1,3.2-1.2,3.3-2.9c0-0.7-0.1-1.4-0.5-2L877,610.2z"/>
	<path fill="#FCCF84" d="M715,697.2l-20.7,8.6c-1,0.4-1.7,1.2-1.9,2.2l-1.4,6.4c-5.9,0.8-11.5,1.4-16.8,1.9
		c2.9-18.3,4.4-36.7,4.5-55.2l8.7-7.8c1.3-1.2,3.3-1,4.4,0.2c0.5,0.5,0.7,1.2,0.8,1.8l1.8,22.4c0.1,1,0.7,2,1.6,2.5l19.4,11.2
		c1.5,0.9,2,2.8,1.2,4.3C716.2,696.5,715.7,697,715,697.2z"/>
	<path fill="#FCCF84" d="M813.2,482l-19.4-11.2c-0.9-0.5-1.5-1.4-1.6-2.5l-1.8-22.4c-0.1-1.7-1.6-3-3.4-2.9
		c-0.7,0.1-1.4,0.3-1.9,0.8l-16.7,15c-0.8,0.7-1.8,1-2.8,0.7l-21.8-5.2c-1.7-0.4-3.4,0.6-3.8,2.3c-0.2,0.7-0.1,1.4,0.2,2l9.1,20.5
		c0.4,0.9,0.3,2-0.2,2.9l-11.7,19.1c-0.9,1.5-0.4,3.4,1,4.3c0.6,0.4,1.3,0.5,2,0.4l22.3-2.3c1-0.1,2,0.3,2.7,1.1l14.6,17
		c1.1,1.3,3.1,1.5,4.4,0.4c0.5-0.5,0.9-1.1,1-1.7l4.7-21.9c0.2-1,0.9-1.8,1.9-2.2l20.7-8.6c1.6-0.7,2.3-2.5,1.6-4.1
		C814.2,482.8,813.8,482.3,813.2,482z"/>
	<path fill="#FCCF84" d="M761.1,322.8l-3.9-22.1c-0.2-1,0.2-2.1,0.9-2.8l16-15.7c1.2-1.2,1.3-3.2,0-4.5c-0.5-0.5-1.1-0.8-1.8-0.9
		l-22.2-3.1c-1-0.1-1.9-0.8-2.4-1.7l-10-20.1c-0.8-1.6-2.7-2.2-4.2-1.4c-0.6,0.3-1.1,0.8-1.4,1.4l-9.8,20.2
		c-0.5,0.9-1.3,1.6-2.4,1.7l-22.2,3.3c-1.7,0.3-2.9,1.9-2.7,3.6c0.1,0.7,0.4,1.3,0.9,1.8l16.1,15.6c0.7,0.7,1.1,1.8,0.9,2.8
		l-3.7,22.1c-0.3,1.7,0.9,3.3,2.6,3.6c0.7,0.1,1.4,0,2-0.3l19.8-10.5c0.9-0.5,2-0.5,2.9,0l19.9,10.4c1.5,0.8,3.4,0.2,4.2-1.3
		C761.1,324.2,761.2,323.4,761.1,322.8z"/>
	<path fill="#FCCF84" d="M637.2,210l0.5,22.4c0,1.7,1.5,3.1,3.2,3.1c0.7,0,1.4-0.3,1.9-0.7l17.5-14c0.8-0.6,1.9-0.8,2.9-0.6
		l21.5,6.5c1.7,0.5,3.4-0.4,3.9-2.1c0.2-0.7,0.2-1.4-0.1-2l-7.9-21c-0.4-1-0.2-2.1,0.4-2.9l12.8-18.4c1-1.4,0.6-3.4-0.8-4.4
		c-0.6-0.4-1.3-0.6-1.9-0.6l-12,0.6c-15.4,8.9-30.9,18.8-46.4,29.4l3.2,2.1C636.7,208,637.2,209,637.2,210z"/>
	<path fill="#FCCF84" d="M590.4,298.7c1.3-1.2,1.4-3.1,0.3-4.4c-0.5-0.5-1.1-0.9-1.8-1l-22-4.2c-1-0.2-1.9-0.9-2.3-1.8l-9.1-20.5
		c-4,3.7-8,7.4-11.9,11.3l0,0l-4.5,8.2c-0.5,0.9-1.4,1.5-2.4,1.6l-3.3,0.3c-4.7,4.8-9.4,9.7-14,14.7l8.4,8.9c0.7,0.8,1,1.8,0.8,2.8
		l-4.7,21.9c-0.4,1.7,0.7,3.4,2.4,3.7c0.7,0.1,1.4,0.1,2-0.2l20.3-9.6c0.9-0.4,2-0.4,2.9,0.1l19.4,11.3c1.5,0.9,3.4,0.4,4.3-1.2
		c0.3-0.6,0.5-1.3,0.4-2l-2.9-22.2c-0.1-1,0.2-2,1-2.7L590.4,298.7z"/>
	<path fill="#FCCF84" d="M510.3,444.8c-3.7,3.9-7.4,7.8-11,11.6l-4.6-4.9c-1.2-1.3-1.1-3.2,0.1-4.4c0.5-0.5,1.2-0.8,1.9-0.8
		L510.3,444.8z"/>
	<path fill="#FCCF84" d="M430.9,521.3c-0.8,0.7-1.1,1.7-1,2.8l2.2,17.1c-1.8,2.6-3.5,5.1-5.2,7.6l-18.3-10.6c-0.9-0.5-2-0.6-2.9-0.1
		l-6,2.8c2.9-15.4,8.1-35,16.1-59.3l5.9,13.4c0.4,0.9,1.3,1.6,2.3,1.8l22,4.1c1.7,0.3,2.8,2,2.5,3.7c-0.1,0.7-0.5,1.3-1,1.8
		L430.9,521.3z"/>
	<path fill="#FCCF84" d="M997.2,450.2l-22.4-0.2c-1,0-2-0.5-2.6-1.4L959.6,430c-1-1.4-2.9-1.8-4.4-0.9c-0.6,0.4-1,1-1.2,1.6
		l-7.1,21.2c-0.3,1-1.1,1.7-2.1,2l-21.6,6.2c-1.7,0.5-2.6,2.2-2.2,3.9c0.2,0.7,0.6,1.3,1.2,1.7l18,13.4c0.8,0.6,1.3,1.6,1.3,2.6
		l-0.8,22.4c-0.1,1.7,1.3,3.2,3,3.3c0.7,0,1.4-0.2,2-0.6l18.3-13c0.8-0.6,1.9-0.7,2.9-0.4l21.1,7.7c1.6,0.6,3.4-0.3,4-1.9
		c0.2-0.6,0.3-1.4,0-2l-6.7-21.4c-0.3-1-0.1-2.1,0.5-2.9l13.8-17.7c1-1.4,0.7-3.4-0.6-4.4C998.5,450.4,997.8,450.2,997.2,450.2z"/>
	<path fill="#FCCF84" d="M1084.9,399.7c-0.9,0.1-1.8-0.1-2.5-0.7l-16.9-14.7c-0.8-0.7-1.8-0.9-2.8-0.7l-21.7,5.6
		c-1.7,0.4-3.4-0.6-3.8-2.3c-0.2-0.7-0.1-1.4,0.1-2l8.8-20.7c0.4-1,0.3-2-0.2-2.9l-1.7-2.6C1060.3,370.9,1075.7,385.1,1084.9,399.7z
		"/>
	<path fill="#F9C163" d="M654,405.4c-0.7,0.7-1.1,1.7-0.9,2.8l3.5,22.1c0.3,1.7-0.9,3.3-2.6,3.6c-0.7,0.1-1.4,0-2-0.3l-15.9-8.6
		c0.4-2.7,0.9-5.2,1.4-7.5c4.1-19.9-9.1-16.5-30.2-1.2l1.6-8.6c0.2-1-0.1-2.1-0.9-2.8L592.2,389c-1.2-1.2-1.2-3.2,0-4.4
		c0.5-0.5,1.1-0.8,1.8-0.9l22.2-3c1-0.1,1.9-0.8,2.4-1.7l10.2-20c0.8-1.5,2.7-2.2,4.2-1.4c0.6,0.3,1.1,0.8,1.4,1.5l9.7,20.2
		c0.4,0.9,1.3,1.6,2.3,1.8l22.2,3.5c1.7,0.3,2.9,1.9,2.6,3.6c-0.1,0.7-0.4,1.3-0.9,1.8L654,405.4z"/>
	<path fill="#F9C163" d="M568.4,448.8c-13.4,12.2-27.4,25.8-41.1,39.4l-16.7,7.9c-1.6,0.7-3.4,0.1-4.2-1.5c-0.3-0.6-0.4-1.3-0.2-2
		l4.7-21.9c0.2-1-0.1-2.1-0.8-2.8l-10.8-11.4c3.6-3.8,7.2-7.7,11-11.6l8.6-0.8c1-0.1,1.9-0.7,2.4-1.6l10.8-19.7
		c0.8-1.5,2.8-2.1,4.3-1.2c0.6,0.3,1.1,0.9,1.4,1.5l9.1,20.5c0.4,0.9,1.3,1.6,2.3,1.8L568.4,448.8z"/>
	<path fill="#F9C163" d="M428,549.4l-1.1-0.7c1.7-2.5,3.4-5,5.2-7.6l0.7,5.1c0.2,1.7-1,3.3-2.7,3.5
		C429.3,549.9,428.6,549.7,428,549.4z"/>
	<path fill="#F9C163" d="M657.8,550.3c-0.5,0.9-0.5,2,0,2.9l10.1,20c0.8,1.6,0.2,3.4-1.4,4.2c-0.6,0.3-1.3,0.4-2,0.3l-22-4.2
		c-1-0.2-2.1,0.1-2.8,0.8l-15,14.8c0.9-24.4,2-49.9,3.4-74l12.4,13.1c0.7,0.8,1.7,1.1,2.8,1l22.2-3.4c1.7-0.3,3.3,0.9,3.6,2.6
		c0.1,0.7,0,1.4-0.4,2L657.8,550.3z"/>
	<path fill="#F9C163" d="M678.8,661.2c-0.1,18.5-1.6,36.9-4.5,55.2c-1.5,0.2-3,0.3-4.5,0.4l-2.1-2.5c-0.7-0.8-1.7-1.2-2.7-1.1
		l-22.3,2.3c-1.7,0.2-3.3-1.1-3.4-2.8c-0.1-0.7,0.1-1.4,0.4-2l11.7-19.1c0.5-0.9,0.6-2,0.2-2.9l-9.1-20.5c-0.7-1.6,0-3.5,1.6-4.2
		c0.6-0.3,1.3-0.3,2-0.2l21.8,5.2c1,0.3,2.1,0,2.8-0.7L678.8,661.2z"/>
	<path fill="#D25A48" d="M506.2,492.6l4.7-21.9c0.2-1-0.1-2.1-0.8-2.8l-10.8-11.4c-19,20.3-34.9,38.6-42.1,49.1
		c-7.6,11.2-16.9,23.6-25.3,35.6l0.7,5.1c0.2,1.7-1,3.3-2.7,3.5c-0.7,0.1-1.4-0.1-2-0.4l-1.1-0.7C416,565,408,580.2,409.6,590.7
		c12.8,1.2,33.4-14.7,52.6-35.2c14.8-15.8,39.2-41.5,65.1-67.3l-16.7,7.9c-1.6,0.7-3.4,0.1-4.2-1.5C506.1,494,506,493.3,506.2,492.6
		z"/>
	<path fill="#D25A48" d="M677.4,526c3.4-91.8,37.5-146.8,4.7-165.8s-54.5-20.4-75.4-7.1c-12.9,8.2-58.3,51.9-96.4,91.8l8.7-0.9
		c1-0.1,1.9-0.7,2.4-1.6l10.8-19.7c0.8-1.5,2.8-2.1,4.3-1.2c0.6,0.3,1.1,0.9,1.4,1.5l9.1,20.5c0.4,0.9,1.3,1.6,2.3,1.8l19.2,3.6
		c14.3-13,27.7-24.5,38.9-32.6l0,0l1.6-8.6c0.2-1-0.1-2.1-0.9-2.8L592.2,389c-1.2-1.2-1.2-3.2,0-4.4c0.5-0.5,1.1-0.8,1.8-0.9l22.2-3
		c1-0.1,1.9-0.8,2.4-1.7l10.2-20c0.8-1.5,2.7-2.2,4.2-1.4c0.6,0.3,1.1,0.8,1.4,1.5l9.7,20.2c0.4,0.9,1.3,1.6,2.3,1.8l22.2,3.5
		c1.7,0.3,2.9,1.9,2.6,3.6c-0.1,0.7-0.4,1.3-0.9,1.8L654,405.4c-0.7,0.7-1.1,1.7-0.9,2.8l3.5,22.1c0.3,1.7-0.9,3.3-2.6,3.6
		c-0.7,0.1-1.4,0-2-0.3l-15.9-8.6c-3.3,20.4-6,53.6-8,90.4l12.4,13.1c0.7,0.8,1.7,1.1,2.8,1l22.2-3.4c1.7-0.3,3.3,0.9,3.6,2.6
		c0.1,0.7,0,1.4-0.4,2l-10.8,19.7c-0.5,0.9-0.5,2,0,2.9l10.1,20c0.8,1.6,0.2,3.4-1.4,4.2c-0.6,0.3-1.3,0.4-2,0.3l-22-4.2
		c-1-0.2-2.1,0.1-2.8,0.8l-15,14.8c-2.4,64.8-3.4,121.7-3.4,121.7l0.9-0.2c2,6.8,19.3,8.6,47.8,6.1l-2.1-2.5
		c-0.7-0.8-1.7-1.2-2.7-1.1l-22.3,2.3c-1.7,0.2-3.3-1.1-3.4-2.8c-0.1-0.7,0.1-1.4,0.4-2l11.7-19.1c0.5-0.9,0.6-2,0.2-2.9l-9.1-20.5
		c-0.7-1.6,0-3.5,1.6-4.2c0.6-0.3,1.3-0.3,2-0.2l21.8,5.2c1,0.3,2.1,0,2.8-0.7l8-7.2C679.1,623.8,675.1,586.4,677.4,526z"/>
	<path fill="#FEDBA1" d="M904.3,158.9l-20.3,1.5c-1,0.1-2,0.7-2.5,1.6l-11.3,19.4c-0.9,1.5-2.8,2-4.3,1.1c-0.6-0.3-1.1-0.9-1.3-1.5
		l-8.5-20.8c-0.4-1-1.2-1.7-2.2-1.9l-21.9-4.8c-1.7-0.4-2.8-2-2.4-3.7c0.1-0.7,0.5-1.3,1-1.7l17.1-14.5c0.8-0.7,1.2-1.7,1.1-2.7
		l-1.3-13.8C872.7,119.6,890.8,136.4,904.3,158.9z"/>
	<path fill="#FEDBA1" d="M916.8,295c-0.5,0.9-0.6,2-0.2,2.9l9,20.6c0.7,1.6,0,3.5-1.6,4.1c-0.6,0.3-1.3,0.3-2,0.2l-21.8-5.4
		c-1-0.3-2.1,0-2.8,0.7l-12.6,11.2c-1.4-17.3,1.5-45.8-1-75.3c1-0.1,1.9,0.3,2.6,1.1l14.4,17.2c0.7,0.8,1.7,1.2,2.7,1.1l22.3-2.2
		c1.7-0.2,3.3,1.1,3.5,2.8c0.1,0.7-0.1,1.4-0.5,2L916.8,295z"/>
	<path fill="#E9725D" d="M883.9,160.4c-1,0.1-2,0.7-2.5,1.6l-11.3,19.4c-0.9,1.5-2.8,2-4.3,1.1c-0.6-0.3-1.1-0.9-1.3-1.5l-8.5-20.8
		c-0.4-1-1.2-1.7-2.2-1.9l-21.9-4.8c-1.7-0.4-2.8-2-2.4-3.7c0.1-0.7,0.5-1.3,1-1.7l17.1-14.5c0.8-0.7,1.2-1.7,1.1-2.7l-1.3-13.8
		c-5.1-0.5-10.3-0.5-15.3,0.1c-25.3,2.8-57,12.2-91.4,27.3c58.3,2,113.9,17.1,132.2,61c6.4,15.3,9.5,32.1,10.8,48.5
		c1-0.1,1.9,0.3,2.6,1.1l14.4,17.2c0.7,0.8,1.7,1.2,2.7,1.1l22.3-2.2c1.7-0.2,3.3,1.1,3.5,2.8c0.1,0.7-0.1,1.4-0.5,2l-11.9,19
		c-0.5,0.9-0.6,2-0.2,2.9l9,20.6c0.7,1.6,0,3.5-1.6,4.1c-0.6,0.3-1.3,0.3-2,0.2l-21.8-5.4c-1-0.3-2.1,0-2.8,0.7l-12.6,11.2
		c1.2,15.1,5.6,21.6,19.6,13c18.9-11.7,33.3-30.3,42.9-53.1c-9.4-28.1-18.2-88.9-42.9-130.3L883.9,160.4z"/>
	<path fill="#E9725D" d="M975.8,292c-3.2,12.3-4.8,26,14.8,34.7c12.8,5.7,33.8,17.4,53.4,32.1l-10.4-16.3c-0.9-1.5-0.5-3.4,1-4.3
		c0.6-0.4,1.3-0.5,2-0.5l22.3,2c1,0.1,2-0.3,2.7-1.1l3.1-3.8C1021.3,286.2,994,283,975.8,292z"/>
	<path fill="#E9725D" d="M1197.6,542.6l-0.9-1.7l0,0c-40.9-77.4-74.9-132.3-103.3-170.7l-2.9,1.8c-0.9,0.5-1.5,1.5-1.5,2.5
		l-1.4,22.4c-0.1,1.5-1.2,2.7-2.7,2.9c4.5,7.1,7.5,14.2,8.5,21.3c2.3,16.3,14,48.9,29.1,81.2l7.3-9.1c1.1-1.4,3.1-1.6,4.4-0.5
		c0.5,0.4,0.9,1,1.1,1.7l5.3,21.8c0.2,1,1,1.8,1.9,2.2l21,8c1.6,0.6,2.4,2.4,1.8,4.1c-0.2,0.6-0.7,1.2-1.3,1.6l-19.1,11.8
		c-0.2,0.1-0.4,0.3-0.6,0.5c5.6,9.7,12,19.1,18.9,27.9C1186.9,559.5,1199.5,549.2,1197.6,542.6z"/>
	<path fill="#FEDBA1" d="M1093.4,370.2l-2.9,1.8c-0.9,0.5-1.5,1.5-1.5,2.5l-1.4,22.4c-0.1,1.5-1.2,2.7-2.7,2.9
		c-9.2-14.6-24.6-28.8-40.9-41l-10.4-16.3c-0.9-1.5-0.5-3.4,1-4.3c0.6-0.4,1.3-0.5,2-0.5l22.3,2c1,0.1,2-0.3,2.7-1.1l3.1-3.8
		C1073.6,344.5,1083.2,356.3,1093.4,370.2z"/>
	<path fill="#FEDBA1" d="M1164.1,532l-19.1,11.8c-0.2,0.1-0.4,0.3-0.6,0.5c-7.7-12.9-15.1-27.4-22-41.9l7.3-9.1
		c1.1-1.4,3.1-1.6,4.4-0.5c0.5,0.4,0.9,1,1.1,1.7l5.3,21.8c0.2,1,1,1.8,1.9,2.2l21,8c1.6,0.6,2.5,2.4,1.9,4
		C1165.1,531.1,1164.7,531.6,1164.1,532z"/>
	<path fill="#DF6551" d="M1180.2,646.3c0.1-19.8,20.1-43.8,36.3-55.6c31.2-22.6,70.6-41.2,91.3-67.8s-62.6-11.3-99.9-15.4
		c-24.1-2.7-16.1-10.9,21.8-29.7c96.8-10.7,161-4.5,168.5,21C1407.9,531.9,1319.4,589.1,1180.2,646.3z"/>
</g>
</svg>
