<?xml version="1.0" encoding="utf-8"?>
<!-- Generator: Adobe Illustrator 24.2.0, SVG Export Plug-In . SVG Version: 6.00 Build 0)  -->
<svg version="1.1" id="asset" xmlns="http://www.w3.org/2000/svg" xmlns:xlink="http://www.w3.org/1999/xlink" x="0px" y="0px"
	 viewBox="0 0 2000 2000" enable-background="new 0 0 2000 2000" xml:space="preserve">
<g>
	<path fill="#FBCC7D" d="M1201.3,361.9l-43.1,262c-30.4-10.6-54.5-20-74-28.3L1065,368.8c0,0-46.3-14.2-111.4-20.7
		c-34.9-3.5-75.3-4.8-116.9-0.5c-33.7,3.5-68.1,10.5-101.1,23.1c61.8-27.2,125.8-41,172-47.9c37-5.5,62.5-6.7,66.6-6.9h0.5
		C1092.1,314.2,1201.3,361.9,1201.3,361.9z"/>
	<path fill="#D8E377" d="M974.3,315.8c-4,0.2-29.6,1.3-66.6,6.9C929.6,318.3,951.9,316,974.3,315.8z"/>
	<path fill="#DF9B39" d="M1086.7,624c-8.1-2.8-16-5.6-23.6-8.3c-164.6-58.8-213.3-88.3-332.8-58.3c-20.6,5.2-39.2,16.5-53.1,32.6
		c-25.8,29.8-46.7,63.4-62,99.7c-1,2.5-2,4.9-3,7.4L545.5,624c23.7-146.8,101.6-219.7,190.1-253.4l0,0c33-12.6,67.4-19.7,101.1-23.1
		c41.6-4.3,81.9-3,116.9,0.5c65.1,6.5,111.4,20.7,111.4,20.7l9.2,108l10.1,119L1086.7,624z"/>
	<polygon fill="#F8B84F" points="1086.7,624 1158.3,624 1201.3,361.9 1065,368.7 	"/>
	<path fill="#D8E377" d="M974.8,315.8L974.8,315.8z"/>
	<path fill="#CE8C32" d="M1076.6,619.6c0,0.3-0.2,0.6-0.5,0.6c-0.1,0-0.2,0-0.2,0l-12.9-4.6c-164.6-58.8-213.3-88.3-332.8-58.3
		c-20.6,5.2-39.2,16.6-53.1,32.7c-25.6,29.5-46.4,62.9-61.7,98.9c-0.1,0.3-0.4,0.4-0.7,0.3c-0.1,0-0.2-0.1-0.2-0.2l-53.8-72
		c-0.2-0.2-0.1-0.6,0.1-0.7c0.2-0.2,0.5-0.1,0.7,0.1l47.5,49.7c0.2,0.2,0.5,0.3,0.7,0.1c0.2-0.2,0.2-0.5,0.1-0.7l-41.1-72.1
		c-0.1-0.3,0-0.6,0.2-0.7c0.2-0.1,0.5-0.1,0.6,0.1l46.5,53.7c0.2,0.2,0.5,0.2,0.7,0c0.2-0.1,0.2-0.4,0.2-0.6l-36-102.5
		c0-0.3,0.2-0.5,0.5-0.5c0.1,0,0.3,0,0.4,0.1l47.7,77.3c0.1,0.3,0.4,0.4,0.7,0.3c0.3-0.1,0.4-0.4,0.3-0.7l0,0l-36.6-114.5
		c-0.1-0.3,0.1-0.6,0.4-0.7c0.2-0.1,0.4,0,0.6,0.2l54.2,74.3c0.2,0.2,0.5,0.3,0.7,0.1c0.2-0.1,0.3-0.4,0.2-0.6l-35-105.3
		c-0.1-0.3,0.1-0.6,0.3-0.7c0.2-0.1,0.5,0,0.6,0.2l52.3,76.2c0.2,0.2,0.5,0.3,0.7,0.1c0.2-0.1,0.3-0.3,0.2-0.5L644,439.8
		c-0.1-0.3,0-0.6,0.3-0.7c0.3-0.1,0.6,0,0.7,0.3l48.6,78.9c0.1,0.3,0.4,0.4,0.7,0.3s0.4-0.4,0.3-0.7l0,0L674,420.7
		c-0.1-0.3,0-0.6,0.3-0.7s0.6,0,0.7,0.3l47.3,81.4c0.1,0.3,0.4,0.4,0.7,0.3s0.4-0.4,0.3-0.7l0,0l-24.4-99.1c-0.1-0.3,0-0.6,0.3-0.7
		s0.6,0,0.7,0.3l59.2,104.6c0.1,0.3,0.4,0.4,0.7,0.3c0.3-0.1,0.4-0.4,0.3-0.7L728,390.8c-0.1-0.3,0-0.6,0.3-0.7s0.6,0,0.7,0.3
		l51.1,99.5c0.1,0.3,0.4,0.4,0.7,0.3c0.2-0.1,0.3-0.3,0.3-0.6l-19.4-114.3c0-0.3,0.2-0.6,0.4-0.6c0.2,0,0.4,0.1,0.6,0.3l51.8,114.6
		c0.1,0.3,0.5,0.4,0.7,0.2c0.2-0.1,0.3-0.3,0.3-0.5l-18-123.2c0-0.3,0.2-0.5,0.5-0.6c0.2,0,0.4,0.1,0.5,0.3l50.9,119.4
		c0.1,0.3,0.5,0.4,0.7,0.2c0.2-0.1,0.3-0.3,0.3-0.5l-12.4-123.6c0-0.3,0.3-0.5,0.6-0.5c0.2,0,0.4,0.1,0.4,0.3l37.1,121.1
		c0.1,0.3,0.5,0.4,0.7,0.2c0.2-0.1,0.3-0.2,0.3-0.4l-6.7-123.4c0-0.3,0.3-0.5,0.6-0.4c0.2,0,0.3,0.1,0.4,0.3l27.4,136
		c0.1,0.3,0.4,0.4,0.7,0.3c0.2-0.1,0.3-0.2,0.3-0.4V356.9c0-0.3,0.2-0.5,0.5-0.5c0.2,0,0.5,0.2,0.5,0.4l27.8,146.6
		c0.1,0.3,0.3,0.5,0.6,0.4c0.2,0,0.4-0.3,0.4-0.5V368.1c0.1-0.3,0.4-0.5,0.6-0.4c0.2,0,0.3,0.1,0.4,0.3l27,156.3
		c0.1,0.3,0.3,0.5,0.6,0.4c0.2,0,0.4-0.2,0.4-0.5l9.1-161c0-0.3,0.3-0.5,0.6-0.5c0.2,0,0.4,0.2,0.5,0.5l20.9,169.7
		c0,0.3,0.3,0.5,0.6,0.5c0.2,0,0.4-0.2,0.5-0.5l8.8-159.2c0.1-0.3,0.4-0.4,0.7-0.4c0.2,0,0.3,0.2,0.3,0.3
		c4.7,29.2,29.3,180.8,32.9,183.2c3.4,2.3-6.3-136.5-9.2-177c0.1-0.3,0.3-0.5,0.6-0.4c0.2,0,0.3,0.1,0.4,0.3l22.5,132.6
		c0.1,0.3,0.4,0.4,0.7,0.3c0.2-0.1,0.3-0.2,0.3-0.4l-6.2-128.5c0.1-0.3,0.3-0.5,0.6-0.4c0.2,0,0.3,0.1,0.4,0.3L1076.6,619.6z"/>
	<path fill="#F1AE44" d="M1094.1,624c-0.3,0-0.5-0.2-0.5-0.5c0,0,0,0,0,0l-12-242.9l18,204.2c0,0.3,0.2,0.5,0.5,0.5s0.5-0.2,0.5-0.5
		l10.5-185.5c0.1-0.3,0.4-0.4,0.7-0.3c0.2,0.1,0.3,0.2,0.3,0.3v189.5c0,0.3,0.2,0.5,0.5,0.6c0.3,0,0.5-0.2,0.6-0.5l0,0l18.3-194.1
		c0-0.3,0.3-0.5,0.6-0.5s0.5,0.3,0.5,0.6l-6,188.6c0.1,0.3,0.4,0.5,0.6,0.4c0.2,0,0.3-0.2,0.4-0.3l19.7-188.7c0-0.3,0.3-0.5,0.6-0.5
		c0.3,0,0.5,0.3,0.5,0.6l-9.7,191.4c0,0.3,0.2,0.6,0.5,0.6c0.3,0,0.6-0.2,0.6-0.5l28.2-214.4l-20.4,213.8c0,0.3,0.2,0.6,0.5,0.6
		c0.3,0,0.5-0.2,0.6-0.4c8.5-51.8,35.5-215.6,36-214c0.7,2-30.3,239.8-31.9,251.6c0,0.3-0.3,0.5-0.5,0.5L1094.1,624z"/>
</g>
</svg>
