<?xml version="1.0" encoding="utf-8"?>
<!-- Generator: Adobe Illustrator 24.2.0, SVG Export Plug-In . SVG Version: 6.00 Build 0)  -->
<svg version="1.1" id="asset" xmlns="http://www.w3.org/2000/svg" xmlns:xlink="http://www.w3.org/1999/xlink" x="0px" y="0px"
	 viewBox="0 0 2000 2000" enable-background="new 0 0 2000 2000" xml:space="preserve">
<g>
	<path fill="#33312D" d="M1164,503.9c-14.8-12.7-42.1-35.3-57.7-44.2c-13.8-7.9-14.2-14.4-10.9-29.6l0,0c2-9.3,5.4-21.7,7.9-39.7
		c6.5-46.9-24.7-100.7-130.1-121l-2.8-0.5c-43.8-8.1-86.5-5-127.9,6.4c-55.9,15.3-109.4,45.8-160,84c-1.3,1-2.6,2-3.9,3
		c-2.8,2.1-5.6,4.3-8.4,6.5c-72.3-73.3-77.9-69.3-84.4-60s2.8,19.4,21.4,41c12.7,14.6,20.8,37.7,25.7,54.8
		C555,491.4,484.9,643.5,478,699.8c-0.7,5.3-0.9,10.6-0.8,15.8c1,25.8,14.7,33.8,30.3,35.9c12.6,1.7,26.5-0.4,35.7,0.2
		c22.6,1.3,30.6-46.6,49.9-47.9s-38,82.5-7.5,73.2c156-47.7,266.2-85.8,345.8-117.3c165.2-65.4,198.3-102.4,233.2-137.3
		c0.2-0.2,0.4-0.5,0.6-0.7C1169.8,516.4,1169.3,508.5,1164,503.9L1164,503.9z"/>
	
		<linearGradient id="SVGID_1_" gradientUnits="userSpaceOnUse" x1="972.9999" y1="-1150.25" x2="1104.0184" y2="-1150.25" gradientTransform="matrix(1 0 0 1 0 1500)">
		<stop  offset="0" style="stop-color:#000000;stop-opacity:0.2"/>
		<stop  offset="0.54" style="stop-color:#191816;stop-opacity:0.6"/>
		<stop  offset="1" style="stop-color:#33312D"/>
	</linearGradient>
	<path fill="url(#SVGID_1_)" d="M1103.2,390.4c-2.5,17.9-5.9,30.4-7.9,39.7c-10.6-59.5-41.3-116.9-122.3-160.7
		C1078.5,289.7,1109.7,343.5,1103.2,390.4z"/>
	
		<linearGradient id="SVGID_2_" gradientUnits="userSpaceOnUse" x1="459.1857" y1="-910.1014" x2="879.3658" y2="-1093.2615" gradientTransform="matrix(1 0 0 1 0 1500)">
		<stop  offset="0" style="stop-color:#000000;stop-opacity:0.2"/>
		<stop  offset="0.54" style="stop-color:#191816;stop-opacity:0.6"/>
		<stop  offset="1" style="stop-color:#33312D"/>
	</linearGradient>
	<path fill="url(#SVGID_2_)" d="M678.5,362.2c-2.8,2.1-5.6,4.3-8.4,6.5c-91.3,72-184,265.9-192,331c-0.7,5.3-0.9,10.6-0.8,15.8
		C511.6,685,575.4,584,637.5,532c82.7-69.2,171.8-84.4,209-114.7s41.6-47.2-14.5-48.7c-3.5-0.1-7.4-0.3-11.6-0.5
		c-32.9-1.7-83.6-6.6-138-9L678.5,362.2z"/>
	
		<linearGradient id="SVGID_3_" gradientUnits="userSpaceOnUse" x1="534.6037" y1="-774.0804" x2="908.8338" y2="-889.5203" gradientTransform="matrix(1 0 0 1 0 1500)">
		<stop  offset="0" style="stop-color:#000000;stop-opacity:0.2"/>
		<stop  offset="0.54" style="stop-color:#191816;stop-opacity:0.6"/>
		<stop  offset="1" style="stop-color:#33312D"/>
	</linearGradient>
	<path fill="url(#SVGID_3_)" d="M1165.3,521.6c-0.2,0.2-0.4,0.5-0.6,0.7c-34.9,34.9-68,71.9-233.2,137.3
		c-79.6,31.5-189.9,69.7-345.9,117.3c-30.5,9.3,26.8-74.5,7.5-73.2s-27.3,49.2-49.9,47.9h-0.3c-18.2-1-27.6-22.2-15.7-36.1
		c43-50.4,142.2-98.6,186.3-111.5C766.1,588.6,989.6,529.6,1165.3,521.6z"/>
</g>
</svg>
