<?xml version="1.0" encoding="utf-8"?>
<!-- Generator: Adobe Illustrator 24.2.0, SVG Export Plug-In . SVG Version: 6.00 Build 0)  -->
<svg version="1.1" id="asset" xmlns="http://www.w3.org/2000/svg" xmlns:xlink="http://www.w3.org/1999/xlink" x="0px" y="0px"
	 viewBox="0 0 2000 2000" enable-background="new 0 0 2000 2000" xml:space="preserve">
<g>
	<path fill="#4A4844" d="M815.7,803.7l39.1-241.3l-30.6-5l-32.3,199.6C766,706.2,737.4,650.2,715.6,608l-27.5,14.2
		c51.3,99.3,140.7,275.7,141.6,277.5l27.7-14C856.9,884.9,839.5,850.5,815.7,803.7z"/>
	<path fill="#DF6551" d="M1174.3,560c-13.3,8.3-107.7,94.6-316.4,30.7c-39.7-13.6-79.5,7.7-119.5,35.5
		c-42.5,29.5-85.3,66.3-128.6,76.9c0,0-7-17.3-14.7-45.1c-1.2-4.3-2.4-8.8-3.6-13.6s-2.3-9.5-3.4-14.5c-1-4.5-2-9.1-2.9-13.8
		c-14.8-75.3-20.2-184,44.1-261c15.2-18.1,33.3-33.6,53.5-45.8c15-9.1,30.9-16.7,47.4-22.7c9.7-3.6,20-6.8,30.8-9.7
		c4.2-1.1,8.4-2.2,12.6-3.1c6.7-1.6,13.2-3,19.6-4.2c12.1-2.4,23.9-4.1,35.2-5.3l1.5-0.2c6.4-0.7,12.7-1.2,18.9-1.5
		c10.3-0.5,20.3-0.6,29.9-0.2c193.9,7.2,243.3,189.2,248.3,207.9c0.7,2.5,3.1,4.6,6.9,6.6c1.8,0.9,3.6,1.7,5.5,2.5
		c14.5,5.7,38.7,10.4,55.9,17.9c0.6,0.3,1.2,0.5,1.8,0.8C1220.5,508.9,1228.7,525.8,1174.3,560z"/>
	<path fill="#DF6551" d="M1119.2,447.3c-0.3-1.2-0.8-3.1-1.6-5.7c1.1,3,2.1,5.7,3,8.3C1120,449.2,1119.5,448.3,1119.2,447.3z"/>
	
		<linearGradient id="SVGID_1_" gradientUnits="userSpaceOnUse" x1="559.5463" y1="1351.615" x2="744.5363" y2="1586.4751" gradientTransform="matrix(1 0 0 -1 0 2000)">
		<stop  offset="0.34" style="stop-color:#CC5444"/>
		<stop  offset="0.41" style="stop-color:#D05746"/>
		<stop  offset="0.7" style="stop-color:#DB624E"/>
		<stop  offset="1" style="stop-color:#DF6551"/>
	</linearGradient>
	<path fill="url(#SVGID_1_)" d="M738.4,626.2c-42.5,29.5-85.3,66.3-128.6,76.9c0,0-7-17.3-14.7-45.1c-1.2-4.3-2.4-8.8-3.6-13.6
		s-2.3-9.5-3.4-14.5c-1-4.5-2-9.1-2.9-13.8c-14.8-75.3-20.2-184,44.1-261c-27.3,61.6-4,110,15.2,138.6s65.3,50.5,86.6,97.8
		C738.3,607.3,740.6,617.8,738.4,626.2z"/>
	<path fill="#FEE7DE" d="M1174.3,560c-13.3,8.3-107.7,94.6-316.4,30.7c-81.7-27.9-164,91.7-248.2,112.4c0,0-4.2-10.4-9.7-28
		c1.2,3.3,2,5.1,2,5.1c84.2-20.6,166.5-140.3,248.2-112.4c208.7,63.8,303.1-22.4,316.4-30.7c22.6-14.2,34.4-25.5,38.8-34.5
		C1221.6,513.7,1221.5,530.3,1174.3,560z"/>
	
		<linearGradient id="SVGID_2_" gradientUnits="userSpaceOnUse" x1="713.0897" y1="1746.5693" x2="1067.7596" y2="1573.5992" gradientTransform="matrix(1 0 0 -1 0 2000)">
		<stop  offset="0.31" style="stop-color:#DF6551"/>
		<stop  offset="0.92" style="stop-color:#EB8470"/>
	</linearGradient>
	<path fill="url(#SVGID_2_)" d="M1011.8,436.7c-31.2-1.1-53.6-76.9-104.1-108c-45.5-28-148.4-22.8-224.8-19.5
		c15-9.1,30.9-16.7,47.4-22.7c9.7-3.6,20-6.8,30.8-9.7c4.2-1.1,8.4-2.2,12.6-3.1c6.7-1.6,13.2-3,19.6-4.2
		c12.1-2.4,23.9-4.1,35.2-5.3c137.5,19,208.9,79.8,236.6,153.4C1072.4,437.1,1043,437.8,1011.8,436.7z"/>
	<path fill="#4A4844" d="M720.1,338.8c0.3,4.1-2.8,7.7-7,8c0,0,0,0,0,0h-0.5c-3.9,0-7.2-3.1-7.5-7c-1.4-20.9,9.5-38.6,25.1-53.3
		c9.7-3.6,20-6.8,30.8-9.7c4.2-1.1,8.4-2.2,12.6-3.1C735.7,295.8,718.6,316.7,720.1,338.8z"/>
	<path fill="#4A4844" d="M769.7,332.9c0.3,4.1-2.8,7.7-6.9,8c0,0,0,0-0.1,0h-0.5c-3.9,0-7.2-3.1-7.5-7
		c-1.8-26.5,16.1-47.8,38.5-64.5c12.7-2.5,24.9-4.3,36.7-5.5C787.3,287.5,768.1,309.5,769.7,332.9z"/>
	<path fill="#4A4844" d="M815.3,332.9c0.3,4.1-2.8,7.7-6.9,8c0,0,0,0-0.1,0h-0.5c-3.9,0-7.2-3.1-7.5-7c-2-30.3,21.7-53.8,48.4-71.4
		c10.3-0.5,20.3-0.6,29.9-0.2C833.9,286.4,813.8,309,815.3,332.9z"/>
	<path fill="#4A4844" d="M631,613.7c-11.9,5.5-28.1,11.3-42.8,16.2c-1-4.5-2-9.1-2.9-13.8c14-4.6,29-10,39.9-15.1
		c3.5-1.7,7.7-0.3,9.4,3.2c1.7,3.5,0.3,7.7-3.2,9.4C631.2,613.6,631.1,613.6,631,613.7z"/>
	<path fill="#4A4844" d="M640.4,641c-12.5,5.8-29.9,12-45.3,17c-1.2-4.3-2.4-8.8-3.6-13.6c14.8-4.8,31.3-10.7,43-16.1
		c3.5-1.7,7.7-0.2,9.3,3.3c1.7,3.5,0.2,7.7-3.3,9.3C640.5,641,640.5,641,640.4,641L640.4,641z"/>
	<path fill="#EB8470" d="M1195.2,497.1c-10.1,6-21.1,13-32.4,20.9c-66.5,46.6-166.7,44.8-200,30.2s43.9-20.8,106.9-32.4
		c39.6-7.2,61.8-22.6,69.7-36.6C1153.8,484.9,1178,489.6,1195.2,497.1z"/>
	<path fill="#EC917E" d="M829.8,890.3l20.8-10.4c5.9-3,13.1-0.6,16.1,5.4l16.8,33.5c3,5.9,0.6,13.1-5.4,16.1l-20.8,10.4
		c-5.9,3-13.1,0.6-16.1-5.4l-16.8-33.5C821.5,900.5,823.9,893.3,829.8,890.3z"/>
	<circle fill="#FEE7DE" cx="795" cy="787.6" r="33.7"/>
	<polygon fill="#4A4844" points="830,900 857.5,885.7 877.6,925.4 850.3,940.1 	"/>
	<circle fill="#DF6551" cx="795" cy="787.6" r="28.1"/>
	<path fill="#EB8470" d="M800,811.7c22.2-3.9,22.9-26.4,18.7-32.8c-2.4-3.6-8.5-8.8-10.8-4.3s11.7,10.5,4.8,20.7s-19,3.2-23.1,5.2
		S790.2,813.4,800,811.7z"/>
</g>
</svg>
