<?xml version="1.0" encoding="utf-8"?>
<!-- Generator: Adobe Illustrator 24.2.0, SVG Export Plug-In . SVG Version: 6.00 Build 0)  -->
<svg version="1.1" id="asset" xmlns="http://www.w3.org/2000/svg" xmlns:xlink="http://www.w3.org/1999/xlink" x="0px" y="0px"
	 viewBox="0 0 2000 2000" enable-background="new 0 0 2000 2000" xml:space="preserve">
<g>
	<path fill="#D55D4B" d="M1324,733.4c-83.7-65.5-259-90.2-456.6,14.9c-40.5,21.5-18,257.4-18,257.4H832c0,0-1.8-51.2-5.8-133.7
		s-91.8-111.7-237.9,8.6l0,0c-1.8-14.8-2.6-29.7-2.6-44.6c0-207.8,168.5-376.3,376.3-376.3C1134.2,459.7,1279.4,575.4,1324,733.4z"
		/>
	<path fill="#FBC3AF" d="M772.6,580.8c-1.2-3.8-7.2-7.8-16.4-8.3c6.9-10.8,9.8-22.4,6.7-26.2c-3.5-4-14.9-5.2-27.3,3.5
		c0.5-11.6-2.3-21.6-6.5-23.3c-6.3-2.5-21.8,5.2-27.1,28.7c-8.4-13.3-22-22.9-27.4-20.7c-5.6,2.3-10.8,15.8-2.6,33.4
		c-15.5-4.9-32.9-3-35.5,2.4s2.4,18.7,19.9,26.5c-14.2,5-26,15.1-25.2,20.7s11.2,13.5,28.4,11.5c-3.9,13.5-3,27.3,1.6,30
		c4.9,2.9,17.5-0.5,26.6-15.3c4.3,12.6,12.2,22.6,17.2,22.4c6.4-0.3,16.5-12.6,13.1-34.1c15.2,9.8,36.7,11.5,40.5,6
		c3.4-4.9,0.6-18.5-14.9-28.8C760.4,602.9,774.6,587.2,772.6,580.8z M709.1,597.4c-2.1,0.4-4,1.5-5.4,3.1c-3.1-1.3-6.6-0.7-9.2,1.4
		c-0.2-0.2-0.5-0.4-0.7-0.6c1.8-1.3,3.1-3.2,3.5-5.3c2.9,0.1,6.9-1,9.4-7c1.8,0.4,3.6,0.3,5.3-0.2c0.5,1,1.2,1.9,2.1,2.7
		c-1.3,1.2-2.5,2.4-3.8,3.7c-0.4,0.7-0.6,1.5-0.8,2.4C709.4,597.5,709.3,597.4,709.1,597.4L709.1,597.4z"/>
	
		<ellipse transform="matrix(0.7945 -0.6072 0.6072 0.7945 -218.421 549.4948)" fill="#F7B548" cx="702.7" cy="597.5" rx="25.6" ry="12.6"/>
	<path fill="#FBC3AF" d="M675.5,748.4c-1.2-3.8-7.2-7.8-16.4-8.3c6.9-10.8,9.8-22.4,6.7-26.2c-3.4-4-14.9-5.2-27.3,3.5
		c0.5-11.6-2.3-21.6-6.5-23.3c-6.3-2.5-21.8,5.2-27.1,28.7c-8.4-13.3-22-22.9-27.4-20.7c-5.6,2.3-10.8,15.8-2.6,33.4
		c-15.5-4.9-32.9-3-35.5,2.4s2.4,18.7,19.8,26.5c-14.2,5-26,15.1-25.2,20.7s11.2,13.5,28.4,11.5c-3.9,13.5-3,27.3,1.6,29.9
		c4.9,2.9,17.5-0.5,26.6-15.3c4.3,12.6,12.2,22.6,17.2,22.4c6.4-0.3,16.5-12.6,13.1-34.1c15.2,9.8,36.7,11.5,40.5,6
		c3.4-4.9,0.6-18.5-14.9-28.8C663.3,770.4,677.5,754.8,675.5,748.4z M612,765c-2.1,0.4-4,1.5-5.4,3.1c-3.1-1.3-6.6-0.7-9.2,1.4
		c-0.2-0.2-0.5-0.4-0.7-0.6c1.8-1.3,3.1-3.2,3.5-5.3c2.9,0.1,6.9-0.9,9.4-7c1.8,0.4,3.6,0.3,5.3-0.2c0.5,1,1.3,1.9,2.1,2.7
		c-1.3,1.2-2.5,2.4-3.8,3.7c-0.4,0.7-0.6,1.5-0.8,2.4L612,765z"/>
	
		<ellipse transform="matrix(0.7945 -0.6072 0.6072 0.7945 -340.1275 524.9308)" fill="#F7B548" cx="605.6" cy="765" rx="25.6" ry="12.6"/>
	<path fill="#FBC3AF" d="M882.8,722.7c0.6-4-3.1-10.2-11.2-14.6c10.9-6.7,18.6-16,17.3-20.7c-1.3-5.1-11.2-11.1-26.1-8.7
		c5.4-10.2,7.3-20.5,4.2-23.8c-4.5-5-21.8-4.8-36.9,14.1c-1.8-15.7-9.9-30.2-15.7-30.5c-6-0.3-16.5,9.5-16.8,29
		c-11.8-11.1-28.3-17-33.1-13.2s-6,17.9,6.4,32.5c-15-1.7-30,2.4-31.7,7.7s4.3,17,20.6,22.7c-9.4,10.5-14.5,23.3-11.6,27.7
		c3.2,4.7,16,7.1,30.6-2.3c-1.6,13.2,1.2,25.7,5.8,27.6c5.9,2.5,20.3-4.2,26.6-25c9.5,15.4,28,26.3,33.9,23
		c5.2-2.9,8.6-16.4-0.9-32.5C862.2,737.2,881.8,729.3,882.8,722.7z M818.4,710.1c-2.1-0.5-4.2-0.4-6.2,0.4c-2.2-2.5-5.6-3.5-8.9-2.7
		c-0.1-0.3-0.3-0.6-0.4-0.8c2.2-0.4,4.1-1.5,5.5-3.3c2.5,1.3,6.7,2.2,11.5-2.2c1.4,1.1,3.1,1.8,4.9,2.1c0,1.2,0.3,2.3,0.8,3.3
		c-1.6,0.5-3.3,1-5,1.6c-0.7,0.5-1.3,1.1-1.8,1.8L818.4,710.1z"/>
	
		<ellipse transform="matrix(0.9792 -0.2028 0.2028 0.9792 -126.5656 179.4783)" fill="#F7B548" cx="812.6" cy="707.4" rx="25.6" ry="12.6"/>
	<path fill="#FBC3AF" d="M950.6,503.1c0.7-3.9-2.8-10.3-10.7-15c11.1-6.3,19.2-15.3,18.1-20c-1.2-5.2-10.8-11.5-25.8-9.6
		c5.8-10,8-20.2,5.1-23.6c-4.4-5.1-21.7-5.5-37.3,12.8c-1.2-15.7-8.8-30.5-14.6-31c-6-0.5-16.9,8.9-17.9,28.3
		c-11.4-11.5-27.7-18-32.6-14.4s-6.6,17.7,5.2,32.7c-14.9-2.2-30,1.3-31.9,6.6s3.7,17.1,19.8,23.4c-9.8,10.1-15.3,22.8-12.5,27.2
		c3,4.8,15.8,7.7,30.7-1.2c-2.1,13.2,0.2,25.7,4.8,27.8c5.8,2.7,20.5-3.5,27.5-24.1c8.9,15.7,27.1,27.3,33.1,24.2
		c5.3-2.8,9.2-16.1,0.2-32.5C929.6,517,949.5,509.7,950.6,503.1z M886.8,488.3c-2-0.6-4.2-0.5-6.2,0.2c-2.1-2.6-5.5-3.7-8.8-3
		c-0.1-0.3-0.2-0.6-0.4-0.9c2.2-0.3,4.2-1.4,5.6-3.1c2.5,1.4,6.6,2.4,11.6-1.8c1.4,1.2,3,1.9,4.8,2.3c0,1.2,0.2,2.3,0.7,3.4
		c-1.7,0.4-3.3,0.9-5.1,1.5c-0.7,0.5-1.3,1.1-1.8,1.7L886.8,488.3z"/>
	
		<ellipse transform="matrix(0.9858 -0.1678 0.1678 0.9858 -68.9398 154.7272)" fill="#F7B548" cx="881.1" cy="485.3" rx="25.6" ry="12.6"/>
	<path fill="#FBC3AF" d="M1075,654.2c1-3.9-2-10.5-9.6-15.7c11.6-5.5,20.2-13.9,19.4-18.7c-0.8-5.2-10-12.2-25-11.4
		c6.5-9.6,9.4-19.6,6.7-23.2c-4-5.4-21.2-7-38.1,10.1c-0.1-15.8-6.7-31.1-12.4-32c-6-1-17.5,7.7-19.8,27
		c-10.6-12.3-26.4-19.9-31.5-16.7s-7.8,17.2,3,33c-14.7-3.3-30-0.8-32.3,4.3s2.4,17.3,18.1,24.7c-10.5,9.4-17,21.6-14.5,26.3
		c2.7,5,15.2,8.8,30.7,0.9c-3,13-1.6,25.7,2.9,28.1c5.6,3.1,20.7-2,29.1-22.1c7.8,16.3,25.1,29.1,31.3,26.4
		c5.4-2.4,10.3-15.4,2.5-32.4C1053.1,666.5,1073.4,660.6,1075,654.2z M1012.3,634.9c-2-0.7-4.2-0.8-6.2-0.2
		c-1.9-2.7-5.2-4.1-8.5-3.6c-0.1-0.3-0.2-0.6-0.3-0.9c2.2-0.1,4.3-1.1,5.8-2.7c2.4,1.6,6.4,2.8,11.7-1c1.3,1.3,2.9,2.1,4.6,2.6
		c-0.1,1.2,0.1,2.3,0.4,3.4c-1.7,0.3-3.4,0.7-5.2,1.1c-0.7,0.4-1.4,1-1.9,1.6L1012.3,634.9z"/>
	
		<ellipse transform="matrix(0.9951 -9.845136e-02 9.845136e-02 0.9951 -57.2896 102.1952)" fill="#F7B548" cx="1006.9" cy="631.6" rx="25.6" ry="12.6"/>
	<path fill="#FBC3AF" d="M1284.6,687.3c3-2.7,4.2-9.8,0.8-18.4c12.7,1.9,24.5-0.2,26.6-4.6c2.3-4.8-1.4-15.7-14.4-23.5
		c10.7-4.3,18.8-11,18.6-15.5c-0.3-6.7-13.6-17.7-37.3-13c8.7-13.1,11.9-29.5,7.6-33.5s-18.8-3.4-31.5,11.3
		c-1.9-16.1-10.7-31.3-16.8-31.4s-16.1,9.8-16,29c-10.4-11-24.4-17.5-29.2-14.5s-7.7,15.7,1.2,30.6c-13.9,2-26.1,8.5-26.7,13.7
		c-0.6,5.7,7.7,15.8,24.9,18c-9.7,9.1-15.7,20.4-13.3,24.9c2.9,5.7,18.2,9.9,36.5-2c-2.7,17.9,4.5,38.2,11.1,39.4
		c5.8,1.1,17.2-7,20.2-25.4C1259.5,685.2,1279.6,691.8,1284.6,687.3z M1243.5,636.2c-1.2-1.7-3-3-5-3.7c-0.1-3.3-2-6.3-5.1-7.8
		c0.1-0.3,0.2-0.6,0.2-0.9c1.9,1.1,4.2,1.5,6.3,1c1.1,2.7,3.7,5.9,10.2,5.7c0.4,1.8,1.2,3.4,2.4,4.7c-0.7,0.9-1.3,1.9-1.6,3
		c-1.6-0.7-3.2-1.3-4.9-2c-0.8,0-1.7,0-2.5,0.2L1243.5,636.2z"/>
	
		<ellipse transform="matrix(0.4756 -0.8796 0.8796 0.4756 96.13 1422.1251)" fill="#F7B548" cx="1240.9" cy="630.4" rx="12.6" ry="25.6"/>
	<path fill="#FBC3AF" d="M1148.8,519.3c1.8-3.5,0.4-10.7-5.9-17.4c12.5-2.8,22.8-9,23.1-13.9c0.4-5.3-7-14.2-21.9-16.7
		c8.5-7.9,13.6-17,11.8-21.1c-2.7-6.2-19.1-11.6-39.4,1.3c3.4-15.4,0.5-31.8-5-34c-5.6-2.3-18.8,3.6-25.3,21.9
		c-7.6-14.4-21.3-25.3-27-23.3s-11.5,15-4.5,32.8c-13.6-6.5-29.1-7.5-32.5-3s-1.5,17.5,12.2,28.1c-12.3,6.8-21.3,17.3-19.9,22.4
		c1.5,5.5,12.9,12,29.7,7.8c-5.8,12-7.3,24.7-3.5,28c4.8,4.3,20.6,2.7,33.3-15c3.9,17.7,18,34,24.6,32.8c5.8-1.1,13.5-12.7,9.7-31
		C1124.6,526.4,1145.8,525.3,1148.8,519.3z M1092,486.5c-1.8-1.2-3.9-1.7-6-1.6c-1.3-3.1-4.2-5.2-7.5-5.4c0-0.3-0.1-0.6-0.1-0.9
		c2.2,0.4,4.4-0.1,6.3-1.3c1.9,2.1,5.6,4.2,11.6,1.7c1,1.5,2.4,2.7,4,3.6c-0.3,1.1-0.5,2.3-0.3,3.4c-1.7-0.1-3.5-0.1-5.3-0.1
		c-0.8,0.3-1.5,0.6-2.2,1.1L1092,486.5z"/>
	
		<ellipse transform="matrix(0.1265 -0.992 0.992 0.1265 471.7408 1499.8611)" fill="#F7B548" cx="1087.5" cy="482.1" rx="12.6" ry="25.6"/>
</g>
</svg>
