<?xml version="1.0" encoding="utf-8"?>
<!-- Generator: Adobe Illustrator 24.2.0, SVG Export Plug-In . SVG Version: 6.00 Build 0)  -->
<svg version="1.1" id="Layer_1" xmlns="http://www.w3.org/2000/svg" xmlns:xlink="http://www.w3.org/1999/xlink" x="0px" y="0px"
	 viewBox="0 0 2000 2000" enable-background="new 0 0 2000 2000" xml:space="preserve">
<g id="ghost-image" display="none">
	<g display="inline" opacity="0.5">
		<path fill="#8A6FE8" d="M1469,1134.6c-57.7-4.7-181.3-73.8-228.1-150.4c-28.4-46.5,24.8-83.6,53.8-36.2
			c31.4,51.3,134.8,115.2,179.9,118.9L1469,1134.6z"/>
		<path fill="#8A6FE8" d="M1525,1005.7l-88.7,33.7c-15.8,6-23.7,23.7-17.8,39.5c6,15.8,23.7,23.7,39.5,17.8l88.7-33.7
			c15.8-6,23.7-23.7,17.8-39.5C1558.6,1007.6,1540.8,999.6,1525,1005.7z"/>
		<path fill="#8A6FE8" d="M1416.4,1155.1l37.8,51.4c10.2,13.6,29.4,16.4,43.1,6.3c13.6-10.2,16.4-29.4,6.3-43.1l-38.8-52.7
			L1416.4,1155.1z"/>
		<path fill="#8A6FE8" d="M1450.7,1158.2l76.8,42.9c14.9,8.2,33.6,2.9,41.8-12c8.2-14.8,2.9-33.6-12-41.8l-57-32.1L1450.7,1158.2z"
			/>
		<path fill="#8A6FE8" d="M1460.3,1121.8l84.6,24.4c16.3,4.7,33.4-4.7,38.2-21c4.7-16.3-4.7-33.4-21-38.2l-86.2-24.9L1460.3,1121.8z
			"/>
		
			<radialGradient id="SVGID_1_" cx="7489.3184" cy="9418.334" r="6.0461" gradientTransform="matrix(10.6515 0 0 -10.6515 -78320.875 101423.1875)" gradientUnits="userSpaceOnUse">
			<stop  offset="0" style="stop-color:#8065E0"/>
			<stop  offset="1" style="stop-color:#512BD4"/>
		</radialGradient>
		<path fill="url(#SVGID_1_)" d="M1451.6,1168.2c35.6,0,64.4-28.8,64.4-64.4s-28.9-64.4-64.4-64.4c-35.6,0-64.4,28.8-64.4,64.4
			C1387.1,1139.3,1416,1168.2,1451.6,1168.2z"/>
		
			<linearGradient id="SVGID_2_" gradientUnits="userSpaceOnUse" x1="432.5485" y1="16376.1064" x2="492.3166" y2="16091.4414" gradientTransform="matrix(1 0 0 -1 694 17472)">
			<stop  offset="0" style="stop-color:#522CD5"/>
			<stop  offset="0.4397" style="stop-color:#8A6FE8"/>
		</linearGradient>
		<path fill="url(#SVGID_2_)" d="M1216.5,1374.2c0.7-59.8-7.8-181.1-69.5-282.6l-60.3,36.6c56,92.1,60.2,199.7,58.9,246.6
			C1145.4,1378.6,1181.6,1382.1,1216.5,1374.2z"/>
		<path fill="#522CD5" d="M1145.5,1374.1l55.8-0.3l52.1,298.7l-112.1,0.5c-8.5,0-15-6.8-14.4-15.4L1145.5,1374.1z"/>
		
			<linearGradient id="SVGID_3_" gradientUnits="userSpaceOnUse" x1="468.4987" y1="16100.0625" x2="646.1445" y2="15783.3428" gradientTransform="matrix(1 0 0 -1 694 17472)">
			<stop  offset="0" style="stop-color:#522CD5"/>
			<stop  offset="0.4397" style="stop-color:#8A6FE8"/>
		</linearGradient>
		<path fill="url(#SVGID_3_)" d="M1373,1593.9c9.7,7.7,9.5,18.7,8.8,30.4l-2.3,35.8c-0.4,6.4-6,11.7-12.4,11.7l-116.8,0.5
			c-7.3,0-12.8-5.8-12.3-13.1l0.8-37.1c0.9-13.5-3.7-18.4-14.1-31.1c-17.9-21.7-70.7-140-65.7-217.1l57.5-0.3
			C1220.3,1419.5,1280.7,1521.1,1373,1593.9z"/>
		
			<radialGradient id="SVGID_4_" cx="7826.9438" cy="9052.1514" r="6.0492" gradientTransform="matrix(20.3477 -9.260000e-02 -9.260000e-02 -20.3477 -157117.75 186457.3438)" gradientUnits="userSpaceOnUse">
			<stop  offset="3.400000e-02" style="stop-color:#522CD5"/>
			<stop  offset="0.9955" style="stop-color:#8A6FE8"/>
		</radialGradient>
		<path fill="url(#SVGID_4_)" d="M1381.8,1624.3c0.6-8.2,0.7-16-2.5-22.6l-145.7,0.7c4,5.9,5.7,11.1,5.2,19.7l-0.8,37.1
			c-0.5,7.3,5,13.1,12.3,13.1l116.8-0.5c6.4,0,12-5.3,12.4-11.7L1381.8,1624.3z"/>
		
			<linearGradient id="SVGID_5_" gradientUnits="userSpaceOnUse" x1="103.6381" y1="16380.6123" x2="172.3822" y2="16057.1924" gradientTransform="matrix(1 0 0 -1 694 17472)">
			<stop  offset="0" style="stop-color:#522CD5"/>
			<stop  offset="0.4397" style="stop-color:#8A6FE8"/>
		</linearGradient>
		<path fill="url(#SVGID_5_)" d="M847.6,1418.8l-71.3-8.9l40.1-322.5l71.3,8.8L847.6,1418.8z"/>
		<path fill="#522CD5" d="M781.5,1371.7l56.5-0.3l15.6,302l-113.4,0.5c-8.6,0-14.3-6.9-12.7-15.6L781.5,1371.7z"/>
		
			<linearGradient id="SVGID_6_" gradientUnits="userSpaceOnUse" x1="48.8876" y1="16072.8994" x2="202.8965" y2="15779.4316" gradientTransform="matrix(1 0 0 -1 694 17472)">
			<stop  offset="0" style="stop-color:#522CD5"/>
			<stop  offset="0.4397" style="stop-color:#8A6FE8"/>
		</linearGradient>
		<path fill="url(#SVGID_6_)" d="M945.7,1595.1c8.7,7.9,8.5,18,6.3,29.8l-6.8,36.2c-1.2,6.5-7.5,11.8-14,11.8l-162.2,0.8
			c-7.4,0-12.2-5.9-10.8-13.2l5.8-37.5c2.6-13.6,0.6-17.7,0.8-35.1c0.5-32.8,15.6-138.2,30.3-216.2l58.2-0.2
			C851.4,1417.6,871.5,1527.9,945.7,1595.1z"/>
		
			<radialGradient id="SVGID_7_" cx="7841.1509" cy="9022.7139" r="6.0492" gradientTransform="matrix(22.145 -0.1007 -0.1006 -22.1216 -171871.375 201928.3594)" gradientUnits="userSpaceOnUse">
			<stop  offset="3.400000e-02" style="stop-color:#522CD5"/>
			<stop  offset="0.9955" style="stop-color:#8A6FE8"/>
		</radialGradient>
		<path fill="url(#SVGID_7_)" d="M763.9,1622.9l-5.8,37.5c-1.4,7.3,3.5,13.3,10.8,13.2l162.2-0.7c6.5,0,12.8-5.3,14-11.8l6.8-36.2
			c1.6-8.6,2.1-16.2-1-22.8l-185.9,0.8C765.4,1609.6,765.5,1614.4,763.9,1622.9z"/>
		<path fill="#8A6FE8" d="M804,455.8L736.5,483l-18.4-73.1l48.4-19.5L804,455.8z"/>
		<path fill="#512BD4" d="M788.8,582c38.2,0,69.1-30.9,69.1-69.1s-30.9-69.1-69.1-69.1s-69.1,30.9-69.1,69.1
			C719.7,551,750.7,582,788.8,582z"/>
		
			<radialGradient id="SVGID_8_" cx="8077.7305" cy="8814.7822" r="6.0492" gradientTransform="matrix(61.9498 0 0 -61.9498 -499398.0625 546842.125)" gradientUnits="userSpaceOnUse">
			<stop  offset="0.4744" style="stop-color:#A08BE8"/>
			<stop  offset="0.8618" style="stop-color:#8065E0"/>
		</radialGradient>
		<path fill="url(#SVGID_8_)" d="M1300.2,939.7C1325,844.2,1309,768,1309,768h22.4l0.5-0.4c-32.2-175.2-185.6-307.9-370-307.9
			c-207.8,0-376.3,168.5-376.3,376.3s168.4,376.3,376.3,376.3c164,0,303.5-104.9,355-251.2C1318.4,954.8,1318.3,943.6,1300.2,939.7z
			"/>
		<path fill="#D8CFF7" d="M1286.4,1026.5H637.5c14.6,24.8,31.9,47.7,51.5,68.4h545.8C1254.5,1074.2,1271.8,1051.3,1286.4,1026.5z"/>
		
			<radialGradient id="SVGID_9_" cx="8044.7969" cy="8853.0859" r="6.0492" gradientTransform="matrix(48.2581 0 0 -48.2581 -386994.5 427931.9688)" gradientUnits="userSpaceOnUse">
			<stop  offset="9.330000e-02" style="stop-color:#E1DFDD"/>
			<stop  offset="0.8998" style="stop-color:#FFFFFF"/>
		</radialGradient>
		<path fill="url(#SVGID_9_)" d="M1300.2,939.7c24.6-94.3,9.2-169.7,8.9-171.6H918.6c0,0-24.6-2.5-24.6,20s0.9,85.9,0.9,156.2
			c0,14.4,11.8,21.4,21.1,21.4C916.1,965.6,1256.6,965.6,1300.2,939.7z"/>
		<path fill="#A08BE8" d="M1065,939.9c0,0,60.1-47.5,71.8-56.3c11.7-8.8,22-9.3,32.7,0s70.8,56.3,70.8,56.3H1065z"/>
		<path fill="#512BD4" d="M1315.4,965.3c0,0,10.4-20.1-15.2-25.7c0-0.1-383.8-0.3-383.8-0.3c-8.9,0-20.4-5.3-21.4-14
			c0,6.2,0,12.5,0,18.8c0,13.1,9.8,20,18.5,21.2c0.9,0.1,1.8,0.2,2.7,0.2h26.2L1315.4,965.3z"/>
		<path fill="#512BD4" d="M1286.5,851.6c0.4-27.3-12.4-49.7-28.7-49.9s-29.8,21.7-30.2,49c-0.4,27.3,12.4,49.7,28.7,49.9
			C1272.6,900.9,1286.1,879,1286.5,851.6z"/>
		<path fill="#8065E0" d="M1256.7,825c-10.8,10.8-10.8,28.2,0,38.9c7.4,7.4,17.8,9.7,27.2,7c1.6-5.9,2.5-12.4,2.6-19.3
			c0.2-13.4-2.8-25.6-7.8-34.6C1270.9,816.4,1262.8,819,1256.7,825z"/>
		<path fill="#512BD4" d="M1020.8,900.9c16.3-0.2,29.1-22.6,28.7-49.9s-13.9-49.3-30.2-49c-16.2,0.2-29.1,22.6-28.7,49.9
			C991,879.2,1004.5,901.2,1020.8,900.9z"/>
		<path fill="#8065E0" d="M1019.8,826.6c-10.8,10.8-10.8,28.2,0,38.9c7.3,7.3,17.7,9.6,27,7c1.8-6.5,2.8-13.8,2.6-21.6
			c-0.2-12.4-3.1-23.7-7.7-32.3C1033.9,818,1025.8,820.6,1019.8,826.6z"/>
		<path fill="#512BD4" d="M1084.8,1115.2l123.2-0.6l-0.5-108.9l-123.2,0.6L1084.8,1115.2z"/>
		<path fill="#FFFFFF" d="M1106.1,1074.5c-0.8,0-1.5-0.3-2.1-0.8c-0.6-0.6-0.9-1.2-0.9-2s0.3-1.5,0.9-2c0.6-0.6,1.3-0.8,2.1-0.8
			c0.8,0,1.5,0.3,2.1,0.8s0.9,1.2,0.9,2s-0.3,1.4-0.9,2C1107.7,1074.2,1107,1074.5,1106.1,1074.5z"/>
		<path fill="#FFFFFF" d="M1138.9,1074h-5.3l-14.1-22.1c-0.3-0.5-0.7-1.2-0.9-1.8h-0.1c0.1,0.6,0.2,2,0.2,4.1v19.7h-4.7l-0.1-30.1
			h5.7l13.6,21.6c0.6,0.9,0.9,1.5,1.1,1.8h0.1c-0.2-0.8-0.2-2.2-0.2-4.1v-19.4h4.7L1138.9,1074z"/>
		<path fill="#FFFFFF" d="M1161.8,1073.9h-16.5l-0.1-30.1h15.8v4.2h-10.9v8.5h10.1v4.2h-10.1v8.9h11.6L1161.8,1073.9L1161.8,1073.9z
			"/>
		<path fill="#FFFFFF" d="M1185.2,1048h-8.4l0.1,25.9h-4.9l-0.1-25.9h-8.4v-4.2l21.7-0.1L1185.2,1048z"/>
		<path fill="#8A6FE8" d="M529.4,1254.2l40.2,57.3c10.8,15.2,31.9,18.7,47.2,7.9c15.2-10.8,18.7-31.9,7.9-47.1L575,1203
			L529.4,1254.2z"/>
		<path fill="#8A6FE8" d="M460.1,1232.5l-11.1,69.2c-2.8,18.4,9.8,35.7,28.3,38.5c18.4,2.8,35.7-9.8,38.5-28.3l11.4-70.9
			L460.1,1232.5z"/>
		<path fill="#8A6FE8" d="M505,1240.3l-9.3,69.4c-2.4,18.5,10.8,35.4,29.2,37.8c18.5,2.4,35.4-10.8,37.8-29.2l9.6-71.2L505,1240.3z"
			/>
		<path fill="#8A6FE8" d="M442.7,1211.8l-25.1,65.4c-6.6,17.5,2.3,37,19.8,43.5c17.5,6.6,37-2.3,43.5-19.8l25.7-67.1L442.7,1211.8z"
			/>
		
			<linearGradient id="SVGID_10_" gradientUnits="userSpaceOnUse" x1="-100.8368" y1="16612.5" x2="-100.8368" y2="16231.5996" gradientTransform="matrix(1 0 0 -1 694 17472)">
			<stop  offset="0.2495" style="stop-color:#967FE6"/>
			<stop  offset="1" style="stop-color:#8A6FE8"/>
		</linearGradient>
		<path fill="url(#SVGID_10_)" d="M489.3,1240.4c-27.9-57-44.2-154.4,1.8-241.6c28-52.9,89.2-120,222.3-139.3l10.7,73.8
			c-80.8,11.7-138.5,46.4-167,100.3c-30.8,58.4-22.6,129.4-0.8,174L489.3,1240.4z"/>
		
			<radialGradient id="SVGID_11_" cx="7484.0288" cy="9387.9365" r="6.0492" gradientTransform="matrix(11.3989 0 0 -11.3989 -84572.9531 107873.5469)" gradientUnits="userSpaceOnUse">
			<stop  offset="0" style="stop-color:#8065E0"/>
			<stop  offset="1" style="stop-color:#512BD4"/>
		</radialGradient>
		<path fill="url(#SVGID_11_)" d="M739,954.1c38.1,0,68.9-30.8,68.9-68.9S777,816.3,739,816.3s-68.9,30.8-68.9,68.9
			C670.1,923.2,700.9,954.1,739,954.1z"/>
		
			<radialGradient id="SVGID_12_" cx="7835.9087" cy="9026.2949" r="6.0492" gradientTransform="matrix(22.7292 0 0 -22.7292 -177599.0781 206314.2031)" gradientUnits="userSpaceOnUse">
			<stop  offset="0" style="stop-color:#8065E0"/>
			<stop  offset="1" style="stop-color:#512BD4"/>
		</radialGradient>
		<path fill="url(#SVGID_12_)" d="M508.6,1277.3c39.1,0,70.8-31.7,70.8-70.8s-31.7-70.8-70.8-70.8s-70.8,31.7-70.8,70.8
			C437.9,1245.7,469.5,1277.3,508.6,1277.3z"/>
		<path fill="#D8CFF7" d="M739.7,415.8c-26.2,7-53.3-8.4-60.5-34.4s8.2-52.7,34.5-59.7c26.2-7,53.3,8.4,60.5,34.4
			C781.4,382.1,766,408.8,739.7,415.8z"/>
	</g>
</g>
<g id="bot-base" display="none">
	<g display="inline">
		
			<radialGradient id="SVGID_13_" cx="8077.7305" cy="8814.7822" r="6.0492" gradientTransform="matrix(61.9498 0 0 -61.9498 -499398.0625 546842.125)" gradientUnits="userSpaceOnUse">
			<stop  offset="0.4744" style="stop-color:#A08BE8"/>
			<stop  offset="0.8618" style="stop-color:#8065E0"/>
		</radialGradient>
		<path fill="url(#SVGID_13_)" d="M1300.2,939.7C1325,844.2,1309,768,1309,768h22.4l0.5-0.4c-32.2-175.2-185.6-307.9-370-307.9
			c-207.8,0-376.3,168.5-376.3,376.3s168.4,376.3,376.3,376.3c164,0,303.5-104.9,355-251.2C1318.4,954.8,1318.3,943.6,1300.2,939.7z
			"/>
		<path fill="#D8CFF7" d="M1286.4,1026.5H637.5c14.6,24.8,31.9,47.7,51.5,68.4h545.8C1254.5,1074.2,1271.8,1051.3,1286.4,1026.5z"/>
		
			<radialGradient id="SVGID_14_" cx="8044.7969" cy="8853.0859" r="6.0492" gradientTransform="matrix(48.2581 0 0 -48.2581 -386994.5 427931.9688)" gradientUnits="userSpaceOnUse">
			<stop  offset="9.330000e-02" style="stop-color:#E1DFDD"/>
			<stop  offset="0.8998" style="stop-color:#FFFFFF"/>
		</radialGradient>
		<path fill="url(#SVGID_14_)" d="M1300.2,939.7c24.6-94.3,9.2-169.7,8.9-171.6H918.6c0,0-24.6-2.5-24.6,20s0.9,85.9,0.9,156.2
			c0,14.4,11.8,21.4,21.1,21.4C916.1,965.6,1256.6,965.6,1300.2,939.7z"/>
		<path fill="#A08BE8" d="M1065,939.9c0,0,60.1-47.5,71.8-56.3c11.7-8.8,22-9.3,32.7,0s70.8,56.3,70.8,56.3H1065z"/>
		<path fill="#512BD4" d="M1315.4,965.3c0,0,10.4-20.1-15.2-25.7c0-0.1-383.8-0.3-383.8-0.3c-8.9,0-20.4-5.3-21.4-14
			c0,6.2,0,12.5,0,18.8c0,13.1,9.8,20,18.5,21.2c0.9,0.1,1.8,0.2,2.7,0.2h26.2L1315.4,965.3z"/>
		<path fill="#512BD4" d="M1084.8,1115.2l123.2-0.6l-0.5-108.9l-123.2,0.6L1084.8,1115.2z"/>
		<path fill="#FFFFFF" d="M1106.1,1074.5c-0.8,0-1.5-0.3-2.1-0.8c-0.6-0.6-0.9-1.2-0.9-2s0.3-1.5,0.9-2c0.6-0.6,1.3-0.8,2.1-0.8
			c0.8,0,1.5,0.3,2.1,0.8s0.9,1.2,0.9,2s-0.3,1.4-0.9,2C1107.7,1074.2,1107,1074.5,1106.1,1074.5z"/>
		<path fill="#FFFFFF" d="M1138.9,1074h-5.3l-14.1-22.1c-0.3-0.5-0.7-1.2-0.9-1.8h-0.1c0.1,0.6,0.2,2,0.2,4.1v19.7h-4.7l-0.1-30.1
			h5.7l13.6,21.6c0.6,0.9,0.9,1.5,1.1,1.8h0.1c-0.2-0.8-0.2-2.2-0.2-4.1v-19.4h4.7L1138.9,1074z"/>
		<path fill="#FFFFFF" d="M1161.8,1073.9h-16.5l-0.1-30.1h15.8v4.2h-10.9v8.5h10.1v4.2h-10.1v8.9h11.6L1161.8,1073.9L1161.8,1073.9z
			"/>
		<path fill="#FFFFFF" d="M1185.2,1048h-8.4l0.1,25.9h-4.9l-0.1-25.9h-8.4v-4.2l21.7-0.1L1185.2,1048z"/>
	</g>
</g>
<g>
	<path fill="#4ADAFA" d="M1024.9,665.4c30.8,0,57.5,21.5,71.3,53.1c-4.1-51.1-36.2-90.9-75.1-90.9c-41.7,0-75.5,45.7-75.5,102
		c0,4.3,0.2,8.5,0.6,12.7C955,698.1,986.9,665.4,1024.9,665.4z"/>
	<path fill="#4ADAFA" d="M1179.3,665.4c-30.8,0-57.5,21.5-71.3,53.1c4.1-51.1,36.2-90.9,75.1-90.9c41.7,0,75.6,45.7,75.6,102
		c0,4.3-0.2,8.5-0.6,12.7C1249.1,698.1,1217.2,665.4,1179.3,665.4z"/>
	<g>
		<path fill="#CC5444" d="M1431.6,566.1c-1.8-11.5-8.1-21.2-16.7-27.7c1.1-4.8,1.4-9.9,0.6-15c-0.6-3.8-1.7-7.3-3.3-10.6
			c10.7-10.6,16.3-26,13.8-42c-4.2-26.4-29-44.4-55.4-40.2c-6.4,1-12.3,3.2-17.5,6.4c-9.3-8.8-22.4-13.3-36.1-11.1
			c-0.1,0-0.2,0-0.3,0c-7.9-15.2-24.9-24.4-42.7-21.5c-10.4,1.6-19.3,7.1-25.5,14.8c-5.2-14.1-18.7-24.1-34.6-24.1
			c-12.5,0-23.5,6.2-30.1,15.6c-5.9-6.2-14.2-10.1-23.4-10.1c-17.9,0-32.4,14.5-32.4,32.4c0,0.5,0,1,0,1.5
			c-3.7-0.3-7.5-0.1-11.4,0.5c-22.1,3.5-38.6,21-41.8,42c131.5,41.3,231.8,152.8,257.1,290.6l-0.5,0.4H1309c0,0,1.6,7.4,3,20.6
			c4.4,0.6,8.9,0.6,13.5-0.2c25.4-4,42.7-27.9,38.7-53.3c-1.3-8.4-4.8-15.9-9.8-22c1.5-1.7,2.8-3.7,3.8-5.7
			c5.9,1.7,12.3,2.2,18.8,1.2c23.4-3.7,39.3-25.6,35.6-49c-1.6-9.8-6.4-18.3-13.1-24.7c3.6-6.1,5.2-13.5,4-21c0-0.2-0.1-0.4-0.1-0.7
			C1422.6,606.7,1434.9,586.9,1431.6,566.1z"/>
		<path fill="#E86E58" d="M1295.1,488.4c4.5-6.2,11.4-10.5,19.6-11.4c15.3-1.7,29.1,9.4,30.8,24.7c0.2,1.8,0.2,3.6,0.1,5.4
			c3.9-5.4,5.9-12.2,5.1-19.4c-1.7-15.3-15.5-26.4-30.8-24.7C1306.3,464.5,1296.1,475.4,1295.1,488.4z"/>
		<path fill="#E86E58" d="M1217.5,549.5c-1.8-7.4-0.7-15.5,3.9-22.3c8.6-12.8,25.9-16.2,38.7-7.6c1.5,1,2.9,2.2,4.1,3.4
			c-1.6-6.5-5.5-12.4-11.5-16.4c-12.8-8.6-30.1-5.2-38.7,7.6C1206.5,525.5,1208.2,540.3,1217.5,549.5z"/>
		<path fill="#E86E58" d="M1294.2,586.1c3-6.8,8.8-12.5,16.6-15.2c14.6-5.1,30.3,2.2,35.3,16.3c0.6,1.7,1,3.3,1.2,5
			c2.7-6,3.1-12.9,0.8-19.5c-4.9-14.1-20.7-21.4-35.3-16.3C1300,560.9,1292.4,573.5,1294.2,586.1z"/>
		<path fill="#E86E58" d="M1225.1,494.5c-1.8-7.4-0.7-15.5,3.9-22.3c8.6-12.8,25.9-16.2,38.7-7.6c1.5,1,2.9,2.2,4.1,3.4
			c-1.6-6.5-5.5-12.4-11.5-16.4c-12.8-8.6-30.1-5.2-38.7,7.6C1214.1,470.4,1215.8,485.2,1225.1,494.5z"/>
		<path fill="#E86E58" d="M1329.4,652.2c4.7-5.8,11.8-9.8,20-10.4c15.4-1.1,28.7,10.1,29.8,25c0.1,1.8,0.1,3.5-0.1,5.2
			c4.1-5.1,6.4-11.6,5.9-18.6c-1.1-14.9-14.4-26.1-29.8-25C1341.6,629.4,1331,639.6,1329.4,652.2z"/>
	</g>
	<g>
		<path fill="#8B9B23" d="M747.6,506.6c3.2-87.9-4.4-130.6-9.4-148.7c-2.2-7.8-0.1-16.2,5.5-22.1c22.6-23.9,85.4-78.4,185-74.8
			c80.6,2.9,112.8,13.9,117.9,44.7s53.2,157.9,66.4,171C1126.1,489.9,747.6,506.6,747.6,506.6z"/>
		<path fill="#4ADAFA" d="M747.6,506.6c0,0,378.4-16.7,365.2-29.8c-6.4-6.4-21.1-39.8-35.1-75.9c-14-9.8-32-20.3-79.3-23.2
			c-108.4-6.6-210.7,45.9-250.2,77.7C748.5,470.5,748.3,487.5,747.6,506.6z"/>
		<path fill="#8B9B23" d="M707.2,503.3c138.2-47,310.1-75.8,430.4-74.3c1.5,22.9-3.1,57.7-66.4,61.9
			c-155.1,10.3-264.6,43.7-329.3,66C698.2,571.9,693.2,520,707.2,503.3z"/>
	</g>
	<g>
		<g>
			<path fill="#CC5444" d="M757.6,587.4c3.1-10.4-1.1-21.2-9.7-27c4.8-5.3,7.8-12.4,7.8-20.2c0-15.9-12.4-29-28-30.1
				c-0.1-0.2-0.2-0.3-0.4-0.5c8.1-13.5,6.3-31.2-5.3-42.9c-13.7-13.7-36-13.7-49.7,0c-1.7,1.7-3.2,3.5-4.5,5.5
				c-5-15-17-27.4-33.3-32.3c-18.3-5.5-37.3,0-50,12.7c-4.1-9.6-13.6-16.3-24.6-16.3c-14.8,0-26.8,12-26.8,26.8c0,0.3,0,0.6,0,0.8
				c-4-2.4-8.3-4.3-12.9-5.7c-27.6-8.2-56.6,5.2-68.6,30.5c-5.2-2.5-11.1-3.9-17.3-3.9c-22.2,0-40.2,18-40.2,40.2
				c0,19.3,13.6,35.5,31.8,39.3c0.1,4.4,1,8.6,2.7,12.4c-17.5,3.9-30.6,19.5-30.6,38.1c0,19.2,13.8,35.1,32,38.4
				c-11.8,18.8-9.5,43.8,6.8,60.1c15.2,15.2,38.1,18.2,56.3,9c4.6,13.1,15.1,23.8,29.4,28.1c3.8,1.1,7.6,1.7,11.3,1.8
				c-4.5,22.4,8.7,44.9,31.1,51.6c36.3,4.1,43-18.2,43-18.2s17.2,4.5,34.3-2c-0.4-0.4-0.8-0.8-1.2-1.2c9.2-2.8,16.9-10.1,19.8-20
				c2.7-9.1,0.9-18.5-4.2-25.7c2.7,1.5,5.7,2.8,8.8,3.8c22.7,6.8,46.5-6.2,53.3-28.8c3.5-11.8,1.7-24-4.1-33.8
				c17.4-3.1,32.5-15.7,37.8-33.8c4.4-14.9,1.3-30.3-7.1-42C751.1,599.2,755.7,594,757.6,587.4z"/>
			<g>
				<path fill="#E86E58" d="M503,509.3c3.4-6.8,9.5-12.2,17.4-14.5c14.8-4.2,30.2,4.5,34.4,19.3c0.5,1.8,0.8,3.5,1,5.3
					c3-6,3.8-13,1.9-20c-4.2-14.8-19.6-23.5-34.4-19.3C510.1,483.8,501.9,496.2,503,509.3z"/>
				<path fill="#E86E58" d="M454.1,608.9c-3-7-3.2-15.2,0.2-22.6c6.4-14,22.9-20.2,37-13.9c1.7,0.8,3.2,1.7,4.6,2.7
					c-2.7-6.1-7.5-11.3-14.1-14.3c-14-6.4-30.6-0.2-37,13.9C439.3,587,443.4,601.3,454.1,608.9z"/>
				<path fill="#E86E58" d="M607.9,570.7c1-9,5.8-17.8,13.8-24.3c15.1-12,36.1-10.8,46.9,2.7c1.3,1.6,2.3,3.3,3.2,5.1
					c0.9-7.9-1-15.8-6.1-22.1c-10.8-13.6-31.8-14.8-46.9-2.7C605.5,540,601.3,557.4,607.9,570.7z"/>
				<path fill="#E86E58" d="M555.7,710.7c1.8-7.2,6.7-13.8,13.9-17.8c13.5-7.4,30.3-2.8,37.5,10.3c0.8,1.5,1.5,3.1,2,4.8
					c1.6-6.4,1-13.2-2.4-19.4c-7.2-13.1-24-17.7-37.5-10.3C557.3,684.9,551.9,698.6,555.7,710.7z"/>
				<path fill="#E86E58" d="M645.6,611.2c7.5-0.3,15.2,2.4,21,8.1c11,10.8,11.4,28.2,1,38.8c-1.2,1.3-2.6,2.4-4,3.3
					c6.6-0.3,13-2.9,17.8-7.9c10.5-10.7,10-28-1-38.8C670.8,605.3,656.1,604.1,645.6,611.2z"/>
			</g>
		</g>
		<path fill="#E86E58" d="M518.5,655.6c-3-7-3.2-15.2,0.2-22.6c6.4-14,22.9-20.2,37-13.9c1.7,0.8,3.2,1.7,4.6,2.7
			c-2.7-6.1-7.5-11.3-14.1-14.3c-14-6.4-30.6-0.2-37,13.9C503.6,633.7,507.8,648,518.5,655.6z"/>
	</g>
</g>
</svg>
