<?xml version="1.0" encoding="utf-8"?>
<!-- Generator: Adobe Illustrator 26.0.0, SVG Export Plug-In . SVG Version: 6.00 Build 0)  -->
<svg version="1.1" id="asset" xmlns="http://www.w3.org/2000/svg" xmlns:xlink="http://www.w3.org/1999/xlink" x="0px" y="0px"
	 viewBox="0 0 2000 2000" enable-background="new 0 0 2000 2000" xml:space="preserve">
<g>
	<path fill="#D600AA" d="M631.9,637.5c-52.5-151-109.5-324.7,136.5-403.4c246-78.8,305.9,100.6,355.9,235.7
		C1144.8,525,643.8,671.5,631.9,637.5z"/>
	<path fill="#FF6759" d="M708.6,581.1c43.2,0,78.3-35,78.3-78.3s-35-78.3-78.3-78.3c-43.2,0-78.3,35-78.3,78.3
		S665.3,581.1,708.6,581.1z"/>
	
		<linearGradient id="SVGID_1_" gradientUnits="userSpaceOnUse" x1="302.0809" y1="-6077.835" x2="382.4679" y2="-6018.436" gradientTransform="matrix(1 0 0 1 564 6475.8584)">
		<stop  offset="0" style="stop-color:#FF7951"/>
		<stop  offset="1" style="stop-color:#FF2078"/>
	</linearGradient>
	<path fill="url(#SVGID_1_)" d="M891.9,481.7c35.7,0,64.6-28.9,64.6-64.6s-28.9-64.6-64.6-64.6s-64.6,28.9-64.6,64.6
		C827.3,452.8,856.2,481.7,891.9,481.7z"/>
	
		<linearGradient id="SVGID_00000067925318501518997850000017334771436029312916_" gradientUnits="userSpaceOnUse" x1="208.3105" y1="-6237.0205" x2="291.5595" y2="-6147.2251" gradientTransform="matrix(1 0 0 1 564 6475.8584)">
		<stop  offset="0" style="stop-color:#FF7951"/>
		<stop  offset="1" style="stop-color:#FF2078"/>
	</linearGradient>
	<path fill="url(#SVGID_00000067925318501518997850000017334771436029312916_)" d="M876,219.9c-0.5-1.7-1.2-3.4-1.8-5.1
		c-30.8,0.5-65.8,6.4-105.7,19.2c-29.2,9.3-54.1,20-75.2,31.8c0.7,3.9,1.7,7.8,2.9,11.6c7.6,23.9,24.4,43.7,46.7,55.1
		s48.2,13.6,72,6c23.8-7.6,43.7-24.4,55.1-46.7C881.5,269.7,883.6,243.8,876,219.9z"/>
	<path fill="#FF4966" d="M589.6,400.5c10.6,2.9,21.8,2.6,32.3-0.8c14.5-4.6,26.5-14.8,33.5-28.3c7-13.5,8.3-29.2,3.6-43.7
		c-3.1-9.8-8.8-18.5-16.4-25.3C612.1,331.6,596,364.9,589.6,400.5z"/>
	<path fill="#FF625B" d="M940.4,223.5c-6.6,13.3-7.7,28.6-3.2,42.8c2.3,7.2,6,13.8,10.8,19.5s10.8,10.5,17.5,13.9s14,5.5,21.5,6.2
		c7.5,0.6,15-0.2,22.2-2.5c9.6-3,18.2-8.6,24.9-16C1009.8,258.3,979.6,235.3,940.4,223.5z"/>
	<path fill="#FF615C" d="M1023.5,439.6c5.2,16.3,14.9,30.9,27.9,42c13,11.2,28.8,18.5,45.7,21.2c20-12.6,30.6-24.1,27.2-33.1
		c-16.6-44.9-34.3-94.7-59.6-138.3c-18.1,10.7-32.1,27.2-39.6,46.9C1017.7,398,1017.1,419.6,1023.5,439.6z"/>
	<path fill="#FFD590" d="M531.8,649.9c0,0,9.5,137.5,391.5,4.1c380.8-133,288.2-243.8,288.2-243.8s-107.7,84.3-335.2,157.1
		C648.8,640.1,531.8,649.9,531.8,649.9z"/>
</g>
</svg>
