<?xml version="1.0" encoding="utf-8"?>
<!-- Generator: Adobe Illustrator 26.0.0, SVG Export Plug-In . SVG Version: 6.00 Build 0)  -->
<svg version="1.1" id="asset" xmlns="http://www.w3.org/2000/svg" xmlns:xlink="http://www.w3.org/1999/xlink" x="0px" y="0px"
	 viewBox="0 0 2000 2000" style="enable-background:new 0 0 2000 2000;" xml:space="preserve">
<style type="text/css">
	.st0{fill:#D600AA;}
	.st1{fill:#FF6759;}
	.st2{fill:url(#SVGID_1_);}
	.st3{fill:url(#SVGID_00000053518015405114627770000017106336398591349155_);}
	.st4{fill:#FF4966;}
	.st5{fill:#FF625B;}
	.st6{fill:#FF615C;}
	.st7{fill:#FFD590;}
</style>
<g>
	<path class="st0" d="M631.92,637.5c-52.45-151.05-109.48-324.68,136.5-403.43c245.98-78.76,305.86,100.63,355.86,235.67
		C1144.77,524.99,643.78,671.54,631.92,637.5z"/>
	<path class="st1" d="M708.58,581.11c43.23,0,78.27-35.04,78.27-78.27s-35.04-78.27-78.27-78.27c-43.23,0-78.27,35.04-78.27,78.27
		S665.35,581.11,708.58,581.11z"/>
	
		<linearGradient id="SVGID_1_" gradientUnits="userSpaceOnUse" x1="302.0809" y1="6377.835" x2="382.4679" y2="6318.436" gradientTransform="matrix(1 0 0 -1 564 6775.8584)">
		<stop  offset="0" style="stop-color:#FF7951"/>
		<stop  offset="1" style="stop-color:#FF2078"/>
	</linearGradient>
	<path class="st2" d="M891.9,481.71c35.68,0,64.61-28.93,64.61-64.61s-28.93-64.61-64.61-64.61s-64.61,28.93-64.61,64.61
		C827.29,452.78,856.21,481.71,891.9,481.71z"/>
	
		<linearGradient id="SVGID_00000151531648527284271130000012034598178110896770_" gradientUnits="userSpaceOnUse" x1="208.3105" y1="6537.0205" x2="291.5595" y2="6447.2251" gradientTransform="matrix(1 0 0 -1 564 6775.8584)">
		<stop  offset="0" style="stop-color:#FF7951"/>
		<stop  offset="1" style="stop-color:#FF2078"/>
	</linearGradient>
	<path style="fill:url(#SVGID_00000151531648527284271130000012034598178110896770_);" d="M876,219.93
		c-0.55-1.73-1.16-3.43-1.8-5.09c-30.85,0.47-65.84,6.45-105.73,19.23c-29.18,9.34-54.09,20.03-75.24,31.83
		c0.73,3.92,1.71,7.8,2.93,11.6c7.63,23.85,24.43,43.69,46.69,55.15s48.17,13.62,72.02,5.99c23.84-7.64,43.68-24.43,55.14-46.69
		C881.47,269.68,883.62,243.78,876,219.93z"/>
	<path class="st4" d="M589.6,400.54c10.62,2.87,21.83,2.6,32.3-0.77c14.47-4.63,26.5-14.82,33.45-28.32
		c6.96-13.5,8.26-29.21,3.63-43.68c-3.1-9.75-8.77-18.49-16.4-25.3C612.06,331.58,596,364.86,589.6,400.54z"/>
	<path class="st5" d="M940.44,223.49c-6.58,13.31-7.71,28.65-3.16,42.78c2.29,7.16,5.97,13.81,10.83,19.55s10.8,10.47,17.49,13.91
		s13.99,5.54,21.48,6.16c7.5,0.62,15.04-0.24,22.2-2.53c9.57-3.05,18.16-8.57,24.9-16.01C1009.81,258.28,979.56,235.3,940.44,223.49
		z"/>
	<path class="st6" d="M1023.49,439.6c5.22,16.31,14.87,30.86,27.86,42.03c12.99,11.17,28.82,18.51,45.74,21.22
		c20.03-12.65,30.57-24.14,27.23-33.15c-16.62-44.9-34.34-94.68-59.62-138.27c-18.12,10.69-32.06,27.22-39.55,46.87
		C1017.67,397.95,1017.08,419.56,1023.49,439.6z"/>
	<path class="st7" d="M531.85,649.9c0,0,9.49,137.49,391.49,4.09c380.82-132.97,288.15-243.79,288.15-243.79
		s-107.69,84.33-335.22,157.13C648.75,640.13,531.85,649.9,531.85,649.9z"/>
</g>
</svg>
