<?xml version="1.0" encoding="utf-8"?>
<!-- Generator: Adobe Illustrator 24.2.0, SVG Export Plug-In . SVG Version: 6.00 Build 0)  -->
<svg version="1.1" id="asset" xmlns="http://www.w3.org/2000/svg" xmlns:xlink="http://www.w3.org/1999/xlink" x="0px" y="0px"
	 viewBox="0 0 2000 2000" enable-background="new 0 0 2000 2000" xml:space="preserve">
<g>
	<path fill="#FCCF84" d="M611.9,611c-33.2,11.9-36.6,64.9,12.3,55.5c82.4-15.9,377.3-93.2,508.5-174.2c66.6-41.1,68.6-101-54.3-72.3
		S611.9,611,611.9,611z"/>
	
		<linearGradient id="SVGID_1_" gradientUnits="userSpaceOnUse" x1="179.764" y1="-15279.8291" x2="179.764" y2="-14919.7686" gradientTransform="matrix(1 -8.000000e-02 8.000000e-02 1 1855.42 15497.3496)">
		<stop  offset="0.56" style="stop-color:#F7B548"/>
		<stop  offset="1" style="stop-color:#FCCF84"/>
	</linearGradient>
	<path fill="url(#SVGID_1_)" d="M601.7,614.3c2.9,11.1,14.1,17.9,25.3,15.2c38.7-9.2,131.4-33.2,244.6-77
		c117.8-45.7,180.4-86.8,204.1-104.2c6.9-5.1,9.5-14.3,6.2-22.2c-19.8-48.5-134.5-234.2-337-154.9
		C540.2,351.3,584.9,549.3,601.7,614.3z"/>
	<path fill="#FCCF84" d="M719.3,282.4c-31.8,15.6-56.6,34.5-75.5,55.3c177.4-52.6,285,42.7,317,77.2c6.5,7,16.6,9.2,25.4,5.6
		l13.1-5.3c10.6-4.3,15.8-16.3,11.5-27c-0.9-2.4-2.3-4.5-4-6.4C966,338.1,862.3,248.7,719.3,282.4z"/>
</g>
</svg>
