<?xml version="1.0" encoding="utf-8"?>
<!-- Generator: Adobe Illustrator 24.2.0, SVG Export Plug-In . SVG Version: 6.00 Build 0)  -->
<svg version="1.1" id="asset" xmlns="http://www.w3.org/2000/svg" xmlns:xlink="http://www.w3.org/1999/xlink" x="0px" y="0px"
	 viewBox="0 0 2000 2000" enable-background="new 0 0 2000 2000" xml:space="preserve">
<g>
	
		<radialGradient id="SVGID_1_" cx="1000.52" cy="-837.5399" r="239.9" gradientTransform="matrix(1 0 0 1 0 1500)" gradientUnits="userSpaceOnUse">
		<stop  offset="0.47" style="stop-color:#A08BE8"/>
		<stop  offset="0.86" style="stop-color:#8065E0"/>
	</radialGradient>
	<path fill="url(#SVGID_1_)" d="M1253.5,598.1c-209.9-209.9-576.1,53.1-576.1,190.8h-20.8c0-123.7,110.5-287.1,334.1-306
		c37.8-3.2,70.7-3.2,99.1-1C1153.8,505.1,1210.4,545.3,1253.5,598.1z"/>
	<path fill="#C5D43B" d="M1253.5,598.1c-25.7-25.7-53.8-44.4-83.3-57c-10.2-4.3-20.6-8-31.3-11C932.5,471.8,677.4,674,677.4,788.9
		h-20.8c0-123.7,110.5-287.1,334.1-306c37.8-3.2,70.7-3.2,99.1-1c20.1,7.3,39.5,16.2,58.1,26.8c8.6,4.9,16.9,10.1,25,15.6
		C1203.1,544.8,1230.3,569.7,1253.5,598.1z"/>
	<path fill="#576E37" d="M901.1,533h-6c0-129.9-13.4-231.4-40-301.8l5.6-2.1C887.5,300.2,901.1,402.4,901.1,533z"/>
	<circle fill="#C5D43B" cx="852.7" cy="225.5" r="53.1"/>
	<path fill="#FFFBF3" d="M905.8,225.5c0,29.3-23.8,53.1-53.1,53.1s-53.1-23.8-53.1-53.1s23.8-53.1,53.1-53.1l0,0
		C882,172.4,905.8,196.2,905.8,225.5z"/>
	<circle fill="#FFFBF3" cx="852.7" cy="225.5" r="44.5"/>
	<path fill="#95A527" d="M916,533c0,8.3-8,15-18,15s-18-6.7-18-15c0-2.3,0.6-4.5,1.8-6.4c1.4-2.3,2.5-4.6,3.5-7.1
		c4.2-11.1,9.4-25.6,9.3-29.4h6c0,0,4.3,14.4,8.7,26.7c1.2,3.2,2.7,6.3,4.6,9.1C915.2,528.1,916,530.5,916,533z"/>
	<circle fill="#576E37" cx="852.7" cy="225.5" r="25.4"/>
	<path fill="#C5D43B" d="M905.8,225.5c-56.6-76.4-106.2,0-106.2,0c0-29.3,23.8-53.1,53.1-53.1C882,172.4,905.8,196.2,905.8,225.5z"
		/>
	<path fill="#C5D43B" d="M799.6,225.5c56.6,76.4,106.2,0,106.2,0c0,29.3-23.8,53.1-53.1,53.1S799.6,254.8,799.6,225.5z"/>
	<path fill="#576E37" d="M1199.8,229.4c-2.2,5.8-4.3,11.9-6.3,18.1c-0.9,2.8-1.8,5.6-2.6,8.4c-1,3.2-1.9,6.5-2.8,9.8
		c-0.8,2.8-1.5,5.5-2.2,8.4l0,0c-14.8,57.2-23.4,129.1-25.4,214.9c-0.2,8.8-0.4,17.8-0.4,26.9c-2-1.2-4-2.4-6-3.6
		c0.1-8.1,0.2-16.2,0.4-24.1c2.1-86.3,10.7-158.7,25.8-216.3l0,0c0.8-2.9,1.5-5.7,2.3-8.5c0.9-3.2,1.8-6.3,2.7-9.3
		c0.9-3.1,1.9-6.2,2.9-9.3c1.9-6,4-11.8,6.1-17.5L1199.8,229.4z"/>
	<circle fill="#C5D43B" cx="1202.2" cy="223.6" r="53.1"/>
	<path fill="#FFFBF3" d="M1149.1,223.6c0,29.3,23.8,53.1,53.1,53.1c29.3,0,53.1-23.8,53.1-53.1s-23.8-53.1-53.1-53.1l0,0
		C1172.9,170.5,1149.1,194.3,1149.1,223.6z"/>
	<circle fill="#FFFBF3" cx="1202.2" cy="223.6" r="44.5"/>
	<path fill="#95A527" d="M1172.8,524.3c-4.2-2.9-8.5-5.7-12.9-8.4c-2-1.2-4-2.4-6-3.6c-2-1.2-4.1-2.4-6.2-3.6
		c3.5-10.5,6.5-20.5,6.5-20.5h6c0,0.3,0,0.5,0,0.8c0.5,4.7,5.3,18.1,9.2,28.6C1170.4,519.9,1171.5,522.1,1172.8,524.3z"/>
	<circle fill="#576E37" cx="1202.2" cy="223.6" r="25.4"/>
	<path fill="#C5D43B" d="M1149.1,223.6c56.6-76.4,106.2,0,106.2,0c0-29.3-23.7-53.1-53.1-53.1S1149.2,194.2,1149.1,223.6
		C1149.1,223.5,1149.1,223.6,1149.1,223.6z"/>
	<path fill="#C5D43B" d="M1255.3,223.6c-56.6,76.4-106.2,0-106.2,0c0,29.3,23.8,53.1,53.1,53.1
		C1231.6,276.6,1255.3,252.9,1255.3,223.6z"/>
</g>
</svg>
