<?xml version="1.0" encoding="utf-8"?>
<!-- Generator: Adobe Illustrator 26.0.0, SVG Export Plug-In . SVG Version: 6.00 Build 0)  -->
<svg version="1.1" id="asset" xmlns="http://www.w3.org/2000/svg" xmlns:xlink="http://www.w3.org/1999/xlink" x="0px" y="0px"
	 viewBox="0 0 2000 2000" style="enable-background:new 0 0 2000 2000;" xml:space="preserve">
<style type="text/css">
	.st0{fill:url(#SVGID_1_);}
	.st1{fill:#FFFFFF;}
</style>
<g>
	
		<linearGradient id="SVGID_1_" gradientUnits="userSpaceOnUse" x1="-42.172" y1="6554.3726" x2="382.943" y2="6036.7432" gradientTransform="matrix(1 0 0 -1 564 6758.4224)">
		<stop  offset="0.0312" style="stop-color:#F9FC7F"/>
		<stop  offset="0.7396" style="stop-color:#FF7951"/>
	</linearGradient>
	<path class="st0" d="M626.93,155.14l22.22,521.29c0.2,4.83,2.28,9.4,5.81,12.71c3.53,3.31,8.22,5.1,13.06,4.98
		c55.67-1.49,124.99-18.8,194.95-51.62c70.51-33.11,128.41-75.76,165.1-117.99c3.56-4.09,5.38-9.41,5.07-14.82
		c-0.31-5.41-2.72-10.49-6.73-14.14l-381.9-348.62c-1.53-1.4-3.45-2.31-5.5-2.62s-4.15-0.01-6.03,0.87
		c-1.88,0.88-3.46,2.29-4.54,4.07C627.37,151.01,626.84,153.07,626.93,155.14z"/>
	<path class="st1" d="M718.51,595.19c14.22,0,25.74-11.52,25.74-25.74s-11.52-25.74-25.74-25.74s-25.74,11.52-25.74,25.74
		S704.3,595.19,718.51,595.19z"/>
	<path class="st1" d="M863.85,602.64c14.22,0,25.74-11.52,25.74-25.74s-11.53-25.74-25.74-25.74s-25.74,11.53-25.74,25.74
		S849.63,602.64,863.85,602.64z"/>
	<path class="st1" d="M910.18,508.32c14.22,0,25.74-11.52,25.74-25.74s-11.53-25.74-25.74-25.74c-14.22,0-25.74,11.52-25.74,25.74
		C884.44,496.8,895.96,508.32,910.18,508.32z"/>
	<path class="st1" d="M780.02,497.3c14.22,0,25.74-11.52,25.74-25.74s-11.53-25.74-25.74-25.74s-25.74,11.52-25.74,25.74
		S765.8,497.3,780.02,497.3z"/>
	<path class="st1" d="M851.71,417.32c14.22,0,25.74-11.52,25.74-25.74s-11.52-25.74-25.74-25.74s-25.74,11.52-25.74,25.74
		S837.49,417.32,851.71,417.32z"/>
	<path class="st1" d="M711.08,415.66c14.22,0,25.74-11.52,25.74-25.74s-11.52-25.74-25.74-25.74s-25.74,11.52-25.74,25.74
		S696.86,415.66,711.08,415.66z"/>
	<path class="st1" d="M770.21,261.64c-5.26,1.62-9.85,4.89-13.12,9.32s-5.03,9.78-5.03,15.28c0,6.83,2.72,13.37,7.54,18.2
		c4.83,4.83,11.37,7.54,18.2,7.54c5.9,0,11.62-2.03,16.21-5.74c4.58-3.72,7.75-8.9,8.97-14.67L770.21,261.64z"/>
	<path class="st1" d="M674.48,299.48c0-3.38-0.66-6.73-1.96-9.85c-1.29-3.12-3.19-5.96-5.58-8.35s-5.23-4.29-8.35-5.58
		s-6.47-1.96-9.85-1.96c-6.03-0.01-11.88,2.11-16.5,5.99l1.74,40.82c4.32,3.04,9.48,4.66,14.76,4.66c3.38,0,6.73-0.66,9.85-1.95
		s5.96-3.19,8.35-5.58c2.39-2.39,4.29-5.23,5.58-8.35C673.82,306.21,674.48,302.86,674.48,299.48z"/>
	<path class="st1" d="M663.27,164.03c-4.87,1.86-9.05,5.16-12.01,9.45c-2.95,4.29-4.54,9.38-4.54,14.59c0,6.83,2.71,13.37,7.54,18.2
		c4.83,4.83,11.37,7.54,18.2,7.54c5.61,0,11.07-1.84,15.54-5.22c4.47-3.39,7.72-8.14,9.24-13.54L663.27,164.03z"/>
	<path class="st1" d="M761.26,649.88c-3.38,0-6.73,0.67-9.85,1.96c-3.12,1.29-5.96,3.19-8.35,5.58c-2.39,2.39-4.29,5.23-5.58,8.35
		c-1.29,3.12-1.96,6.47-1.96,9.85c0,3.36,0.65,6.68,1.93,9.79c15.97-3.38,32.48-7.73,49.33-13.06c-0.79-6.21-3.82-11.91-8.52-16.05
		S767.52,649.88,761.26,649.88z"/>
	<path class="st1" d="M640.33,452.02h-0.75l2.2,51.41c6.57-0.37,12.74-3.23,17.26-8.01s7.03-11.1,7.03-17.68
		c0-3.38-0.67-6.72-1.96-9.85c-1.29-3.12-3.19-5.96-5.58-8.35s-5.23-4.28-8.35-5.57C647.05,452.69,643.71,452.02,640.33,452.02z"/>
</g>
</svg>
