<?xml version="1.0" encoding="utf-8"?>
<!-- Generator: Adobe Illustrator 26.0.0, SVG Export Plug-In . SVG Version: 6.00 Build 0)  -->
<svg version="1.1" id="asset" xmlns="http://www.w3.org/2000/svg" xmlns:xlink="http://www.w3.org/1999/xlink" x="0px" y="0px"
	 viewBox="0 0 2000 2000" enable-background="new 0 0 2000 2000" xml:space="preserve">
<g>
	
		<linearGradient id="SVGID_1_" gradientUnits="userSpaceOnUse" x1="-42.1719" y1="-6254.3726" x2="382.9431" y2="-5736.7432" gradientTransform="matrix(1 0 0 1 564 6458.4224)">
		<stop  offset="3.120000e-02" style="stop-color:#F9FC7F"/>
		<stop  offset="0.7396" style="stop-color:#FF7951"/>
	</linearGradient>
	<path fill="url(#SVGID_1_)" d="M626.9,155.1l22.2,521.3c0.2,4.8,2.3,9.4,5.8,12.7c3.5,3.3,8.2,5.1,13.1,5
		c55.7-1.5,125-18.8,195-51.6c70.5-33.1,128.4-75.8,165.1-118c3.6-4.1,5.4-9.4,5.1-14.8c-0.3-5.4-2.7-10.5-6.7-14.1L644.5,146.9
		c-1.5-1.4-3.5-2.3-5.5-2.6s-4.2,0-6,0.9c-1.9,0.9-3.5,2.3-4.5,4.1C627.4,151,626.8,153.1,626.9,155.1z"/>
	<path fill="#FFFFFF" d="M718.5,595.2c14.2,0,25.7-11.5,25.7-25.7s-11.5-25.7-25.7-25.7s-25.7,11.5-25.7,25.7
		S704.3,595.2,718.5,595.2z"/>
	<path fill="#FFFFFF" d="M863.8,602.6c14.2,0,25.7-11.5,25.7-25.7s-11.5-25.7-25.7-25.7s-25.7,11.5-25.7,25.7
		S849.6,602.6,863.8,602.6z"/>
	<path fill="#FFFFFF" d="M910.2,508.3c14.2,0,25.7-11.5,25.7-25.7s-11.5-25.7-25.7-25.7c-14.2,0-25.7,11.5-25.7,25.7
		C884.4,496.8,896,508.3,910.2,508.3z"/>
	<path fill="#FFFFFF" d="M780,497.3c14.2,0,25.7-11.5,25.7-25.7s-11.5-25.7-25.7-25.7s-25.7,11.5-25.7,25.7S765.8,497.3,780,497.3z"
		/>
	<path fill="#FFFFFF" d="M851.7,417.3c14.2,0,25.7-11.5,25.7-25.7s-11.5-25.7-25.7-25.7S826,377.4,826,391.6
		S837.5,417.3,851.7,417.3z"/>
	<path fill="#FFFFFF" d="M711.1,415.7c14.2,0,25.7-11.5,25.7-25.7s-11.5-25.7-25.7-25.7s-25.7,11.5-25.7,25.7
		S696.9,415.7,711.1,415.7z"/>
	<path fill="#FFFFFF" d="M770.2,261.6c-5.3,1.6-9.8,4.9-13.1,9.3s-5,9.8-5,15.3c0,6.8,2.7,13.4,7.5,18.2c4.8,4.8,11.4,7.5,18.2,7.5
		c5.9,0,11.6-2,16.2-5.7c4.6-3.7,7.8-8.9,9-14.7L770.2,261.6z"/>
	<path fill="#FFFFFF" d="M674.5,299.5c0-3.4-0.7-6.7-2-9.9c-1.3-3.1-3.2-6-5.6-8.4s-5.2-4.3-8.3-5.6s-6.5-2-9.8-2
		c-6,0-11.9,2.1-16.5,6l1.7,40.8c4.3,3,9.5,4.7,14.8,4.7c3.4,0,6.7-0.7,9.8-2s6-3.2,8.3-5.6c2.4-2.4,4.3-5.2,5.6-8.4
		C673.8,306.2,674.5,302.9,674.5,299.5z"/>
	<path fill="#FFFFFF" d="M663.3,164c-4.9,1.9-9,5.2-12,9.4c-3,4.3-4.5,9.4-4.5,14.6c0,6.8,2.7,13.4,7.5,18.2
		c4.8,4.8,11.4,7.5,18.2,7.5c5.6,0,11.1-1.8,15.5-5.2c4.5-3.4,7.7-8.1,9.2-13.5L663.3,164z"/>
	<path fill="#FFFFFF" d="M761.3,649.9c-3.4,0-6.7,0.7-9.8,2c-3.1,1.3-6,3.2-8.3,5.6c-2.4,2.4-4.3,5.2-5.6,8.3c-1.3,3.1-2,6.5-2,9.8
		c0,3.4,0.7,6.7,1.9,9.8c16-3.4,32.5-7.7,49.3-13.1c-0.8-6.2-3.8-11.9-8.5-16S767.5,649.9,761.3,649.9z"/>
	<path fill="#FFFFFF" d="M640.3,452h-0.8l2.2,51.4c6.6-0.4,12.7-3.2,17.3-8s7-11.1,7-17.7c0-3.4-0.7-6.7-2-9.9
		c-1.3-3.1-3.2-6-5.6-8.4s-5.2-4.3-8.3-5.6C647,452.7,643.7,452,640.3,452z"/>
</g>
</svg>
