<svg width="23" height="24" fill="none" xmlns="http://www.w3.org/2000/svg"><path d="M18.75 16.5a3.664 3.664 0 0 1 2.637 1.102c.336.343.597.742.785 1.195.187.453.285.937.293 1.453 0 .516-.094 1-.281 1.453a3.643 3.643 0 0 1-.797 1.195 3.84 3.84 0 0 1-1.184.809c-.445.195-.93.293-1.453.293-.516 0-1-.098-1.453-.293a3.905 3.905 0 0 1-1.195-.797A3.716 3.716 0 0 1 15 20.25c0-.367.055-.738.164-1.113l-8.566-4.711a3.575 3.575 0 0 1-1.266.972 3.868 3.868 0 0 1-1.582.352c-.516 0-1-.098-1.453-.293a3.905 3.905 0 0 1-1.195-.797A3.715 3.715 0 0 1 0 12c0-.516.098-1 .293-1.453.195-.453.46-.852.797-1.195A3.716 3.716 0 0 1 3.75 8.25a3.71 3.71 0 0 1 1.57.34c.492.226.918.555 1.278.984l8.566-4.71A3.96 3.96 0 0 1 15 3.75c0-.516.098-1 .293-1.453.195-.453.46-.852.797-1.195A3.715 3.715 0 0 1 18.75 0a3.665 3.665 0 0 1 2.637 1.102c.336.343.597.742.785 1.195.187.453.285.937.293 1.453 0 .516-.094 1-.281 1.453a3.643 3.643 0 0 1-.797 1.195 3.841 3.841 0 0 1-1.184.809c-.445.195-.93.293-1.453.293a3.71 3.71 0 0 1-2.86-1.324l-8.578 4.722c.055.18.094.36.118.54a4.35 4.35 0 0 1 0 1.113c-.024.18-.063.363-.117.55l8.578 4.723c.359-.422.785-.746 1.277-.972a3.868 3.868 0 0 1 1.582-.352Z" fill="#512BD4"/></svg>