<svg width="26" height="22" fill="none" xmlns="http://www.w3.org/2000/svg"><path d="M8.238 21.772c9.686 0 14.983-8.024 14.983-14.983 0-.228 0-.455-.015-.68a10.714 10.714 0 0 0 2.627-2.727 10.51 10.51 0 0 1-3.024.829 5.284 5.284 0 0 0 2.315-2.913 10.553 10.553 0 0 1-3.344 1.279 5.27 5.27 0 0 0-8.974 4.802A14.95 14.95 0 0 1 1.953 1.877a5.27 5.27 0 0 0 1.63 7.03 5.227 5.227 0 0 1-2.39-.66v.068a5.268 5.268 0 0 0 4.225 5.162 5.258 5.258 0 0 1-2.378.09 5.272 5.272 0 0 0 4.92 3.657 10.566 10.566 0 0 1-7.793 2.183 14.908 14.908 0 0 0 8.071 2.361" fill="#1DA1F2"/></svg>