<?xml version="1.0" encoding="utf-8"?>
<!-- Generator: Adobe Illustrator 26.0.0, SVG Export Plug-In . SVG Version: 6.00 Build 0)  -->
<svg version="1.1" id="asset" xmlns="http://www.w3.org/2000/svg" xmlns:xlink="http://www.w3.org/1999/xlink" x="0px" y="0px"
	 viewBox="0 0 2000 2000" style="enable-background:new 0 0 2000 2000;" xml:space="preserve">
<style type="text/css">
	.st0{opacity:0.68;fill:url(#SVGID_1_);enable-background:new    ;}
	.st1{opacity:0.68;fill:url(#SVGID_00000053510269488995371480000017847041768218070439_);enable-background:new    ;}
	.st2{fill:#2B0B98;}
</style>
<g>
	
		<linearGradient id="SVGID_1_" gradientUnits="userSpaceOnUse" x1="547.4139" y1="5948.0044" x2="313.7259" y2="5948.0044" gradientTransform="matrix(1 0 0 -1 564 6793.2944)">
		<stop  offset="0" style="stop-color:#FFBE46"/>
		<stop  offset="0.1302" style="stop-color:#FF8757"/>
		<stop  offset="0.5365" style="stop-color:#FF436D"/>
		<stop  offset="0.7917" style="stop-color:#BE249B"/>
		<stop  offset="1" style="stop-color:#7029C4"/>
	</linearGradient>
	<path class="st0" d="M999.43,971.62c62.95,0,113.99-56.56,113.99-126.33s-51.03-126.33-113.99-126.33
		c-62.95,0-113.99,56.56-113.99,126.33C885.44,915.06,936.48,971.62,999.43,971.62z"/>
	
		<linearGradient id="SVGID_00000135661197934606622760000007506744817076025252_" gradientUnits="userSpaceOnUse" x1="851.3348" y1="5948.0044" x2="617.6469" y2="5948.0044" gradientTransform="matrix(1 0 0 -1 564 6793.2944)">
		<stop  offset="0" style="stop-color:#FFBE46"/>
		<stop  offset="0.1302" style="stop-color:#FF8757"/>
		<stop  offset="0.5365" style="stop-color:#FF436D"/>
		<stop  offset="0.7917" style="stop-color:#BE249B"/>
		<stop  offset="1" style="stop-color:#7029C4"/>
	</linearGradient>
	<path style="opacity:0.68;fill:url(#SVGID_00000135661197934606622760000007506744817076025252_);enable-background:new    ;" d="
		M1303.35,971.62c62.95,0,113.99-56.56,113.99-126.33s-51.03-126.33-113.99-126.33s-113.99,56.56-113.99,126.33
		S1240.4,971.62,1303.35,971.62z"/>
	<path class="st2" d="M1461.48,858.08l-2.67-25.75c-0.43-4.14-3.59-7.23-7.34-7.3c-7.83-0.15-20.69-3.5-26.85-22.41
		c-16.62-56.27-64.37-96.92-120.66-96.92c-58.99,0-108.58,44.58-122.84,104.99c-10.74-11.12-14.38-17.75-29.29-17.75
		c-14.92,0-18.7,6.76-29.47,17.97c-14.2-60.53-63.84-105.22-122.9-105.22c-56.33,0-104.08,40.65-120.66,96.92
		c-6.16,18.91-19.02,22.25-26.85,22.41c-3.77,0.07-6.91,3.16-7.35,7.3l-2.66,25.75c-0.44,4.28,2.25,8.08,6.07,8.72
		c8.73,1.46,23.55,6.69,31.3,25.12c17.07,55.38,64.42,95.19,120.17,95.19c70.12,0,126.97-63,126.97-140.71
		c0-2.7-0.08-5.39-0.21-8.06c7.93-14.92,10.89-24.68,25.61-24.68s17.46,9.59,25.4,24.29c-0.15,2.8-0.23,5.62-0.23,8.45
		c0,77.71,56.84,140.71,126.97,140.71c55.74,0,103.09-39.82,120.16-95.19c7.75-18.42,22.57-23.65,31.31-25.12
		C1459.23,866.16,1461.92,862.33,1461.48,858.08z M999.43,966.42c-59.81,0-108.29-53.73-108.29-120.01s48.48-120,108.29-120
		s108.29,53.72,108.29,120S1059.23,966.42,999.43,966.42z M1303.93,966.42c-59.81,0-108.29-53.73-108.29-120.01
		s48.48-120,108.29-120s108.28,53.72,108.28,120C1412.21,912.69,1363.73,966.42,1303.93,966.42z"/>
</g>
</svg>
