<?xml version="1.0" encoding="utf-8"?>
<!-- Generator: Adobe Illustrator 24.2.0, SVG Export Plug-In . SVG Version: 6.00 Build 0)  -->
<svg version="1.1" id="asset" xmlns="http://www.w3.org/2000/svg" xmlns:xlink="http://www.w3.org/1999/xlink" x="0px" y="0px"
	 viewBox="0 0 2000 2000" enable-background="new 0 0 2000 2000" xml:space="preserve">
<g>
	
		<linearGradient id="SVGID_1_" gradientUnits="userSpaceOnUse" x1="796.81" y1="1133.1936" x2="1506.46" y2="1133.1936" gradientTransform="matrix(1 0 0 -1 0 2000)">
		<stop  offset="7.000000e-02" style="stop-color:#834B24"/>
		<stop  offset="0.12" style="stop-color:#A4662F"/>
		<stop  offset="0.18" style="stop-color:#BF7B37"/>
		<stop  offset="0.23" style="stop-color:#CF873C"/>
		<stop  offset="0.26" style="stop-color:#D58C3E"/>
		<stop  offset="0.49" style="stop-color:#834B24"/>
		<stop  offset="0.57" style="stop-color:#95592A"/>
		<stop  offset="0.74" style="stop-color:#C37E38"/>
		<stop  offset="0.8" style="stop-color:#D58C3E"/>
		<stop  offset="0.81" style="stop-color:#CF873C"/>
		<stop  offset="0.86" style="stop-color:#AE6D32"/>
		<stop  offset="0.91" style="stop-color:#965A2A"/>
		<stop  offset="0.96" style="stop-color:#884F26"/>
		<stop  offset="1" style="stop-color:#834B24"/>
	</linearGradient>
	<path fill="url(#SVGID_1_)" d="M1356.9,727.6c-67.4-1.1-120.3,30.3-145,40.5s-39.4,7.3-60.3,7.3s-35.5,2.9-60.3-7.3
		s-77.6-41.6-145-40.5c-50.4,0.8-108.9,27-135.3,40.2c-8.7,4.4-14.2,13.3-14.2,23V822c0,6.3,2.3,12.3,6.5,17
		c6.9,7.9,16.8,21,16.1,31.3c-1.1,15.7,19,121.4,86.5,128.2s154.7,23.6,178-34.8s39.3-131.4,67.8-131.4s44.5,73,67.8,131.4
		s110.5,41.6,178,34.8s87.6-112.4,86.5-128.1c-0.7-10.3,9.1-23.5,16-31.3c4.2-4.7,6.5-10.8,6.5-17v-31.2c0-9.7-5.5-18.6-14.2-23
		C1465.8,754.6,1407.3,728.4,1356.9,727.6z M1074,920.9c-19.6,60.7-82.7,59.6-141.2,56.3s-82.1-92.2-79-144.9s63.3-67.6,120.4-60.8
		c0,0,32.8,2.2,81.2,20.2S1093.6,860.3,1074,920.9z M1370.4,977.2c-58.5,3.4-121.6,4.4-141.2-56.3s-29.7-111.3,18.6-129.2
		s81.1-20.2,81.1-20.2c57.1-6.7,117.3,8.1,120.4,60.8S1428.9,973.8,1370.4,977.2L1370.4,977.2z"/>
	
		<linearGradient id="SVGID_2_" gradientUnits="userSpaceOnUse" x1="1212.9597" y1="1125.8181" x2="1449.6467" y2="1125.8181" gradientTransform="matrix(1 0 0 -1 0 2000)">
		<stop  offset="0" style="stop-color:#9FE4EB;stop-opacity:0.8"/>
		<stop  offset="1" style="stop-color:#70D6E0;stop-opacity:0.3"/>
	</linearGradient>
	<path fill="url(#SVGID_2_)" d="M1370.4,977.2c-58.5,3.4-121.6,4.4-141.2-56.3s-29.7-111.3,18.6-129.2s81.2-20.2,81.2-20.2
		c57.1-6.7,117.3,8.1,120.4,60.8S1428.9,973.8,1370.4,977.2z"/>
	
		<linearGradient id="SVGID_3_" gradientUnits="userSpaceOnUse" x1="853.5551" y1="1125.8175" x2="1090.2643" y2="1125.8175" gradientTransform="matrix(1 0 0 -1 0 2000)">
		<stop  offset="0" style="stop-color:#9FE4EB;stop-opacity:0.8"/>
		<stop  offset="1" style="stop-color:#70D6E0;stop-opacity:0.3"/>
	</linearGradient>
	<path fill="url(#SVGID_3_)" d="M1074,920.9c-19.6,60.7-82.7,59.6-141.2,56.3s-82.1-92.2-79-144.9s63.3-67.6,120.4-60.8
		c0,0,32.8,2.2,81.2,20.2S1093.6,860.3,1074,920.9z"/>
	<path fill="#573306" d="M843.1,776.9c-16.7,0-35.5,0.3-37.6-5.4c1.7-1.5,3.5-2.7,5.5-3.7c5.3-2.7,12-5.9,19.6-9.3
		c0.9,0.3,1.8,0.6,2.7,1.1c5.4,3,9.5-1.8,13.2-7.9c6-2.4,12.4-4.9,19-7.2C866.3,757.1,857.2,776.9,843.1,776.9z"/>
	<path fill="#573306" d="M832,825.3c11.1-4.9,23.5-14.2,13.3-25.7s-34.6-17.3-33.7-10.6s21.1,18.6,18.7,24.8S832,825.3,832,825.3z"
		/>
	<path fill="#573306" d="M843.5,873.6c-5.8,5.8-8.9,10.7-19.5,6.2c-1.7-0.7-3.2-1.7-4.5-2.9c-0.2-2.1-0.3-4.3-0.2-6.5
		c0.1-3.3-0.5-6.7-1.8-9.7c9.4-9.3,13.7-15,17.9-9.3C840,857.6,849.3,867.8,843.5,873.6z"/>
	<path fill="#573306" d="M890.2,955.3c-3.9-0.8-8.1-1.6-12.1-1.2c-14.6,1.6-16.8-12.2-17.3-22.4s-5.3-20-17.3-32.8
		c-11-11.9,0.5-12,13.9-17.9C862.6,908.5,873.4,936.6,890.2,955.3z"/>
	<path fill="#573306" d="M865.5,968c-1.7,2.9-2.5,6.2-2.3,9.6c-14.6-14.4-25-34.2-32-52.9c8.9-2.3,19.9,1.3,22.2,6.5
		C856.8,938.8,872.9,955.2,865.5,968z"/>
	<path fill="#573306" d="M966.3,1004.8c-12.1-0.9-24.4-2.3-36.4-3.6l0,0c-5.8-6.8,0-5.7,14.7-15.8s18.2,2.2,29.7,7.9
		C983,997.6,977.3,1000.7,966.3,1004.8z"/>
	<path fill="#573306" d="M965.9,760.5c-12.9,4-12.4-5.8-23.9-16.8s-24.4,0-40.3-8.9c-0.5-0.3-0.9-0.5-1.3-0.8
		c15.4-3.7,31.1-6.2,46-6.5c11.1-0.2,22.2,0.5,33.2,2c0.2,3,0,6.7,2.8,11.4C989.5,753,978.7,756.5,965.9,760.5z"/>
	<path fill="#573306" d="M934,770.5c-24.9,2-47.5,9-62.3,22.8c-1.5-0.7-3-1.6-4.3-2.6c-10.7-8.4,3.1-6.2,9.8-9.3s6.7-12.4,10.5-19.9
		s11.7-4.9,35.6,3.5C929.6,767.2,932.8,768.9,934,770.5z"/>
	<path fill="#573306" d="M811.1,849.1c-2.4-3.5-5.1-6.8-7.9-10c-4.1-4.7-6.4-10.7-6.5-17v-28.9c5.7,2.6,12.7,8.8,14.8,14.7
		C815.1,818.2,823.1,846.8,811.1,849.1z"/>
	<path fill="#573306" d="M904,998.3c-10-1.3-19.6-4.9-28-10.5c3.3-10.2,1.6-15.7,11.8-6.4S906.1,994.3,904,998.3z"/>
	<path fill="#573306" d="M935.9,977.4c-1.2,1.2-2.4,2.6-3.7,4.1c-10.6,12.6-10.2,4.3-22.2,3.9s-10.2-6.2-15.1-13.3
		c-2.8-4.2-0.7-6.1,4.3-8.1c9.5,7.9,21.2,12.5,33.5,13.3L935.9,977.4z"/>
	<path fill="#573306" d="M1081.4,968.9c-12.1,24-36.3,33.6-65.4,36.3c2.4-1.8,5-3.7,4-5.2c-2.9-4.4,17.7-15.6,23-21.5
		C1047.9,973,1052,971.8,1081.4,968.9z"/>
	<path fill="#573306" d="M973.4,978.4c13.8-0.2,27.2-1.3,39.6-4.1c-1.2,7.9-0.9,14.7-13,14.1C988.9,987.9,978.2,984.2,973.4,978.4z"
		/>
	<path fill="#573306" d="M1054.6,960.9c-3.5,0.9-7.2,1.3-10.8,1c4.4-2.9,8.5-6.2,12.2-10C1062.8,955.2,1065.4,958,1054.6,960.9z"/>
	<path fill="#573306" d="M1101.8,913.8c-5.1,14.6-10.3,29.8-15.9,44.3c-1.5-0.5-3-1.2-4.3-2c-10.7-6.2,2.2-11.6,5.1-30.1
		C1088.6,913.4,1089.9,913.6,1101.8,913.8z"/>
	<path fill="#573306" d="M1091.9,894.9c-2.2,2.4-6.8,4.9-11.9,6.5c3.7-12.3,6.6-24.8,8.7-37.5c2.7,2.7,4.7,6,5.8,9.7
		C1096.2,880.7,1096,890.4,1091.9,894.9z"/>
	<path fill="#573306" d="M1077.4,934.8c-2.2,2-7.7,5-13,6.5c3.7-5.7,6.7-11.8,8.8-18.2C1078.9,928,1080.6,931.8,1077.4,934.8z"/>
	<path fill="#573306" d="M927.7,745.9c-5.3-0.9-15.5-6.2-10.2,0s3.5,14.2,12.4,13.8s13.1,0.9,9.7-3.8S927.7,745.9,927.7,745.9z"/>
	<path fill="#573306" d="M1044.8,786.1c-0.3,0.5-0.5,1-0.8,1.5c-18.2-6.3-37-11.1-56-14.4c6.8-6.2,6.3-12.9,17.3-11.8
		c13.3,1.3,22.6,1.3,31.5,7.1S1048.8,778.4,1044.8,786.1z"/>
	<path fill="#573306" d="M1037.9,744.7c-3,4.5-9.6,5.1-15.7,6.6c-8,1.8-20-11.6-27.5-16.5c-1.3-0.8-2.3-1.9-3-3.2
		C1007.4,734.6,1022.9,739,1037.9,744.7z"/>
	<path fill="#573306" d="M1120.1,775.3c-2.9,5.2-10.6,8.2-22.5,13.6c-18.6,8.4-22.2-1.3-32.6-7.4s-8.7-13-8.7-21.8
		c0-3.6,1.1-5,3.7-5.8c12.9,5.7,23.5,11,31.3,14.2C1100.5,772,1110.2,774.4,1120.1,775.3z"/>
	<path fill="#573306" d="M1098.4,827.5c-1.8,3.2-4.8,9.2-8.3,13.2c-0.9-20.9-9.1-37.2-29.5-46.8c16.9-8.2,27.2,3.6,31.2,7.8
		C1096.2,806.2,1101.6,822.2,1098.4,827.5z"/>
	<path fill="#573306" d="M1142.5,834.9c-13.2,7.7-23.7,31.7-34.2,60.6c-1.8-2.8-0.7-7.8-2.2-13.9c-2.8-12,6.1-20.8,3-32.3
		s3.1-7.5,20.8-13.2C1138.4,833.2,1141.2,833.1,1142.5,834.9z"/>
	<path fill="#573306" d="M1151.6,820.8c-3.2,11.5-18.1,2.2-34.5,0s-7.1-16,0-23.9c3.9-4.4,8.9-12.8,13.3-21.2
		c6.8,0,13.6-0.4,21.2-0.4c1.7,0,3.3,0,5,0c0.9,1.9,1.5,4,1.7,6.1C1159.2,792.3,1154.8,809.3,1151.6,820.8z"/>
	<path fill="#573306" d="M1199.1,804c-1.8,4-21.7-6.7-27.9-16.4c-3.4-5.4-1.7-8.4,1.4-11.9c9.9,0.2,19.7-1.2,29.1-4
		c-0.2,6.7-0.5,13.4,1.8,16.8C1208.9,796.4,1200.9,800,1199.1,804z"/>
	<path fill="#573306" d="M1195.1,830.4c0,5.5-3.4,32.5-11.8,36c-7.5-16.5-15.5-28.6-24.8-32.7c-0.3-9.9,0.1-21,10.8-18.7
		C1185.4,818.6,1195.1,824.5,1195.1,830.4z"/>
	<path fill="#573306" d="M1226.4,805.2c-8.2,8.6-12.2,19.6-13.2,32.5c-3.5-2.3-6.8-5-9.7-7.9c-1.8-2.2,6.2-18.6,7.5-23.1
		C1212.1,803.1,1218.5,803.5,1226.4,805.2z"/>
	<path fill="#573306" d="M1213,900.9c-4,6.8-6.1,13.3-10.3,16.6c-4.4-12.8-8.8-25.3-13.2-36.6c5.8-7.9,11.5-14.1,13.9-11.2
		C1206.2,873.2,1218.8,891,1213,900.9z"/>
	<path fill="#573306" d="M1258.5,961.3c-4.7,1.6-13.6-1.6-18.1-0.8c-7.5,1.2-17.7-20.8-19.9-30.4c-1.7-7.2-0.6-8.6,8.1-11.3
		c0.2,0.7,0.5,1.5,0.7,2.2C1235.3,939.7,1245.5,952.5,1258.5,961.3z"/>
	<path fill="#573306" d="M1285.2,1005c-29.7-3.1-54.1-13.7-65.2-40c4-0.1,7.9,0.9,10.6,3c6.7,5.3,8.3,16,18.1,15.5s24,0,30.2,4.9
		C1282.2,991,1284.6,998.4,1285.2,1005z"/>
	<path fill="#573306" d="M1248.7,972.5c5.4,4.9,10.8,7.1,12.8,6s-2.5-8.2-2.5-8.2C1255,969.4,1243.3,967.6,1248.7,972.5z"/>
	<path fill="#573306" d="M1287,779.3c-13.2,3.5-26.3,7.6-39.1,12.4c-1.4,0.5-2.8,1.1-4.2,1.7c-5.1-9,1.1-7.4,18.3-17.3
		C1276.7,767.6,1276,771.5,1287,779.3z"/>
	<path fill="#573306" d="M1270,753.9c-8,1.8-20.4,7.1-25.1,17.4s-15.3,8.3-20.2,4.8c-1.9-1.4-2-6.6-1.2-13.2
		c15.8-7.4,38-18.1,65-25.8c-0.2,1.8-0.1,3.5,0.2,5.3C1290.4,751.7,1278,752.1,1270,753.9z"/>
	<path fill="#573306" d="M1345,770.1c-5.3,0.2-10.7,0.7-16,1.3c-7.6,0.7-15.1,1.8-22.5,3.4l0,0c-1-2.8-1.7-5.7-2.2-8.7
		c-1.1-6.6,9.1-8.5,25.1-9.3C1343.1,756,1335.1,760.3,1345,770.1z"/>
	<path fill="#573306" d="M1353.5,727.6c-0.7,3-1.2,6-1.4,9c-1.3,18.4-5.8,6-16.6,9.3s-15.7-1.8-18.8-6.6c-1.8-2.8-1.7-5.6,1.1-8.8
		C1329.5,728.5,1341.5,727.6,1353.5,727.6z"/>
	<path fill="#573306" d="M1393.2,774.2L1393.2,774.2c-12.2-2.9-24.6-4.3-37.2-4.3c-1.3-3.1-2.1-6.5-2.3-9.8
		c-0.6-8.4,6.6-6.2,16.3-8.2s13.1,0,20.6,4.8C1395.9,760,1395.4,767.2,1393.2,774.2z"/>
	<path fill="#573306" d="M1421.2,739.1c-1,1.8-2.3,3.9-3.6,6.8c-3.6,8.2-19.3,5.8-32.1,1.1s-11.8-7.5-16.2-13.2
		c-1.4-1.5-1.5-3.8-0.3-5.5C1386.4,729.8,1404.3,733.9,1421.2,739.1z"/>
	<path fill="#573306" d="M1422.1,774.1c4.4,2.6,8.9,7.9,20.6,7s18.4,6,16.4-3.8s-1.8-10.6-8.4-11.5s-16.4-3.3-16.4-3.3
		c-10-1.8-22.8-7.1-22.4-1.5S1417.7,771.6,1422.1,774.1z"/>
	<path fill="#573306" d="M1468.7,756.8c-4,2.9-12.4,1.5-23.9,1.7c-13.1,0.2-9.8-5.3-16-14.4c-0.7-1-1.3-2.1-1.7-3.2
		C1442.3,745.8,1456.6,751.5,1468.7,756.8z"/>
	<path fill="#573306" d="M1449.7,814.6c-1.3,0.2-2.5,0.5-3.6,0.7c-6.8-19.4-23.4-31.9-44.6-38.8c0-1.9,0.8-2.9,3.5-2.5
		c7.1,1,12.9,0.5,17.1,4.8s9.3,7.3,14.8,7.3s22.2,2.5,23.5,8S1465.5,811.7,1449.7,814.6z"/>
	<path fill="#573306" d="M1506.5,790.9v10.8c-7,9.8-11.8-7.9-25.1-9c-16-1.3-9.3-7.8-13.8-16s3.3-8.2,4.7-14.2
		c0.2-1.3,0.8-2.5,1.8-3.3c7,3.2,13.2,6.1,18.2,8.6C1501,772.2,1506.5,781.1,1506.5,790.9z"/>
	<path fill="#573306" d="M1506.5,812.2v9.8c0,6.3-2.3,12.3-6.4,17c-0.6,0.7-1.2,1.4-1.8,2.2c-0.8-0.1-1.6-0.2-2.4-0.2
		c-14.4-1.1-15.5-6.7-25.5-13.3s-0.7-15.3,1.1-20.6s8.4-3.8,12.9-4.7C1487.8,801.7,1494.5,808.8,1506.5,812.2z"/>
	<path fill="#573306" d="M1468.7,854.3c-2.7,1-11.8-2.3-19.3-1.8c0.4-6.7,0.4-13.5,0.1-20.2c-0.1-2.4-0.4-4.8-0.8-7.2
		c3.7-1.6,6.9-2.8,7.7-2.6c1.6,0.3,13.3,9.2,15.3,15S1471.8,853.2,1468.7,854.3z"/>
	<path fill="#573306" d="M1484,870.4c0.1,3.1-0.1,6.2-0.6,9.3c-4.8-3.8-5.1-11.1-7.4-16.5c-3.5-8.2,5.1-13.1,7.5-16.2
		c1.5-1.9,5.9-1.1,10.2-0.2C1488.4,854.2,1483.4,863,1484,870.4z"/>
	<path fill="#573306" d="M1471.1,878.5c-0.2,5.5-2,15.1-4.9,16.8s-15.2,7.3-25.3,6.1c3.2-11,5.6-22.3,7-33.7c5.3-2,9.6-3.4,12.8-1.8
		C1466,868.5,1471.3,872.9,1471.1,878.5z"/>
	<path fill="#573306" d="M1481.1,892.9c-1.7,8.2-3.9,16.3-6.6,24.2l0,0c-7.2-4-1-16.4,1.5-21.7
		C1476.8,893.8,1478.6,893,1481.1,892.9z"/>
	<path fill="#573306" d="M1471.2,926.4c-6,15.7-14.4,31.9-25.6,45c-14.2-1.9-4.2-18.3-2.2-20.5s-1.8-14.6-1.8-20.8s7.8-13.1,15.7-14
		C1463.9,915.4,1465.4,918.4,1471.2,926.4z"/>
	<path fill="#573306" d="M1433.2,949c-4.2,2.2-11.2,2.8-17.6,3.2c7-8.8,12.8-18.4,17.2-28.7c1.7,2.7,2.7,5.7,2.8,8.8
		C1435.7,935.5,1438.5,946.2,1433.2,949z"/>
	<path fill="#573306" d="M1440.8,976.8c-11.6,11.7-25.8,20-43.3,21.8l-4,0.4c-1.4-6.2,0.9-16.1,3.8-17c4-1.1,7.8-4.6,10.4-8.4
		s5.1-10.2,8.8-12.9s12.2-2.9,12.5,1.8C1429.4,966,1434.6,972.1,1440.8,976.8z"/>
	<path fill="#573306" d="M1403.5,968.9c-1.6,2.4-9.5,8.4-12.6,8c-2.9-0.3-5.9-0.8-8.7-1.6c7.6-2.1,14.8-5.8,21-10.7
		C1403.9,966.5,1404,968.1,1403.5,968.9z"/>
	<path fill="#573306" d="M1387.1,990.7c0.1,1.5-0.3,5-0.6,9c-14.6,1.6-29.9,3.5-45.1,4.8l0,0c-2.7-4.2,4.4-14.2,8.4-13.3
		c4.7,0.9,9.5-0.6,12.9-4c4-3.8,10.6-4.9,19.1-5.1S1386.9,987.3,1387.1,990.7z"/>
	<path fill="#573306" d="M1363.7,977.6c-2.1,3.2-4.1,6.1-5,6.4c-1.8,0.7-7.3,1.3-12.2,0c-3.4-0.9-9.7-1.6-10.9-5.5
		C1344.9,978.4,1354.4,978.1,1363.7,977.6z"/>
	<path fill="#573306" d="M1330.6,1005.3c-11.9,0.9-23.8,1-35.7,0.5c1.1-2.6,6-3.6,8.2-5.8c3.3-3.3,3.5-9.1,6.7-11.1s19.5-3.3,18.6,8
		C1327.8,1004.1,1328.5,1004.1,1330.6,1005.3z"/>
	<path fill="#573306" d="M1309.9,977.4c-3.1,6.5-7.2,12.5-10.6,12.8c-5.6,0.5-13.3-0.9-16.2-6.2c-2.2-4-12.2-9.6-12.4-16
		C1282.5,973.2,1295.8,976,1309.9,977.4z"/>
</g>
</svg>
