<?xml version="1.0" encoding="utf-8"?>
<!-- Generator: Adobe Illustrator 26.0.0, SVG Export Plug-In . SVG Version: 6.00 Build 0)  -->
<svg version="1.1" id="asset" xmlns="http://www.w3.org/2000/svg" xmlns:xlink="http://www.w3.org/1999/xlink" x="0px" y="0px"
	 viewBox="0 0 2000 2000" style="enable-background:new 0 0 2000 2000;" xml:space="preserve">
<style type="text/css">
	.st0{fill:#9DCFFF;fill-opacity:0.7;}
	.st1{fill:#A20381;}
	.st2{fill:#D600AA;}
	.st3{fill:url(#SVGID_1_);}
	.st4{fill:url(#SVGID_00000029752199121303649290000008057399925088890768_);}
	.st5{fill:#FF476C;}
	.st6{fill:url(#SVGID_00000029761736567883589000000004678725166355996575_);}
	.st7{fill:url(#SVGID_00000094584607354220920750000002396361819769976499_);}
	.st8{fill:#FF5860;}
	.st9{fill:#691AE7;}
</style>
<g>
	<path class="st0" d="M1293.59,935.04c50.01,0,90.54-40.54,90.54-90.54s-40.54-90.54-90.54-90.54s-90.54,40.54-90.54,90.54
		S1243.58,935.04,1293.59,935.04z"/>
	<path class="st0" d="M1005.44,935.04c50.01,0,90.54-40.54,90.54-90.54s-40.54-90.54-90.54-90.54c-50,0-90.54,40.54-90.54,90.54
		S955.44,935.04,1005.44,935.04z"/>
	<path class="st1" d="M1282.62,724.35c-27.46,0-54.08,9.41-75.45,26.65c-21.37,17.24-36.19,41.28-42,68.12
		c-14.3-4.9-33.9-6.54-52.34,0.75c-5.66-27-20.44-51.23-41.86-68.63c-21.42-17.39-48.16-26.89-75.75-26.89
		c-31.86,0-62.42,12.66-84.95,35.19s-35.19,53.09-35.19,84.95s12.66,62.42,35.19,84.95s53.09,35.19,84.95,35.19
		c31.87,0,62.42-12.66,84.96-35.19c22.53-22.53,35.19-53.09,35.19-84.96c0-0.71,0-1.42,0-2.13c17.58-9.79,37.71-5.51,47.19-1.23
		c0,1.12-0.05,2.24-0.05,3.41c0,31.86,12.66,62.42,35.19,84.96s53.09,35.19,84.96,35.19c31.86,0,62.42-12.66,84.95-35.19
		c22.53-22.53,35.19-53.09,35.19-84.95c0.01-15.78-3.1-31.41-9.14-45.99s-14.89-27.83-26.05-38.99s-24.41-20.01-38.99-26.05
		C1314.03,727.45,1298.4,724.34,1282.62,724.35z M995.23,914.39c-9.18,0-18.27-1.81-26.75-5.32s-16.19-8.66-22.68-15.15
		c-6.49-6.49-11.64-14.2-15.15-22.68s-5.32-17.57-5.32-26.75c0-18.54,7.36-36.32,20.47-49.42c13.11-13.11,30.89-20.47,49.42-20.47
		c9.18,0,18.27,1.81,26.75,5.32c8.48,3.51,16.19,8.66,22.68,15.15s11.64,14.2,15.15,22.68s5.32,17.57,5.32,26.75
		s-1.81,18.27-5.32,26.75c-3.51,8.48-8.66,16.19-15.15,22.68s-14.2,11.64-22.68,15.15C1013.5,912.58,1004.41,914.39,995.23,914.39z
		 M1282.62,914.39c-18.54,0-36.32-7.36-49.43-20.47c-13.11-13.11-20.47-30.89-20.47-49.43s7.37-36.32,20.48-49.42
		c13.11-13.11,30.89-20.47,49.43-20.47s36.32,7.36,49.42,20.47c13.11,13.11,20.47,30.89,20.47,49.42c0,9.18-1.81,18.27-5.32,26.75
		c-3.51,8.48-8.66,16.19-15.15,22.68s-14.2,11.64-22.68,15.15C1300.89,912.58,1291.8,914.39,1282.62,914.39z"/>
	<path class="st2" d="M1292.84,724.35c-27.46,0-54.08,9.41-75.45,26.65c-21.37,17.24-36.19,41.28-41.99,68.12
		c-14.3-4.9-33.9-6.54-52.34,0.75c-5.66-27-20.44-51.23-41.86-68.63c-21.42-17.39-48.16-26.89-75.75-26.89
		c-31.86,0-62.42,12.66-84.95,35.19s-35.19,53.09-35.19,84.95s12.66,62.42,35.19,84.95s53.09,35.19,84.95,35.19
		s62.43-12.66,84.96-35.19c22.53-22.53,35.19-53.09,35.19-84.96c0-0.71,0-1.42,0-2.13c17.58-9.79,37.71-5.51,47.19-1.23
		c0,1.12-0.05,2.24-0.05,3.41c0,31.86,12.66,62.42,35.19,84.96c22.53,22.53,53.09,35.19,84.96,35.19
		c31.86,0,62.42-12.66,84.95-35.19c22.53-22.53,35.19-53.09,35.19-84.95c0.01-15.78-3.1-31.41-9.14-45.99s-14.89-27.83-26.05-38.99
		s-24.41-20.01-38.99-26.05C1324.25,727.45,1308.62,724.34,1292.84,724.35z M1005.44,914.39c-9.18,0-18.27-1.81-26.75-5.32
		s-16.19-8.66-22.68-15.15c-6.49-6.49-11.64-14.2-15.15-22.68s-5.32-17.57-5.32-26.75c0-18.54,7.36-36.32,20.47-49.42
		c13.11-13.11,30.89-20.47,49.42-20.47c9.18,0,18.27,1.81,26.75,5.32s16.19,8.66,22.68,15.15c6.49,6.49,11.64,14.2,15.15,22.68
		s5.32,17.57,5.32,26.75s-1.81,18.27-5.32,26.75c-3.51,8.48-8.66,16.19-15.15,22.68s-14.2,11.64-22.68,15.15
		C1023.71,912.58,1014.62,914.39,1005.44,914.39z M1292.84,914.39c-18.54,0-36.32-7.36-49.43-20.47
		c-13.11-13.11-20.47-30.89-20.47-49.43s7.37-36.32,20.48-49.42c13.11-13.11,30.89-20.47,49.43-20.47s36.32,7.36,49.42,20.47
		c13.11,13.11,20.47,30.89,20.47,49.42c0,9.18-1.81,18.27-5.32,26.75c-3.51,8.48-8.66,16.19-15.15,22.68s-14.2,11.64-22.68,15.15
		C1311.11,912.58,1302.02,914.39,1292.84,914.39z"/>
	
		<linearGradient id="SVGID_1_" gradientUnits="userSpaceOnUse" x1="449.5809" y1="6080.1035" x2="487.4969" y2="6052.0874" gradientTransform="matrix(1 0 0 -1 564 6793.2944)">
		<stop  offset="0" style="stop-color:#FF7951"/>
		<stop  offset="1" style="stop-color:#FF2078"/>
	</linearGradient>
	<path class="st3" d="M1025.76,752.66c16.83,0,30.47-13.64,30.47-30.47s-13.64-30.47-30.47-30.47c-16.83,0-30.47,13.64-30.47,30.47
		S1008.93,752.66,1025.76,752.66z"/>
	
		<linearGradient id="SVGID_00000008832613288643403610000018053764390254554526_" gradientUnits="userSpaceOnUse" x1="418.3153" y1="6118.0015" x2="415.5623" y2="6022.8076" gradientTransform="matrix(1 0 0 -1 564 6793.2944)">
		<stop  offset="0.1333" style="stop-color:#7014E8"/>
		<stop  offset="1" style="stop-color:#4931DE"/>
	</linearGradient>
	<path style="fill:url(#SVGID_00000008832613288643403610000018053764390254554526_);" d="M981.44,736
		c16.81,0,30.44-13.63,30.44-30.44s-13.63-30.44-30.44-30.44S951,688.75,951,705.56C951,722.38,964.63,736,981.44,736z"/>
	<path class="st5" d="M938.96,770.5c15.12,0,27.38-12.26,27.38-27.38s-12.26-27.38-27.38-27.38s-27.38,12.26-27.38,27.38
		S923.84,770.5,938.96,770.5z"/>
	
		<linearGradient id="SVGID_00000181797993173906119430000004592942385268600985_" gradientUnits="userSpaceOnUse" x1="482.8064" y1="6078.855" x2="510.1814" y2="6033.7329" gradientTransform="matrix(1 0 0 -1 564 6793.2944)">
		<stop  offset="0.1094" style="stop-color:#FFBE46"/>
		<stop  offset="0.7894" style="stop-color:#FF7951"/>
	</linearGradient>
	<path style="fill:url(#SVGID_00000181797993173906119430000004592942385268600985_);" d="M1061.6,758.4
		c10.81,0,19.58-8.77,19.58-19.58c0-10.82-8.77-19.58-19.58-19.58c-10.82,0-19.58,8.77-19.58,19.58
		C1042.01,749.63,1050.78,758.4,1061.6,758.4z"/>
	
		<linearGradient id="SVGID_00000060732070068906587540000009727132997842858897_" gradientUnits="userSpaceOnUse" x1="685.0345" y1="6109.0396" x2="727.6335" y2="6038.8262" gradientTransform="matrix(1 0 0 -1 564 6793.2944)">
		<stop  offset="0.1094" style="stop-color:#FFBE46"/>
		<stop  offset="0.7894" style="stop-color:#FF7951"/>
	</linearGradient>
	<path style="fill:url(#SVGID_00000060732070068906587540000009727132997842858897_);" d="M1272.05,752.66
		c16.83,0,30.47-13.64,30.47-30.47s-13.64-30.47-30.47-30.47s-30.47,13.64-30.47,30.47S1255.22,752.66,1272.05,752.66z"/>
	<path class="st5" d="M1316.36,736c16.81,0,30.44-13.63,30.44-30.44s-13.63-30.44-30.44-30.44s-30.44,13.63-30.44,30.44
		C1285.92,722.38,1299.55,736,1316.36,736z"/>
	<path class="st8" d="M1358.84,770.5c15.12,0,27.38-12.26,27.38-27.38s-12.26-27.38-27.38-27.38s-27.38,12.26-27.38,27.38
		S1343.72,770.5,1358.84,770.5z"/>
	<path class="st9" d="M1236.21,758.4c10.82,0,19.58-8.77,19.58-19.58c0-10.82-8.77-19.58-19.58-19.58
		c-10.82,0-19.58,8.77-19.58,19.58S1225.39,758.4,1236.21,758.4z"/>
</g>
</svg>
