<?xml version="1.0" encoding="utf-8"?>
<!-- Generator: Adobe Illustrator 24.2.0, SVG Export Plug-In . SVG Version: 6.00 Build 0)  -->
<svg version="1.1" id="asset" xmlns="http://www.w3.org/2000/svg" xmlns:xlink="http://www.w3.org/1999/xlink" x="0px" y="0px"
	 viewBox="0 0 2000 2000" enable-background="new 0 0 2000 2000" xml:space="preserve">
<g id="snorkel-mask-green">
	<path fill="#D1DE63" d="M1245.3,1011.6c46.2-6.5,61.4-64.3,61.4-64.3l45.6,16.3c0,0-5,17-19.2,42.4c-24.7,44-33.3,70.5-75,68.3
		c-37.4-2-58-74.8-41-69.5C1224.2,1007.1,1235.9,1012.9,1245.3,1011.6z"/>
	<path fill="#625F5B" d="M1390.8,693.7c-0.4,32-2.2,66.5-5.2,100.2c-4.5,50.5-11.8,99.3-21.5,135.6c-3.8,14.4-8,26.8-12.5,36.5
		c-6-0.3-12-1.1-17.8-2.6c-18.5-4.6-28.2-13.5-28.2-13.5c1.7-5.5,3.3-11.1,4.8-16.7c14.4-24.7,22.6-55.6,23.5-90.1
		c0.2-5.8-0.3-11.6-1.4-17.3c3.8-27,6.6-54.9,8.2-83.5c0.9-16,1.5-32.2,1.7-48.8c1-75-5.2-154.6-18.4-236.6
		c-2.7-17.1-5.7-33.5-8.8-49.3l49-3.5c2.4,13.4,4.8,27.6,7.2,42.7C1385.3,532.3,1391.8,615.3,1390.8,693.7z"/>
	<path fill="#D1DE63" d="M1303.1,281.9l17.4-4.2c10.3-2.5,20.4,4.5,22.7,15.5l24.4,117.2c2.3,11-4.2,22-14.4,24.4l-17.4,4.2
		c-10.3,2.5-20.4-4.5-22.7-15.5l-24.4-117.2C1286.4,295.3,1292.8,284.4,1303.1,281.9z"/>
	<path fill="#D1DE63" d="M1005.9,690c-126.8,21.2-204,76.8-202.7,141.5c2.1,103.8,41.6,165.2,160.1,169.7c48,1.8-10.4-8.9-30.1-27.9
		s-85.2-107.2-69.6-158.5S1005.9,690,1005.9,690z"/>
	
		<linearGradient id="SVGID_1_" gradientUnits="userSpaceOnUse" x1="1132.4567" y1="-9241.5215" x2="1132.4567" y2="-9542.0557" gradientTransform="matrix(1 0 0 1 0 10239.0303)">
		<stop  offset="0.42" style="stop-color:#70D6E0"/>
		<stop  offset="0.65" style="stop-color:#0BBACF"/>
	</linearGradient>
	<path opacity="0.7" fill="url(#SVGID_1_)" enable-background="new    " d="M1119.7,697.6c-177.6,6.8-274.4,75.3-244.8,175.8
		s93.5,164.1,157.5,95.4s88.9-115.5,168.4-26.8s166.8,30.1,188.6-53.6S1383.2,687.5,1119.7,697.6z"/>
	<path fill="#625F5B" d="M974.7,997.3c23.4,36.8,55.3,48.6,104.2,10c32.9-26,98.3-40.3,130.6,0c20.1,25.1,56.7,26.8,70-5
		s-27.3-6.7-85-80.4s-76.4-53.6-120,1.7"/>
	<path opacity="0.7" fill="#70D6E0" enable-background="new    " d="M1168,697.2c-15.2-0.4-31.3-0.2-48.4,0.4
		c-37.6,1.4-71.5,5.6-101.4,12.3c27.1,36.9,66.1,91.7,105.1,172.6c19.5,1,47.3,26.1,77.3,59.6c26.2,29.2,53.3,42.5,78.5,44.1
		C1252.2,886.2,1214.9,789.4,1168,697.2z"/>
	<path fill="#1189A5" d="M1398,845.8c-0.7,28.4-15.5,58.7-33.8,83.7c-9,12.3-19.1,23.7-30.3,34c-8.8,8-17.2,14.1-24.2,17.8
		c-9.4,4.8-18.3,10.5-27,15.9c-10-3.1-19.4-8-27.8-14.4c12.3-4.4,24.7-12.5,35.7-23.5c7.7-7.8,14.4-16.5,19.8-26
		c14.4-24.7,22.6-55.6,23.5-90.1c0.2-5.8-0.3-11.6-1.4-17.3c-2.7-14.3-9.4-27.5-20.1-39.2c-35.9-39.7-139.6-64-217.4-64
		c-49,0-143.9,20.3-189.3,44.5c0.2-3.6,30.8-31.9,30.8-31.9l37.8-34.1c31.6-5.6,67-8.5,105.4-8.5c1.9,0,8-0.2,13,0
		c96.2,0.7,195,16.4,248,49.8c8.5,5.2,16.2,11.5,23,18.8c8.8,9.8,16.2,20.8,21.9,32.7C1393.6,810.5,1398.4,828.7,1398,845.8z"/>
	<path fill="#1189A5" d="M1061.3,883.4c-1.2,0.8-2.3,1.6-3.4,2.5c-8.7,6.6-18.4,16.5-30,30.4c-3.4,4-6.7,8.2-10.3,12.6
		c-16.3,20.3-33,41-54.1,51.2c14.4,4.1,29.5,5.3,44.4,3.5c22.9-6.1,130.4-123,122-122.6C1090.1,862.8,1074.3,875.2,1061.3,883.4z"/>
	<path fill="#FFFFFF" d="M1381,751.5c-42-46.4-127-72.3-239.8-73.1c-5-0.2-11.1,0-13,0c-115.5,0-202.6,26-245.3,73.1
		c-20.2,22.3-30.1,48.7-29.4,78.3c1.4,56.2,20,104.9,52.2,137.2c22.3,22.4,50.3,35.5,75.6,35.5c1,0,2.1,0,3.1-0.1
		c45.7-2,75-38.5,98.6-67.8c3.4-4.3,6.7-8.3,9.9-12.2c18.3-21.8,27.8-28.5,32.4-30.3c3.5-1.2,7.2-1.4,10.8-0.6
		c2.7,0.7,11.2,3,34.7,31c3.2,3.8,6.5,7.9,9.9,12.2c23.6,29.3,52.9,65.8,98.6,67.8c1,0,2.1,0.1,3.1,0.1c25.3,0,53.3-13.1,75.6-35.5
		c32.2-32.3,50.8-81,52.2-137.2C1411.2,800.1,1401.3,773.8,1381,751.5z M1382.4,828.9c-1.2,48.1-16.6,89.3-43.3,116.1
		c-17.9,17.9-39.8,28.2-58.5,27.3c-33.6-1.5-56.5-29.9-78.6-57.4c-3.5-4.4-6.9-8.5-10.3-12.6c-24.4-29.1-40.4-40.4-55.8-41.1
		c-7.7-0.4-17.2,0.1-30.2,8.3c-1.2,0.8-2.3,1.6-3.4,2.5c-8.7,6.6-18.4,16.5-30,30.4c-3.4,4-6.7,8.2-10.3,12.6
		c-22.1,27.5-45,56-78.6,57.4c-18.8,0.8-40.6-9.4-58.5-27.3c-26.7-26.8-42.1-68-43.3-116.1c-0.5-21.2,6.7-40.2,21.5-56.5
		c36.9-40.7,119-64,225.3-64c2.6,0,9.4,0.1,15.3,0.1h0.2c102.4,1.2,181.3,24.3,217.2,64C1375.8,788.7,1383,807.7,1382.4,828.9
		L1382.4,828.9z"/>
</g>
</svg>
