<?xml version="1.0" encoding="utf-8"?>
<!-- Generator: Adobe Illustrator 24.2.0, SVG Export Plug-In . SVG Version: 6.00 Build 0)  -->
<svg version="1.1" id="asset" xmlns="http://www.w3.org/2000/svg" xmlns:xlink="http://www.w3.org/1999/xlink" x="0px" y="0px"
	 viewBox="0 0 2000 2000" enable-background="new 0 0 2000 2000" xml:space="preserve">
<g>
	<path fill="#9FE4EB" d="M1117.5,845.4c1.7-8.9,5-8.9,6.9-8.1c5.8,2.3,4.8,21.9-0.1,21.9C1120.4,859.2,1115.5,856.3,1117.5,845.4z"
		/>
	<path fill="#9FE4EB" d="M1188.8,845.4c-1.7-8.9-5-8.9-6.9-8.1c-5.8,2.3-4.8,21.9,0.1,21.9C1185.9,859.2,1190.8,856.3,1188.8,845.4z
		"/>
	
		<radialGradient id="SVGID_1_" cx="1020.06" cy="1062.2969" r="106.52" fx="1095.6165" fy="1015.7791" gradientTransform="matrix(1 0 0 -1.13 0 2048.1799)" gradientUnits="userSpaceOnUse">
		<stop  offset="0.32" style="stop-color:#625F5B"/>
		<stop  offset="1" style="stop-color:#33312D"/>
	</radialGradient>
	<ellipse fill="url(#SVGID_1_)" cx="1020.1" cy="851.4" rx="102.4" ry="82"/>
	
		<linearGradient id="SVGID_2_" gradientUnits="userSpaceOnUse" x1="1090.8912" y1="1149.9507" x2="1113.4265" y2="1149.9507" gradientTransform="matrix(1 0 0 -1 0 2000)">
		<stop  offset="0.35" style="stop-color:#33312D"/>
		<stop  offset="1" style="stop-color:#000000"/>
	</linearGradient>
	<path fill="url(#SVGID_2_)" d="M1110.6,846.3c-6.1-2-13.2-3.6-16.6-1.6s-5.4,8.7,1.6,10.3s12.8,1.8,16.3,0
		S1112.2,846.9,1110.6,846.3z"/>
	
		<radialGradient id="SVGID_3_" cx="1016.5479" cy="194.7564" r="92.7935" fx="1016.5438" fy="131.7896" gradientTransform="matrix(0.4856 0.8742 1.2501 -0.6944 548.9948 98.1639)" gradientUnits="userSpaceOnUse">
		<stop  offset="0.32" style="stop-color:#625F5B"/>
		<stop  offset="1" style="stop-color:#33312D"/>
	</radialGradient>
	<ellipse fill="url(#SVGID_3_)" cx="1286.4" cy="851.4" rx="102.4" ry="82"/>
	<path fill="#33312D" d="M1198,847.2c0,0-21.4-12.4-44.4-12.4c-19.4,0-36,7.8-42.1,11c-1.8,0.9-3.6,2.1-3.6,4.2
		c-0.1,1.8,0.7,3.5,2.1,4.7c2.9,2,19.4-9.8,43.5-9.8c25.8,0,41.5,12.1,44.4,10.1S1198,847.2,1198,847.2z"/>
</g>
</svg>
