<?xml version="1.0" encoding="utf-8"?>
<!-- Generator: Adobe Illustrator 24.2.0, SVG Export Plug-In . SVG Version: 6.00 Build 0)  -->
<svg version="1.1" id="asset" xmlns="http://www.w3.org/2000/svg" xmlns:xlink="http://www.w3.org/1999/xlink" x="0px" y="0px"
	 viewBox="0 0 2000 2000" enable-background="new 0 0 2000 2000" xml:space="preserve">
<g id="snorkel-mask-yellow">
	<polygon fill="#CB8930" points="750.1,778.9 696.5,778.9 696.5,937.2 778.6,937.2 778.6,783.6 	"/>
	<path fill="#EBA841" d="M968.7,990.4c36.9,0,80-4.4,102.2-10c-25.3,12.4-77.3,23.3-137.4,23.3c-156.4,0-184.6-92.5-184.6-207.6
		c0-144.6,255.1-155.8,355.3-154.1c-114.5,1.9-320,23.4-320,148.4C784.1,901.2,812.3,990.4,968.7,990.4z"/>
	
		<linearGradient id="SVGID_1_" gradientUnits="userSpaceOnUse" x1="795.1401" y1="1183.855" x2="1440.6802" y2="1183.855" gradientTransform="matrix(1 0 0 -1 0 2000)">
		<stop  offset="0" style="stop-color:#9FE4EB;stop-opacity:0.6"/>
		<stop  offset="1" style="stop-color:#9FE4EB;stop-opacity:0.6"/>
	</linearGradient>
	<path fill="url(#SVGID_1_)" d="M1315.8,979.4c-10.3,0-20.6-0.6-30.8-1.9c-15.6-2.1-30.4-8.5-42.8-18.3
		c-24.8-19.6-39.9-31.8-45.1-36.2c-8.8-7.6-18.1-11.5-27.6-11.5c-7.8,0-15.5,2.5-23.6,7.6l-0.2,0.1l-0.2,0.1c-3.2,2.2-6,4.3-8.9,6.5
		c-1.1,0.8-2.2,1.7-3.3,2.5c-3.9,2.9-7.6,6.2-11.5,9.6c-14.2,12.3-30.3,26.3-64.6,35c-22.7,5.8-57.5,6.5-88.4,6.5
		c-68.9,0-115.4-17.6-142.1-53.9c-21.8-29.6-31.5-71.2-31.5-135c0-26.4,9.9-48.5,30.4-67.6c18.2-17,44.8-31.2,79-42.3
		c65.2-21.1,144.6-26.6,199.8-27.5c5.8-0.1,11.7-0.2,17.5-0.2c22.3,0,38.5,0.7,46.2,1.1c62.5,3.3,118.6,12.6,162.2,26.9
		c73.3,24,110.5,60.8,110.5,109.6c0,56.2-5.7,95.8-17.9,124.8c-14.4,34.1-38.7,54.2-74.2,61.2
		C1337.7,978.5,1326.8,979.5,1315.8,979.4z"/>
	<path fill="#FAC369" d="M1121.8,663.8c22.1,0,38.1,0.7,45.6,1.1c61.6,3.3,116.7,12.4,159.3,26.4c32.3,10.6,57.5,23.8,74.8,39.4
		c19,17.1,28.2,36.6,28.2,59.7c0,54.6-5.4,92.9-17,120.5c-13.1,30.9-34.1,48.3-66.2,54.7c-10.1,1.9-20.4,2.8-30.6,2.8
		c-9.8,0-19.7-0.6-29.4-1.8c-13.7-1.9-26.6-7.4-37.4-16c-30.7-24.2-41.3-32.9-44.8-35.9c-10.8-9.4-22.6-14.1-34.8-14.1
		c-9.8,0-19.7,3.1-29.5,9.3l-0.4,0.2l-0.4,0.2c-3.4,2.4-6.4,4.6-9.2,6.8c-1.1,0.8-2.1,1.6-3.3,2.5c-4.2,3.2-8.1,6.5-12.1,10
		c-13.3,11.5-28.3,24.6-60.1,32.6c-21.5,5.5-55.4,6.2-85.7,6.2c-34.7,0-63.8-4.7-86.5-14c-19.9-8.2-35.2-19.7-46.7-35.4
		c-10.7-14.5-18.2-32.5-23-55.1c-4.3-20.2-6.4-44.2-6.4-73.4c0-23.2,8.8-42.7,26.9-59.6c17-15.9,42.2-29.3,74.9-39.8
		c35.3-11.4,98-25.3,196.5-27C1110.3,663.9,1116.1,663.9,1121.8,663.8L1121.8,663.8 M1121.9,641.9c-5.6,0-11.5,0-17.7,0.2
		c-114.5,1.9-320,23.4-320,148.4c0,110.8,28.2,200,184.6,200c36.9,0,69-1.2,91.1-6.8c46.6-11.8,62.9-33.5,80-46.4
		c4.2-3.1,7.7-5.9,11.8-8.8c6.1-3.9,12-5.9,17.8-5.9c6.8,0,13.6,2.8,20.4,8.8c6.3,5.5,26,21.2,45.5,36.5
		c13.9,11.1,30.5,18.2,48.2,20.6c10.7,1.4,21.5,2,32.3,2c11.7,0.1,23.4-1,34.9-3.2c84.6-16.8,101-98.2,101-196.8
		c0-126.8-220.5-144.1-283.1-147.4C1158.8,642.5,1142.4,641.9,1121.9,641.9L1121.9,641.9z"/>
	<path fill="#F1AE44" d="M679.8,682.5c0.2-1.1,0.5-2.2,0.7-3.3C680.3,680.4,680.1,681.5,679.8,682.5z"/>
	<path fill="#B6E3DE" d="M696.5,980c9.6,45.6,32.6,82.4,37.1,94.7s10.4,36.8,11.3,49.3s20.8,12.4,35.2,7.5s14.1-9.3,10.7-25.4
		s3-15.4,14.5-14.4c8.7,0.8,20.3,1,43.2-3.1c11.4-1.9,23-1.3,34.1,1.8c3.8,1,9.3,0.6,17.2-3.4c17.1-8.7,21.3-18.9,18.8-26.4
		c-1.3-3.7-2.2-7.6-2.8-11.5c-0.8-6.7-4-16-14.8-16c-17.1,0-27.9,7.7-34,8.9c-9,1.8-21.1,5.4-34.8,4s-71.3-26.4-79-49.5l-7.7-23.2
		L696.5,980z"/>
	<path opacity="0.8" fill="#6FCFCE" enable-background="new    " d="M696.5,980c9.6,45.6,32.6,82.4,37.1,94.7s10.4,36.8,11.3,49.3
		s20.8,12.4,35.2,7.5s14.1-9.3,10.7-25.4s3-15.4,14.5-14.4c8.7,0.8,20.3,1,43.2-3.1c11.4-1.9,23-1.3,34.1,1.8
		c3.8,1,9.3,0.6,17.2-3.4c17.1-8.7,21.3-18.9,18.8-26.4c-1.3-3.7-2.2-7.6-2.8-11.5c0,0-1.1,4.5-5,4.8c-17.1,1.3-22.3,5.6-28.4,6.8
		c-9,1.8-36.5,9.5-50.2,8.2s-54.7-13.8-77.9-21.5c-27.5-9.1-32.8-61.6-32.8-61.6L696.5,980z"/>
	<path fill="#F9C163" d="M942.2,391.6c-7.9,9.6-132.5,137.2-177.3,209.7s-56.2,135.4-48.3,186s27.5,178.8,28.8,186l0,0
		c1.2,7.2-19.3,12.6-28,13c-6.7,0.3-15.3,1.3-19.8-6.6c-1.6-3-2.5-6.3-2.8-9.7c-2-18.2-26.6-181.4-25.3-211.4
		c0.6-14.5,3.8-44.4,10.4-76.3c0.2-1.1,0.5-2.2,0.7-3.3l0,0c0.6-2.8,1.2-5.6,1.8-8.3c6.9-30.2,16.9-60.9,30.4-81
		c26.8-39.6,191.6-228.9,223.8-265.7c1.4-1.6,3.8-1.8,5.4-0.4c0.7,0.6,1.2,1.5,1.3,2.4c0.6,4.5,1.2,9.8,1.8,15.5
		C946.9,361.4,947.5,385.3,942.2,391.6z"/>
	<path opacity="0.4" fill="#FFE9C5" enable-background="new    " d="M934.2,356.6c0,0-218.6,238.1-244.1,325.9
		c17.6-56.2,23.6-77.2,36.5-93.8c29.3-37.9,167.4-207.1,199.6-243.9c1.4-1.6,3.8-1.8,5.4-0.4c0.7,0.6,1.2,1.5,1.3,2.4
		C933.6,351.3,933.7,350.9,934.2,356.6z"/>
</g>
</svg>
