<?xml version="1.0" encoding="utf-8"?>
<!-- Generator: Adobe Illustrator 26.0.0, SVG Export Plug-In . SVG Version: 6.00 Build 0)  -->
<svg version="1.1" id="asset" xmlns="http://www.w3.org/2000/svg" xmlns:xlink="http://www.w3.org/1999/xlink" x="0px" y="0px"
	 viewBox="0 0 2000 2000" enable-background="new 0 0 2000 2000" xml:space="preserve">
<g>
	<path fill="#9DCFFF" fill-opacity="0.7" d="M1293.6,935c50,0,90.5-40.5,90.5-90.5s-40.5-90.5-90.5-90.5s-90.5,40.5-90.5,90.5
		S1243.6,935,1293.6,935z"/>
	<path fill="#9DCFFF" fill-opacity="0.7" d="M1005.4,935c50,0,90.5-40.5,90.5-90.5s-40.5-90.5-90.5-90.5c-50,0-90.5,40.5-90.5,90.5
		S955.4,935,1005.4,935z"/>
	<path fill="#A20381" d="M1282.6,724.3c-27.5,0-54.1,9.4-75.4,26.7c-21.4,17.2-36.2,41.3-42,68.1c-14.3-4.9-33.9-6.5-52.3,0.8
		c-5.7-27-20.4-51.2-41.9-68.6c-21.4-17.4-48.2-26.9-75.8-26.9c-31.9,0-62.4,12.7-85,35.2s-35.2,53.1-35.2,85s12.7,62.4,35.2,85
		s53.1,35.2,85,35.2c31.9,0,62.4-12.7,85-35.2c22.5-22.5,35.2-53.1,35.2-85c0-0.7,0-1.4,0-2.1c17.6-9.8,37.7-5.5,47.2-1.2
		c0,1.1-0.1,2.2-0.1,3.4c0,31.9,12.7,62.4,35.2,85s53.1,35.2,85,35.2c31.9,0,62.4-12.7,84.9-35.2c22.5-22.5,35.2-53.1,35.2-85
		c0-15.8-3.1-31.4-9.1-46s-14.9-27.8-26.1-39s-24.4-20-39-26C1314,727.5,1298.4,724.3,1282.6,724.3z M995.2,914.4
		c-9.2,0-18.3-1.8-26.8-5.3s-16.2-8.7-22.7-15.2c-6.5-6.5-11.6-14.2-15.2-22.7s-5.3-17.6-5.3-26.8c0-18.5,7.4-36.3,20.5-49.4
		c13.1-13.1,30.9-20.5,49.4-20.5c9.2,0,18.3,1.8,26.8,5.3c8.5,3.5,16.2,8.7,22.7,15.2s11.6,14.2,15.2,22.7s5.3,17.6,5.3,26.8
		s-1.8,18.3-5.3,26.8c-3.5,8.5-8.7,16.2-15.2,22.7s-14.2,11.6-22.7,15.2C1013.5,912.6,1004.4,914.4,995.2,914.4z M1282.6,914.4
		c-18.5,0-36.3-7.4-49.4-20.5c-13.1-13.1-20.5-30.9-20.5-49.4s7.4-36.3,20.5-49.4c13.1-13.1,30.9-20.5,49.4-20.5s36.3,7.4,49.4,20.5
		c13.1,13.1,20.5,30.9,20.5,49.4c0,9.2-1.8,18.3-5.3,26.8c-3.5,8.5-8.7,16.2-15.2,22.7s-14.2,11.6-22.7,15.2
		C1300.9,912.6,1291.8,914.4,1282.6,914.4z"/>
	<path fill="#D600AA" d="M1292.8,724.3c-27.5,0-54.1,9.4-75.4,26.7c-21.4,17.2-36.2,41.3-42,68.1c-14.3-4.9-33.9-6.5-52.3,0.8
		c-5.7-27-20.4-51.2-41.9-68.6c-21.4-17.4-48.2-26.9-75.8-26.9c-31.9,0-62.4,12.7-85,35.2s-35.2,53.1-35.2,85s12.7,62.4,35.2,85
		s53.1,35.2,85,35.2s62.4-12.7,85-35.2c22.5-22.5,35.2-53.1,35.2-85c0-0.7,0-1.4,0-2.1c17.6-9.8,37.7-5.5,47.2-1.2
		c0,1.1-0.1,2.2-0.1,3.4c0,31.9,12.7,62.4,35.2,85c22.5,22.5,53.1,35.2,85,35.2c31.9,0,62.4-12.7,84.9-35.2
		c22.5-22.5,35.2-53.1,35.2-85c0-15.8-3.1-31.4-9.1-46s-14.9-27.8-26.1-39s-24.4-20-39-26C1324.2,727.5,1308.6,724.3,1292.8,724.3z
		 M1005.4,914.4c-9.2,0-18.3-1.8-26.8-5.3s-16.2-8.7-22.7-15.2c-6.5-6.5-11.6-14.2-15.2-22.7s-5.3-17.6-5.3-26.8
		c0-18.5,7.4-36.3,20.5-49.4c13.1-13.1,30.9-20.5,49.4-20.5c9.2,0,18.3,1.8,26.8,5.3s16.2,8.7,22.7,15.2
		c6.5,6.5,11.6,14.2,15.2,22.7s5.3,17.6,5.3,26.8s-1.8,18.3-5.3,26.8c-3.5,8.5-8.7,16.2-15.2,22.7s-14.2,11.6-22.7,15.2
		C1023.7,912.6,1014.6,914.4,1005.4,914.4z M1292.8,914.4c-18.5,0-36.3-7.4-49.4-20.5c-13.1-13.1-20.5-30.9-20.5-49.4
		s7.4-36.3,20.5-49.4c13.1-13.1,30.9-20.5,49.4-20.5s36.3,7.4,49.4,20.5c13.1,13.1,20.5,30.9,20.5,49.4c0,9.2-1.8,18.3-5.3,26.8
		c-3.5,8.5-8.7,16.2-15.2,22.7s-14.2,11.6-22.7,15.2C1311.1,912.6,1302,914.4,1292.8,914.4z"/>
	
		<linearGradient id="SVGID_1_" gradientUnits="userSpaceOnUse" x1="449.5809" y1="-5780.1035" x2="487.4969" y2="-5752.0874" gradientTransform="matrix(1 0 0 1 564 6493.2944)">
		<stop  offset="0" style="stop-color:#FF7951"/>
		<stop  offset="1" style="stop-color:#FF2078"/>
	</linearGradient>
	<path fill="url(#SVGID_1_)" d="M1025.8,752.7c16.8,0,30.5-13.6,30.5-30.5s-13.6-30.5-30.5-30.5c-16.8,0-30.5,13.6-30.5,30.5
		S1008.9,752.7,1025.8,752.7z"/>
	
		<linearGradient id="SVGID_00000106121733366419112410000004507593247027386523_" gradientUnits="userSpaceOnUse" x1="418.3153" y1="-5818.0015" x2="415.5623" y2="-5722.8076" gradientTransform="matrix(1 0 0 1 564 6493.2944)">
		<stop  offset="0.1333" style="stop-color:#7014E8"/>
		<stop  offset="1" style="stop-color:#4931DE"/>
	</linearGradient>
	<path fill="url(#SVGID_00000106121733366419112410000004507593247027386523_)" d="M981.4,736c16.8,0,30.4-13.6,30.4-30.4
		s-13.6-30.4-30.4-30.4S951,688.8,951,705.6C951,722.4,964.6,736,981.4,736z"/>
	<path fill="#FF476C" d="M939,770.5c15.1,0,27.4-12.3,27.4-27.4s-12.3-27.4-27.4-27.4s-27.4,12.3-27.4,27.4S923.8,770.5,939,770.5z"
		/>
	
		<linearGradient id="SVGID_00000015344166967022617210000000126488569689898151_" gradientUnits="userSpaceOnUse" x1="482.8065" y1="-5778.855" x2="510.1815" y2="-5733.7329" gradientTransform="matrix(1 0 0 1 564 6493.2944)">
		<stop  offset="0.1094" style="stop-color:#FFBE46"/>
		<stop  offset="0.7894" style="stop-color:#FF7951"/>
	</linearGradient>
	<path fill="url(#SVGID_00000015344166967022617210000000126488569689898151_)" d="M1061.6,758.4c10.8,0,19.6-8.8,19.6-19.6
		c0-10.8-8.8-19.6-19.6-19.6c-10.8,0-19.6,8.8-19.6,19.6C1042,749.6,1050.8,758.4,1061.6,758.4z"/>
	
		<linearGradient id="SVGID_00000119801019833872630130000009244587396099457467_" gradientUnits="userSpaceOnUse" x1="685.0345" y1="-5809.0396" x2="727.6335" y2="-5738.8262" gradientTransform="matrix(1 0 0 1 564 6493.2944)">
		<stop  offset="0.1094" style="stop-color:#FFBE46"/>
		<stop  offset="0.7894" style="stop-color:#FF7951"/>
	</linearGradient>
	<path fill="url(#SVGID_00000119801019833872630130000009244587396099457467_)" d="M1272.1,752.7c16.8,0,30.5-13.6,30.5-30.5
		s-13.6-30.5-30.5-30.5s-30.5,13.6-30.5,30.5S1255.2,752.7,1272.1,752.7z"/>
	<path fill="#FF476C" d="M1316.4,736c16.8,0,30.4-13.6,30.4-30.4s-13.6-30.4-30.4-30.4s-30.4,13.6-30.4,30.4
		C1285.9,722.4,1299.6,736,1316.4,736z"/>
	<path fill="#FF5860" d="M1358.8,770.5c15.1,0,27.4-12.3,27.4-27.4s-12.3-27.4-27.4-27.4s-27.4,12.3-27.4,27.4
		S1343.7,770.5,1358.8,770.5z"/>
	<path fill="#691AE7" d="M1236.2,758.4c10.8,0,19.6-8.8,19.6-19.6c0-10.8-8.8-19.6-19.6-19.6c-10.8,0-19.6,8.8-19.6,19.6
		S1225.4,758.4,1236.2,758.4z"/>
</g>
</svg>
