<?xml version="1.0" encoding="utf-8"?>
<!-- Generator: Adobe Illustrator 26.0.0, SVG Export Plug-In . SVG Version: 6.00 Build 0)  -->
<svg version="1.1" id="asset" xmlns="http://www.w3.org/2000/svg" xmlns:xlink="http://www.w3.org/1999/xlink" x="0px" y="0px"
	 viewBox="0 0 2000 2000" enable-background="new 0 0 2000 2000" xml:space="preserve">
<g>
	
		<linearGradient id="SVGID_1_" gradientUnits="userSpaceOnUse" x1="547.4139" y1="-5648.0044" x2="313.7259" y2="-5648.0044" gradientTransform="matrix(1 0 0 1 564 6493.2944)">
		<stop  offset="0" style="stop-color:#FFBE46"/>
		<stop  offset="0.1302" style="stop-color:#FF8757"/>
		<stop  offset="0.5365" style="stop-color:#FF436D"/>
		<stop  offset="0.7917" style="stop-color:#BE249B"/>
		<stop  offset="1" style="stop-color:#7029C4"/>
	</linearGradient>
	<path opacity="0.68" fill="url(#SVGID_1_)" enable-background="new    " d="M999.4,971.6c63,0,114-56.6,114-126.3
		s-51-126.3-114-126.3c-63,0-114,56.6-114,126.3C885.4,915.1,936.5,971.6,999.4,971.6z"/>
	
		<linearGradient id="SVGID_00000090975232426928264940000004586372403764568723_" gradientUnits="userSpaceOnUse" x1="851.3348" y1="-5648.0044" x2="617.6469" y2="-5648.0044" gradientTransform="matrix(1 0 0 1 564 6493.2944)">
		<stop  offset="0" style="stop-color:#FFBE46"/>
		<stop  offset="0.1302" style="stop-color:#FF8757"/>
		<stop  offset="0.5365" style="stop-color:#FF436D"/>
		<stop  offset="0.7917" style="stop-color:#BE249B"/>
		<stop  offset="1" style="stop-color:#7029C4"/>
	</linearGradient>
	<path opacity="0.68" fill="url(#SVGID_00000090975232426928264940000004586372403764568723_)" enable-background="new    " d="
		M1303.3,971.6c62.9,0,114-56.6,114-126.3s-51-126.3-114-126.3s-114,56.6-114,126.3S1240.4,971.6,1303.3,971.6z"/>
	<path fill="#2B0B98" d="M1461.5,858.1l-2.7-25.8c-0.4-4.1-3.6-7.2-7.3-7.3c-7.8-0.2-20.7-3.5-26.8-22.4
		c-16.6-56.3-64.4-96.9-120.7-96.9c-59,0-108.6,44.6-122.8,105c-10.7-11.1-14.4-17.8-29.3-17.8c-14.9,0-18.7,6.8-29.5,18
		c-14.2-60.5-63.8-105.2-122.9-105.2c-56.3,0-104.1,40.7-120.7,96.9c-6.2,18.9-19,22.2-26.8,22.4c-3.8,0.1-6.9,3.2-7.3,7.3
		l-2.7,25.8c-0.4,4.3,2.2,8.1,6.1,8.7c8.7,1.5,23.5,6.7,31.3,25.1c17.1,55.4,64.4,95.2,120.2,95.2c70.1,0,127-63,127-140.7
		c0-2.7-0.1-5.4-0.2-8.1c7.9-14.9,10.9-24.7,25.6-24.7s17.5,9.6,25.4,24.3c-0.2,2.8-0.2,5.6-0.2,8.5c0,77.7,56.8,140.7,127,140.7
		c55.7,0,103.1-39.8,120.2-95.2c7.8-18.4,22.6-23.7,31.3-25.1C1459.2,866.2,1461.9,862.3,1461.5,858.1z M999.4,966.4
		c-59.8,0-108.3-53.7-108.3-120s48.5-120,108.3-120s108.3,53.7,108.3,120S1059.2,966.4,999.4,966.4z M1303.9,966.4
		c-59.8,0-108.3-53.7-108.3-120s48.5-120,108.3-120s108.3,53.7,108.3,120C1412.2,912.7,1363.7,966.4,1303.9,966.4z"/>
</g>
</svg>
