<?xml version="1.0" encoding="utf-8"?>
<!-- Generator: Adobe Illustrator 24.2.0, SVG Export Plug-In . SVG Version: 6.00 Build 0)  -->
<svg version="1.1" id="asset" xmlns="http://www.w3.org/2000/svg" xmlns:xlink="http://www.w3.org/1999/xlink" x="0px" y="0px"
	 viewBox="0 0 2000 2000" enable-background="new 0 0 2000 2000" xml:space="preserve">
<g id="ski-goggles-red">
	
		<linearGradient id="SVGID_1_" gradientUnits="userSpaceOnUse" x1="1147.9849" y1="-4519.376" x2="1147.9849" y2="-4766" gradientTransform="matrix(1 0 0 1 0 5514.29)">
		<stop  offset="0.38" style="stop-color:#FFFFFF"/>
		<stop  offset="0.84" style="stop-color:#33D5F9"/>
	</linearGradient>
	<path opacity="0.7" fill="url(#SVGID_1_)" enable-background="new    " d="M1385.4,815.4v105.5c0,30.3-3.3,29.1-20.1,38.8
		s-54.6,22.4-80,31.5c-17.1,6.2-19.8,1.2-28.8-7.3s-22.1-27.7-36.6-47.1s-32.6-41.4-52.7-41.4h-0.3c-20.1,0-36.8,23-51.3,42.4
		s-29,37.6-38,46.1s-17.1,15.8-42.8,7.3s-87.3-21.8-104-31.5s-20.1-8.5-20.1-38.8V815.4c0-20.6-1.1-27.9,24.6-38.8
		c25.4-10.8,102-27.9,219.8-28.3c117.8,0.4,180.4,17.5,205.8,28.3C1386.5,787.5,1385.4,794.8,1385.4,815.4z"/>
	<g id="asset-2">
		<path fill="#512BD4" d="M818.5,942.6l46.7,5.5c8.3,1,15.6-6.1,15.6-15.2V814.3c0-9.1-7.3-16.2-15.7-15.2l-46.7,5.8
			c-7.1,0.9-12.4,7.4-12.4,15.2v107.3C806,935.2,811.4,941.8,818.5,942.6z"/>
		<path fill="#E86E58" d="M1423.1,800.8c-2.2-18.2-7.6-30.4-26.6-40c-83.2-41.8-157.6-51-229.9-52c-2.4-0.1-4.8-0.1-7.3-0.1h-8.6
			c-2.5,0-4.9,0-7.3,0.1c-72.3,1.1-160.8,10.2-243.9,52c-18.5,9.3-31.5,21.1-34.4,38.3c-0.1,0.5-0.2,1.1-0.2,1.7
			c-2.2,18.2-2.2,110.3,0,132.1c0.4,5.2,1.4,10.2,3,15.2c4.4,12.6,14.1,21.4,37.2,32.1c31.3,14.5,121.1,44.8,146.8,50.9
			s37.9-1.2,55.8-30.3c17.6-28.7,34.2-64.5,59.3-65.4c25.1,0.9,41.7,36.7,59.3,65.4c17.9,29.1,30.1,36.4,55.8,30.3
			s77.5-36.4,108.8-50.9s30-25.5,32.2-47.3S1425.3,819,1423.1,800.8z M1256.5,983.8c-8.9-8.5-22.1-27.7-36.6-47.1
			s-32.6-41.4-52.7-41.4h-0.3c-20.1,0-36.8,23-51.3,42.4s-29,37.6-38,46.1s-17.1,15.8-42.8,7.3s-87.3-21.8-104-31.5
			s-20.1-8.5-20.1-38.8V815.4c0-20.6-1.1-27.9,24.6-38.8c25.4-10.8,102-27.9,219.8-28.3c47.5,0.2,86.1,3,116.8,7.1l0,0
			c35.9,6.9,47.9,11,71.9,21.2c25.7,10.9,24.6,18.2,24.6,38.8v105.5c0,30.3-3.3,29.1-20.1,38.8s-40.3,23-66,31.5
			c-3.3,1.1-6.7,2-10.1,2.7C1265.6,993.6,1262.4,989.5,1256.5,983.8L1256.5,983.8z"/>
		
			<linearGradient id="SVGID_2_" gradientUnits="userSpaceOnUse" x1="1328.6233" y1="1244.5701" x2="1328.6233" y2="1006.1682" gradientTransform="matrix(1 0 0 -1 0 2000)">
			<stop  offset="0.38" style="stop-color:#FFFFFF"/>
			<stop  offset="0.84" style="stop-color:#33D5F9"/>
		</linearGradient>
		<path fill="url(#SVGID_2_)" d="M1385.4,815.4v105.5c0,18-1.2,24.9-5.7,29.5c-3,3.2-7.6,5.3-14.4,9.3c-1.3,0.8-2.8,1.5-4.3,2.3
			c-18.2,9.3-52.1,20.7-75.5,29.1l-0.2,0.1c-1.2,0.4-2.3,0.8-3.3,1.1l-0.8,0.2h-0.2c-2.9,0.9-5.8,1.4-8.8,1.3
			c3.4-0.7,6.8-1.6,10.1-2.7c25.7-8.5,49.2-21.8,66-31.5s20.1-8.5,20.1-38.8V815.4c0-20.6,1.1-27.9-24.6-38.8
			c-24-10.2-36-14.3-71.9-21.2c43.1,5.7,70.8,13.8,86.4,20.1l0.2,0.1c0.8,0.3,1.6,0.6,2.3,1c1.8,0.8,3.5,1.5,5.1,2.3l0.9,0.5
			c1.2,0.6,2.4,1.2,3.4,1.8l0.8,0.4c0.8,0.4,1.5,0.9,2.2,1.3l1.4,1c0.4,0.3,0.8,0.5,1.1,0.8l0,0c0.4,0.3,0.8,0.6,1.1,0.9
			s0.7,0.6,1.1,0.9s0.6,0.6,0.9,0.9l0,0c0.7,0.7,1.4,1.5,2,2.3c0.2,0.3,0.5,0.6,0.7,1c0.3,0.5,0.6,1,0.9,1.5l0.5,1
			c0.2,0.5,0.4,1,0.6,1.5l0,0c0.2,0.5,0.4,1.1,0.5,1.6c0.2,0.5,0.3,1.1,0.4,1.7C1385.5,802.5,1385.4,808.1,1385.4,815.4z"/>
		<path fill="#CC5444" d="M1385.3,815.4v105.5c0,18-1.2,24.9-5.7,29.5c-3,3.2-7.6,5.3-14.4,9.3c-1.3,0.8-2.8,1.5-4.3,2.3
			c-18.2,9.4-51.9,21-75.5,29.1l-0.2,0.1l-3.3,1.1l-0.8,0.2h-0.2c-4.9,1.5-6.8,1.6-9.1,1.4l0.3-0.1c3.4-0.7,6.8-1.6,10.1-2.7
			c25.7-8.5,49.2-21.8,66-31.5s20.1-8.5,20.1-38.8V815.4c0-20.6,1.1-27.9-24.6-38.8c-24-10.2-36-14.3-71.9-21.2l0,0l-3.5-0.7
			c38.5,4.3,65.3,10.6,90,20.8l0.2,0.1l2.3,1c1.8,0.8,3.6,1.5,5.1,2.3l0.9,0.5c1.2,0.6,2.4,1.2,3.4,1.8l0.8,0.4
			c0.8,0.4,1.5,0.9,2.2,1.3l1.4,1c0.4,0.3,0.8,0.5,1.1,0.8l0,0l1.1,0.9c0.4,0.3,0.7,0.6,1.1,0.9s0.6,0.6,0.9,0.9l0,0
			c0.7,0.7,1.4,1.5,2,2.3c0.2,0.3,0.5,0.6,0.7,1c0.3,0.5,0.6,1,0.9,1.5l0.5,1c0.2,0.5,0.4,1,0.6,1.5l0,0c0.2,0.5,0.3,1,0.5,1.6
			s0.3,1.1,0.4,1.7C1385.5,802.5,1385.3,808.1,1385.3,815.4z"/>
	</g>
</g>
</svg>
