<?xml version="1.0" encoding="utf-8"?>
<!-- Generator: Adobe Illustrator 24.2.0, SVG Export Plug-In . SVG Version: 6.00 Build 0)  -->
<svg version="1.1" id="asset" xmlns="http://www.w3.org/2000/svg" xmlns:xlink="http://www.w3.org/1999/xlink" x="0px" y="0px"
	 viewBox="0 0 2000 2000" enable-background="new 0 0 2000 2000" xml:space="preserve">
<g id="construction-safety-glasses">
	
		<linearGradient id="SVGID_1_" gradientUnits="userSpaceOnUse" x1="1111.4855" y1="-9261.8604" x2="1111.4855" y2="-9494.5596" gradientTransform="matrix(1 0 0 1 0 10239.0303)">
		<stop  offset="0.23" style="stop-color:#FFFFFF"/>
		<stop  offset="0.62" style="stop-color:#D5D3D0"/>
	</linearGradient>
	<path opacity="0.7" fill="url(#SVGID_1_)" enable-background="new    " d="M827.8,787v81.9c0,4.2,10.7,28.4,42.5,54.4
		c30.4,24.8,83.8,53.9,167.3,53.9c3,0,6,0,9-0.1c20.8-0.5,27.5-15.8,37.4-42.7c3.7-9.9,7.4-20.1,12.7-30.2
		c11.3-21.6,31.2-21.5,44.4-21.4h2.6c16,0,29.2,1.7,39.6,23c10,20.5,21.5,43.8,31.1,61.6c2.9,5.4,5.4,7.8,33.1,6.7
		c29.8-1.1,66.3-18.1,100-46.5c30.3-25.5,47.4-51.1,47.8-59c0.4-11-3.3-64.1-5.7-95.3c-29-7.4-150.7-35.7-287.7-27.3
		C966,754.3,856.1,779.9,827.8,787z"/>
	
		<linearGradient id="SVGID_2_" gradientUnits="userSpaceOnUse" x1="1071.9399" y1="-9261.8604" x2="1071.9399" y2="-9486.6426" gradientTransform="matrix(1 0 0 1 0 10239.0303)">
		<stop  offset="6.000000e-02" style="stop-color:#FFFFFF"/>
		<stop  offset="0.62" style="stop-color:#A7A4A0"/>
	</linearGradient>
	<path opacity="0.7" fill="url(#SVGID_2_)" enable-background="new    " d="M1309.3,770.1c-7-18.5-177.5-19.6-294.9-16.3
		c-93.9,11.1-164.7,27.6-186.7,33.1v81.9c0,4.2,10.7,28.4,42.5,54.4c30.4,24.8,83.8,53.9,167.3,53.9c3,0,6,0,9-0.1
		c20.8-0.5,27.5-15.8,37.4-42.7c3.7-9.9,7.4-20.1,12.7-30.2c11.3-21.6,31.2-21.5,44.4-21.4h2.6c16,0,29.2,1.7,39.6,23
		c10,20.5,21.5,43.8,31.1,61.6c2.9,5.4,5.4,7.8,33.1,6.7c20.7-0.8,44.7-9.2,68.7-23.8c-2.3-12.7-16-15.1-16-15.1
		S1328.6,821.2,1309.3,770.1z"/>
	<g id="asset-2">
		<path fill="#CC5444" d="M1409.5,766.2l-0.4-5.8l-6.5-1.8c-1.4-0.4-38-3-92.6-11.7c-50.3-7.9-175.9-16.2-259.8-11
			c-159.8,9.8-234.5,36.1-235.7,36.4l-7.1,1.9v94.7c0,9,8.6,22.5,12.2,27.9c6.3,9.3,17.7,23.5,36,38.6c33.2,27.3,91.3,59.2,182,59.2
			c3.2,0,6.4,0,9.7-0.1c36.5-0.9,46.6-28.3,56.4-54.9c3.5-9.4,7.1-19.2,11.9-28.3c5.9-11.2,13.3-11.1,25.5-11h2.8
			c10.9,0,14.6,0,20.7,12.3c10.6,21.6,21.7,44.1,31.3,62.1c9.2,17.2,26.9,17.8,52.7,16.9c47.7-1.8,91.6-33,113.6-51.5
			c26.2-22.1,53.2-53.5,53.8-70.8C1416.3,853.7,1409.8,769.8,1409.5,766.2z M1395.2,868.6c-0.3,8-17.5,33.6-47.8,59
			c-9.9,8.3-20.3,15.9-31.3,22.6c-1.5,0.9-3,1.8-4.5,2.7c-0.8,0.4-1.5,0.9-2.2,1.3l-2.2,1.2c-2.3,1.3-4.7,2.5-7,3.6
			c-0.7,0.3-1.4,0.7-2.1,1l-2.2,1l-2.6,1.2l-1.9,0.8l-1.9,0.8c-7.1,3-14.4,5.4-21.9,7.3c-1,0.2-1.9,0.4-2.9,0.7l-1.5,0.3
			c-1,0.2-2,0.4-3,0.6c-0.6,0.1-1.3,0.2-1.9,0.3l-2.5,0.3l-1.4,0.2c-2,0.2-4,0.4-6,0.5l-1.1,0c-27.8,1-30.2-1.3-33.1-6.7
			c-1.8-3.3-3.6-6.8-5.6-10.5l0,0l-3.9-7.5l-1-1.9c-2.9-5.8-6-11.8-9-17.8l0,0c-1.3-2.7-2.7-5.3-4-8c-1.3-2.7-2.6-5.3-3.9-8
			l-3.8-7.8c-1.7-3.5-3.8-6.9-6.2-10c-0.3-0.5-0.7-0.9-1.1-1.3c-0.6-0.7-1.1-1.2-1.7-1.8c-0.4-0.4-0.7-0.7-1.1-1.1
			c-3.3-3.1-7.2-5.4-11.4-6.7l-1.3-0.4c-0.9-0.2-1.7-0.5-2.6-0.6l-1.3-0.2c-2.3-0.4-4.7-0.6-7-0.7l0,0c-1.9-0.1-3.9-0.1-5.9-0.1
			h-2.4c-6.6,0-14.9-0.1-23,2.6s-15.8,8-21.4,18.8c-0.7,1.3-1.3,2.5-1.9,3.8s-1.2,2.5-1.8,3.8c-0.3,0.6-0.6,1.3-0.9,1.9
			c-0.8,1.9-1.6,3.8-2.4,5.7c-2.1,5.1-3.9,10.1-5.8,15c-2.2,5.9-4.2,11.2-6.2,16c-0.6,1.3-1.2,2.7-1.8,3.9s-1.2,2.5-1.8,3.6
			s-1.2,2.3-1.8,3.3c-2.4,4.4-5.8,8.2-9.9,11.2c-0.4,0.3-0.8,0.6-1.3,0.8l-0.7,0.4c-0.4,0.2-0.9,0.5-1.4,0.7l0,0
			c-0.5,0.2-1,0.4-1.4,0.6c-0.2,0.1-0.5,0.2-0.8,0.3c-3.3,1.2-6.8,1.8-10.3,1.8c-3,0.1-6,0.1-9,0.1c-83.5,0-136.9-29-167.3-53.9
			c-10.4-8.4-19.9-18-28.2-28.6c-0.3-0.3-0.5-0.7-0.8-1c-0.8-1-1.5-2-2.2-3l0,0l-1.3-1.9l0,0c-7.1-10.3-10-17.8-10-19.9V787l2.1-0.5
			h0.2c3-0.7,6.7-1.6,11-2.7l1.1-0.3c2.7-0.6,5.6-1.3,8.8-2c4.3-1,9-2,14.1-3.1c8.3-1.8,17.7-3.7,28-5.7c8.4-1.6,17.3-3.3,26.8-5
			c0,0,0.1,0,0.1,0l10.3-1.8l7.2-1.2l0.8-0.1l10.4-1.7c3-0.5,6-1,9.1-1.4l2.4-0.4c6.5-1,13.2-1.9,20.1-2.9c5.4-0.7,11-1.5,16.6-2.2
			h0.3l4.1-0.5l8.7-1.1c28.6-3.5,59.5-6.4,91.7-8.4c137-8.4,258.8,19.9,287.7,27.3C1391.9,804.5,1395.6,857.6,1395.2,868.6z"/>
		
			<linearGradient id="SVGID_3_" gradientUnits="userSpaceOnUse" x1="828.825" y1="1213.5601" x2="828.825" y2="1213.02" gradientTransform="matrix(1 0 0 -1 0 2000)">
			<stop  offset="0.23" style="stop-color:#FFFFFF"/>
			<stop  offset="0.62" style="stop-color:#D5D3D0"/>
		</linearGradient>
		<path opacity="0.7" fill="url(#SVGID_3_)" enable-background="new    " d="M827.8,787l2.1-0.5L827.8,787L827.8,787z"/>
		
			<linearGradient id="SVGID_4_" gradientUnits="userSpaceOnUse" x1="835.5" y1="1216.22" x2="835.5" y2="1213.5701" gradientTransform="matrix(1 0 0 -1 0 2000)">
			<stop  offset="0.23" style="stop-color:#FFFFFF"/>
			<stop  offset="0.62" style="stop-color:#D5D3D0"/>
		</linearGradient>
		<path opacity="0.7" fill="url(#SVGID_4_)" enable-background="new    " d="M830,786.4c3-0.7,6.7-1.6,11-2.7
			C836.7,784.8,833,785.7,830,786.4z"/>
		
			<linearGradient id="SVGID_5_" gradientUnits="userSpaceOnUse" x1="846.5099" y1="1218.49" x2="846.5099" y2="1216.48" gradientTransform="matrix(1 0 0 -1 0 2000)">
			<stop  offset="0.23" style="stop-color:#FFFFFF"/>
			<stop  offset="0.62" style="stop-color:#D5D3D0"/>
		</linearGradient>
		<path opacity="0.7" fill="url(#SVGID_5_)" enable-background="new    " d="M842.1,783.5c2.7-0.6,5.6-1.3,8.8-2
			C847.7,782.2,844.8,782.9,842.1,783.5z"/>
		
			<linearGradient id="SVGID_6_" gradientUnits="userSpaceOnUse" x1="857.955" y1="1221.5801" x2="857.955" y2="1218.49" gradientTransform="matrix(1 0 0 -1 0 2000)">
			<stop  offset="0.23" style="stop-color:#FFFFFF"/>
			<stop  offset="0.62" style="stop-color:#D5D3D0"/>
		</linearGradient>
		<path opacity="0.7" fill="url(#SVGID_6_)" enable-background="new    " d="M850.9,781.5c4.3-1,9-2,14.1-3.1
			C859.9,779.5,855.2,780.5,850.9,781.5z"/>
		
			<linearGradient id="SVGID_7_" gradientUnits="userSpaceOnUse" x1="879" y1="1227.29" x2="879" y2="1221.5801" gradientTransform="matrix(1 0 0 -1 0 2000)">
			<stop  offset="0.23" style="stop-color:#FFFFFF"/>
			<stop  offset="0.62" style="stop-color:#D5D3D0"/>
		</linearGradient>
		<path opacity="0.7" fill="url(#SVGID_7_)" enable-background="new    " d="M865,778.4c8.3-1.8,17.7-3.7,28-5.7
			C882.7,774.7,873.3,776.7,865,778.4z"/>
		
			<linearGradient id="SVGID_8_" gradientUnits="userSpaceOnUse" x1="906.465" y1="1232.25" x2="906.465" y2="1227.29" gradientTransform="matrix(1 0 0 -1 0 2000)">
			<stop  offset="0.23" style="stop-color:#FFFFFF"/>
			<stop  offset="0.62" style="stop-color:#D5D3D0"/>
		</linearGradient>
		<path opacity="0.7" fill="url(#SVGID_8_)" enable-background="new    " d="M893,772.7c8.3-1.6,17.3-3.3,26.8-5
			C910.4,769.4,901.4,771.1,893,772.7z"/>
		
			<linearGradient id="SVGID_9_" gradientUnits="userSpaceOnUse" x1="925.165" y1="1234.0601" x2="925.165" y2="1232.28" gradientTransform="matrix(1 0 0 -1 0 2000)">
			<stop  offset="0.23" style="stop-color:#FFFFFF"/>
			<stop  offset="0.62" style="stop-color:#D5D3D0"/>
		</linearGradient>
		<path opacity="0.7" fill="url(#SVGID_9_)" enable-background="new    " d="M920,767.7c3.4-0.6,6.8-1.2,10.3-1.8L920,767.7z"/>
		
			<linearGradient id="SVGID_10_" gradientUnits="userSpaceOnUse" x1="933.955" y1="1235.27" x2="933.955" y2="1234.0601" gradientTransform="matrix(1 0 0 -1 0 2000)">
			<stop  offset="0.23" style="stop-color:#FFFFFF"/>
			<stop  offset="0.62" style="stop-color:#D5D3D0"/>
		</linearGradient>
		<path opacity="0.7" fill="url(#SVGID_10_)" enable-background="new    " d="M930.3,765.9c2.4-0.4,4.8-0.8,7.2-1.2L930.3,765.9z"/>
		
			<linearGradient id="SVGID_11_" gradientUnits="userSpaceOnUse" x1="943.525" y1="1237.0701" x2="943.525" y2="1235.4" gradientTransform="matrix(1 0 0 -1 0 2000)">
			<stop  offset="0.23" style="stop-color:#FFFFFF"/>
			<stop  offset="0.62" style="stop-color:#D5D3D0"/>
		</linearGradient>
		<path opacity="0.7" fill="url(#SVGID_11_)" enable-background="new    " d="M938.3,764.6c3.4-0.6,6.9-1.1,10.4-1.7L938.3,764.6z"
			/>
		
			<linearGradient id="SVGID_12_" gradientUnits="userSpaceOnUse" x1="953.275" y1="1238.49" x2="953.275" y2="1237.0701" gradientTransform="matrix(1 0 0 -1 0 2000)">
			<stop  offset="0.23" style="stop-color:#FFFFFF"/>
			<stop  offset="0.62" style="stop-color:#D5D3D0"/>
		</linearGradient>
		<path opacity="0.7" fill="url(#SVGID_12_)" enable-background="new    " d="M948.7,762.9c3-0.5,6-1,9.1-1.4
			C954.8,762,951.7,762.5,948.7,762.9z"/>
		
			<linearGradient id="SVGID_13_" gradientUnits="userSpaceOnUse" x1="970.295" y1="1241.77" x2="970.295" y2="1238.86" gradientTransform="matrix(1 0 0 -1 0 2000)">
			<stop  offset="0.23" style="stop-color:#FFFFFF"/>
			<stop  offset="0.62" style="stop-color:#D5D3D0"/>
		</linearGradient>
		<path opacity="0.7" fill="url(#SVGID_13_)" enable-background="new    " d="M960.3,761.1c6.5-1,13.2-2,20.1-2.9
			C973.5,759.2,966.8,760.2,960.3,761.1z"/>
		
			<linearGradient id="SVGID_14_" gradientUnits="userSpaceOnUse" x1="988.63" y1="1243.99" x2="988.63" y2="1241.77" gradientTransform="matrix(1 0 0 -1 0 2000)">
			<stop  offset="0.23" style="stop-color:#FFFFFF"/>
			<stop  offset="0.62" style="stop-color:#D5D3D0"/>
		</linearGradient>
		<path opacity="0.7" fill="url(#SVGID_14_)" enable-background="new    " d="M980.3,758.2c5.4-0.8,11-1.5,16.6-2.2
			C991.3,756.7,985.8,757.5,980.3,758.2z"/>
		
			<linearGradient id="SVGID_15_" gradientUnits="userSpaceOnUse" x1="1073.2051" y1="1042.15" x2="1073.2051" y2="1038.8301" gradientTransform="matrix(1 0 0 -1 0 2000)">
			<stop  offset="0.23" style="stop-color:#FFFFFF"/>
			<stop  offset="0.62" style="stop-color:#D5D3D0"/>
		</linearGradient>
		<path opacity="0.7" fill="url(#SVGID_15_)" enable-background="new    " d="M1072.3,961.2c0.6-1.1,1.2-2.2,1.8-3.3
			C1073.5,959,1072.9,960.1,1072.3,961.2z"/>
		
			<linearGradient id="SVGID_16_" gradientUnits="userSpaceOnUse" x1="1076.8149" y1="1049.6899" x2="1076.8149" y2="1045.78" gradientTransform="matrix(1 0 0 -1 0 2000)">
			<stop  offset="0.23" style="stop-color:#FFFFFF"/>
			<stop  offset="0.62" style="stop-color:#D5D3D0"/>
		</linearGradient>
		<path opacity="0.7" fill="url(#SVGID_16_)" enable-background="new    " d="M1075.9,954.2c0.6-1.3,1.2-2.6,1.8-3.9
			C1077.1,951.7,1076.5,953,1075.9,954.2z"/>
		
			<linearGradient id="SVGID_17_" gradientUnits="userSpaceOnUse" x1="1090.8601" y1="1086.38" x2="1090.8601" y2="1080.7" gradientTransform="matrix(1 0 0 -1 0 2000)">
			<stop  offset="0.23" style="stop-color:#FFFFFF"/>
			<stop  offset="0.62" style="stop-color:#D5D3D0"/>
		</linearGradient>
		<path opacity="0.7" fill="url(#SVGID_17_)" enable-background="new    " d="M1089.7,919.3c0.8-1.9,1.6-3.8,2.4-5.7
			C1091.2,915.5,1090.4,917.4,1089.7,919.3z"/>
		
			<linearGradient id="SVGID_18_" gradientUnits="userSpaceOnUse" x1="832.73" y1="1213" x2="832.73" y2="1111.1799" gradientTransform="matrix(1 0 0 -1 0 2000)">
			<stop  offset="6.000000e-02" style="stop-color:#FFFFFF"/>
			<stop  offset="0.62" style="stop-color:#A7A4A0"/>
		</linearGradient>
		<path opacity="0.7" fill="url(#SVGID_18_)" enable-background="new    " d="M837.7,888.8c-7.1-10.3-10-17.8-10-19.9V787l0,0v81.9
			C827.8,871,830.6,878.5,837.7,888.8z"/>
		
			<linearGradient id="SVGID_19_" gradientUnits="userSpaceOnUse" x1="840.165" y1="1109.27" x2="840.165" y2="1106.3101" gradientTransform="matrix(1 0 0 -1 0 2000)">
			<stop  offset="6.000000e-02" style="stop-color:#FFFFFF"/>
			<stop  offset="0.62" style="stop-color:#A7A4A0"/>
		</linearGradient>
		<path opacity="0.7" fill="url(#SVGID_19_)" enable-background="new    " d="M839.1,890.7c0.7,1,1.4,2,2.2,3
			C840.5,892.7,839.8,891.7,839.1,890.7z"/>
		
			<linearGradient id="SVGID_20_" gradientUnits="userSpaceOnUse" x1="949.425" y1="1105.29" x2="949.425" y2="1022.86" gradientTransform="matrix(1 0 0 -1 0 2000)">
			<stop  offset="6.000000e-02" style="stop-color:#FFFFFF"/>
			<stop  offset="0.62" style="stop-color:#A7A4A0"/>
		</linearGradient>
		<path opacity="0.7" fill="url(#SVGID_20_)" enable-background="new    " d="M1046.5,977c3.5,0,7-0.6,10.3-1.8
			C1053.5,976.4,1050,977,1046.5,977c-3,0.1-6,0.1-9,0.1c-83.5,0-136.9-29-167.3-53.9c-10.5-8.4-19.9-18-28.2-28.5
			c8.3,10.5,17.8,20.1,28.2,28.5c30.4,24.8,83.8,53.9,167.3,53.9C1040.5,977.1,1043.5,977.1,1046.5,977z"/>
		
			<linearGradient id="SVGID_21_" gradientUnits="userSpaceOnUse" x1="1133.755" y1="1117.24" x2="1133.755" y2="1114.6199" gradientTransform="matrix(1 0 0 -1 0 2000)">
			<stop  offset="6.000000e-02" style="stop-color:#FFFFFF"/>
			<stop  offset="0.62" style="stop-color:#A7A4A0"/>
		</linearGradient>
		<path opacity="0.7" fill="url(#SVGID_21_)" enable-background="new    " d="M1143.6,882.8c2,0,4,0,5.9,0.1
			C1147.6,882.8,1145.6,882.8,1143.6,882.8l-2.6,0c-6.6,0-14.9-0.1-23,2.6c8.1-2.7,16.4-2.7,23-2.6H1143.6z"/>
		
			<linearGradient id="SVGID_22_" gradientUnits="userSpaceOnUse" x1="1153.02" y1="1117.1" x2="1153.02" y2="1116.4099" gradientTransform="matrix(1 0 0 -1 0 2000)">
			<stop  offset="6.000000e-02" style="stop-color:#FFFFFF"/>
			<stop  offset="0.62" style="stop-color:#A7A4A0"/>
		</linearGradient>
		<path opacity="0.7" fill="url(#SVGID_22_)" enable-background="new    " d="M1149.5,882.9c2.3,0.1,4.7,0.3,7,0.7
			C1154.2,883.2,1151.9,883,1149.5,882.9z"/>
		
			<linearGradient id="SVGID_23_" gradientUnits="userSpaceOnUse" x1="1159.145" y1="1116.1699" x2="1159.145" y2="1115.55" gradientTransform="matrix(1 0 0 -1 0 2000)">
			<stop  offset="6.000000e-02" style="stop-color:#FFFFFF"/>
			<stop  offset="0.62" style="stop-color:#A7A4A0"/>
		</linearGradient>
		<path opacity="0.7" fill="url(#SVGID_23_)" enable-background="new    " d="M1157.8,883.8c0.9,0.2,1.8,0.4,2.6,0.6
			C1159.6,884.2,1158.7,884,1157.8,883.8z"/>
		
			<linearGradient id="SVGID_24_" gradientUnits="userSpaceOnUse" x1="1167.485" y1="1115.1699" x2="1167.485" y2="1108.46" gradientTransform="matrix(1 0 0 -1 0 2000)">
			<stop  offset="6.000000e-02" style="stop-color:#FFFFFF"/>
			<stop  offset="0.62" style="stop-color:#A7A4A0"/>
		</linearGradient>
		<path opacity="0.7" fill="url(#SVGID_24_)" enable-background="new    " d="M1161.8,884.8c4.3,1.3,8.2,3.6,11.4,6.7
			C1169.9,888.5,1166,886.2,1161.8,884.8z"/>
		
			<linearGradient id="SVGID_25_" gradientUnits="userSpaceOnUse" x1="1175.16" y1="1107.36" x2="1175.16" y2="1105.55" gradientTransform="matrix(1 0 0 -1 0 2000)">
			<stop  offset="6.000000e-02" style="stop-color:#FFFFFF"/>
			<stop  offset="0.62" style="stop-color:#A7A4A0"/>
		</linearGradient>
		<path opacity="0.7" fill="url(#SVGID_25_)" enable-background="new    " d="M1174.3,892.6c0.6,0.6,1.1,1.2,1.7,1.8
			C1175.4,893.8,1174.9,893.2,1174.3,892.6z"/>
		
			<linearGradient id="SVGID_26_" gradientUnits="userSpaceOnUse" x1="1182.0599" y1="1104.23" x2="1182.0599" y2="1086.39" gradientTransform="matrix(1 0 0 -1 0 2000)">
			<stop  offset="6.000000e-02" style="stop-color:#FFFFFF"/>
			<stop  offset="0.62" style="stop-color:#A7A4A0"/>
		</linearGradient>
		<path opacity="0.7" fill="url(#SVGID_26_)" enable-background="new    " d="M1183.2,905.8l3.8,7.8
			C1185.7,911,1184.4,908.4,1183.2,905.8c-1.7-3.5-3.8-6.9-6.2-10C1179.5,898.9,1181.5,902.3,1183.2,905.8z"/>
		
			<linearGradient id="SVGID_27_" gradientUnits="userSpaceOnUse" x1="1199.5" y1="1070.36" x2="1199.5" y2="1052.54" gradientTransform="matrix(1 0 0 -1 0 2000)">
			<stop  offset="6.000000e-02" style="stop-color:#FFFFFF"/>
			<stop  offset="0.62" style="stop-color:#A7A4A0"/>
		</linearGradient>
		<path opacity="0.7" fill="url(#SVGID_27_)" enable-background="new    " d="M1195,929.6c3,6,6,12,9,17.8
			C1200.9,941.7,1197.9,935.7,1195,929.6z"/>
		
			<linearGradient id="SVGID_28_" gradientUnits="userSpaceOnUse" x1="1206.8101" y1="1050.61" x2="1206.8101" y2="1043.12" gradientTransform="matrix(1 0 0 -1 0 2000)">
			<stop  offset="6.000000e-02" style="stop-color:#FFFFFF"/>
			<stop  offset="0.62" style="stop-color:#A7A4A0"/>
		</linearGradient>
		<path opacity="0.7" fill="url(#SVGID_28_)" enable-background="new    " d="M1208.7,956.9c-1.3-2.4-2.6-4.9-3.9-7.5L1208.7,956.9z
			"/>
		
			<linearGradient id="SVGID_29_" gradientUnits="userSpaceOnUse" x1="1228.65" y1="1043.11" x2="1228.65" y2="1025.6649" gradientTransform="matrix(1 0 0 -1 0 2000)">
			<stop  offset="6.000000e-02" style="stop-color:#FFFFFF"/>
			<stop  offset="0.62" style="stop-color:#A7A4A0"/>
		</linearGradient>
		<path opacity="0.7" fill="url(#SVGID_29_)" enable-background="new    " d="M1247.4,974.1l1.1,0
			C1248.2,974,1247.8,974.1,1247.4,974.1c-27.8,1-30.2-1.3-33.2-6.7c-1.8-3.3-3.6-6.8-5.5-10.5c1.9,3.7,3.8,7.2,5.6,10.5
			C1217.2,972.8,1219.7,975.1,1247.4,974.1z"/>
		<path fill="#625F5B" d="M1412.4,765.5c0-3.6-2.5-6.8-6-7.6c-25.6-6.4-131.5-30.6-278.2-30.6c-169.2,0-327.6,36.1-327.6,36.1
			l1.5,43.6c0,0,153.8-38,325.3-38s285,33.1,285,33.1L1412.4,765.5L1412.4,765.5z"/>
		<path opacity="0.7" fill="#D5D3D0" enable-background="new    " d="M901.6,804.6c228.8-43.5,419.7-4.5,419.7-4.5
			S1133.8,791.2,901.6,804.6z"/>
	</g>
</g>
</svg>
