<?xml version="1.0" encoding="utf-8"?>
<!-- Generator: Adobe Illustrator 24.2.0, SVG Export Plug-In . SVG Version: 6.00 Build 0)  -->
<svg version="1.1" id="asset" xmlns="http://www.w3.org/2000/svg" xmlns:xlink="http://www.w3.org/1999/xlink" x="0px" y="0px"
	 viewBox="0 0 2000 2000" enable-background="new 0 0 2000 2000" xml:space="preserve">
<g>
	<path fill="#F1AE44" d="M1420,739.2c5.4,3.2,10.4,4.8,11,3.7s-3.2-4.6-8.7-7.7s-10.4-4.8-11-3.7S1414.6,736,1420,739.2z"/>
	<path fill="#C4832D" d="M1413.5,753.7l-3.7-2.1c-1.7-1-2.2-3.1-1.3-4.7l5.2-9.1l0,0l9.7,5.6l0,0l-5.2,9.1
		C1417.3,754.1,1415.2,754.7,1413.5,753.7z"/>
	<path fill="#D59235" d="M1417.3,743.9c5.4,3.1,10.4,4.8,11,3.7l2.8-4.8c-0.6,1.1-5.6-0.5-11-3.7s-9.3-6.6-8.7-7.7l-2.8,4.8
		C1408,737.3,1411.8,740.8,1417.3,743.9z"/>
	<path fill="#F1AE44" d="M1464.2,788.7c3.5,5.2,7.2,8.8,8.3,8.1s-0.9-5.5-4.4-10.7s-7.2-8.8-8.3-8.1S1460.7,783.5,1464.2,788.7z"/>
	<path fill="#C4832D" d="M1452.1,799l-2.4-3.5c-1.1-1.6-0.7-3.7,0.9-4.8l8.7-5.9l0,0l6.3,9.3l0,0l-8.7,5.9
		C1455.3,801,1453.2,800.5,1452.1,799z"/>
	<path fill="#D59235" d="M1459.6,791.8c3.5,5.2,7.2,8.8,8.3,8.1l4.6-3.1c-1.1,0.7-4.8-2.9-8.3-8.1s-5.5-10-4.4-10.7l-4.6,3.1
		C1454.1,781.8,1456.1,786.6,1459.6,791.8z"/>
	<path fill="#F1AE44" d="M1479.9,860.2c-0.2,6.3,0.8,11.4,2.1,11.4s2.4-5,2.6-11.3s-0.8-11.4-2.1-11.4S1480.1,853.9,1479.9,860.2z"
		/>
	<path fill="#C4832D" d="M1464.1,861.5l0.1-4.3c0-1.9,1.6-3.4,3.5-3.4l10.5,0.2l0,0l-0.2,11.2l0,0l-10.5-0.2
		C1465.6,865,1464,863.4,1464.1,861.5z"/>
	<path fill="#D59235" d="M1474.4,860.1c-0.1,6.3,0.8,11.4,2.1,11.4l5.5,0.1c-1.3,0-2.2-5.2-2.1-11.4s1.3-11.3,2.6-11.3l-5.5-0.1
		C1475.7,848.7,1474.5,853.8,1474.4,860.1z"/>
	<path fill="#33312D" d="M973.9,713.3c-2.7-0.1-5.4-0.2-8.1-0.2c-65.3,0-122.8,43.2-140.8,106c-1.2,4.3-2.3,8.6-3.1,13.1
		c-15.1,79.6,37.2,156.3,116.8,171.3c9,1.7,18.1,2.6,27.2,2.6c2.7,0,5.4-0.1,8.1-0.2c80.8-4.4,142.7-73.5,138.2-154.3
		C1108,776.9,1048.5,717.3,973.9,713.3L973.9,713.3z M1078.1,921.3c-9.4,14.5-21.9,26.8-36.6,35.8c-37.5,22.9-84.8,22.2-121.6-1.7
		c-14.5-9.4-26.6-21.9-35.6-36.6c-22.7-37.5-22-84.7,1.8-121.4c9.3-14.4,21.7-26.4,36.3-35.4c37.4-22.8,84.5-22.3,121.3,1.4
		c14.4,9.3,26.6,21.7,35.6,36.3c6.7,10.9,11.5,22.9,14.2,35.4l0,0c3.7,16.8,3.5,34.3-0.5,51.1C1090.1,898.7,1085,910.5,1078.1,921.3
		L1078.1,921.3z"/>
	<path fill="#4A4844" d="M1124.5,825.8c-15.6-66.1-74.7-112.8-142.6-112.8c-2.7,0-5.4,0.1-8.1,0.2c-80.8,4.4-142.7,73.5-138.2,154.3
		c4.1,74.6,63.7,134.2,138.2,138.2c2.7,0.2,5.4,0.2,8.1,0.2c79.1,0,143.9-62.8,146.4-141.8c0.1-1.5,0.1-3.1,0.1-4.7
		C1128.4,848.2,1127.1,836.9,1124.5,825.8z M954.8,970.5c-12.4-3-24.3-8.1-35-15.1c-14.5-9.4-26.6-21.9-35.6-36.6
		c-22.7-37.5-22-84.7,1.8-121.4c9.3-14.4,21.7-26.4,36.3-35.4c37.4-22.8,84.5-22.3,121.3,1.4c14.4,9.3,26.6,21.7,35.6,36.3
		c6.7,10.9,11.5,22.9,14.2,35.4l0,0c3.7,16.8,3.5,34.3-0.5,51.1c-3,12.5-8,24.3-15,35.1c-9.4,14.5-21.9,26.8-36.6,35.8
		C1015.5,972.9,984.3,977.7,954.8,970.5L954.8,970.5z"/>
	<path opacity="0.6" fill="#C2E8E3" enable-background="new    " d="M1096.2,859.5c0,9-1,17.9-3.1,26.7c-3,12.5-8,24.3-15,35.1
		c-9.4,14.5-21.9,26.8-36.6,35.8c-37.5,22.9-84.8,22.2-121.6-1.7c-14.5-9.4-26.6-21.9-35.6-36.6c-22.7-37.5-22-84.7,1.8-121.4
		c9.3-14.4,21.8-26.5,36.4-35.4c17.9-10.9,38.5-16.7,59.6-16.7c53.7,0,100.1,37.4,111.6,89.9l0,0
		C1095.3,843.2,1096.2,851.3,1096.2,859.5z"/>
	<path opacity="0.8" fill="#DC624F" enable-background="new    " d="M1096.2,859.5c0,9-1,17.9-3.1,26.7c-16.3-3.2-31.9-8.7-41-17.8
		c-36.3-36.5-70.2-9.1-70.2-9.1c31.1-49.2,77.1,3.8,111.8-24.1C1095.3,843.2,1096.2,851.3,1096.2,859.5z"/>
	<path opacity="0.8" fill="#DC624F" enable-background="new    " d="M1078.1,921.3c-9.4,14.5-21.9,26.8-36.6,35.8
		c-9.3-13.8-16.5-28.8-16.4-41.7c0.2-51.5-43.2-56.1-43.2-56.1C1038.7,846.5,1033.6,916.7,1078.1,921.3z"/>
	<path opacity="0.8" fill="#DC624F" enable-background="new    " d="M1006,971.2c-16.9,3.6-34.4,3.4-51.2-0.7
		c3.2-16.3,8.7-31.9,17.9-41c36.5-36.3,9.1-70.2,9.1-70.2C1031,890.5,977.8,936.5,1006,971.2z"/>
	<path opacity="0.8" fill="#DC624F" enable-background="new    " d="M919.8,955.4c-14.5-9.4-26.6-21.9-35.6-36.6
		c13.8-9.2,28.6-16.3,41.5-16.3c51.5,0.2,56-43.2,56-43.2C994.6,916.1,924.5,911.1,919.8,955.4z"/>
	<path opacity="0.8" fill="#DC624F" enable-background="new    " d="M981.8,859.3c-31.1,49.1-76.9-3.7-111.6,24
		c-3.5-16.8-3.3-34.2,0.8-50.8c16.2,3.2,31.6,8.7,40.6,17.8C947.9,886.8,981.8,859.3,981.8,859.3z"/>
	<path opacity="0.8" fill="#DC624F" enable-background="new    " d="M981.8,859.3c-56.6,12.7-51.8-56.8-95.7-61.9
		c9.3-14.4,21.7-26.5,36.3-35.4c9.1,13.7,16.1,28.4,16.1,41.2C938.4,854.8,981.8,859.3,981.8,859.3z"/>
	<path opacity="0.8" fill="#DC624F" enable-background="new    " d="M990.8,789.1c-36.5,36.3-9.1,70.2-9.1,70.2
		c-49-31,3.5-76.8-23.9-111.5c16.7-3.6,34.1-3.4,50.7,0.6C1005.4,764.6,1000,780,990.8,789.1z"/>
	<path opacity="0.8" fill="#DC624F" enable-background="new    " d="M1079.3,799.8c-13.8,9.2-28.6,16.3-41.5,16.3
		c-51.5-0.2-56.1,43.2-56.1,43.2c-12.8-56.7,57-51.8,61.9-95.9C1058.2,772.7,1070.3,785.1,1079.3,799.8z"/>
	<path opacity="0.2" fill="#C2E8E3" enable-background="new    " d="M1084.3,857.7c0,8.2-1,16.3-2.9,24.3
		c-2.7,11.3-7.3,22.1-13.6,31.9c-5.7,8.9-12.8,16.9-20.9,23.7c2.8-3.3,5.3-6.8,7.7-10.4c10.7-16.7,16.5-36.2,16.4-56.1
		c0-7.5-0.8-14.9-2.4-22.2l0,0c-2.5-11.4-6.9-22.2-13-32.2c-8.2-13.3-19.2-24.6-32.4-33c-38.1-24.6-87.8-21.5-122.6,7.6
		c36.7-44.1,102.2-50,146.3-13.3c17.7,14.8,30,35,35,57.6l0,0C1083.5,842.8,1084.3,850.2,1084.3,857.7z"/>
	<path fill="#33312D" d="M1313.5,713.3c-2.7-0.1-5.4-0.2-8.1-0.2c-65.3,0-122.7,43.2-140.8,106c-1.2,4.3-2.3,8.6-3.1,13.1
		c-15.1,79.6,37.2,156.3,116.8,171.3c9,1.7,18,2.6,27.2,2.6c2.7,0,5.4-0.1,8.1-0.2c80.8-4.4,142.7-73.5,138.2-154.3
		C1447.6,776.9,1388.1,717.3,1313.5,713.3L1313.5,713.3z M1417.7,921.3c-9.4,14.5-21.9,26.8-36.6,35.8
		c-37.5,22.9-84.8,22.2-121.6-1.7c-14.5-9.4-26.6-21.9-35.6-36.6c-22.7-37.5-22-84.7,1.8-121.4c9.3-14.4,21.7-26.4,36.3-35.4
		c37.4-22.8,84.5-22.3,121.3,1.4c14.4,9.3,26.6,21.7,35.6,36.3c6.7,10.9,11.5,22.9,14.2,35.4l0,0c3.7,16.8,3.5,34.3-0.5,51.1
		C1429.7,898.7,1424.6,910.5,1417.7,921.3L1417.7,921.3z"/>
	<path fill="#4A4844" d="M1321.6,713c-2.7,0-5.4,0.1-8.1,0.2c-80.8,4.4-142.7,73.5-138.2,154.3c4.1,74.6,63.7,134.2,138.2,138.2
		c2.7,0.2,5.4,0.2,8.1,0.2c80.9,0,146.5-65.6,146.5-146.5S1402.5,713,1321.6,713L1321.6,713z M1294.5,970.5
		c-12.4-3-24.3-8.1-35-15.1c-14.5-9.4-26.6-21.9-35.6-36.6c-22.7-37.5-22-84.7,1.8-121.4c9.3-14.3,21.7-26.4,36.3-35.3
		c37.4-22.8,84.5-22.3,121.3,1.4c14.4,9.3,26.6,21.7,35.6,36.3c6.7,10.9,11.5,22.9,14.2,35.4l0,0c3.7,16.8,3.5,34.3-0.5,51.1
		c-3,12.5-8,24.3-15,35.1c-9.4,14.5-21.9,26.8-36.6,35.8C1355.1,972.9,1323.9,977.7,1294.5,970.5L1294.5,970.5z"/>
	<path opacity="0.6" fill="#C2E8E3" enable-background="new    " d="M1435.8,859.5c0,9-1.1,17.9-3.2,26.7c-3,12.5-8,24.3-15,35.1
		c-9.4,14.5-21.9,26.8-36.6,35.8c-37.5,22.9-84.8,22.2-121.6-1.7c-14.5-9.4-26.6-21.9-35.6-36.6c-22.8-37.5-22-84.7,1.8-121.4
		c9.3-14.4,21.7-26.5,36.3-35.4c17.9-10.9,38.5-16.7,59.5-16.7c53.7,0,100.1,37.4,111.6,89.9l0,0
		C1434.9,843.2,1435.8,851.3,1435.8,859.5z"/>
	<path opacity="0.8" fill="#DC624F" enable-background="new    " d="M1435.8,859.5c0,9-1.1,17.9-3.2,26.7
		c-16.3-3.2-31.9-8.7-41-17.8c-36.3-36.5-70.2-9.1-70.2-9.1c31.1-49.2,77.1,3.8,111.8-24.1C1434.9,843.2,1435.8,851.3,1435.8,859.5z
		"/>
	<path opacity="0.8" fill="#DC624F" enable-background="new    " d="M1417.7,921.3c-9.4,14.5-21.9,26.8-36.6,35.8
		c-9.3-13.8-16.5-28.8-16.4-41.7c0.2-51.5-43.2-56.1-43.2-56.1C1378.3,846.5,1373.2,916.7,1417.7,921.3z"/>
	<path opacity="0.8" fill="#DC624F" enable-background="new    " d="M1345.7,971.2c-16.9,3.6-34.4,3.4-51.2-0.7
		c3.2-16.3,8.7-31.9,17.9-41c36.6-36.3,9.1-70.2,9.1-70.2C1370.7,890.5,1317.4,936.5,1345.7,971.2z"/>
	<path opacity="0.8" fill="#DC624F" enable-background="new    " d="M1259.4,955.4c-14.5-9.4-26.6-21.9-35.6-36.6
		c13.8-9.2,28.6-16.3,41.5-16.3c51.5,0.2,56.1-43.2,56.1-43.2C1334.2,916.1,1264.2,911.1,1259.4,955.4z"/>
	<path opacity="0.8" fill="#DC624F" enable-background="new    " d="M1321.4,859.3c-31.1,49.1-76.9-3.7-111.6,24
		c-3.5-16.8-3.3-34.2,0.8-50.8c16.2,3.2,31.6,8.7,40.6,17.8C1287.5,886.8,1321.4,859.3,1321.4,859.3z"/>
	<path opacity="0.8" fill="#DC624F" enable-background="new    " d="M1321.4,859.3c-56.6,12.7-51.8-56.8-95.7-61.9
		c9.3-14.4,21.7-26.4,36.3-35.4c9.1,13.7,16.2,28.4,16.1,41.2C1278,854.8,1321.4,859.3,1321.4,859.3z"/>
	<path opacity="0.8" fill="#DC624F" enable-background="new    " d="M1330.4,789.1c-36.6,36.3-9.1,70.2-9.1,70.2
		c-49-31,3.5-76.8-23.9-111.5c7.9-1.7,15.9-2.6,24-2.6c9,0,17.9,1.1,26.7,3.2C1345,764.6,1339.6,780,1330.4,789.1z"/>
	<path opacity="0.8" fill="#DC624F" enable-background="new    " d="M1418.9,799.8c-13.8,9.2-28.6,16.3-41.5,16.3
		c-51.5-0.2-56.1,43.2-56.1,43.2c-12.7-56.7,57-51.8,61.9-95.9C1397.8,772.7,1409.9,785.1,1418.9,799.8z"/>
	<path opacity="0.2" fill="#C2E8E3" enable-background="new    " d="M1423.9,857.7c0,8.2-0.9,16.3-2.9,24.3
		c-2.7,11.3-7.3,22.1-13.6,31.9c-5.8,8.9-12.8,16.9-21,23.7c2.8-3.3,5.3-6.8,7.7-10.4c6.3-9.8,10.9-20.6,13.6-31.9
		c3.6-15.2,3.8-31.1,0.5-46.4l0,0c-2.5-11.4-6.9-22.2-13-32.2c-8.2-13.3-19.2-24.6-32.4-33c-38.1-24.6-87.8-21.5-122.6,7.6
		c36.8-44.1,102.3-50,146.3-13.2c17.7,14.8,30,35,34.9,57.5l0,0C1423.1,842.8,1423.9,850.2,1423.9,857.7z"/>
	<path fill="#F1AE44" d="M1171.8,841.8c0-0.2,0.1-0.5,0.1-0.7l-0.5,1.7C1171.6,842.5,1171.7,842.1,1171.8,841.8
		c-0.5,4.2-1.6,8.4-3.4,12.3c-0.4,1-1,1.9-1.8,2.6c-1.8,1.3-4.3,0.7-6.1-0.5s-3.3-2.9-5.1-4.1c-6.1-3.8-14.1-0.2-19.4,4.6
		c-2.6,2.3-5,5-7.5,7.4c0.1-1.5,0.1-3.1,0.1-4.7c0-11.3-1.3-22.7-3.9-33.7c7.9-4.9,17.3-7.1,26.6-6.1c6,0.6,12,2.5,16.3,6.7
		C1171.5,830.3,1173.6,836.5,1171.8,841.8z"/>
	<path fill="#F1AE44" d="M1171.9,841.1c0,0.2-0.1,0.5-0.1,0.7s-0.2,0.7-0.4,1L1171.9,841.1z"/>
	<path fill="#33312D" d="M973.9,713.3c-2.7-0.1-5.4-0.2-8.1-0.2c-65.3,0-122.8,43.2-140.8,106c-1.2,4.3-2.3,8.6-3.1,13.1
		c-15.1,79.6,37.2,156.3,116.8,171.3c9,1.7,18.1,2.6,27.2,2.6c2.7,0,5.4-0.1,8.1-0.2c80.8-4.4,142.7-73.5,138.2-154.3
		C1108,776.9,1048.5,717.3,973.9,713.3L973.9,713.3z M1078.1,921.3c-9.4,14.5-21.9,26.8-36.6,35.8c-37.5,22.9-84.8,22.2-121.6-1.7
		c-14.5-9.4-26.6-21.9-35.6-36.6c-22.7-37.5-22-84.7,1.8-121.4c9.3-14.4,21.7-26.4,36.3-35.4c37.4-22.8,84.5-22.3,121.3,1.4
		c14.4,9.3,26.6,21.7,35.6,36.3c6.7,10.9,11.5,22.9,14.2,35.4l0,0c3.7,16.8,3.5,34.3-0.5,51.1C1090.1,898.7,1085,910.5,1078.1,921.3
		L1078.1,921.3z"/>
	<path fill="#4A4844" d="M981.9,713c-2.7,0-5.4,0.1-8.1,0.2c-80.8,4.4-142.7,73.5-138.2,154.3c4.1,74.6,63.7,134.2,138.2,138.2
		c2.7,0.2,5.4,0.2,8.1,0.2c80.9,0,146.5-65.6,146.5-146.5S1062.8,713,981.9,713L981.9,713z M954.8,970.5c-12.4-3-24.3-8.1-35-15.1
		c-14.5-9.4-26.6-21.9-35.6-36.6c-22.7-37.5-22-84.7,1.8-121.4c9.3-14.4,21.7-26.4,36.3-35.4c37.4-22.8,84.5-22.3,121.3,1.4
		c14.4,9.3,26.6,21.7,35.6,36.3c6.7,10.9,11.5,22.9,14.2,35.4l0,0c3.7,16.8,3.5,34.3-0.5,51.1c-3,12.5-8,24.3-15,35.1
		c-9.4,14.5-21.9,26.8-36.6,35.8C1015.5,972.9,984.3,977.7,954.8,970.5L954.8,970.5z"/>
	<path opacity="0.6" fill="#C2E8E3" enable-background="new    " d="M1096.2,859.5c0,9-1,17.9-3.1,26.7c-3,12.5-8,24.3-15,35.1
		c-9.4,14.5-21.9,26.8-36.6,35.8c-37.5,22.9-84.8,22.2-121.6-1.7c-14.5-9.4-26.6-21.9-35.6-36.6c-22.7-37.5-22-84.7,1.8-121.4
		c9.3-14.4,21.8-26.5,36.4-35.4c17.9-10.9,38.5-16.7,59.6-16.7c53.7,0,100.1,37.4,111.6,89.9l0,0
		C1095.3,843.2,1096.2,851.3,1096.2,859.5z"/>
	<path opacity="0.8" fill="#DC624F" enable-background="new    " d="M1096.2,859.5c0,9-1,17.9-3.1,26.7c-16.3-3.2-31.9-8.7-41-17.8
		c-36.3-36.5-70.2-9.1-70.2-9.1c31.1-49.2,77.1,3.8,111.8-24.1C1095.3,843.2,1096.2,851.3,1096.2,859.5z"/>
	<path opacity="0.8" fill="#DC624F" enable-background="new    " d="M1078.1,921.3c-9.4,14.5-21.9,26.8-36.6,35.8
		c-9.3-13.8-16.5-28.8-16.4-41.7c0.2-51.5-43.2-56.1-43.2-56.1C1038.7,846.5,1033.6,916.7,1078.1,921.3z"/>
	<path opacity="0.8" fill="#DC624F" enable-background="new    " d="M1006,971.2c-16.9,3.6-34.4,3.4-51.2-0.7
		c3.2-16.3,8.7-31.9,17.9-41c36.5-36.3,9.1-70.2,9.1-70.2C1031,890.5,977.8,936.5,1006,971.2z"/>
	<path opacity="0.8" fill="#DC624F" enable-background="new    " d="M919.8,955.4c-14.5-9.4-26.6-21.9-35.6-36.6
		c13.8-9.2,28.6-16.3,41.5-16.3c51.5,0.2,56-43.2,56-43.2C994.6,916.1,924.5,911.1,919.8,955.4z"/>
	<path opacity="0.8" fill="#DC624F" enable-background="new    " d="M981.8,859.3c-31.1,49.1-76.9-3.7-111.6,24
		c-3.5-16.8-3.3-34.2,0.8-50.8c16.2,3.2,31.6,8.7,40.6,17.8C947.9,886.8,981.8,859.3,981.8,859.3z"/>
	<path opacity="0.8" fill="#DC624F" enable-background="new    " d="M981.8,859.3c-56.6,12.7-51.8-56.8-95.7-61.9
		c9.3-14.4,21.7-26.5,36.3-35.4c9.1,13.7,16.1,28.4,16.1,41.2C938.4,854.8,981.8,859.3,981.8,859.3z"/>
	<path opacity="0.8" fill="#DC624F" enable-background="new    " d="M990.8,789.1c-36.5,36.3-9.1,70.2-9.1,70.2
		c-49-31,3.5-76.8-23.9-111.5c16.7-3.6,34.1-3.4,50.7,0.6C1005.4,764.6,1000,780,990.8,789.1z"/>
	<path opacity="0.8" fill="#DC624F" enable-background="new    " d="M1079.3,799.8c-13.8,9.2-28.6,16.3-41.5,16.3
		c-51.5-0.2-56.1,43.2-56.1,43.2c-12.8-56.7,57-51.8,61.9-95.9C1058.2,772.7,1070.3,785.1,1079.3,799.8z"/>
	<path opacity="0.2" fill="#C2E8E3" enable-background="new    " d="M1084.3,857.7c0,8.2-1,16.3-2.9,24.3
		c-2.7,11.3-7.3,22.1-13.6,31.9c-5.7,8.9-12.8,16.9-20.9,23.7c2.8-3.3,5.3-6.8,7.7-10.4c10.7-16.7,16.5-36.2,16.4-56.1
		c0-7.5-0.8-14.9-2.4-22.2l0,0c-2.5-11.4-6.9-22.2-13-32.2c-8.2-13.3-19.2-24.6-32.4-33c-38.1-24.6-87.8-21.5-122.6,7.6
		c36.7-44.1,102.2-50,146.3-13.3c17.7,14.8,30,35,35,57.6l0,0C1083.5,842.8,1084.3,850.2,1084.3,857.7z"/>
	<path fill="#F1AE44" d="M871.1,734.3c-5.4,3.2-10.4,4.8-11,3.7s3.2-4.6,8.7-7.7s10.4-4.8,11-3.7S876.6,731.2,871.1,734.3z"/>
	<path fill="#C4832D" d="M867.7,738.6l9.7-5.6l0,0l5.2,9.1c1,1.7,0.4,3.8-1.3,4.7l-3.7,2.1c-1.7,1-3.8,0.4-4.7-1.3L867.7,738.6
		L867.7,738.6z"/>
	<path fill="#D59235" d="M873.9,739.1c-5.4,3.1-10.4,4.8-11,3.7l-2.8-4.8c0.6,1.1,5.6-0.5,11-3.7s9.3-6.6,8.7-7.7l2.8,4.8
		C883.2,732.5,879.3,736,873.9,739.1z"/>
	<path fill="#F1AE44" d="M827,783.9c-3.5,5.2-7.2,8.8-8.3,8.1s0.9-5.5,4.5-10.7s7.2-8.8,8.3-8.1S830.5,778.7,827,783.9z"/>
	<path fill="#C4832D" d="M825.7,789.2l6.3-9.3l0,0l8.7,5.9c1.6,1.1,2,3.2,0.9,4.8l-2.4,3.5c-1.1,1.6-3.2,2-4.8,0.9l0,0L825.7,789.2
		L825.7,789.2z"/>
	<path fill="#D59235" d="M831.5,787c-3.5,5.2-7.2,8.8-8.3,8.1l-4.6-3.1c1.1,0.7,4.8-2.9,8.3-8.1s5.5-10,4.5-10.7l4.6,3.1
		C837,777,835.1,781.8,831.5,787z"/>
	<path fill="#F1AE44" d="M811.3,855.4c0.1,6.3-0.8,11.4-2.1,11.4s-2.4-5-2.6-11.3s0.8-11.4,2.1-11.4S811.1,849.1,811.3,855.4z"/>
	<path fill="#C4832D" d="M813.3,860.4l-0.2-11.2l0,0l10.5-0.2c1.9,0,3.5,1.5,3.5,3.4l0.1,4.3c0,1.9-1.5,3.5-3.4,3.5L813.3,860.4
		L813.3,860.4L813.3,860.4z"/>
	<path fill="#D59235" d="M816.8,855.3c0.1,6.3-0.8,11.4-2.1,11.4l-5.5,0.1c1.3,0,2.2-5.1,2.1-11.4s-1.3-11.3-2.6-11.3l5.5-0.1
		C815.5,843.9,816.6,849,816.8,855.3z"/>
</g>
</svg>
