<?xml version="1.0" encoding="utf-8"?>
<!-- Generator: Adobe Illustrator 24.2.0, SVG Export Plug-In . SVG Version: 6.00 Build 0)  -->
<svg version="1.1" id="asset" xmlns="http://www.w3.org/2000/svg" xmlns:xlink="http://www.w3.org/1999/xlink" x="0px" y="0px"
	 viewBox="0 0 2000 2000" enable-background="new 0 0 2000 2000" xml:space="preserve">
<g>
	
		<linearGradient id="SVGID_1_" gradientUnits="userSpaceOnUse" x1="869.24" y1="1079.77" x2="1122.47" y2="1079.77" gradientTransform="matrix(1 0 0 -1 0 2000)">
		<stop  offset="0" style="stop-color:#9FE4EB;stop-opacity:0.8"/>
		<stop  offset="1" style="stop-color:#70D6E0;stop-opacity:0.3"/>
	</linearGradient>
	<path fill="url(#SVGID_1_)" d="M1122.5,867.3c0,58.5-56.7,105.9-126.6,105.9s-126.6-47.4-126.6-105.9H1122.5z"/>
	<path fill="#F4B246" d="M995.8,981.1c-75,0-136.1-51.1-136.1-113.8v-8H1132v8C1132,930,1070.9,981.1,995.8,981.1z M879.1,875.2
		c4.8,50.3,55.3,90,116.7,90s111.9-39.7,116.7-90H879.1z"/>
	
		<linearGradient id="SVGID_2_" gradientUnits="userSpaceOnUse" x1="1180.77" y1="1079.77" x2="1434" y2="1079.77" gradientTransform="matrix(1 0 0 -1 0 2000)">
		<stop  offset="0" style="stop-color:#9FE4EB;stop-opacity:0.8"/>
		<stop  offset="1" style="stop-color:#70D6E0;stop-opacity:0.3"/>
	</linearGradient>
	<path fill="url(#SVGID_2_)" d="M1434,867.3c0,58.5-56.7,105.9-126.6,105.9s-126.6-47.4-126.6-105.9H1434z"/>
	<path fill="#F4B246" d="M1307.3,981.1c-75,0-136.1-51.1-136.1-113.8v-8h272.2v8C1443.4,930,1382.4,981.1,1307.3,981.1z
		 M1190.6,875.2c4.8,50.3,55.3,90,116.7,90s111.9-39.7,116.7-90H1190.6z"/>
	<path fill="#F4B246" d="M1126.2,892l-11.1-12.9c14.7-8.9,49.2-20.1,74.3,0.8l-13.4,11.2c-8.3-7-18.6-8.9-31.6-6.1
		C1138,886.5,1131.8,888.9,1126.2,892z"/>
	<path fill="#33312D" d="M1380,1028.6c-17.7,11.2-40.8,10.5-55.5-4.4c-0.1,9.1-10,7.7-19,6.2c-11.8-1.9-23.7-3.5-33.2-10.8
		c-15.4,5.9-32,1.8-47.8-2.7c-6-1.7-2.8-0.7-6-1.7c-3.1-0.9-6.3-1-9.5-1.5c-15.9-2.6-43.8-8-50.3-7.9c-6.5-0.1-34.4,5.3-50.3,7.9
		c-3.2,0.5-6.4,0.6-9.5,1.5c-3.2,1,0,0-6,1.7c-15.8,4.5-32.5,8.6-47.8,2.7c-9.6,7.2-21.4,8.8-33.2,10.8c-9,1.4-18.9,2.8-19-6.2
		c-14.7,14.9-37.8,15.7-55.5,4.4c21.5-113.3,204.7-92.3,216.3-92.1l5.1-0.1l5.1,0.1C1175.2,936.3,1358.4,915.3,1380,1028.6z"/>
</g>
</svg>
