<?xml version="1.0" encoding="utf-8"?>
<!-- Generator: Adobe Illustrator 24.2.0, SVG Export Plug-In . SVG Version: 6.00 Build 0)  -->
<svg version="1.1" id="asset" xmlns="http://www.w3.org/2000/svg" xmlns:xlink="http://www.w3.org/1999/xlink" x="0px" y="0px"
	 viewBox="0 0 2000 2000" enable-background="new 0 0 2000 2000" xml:space="preserve">
<g id="green-ski-goggles">
	
		<linearGradient id="SVGID_1_" gradientUnits="userSpaceOnUse" x1="793.6901" y1="1183.9022" x2="1442.2703" y2="1183.9022" gradientTransform="matrix(1 0 0 -1 0 2000)">
		<stop  offset="0" style="stop-color:#0B7891;stop-opacity:0.8"/>
		<stop  offset="1" style="stop-color:#D27767;stop-opacity:0.8"/>
	</linearGradient>
	<path fill="url(#SVGID_1_)" d="M1315.8,980.9c-10.4,0-20.7-0.6-31-1.9c-15.9-2.2-30.9-8.6-43.5-18.6c-24.8-19.6-40-31.8-45.2-36.3
		c-8.5-7.4-17.5-11.1-26.6-11.1c-7.5,0-15,2.4-22.8,7.4l-0.2,0.1l-0.2,0.1c-3.2,2.2-5.9,4.3-8.8,6.5c-1.1,0.8-2.2,1.7-3.3,2.5
		c-3.9,2.9-7.5,6.1-11.4,9.5c-14.3,12.4-30.6,26.5-65.2,35.3c-22.9,5.8-57.7,6.6-88.8,6.6c-69.4,0-116.3-17.8-143.3-54.5
		c-22-29.9-31.8-71.8-31.8-135.9c0-26.9,10.1-49.3,30.9-68.7c18.4-17.2,45.2-31.5,79.6-42.6c65.4-21.1,144.9-26.7,200.2-27.6
		c5.8-0.1,11.7-0.2,17.5-0.2c22.4,0,38.6,0.7,46.3,1.1c62.6,3.3,118.8,12.7,162.6,27c74,24.2,111.5,61.5,111.5,111
		c0,56.4-5.7,96.2-18,125.3c-14.6,34.6-39.3,54.9-75.3,62.1C1338,980,1326.9,981,1315.8,980.9z"/>
	<path fill="#C5D43B" d="M1121.8,660.8c22.2,0,38.2,0.7,45.8,1.1c61.8,3.3,117.2,12.5,160.1,26.5c32.7,10.7,58.3,24.2,75.8,40
		c19.6,17.7,29.2,37.9,29.2,61.9c0,55.1-5.5,93.7-17.3,121.7c-13.5,31.9-35.2,49.9-68.4,56.5c-10.3,1.9-20.7,2.9-31.2,2.8
		c-10,0-19.9-0.6-29.8-1.8c-14.2-1.9-27.6-7.7-38.9-16.7c-30.7-24.3-41.3-33-44.9-36c-10.3-8.9-21.3-13.4-32.8-13.4
		c-9.2,0-18.6,3-27.9,8.8l-0.3,0.2l-0.3,0.2c-3.4,2.3-6.3,4.5-9.2,6.7c-1.1,0.8-2.1,1.6-3.3,2.5c-4.1,3.1-7.9,6.4-12,9.9
		c-13.5,11.7-28.8,25-61.3,33.3c-21.8,5.5-56,6.3-86.5,6.3c-35.1,0-64.5-4.8-87.6-14.2c-20.4-8.4-36.1-20.3-48-36.4
		c-10.9-14.9-18.6-33.3-23.5-56.2c-4.3-20.4-6.4-44.6-6.4-74.1c0-24.1,9.1-44.3,27.8-61.8c17.4-16.2,43-29.8,76-40.5
		c35.5-11.5,98.5-25.5,197.4-27.1C1110.1,660.9,1116,660.9,1121.8,660.8L1121.8,660.8 M1121.7,641.9c-5.6,0-11.5,0-17.7,0.2
		c-114.5,1.9-320,23.4-320,148.4c0,110.8,28.2,200,184.6,200c36.9,0,69-1.2,91.1-6.8c46.6-11.8,62.9-33.5,80-46.4
		c4.2-3.1,7.7-5.9,11.8-8.8c6.1-3.9,12-5.9,17.8-5.9c6.8,0,13.6,2.8,20.4,8.8c6.3,5.5,26,21.2,45.5,36.5
		c13.9,11.1,30.5,18.2,48.2,20.6c10.7,1.4,21.5,2,32.3,2c11.7,0.1,23.4-1,34.9-3.2c84.6-16.8,101-98.2,101-196.8
		c0-126.8-220.5-144.1-283.1-147.4C1158.6,642.5,1142.3,641.9,1121.7,641.9L1121.7,641.9z"/>
	<path fill="#9EAE2B" d="M968.7,990.4c36.9,0,80-4.4,102.2-10c-25.3,12.4-77.3,23.3-137.4,23.3c-156.4,0-184.6-92.5-184.6-207.6
		c0-144.6,255.1-155.8,355.3-154.1c-114.5,1.9-320,23.4-320,148.4C784.1,901.2,812.3,990.4,968.7,990.4z"/>
</g>
</svg>
