<?xml version="1.0" encoding="utf-8"?>
<!-- Generator: Adobe Illustrator 26.0.0, SVG Export Plug-In . SVG Version: 6.00 Build 0)  -->
<svg version="1.1" id="asset" xmlns="http://www.w3.org/2000/svg" xmlns:xlink="http://www.w3.org/1999/xlink" x="0px" y="0px"
	 viewBox="0 0 214.74 150" style="enable-background:new 0 0 214.74 150;" xml:space="preserve">
<style type="text/css">
	.st0{fill:#8A6FE8;}
	.st1{fill:url(#SVGID_1_);}
	.st2{fill:url(#SVGID_00000176726481403954927480000016449901458796379569_);}
	.st3{fill:#E3DBFF;}
	.st4{fill:#FF5311;}
	.st5{fill:url(#SVGID_00000158708747093104954380000006817175688215094207_);}
	.st6{fill:#D600AA;}
	.st7{fill:url(#SVGID_00000143577213927738211970000000193780045823129216_);}
	.st8{fill:url(#SVGID_00000018948130108891802800000002163351580576474792_);}
	.st9{fill:url(#SVGID_00000043429750522069886100000003472207763296296891_);}
	.st10{fill:url(#SVGID_00000005945133616863878510000016721686557536268448_);}
</style>
<g>
	<path class="st0" d="M135.97,98.81c-0.99,2.67-2.23,5.21-3.69,7.61c6.9,6.91,17.59,12.37,23.17,12.82l0.67-8.12
		C151.28,110.71,140.82,104.52,135.97,98.81z"/>
	<path class="st0" d="M157.65,102.07l-8.9,7.11c-0.76,0.61-1.25,1.49-1.36,2.46c-0.11,0.97,0.17,1.94,0.78,2.7
		c0.61,0.76,1.49,1.25,2.46,1.36c0.97,0.11,1.94-0.17,2.7-0.78l8.9-7.11c0.38-0.3,0.7-0.67,0.94-1.09c0.24-0.42,0.39-0.89,0.45-1.37
		s0.02-0.97-0.12-1.44c-0.13-0.47-0.36-0.9-0.66-1.28c-0.3-0.38-0.68-0.7-1.1-0.93c-0.43-0.23-0.89-0.38-1.38-0.43
		c-0.48-0.05-0.97-0.01-1.44,0.13C158.46,101.54,158.03,101.77,157.65,102.07z"/>
	
		<radialGradient id="SVGID_1_" cx="1211.394" cy="5037.8525" r="0.1186" gradientTransform="matrix(65.2535 0 0 -65.2533 -78893.2656 328855.0625)" gradientUnits="userSpaceOnUse">
		<stop  offset="0" style="stop-color:#8065E0"/>
		<stop  offset="1" style="stop-color:#512BD4"/>
	</radialGradient>
	<path class="st1" d="M153.36,123.26c1.79,0,3.53-0.62,4.91-1.76c1.39-1.14,2.33-2.72,2.68-4.48c0.35-1.76,0.08-3.58-0.77-5.16
		c-0.84-1.58-2.21-2.82-3.87-3.5c-1.65-0.69-3.5-0.78-5.21-0.26c-1.72,0.52-3.2,1.62-4.19,3.11c-1,1.49-1.44,3.28-1.27,5.06
		c0.18,1.78,0.96,3.45,2.23,4.72C149.33,122.44,151.3,123.26,153.36,123.26z"/>
	<path class="st0" d="M42.57,133.59l4.83,6.89c0.63,0.88,1.57,1.47,2.63,1.65s2.15-0.07,3.03-0.7c0.44-0.31,0.81-0.7,1.09-1.15
		c0.28-0.45,0.48-0.95,0.57-1.48c0.09-0.53,0.07-1.06-0.05-1.58c-0.12-0.52-0.34-1.01-0.65-1.45l-5.97-8.33L42.57,133.59z"/>
	<path class="st0" d="M34.25,130.98l-1.34,8.31c-0.16,1.06,0.11,2.14,0.75,3c0.64,0.86,1.59,1.44,2.65,1.6
		c1.06,0.16,2.14-0.1,3.01-0.73c0.87-0.63,1.45-1.58,1.62-2.64l1.37-8.51L34.25,130.98z"/>
	<path class="st0" d="M39.64,131.92l-1.12,8.34c-0.1,0.8,0.04,1.6,0.39,2.32c0.36,0.72,0.92,1.32,1.62,1.72
		c0.7,0.4,1.5,0.58,2.3,0.53c0.8-0.06,1.57-0.35,2.2-0.84c0.42-0.33,0.78-0.73,1.04-1.19c0.26-0.46,0.44-0.97,0.5-1.5l1.15-8.55
		L39.64,131.92z"/>
	<path class="st0" d="M32.16,128.5l-3.01,7.86c-0.36,1-0.32,2.11,0.13,3.08c0.45,0.97,1.26,1.73,2.26,2.1c1,0.38,2.11,0.34,3.09-0.1
		c0.98-0.44,1.74-1.24,2.13-2.24l3.09-8.06L32.16,128.5z"/>
	
		<linearGradient id="SVGID_00000136369456829136926550000000492796142643780513_" gradientUnits="userSpaceOnUse" x1="-513.7731" y1="10775.6074" x2="-513.7731" y2="10729.8477" gradientTransform="matrix(1 0 0 -1 564 10861.7852)">
		<stop  offset="0.25" style="stop-color:#967FE6"/>
		<stop  offset="1" style="stop-color:#8A6FE8"/>
	</linearGradient>
	<path style="fill:url(#SVGID_00000136369456829136926550000000492796142643780513_);" d="M37.75,131.94
		c-3.35-6.85-5.31-18.55,0.21-29.03c3.36-6.36,10.72-14.42,26.7-16.73l1.28,8.86c-9.71,1.41-16.64,5.57-20.06,12.05
		c-3.71,7.02-2.72,15.55-0.09,20.9L37.75,131.94z"/>
	<path class="st3" d="M156.32,117.86l-11.51-67.6l0.95-0.16l10.43,61.25l7.62-59.49l0.95,0.12L156.32,117.86z"/>
	<path class="st4" d="M146.13,55.78l3.26,3.14l-4.84,1.06L146.13,55.78z"/>
	
		<linearGradient id="SVGID_00000053543015357341942760000003665980099725592192_" gradientUnits="userSpaceOnUse" x1="-430.7021" y1="10834.208" x2="-404.6378" y2="10819.3623" gradientTransform="matrix(1 0 0 -1 564 10861.7852)">
		<stop  offset="0" style="stop-color:#FF7951"/>
		<stop  offset="1" style="stop-color:#FF2078"/>
	</linearGradient>
	<path style="fill:url(#SVGID_00000053543015357341942760000003665980099725592192_);" d="M123.3,33.54
		c2.26,10.32,17.47,24.9,23.51,23.58c5.83-1.28,13.77-20.93,11.51-31.24c-2.26-10.31-11.93-16.96-21.6-14.85
		C127.05,13.16,121.04,23.23,123.3,33.54z"/>
	<path class="st6" d="M162.83,64.55l1.78,4.16l-4.87-0.9L162.83,64.55z"/>
	<path class="st6" d="M150.4,35.19c-1.92,10.38,6.45,29.72,12.53,30.85c5.87,1.08,20.81-13.95,22.73-24.34
		c1.92-10.39-4.42-20.27-14.16-22.07C161.77,17.84,152.32,24.8,150.4,35.19z"/>
	<path class="st3" d="M155.41,48.81l-0.39,65.01h0.96l0.39-65.01L155.41,48.81z"/>
	
		<linearGradient id="SVGID_00000029765075284561893470000014216178641110589057_" gradientUnits="userSpaceOnUse" x1="-412.1733" y1="10813.4365" x2="-406.8507" y2="10809.1865" gradientTransform="matrix(1 0 0 -1 564 10861.7852)">
		<stop  offset="0" style="stop-color:#D600AA"/>
		<stop  offset="1" style="stop-color:#512BD4"/>
	</linearGradient>
	<path style="fill:url(#SVGID_00000029765075284561893470000014216178641110589057_);" d="M155.88,48.73l2.51,3.76h-4.95
		L155.88,48.73z"/>
	
		<linearGradient id="SVGID_00000036214060499980760980000009008580406785288874_" gradientUnits="userSpaceOnUse" x1="-442.6775" y1="10851.957" x2="-390.6392" y2="10827.9473" gradientTransform="matrix(1 0 0 -1 564 10861.7852)">
		<stop  offset="0" style="stop-color:#D600AA"/>
		<stop  offset="1" style="stop-color:#512BD4"/>
	</linearGradient>
	<path style="fill:url(#SVGID_00000036214060499980760980000009008580406785288874_);" d="M138.32,22.12
		c0,10.56,11.74,28.06,17.93,28.06c5.97,0,17.93-17.5,17.93-28.06S166.15,3,156.25,3C146.35,3,138.32,11.56,138.32,22.12z"/>
	<path class="st0" d="M160.98,127.85c-0.37,0.96-1.11,1.73-2.04,2.16c-0.94,0.43-2,0.48-2.97,0.13l-4.88-1.72
		c-0.49-0.18-0.94-0.45-1.32-0.8c-0.38-0.35-0.7-0.77-0.92-1.25c-0.22-0.47-0.35-0.98-0.37-1.5c-0.02-0.52,0.06-1.04,0.23-1.53
		c0.18-0.49,0.45-0.94,0.8-1.33c0.35-0.38,0.77-0.7,1.25-0.92c0.47-0.22,0.98-0.35,1.5-0.37c0.52-0.02,1.04,0.06,1.53,0.23l4.83,1.7
		c0.5,0.18,0.96,0.45,1.36,0.81c0.39,0.36,0.71,0.79,0.93,1.28c0.22,0.48,0.34,1.01,0.36,1.54
		C161.27,126.83,161.18,127.36,160.98,127.85z"/>
	<path class="st0" d="M165.6,123.58c-0.37,0.96-1.11,1.74-2.04,2.16c-0.94,0.43-2,0.48-2.97,0.13l-8.59-2.83
		c-0.49-0.18-0.94-0.45-1.33-0.8c-0.38-0.35-0.7-0.77-0.92-1.25c-0.22-0.47-0.35-0.98-0.37-1.5c-0.02-0.52,0.06-1.04,0.23-1.53
		c0.18-0.49,0.45-0.94,0.8-1.32c0.35-0.38,0.77-0.7,1.25-0.92s0.98-0.35,1.5-0.37c0.52-0.02,1.04,0.05,1.53,0.23l8.54,2.81
		C166.82,119.75,165.6,123.58,165.6,123.58z"/>
	<path class="st0" d="M164.51,116.95c-0.37,0.96-1.11,1.73-2.04,2.16c-0.94,0.43-2,0.48-2.97,0.13l-6.16-2.06
		c-0.99-0.36-1.8-1.09-2.24-2.05c-0.45-0.95-0.5-2.04-0.14-3.03c0.36-0.99,1.09-1.8,2.05-2.24c0.95-0.45,2.04-0.5,3.03-0.14
		l6.11,2.04c0.5,0.18,0.96,0.45,1.35,0.81c0.39,0.36,0.71,0.79,0.93,1.28c0.22,0.48,0.34,1.01,0.36,1.54
		C164.8,115.92,164.7,116.45,164.51,116.95z"/>
	
		<radialGradient id="SVGID_00000000202845510345465180000004276513584401049734_" cx="2340.5054" cy="3780.9841" r="4.311364e-04" gradientTransform="matrix(19464.0996 0 0 -19464.0996 -45555788 73593576)" gradientUnits="userSpaceOnUse">
		<stop  offset="0" style="stop-color:#8065E0"/>
		<stop  offset="1" style="stop-color:#512BD4"/>
	</radialGradient>
	<path style="fill:url(#SVGID_00000000202845510345465180000004276513584401049734_);" d="M40.19,136.22c1.66,0,3.28-0.49,4.66-1.42
		c1.38-0.92,2.46-2.23,3.09-3.77c0.64-1.53,0.8-3.22,0.48-4.85c-0.32-1.63-1.12-3.12-2.3-4.3c-1.17-1.17-2.67-1.97-4.3-2.3
		c-1.63-0.32-3.32-0.16-4.85,0.48c-1.53,0.64-2.84,1.71-3.77,3.09c-0.92,1.38-1.42,3-1.42,4.66c0,1.1,0.22,2.19,0.64,3.21
		c0.42,1.02,1.04,1.94,1.82,2.72c0.78,0.78,1.7,1.4,2.72,1.82C38,136,39.09,136.22,40.19,136.22z"/>
	
		<radialGradient id="SVGID_00000105395928095447067590000017929649282467214252_" cx="2340.5066" cy="3780.9861" r="4.311364e-04" gradientTransform="matrix(19464.0996 0 0 -19464.0996 -45555788 73593576)" gradientUnits="userSpaceOnUse">
		<stop  offset="0" style="stop-color:#8065E0"/>
		<stop  offset="1" style="stop-color:#512BD4"/>
	</radialGradient>
	<path style="fill:url(#SVGID_00000105395928095447067590000017929649282467214252_);" d="M67.74,97.66c1.66,0,3.28-0.49,4.66-1.42
		c1.38-0.92,2.46-2.23,3.09-3.77c0.64-1.53,0.8-3.22,0.48-4.85c-0.32-1.63-1.12-3.12-2.3-4.3c-1.17-1.17-2.67-1.97-4.3-2.3
		c-1.63-0.32-3.32-0.16-4.85,0.48c-1.53,0.64-2.84,1.71-3.77,3.09c-0.92,1.38-1.42,3-1.42,4.66c0,1.1,0.22,2.19,0.64,3.21
		c0.42,1.02,1.04,1.94,1.82,2.72c0.78,0.78,1.7,1.4,2.72,1.82C65.55,97.44,66.64,97.66,67.74,97.66z"/>
</g>
</svg>
