<?xml version="1.0" encoding="utf-8"?>
<!-- Generator: Adobe Illustrator 26.0.0, SVG Export Plug-In . SVG Version: 6.00 Build 0)  -->
<svg version="1.1" id="asset" xmlns="http://www.w3.org/2000/svg" xmlns:xlink="http://www.w3.org/1999/xlink" x="0px" y="0px"
	 viewBox="0 0 214.74 150" style="enable-background:new 0 0 214.74 150;" xml:space="preserve">
<style type="text/css">
	.st0{fill:#8A6FE8;}
	.st1{fill:url(#SVGID_1_);}
	.st2{fill:url(#SVGID_00000045577716715322230140000012594834209853191085_);}
	.st3{fill:url(#SVGID_00000023963854436422223430000015912869917006035128_);}
	.st4{fill:#FFDFEF;}
	.st5{fill:#FF4C00;}
	.st6{fill:#FFFFFF;}
	.st7{fill:#FFA600;}
	.st8{fill:#E000AA;}
	.st9{fill:url(#SVGID_00000147927964442008964390000017096804582050192540_);}
</style>
<g>
	<path class="st0" d="M171.02,84.85c-5.03,1.37-17.33-0.79-25.01-4.56c-1.01,2.87-2.28,5.63-3.76,8.24
		c10.24,5.2,24.79,7.11,31.23,5.34L171.02,84.85z"/>
	<path class="st0" d="M37.53,120.68l5.54,7.91c0.35,0.5,0.81,0.92,1.32,1.25c0.52,0.33,1.1,0.54,1.7,0.65
		c0.6,0.1,1.22,0.08,1.82-0.05c0.6-0.14,1.16-0.39,1.66-0.74c0.5-0.35,0.92-0.8,1.25-1.32c0.33-0.52,0.54-1.1,0.65-1.7
		s0.08-1.22-0.05-1.82c-0.14-0.6-0.39-1.16-0.74-1.66l-6.86-9.56L37.53,120.68z"/>
	<path class="st0" d="M27.97,117.69l-1.53,9.54c-0.18,1.22,0.13,2.46,0.86,3.45c0.73,0.99,1.83,1.65,3.04,1.84
		c1.22,0.19,2.46-0.12,3.45-0.84c0.99-0.73,1.66-1.81,1.85-3.03l1.57-9.77L27.97,117.69z"/>
	<path class="st0" d="M34.16,118.77l-1.29,9.57c-0.08,0.61-0.03,1.22,0.13,1.81c0.16,0.59,0.44,1.14,0.81,1.63
		c0.38,0.49,0.84,0.89,1.37,1.19c0.53,0.3,1.12,0.5,1.72,0.58c0.61,0.08,1.22,0.03,1.81-0.13c0.59-0.16,1.14-0.44,1.63-0.81
		c0.48-0.37,0.89-0.84,1.19-1.37c0.3-0.53,0.5-1.12,0.58-1.72l1.32-9.82L34.16,118.77z"/>
	<path class="st0" d="M25.57,114.84l-3.46,9.02c-0.42,1.15-0.37,2.43,0.15,3.54c0.51,1.11,1.45,1.98,2.6,2.41
		c1.15,0.43,2.42,0.39,3.54-0.11c1.12-0.5,2-1.42,2.44-2.57l3.55-9.25L25.57,114.84z"/>
	
		<linearGradient id="SVGID_1_" gradientUnits="userSpaceOnUse" x1="46.3137" y1="-10399.7393" x2="46.3137" y2="-10347.2168" gradientTransform="matrix(1 0 0 1 0 10466)">
		<stop  offset="0.25" style="stop-color:#967FE6"/>
		<stop  offset="1" style="stop-color:#8A6FE8"/>
	</linearGradient>
	<path class="st1" d="M32,118.78c-3.85-7.86-6.1-21.3,0.25-33.32c3.86-7.3,12.3-16.55,30.65-19.21l1.47,10.18
		c-11.14,1.61-19.1,6.4-23.03,13.83c-4.25,8.05-3.12,17.85-0.11,23.99L32,118.78z"/>
	
		<radialGradient id="SVGID_00000153683826499474640170000015358163334797096601_" cx="4663.9722" cy="-4119.916" r="9.993321e-04" gradientTransform="matrix(9504.0703 0 0 9504.0996 -44326652 39156164)" gradientUnits="userSpaceOnUse">
		<stop  offset="0" style="stop-color:#8065E0"/>
		<stop  offset="1" style="stop-color:#512BD4"/>
	</radialGradient>
	<path style="fill:url(#SVGID_00000153683826499474640170000015358163334797096601_);" d="M66.42,79.3c1.88,0,3.72-0.56,5.28-1.6
		c1.56-1.04,2.78-2.53,3.5-4.26c0.72-1.74,0.91-3.65,0.54-5.49c-0.37-1.84-1.27-3.54-2.6-4.86c-1.33-1.33-3.02-2.23-4.86-2.6
		c-1.84-0.37-3.75-0.18-5.49,0.54c-1.74,0.72-3.22,1.94-4.26,3.5c-1.04,1.56-1.6,3.4-1.6,5.28c0,1.25,0.25,2.48,0.72,3.64
		c0.48,1.15,1.18,2.2,2.06,3.08c0.88,0.88,1.93,1.58,3.08,2.06C63.94,79.06,65.18,79.3,66.42,79.3L66.42,79.3z"/>
	
		<radialGradient id="SVGID_00000152973895438877489650000002869438630361881263_" cx="4686.2769" cy="-4084.0688" r="5.013755e-04" gradientTransform="matrix(19464.0996 0 0 19464.0996 -91214120 79492832)" gradientUnits="userSpaceOnUse">
		<stop  offset="0" style="stop-color:#8065E0"/>
		<stop  offset="1" style="stop-color:#512BD4"/>
	</radialGradient>
	<path style="fill:url(#SVGID_00000152973895438877489650000002869438630361881263_);" d="M34.66,123.87c1.93,0,3.82-0.57,5.42-1.65
		c1.61-1.07,2.86-2.6,3.59-4.38c0.74-1.78,0.93-3.75,0.56-5.64c-0.38-1.89-1.31-3.63-2.67-5c-1.37-1.37-3.1-2.29-5-2.67
		c-1.89-0.38-3.86-0.18-5.64,0.56c-1.78,0.74-3.31,1.99-4.38,3.59c-1.07,1.61-1.65,3.49-1.65,5.42c0,1.28,0.25,2.55,0.74,3.73
		c0.49,1.18,1.21,2.26,2.12,3.17c0.91,0.91,1.98,1.62,3.17,2.12C32.11,123.62,33.38,123.87,34.66,123.87z"/>
	<path class="st0" d="M169.13,74.5l-6.82,11.16c-0.58,0.96-0.77,2.1-0.5,3.19c0.26,1.09,0.95,2.03,1.9,2.61
		c0.95,0.58,2.1,0.77,3.19,0.5c1.09-0.26,2.03-0.95,2.61-1.9l6.81-11.16c0.3-0.47,0.49-1,0.59-1.55c0.09-0.55,0.07-1.11-0.06-1.66
		c-0.13-0.54-0.36-1.05-0.69-1.51c-0.33-0.45-0.74-0.83-1.22-1.13c-0.48-0.29-1.01-0.49-1.56-0.57c-0.55-0.09-1.12-0.06-1.66,0.07
		c-0.54,0.13-1.05,0.37-1.5,0.7C169.8,73.61,169.42,74.03,169.13,74.5L169.13,74.5z"/>
	<circle class="st4" cx="173.91" cy="49.34" r="19"/>
	<polygon class="st4" points="176.74,113.92 172.98,113.97 172.24,65.75 176.01,65.7 	"/>
	<path class="st5" d="M174.86,42.74l-0.48,0.01c-0.68,0.01-1.25-0.54-1.26-1.22l-0.06-4.37c-0.01-0.68,0.54-1.25,1.22-1.26
		l0.48-0.01c0.68-0.01,1.25,0.54,1.26,1.22l0.06,4.37C176.1,42.17,175.55,42.73,174.86,42.74z"/>
	<path class="st6" d="M170.06,39.88l-0.33,0.34c-0.48,0.49-1.26,0.5-1.75,0.02l-3.13-3.05c-0.49-0.48-0.5-1.26-0.02-1.75l0.33-0.34
		c0.48-0.49,1.26-0.5,1.75-0.02l3.13,3.05C170.53,38.61,170.54,39.39,170.06,39.88z"/>
	<path class="st7" d="M171,43.35l0.13,0.46c0.18,0.66-0.21,1.34-0.86,1.53l-4.21,1.16c-0.66,0.18-1.34-0.21-1.53-0.86l-0.13-0.46
		c-0.18-0.66,0.21-1.34,0.86-1.53l4.21-1.16C170.14,42.3,170.82,42.69,171,43.35z"/>
	<path class="st8" d="M169.46,48.72l0.41,0.23c0.6,0.34,0.8,1.09,0.47,1.69l-2.16,3.8c-0.34,0.6-1.09,0.8-1.69,0.47l-0.41-0.23
		c-0.6-0.34-0.8-1.09-0.47-1.69l2.16-3.8C168.11,48.59,168.86,48.38,169.46,48.72z"/>
	<path class="st6" d="M179.85,37.51l0.29-0.38c0.41-0.55,1.19-0.65,1.74-0.24l3.49,2.64c0.55,0.41,0.65,1.19,0.24,1.74l-0.29,0.38
		c-0.41,0.55-1.19,0.65-1.74,0.24l-3.49-2.64C179.54,38.83,179.43,38.05,179.85,37.51z"/>
	<path class="st6" d="M184.84,50.25l-0.06-0.47c-0.09-0.68,0.38-1.3,1.06-1.4l4.33-0.6c0.68-0.09,1.3,0.38,1.4,1.06l0.06,0.47
		c0.09,0.68-0.38,1.3-1.06,1.4l-4.33,0.6C185.56,51.4,184.93,50.93,184.84,50.25z"/>
	<path class="st7" d="M179.94,51.04l-0.44-0.18c-0.63-0.26-0.93-0.99-0.67-1.62l1.67-4.04c0.26-0.63,0.99-0.93,1.62-0.67l0.44,0.18
		c0.63,0.26,0.93,0.99,0.67,1.62l-1.67,4.04C181.3,51,180.58,51.3,179.94,51.04z"/>
	<path class="st8" d="M176.87,52.56l-0.44,0.18c-0.63,0.26-1.36-0.04-1.62-0.67l-1.68-4.04c-0.26-0.63,0.04-1.36,0.67-1.62
		l0.44-0.18c0.63-0.26,1.36,0.04,1.62,0.67l1.68,4.04C177.8,51.58,177.5,52.3,176.87,52.56z"/>
	<path class="st5" d="M173.46,60.9l0.17,0.45c0.24,0.64-0.08,1.36-0.72,1.6l-4.09,1.54c-0.64,0.24-1.36-0.08-1.6-0.72l-0.17-0.45
		c-0.24-0.64,0.08-1.36,0.72-1.6l4.09-1.54C172.5,59.93,173.22,60.26,173.46,60.9z"/>
	<path class="st6" d="M172.28,55.9l0.2-0.43c0.29-0.62,1.02-0.89,1.64-0.61l3.97,1.82c0.62,0.29,0.89,1.02,0.61,1.64l-0.2,0.43
		c-0.29,0.62-1.02,0.89-1.64,0.61l-3.97-1.82C172.26,57.25,171.99,56.52,172.28,55.9z"/>
	<path class="st5" d="M182.73,54.38l0.42-0.21c0.61-0.31,1.36-0.06,1.66,0.55l1.96,3.91c0.31,0.61,0.06,1.36-0.55,1.66l-0.42,0.21
		c-0.61,0.31-1.36,0.06-1.66-0.55l-1.97-3.91C181.87,55.43,182.12,54.69,182.73,54.38z"/>
	<path class="st7" d="M159.75,53.06l0.42-0.21c0.61-0.31,1.36-0.06,1.66,0.55l1.96,3.91c0.31,0.61,0.06,1.36-0.55,1.66l-0.42,0.21
		c-0.61,0.31-1.36,0.06-1.66-0.55l-1.97-3.91C158.89,54.11,159.14,53.37,159.75,53.06z"/>
	<path class="st8" d="M160.89,41.24l0.4,0.26c0.57,0.38,0.73,1.15,0.35,1.72l-2.42,3.64c-0.38,0.57-1.15,0.73-1.72,0.35l-0.4-0.26
		c-0.57-0.38-0.73-1.15-0.35-1.72l2.42-3.64C159.55,41.01,160.32,40.86,160.89,41.24z"/>
	
		<radialGradient id="SVGID_00000005241092998725395910000010296838346850010811_" cx="4224.7847" cy="-5208.8091" r="0.1379" gradientTransform="matrix(60.5612 -21.9975 21.9976 60.5616 -141106.0781 408480.0938)" gradientUnits="userSpaceOnUse">
		<stop  offset="0" style="stop-color:#8065E0"/>
		<stop  offset="1" style="stop-color:#512BD4"/>
	</radialGradient>
	<path style="fill:url(#SVGID_00000005241092998725395910000010296838346850010811_);" d="M172.8,99.04
		c1.65-0.6,3.09-1.68,4.13-3.09s1.64-3.11,1.71-4.86c0.08-1.76-0.37-3.49-1.28-5c-0.91-1.5-2.25-2.7-3.84-3.45s-3.37-1-5.11-0.73
		c-1.74,0.27-3.36,1.04-4.65,2.23c-1.3,1.19-2.21,2.73-2.63,4.44c-0.42,1.71-0.32,3.5,0.28,5.15c0.81,2.21,2.46,4.02,4.59,5.02
		C168.14,99.74,170.58,99.85,172.8,99.04z"/>
	<path class="st0" d="M182.83,101.01c-0.03,1.18-0.51,2.31-1.36,3.13s-1.97,1.3-3.15,1.31l-5.94,0.06c-1.21,0-2.37-0.48-3.22-1.33
		c-0.85-0.85-1.34-2.01-1.34-3.22c0-1.21,0.48-2.37,1.33-3.22c0.85-0.85,2.01-1.34,3.22-1.34l5.87-0.06
		c0.61-0.01,1.22,0.11,1.78,0.34c0.56,0.23,1.08,0.58,1.5,1.01c0.43,0.43,0.77,0.95,0.99,1.52
		C182.73,99.79,182.84,100.4,182.83,101.01L182.83,101.01z"/>
	<path class="st0" d="M186.13,94.6c-0.03,1.18-0.52,2.31-1.36,3.14c-0.84,0.83-1.97,1.3-3.16,1.31l-10.38,0.32
		c-0.6,0-1.19-0.12-1.74-0.34c-0.55-0.23-1.06-0.56-1.48-0.98c-0.42-0.42-0.76-0.92-0.99-1.48c-0.23-0.55-0.35-1.14-0.35-1.74
		c0-0.6,0.12-1.19,0.34-1.74c0.23-0.55,0.56-1.05,0.98-1.48s0.92-0.76,1.48-0.99c0.55-0.23,1.14-0.35,1.74-0.35l10.31-0.31
		C185.95,89.98,186.13,94.6,186.13,94.6z"/>
	<path class="st0" d="M182.36,87.87c-0.03,1.18-0.51,2.31-1.36,3.13c-0.84,0.83-1.97,1.3-3.15,1.31l-7.46,0.19
		c-0.6,0-1.19-0.12-1.74-0.34c-0.55-0.23-1.05-0.56-1.48-0.98c-0.42-0.42-0.76-0.92-0.99-1.48c-0.23-0.55-0.35-1.14-0.35-1.74
		c0-0.6,0.12-1.19,0.34-1.74c0.23-0.55,0.56-1.05,0.99-1.48c0.42-0.42,0.92-0.76,1.48-0.99c0.55-0.23,1.14-0.35,1.74-0.35l7.39-0.19
		c0.61-0.01,1.21,0.11,1.78,0.34c0.56,0.23,1.08,0.58,1.5,1.01c0.43,0.43,0.77,0.95,0.99,1.52
		C182.27,86.65,182.38,87.26,182.36,87.87L182.36,87.87z"/>
</g>
</svg>
