<svg xmlns="http://www.w3.org/2000/svg" xmlns:xlink="http://www.w3.org/1999/xlink" viewBox="0 0 1197.36 574.23"><defs><radialGradient id="radial-gradient" cx="-1771.4" cy="-1544.38" r="1.43" gradientTransform="translate(80979.64 69979.68) scale(45.12)" gradientUnits="userSpaceOnUse"><stop offset="0" stop-color="#8065e0"/><stop offset="1" stop-color="#512bd4"/></radialGradient><linearGradient id="linear-gradient" x1="-508.81" y1="-1982.65" x2="-508.81" y2="-1601.42" gradientTransform="translate(694 2026)" gradientUnits="userSpaceOnUse"><stop offset="0.25" stop-color="#967fe6"/><stop offset="1" stop-color="#8a6fe8"/></linearGradient><radialGradient id="radial-gradient-2" cx="-1777.78" cy="-1544.72" r="1.43" gradientTransform="translate(86180.17 74642.62) scale(48.29)" xlink:href="#radial-gradient"/><radialGradient id="radial-gradient-3" cx="-1789.96" cy="-1534.86" r="1.43" gradientTransform="translate(172456.28 148134.11) scale(96.29)" xlink:href="#radial-gradient"/></defs><g id="Layer_2" data-name="Layer 2"><g id="asset"><path d="M1067.41,251l-5.56,67.69c-44.85-3.65-129.57-46.23-187.08-101a375.12,375.12,0,0,0,31-62.25C948.24,201,1029,247.85,1067.41,251Z" fill="#8a6fe8"/><path d="M1023.81,348.85s30.81,45,36.53,53.57c4.92,7.34,84.74-5.07,117.62-15.29,2.41-.75,2.65-4.63.28-4.6l-82.89-3.59a26.9,26.9,0,0,1-21.66-9.9l-30.45-37.25Z" fill="#8a6fe8"/><path d="M1086.8,239.44s54.4,4,64.67,4.7c8.83.56,38.17,75.82,45.83,109.4.56,2.46-2.67,4.61-3.83,2.55l-44.72-69.86a26.92,26.92,0,0,0-19.44-13.76l-47.53-7.67Z" fill="#8a6fe8"/><path d="M1058,306.12l41.88,39.62a19.35,19.35,0,0,0,8.12,4.6l78.15,21.87c2.41.68,4.42-2.81,2.61-4.56l-58-56.15a19.3,19.3,0,0,0-8.55-4.82l-56-14.79Z" fill="#8a6fe8"/><path d="M1044.39,352.28a64.51,64.51,0,1,0-64.5-64.52v0A64.51,64.51,0,0,0,1044.39,352.28Z" fill="url(#radial-gradient)"/><path d="M31.24,405s-26,54-31,64.12c-4.3,8.71,51.25,77.87,79,103.56,2,1.88,5.85,0,4.52-2.25l-42-80.85a29.53,29.53,0,0,1-2.44-26l18.74-49.42Z" fill="#8a6fe8"/><path d="M169.84,405s26,54,31,64.12c4.3,8.71-51.24,77.87-79,103.56-2,1.88-5.85,0-4.52-2.25l42-80.85a29.63,29.63,0,0,0,2.45-26L143,414.11Z" fill="#8a6fe8"/><path d="M90.59,414.06,75.83,475.63a21.16,21.16,0,0,0,.07,10.25l22,86.35c.69,2.67,5.11,2.67,5.78,0l21.63-86a21.44,21.44,0,0,0-.1-10.79l-16.59-61.36Z" fill="#8a6fe8"/><path d="M81.24,424.58C53.31,367.58,37,270,83,182.77c28-53,89.27-120.15,222.47-139.42l10.74,73.88c-80.87,11.71-138.64,46.44-167.16,100.41-30.87,58.46-22.61,129.55-.77,174.2Z" fill="url(#linear-gradient)"/><path d="M331.16,138a69,69,0,1,0-69-69,69,69,0,0,0,69,69Z" fill="url(#radial-gradient-2)"/><path d="M100.6,461.52a70.84,70.84,0,1,0-70.83-70.85v0A70.83,70.83,0,0,0,100.6,461.52Z" fill="url(#radial-gradient-3)"/></g></g></svg>