<svg xmlns="http://www.w3.org/2000/svg" viewBox="0 0 1334.13 531.49"><g id="Layer_2" data-name="Layer 2"><g id="Layer_1-2" data-name="Layer 1"><g id="asset"><path d="M114,437.89l40.18,57.34a33.81,33.81,0,1,0,55.1-39.2l-49.73-69.3Z" fill="#dc624f"/><path d="M44.65,416.19,33.53,485.35a33.79,33.79,0,1,0,66.8,10.23l11.38-70.88Z" fill="#dc624f"/><path d="M89.52,424l-9.34,69.42A33.8,33.8,0,0,0,147.24,502l9.6-71.2Z" fill="#dc624f"/><path d="M27.26,395.52,2.17,460.91a33.8,33.8,0,0,0,63.3,23.75L91.2,417.6Z" fill="#dc624f"/><path d="M73.83,424.12c-27.91-57-44.21-154.45,1.78-241.6,28-52.92,89.19-120,222.28-139.29L308.58,117c-80.8,11.7-138.52,46.39-167,100.32-30.84,58.41-22.59,129.43-.78,174Z" fill="#8b9b23"/><path d="M323.5,137.8a68.9,68.9,0,1,0-68.9-68.9A68.89,68.89,0,0,0,323.5,137.8Z" fill="#dc624f"/><path d="M93.14,461a70.77,70.77,0,1,0-70.77-70.77A70.76,70.76,0,0,0,93.14,461Z" fill="#cc5444"/><path d="M70.22,193.41a248.3,248.3,0,0,0-18.13,55.18L124.22,269a173.84,173.84,0,0,1,17.35-51.64c.58-1.1,1.19-2.18,1.8-3.26Z" fill="#4adafa"/><path d="M174.66,174.39a194.62,194.62,0,0,1,49.14-32.85L168.92,86.1a257,257,0,0,0-46.83,35.18Z" fill="#4adafa"/><path d="M897.56,155.21a375.12,375.12,0,0,1-30.93,62.2c57.46,54.73,142.1,97.29,186.92,100.93l5.55-67.64C1020.74,247.55,940,200.72,897.56,155.21Z" fill="#8b9b23"/><path d="M890.27,238.08a463.34,463.34,0,0,0,47.45,33.44l37.18-55.65a435.09,435.09,0,0,1-47.56-33.27Z" fill="#4adafa"/><path d="M1104.65,179.6l-83.6,44.8a30.61,30.61,0,1,0,28.87,54l83.6-44.8a30.61,30.61,0,0,0-28.87-54Z" fill="#cc5444"/><path d="M1036.5,352.75a64.44,64.44,0,1,0-64.44-64.44A64.45,64.45,0,0,0,1036.5,352.75Z" fill="#cc5444"/><path d="M923.9,442.46a12,12,0,0,1-8.33-20.64l377.3-363.91a12,12,0,1,1,16.66,17.28L932.23,439.1A12,12,0,0,1,923.9,442.46Z" fill="#56534f"/><circle cx="1302.32" cy="67.11" r="31.81" fill="#8b9b23"/><circle cx="925.02" cy="432.13" r="31.81" fill="#8b9b23"/><path d="M1134.52,262.17l-56.21-12.87a30.61,30.61,0,0,0-14.1,59.58l56.21,12.87a30.61,30.61,0,0,0,14.1-59.58Z" fill="#dc624f"/><path d="M1112.67,296.34l-56.45-11.78a30.61,30.61,0,1,0-12.94,59.84l56.45,11.78a30.61,30.61,0,0,0,12.94-59.84Z" fill="#dc624f"/><path d="M1076.39,322.57l-56.45-11.78A30.61,30.61,0,1,0,1007,370.63l56.45,11.78a30.61,30.61,0,0,0,12.94-59.84Z" fill="#dc624f"/></g></g></g></svg>