<svg xmlns="http://www.w3.org/2000/svg" xmlns:xlink="http://www.w3.org/1999/xlink" viewBox="0 0 1568.73 905.42"><defs><linearGradient id="linear-gradient" x1="238.17" y1="320.98" x2="238.17" y2="-63.63" gradientTransform="matrix(0.99, 0.17, 0.17, -0.99, 94.4, 366.83)" gradientUnits="userSpaceOnUse"><stop offset="0.33" stop-color="#9780e6"/><stop offset="0.85" stop-color="#8a6fe8"/></linearGradient><radialGradient id="radial-gradient" cx="519.35" cy="400.39" r="69.62" gradientTransform="matrix(1, 0, 0, -1, 0, 524.31)" gradientUnits="userSpaceOnUse"><stop offset="0" stop-color="#8065e0"/><stop offset="1" stop-color="#512bd4"/></radialGradient></defs><g id="Layer_2" data-name="Layer 2"><g id="Layer_1-2" data-name="Layer 1"><g id="asset"><path d="M1082.52,258.81a376,376,0,0,1-37.87,61.57c76,43.44,154.31,52.32,159.12,52.83l11.51-69.94C1214.3,303.16,1146.13,295.45,1082.52,258.81Z" fill="#8a6fe8"/><path d="M1343.2,210.65a34.26,34.26,0,0,0-48.46.42l-82.89,85.29-.54.29-28.93,87.22c35.16,11.22,89.6,17.27,89.6,17.27l35.7-106,36-36.05A34.27,34.27,0,0,0,1343.2,210.65Z" fill="#fac369"/><rect x="1467.03" y="89.6" width="61.12" height="41.02" transform="translate(773.42 1425.59) rotate(-65.37)" fill="#625f5b"/><path d="M1219.28,571.86,1194,560.25a21.25,21.25,0,0,1-10.46-28.16L1374.77,112a21.25,21.25,0,0,1,28.16-10.46l25.32,11.61a21.25,21.25,0,0,1,10.46,28.16L1247.44,561.4A21.25,21.25,0,0,1,1219.28,571.86Z" fill="#625f5b"/><path d="M1525.17,177.6l-36.46-16.71a5.9,5.9,0,0,1-2.9-7.82L1521,76.28a5.9,5.9,0,0,1,7.82-2.9l36.46,16.71a5.9,5.9,0,0,1,2.9,7.82L1533,174.7A5.9,5.9,0,0,1,1525.17,177.6Z" fill="#908d89"/><path d="M1387.94,6.93c-52-23.86-112.45,20.45-128.9,33.82a5.9,5.9,0,0,0-1,8.1h0a5.89,5.89,0,0,0,7.25,1.8c11-5.25,40.83-17.69,59.76-9,19.38,8.88,22.28,38.8,22.7,49.2a5.91,5.91,0,0,0,3.44,5.15l112.27,51.47a5.9,5.9,0,0,0,7.82-2.9l35.2-76.79a5.9,5.9,0,0,0-2.9-7.82Z" fill="#908d89"/><path d="M1222,287.66,1200.12,395a7.49,7.49,0,0,1-8.84,5.84l-46.35-9.46a7.49,7.49,0,0,1-5.84-8.84L1161,275.2a7.49,7.49,0,0,1,8.84-5.84l46.35,9.46A7.5,7.5,0,0,1,1222,287.66Z" fill="#e29e3b"/><path d="M1406.21,315.9h0a34.09,34.09,0,0,0-33-35.13l-30-.93a34.09,34.09,0,0,0-35.13,33h0a34,34,0,0,0,3.17,15.44,34.11,34.11,0,0,0-26.56,32.19h0a33.87,33.87,0,0,0,4.29,17.64,34.1,34.1,0,0,0-28.21,32.52h0a34.09,34.09,0,0,0,33,35.13l30,.93a34.09,34.09,0,0,0,35.13-33h0a33.87,33.87,0,0,0-4.29-17.64,34.1,34.1,0,0,0,28.21-32.52h0a34,34,0,0,0-3.17-15.44A34.08,34.08,0,0,0,1406.21,315.9Z" fill="#fac369"/><path d="M1379.15,300.21l-67.51-1.52a34,34,0,0,0-1,28.34l67.83,1.53a14.18,14.18,0,1,0,.63-28.35Z" fill="#f1ae44"/><path d="M1358.42,348.46,1288,346.87a34,34,0,0,0-.44,28.34l70.25,1.59a14.17,14.17,0,0,0,.64-28.34Z" fill="#f1ae44"/><path d="M1345.89,412.25A14.17,14.17,0,0,0,1332,397.76l-67.59-1.53a34.13,34.13,0,0,0-1.19,28.33l68.14,1.54A14.17,14.17,0,0,0,1345.89,412.25Z" fill="#f1ae44"/><path d="M293.07,403.64c-1.77,46.07,26,59.59,39.94,95.69,19.35,50,7.68,71.15,7.68,71.15s-10.45,3.2-40.57-3.89-46-40.67-47.8-72.57-8.86-100.12-8.86-100.12Z" fill="#fac369"/><path d="M215.29,452.51C197.42,391,198.15,291.18,259,212.49c37-47.77,109.53-103.9,245.26-100l-2.85,73.14c-82.39-2.39-145.4,22.71-183.08,71.4-40.8,52.72-47.44,124.88-33.47,173Z" fill="url(#linear-gradient)"/><circle cx="521.64" cy="147.92" r="69.61" fill="url(#radial-gradient)"/><path d="M155.17,617.77V598.21c0-13.3,10.37-24.1,23.15-24.1h136.8c12.77,0,23.15,10.8,23.15,24.1v19.56h17.9V598.21c0-23.57-18.4-42.74-41-42.74H178.33c-22.64,0-41,19.16-41,42.74v19.56Z" fill="#605d5a"/><path d="M476.47,617.77H36.11c-20,0-36.11,16.85-36.11,37.6V867.81c0,20.81,16.19,37.61,36.11,37.61H476.47c20,0,36.11-16.86,36.11-37.61V655.37C512.58,634.62,496.39,617.77,476.47,617.77Z" fill="#e86e58"/><path d="M478.49,617.77h-114V905.42h114c18.85,0,34.09-15.87,34.09-35.5V653.2C512.58,633.71,497.34,617.77,478.49,617.77Z" fill="#ed9583"/><path d="M513.15,684H0v6.19H513.15Z" fill="#605d5a"/><path d="M59.64,707.92h-18A6.77,6.77,0,0,1,35,701V664.6a6.77,6.77,0,0,1,6.64-6.91h18a6.77,6.77,0,0,1,6.64,6.91V701A6.77,6.77,0,0,1,59.64,707.92Z" fill="#fff"/><path d="M322,707.92H304a6.77,6.77,0,0,1-6.64-6.91V664.6a6.77,6.77,0,0,1,6.64-6.91h18a6.77,6.77,0,0,1,6.64,6.91V701A6.77,6.77,0,0,1,322,707.92Z" fill="#fff"/><path d="M17,743V875.65H345.87V743Zm322.85,6.19v56.18H23V749.15ZM23,869.46V811.57H339.86v57.89Z" fill="#605d5a"/><path d="M323.42,767.72H18.84l12-18.24H335.37Z" fill="#fff"/><path d="M323.42,830.08H18.84l12-18.18H335.37Z" fill="#fff"/><path d="M191.39,409.58c-15.95,23-31.57,71.16-36.33,112-4,34.31,9.17,70.62,23.34,79.48s37.79.56,37.79.56,7.78,15.56,22.06,15.71c17.25.17,32.41-19,32.41-19s12.23,16.67,25.39,12.37c20.67-6.76,28-35.16,28-35.16s-14.45-1.67-17.57-16.32c-3.84-18-11.51-161.08-11.51-161.08Z" fill="#fac369"/><path d="M189,519.34c2.22-17.78-13.34-17.51-20-5-6,11.21-8.8,40.32,2.1,79.55A28.75,28.75,0,0,0,178.4,601c6.65,4.15,15.37,4.53,22.76,3.77C191.9,580.56,185.87,544.11,189,519.34Z" fill="#f1ae44"/><path d="M296.06,610.63a33.56,33.56,0,0,0,10.11-5.41c-12.85-21.29-22-56-23.45-78.24-1.67-25.84-22.23-25.29-27.23-6.11-4.15,15.89,2.22,48.77,17.33,80C276.89,605.34,286.21,613.85,296.06,610.63Z" fill="#f1ae44"/><path d="M208.75,520.38c-4.54,19.46-5,46.49,7.15,78l.69-.23s7.65,15.3,21.68,15.44a29.7,29.7,0,0,0,14.08-3.83c-15.48-26.84-20.52-71.62-16.93-91C239.59,496.21,214.58,495.37,208.75,520.38Z" fill="#f1ae44"/><path d="M295.52,424.9H186.39a7.46,7.46,0,0,1-7.46-7.46v-47.1a7.46,7.46,0,0,1,7.46-7.46H295.51a7.46,7.46,0,0,1,7.46,7.46v47.1A7.45,7.45,0,0,1,295.52,424.9Z" fill="#e29e3b"/></g></g></g></svg>