<svg width="32" height="32" viewBox="0 0 32 32" fill="none" xmlns="http://www.w3.org/2000/svg">
<g clip-path="url(#clip0)">
<path d="M13.4655 25.8523L16.098 29.6158C16.8053 30.6142 18.187 30.844 19.189 30.1347C20.1844 29.4253 20.4136 28.0395 19.7063 27.0411L16.4516 22.4895L13.4655 25.8523Z" fill="#8A6FE8"/>
<path d="M8.9272 24.427L8.2003 28.9721C8.01693 30.1806 8.84207 31.3169 10.0536 31.5008C11.2585 31.6847 12.3914 30.8571 12.5748 29.642L13.3214 24.9853L8.9272 24.427Z" fill="#8A6FE8"/>
<path d="M11.8611 24.9395L11.2521 29.4977C11.0949 30.7128 11.9594 31.8227 13.1643 31.9804C14.3758 32.138 15.4825 31.2776 15.6397 30.0625L16.2684 25.3861L11.8611 24.9395Z" fill="#8A6FE8"/>
<path d="M7.78779 23.0675L6.14408 27.363C5.71186 28.5124 6.29469 29.7932 7.44071 30.2201C8.58673 30.6536 9.86372 30.069 10.2894 28.9196L11.9724 24.5125L7.78779 23.0675Z" fill="#8A6FE8"/>
<path d="M10.8329 24.946C9.00581 21.2022 7.93838 14.8049 10.9508 9.07761C12.7844 5.60312 16.7922 1.19597 25.5085 -0.0716553L26.2092 4.77555C20.9178 5.54401 17.1393 7.82312 15.2729 11.3633C13.2559 15.199 13.7929 19.8623 15.2205 22.7917L10.8329 24.946Z" fill="url(#paint0_linear)"/>
<path d="M12.0968 27.3696C14.6573 27.3696 16.7332 25.2875 16.7332 22.7194C16.7332 20.1513 14.6573 18.0692 12.0968 18.0692C9.53626 18.0692 7.46033 20.1513 7.46033 22.7194C7.46688 25.2941 9.5428 27.3696 12.0968 27.3696Z" fill="url(#paint1_radial)"/>
</g>
<defs>
<linearGradient id="paint0_linear" x1="17.6348" y1="-0.0695929" x2="17.6348" y2="24.9476" gradientUnits="userSpaceOnUse">
<stop offset="0.2495" stop-color="#967FE6"/>
<stop offset="1" stop-color="#8A6FE8"/>
</linearGradient>
<radialGradient id="paint1_radial" cx="0" cy="0" r="1" gradientUnits="userSpaceOnUse" gradientTransform="translate(11.8548 19.2541) scale(9.00399 9.03062)">
<stop stop-color="#8065E0"/>
<stop offset="1" stop-color="#512BD4"/>
</radialGradient>
<clipPath id="clip0">
<rect width="32" height="32" fill="white"/>
</clipPath>
</defs>
</svg>
