<svg xmlns="http://www.w3.org/2000/svg" xmlns:xlink="http://www.w3.org/1999/xlink" viewBox="0 0 1236.98 707.6"><defs><radialGradient id="radial-gradient" cx="284.76" cy="321.27" r="93.88" gradientTransform="matrix(1, 0, 0, -1, 0, 366.84)" gradientUnits="userSpaceOnUse"><stop offset="0" stop-color="#7bddef"/><stop offset="0.92" stop-color="#28c2d1"/></radialGradient></defs><g id="Layer_2" data-name="Layer 2"><g id="Layer_1-2" data-name="Layer 1"><g id="asset"><path d="M987.14,239.64c-21.31-1.75-57.38-17.58-94.14-41.31a412.7,412.7,0,0,1-40.25-29.44,375.43,375.43,0,0,1-34.64,62.71,468.13,468.13,0,0,0,44.15,31.14c44.15,27.55,89.75,46.14,119,48.52l2,.16,5.87-71.62Z" fill="#88dde5"/><path d="M1180.17,123.23l-14.1-70.13a34.52,34.52,0,1,0-67.58,14.08L1113,139.09Z" fill="#b7ebf0"/><path d="M1142.11,350l64.21-285.16c2-9.09-5.14-16.38-16-16.28L973,50.62c-10.91.1-21.41,7.56-23.46,16.65L885.29,352.43c-2,9.09,5.14,16.38,16.05,16.28l217.31-2C1129.56,366.57,1140.06,359.12,1142.11,350Z" fill="#605d5a"/><path d="M1154.51,264.47h-30.24a34.33,34.33,0,0,1-34.33-34.33h0a34.33,34.33,0,0,1,34.33-34.33h30.24a34.33,34.33,0,0,1,34.33,34.33h0A34.33,34.33,0,0,1,1154.51,264.47Z" fill="#b7ebf0"/><path d="M1191.85,204.7h-43.72a34.33,34.33,0,0,1-34.33-34.33h0A34.33,34.33,0,0,1,1148.13,136h43.72a34.33,34.33,0,0,1,34.33,34.33h0A34.33,34.33,0,0,1,1191.85,204.7Z" fill="#b7ebf0"/><path d="M1202.65,151.7h-30.24a34.33,34.33,0,0,1-34.33-34.33h0A34.33,34.33,0,0,1,1172.41,83h30.24A34.33,34.33,0,0,1,1237,117.37h0A34.33,34.33,0,0,1,1202.65,151.7Z" fill="#b7ebf0"/><path d="M53.16,426.94c-2-6.35-47.89-156.87,26.72-270.63C123,90.59,195.69,51.85,296,41.15l7.69,72.07c-77.51,8.27-132.35,36-163,82.55C84.81,280.57,122,404.12,122.36,405.35Z" fill="#88dde5"/><path d="M48.32,455.27l4.09,71.47a34.53,34.53,0,0,0,68.92-4.44L117.16,449Z" fill="#b7ebf0"/><path d="M32.26,364.18,1,477.65a34.55,34.55,0,0,0,67.05,16.73L99.75,379.1Z" fill="#b7ebf0"/><path d="M82.25,428.31,118.59,585a34.53,34.53,0,0,0,67.11-16.29L149,410.26Z" fill="#b7ebf0"/><path d="M121.14,663.74,95.61,692.67a6.3,6.3,0,0,1-7.2,1.57,6.2,6.2,0,0,1-3.7-6.31l3.94-38.36a5.81,5.81,0,0,1,.48-1.86L214.3,362.25a6.24,6.24,0,0,1,8.22-3.19l21.56,9.49a6.24,6.24,0,0,1,3.19,8.22L122.1,662.23A4,4,0,0,1,121.14,663.74Z" fill="#e1ea95"/><path d="M106.27,647.71,88.48,694.28a6.2,6.2,0,0,1-3.7-6.31l3.94-38.36a5.81,5.81,0,0,1,.48-1.86L214.37,362.29a6.24,6.24,0,0,1,8.22-3.19l7.6,3.33Z" fill="#c5d43b"/><path d="M88.74,649.55l33,13.32a7.11,7.11,0,0,1-.59.88L95.61,692.68a6.3,6.3,0,0,1-7.2,1.57,6.2,6.2,0,0,1-3.7-6.31Z" fill="#b3afab"/><path d="M83.53,410.94l109.39,81.87a34.53,34.53,0,0,0,40.14-56.2L122.24,353.66Z" fill="#b7ebf0"/><polyline points="99.38 688.35 85.15 682.67 82.92 707.6 99.38 688.35" fill="#605d5a"/><circle cx="284.76" cy="68.78" r="68.78" fill="url(#radial-gradient)"/><path d="M109.43,320.53l-72.05-1.32S31.57,380,7.29,455.32c-4.84,15,43.53,8.37,77,5s133.4-31.26,95.44-63.63S118.36,350.67,109.43,320.53Z" fill="#b7ebf0"/></g></g></g></svg>