<?xml version="1.0" encoding="utf-8"?>
<!-- Generator: Adobe Illustrator 24.2.0, SVG Export Plug-In . SVG Version: 6.00 Build 0)  -->
<svg version="1.1" id="asset" xmlns="http://www.w3.org/2000/svg" xmlns:xlink="http://www.w3.org/1999/xlink" x="0px" y="0px"
	 viewBox="0 0 2000 2000" enable-background="new 0 0 2000 2000" xml:space="preserve">
<g>
	<path fill="#8A6FE8" d="M1475.2,1066.8l-5.6,67.7c-44.8-3.7-129.6-46.2-187.1-101c12.2-19.7,22.6-40.6,31-62.2
		C1356,1016.8,1436.8,1063.6,1475.2,1066.8z"/>
	<path fill="#8A6FE8" d="M1431.6,1164.6c0,0,30.8,45,36.5,53.6c4.9,7.3,84.7-5.1,117.6-15.3c2.4-0.8,2.7-4.6,0.3-4.6l-82.9-3.6
		c-8.4,0.2-16.4-3.4-21.7-9.9l-30.4-37.2L1431.6,1164.6z"/>
	<path fill="#8A6FE8" d="M1494.6,1055.2c0,0,54.4,4,64.7,4.7c8.8,0.6,38.2,75.8,45.8,109.4c0.6,2.5-2.7,4.6-3.8,2.6l-44.7-69.9
		c-4-7.4-11.2-12.4-19.4-13.8l-47.5-7.7L1494.6,1055.2z"/>
	<path fill="#8A6FE8" d="M1465.7,1121.9l41.9,39.6c2.3,2.2,5.1,3.8,8.1,4.6l78.2,21.9c2.4,0.7,4.4-2.8,2.6-4.6l-58-56.2
		c-2.4-2.3-5.3-4-8.6-4.8l-56-14.8L1465.7,1121.9z"/>
	
		<radialGradient id="SVGID_1_" cx="-1242.3823" cy="-769.4923" r="1.43" gradientTransform="matrix(45.12 0 0 45.12 57518.2109 35832.7031)" gradientUnits="userSpaceOnUse">
		<stop  offset="0" style="stop-color:#8065E0"/>
		<stop  offset="1" style="stop-color:#512BD4"/>
	</radialGradient>
	<path fill="url(#SVGID_1_)" d="M1452.2,1168.1c35.6,0,64.5-28.9,64.5-64.5s-28.9-64.5-64.5-64.5s-64.5,28.9-64.5,64.5c0,0,0,0,0,0
		C1387.7,1139.2,1416.5,1168,1452.2,1168.1z"/>
	<path fill="#8A6FE8" d="M439,1220.7c0,0-26,54-31,64.1c-4.3,8.7,51.2,77.9,79,103.6c2,1.9,5.9,0,4.5-2.2l-42-80.8
		c-4.8-7.8-5.7-17.4-2.4-26l18.7-49.4L439,1220.7z"/>
	<path fill="#8A6FE8" d="M577.6,1220.7c0,0,26,54,31,64.1c4.3,8.7-51.2,77.9-79,103.6c-2,1.9-5.8,0-4.5-2.2l42-80.8
		c4.8-7.8,5.7-17.4,2.5-26l-18.8-49.4L577.6,1220.7z"/>
	<path fill="#8A6FE8" d="M498.4,1229.8l-14.8,61.6c-0.8,3.4-0.8,6.9,0.1,10.2l22,86.3c0.7,2.7,5.1,2.7,5.8,0l21.6-86
		c0.9-3.5,0.9-7.3-0.1-10.8l-16.6-61.4L498.4,1229.8z"/>
	
		<linearGradient id="SVGID_2_" gradientUnits="userSpaceOnUse" x1="-101.0508" y1="-1246.88" x2="-101.0508" y2="-865.65" gradientTransform="matrix(1 0 0 1 694 2106)">
		<stop  offset="0.25" style="stop-color:#967FE6"/>
		<stop  offset="1" style="stop-color:#8A6FE8"/>
	</linearGradient>
	<path fill="url(#SVGID_2_)" d="M489,1240.3c-27.9-57-44.2-154.6,1.8-241.8c28-53,89.3-120.2,222.5-139.4L724,933
		c-80.9,11.7-138.6,46.4-167.2,100.4c-30.9,58.5-22.6,129.6-0.8,174.2L489,1240.3z"/>
	
		<radialGradient id="SVGID_3_" cx="-1248.5812" cy="-769.7812" r="1.43" gradientTransform="matrix(48.29 0 0 48.29 61033.0469 38036.4531)" gradientUnits="userSpaceOnUse">
		<stop  offset="0" style="stop-color:#8065E0"/>
		<stop  offset="1" style="stop-color:#512BD4"/>
	</radialGradient>
	<path fill="url(#SVGID_3_)" d="M738.9,953.8c38.1,0,69-30.9,69-69s-30.9-69-69-69s-69,30.9-69,69S700.8,953.8,738.9,953.8
		L738.9,953.8z"/>
	
		<radialGradient id="SVGID_4_" cx="-1259.4789" cy="-759.5089" r="1.43" gradientTransform="matrix(96.29 0 0 96.29 121784.4844 74290.9844)" gradientUnits="userSpaceOnUse">
		<stop  offset="0" style="stop-color:#8065E0"/>
		<stop  offset="1" style="stop-color:#512BD4"/>
	</radialGradient>
	<path fill="url(#SVGID_4_)" d="M508.4,1277.3c39.1,0,70.8-31.7,70.8-70.8c0-39.1-31.7-70.8-70.8-70.8c-39.1,0-70.8,31.7-70.8,70.8
		c0,0,0,0,0,0C437.5,1245.6,469.2,1277.3,508.4,1277.3z"/>
</g>
</svg>
