<?xml version="1.0" encoding="utf-8"?>
<!-- Generator: Adobe Illustrator 24.2.0, SVG Export Plug-In . SVG Version: 6.00 Build 0)  -->
<svg version="1.1" id="Layer_1" xmlns="http://www.w3.org/2000/svg" xmlns:xlink="http://www.w3.org/1999/xlink" x="0px" y="0px"
	 viewBox="0 0 2000 2000" enable-background="new 0 0 2000 2000" xml:space="preserve">
<g>
	<g id="asset">
		
			<radialGradient id="SVGID_1_" cx="1561.4399" cy="953.7" r="45.5969" gradientTransform="matrix(1 0 0 -1 0 2000)" gradientUnits="userSpaceOnUse">
			<stop  offset="0" style="stop-color:#5B36DE"/>
			<stop  offset="1" style="stop-color:#512BD4"/>
		</radialGradient>
		<path fill="url(#SVGID_1_)" d="M1511.3,1079.5c-2.9-4.6-8.9-15.9-1.8-22.1c29.8-25.7,66.8-44.3,88-44.3c7.2,0,11.9,2.2,13.9,6.6
			c4,8.9,7.8,21.4,3.1,30.5c-3.3,6.4-10.4,10.7-21.3,12.9C1567.1,1068.3,1522.5,1077.3,1511.3,1079.5z"/>
		<path fill="#8A6FE8" d="M1597.5,1017.1c8.3,0,9.8,3.2,10.2,4.2c3.7,8.1,7.2,19.3,3.2,27.1c-2.7,5.2-8.9,8.9-18.5,10.8
			c-24.1,4.8-64.6,12.9-79.1,15.9c-0.9-1.6-1.6-3.2-2.2-4.9c-2.3-6.8,0.1-8.9,1-9.7C1540.8,1035.7,1577.5,1017.1,1597.5,1017.1
			L1597.5,1017.1 M1597.5,1009.1c-22.4,0-60.4,19.3-90.6,45.3c-12.1,10.4,2.6,29.5,2.6,29.5s54.5-11,84.5-17s31-27,21-49
			C1612.2,1011.8,1606,1009,1597.5,1009.1L1597.5,1009.1z"/>
		
			<radialGradient id="SVGID_2_" cx="871.4869" cy="336.9337" r="46.8733" gradientTransform="matrix(0.9967 8.072083e-02 8.072083e-02 -0.9967 558.4564 1490.5004)" gradientUnits="userSpaceOnUse">
			<stop  offset="0" style="stop-color:#5B36DE"/>
			<stop  offset="1" style="stop-color:#512BD4"/>
		</radialGradient>
		<path fill="url(#SVGID_2_)" d="M1448.2,1285c-7.1,0-12.4-2-16-5.8c-5.8-6.3-6.3-16.8-5.7-24.4c0.4-4.4,0.6-10.7,0.8-17.9
			c0.6-18.5,1.5-46,6-70.3l23.2-2c3.2,13.6,15.5,64.8,20.5,87.6c2.4,11,1.7,18.9-2.2,24c-4.2,5.4-12.3,8.3-24.9,8.8
			C1449.4,1285,1448.8,1285,1448.2,1285L1448.2,1285z"/>
		<path fill="#8A6FE8" d="M1453.4,1168.8c4.1,17.2,15,63,19.7,84.1c2.1,9.7,1.6,16.6-1.5,20.7c-3.3,4.3-10.7,6.8-21.9,7.2
			c-0.5,0-1,0-1.6,0c-6,0-10.3-1.5-13.1-4.5c-3.8-4.1-5.4-11.7-4.6-21.4c0.4-4.5,0.6-10.8,0.8-18.1c0.6-17.6,1.4-43.4,5.4-66.7
			L1453.4,1168.8 M1459.6,1160.2l-29.7,2.6c-6.8,34.6-6.1,75.5-7.4,91.6c-1.3,15.7,2.5,34.6,25.7,34.6c0.6,0,1.2,0,1.9,0
			c24.9-1,36.8-11.1,30.9-37.7S1459.6,1160.2,1459.6,1160.2L1459.6,1160.2z"/>
		
			<radialGradient id="SVGID_3_" cx="1536.1458" cy="831.77" r="56.1784" gradientTransform="matrix(1 0 0 -1 0 2000)" gradientUnits="userSpaceOnUse">
			<stop  offset="0" style="stop-color:#5B36DE"/>
			<stop  offset="1" style="stop-color:#512BD4"/>
		</radialGradient>
		<path fill="url(#SVGID_3_)" d="M1558.6,1220.7c-3.4,0-6.7-0.8-9.8-2.2c-22.7-9.9-65.6-55.1-70-59.7c-7.8-15.2,6.3-36.2,11.4-43
			c12.9,4.8,68,25.2,87.1,33.9c20.3,9.2,21.2,18.1,15.5,35.8C1587.3,1202.5,1574.2,1220.7,1558.6,1220.7L1558.6,1220.7z"/>
		<path fill="#8A6FE8" d="M1491.6,1120.6c16.7,6.2,66.2,24.6,84,32.7c11.5,5.2,14.2,9.5,15.3,12.3c1.5,4,0.9,9.8-2,18.7
			c-2.6,8.2-6.8,15.8-12.3,22.4c-5.8,6.7-11.9,10-18.1,10c-2.8,0-5.6-0.7-8.2-1.8c-18.7-8.2-54.8-44.1-68.2-58.4
			C1476.9,1145.4,1485.3,1129.4,1491.6,1120.6 M1488.8,1111c0,0-24.7,29.2-13.3,50.1c0,0,46.8,50.2,71.6,61.1
			c3.6,1.6,7.4,2.5,11.4,2.5c19,0,32.7-21.4,38-38c6.5-19.6,4.5-30.6-17.5-40.6S1488.9,1111,1488.8,1111L1488.8,1111z"/>
		<g>
			<defs>
				<path id="SVGID_4_" d="M1506.9,1054.4c41.5-35.8,97.8-58.9,108.1-36.4c10,22,9,43-21,49s-84.5,17-84.5,17
					S1494.8,1064.8,1506.9,1054.4z"/>
			</defs>
			<clipPath id="SVGID_5_">
				<use xlink:href="#SVGID_4_"  overflow="visible"/>
			</clipPath>
			<g clip-path="url(#SVGID_5_)">
				
					<radialGradient id="SVGID_6_" cx="-1756.5656" cy="-3135.9392" r="105.3935" gradientTransform="matrix(0.8368 0.5476 0.5476 -0.8368 4652.5435 -551.6851)" gradientUnits="userSpaceOnUse">
					<stop  offset="0" style="stop-color:#3A1BA8"/>
					<stop  offset="1" style="stop-color:#512BD4;stop-opacity:0"/>
				</radialGradient>
				<path fill="url(#SVGID_6_)" d="M1403.6,1070c39.1-59.8,98.6-90.1,132.8-67.6s30.3,89-8.8,148.8c-39.1,59.8-98.6,90.1-132.8,67.6
					S1364.5,1129.7,1403.6,1070z"/>
			</g>
		</g>
		<g>
			<defs>
				<path id="SVGID_7_" d="M1475.6,1161.1c0,0,46.8,50.2,71.6,61.1s43-15.8,49.4-35.5s4.4-30.7-17.6-40.7s-90.1-35-90.1-35
					S1464.1,1140.2,1475.6,1161.1z"/>
			</defs>
			<clipPath id="SVGID_8_">
				<use xlink:href="#SVGID_7_"  overflow="visible"/>
			</clipPath>
			<g clip-path="url(#SVGID_8_)">
				
					<radialGradient id="SVGID_9_" cx="-1756.5656" cy="-3135.9392" r="105.3935" gradientTransform="matrix(0.8368 0.5476 0.5476 -0.8368 4652.5435 -551.6851)" gradientUnits="userSpaceOnUse">
					<stop  offset="0" style="stop-color:#3A1BA8"/>
					<stop  offset="0.79" style="stop-color:#512BD4;stop-opacity:0"/>
				</radialGradient>
				<path fill="url(#SVGID_9_)" d="M1403.6,1070c39.1-59.8,98.6-90.1,132.8-67.6s30.3,89-8.8,148.8c-39.1,59.8-98.6,90.1-132.8,67.6
					S1364.5,1129.7,1403.6,1070z"/>
			</g>
		</g>
		<g>
			<defs>
				<path id="SVGID_10_" d="M1429.9,1162.8c-6.8,34.6-6.1,75.5-7.4,91.6s2.7,35.6,27.6,34.5s36.8-11.1,30.9-37.7s-21.3-91-21.3-91
					L1429.9,1162.8z"/>
			</defs>
			<clipPath id="SVGID_11_">
				<use xlink:href="#SVGID_10_"  overflow="visible"/>
			</clipPath>
			<g clip-path="url(#SVGID_11_)">
				
					<radialGradient id="SVGID_12_" cx="-1756.5656" cy="-3135.9392" r="105.3935" gradientTransform="matrix(0.8368 0.5476 0.5476 -0.8368 4652.5435 -551.6851)" gradientUnits="userSpaceOnUse">
					<stop  offset="0" style="stop-color:#3A1BA8"/>
					<stop  offset="1" style="stop-color:#512BD4;stop-opacity:0"/>
				</radialGradient>
				<path fill="url(#SVGID_12_)" d="M1403.6,1070c39.1-59.8,98.6-90.1,132.8-67.6s30.3,89-8.8,148.8
					c-39.1,59.8-98.6,90.1-132.8,67.6S1364.5,1129.7,1403.6,1070z"/>
			</g>
		</g>
		<path fill="#8A6FE8" d="M1475.2,1066.8l-5.6,67.7c-44.8-3.7-129.6-46.2-187.1-101c12.2-19.7,22.6-40.6,31-62.2
			C1356,1016.8,1436.8,1063.6,1475.2,1066.8z"/>
		
			<linearGradient id="SVGID_13_" gradientUnits="userSpaceOnUse" x1="-101.0508" y1="-14612.8799" x2="-101.0508" y2="-14231.6504" gradientTransform="matrix(1 0 0 1 694 15472)">
			<stop  offset="0.25" style="stop-color:#967FE6"/>
			<stop  offset="1" style="stop-color:#8A6FE8"/>
		</linearGradient>
		<path fill="url(#SVGID_13_)" d="M489,1240.3c-27.9-57-44.2-154.6,1.8-241.8c28-53,89.3-120.2,222.5-139.4L724,933
			c-80.9,11.7-138.6,46.4-167.2,100.4c-30.9,58.5-22.6,129.6-0.8,174.2L489,1240.3z"/>
		
			<radialGradient id="SVGID_14_" cx="2638.2388" cy="-7591.1709" r="1.43" gradientTransform="matrix(48.29 0 0 48.29 -126666.1172 367450.2188)" gradientUnits="userSpaceOnUse">
			<stop  offset="0" style="stop-color:#8065E0"/>
			<stop  offset="1" style="stop-color:#512BD4"/>
		</radialGradient>
		<path fill="url(#SVGID_14_)" d="M738.9,953.8c38.1,0,69-30.9,69-69s-30.9-69-69-69s-69,30.9-69,69S700.8,953.8,738.9,953.8
			L738.9,953.8z"/>
		
			<radialGradient id="SVGID_15_" cx="1446.3386" cy="894.9999" r="73.4005" gradientTransform="matrix(1 0 0 -1 0 2000)" gradientUnits="userSpaceOnUse">
			<stop  offset="0" style="stop-color:#8065E0"/>
			<stop  offset="1" style="stop-color:#512BD4"/>
		</radialGradient>
		<path fill="url(#SVGID_15_)" d="M1514,1056c-37.7-30.3-94.5-39.3-121.2-3.2c-26.8,36.2-29.6,81.2,41.2,125.2
			C1471,1201,1532.3,1070.8,1514,1056z"/>
		
			<ellipse transform="matrix(0.5 -0.866 0.866 0.5 -230.0313 1836.5731)" fill="#512BD4" cx="1475.5" cy="1117.5" rx="72.8" ry="27.7"/>
		
			<radialGradient id="SVGID_16_" cx="1475.5012" cy="882.5032" r="36.2105" gradientTransform="matrix(1 0 0 -1 2.133604e-03 2000.0027)" gradientUnits="userSpaceOnUse">
			<stop  offset="0" style="stop-color:#60DEFA"/>
			<stop  offset="1" style="stop-color:#1DACCC"/>
		</radialGradient>
		<path fill="url(#SVGID_16_)" d="M1459.8,1108.4c13.2-22.9,31-37.4,39.7-32.4c8.7,5,5,27.7-8.2,50.5s-31,37.4-39.7,32.4
			C1442.9,1153.9,1446.5,1131.3,1459.8,1108.4z"/>
		
			<radialGradient id="SVGID_17_" cx="1221.481" cy="192.7523" r="55.06" gradientTransform="matrix(0.866 0.5 1.94 -3.3602 71.2316 1161.5594)" gradientUnits="userSpaceOnUse">
			<stop  offset="0.26" style="stop-color:#4ADAFA"/>
			<stop  offset="0.26" style="stop-color:#4ADAFA;stop-opacity:0.98"/>
			<stop  offset="0.29" style="stop-color:#4ADAFA;stop-opacity:0.8"/>
			<stop  offset="0.33" style="stop-color:#4ADAFA;stop-opacity:0.63"/>
			<stop  offset="0.36" style="stop-color:#4ADAFA;stop-opacity:0.48"/>
			<stop  offset="0.4" style="stop-color:#4ADAFA;stop-opacity:0.35"/>
			<stop  offset="0.45" style="stop-color:#4ADAFA;stop-opacity:0.24"/>
			<stop  offset="0.49" style="stop-color:#4ADAFA;stop-opacity:0.15"/>
			<stop  offset="0.55" style="stop-color:#4ADAFA;stop-opacity:8.000000e-02"/>
			<stop  offset="0.62" style="stop-color:#4ADAFA;stop-opacity:3.000000e-02"/>
			<stop  offset="0.72" style="stop-color:#4ADAFA;stop-opacity:1.000000e-02"/>
			<stop  offset="1" style="stop-color:#4ADAFA;stop-opacity:0"/>
		</radialGradient>
		
			<ellipse transform="matrix(0.5 -0.866 0.866 0.5 -228.8748 1859.5691)" fill="none" stroke="url(#SVGID_17_)" stroke-width="6" stroke-miterlimit="10" cx="1496" cy="1128" rx="71.3" ry="18.5"/>
		
			<radialGradient id="SVGID_18_" cx="1236.481" cy="177.7523" r="71.35" gradientTransform="matrix(0.866 0.5 1.94 -3.3602 102.4338 1118.6171)" gradientUnits="userSpaceOnUse">
			<stop  offset="0.26" style="stop-color:#4ADAFA"/>
			<stop  offset="0.26" style="stop-color:#4ADAFA;stop-opacity:0.98"/>
			<stop  offset="0.29" style="stop-color:#4ADAFA;stop-opacity:0.8"/>
			<stop  offset="0.33" style="stop-color:#4ADAFA;stop-opacity:0.63"/>
			<stop  offset="0.36" style="stop-color:#4ADAFA;stop-opacity:0.48"/>
			<stop  offset="0.4" style="stop-color:#4ADAFA;stop-opacity:0.35"/>
			<stop  offset="0.45" style="stop-color:#4ADAFA;stop-opacity:0.24"/>
			<stop  offset="0.49" style="stop-color:#4ADAFA;stop-opacity:0.15"/>
			<stop  offset="0.55" style="stop-color:#4ADAFA;stop-opacity:8.000000e-02"/>
			<stop  offset="0.62" style="stop-color:#4ADAFA;stop-opacity:3.000000e-02"/>
			<stop  offset="0.72" style="stop-color:#4ADAFA;stop-opacity:1.000000e-02"/>
			<stop  offset="1" style="stop-color:#4ADAFA;stop-opacity:0"/>
		</radialGradient>
		
			<ellipse transform="matrix(0.5 -0.866 0.866 0.5 -234.3648 1880.0597)" opacity="0.6" fill="none" stroke="url(#SVGID_18_)" stroke-width="6" stroke-miterlimit="10" enable-background="new    " cx="1511" cy="1143" rx="93.7" ry="24.3"/>
		
			<radialGradient id="SVGID_19_" cx="1256.481" cy="157.7523" r="90.68" gradientTransform="matrix(0.866 0.5 1.94 -3.3602 144.038 1061.3577)" gradientUnits="userSpaceOnUse">
			<stop  offset="0.26" style="stop-color:#4ADAFA"/>
			<stop  offset="0.26" style="stop-color:#4ADAFA;stop-opacity:0.98"/>
			<stop  offset="0.29" style="stop-color:#4ADAFA;stop-opacity:0.8"/>
			<stop  offset="0.33" style="stop-color:#4ADAFA;stop-opacity:0.63"/>
			<stop  offset="0.36" style="stop-color:#4ADAFA;stop-opacity:0.48"/>
			<stop  offset="0.4" style="stop-color:#4ADAFA;stop-opacity:0.35"/>
			<stop  offset="0.45" style="stop-color:#4ADAFA;stop-opacity:0.24"/>
			<stop  offset="0.49" style="stop-color:#4ADAFA;stop-opacity:0.15"/>
			<stop  offset="0.55" style="stop-color:#4ADAFA;stop-opacity:8.000000e-02"/>
			<stop  offset="0.62" style="stop-color:#4ADAFA;stop-opacity:3.000000e-02"/>
			<stop  offset="0.72" style="stop-color:#4ADAFA;stop-opacity:1.000000e-02"/>
			<stop  offset="1" style="stop-color:#4ADAFA;stop-opacity:0"/>
		</radialGradient>
		
			<ellipse transform="matrix(0.5 -0.866 0.866 0.5 -241.6846 1907.3802)" opacity="0.3" fill="none" stroke="url(#SVGID_19_)" stroke-width="6" stroke-miterlimit="10" enable-background="new    " cx="1531" cy="1163" rx="120.1" ry="31.1"/>
		
			<radialGradient id="SVGID_20_" cx="-3165.0215" cy="-5323.9614" r="50.45" gradientTransform="matrix(0.6814 0.7319 0.7319 -0.6814 6699.3843 -43.6616)" gradientUnits="userSpaceOnUse">
			<stop  offset="0" style="stop-color:#5B36DE"/>
			<stop  offset="1" style="stop-color:#512BD4"/>
		</radialGradient>
		<path fill="url(#SVGID_20_)" d="M677,1313.7c-6.3,0-13.4-2.8-21-8.3c-23.9-17.2-64.9-46.7-74.7-53.7c1.4-5.5,5.8-18.6,15.5-18.6
			c0.5,0,0.9,0,1.4,0.1c48.2,5.3,94.5,24,105.5,42.6c2.4,4.1,2.9,7.9,1.3,11.5C700.1,1299.4,691.1,1313.7,677,1313.7z"/>
		<path fill="#8A6FE8" d="M596.8,1229.2v8c0.3,0,0.6,0,0.9,0c22.8,2.5,46.2,8.2,65.6,16.1c18.7,7.6,32.1,16.5,36.9,24.6
			c2.3,3.9,1.8,6.3,1.1,7.9c-3.3,7.9-7,13.9-11.2,18s-8.4,5.9-13.1,5.9c-5.5,0-11.8-2.5-18.7-7.5c-22.2-16-59.6-42.8-72.4-52
			c1.7-5.2,5.2-13,10.9-13L596.8,1229.2 M596.8,1229.1c-15.9,0-20,24.2-20,24.2s49.6,35.6,76.8,55.2c8.8,6.3,16.5,9,23.4,9
			c14.5,0,24.8-12.2,31.7-28.8c10.4-25.1-50.3-53-110.1-59.6C598.1,1229.1,597.5,1229.1,596.8,1229.1L596.8,1229.1z"/>
		
			<radialGradient id="SVGID_21_" cx="-3342.1296" cy="-6319.8374" r="51.8432" gradientTransform="matrix(0.6201 0.7846 0.7846 -0.6201 7452.8101 17.9862)" gradientUnits="userSpaceOnUse">
			<stop  offset="0" style="stop-color:#5B36DE"/>
			<stop  offset="1" style="stop-color:#512BD4"/>
		</radialGradient>
		<path fill="url(#SVGID_21_)" d="M394.9,1369.8c-7.2,0-15.1-4.4-24.4-13.6c-6.1-6.1-9.1-12.3-8.8-18.5c0.5-9.7,8.8-18.1,15.5-23.5
			c3.8-3,9-7.5,15-12.7c15.4-13.4,38.3-33.3,61.2-48l19.5,17.6c-8.2,12.3-40.6,61.1-55.2,82.3
			C410.1,1364.3,402.7,1369.7,394.9,1369.8L394.9,1369.8z"/>
		<path fill="#8A6FE8" d="M453.1,1258.5l14.6,13.2c-10.4,15.7-39.6,59.5-53.3,79.3c-6.8,9.9-13.2,14.7-19.6,14.7
			c-6,0-13.2-4.2-21.6-12.4c-5.4-5.3-7.9-10.4-7.6-15.4c0.5-8.6,9-16.6,14-20.6c3.9-3.1,9.1-7.6,15.1-12.9
			C409.5,1291.7,431.2,1272.8,453.1,1258.5 M453.9,1248.5c-32.9,20.4-65.2,51.6-79.1,62.6s-26.6,28.7-7.1,48
			c9.6,9.5,18.6,14.8,27.2,14.8c8.9,0,17.5-5.6,26.2-18.1c17-24.6,57.2-85.2,57.2-85.2L453.9,1248.5L453.9,1248.5z"/>
		
			<radialGradient id="SVGID_22_" cx="-3192.7114" cy="-5457.7915" r="62.07" gradientTransform="matrix(0.6814 0.7319 0.7319 -0.6814 6699.3843 -43.6616)" gradientUnits="userSpaceOnUse">
			<stop  offset="0" style="stop-color:#5B36DE"/>
			<stop  offset="1" style="stop-color:#512BD4"/>
		</radialGradient>
		<path fill="url(#SVGID_22_)" d="M526.8,1404c-15.1,0-24.9-6.1-29.1-18.2c-9.1-25.7-4.8-94.5-4.3-101.1
			c3.9-10.9,15.9-16.7,25.4-19.7c6-1.8,12.1-3.1,18.3-3.7c5.6,13.4,30.7,73.6,38.1,95.7c7.8,23.4,0.9,31.2-17.5,39.7
			C547.7,1401.3,536.5,1404,526.8,1404z"/>
		<path fill="#8A6FE8" d="M534.5,1265.6c7.3,17.4,29.9,72,36.8,92.7c4.5,13.4,3,19,1.5,22c-2.2,4.4-7.4,8.3-16.9,12.8
			s-20.1,6.9-29.2,6.9c-6.3,0-11.6-1.2-15.8-3.6c-4.6-2.7-8-6.9-9.6-12c-7.5-21.3-5.6-77.6-4.1-98.9
			C502.4,1272.5,522.5,1267.1,534.5,1265.6 M539.6,1257c0,0-42,2-50.2,26.8c0,0-5.4,75.2,4.5,103.2c5.5,15.6,18.7,20.9,32.9,20.9
			c11.4,0,23.4-3.4,32.6-7.7c20.6-9.6,28-19.4,19.5-44.6S539.6,1257,539.6,1257L539.6,1257z"/>
		<g>
			<defs>
				<path id="SVGID_23_" d="M598.7,1229.3c59.8,6.6,120.5,34.6,110.1,59.6c-10.2,24.5-27.8,39.4-55.1,19.8s-76.8-55.2-76.8-55.2
					S581.2,1227.3,598.7,1229.3z"/>
			</defs>
			<clipPath id="SVGID_24_">
				<use xlink:href="#SVGID_23_"  overflow="visible"/>
			</clipPath>
			<g clip-path="url(#SVGID_24_)">
				
					<radialGradient id="SVGID_25_" cx="-2277.9724" cy="-10987.4766" r="115.7191" gradientTransform="matrix(0.1692 0.9856 0.9856 -0.1692 11736.9512 1624.4893)" gradientUnits="userSpaceOnUse">
					<stop  offset="0" style="stop-color:#3A1BA8"/>
					<stop  offset="1" style="stop-color:#512BD4;stop-opacity:0"/>
				</radialGradient>
				<path fill="url(#SVGID_25_)" d="M508.7,1158c77.3-13.3,146.1,11.9,153.7,56.2s-48.9,90.9-126.2,104.2
					c-77.3,13.3-146.1-11.9-153.7-56.2C374.9,1217.9,431.4,1171.3,508.7,1158z"/>
			</g>
		</g>
		<g>
			<defs>
				<path id="SVGID_26_" d="M489.4,1283.9c0,0-5.4,75.2,4.5,103.2s44.9,22.8,65.5,13.2s28-19.4,19.5-44.6s-39.3-98.6-39.3-98.6
					S497.6,1259.1,489.4,1283.9z"/>
			</defs>
			<clipPath id="SVGID_27_">
				<use xlink:href="#SVGID_26_"  overflow="visible"/>
			</clipPath>
			<g clip-path="url(#SVGID_27_)">
				
					<radialGradient id="SVGID_28_" cx="-2277.9724" cy="-10987.4766" r="115.7191" gradientTransform="matrix(0.1692 0.9856 0.9856 -0.1692 11736.9512 1624.4893)" gradientUnits="userSpaceOnUse">
					<stop  offset="0" style="stop-color:#3A1BA8"/>
					<stop  offset="0.79" style="stop-color:#512BD4;stop-opacity:0"/>
				</radialGradient>
				<path fill="url(#SVGID_28_)" d="M508.7,1158c77.3-13.3,146.1,11.9,153.7,56.2s-48.9,90.9-126.2,104.2
					c-77.3,13.3-146.1-11.9-153.7-56.2C374.9,1217.9,431.4,1171.3,508.7,1158z"/>
			</g>
		</g>
		<g>
			<defs>
				<path id="SVGID_29_" d="M453.9,1248.5c-32.9,20.4-65.2,51.6-79.1,62.6s-26.6,28.7-7.1,48s36.4,21.2,53.4-3.4
					s57.2-85.2,57.2-85.2L453.9,1248.5z"/>
			</defs>
			<clipPath id="SVGID_30_">
				<use xlink:href="#SVGID_29_"  overflow="visible"/>
			</clipPath>
			<g clip-path="url(#SVGID_30_)">
				
					<radialGradient id="SVGID_31_" cx="-2277.9724" cy="-10987.4766" r="115.7191" gradientTransform="matrix(0.1692 0.9856 0.9856 -0.1692 11736.9512 1624.4893)" gradientUnits="userSpaceOnUse">
					<stop  offset="0" style="stop-color:#3A1BA8"/>
					<stop  offset="1" style="stop-color:#512BD4;stop-opacity:0"/>
				</radialGradient>
				<path fill="url(#SVGID_31_)" d="M508.7,1158c77.3-13.3,146.1,11.9,153.7,56.2s-48.9,90.9-126.2,104.2
					c-77.3,13.3-146.1-11.9-153.7-56.2C374.9,1217.9,431.4,1171.3,508.7,1158z"/>
			</g>
		</g>
		
			<radialGradient id="SVGID_32_" cx="-3291.3613" cy="-5388.2944" r="80.4768" gradientTransform="matrix(0.6814 0.7319 0.7319 -0.6814 6699.3843 -43.6616)" gradientUnits="userSpaceOnUse">
			<stop  offset="0" style="stop-color:#8065E0"/>
			<stop  offset="1" style="stop-color:#512BD4"/>
		</radialGradient>
		<path fill="url(#SVGID_32_)" d="M602.7,1236.2c-3.8-53-39.1-105.3-88.2-99.8s-87.3,37-69.7,126.8
			C454,1310.1,604.5,1261.9,602.7,1236.2z"/>
		
			<ellipse transform="matrix(0.9746 -0.2241 0.2241 0.9746 -267.0513 149.3563)" fill="#512BD4" cx="524.5" cy="1251.2" rx="80" ry="30.4"/>
		
			<radialGradient id="SVGID_33_" cx="-3259.3469" cy="-5402.1323" r="39.7608" gradientTransform="matrix(0.6814 0.7319 0.7319 -0.6814 6699.3398 -43.9403)" gradientUnits="userSpaceOnUse">
			<stop  offset="0" style="stop-color:#60DEFA"/>
			<stop  offset="1" style="stop-color:#1DACCC"/>
		</radialGradient>
		<path fill="url(#SVGID_33_)" d="M520,1231.7c28.3-6.5,53.2-3.1,55.7,7.7c2.5,10.8-18.5,24.7-46.7,31.2
			c-28.3,6.5-53.2,3.1-55.7-7.7S491.7,1238.2,520,1231.7z"/>
		
			<radialGradient id="SVGID_34_" cx="-3075.8501" cy="-5520.7842" r="60.17" gradientTransform="matrix(0.2241 0.9746 3.7813 -0.8695 22127.6465 -508.0067)" gradientUnits="userSpaceOnUse">
			<stop  offset="0.26" style="stop-color:#4ADAFA"/>
			<stop  offset="0.26" style="stop-color:#4ADAFA;stop-opacity:0.98"/>
			<stop  offset="0.29" style="stop-color:#4ADAFA;stop-opacity:0.8"/>
			<stop  offset="0.33" style="stop-color:#4ADAFA;stop-opacity:0.63"/>
			<stop  offset="0.36" style="stop-color:#4ADAFA;stop-opacity:0.48"/>
			<stop  offset="0.4" style="stop-color:#4ADAFA;stop-opacity:0.35"/>
			<stop  offset="0.45" style="stop-color:#4ADAFA;stop-opacity:0.24"/>
			<stop  offset="0.49" style="stop-color:#4ADAFA;stop-opacity:0.15"/>
			<stop  offset="0.55" style="stop-color:#4ADAFA;stop-opacity:8.000000e-02"/>
			<stop  offset="0.62" style="stop-color:#4ADAFA;stop-opacity:3.000000e-02"/>
			<stop  offset="0.72" style="stop-color:#4ADAFA;stop-opacity:1.000000e-02"/>
			<stop  offset="1" style="stop-color:#4ADAFA;stop-opacity:0"/>
		</radialGradient>
		
			<ellipse transform="matrix(0.9746 -0.2241 0.2241 0.9746 -272.3279 151.5185)" fill="none" stroke="url(#SVGID_34_)" stroke-width="6" stroke-miterlimit="10" cx="531.4" cy="1275.5" rx="78.3" ry="20.3"/>
		
			<radialGradient id="SVGID_35_" cx="-3059.3799" cy="-5537.2539" r="78.06" gradientTransform="matrix(0.2241 0.9746 3.7813 -0.8695 22185.5098 -515.0555)" gradientUnits="userSpaceOnUse">
			<stop  offset="0.26" style="stop-color:#4ADAFA"/>
			<stop  offset="0.26" style="stop-color:#4ADAFA;stop-opacity:0.98"/>
			<stop  offset="0.29" style="stop-color:#4ADAFA;stop-opacity:0.8"/>
			<stop  offset="0.33" style="stop-color:#4ADAFA;stop-opacity:0.63"/>
			<stop  offset="0.36" style="stop-color:#4ADAFA;stop-opacity:0.48"/>
			<stop  offset="0.4" style="stop-color:#4ADAFA;stop-opacity:0.35"/>
			<stop  offset="0.45" style="stop-color:#4ADAFA;stop-opacity:0.24"/>
			<stop  offset="0.49" style="stop-color:#4ADAFA;stop-opacity:0.15"/>
			<stop  offset="0.55" style="stop-color:#4ADAFA;stop-opacity:8.000000e-02"/>
			<stop  offset="0.62" style="stop-color:#4ADAFA;stop-opacity:3.000000e-02"/>
			<stop  offset="0.72" style="stop-color:#4ADAFA;stop-opacity:1.000000e-02"/>
			<stop  offset="1" style="stop-color:#4ADAFA;stop-opacity:0"/>
		</radialGradient>
		
			<ellipse transform="matrix(0.9746 -0.2241 0.2241 0.9746 -277.5667 151.9265)" opacity="0.6" fill="none" stroke="url(#SVGID_35_)" stroke-width="6" stroke-miterlimit="10" enable-background="new    " cx="530.5" cy="1298.8" rx="102.8" ry="26.7"/>
		
			<radialGradient id="SVGID_36_" cx="-3037.4199" cy="-5559.2139" r="99.28" gradientTransform="matrix(0.2241 0.9746 3.7813 -0.8695 22262.6504 -524.4597)" gradientUnits="userSpaceOnUse">
			<stop  offset="0.26" style="stop-color:#4ADAFA"/>
			<stop  offset="0.26" style="stop-color:#4ADAFA;stop-opacity:0.98"/>
			<stop  offset="0.29" style="stop-color:#4ADAFA;stop-opacity:0.8"/>
			<stop  offset="0.33" style="stop-color:#4ADAFA;stop-opacity:0.63"/>
			<stop  offset="0.36" style="stop-color:#4ADAFA;stop-opacity:0.48"/>
			<stop  offset="0.4" style="stop-color:#4ADAFA;stop-opacity:0.35"/>
			<stop  offset="0.45" style="stop-color:#4ADAFA;stop-opacity:0.24"/>
			<stop  offset="0.49" style="stop-color:#4ADAFA;stop-opacity:0.15"/>
			<stop  offset="0.55" style="stop-color:#4ADAFA;stop-opacity:8.000000e-02"/>
			<stop  offset="0.62" style="stop-color:#4ADAFA;stop-opacity:3.000000e-02"/>
			<stop  offset="0.72" style="stop-color:#4ADAFA;stop-opacity:1.000000e-02"/>
			<stop  offset="1" style="stop-color:#4ADAFA;stop-opacity:0"/>
		</radialGradient>
		
			<ellipse transform="matrix(0.9746 -0.2241 0.2241 0.9746 -284.5508 152.4682)" opacity="0.3" fill="none" stroke="url(#SVGID_36_)" stroke-width="6" stroke-miterlimit="10" enable-background="new    " cx="529.4" cy="1329.8" rx="131.9" ry="34.2"/>
	</g>
</g>
</svg>
