<?xml version="1.0" encoding="utf-8"?>
<!-- Generator: Adobe Illustrator 24.2.0, SVG Export Plug-In . SVG Version: 6.00 Build 0)  -->
<svg version="1.1" id="Layer_1" xmlns="http://www.w3.org/2000/svg" xmlns:xlink="http://www.w3.org/1999/xlink" x="0px" y="0px"
	 viewBox="0 0 2000 2000" enable-background="new 0 0 2000 2000" xml:space="preserve">
<g id="ghost-image" display="none">
	<g display="inline" opacity="0.5">
		<path fill="#8A6FE8" d="M1469,1134.6c-57.7-4.7-181.3-73.8-228.1-150.4c-28.4-46.5,24.8-83.6,53.8-36.2
			c31.4,51.3,134.8,115.2,179.9,118.9L1469,1134.6z"/>
		<path fill="#8A6FE8" d="M1525,1005.7l-88.7,33.7c-15.8,6-23.7,23.7-17.8,39.5c6,15.8,23.7,23.7,39.5,17.8l88.7-33.7
			c15.8-6,23.7-23.7,17.8-39.5C1558.6,1007.6,1540.8,999.6,1525,1005.7z"/>
		<path fill="#8A6FE8" d="M1416.4,1155.1l37.8,51.4c10.2,13.6,29.4,16.4,43.1,6.3c13.6-10.2,16.4-29.4,6.3-43.1l-38.8-52.7
			L1416.4,1155.1z"/>
		<path fill="#8A6FE8" d="M1450.7,1158.2l76.8,42.9c14.9,8.2,33.6,2.9,41.8-12c8.2-14.8,2.9-33.6-12-41.8l-57-32.1L1450.7,1158.2z"
			/>
		<path fill="#8A6FE8" d="M1460.3,1121.8l84.6,24.4c16.3,4.7,33.4-4.7,38.2-21c4.7-16.3-4.7-33.4-21-38.2l-86.2-24.9L1460.3,1121.8z
			"/>
		
			<radialGradient id="SVGID_1_" cx="-4026.5181" cy="-8097.9277" r="6.0501" gradientTransform="matrix(10.6515 0 0 10.6515 44340.0312 87358.8125)" gradientUnits="userSpaceOnUse">
			<stop  offset="0" style="stop-color:#8065E0"/>
			<stop  offset="1" style="stop-color:#512BD4"/>
		</radialGradient>
		<path fill="url(#SVGID_1_)" d="M1451.6,1168.2c35.6,0,64.4-28.8,64.4-64.4c0-35.6-28.9-64.4-64.4-64.4
			c-35.6,0-64.4,28.8-64.4,64.4C1387.1,1139.3,1416,1168.2,1451.6,1168.2z"/>
		
			<linearGradient id="SVGID_2_" gradientUnits="userSpaceOnUse" x1="432.5013" y1="-14376.1826" x2="492.2793" y2="-14091.4707" gradientTransform="matrix(1 0 0 1 694 15472)">
			<stop  offset="0" style="stop-color:#522CD5"/>
			<stop  offset="0.4397" style="stop-color:#8A6FE8"/>
		</linearGradient>
		<path fill="url(#SVGID_2_)" d="M1216.5,1374.2c0.7-59.8-7.8-181.1-69.5-282.6l-60.3,36.6c56,92.1,60.2,199.7,58.9,246.6
			C1145.4,1378.6,1181.6,1382.1,1216.5,1374.2z"/>
		<path fill="#522CD5" d="M1145.5,1374.1l55.8-0.3l52.1,298.7l-112.1,0.5c-8.5,0-15-6.8-14.4-15.4L1145.5,1374.1z"/>
		
			<linearGradient id="SVGID_3_" gradientUnits="userSpaceOnUse" x1="468.5236" y1="-14100.0088" x2="646.134" y2="-13783.3525" gradientTransform="matrix(1 0 0 1 694 15472)">
			<stop  offset="0" style="stop-color:#522CD5"/>
			<stop  offset="0.4397" style="stop-color:#8A6FE8"/>
		</linearGradient>
		<path fill="url(#SVGID_3_)" d="M1373,1593.9c9.7,7.7,9.5,18.7,8.8,30.4l-2.3,35.8c-0.4,6.4-6,11.7-12.4,11.7l-116.8,0.5
			c-7.3,0-12.8-5.8-12.3-13.1l0.8-37.1c0.9-13.5-3.7-18.4-14.1-31.1c-17.9-21.7-70.7-140-65.7-217.1l57.5-0.3
			C1220.3,1419.5,1280.7,1521.1,1373,1593.9z"/>
		
			<radialGradient id="SVGID_4_" cx="-4257.645" cy="-7762.4502" r="6.0492" gradientTransform="matrix(20.3477 -9.260000e-02 9.260000e-02 20.3477 88656.2969 159095.875)" gradientUnits="userSpaceOnUse">
			<stop  offset="3.400000e-02" style="stop-color:#522CD5"/>
			<stop  offset="0.9955" style="stop-color:#8A6FE8"/>
		</radialGradient>
		<path fill="url(#SVGID_4_)" d="M1381.8,1624.3c0.6-8.2,0.7-16-2.5-22.6l-145.7,0.7c4,5.9,5.7,11.1,5.2,19.7l-0.8,37.1
			c-0.5,7.3,5,13.1,12.3,13.1l116.8-0.5c6.4,0,12-5.3,12.4-11.7L1381.8,1624.3z"/>
		
			<linearGradient id="SVGID_5_" gradientUnits="userSpaceOnUse" x1="103.6376" y1="-14380.5342" x2="172.368" y2="-14057.1787" gradientTransform="matrix(1 0 0 1 694 15472)">
			<stop  offset="0" style="stop-color:#522CD5"/>
			<stop  offset="0.4397" style="stop-color:#8A6FE8"/>
		</linearGradient>
		<path fill="url(#SVGID_5_)" d="M847.6,1418.8l-71.3-8.9l40.1-322.5l71.3,8.8L847.6,1418.8z"/>
		<path fill="#522CD5" d="M781.5,1371.7l56.5-0.3l15.6,302l-113.4,0.5c-8.6,0-14.3-6.9-12.7-15.6L781.5,1371.7z"/>
		
			<linearGradient id="SVGID_6_" gradientUnits="userSpaceOnUse" x1="48.7987" y1="-14073.0107" x2="202.8451" y2="-13779.4717" gradientTransform="matrix(1 0 0 1 694 15472)">
			<stop  offset="0" style="stop-color:#522CD5"/>
			<stop  offset="0.4397" style="stop-color:#8A6FE8"/>
		</linearGradient>
		<path fill="url(#SVGID_6_)" d="M945.7,1595.1c8.7,7.9,8.5,18,6.3,29.8l-6.8,36.2c-1.2,6.5-7.5,11.8-14,11.8l-162.2,0.8
			c-7.4,0-12.2-5.9-10.8-13.2l5.8-37.5c2.6-13.6,0.6-17.7,0.8-35.1c0.5-32.8,15.6-138.2,30.3-216.2l58.2-0.2
			C851.4,1417.6,871.5,1527.9,945.7,1595.1z"/>
		
			<radialGradient id="SVGID_7_" cx="-4294.1152" cy="-7736.1978" r="6.0492" gradientTransform="matrix(22.145 -0.1007 0.1006 22.1216 96734.3516 172246.2344)" gradientUnits="userSpaceOnUse">
			<stop  offset="3.400000e-02" style="stop-color:#522CD5"/>
			<stop  offset="0.9955" style="stop-color:#8A6FE8"/>
		</radialGradient>
		<path fill="url(#SVGID_7_)" d="M763.9,1622.9l-5.8,37.5c-1.4,7.3,3.5,13.3,10.8,13.2l162.2-0.7c6.5,0,12.8-5.3,14-11.8l6.8-36.2
			c1.6-8.6,2.1-16.2-1-22.8l-185.9,0.8C765.4,1609.6,765.5,1614.4,763.9,1622.9z"/>
		<path fill="#8A6FE8" d="M804,455.8L736.5,483l-18.4-73.1l48.4-19.5L804,455.8z"/>
		<path fill="#512BD4" d="M788.8,582c38.2,0,69.1-30.9,69.1-69.1s-30.9-69.1-69.1-69.1s-69.1,30.9-69.1,69.1
			C719.7,551,750.7,582,788.8,582z"/>
		
			<radialGradient id="SVGID_8_" cx="-4426.1196" cy="-7552.6758" r="6.0492" gradientTransform="matrix(61.9498 0 0 61.9498 275212.9375 468654.875)" gradientUnits="userSpaceOnUse">
			<stop  offset="0.4744" style="stop-color:#A08BE8"/>
			<stop  offset="0.8618" style="stop-color:#8065E0"/>
		</radialGradient>
		<path fill="url(#SVGID_8_)" d="M1300.2,939.7C1325,844.2,1309,768,1309,768h22.4l0.5-0.4c-32.2-175.2-185.6-307.9-370-307.9
			c-207.8,0-376.3,168.5-376.3,376.3s168.4,376.3,376.3,376.3c164,0,303.5-104.9,355-251.2C1318.4,954.8,1318.3,943.6,1300.2,939.7z
			"/>
		<path fill="#D8CFF7" d="M1286.4,1026.5H637.5c14.6,24.8,31.9,47.7,51.5,68.4h545.8C1254.5,1074.2,1271.8,1051.3,1286.4,1026.5z"/>
		
			<radialGradient id="SVGID_9_" cx="-4400.8481" cy="-7587.5444" r="6.0492" gradientTransform="matrix(48.2581 0 0 48.2581 213608.6562 366859.3438)" gradientUnits="userSpaceOnUse">
			<stop  offset="9.330000e-02" style="stop-color:#E1DFDD"/>
			<stop  offset="0.8998" style="stop-color:#FFFFFF"/>
		</radialGradient>
		<path fill="url(#SVGID_9_)" d="M1300.2,939.7c24.6-94.3,9.2-169.7,8.9-171.6H918.6c0,0-24.6-2.5-24.6,20s0.9,85.9,0.9,156.2
			c0,14.4,11.8,21.4,21.1,21.4C916.1,965.6,1256.6,965.6,1300.2,939.7z"/>
		<path fill="#A08BE8" d="M1065,939.9c0,0,60.1-47.5,71.8-56.3c11.7-8.8,22-9.3,32.7,0s70.8,56.3,70.8,56.3H1065z"/>
		<path fill="#512BD4" d="M1315.4,965.3c0,0,10.4-20.1-15.2-25.7c0-0.1-383.8-0.3-383.8-0.3c-8.9,0-20.4-5.3-21.4-14
			c0,6.2,0,12.5,0,18.8c0,13.1,9.8,20,18.5,21.2c0.9,0.1,1.8,0.2,2.7,0.2h26.2L1315.4,965.3z"/>
		<path fill="#512BD4" d="M1286.5,851.6c0.4-27.3-12.4-49.7-28.7-49.9s-29.8,21.7-30.2,49c-0.4,27.3,12.4,49.7,28.7,49.9
			C1272.6,900.9,1286.1,879,1286.5,851.6z"/>
		<path fill="#8065E0" d="M1256.7,825c-10.8,10.8-10.8,28.2,0,38.9c7.4,7.4,17.8,9.7,27.2,7c1.6-5.9,2.5-12.4,2.6-19.3
			c0.2-13.4-2.8-25.6-7.8-34.6C1270.9,816.4,1262.8,819,1256.7,825z"/>
		<path fill="#512BD4" d="M1020.8,900.9c16.3-0.2,29.1-22.6,28.7-49.9s-13.9-49.3-30.2-49c-16.2,0.2-29.1,22.6-28.7,49.9
			C991,879.2,1004.5,901.2,1020.8,900.9z"/>
		<path fill="#8065E0" d="M1019.8,826.6c-10.8,10.8-10.8,28.2,0,38.9c7.3,7.3,17.7,9.6,27,7c1.8-6.5,2.8-13.8,2.6-21.6
			c-0.2-12.4-3.1-23.7-7.7-32.3C1033.9,818,1025.8,820.6,1019.8,826.6z"/>
		<path fill="#512BD4" d="M1084.8,1115.2l123.2-0.6l-0.5-108.9l-123.2,0.6L1084.8,1115.2z"/>
		<path fill="#FFFFFF" d="M1106.1,1074.5c-0.8,0-1.5-0.3-2.1-0.8c-0.6-0.6-0.9-1.2-0.9-2c0-0.8,0.3-1.5,0.9-2
			c0.6-0.6,1.3-0.8,2.1-0.8c0.8,0,1.5,0.3,2.1,0.8c0.6,0.5,0.9,1.2,0.9,2s-0.3,1.4-0.9,2C1107.7,1074.2,1107,1074.5,1106.1,1074.5z"
			/>
		<path fill="#FFFFFF" d="M1138.9,1074h-5.3l-14.1-22.1c-0.3-0.5-0.7-1.2-0.9-1.8h-0.1c0.1,0.6,0.2,2,0.2,4.1l0,19.7h-4.7l-0.1-30.1
			h5.7l13.6,21.6c0.6,0.9,0.9,1.5,1.1,1.8h0.1c-0.2-0.8-0.2-2.2-0.2-4.1l0-19.4h4.7L1138.9,1074z"/>
		<path fill="#FFFFFF" d="M1161.8,1073.9l-16.5,0l-0.1-30.1l15.8,0v4.2l-10.9,0l0,8.5l10.1,0v4.2l-10.1,0l0,8.9l11.6,0
			L1161.8,1073.9L1161.8,1073.9z"/>
		<path fill="#FFFFFF" d="M1185.2,1048l-8.4,0l0.1,25.9h-4.9l-0.1-25.9l-8.4,0v-4.2l21.7-0.1L1185.2,1048z"/>
		<path fill="#8A6FE8" d="M529.4,1254.2l40.2,57.3c10.8,15.2,31.9,18.7,47.2,7.9c15.2-10.8,18.7-31.9,7.9-47.1L575,1203
			L529.4,1254.2z"/>
		<path fill="#8A6FE8" d="M460.1,1232.5l-11.1,69.2c-2.8,18.4,9.8,35.7,28.3,38.5c18.4,2.8,35.7-9.8,38.5-28.3l11.4-70.9
			L460.1,1232.5z"/>
		<path fill="#8A6FE8" d="M505,1240.3l-9.3,69.4c-2.4,18.5,10.8,35.4,29.2,37.8c18.5,2.4,35.4-10.8,37.8-29.2l9.6-71.2L505,1240.3z"
			/>
		<path fill="#8A6FE8" d="M442.7,1211.8l-25.1,65.4c-6.6,17.5,2.3,37,19.8,43.5c17.5,6.6,37-2.3,43.5-19.8l25.7-67.1L442.7,1211.8z"
			/>
		
			<linearGradient id="SVGID_10_" gradientUnits="userSpaceOnUse" x1="-100.8671" y1="-14612.4697" x2="-100.8671" y2="-14231.5801" gradientTransform="matrix(1 0 0 1 694 15472)">
			<stop  offset="0.2495" style="stop-color:#967FE6"/>
			<stop  offset="1" style="stop-color:#8A6FE8"/>
		</linearGradient>
		<path fill="url(#SVGID_10_)" d="M489.3,1240.4c-27.9-57-44.2-154.4,1.8-241.6c28-52.9,89.2-120,222.3-139.3l10.7,73.8
			c-80.8,11.7-138.5,46.4-167,100.3c-30.8,58.4-22.6,129.4-0.8,174L489.3,1240.4z"/>
		
			<radialGradient id="SVGID_11_" cx="-4110.0391" cy="-8072.1406" r="6.0492" gradientTransform="matrix(11.3989 0 0 11.3989 47586.6602 92874.9219)" gradientUnits="userSpaceOnUse">
			<stop  offset="0" style="stop-color:#8065E0"/>
			<stop  offset="1" style="stop-color:#512BD4"/>
		</radialGradient>
		<path fill="url(#SVGID_11_)" d="M739,954.1c38.1,0,68.9-30.8,68.9-68.9S777,816.3,739,816.3s-68.9,30.8-68.9,68.9
			C670.1,923.2,700.9,954.1,739,954.1z"/>
		
			<radialGradient id="SVGID_12_" cx="-4313.9429" cy="-7743.2979" r="6.0492" gradientTransform="matrix(22.7292 0 0 22.7292 98557.3438 177152.7031)" gradientUnits="userSpaceOnUse">
			<stop  offset="0" style="stop-color:#8065E0"/>
			<stop  offset="1" style="stop-color:#512BD4"/>
		</radialGradient>
		<path fill="url(#SVGID_12_)" d="M508.6,1277.3c39.1,0,70.8-31.7,70.8-70.8s-31.7-70.8-70.8-70.8s-70.8,31.7-70.8,70.8
			C437.9,1245.7,469.5,1277.3,508.6,1277.3z"/>
		<path fill="#D8CFF7" d="M739.7,415.8c-26.2,7-53.3-8.4-60.5-34.4c-7.2-26,8.2-52.7,34.5-59.7c26.2-7,53.3,8.4,60.5,34.4
			C781.4,382.1,766,408.8,739.7,415.8z"/>
	</g>
</g>
<g id="bot-base" display="none">
	<g display="inline">
		
			<radialGradient id="SVGID_13_" cx="-4426.1196" cy="-7552.6758" r="6.0492" gradientTransform="matrix(61.9498 0 0 61.9498 275212.9375 468654.875)" gradientUnits="userSpaceOnUse">
			<stop  offset="0.4744" style="stop-color:#A08BE8"/>
			<stop  offset="0.8618" style="stop-color:#8065E0"/>
		</radialGradient>
		<path fill="url(#SVGID_13_)" d="M1300.2,939.7C1325,844.2,1309,768,1309,768h22.4l0.5-0.4c-32.2-175.2-185.6-307.9-370-307.9
			c-207.8,0-376.3,168.5-376.3,376.3s168.4,376.3,376.3,376.3c164,0,303.5-104.9,355-251.2C1318.4,954.8,1318.3,943.6,1300.2,939.7z
			"/>
		<path fill="#D8CFF7" d="M1286.4,1026.5H637.5c14.6,24.8,31.9,47.7,51.5,68.4h545.8C1254.5,1074.2,1271.8,1051.3,1286.4,1026.5z"/>
		
			<radialGradient id="SVGID_14_" cx="-4400.8481" cy="-7587.5444" r="6.0492" gradientTransform="matrix(48.2581 0 0 48.2581 213608.6562 366859.3438)" gradientUnits="userSpaceOnUse">
			<stop  offset="9.330000e-02" style="stop-color:#E1DFDD"/>
			<stop  offset="0.8998" style="stop-color:#FFFFFF"/>
		</radialGradient>
		<path fill="url(#SVGID_14_)" d="M1300.2,939.7c24.6-94.3,9.2-169.7,8.9-171.6H918.6c0,0-24.6-2.5-24.6,20s0.9,85.9,0.9,156.2
			c0,14.4,11.8,21.4,21.1,21.4C916.1,965.6,1256.6,965.6,1300.2,939.7z"/>
		<path fill="#A08BE8" d="M1065,939.9c0,0,60.1-47.5,71.8-56.3c11.7-8.8,22-9.3,32.7,0s70.8,56.3,70.8,56.3H1065z"/>
		<path fill="#512BD4" d="M1315.4,965.3c0,0,10.4-20.1-15.2-25.7c0-0.1-383.8-0.3-383.8-0.3c-8.9,0-20.4-5.3-21.4-14
			c0,6.2,0,12.5,0,18.8c0,13.1,9.8,20,18.5,21.2c0.9,0.1,1.8,0.2,2.7,0.2h26.2L1315.4,965.3z"/>
		<path fill="#512BD4" d="M1084.8,1115.2l123.2-0.6l-0.5-108.9l-123.2,0.6L1084.8,1115.2z"/>
		<path fill="#FFFFFF" d="M1106.1,1074.5c-0.8,0-1.5-0.3-2.1-0.8c-0.6-0.6-0.9-1.2-0.9-2c0-0.8,0.3-1.5,0.9-2
			c0.6-0.6,1.3-0.8,2.1-0.8c0.8,0,1.5,0.3,2.1,0.8c0.6,0.5,0.9,1.2,0.9,2s-0.3,1.4-0.9,2C1107.7,1074.2,1107,1074.5,1106.1,1074.5z"
			/>
		<path fill="#FFFFFF" d="M1138.9,1074h-5.3l-14.1-22.1c-0.3-0.5-0.7-1.2-0.9-1.8h-0.1c0.1,0.6,0.2,2,0.2,4.1l0,19.7h-4.7l-0.1-30.1
			h5.7l13.6,21.6c0.6,0.9,0.9,1.5,1.1,1.8h0.1c-0.2-0.8-0.2-2.2-0.2-4.1l0-19.4h4.7L1138.9,1074z"/>
		<path fill="#FFFFFF" d="M1161.8,1073.9l-16.5,0l-0.1-30.1l15.8,0v4.2l-10.9,0l0,8.5l10.1,0v4.2l-10.1,0l0,8.9l11.6,0
			L1161.8,1073.9L1161.8,1073.9z"/>
		<path fill="#FFFFFF" d="M1185.2,1048l-8.4,0l0.1,25.9h-4.9l-0.1-25.9l-8.4,0v-4.2l21.7-0.1L1185.2,1048z"/>
	</g>
</g>
<g id="asset">
	<g>
		<g>
			<path fill="#DC624F" d="M489.2,1240.4c-27.9-57-44.2-154.4,1.8-241.6c28-52.9,89.2-120,222.3-139.3l10.7,73.8
				c-80.8,11.7-138.5,46.4-167,100.3c-30.8,58.4-22.6,129.4-0.8,174L489.2,1240.4z"/>
			<path fill="#CC5444" d="M738.9,954.1c38.1,0,68.9-30.8,68.9-68.9s-30.8-68.9-68.9-68.9S670,847.1,670,885.2
				C670,923.2,700.8,954.1,738.9,954.1z"/>
			<path fill="#B77125" d="M636.4,1236.7l-14.8-12.6c-64.4-64.4-66.6-103.4-65.8-109.7c0.8-6.5-108.9,14.6-108.9,14.6
				s7.1,16.1-2.2,52.7c-9.1,35.5-17.8,59.2-27.3,90.5l-2.1,5.4c-6.6,17.5,2.3,37,19.8,43.5c5,1.9,10.2,2.5,15.2,2
				c4.9,9,13.7,15.8,24.7,17.4c9.1,1.4,17.9-1,24.8-6c5.3,7.1,13.3,12.1,22.8,13.3c18.5,2.4,35.4-10.8,37.8-29.2l7.1-52.4l24.8,21.7
				c14.1,12.2,35.5,10.6,47.7-3.6C652.2,1270.2,650.5,1248.8,636.4,1236.7z"/>
			<path fill="#FFE5B9" d="M553.1,1122.1l-102.6,13.7c-4.4,0.6-8.4-2.5-9-6.9l-0.7-5c-0.6-4.4,2.5-8.4,6.9-9l102.6-13.7
				c4.4-0.6,8.4,2.5,9,6.9l0.7,5C560.5,1117.5,557.4,1121.5,553.1,1122.1z"/>
		</g>
		<g>
			<path fill="#DC624F" d="M1313.3,971.2c-6.8,17.3-19.6,44.2-31,62.1c57.5,54.7,142.1,97.3,186.9,100.9l5.6-67.6
				C1436.5,1063.5,1355.8,1016.7,1313.3,971.2z"/>
			<path fill="#B77125" d="M1544.6,981.8c-10.1-13.6-29.3-16.3-42.8-6.1l-62.5,46.9c-8.9,5.2-22.8,10.9-30.2,7.9l-36.3,76.7
				c0,0,14.4,29.8,64.3,55.4c14.4,7.4,61-69.1,70.1-114.5l31.3-23.6C1552,1014.5,1554.7,995.3,1544.6,981.8z"/>
			<g>
				<g>
					<path fill="#6D6A66" d="M1371.1,1445.3l-2.8-6.4c24.6-10.9,39.9-21.6,50.5-47.4c9.6-23.3,14.8-58.1,16.9-113.3
						c-13.8-28.3-21.2-63-21.5-100.6c-0.3-30.8,7-57.5,21.5-79.4c6.2-9.3,13.7-17.8,22.4-25.3c6.8-11.4,15.8-20.3,27.6-30.8
						c9.7-8.5,22.2-10.4,36-5.6c3.1,0,6.2,0.2,9.3,0.7c21.4-5.3,40-6.8,49.6-7.2c23.2-0.9,46.3,6.9,66.9,22.8
						c15.5,11.9,24,24,24.3,24.5l-5.7,4c-0.3-0.5-33.1-46.4-85.2-44.3c-7.5,0.3-20.7,1.3-36.5,4.4c8.9,4.1,17.6,10.7,25.7,19.7
						c22.3,24.8,38.9,65.7,45.7,112.3c7.1,49.1,2.2,96.3-13.9,132.7c-22,49.8-45.4,75.1-69.3,75.1c0,0-0.1,0-0.1,0
						c-20.6-0.1-40.4-18.5-59.1-54.8c-11.6-9-22.2-21.4-31.1-36.2c-2.4,49.4-7.8,81.6-16.9,103.9
						C1413.8,1422,1396.7,1434,1371.1,1445.3z M1485.7,1334.7c15.3,26.1,31.2,39.7,46.7,39.7c0,0,0,0,0.1,0
						c20.9,0,42.1-23.9,62.9-71c31.7-71.8,14.2-175.9-22.4-227.4c1.4,2.3,2.7,4.8,4,7.5c4.5,9.3,8.3,20.2,11.2,32.5
						c9.9,26,18.8,64.8,13.9,114.5c-2.9,29.2-10.3,57.4-21,79.4c-11.7,24.1-26,38.4-41.4,41.2c-10.3,1.9-19.7-1.6-28.1-8
						c-6.6-0.7-13.2-2.5-19.8-5.4C1489.7,1336.7,1487.7,1335.8,1485.7,1334.7z M1525.2,1342.8c4.4,1.6,8.8,2,13.1,1.2
						c12.9-2.3,25.8-15.6,36.4-37.3c10.3-21.2,17.5-48.6,20.3-77c1.8-18.6,1.7-35.6,0.2-51c0.2,12.7-0.3,25.8-1.5,39
						c-4.5,51.3-18.5,93.4-36.5,109.8C1547.9,1336.2,1536.9,1341.3,1525.2,1342.8z M1514.1,1336.2c14,1,27.3-3.7,38.5-13.9
						c16.7-15.2,29.8-55.6,34.2-105.2c3.2-36.2,1.2-71-5.4-99c-1.2-3.2-2.4-6.2-3.7-8.9c-9.9-22.7-23.6-41.9-38.3-54.1
						c-6.7-2.3-14-2.7-21.9-1.3c-26.3,4.5-46.1,18.9-58.9,42.7c-0.4,0.8-0.9,1.7-1.3,2.5c-8.1,23.9-9.9,54.2-5.3,88.4
						c5,36.6,17,74.8,34.6,110.4C1495.6,1315.7,1504.8,1328.6,1514.1,1336.2z M1478.8,1321.9c5.1,3.8,10.3,6.9,15.7,9.2
						c2.4,1.1,4.9,2,7.3,2.7c-8.6-9.6-15.8-21.7-21.4-33.1c-17.9-36.3-30.1-75.2-35.2-112.5c-0.1-0.5-0.1-1-0.2-1.5
						c-0.2,6.1-0.5,12.6-0.7,19.4c4.1,35.2,14.2,70.6,26.8,99.5C1473.7,1311.4,1476.2,1316.9,1478.8,1321.9z M1442.7,1276.7
						c0.5,0.9,0.9,1.9,1.4,2.8c6.1,11.6,13.2,21.8,21.1,30.3c-0.2-0.4-0.4-0.9-0.6-1.3c-9-20.6-16.2-42.7-21.2-65c0,0.8,0,1.5,0,2.3
						C1443.3,1256.7,1443.1,1267,1442.7,1276.7z M1449.9,1090.9c-19.4,22.6-29,51.6-28.7,86.7c0.3,30.9,5.4,59.6,15,84.3
						c0.1-5.2,0.2-10.7,0.3-16.2c0.2-14.1,0.5-27.1,0.8-39c-0.4-3.6-0.8-7.2-1-10.8c-2.6-32.6,0.4-61.6,8.5-85.1
						C1446.2,1103.3,1447.9,1096.8,1449.9,1090.9z M1543.2,1049c0.8,0.3,1.5,0.6,2.2,0.9c-1-0.6-2.1-1.1-3.1-1.6
						C1542.6,1048.5,1542.9,1048.8,1543.2,1049z M1525.8,1045.9c-0.1,0-0.3,0.1-0.4,0.1c0.2,0,0.4,0,0.6,0
						C1525.9,1046,1525.8,1045.9,1525.8,1045.9z"/>
				</g>
				<g>
					<path fill="#6D6A66" d="M1463.3,1345.7c-2.1,0-4.2-0.1-6.3-0.4c-19.8-2.5-34.9-17.3-42.6-41.6c-10.7-33.8-13.8-71.8-8.9-109.7
						c4.6-35.9,16.3-70,32.9-96.1c19.5-30.6,44.3-48.6,71.5-52.2l0,0c19.4-2.5,36.5,6.8,49.4,27c14.8,23.1,23.2,58.7,22.9,97.8
						c-0.3,40.1-9.9,78.4-26.4,104.9C1528.3,1319.4,1493.5,1345.7,1463.3,1345.7z M1510.3,1049.2l0.4,3.5
						c-25.1,3.2-48.1,20.2-66.5,49c-16.1,25.2-27.4,58.3-31.9,93.2c-4.7,37-1.7,73.9,8.6,106.7c6.9,21.9,19.7,34.6,36.8,36.8
						c28.4,3.6,64.5-22.6,91.9-66.6c15.9-25.4,25.1-62.3,25.4-101.2c0.3-37.2-7.9-72.3-21.8-94c-7.9-12.3-21.8-26.5-42.6-23.8
						L1510.3,1049.2z"/>
				</g>
				<g>
					<path fill="#6D6A66" d="M1678.1,1097.5c-3.6,2.2-8.2,1.3-10.7-2.1c-4.6-6.2-12.8-16.2-24.1-25.5c-20.6-17-42.2-24.7-64.4-22.8
						c-4.1,0.3-7.8-2.6-8.6-6.7l-1.5-8.7c-0.8-4.7,2.5-9.1,7.3-9.5c29.1-2.7,57.9,7.2,83.8,28.9c13.2,11,22.8,22.7,28.1,30
						c2.8,3.8,1.8,9.2-2.3,11.7L1678.1,1097.5z"/>
				</g>
			</g>
			<path fill="#B77125" d="M1551.2,1046.6l-57.5,4.4c-16.9,1.2-29.6,15.8-28.4,32.7c1.2,16.9,15.8,29.6,32.6,28.4l57.5-4.4
				c16.9-1.2,29.6-15.8,28.4-32.7C1582.7,1058.1,1568,1045.3,1551.2,1046.6z"/>
			<path fill="#B77125" d="M1538.1,1090.4l-57.5,4.4c-16.9,1.2-29.6,15.8-28.4,32.7c1.2,16.9,15.8,29.6,32.6,28.4l57.5-4.4
				c16.9-1.2,29.6-15.8,28.4-32.7C1569.6,1102,1554.9,1089.2,1538.1,1090.4z"/>
			<path fill="#B77125" d="M1510.5,1125.7l-57.5,4.4c-16.9,1.2-29.6,15.8-28.4,32.7c1.2,16.9,15.8,29.6,32.6,28.4l57.5-4.4
				c16.9-1.2,29.6-15.8,28.4-32.7C1542.1,1137.3,1527.4,1124.5,1510.5,1125.7z"/>
			<path fill="#FFE5B9" d="M1412,1031.8l-35.8,78.5c-1.7,3.7-6.1,5.3-9.8,3.7l-5.7-2.6c-3.7-1.7-5.3-6.1-3.7-9.8l35.8-78.5
				c1.7-3.7,6.1-5.3,9.8-3.7l5.7,2.6C1412,1023.7,1413.7,1028.1,1412,1031.8z"/>
		</g>
	</g>
</g>
</svg>
