<?xml version="1.0" encoding="utf-8"?>
<!-- Generator: Adobe Illustrator 24.2.0, SVG Export Plug-In . SVG Version: 6.00 Build 0)  -->
<svg version="1.1" id="Layer_1" xmlns="http://www.w3.org/2000/svg" xmlns:xlink="http://www.w3.org/1999/xlink" x="0px" y="0px"
	 viewBox="0 0 2000 2000" enable-background="new 0 0 2000 2000" xml:space="preserve">
<g id="ghost-image" display="none">
	<g display="inline" opacity="0.5">
		<path fill="#8A6FE8" d="M1469,1134.6c-57.7-4.7-181.3-73.8-228.1-150.4c-28.4-46.5,24.8-83.6,53.8-36.2
			c31.4,51.3,134.8,115.2,179.9,118.9L1469,1134.6z"/>
		<path fill="#8A6FE8" d="M1525,1005.7l-88.7,33.7c-15.8,6-23.7,23.7-17.8,39.5c6,15.8,23.7,23.7,39.5,17.8l88.7-33.7
			c15.8-6,23.7-23.7,17.8-39.5C1558.6,1007.6,1540.8,999.6,1525,1005.7z"/>
		<path fill="#8A6FE8" d="M1416.4,1155.1l37.8,51.4c10.2,13.6,29.4,16.4,43.1,6.3c13.6-10.2,16.4-29.4,6.3-43.1l-38.8-52.7
			L1416.4,1155.1z"/>
		<path fill="#8A6FE8" d="M1450.7,1158.2l76.8,42.9c14.9,8.2,33.6,2.9,41.8-12c8.2-14.8,2.9-33.6-12-41.8l-57-32.1L1450.7,1158.2z"
			/>
		<path fill="#8A6FE8" d="M1460.3,1121.8l84.6,24.4c16.3,4.7,33.4-4.7,38.2-21c4.7-16.3-4.7-33.4-21-38.2l-86.2-24.9L1460.3,1121.8z
			"/>
		
			<radialGradient id="SVGID_1_" cx="2499.333" cy="-8097.9277" r="6.0501" gradientTransform="matrix(10.6515 0 0 10.6515 -25170.0703 87358.8125)" gradientUnits="userSpaceOnUse">
			<stop  offset="0" style="stop-color:#8065E0"/>
			<stop  offset="1" style="stop-color:#512BD4"/>
		</radialGradient>
		<path fill="url(#SVGID_1_)" d="M1451.6,1168.2c35.6,0,64.4-28.8,64.4-64.4c0-35.6-28.9-64.4-64.4-64.4
			c-35.6,0-64.4,28.8-64.4,64.4C1387.1,1139.3,1416,1168.2,1451.6,1168.2z"/>
		
			<linearGradient id="SVGID_2_" gradientUnits="userSpaceOnUse" x1="432.5013" y1="-14376.1826" x2="492.2793" y2="-14091.4707" gradientTransform="matrix(1 0 0 1 694 15472)">
			<stop  offset="0" style="stop-color:#522CD5"/>
			<stop  offset="0.4397" style="stop-color:#8A6FE8"/>
		</linearGradient>
		<path fill="url(#SVGID_2_)" d="M1216.5,1374.2c0.7-59.8-7.8-181.1-69.5-282.6l-60.3,36.6c56,92.1,60.2,199.7,58.9,246.6
			C1145.4,1378.6,1181.6,1382.1,1216.5,1374.2z"/>
		<path fill="#522CD5" d="M1145.5,1374.1l55.8-0.3l52.1,298.7l-112.1,0.5c-8.5,0-15-6.8-14.4-15.4L1145.5,1374.1z"/>
		
			<linearGradient id="SVGID_3_" gradientUnits="userSpaceOnUse" x1="468.5236" y1="-14100.0088" x2="646.134" y2="-13783.3525" gradientTransform="matrix(1 0 0 1 694 15472)">
			<stop  offset="0" style="stop-color:#522CD5"/>
			<stop  offset="0.4397" style="stop-color:#8A6FE8"/>
		</linearGradient>
		<path fill="url(#SVGID_3_)" d="M1373,1593.9c9.7,7.7,9.5,18.7,8.8,30.4l-2.3,35.8c-0.4,6.4-6,11.7-12.4,11.7l-116.8,0.5
			c-7.3,0-12.8-5.8-12.3-13.1l0.8-37.1c0.9-13.5-3.7-18.4-14.1-31.1c-17.9-21.7-70.7-140-65.7-217.1l57.5-0.3
			C1220.3,1419.5,1280.7,1521.1,1373,1593.9z"/>
		
			<radialGradient id="SVGID_4_" cx="2590.4158" cy="-7764.0615" r="6.0492" gradientTransform="matrix(20.3477 -9.260000e-02 9.260000e-02 20.3477 -50685.7539 159762.7656)" gradientUnits="userSpaceOnUse">
			<stop  offset="3.400000e-02" style="stop-color:#522CD5"/>
			<stop  offset="0.9955" style="stop-color:#8A6FE8"/>
		</radialGradient>
		<path fill="url(#SVGID_4_)" d="M1381.8,1624.3c0.6-8.2,0.7-16-2.5-22.6l-145.7,0.7c4,5.9,5.7,11.1,5.2,19.7l-0.8,37.1
			c-0.5,7.3,5,13.1,12.3,13.1l116.8-0.5c6.4,0,12-5.3,12.4-11.7L1381.8,1624.3z"/>
		
			<linearGradient id="SVGID_5_" gradientUnits="userSpaceOnUse" x1="103.6376" y1="-14380.5342" x2="172.368" y2="-14057.1787" gradientTransform="matrix(1 0 0 1 694 15472)">
			<stop  offset="0" style="stop-color:#522CD5"/>
			<stop  offset="0.4397" style="stop-color:#8A6FE8"/>
		</linearGradient>
		<path fill="url(#SVGID_5_)" d="M847.6,1418.8l-71.3-8.9l40.1-322.5l71.3,8.8L847.6,1418.8z"/>
		<path fill="#522CD5" d="M781.5,1371.7l56.5-0.3l15.6,302l-113.4,0.5c-8.6,0-14.3-6.9-12.7-15.6L781.5,1371.7z"/>
		
			<linearGradient id="SVGID_6_" gradientUnits="userSpaceOnUse" x1="48.7987" y1="-14073.0107" x2="202.8451" y2="-13779.4717" gradientTransform="matrix(1 0 0 1 694 15472)">
			<stop  offset="0" style="stop-color:#522CD5"/>
			<stop  offset="0.4397" style="stop-color:#8A6FE8"/>
		</linearGradient>
		<path fill="url(#SVGID_6_)" d="M945.7,1595.1c8.7,7.9,8.5,18,6.3,29.8l-6.8,36.2c-1.2,6.5-7.5,11.8-14,11.8l-162.2,0.8
			c-7.4,0-12.2-5.9-10.8-13.2l5.8-37.5c2.6-13.6,0.6-17.7,0.8-35.1c0.5-32.8,15.6-138.2,30.3-216.2l58.2-0.2
			C851.4,1417.6,871.5,1527.9,945.7,1595.1z"/>
		
			<radialGradient id="SVGID_7_" cx="2582.6711" cy="-7737.6782" r="6.0492" gradientTransform="matrix(22.145 -0.1007 0.1006 22.1216 -55551.7383 172971.6719)" gradientUnits="userSpaceOnUse">
			<stop  offset="3.400000e-02" style="stop-color:#522CD5"/>
			<stop  offset="0.9955" style="stop-color:#8A6FE8"/>
		</radialGradient>
		<path fill="url(#SVGID_7_)" d="M763.9,1622.9l-5.8,37.5c-1.4,7.3,3.5,13.3,10.8,13.2l162.2-0.7c6.5,0,12.8-5.3,14-11.8l6.8-36.2
			c1.6-8.6,2.1-16.2-1-22.8l-185.9,0.8C765.4,1609.6,765.5,1614.4,763.9,1622.9z"/>
		<path fill="#8A6FE8" d="M804,455.8L736.5,483l-18.4-73.1l48.4-19.5L804,455.8z"/>
		<path fill="#512BD4" d="M788.8,582c38.2,0,69.1-30.9,69.1-69.1s-30.9-69.1-69.1-69.1s-69.1,30.9-69.1,69.1
			C719.7,551,750.7,582,788.8,582z"/>
		
			<radialGradient id="SVGID_8_" cx="2659.6248" cy="-7552.6758" r="6.0492" gradientTransform="matrix(61.9498 0 0 61.9498 -163747.5312 468654.875)" gradientUnits="userSpaceOnUse">
			<stop  offset="0.4744" style="stop-color:#A08BE8"/>
			<stop  offset="0.8618" style="stop-color:#8065E0"/>
		</radialGradient>
		<path fill="url(#SVGID_8_)" d="M1300.2,939.7C1325,844.2,1309,768,1309,768h22.4l0.5-0.4c-32.2-175.2-185.6-307.9-370-307.9
			c-207.8,0-376.3,168.5-376.3,376.3s168.4,376.3,376.3,376.3c164,0,303.5-104.9,355-251.2C1318.4,954.8,1318.3,943.6,1300.2,939.7z
			"/>
		<path fill="#D8CFF7" d="M1286.4,1026.5H637.5c14.6,24.8,31.9,47.7,51.5,68.4h545.8C1254.5,1074.2,1271.8,1051.3,1286.4,1026.5z"/>
		
			<radialGradient id="SVGID_9_" cx="2651.9128" cy="-7587.5444" r="6.0492" gradientTransform="matrix(48.2581 0 0 48.2581 -126744.1641 366859.3438)" gradientUnits="userSpaceOnUse">
			<stop  offset="9.330000e-02" style="stop-color:#E1DFDD"/>
			<stop  offset="0.8998" style="stop-color:#FFFFFF"/>
		</radialGradient>
		<path fill="url(#SVGID_9_)" d="M1300.2,939.7c24.6-94.3,9.2-169.7,8.9-171.6H918.6c0,0-24.6-2.5-24.6,20s0.9,85.9,0.9,156.2
			c0,14.4,11.8,21.4,21.1,21.4C916.1,965.6,1256.6,965.6,1300.2,939.7z"/>
		<path fill="#A08BE8" d="M1065,939.9c0,0,60.1-47.5,71.8-56.3c11.7-8.8,22-9.3,32.7,0s70.8,56.3,70.8,56.3H1065z"/>
		<path fill="#512BD4" d="M1315.4,965.3c0,0,10.4-20.1-15.2-25.7c0-0.1-383.8-0.3-383.8-0.3c-8.9,0-20.4-5.3-21.4-14
			c0,6.2,0,12.5,0,18.8c0,13.1,9.8,20,18.5,21.2c0.9,0.1,1.8,0.2,2.7,0.2h26.2L1315.4,965.3z"/>
		<path fill="#512BD4" d="M1286.5,851.6c0.4-27.3-12.4-49.7-28.7-49.9s-29.8,21.7-30.2,49c-0.4,27.3,12.4,49.7,28.7,49.9
			C1272.6,900.9,1286.1,879,1286.5,851.6z"/>
		<path fill="#8065E0" d="M1256.7,825c-10.8,10.8-10.8,28.2,0,38.9c7.4,7.4,17.8,9.7,27.2,7c1.6-5.9,2.5-12.4,2.6-19.3
			c0.2-13.4-2.8-25.6-7.8-34.6C1270.9,816.4,1262.8,819,1256.7,825z"/>
		<path fill="#512BD4" d="M1020.8,900.9c16.3-0.2,29.1-22.6,28.7-49.9s-13.9-49.3-30.2-49c-16.2,0.2-29.1,22.6-28.7,49.9
			C991,879.2,1004.5,901.2,1020.8,900.9z"/>
		<path fill="#8065E0" d="M1019.8,826.6c-10.8,10.8-10.8,28.2,0,38.9c7.3,7.3,17.7,9.6,27,7c1.8-6.5,2.8-13.8,2.6-21.6
			c-0.2-12.4-3.1-23.7-7.7-32.3C1033.9,818,1025.8,820.6,1019.8,826.6z"/>
		<path fill="#512BD4" d="M1084.8,1115.2l123.2-0.6l-0.5-108.9l-123.2,0.6L1084.8,1115.2z"/>
		<path fill="#FFFFFF" d="M1106.1,1074.5c-0.8,0-1.5-0.3-2.1-0.8c-0.6-0.6-0.9-1.2-0.9-2c0-0.8,0.3-1.5,0.9-2
			c0.6-0.6,1.3-0.8,2.1-0.8c0.8,0,1.5,0.3,2.1,0.8c0.6,0.5,0.9,1.2,0.9,2s-0.3,1.4-0.9,2C1107.7,1074.2,1107,1074.5,1106.1,1074.5z"
			/>
		<path fill="#FFFFFF" d="M1138.9,1074h-5.3l-14.1-22.1c-0.3-0.5-0.7-1.2-0.9-1.8h-0.1c0.1,0.6,0.2,2,0.2,4.1l0,19.7h-4.7l-0.1-30.1
			h5.7l13.6,21.6c0.6,0.9,0.9,1.5,1.1,1.8h0.1c-0.2-0.8-0.2-2.2-0.2-4.1l0-19.4h4.7L1138.9,1074z"/>
		<path fill="#FFFFFF" d="M1161.8,1073.9l-16.5,0l-0.1-30.1l15.8,0v4.2l-10.9,0l0,8.5l10.1,0v4.2l-10.1,0l0,8.9l11.6,0
			L1161.8,1073.9L1161.8,1073.9z"/>
		<path fill="#FFFFFF" d="M1185.2,1048l-8.4,0l0.1,25.9h-4.9l-0.1-25.9l-8.4,0v-4.2l21.7-0.1L1185.2,1048z"/>
		<path fill="#8A6FE8" d="M529.4,1254.2l40.2,57.3c10.8,15.2,31.9,18.7,47.2,7.9c15.2-10.8,18.7-31.9,7.9-47.1L575,1203
			L529.4,1254.2z"/>
		<path fill="#8A6FE8" d="M460.1,1232.5l-11.1,69.2c-2.8,18.4,9.8,35.7,28.3,38.5c18.4,2.8,35.7-9.8,38.5-28.3l11.4-70.9
			L460.1,1232.5z"/>
		<path fill="#8A6FE8" d="M505,1240.3l-9.3,69.4c-2.4,18.5,10.8,35.4,29.2,37.8c18.5,2.4,35.4-10.8,37.8-29.2l9.6-71.2L505,1240.3z"
			/>
		<path fill="#8A6FE8" d="M442.7,1211.8l-25.1,65.4c-6.6,17.5,2.3,37,19.8,43.5c17.5,6.6,37-2.3,43.5-19.8l25.7-67.1L442.7,1211.8z"
			/>
		
			<linearGradient id="SVGID_10_" gradientUnits="userSpaceOnUse" x1="-100.8671" y1="-14612.4697" x2="-100.8671" y2="-14231.5801" gradientTransform="matrix(1 0 0 1 694 15472)">
			<stop  offset="0.2495" style="stop-color:#967FE6"/>
			<stop  offset="1" style="stop-color:#8A6FE8"/>
		</linearGradient>
		<path fill="url(#SVGID_10_)" d="M489.3,1240.4c-27.9-57-44.2-154.4,1.8-241.6c28-52.9,89.2-120,222.3-139.3l10.7,73.8
			c-80.8,11.7-138.5,46.4-167,100.3c-30.8,58.4-22.6,129.4-0.8,174L489.3,1240.4z"/>
		
			<radialGradient id="SVGID_11_" cx="2460.1455" cy="-8072.1406" r="6.0492" gradientTransform="matrix(11.3989 0 0 11.3989 -27306.2188 92874.9219)" gradientUnits="userSpaceOnUse">
			<stop  offset="0" style="stop-color:#8065E0"/>
			<stop  offset="1" style="stop-color:#512BD4"/>
		</radialGradient>
		<path fill="url(#SVGID_11_)" d="M739,954.1c38.1,0,68.9-30.8,68.9-68.9S777,816.3,739,816.3s-68.9,30.8-68.9,68.9
			C670.1,923.2,700.9,954.1,739,954.1z"/>
		
			<radialGradient id="SVGID_12_" cx="2571.196" cy="-7743.2979" r="6.0492" gradientTransform="matrix(22.7292 0 0 22.7292 -57936.3555 177152.7031)" gradientUnits="userSpaceOnUse">
			<stop  offset="0" style="stop-color:#8065E0"/>
			<stop  offset="1" style="stop-color:#512BD4"/>
		</radialGradient>
		<path fill="url(#SVGID_12_)" d="M508.6,1277.3c39.1,0,70.8-31.7,70.8-70.8s-31.7-70.8-70.8-70.8s-70.8,31.7-70.8,70.8
			C437.9,1245.7,469.5,1277.3,508.6,1277.3z"/>
		<path fill="#D8CFF7" d="M739.7,415.8c-26.2,7-53.3-8.4-60.5-34.4c-7.2-26,8.2-52.7,34.5-59.7c26.2-7,53.3,8.4,60.5,34.4
			C781.4,382.1,766,408.8,739.7,415.8z"/>
	</g>
</g>
<g id="bot-base" display="none">
	<g display="inline">
		
			<radialGradient id="SVGID_13_" cx="2659.6248" cy="-7552.6758" r="6.0492" gradientTransform="matrix(61.9498 0 0 61.9498 -163747.5312 468654.875)" gradientUnits="userSpaceOnUse">
			<stop  offset="0.4744" style="stop-color:#A08BE8"/>
			<stop  offset="0.8618" style="stop-color:#8065E0"/>
		</radialGradient>
		<path fill="url(#SVGID_13_)" d="M1300.2,939.7C1325,844.2,1309,768,1309,768h22.4l0.5-0.4c-32.2-175.2-185.6-307.9-370-307.9
			c-207.8,0-376.3,168.5-376.3,376.3s168.4,376.3,376.3,376.3c164,0,303.5-104.9,355-251.2C1318.4,954.8,1318.3,943.6,1300.2,939.7z
			"/>
		<path fill="#D8CFF7" d="M1286.4,1026.5H637.5c14.6,24.8,31.9,47.7,51.5,68.4h545.8C1254.5,1074.2,1271.8,1051.3,1286.4,1026.5z"/>
		
			<radialGradient id="SVGID_14_" cx="2651.9128" cy="-7587.5444" r="6.0492" gradientTransform="matrix(48.2581 0 0 48.2581 -126744.1641 366859.3438)" gradientUnits="userSpaceOnUse">
			<stop  offset="9.330000e-02" style="stop-color:#E1DFDD"/>
			<stop  offset="0.8998" style="stop-color:#FFFFFF"/>
		</radialGradient>
		<path fill="url(#SVGID_14_)" d="M1300.2,939.7c24.6-94.3,9.2-169.7,8.9-171.6H918.6c0,0-24.6-2.5-24.6,20s0.9,85.9,0.9,156.2
			c0,14.4,11.8,21.4,21.1,21.4C916.1,965.6,1256.6,965.6,1300.2,939.7z"/>
		<path fill="#A08BE8" d="M1065,939.9c0,0,60.1-47.5,71.8-56.3c11.7-8.8,22-9.3,32.7,0s70.8,56.3,70.8,56.3H1065z"/>
		<path fill="#512BD4" d="M1315.4,965.3c0,0,10.4-20.1-15.2-25.7c0-0.1-383.8-0.3-383.8-0.3c-8.9,0-20.4-5.3-21.4-14
			c0,6.2,0,12.5,0,18.8c0,13.1,9.8,20,18.5,21.2c0.9,0.1,1.8,0.2,2.7,0.2h26.2L1315.4,965.3z"/>
		<path fill="#512BD4" d="M1084.8,1115.2l123.2-0.6l-0.5-108.9l-123.2,0.6L1084.8,1115.2z"/>
		<path fill="#FFFFFF" d="M1106.1,1074.5c-0.8,0-1.5-0.3-2.1-0.8c-0.6-0.6-0.9-1.2-0.9-2c0-0.8,0.3-1.5,0.9-2
			c0.6-0.6,1.3-0.8,2.1-0.8c0.8,0,1.5,0.3,2.1,0.8c0.6,0.5,0.9,1.2,0.9,2s-0.3,1.4-0.9,2C1107.7,1074.2,1107,1074.5,1106.1,1074.5z"
			/>
		<path fill="#FFFFFF" d="M1138.9,1074h-5.3l-14.1-22.1c-0.3-0.5-0.7-1.2-0.9-1.8h-0.1c0.1,0.6,0.2,2,0.2,4.1l0,19.7h-4.7l-0.1-30.1
			h5.7l13.6,21.6c0.6,0.9,0.9,1.5,1.1,1.8h0.1c-0.2-0.8-0.2-2.2-0.2-4.1l0-19.4h4.7L1138.9,1074z"/>
		<path fill="#FFFFFF" d="M1161.8,1073.9l-16.5,0l-0.1-30.1l15.8,0v4.2l-10.9,0l0,8.5l10.1,0v4.2l-10.1,0l0,8.9l11.6,0
			L1161.8,1073.9L1161.8,1073.9z"/>
		<path fill="#FFFFFF" d="M1185.2,1048l-8.4,0l0.1,25.9h-4.9l-0.1-25.9l-8.4,0v-4.2l21.7-0.1L1185.2,1048z"/>
	</g>
</g>
<g id="asset">
	<g>
		<g>
			<path fill="#0064DA" d="M1290.3,1019.8c-10.9,19.5-23.6,38-37.7,55.1c57.4,53.3,139.8,94.4,183.8,98l5.6-67.6
				C1406.4,1102.4,1334.5,1061.9,1290.3,1019.8z"/>
			<path fill="#E75153" d="M1622.8,1204.2c-1.8-3.9-24.7-18.1-59.9-21.2c20.1-49.9,21.2-91.4-7.1-92.3
				c-113.9-2.8-159.6-22.3-159.6-22.3s-25.7,64.9-32,98.6c65.1,29.8,80,88.7,124.6,105.1c0.4,0.2,0.8,0.4,1.2,0.6
				c30.6,12.2,59.2-3.3,59.2-3.3s20.1,2.2,32.9-1.1c12.8-3.3,17.9-16.7,17.9-16.7s19-3.9,24-12.8
				C1629,1229.6,1627.2,1213.7,1622.8,1204.2z"/>
			<path fill="#58585A" d="M1617.2,1205.3l-174.1-39.3c-11-2.4-17.9-13.3-15.5-24.4l2-9.2c2.4-11,13.3-17.9,24.4-15.5l174.1,39.3
				c11,2.4,17.9,13.3,15.5,24.4l-2,9.2C1639.1,1200.8,1628.2,1207.7,1617.2,1205.3z"/>
			<path fill="#E75153" d="M1573.8,1257.5l-4.2,2.4c-11.7,6.7-26.5,2.7-33.3-8.9l-31.7-59.9c-6.7-11.7-2.7-26.5,8.9-33.3l4.2-2.4
				c11.7-6.7,26.5-2.7,33.3,8.9l31.7,59.9C1589.4,1235.9,1585.4,1250.8,1573.8,1257.5z"/>
			<path fill="#E75153" d="M1522,1257.9l-4.2,2.4c-11.7,6.7-26.5,2.7-33.3-8.9l-31.4-57.3c-6.7-11.7-2.7-26.5,8.9-33.3l4.2-2.4
				c11.7-6.7,26.5-2.7,33.3,8.9l31.4,57.3C1537.6,1236.2,1533.7,1251.2,1522,1257.9z"/>
			<path fill="#E75153" d="M1528.1,1089.4l67.7,2.4c13.4,0,24.4,10.9,24.4,24.3l0,4.9c0,13.4-10.9,24.4-24.3,24.4
				c0,0-59,6-123.7-29.7C1435.1,1095.3,1514.7,1089.4,1528.1,1089.4z"/>
			<path fill="#ED9583" d="M1383.5,1062.2l-40,97.2c-3,7.1,0.4,15.2,7.4,18.1l2.9,1.2c7.1,3,15.2-0.4,18.1-7.4l40-97.2
				c3-7.1-0.4-15.2-7.4-18.1l-2.9-1.2C1394.6,1051.8,1386.5,1055.1,1383.5,1062.2z"/>
			<path fill="#808080" d="M1242.7,1086.4c-3.4,3.8-6.9,7.6-10.5,11.3c-0.4,0.6-0.8,1.1-1.1,1.5l196.3,43.3c0.1-0.3,0.1-0.6,0.2-0.9
				l2-9.2c0.3-1.6,0.9-3.1,1.6-4.5L1242.7,1086.4z"/>
			<path fill="#E75153" d="M1623.4,1255.6l-4.2,2.4c-11.7,6.7-26.5,2.7-33.3-8.9l-31.7-59.9c-6.7-11.7-2.7-26.5,8.9-33.3l4.2-2.4
				c11.7-6.7,26.5-2.7,33.3,8.9l31.7,59.9C1639,1234,1635,1248.8,1623.4,1255.6z"/>
		</g>
		<g>
			<path fill="#808080" d="M749.3,1222.8l-647.3-168.1l6.5-28.2c0.9-4-1.6-8.1-5.6-9c-4-0.9-8.1,1.6-9,5.6l-6.5,28.2
				c-15.4-2.9-52.6-9.7-53.4-6.5c-0.8,3.2,35.2,15.4,50.2,20.4l-7,30.4c-0.9,4,1.6,8.1,5.6,9c0.5,0.1,1.1,0.2,1.6,0.2
				c3.4,0,6.6-2.3,7.4-5.8l6.8-29.7l647,168c0.6,0.2,1.3,0.2,1.9,0.2c3.3,0,6.4-2.2,7.2-5.6C755.7,1227.9,753.3,1223.8,749.3,1222.8
				z"/>
			<path fill="#808080" d="M603.7,952l-172.5-38.1l5.5-28.4c0.8-4.1-1.9-8-6-8.8s-8,1.9-8.8,6l-5.5,28.4
				c-15.5-2.4-52.9-7.8-53.6-4.6c-0.7,3.2,35.7,14.1,51,18.5l-5.9,30.7c-0.8,4.1,1.9,8,6,8.8c0.5,0.1,1.1,0.2,1.6,0.1
				c3.5-0.1,6.5-2.6,7.2-6.1l5.7-29.9L610,968.7C608,963.5,605.7,957.4,603.7,952z"/>
			<g>
				<path fill="#0064DA" d="M503.8,1205.8c-59.4-50.2-101.2-103.7-55.3-190.9c28-52.9,131.8-136.4,264.9-155.7l10.7,73.8
					c-80.8,11.7-169.3,61-195.2,93.6s-29.3,61.9,11.7,95.4L503.8,1205.8z"/>
				<path fill="#ED9583" d="M739,953.8c38.1,0,68.9-30.8,68.9-68.9S777.1,816,739,816s-68.9,30.8-68.9,68.9
					C670.1,922.9,701,953.8,739,953.8z"/>
				<g>
					<path fill="#58585A" d="M758.1,1259.7l-82.5-25.2c-9.6-2.9-15.1-13.2-12.1-22.8l4-13.1c3-9.6,13.2-15.1,22.8-12.1l82.5,25.2
						c9.6,2.9,15.1,13.2,12.1,22.8l-4,13.1C777.9,1257.2,767.7,1262.6,758.1,1259.7z"/>
					<path fill="#E75153" d="M552.6,1117.8l43.3,15c22.8,7.9,65.7,2.5,78,2.3c60.5-0.8,80.7,49.4,73.5,69c-18.7-2.4-31.4-2.9-39-2.8
						c-3.3,0-4.9,4.1-2.5,6.4c13.5,12.4,42.9,41.6,44.3,60.4c4.7,62.2-83.5,90.4-130.2,63.7c-48.5-27.8-64.8-76-86.1-90.8
						c-10.9-7.5-35-21.1-35-21.1L552.6,1117.8z"/>
					<path fill="#ED9583" d="M528.9,1109.7l-47.5,93.7c-3.5,6.8-0.8,15.2,6,18.7l2.8,1.4c6.8,3.5,15.2,0.8,18.7-6l47.5-93.7
						c3.5-6.8,0.8-15.2-6-18.7l-2.8-1.4C540.7,1100.2,532.4,1102.9,528.9,1109.7z"/>
					<g>
						<path fill="#ED9583" d="M646.8,1204c-11.7-8.1-19.8-12.7-19.8-12.7s-37.9,23.7-52.9,68.1c3.4,5.6,8.3,11.4,13.8,16.8
							C594.5,1260.8,611.8,1228.7,646.8,1204z"/>
						<path fill="#ED9583" d="M662.9,1216c-29.3,16.5-51.5,57-59.9,73.9c11.8,9.7,22.2,16.6,22.2,16.6s28.8-48.3,62-69
							C679.2,1229.4,670.8,1222.2,662.9,1216z"/>
					</g>
				</g>
			</g>
		</g>
	</g>
</g>
</svg>
