<?xml version="1.0" encoding="utf-8"?>
<!-- Generator: Adobe Illustrator 24.2.0, SVG Export Plug-In . SVG Version: 6.00 Build 0)  -->
<svg version="1.1" id="Layer_1" xmlns="http://www.w3.org/2000/svg" xmlns:xlink="http://www.w3.org/1999/xlink" x="0px" y="0px"
	 viewBox="0 0 2000 2000" enable-background="new 0 0 2000 2000" xml:space="preserve">
<g id="ghost-image" display="none">
	<g display="inline" opacity="0.5">
		<path fill="#8A6FE8" d="M1469,1134.6c-57.7-4.7-181.3-73.8-228.1-150.4c-28.4-46.5,24.8-83.6,53.8-36.2
			c31.4,51.3,134.8,115.2,179.9,118.9L1469,1134.6z"/>
		<path fill="#8A6FE8" d="M1525,1005.7l-88.7,33.7c-15.8,6-23.7,23.7-17.8,39.5c6,15.8,23.7,23.7,39.5,17.8l88.7-33.7
			c15.8-6,23.7-23.7,17.8-39.5C1558.6,1007.6,1540.8,999.6,1525,1005.7z"/>
		<path fill="#8A6FE8" d="M1416.4,1155.1l37.8,51.4c10.2,13.6,29.4,16.4,43.1,6.3c13.6-10.2,16.4-29.4,6.3-43.1l-38.8-52.7
			L1416.4,1155.1z"/>
		<path fill="#8A6FE8" d="M1450.7,1158.2l76.8,42.9c14.9,8.2,33.6,2.9,41.8-12c8.2-14.8,2.9-33.6-12-41.8l-57-32.1L1450.7,1158.2z"
			/>
		<path fill="#8A6FE8" d="M1460.3,1121.8l84.6,24.4c16.3,4.7,33.4-4.7,38.2-21c4.7-16.3-4.7-33.4-21-38.2l-86.2-24.9L1460.3,1121.8z
			"/>
		
			<radialGradient id="SVGID_1_" cx="311.0616" cy="-5541.521" r="6.0501" gradientTransform="matrix(10.6515 0 0 10.6515 -1861.6975 60129.25)" gradientUnits="userSpaceOnUse">
			<stop  offset="0" style="stop-color:#8065E0"/>
			<stop  offset="1" style="stop-color:#512BD4"/>
		</radialGradient>
		<path fill="url(#SVGID_1_)" d="M1451.6,1168.2c35.6,0,64.4-28.8,64.4-64.4c0-35.6-28.9-64.4-64.4-64.4
			c-35.6,0-64.4,28.8-64.4,64.4C1387.1,1139.3,1416,1168.2,1451.6,1168.2z"/>
		
			<linearGradient id="SVGID_2_" gradientUnits="userSpaceOnUse" x1="432.5013" y1="-9702.1826" x2="492.2793" y2="-9417.4707" gradientTransform="matrix(1 0 0 1 694 10798)">
			<stop  offset="0" style="stop-color:#522CD5"/>
			<stop  offset="0.4397" style="stop-color:#8A6FE8"/>
		</linearGradient>
		<path fill="url(#SVGID_2_)" d="M1216.5,1374.2c0.7-59.8-7.8-181.1-69.5-282.6l-60.3,36.6c56,92.1,60.2,199.7,58.9,246.6
			C1145.4,1378.6,1181.6,1382.1,1216.5,1374.2z"/>
		<path fill="#522CD5" d="M1145.5,1374.1l55.8-0.3l52.1,298.7l-112.1,0.5c-8.5,0-15-6.8-14.4-15.4L1145.5,1374.1z"/>
		
			<linearGradient id="SVGID_3_" gradientUnits="userSpaceOnUse" x1="468.5236" y1="-9426.0088" x2="646.134" y2="-9109.3525" gradientTransform="matrix(1 0 0 1 694 10798)">
			<stop  offset="0" style="stop-color:#522CD5"/>
			<stop  offset="0.4397" style="stop-color:#8A6FE8"/>
		</linearGradient>
		<path fill="url(#SVGID_3_)" d="M1373,1593.9c9.7,7.7,9.5,18.7,8.8,30.4l-2.3,35.8c-0.4,6.4-6,11.7-12.4,11.7l-116.8,0.5
			c-7.3,0-12.8-5.8-12.3-13.1l0.8-37.1c0.9-13.5-3.7-18.4-14.1-31.1c-17.9-21.7-70.7-140-65.7-217.1l57.5-0.3
			C1220.3,1419.5,1280.7,1521.1,1373,1593.9z"/>
		
			<radialGradient id="SVGID_4_" cx="293.5775" cy="-5311.6699" r="6.0492" gradientTransform="matrix(20.3477 -9.260000e-02 9.260000e-02 20.3477 -4177.4907 109649.5938)" gradientUnits="userSpaceOnUse">
			<stop  offset="3.400000e-02" style="stop-color:#522CD5"/>
			<stop  offset="0.9955" style="stop-color:#8A6FE8"/>
		</radialGradient>
		<path fill="url(#SVGID_4_)" d="M1381.8,1624.3c0.6-8.2,0.7-16-2.5-22.6l-145.7,0.7c4,5.9,5.7,11.1,5.2,19.7l-0.8,37.1
			c-0.5,7.3,5,13.1,12.3,13.1l116.8-0.5c6.4,0,12-5.3,12.4-11.7L1381.8,1624.3z"/>
		
			<linearGradient id="SVGID_5_" gradientUnits="userSpaceOnUse" x1="103.6376" y1="-9706.5342" x2="172.368" y2="-9383.1787" gradientTransform="matrix(1 0 0 1 694 10798)">
			<stop  offset="0" style="stop-color:#522CD5"/>
			<stop  offset="0.4397" style="stop-color:#8A6FE8"/>
		</linearGradient>
		<path fill="url(#SVGID_5_)" d="M847.6,1418.8l-71.3-8.9l40.1-322.5l71.3,8.8L847.6,1418.8z"/>
		<path fill="#522CD5" d="M781.5,1371.7l56.5-0.3l15.6,302l-113.4,0.5c-8.6,0-14.3-6.9-12.7-15.6L781.5,1371.7z"/>
		
			<linearGradient id="SVGID_6_" gradientUnits="userSpaceOnUse" x1="48.7987" y1="-9399.0107" x2="202.8451" y2="-9105.4717" gradientTransform="matrix(1 0 0 1 694 10798)">
			<stop  offset="0" style="stop-color:#522CD5"/>
			<stop  offset="0.4397" style="stop-color:#8A6FE8"/>
		</linearGradient>
		<path fill="url(#SVGID_6_)" d="M945.7,1595.1c8.7,7.9,8.5,18,6.3,29.8l-6.8,36.2c-1.2,6.5-7.5,11.8-14,11.8l-162.2,0.8
			c-7.4,0-12.2-5.9-10.8-13.2l5.8-37.5c2.6-13.6,0.6-17.7,0.8-35.1c0.5-32.8,15.6-138.2,30.3-216.2l58.2-0.2
			C851.4,1417.6,871.5,1527.9,945.7,1595.1z"/>
		
			<radialGradient id="SVGID_7_" cx="276.2429" cy="-5294.5405" r="6.0492" gradientTransform="matrix(22.145 -0.1007 0.1006 22.1216 -4721.7847 118693.3047)" gradientUnits="userSpaceOnUse">
			<stop  offset="3.400000e-02" style="stop-color:#522CD5"/>
			<stop  offset="0.9955" style="stop-color:#8A6FE8"/>
		</radialGradient>
		<path fill="url(#SVGID_7_)" d="M763.9,1622.9l-5.8,37.5c-1.4,7.3,3.5,13.3,10.8,13.2l162.2-0.7c6.5,0,12.8-5.3,14-11.8l6.8-36.2
			c1.6-8.6,2.1-16.2-1-22.8l-185.9,0.8C765.4,1609.6,765.5,1614.4,763.9,1622.9z"/>
		<path fill="#8A6FE8" d="M804,455.8L736.5,483l-18.4-73.1l48.4-19.5L804,455.8z"/>
		<path fill="#512BD4" d="M788.8,582c38.2,0,69.1-30.9,69.1-69.1s-30.9-69.1-69.1-69.1s-69.1,30.9-69.1,69.1
			C719.7,551,750.7,582,788.8,582z"/>
		
			<radialGradient id="SVGID_8_" cx="283.608" cy="-5177.9517" r="6.0492" gradientTransform="matrix(61.9498 0 0 61.9498 -16553.7656 321541.2188)" gradientUnits="userSpaceOnUse">
			<stop  offset="0.4744" style="stop-color:#A08BE8"/>
			<stop  offset="0.8618" style="stop-color:#8065E0"/>
		</radialGradient>
		<path fill="url(#SVGID_8_)" d="M1300.2,939.7C1325,844.2,1309,768,1309,768h22.4l0.5-0.4c-32.2-175.2-185.6-307.9-370-307.9
			c-207.8,0-376.3,168.5-376.3,376.3s168.4,376.3,376.3,376.3c164,0,303.5-104.9,355-251.2C1318.4,954.8,1318.3,943.6,1300.2,939.7z
			"/>
		<path fill="#D8CFF7" d="M1286.4,1026.5H637.5c14.6,24.8,31.9,47.7,51.5,68.4h545.8C1254.5,1074.2,1271.8,1051.3,1286.4,1026.5z"/>
		
			<radialGradient id="SVGID_9_" cx="286.9561" cy="-5202.1172" r="6.0492" gradientTransform="matrix(48.2581 0 0 48.2581 -12615.8555 251743.1562)" gradientUnits="userSpaceOnUse">
			<stop  offset="9.330000e-02" style="stop-color:#E1DFDD"/>
			<stop  offset="0.8998" style="stop-color:#FFFFFF"/>
		</radialGradient>
		<path fill="url(#SVGID_9_)" d="M1300.2,939.7c24.6-94.3,9.2-169.7,8.9-171.6H918.6c0,0-24.6-2.5-24.6,20s0.9,85.9,0.9,156.2
			c0,14.4,11.8,21.4,21.1,21.4C916.1,965.6,1256.6,965.6,1300.2,939.7z"/>
		<path fill="#A08BE8" d="M1065,939.9c0,0,60.1-47.5,71.8-56.3c11.7-8.8,22-9.3,32.7,0s70.8,56.3,70.8,56.3H1065z"/>
		<path fill="#512BD4" d="M1315.4,965.3c0,0,10.4-20.1-15.2-25.7c0-0.1-383.8-0.3-383.8-0.3c-8.9,0-20.4-5.3-21.4-14
			c0,6.2,0,12.5,0,18.8c0,13.1,9.8,20,18.5,21.2c0.9,0.1,1.8,0.2,2.7,0.2h26.2L1315.4,965.3z"/>
		<path fill="#512BD4" d="M1286.5,851.6c0.4-27.3-12.4-49.7-28.7-49.9s-29.8,21.7-30.2,49c-0.4,27.3,12.4,49.7,28.7,49.9
			C1272.6,900.9,1286.1,879,1286.5,851.6z"/>
		<path fill="#8065E0" d="M1256.7,825c-10.8,10.8-10.8,28.2,0,38.9c7.4,7.4,17.8,9.7,27.2,7c1.6-5.9,2.5-12.4,2.6-19.3
			c0.2-13.4-2.8-25.6-7.8-34.6C1270.9,816.4,1262.8,819,1256.7,825z"/>
		<path fill="#512BD4" d="M1020.8,900.9c16.3-0.2,29.1-22.6,28.7-49.9s-13.9-49.3-30.2-49c-16.2,0.2-29.1,22.6-28.7,49.9
			C991,879.2,1004.5,901.2,1020.8,900.9z"/>
		<path fill="#8065E0" d="M1019.8,826.6c-10.8,10.8-10.8,28.2,0,38.9c7.3,7.3,17.7,9.6,27,7c1.8-6.5,2.8-13.8,2.6-21.6
			c-0.2-12.4-3.1-23.7-7.7-32.3C1033.9,818,1025.8,820.6,1019.8,826.6z"/>
		<path fill="#512BD4" d="M1084.8,1115.2l123.2-0.6l-0.5-108.9l-123.2,0.6L1084.8,1115.2z"/>
		<path fill="#FFFFFF" d="M1106.1,1074.5c-0.8,0-1.5-0.3-2.1-0.8c-0.6-0.6-0.9-1.2-0.9-2c0-0.8,0.3-1.5,0.9-2
			c0.6-0.6,1.3-0.8,2.1-0.8c0.8,0,1.5,0.3,2.1,0.8c0.6,0.5,0.9,1.2,0.9,2s-0.3,1.4-0.9,2C1107.7,1074.2,1107,1074.5,1106.1,1074.5z"
			/>
		<path fill="#FFFFFF" d="M1138.9,1074h-5.3l-14.1-22.1c-0.3-0.5-0.7-1.2-0.9-1.8h-0.1c0.1,0.6,0.2,2,0.2,4.1l0,19.7h-4.7l-0.1-30.1
			h5.7l13.6,21.6c0.6,0.9,0.9,1.5,1.1,1.8h0.1c-0.2-0.8-0.2-2.2-0.2-4.1l0-19.4h4.7L1138.9,1074z"/>
		<path fill="#FFFFFF" d="M1161.8,1073.9l-16.5,0l-0.1-30.1l15.8,0v4.2l-10.9,0l0,8.5l10.1,0v4.2l-10.1,0l0,8.9l11.6,0
			L1161.8,1073.9L1161.8,1073.9z"/>
		<path fill="#FFFFFF" d="M1185.2,1048l-8.4,0l0.1,25.9h-4.9l-0.1-25.9l-8.4,0v-4.2l21.7-0.1L1185.2,1048z"/>
		<path fill="#8A6FE8" d="M529.4,1254.2l40.2,57.3c10.8,15.2,31.9,18.7,47.2,7.9c15.2-10.8,18.7-31.9,7.9-47.1L575,1203
			L529.4,1254.2z"/>
		<path fill="#8A6FE8" d="M460.1,1232.5l-11.1,69.2c-2.8,18.4,9.8,35.7,28.3,38.5c18.4,2.8,35.7-9.8,38.5-28.3l11.4-70.9
			L460.1,1232.5z"/>
		<path fill="#8A6FE8" d="M505,1240.3l-9.3,69.4c-2.4,18.5,10.8,35.4,29.2,37.8c18.5,2.4,35.4-10.8,37.8-29.2l9.6-71.2L505,1240.3z"
			/>
		<path fill="#8A6FE8" d="M442.7,1211.8l-25.1,65.4c-6.6,17.5,2.3,37,19.8,43.5c17.5,6.6,37-2.3,43.5-19.8l25.7-67.1L442.7,1211.8z"
			/>
		
			<linearGradient id="SVGID_10_" gradientUnits="userSpaceOnUse" x1="-100.8671" y1="-9938.4697" x2="-100.8671" y2="-9557.5801" gradientTransform="matrix(1 0 0 1 694 10798)">
			<stop  offset="0.2495" style="stop-color:#967FE6"/>
			<stop  offset="1" style="stop-color:#8A6FE8"/>
		</linearGradient>
		<path fill="url(#SVGID_10_)" d="M489.3,1240.4c-27.9-57-44.2-154.4,1.8-241.6c28-52.9,89.2-120,222.3-139.3l10.7,73.8
			c-80.8,11.7-138.5,46.4-167,100.3c-30.8,58.4-22.6,129.4-0.8,174L489.3,1240.4z"/>
		
			<radialGradient id="SVGID_11_" cx="257.0081" cy="-5530.1206" r="6.0492" gradientTransform="matrix(11.3989 0 0 11.3989 -2192.8743 63898.6953)" gradientUnits="userSpaceOnUse">
			<stop  offset="0" style="stop-color:#8065E0"/>
			<stop  offset="1" style="stop-color:#512BD4"/>
		</radialGradient>
		<path fill="url(#SVGID_11_)" d="M739,954.1c38.1,0,68.9-30.8,68.9-68.9S777,816.3,739,816.3s-68.9,30.8-68.9,68.9
			C670.1,923.2,700.9,954.1,739,954.1z"/>
		
			<radialGradient id="SVGID_12_" cx="262.447" cy="-5303.478" r="6.0492" gradientTransform="matrix(22.7292 0 0 22.7292 -5460.3398 121697.5625)" gradientUnits="userSpaceOnUse">
			<stop  offset="0" style="stop-color:#8065E0"/>
			<stop  offset="1" style="stop-color:#512BD4"/>
		</radialGradient>
		<path fill="url(#SVGID_12_)" d="M508.6,1277.3c39.1,0,70.8-31.7,70.8-70.8s-31.7-70.8-70.8-70.8s-70.8,31.7-70.8,70.8
			C437.9,1245.7,469.5,1277.3,508.6,1277.3z"/>
		<path fill="#D8CFF7" d="M739.7,415.8c-26.2,7-53.3-8.4-60.5-34.4c-7.2-26,8.2-52.7,34.5-59.7c26.2-7,53.3,8.4,60.5,34.4
			C781.4,382.1,766,408.8,739.7,415.8z"/>
	</g>
</g>
<g id="bot-base" display="none">
	<g display="inline">
		
			<radialGradient id="SVGID_13_" cx="283.608" cy="-5177.9517" r="6.0492" gradientTransform="matrix(61.9498 0 0 61.9498 -16553.7656 321541.2188)" gradientUnits="userSpaceOnUse">
			<stop  offset="0.4744" style="stop-color:#A08BE8"/>
			<stop  offset="0.8618" style="stop-color:#8065E0"/>
		</radialGradient>
		<path fill="url(#SVGID_13_)" d="M1300.2,939.7C1325,844.2,1309,768,1309,768h22.4l0.5-0.4c-32.2-175.2-185.6-307.9-370-307.9
			c-207.8,0-376.3,168.5-376.3,376.3s168.4,376.3,376.3,376.3c164,0,303.5-104.9,355-251.2C1318.4,954.8,1318.3,943.6,1300.2,939.7z
			"/>
		<path fill="#D8CFF7" d="M1286.4,1026.5H637.5c14.6,24.8,31.9,47.7,51.5,68.4h545.8C1254.5,1074.2,1271.8,1051.3,1286.4,1026.5z"/>
		
			<radialGradient id="SVGID_14_" cx="286.9561" cy="-5202.1172" r="6.0492" gradientTransform="matrix(48.2581 0 0 48.2581 -12615.8555 251743.1562)" gradientUnits="userSpaceOnUse">
			<stop  offset="9.330000e-02" style="stop-color:#E1DFDD"/>
			<stop  offset="0.8998" style="stop-color:#FFFFFF"/>
		</radialGradient>
		<path fill="url(#SVGID_14_)" d="M1300.2,939.7c24.6-94.3,9.2-169.7,8.9-171.6H918.6c0,0-24.6-2.5-24.6,20s0.9,85.9,0.9,156.2
			c0,14.4,11.8,21.4,21.1,21.4C916.1,965.6,1256.6,965.6,1300.2,939.7z"/>
		<path fill="#A08BE8" d="M1065,939.9c0,0,60.1-47.5,71.8-56.3c11.7-8.8,22-9.3,32.7,0s70.8,56.3,70.8,56.3H1065z"/>
		<path fill="#512BD4" d="M1315.4,965.3c0,0,10.4-20.1-15.2-25.7c0-0.1-383.8-0.3-383.8-0.3c-8.9,0-20.4-5.3-21.4-14
			c0,6.2,0,12.5,0,18.8c0,13.1,9.8,20,18.5,21.2c0.9,0.1,1.8,0.2,2.7,0.2h26.2L1315.4,965.3z"/>
		<path fill="#512BD4" d="M1084.8,1115.2l123.2-0.6l-0.5-108.9l-123.2,0.6L1084.8,1115.2z"/>
		<path fill="#FFFFFF" d="M1106.1,1074.5c-0.8,0-1.5-0.3-2.1-0.8c-0.6-0.6-0.9-1.2-0.9-2c0-0.8,0.3-1.5,0.9-2
			c0.6-0.6,1.3-0.8,2.1-0.8c0.8,0,1.5,0.3,2.1,0.8c0.6,0.5,0.9,1.2,0.9,2s-0.3,1.4-0.9,2C1107.7,1074.2,1107,1074.5,1106.1,1074.5z"
			/>
		<path fill="#FFFFFF" d="M1138.9,1074h-5.3l-14.1-22.1c-0.3-0.5-0.7-1.2-0.9-1.8h-0.1c0.1,0.6,0.2,2,0.2,4.1l0,19.7h-4.7l-0.1-30.1
			h5.7l13.6,21.6c0.6,0.9,0.9,1.5,1.1,1.8h0.1c-0.2-0.8-0.2-2.2-0.2-4.1l0-19.4h4.7L1138.9,1074z"/>
		<path fill="#FFFFFF" d="M1161.8,1073.9l-16.5,0l-0.1-30.1l15.8,0v4.2l-10.9,0l0,8.5l10.1,0v4.2l-10.1,0l0,8.9l11.6,0
			L1161.8,1073.9L1161.8,1073.9z"/>
		<path fill="#FFFFFF" d="M1185.2,1048l-8.4,0l0.1,25.9h-4.9l-0.1-25.9l-8.4,0v-4.2l21.7-0.1L1185.2,1048z"/>
	</g>
</g>
<g id="asset">
	<g>
		<g>
			<path fill="#EEEDEC" d="M1561.7,1008.4c-7.9-15-26.5-20.6-41.4-12.6l-83.6,44.8c-1.3,0.7-2.6,1.5-3.8,2.4
				c6.1-1.9,12.5-2.9,19.2-2.9c23.7,0,44.4,12.8,55.6,31.9l41.4-22.2C1564,1041.9,1569.6,1023.3,1561.7,1008.4z"/>
			<path fill="#0064DA" d="M1313.2,971.5c-8.4,21.8-18.8,42.6-30.9,62.2c57.5,54.7,142.1,97.3,186.9,100.9l5.6-67.6
				C1436.3,1063.8,1355.7,1017,1313.2,971.5z"/>
			<path fill="#C4C1BE" d="M1452.1,1169c35.6,0,64.4-28.8,64.4-64.4s-28.9-64.4-64.4-64.4c-35.6,0-64.4,28.8-64.4,64.4
				S1416.5,1169,1452.1,1169z"/>
			<g>
				<path fill="#3E8EED" d="M1688.6,950.7l-28.1-27c-2-1.9-5.2-1.9-7.2,0.2l-8.1,8.4c-1.9,2-1.9,5.2,0.2,7.2l28.1,27
					c2,1.9,5.2,1.9,7.2-0.2l8.1-8.4C1690.7,955.9,1690.6,952.6,1688.6,950.7z"/>
				<path fill="#908D89" d="M1725.7,1002.5l-91.2-87.5c-6.5-6.2-16.8-6-23.1,0.5l-70.2,73.2c-3.9,4.1-5.4,9.9-4,15.4l6.7,25.4
					c1.4,5.5-0.1,11.3-4,15.4l-123.7,128.9c-6.2,6.5-6,16.8,0.5,23.1l36.3,34.9c6.5,6.2,16.8,6,23.1-0.5l123.7-128.9
					c3.9-4.1,9.7-5.8,15.3-4.6l25.7,5.6c5.6,1.2,11.3-0.5,15.3-4.6l70.2-73.2C1732.4,1019,1732.2,1008.7,1725.7,1002.5z"/>
				<path fill="#3F3C38" d="M1710.2,987.7l-91.2-87.5c-6.5-6.2-16.8-6-23.1,0.5l-70.2,73.2c-3.9,4.1-5.4,9.9-4,15.4l6.7,25.4
					c1.4,5.5-0.1,11.3-4,15.4l-123.7,128.9c-6.2,6.5-6,16.8,0.5,23.1l36.3,34.9c6.5,6.2,16.8,6,23.1-0.5l123.7-128.9
					c3.9-4.1,9.7-5.8,15.3-4.6l25.7,5.6c5.6,1.2,11.3-0.5,15.3-4.6l70.2-73.2C1716.9,1004.2,1716.7,993.9,1710.2,987.7z"/>
				<path fill="#F7B548" d="M1631.2,1054.1l-75.3-72.3c-2.2-2.1-2.3-5.7-0.2-7.9l49.9-52c2.1-2.2,5.7-2.3,7.9-0.2l75.3,72.3
					c2.2,2.1,2.3,5.7,0.2,7.9l-49.9,52C1636.9,1056.2,1633.4,1056.3,1631.2,1054.1z"/>
				<circle fill="#3E8EED" cx="1556.8" cy="1005" r="9.2"/>
				<circle fill="#3E8EED" cx="1583.6" cy="1030.7" r="9.2"/>
				<circle fill="#3E8EED" cx="1610.4" cy="1056.5" r="9.2"/>
				<path fill="#3E8EED" d="M1543.6,1098l-28-26.9c-2.2-2.1-2.2-5.6-0.2-7.7l12.5-13.1c2.1-2.2,5.6-2.2,7.7-0.2l28,26.9
					c2.2,2.1,2.2,5.6,0.2,7.7l-12.5,13.1C1549.2,1100.1,1545.8,1100.1,1543.6,1098z"/>
				<path fill="#3E8EED" d="M1721.7,889.9l-1.5-1.5c-2.4-2.3-6.2-2.2-8.5,0.2l-43.5,45.3c-2.3,2.4-2.2,6.2,0.2,8.5l1.5,1.5
					c2.4,2.3,6.2,2.2,8.5-0.2l43.5-45.3C1724.2,896,1724.1,892.2,1721.7,889.9z"/>
			</g>
			<g>
				<path fill="#EEEDEC" d="M1579.2,1101.1l-56.2-12.9c-16.5-3.9-32.9,6.3-36.8,22.8c-3.9,16.5,6.3,32.9,22.7,36.8l56.2,12.9
					c16.5,3.9,32.9-6.3,36.8-22.8C1605.9,1121.4,1595.6,1104.9,1579.2,1101.1z"/>
				<path fill="#EEEDEC" d="M1557.3,1135.2l-56.4-11.8c-16.5-3.6-32.8,7-36.4,23.4c-3.6,16.5,7,32.8,23.4,36.4l56.4,11.8
					c16.5,3.6,32.8-7,36.4-23.4C1584.4,1155.1,1573.8,1138.8,1557.3,1135.2z"/>
				<path fill="#EEEDEC" d="M1521,1161.5l-56.4-11.8c-16.5-3.6-32.8,7-36.4,23.4c-3.6,16.5,7,32.8,23.4,36.4l56.4,11.8
					c16.5,3.6,32.8-7,36.4-23.4C1548.1,1181.3,1537.6,1165,1521,1161.5z"/>
			</g>
		</g>
		<g>
			
				<radialGradient id="SVGID_15_" cx="4924.9614" cy="2284.4053" r="50.7529" gradientTransform="matrix(0.6891 -0.7247 -0.7247 -0.6891 -812.0525 6407.583)" gradientUnits="userSpaceOnUse">
				<stop  offset="0" style="stop-color:#797673"/>
				<stop  offset="0.6238" style="stop-color:#605D5A"/>
			</radialGradient>
			<path fill="url(#SVGID_15_)" d="M974.2,1310.9l-73.6,2.1c-5.9,0.2-10.2-4.8-8.8-10.3l15.4-60.1c1-3.9,4.7-6.8,8.9-6.9l44-1.3
				c4.2-0.1,7.9,2.5,8.8,6.4l14.3,59.3C984.5,1305.5,980.1,1310.8,974.2,1310.9z"/>
			
				<radialGradient id="SVGID_16_" cx="4771.7861" cy="2428.6707" r="50.7529" gradientTransform="matrix(0.6891 -0.7247 -0.7247 -0.6891 -812.0525 6407.583)" gradientUnits="userSpaceOnUse">
				<stop  offset="0" style="stop-color:#797673"/>
				<stop  offset="0.6238" style="stop-color:#605D5A"/>
			</radialGradient>
			<path fill="url(#SVGID_16_)" d="M762.4,1317.8l-73.6,2.1c-5.9,0.2-10.2-4.8-8.8-10.3l15.4-60.1c1-3.9,4.7-6.8,8.9-6.9l44-1.3
				c4.2-0.1,7.9,2.5,8.8,6.4l14.3,59.3C772.7,1312.3,768.3,1317.6,762.4,1317.8z"/>
			<path fill="#EEEDEC" d="M678.4,1083.4l-1.5,156c-0.1,7.3,6.2,13,13.9,12.8l69.4-2c7.8-0.2,14.1-6.3,14.2-13.6l0.7-73.9
				C738.6,1141.8,705.9,1114.9,678.4,1083.4z"/>
			<path fill="#C4C1BE" d="M707.1,1241.2l1.2-127.3c-10.5-9.6-20.5-19.8-29.9-30.5l-1.5,156c-0.1,7.3,6.2,13,13.9,12.8l21.7-0.6
				C709.2,1249.2,707.1,1245.5,707.1,1241.2z"/>
			<path fill="#EEEDEC" d="M585.7,836c0-39,5.9-76.6,17-112c-25,12.1-42.3,37.7-42.3,67.3v307.1c0,41.3,33.5,74.7,74.7,74.7h159.6
				C670.7,1111.5,585.7,983.7,585.7,836z"/>
			<path fill="#C4C1BE" d="M600.2,1106.2V939.8c-9.4-33-14.5-67.8-14.5-103.8c0-40.4,6.4-79.2,18.1-115.7
				c-25.7,11.8-43.5,37.8-43.5,67.9v310.2c0,41.3,33.5,74.7,74.7,74.7h3C615.3,1159.4,600.2,1134.6,600.2,1106.2z"/>
			<path fill="#EEEDEC" d="M585.7,836c0-24.7,2.4-48.9,6.9-72.2c-0.4,0-0.8,0-1.2,0h-55.6c-16.1,0-29.1,13-29.1,29.2V895
				c0,16.1,13.1,29.2,29.1,29.2h55.6c1.6,0,3.1-0.1,4.6-0.4C589.2,895.6,585.7,866.2,585.7,836z"/>
			<g>
				<path fill="#B3AFAB" d="M552.4,907.7h-15.9c-7,0-12.6-5.6-12.6-12.6v-98.7c0-7,5.6-12.6,12.6-12.6h15.9c7,0,12.6,5.6,12.6,12.6
					v98.7C565,902.1,559.4,907.7,552.4,907.7z"/>
				<circle fill="#DDDBDA" cx="544.1" cy="811.4" r="11.7"/>
				<circle fill="#DDDBDA" cx="544.1" cy="851.4" r="11.7"/>
			</g>
			<path fill="#EEEDEC" d="M961.9,1212.2c-24.9,0-49.3-2.4-72.9-7.1l-0.2,27.3c-0.1,7.3,6.2,13,13.9,12.8l69.4-2
				c7.8-0.2,14.1-6.3,14.2-13.6l0.2-18.3C978.4,1212,970.2,1212.2,961.9,1212.2z"/>
			<path fill="#C4C1BE" d="M916.1,1232.6l0.2-23.1c-9.2-1.1-18.3-2.6-27.3-4.3l-0.2,27.3c-0.1,7.3,6.2,13,13.9,12.8l22.3-0.6
				C919.8,1242.9,916.1,1238.2,916.1,1232.6z"/>
		</g>
		<g>
			<path fill="#EEEDEC" d="M529.5,1254.1l40.2,57.3c10.8,15.2,31.9,18.7,47.2,7.9c15.2-10.8,18.7-31.9,7.9-47.1l-49.7-69.3
				L529.5,1254.1z"/>
			<path fill="#EEEDEC" d="M460.2,1232.4l-11.1,69.2c-2.8,18.4,9.8,35.7,28.3,38.5c18.4,2.8,35.7-9.8,38.5-28.3l11.4-70.9
				L460.2,1232.4z"/>
			<path fill="#EEEDEC" d="M505.1,1240.2l-9.3,69.4c-2.4,18.5,10.8,35.4,29.2,37.8c18.5,2.4,35.4-10.8,37.8-29.2l9.6-71.2
				L505.1,1240.2z"/>
			<path fill="#EEEDEC" d="M442.8,1211.7l-25.1,65.4c-6.6,17.5,2.3,37,19.8,43.5c17.5,6.6,37-2.3,43.5-19.8l25.7-67.1L442.8,1211.7z
				"/>
			<path fill="#0064DA" d="M489.4,1240.3c-27.9-57-44.2-154.4,1.8-241.6c28-52.9,89.2-120,222.3-139.3l10.7,73.8
				c-80.8,11.7-138.5,46.4-167,100.3c-30.8,58.4-22.6,129.4-0.8,174L489.4,1240.3z"/>
			<path fill="#227BE5" d="M739.1,954c38.1,0,68.9-30.8,68.9-68.9s-30.8-68.9-68.9-68.9s-68.9,30.8-68.9,68.9
				C670.2,923.1,701,954,739.1,954z"/>
			<path fill="#C4C1BE" d="M508.7,1277.2c39.1,0,70.8-31.7,70.8-70.8s-31.7-70.8-70.8-70.8s-70.8,31.7-70.8,70.8
				S469.6,1277.2,508.7,1277.2z"/>
		</g>
	</g>
</g>
</svg>
