<svg xmlns="http://www.w3.org/2000/svg" viewBox="0 0 1721.48 531.49"><g id="Layer_2" data-name="Layer 2"><g id="Layer_1-2" data-name="Layer 1"><g id="asset"><path d="M1094.74,155.77a375.12,375.12,0,0,1-30.93,62.2c57.46,54.73,142.1,97.29,186.92,100.93l5.55-67.64C1217.93,248.1,1137.23,201.28,1094.74,155.77Z" fill="#e29e3b"/><path d="M321.29,429.74l57.89,39.4A33.81,33.81,0,0,0,416.83,413l-71-47.2Z" fill="#f7b548"/><path d="M271.43,424.12c-27.91-57-44.21-154.45,1.78-241.6,28-52.92,89.19-120,222.28-139.29L506.18,117c-80.8,11.7-138.52,46.39-167,100.32-30.84,58.41-22.59,129.43-.78,174Z" fill="#e29e3b"/><path d="M521.1,137.8a68.9,68.9,0,1,0-68.9-68.9A68.89,68.89,0,0,0,521.1,137.8Z" fill="#f7b548"/><path d="M252.46,362.25,224,225s40.19-28.47,83.72-20.09c50,9.62,73.67,50.23,73.67,50.23l-67,93.77Z" fill="#f7f6f6"/><path d="M1246.73,318.56,1108.17,297s-12.54-47.62,10.58-85.45c26.56-43.45,72.9-51.35,72.9-51.35l64.28,95.63Z" fill="#f7f6f6"/><path d="M1349.06,217.48l-94.36,9.63a30.61,30.61,0,0,0,6.15,60.92l94.36-9.63a30.61,30.61,0,0,0-6.15-60.92Z" fill="#f7b548"/><path d="M1220.15,351.68a64.45,64.45,0,1,0-35.07-84.12A64.45,64.45,0,0,0,1220.15,351.68Z" fill="#e29e3b"/><path d="M260.55,208a136.16,136.16,0,0,0-36.56,17l28.46,137.3,18.12-3.92Z" fill="#dddbda"/><path d="M1105,258.78a135.88,135.88,0,0,0,3.18,38.22l138.56,21.55.55-3.75Z" fill="#dddbda"/><polygon points="1721.48 193.13 1527.4 285.72 1452.94 247.55 1506.49 182.51 1721.48 193.13" fill="#dddbda"/><polygon points="1721.48 193.13 1527.4 285.72 1452.94 247.55 1502.83 230.58 1721.48 193.13" fill="#c4c1be"/><polygon points="1558.84 220.87 1527.4 285.72 1452.94 247.55 1506.49 182.51 1558.84 220.87" fill="#a7a4a0"/><polygon points="5.2 529.69 1481.28 258.26 1476.09 230.44 0 501.87 5.2 529.69" fill="#3f3c38"/><path d="M1417.86,283l62.9-11.75a7.37,7.37,0,0,0,5.88-8.58l-7.14-38.21a7.37,7.37,0,0,0-8.58-5.88L1408,230.3a7.37,7.37,0,0,0-5.88,8.58l7.14,38.21A7.37,7.37,0,0,0,1417.86,283Z" fill="#dddbda"/><path d="M1345.27,305.2l-47.09-33.28a30.61,30.61,0,0,0-35.7,49.74l47.09,33.28a30.61,30.61,0,1,0,35.7-49.74Z" fill="#f7b548"/><path d="M1312.06,328.49l-47.72-32.37a30.61,30.61,0,1,0-34.74,50.41l47.72,32.37a30.61,30.61,0,1,0,34.74-50.41Z" fill="#f7b548"/><path d="M1268.52,339l-47.72-32.37A30.61,30.61,0,1,0,1186.06,357l47.72,32.37A30.61,30.61,0,1,0,1268.52,339Z" fill="#f7b548"/><path d="M242.26,416.18l-11.12,69.16a33.79,33.79,0,1,0,66.8,10.23l11.38-70.88Z" fill="#f7b548"/><path d="M287.13,424l-9.34,69.42A33.8,33.8,0,0,0,344.85,502l9.6-71.2Z" fill="#f7b548"/><path d="M224.87,395.52l-25.09,65.39a33.8,33.8,0,0,0,63.3,23.75l25.73-67.06Z" fill="#f7b548"/><path d="M290.75,461A70.77,70.77,0,1,0,220,390.25,70.76,70.76,0,0,0,290.75,461Z" fill="#e29e3b"/></g></g></g></svg>