<svg xmlns="http://www.w3.org/2000/svg" xmlns:xlink="http://www.w3.org/1999/xlink" viewBox="0 0 1263.02 592.17"><defs><radialGradient id="radial-gradient" cx="1203.79" cy="137.93" r="45.6" gradientTransform="matrix(1, 0, 0, -1, 0, 368.46)" gradientUnits="userSpaceOnUse"><stop offset="0" stop-color="#5b36de"/><stop offset="1" stop-color="#512bd4"/></radialGradient><radialGradient id="radial-gradient-2" cx="516.67" cy="-468.7" r="46.87" gradientTransform="matrix(1, 0.08, 0.08, -1, 619.51, -99.63)" xlink:href="#radial-gradient"/><radialGradient id="radial-gradient-3" cx="1178.5" cy="16" r="56.18" xlink:href="#radial-gradient"/><clipPath id="clip-path"><path d="M1149.28,238.64c41.52-35.8,97.83-58.93,108.07-36.41,10,22,9,43-21,49s-84.52,17-84.52,17S1137.2,249.05,1149.28,238.64Z" fill="none"/></clipPath><radialGradient id="radial-gradient-4" cx="-2112.55" cy="-3877.28" r="105.39" gradientTransform="matrix(0, 1, 1, 0, 4985.22, 2407.31)" gradientUnits="userSpaceOnUse"><stop offset="0" stop-color="#3a1ba8"/><stop offset="1" stop-color="#512bd4" stop-opacity="0"/></radialGradient><clipPath id="clip-path-2"><path d="M1117.91,345.34s46.82,50.25,71.63,61.07,43-15.75,49.42-35.46,4.39-30.72-17.61-40.72-90.13-35-90.13-35S1106.48,324.46,1117.91,345.34Z" fill="none"/></clipPath><radialGradient id="radial-gradient-5" cx="-2112.55" cy="-3877.28" r="105.39" gradientTransform="matrix(0, 1, 1, 0, 4985.22, 2407.31)" gradientUnits="userSpaceOnUse"><stop offset="0" stop-color="#3a1ba8"/><stop offset="0.79" stop-color="#512bd4" stop-opacity="0"/></radialGradient><clipPath id="clip-path-3"><path d="M1072.26,347.05c-6.81,34.57-6.11,75.5-7.41,91.58s2.66,35.55,27.56,34.51,36.76-11.12,30.89-37.68-21.33-91-21.33-91Z" fill="none"/></clipPath><linearGradient id="linear-gradient" x1="-458.7" y1="-15348.65" x2="-458.7" y2="-14967.42" gradientTransform="translate(694 15392)" gradientUnits="userSpaceOnUse"><stop offset="0.25" stop-color="#967fe6"/><stop offset="1" stop-color="#8a6fe8"/></linearGradient><radialGradient id="radial-gradient-7" cx="2159.16" cy="-8366.11" r="1.43" gradientTransform="translate(-103889.11 404056.38) scale(48.29)" gradientUnits="userSpaceOnUse"><stop offset="0" stop-color="#8065e0"/><stop offset="1" stop-color="#512bd4"/></radialGradient><radialGradient id="radial-gradient-8" cx="1088.69" cy="79.23" r="73.4" gradientTransform="matrix(1, 0, 0, -1, 0, 368.46)" xlink:href="#radial-gradient-7"/><radialGradient id="radial-gradient-9" cx="1117.86" cy="66.73" r="36.21" gradientTransform="matrix(0.5, 0.87, 0.87, -0.5, 501.14, -633)" gradientUnits="userSpaceOnUse"><stop offset="0" stop-color="#60defa"/><stop offset="1" stop-color="#1daccc"/></radialGradient><radialGradient id="radial-gradient-10" cx="867.22" cy="-575.97" r="55.06" gradientTransform="matrix(0, 1, 3.88, 0, 3379.53, -550.62)" gradientUnits="userSpaceOnUse"><stop offset="0.26" stop-color="#4adafa"/><stop offset="0.26" stop-color="#4adafa" stop-opacity="0.98"/><stop offset="0.29" stop-color="#4adafa" stop-opacity="0.8"/><stop offset="0.33" stop-color="#4adafa" stop-opacity="0.63"/><stop offset="0.36" stop-color="#4adafa" stop-opacity="0.48"/><stop offset="0.4" stop-color="#4adafa" stop-opacity="0.35"/><stop offset="0.45" stop-color="#4adafa" stop-opacity="0.24"/><stop offset="0.49" stop-color="#4adafa" stop-opacity="0.15"/><stop offset="0.55" stop-color="#4adafa" stop-opacity="0.08"/><stop offset="0.62" stop-color="#4adafa" stop-opacity="0.03"/><stop offset="0.72" stop-color="#4adafa" stop-opacity="0.01"/><stop offset="1" stop-color="#4adafa" stop-opacity="0"/></radialGradient><radialGradient id="radial-gradient-11" cx="882.22" cy="-590.97" r="71.35" gradientTransform="matrix(0, 1, 3.88, 0, 3452.81, -550.56)" xlink:href="#radial-gradient-10"/><radialGradient id="radial-gradient-12" cx="902.22" cy="-610.97" r="90.68" gradientTransform="matrix(0, 1, 3.88, 0, 3550.52, -550.48)" xlink:href="#radial-gradient-10"/><radialGradient id="radial-gradient-13" cx="-3532.9" cy="-6036.22" r="50.45" gradientTransform="matrix(0.68, 0.73, 0.73, -0.68, 7113.74, -1075.47)" xlink:href="#radial-gradient"/><radialGradient id="radial-gradient-14" cx="-3715.51" cy="-7023.12" r="51.84" gradientTransform="matrix(0.62, 0.78, 0.78, -0.62, 7878.45, -940.92)" xlink:href="#radial-gradient"/><radialGradient id="radial-gradient-15" cx="-3560.59" cy="-6170.05" r="62.07" gradientTransform="matrix(0.68, 0.73, 0.73, -0.68, 7113.74, -1075.47)" xlink:href="#radial-gradient"/><clipPath id="clip-path-4"><path d="M241,413.5c59.83,6.6,120.55,34.55,110.11,59.62-10.2,24.5-27.83,39.41-55.1,19.78s-76.85-55.25-76.85-55.25S223.6,411.58,241,413.5Z" fill="none"/></clipPath><radialGradient id="radial-gradient-16" cx="-2699.22" cy="-11647.8" r="115.72" gradientTransform="matrix(0, 1, 1, 0, 11812.63, 3121.63)" xlink:href="#radial-gradient-4"/><clipPath id="clip-path-5"><path d="M131.77,468.12s-5.36,75.22,4.5,103.25,44.85,22.8,65.48,13.19,28-19.45,19.55-44.61S182,441.32,182,441.32,140,443.31,131.77,468.12Z" fill="none"/></clipPath><radialGradient id="radial-gradient-17" cx="-2699.22" cy="-11647.8" r="115.72" gradientTransform="matrix(0, 1, 1, 0, 11812.63, 3121.63)" xlink:href="#radial-gradient-5"/><clipPath id="clip-path-6"><path d="M96.25,432.71C63.37,453.09,31,484.28,17.1,495.26S-9.48,524,10,543.26s36.43,21.23,53.38-3.37,57.16-85.2,57.16-85.2Z" fill="none"/></clipPath><radialGradient id="radial-gradient-19" cx="-3659.24" cy="-6100.56" r="80.48" gradientTransform="matrix(0.68, 0.73, 0.73, -0.68, 7113.74, -1075.47)" xlink:href="#radial-gradient-7"/><radialGradient id="radial-gradient-20" cx="-3627.23" cy="-6114.4" r="39.76" gradientTransform="matrix(0.5, 0.87, 0.87, -0.5, 7275.66, 519.48)" xlink:href="#radial-gradient-9"/><radialGradient id="radial-gradient-21" cx="-3490.72" cy="-6267.72" r="60.17" gradientTransform="matrix(0, 1, 3.88, 0, 24518.51, 3976.2)" xlink:href="#radial-gradient-10"/><radialGradient id="radial-gradient-22" cx="-3474.25" cy="-6284.19" r="78.06" gradientTransform="matrix(0, 1, 3.88, 0, 24581.68, 3983.08)" xlink:href="#radial-gradient-10"/><radialGradient id="radial-gradient-23" cx="-3452.29" cy="-6306.15" r="99.28" gradientTransform="matrix(0, 1, 3.88, 0, 24665.9, 3992.24)" xlink:href="#radial-gradient-10"/></defs><g id="Layer_2" data-name="Layer 2"><g id="Layer_1-2" data-name="Layer 1"><g id="asset"><path d="M1153.64,263.74c-2.91-4.6-8.9-15.91-1.75-22.07,29.81-25.7,66.79-44.35,88-44.35,7.22,0,11.89,2.21,13.87,6.57,4,8.86,7.84,21.36,3.14,30.54-3.26,6.37-10.43,10.71-21.28,12.88C1209.47,252.53,1164.82,261.49,1153.64,263.74Z" fill="url(#radial-gradient)"/><path d="M1239.84,201.32c8.31,0,9.75,3.18,10.23,4.22,3.66,8.06,7.2,19.3,3.22,27.06-2.68,5.24-8.91,8.86-18.51,10.79-24.14,4.82-64.61,12.95-79.14,15.87a33.21,33.21,0,0,1-2.16-4.88c-2.32-6.8.11-8.9,1-9.68,28.68-24.73,65.37-43.38,85.34-43.38h0m0-8c-22.45,0-60.41,19.32-90.56,45.32-12.08,10.4,2.55,29.54,2.55,29.54s54.52-11,84.52-17,31-27,21-49c-2.8-6.17-9-8.91-17.51-8.91Z" fill="#8a6fe8"/><path d="M1090.53,469.23c-7.06,0-12.45-2-16-5.83-5.81-6.3-6.29-16.75-5.67-24.4.36-4.41.57-10.67.81-17.91.62-18.46,1.54-46,6-70.26l23.25-2c3.25,13.57,15.48,64.8,20.51,87.55,2.44,11,1.7,18.87-2.25,24-4.15,5.4-12.3,8.28-24.89,8.81h-1.72Z" fill="url(#radial-gradient-2)"/><path d="M1095.79,353.05c4.11,17.19,15,63,19.7,84.14,2.13,9.65,1.62,16.62-1.52,20.71-3.34,4.34-10.71,6.78-21.89,7.24h-1.55c-6,0-10.26-1.49-13.08-4.54-3.77-4.09-5.41-11.68-4.62-21.37.36-4.5.57-10.8.82-18.1.59-17.58,1.45-43.44,5.38-66.67l16.76-1.45m6.18-8.57L1072.26,347c-6.81,34.57-6.11,75.5-7.41,91.58-1.27,15.66,2.46,34.55,25.68,34.55h1.88c24.91-1,36.76-11.12,30.89-37.68s-21.33-91-21.33-91Z" fill="#8a6fe8"/><path d="M1200.91,404.91a24.44,24.44,0,0,1-9.77-2.17c-22.66-9.88-65.59-55.12-70-59.74-7.82-15.18,6.31-36.25,11.38-43,12.92,4.77,68,25.19,87.12,33.88,20.33,9.24,21.2,18.13,15.46,35.84-5.49,17-18.55,35.2-34.24,35.2Z" fill="url(#radial-gradient-3)"/><path d="M1134,304.78c16.65,6.16,66.21,24.62,84,32.73,11.51,5.24,14.23,9.51,15.28,12.27,1.53,4,.92,9.79-2,18.7a65.86,65.86,0,0,1-12.35,22.4c-5.8,6.66-11.89,10-18.09,10a20.41,20.41,0,0,1-8.17-1.83c-18.73-8.17-54.85-44.14-68.22-58.38-5.19-11,3.21-27,9.47-35.92m-2.77-9.55s-24.74,29.23-13.31,50.11c0,0,46.82,50.25,71.63,61.07a28.26,28.26,0,0,0,11.37,2.5c19,0,32.68-21.4,38-38,6.52-19.65,4.52-30.65-17.48-40.65s-90.13-35-90.13-35Z" fill="#8a6fe8"/><g clip-path="url(#clip-path)"><ellipse cx="1107.94" cy="294.76" rx="129.33" ry="74.09" transform="translate(254.63 1060.44) rotate(-56.8)" fill="url(#radial-gradient-4)"/></g><g clip-path="url(#clip-path-2)"><ellipse cx="1107.94" cy="294.76" rx="129.33" ry="74.09" transform="translate(254.63 1060.44) rotate(-56.8)" fill="url(#radial-gradient-5)"/></g><g clip-path="url(#clip-path-3)"><ellipse cx="1107.94" cy="294.76" rx="129.33" ry="74.09" transform="translate(254.63 1060.44) rotate(-56.8)" fill="url(#radial-gradient-4)"/></g><path d="M1117.52,251,1112,318.7c-44.85-3.65-129.57-46.23-187.08-101a373.57,373.57,0,0,0,31-62.25C998.35,201,1079.13,247.85,1117.52,251Z" fill="#8a6fe8"/><path d="M131.35,424.58c-27.93-57-44.24-154.58,1.79-241.81,28-53,89.27-120.15,222.47-139.42l10.74,73.88c-80.87,11.71-138.64,46.44-167.16,100.41-30.87,58.46-22.61,129.55-.77,174.2Z" fill="url(#linear-gradient)"/><path d="M381.27,138a69,69,0,1,0-69-69,69,69,0,0,0,69,69Z" fill="url(#radial-gradient-7)"/><path d="M1156.35,240.23c-37.69-30.33-94.46-39.31-121.23-3.16s-29.56,81.16,41.23,125.16C1113.35,385.23,1174.7,255,1156.35,240.23Z" fill="url(#radial-gradient-8)"/><ellipse cx="1117.86" cy="301.73" rx="72.85" ry="27.69" transform="translate(297.62 1118.96) rotate(-60)" fill="#512bd4"/><ellipse cx="1117.86" cy="301.73" rx="47.86" ry="18.19" transform="translate(297.62 1118.96) rotate(-60)" fill="url(#radial-gradient-9)"/><ellipse cx="1138.35" cy="312.23" rx="71.35" ry="18.5" transform="translate(298.78 1141.95) rotate(-60)" fill="none" stroke-miterlimit="10" stroke-width="6" stroke="url(#radial-gradient-10)"/><ellipse cx="1153.35" cy="327.23" rx="93.66" ry="24.28" transform="translate(293.29 1162.44) rotate(-60)" fill="none" stroke-miterlimit="10" stroke-width="6" opacity="0.6" stroke="url(#radial-gradient-11)" style="isolation:isolate"/><ellipse cx="1173.35" cy="347.23" rx="120.11" ry="31.14" transform="translate(285.97 1189.77) rotate(-60)" fill="none" stroke-miterlimit="10" stroke-width="6" opacity="0.3" stroke="url(#radial-gradient-12)" style="isolation:isolate"/><path d="M319.35,498c-6.31,0-13.39-2.79-21-8.29C274.46,472.46,233.43,443,223.64,436c1.4-5.49,5.77-18.55,15.55-18.55a12.44,12.44,0,0,1,1.37.08c48.18,5.31,94.52,24,105.5,42.63,2.42,4.11,2.86,7.86,1.35,11.48C342.41,483.61,333.48,498,319.35,498Z" fill="url(#radial-gradient-13)"/><path d="M239.2,413.4v8h.92c22.85,2.52,46.16,8.25,65.63,16.14,18.68,7.56,32.11,16.51,36.86,24.56,2.29,3.87,1.8,6.26,1.11,7.9-3.27,7.86-7,13.92-11.23,18s-8.36,5.91-13.1,5.91c-5.46,0-11.75-2.54-18.7-7.54-22.19-16-59.58-42.83-72.4-52,1.69-5.22,5.16-13,10.9-13v-8m0,0c-15.9,0-20,24.25-20,24.25s49.59,35.63,76.85,55.25c8.77,6.31,16.54,9,23.38,9,14.46,0,24.8-12.2,31.72-28.83C361.58,448,300.86,420,241,413.42a15.56,15.56,0,0,0-1.81-.1Z" fill="#8a6fe8"/><path d="M37.21,554c-7.16,0-15.15-4.45-24.41-13.6C6.65,534.31,3.7,528.08,4,521.87c.54-9.67,8.75-18.1,15.54-23.47,3.81-3,9-7.52,15-12.74,15.37-13.37,38.31-33.33,61.24-48l19.48,17.61c-8.18,12.33-40.58,61.05-55.21,82.27-7.6,11-15.08,16.4-22.87,16.4Z" fill="url(#radial-gradient-14)"/><path d="M95.41,442.73,110.06,456c-10.44,15.7-39.61,59.53-53.27,79.34C50,545.19,43.58,550,37.21,550c-6,0-13.24-4.19-21.6-12.45-5.38-5.31-7.85-10.36-7.57-15.45.48-8.61,9-16.57,14-20.55,3.88-3.07,9.1-7.61,15.14-12.86,14.7-12.79,36.38-31.65,58.21-46m.84-10C63.35,453.06,31,484.25,17.08,495.23S-9.5,524,10,543.23C19.55,552.7,28.53,558,37.19,558c8.94,0,17.55-5.63,26.16-18.13,17-24.59,57.16-85.2,57.16-85.2l-24.28-22Z" fill="#8a6fe8"/><path d="M169.18,588.23c-15.08,0-24.88-6.13-29.13-18.21-9.06-25.74-4.77-94.46-4.32-101.12,3.89-10.91,15.94-16.72,25.43-19.68a95.78,95.78,0,0,1,18.27-3.69c5.62,13.42,30.71,73.64,38.08,95.67,7.82,23.38.94,31.15-17.45,39.71C190.06,585.56,178.83,588.23,169.18,588.23Z" fill="url(#radial-gradient-15)"/><path d="M176.89,449.84c7.27,17.42,29.91,72,36.82,92.65,4.5,13.44,3,19,1.54,22-2.18,4.41-7.38,8.34-16.88,12.77s-20.1,6.94-29.19,6.94c-6.31,0-11.62-1.2-15.78-3.56a21.15,21.15,0,0,1-9.58-12c-7.5-21.33-5.6-77.58-4.14-98.94,5.09-13,25.17-18.33,37.21-19.94m5.11-8.52s-42,2-50.23,26.8c0,0-5.36,75.22,4.5,103.25,5.48,15.56,18.7,20.88,32.91,20.88,11.38,0,23.39-3.41,32.57-7.69,20.63-9.61,28-19.45,19.55-44.61S182,441.24,182,441.24Z" fill="#8a6fe8"/><g clip-path="url(#clip-path-4)"><ellipse cx="164.83" cy="422.42" rx="142" ry="81.35" transform="matrix(0.99, -0.17, 0.17, 0.99, -69.09, 33.97)" fill="url(#radial-gradient-16)"/></g><g clip-path="url(#clip-path-5)"><ellipse cx="164.83" cy="422.42" rx="142" ry="81.35" transform="matrix(0.99, -0.17, 0.17, 0.99, -69.09, 33.97)" fill="url(#radial-gradient-17)"/></g><g clip-path="url(#clip-path-6)"><ellipse cx="164.83" cy="422.42" rx="142" ry="81.35" transform="matrix(0.99, -0.17, 0.17, 0.99, -69.09, 33.97)" fill="url(#radial-gradient-16)"/></g><path d="M245,420.38c-3.82-53-39.08-105.33-88.16-99.8s-87.34,37-69.74,126.77C96.35,494.29,246.87,446.17,245,420.38Z" fill="url(#radial-gradient-19)"/><ellipse cx="166.82" cy="435.41" rx="79.99" ry="30.41" transform="translate(-93.33 48.46) rotate(-12.95)" fill="#512bd4"/><ellipse cx="166.82" cy="435.41" rx="52.55" ry="19.98" transform="translate(-93.33 48.46) rotate(-12.95)" fill="url(#radial-gradient-20)"/><ellipse cx="173.71" cy="459.74" rx="78.35" ry="20.31" transform="translate(-98.61 50.62) rotate(-12.95)" fill="none" stroke-miterlimit="10" stroke-width="6" stroke="url(#radial-gradient-21)"/><ellipse cx="172.89" cy="483.02" rx="102.84" ry="26.66" transform="translate(-103.85 51.03) rotate(-12.95)" fill="none" stroke-miterlimit="10" stroke-width="6" opacity="0.6" stroke="url(#radial-gradient-22)" style="isolation:isolate"/><ellipse cx="171.78" cy="514.06" rx="131.88" ry="34.19" transform="translate(-110.83 51.57) rotate(-12.95)" fill="none" stroke-miterlimit="10" stroke-width="6" opacity="0.3" stroke="url(#radial-gradient-23)" style="isolation:isolate"/></g></g></g></svg>