<svg xmlns="http://www.w3.org/2000/svg" xmlns:xlink="http://www.w3.org/1999/xlink" viewBox="0 0 1168.83 531.51"><defs><radialGradient id="radial-gradient" cx="-1624.89" cy="-1560.06" r="6.05" gradientTransform="translate(18343.81 16905.01) scale(10.65)" gradientUnits="userSpaceOnUse"><stop offset="0" stop-color="#8065e0"/><stop offset="1" stop-color="#512bd4"/></radialGradient><linearGradient id="linear-gradient" x1="-516.34" y1="-1982.77" x2="-516.34" y2="-1601.88" gradientTransform="translate(694 2026)" gradientUnits="userSpaceOnUse"><stop offset="0.25" stop-color="#967fe6"/><stop offset="1" stop-color="#8a6fe8"/></linearGradient><radialGradient id="radial-gradient-2" cx="-1689.26" cy="-1575.64" r="6.05" gradientTransform="translate(19576.74 18005.22) scale(11.4)" xlink:href="#radial-gradient"/><radialGradient id="radial-gradient-3" cx="-1757.21" cy="-1540.81" r="6.05" gradientTransform="translate(40029.06 35358.45) scale(22.73)" xlink:href="#radial-gradient"/></defs><g id="Layer_2" data-name="Layer 2"><g id="asset"><g id="original"><path d="M1059.09,250.7l-5.55,67.64c-44.81-3.64-129.45-46.19-186.91-100.92a374.69,374.69,0,0,0,30.89-62.18C940.05,200.7,1020.74,247.55,1059.09,250.7Z" fill="#8a6fe8"/><path d="M1109.52,189.36,1020.85,223a30.61,30.61,0,0,0,21.67,57.26l88.68-33.65a30.62,30.62,0,0,0-21.68-57.27Z" fill="#8a6fe8"/><path d="M1001,338.83l37.82,51.37a30.77,30.77,0,1,0,49.61-36.41c-.09-.13-.18-.26-.28-.38l-38.78-52.71Z" fill="#8a6fe8"/><path d="M1035.26,341.91,1112,384.83A30.79,30.79,0,0,0,1141.87,331l-57-32.1Z" fill="#8a6fe8"/><path d="M1044.86,305.55,1129.45,330a30.78,30.78,0,1,0,17.16-59.13L1060.44,246Z" fill="#8a6fe8"/><path d="M1036.09,351.88a64.44,64.44,0,1,0-64.44-64.44A64.44,64.44,0,0,0,1036.09,351.88Z" fill="url(#radial-gradient)"/><path d="M114,437.89l40.18,57.34A33.81,33.81,0,0,0,209.24,456L159.52,386.7Z" fill="#8a6fe8"/><path d="M44.65,416.19,33.52,485.35a33.79,33.79,0,0,0,66.8,10.23l11.39-70.88Z" fill="#8a6fe8"/><path d="M89.52,424l-9.34,69.42A33.8,33.8,0,1,0,147.24,502l9.6-71.2Z" fill="#8a6fe8"/><path d="M27.26,395.52,2.16,460.91a33.8,33.8,0,0,0,63.3,23.75h0L91.18,417.6Z" fill="#8a6fe8"/><path d="M73.82,424.12c-27.91-57-44.21-154.45,1.78-241.6,28-52.92,89.2-120,222.28-139.29L308.57,117c-80.8,11.7-138.51,46.39-167,100.32-30.84,58.4-22.59,129.43-.78,174Z" fill="url(#linear-gradient)"/><path d="M323.52,137.8a68.9,68.9,0,1,0-68.9-68.9,68.9,68.9,0,0,0,68.9,68.9Z" fill="url(#radial-gradient-2)"/><path d="M93.14,461a70.77,70.77,0,1,0-70.77-70.77A70.76,70.76,0,0,0,93.14,461Z" fill="url(#radial-gradient-3)"/></g></g></g></svg>