<?xml version="1.0" encoding="utf-8"?>
<!-- Generator: Adobe Illustrator 26.0.0, SVG Export Plug-In . SVG Version: 6.00 Build 0)  -->
<svg version="1.1" id="asset" xmlns="http://www.w3.org/2000/svg" xmlns:xlink="http://www.w3.org/1999/xlink" x="0px" y="0px"
	 viewBox="0 0 214.74 150" style="enable-background:new 0 0 214.74 150;" xml:space="preserve">
<style type="text/css">
	.st0{fill:#8A6FE8;}
	.st1{fill:url(#SVGID_1_);}
	.st2{fill:#D600AA;}
	.st3{fill:#FF6AE0;}
	.st4{fill:url(#SVGID_00000168075636027568278050000007200060263962306480_);}
	.st5{fill:url(#SVGID_00000072969234461117171860000017269400740820623035_);}
	.st6{fill:#FFA34B;}
	.st7{fill:#F7B548;}
	.st8{fill:#FFA04B;}
	.st9{fill:#EEAE44;}
	.st10{fill:#FFE5B9;}
	.st11{fill:#FFD590;}
	.st12{fill:url(#SVGID_00000054968641686117889260000004321522982132936630_);}
</style>
<g>
	<path class="st0" d="M141.96,65.06c-1.53,3.79-3.42,7.39-5.62,10.78c9.69,10.67,26.3,19.37,34.72,20.05l0.96-11.59
		C164.63,83.69,148.08,73.63,141.96,65.06z"/>
	<path class="st0" d="M180.65,73.79l-15.2,5.77c-1.26,0.52-2.27,1.51-2.82,2.76c-0.54,1.25-0.58,2.67-0.09,3.94
		c0.48,1.28,1.44,2.32,2.68,2.89c1.24,0.58,2.65,0.65,3.94,0.2l15.2-5.77c1.3-0.49,2.35-1.48,2.92-2.75
		c0.57-1.27,0.62-2.71,0.12-4.01c-0.49-1.3-1.48-2.35-2.75-2.93C183.4,73.33,181.96,73.29,180.65,73.79L180.65,73.79z"/>
	<path class="st0" d="M162.04,99.4l6.48,8.8c0.84,1.11,2.09,1.84,3.46,2.04c1.38,0.19,2.78-0.16,3.89-0.99
		c1.11-0.83,1.86-2.07,2.06-3.45c0.2-1.38-0.14-2.78-0.96-3.9l-6.65-9.03L162.04,99.4z"/>
	<path class="st0" d="M167.93,99.93l13.16,7.36c1.22,0.66,2.66,0.82,3.99,0.43c1.33-0.39,2.46-1.29,3.14-2.51
		c0.67-1.22,0.84-2.65,0.46-3.99c-0.38-1.34-1.27-2.47-2.48-3.16l-9.77-5.5L167.93,99.93z"/>
	<path class="st0" d="M169.57,93.7l14.5,4.19c0.67,0.19,1.36,0.25,2.05,0.18c0.69-0.08,1.36-0.29,1.96-0.62
		c0.61-0.33,1.14-0.78,1.58-1.32c0.43-0.54,0.76-1.16,0.95-1.83s0.25-1.36,0.18-2.05c-0.08-0.69-0.29-1.36-0.62-1.96
		c-0.33-0.61-0.78-1.14-1.32-1.58c-0.54-0.43-1.16-0.76-1.83-0.95l-14.76-4.27L169.57,93.7z"/>
	
		<radialGradient id="SVGID_1_" cx="-1158.9067" cy="-5331.9414" r="0.1694" gradientTransform="matrix(65.1781 0 0 65.1781 75702.3125 347616.8125)" gradientUnits="userSpaceOnUse">
		<stop  offset="0" style="stop-color:#8065E0"/>
		<stop  offset="1" style="stop-color:#512BD4"/>
	</radialGradient>
	<path class="st1" d="M168.07,101.64c2.18,0,4.32-0.65,6.13-1.86c1.82-1.21,3.23-2.94,4.07-4.96c0.84-2.02,1.05-4.24,0.63-6.38
		c-0.43-2.14-1.48-4.11-3.02-5.65s-3.51-2.6-5.65-3.02c-2.14-0.43-4.36-0.21-6.38,0.63c-2.02,0.84-3.74,2.25-4.95,4.07
		s-1.86,3.95-1.86,6.13c0,2.93,1.16,5.74,3.24,7.81C162.33,100.47,165.14,101.64,168.07,101.64z"/>
	<path class="st2" d="M172.36,99.12l-25.09-7.03V54.05l25.09,7.03V99.12z"/>
	<path class="st3" d="M172.36,99.12l25.08-8.63V52.45l-25.08,8.63V99.12z"/>
	
		<linearGradient id="SVGID_00000121959140861226030860000006144058646868687515_" gradientUnits="userSpaceOnUse" x1="-544.1511" y1="-10631.4316" x2="-492.8358" y2="-10618.7988" gradientTransform="matrix(1 0 0 1 564 10700)">
		<stop  offset="0.25" style="stop-color:#967FE6"/>
		<stop  offset="1" style="stop-color:#8A6FE8"/>
	</linearGradient>
	<path style="fill:url(#SVGID_00000121959140861226030860000006144058646868687515_);" d="M47.31,110.12
		c-5.96-1.47-11.03-3.33-15.16-5.57c-7.57-4.11-12.31-9.57-14.08-16.24c-1.2-4.49-0.97-9.37,0.66-14.51
		c1.33-4.19,3.61-8.57,6.78-13.02c5.07-7.12,12.62-14.6,20.71-20.51l7.28,9.96c-7.07,5.16-13.6,11.61-17.93,17.7
		c-6.1,8.57-6.39,14.09-5.57,17.2c2.06,7.71,14.42,13.21,34.84,15.49l-1.37,12.26C57.51,112.23,52.13,111.3,47.31,110.12z"/>
	
		<radialGradient id="SVGID_00000093874644062922999630000012734016953719291779_" cx="-1847.0596" cy="-4943.4243" r="1.228298e-03" gradientTransform="matrix(9615.46 0 0 9615.4697 17760372 47533400)" gradientUnits="userSpaceOnUse">
		<stop  offset="0" style="stop-color:#8065E0"/>
		<stop  offset="1" style="stop-color:#512BD4"/>
	</radialGradient>
	<path style="fill:url(#SVGID_00000093874644062922999630000012734016953719291779_);" d="M45.33,61.69c2.34,0,4.62-0.69,6.56-1.99
		c1.94-1.3,3.46-3.14,4.35-5.3c0.89-2.16,1.13-4.53,0.67-6.82c-0.46-2.29-1.58-4.39-3.23-6.05s-3.76-2.78-6.05-3.23
		c-2.29-0.46-4.67-0.22-6.82,0.67c-2.16,0.89-4,2.41-5.3,4.35c-1.3,1.94-1.99,4.22-1.99,6.56c0,3.13,1.24,6.13,3.46,8.35
		C39.2,60.45,42.2,61.69,45.33,61.69z"/>
	<path class="st6" d="M60,61.98c0,0-4.69-2.64-9.21-5.18c-5.56-3.12,1.58-8.85,4.32-4.07C57.29,56.52,60,61.98,60,61.98z"/>
	<path class="st7" d="M58.92,59.45c0,0-7.78,2.1-12.98,3.46c-6.91,1.8-7.56-8.19-0.35-6.55C54.16,58.33,58.92,59.45,58.92,59.45z"/>
	<path class="st7" d="M57.13,62.73c0,0,2.8-4.59,5.5-9.02c3.32-5.44-5.7-6.94-5.76-1.44C56.83,56.63,57.13,62.73,57.13,62.73z"/>
	<path class="st8" d="M56.84,60c0,0,7.82-1.97,13.01-3.33c6.91-1.8,2.59-10.84-2.89-5.88C60.45,56.68,56.84,60,56.84,60z"/>
	<path class="st9" d="M37.93,118.44l6.16-1.61L30.8,66.78l-6.16,1.61L37.93,118.44z"/>
	<path class="st10" d="M85.6,56.59L29.54,71.04l11.98,46.48l56.06-14.45L85.6,56.59z"/>
	<path class="st11" d="M86.67,52.23l-55.92,14.6l2.74,10.51l55.92-14.6L86.67,52.23z"/>
	<path class="st7" d="M27.39,79l6.2-1.6l-2.72-10.54l-6.2,1.6L27.39,79z"/>
	
		<linearGradient id="SVGID_00000089537514314183574920000000687267555647306927_" gradientUnits="userSpaceOnUse" x1="-509.0508" y1="-10616.8115" x2="-492.5971" y2="-10617.3857" gradientTransform="matrix(1 0 0 1 564 10700)">
		<stop  offset="0.1094" style="stop-color:#FFBE46"/>
		<stop  offset="0.7894" style="stop-color:#FF7951"/>
	</linearGradient>
	<path style="fill:url(#SVGID_00000089537514314183574920000000687267555647306927_);" d="M60.95,58.95l-6.28,1.64l12.06,46.22
		l6.28-1.64L60.95,58.95z"/>
	<path class="st0" d="M76.8,94.5c1.49,0.18,2.85,0.93,3.8,2.1c0.95,1.17,1.41,2.65,1.28,4.15l-0.65,9.46
		c-0.14,1.53-0.89,2.94-2.07,3.92c-1.18,0.98-2.71,1.45-4.23,1.31c-1.53-0.14-2.94-0.89-3.92-2.07s-1.45-2.71-1.31-4.23l0.65-9.37
		c0.07-0.77,0.29-1.53,0.65-2.21c0.36-0.69,0.86-1.29,1.46-1.78c0.6-0.49,1.3-0.85,2.04-1.07C75.25,94.48,76.03,94.41,76.8,94.5z"/>
	<path class="st0" d="M65.7,96.89c1.49,0.18,2.85,0.93,3.8,2.1c0.95,1.17,1.41,2.65,1.28,4.15l-0.65,9.46
		c-0.14,1.53-0.89,2.94-2.07,3.92s-2.71,1.45-4.23,1.31c-1.53-0.14-2.94-0.89-3.92-2.07c-0.98-1.18-1.45-2.71-1.31-4.23l0.65-9.37
		c0.07-0.77,0.29-1.53,0.65-2.21c0.36-0.69,0.86-1.29,1.46-1.78s1.3-0.85,2.04-1.07C64.15,96.86,64.93,96.8,65.7,96.89z"/>
	<path class="st0" d="M54.8,99.92c1.49,0.18,2.85,0.93,3.8,2.1c0.95,1.17,1.41,2.65,1.28,4.15l-0.65,9.46
		c-0.06,0.76-0.28,1.51-0.63,2.19c-0.35,0.68-0.84,1.28-1.42,1.78c-0.59,0.49-1.27,0.86-2,1.09c-0.73,0.23-1.5,0.31-2.26,0.24
		c-0.76-0.07-1.5-0.29-2.18-0.65c-0.68-0.36-1.27-0.85-1.76-1.44c-0.49-0.59-0.85-1.28-1.07-2.01c-0.22-0.73-0.29-1.5-0.21-2.27
		l0.65-9.37c0.07-0.77,0.29-1.52,0.65-2.21c0.36-0.69,0.86-1.29,1.46-1.78c0.6-0.49,1.3-0.85,2.04-1.07
		C53.25,99.89,54.03,99.83,54.8,99.92z"/>
</g>
</svg>
