<svg xmlns="http://www.w3.org/2000/svg" xmlns:xlink="http://www.w3.org/1999/xlink" viewBox="0 0 1168.83 531.49"><defs><radialGradient id="radial-gradient" cx="4100.5" cy="-6295.65" r="6.05" gradientTransform="translate(-46419.93 71808.62) scale(11.4)" gradientUnits="userSpaceOnUse"><stop offset="0" stop-color="#8065e0"/><stop offset="1" stop-color="#512bd4"/></radialGradient></defs><g id="Layer_2" data-name="Layer 2"><g id="Layer_1-2" data-name="Layer 1"><g id="asset"><path d="M114,437.89l40.18,57.34a33.81,33.81,0,1,0,55.1-39.2l-49.73-69.3Z" fill="#3f3c38"/><path d="M44.65,416.19,33.53,485.35a33.79,33.79,0,1,0,66.8,10.23l11.38-70.88Z" fill="#3f3c38"/><path d="M89.52,424l-9.34,69.42A33.8,33.8,0,0,0,147.24,502l9.6-71.2Z" fill="#3f3c38"/><path d="M27.26,395.52,2.17,460.91a33.8,33.8,0,0,0,63.3,23.75L91.2,417.6Z" fill="#3f3c38"/><path d="M73.82,424.13c-27.91-57-44.21-154.45,1.78-241.6,28-52.92,89.19-120,222.28-139.29L308.57,117c-80.8,11.7-138.52,46.39-167,100.32-30.84,58.41-22.59,129.43-.78,174Z" fill="#6e7f17"/><path d="M323.49,137.8a68.9,68.9,0,1,0-68.9-68.9A68.89,68.89,0,0,0,323.49,137.8Z" fill="url(#radial-gradient)"/><path d="M93.14,461a70.77,70.77,0,1,0-70.77-70.77A70.76,70.76,0,0,0,93.14,461Z" fill="#56534f"/><path d="M137.37,239.69l25.29-43.14s-13.11-35-44.63-46.12C67.45,132.58,33.23,202.5,66,227.79,102.92,256.35,137.37,239.69,137.37,239.69Z" fill="#3f3c38"/><path d="M897.11,154.74a375.18,375.18,0,0,1-33.76,66.75c57.48,55.77,143.76,99.4,189.17,103.09l6.57-73.87C1020.6,247.54,939.47,200.4,897.11,154.74Z" fill="#6e7f17"/><path d="M901.17,143.43c-.06.3-.12.6-.19.88a374.89,374.89,0,0,1-42.78,85L881,245.2s38.26.68,59.83-40.75C953.87,179.41,929.92,148.61,901.17,143.43Z" fill="#3f3c38"/><path d="M1109.53,189.37,1020.85,223a30.61,30.61,0,0,0,21.68,57.26l88.68-33.66a30.61,30.61,0,0,0-21.68-57.26Z" fill="#3f3c38"/><path d="M1001,338.84l37.83,51.37a30.77,30.77,0,0,0,49.33-36.8l-38.78-52.71Z" fill="#3f3c38"/><path d="M1035.26,341.92,1112,384.83A30.79,30.79,0,1,0,1141.88,331l-57-32.1Z" fill="#3f3c38"/><path d="M1044.86,305.55,1129.45,330a30.79,30.79,0,0,0,17.17-59.13L1060.44,246Z" fill="#3f3c38"/><path d="M1036.09,351.89a64.44,64.44,0,1,0-64.44-64.44A64.45,64.45,0,0,0,1036.09,351.89Z" fill="#56534f"/></g></g></g></svg>