<svg xmlns="http://www.w3.org/2000/svg" viewBox="0 0 1610.21 525.84"><g id="Layer_2" data-name="Layer 2"><g id="Layer_1-2" data-name="Layer 1"><g id="asset"><path d="M1256.44,203.84A377.21,377.21,0,0,1,1218.71,259c57.37,53.32,139.81,94.45,183.83,98l5.55-67.64C1372.53,286.43,1300.6,246,1256.44,203.84Z" fill="#0064da"/><path d="M1589,388.22c-1.76-3.86-24.65-18.1-59.91-21.21,20.14-49.87,21.23-91.43-7.07-92.33-113.86-2.79-159.63-22.33-159.63-22.33s-25.67,64.93-32,98.6c65.1,29.79,80,88.66,124.57,105.11a11.53,11.53,0,0,0,1.19.56c30.61,12.24,59.16-3.35,59.16-3.35s20.09,2.23,32.93-1.12,17.86-16.74,17.86-16.74,19-3.91,24-12.84S1593.28,397.69,1589,388.22Z" fill="#e75153"/><path d="M1583.33,389.3,1409.23,350a20.42,20.42,0,0,1-15.51-24.36l2-9.17A20.42,20.42,0,0,1,1420.12,301l174.09,39.26a20.42,20.42,0,0,1,15.51,24.36l-2,9.17A20.42,20.42,0,0,1,1583.33,389.3Z" fill="#58585a"/><path d="M1539.93,441.54l-4.22,2.44a24.36,24.36,0,0,1-33.27-8.91l-31.67-59.88a24.36,24.36,0,0,1,8.91-33.27l4.22-2.44a24.36,24.36,0,0,1,33.27,8.91l31.67,59.88A24.35,24.35,0,0,1,1539.93,441.54Z" fill="#e75153"/><path d="M1488.13,441.91l-4.22,2.44a24.36,24.36,0,0,1-33.27-8.91l-31.41-57.28a24.36,24.36,0,0,1,8.91-33.27l4.22-2.44a24.36,24.36,0,0,1,33.27,8.91L1497,408.64A24.35,24.35,0,0,1,1488.13,441.91Z" fill="#e75153"/><path d="M1494.24,273.47l67.7,2.44a24.36,24.36,0,0,1,24.38,24.33v4.87A24.36,24.36,0,0,1,1562,329.49s-59,6-123.74-29.68C1401.21,279.36,1480.79,273.48,1494.24,273.47Z" fill="#e75153"/><path d="M1349.65,246.23l-40,97.15a13.86,13.86,0,0,0,7.43,18.14l2.88,1.21a13.86,13.86,0,0,0,18.14-7.43l40-97.15a13.86,13.86,0,0,0-7.43-18.14l-2.88-1.21A13.87,13.87,0,0,0,1349.65,246.23Z" fill="#ed9583"/><path d="M1208.87,270.45q-5.14,5.76-10.52,11.32l-1.09,1.48,196.31,43.34c0-.3.09-.6.15-.9l2-9.17a20.15,20.15,0,0,1,1.57-4.46Z" fill="gray"/><path d="M1589.5,439.62l-4.22,2.44a24.36,24.36,0,0,1-33.27-8.91l-31.67-59.88a24.36,24.36,0,0,1,8.91-33.27l4.22-2.44a24.36,24.36,0,0,1,33.27,8.91l31.67,59.88A24.35,24.35,0,0,1,1589.5,439.62Z" fill="#e75153"/><path d="M715.4,406.82,68.05,238.71l6.5-28.21a7.5,7.5,0,0,0-14.61-3.37l-6.5,28.21C38,232.39.84,225.62,0,228.8s35.19,15.4,50.24,20.36l-7,30.45a7.5,7.5,0,0,0,5.62,9,7.36,7.36,0,0,0,1.6.19A7.51,7.51,0,0,0,57.84,283l6.83-29.65,647,168a7.71,7.71,0,0,0,1.89.24,7.49,7.49,0,0,0,1.89-14.74Z" fill="gray"/><path d="M569.83,136,397.34,97.92l5.46-28.43a7.5,7.5,0,0,0-14.73-2.83l-5.46,28.43c-15.52-2.38-52.93-7.79-53.63-4.58s35.73,14.1,51,18.51L374,139.71a7.5,7.5,0,0,0,5.95,8.78,7.34,7.34,0,0,0,1.61.13,7.5,7.5,0,0,0,7.17-6.08l5.74-29.88,181.58,40.08C574.12,147.59,571.79,141.42,569.83,136Z" fill="gray"/><path d="M469.89,389.8c-59.44-50.23-101.25-103.73-55.26-190.88C442.6,146,546.44,62.49,679.53,43.23L690.22,117C609.42,128.72,521,178,495,210.64s-29.3,61.95,11.72,95.44Z" fill="#0064da"/><path d="M705.14,137.8a68.9,68.9,0,1,0-68.9-68.9A68.89,68.89,0,0,0,705.14,137.8Z" fill="#ed9583"/><path d="M724.21,443.71l-82.5-25.25a18.26,18.26,0,0,1-12.12-22.8l4-13.12a18.26,18.26,0,0,1,22.8-12.12l82.5,25.25A18.26,18.26,0,0,1,751,418.47l-4,13.12A18.25,18.25,0,0,1,724.21,443.71Z" fill="#58585a"/><path d="M518.75,301.86l43.32,15c22.78,7.88,65.71,2.46,78,2.29,60.53-.84,80.65,49.45,73.51,69-18.66-2.39-31.36-2.86-39-2.8a3.67,3.67,0,0,0-2.47,6.36c13.45,12.42,42.92,41.63,44.32,60.36,4.65,62.19-83.55,90.39-130.22,63.65-48.49-27.79-64.76-76-86.13-90.79-10.86-7.53-35-21.06-35-21.06Z" fill="#e75153"/><path d="M495,293.75l-47.52,93.71a13.86,13.86,0,0,0,6,18.67l2.78,1.43a13.86,13.86,0,0,0,18.67-6l47.52-93.71a13.86,13.86,0,0,0-6-18.67l-2.78-1.43A13.86,13.86,0,0,0,495,293.75Z" fill="#ed9583"/><path d="M612.94,388.07c-11.67-8.14-19.79-12.71-19.79-12.71s-37.88,23.71-52.94,68.06A94.92,94.92,0,0,0,554,460.26,176,176,0,0,1,612.94,388.07Z" fill="#ed9583"/><path d="M629.05,400c-29.26,16.48-51.53,57-59.88,73.93,11.82,9.74,22.21,16.58,22.21,16.58s28.81-48.31,62-69A284.33,284.33,0,0,0,629.05,400Z" fill="#ed9583"/></g></g></g></svg>