<svg xmlns="http://www.w3.org/2000/svg" xmlns:xlink="http://www.w3.org/1999/xlink" viewBox="0 0 1356.15 531.49"><defs><linearGradient id="linear-gradient" x1="-516.35" y1="-15348.77" x2="-516.35" y2="-14967.88" gradientTransform="translate(694 15392)" gradientUnits="userSpaceOnUse"><stop offset="0.25" stop-color="#967fe6"/><stop offset="1" stop-color="#8a6fe8"/></linearGradient><radialGradient id="radial-gradient" cx="6274.34" cy="-8849.65" r="6.05" gradientTransform="translate(-71199.37 100921.35) scale(11.4)" gradientUnits="userSpaceOnUse"><stop offset="0" stop-color="#8065e0"/><stop offset="1" stop-color="#512bd4"/></radialGradient><radialGradient id="radial-gradient-2" cx="6588.15" cy="-8522.78" r="6.05" gradientTransform="translate(-149654.05 194053.42) scale(22.73)" xlink:href="#radial-gradient"/><radialGradient id="radial-gradient-3" cx="6285.33" cy="-8875.68" r="6.05" gradientTransform="translate(-65908.49 94821.17) scale(10.65)" xlink:href="#radial-gradient"/></defs><g id="Layer_2" data-name="Layer 2"><g id="Layer_1-2" data-name="Layer 1"><g id="asset"><path d="M114,437.89l40.18,57.34a33.81,33.81,0,1,0,55.1-39.2l-49.73-69.3Z" fill="#8a6fe8"/><path d="M44.65,416.18,33.53,485.34a33.79,33.79,0,1,0,66.8,10.23l11.38-70.88Z" fill="#8a6fe8"/><path d="M89.51,424l-9.34,69.42A33.8,33.8,0,0,0,147.23,502l9.6-71.2Z" fill="#8a6fe8"/><path d="M27.26,395.52,2.17,460.91a33.8,33.8,0,0,0,63.3,23.75L91.2,417.6Z" fill="#8a6fe8"/><path d="M73.82,424.12c-27.91-57-44.21-154.45,1.78-241.6,28-52.92,89.19-120,222.28-139.29L308.57,117c-80.8,11.7-138.52,46.39-167,100.32-30.84,58.41-22.59,129.43-.78,174Z" fill="url(#linear-gradient)"/><path d="M323.49,137.8a68.9,68.9,0,1,0-68.9-68.9A68.89,68.89,0,0,0,323.49,137.8Z" fill="url(#radial-gradient)"/><path d="M93.14,461a70.77,70.77,0,1,0-70.77-70.77A70.76,70.76,0,0,0,93.14,461Z" fill="url(#radial-gradient-2)"/><path d="M1113.18,183.83l-88.68,33.66a30.61,30.61,0,1,0,21.68,57.26l88.68-33.66a30.61,30.61,0,0,0-21.68-57.26Z" fill="#8a6fe8"/><path d="M901.29,149.77c-6.76,17.31-19.56,44.19-31,62.09,57.46,54.74,142.11,97.3,186.93,100.94l5.55-67.64C1024.41,242,943.79,195.25,901.29,149.77Z" fill="#8a6fe8"/><rect x="1140.58" y="185.51" width="82.05" height="26.79" transform="translate(198.26 883.59) rotate(-44.4)" fill="#625f5b"/><path d="M1352.84,163.3l-76.39,74.82a11,11,0,0,1-15.56-.16L1149.75,124.48a11,11,0,0,1,.16-15.56L1226.3,34.1a11,11,0,0,1,15.56.16L1353,147.74A11,11,0,0,1,1352.84,163.3Z" fill="#c4c1be"/><path d="M1342.57,163.21l-36.9,36.14a11.56,11.56,0,0,1-16.36-.17l-42.78-43.68a11.56,11.56,0,0,1,.17-16.36L1283.6,103a11.56,11.56,0,0,1,16.36.17l42.78,43.68A11.56,11.56,0,0,1,1342.57,163.21Z" fill="#fff"/><circle cx="1294.83" cy="151.37" r="27.29" fill="#625f5b"/><circle cx="1294.83" cy="151.37" r="19.77" fill="#0bbacf"/><circle cx="1187.03" cy="118.67" r="17.3" fill="#fff"/><path d="M1178.13,243,1017.64,400.19a9.08,9.08,0,0,1-12.84-.13L975.33,370a9.08,9.08,0,0,1,.13-12.84L1136,200a9.08,9.08,0,0,1,12.84.13l29.47,30.09A9.08,9.08,0,0,1,1178.13,243Z" fill="#c5d43b"/><path d="M1039.74,346.34A64.44,64.44,0,1,0,975.3,281.9,64.45,64.45,0,0,0,1039.74,346.34Z" fill="url(#radial-gradient-3)"/><path d="M1148.46,265.13,1092,253.35a30.61,30.61,0,1,0-12.94,59.84L1135.52,325a30.61,30.61,0,0,0,12.94-59.84Z" fill="#8a6fe8"/><path d="M1127.07,300l-56.45-11.78A30.61,30.61,0,1,0,1057.68,348l56.45,11.78A30.61,30.61,0,0,0,1127.07,300Z" fill="#8a6fe8"/><path d="M1090.79,326.21l-56.45-11.78a30.61,30.61,0,1,0-12.94,59.84l56.45,11.78a30.61,30.61,0,0,0,12.94-59.84Z" fill="#8a6fe8"/></g></g></g></svg>