<svg xmlns="http://www.w3.org/2000/svg" viewBox="0 0 1233.48 552.87"><g id="Layer_2" data-name="Layer 2"><g id="Layer_1-2" data-name="Layer 1"><g id="asset"><path d="M915.46,155a375.12,375.12,0,0,1-30.93,62.2C942,272,1026.63,314.52,1071.45,318.16l5.55-67.64C1038.64,247.36,957.94,200.54,915.46,155Z" fill="#044e87"/><path d="M91.73,424.12c-27.91-57-44.21-154.45,1.78-241.6,28-52.92,89.19-120,222.28-139.29L326.48,117c-80.8,11.7-138.52,46.39-167,100.32-30.84,58.41-22.59,129.43-.78,174Z" fill="#044e87"/><path d="M341.4,137.8a68.9,68.9,0,1,0-68.9-68.9A68.89,68.89,0,0,0,341.4,137.8Z" fill="#0e8ec5"/><path d="M155.66,298l7.53,45.22a115.18,115.18,0,0,0,32.35,62.71c9.46,9.42,19.87,20,28.31,29,25.55,27.3-7.14,73.44-38.12,56.14C163.94,478.84,152,467.07,152,467.07s-13.41,63.17-33.89,76.38C65.74,577.25-1.18,513.24,0,459.47c1.24-55.87,35.8-93.19,38.61-119,1.43-13.14,1.76-40.84,1.76-40.84Z" fill="#e86e58"/><path d="M151.45,273.24l-105,3a13.86,13.86,0,0,0-13.54,14.17l.07,3.12A13.86,13.86,0,0,0,47.12,307.1l105-3a13.86,13.86,0,0,0,13.54-14.17l-.07-3.12A13.86,13.86,0,0,0,151.45,273.24Z" fill="#f7b548"/><path d="M1027,210.38l51.11,14.5a92.56,92.56,0,0,0,56.93-2.06c14.06-5.12,31-11.15,44.89-15.6,35.6-11.43,63.35,37.84,34.47,58.45-20.32,14.5-36,20.23-36,20.23S1229.76,325,1233,349.18c8.16,61.82-78.3,95-126.4,70.92-50-25-69-72.18-91.13-85.77-11.27-6.91-36.18-19-36.18-19Z" fill="#e86e58"/><path d="M1002.86,203.63l-42.14,96.25a13.86,13.86,0,0,0,7,18.3l2.85,1.27a13.86,13.86,0,0,0,18.3-7L1031,216.17a13.86,13.86,0,0,0-7-18.3l-2.85-1.27A13.87,13.87,0,0,0,1002.86,203.63Z" fill="#f7b548"/></g></g></g></svg>