<svg xmlns="http://www.w3.org/2000/svg" xmlns:xlink="http://www.w3.org/1999/xlink" viewBox="0 0 1315.1 627.4"><defs><radialGradient id="radial-gradient" cx="4441.85" cy="1486.71" r="50.75" gradientTransform="matrix(0.69, -0.72, -0.72, -0.69, -1472.8, 4787.51)" gradientUnits="userSpaceOnUse"><stop offset="0" stop-color="#797673"/><stop offset="0.62" stop-color="#605d5a"/></radialGradient><radialGradient id="radial-gradient-2" cx="4288.68" cy="1630.98" r="50.75" xlink:href="#radial-gradient"/></defs><g id="Layer_2" data-name="Layer 2"><g id="Layer_1-2" data-name="Layer 1"><g id="asset"><path d="M1146.11,288.16a30.5,30.5,0,0,0-41.43-12.56l-83.6,44.8a31.33,31.33,0,0,0-3.75,2.38,64.51,64.51,0,0,1,74.82,29l41.4-22.18A30.66,30.66,0,0,0,1146.11,288.16Z" fill="#eeedec"/><path d="M897.59,251.22a375.12,375.12,0,0,1-30.93,62.2c57.46,54.73,142.1,97.29,186.92,100.93l5.55-67.64C1020.78,343.55,940.08,296.73,897.59,251.22Z" fill="#0064da"/><path d="M1036.54,448.76a64.44,64.44,0,1,0-64.44-64.44A64.45,64.45,0,0,0,1036.54,448.76Z" fill="#c4c1be"/><path d="M1273,230.43l-28.1-27a5.07,5.07,0,0,0-7.18.15l-8.08,8.41a5.07,5.07,0,0,0,.15,7.18l28.1,27a5.07,5.07,0,0,0,7.18-.15l8.08-8.41A5.08,5.08,0,0,0,1273,230.43Z" fill="#3e8eed"/><path d="M1310.08,282.23l-91.17-87.53a16.29,16.29,0,0,0-23.05.47l-70.22,73.15a16.31,16.31,0,0,0-4,15.43l6.68,25.41a16.31,16.31,0,0,1-4,15.43L1000.57,453.47a16.29,16.29,0,0,0,.47,23l36.33,34.88a16.29,16.29,0,0,0,23.05-.47l123.73-128.88a16.29,16.29,0,0,1,15.26-4.63l25.67,5.63a16.31,16.31,0,0,0,15.26-4.63l70.22-73.15A16.29,16.29,0,0,0,1310.08,282.23Z" fill="#908d89"/><path d="M1294.65,267.42l-91.17-87.53a16.29,16.29,0,0,0-23,.47l-70.22,73.15a16.31,16.31,0,0,0-4,15.43l6.68,25.41a16.31,16.31,0,0,1-4,15.43L985.14,438.66a16.29,16.29,0,0,0,.47,23l36.33,34.88a16.29,16.29,0,0,0,23-.47l123.73-128.88a16.29,16.29,0,0,1,15.26-4.63l25.66,5.63a16.31,16.31,0,0,0,15.26-4.63l70.22-73.15A16.28,16.28,0,0,0,1294.65,267.42Z" fill="#3f3c38"/><path d="M1215.6,333.87l-75.29-72.28a5.58,5.58,0,0,1-.16-7.89l49.88-52a5.58,5.58,0,0,1,7.89-.16l75.29,72.28a5.58,5.58,0,0,1,.16,7.89l-49.89,52A5.57,5.57,0,0,1,1215.6,333.87Z" fill="#f7b548"/><circle cx="1141.2" cy="284.71" r="9.24" fill="#3e8eed"/><circle cx="1168.03" cy="310.47" r="9.24" fill="#3e8eed"/><circle cx="1194.86" cy="336.23" r="9.24" fill="#3e8eed"/><path d="M1128,377.76l-28-26.89a5.48,5.48,0,0,1-.16-7.74l12.52-13.05a5.48,5.48,0,0,1,7.74-.16l28,26.89a5.48,5.48,0,0,1,.16,7.74l-12.52,13.05A5.48,5.48,0,0,1,1128,377.76Z" fill="#3e8eed"/><path d="M1306.11,169.63l-1.53-1.47a6,6,0,0,0-8.48.17l-43.49,45.3a6,6,0,0,0,.17,8.48l1.53,1.47a6,6,0,0,0,8.48-.17l43.48-45.3A6,6,0,0,0,1306.11,169.63Z" fill="#3e8eed"/><path d="M1163.58,380.78l-56.21-12.87a30.61,30.61,0,0,0-14.1,59.58l56.21,12.87a30.61,30.61,0,0,0,14.1-59.58Z" fill="#eeedec"/><path d="M1141.73,415l-56.45-11.78A30.61,30.61,0,1,0,1072.34,463l56.45,11.78A30.61,30.61,0,0,0,1141.73,415Z" fill="#eeedec"/><path d="M1105.45,441.19,1049,429.41a30.61,30.61,0,1,0-12.94,59.84L1092.51,501a30.61,30.61,0,0,0,12.94-59.84Z" fill="#eeedec"/><path d="M558.67,590.66,485,592.76c-5.87.17-10.16-4.85-8.77-10.27l15.38-60.14a9.46,9.46,0,0,1,8.93-6.88l44-1.26a8.61,8.61,0,0,1,8.81,6.37l14.28,59.29C568.93,585.22,564.54,590.49,558.67,590.66Z" fill="url(#radial-gradient)"/><path d="M346.82,597.52l-73.63,2.1c-5.87.17-10.16-4.85-8.77-10.27l15.38-60.14a9.46,9.46,0,0,1,8.93-6.88l44-1.26a8.61,8.61,0,0,1,8.81,6.37l14.28,59.29C357.08,592.08,352.69,597.35,346.82,597.52Z" fill="url(#radial-gradient-2)"/><path d="M262.84,363.09l-1.45,156c-.07,7.3,6.17,13,13.93,12.82l69.39-2c7.76-.22,14.1-6.32,14.17-13.62l.68-73.9A377.8,377.8,0,0,1,262.84,363.09Z" fill="#eeedec"/><path d="M291.56,521l1.18-127.31a378,378,0,0,1-29.9-30.54l-1.45,156c-.07,7.3,6.17,13,13.93,12.82L297,531.3A12.4,12.4,0,0,1,291.56,521Z" fill="#c4c1be"/><path d="M170.08,115.69A375.92,375.92,0,0,1,187,3.7a74.72,74.72,0,0,0-42.34,67.35V378.11a74.71,74.71,0,0,0,74.71,74.71H379C255.17,391.22,170.08,263.39,170.08,115.69Z" fill="#eeedec"/><path d="M184.59,385.9V219.5A378.6,378.6,0,0,1,188.21,0a74.68,74.68,0,0,0-43.52,67.87V378.11a74.71,74.71,0,0,0,74.71,74.71h3A78.08,78.08,0,0,1,184.59,385.9Z" fill="#c4c1be"/><path d="M170.08,115.69A378.68,378.68,0,0,1,177,43.45q-.6,0-1.2,0H120.25A29.15,29.15,0,0,0,91.1,72.57V174.73a29.15,29.15,0,0,0,29.15,29.15h55.56a28.79,28.79,0,0,0,4.58-.36A377.73,377.73,0,0,1,170.08,115.69Z" fill="#eeedec"/><path d="M136.87,187.42H121a12.58,12.58,0,0,1-12.58-12.58V76.1A12.58,12.58,0,0,1,121,63.52h15.86A12.58,12.58,0,0,1,149.45,76.1v98.74A12.58,12.58,0,0,1,136.87,187.42Z" fill="#b3afab"/><circle cx="128.52" cy="91.14" r="11.72" fill="#dddbda"/><circle cx="128.52" cy="131.17" r="11.72" fill="#dddbda"/><path d="M546.37,492a377.92,377.92,0,0,1-72.88-7.06l-.25,27.3c-.07,7.3,6.17,13,13.93,12.82l69.39-2c7.76-.22,14.1-6.32,14.17-13.62l.17-18.26Q558.73,492,546.37,492Z" fill="#eeedec"/><path d="M500.56,512.33l.21-23.09q-13.8-1.67-27.28-4.32l-.25,27.3c-.07,7.3,6.17,13,13.93,12.82l22.3-.64A12.62,12.62,0,0,1,500.56,512.33Z" fill="#c4c1be"/><path d="M114,533.8l40.18,57.34a33.81,33.81,0,1,0,55.1-39.2l-49.73-69.3Z" fill="#eeedec"/><path d="M44.65,512.1,33.53,581.26a33.79,33.79,0,1,0,66.8,10.23l11.38-70.88Z" fill="#eeedec"/><path d="M89.51,519.91l-9.34,69.42a33.8,33.8,0,0,0,67.06,8.57l9.6-71.2Z" fill="#eeedec"/><path d="M27.26,491.43,2.17,556.82a33.8,33.8,0,0,0,63.3,23.75L91.2,513.51Z" fill="#eeedec"/><path d="M73.82,520c-27.91-57-44.21-154.45,1.78-241.6,28-52.92,89.19-120,222.28-139.29l10.69,73.79c-80.8,11.7-138.52,46.39-167,100.32-30.84,58.41-22.59,129.43-.78,174Z" fill="#0064da"/><path d="M323.49,233.71a68.9,68.9,0,1,0-68.9-68.9A68.89,68.89,0,0,0,323.49,233.71Z" fill="#227be5"/><path d="M93.14,556.94a70.77,70.77,0,1,0-70.77-70.77A70.76,70.76,0,0,0,93.14,556.94Z" fill="#c4c1be"/></g></g></g></svg>