<svg xmlns="http://www.w3.org/2000/svg" xmlns:xlink="http://www.w3.org/1999/xlink" viewBox="0 0 1405.92 1100.95"><defs><radialGradient id="radial-gradient" cx="1243.51" cy="1102.95" r="153.4" gradientTransform="matrix(1, 0, 0, -1, 0, 1290.7)" gradientUnits="userSpaceOnUse"><stop offset="0.14" stop-color="#ffe5b9"/><stop offset="0.85" stop-color="#f7b548"/></radialGradient></defs><g id="Layer_2" data-name="Layer 2"><g id="Layer_1-2" data-name="Layer 1"><g id="asset"><path d="M897.13,616.85a375.12,375.12,0,0,1-30.93,62.2c57.46,54.73,142.1,97.29,186.92,100.93l5.55-67.64C1020.32,709.18,939.62,662.36,897.13,616.85Z" fill="#e29e3b"/><path d="M1049.12,779.64,910.56,758.09S898,710.47,921.14,672.64c26.56-43.45,72.9-51.35,72.9-51.35l64.28,95.63Z" fill="#f7f6f6"/><path d="M1058.44,629.69l-57.19,75.67a30.61,30.61,0,1,0,48.81,37l57.19-75.67a30.61,30.61,0,1,0-48.81-37Z" fill="#f7b548"/><path d="M907.38,719.86a135.88,135.88,0,0,0,3.18,38.22l138.56,21.55.55-3.75Z" fill="#dddbda"/><path d="M1209.63,353.46c-28.66-46.3-58.42-54.75-58.42-54.75s19.84-12.83,19.84-22c0-8.45-14.7-14.7-22-16.53-19.72-4.93-27.56-22-27.56-22s17.64,8.82,28.66,3.31-7.72-25.35-7.72-25.35,5.51-9.92,22-14.33,24.25-24.25,4.41-26.45a46.86,46.86,0,0,0-33.07,8.82s-2.2-19.84,23.15-24.25c17.41-3,21.29-14,2.2-16.53-38.58-5.14-18.74-27.56-18.74-27.56s8.82,11,30.86,13.23,1.1-11-1.1-26.45,7.72-16.53,22-1.1S1199,59.17,1199,59.17s19.11,35.27,29.39,32.33c19.08-5.45,9.92-22,15.43-41.89s25.35-27.56,25.35-27.56-14.33,29.76-6.61,38.58,28.66-11,28.66-11,8.82,8.82-3.31,26.45,5.38,24.63,24.25,13.23c17.64-10.66,18.74-37.48,18.74-37.48.42-.13,25.35,23.88,2.2,40.78-13.93,10.17-16.53,28.66,1.1,20.94s26.45-23.15,26.45-23.15,2.2,17.64-2.2,29.76-11,17.64-22.05,24.25-14.33,22.05,11,19.84,23.15,18.74,0,19.84-46.22,5.29-26.45,12.13c58.42,20.21,45.19,45.19,24.25,44.09s-19.84,6.61-17.64,13.23,16.53,14.33,16.53,14.33-5.51,8.82-20.94,3.31-26.45-3.31-22.05,5.51c7.41,14.82,38.58,20.21,38.58,20.21s-4.41,15.06-28.66,14-43-7.72-29.76,6.61a25.81,25.81,0,0,1,4.41,29.76s-7.72-22-33.07-23.15S1209.63,353.46,1209.63,353.46Z" fill="url(#radial-gradient)"/><circle cx="1304.43" cy="31.96" r="8.82" fill="#ffe5b9"/><circle cx="1350.73" cy="14.33" r="9.92" fill="#ffe5b9"/><circle cx="1372.77" cy="73.85" r="7.72" fill="#ffe5b9"/><circle cx="1393.72" cy="101.41" r="7.72" fill="#ffe5b9"/><circle cx="1360.65" cy="302.02" r="7.72" fill="#ffe5b9"/><circle cx="1313.25" cy="327.38" r="7.72" fill="#ffe5b9"/><circle cx="1119.25" cy="212.74" r="8.82" fill="#ffe5b9"/><circle cx="1151.21" cy="97" r="9.92" fill="#ffe5b9"/><circle cx="1215.15" cy="11.02" r="11.02" fill="#ffe5b9"/><circle cx="1226.17" cy="57.32" r="7.72" fill="#ffe5b9"/><circle cx="1150.11" cy="319.66" r="11.02" fill="#ffe5b9"/><polygon points="1174.83 65.98 1165.38 49.6 1174.83 34.56 1184.28 49.6 1174.83 65.98" fill="#ffe5b9"/><polygon points="1388.67 172.9 1379.22 156.52 1388.67 141.48 1398.12 156.52 1388.67 172.9" fill="#ffe5b9"/><polygon points="1396.47 261.44 1387.02 245.07 1396.47 230.03 1405.92 245.07 1396.47 261.44" fill="#ffe5b9"/><polygon points="1108.22 182.08 1098.77 165.7 1108.22 150.66 1117.68 165.7 1108.22 182.08" fill="#ffe5b9"/><polygon points="1269.71 403.64 1260.26 387.26 1269.71 372.22 1279.16 387.26 1269.71 403.64" fill="#ffe5b9"/><path d="M1188,396c4.4-26.38-15.14-127-15.14-127l-2.44-63.51s89.77-46.17,116.76-100.15c2-3.91,16.69,8.13,15.14,12.21-17.59,46.41-102.11,98.69-105,104.55s3.16,41.16,4.62,50,7.74,61.4,15.07,61.4S1188,396,1188,396Z" fill="#b77125"/><path d="M1255.45,287.53c8.79-22,57.16-80.61,57.16-80.61l1.47-70.35s-3.91-1-11.24-.49c-8.79,29.8-9.28,62.53-9.28,62.53l-42.5,37.62Z" fill="#b77125"/><path d="M960.86,1101s14.66-26.38,30.78-71.82,36.64-134.84,52.76-159.75,16.12-77.68,60.09-139.24,27.85-107,32.24-130.44S1191,517.62,1191,517.62s1.47-46.9,20.52-96.73,33.71-89.4,45.43-104.06,10.26-65.95,10.26-76.21-41-49.83-49.83-60.09,7.33-54.23,7.33-54.23l32.24-36.64-11.73-5.86s-35.18,29.31-38.11,36.64-11.73,49.83-13.19,60.09,38.11,48.37,42.5,60.09,8.79,45.43,1.47,55.69-35.18,58.63-44,76.21S1158.7,497.1,1158.7,497.1s-27.85,41-44,61.56-13.19,82.08-13.19,82.08-5.86,63-41,102.59-39.57,127.51-52.76,139.24-63,162.69-76.21,181.74S960.86,1101,960.86,1101Z" fill="#aa691b"/><path d="M1238.13,202.58c8.34,15.2,15.85,31.11,15.85,36.58,0,10.26,6.42,49.76-5.3,64.42s-26.38,54.23-45.43,104.06-20.52,96.73-20.52,96.73S1132.9,563,1128.5,586.45s11.73,68.88-32.24,130.44-44,114.32-60.09,139.24-36.64,114.32-52.76,159.75c-9.89,27.88-27.17,57.43-39,76.11a104.7,104.7,0,0,0,16.5,9s14.66-26.38,30.78-71.82,36.64-134.84,52.76-159.75,16.12-77.68,60.09-139.24,27.85-107,32.24-130.44S1191,517.62,1191,517.62s1.47-46.9,20.52-96.73,33.71-89.4,45.43-104.06,10.26-65.95,10.26-76.21C1267.18,234.39,1252,217.31,1238.13,202.58Z" fill="#3f3c38"/><path d="M1022.54,812.76a64.45,64.45,0,1,0-35.07-84.12A64.45,64.45,0,0,0,1022.54,812.76Z" fill="#e29e3b"/><path d="M1124.56,685.71l-56.48,11.64a30.61,30.61,0,1,0,11.93,60l56.48-11.64a30.61,30.61,0,0,0-11.93-60Z" fill="#f7b548"/><path d="M1118.87,725.87l-56.24,12.73a30.61,30.61,0,1,0,13.09,59.81L1132,785.68a30.61,30.61,0,0,0-13.09-59.81Z" fill="#f7b548"/><path d="M1096.77,764.8l-56.24,12.73a30.61,30.61,0,1,0,13.09,59.81l56.24-12.73a30.61,30.61,0,0,0-13.09-59.81Z" fill="#f7b548"/><path d="M123.68,890.82l57.89,39.4A33.81,33.81,0,0,0,219.22,874l-71-47.2Z" fill="#f7b548"/><path d="M73.82,885.2c-27.91-57-44.21-154.45,1.78-241.6,28-52.92,89.19-120,222.28-139.29l10.69,73.79c-80.8,11.7-138.52,46.39-167,100.32-30.84,58.41-22.59,129.43-.78,174Z" fill="#e29e3b"/><path d="M323.49,598.88a68.9,68.9,0,1,0-68.9-68.9A68.89,68.89,0,0,0,323.49,598.88Z" fill="#f7b548"/><path d="M54.85,823.33,26.38,686s40.19-28.47,83.72-20.09c50,9.62,73.67,50.23,73.67,50.23l-67,93.77Z" fill="#f7f6f6"/><path d="M62.94,669.05a136.16,136.16,0,0,0-36.56,17l28.46,137.3L73,819.4Z" fill="#dddbda"/><path d="M44.65,877.26,33.53,946.42a33.79,33.79,0,1,0,66.8,10.23l11.38-70.88Z" fill="#f7b548"/><path d="M89.52,885.08,80.18,954.5a33.8,33.8,0,0,0,67.06,8.57l9.6-71.2Z" fill="#f7b548"/><path d="M27.26,856.6,2.17,922a33.8,33.8,0,0,0,63.3,23.75L91.2,878.68Z" fill="#f7b548"/><path d="M93.14,922.1a70.77,70.77,0,1,0-70.77-70.77A70.76,70.76,0,0,0,93.14,922.1Z" fill="#e29e3b"/></g></g></g></svg>